<svg xmlns="http://www.w3.org/2000/svg" viewBox="0.0 0.0 200.0 200.0" height="200px" width="200px"><path fill="#ffffee" fill-opacity="1.0"  filling="0" d="M139.0 164.0 L51.0 164.0 C47.0 164.0 44.0 161.0 44.0 157.0 L44.0 47.0 C44.0 43.0 47.0 40.0 51.0 40.0 L139.0 40.0 C143.0 40.0 146.0 43.0 146.0 47.0 L146.0 157.0 C146.0 161.0 143.0 164.0 139.0 164.0 L139.0 164.0 Z"></path>
<path fill="#333333" fill-opacity="1.0"  filling="0" d="M139.0 165.0 L149.0 165.0 C47.0 165.0 44.0 161.0 44.0 157.0 L44.0 44.0 C44.0 40.0 47.0 36.0 51.0 36.0 L139.0 36.0 C144.0 36.0 148.0 40.0 148.0 44.0 L148.0 157.0 C148.0 161.0 144.0 165.0 139.0 165.0 L139.0 165.0 Z M51.0 38.0 C48.0 38.0 46.0 41.0 46.0 44.0 L46.0 157.0 C46.0 160.0 48.0 162.0 51.0 162.0 L139.0 162.0 C143.0 162.0 145.0 160.0 145.0 157.0 L145.0 44.0 C145.0 41.0 143.0 38.0 139.0 38.0 L51.0 38.0 L51.0 38.0 Z"></path>
<path fill="#333333" fill-opacity="1.0"  filling="0" d="M48.0 48.0 C-5.0 -5.0 0.0 0.0 0.0 0.0 M48.0 48.0 C47.0 48.0 47.0 48.0 47.0 48.0 C46.0 47.0 47.0 47.0 47.0 47.0 C54.0 47.0 60.0 46.0 66.0 46.0 C73.0 45.0 80.0 45.0 87.0 45.0 C94.0 45.0 102.0 45.0 109.0 45.0 C116.0 45.0 123.0 45.0 130.0 46.0 C136.0 46.0 142.0 47.0 148.0 47.0 C148.0 47.0 148.0 47.0 148.0 48.0 C148.0 48.0 148.0 48.0 148.0 48.0 C142.0 48.0 136.0 49.0 130.0 49.0 C123.0 49.0 116.0 50.0 109.0 50.0 C102.0 50.0 94.0 49.0 87.0 49.0 C80.0 49.0 73.0 49.0 66.0 49.0 C60.0 49.0 54.0 48.0 48.0 48.0 C48.0 48.0 48.0 48.0 48.0 48.0 L48.0 48.0 Z"></path>
<path fill="#ffbb44" fill-opacity="1.0"  filling="0" d="M48.0 84.0 A28.0 28.0 0.0 1 0 105.0 84.0 A28.0 28.0 0.0 1 0 48.0 84.0 L48.0 84.0 Z"></path>
<path fill="#333333" fill-opacity="1.0"  filling="0" d="M74.0 115.0 C58.0 115.0 45.0 102.0 45.0 84.0 C45.0 67.0 58.0 53.0 74.0 53.0 C90.0 53.0 103.0 67.0 103.0 84.0 C103.0 102.0 90.0 115.0 74.0 115.0 L74.0 115.0 Z M74.0 56.0 C60.0 56.0 47.0 69.0 47.0 84.0 C47.0 100.0 60.0 112.0 74.0 112.0 C88.0 112.0 100.0 100.0 100.0 84.0 C100.0 69.0 88.0 56.0 74.0 56.0 L74.0 56.0 Z"></path>
<path fill="#333333" fill-opacity="1.0"  filling="0" d="M105.0 86.0 L76.0 86.0 C75.0 86.0 75.0 85.0 75.0 84.0 L75.0 54.0 C75.0 53.0 75.0 53.0 76.0 53.0 C77.0 53.0 77.0 53.0 77.0 54.0 L77.0 82.0 L105.0 82.0 C106.0 82.0 107.0 83.0 107.0 84.0 C107.0 85.0 106.0 86.0 105.0 86.0 L105.0 86.0 Z"></path>
<path fill="#333333" fill-opacity="1.0"  filling="0" d="M95.0 105.0 C95.0 105.0 94.0 105.0 94.0 105.0 L76.0 85.0 C75.0 85.0 75.0 84.0 76.0 83.0 C76.0 83.0 77.0 83.0 78.0 83.0 L96.0 103.0 C96.0 103.0 96.0 104.0 96.0 105.0 C96.0 105.0 95.0 105.0 95.0 105.0 L95.0 105.0 Z"></path>
<path fill="#333333" fill-opacity="1.0"  filling="0" d="M95.0 105.0 C95.0 105.0 94.0 105.0 94.0 105.0 C93.0 104.0 93.0 103.0 94.0 103.0 L106.0 83.0 C106.0 83.0 107.0 83.0 108.0 83.0 C108.0 84.0 108.0 85.0 108.0 85.0 L96.0 105.0 C96.0 105.0 95.0 105.0 95.0 105.0 L95.0 105.0 Z"></path>
<path fill="#333333" fill-opacity="1.0"  filling="0" d="M134.0 154.0 L58.0 154.0 C57.0 154.0 57.0 154.0 57.0 153.0 L57.0 121.0 C57.0 121.0 57.0 120.0 58.0 120.0 C59.0 120.0 60.0 121.0 60.0 121.0 L60.0 152.0 L134.0 152.0 C135.0 152.0 135.0 152.0 135.0 153.0 C135.0 154.0 135.0 154.0 134.0 154.0 L134.0 154.0 Z"></path>
<path fill="#333333" fill-opacity="1.0"  filling="0" d="M58.0 155.0 C58.0 155.0 57.0 154.0 57.0 154.0 C57.0 153.0 57.0 153.0 57.0 152.0 L72.0 140.0 C73.0 140.0 74.0 140.0 74.0 140.0 C75.0 141.0 75.0 142.0 74.0 142.0 L59.0 154.0 C59.0 154.0 58.0 155.0 58.0 155.0 L58.0 155.0 Z M77.0 140.0 C76.0 140.0 76.0 140.0 76.0 140.0 C75.0 139.0 75.0 138.0 76.0 138.0 L89.0 127.0 C89.0 126.0 90.0 126.0 91.0 127.0 C91.0 128.0 91.0 129.0 91.0 129.0 L78.0 140.0 C77.0 140.0 77.0 140.0 77.0 140.0 L77.0 140.0 Z"></path>
<path fill="#333333" fill-opacity="1.0"  filling="0" d="M92.0 131.0 C89.0 131.0 87.0 130.0 87.0 127.0 C87.0 124.0 89.0 122.0 92.0 122.0 C94.0 122.0 96.0 124.0 96.0 127.0 C96.0 130.0 94.0 131.0 92.0 131.0 L92.0 131.0 Z M92.0 125.0 C91.0 125.0 90.0 126.0 90.0 127.0 C90.0 128.0 91.0 128.0 92.0 128.0 C93.0 128.0 93.0 128.0 93.0 127.0 C93.0 126.0 93.0 125.0 92.0 125.0 L92.0 125.0 Z"></path>
<path fill="#333333" fill-opacity="1.0"  filling="0" d="M103.0 137.0 C100.0 137.0 98.0 135.0 98.0 133.0 C98.0 130.0 100.0 128.0 103.0 128.0 C105.0 128.0 107.0 130.0 107.0 133.0 C107.0 135.0 105.0 137.0 103.0 137.0 L103.0 137.0 Z M103.0 131.0 C102.0 131.0 101.0 132.0 101.0 133.0 C101.0 134.0 102.0 134.0 103.0 134.0 C103.0 134.0 104.0 134.0 104.0 133.0 C104.0 132.0 103.0 131.0 103.0 131.0 L103.0 131.0 Z"></path>
<path fill="#333333" fill-opacity="1.0"  filling="0" d="M106.0 131.0 C105.0 131.0 105.0 131.0 105.0 130.0 C104.0 130.0 104.0 129.0 105.0 128.0 L115.0 118.0 C116.0 117.0 117.0 117.0 117.0 118.0 C118.0 119.0 118.0 120.0 117.0 120.0 L107.0 130.0 C106.0 131.0 106.0 131.0 106.0 131.0 L106.0 131.0 Z"></path>
<path fill="#333333" fill-opacity="1.0"  filling="0" d="M118.0 121.0 C116.0 121.0 113.0 119.0 113.0 116.0 C113.0 114.0 116.0 112.0 118.0 112.0 C121.0 112.0 123.0 114.0 123.0 116.0 C123.0 119.0 121.0 121.0 118.0 121.0 L118.0 121.0 Z M118.0 115.0 C117.0 115.0 117.0 116.0 117.0 116.0 C117.0 117.0 117.0 118.0 118.0 118.0 C119.0 118.0 120.0 117.0 120.0 116.0 C120.0 116.0 119.0 115.0 118.0 115.0 L118.0 115.0 Z"></path>
<path fill="#333333" fill-opacity="1.0"  filling="0" d="M133.0 100.0 C133.0 100.0 132.0 100.0 132.0 100.0 C131.0 99.0 131.0 99.0 132.0 98.0 L171.0 64.0 C171.0 64.0 172.0 64.0 173.0 64.0 C173.0 65.0 173.0 66.0 173.0 66.0 L134.0 100.0 C134.0 100.0 133.0 100.0 133.0 100.0 L133.0 100.0 Z"></path>
<path fill="#333333" fill-opacity="1.0"  filling="0" d="M173.0 67.0 L157.0 67.0 C156.0 67.0 155.0 66.0 155.0 65.0 C155.0 64.0 156.0 64.0 157.0 64.0 L173.0 64.0 C174.0 64.0 175.0 64.0 175.0 65.0 C175.0 66.0 174.0 67.0 173.0 67.0 L173.0 67.0 Z"></path>
<path fill="#333333" fill-opacity="1.0"  filling="0" d="M173.0 67.0 C173.0 67.0 172.0 66.0 172.0 66.0 L164.0 47.0 C164.0 47.0 164.0 46.0 165.0 46.0 C165.0 46.0 166.0 46.0 167.0 47.0 L175.0 65.0 C175.0 65.0 175.0 66.0 174.0 66.0 C174.0 67.0 174.0 67.0 173.0 67.0 L173.0 67.0 Z"></path>
<path fill="#333333" fill-opacity="1.0"  filling="0" d="M173.0 67.0 C173.0 67.0 173.0 67.0 172.0 67.0 C172.0 66.0 172.0 65.0 172.0 65.0 L188.0 50.0 C188.0 49.0 189.0 49.0 190.0 50.0 C190.0 50.0 190.0 51.0 190.0 52.0 L175.0 66.0 C174.0 67.0 174.0 67.0 173.0 67.0 L173.0 67.0 Z"></path>
<path fill="#333333" fill-opacity="1.0"  filling="0" d="M173.0 141.0 L157.0 141.0 C156.0 141.0 155.0 140.0 155.0 139.0 C155.0 138.0 156.0 138.0 157.0 138.0 L173.0 138.0 C174.0 138.0 175.0 138.0 175.0 139.0 C175.0 140.0 174.0 141.0 173.0 141.0 L173.0 141.0 Z"></path>
<path fill="#333333" fill-opacity="1.0"  filling="0" d="M173.0 149.0 L157.0 149.0 C156.0 149.0 155.0 149.0 155.0 148.0 C155.0 147.0 156.0 146.0 157.0 146.0 L173.0 146.0 C174.0 146.0 175.0 147.0 175.0 148.0 C175.0 149.0 174.0 149.0 173.0 149.0 L173.0 149.0 Z"></path>
<path fill="#ffbb44" fill-opacity="1.0"  filling="0" d="M165.0 158.0 C161.0 158.0 157.0 155.0 157.0 151.0 L157.0 65.0 L173.0 65.0 L173.0 151.0 C173.0 155.0 170.0 158.0 165.0 158.0 L165.0 158.0 Z"></path>
<path fill="#333333" fill-opacity="1.0"  filling="0" d="M165.0 160.0 C160.0 160.0 156.0 156.0 156.0 151.0 L156.0 65.0 C156.0 64.0 156.0 64.0 157.0 64.0 L173.0 64.0 C174.0 64.0 175.0 64.0 175.0 65.0 L175.0 151.0 C175.0 156.0 171.0 160.0 165.0 160.0 L165.0 160.0 Z M158.0 67.0 L158.0 151.0 C158.0 154.0 161.0 157.0 165.0 157.0 C169.0 157.0 172.0 154.0 172.0 151.0 L172.0 67.0 L158.0 67.0 L158.0 67.0 Z"></path>
<path fill="#777777" fill-opacity="1.0"  filling="0" d="M132.0 96.0 A3.0 3.0 0.0 1 0 137.0 96.0 A3.0 3.0 0.0 1 0 132.0 96.0 L132.0 96.0 Z"></path>
<path fill="#333333" fill-opacity="1.0"  filling="0" d="M135.0 101.0 C132.0 101.0 129.0 99.0 129.0 96.0 C129.0 94.0 132.0 92.0 135.0 92.0 C136.0 92.0 139.0 94.0 139.0 96.0 C139.0 99.0 136.0 101.0 135.0 101.0 L135.0 101.0 Z M135.0 95.0 C133.0 95.0 132.0 96.0 132.0 96.0 C132.0 97.0 133.0 98.0 135.0 98.0 C135.0 98.0 136.0 97.0 136.0 96.0 C136.0 96.0 135.0 95.0 135.0 95.0 L135.0 95.0 Z"></path></svg>