<svg xmlns="http://www.w3.org/2000/svg" viewBox="0.0 0.0 200.0 200.0" height="200px" width="200px"><path fill="#ffffee" fill-opacity="1.0"  filling="0" d="M139.0 163.0 L51.0 163.0 C47.0 163.0 44.0 160.0 44.0 156.0 L44.0 47.0 C44.0 43.0 47.0 40.0 51.0 40.0 L139.0 40.0 C143.0 40.0 146.0 43.0 146.0 47.0 L146.0 156.0 C146.0 160.0 143.0 163.0 139.0 163.0 L139.0 163.0 Z"></path>
<path fill="#ffcc77" fill-opacity="1.0"  filling="0" d="M139.0 165.0 L149.0 165.0 L149.0 153.0 L140.0 153.0 L139.0 165.0 L139.0 165.0 Z"></path>
<path fill="#ffcc77" fill-opacity="1.0"  filling="0" d="M139.0 153.0 L44.0 153.0 L44.0 156.0 C44.0 160.0 47.0 163.0 51.0 163.0 L139.0 164.0 L139.0 153.0 L139.0 153.0 Z"></path>
<path fill="#ff9955" fill-opacity="1.0"  filling="0" d="M139.0 160.0 L51.0 160.0 C47.0 160.0 44.0 157.0 44.0 153.0 L44.0 156.0 C44.0 160.0 47.0 163.0 51.0 163.0 L139.0 163.0 L139.0 160.0 L139.0 160.0 Z"></path>
<path fill="#ff9955" fill-opacity="1.0"  filling="0" d="M139.0 160.0 L149.0 160.0 L149.0 153.0 L139.0 153.0 L139.0 160.0 L139.0 160.0 Z"></path>
<path fill="#ff9955" fill-opacity="1.0"  filling="0" d="M139.0 153.0 L149.0 153.0 L149.0 65.0 L139.0 65.0 L139.0 153.0 L139.0 153.0 Z"></path>
<path fill="#ffcc77" fill-opacity="1.0"  filling="0" d="M61.0 65.0 L149.0 65.0 L149.0 47.0 C149.0 43.0 145.0 40.0 141.0 40.0 L61.0 40.0 L61.0 65.0 L61.0 65.0 Z"></path>
<path fill="#ff9955" fill-opacity="1.0"  filling="0" d="M61.0 65.0 L149.0 65.0 L149.0 65.0 L139.0 65.0 L139.0 65.0 L139.0 65.0 Z"></path>
<path fill="#ff9955" fill-opacity="1.0"  filling="0" d="M61.0 65.0 L44.0 65.0 L44.0 65.0 L61.0 65.0 L61.0 65.0 Z"></path>
<path fill="#ffffee" fill-opacity="1.0"  filling="0" d="M62.0 65.0 L44.0 65.0 L44.0 153.0 L138.0 153.0 L138.0 65.0 L62.0 65.0 L62.0 65.0 Z"></path>
<path fill="#ffcc44" fill-opacity="1.0"  filling="0" d="M62.0 65.0 L44.0 65.0 L44.0 153.0 L138.0 153.0 L138.0 65.0 L62.0 65.0 L62.0 65.0 Z M75.0 115.0 C59.0 115.0 46.0 101.0 46.0 85.0 C46.0 70.0 59.0 58.0 75.0 58.0 L75.0 85.0 L75.0 115.0 L75.0 115.0 Z M104.0 85.0 C104.0 101.0 90.0 115.0 75.0 115.0 L75.0 85.0 L104.0 85.0 L104.0 85.0 Z M75.0 58.0 C90.0 58.0 104.0 70.0 104.0 85.0 L75.0 85.0 L75.0 58.0 L75.0 58.0 Z"></path>
<path fill="#ff7722" fill-opacity="1.0"  filling="0" d="M75.0 115.0 C91.0 115.0 104.0 101.0 104.0 85.0 L75.0 85.0 L75.0 115.0 L75.0 115.0 Z"></path>
<path fill="#ffffff" fill-opacity="1.0"  filling="0" d="M75.0 85.0 L104.0 85.0 C104.0 70.0 90.0 58.0 75.0 58.0 L75.0 85.0 L75.0 85.0 Z"></path>
<path fill="#ffcc44" fill-opacity="1.0"  filling="0" d="M46.0 85.0 C46.0 101.0 59.0 115.0 75.0 115.0 L75.0 58.0 C59.0 58.0 46.0 70.0 46.0 85.0 L46.0 85.0 Z"></path>
<path fill="#ff9955" fill-opacity="1.0"  filling="0" d="M112.0 47.0 A3.0 3.0 0.0 1 0 118.0 47.0 A3.0 3.0 0.0 1 0 112.0 47.0 L112.0 47.0 Z"></path>
<path fill="#ff9955" fill-opacity="1.0"  filling="0" d="M121.0 47.0 A3.0 3.0 0.0 1 0 127.0 47.0 A3.0 3.0 0.0 1 0 121.0 47.0 L121.0 47.0 Z"></path>
<path fill="#ff9955" fill-opacity="1.0"  filling="0" d="M130.0 47.0 A3.0 3.0 0.0 1 0 136.0 47.0 A3.0 3.0 0.0 1 0 130.0 47.0 L130.0 47.0 Z"></path>
<path fill="#ff9955" fill-opacity="1.0"  filling="0" d="M116.0 93.0 A3.0 3.0 0.0 1 0 122.0 93.0 A3.0 3.0 0.0 1 0 116.0 93.0 L116.0 93.0 Z"></path>
<path fill="#ff9955" fill-opacity="1.0"  filling="0" d="M126.0 93.0 A3.0 3.0 0.0 1 0 132.0 93.0 A3.0 3.0 0.0 1 0 126.0 93.0 L126.0 93.0 Z"></path>
<path fill="#ff9955" fill-opacity="1.0"  filling="0" d="M134.0 93.0 A3.0 3.0 0.0 1 0 140.0 93.0 A3.0 3.0 0.0 1 0 134.0 93.0 L134.0 93.0 Z"></path>
<path fill="#ff9955" fill-opacity="1.0"  filling="0" d="M116.0 117.0 A3.0 3.0 0.0 1 0 122.0 117.0 A3.0 3.0 0.0 1 0 116.0 117.0 L116.0 117.0 Z"></path>
<path fill="#ff9955" fill-opacity="1.0"  filling="0" d="M126.0 117.0 A3.0 3.0 0.0 1 0 132.0 117.0 A3.0 3.0 0.0 1 0 126.0 117.0 L126.0 117.0 Z"></path>
<path fill="#ff9955" fill-opacity="1.0"  filling="0" d="M134.0 117.0 A3.0 3.0 0.0 1 0 140.0 117.0 A3.0 3.0 0.0 1 0 134.0 117.0 L134.0 117.0 Z"></path>
<path fill="#ff9955" fill-opacity="1.0"  filling="0" d="M116.0 113.0 A4.0 4.0 0.0 1 0 123.0 113.0 A4.0 4.0 0.0 1 0 116.0 113.0 L116.0 113.0 Z"></path>
<path fill="#ff9955" fill-opacity="1.0"  filling="0" d="M129.0 96.0 A4.0 4.0 0.0 1 0 138.0 96.0 A4.0 4.0 0.0 1 0 129.0 96.0 L129.0 96.0 Z"></path>
<path fill="#ff9955" fill-opacity="1.0"  filling="0" d="M115.0 117.0 A4.0 4.0 0.0 1 0 123.0 117.0 A4.0 4.0 0.0 1 0 115.0 117.0 L115.0 117.0 Z"></path>
<path fill="#ff9955" fill-opacity="1.0"  filling="0" d="M132.0 113.0 A4.0 4.0 0.0 1 0 139.0 113.0 A4.0 4.0 0.0 1 0 132.0 113.0 L132.0 113.0 Z"></path>
<path fill="#ff9955" fill-opacity="1.0"  filling="0" d="M116.0 113.0 A4.0 4.0 0.0 1 0 123.0 113.0 A4.0 4.0 0.0 1 0 116.0 113.0 L116.0 113.0 Z"></path>
<path fill="#ff9955" fill-opacity="1.0"  filling="0" d="M129.0 96.0 A4.0 4.0 0.0 1 0 138.0 96.0 A4.0 4.0 0.0 1 0 129.0 96.0 L129.0 96.0 Z"></path>
<path fill="#ff9955" fill-opacity="1.0"  filling="0" d="M116.0 117.0 A4.0 4.0 0.0 1 0 123.0 117.0 A4.0 4.0 0.0 1 0 116.0 117.0 L116.0 117.0 Z"></path>
<path fill="#ff9955" fill-opacity="1.0"  filling="0" d="M132.0 113.0 A4.0 4.0 0.0 1 0 139.0 113.0 A4.0 4.0 0.0 1 0 132.0 113.0 L132.0 113.0 Z"></path>
<path fill="#ff9955" fill-opacity="1.0"  filling="0" d="M116.0 113.0 A4.0 4.0 0.0 1 0 123.0 113.0 A4.0 4.0 0.0 1 0 116.0 113.0 L116.0 113.0 Z"></path>
<path fill="#ff9955" fill-opacity="1.0"  filling="0" d="M129.0 96.0 A4.0 4.0 0.0 1 0 138.0 96.0 A4.0 4.0 0.0 1 0 129.0 96.0 L129.0 96.0 Z"></path>
<path fill="#ff9955" fill-opacity="1.0"  filling="0" d="M115.0 117.0 A4.0 4.0 0.0 1 0 123.0 117.0 A4.0 4.0 0.0 1 0 115.0 117.0 L115.0 117.0 Z"></path>
<path fill="#ff9955" fill-opacity="1.0"  filling="0" d="M132.0 113.0 A4.0 4.0 0.0 1 0 139.0 113.0 A4.0 4.0 0.0 1 0 132.0 113.0 L132.0 113.0 Z"></path>
<path fill="#ff9955" fill-opacity="1.0"  filling="0" d="M116.0 113.0 A4.0 4.0 0.0 1 0 123.0 113.0 A4.0 4.0 0.0 1 0 116.0 113.0 L116.0 113.0 Z"></path>
<path fill="#ff9955" fill-opacity="1.0"  filling="0" d="M129.0 96.0 A4.0 4.0 0.0 1 0 138.0 96.0 A4.0 4.0 0.0 1 0 129.0 96.0 L129.0 96.0 Z"></path>
<path fill="#ff9955" fill-opacity="1.0"  filling="0" d="M115.0 117.0 A4.0 4.0 0.0 1 0 123.0 117.0 A4.0 4.0 0.0 1 0 115.0 117.0 L115.0 117.0 Z"></path>
<path fill="#ff9955" fill-opacity="1.0"  filling="0" d="M132.0 113.0 A4.0 4.0 0.0 1 0 139.0 113.0 A4.0 4.0 0.0 1 0 132.0 113.0 L132.0 113.0 Z"></path>
<path fill="#ff9955" fill-opacity="1.0"  filling="0" d="M116.0 113.0 A4.0 4.0 0.0 1 0 123.0 113.0 A4.0 4.0 0.0 1 0 116.0 113.0 L116.0 113.0 Z"></path>
<path fill="#ff9955" fill-opacity="1.0"  filling="0" d="M129.0 96.0 A4.0 4.0 0.0 1 0 138.0 96.0 A4.0 4.0 0.0 1 0 129.0 96.0 L129.0 96.0 Z"></path>
<path fill="#ff9955" fill-opacity="1.0"  filling="0" d="M115.0 117.0 A4.0 4.0 0.0 1 0 123.0 117.0 A4.0 4.0 0.0 1 0 115.0 117.0 L115.0 117.0 Z"></path>
<path fill="#ff9955" fill-opacity="1.0"  filling="0" d="M132.0 113.0 A4.0 4.0 0.0 1 0 139.0 113.0 A4.0 4.0 0.0 1 0 132.0 113.0 L132.0 113.0 Z"></path>
<path fill="#ff9955" fill-opacity="1.0"  filling="0" d="M116.0 113.0 A4.0 4.0 0.0 1 0 123.0 113.0 A4.0 4.0 0.0 1 0 116.0 113.0 L116.0 113.0 Z"></path>
<path fill="#ff9955" fill-opacity="1.0"  filling="0" d="M129.0 96.0 A4.0 4.0 0.0 1 0 138.0 96.0 A4.0 4.0 0.0 1 0 129.0 96.0 L129.0 96.0 Z"></path>
<path fill="#ff9955" fill-opacity="1.0"  filling="0" d="M115.0 117.0 A4.0 4.0 0.0 1 0 123.0 117.0 A4.0 4.0 0.0 1 0 115.0 117.0 L115.0 117.0 Z"></path>
<path fill="#ff9955" fill-opacity="1.0"  filling="0" d="M132.0 113.0 A4.0 4.0 0.0 1 0 139.0 113.0 A4.0 4.0 0.0 1 0 132.0 113.0 L132.0 113.0 Z"></path>
<path fill="#ff9955" fill-opacity="1.0"  filling="0" d="M116.0 113.0 A4.0 4.0 0.0 1 0 123.0 113.0 A4.0 4.0 0.0 1 0 116.0 113.0 L116.0 113.0 Z"></path>
<path fill="#ff9955" fill-opacity="1.0"  filling="0" d="M129.0 96.0 A4.0 4.0 0.0 1 0 138.0 96.0 A4.0 4.0 0.0 1 0 129.0 96.0 L129.0 96.0 Z"></path>
<path fill="#ff9955" fill-opacity="1.0"  filling="0" d="M115.0 117.0 A4.0 4.0 0.0 1 0 123.0 117.0 A4.0 4.0 0.0 1 0 115.0 117.0 L115.0 117.0 Z"></path>
<path fill="#ff9955" fill-opacity="1.0"  filling="0" d="M132.0 113.0 A4.0 4.0 0.0 1 0 139.0 113.0 A4.0 4.0 0.0 1 0 132.0 113.0 L132.0 113.0 Z"></path>
<path fill="#ff9955" fill-opacity="1.0"  filling="0" d="M116.0 113.0 A4.0 4.0 0.0 1 0 123.0 113.0 A4.0 4.0 0.0 1 0 116.0 113.0 L116.0 113.0 Z"></path>
<path fill="#ff9955" fill-opacity="1.0"  filling="0" d="M129.0 96.0 A4.0 4.0 0.0 1 0 138.0 96.0 A4.0 4.0 0.0 1 0 129.0 96.0 L129.0 96.0 Z"></path>
<path fill="#ff9955" fill-opacity="1.0"  filling="0" d="M115.0 117.0 A4.0 4.0 0.0 1 0 123.0 117.0 A4.0 4.0 0.0 1 0 115.0 117.0 L115.0 117.0 Z"></path>
<path fill="#ff9955" fill-opacity="1.0"  filling="0" d="M132.0 113.0 A4.0 4.0 0.0 1 0 139.0 113.0 A4.0 4.0 0.0 1 0 132.0 113.0 L132.0 113.0 Z"></path>
<path fill="#ff9955" fill-opacity="1.0"  filling="0" d="M116.0 113.0 A4.0 4.0 0.0 1 0 123.0 113.0 A4.0 4.0 0.0 1 0 116.0 113.0 L116.0 113.0 Z"></path>
<path fill="#ff9955" fill-opacity="1.0"  filling="0" d="M129.0 96.0 A4.0 4.0 0.0 1 0 138.0 96.0 A4.0 4.0 0.0 1 0 129.0 96.0 L129.0 96.0 Z"></path>
<path fill="#ff9955" fill-opacity="1.0"  filling="0" d="M115.0 117.0 A4.0 4.0 0.0 1 0 123.0 117.0 A4.0 4.0 0.0 1 0 115.0 117.0 L115.0 117.0 Z"></path>
<path fill="#ff9955" fill-opacity="1.0"  filling="0" d="M132.0 113.0 A4.0 4.0 0.0 1 0 139.0 113.0 A4.0 4.0 0.0 1 0 132.0 113.0 L132.0 113.0 Z"></path>
<path fill="#000000" fill-opacity="1.0"  filling="0" d="M116.0 113.0 A4.0 4.0 0.0 1 0 123.0 113.0"></path></svg>