<svg xmlns="http://www.w3.org/2000/svg" viewBox="0.0 0.0 200.0 200.0" height="200px" width="200px"><path fill="#ffffee" fill-opacity="1.0"  filling="0" d="M139.0 164.0 L51.0 164.0 C47.0 164.0 44.0 161.0 44.0 157.0 L44.0 47.0 C44.0 43.0 47.0 40.0 51.0 40.0 L139.0 40.0 C143.0 40.0 146.0 43.0 146.0 47.0 L146.0 157.0 C146.0 161.0 143.0 164.0 139.0 164.0 L139.0 164.0 Z"></path>
<path fill="#333333" fill-opacity="1.0"  filling="0" d="M139.0 165.0 L149.0 165.0 C47.0 165.0 44.0 161.0 44.0 157.0 L44.0 44.0 C44.0 40.0 47.0 36.0 51.0 36.0 L139.0 36.0 C144.0 36.0 148.0 40.0 148.0 44.0 L148.0 157.0 C148.0 161.0 144.0 165.0 139.0 165.0 L139.0 165.0 Z M51.0 38.0 C48.0 38.0 46.0 41.0 46.0 44.0 L46.0 157.0 C46.0 160.0 48.0 162.0 51.0 162.0 L139.0 162.0 C143.0 162.0 145.0 160.0 145.0 157.0 L145.0 44.0 C145.0 41.0 143.0 38.0 139.0 38.0 L51.0 38.0 L51.0 38.0 Z"></path>
<path fill="#ffcc44" fill-opacity="1.0"  filling="0" d="M48.0 48.0 C-7.0 -7.0 -8.0 -8.0 103.0 84.0 A62.0 62.0 0.0 1 1 48.0 48.0 L48.0 48.0 Z"></path>
<path fill="#333333" fill-opacity="1.0"  filling="0" d="M74.0 115.0 C66.0 115.0 59.0 112.0 53.0 107.0 C47.0 101.0 43.0 94.0 43.0 85.0 C43.0 77.0 47.0 69.0 53.0 63.0 C59.0 57.0 66.0 54.0 74.0 54.0 C82.0 54.0 89.0 57.0 95.0 63.0 C101.0 69.0 104.0 77.0 104.0 85.0 C104.0 94.0 101.0 101.0 95.0 107.0 C89.0 112.0 82.0 115.0 74.0 115.0 L74.0 115.0 Z M74.0 56.0 C59.0 56.0 46.0 70.0 46.0 85.0 C46.0 100.0 59.0 112.0 74.0 112.0 C88.0 112.0 101.0 100.0 101.0 85.0 C101.0 70.0 88.0 56.0 74.0 56.0 L74.0 56.0 Z"></path>
<path fill="#ffffff" fill-opacity="1.0"  filling="0" d="M78.0 52.0 L76.0 83.0 L95.0 103.0 C99.0 98.0 102.0 92.0 102.0 84.0 C102.0 67.0 92.0 52.0 78.0 52.0 L78.0 52.0 Z"></path>
<path fill="#333333" fill-opacity="1.0"  filling="0" d="M95.0 104.0 L75.0 83.0 L75.0 83.0 L76.0 52.0 L78.0 51.0 C92.0 51.0 103.0 67.0 103.0 84.0 C103.0 92.0 100.0 99.0 95.0 104.0 L95.0 104.0 L95.0 104.0 Z M77.0 82.0 L95.0 101.0 C99.0 97.0 101.0 91.0 101.0 84.0 C101.0 68.0 91.0 54.0 78.0 53.0 L77.0 82.0 L77.0 82.0 Z"></path>
<path fill="#333333" fill-opacity="1.0"  filling="0" d="M95.0 102.0 L76.0 83.0 L75.0 83.0 L76.0 52.0 L78.0 51.0 C92.0 51.0 103.0 67.0 103.0 84.0 C103.0 92.0 100.0 99.0 95.0 104.0 L95.0 104.0 L95.0 102.0 L95.0 102.0 Z M77.0 82.0 L95.0 101.0 C99.0 97.0 101.0 91.0 101.0 84.0 C101.0 68.0 91.0 54.0 78.0 53.0 L77.0 82.0 L77.0 82.0 Z"></path>
<path fill="#333333" fill-opacity="1.0"  filling="0" d="M95.0 102.0 L76.0 83.0 L75.0 83.0 L76.0 52.0 L78.0 51.0 C92.0 51.0 103.0 67.0 103.0 84.0 C103.0 92.0 100.0 99.0 95.0 104.0 L95.0 104.0 L95.0 102.0 L95.0 102.0 Z M77.0 82.0 L95.0 101.0 C99.0 97.0 101.0 91.0 101.0 84.0 C101.0 68.0 91.0 54.0 78.0 53.0 L77.0 82.0 L77.0 82.0 Z"></path>
<path fill="#333333" fill-opacity="1.0"  filling="0" d="M95.0 102.0 L76.0 83.0 L75.0 83.0 L76.0 52.0 L78.0 51.0 C92.0 51.0 103.0 67.0 103.0 84.0 C103.0 92.0 100.0 99.0 95.0 104.0 L95.0 104.0 L95.0 102.0 L95.0 102.0 Z M77.0 82.0 L95.0 101.0 C99.0 97.0 101.0 91.0 101.0 84.0 C101.0 68.0 91.0 54.0 78.0 53.0 L77.0 82.0 L77.0 82.0 Z"></path>
<path fill="#333333" fill-opacity="1.0"  filling="0" d="M95.0 102.0 L76.0 83.0 L75.0 83.0 L76.0 52.0 L78.0 51.0 C92.0 51.0 103.0 67.0 103.0 84.0 C103.0 92.0 100.0 99.0 95.0 104.0 L95.0 104.0 L95.0 102.0 L95.0 102.0 Z M77.0 82.0 L95.0 101.0 C99.0 97.0 101.0 91.0 101.0 84.0 C101.0 68.0 91.0 54.0 78.0 53.0 L77.0 82.0 L77.0 82.0 Z"></path>
<path fill="#333333" fill-opacity="1.0"  filling="0" d="M108.0 46.0 L108.0 46.0 C107.0 46.0 106.0 45.0 106.0 44.0 L106.0 40.0 C106.0 39.0 107.0 38.0 108.0 38.0 L108.0 38.0 C109.0 38.0 110.0 39.0 110.0 40.0 L110.0 44.0 C110.0 45.0 109.0 46.0 108.0 46.0 L108.0 46.0 Z M108.0 145.0 L108.0 145.0 C107.0 145.0 106.0 144.0 106.0 143.0 L106.0 138.0 C106.0 137.0 107.0 136.0 108.0 136.0 L108.0 136.0 C109.0 136.0 110.0 137.0 110.0 138.0 L110.0 143.0 C110.0 144.0 109.0 145.0 108.0 145.0 L108.0 145.0 Z M108.0 132.0 L108.0 132.0 C107.0 132.0 106.0 131.0 106.0 130.0 L106.0 125.0 C106.0 124.0 107.0 123.0 108.0 123.0 L108.0 123.0 C109.0 123.0 110.0 124.0 110.0 125.0 L110.0 130.0 C110.0 131.0 109.0 132.0 108.0 132.0 L108.0 132.0 Z M108.0 119.0 L108.0 119.0 C107.0 119.0 106.0 118.0 106.0 117.0 L106.0 112.0 C106.0 111.0 107.0 110.0 108.0 110.0 L108.0 110.0 C109.0 110.0 110.0 111.0 110.0 112.0 L110.0 117.0 C110.0 118.0 109.0 119.0 108.0 119.0 L108.0 119.0 Z M108.0 105.0 L108.0 105.0 C107.0 105.0 106.0 104.0 106.0 103.0 L106.0 98.0 C106.0 97.0 107.0 96.0 108.0 96.0 L108.0 96.0 C109.0 96.0 110.0 97.0 110.0 98.0 L110.0 103.0 C110.0 104.0 109.0 105.0 108.0 105.0 L108.0 105.0 Z M108.0 91.0 L108.0 91.0 C107.0 91.0 106.0 90.0 106.0 89.0 L106.0 84.0 C106.0 83.0 107.0 82.0 108.0 82.0 L108.0 82.0 C109.0 82.0 110.0 83.0 110.0 84.0 L110.0 89.0 C110.0 90.0 109.0 91.0 108.0 91.0 L108.0 91.0 Z M108.0 78.0 L108.0 78.0 C107.0 78.0 106.0 77.0 106.0 76.0 L106.0 71.0 C106.0 70.0 107.0 69.0 108.0 69.0 L108.0 69.0 C109.0 69.0 110.0 70.0 110.0 71.0 L110.0 76.0 C110.0 77.0 109.0 78.0 108.0 78.0 L108.0 78.0 Z M108.0 64.0 L108.0 64.0 C107.0 64.0 106.0 63.0 106.0 62.0 L106.0 57.0 C106.0 56.0 107.0 55.0 108.0 55.0 L108.0 55.0 C109.0 55.0 110.0 56.0 110.0 57.0 L110.0 62.0 C110.0 63.0 109.0 64.0 108.0 64.0 L108.0 64.0 Z M108.0 50.0 L108.0 50.0 C107.0 50.0 106.0 49.0 106.0 48.0 L106.0 44.0 C106.0 43.0 107.0 42.0 108.0 42.0 L108.0 42.0 C109.0 42.0 110.0 43.0 110.0 44.0 L110.0 48.0 C110.0 49.0 109.0 50.0 108.0 50.0 L108.0 50.0 Z M108.0 136.0 L108.0 136.0 C107.0 136.0 106.0 135.0 106.0 134.0 L106.0 129.0 C106.0 128.0 107.0 127.0 108.0 127.0 L108.0 127.0 C109.0 127.0 110.0 128.0 110.0 129.0 L110.0 134.0 C110.0 135.0 109.0 136.0 108.0 136.0 L108.0 136.0 Z M108.0 123.0 L108.0 123.0 C107.0 123.0 106.0 122.0 106.0 121.0 L106.0 116.0 C106.0 115.0 107.0 114.0 108.0 114.0 L108.0 114.0 C109.0 114.0 110.0 115.0 110.0 116.0 L110.0 121.0 C110.0 122.0 109.0 123.0 108.0 123.0 L108.0 123.0 Z M108.0 110.0 L108.0 110.0 C107.0 110.0 106.0 109.0 106.0 108.0 L106.0 103.0 C106.0 102.0 107.0 101.0 108.0 101.0 L108.0 101.0 C109.0 101.0 110.0 102.0 110.0 103.0 L110.0 108.0 C110.0 109.0 109.0 110.0 108.0 110.0 L108.0 110.0 Z M108.0 96.0 L108.0 96.0 C107.0 96.0 106.0 95.0 106.0 94.0 L106.0 89.0 C106.0 88.0 107.0 87.0 108.0 87.0 L108.0 87.0 C109.0 87.0 110.0 88.0 110.0 89.0 L110.0 94.0 C110.0 95.0 109.0 96.0 108.0 96.0 L108.0 96.0 Z M108.0 82.0 L108.0 82.0 C107.0 82.0 106.0 81.0 106.0 80.0 L106.0 76.0 C106.0 74.0 107.0 73.0 108.0 73.0 L108.0 73.0 C109.0 73.0 110.0 74.0 110.0 76.0 L110.0 80.0 C110.0 81.0 109.0 82.0 108.0 82.0 L108.0 82.0 Z M108.0 69.0 L108.0 69.0 C107.0 69.0 106.0 68.0 106.0 67.0 L106.0 62.0 C106.0 61.0 107.0 60.0 108.0 60.0 L108.0 60.0 C109.0 60.0 110.0 61.0 110.0 62.0 L110.0 67.0 C110.0 68.0 109.0 69.0 108.0 69.0 L108.0 69.0 Z"></path>
<path fill="#333333" fill-opacity="1.0"  filling="0" d="M134.0 154.0 L58.0 154.0 C57.0 154.0 57.0 154.0 57.0 153.0 L57.0 121.0 C57.0 121.0 57.0 120.0 58.0 120.0 C59.0 120.0 60.0 121.0 60.0 121.0 L60.0 152.0 L134.0 152.0 C135.0 152.0 135.0 152.0 135.0 153.0 C135.0 154.0 135.0 154.0 134.0 154.0 L134.0 154.0 Z"></path>
<path fill="#bbeeee" fill-opacity="1.0"  filling="0" d="M71.0 141.0 A4.0 4.0 0.0 1 0 79.0 141.0 A4.0 4.0 0.0 1 0 71.0 141.0 L71.0 141.0 Z"></path>
<path fill="#333333" fill-opacity="1.0"  filling="0" d="M75.0 145.0 C72.0 145.0 70.0 143.0 70.0 141.0 C70.0 138.0 72.0 136.0 75.0 136.0 C77.0 136.0 79.0 138.0 79.0 141.0 C79.0 143.0 77.0 145.0 75.0 145.0 L75.0 145.0 Z M75.0 138.0 C73.0 138.0 72.0 139.0 72.0 141.0 C72.0 142.0 73.0 144.0 75.0 144.0 C77.0 144.0 78.0 142.0 78.0 141.0 C78.0 139.0 77.0 138.0 75.0 138.0 L75.0 138.0 Z"></path>
<path fill="#bbeeee" fill-opacity="1.0"  filling="0" d="M88.0 128.0 A4.0 4.0 0.0 1 0 96.0 128.0 A4.0 4.0 0.0 1 0 88.0 128.0 L88.0 128.0 Z"></path>
<path fill="#333333" fill-opacity="1.0"  filling="0" d="M92.0 132.0 C89.0 132.0 87.0 130.0 87.0 128.0 C87.0 125.0 89.0 122.0 92.0 122.0 C94.0 122.0 96.0 125.0 96.0 128.0 C96.0 130.0 94.0 132.0 92.0 132.0 L92.0 132.0 Z M92.0 124.0 C90.0 124.0 89.0 126.0 89.0 128.0 C89.0 129.0 90.0 131.0 92.0 131.0 C94.0 131.0 95.0 129.0 95.0 128.0 C95.0 126.0 94.0 124.0 92.0 124.0 L92.0 124.0 Z"></path>
<path fill="#bbeeee" fill-opacity="1.0"  filling="0" d="M99.0 133.0 A4.0 4.0 0.0 1 0 106.0 133.0 A4.0 4.0 0.0 1 0 99.0 133.0 L99.0 133.0 Z"></path>
<path fill="#333333" fill-opacity="1.0"  filling="0" d="M103.0 137.0 C101.0 137.0 98.0 135.0 98.0 133.0 C98.0 130.0 101.0 128.0 103.0 128.0 C105.0 128.0 107.0 130.0 107.0 133.0 C107.0 135.0 105.0 137.0 103.0 137.0 L103.0 137.0 Z M103.0 130.0 C101.0 130.0 100.0 131.0 100.0 133.0 C100.0 134.0 101.0 135.0 103.0 135.0 C104.0 135.0 105.0 134.0 105.0 133.0 C105.0 131.0 104.0 130.0 103.0 130.0 L103.0 130.0 Z"></path>
<path fill="#bbeeee" fill-opacity="1.0"  filling="0" d="M115.0 117.0 A4.0 4.0 0.0 1 0 122.0 117.0 A4.0 4.0 0.0 1 0 115.0 117.0 L115.0 117.0 Z"></path>
<path fill="#333333" fill-opacity="1.0"  filling="0" d="M118.0 121.0 C116.0 121.0 114.0 119.0 114.0 117.0 C114.0 114.0 116.0 112.0 118.0 112.0 C121.0 112.0 123.0 114.0 123.0 117.0 C123.0 119.0 121.0 121.0 118.0 121.0 L118.0 121.0 Z M118.0 114.0 C117.0 114.0 116.0 115.0 116.0 117.0 C116.0 118.0 117.0 119.0 118.0 119.0 C120.0 119.0 121.0 118.0 121.0 117.0 C121.0 115.0 120.0 114.0 118.0 114.0 L118.0 114.0 Z"></path>
<path fill="#bbeeee" fill-opacity="1.0"  filling="0" d="M131.0 97.0 A4.0 4.0 0.0 1 0 138.0 97.0 A4.0 4.0 0.0 1 0 131.0 97.0 L131.0 97.0 Z"></path>
<path fill="#333333" fill-opacity="1.0"  filling="0" d="M134.0 101.0 C132.0 101.0 129.0 99.0 129.0 97.0 C129.0 94.0 132.0 92.0 134.0 92.0 C136.0 92.0 139.0 94.0 139.0 97.0 C139.0 99.0 136.0 101.0 134.0 101.0 L134.0 101.0 Z M134.0 94.0 C133.0 94.0 132.0 95.0 132.0 97.0 C132.0 98.0 133.0 99.0 134.0 99.0 C136.0 99.0 137.0 98.0 137.0 97.0 C137.0 95.0 136.0 94.0 134.0 94.0 L134.0 94.0 Z"></path>
<path fill="#ffcc44" fill-opacity="1.0"  filling="0" d="M158.0 65.0 L173.0 65.0 L173.0 139.0 L158.0 139.0 L158.0 65.0 L158.0 65.0 Z"></path>
<path fill="none" fill-opacity="1.0" filling="0" d="M0.0 M.0 Z"></path></svg>