<svg xmlns="http://www.w3.org/2000/svg" viewBox="0.0 0.0 200.0 200.0" height="200px" width="200px"><path fill="#ffffee" fill-opacity="1.0"  filling="0" d="M139.0 163.0 L51.0 163.0 C47.0 163.0 44.0 160.0 44.0 156.0 L44.0 47.0 C44.0 43.0 47.0 40.0 51.0 40.0 L139.0 40.0 C143.0 40.0 146.0 43.0 146.0 47.0 L146.0 156.0 C146.0 160.0 143.0 163.0 139.0 163.0 L139.0 163.0 Z"></path>
<path fill="#ffcc77" fill-opacity="1.0"  filling="0" d="M139.0 165.0 L149.0 165.0 L149.0 153.0 L140.0 153.0 L139.0 165.0 L139.0 165.0 Z"></path>
<path fill="#ffeecc" fill-opacity="1.0"  filling="0" d="M139.0 153.0 L44.0 153.0 L44.0 156.0 C44.0 160.0 47.0 163.0 51.0 163.0 L139.0 164.0 L139.0 153.0 L139.0 153.0 Z M139.0 40.0 L51.0 40.0 C47.0 40.0 44.0 43.0 44.0 47.0 L44.0 51.0 L143.0 51.0 L143.0 47.0 C143.0 43.0 141.0 40.0 139.0 40.0 L139.0 40.0 Z"></path>
<path fill="#ffcc44" fill-opacity="1.0"  filling="0" d="M94.0 57.0 C99.0 61.0 102.0 67.0 104.0 73.0 C105.0 78.0 106.0 83.0 105.0 87.0 C105.0 87.0 105.0 87.0 105.0 87.0 C105.0 87.0 105.0 87.0 105.0 87.0 C105.0 87.0 105.0 87.0 105.0 87.0 C105.0 87.0 105.0 87.0 105.0 87.0 C104.0 94.0 101.0 100.0 96.0 105.0 C92.0 109.0 87.0 113.0 81.0 114.0 C77.0 116.0 72.0 116.0 68.0 115.0 C62.0 113.0 57.0 110.0 53.0 105.0 C47.0 100.0 44.0 93.0 44.0 85.0 C44.0 80.0 46.0 75.0 49.0 71.0 C52.0 67.0 56.0 63.0 61.0 61.0 C65.0 58.0 70.0 57.0 75.0 57.0 C75.0 57.0 75.0 57.0 75.0 57.0 C75.0 57.0 75.0 57.0 75.0 57.0 C75.0 57.0 75.0 57.0 75.0 57.0 C75.0 57.0 75.0 57.0 75.0 57.0 C81.0 57.0 88.0 55.0 94.0 51.0 C94.0 51.0 94.0 51.0 95.0 51.0 C96.0 52.0 96.0 53.0 97.0 54.0 C97.0 55.0 96.0 56.0 94.0 57.0 L94.0 57.0 Z"></path>
<path fill="#000000" fill-opacity="1.0"  filling="0" d="M75.0 57.0 C75.0 57.0 75.0 57.0 75.0 57.0 C75.0 57.0 75.0 57.0 75.0 57.0 C75.0 57.0 75.0 57.0 75.0 57.0 L75.0 57.0 Z M105.0 87.0 C105.0 87.0 105.0 87.0 105.0 87.0 C105.0 87.0 105.0 87.0 105.0 87.0 C105.0 87.0 105.0 87.0 105.0 87.0 L105.0 87.0 Z M75.0 57.0 C75.0 57.0 75.0 57.0 75.0 57.0 C75.0 57.0 75.0 57.0 75.0 57.0 C75.0 57.0 75.0 57.0 75.0 57.0 L75.0 57.0 Z M105.0 87.0 C105.0 87.0 105.0 87.0 105.0 87.0 C105.0 87.0 105.0 87.0 105.0 87.0 C105.0 87.0 105.0 87.0 105.0 87.0 L105.0 87.0 Z M75.0 57.0 C75.0 57.0 75.0 57.0 75.0 57.0 C75.0 57.0 75.0 57.0 75.0 57.0 C75.0 57.0 75.0 57.0 75.0 57.0 L75.0 57.0 Z M105.0 87.0 C105.0 87.0 105.0 87.0 105.0 87.0 C105.0 87.0 105.0 87.0 105.0 87.0 C105.0 87.0 105.0 87.0 105.0 87.0 L105.0 87.0 Z M75.0 57.0 C75.0 57.0 75.0 57.0 75.0 57.0 C75.0 57.0 75.0 57.0 75.0 57.0 C75.0 57.0 75.0 57.0 75.0 57.0 L75.0 57.0 Z M105.0 87.0 C105.0 87.0 105.0 87.0 105.0 87.0 C105.0 87.0 105.0 87.0 105.0 87.0 C105.0 87.0 105.0 87.0 105.0 87.0 L105.0 87.0 Z M75.0 57.0 C75.0 57.0 75.0 57.0 75.0 57.0 C75.0 57.0 75.0 57.0 75.0 57.0 C75.0 57.0 75.0 57.0 75.0 57.0 L75.0 57.0 Z M105.0 87.0 C105.0 87.0 105.0 87.0 105.0 87.0 C105.0 87.0 105.0 87.0 105.0 87.0 C105.0 87.0 105.0 87.0 105.0 87.0 L105.0 87.0 Z M75.0 57.0 C75.0 57.0 75.0 57.0 75.0 57.0 C75.0 57.0 75.0 57.0 75.0 57.0 C75.0 57.0 75.0 57.0 75.0 57.0 L75.0 57.0 Z M105.0 87.0 C105.0 87.0 105.0 87.0 105.0 87.0 C105.0 87.0 105.0 87.0 105.0 87.0 C105.0 87.0 105.0 87.0 105.0 87.0 L105.0 87.0 Z M75.0 57.0 C75.0 57.0 75.0 57.0 75.0 57.0 C75.0 57.0 75.0 57.0 75.0 57.0 C75.0 57.0 75.0 57.0 75.0 57.0 L75.0 57.0 Z M105.0 87.0 C105.0 87.0 105.0 87.0 105.0 87.0 C105.0 87.0 105.0 87.0 105.0 87.0 C105.0 87.0 105.0 87.0 105.0 87.0 L105.0 87.0 Z M75.0 57.0 C75.0 57.0 75.0 57.0 75.0 57.0 C75.0 57.0 75.0 57.0 75.0 57.0 C75.0 57.0 75.0 57.0 75.0 57.0 L75.0 57.0 Z M105.0 87.0 C105.0 87.0 105.0 87.0 105.0 87.0 C105.0 87.0 105.0 87.0 105.0 87.0 C105.0 87.0 105.0 87.0 105.0 87.0 L105.0 87.0 Z M75.0 57.0 C75.0 57.0 75.0 57.0 75.0 57.0 C75.0 57.0 75.0 57.0 75.0 57.0 C75.0 57.0 75.0 57.0 75.0 57.0 L75.0 57.0 Z M105.0 87.0 C105.0 87.0 105.0 87.0 105.0 87.0 C105.0 87.0 105.0 87.0 105.0 87.0 C105.0 87.0 105.0 87.0 105.0 87.0 L105.0 87.0 Z M75.0 57.0 C75.0 57.0 75.0 57.0 75.0 57.0 C75.0 57.0 75.0 57.0 75.0 57.0 C75.0 57.0 75.0 57.0 75.0 57.0 L75.0 57.0 Z M105.0 87.0 C105.0 87.0 105.0 87.0 105.0 87.0 C105.0 87.0 105.0 87.0 105.0 87.0 C105.0 87.0 105.0 87.0 105.0 87.0 L105.0 87.0 Z M75.0 57.0 C75.0 57.0 75.0 57.0 75.0 57.0 C75.0 57.0 75.0 57.0 75.0 57.0 C75.0 57.0 75.0 57.0 75.0 57.0 L75.0 57.0 Z M105.0 87.0 C105.0 87.0 105.0 87.0 105.0 87.0 C105.0 87.0 105.0 87.0 105.0 87.0 C105.0 87.0 105.0 87.0 105.0 87.0 L105.0 87.0 Z M75.0 57.0 C75.0 57.0 75.0 57.0 75.0 57.0 C75.0 57.0 75.0 57.0 75.0 57.0 C75.0 57.0 75.0 57.0 75.0 57.0 L75.0 57.0 Z M105.0 87.0 C105.0 87.0 105.0 87.0 105.0 87.0 C105.0 87.0 105.0 87.0 105.0 87.0 C105.0 87.0 105.0 87.0 105.0 87.0 L105.0 87.0 Z M75.0 57.0 C75.0 57.0 75.0 57.0 75.0 57.0 C75.0 57.0 75.0 57.0 75.0 57.0 C75.0 57.0 75.0 57.0 75.0 57.0 L75.0 57.0 Z M105.0 87.0 C105.0 87.0 105.0 87.0 105.0 87.0 C105.0 87.0 105.0 87.0 105.0 87.0 C105.0 87.0 105.0 87.0 105.0 87.0 L105.0 87.0 Z M75.0 57.0 C75.0 57.0 75.0 57.0 75.0 57.0 C75.0 57.0 75.0 57.0 75.0 57.0 C75.0 57.0 75.0 57.0 75.0 57.0 L75.0 57.0 Z M105.0 87.0 C105.0 87.0 105.0 87.0 105.0 87.0 C105.0 87.0 105.0 87.0 105.0 87.0 C105.0 87.0 105.0 87.0 105.0 87.0 L105.0 87.0 Z M75.0 57.0 C75.0 57.0 75.0 57.0 75.0 57.0 C75.0 57.0 75.0 57.0 75.0 57.0 C75.0 57.0 75.0 57.0 75.0 57.0 L75.0 57.0 Z M105.0 87.0 C105.0 87.0 105.0 87.0 105.0 87.0 C105.0 87.0 105.0 87.0 105.0 87.0 C105.0 87.0 105.0 87.0 105.0 87.0 L105.0 87.0 Z M75.0 57.0 C75.0 57.0 75.0 57.0 75.0 57.0 C75.0 57.0 75.0 57.0 75.0 57.0 C75.0 57.0 75.0 57.0 75.0 57.0 L75.0 57.0 Z M105.0 87.0 C105.0 87.0 105.0 87.0 105.0 87.0 C105.0 87.0 105.0 87.0 105.0 87.0 C105.0 87.0 105.0 87.0 105.0 87.0 L105.0 87.0 Z M75.0 57.0 C75.0 57.0 75.0 57.0 75.0 57.0 C75.0 57.0 75.0 57.0 75.0 57.0 C75.0 57.0 75.0 57.0 75.0 57.0 L75.0 57.0 Z M105.0 87.0 C105.0 87.0 105.0 87.0 105.0 87.0 C105.0 87.0 105.0 87.0 105.0 87.0 C105.0 87.0 105.0 87.0 105.0 87.0 L105.0 87.0 Z M75.0 57.0 C75.0 57.0 75.0 57.0 75.0 57.0 C75.0 57.0 75.0 57.0 75.0 57.0 C75.0 57.0 75.0 57.0 75.0 57.0 L75.0 57.0 Z M105.0 87.0 C105.0 87.0 105.0 87.0 105.0 87.0 C105.0 87.0 105.0 87.0 105.0 87.0 C105.0 87.0 105.0 87.0 105.0 87.0 L105.0 87.0 Z M75.0 57.0 C75.0 57.0 75.0 57.0 75.0 57.0 C75.0 57.0 75.0 57.0 75.0 57.0 C75.0 57.0 75.0 57.0 75.0 57.0 L75.0 57.0 Z M105.0 87.0 C105.0 87.0 105.0 87.0 105.0 87.0 C105.0 87.0 105.0 87.0 105.0 87.0 C105.0 87.0 105.0 87.0 105.0 87.0 L105.0 87.0 Z M75.0 57.0 C75.0 57.0 75.0 57.0 75.0 57.0 C75.0 57.0 75.0 57.0 75.0 57.0 C75.0 57.0 75.0 57.0 75.0 57.0 L75.0 57.0 Z M105.0 87.0 C105.0 87.0 105.0 87.0 105.0 87.0 C105.0 87.0 105.0 87.0 105.0 87.0 C105.0 87.0 105.0 87.0 105.0 87.0 L105.0 87.0 Z M75.0 57.0 C75.0 57.0 75.0 57.0 75.0 57.0 C75.0 57.0 75.0 57.0 75.0 57.0 C75.0 57.0 75.0 57.0 75.0 57.0 L75.0 57.0 Z M105.0 87.0 C105.0 87.0 105.0 87.0 105.0 87.0 C105.0 87.0 105.0 87.0 105.0 87.0 C105.0 87.0 105.0 87.0 105.0 87.0 L105.0 87.0 Z M75.0 57.0 C75.0 57.0 75.0 57.0 75.0 57.0 C75.0 57.0 75.0 57.0 75.0 57.0 C75.0 57.0 75.0 57.0 75.0 57.0 L75.0 57.0 Z M105.0 87.0 C105.0 87.0 105.0 87.0 105.0 87.0 C105.0 87.0 105.0 87.0 105.0 87.0 C105.0 87.0 105.0 87.0 105.0 87.0 L105.0 87.0 Z M75.0 57.0 C75.0 57.0 75.0 57.0 75.0 57.0 C75.0 57.0 75.0 57.0 75.0 57.0 C75.0 57.0 75.0 57.0 75.0 57.0 L75.0 57.0 Z M105.0 87.0 C105.0 87.0 105.0 87.0 105.0 87.0 C105.0 87.0 105.0 87.0 105.0 87.0 C105.0 87.0 105.0 87.0 105.0 87.0 L105.0 87.0 Z M75.0 57.0 C75.0 57.0 75.0 57.0 75.0 57.0 C75.0 57.0 75.0 57.0 75.0 57.0 C75.0 57.0 75.0 57.0 75.0 57.0 L75.0 57.0 Z M105.0 87.0 C105.0 87.0 105.0 87.0 105.0 87.0 C105.0 87.0 105.0 87.0 105.0 87.0 C105.0 87.0 105.0 87.0 105.0 87.0 L105.0 87.0 Z M75.0 57.0 C75.0 57.0 75.0 57.0 75.0 57.0 C75.0 57.0 75.0 57.0 75.0 57.0 C75.0 57.0 75.0 57.0 75.0 57.0 L75.0 57.0 Z M105.0 87.0 C105.0 87.0 105.0 87.0 105.0 87.0 C105.0 87.0 105.0 87.0 105.0 87.0 C105.0 87.0 105.0 87.0 105.0 87.0 L105.0 87.0 Z M75.0 57.0 C75.0 57.0 75.0 57.0 75.0 57.0 C75.0 57.0 75.0 57.0 75.0 57.0 C75.0 57.0 75.0 57.0 75.0 57.0 L75.0 57.0 Z M105.0 87.0 C105.0 87.0 105.0 87.0 105.0 87.0 C105.0 87.0 105.0 87.0 105.0 87.0 C105.0 87.0 105.0 87.0 105.0 87.0 L105.0 87.0 Z M75.0 57.0 C75.0 57.0 75.0 57.0 75.0 57.0 C75.0 57.0 75.0 57.0 75.0 57.0 C75.0 57.0 75.0 57.0 75.0 57.0 L75.0 57.0 Z M105.0 87.0 C105.0 87.0 105.0 87.0 105.0 87.0 C105.0 87.0 105.0 87.0 105.0 87.0 C105.0 87.0 105.0 87.0 105.0 87.0 L105.0 87.0 Z M75.0 57.0 C75.0 57.0 75.0 57.0 75.0 57.0 C75.0 57.0 75.0 57.0 75.0 57.0 C75.0 57.0 75.0 57.0 75.0 57.0 L75.0 57.0 Z"></path></svg>