<svg xmlns="http://www.w3.org/2000/svg" viewBox="0.0 0.0 200.0 200.0" height="200px" width="200px"><path fill="#554444" fill-opacity="1.0"  filling="0" d="M100.0 21.0 C100.0 21.0 63.0 21.0 63.0 57.0 C63.0 86.0 91.0 102.0 91.0 102.0 L110.0 102.0 C110.0 102.0 137.0 86.0 137.0 57.0 C137.0 21.0 100.0 21.0 100.0 21.0 L100.0 21.0 Z"></path>
<path fill="#554444" fill-opacity="1.0"  filling="0" d="M100.0 21.0 C100.0 21.0 63.0 21.0 63.0 57.0 C63.0 86.0 91.0 102.0 91.0 102.0 L110.0 102.0 C110.0 102.0 137.0 86.0 137.0 57.0 C137.0 21.0 100.0 21.0 100.0 21.0 L100.0 21.0 Z"></path>
<path fill="#000000" fill-opacity="1.0"  filling="0" d="M110.0 102.0 L91.0 102.0 C91.0 102.0 86.0 99.0 80.0 93.0 C83.0 95.0 87.0 97.0 91.0 97.0 L110.0 97.0 C113.0 97.0 117.0 95.0 120.0 93.0 C114.0 99.0 110.0 102.0 110.0 102.0 L110.0 102.0 Z"></path>
<path fill="#000000" fill-opacity="1.0"  filling="0" d="M141.0 152.0 L59.0 152.0 L59.0 199.0 L141.0 199.0 L141.0 152.0 L141.0 152.0 Z"></path>
<path fill="#000000" fill-opacity="1.0"  filling="0" d="M148.0 145.0 C148.0 127.0 127.0 114.0 100.0 114.0 C73.0 114.0 52.0 127.0 52.0 145.0 C52.0 165.0 73.0 183.0 100.0 183.0 C127.0 183.0 148.0 165.0 148.0 145.0 L148.0 145.0 Z"></path>
<path fill="#000000" fill-opacity="1.0"  filling="0" d="M148.0 145.0 C148.0 165.0 127.0 183.0 100.0 183.0 C73.0 183.0 52.0 165.0 52.0 145.0 C52.0 127.0 73.0 114.0 100.0 114.0 C127.0 114.0 148.0 127.0 148.0 145.0 L148.0 145.0 Z"></path>
<path fill="#000000" fill-opacity="1.0"  filling="0" d="M148.0 145.0 C148.0 165.0 127.0 183.0 100.0 183.0 C73.0 183.0 52.0 165.0 52.0 145.0 C52.0 127.0 73.0 114.0 100.0 114.0 C127.0 114.0 148.0 127.0 148.0 145.0 L148.0 145.0 Z"></path>
<path fill="#000000" fill-opacity="1.0"  filling="0" d="M111.0 99.0 L89.0 99.0 L89.0 130.0 L111.0 130.0 L111.0 99.0 L111.0 99.0 Z M111.0 119.0 C108.0 120.0 104.0 120.0 100.0 120.0 C96.0 120.0 92.0 120.0 89.0 119.0 L89.0 114.0 L111.0 114.0 L111.0 119.0 L111.0 119.0 L111.0 119.0 Z"></path>
<path fill="#000000" fill-opacity="1.0"  filling="0" d="M111.0 99.0 L89.0 99.0 L89.0 130.0 L111.0 130.0 L111.0 99.0 L111.0 99.0 Z M111.0 119.0 C108.0 120.0 104.0 120.0 100.0 120.0 C96.0 120.0 92.0 120.0 89.0 119.0 L89.0 114.0 L111.0 114.0 L111.0 119.0 L111.0 119.0 L111.0 119.0 Z"></path>
<path fill="#000000" fill-opacity="1.0"  filling="0" d="M89.0 99.0 L89.0 130.0 L111.0 130.0 L111.0 99.0 L89.0 99.0 L89.0 99.0 Z M111.0 119.0 C108.0 120.0 104.0 120.0 100.0 120.0 C96.0 120.0 92.0 120.0 89.0 119.0 L89.0 114.0 L111.0 114.0 L111.0 119.0 L111.0 119.0 L111.0 119.0 Z"></path>
<path fill="#000000" fill-opacity="1.0"  filling="0" d="M101.0 31.0 C101.0 31.0 100.0 31.0 100.0 31.0 C100.0 31.0 99.0 31.0 99.0 31.0 C99.0 31.0 100.0 32.0 100.0 32.0 C100.0 32.0 101.0 31.0 101.0 31.0 L101.0 31.0 Z"></path>
<path fill="#000000" fill-opacity="1.0"  filling="0" d="M101.0 41.0 C101.0 40.0 100.0 40.0 100.0 40.0 C100.0 40.0 99.0 40.0 99.0 41.0 C99.0 41.0 100.0 42.0 100.0 42.0 C100.0 42.0 101.0 41.0 101.0 41.0 L101.0 41.0 Z"></path>
<path fill="#000000" fill-opacity="1.0"  filling="0" d="M101.0 54.0 C101.0 53.0 100.0 53.0 100.0 53.0 C100.0 53.0 99.0 53.0 99.0 54.0 C99.0 54.0 100.0 55.0 100.0 55.0 C100.0 55.0 101.0 54.0 101.0 54.0 L101.0 54.0 Z"></path>
<path fill="#000000" fill-opacity="1.0"  filling="0" d="M101.0 68.0 C101.0 67.0 100.0 67.0 100.0 67.0 C100.0 67.0 99.0 67.0 99.0 68.0 C99.0 68.0 100.0 69.0 100.0 69.0 C100.0 69.0 101.0 68.0 101.0 68.0 L101.0 68.0 Z"></path>
<path fill="#000000" fill-opacity="1.0"  filling="0" d="M101.0 81.0 C101.0 81.0 100.0 80.0 100.0 80.0 C100.0 80.0 99.0 81.0 99.0 81.0 C99.0 81.0 100.0 82.0 100.0 82.0 C100.0 82.0 101.0 81.0 101.0 81.0 L101.0 81.0 Z"></path>
<path fill="#000000" fill-opacity="1.0"  filling="0" d="M101.0 31.0 C101.0 31.0 100.0 31.0 100.0 31.0 C100.0 31.0 99.0 31.0 99.0 31.0 C99.0 31.0 100.0 32.0 100.0 32.0 C100.0 32.0 101.0 31.0 101.0 31.0 L101.0 31.0 Z"></path>
<path fill="#000000" fill-opacity="1.0"  filling="0" d="M101.0 41.0 C101.0 40.0 100.0 40.0 100.0 40.0 C100.0 40.0 99.0 40.0 99.0 41.0 C99.0 41.0 100.0 42.0 100.0 42.0 C100.0 42.0 101.0 41.0 101.0 41.0 L101.0 41.0 Z"></path>
<path fill="#000000" fill-opacity="1.0"  filling="0" d="M101.0 54.0 C101.0 53.0 100.0 53.0 100.0 53.0 C100.0 53.0 99.0 53.0 99.0 54.0 C99.0 54.0 100.0 55.0 100.0 55.0 C100.0 55.0 101.0 54.0 101.0 54.0 L101.0 54.0 Z"></path>
<path fill="#000000" fill-opacity="1.0"  filling="0" d="M101.0 68.0 C101.0 67.0 100.0 67.0 100.0 67.0 C100.0 67.0 99.0 67.0 99.0 68.0 C99.0 68.0 100.0 69.0 100.0 69.0 C100.0 69.0 101.0 68.0 101.0 68.0 L101.0 68.0 Z"></path>
<path fill="#000000" fill-opacity="1.0"  filling="0" d="M101.0 81.0 C101.0 81.0 100.0 80.0 100.0 80.0 C100.0 80.0 99.0 81.0 99.0 81.0 C99.0 81.0 100.0 82.0 100.0 82.0 C100.0 82.0 101.0 81.0 101.0 81.0 L101.0 81.0 Z"></path>
<path fill="#554444" fill-opacity="1.0"  filling="0" d="M100.0 21.0 C100.0 21.0 63.0 21.0 63.0 57.0 C63.0 86.0 91.0 102.0 91.0 102.0 L110.0 102.0 C110.0 102.0 137.0 86.0 137.0 57.0 C137.0 21.0 100.0 21.0 100.0 21.0 L100.0 21.0 Z"></path>
<path fill="#554444" fill-opacity="1.0"  filling="0" d="M100.0 21.0 C100.0 21.0 63.0 21.0 63.0 57.0 C63.0 86.0 91.0 102.0 91.0 102.0 L110.0 102.0 C110.0 102.0 137.0 86.0 137.0 57.0 C137.0 21.0 100.0 21.0 100.0 21.0 L100.0 21.0 Z"></path>
<path fill="#000000" fill-opacity="1.0"  filling="0" d="M110.0 102.0 L91.0 102.0 C91.0 102.0 86.0 99.0 80.0 93.0 C83.0 95.0 87.0 97.0 91.0 97.0 L110.0 97.0 C113.0 97.0 117.0 95.0 120.0 93.0 C114.0 99.0 110.0 102.0 110.0 102.0 L110.0 102.0 Z"></path>
<path fill="#554444" fill-opacity="1.0"  filling="0" d="M100.0 21.0 C100.0 21.0 63.0 21.0 63.0 57.0 C63.0 86.0 91.0 102.0 91.0 102.0 L110.0 102.0 C110.0 102.0 137.0 86.0 137.0 57.0 C137.0 21.0 100.0 21.0 100.0 21.0 L100.0 21.0 Z"></path>
<path fill="#554444" fill-opacity="1.0"  filling="0" d="M100.0 21.0 C100.0 21.0 63.0 21.0 63.0 57.0 C63.0 86.0 91.0 102.0 91.0 102.0 L110.0 102.0 C110.0 102.0 137.0 86.0 137.0 57.0 C137.0 21.0 100.0 21.0 100.0 21.0 L100.0 21.0 Z"></path>
<path fill="#000000" fill-opacity="1.0"  filling="0" d="M110.0 102.0 L91.0 102.0 C91.0 102.0 86.0 99.0 80.0 93.0 C83.0 95.0 87.0 97.0 91.0 97.0 L110.0 97.0 C113.0 97.0 117.0 95.0 120.0 93.0 C114.0 99.0 110.0 102.0 110.0 102.0 L110.0 102.0 Z"></path>
<path fill="#554444" fill-opacity="1.0"  filling="0" d="M100.0 21.0 C100.0 21.0 63.0 21.0 63.0 57.0 C63.0 86.0 91.0 102.0 91.0 102.0 L110.0 102.0 C110.0 102.0 137.0 86.0 137.0 57.0 C137.0 21.0 100.0 21.0 100.0 21.0 L100.0 21.0 Z"></path>
<path fill="#554444" fill-opacity="1.0"  filling="0" d="M100.0 21.0 C100.0 21.0 63.0 21.0 63.0 57.0 C63.0 86.0 91.0 102.0 91.0 102.0 L110.0 102.0 C110.0 102.0 137.0 86.0 137.0 57.0 C137.0 21.0 100.0 21.0 100.0 21.0 L100.0 21.0 Z"></path>
<path fill="#000000" fill-opacity="1.0"  filling="0" d="M148.0 145.0 C148.0 165.0 127.0 183.0 100.0 183.0 C73.0 183.0 52.0 165.0 52.0 145.0 C52.0 127.0 73.0 114.0 100.0 114.0 C127.0 114.0 148.0 127.0 148.0 145.0 L148.0 145.0 Z"></path>
<path fill="#000000" fill-opacity="1.0"  filling="0" d="M148.0 145.0 C148.0 165.0 127.0 183.0 100.0 183.0 C73.0 183.0 52.0 165.0 52.0 145.0 C52.0 127.0 73.0 114.0 100.0 114.0 C127.0 114.0 148.0 127.0 148.0 145.0 L148.0 145.0 Z"></path>
<path fill="#000000" fill-opacity="1.0"  filling="0" d="M148.0 145.0 C148.0 165.0 127.0 183.0 100.0 183.0 C73.0 183.0 52.0 165.0 52.0 145.0 C52.0 127.0 73.0 114.0 100.0 114.0 C127.0 114.0 148.0 127.0 148.0 145.0 L148.0 145.0 Z"></path>
<path fill="#000000" fill-opacity="1.0"  filling="0" d="M111.0 99.0 L89.0 99.0 L89.0 130.0 L111.0 130.0 L111.0 99.0 L111.0 99.0 Z M111.0 119.0 C108.0 120.0 104.0 120.0 100.0 120.0 C96.0 120.0 92.0 120.0 89.0 119.0 L89.0 114.0 L111.0 114.0 L111.0 119.0 L111.0 119.0 L111.0 119.0 Z"></path>
<path fill="#000000" fill-opacity="1.0"  filling="0" d="M111.0 99.0 L89.0 130.0 L111.0 130.0 L111.0 99.0 L111.0 99.0 Z"></path>
<path fill="#000000" fill-opacity="1.0"  filling="0" d="M148.0 145.0 C148.0 165.0 127.0 183.0 100.0 183.0 C73.0 183.0 52.0 165.0 52.0 145.0 C52.0 127.0 73.0 114.0 100.0 114.0 C127.0 114.0 148.0 127.0 148.0 145.0 L148.0 145.0 Z"></path>
<path fill="#000000" fill-opacity="1.0"  filling="0" d="M148.0 145.0 C148.0 165.0 127.0 183.0 100.0 183.0 C73.0 183.0 52.0 165.0 52.0 145.0 C52.0 127.0 73.0 114.0 100.0 114.0 C127.0 114.0 148.0 127.0 148.0 145.0 L148.0 145.0 Z"></path>
<path fill="#000000" fill-opacity="1.0"  filling="0" d="M148.0 145.0 C148.0 165.0 127.0 183.0 100.0 183.0 C73.0 183.0 52.0 165.0 52.0 145.0 C52.0 127.0 73.0 114.0 100.0 114.0 C127.0 114.0 148.0 127.0 148.0 145.0 L148.0 145.0 Z"></path>
<path fill="#554444" fill-opacity="1.0"  filling="0" d="M100.0 21.0 C100.0 21.0 63.0 21.0 63.0 57.0 C63.0 86.0 91.0 102.0 91.0 102.0 L110.0 102.0 C110.0 102.0 137.0 86.0 137.0 57.0 C137.0 21.0 100.0 21.0 100.0 21.0 L100.0 21.0 Z"></path>
<path fill="#554444" fill-opacity="1.0"  filling="0" d="M100.0 21.0 C100.0 21.0 63.0 21.0 63.0 57.0 C63.0 86.0 91.0 102.0 91.0 102.0 L110.0 102.0 C110.0 102.0 137.0 86.0 137.0 57.0 C137.0 21.0 100.0 21.0 100.0 21.0 L100.0 21.0 Z"></path>
<path fill="#000000" fill-opacity="1.0"  filling="0" d="M110.0 102.0 L91.0 102.0 C91.0 102.0 86.0 99.0 80.0 93.0 C83.0 95.0 87.0 97.0 91.0 97.0 L110.0 97.0 C113.0 97.0 117.0 95.0 120.0 93.0 C114.0 99.0 110.0 102.0 110.0 102.0 L110.0 102.0 Z"></path>
<path fill="#554444" fill-opacity="1.0"  filling="0" d="M100.0 21.0 C100.0 21.0 63.0 21.0 63.0 57.0 C63.0 86.0 91.0 102.0 91.0 102.0 L110.0 102.0 C110.0 102.0 137.0 86.0 137.0 57.0 C137.0 21.0 100.0 21.0 100.0 21.0 L100.0 21.0 Z"></path>
<path fill="#554444" fill-opacity="1.0"  filling="0" d="M100.0 21.0 C100.0 21.0 63.0 21.0 63.0 57.0 C63.0 86.0 91.0 102.0 91.0 102.0 L110.0 102.0 C110.0 102.0 137.0 86.0 137.0 57.0 C137.0 21.0 100.0 21.0 100.0 21.0 L100.0 21.0 Z"></path>
<path fill="#000000" fill-opacity="1.0"  filling="0" d="M148.0 145.0 C148.0 165.0 127.0 183.0 100.0 183.0 C73.0 183.0 52.0 165.0 52.0 145.0 C52.0 127.0 73.0 114.0 100.0 114.0 C127.0 114.0 148.0 127.0 148.0 145.0 L148.0 145.0 Z"></path>
<path fill="#000000" fill-opacity="1.0"  filling="0" d="M148.0 145.0 C148.0 165.0 127.0 183.0 100.0 183.0 C73.0 183.0 52.0 165.0 52.0 145.0 C52.0 127.0 73.0 114.0 100.0 114.0 C127.0 114.0 148.0 127.0 148.0 145.0 L148.0 145.0 Z"></path>
<path fill="#000000" fill-opacity="1.0"  filling="0" d="M148.0 145.0 C148.0 165.0 127.0 183.0 100.0 183.0 C73.0 183.0 52.0 165.0 52.0 145.0 C52.0 127.0 73.0 114.0 100.0 114.0 C127.0 114.0 148.0 127.0 148.0 145.0 L148.0 145.0 Z"></path>
<path fill="#554444" fill-opacity="1.0"  filling="0" d="M100.0 21.0 C100.0 21.0 63.0 21.0 63.0 57.0 C63.0 86.0 91.0 102.0 91.0 102.0 L110.0 102.0 C110.0 102.0 137.0 86.0 137.0 57.0 C137.0 21.0 100.0 21.0 100.0 21.0 L100.0 21.0 Z"></path>
<path fill="#554444" fill-opacity="1.0"  filling="0" d="M100.0 21.0 C100.0 21.0 63.0 21.0 63.0 57.0 C63.0 86.0 91.0 102.0 91.0 102.0 L110.0 102.0 C110.0 102.0 137.0 86.0 137.0 57.0 C137.0 21.0 100.0 21.0 100.0 21.0 L100.0 21.0 Z"></path>
<path fill="#000000" fill-opacity="1.0"  filling="0" d="M110.0 102.0 L91.0 102.0 C91.0 102.0 86.0 99.0 80.0 93.0 C83.0 95.0 87.0 97.0 91.0 97.0 L110.0 97.0 C113.0 97.0 117.0 95.0 120.0 93.0 C114.0 99.0 110.0 102.0 110.0 102.0 L110.0 102.0 Z"></path>
<path fill="#554444" fill-opacity="1.0"  filling="0" d="M100.0 21.0 C100.0 21.0 63.0 21.0 63.0 57.0 C63.0 86.0 91.0 102.0 91.0 102.0 L110.0 102.0 C110.0 102.0 137.0 86.0 137.0 57.0 C137.0 21.0 100.0 21.0 100.0 21.0 L100.0 21.0 Z"></path>
<path fill="#554444" fill-opacity="1.0"  filling="0" d="M100.0 21.0 C100.0 21.0 63.0 21.0 63.0 57.0 C63.0 86.0 91.0 102.0 91.0 102.0 L110.0 102.0 C110.0 102.0 137.0 86.0 137.0 57.0 C137.0 21.0 100.0 21.0 100.0 21.0 L100.0 21.0 Z"></path></svg>