<svg xmlns="http://www.w3.org/2000/svg" viewBox="0.0 0.0 200.0 200.0" height="200px" width="200px"><path fill="#000000" fill-opacity="1.0"  filling="0" d="M65.0 166.0 C65.0 165.0 65.0 164.0 65.0 163.0 L65.0 113.0 C65.0 111.0 66.0 109.0 68.0 109.0 C70.0 109.0 72.0 111.0 72.0 113.0 L72.0 161.0 L106.0 146.0 L106.0 68.0 L72.0 78.0 C71.0 79.0 69.0 79.0 68.0 77.0 C67.0 76.0 67.0 74.0 68.0 73.0 L108.0 64.0 C108.0 64.0 108.0 64.0 108.0 64.0 C108.0 64.0 108.0 64.0 108.0 64.0 C108.0 64.0 108.0 64.0 108.0 64.0 C108.0 64.0 108.0 64.0 108.0 64.0 C108.0 64.0 108.0 64.0 108.0 64.0 C108.0 64.0 108.0 64.0 108.0 64.0 C108.0 64.0 108.0 64.0 108.0 64.0 C108.0 64.0 108.0 64.0 108.0 64.0 C108.0 64.0 108.0 64.0 108.0 64.0 C108.0 64.0 108.0 64.0 108.0 64.0 C108.0 64.0 108.0 64.0 108.0 64.0 C108.0 64.0 108.0 64.0 108.0 64.0 C108.0 64.0 108.0 64.0 108.0 64.0 C108.0 64.0 108.0 64.0 108.0 64.0 C108.0 64.0 108.0 64.0 108.0 64.0 C108.0 64.0 108.0 64.0 108.0 64.0 C108.0 64.0 108.0 64.0 108.0 64.0 C108.0 64.0 108.0 64.0 108.0 64.0 C108.0 64.0 108.0 64.0 108.0 64.0 C108.0 64.0 108.0 64.0 108.0 64.0 C108.0 64.0 108.0 64.0 108.0 64.0 C108.0 64.0 108.0 64.0 108.0 64.0 C108.0 64.0 108.0 64.0 108.0 64.0 C108.0 64.0 108.0 64.0 108.0 64.0 C108.0 64.0 108.0 64.0 108.0 64.0 C108.0 64.0 108.0 64.0 108.0 64.0 C108.0 64.0 108.0 64.0 108.0 64.0 C108.0 64.0 108.0 64.0 108.0 64.0 C108.0 64.0 108.0 64.0 108.0 64.0 C108.0 64.0 108.0 64.0 108.0 64.0 C108.0 64.0 108.0 64.0 108.0 64.0 C108.0 64.0 108.0 64.0 108.0 64.0 C108.0 64.0 108.0 64.0 108.0 64.0 C108.0 64.0 108.0 64.0 108.0 64.0 C108.0 64.0 108.0 64.0 108.0 64.0 C108.0 64.0 108.0 64.0 108.0 64.0 C108.0 64.0 108.0 64.0 108.0 64.0 C108.0 64.0 108.0 64.0 108.0 64.0 C108.0 64.0 108.0 64.0 108.0 64.0 C108.0 64.0 108.0 64.0 108.0 64.0 C108.0 64.0 108.0 64.0 108.0 64.0 C108.0 64.0 108.0 64.0 108.0 64.0 C108.0 64.0 108.0 64.0 108.0 64.0 C108.0 64.0 108.0 64.0 108.0 64.0 C108.0 64.0 108.0 64.0 108.0 64.0 C108.0 64.0 108.0 64.0 108.0 64.0 C108.0 64.0 108.0 64.0 108.0 64.0 C108.0 64.0 108.0 64.0 108.0 64.0 C108.0 64.0 108.0 64.0 108.0 64.0 C108.0 64.0 108.0 64.0 108.0 64.0 C108.0 64.0 108.0 64.0 108.0 64.0 C108.0 64.0 108.0 64.0 108.0 64.0 C108.0 64.0 108.0 64.0 108.0 64.0 C108.0 64.0 108.0 64.0 108.0 64.0 C108.0 64.0 108.0 64.0 108.0 64.0 C108.0 64.0 108.0 64.0 108.0 64.0 C108.0 64.0 108.0 64.0 108.0 64.0 C108.0 64.0 108.0 64.0 108.0 64.0 C108.0 64.0 108.0 64.0 108.0 64.0 C108.0 64.0 108.0 64.0 108.0 64.0 C108.0 64.0 108.0 64.0 108.0 64.0 C108.0 64.0 108.0 64.0 108.0 64.0 C108.0 64.0 108.0 64.0 108.0 64.0 C108.0 64.0 108.0 64.0 108.0 64.0 C108.0 64.0 108.0 64.0 108.0 64.0 C108.0 64.0 108.0 64.0 108.0 64.0 C108.0 64.0 108.0 64.0 108.0 64.0 C108.0 64.0 108.0 64.0 108.0 64.0 C108.0 64.0 108.0 64.0 108.0 64.0 C108.0 64.0 108.0 64.0 108.0 64.0 C108.0 64.0 108.0 64.0 108.0 64.0 C108.0 64.0 108.0 64.0 108.0 64.0 C108.0 64.0 108.0 64.0 108.0 64.0 C108.0 64.0 108.0 64.0 108.0 64.0 C108.0 64.0 108.0 64.0 108.0 64.0 C108.0 64.0 108.0 64.0 108.0 64.0 C108.0 64.0 108.0 64.0 108.0 64.0 C108.0 64.0 108.0 64.0 108.0 64.0 C108.0 64.0 108.0 64.0 108.0 64.0 C108.0 64.0 108.0 64.0 108.0 64.0 C108.0 64.0 108.0 64.0 108.0 64.0 C108.0 64.0 108.0 64.0 108.0 64.0 C108.0 64.0 108.0 64.0 108.0 64.0 C108.0 64.0 108.0 64.0 108.0 64.0 C108.0 64.0 108.0 64.0 108.0 64.0 C108.0 64.0 108.0 64.0 108.0 64.0 C108.0 64.0 108.0 64.0 108.0 64.0 C108.0 64.0 108.0 64.0 108.0 64.0 C108.0 64.0 108.0 64.0 108.0 64.0 C108.0 64.0 108.0 64.0 108.0 64.0 C108.0 64.0 108.0 64.0 108.0 64.0 C108.0 64.0 108.0 64.0 108.0 64.0 C108.0 64.0 108.0 64.0 108.0 64.0 C108.0 64.0 108.0 64.0 108.0 64.0 C108.0 64.0 108.0 64.0 108.0 64.0 C108.0 64.0 108.0 64.0 108.0 64.0 C108.0 64.0 108.0 64.0 108.0 64.0 C108.0 64.0 108.0 64.0 108.0 64.0 C108.0 64.0 108.0 64.0 108.0 64.0 C108.0 64.0 108.0 64.0 108.0 64.0 C108.0 64.0 108.0 64.0 108.0 64.0 C108.0 64.0 108.0 64.0 108.0 64.0 C108.0 64.0 108.0 64.0 108.0 64.0 C108.0 64.0 108.0 64.0 108.0 64.0 C108.0 64.0 108.0 64.0 108.0 64.0 C108.0 64.0 108.0 64.0 108.0 64.0 C108.0 64.0 108.0 64.0 108.0 64.0 C108.0 64.0 108.0 64.0 108.0 64.0 C108.0 64.0 108.0 64.0 108.0 64.0 C108.0 64.0 108.0 64.0 108.0 64.0 C108.0 64.0 108.0 64.0 108.0 64.0 C108.0 64.0 108.0 64.0 108.0 64.0 C108.0 64.0 108.0 64.0 108.0 64.0 C108.0 64.0 108.0 64.0 108.0 64.0 C108.0 64.0 108.0 64.0 108.0 64.0 C108.0 64.0 108.0 64.0 108.0 64.0 C108.0 64.0 108.0 64.0 108.0 64.0 C108.0 64.0 108.0 64.0 108.0 64.0 C108.0 64.0 108.0 64.0 108.0 64.0 C108.0 64.0 108.0 64.0 108.0 64.0 C108.0 64.0 108.0 64.0 108.0 64.0 C108.0 64.0 108.0 64.0 108.0 64.0 C108.0 64.0 108.0 64.0 108.0 64.0 C108.0 64.0 108.0 64.0 108.0 64.0 C108.0 64.0 108.0 64.0 108.0 64.0 C108.0 64.0 108.0 64.0 108.0 64.0 C108.0 64.0 108.0 64.0 108.0 64.0 C108.0 64.0 108.0 64.0 108.0 64.0 C108.0 64.0 108.0 64.0 108.0 64.0 C108.0 64.0 108.0 64.0 108.0 64.0 C108.0 64.0 108.0 64.0 108.0 64.0 C108.0 64.0 108.0 64.0 108.0 64.0 C108.0 64.0 108.0 64.0 108.0 64.0 C108.0 64.0 108.0 64.0 108.0 64.0 C108.0 64.0 108.0 64.0 108.0 64.0 C108.0 64.0 108.0 64.0 108.0 64.0 C108.0 64.0 108.0 64.0 108.0 64.0 C108.0 64.0 108.0 64.0 108.0 64.0 C108.0 64.0 108.0 64.0 108.0 64.0 C108.0 64.0 108.0 64.0 108.0 64.0 C108.0 64.0 108.0 64.0 108.0 64.0 C108.0 64.0 108.0 64.0 108.0 64.0 C108.0 64.0 108.0 64.0 108.0 64.0 C108.0 64.0 108.0 64.0 108.0 64.0 C108.0 64.0 108.0 64.0 108.0 64.0 C108.0 64.0 108.0 64.0 108.0 64.0 C108.0 64.0 108.0 64.0 108.0 64.0 C108.0 64.0 108.0 64.0 108.0 64.0 C108.0 64.0 108.0 64.0 108.0 64.0 C108.0 64.0 108.0 64.0 108.0 64.0 C108.0 64.0 108.0 64.0 108.0 64.0 C108.0 64.0 108.0 64.0 108.0 64.0 C108.0 64.0 108.0 64.0 108.0 64.0 C108.0 64.0 108.0 64.0 108.0 64.0 C108.0 64.0 108.0 64.0 108.0 64.0 C108.0 64.0 108.0 64.0 108.0 64.0 C108.0 64.0 108.0 64.0 108.0 64.0 C108.0 64.0 108.0 64.0 108.0 64.0 C108.0 64.0 108.0 64.0 108.0 64.0 C108.0 64.0 108.0 64.0 108.0 64.0 C108.0 64.0 108.0 64.0 108.0 64.0 C108.0 64.0 108.0 64.0 108.0 64.0 C108.0 64.0 108.0 64.0 108.0 64.0 C108.0 64.0 108.0 64.0 108.0 64.0 C108.0 64.0 108.0 64.0 108.0 64.0 C108.0 64.0 108.0 64.0 108.0 64.0 C108.0 64.0 108.0 64.0 108.0 64.0 C108.0 64.0 108.0 64.0 108.0 64.0 C108.0 64.0 108.0 64.0 108.0 64.0 C108.0 64.0 108.0 64.0 108.0 64.0 C108.0 64.0 108.0 64.0 108.0 64.0 C108.0 64.0 108.0 64.0 108.0 64.0 C108.0 64.0 108.0 64.0 108.0 64.0 C108.0 64.0 108.0 64.0 108.0 64.0 C108.0 64.0 108.0 64.0 108.0 64.0 C108.0 64.0 108.0 64.0 108.0 64.0 C108.0 64.0 108.0 64.0 108.0 64.0 C108.0 64.0 108.0 64.0 108.0 64.0 C108.0 64.0 108.0 64.0 108.0 64.0 C108.0 64.0 108.0 64.0 108.0 64.0 C108.0 64.0 108.0 64.0 108.0 64.0 C108.0 64.0 108.0 64.0 108.0 64.0 C108.0 64.0 108.0 64.0 108.0 64.0 C108.0 64.0 108.0 64.0 108.0 64.0 C108.0 64.0 108.0 64.0 108.0 64.0 C108.0 64.0 108.0 64.0 108.0 64.0 C108.0 64.0 108.0 64.0 108.0 64.0 C108.0 64.0 108.0 64.0 108.0 64.0 C108.0 64.0 108.0 64.0 108.0 64.0 C108.0 64.0 108.0 64.0 108.0 64.0 C108.0 64.0 108.0 64.0 108.0 64.0 C108.0 64.0 108.0 64.0 108.0 64.0 C108.0 64.0 108.0 64.0 108.0 64.0 C108.0 64.0 108.0 64.0 108.0 64.0 C108.0 64.0 108.0 64.0 108.0 64.0 C108.0 64.0 108.0 64.0 108.0 64.0 C108.0 64.0 108.0 64.0 108.0 64.0 C108.0 64.0 108.0 64.0 108.0 64.0 C108.0 64.0 108.0 64.0 108.0 64.0 C108.0 64.0 108.0 64.0 108.0 64.0 C108.0 64.0 108.0 64.0 108.0 64.0 C108.0 64.0 108.0 64.0 108.0 64.0 C108.0 64.0 108.0 64.0 108.0 64.0 C108.0 64.0 108.0 64.0 108.0 64.0 C108.0 64.0 108.0 64.0 108.0 64.0 C108.0 64.0 108.0 64.0 108.0 64.0 C108.0 64.0 108.0 64.0 108.0 64.0 C108.0 64.0 108.0 64.0 108.0 64.0 C108.0 64.0 108.0 64.0 108.0 64.0 C108.0 64.0 108.0 64.0 108.0 64.0 C108.0 64.0 108.0 64.0 108.0 64.0 C108.0 64.0 108.0 64.0 108.0 64.0 C108.0 64.0 108.0 64.0 108.0 64.0 C108.0 64.0 108.0 64.0 108.0 64.0 C108.0 64.0 108.0 64.0 108.0 64.0 C108.0 64.0 108.0 64.0 108.0 64.0 C108.0 64.0 108.0 64.0 108.0 64.0 C108.0 64.0 108.0 64.0 108.0 64.0 C108.0 64.0 108.0 64.0 108.0 64.0 C108.0 64.0 108.0 64.0 108.0 64.0 C108.0 64.0 108.0 64.0 108.0 64.0 C108.0 64.0 108.0 64.0 108.0 64.0 C108.0 64.0 108.0 64.0 108.0 64.0 C108.0 64.0 108.0 64.0 108.0 64.0 C108.0 64.0 108.0 64.0 108.0 64.0 C108.0 64.0 108.0 64.0 108.0 64.0 C108.0 64.0 108.0 64.0 108.0 64.0 C108.0 64.0 108.0 64.0 108.0 64.0 C108.0 64.0 108.0 64.0 108.0 64.0 C108.0 64.0 108.0 64.0 108.0 64.0 C108.0 64.0 108.0 64.0 108.0 64.0 C108.0 64.0 108.0 64.0 108.0 64.0 C108.0 64.0 108.0 64.0 108.0 64.0 C108.0 64.0 108.0 64.0 108.0 64.0 C108.0 64.0 108.0 64.0 108.0 64.0 C108.0 64.0 108.0 64.0 108.0 64.0 C108.0 64.0 108.0 64.0 108.0 64.0 C108.0 64.0 108.0 64.0 108.0 64.0 C108.0 64.0 108.0 64.0 108.0 64.0 C108.0 64.0 108.0 64.0 108.0 64.0 C108.0 64.0 108.0 64.0 108.0 64.0 C108.0 64.0 108.0 64.0 108.0 64.0 C108.0 64.0 108.0 64.0 108.0 64.0 C108.0 64.0 108.0 64.0 108.0 64.0 C108.0 64.0 108.0 64.0 108.0 64.0 C108.0 64.0 108.0 64.0 108.0 64.0 C108.0 64.0 108.0 64.0 108.0 64.0 C108.0 64.0 108.0 64.0 108.0 64.0 C108.0 64.0 108.0 64.0 108.0 64.0 C108.0 64.0 108.0 64.0 108.0 64.0 C108.0 64.0 108.0 64.0 108.0 64.0 C108.0 64.0 108.0 64.0 108.0 64.0 C108.0 64.0 108.0 64.0 108.0 64.0 C108.0 64.0 108.0 64.0 108.0 64.0 C108.0 64.0 108.0 64.0 108.0 64.0 C108.0 64.0 108.0 64.0 108.0 64.0 C108.0 64.0 108.0 64.0 108.0 64.0 C108.0 64.0 108.0 64.0 108.0 64.0 C108.0 64.0 108.0 64.0 108.0 64.0 C108.0 64.0 108.0 64.0 108.0 64.0 C108.0 64.0 108.0 64.0 108.0 64.0 C108.0 64.0 108.0 64.0 108.0 64.0 C108.0 64.0 108.0 64.0 108.0 64.0 C108.0 64.0 108.0 64.0 108.0 64.0 C108.0 64.0 108.0 64.0 108.0 64.0 C108.0 64.0 108.0 64.0 108.0 64.0 C108.0 64.0 108.0 64.0 108.0 64.0 C108.0 64.0 108.0 64.0 108.0 64.0 C108.0 64.0 108.0 64.0 108.0 64.0 C108.0 64.0 108.0 64.0 108.0 64.0 C108.0 64.0 108.0 64.0 108.0 64.0 C108.0 64.0 108.0 64.0 108.0 64.0 C108.0 64.0 108.0 64.0 108.0 64.0 C108.0 64.0 108.0 64.0 108.0 64.0 C108.0 64.0 108.0 64.0 108.0 64.0 C108.0 64.0 108.0 64.0 108.0 64.0 C108.0 64.0 108.0 64.0 108.0 64.0 C108.0 64.0 108.0 64.0 108.0 64.0 C108.0 64.0 108.0 64.0 108.0 64.0 C108.0 64.0 108.0 64.0 108.0 64.0 C108.0 64.0 108.0 64.0 108.0 64.0 C108.0 64.0 108.0 64.0 108.0 64.0 C108.0 64.0 108.0 64.0 108.0 64.0 C108.0 64.0 108.0 64.0 108.0 64.0 C108.0 64.0 108.0 64.0 108.0 64.0 C108.0 64.0 108.0 64.0 108.0 64.0 C108.0 64.0 108.0 64.0 108.0 64.0 C108.0 64.0 108.0 64.0 108.0 64.0 C108.0 64.0 108.0 64.0 108.0 64.0 C108.0 64.0 108.0 64.0 108.0 64.0 C108.0 64.0 108.0 64.0 108.0 64.0 C108.0 64.0 108.0 64.0 108.0 64.0 C108.0 64.0 108.0 64.0 108.0 64.0 C108.0 64.0 108.0 64.0 108.0 64.0 C108.0 64.0 108.0 64.0 108.0 64.0 C108.0 64.0 108.0 64.0 108.0 64.0 C108.0 64.0 108.0 64.0 108.0 64.0 C108.0 64.0 108.0 64.0 108.0 64.0 C108.0 64.0 108.0 64.0 108.0 64.0 C108.0 64.0 108.0 64.0 108.0 64.0 C108.0 64.0 108.0 64.0 108.0 64.0 C108.0 64.0 108.0 64.0 108.0 64.0 C108.0 64.0 108.0 64.0 108.0 64.0 C108.0 64.0 108.0 64.0 108.0 64.0 C108.0 64.0 108.0 64.0 108.0 64.0 C108.0 64.0 108.0 64.0 108.0 64.0 C108.0 64.0 108.0 64.0 108.0 64.0 C108.0 64.0 108.0 64.0 108.0 64.0 C108.0 64.0 108.0 64.0 108.0 64.0 C108.0 64.0 108.0 64.0 108.0 64.0 C108.0 64.0 108.0 64.0 108.0 64.0 C108.0 64.0 108.0 64.0 108.0 64.0 C108.0 64.0 108.0 64.0 108.0 64.0 C108.0 64.0 108.0 64.0 108.0 64.0 C108.0 64.0 108.0 64.0 108.0 64.0 C108.0 64.0 108.0 64.0 108.0 64.0 C108.0 64.0 108.0 64.0 108.0 64.0 C108.0 64.0 108.0 64.0 108.0 64.0 C108.0 64.0 108.0 64.0 108.0 64.0 C108.0 64.0 108.0 64.0 108.0 64.0 C108.0 64.0 108.0 64.0 108.0 64.0 C108.0 64.0 108.0 64.0 108.0 64.0 C108.0 64.0 108.0 64.0 108.0 64.0 C108.0 64.0 108.0 64.0 108.0 64.0 C108.0 64.0 108.0 64.0 108.0 64.0 C108.0 64.0 108.0 64.0 108.0 64.0 C108.0 64.0 108.0 64.0 108.0 64.0 C108.0 64.0 108.0 64.0 108.0 64.0 C108.0 64.0 108.0 64.0 108.0 64.0 C108.0 64.0 108.0 64.0 108.0 64.0 C108.0 64.0 108.0 64.0 108.0 64.0 C108.0 64.0 108.0 64.0 108.0 64.0 C108.0 64.0 108.0 64.0 108.0 64.0 C108.0 64.0 108.0 64.0 108.0 64.0 C108.0 64.0 108.0 64.0 108.0 64.0 C108.0 64.0 108.0 64.0 108.0 64.0 C108.0 64.0 108.0 64.0 108.0 64.0 C108.0 64.0 108.0 64.0 108.0 64.0 C108.0 64.0 108.0 64.0 108.0 64.0 C108.0 64.0 108.0 64.0 108.0 64.0 C108.0 64.0 108.0 64.0 108.0 64.0 C108.0 64.0 108.0 64.0 108.0 64.0 C108.0 64.0 108.0 64.0 108.0 64.0 C108.0 64.0 108.0 64.0 108.0 64.0 C108.0 64.0 108.0 64.0 108.0 64.0 C108.0 64.0 108.0 64.0 108.0 64.0 C108.0 64.0 108.0 64.0 108.0 64.0 C108.0 64.0 108.0 64.0 108.0 64.0 C108.0 64.0 108.0 64.0 108.0 64.0 C108.0 64.0 108.0 64.0 108.0 64.0 C108.0 64.0 108.0 64.0 108.0 64.0 C108.0 64.0 108.0 64.0 108.0 64.0 C108.0 64.0 108.0 64.0 108.0 64.0 C108.0 64.0 108.0 64.0 108.0 64.0 C108.0 64.0 108.0 64.0 108.0 64.0 C108.0 64.0 108.0 64.0 108.0 64.0 C108.0 64.0 108.0 64.0 108.0 64.0 C108.0 64.0 108.0 64.0 108.0 64.0 C108.0 64.0 108.0 64.0 108.0 64.0 C108.0 64.0 108.0 64.0 108.0 64.0 C108.0 64.0 108.0 64.0 108.0 64.0 C108.0 64.0 108.0 64.0 108.0 64.0 C108.0 64.0 108.0 64.0 108.0 64.0 C108.0 64.0 108.0 64.0 108.0 64.0 C108.0 64.0 108.0 64.0 108.0 64.0 C108.0 64.0 108.0 64.0 108.0 64.0 C108.0 64.0 108.0 64.0 108.0 64.0 C108.0 64.0 108.0 64.0 108.0 64.0 C108.0 64.0 108.0 64.0 108.0 64.0 C108.0 64.0 108.0 64.0 108.0 64.0 C108.0 64.0 108.0 64.0 108.0 64.0 C108.0 64.0 108.0 64.0 108.0 64.0 C108.0 64.0 108.0 64.0 108.0 64.0 C108.0 64.0 108.0 64.0 108.0 64.0"></path></svg>