<svg xmlns="http://www.w3.org/2000/svg" viewBox="0.0 0.0 200.0 200.0" height="200px" width="200px"><path fill="#777777" fill-opacity="1.0"  filling="0" d="M42.0 42.0 C25.0 58.0 25.0 84.0 42.0 100.0 C58.0 116.0 84.0 116.0 100.0 100.0 C116.0 84.0 116.0 58.0 100.0 42.0 C84.0 25.0 58.0 25.0 42.0 42.0 L42.0 42.0 Z"></path>
<path fill="#666666" fill-opacity="1.0"  filling="0" d="M100.0 100.0 C84.0 116.0 58.0 116.0 42.0 100.0 C25.0 84.0 25.0 58.0 42.0 42.0 L100.0 100.0 L100.0 100.0 Z"></path>
<path fill="#eeeecc" fill-opacity="1.0"  filling="0" d="M62.0 100.0 C50.0 88.0 50.0 69.0 62.0 58.0 C74.0 46.0 92.0 46.0 104.0 58.0 C115.0 69.0 115.0 88.0 104.0 100.0 C92.0 112.0 74.0 112.0 62.0 100.0 L62.0 100.0 Z"></path>
<path fill="#eeddbb" fill-opacity="1.0"  filling="0" d="M104.0 100.0 C92.0 112.0 74.0 112.0 62.0 100.0 C50.0 88.0 50.0 69.0 62.0 58.0 L104.0 100.0 L104.0 100.0 Z"></path>
<path fill="#222222" fill-opacity="1.0"  filling="0" d="M63.0 38.0 C56.0 38.0 49.0 40.0 44.0 45.0 C40.0 48.0 37.0 53.0 35.0 58.0 C33.0 63.0 32.0 68.0 32.0 73.0 C32.0 79.0 33.0 85.0 35.0 90.0 C37.0 95.0 40.0 99.0 44.0 103.0 C49.0 107.0 56.0 109.0 63.0 109.0 C69.0 109.0 76.0 107.0 81.0 103.0 C85.0 99.0 89.0 95.0 91.0 90.0 C93.0 85.0 95.0 79.0 95.0 73.0 C95.0 68.0 93.0 63.0 91.0 58.0 C89.0 53.0 85.0 48.0 81.0 45.0 C76.0 40.0 69.0 38.0 63.0 38.0 L63.0 38.0 Z M63.0 63.0 C62.0 64.0 61.0 65.0 60.0 66.0 C54.0 72.0 54.0 84.0 60.0 91.0 C61.0 93.0 62.0 94.0 63.0 95.0 C64.0 94.0 65.0 93.0 66.0 91.0 C72.0 84.0 72.0 72.0 66.0 66.0 C65.0 65.0 64.0 64.0 63.0 63.0 L63.0 63.0 Z M38.0 73.0 C38.0 66.0 41.0 58.0 47.0 52.0 C52.0 47.0 57.0 45.0 63.0 45.0 C68.0 45.0 74.0 47.0 78.0 52.0 C85.0 58.0 88.0 66.0 88.0 73.0 C88.0 81.0 85.0 88.0 78.0 94.0 C74.0 99.0 68.0 101.0 63.0 101.0 C57.0 101.0 52.0 99.0 47.0 94.0 C41.0 88.0 38.0 81.0 38.0 73.0 L38.0 73.0 Z"></path>
<path fill="#222222" fill-opacity="1.0"  filling="0" d="M63.0 38.0 C56.0 38.0 49.0 40.0 44.0 45.0 C40.0 48.0 37.0 53.0 35.0 58.0 C33.0 63.0 32.0 68.0 32.0 73.0 C32.0 79.0 33.0 85.0 35.0 90.0 C37.0 95.0 40.0 99.0 44.0 103.0 C49.0 107.0 56.0 109.0 63.0 109.0 C69.0 109.0 76.0 107.0 81.0 103.0 C85.0 99.0 89.0 95.0 91.0 90.0 C93.0 85.0 95.0 79.0 95.0 73.0 C95.0 68.0 93.0 63.0 91.0 58.0 C89.0 53.0 85.0 48.0 81.0 45.0 C76.0 40.0 69.0 38.0 63.0 38.0 L63.0 38.0 Z M63.0 63.0 C62.0 64.0 61.0 65.0 60.0 66.0 C54.0 72.0 54.0 84.0 60.0 91.0 C61.0 93.0 62.0 94.0 63.0 95.0 C64.0 94.0 65.0 93.0 66.0 91.0 C72.0 84.0 72.0 72.0 66.0 66.0 C65.0 65.0 64.0 64.0 63.0 63.0 L63.0 63.0 Z M38.0 73.0 C38.0 66.0 41.0 58.0 47.0 52.0 C52.0 47.0 57.0 45.0 63.0 45.0 C68.0 45.0 74.0 47.0 78.0 52.0 C85.0 58.0 88.0 66.0 88.0 73.0 C88.0 81.0 85.0 88.0 78.0 94.0 C74.0 99.0 68.0 101.0 63.0 101.0 C57.0 101.0 52.0 99.0 47.0 94.0 C41.0 88.0 38.0 81.0 38.0 73.0 L38.0 73.0 Z"></path>
<path fill="#ddddcc" fill-opacity="1.0"  filling="0" d="M107.0 67.0 L100.0 67.0 L100.0 149.0 L145.0 163.0 L178.0 67.0 L107.0 67.0 L107.0 67.0 Z"></path>
<path fill="#aabbaa" fill-opacity="1.0"  filling="0" d="M100.0 133.0 L100.0 133.0 L100.0 149.0 L145.0 163.0 L145.0 133.0 L145.0 133.0 L100.0 133.0 L100.0 133.0 Z"></path>
<path fill="#333333" fill-opacity="1.0"  filling="0" d="M100.0 133.0 L145.0 133.0 L145.0 133.0 L145.0 163.0 L145.0 163.0 L100.0 149.0 L100.0 149.0 L100.0 133.0 L100.0 133.0 L100.0 133.0 Z M107.0 132.0 L107.0 132.0 L107.0 146.0 L107.0 146.0 L107.0 146.0 L143.0 155.0 L143.0 136.0 L107.0 137.0 L107.0 132.0 L107.0 132.0 Z"></path>
<path fill="#ddddcc" fill-opacity="1.0"  filling="0" d="M178.0 67.0 L145.0 163.0 L145.0 133.0 L100.0 133.0 L100.0 67.0 L107.0 67.0 L107.0 67.0 L178.0 67.0 L178.0 67.0 Z"></path>
<path fill="#333333" fill-opacity="1.0"  filling="0" d="M107.0 133.0 L145.0 133.0 L145.0 133.0 L145.0 163.0 L145.0 163.0 L107.0 149.0 L107.0 149.0 L107.0 133.0 L107.0 133.0 L107.0 133.0 Z M114.0 132.0 L114.0 132.0 L114.0 145.0 L114.0 145.0 L114.0 145.0 L139.0 155.0 L139.0 137.0 L114.0 137.0 L114.0 132.0 L114.0 132.0 Z"></path>
<path fill="#ddddcc" fill-opacity="1.0"  filling="0" d="M178.0 67.0 L145.0 133.0 L145.0 133.0 L145.0 163.0 L174.0 141.0 L178.0 67.0 L178.0 67.0 L178.0 67.0 Z"></path>
<path fill="#333333" fill-opacity="1.0"  filling="0" d="M143.0 133.0 L145.0 133.0 L145.0 133.0 L145.0 163.0 L145.0 163.0 L143.0 149.0 L143.0 149.0 L143.0 133.0 L143.0 133.0 L143.0 133.0 Z M149.0 132.0 L149.0 132.0 L149.0 145.0 L149.0 145.0 L149.0 145.0 L157.0 155.0 L169.0 137.0 L149.0 137.0 L149.0 132.0 L149.0 132.0 Z"></path>
<path fill="#ddddcc" fill-opacity="1.0"  filling="0" d="M107.0 133.0 L107.0 149.0 L68.0 163.0 L68.0 67.0 L107.0 67.0 L107.0 133.0 L107.0 133.0 Z"></path>
<path fill="#333333" fill-opacity="1.0"  filling="0" d="M68.0 67.0 L68.0 163.0 L68.0 163.0 L107.0 149.0 L107.0 149.0 L107.0 133.0 L107.0 133.0 L68.0 67.0 L68.0 67.0 L68.0 67.0 Z M73.0 68.0 L73.0 68.0 L104.0 137.0 L104.0 146.0 L73.0 155.0 L73.0 68.0 L73.0 68.0 Z"></path>
<path fill="#333333" fill-opacity="1.0"  filling="0" d="M68.0 67.0 L68.0 163.0 L107.0 149.0 L107.0 67.0 L107.0 67.0 L68.0 67.0 L68.0 67.0 Z M73.0 68.0 L73.0 68.0 L104.0 68.0 L104.0 137.0 L73.0 155.0 L73.0 68.0 L73.0 68.0 Z"></path>
<path fill="#ddddcc" fill-opacity="1.0"  filling="0" d="M68.0 133.0 L68.0 163.0 L107.0 149.0 L107.0 132.0 L68.0 133.0 L68.0 133.0 Z"></path>
<path fill="#333333" fill-opacity="1.0"  filling="0" d="M68.0 132.0 L68.0 133.0 L107.0 132.0 L107.0 132.0 L107.0 149.0 L107.0 149.0 L68.0 163.0 L68.0 163.0 L68.0 132.0 L68.0 132.0 Z M73.0 137.0 L73.0 155.0 L104.0 146.0 L104.0 137.0 L73.0 137.0 L73.0 137.0 Z"></path>
<path fill="#333333" fill-opacity="1.0"  filling="0" d="M68.0 133.0 L68.0 163.0 L107.0 149.0 L107.0 132.0 L68.0 133.0 L68.0 133.0 Z M73.0 137.0 L104.0 137.0 L104.0 146.0 L73.0 155.0 L73.0 137.0 L73.0 137.0 Z"></path>
<path fill="#ddddcc" fill-opacity="1.0"  filling="0" d="M68.0 133.0 L68.0 163.0 L107.0 149.0 L107.0 132.0 L68.0 133.0 L68.0 133.0 Z"></path>
<path fill="#333333" fill-opacity="1.0"  filling="0" d="M68.0 132.0 L68.0 133.0 L107.0 132.0 L107.0 132.0 L107.0 149.0 L107.0 149.0 L68.0 163.0 L68.0 163.0 L68.0 132.0 L68.0 132.0 Z M73.0 137.0 L73.0 155.0 L104.0 146.0 L104.0 137.0 L73.0 137.0 L73.0 137.0 Z"></path>
<path fill="#777777" fill-opacity="1.0"  filling="0" d="M37.0 117.0 L53.0 125.0 L38.0 157.0 C37.0 161.0 33.0 163.0 29.0 162.0 C24.0 160.0 21.0 156.0 22.0 151.0 L37.0 117.0 L37.0 117.0 Z"></path>
<path fill="#333333" fill-opacity="1.0"  filling="0" d="M37.0 162.0 C36.0 163.0 35.0 164.0 34.0 164.0 C32.0 165.0 31.0 165.0 29.0 165.0 C25.0 164.0 22.0 162.0 20.0 159.0 C18.0 156.0 18.0 152.0 19.0 148.0 L34.0 117.0 C34.0 116.0 35.0 115.0 36.0 115.0 C37.0 115.0 38.0 115.0 39.0 115.0 L53.0 122.0 C54.0 123.0 55.0 123.0 55.0 124.0 C56.0 125.0 56.0 126.0 55.0 127.0 L40.0 158.0 C39.0 160.0 38.0 161.0 37.0 162.0 L37.0 162.0 Z M38.0 119.0 L24.0 150.0 C22.0 152.0 23.0 155.0 24.0 157.0 C25.0 159.0 27.0 160.0 29.0 160.0 C31.0 161.0 32.0 160.0 33.0 159.0 C34.0 158.0 35.0 157.0 36.0 156.0 L49.0 125.0 L38.0 119.0 L38.0 119.0 Z"></path>
<path fill="#bbbbbb" fill-opacity="1.0"  filling="0" d="M163.0 83.0 L147.0 75.0 L162.0 43.0 C163.0 39.0 167.0 37.0 171.0 38.0 C176.0 40.0 179.0 44.0 178.0 49.0 L163.0 83.0 L163.0 83.0 Z"></path>
<path fill="#777777" fill-opacity="1.0"  filling="0" d="M163.0 83.0 L147.0 75.0 L162.0 43.0 C163.0 39.0 167.0 37.0 171.0 38.0 C176.0 40.0 179.0 44.0 178.0 49.0 L163.0 83.0 L163.0 83.0 Z"></path>
<path fill="#bbbbbb" fill-opacity="1.0"  filling="0" d="M163.0 83.0 L147.0 75.0 L162.0 43.0 C163.0 39.0 167.0 37.0 171.0 38.0 C176.0 40.0 179.0 44.0 178.0 49.0 L163.0 83.0 L163.0 83.0 Z"></path>
<path fill="#333333" fill-opacity="1.0"  filling="0" d="M162.0 84.0 C162.0 85.0 161.0 85.0 161.0 85.0 L147.0 78.0 C146.0 77.0 145.0 77.0 145.0 76.0 C144.0 75.0 144.0 74.0 145.0 73.0 L160.0 42.0 C162.0 40.0 163.0 38.0 165.0 37.0 C167.0 36.0 169.0 35.0 171.0 35.0 C175.0 36.0 178.0 38.0 180.0 41.0 C182.0 44.0 182.0 48.0 181.0 52.0 L166.0 83.0 C165.0 84.0 164.0 85.0 162.0 84.0 L162.0 84.0 Z M151.0 75.0 L162.0 81.0 L176.0 50.0 C177.0 48.0 177.0 45.0 176.0 43.0 C175.0 41.0 173.0 40.0 171.0 40.0 C169.0 39.0 168.0 40.0 167.0 41.0 C166.0 42.0 165.0 43.0 164.0 44.0 L151.0 75.0 L151.0 75.0 Z"></path>
<path fill="#ee6655" fill-opacity="1.0"  filling="0" d="M145.0 34.0 C132.0 34.0 122.0 47.0 122.0 59.0 C122.0 67.0 126.0 74.0 131.0 80.0 C136.0 85.0 140.0 91.0 144.0 95.0 C147.0 97.0 149.0 98.0 149.0 98.0 C149.0 98.0 151.0 97.0 154.0 95.0 C157.0 91.0 161.0 85.0 165.0 80.0 C170.0 74.0 174.0 67.0 174.0 59.0 C174.0 47.0 161.0 34.0 145.0 34.0 L145.0 34.0 Z M145.0 67.0 C141.0 67.0 138.0 64.0 138.0 59.0 C138.0 55.0 141.0 52.0 145.0 52.0 C150.0 52.0 153.0 55.0 153.0 59.0 C153.0 64.0 150.0 67.0 145.0 67.0 L145.0 67.0 Z"></path>
<path fill="#cc5544" fill-opacity="1.0"  filling="0" d="M149.0 98.0 C149.0 98.0 149.0 97.0 154.0 95.0 C157.0 91.0 161.0 85.0 165.0 80.0 C170.0 74.0 174.0 67.0 174.0 59.0 C174.0 47.0 161.0 34.0 145.0 34.0 L145.0 52.0 C150.0 52.0 153.0 55.0 153.0 59.0 C153.0 64.0 150.0 67.0 145.0 67.0 L149.0 98.0 C149.0 98.0 149.0 98.0 149.0 98.0 L149.0 98.0 Z"></path>
<path fill="#333333" fill-opacity="1.0"  filling="0" d="M149.0 101.0 C148.0 101.0 148.0 101.0 148.0 101.0 C148.0 101.0 146.0 99.0 142.0 97.0 C138.0 93.0 134.0 88.0 129.0 82.0 C124.0 75.0 120.0 68.0 120.0 59.0 C120.0 46.0 130.0 32.0 145.0 32.0 C162.0 32.0 177.0 46.0 177.0 59.0 C177.0 68.0 173.0 75.0 167.0 82.0 C163.0 88.0 159.0 93.0 155.0 97.0 C152.0 99.0 150.0 101.0 150.0 101.0 C150.0 101.0 150.0 101.0 149.0 101.0 L149.0 101.0 Z M145.0 37.0 C134.0 37.0 125.0 48.0 125.0 59.0 C125.0 66.0 128.0 73.0 133.0 78.0 C137.0 84.0 142.0 89.0 146.0 93.0 C147.0 94.0 148.0 95.0 149.0 96.0 C150.0 95.0 151.0 94.0 152.0 93.0 C156.0 89.0 160.0 84.0 163.0 78.0 C168.0 73.0 171.0 66.0 171.0 59.0 C171.0 48.0 160.0 37.0 145.0 37.0 L145.0 37.0 Z M145.0 69.0 C140.0 69.0 136.0 65.0 136.0 59.0 C136.0 54.0 140.0 50.0 145.0 50.0 C151.0 50.0 155.0 54.0 155.0 59.0 C155.0 65.0 151.0 69.0 145.0 69.0 L145.0 69.0 Z M145.0 54.0 C142.0 54.0 140.0 57.0 140.0 59.0 C140.0 62.0 142.0 65.0 145.0 65.0 C148.0 65.0 151.0 62.0 151.0 59.0 C151.0 57.0 148.0 54.0 145.0 54.0 L145.0 54.0 Z"></path>
<path fill="#000000" fill-opacity="1.0"  filling="0" d="M145.0 166.0 C145.0 166.0 144.0 166.0 144.0 165.0 L102.0 151.0 C101.0 151.0 100.0 150.0 100.0 149.0 L100.0 67.0 C100.0 66.0 101.0 65.0 102.0 65.0"></path></svg>