<svg xmlns="http://www.w3.org/2000/svg" viewBox="0.0 0.0 200.0 200.0" height="200px" width="200px"><path fill="#ffddcc" fill-opacity="1.0"  filling="0" d="M68.0 163.0 L107.0 148.0 L107.0 68.0 L68.0 86.0 L68.0 163.0 L68.0 163.0 Z"></path>
<path fill="#333344" fill-opacity="1.0"  filling="0" d="M68.0 166.0 C67.0 166.0 67.0 165.0 66.0 165.0 C66.0 164.0 65.0 164.0 65.0 163.0 L65.0 86.0 C65.0 85.0 66.0 84.0 67.0 84.0 L106.0 64.0 C107.0 64.0 108.0 64.0 108.0 64.0 C109.0 65.0 109.0 66.0 109.0 68.0 L109.0 148.0 C109.0 149.0 109.0 150.0 108.0 150.0 L69.0 165.0 C68.0 165.0 68.0 166.0 68.0 166.0 L68.0 166.0 Z M70.0 88.0 L70.0 161.0 L104.0 146.0 L104.0 69.0 L70.0 88.0 L70.0 88.0 Z"></path>
<path fill="#99ccaa" fill-opacity="1.0"  filling="0" d="M120.0 78.0 L107.0 68.0 L107.0 148.0 L120.0 163.0 L120.0 78.0 L120.0 78.0 Z"></path>
<path fill="#333344" fill-opacity="1.0"  filling="0" d="M120.0 166.0 C119.0 166.0 119.0 165.0 118.0 165.0 L106.0 150.0 C105.0 150.0 104.0 149.0 104.0 148.0 L104.0 68.0 C104.0 67.0 105.0 66.0 105.0 65.0 C106.0 65.0 107.0 64.0 108.0 64.0 L121.0 75.0 C122.0 76.0 122.0 77.0 122.0 78.0 L122.0 163.0 C122.0 164.0 122.0 164.0 121.0 165.0 C121.0 165.0 120.0 166.0 120.0 166.0 L120.0 166.0 Z M109.0 146.0 L118.0 157.0 L118.0 79.0 L109.0 71.0 L109.0 146.0 L109.0 146.0 Z"></path>
<path fill="#99ccaa" fill-opacity="1.0"  filling="0" d="M120.0 78.0 L120.0 78.0 L120.0 78.0 L120.0 78.0 L120.0 78.0 Z"></path>
<path fill="#333344" fill-opacity="1.0"  filling="0" d="M120.0 81.0 C119.0 81.0 119.0 81.0 119.0 80.0 L119.0 80.0 L106.0 70.0 C105.0 70.0 105.0 69.0 105.0 68.0 C105.0 67.0 106.0 66.0 107.0 65.0 C108.0 64.0 108.0 64.0 109.0 64.0 L121.0 76.0 C122.0 76.0 122.0 77.0 122.0 78.0 L122.0 78.0 C122.0 79.0 122.0 80.0 121.0 80.0 C121.0 80.0 120.0 81.0 120.0 81.0 L120.0 81.0 Z"></path>
<path fill="#99ccaa" fill-opacity="1.0"  filling="0" d="M120.0 78.0 L120.0 78.0 L120.0 78.0 L120.0 78.0 L120.0 78.0 Z"></path>
<path fill="#333344" fill-opacity="1.0"  filling="0" d="M120.0 81.0 C119.0 81.0 119.0 80.0 118.0 80.0 C118.0 79.0 118.0 78.0 118.0 77.0 C118.0 77.0 118.0 76.0 118.0 75.0 L129.0 65.0 C130.0 64.0 132.0 64.0 132.0 65.0 C133.0 66.0 133.0 67.0 133.0 68.0 C133.0 69.0 133.0 70.0 132.0 70.0 L122.0 80.0 C121.0 80.0 121.0 81.0 120.0 81.0 L120.0 81.0 Z"></path>
<path fill="#ffddcc" fill-opacity="1.0"  filling="0" d="M40.0 125.0 L45.0 108.0 L55.0 114.0 L51.0 128.0 L40.0 125.0 L40.0 125.0 Z"></path>
<path fill="#333344" fill-opacity="1.0"  filling="0" d="M51.0 130.0 C50.0 130.0 50.0 130.0 50.0 130.0 L39.0 127.0 C38.0 127.0 37.0 126.0 38.0 124.0 L43.0 107.0 C44.0 107.0 44.0 106.0 44.0 106.0 C45.0 106.0 46.0 106.0 46.0 106.0 L56.0 111.0 C57.0 112.0 58.0 113.0 57.0 114.0 L53.0 128.0 C53.0 129.0 53.0 129.0 52.0 130.0 C52.0 130.0 51.0 130.0 51.0 130.0 L51.0 130.0 Z M42.0 123.0 L49.0 125.0 L52.0 114.0 L46.0 111.0 L42.0 123.0 L42.0 123.0 Z"></path>
<path fill="#777777" fill-opacity="1.0"  filling="0" d="M27.0 75.0 A38.0 38.0 0.0 1 0 104.0 75.0 A38.0 38.0 0.0 1 0 27.0 75.0 L27.0 75.0 Z"></path>
<path fill="#333344" fill-opacity="1.0"  filling="0" d="M66.0 116.0 C44.0 116.0 25.0 97.0 25.0 75.0 C25.0 53.0 44.0 34.0 66.0 34.0 C88.0 34.0 106.0 53.0 106.0 75.0 C106.0 97.0 88.0 116.0 66.0 116.0 L66.0 116.0 Z M66.0 38.0 C46.0 38.0 30.0 55.0 30.0 75.0 C30.0 95.0 46.0 112.0 66.0 112.0 C86.0 112.0 102.0 95.0 102.0 75.0 C102.0 55.0 86.0 38.0 66.0 38.0 L66.0 38.0 Z"></path>
<path fill="#ffeecc" fill-opacity="1.0"  filling="0" d="M37.0 75.0 A28.0 28.0 0.0 1 0 95.0 75.0 A28.0 28.0 0.0 1 0 37.0 75.0 L37.0 75.0 Z"></path>
<path fill="#333344" fill-opacity="1.0"  filling="0" d="M66.0 105.0 C50.0 105.0 35.0 92.0 35.0 75.0 C35.0 59.0 50.0 45.0 66.0 45.0 C82.0 45.0 97.0 59.0 97.0 75.0 C97.0 92.0 82.0 105.0 66.0 105.0 L66.0 105.0 Z M66.0 48.0 C51.0 48.0 39.0 61.0 39.0 75.0 C39.0 90.0 51.0 101.0 66.0 101.0 C80.0 101.0 92.0 90.0 92.0 75.0 C92.0 61.0 80.0 48.0 66.0 48.0 L66.0 48.0 Z"></path>
<path fill="#ffddcc" fill-opacity="1.0"  filling="0" d="M146.0 163.0 L178.0 148.0 L178.0 68.0 L146.0 78.0 L146.0 163.0 L146.0 163.0 Z"></path>
<path fill="#333344" fill-opacity="1.0"  filling="0" d="M146.0 166.0 C145.0 166.0 145.0 165.0 144.0 165.0 C144.0 164.0 143.0 164.0 143.0 163.0 L143.0 78.0 C143.0 77.0 144.0 76.0 145.0 75.0 L177.0 65.0 C178.0 64.0 179.0 64.0 180.0 65.0 C180.0 65.0 181.0 66.0 181.0 68.0 L181.0 148.0 C181.0 149.0 180.0 150.0 179.0 150.0 L147.0 165.0 C146.0 166.0 146.0 166.0 146.0 166.0 L146.0 166.0 Z M148.0 79.0 L148.0 161.0 L176.0 146.0 L176.0 70.0 L148.0 79.0 L148.0 79.0 Z"></path>
<path fill="#99ccaa" fill-opacity="1.0"  filling="0" d="M165.0 78.0 L178.0 68.0 L178.0 148.0 L165.0 163.0 L165.0 78.0 L165.0 78.0 Z"></path>
<path fill="#333344" fill-opacity="1.0"  filling="0" d="M165.0 166.0 C164.0 166.0 164.0 165.0 163.0 165.0 L163.0 150.0 C163.0 149.0 163.0 148.0 164.0 148.0 L177.0 76.0 C177.0 75.0 178.0 74.0 178.0 74.0 C179.0 73.0 180.0 73.0 180.0 73.0 C181.0 74.0 181.0 75.0 181.0 76.0 L180.0 149.0 C180.0 149.0 180.0 150.0 179.0 150.0 L166.0 165.0 C166.0 165.0 165.0 166.0 165.0 166.0 L165.0 166.0 Z M168.0 148.0 L168.0 157.0 L176.0 148.0 L176.0 84.0 L168.0 148.0 L168.0 148.0 Z"></path>
<path fill="#99ccaa" fill-opacity="1.0"  filling="0" d="M165.0 78.0 L165.0 78.0 L165.0 78.0 L165.0 78.0 L165.0 78.0 Z"></path>
<path fill="#333344" fill-opacity="1.0"  filling="0" d="M165.0 81.0 C164.0 81.0 164.0 80.0 163.0 80.0 C163.0 80.0 163.0 79.0 163.0 78.0 L163.0 78.0 C163.0 77.0 163.0 76.0 164.0 76.0 L177.0 65.0 C178.0 64.0 179.0 64.0 180.0 65.0 C180.0 65.0 181.0 66.0 181.0 68.0 L181.0 76.0 C181.0 77.0 180.0 77.0 179.0 78.0 L166.0 80.0 C166.0 81.0 165.0 81.0 165.0 81.0 L165.0 81.0 Z"></path>
<path fill="#99ccaa" fill-opacity="1.0"  filling="0" d="M165.0 78.0 L165.0 78.0 L165.0 78.0 L165.0 78.0 L165.0 78.0 Z"></path>
<path fill="#333344" fill-opacity="1.0"  filling="0" d="M165.0 81.0 C164.0 81.0 164.0 80.0 163.0 80.0 L155.0 76.0 C154.0 76.0 154.0 75.0 154.0 74.0 L154.0 68.0 C154.0 67.0 154.0 66.0 155.0 65.0 C156.0 64.0 157.0 64.0 158.0 64.0 C158.0 64.0 159.0 64.0 159.0 65.0 L166.0 76.0 C167.0 76.0 167.0 77.0 167.0 78.0 L167.0 78.0 C167.0 79.0 167.0 80.0 166.0 80.0 C166.0 80.0 165.0 81.0 165.0 81.0 L165.0 81.0 Z"></path>
<path fill="#ee6655" fill-opacity="1.0"  filling="0" d="M125.0 59.0 A21.0 21.0 0.0 1 0 166.0 59.0 A21.0 21.0 0.0 1 0 125.0 59.0 L125.0 59.0 Z"></path>
<path fill="#333344" fill-opacity="1.0"  filling="0" d="M145.0 84.0 C132.0 84.0 122.0 73.0 122.0 59.0 C122.0 47.0 132.0 37.0 145.0 37.0 C158.0 37.0 168.0 47.0 168.0 59.0 C168.0 73.0 158.0 84.0 145.0 84.0 L145.0 84.0 Z M145.0 41.0 C135.0 41.0 127.0 49.0 127.0 59.0 C127.0 70.0 135.0 79.0 145.0 79.0 C155.0 79.0 164.0 70.0 164.0 59.0 C164.0 49.0 155.0 41.0 145.0 41.0 L145.0 41.0 Z"></path>
<path fill="#ffeecc" fill-opacity="1.0"  filling="0" d="M137.0 59.0 A8.0 8.0 0.0 1 0 153.0 59.0 A8.0 8.0 0.0 1 0 137.0 59.0 L137.0 59.0 Z"></path>
<path fill="#333344" fill-opacity="1.0"  filling="0" d="M145.0 69.0 C140.0 69.0 136.0 65.0 136.0 59.0 C136.0 54.0 140.0 50.0 145.0 50.0 C151.0 50.0 155.0 54.0 155.0 59.0 C155.0 65.0 151.0 69.0 145.0 69.0 L145.0 69.0 Z M145.0 54.0 C142.0 54.0 140.0 56.0 140.0 59.0 C140.0 62.0 142.0 65.0 145.0 65.0 C149.0 65.0 151.0 62.0 151.0 59.0 C151.0 56.0 149.0 54.0 145.0 54.0 L145.0 54.0 Z"></path>
<path fill="#777777" fill-opacity="1.0"  filling="0" d="M30.0 162.0 C29.0 162.0 27.0 162.0 26.0 161.0 C22.0 159.0 20.0 154.0 22.0 149.0 L36.0 118.0 C36.0 117.0 37.0 117.0 38.0 117.0 L53.0 122.0 C54.0 123.0 54.0 124.0 54.0 125.0 L38.0 157.0 C37.0 160.0 34.0 162.0 30.0 162.0 L30.0 162.0 Z"></path>
<path fill="#333344" fill-opacity="1.0"  filling="0" d="M30.0 164.0 C27.0 164.0 25.0 164.0 24.0 162.0 C19.0 159.0 17.0 154.0 19.0 148.0 L34.0 117.0 C35.0 116.0 37.0 115.0 38.0 115.0 L53.0 120.0 C55.0 121.0 56.0 122.0 56.0 123.0 C56.0 124.0 56.0 126.0 55.0 127.0 L40.0 158.0 C38.0 162.0 34.0 164.0 30.0 164.0 L30.0 164.0 Z M38.0 119.0 C38.0 119.0 38.0 119.0 38.0 119.0 L23.0 150.0 C22.0 153.0 23.0 157.0 26.0 159.0 C29.0 161.0 34.0 160.0 36.0 156.0 L52.0 125.0 C52.0 125.0 52.0 125.0 52.0 125.0 C52.0 125.0 52.0 125.0 52.0 125.0 L38.0 119.0 C38.0 119.0 38.0 119.0 38.0 119.0 L38.0 119.0 Z"></path></svg>