<svg xmlns="http://www.w3.org/2000/svg" viewBox="0.0 0.0 200.0 200.0" height="200px" width="200px"><path fill="#99ccaa" fill-opacity="1.0"  filling="0" d="M141.0 135.0 L106.0 112.0 L106.0 67.0 L141.0 80.0 L141.0 135.0 L141.0 135.0 Z"></path>
<path fill="#553333" fill-opacity="1.0"  filling="0" d="M141.0 137.0 C141.0 137.0 140.0 137.0 140.0 137.0 L105.0 114.0 C104.0 114.0 104.0 113.0 104.0 112.0 L104.0 67.0 C104.0 66.0 104.0 65.0 105.0 65.0 C106.0 64.0 107.0 64.0 108.0 64.0 L142.0 78.0 C143.0 78.0 143.0 79.0 143.0 80.0 L143.0 135.0 C143.0 136.0 143.0 136.0 142.0 137.0 C142.0 137.0 141.0 137.0 141.0 137.0 L141.0 137.0 Z M108.0 111.0 L138.0 132.0 L138.0 81.0 L108.0 69.0 L108.0 111.0 L108.0 111.0 Z"></path>
<path fill="#eeddcc" fill-opacity="1.0"  filling="0" d="M141.0 135.0 L178.0 112.0 L178.0 67.0 L141.0 80.0 L141.0 135.0 L141.0 135.0 Z"></path>
<path fill="#553333" fill-opacity="1.0"  filling="0" d="M141.0 137.0 C141.0 137.0 140.0 137.0 140.0 137.0 C139.0 136.0 138.0 136.0 138.0 135.0 L138.0 80.0 C138.0 79.0 139.0 78.0 140.0 78.0 L177.0 64.0 C178.0 64.0 179.0 64.0 180.0 65.0 C180.0 65.0 181.0 66.0 181.0 67.0 L181.0 112.0 C181.0 113.0 180.0 114.0 179.0 114.0 L142.0 137.0 C142.0 137.0 141.0 137.0 141.0 137.0 L141.0 137.0 Z M143.0 81.0 L143.0 132.0 L176.0 111.0 L176.0 69.0 L143.0 81.0 L143.0 81.0 Z"></path>
<path fill="#ffeecc" fill-opacity="1.0"  filling="0" d="M59.0 80.0 L106.0 67.0 L106.0 112.0 L59.0 135.0 L59.0 80.0 L59.0 80.0 Z"></path>
<path fill="#553333" fill-opacity="1.0"  filling="0" d="M59.0 137.0 C59.0 137.0 58.0 137.0 58.0 137.0 C57.0 136.0 57.0 136.0 57.0 135.0 L57.0 80.0 C57.0 79.0 57.0 78.0 58.0 78.0 L105.0 64.0 C106.0 64.0 107.0 64.0 108.0 64.0 C108.0 65.0 108.0 66.0 108.0 67.0 L108.0 112.0 C108.0 113.0 108.0 114.0 107.0 114.0 L60.0 137.0 C60.0 137.0 59.0 137.0 59.0 137.0 L59.0 137.0 Z M62.0 81.0 L62.0 132.0 L104.0 111.0 L104.0 69.0 L62.0 81.0 L62.0 81.0 Z"></path>
<path fill="#eeeedd" fill-opacity="1.0"  filling="0" d="M59.0 135.0 L22.0 112.0 L22.0 67.0 L59.0 80.0 L59.0 135.0 L59.0 135.0 Z"></path>
<path fill="#553333" fill-opacity="1.0"  filling="0" d="M59.0 137.0 C59.0 137.0 58.0 137.0 58.0 137.0 L21.0 114.0 C20.0 114.0 19.0 113.0 19.0 112.0 L19.0 67.0 C19.0 66.0 20.0 65.0 20.0 65.0 C21.0 64.0 22.0 64.0 23.0 64.0 L60.0 78.0 C61.0 78.0 62.0 79.0 62.0 80.0 L62.0 135.0 C62.0 136.0 61.0 136.0 60.0 137.0 C60.0 137.0 59.0 137.0 59.0 137.0 L59.0 137.0 Z M24.0 111.0 L57.0 132.0 L57.0 81.0 L24.0 69.0 L24.0 111.0 L24.0 111.0 Z"></path>
<path fill="#887766" fill-opacity="1.0"  filling="0" d="M28.0 75.0 A38.0 38.0 0.0 1 0 104.0 75.0 A38.0 38.0 0.0 1 0 28.0 75.0 L28.0 75.0 Z"></path>
<path fill="#553333" fill-opacity="1.0"  filling="0" d="M66.0 116.0 C44.0 116.0 25.0 97.0 25.0 75.0 C25.0 53.0 44.0 34.0 66.0 34.0 C88.0 34.0 106.0 53.0 106.0 75.0 C106.0 97.0 88.0 116.0 66.0 116.0 L66.0 116.0 Z M66.0 38.0 C46.0 38.0 30.0 55.0 30.0 75.0 C30.0 95.0 46.0 112.0 66.0 112.0 C86.0 112.0 102.0 95.0 102.0 75.0 C102.0 55.0 86.0 38.0 66.0 38.0 L66.0 38.0 Z"></path>
<path fill="#eeddbb" fill-opacity="1.0"  filling="0" d="M37.0 75.0 A28.0 28.0 0.0 1 0 95.0 75.0 A28.0 28.0 0.0 1 0 37.0 75.0 L37.0 75.0 Z"></path>
<path fill="#553333" fill-opacity="1.0"  filling="0" d="M66.0 105.0 C50.0 105.0 35.0 92.0 35.0 75.0 C35.0 59.0 50.0 45.0 66.0 45.0 C82.0 45.0 97.0 59.0 97.0 75.0 C97.0 92.0 82.0 105.0 66.0 105.0 L66.0 105.0 Z M66.0 49.0 C52.0 49.0 39.0 61.0 39.0 75.0 C39.0 90.0 52.0 101.0 66.0 101.0 C80.0 101.0 92.0 90.0 92.0 75.0 C92.0 61.0 80.0 49.0 66.0 49.0 L66.0 49.0 Z"></path>
<path fill="#ee6655" fill-opacity="1.0"  filling="0" d="M124.0 60.0 A21.0 21.0 0.0 1 0 166.0 60.0 A21.0 21.0 0.0 1 0 124.0 60.0 L124.0 60.0 Z"></path>
<path fill="#553333" fill-opacity="1.0"  filling="0" d="M145.0 84.0 C132.0 84.0 122.0 73.0 122.0 60.0 C122.0 47.0 132.0 37.0 145.0 37.0 C158.0 37.0 168.0 47.0 168.0 60.0 C168.0 73.0 158.0 84.0 145.0 84.0 L145.0 84.0 Z M145.0 41.0 C135.0 41.0 127.0 49.0 127.0 60.0 C127.0 71.0 135.0 80.0 145.0 80.0 C156.0 80.0 164.0 71.0 164.0 60.0 C164.0 49.0 156.0 41.0 145.0 41.0 L145.0 41.0 Z"></path>
<path fill="#ffffff" fill-opacity="1.0"  filling="0" d="M138.0 60.0 A7.0 7.0 0.0 1 0 153.0 60.0 A7.0 7.0 0.0 1 0 138.0 60.0 L138.0 60.0 Z"></path>
<path fill="#553333" fill-opacity="1.0"  filling="0" d="M145.0 69.0 C140.0 69.0 136.0 65.0 136.0 60.0 C136.0 54.0 140.0 50.0 145.0 50.0 C151.0 50.0 155.0 54.0 155.0 60.0 C155.0 65.0 151.0 69.0 145.0 69.0 L145.0 69.0 Z M145.0 54.0 C142.0 54.0 140.0 57.0 140.0 60.0 C140.0 62.0 142.0 65.0 145.0 65.0 C148.0 65.0 151.0 62.0 151.0 60.0 C151.0 57.0 148.0 54.0 145.0 54.0 L145.0 54.0 Z"></path>
<path fill="#eeddbb" fill-opacity="1.0"  filling="0" d="M68.0 162.0 L107.0 149.0 L107.0 112.0 L68.0 114.0 L68.0 162.0 L68.0 162.0 Z"></path>
<path fill="#553333" fill-opacity="1.0"  filling="0" d="M68.0 165.0 C68.0 165.0 67.0 165.0 67.0 164.0 C66.0 164.0 65.0 163.0 65.0 162.0 L65.0 114.0 C65.0 113.0 66.0 113.0 67.0 112.0 C67.0 112.0 68.0 111.0 69.0 112.0 L108.0 110.0 C109.0 110.0 110.0 110.0 110.0 111.0 C111.0 111.0 111.0 112.0 111.0 112.0 L111.0 149.0 C111.0 150.0 110.0 151.0 109.0 151.0 L69.0 165.0 C69.0 165.0 68.0 165.0 68.0 165.0 L68.0 165.0 Z M70.0 116.0 L70.0 160.0 L106.0 147.0 L106.0 115.0 L70.0 116.0 L70.0 116.0 Z"></path>
<path fill="#eeddbb" fill-opacity="1.0"  filling="0" d="M145.0 162.0 L178.0 149.0 L178.0 112.0 L145.0 127.0 L145.0 162.0 L145.0 162.0 Z"></path>
<path fill="#553333" fill-opacity="1.0"  filling="0" d="M145.0 165.0 C145.0 165.0 144.0 165.0 144.0 164.0 C143.0 164.0 142.0 163.0 142.0 162.0 L142.0 127.0 C142.0 126.0 143.0 125.0 144.0 125.0 L177.0 110.0 C178.0 110.0 179.0 110.0 180.0 110.0 C180.0 110.0 181.0 111.0 181.0 112.0 L181.0 149.0 C181.0 150.0 180.0 151.0 179.0 151.0 L146.0 165.0 C146.0 165.0 145.0 165.0 145.0 165.0 L145.0 165.0 Z M148.0 129.0 L148.0 160.0 L176.0 148.0 L176.0 115.0 L148.0 129.0 L148.0 129.0 Z"></path>
<path fill="#eeddbb" fill-opacity="1.0"  filling="0" d="M68.0 112.0 L107.0 112.0 L107.0 149.0 L68.0 162.0 L68.0 112.0 L68.0 112.0 Z"></path>
<path fill="#553333" fill-opacity="1.0"  filling="0" d="M68.0 165.0 C68.0 165.0 67.0 165.0 67.0 164.0 C66.0 164.0 65.0 163.0 65.0 162.0 L65.0 112.0 C65.0 111.0 66.0 110.0 67.0 110.0 C67.0 110.0 68.0 109.0 69.0 110.0 L108.0 110.0 C109.0 110.0 110.0 110.0 110.0 111.0 C111.0 111.0 111.0 112.0 111.0 112.0 L111.0 149.0 C111.0 150.0 110.0 151.0 109.0 151.0 L69.0 165.0 C69.0 165.0 68.0 165.0 68.0 165.0 L68.0 165.0 Z M70.0 115.0 L70.0 160.0 L106.0 147.0 L106.0 115.0 L70.0 115.0 L70.0 115.0 Z"></path>
<path fill="#553333" fill-opacity="1.0"  filling="0" d="M145.0 165.0 C145.0 165.0 144.0 165.0 144.0 164.0 C143.0 164.0 142.0 163.0 142.0 162.0 L142.0 127.0 C142.0 126.0 143.0 125.0 144.0 125.0 L177.0 110.0 C178.0 110.0 179.0 110.0 180.0 110.0 C180.0 110.0 181.0 111.0 181.0 112.0 L181.0 149.0 C181.0 150.0 180.0 151.0 179.0 151.0 L146.0 165.0 C146.0 165.0 145.0 165.0 145.0 165.0 L145.0 165.0 Z M148.0 129.0 L148.0 160.0 L176.0 148.0 L176.0 115.0 L148.0 129.0 L148.0 129.0 Z"></path>
<path fill="#eeddbb" fill-opacity="1.0"  filling="0" d="M68.0 112.0 L107.0 112.0 L107.0 149.0 L68.0 162.0 L68.0 112.0 L68.0 112.0 Z"></path>
<path fill="#553333" fill-opacity="1.0"  filling="0" d="M68.0 165.0 C68.0 165.0 67.0 165.0 67.0 164.0 C66.0 164.0 65.0 163.0 65.0 162.0 L65.0 112.0 C65.0 111.0 66.0 110.0 67.0 110.0 C67.0 110.0 68.0 109.0 69.0 110.0 L108.0 110.0 C109.0 110.0 110.0 110.0 110.0 111.0 C111.0 111.0 111.0 112.0 111.0 112.0 L111.0 149.0 C111.0 150.0 110.0 151.0 109.0 151.0 L69.0 165.0 C69.0 165.0 68.0 165.0 68.0 165.0 L68.0 165.0 Z M70.0 115.0 L70.0 160.0 L106.0 147.0 L106.0 115.0 L70.0 115.0 L70.0 115.0 Z"></path>
<path fill="#553333" fill-opacity="1.0"  filling="0" d="M145.0 165.0 C145.0 165.0 144.0 165.0 144.0 164.0 C143.0 164.0 142.0 163.0 142.0 162.0 L142.0 127.0 C142.0 126.0 143.0 125.0 144.0 125.0 L177.0 110.0 C178.0 110.0 179.0 110.0 180.0 110.0 C180.0 110.0 181.0 111.0 181.0 112.0 L181.0 149.0 C181.0 150.0 180.0 151.0 179.0 151.0 L146.0 165.0 C146.0 165.0 145.0 165.0 145.0 165.0 L145.0 165.0 Z M148.0 129.0 L148.0 160.0 L176.0 148.0 L176.0 115.0 L148.0 129.0 L148.0 129.0 Z"></path>
<path fill="#887766" fill-opacity="1.0"  filling="0" d="M54.0 125.0 L38.0 157.0 C36.0 161.0 30.0 163.0 25.0 161.0 C21.0 159.0 19.0 153.0 21.0 148.0 L36.0 118.0 C37.0 116.0 39.0 115.0 41.0 116.0 L51.0 121.0 C53.0 122.0 54.0 124.0 54.0 125.0 L54.0 125.0 Z"></path>
<path fill="#553333" fill-opacity="1.0"  filling="0" d="M30.0 164.0 C28.0 164.0 26.0 164.0 24.0 163.0 C18.0 160.0 16.0 153.0 19.0 147.0 L34.0 117.0 C35.0 114.0 39.0 113.0 42.0 114.0 L52.0 119.0 C54.0 120.0 56.0 123.0 56.0 126.0 L40.0 158.0 C39.0 162.0 35.0 164.0 30.0 164.0 L30.0 164.0 Z M39.0 118.0 C38.0 118.0 38.0 118.0 37.0 119.0 L23.0 149.0 C21.0 153.0 23.0 158.0 26.0 159.0 C30.0 161.0 35.0 159.0 37.0 156.0 L52.0 125.0 C52.0 124.0 51.0 123.0 50.0 123.0 L40.0 118.0 C40.0 118.0 39.0 118.0 39.0 118.0 L39.0 118.0 Z"></path></svg>