<svg xmlns="http://www.w3.org/2000/svg" viewBox="0.0 0.0 200.0 200.0" height="200px" width="200px"><path fill="#ffddcc" fill-opacity="1.0"  filling="0" d="M67.0 167.0 L67.0 113.0 L107.0 87.0 L107.0 149.0 L67.0 167.0 L67.0 167.0 Z"></path>
<path fill="#333344" fill-opacity="1.0"  filling="0" d="M107.0 87.0 L107.0 149.0 L67.0 167.0 L67.0 113.0 L107.0 87.0 M108.0 83.0 C107.0 83.0 106.0 83.0 106.0 83.0 L66.0 111.0 A3.0 3.0 0.0 0 0 64.0 113.0 L64.0 167.0 C64.0 168.0 65.0 169.0 66.0 169.0 C66.0 170.0 67.0 170.0 67.0 170.0 C68.0 170.0 68.0 170.0 69.0 170.0 L108.0 151.0 C109.0 151.0 110.0 150.0 110.0 149.0 L110.0 87.0 C110.0 86.0 109.0 85.0 108.0 84.0 C108.0 83.0 108.0 83.0 108.0 83.0 L108.0 83.0 Z"></path>
<path fill="#ffeedd" fill-opacity="1.0"  filling="0" d="M67.0 161.0 L67.0 113.0 L107.0 87.0 L107.0 132.0 L67.0 161.0 L67.0 161.0 Z"></path>
<path fill="#333344" fill-opacity="1.0"  filling="0" d="M107.0 87.0 L107.0 132.0 L67.0 161.0 L67.0 113.0 L107.0 87.0 M108.0 84.0 L66.0 111.0 A3.0 3.0 0.0 0 0 64.0 113.0 L64.0 161.0 C64.0 162.0 65.0 163.0 66.0 163.0 C66.0 164.0 67.0 164.0 67.0 164.0 C68.0 164.0 68.0 164.0 69.0 163.0 L108.0 135.0 C109.0 134.0 110.0 133.0 110.0 132.0 L110.0 87.0 C110.0 86.0 109.0 85.0 108.0 84.0 C108.0 84.0 108.0 84.0 108.0 84.0 L108.0 84.0 Z"></path>
<path fill="#ffeecc" fill-opacity="1.0"  filling="0" d="M67.0 155.0 L67.0 113.0 L107.0 87.0 L107.0 120.0 L67.0 155.0 L67.0 155.0 Z"></path>
<path fill="#333344" fill-opacity="1.0"  filling="0" d="M107.0 87.0 L107.0 120.0 L67.0 155.0 L67.0 113.0 L107.0 87.0 M108.0 84.0 L66.0 111.0 A3.0 3.0 0.0 0 0 64.0 113.0 L64.0 155.0 C64.0 156.0 65.0 157.0 66.0 157.0 C66.0 158.0 67.0 158.0 67.0 158.0 C68.0 158.0 68.0 158.0 69.0 157.0 L108.0 123.0 C109.0 122.0 110.0 121.0 110.0 120.0 L110.0 87.0 C110.0 86.0 109.0 85.0 108.0 84.0 C108.0 84.0 108.0 84.0 108.0 84.0 L108.0 84.0 Z"></path>
<path fill="#ffddcc" fill-opacity="1.0"  filling="0" d="M67.0 162.0 L67.0 113.0 L107.0 87.0 L107.0 149.0 L67.0 162.0 L67.0 162.0 Z"></path>
<path fill="#333344" fill-opacity="1.0"  filling="0" d="M107.0 87.0 L107.0 149.0 L67.0 162.0 L67.0 113.0 L107.0 87.0 M108.0 84.0 L66.0 111.0 A3.0 3.0 0.0 0 0 64.0 113.0 L64.0 162.0 C64.0 163.0 65.0 164.0 66.0 164.0 C66.0 165.0 67.0 165.0 67.0 165.0 C68.0 165.0 68.0 165.0 69.0 164.0 L108.0 151.0 C109.0 151.0 110.0 150.0 110.0 149.0 L110.0 87.0 C110.0 86.0 109.0 85.0 108.0 84.0 C108.0 84.0 108.0 84.0 108.0 84.0 L108.0 84.0 Z"></path>
<path fill="#ffeedd" fill-opacity="1.0"  filling="0" d="M67.0 162.0 L67.0 113.0 L107.0 87.0 L107.0 132.0 L67.0 162.0 L67.0 162.0 Z"></path>
<path fill="#333344" fill-opacity="1.0"  filling="0" d="M107.0 87.0 L107.0 132.0 L67.0 162.0 L67.0 113.0 L107.0 87.0 M108.0 84.0 L66.0 111.0 A3.0 3.0 0.0 0 0 64.0 113.0 L64.0 162.0 C64.0 163.0 65.0 164.0 66.0 164.0 C66.0 165.0 67.0 165.0 67.0 165.0 C68.0 165.0 68.0 165.0 69.0 164.0 L108.0 135.0 C109.0 134.0 110.0 133.0 110.0 132.0 L110.0 87.0 C110.0 86.0 109.0 85.0 108.0 84.0 C108.0 84.0 108.0 84.0 108.0 84.0 L108.0 84.0 Z"></path>
<path fill="#ffddcc" fill-opacity="1.0"  filling="0" d="M67.0 162.0 L67.0 113.0 L107.0 87.0 L107.0 132.0 L67.0 162.0 L67.0 162.0 Z"></path>
<path fill="#333344" fill-opacity="1.0"  filling="0" d="M107.0 87.0 L107.0 132.0 L67.0 162.0 L67.0 113.0 L107.0 87.0 M108.0 84.0 L66.0 111.0 A3.0 3.0 0.0 0 0 64.0 113.0 L64.0 162.0 C64.0 163.0 65.0 164.0 66.0 164.0 C66.0 165.0 67.0 165.0 67.0 165.0 C68.0 165.0 68.0 165.0 69.0 164.0 L108.0 135.0 C109.0 134.0 110.0 133.0 110.0 132.0 L110.0 87.0 C110.0 86.0 109.0 85.0 108.0 84.0 C108.0 84.0 108.0 84.0 108.0 84.0 L108.0 84.0 Z"></path>
<path fill="#ffeedd" fill-opacity="1.0"  filling="0" d="M67.0 162.0 L67.0 113.0 L107.0 87.0 L107.0 132.0 L67.0 162.0 L67.0 162.0 Z"></path>
<path fill="#333344" fill-opacity="1.0"  filling="0" d="M107.0 87.0 L107.0 132.0 L67.0 162.0 L67.0 113.0 L107.0 87.0 M108.0 84.0 L66.0 111.0 A3.0 3.0 0.0 0 0 64.0 113.0 L64.0 162.0 C64.0 163.0 65.0 164.0 66.0 164.0 C66.0 165.0 67.0 165.0 67.0 165.0 C68.0 165.0 68.0 165.0 69.0 164.0 L108.0 135.0 C109.0 134.0 110.0 133.0 110.0 132.0 L110.0 87.0 C110.0 86.0 109.0 85.0 108.0 84.0 C108.0 84.0 108.0 84.0 108.0 84.0 L108.0 84.0 Z"></path>
<path fill="#ffeedd" fill-opacity="1.0"  filling="0" d="M67.0 162.0 L67.0 113.0 L107.0 87.0 L107.0 132.0 L67.0 162.0 L67.0 162.0 Z"></path>
<path fill="#333344" fill-opacity="1.0"  filling="0" d="M107.0 87.0 L107.0 132.0 L67.0 162.0 L67.0 113.0 L107.0 87.0 M108.0 84.0 L66.0 111.0 A3.0 3.0 0.0 0 0 64.0 113.0 L64.0 162.0 C64.0 163.0 65.0 164.0 66.0 164.0 C66.0 165.0 67.0 165.0 67.0 165.0 C68.0 165.0 68.0 165.0 69.0 164.0 L108.0 135.0 C109.0 134.0 110.0 133.0 110.0 132.0 L110.0 87.0 C110.0 86.0 109.0 85.0 108.0 84.0 C108.0 84.0 108.0 84.0 108.0 84.0 L108.0 84.0 Z"></path>
<path fill="#ffeedd" fill-opacity="1.0"  filling="0" d="M67.0 162.0 L67.0 113.0 L107.0 87.0 L107.0 132.0 L67.0 162.0 L67.0 162.0 Z"></path>
<path fill="#333344" fill-opacity="1.0"  filling="0" d="M107.0 87.0 L107.0 132.0 L67.0 162.0 L67.0 113.0 L107.0 87.0 M108.0 84.0 L66.0 111.0 A3.0 3.0 0.0 0 0 64.0 113.0 L64.0 162.0 C64.0 163.0 65.0 164.0 66.0 164.0 C66.0 165.0 67.0 165.0 67.0 165.0 C68.0 165.0 68.0 165.0 69.0 164.0 L108.0 135.0 C109.0 134.0 110.0 133.0 110.0 132.0 L110.0 87.0 C110.0 86.0 109.0 85.0 108.0 84.0 C108.0 84.0 108.0 84.0 108.0 84.0 L108.0 84.0 Z"></path>
<path fill="#ffeedd" fill-opacity="1.0"  filling="0" d="M67.0 162.0 L67.0 113.0 L107.0 87.0 L107.0 132.0 L67.0 162.0 L67.0 162.0 Z"></path>
<path fill="#333344" fill-opacity="1.0"  filling="0" d="M107.0 87.0 L107.0 132.0 L67.0 162.0 L67.0 113.0 L107.0 87.0 M108.0 84.0 L66.0 111.0 A3.0 3.0 0.0 0 0 64.0 113.0 L64.0 162.0 C64.0 163.0 65.0 164.0 66.0 164.0 C66.0 165.0 67.0 165.0 67.0 165.0 C68.0 165.0 68.0 165.0 69.0 164.0 L108.0 135.0 C109.0 134.0 110.0 133.0 110.0 132.0 L110.0 87.0 C110.0 86.0 109.0 85.0 108.0 84.0 C108.0 84.0 108.0 84.0 108.0 84.0 L108.0 84.0 Z"></path>
<path fill="#ffeedd" fill-opacity="1.0"  filling="0" d="M67.0 162.0 L67.0 113.0 L107.0 87.0 L107.0 132.0 L67.0 162.0 L67.0 162.0 Z"></path>
<path fill="#333344" fill-opacity="1.0"  filling="0" d="M107.0 87.0 L107.0 132.0 L67.0 162.0 L67.0 113.0 L107.0 87.0 M108.0 84.0 L66.0 111.0 A3.0 3.0 0.0 0 0 64.0 113.0 L64.0 162.0 C64.0 163.0 65.0 164.0 66.0 164.0 C66.0 165.0 67.0 165.0 67.0 165.0 C68.0 165.0 68.0 165.0 69.0 164.0 L108.0 135.0 C109.0 134.0 110.0 133.0 110.0 132.0 L110.0 87.0 C110.0 86.0 109.0 85.0 108.0 84.0 C108.0 84.0 108.0 84.0 108.0 84.0 L108.0 84.0 Z"></path>
<path fill="#ffeedd" fill-opacity="1.0"  filling="0" d="M67.0 162.0 L67.0 113.0 L107.0 87.0 L107.0 132.0 L67.0 162.0 L67.0 162.0 Z"></path>
<path fill="#333344" fill-opacity="1.0"  filling="0" d="M107.0 87.0 L107.0 132.0 L67.0 162.0 L67.0 113.0 L107.0 87.0 M108.0 84.0 L66.0 111.0 A3.0 3.0 0.0 0 0 64.0 113.0 L64.0 162.0 C64.0 163.0 65.0 164.0 66.0 164.0 C66.0 165.0 67.0 165.0 67.0 165.0 C68.0 165.0 68.0 165.0 69.0 164.0 L108.0 135.0 C109.0 134.0 110.0 133.0 110.0 132.0 L110.0 87.0 C110.0 86.0 109.0 85.0 108.0 84.0 C108.0 84.0 108.0 84.0 108.0 84.0 L108.0 84.0 Z"></path>
<path fill="#ffeedd" fill-opacity="1.0"  filling="0" d="M67.0 162.0 L67.0 113.0 L107.0 87.0 L107.0 132.0 L67.0 162.0 L67.0 162.0 Z"></path>
<path fill="#333344" fill-opacity="1.0"  filling="0" d="M107.0 87.0 L107.0 132.0 L67.0 162.0 L67.0 113.0 L107.0 87.0 M108.0 84.0 L66.0 111.0 A3.0 3.0 0.0 0 0 64.0 113.0 L64.0 162.0 C64.0 163.0 65.0 164.0 66.0 164.0 C66.0 165.0 67.0 165.0 67.0 165.0 C68.0 165.0 68.0 165.0 69.0 164.0 L108.0 135.0 C109.0 134.0 110.0 133.0 110.0 132.0 L110.0 87.0 C110.0 86.0 109.0 85.0 108.0 84.0 C108.0 84.0 108.0 84.0 108.0 84.0 L108.0 84.0 Z"></path>
<path fill="#ffeedd" fill-opacity="1.0"  filling="0" d="M67.0 162.0 L67.0 113.0 L107.0 87.0 L107.0 132.0 L67.0 162.0 L67.0 162.0 Z"></path>
<path fill="#333344" fill-opacity="1.0"  filling="0" d="M107.0 87.0 L107.0 132.0 L67.0 162.0 L67.0 113.0 L107.0 87.0 M108.0 84.0 L66.0 111.0 A3.0 3.0 0.0 0 0 64.0 113.0 L64.0 162.0 C64.0 163.0 65.0 164.0 66.0 164.0 C66.0 165.0 67.0 165.0 67.0 165.0 C68.0 165.0 68.0 165.0 69.0 164.0 L108.0 135.0 C109.0 134.0 110.0 133.0 110.0 132.0 L110.0 87.0 C110.0 86.0 109.0 85.0 108.0 84.0 C108.0 84.0 108.0 84.0 108.0 84.0 L108.0 84.0 Z"></path>
<path fill="#ffeedd" fill-opacity="1.0"  filling="0" d="M67.0 162.0 L67.0 113.0 L107.0 87.0 L107.0 132.0 L67.0 162.0 L67.0 162.0 Z"></path>
<path fill="#333344" fill-opacity="1.0"  filling="0" d="M107.0 87.0 L107.0 132.0 L67.0 162.0 L67.0 113.0 L107.0 87.0 M108.0 84.0 L66.0 111.0 A3.0 3.0 0.0 0 0 64.0 113.0 L64.0 162.0 C64.0 163.0 65.0 164.0 66.0 164.0 C66.0 165.0 67.0 165.0 67.0 165.0 C68.0 165.0 68.0 165.0 69.0 164.0 L108.0 135.0 C109.0 134.0 110.0 133.0 110.0 132.0 L110.0 87.0 C110.0 86.0 109.0 85.0 108.0 84.0 C108.0 84.0 108.0 84.0 108.0 84.0 L108.0 84.0 Z"></path>
<path fill="#ffeedd" fill-opacity="1.0"  filling="0" d="M67.0 162.0 L67.0 113.0 L107.0 87.0 L107.0 132.0 L67.0 162.0 L67.0 162.0 Z"></path>
<path fill="#333344" fill-opacity="1.0"  filling="0" d="M107.0 87.0 L107.0 132.0 L67.0 162.0 L67.0 113.0 L107.0 87.0 M108.0 84.0 L66.0 111.0 A3.0 3.0 0.0 0 0 64.0 113.0 L64.0 162.0 C64.0 163.0 65.0 164.0 66.0 164.0 C66.0 165.0 67.0 165.0 67.0 165.0 C68.0 165.0 68.0 165.0 69.0 164.0 L108.0 135.0 C109.0 134.0 110.0 133.0 110.0 132.0 L110.0 87.0 C110.0 86.0 109.0 85.0 108.0 84.0 C108.0 84.0 108.0 84.0 108.0 84.0 L108.0 84.0 Z"></path>
<path fill="#ffeedd" fill-opacity="1.0"  filling="0" d="M67.0 162.0 L67.0 113.0 L107.0 87.0 L107.0 132.0 L67.0 162.0 L67.0 162.0 Z"></path>
<path fill="#333344" fill-opacity="1.0"  filling="0" d="M107.0 87.0 L107.0 132.0 L67.0 162.0 L67.0 113.0 L107.0 87.0 M108.0 84.0 L66.0 111.0 A3.0 3.0 0.0 0 0 64.0 113.0 L64.0 162.0 C64.0 163.0 65.0 164.0 66.0 164.0 C66.0 165.0 67.0 165.0 67.0 165.0 C68.0 165.0 68.0 165.0 69.0 164.0 L108.0 135.0 C109.0 134.0 110.0 133.0 110.0 132.0 L110.0 87.0 C110.0 86.0 109.0 85.0 108.0 84.0 C108.0 84.0 108.0 84.0 108.0 84.0 L108.0 84.0 Z"></path>
<path fill="#ffeedd" fill-opacity="1.0"  filling="0" d="M67.0 162.0 L67.0 113.0 L107.0 87.0 L107.0 132.0 L67.0 162.0 L67.0 162.0 Z"></path>
<path fill="#000000" fill-opacity="1.0"  filling="0" d="M107.0 87.0 L107.0 132.0 L67.0 162.0 L67.0 113.0 L107.0 87.0 M108.0 84.0 L66.0 111.0 A3.0 3.0 0.0 0 0 64.0 113.0 L64.0 162.0 C64.0 163.0 65.0 164.0 66.0 164.0 C66.0 165.0 67.0 165.0 67.0 165.0 C68.0 165.0 68.0 165.0 69.0 164.0 L108.0 135.0 C109.0 134.0 110.0 133.0 110.0 132.0"></path></svg>