<svg xmlns="http://www.w3.org/2000/svg" viewBox="0.0 0.0 200.0 200.0" height="200px" width="200px"><path fill="#eeaa66" fill-opacity="1.0"  filling="0" d="M40.0 61.0 L160.0 61.0 L160.0 179.0 L40.0 179.0 L40.0 61.0 L40.0 61.0 Z"></path>
<path fill="#dd9966" fill-opacity="1.0"  filling="0" d="M40.0 61.0 L160.0 61.0 L160.0 79.0 L40.0 79.0 L40.0 61.0 L40.0 61.0 Z"></path>
<path fill="#dd9966" fill-opacity="1.0"  filling="0" d="M160.0 79.0 L160.0 179.0 L149.0 179.0 L149.0 79.0 L160.0 79.0 L160.0 79.0 Z"></path>
<path fill="#cc8855" fill-opacity="1.0"  filling="0" d="M-3.0 -3.0 L151.0 49.0 C151.0 49.0 151.0 49.0 151.0 49.0 L151.0 61.0 C151.0 61.0 151.0 61.0 151.0 61.0 L49.0 61.0 C49.0 61.0 49.0 61.0 49.0 61.0 L49.0 49.0 L49.0 49.0 Z"></path>
<path fill="#bb7755" fill-opacity="1.0"  filling="0" d="M151.0 49.0 L151.0 49.0 L151.0 61.0 L151.0 61.0 L143.0 61.0 L143.0 49.0 L151.0 49.0 L151.0 49.0 Z"></path>
<path fill="#eeaa66" fill-opacity="1.0"  filling="0" d="M35.0 34.0 L164.0 34.0 L164.0 49.0 L35.0 49.0 L35.0 34.0 L35.0 34.0 Z"></path>
<path fill="#dd9966" fill-opacity="1.0"  filling="0" d="M151.0 34.0 L164.0 34.0 L164.0 49.0 L151.0 49.0 L151.0 34.0 L151.0 34.0 Z"></path>
<path fill="#ffeedd" fill-opacity="1.0"  filling="0" d="M52.0 72.0 L78.0 72.0 L78.0 99.0 L52.0 99.0 L52.0 72.0 L52.0 72.0 Z"></path>
<path fill="#eeaa66" fill-opacity="1.0"  filling="0" d="M87.0 72.0 L113.0 72.0 L113.0 99.0 L87.0 99.0 L87.0 72.0 L87.0 72.0 Z"></path>
<path fill="#cc7744" fill-opacity="1.0"  filling="0" d="M122.0 72.0 L148.0 72.0 L148.0 99.0 L122.0 99.0 L122.0 72.0 L122.0 72.0 Z"></path>
<path fill="#dd8844" fill-opacity="1.0"  filling="0" d="M52.0 107.0 L78.0 107.0 L78.0 133.0 L52.0 133.0 L52.0 107.0 L52.0 107.0 Z"></path>
<path fill="#ee9933" fill-opacity="1.0"  filling="0" d="M87.0 107.0 L113.0 107.0 L113.0 133.0 L87.0 133.0 L87.0 107.0 L87.0 107.0 Z"></path>
<path fill="#cc6633" fill-opacity="1.0"  filling="0" d="M122.0 107.0 L148.0 107.0 L148.0 133.0 L122.0 133.0 L122.0 107.0 L122.0 107.0 Z"></path>
<path fill="#dd7733" fill-opacity="1.0"  filling="0" d="M52.0 142.0 L78.0 142.0 L78.0 169.0 L52.0 169.0 L52.0 142.0 L52.0 142.0 Z"></path>
<path fill="#bb6633" fill-opacity="1.0"  filling="0" d="M87.0 142.0 L113.0 142.0 L113.0 169.0 L87.0 169.0 L87.0 142.0 L87.0 142.0 Z"></path>
<path fill="#885533" fill-opacity="1.0"  filling="0" d="M122.0 142.0 L148.0 142.0 L148.0 169.0 L122.0 169.0 L122.0 142.0 L122.0 142.0 Z"></path>
<path fill="#ffeecc" fill-opacity="1.0"  filling="0" d="M77.0 72.0 L77.0 99.0 L69.0 99.0 L69.0 72.0 L77.0 72.0 L77.0 72.0 Z"></path>
<path fill="#bb7755" fill-opacity="1.0"  filling="0" d="M111.0 72.0 L111.0 99.0 L102.0 99.0 L102.0 72.0 L111.0 72.0 L111.0 72.0 Z"></path>
<path fill="#bb6633" fill-opacity="1.0"  filling="0" d="M146.0 72.0 L146.0 99.0 L137.0 99.0 L137.0 72.0 L146.0 72.0 L146.0 72.0 Z"></path>
<path fill="#cc7744" fill-opacity="1.0"  filling="0" d="M77.0 107.0 L77.0 133.0 L69.0 133.0 L69.0 107.0 L77.0 107.0 L77.0 107.0 Z"></path>
<path fill="#dd8833" fill-opacity="1.0"  filling="0" d="M111.0 107.0 L111.0 133.0 L102.0 133.0 L102.0 107.0 L111.0 107.0 L111.0 107.0 Z"></path>
<path fill="#aa5522" fill-opacity="1.0"  filling="0" d="M146.0 107.0 L146.0 133.0 L137.0 133.0 L137.0 107.0 L146.0 107.0 L146.0 107.0 Z"></path>
<path fill="#dd7733" fill-opacity="1.0"  filling="0" d="M77.0 142.0 L77.0 169.0 L69.0 169.0 L69.0 142.0 L77.0 142.0 L77.0 142.0 Z"></path>
<path fill="#995533" fill-opacity="1.0"  filling="0" d="M111.0 142.0 L111.0 169.0 L102.0 169.0 L102.0 142.0 L111.0 142.0 L111.0 142.0 Z"></path>
<path fill="#774422" fill-opacity="1.0"  filling="0" d="M146.0 142.0 L146.0 169.0 L137.0 169.0 L137.0 142.0 L146.0 142.0 L146.0 142.0 Z"></path>
<path fill="#332222" fill-opacity="1.0"  filling="0" d="M164.0 52.0 L36.0 52.0 C34.0 52.0 33.0 51.0 33.0 49.0 L33.0 34.0 C33.0 32.0 34.0 31.0 36.0 31.0 L164.0 31.0 C166.0 31.0 167.0 32.0 167.0 34.0 L167.0 49.0 C167.0 51.0 166.0 52.0 164.0 52.0 L164.0 52.0 Z M37.0 47.0 L162.0 47.0 L162.0 35.0 L37.0 35.0 L37.0 47.0 L37.0 47.0 Z"></path>
<path fill="#332222" fill-opacity="1.0"  filling="0" d="M160.0 63.0 L40.0 63.0 C38.0 63.0 37.0 62.0 37.0 61.0 L37.0 49.0 C37.0 48.0 38.0 47.0 40.0 47.0 L160.0 47.0 C162.0 47.0 163.0 48.0 163.0 49.0 L163.0 61.0 C163.0 62.0 162.0 63.0 160.0 63.0 L160.0 63.0 Z M42.0 58.0 L158.0 58.0 L158.0 52.0 L42.0 52.0 L42.0 58.0 L42.0 58.0 Z"></path>
<path fill="#332222" fill-opacity="1.0"  filling="0" d="M159.0 182.0 L40.0 182.0 C38.0 182.0 37.0 181.0 37.0 179.0 L37.0 61.0 C37.0 59.0 38.0 58.0 40.0 58.0 L160.0 58.0 C161.0 58.0 163.0 59.0 163.0 61.0 L163.0 179.0 C163.0 181.0 161.0 182.0 159.0 182.0 L159.0 182.0 Z M42.0 177.0 L158.0 177.0 L158.0 63.0 L42.0 63.0 L42.0 177.0 L42.0 177.0 Z"></path>
<path fill="#332222" fill-opacity="1.0"  filling="0" d="M78.0 101.0 L52.0 101.0 C51.0 101.0 49.0 100.0 49.0 99.0 L49.0 72.0 C49.0 70.0 51.0 69.0 52.0 69.0 L78.0 69.0 C80.0 69.0 81.0 70.0 81.0 72.0 L81.0 99.0 C81.0 100.0 80.0 101.0 78.0 101.0 L78.0 101.0 Z M53.0 97.0 L76.0 97.0 L76.0 74.0 L53.0 74.0 L53.0 97.0 L53.0 97.0 Z"></path>
<path fill="#332222" fill-opacity="1.0"  filling="0" d="M113.0 101.0 L87.0 101.0 C86.0 101.0 84.0 100.0 84.0 99.0 L84.0 72.0 C84.0 70.0 86.0 69.0 87.0 69.0 L113.0 69.0 C114.0 69.0 115.0 70.0 115.0 72.0 L115.0 99.0 C115.0 100.0 114.0 101.0 113.0 101.0 L113.0 101.0 Z M89.0 97.0 L111.0 97.0 L111.0 74.0 L89.0 74.0 L89.0 97.0 L89.0 97.0 Z"></path>
<path fill="#332222" fill-opacity="1.0"  filling="0" d="M148.0 101.0 L122.0 101.0 C121.0 101.0 120.0 100.0 120.0 99.0 L120.0 72.0 C120.0 70.0 121.0 69.0 122.0 69.0 L148.0 69.0 C149.0 69.0 150.0 70.0 150.0 72.0 L150.0 99.0 C150.0 100.0 149.0 101.0 148.0 101.0 L148.0 101.0 Z M124.0 97.0 L146.0 97.0 L146.0 74.0 L124.0 74.0 L124.0 97.0 L124.0 97.0 Z"></path>
<path fill="#332222" fill-opacity="1.0"  filling="0" d="M78.0 136.0 L52.0 136.0 C51.0 136.0 49.0 135.0 49.0 133.0 L49.0 107.0 C49.0 106.0 51.0 105.0 52.0 105.0 L78.0 105.0 C80.0 105.0 81.0 106.0 81.0 107.0 L81.0 133.0 C81.0 135.0 80.0 136.0 78.0 136.0 L78.0 136.0 Z M53.0 131.0 L76.0 131.0 L76.0 109.0 L53.0 109.0 L53.0 131.0 L53.0 131.0 Z"></path>
<path fill="#332222" fill-opacity="1.0"  filling="0" d="M113.0 136.0 L87.0 136.0 C86.0 136.0 84.0 135.0 84.0 133.0 L84.0 107.0 C84.0 106.0 86.0 105.0 87.0 105.0 L113.0 105.0 C114.0 105.0 115.0 106.0 115.0 107.0 L115.0 133.0 C115.0 135.0 114.0 136.0 113.0 136.0 L113.0 136.0 Z M89.0 131.0 L111.0 131.0 L111.0 109.0 L89.0 109.0 L89.0 131.0 L89.0 131.0 Z"></path>
<path fill="#332222" fill-opacity="1.0"  filling="0" d="M148.0 136.0 L122.0 136.0 C121.0 136.0 120.0 135.0 120.0 133.0 L120.0 107.0 C120.0 106.0 121.0 105.0 122.0 105.0 L148.0 105.0 C149.0 105.0 150.0 106.0 150.0 107.0 L150.0 133.0 C150.0 135.0 149.0 136.0 148.0 136.0 L148.0 136.0 Z M124.0 131.0 L146.0 131.0 L146.0 109.0 L124.0 109.0 L124.0 131.0 L124.0 131.0 Z"></path>
<path fill="#332222" fill-opacity="1.0"  filling="0" d="M78.0 171.0 L52.0 171.0 C51.0 171.0 49.0 170.0 49.0 169.0 L49.0 142.0 C49.0 141.0 51.0 140.0 52.0 140.0 L78.0 140.0 C80.0 140.0 81.0 141.0 81.0 142.0 L81.0 169.0 C81.0 170.0 80.0 171.0 78.0 171.0 L78.0 171.0 Z M53.0 167.0 L76.0 167.0 L76.0 144.0 L53.0 144.0 L53.0 167.0 L53.0 167.0 Z"></path>
<path fill="#332222" fill-opacity="1.0"  filling="0" d="M113.0 171.0 L87.0 171.0 C86.0 171.0 84.0 170.0 84.0 169.0 L84.0 142.0 C84.0 141.0 86.0 140.0 87.0 140.0 L113.0 140.0 C114.0 140.0 115.0 141.0 115.0 142.0 L115.0 169.0 C115.0 170.0 114.0 171.0 113.0 171.0 L113.0 171.0 Z M89.0 167.0 L111.0 167.0 L111.0 144.0 L89.0 144.0 L89.0 167.0 L89.0 167.0 Z"></path>
<path fill="#332222" fill-opacity="1.0"  filling="0" d="M148.0 171.0 L122.0 171.0 C121.0 171.0 120.0 170.0 120.0 169.0 L120.0 142.0 C120.0 141.0 121.0 140.0 122.0 140.0 L148.0 140.0 C149.0 140.0 150.0 141.0 150.0 142.0 L150.0 169.0 C150.0 170.0 149.0 171.0 148.0 171.0 L148.0 171.0 Z M124.0 167.0 L146.0 167.0 L146.0 144.0 L124.0 144.0 L124.0 167.0 L124.0 167.0 Z"></path></svg>