<svg xmlns="http://www.w3.org/2000/svg" viewBox="0.0 0.0 200.0 200.0" height="200px" width="200px"><path fill="#eeaa66" fill-opacity="1.0"  filling="0" d="M40.0 61.0 L160.0 61.0 L160.0 179.0 L40.0 179.0 L40.0 61.0 L40.0 61.0 Z"></path>
<path fill="#dd9966" fill-opacity="1.0"  filling="0" d="M40.0 61.0 L160.0 61.0 L160.0 79.0 L40.0 79.0 L40.0 61.0 L40.0 61.0 Z"></path>
<path fill="#dd9966" fill-opacity="1.0"  filling="0" d="M160.0 79.0 L160.0 179.0 L149.0 179.0 L149.0 79.0 L160.0 79.0 L160.0 79.0 Z"></path>
<path fill="#ffeedd" fill-opacity="1.0"  filling="0" d="M59.0 96.0 L59.0 96.0 C55.0 96.0 52.0 93.0 52.0 89.0 L52.0 72.0 L78.0 72.0 L78.0 89.0 C78.0 93.0 75.0 96.0 72.0 96.0 L72.0 96.0 L59.0 96.0 L59.0 96.0 Z"></path>
<path fill="#ffeecc" fill-opacity="1.0"  filling="0" d="M78.0 72.0 L78.0 89.0 C78.0 93.0 75.0 96.0 72.0 96.0 L72.0 96.0 L59.0 96.0 C59.0 96.0 59.0 96.0 59.0 96.0 C62.0 96.0 65.0 93.0 65.0 89.0 L65.0 72.0 L78.0 72.0 L78.0 72.0 Z"></path>
<path fill="#eeaa77" fill-opacity="1.0"  filling="0" d="M87.0 96.0 L87.0 96.0 C84.0 96.0 81.0 93.0 81.0 89.0 L81.0 72.0 L113.0 72.0 L113.0 89.0 C113.0 93.0 110.0 96.0 107.0 96.0 L107.0 96.0 L87.0 96.0 L87.0 96.0 Z"></path>
<path fill="#dd9966" fill-opacity="1.0"  filling="0" d="M113.0 72.0 L113.0 89.0 C113.0 93.0 110.0 96.0 107.0 96.0 L107.0 96.0 L87.0 96.0 C87.0 96.0 87.0 96.0 87.0 96.0 C91.0 96.0 94.0 93.0 94.0 89.0 L94.0 72.0 L113.0 72.0 L113.0 72.0 Z"></path>
<path fill="#cc7744" fill-opacity="1.0"  filling="0" d="M122.0 96.0 L122.0 96.0 C119.0 96.0 116.0 93.0 116.0 89.0 L116.0 72.0 L148.0 72.0 L148.0 89.0 C148.0 93.0 146.0 96.0 143.0 96.0 L143.0 96.0 L122.0 96.0 L122.0 96.0 Z"></path>
<path fill="#bb6633" fill-opacity="1.0"  filling="0" d="M148.0 72.0 L148.0 89.0 C148.0 93.0 146.0 96.0 143.0 96.0 L143.0 96.0 L122.0 96.0 C122.0 96.0 122.0 96.0 122.0 96.0 C126.0 96.0 129.0 93.0 129.0 89.0 L129.0 72.0 L148.0 72.0 L148.0 72.0 Z"></path>
<path fill="#dd8844" fill-opacity="1.0"  filling="0" d="M59.0 133.0 L59.0 133.0 C55.0 133.0 52.0 130.0 52.0 126.0 L52.0 107.0 L78.0 107.0 L78.0 126.0 C78.0 130.0 75.0 133.0 72.0 133.0 L72.0 133.0 L59.0 133.0 L59.0 133.0 Z"></path>
<path fill="#cc7744" fill-opacity="1.0"  filling="0" d="M78.0 107.0 L78.0 126.0 C78.0 130.0 75.0 133.0 72.0 133.0 L72.0 133.0 L59.0 133.0 C59.0 133.0 59.0 133.0 59.0 133.0 C62.0 133.0 65.0 130.0 65.0 126.0 L65.0 107.0 L78.0 107.0 L78.0 107.0 Z"></path>
<path fill="#ee9933" fill-opacity="1.0"  filling="0" d="M87.0 133.0 L87.0 133.0 C84.0 133.0 81.0 130.0 81.0 126.0 L81.0 107.0 L113.0 107.0 L113.0 126.0 C113.0 130.0 110.0 133.0 107.0 133.0 L107.0 133.0 L87.0 133.0 L87.0 133.0 Z"></path>
<path fill="#dd8833" fill-opacity="1.0"  filling="0" d="M113.0 107.0 L113.0 126.0 C113.0 130.0 110.0 133.0 107.0 133.0 L107.0 133.0 L87.0 133.0 C87.0 133.0 87.0 133.0 87.0 133.0 C91.0 133.0 94.0 130.0 94.0 126.0 L94.0 107.0 L113.0 107.0 L113.0 107.0 Z"></path>
<path fill="#cc6633" fill-opacity="1.0"  filling="0" d="M122.0 133.0 L122.0 133.0 C119.0 133.0 116.0 130.0 116.0 126.0 L116.0 107.0 L148.0 107.0 L148.0 126.0 C148.0 130.0 146.0 133.0 143.0 133.0 L143.0 133.0 L122.0 133.0 L122.0 133.0 Z"></path>
<path fill="#aa5522" fill-opacity="1.0"  filling="0" d="M148.0 107.0 L148.0 126.0 C148.0 130.0 146.0 133.0 143.0 133.0 L143.0 133.0 L122.0 133.0 C122.0 133.0 122.0 133.0 122.0 133.0 C126.0 133.0 129.0 130.0 129.0 126.0 L129.0 107.0 L148.0 107.0 L148.0 107.0 Z"></path>
<path fill="#dd7733" fill-opacity="1.0"  filling="0" d="M59.0 169.0 L59.0 169.0 C55.0 169.0 52.0 165.0 52.0 161.0 L52.0 142.0 L78.0 142.0 L78.0 161.0 C78.0 165.0 75.0 169.0 72.0 169.0 L72.0 169.0 L59.0 169.0 L59.0 169.0 Z"></path>
<path fill="#bb5522" fill-opacity="1.0"  filling="0" d="M78.0 142.0 L78.0 161.0 C78.0 165.0 75.0 169.0 72.0 169.0 L72.0 169.0 L59.0 169.0 C59.0 169.0 59.0 169.0 59.0 169.0 C62.0 169.0 65.0 165.0 65.0 161.0 L65.0 142.0 L78.0 142.0 L78.0 142.0 Z"></path>
<path fill="#cc6633" fill-opacity="1.0"  filling="0" d="M87.0 169.0 L87.0 169.0 C84.0 169.0 81.0 165.0 81.0 161.0 L81.0 142.0 L113.0 142.0 L113.0 161.0 C113.0 165.0 110.0 169.0 107.0 169.0 L107.0 169.0 L87.0 169.0 L87.0 169.0 Z"></path>
<path fill="#aa5522" fill-opacity="1.0"  filling="0" d="M113.0 142.0 L113.0 161.0 C113.0 165.0 110.0 169.0 107.0 169.0 L107.0 169.0 L87.0 169.0 C87.0 169.0 87.0 169.0 87.0 169.0 C91.0 169.0 94.0 165.0 94.0 161.0 L94.0 142.0 L113.0 142.0 L113.0 142.0 Z"></path>
<path fill="#774433" fill-opacity="1.0"  filling="0" d="M122.0 169.0 L122.0 169.0 C119.0 169.0 116.0 165.0 116.0 161.0 L116.0 142.0 L148.0 142.0 L148.0 161.0 C148.0 165.0 146.0 169.0 143.0 169.0 L143.0 169.0 L122.0 169.0 L122.0 169.0 Z"></path>
<path fill="#553322" fill-opacity="1.0"  filling="0" d="M148.0 142.0 L148.0 161.0 C148.0 165.0 146.0 169.0 143.0 169.0 L143.0 169.0 L122.0 169.0 C122.0 169.0 122.0 169.0 122.0 169.0 C126.0 169.0 129.0 165.0 129.0 161.0 L129.0 142.0 L148.0 142.0 L148.0 142.0 Z"></path>
<path fill="#cc7744" fill-opacity="1.0"  filling="0" d="M49.0 49.0 L151.0 49.0 L151.0 61.0 L49.0 61.0 L49.0 49.0 L49.0 49.0 Z"></path>
<path fill="#bb6633" fill-opacity="1.0"  filling="0" d="M151.0 49.0 L151.0 61.0 L151.0 61.0 L51.0 61.0 L51.0 61.0 L51.0 49.0 L51.0 49.0 L151.0 49.0 L151.0 49.0 Z"></path>
<path fill="#eeaa66" fill-opacity="1.0"  filling="0" d="M164.0 33.0 L164.0 49.0 L36.0 49.0 L36.0 33.0 L164.0 33.0 L164.0 33.0 Z"></path>
<path fill="#dd9966" fill-opacity="1.0"  filling="0" d="M164.0 33.0 L164.0 49.0 L150.0 49.0 L150.0 33.0 L164.0 33.0 L164.0 33.0 Z"></path>
<path fill="#eeaa66" fill-opacity="1.0"  filling="0" d="M164.0 33.0 L36.0 33.0 L36.0 33.0 L36.0 33.0 C32.0 33.0 30.0 36.0 30.0 39.0 L30.0 43.0 C30.0 47.0 32.0 49.0 36.0 49.0 L164.0 49.0 C168.0 49.0 170.0 47.0 170.0 43.0 L170.0 39.0 C170.0 36.0 168.0 33.0 164.0 33.0 L164.0 33.0 Z"></path>
<path fill="#dd9966" fill-opacity="1.0"  filling="0" d="M170.0 39.0 L170.0 43.0 C170.0 47.0 168.0 49.0 164.0 49.0 L150.0 49.0 C153.0 49.0 156.0 47.0 156.0 43.0 L156.0 39.0 C156.0 36.0 153.0 33.0 150.0 33.0 L164.0 33.0 C168.0 33.0 170.0 36.0 170.0 39.0 L170.0 39.0 Z"></path>
<path fill="#332222" fill-opacity="1.0"  filling="0" d="M52.0 101.0 L52.0 101.0 C51.0 101.0 49.0 100.0 49.0 98.0 L49.0 72.0 C49.0 70.0 51.0 69.0 52.0 69.0 L53.0 69.0 L78.0 69.0 C79.0 69.0 80.0 70.0 80.0 72.0 L80.0 74.0 L80.0 89.0 C80.0 92.0 78.0 95.0 75.0 95.0 L75.0 95.0 L53.0 95.0 C53.0 95.0 52.0 95.0 52.0 95.0 C51.0 95.0 49.0 93.0 49.0 91.0 C49.0 90.0 51.0 89.0 52.0 89.0 L52.0 89.0 L72.0 89.0 C73.0 89.0 74.0 88.0 74.0 87.0 L74.0 74.0 L53.0 74.0 L53.0 98.0 C53.0 100.0 53.0 101.0 52.0 101.0 L52.0 101.0 Z M87.0 101.0 L87.0 101.0 C85.0 101.0 84.0 100.0 84.0 98.0 L84.0 72.0 C84.0 70.0 85.0 69.0 87.0 69.0 L87.0 69.0 L113.0 69.0 C114.0 69.0 115.0 70.0 115.0 72.0 L115.0 74.0 L115.0 89.0 C115.0 92.0 113.0 95.0 110.0 95.0 L110.0 95.0 L87.0 95.0 C87.0 95.0 87.0 95.0 87.0 95.0 C85.0 95.0 84.0 93.0 84.0 91.0 C84.0 90.0 85.0 89.0 87.0 89.0 L87.0 89.0 L110.0 89.0 C110.0 89.0 111.0 88.0 111.0 87.0 L111.0 74.0 L88.0 74.0 L88.0 98.0 C88.0 100.0 88.0 101.0 87.0 101.0 L87.0 101.0 Z M122.0 101.0 L122.0 101.0 C121.0 101.0 120.0 100.0 120.0 98.0 L120.0 72.0 C120.0 70.0 121.0 69.0 122.0 69.0 L122.0 69.0 L148.0 69.0 C149.0 69.0 150.0 70.0 150.0 72.0 L150.0 74.0 L150.0 89.0 C150.0 92.0 148.0 95.0 146.0 95.0 L145.0 95.0 L122.0 95.0 C122.0 95.0 122.0 95.0 122.0 95.0 C120.0 95.0 118.0 93.0 118.0 91.0 C118.0 90.0 120.0 89.0 121.0 89.0 L122.0 89.0 L145.0 89.0 C145.0 89.0 146.0 88.0 146.0 87.0 L146.0 74.0 L124.0 74.0 L124.0 98.0 C124.0 100.0 123.0 101.0 122.0 101.0 L122.0 101.0 Z M52.0 136.0 L52.0 136.0 C51.0 136.0 49.0 135.0 49.0 133.0 L49.0 107.0 C49.0 106.0 51.0 105.0 52.0 105.0 L53.0 105.0 L78.0 105.0 C79.0 105.0 80.0 106.0 80.0 107.0 L80.0 109.0 L80.0 126.0 C80.0 130.0 78.0 133.0 75.0 133.0 L75.0 133.0 L52.0 133.0 C52.0 133.0 52.0 133.0 52.0 133.0 C51.0 133.0 49.0 131.0 49.0 129.0 C49.0 128.0 51.0 126.0 52.0 126.0 L52.0 126.0 L72.0 126.0 C73.0 126.0 74.0 125.0 74.0 124.0 L74.0 109.0 L53.0 109.0 L53.0 133.0 C53.0 135.0 53.0 136.0 52.0 136.0 L52.0 136.0 Z M87.0 136.0 L87.0 136.0 C85.0 136.0 84.0 135.0 84.0 133.0 L84.0 107.0 C84.0 106.0 85.0 105.0 87.0 105.0 L87.0 105.0 L113.0 105.0 C114.0 105.0 115.0 106.0 115.0 107.0 L115.0 109.0 L115.0 126.0 C115.0 130.0 113.0 133.0 110.0 133.0 L110.0 133.0 L87.0 133.0 C87.0 133.0 87.0 133.0 87.0 133.0 C85.0 133.0 84.0 131.0 84.0 129.0 C84.0 128.0 85.0 126.0 87.0 126.0 L87.0 126.0 L110.0 126.0 C110.0 126.0 111.0 125.0 111.0 124.0 L111.0 109.0 L88.0 109.0 L88.0 133.0 C88.0 135.0 88.0 136.0 87.0 136.0 L87.0 136.0 Z M122.0 136.0 L122.0 136.0 C121.0 136.0 120.0 135.0 120.0 133.0 L120.0 107.0 C120.0 106.0 121.0 105.0 122.0 105.0 L122.0 105.0 L148.0 105.0 C149.0 105.0 150.0 106.0 150.0 107.0 L150.0 109.0 L150.0 126.0 C150.0 130.0 148.0 133.0 146.0 133.0 L145.0 133.0 L122.0 133.0 C122.0 133.0 122.0 136.0 122.0 136.0 L122.0 136.0 Z M52.0 171.0 L52.0 171.0 C51.0 171.0 49.0 170.0 49.0 168.0 L49.0 142.0 C49.0 141.0 51.0 140.0 52.0 140.0 L53.0 140.0 L78.0 140.0 C79.0 140.0 80.0 141.0 80.0 142.0 L80.0 144.0 L80.0 161.0 C80.0 165.0 78.0 167.0 75.0 167.0 L75.0 167.0 L52.0 167.0 C52.0 167.0 52.0 167.0 52.0 167.0 C51.0 167.0 49.0 165.0 49.0 163.0 C49.0 162.0 51.0 160.0 52.0 160.0 L52.0 160.0 L72.0 160.0 C73.0 160.0 74.0 159.0 74.0 158.0 L74.0 144.0 L53.0 144.0 L53.0 168.0 C53.0 170.0 53.0 171.0 52.0 171.0 L52.0 171.0 Z M87.0 171.0 L87.0 171.0 C85.0 171.0 84.0 170.0 84.0 168.0 L84.0 142.0 C84.0 141.0 85.0 140.0 87.0 140.0 L87.0 140.0 L113.0 140.0 C114.0 140.0 115.0 141.0 115.0 142.0 L115.0 144.0 L115.0 161.0 C115.0 165.0 113.0 167.0 110.0 167.0 L110.0 167.0 L87.0 167.0 C87.0 167.0 87.0 171.0 87.0 171.0 L87.0 171.0 Z M122.0 171.0 L122.0 171.0 C121.0 171.0 120.0 170.0 120.0 168.0 L120.0 142.0 C120.0 141.0 121.0 140.0 122.0 140.0 L122.0 140.0 L148.0 140.0 C149.0 140.0 150.0 141.0 150.0 142.0 L150.0 144.0 L150.0 161.0 C150.0 165.0 148.0 167.0 146.0 167.0 L145.0 167.0 L122.0 167.0 C122.0 167.0 122.0 171.0 122.0 171.0 L122.0 171.0 Z"></path>
<path fill="#332222" fill-opacity="1.0"  filling="0" d="M160.0 182.0 L40.0 182.0 C39.0 182.0 37.0 181.0 37.0 179.0 L37.0 61.0 C37.0 59.0 39.0 58.0 40.0 58.0 L160.0 58.0 C161.0 58.0 163.0 59.0 163.0 61.0 L163.0 179.0 C163.0 181.0 161.0 182.0 160.0 182.0 L160.0 182.0 Z M43.0 176.0 L157.0 176.0 L157.0 63.0 L43.0 63.0 L43.0 176.0 L43.0 176.0 Z"></path>
<path fill="#000000" fill-opacity="1.0"  filling="0" d="M164.0 52.0 L36.0 52.0 C32.0 52.0 29.0 49.0 29.0 45.0 L29.0 40.0 C29.0 35.0 32.0 31.0 36.0 31.0 L164.0 31.0 C168.0 31.0 171.0 35.0 171.0 40.0 L171.0 45.0 C171.0 49.0 168.0 52.0 164.0 52.0 L164.0 52.0 Z M36.0 35.0 C35.0 35.0 33.0 37.0 33.0 40.0"></path></svg>