<svg xmlns="http://www.w3.org/2000/svg" viewBox="0.0 0.0 200.0 200.0" height="200px" width="200px"><path fill="#eebb77" fill-opacity="1.0"  filling="0" d="M40.0 61.0 L160.0 61.0 L160.0 179.0 L40.0 179.0 L40.0 61.0 L40.0 61.0 Z"></path>
<path fill="#553333" fill-opacity="1.0"  filling="0" d="M160.0 182.0 L40.0 182.0 C38.0 182.0 37.0 181.0 37.0 179.0 L37.0 61.0 C37.0 59.0 38.0 58.0 40.0 58.0 L160.0 58.0 C161.0 58.0 163.0 59.0 163.0 61.0 L163.0 179.0 C163.0 181.0 161.0 182.0 160.0 182.0 L160.0 182.0 Z M42.0 176.0 L157.0 176.0 L157.0 63.0 L42.0 63.0 L42.0 176.0 L42.0 176.0 Z"></path>
<path fill="#bb7744" fill-opacity="1.0"  filling="0" d="M49.0 49.0 L151.0 49.0 L151.0 61.0 L49.0 61.0 L49.0 49.0 L49.0 49.0 Z"></path>
<path fill="#553333" fill-opacity="1.0"  filling="0" d="M151.0 63.0 L49.0 63.0 C48.0 63.0 47.0 62.0 47.0 61.0 L47.0 49.0 C47.0 48.0 48.0 47.0 49.0 47.0 L151.0 47.0 C152.0 47.0 153.0 48.0 153.0 49.0 L153.0 61.0 C153.0 62.0 152.0 63.0 151.0 63.0 L151.0 63.0 Z M51.0 58.0 L149.0 58.0 L149.0 52.0 L51.0 52.0 L51.0 58.0 L51.0 58.0 Z"></path>
<path fill="#ddaa66" fill-opacity="1.0"  filling="0" d="M35.0 34.0 L164.0 34.0 L164.0 49.0 L35.0 49.0 L35.0 34.0 L35.0 34.0 Z"></path>
<path fill="#553333" fill-opacity="1.0"  filling="0" d="M164.0 52.0 L35.0 52.0 C34.0 52.0 33.0 51.0 33.0 49.0 L33.0 34.0 C33.0 32.0 34.0 31.0 35.0 31.0 L164.0 31.0 C166.0 31.0 167.0 32.0 167.0 34.0 L167.0 49.0 C167.0 51.0 166.0 52.0 164.0 52.0 L164.0 52.0 Z M37.0 47.0 L162.0 47.0 L162.0 35.0 L37.0 35.0 L37.0 47.0 L37.0 47.0 Z"></path>
<path fill="#ffeecc" fill-opacity="1.0"  filling="0" d="M52.0 72.0 L78.0 72.0 L78.0 99.0 L52.0 99.0 L52.0 72.0 L52.0 72.0 Z"></path>
<path fill="#553333" fill-opacity="1.0"  filling="0" d="M78.0 101.0 L52.0 101.0 C50.0 101.0 49.0 100.0 49.0 99.0 L49.0 72.0 C49.0 70.0 50.0 69.0 52.0 69.0 L78.0 69.0 C80.0 69.0 80.0 70.0 80.0 72.0 L80.0 99.0 C80.0 100.0 80.0 101.0 78.0 101.0 L78.0 101.0 Z M53.0 97.0 L76.0 97.0 L76.0 74.0 L53.0 74.0 L53.0 97.0 L53.0 97.0 Z"></path>
<path fill="#eebb77" fill-opacity="1.0"  filling="0" d="M87.0 72.0 L113.0 72.0 L113.0 99.0 L87.0 99.0 L87.0 72.0 L87.0 72.0 Z"></path>
<path fill="#553333" fill-opacity="1.0"  filling="0" d="M113.0 101.0 L87.0 101.0 C86.0 101.0 84.0 100.0 84.0 99.0 L84.0 72.0 C84.0 70.0 86.0 69.0 87.0 69.0 L113.0 69.0 C114.0 69.0 115.0 70.0 115.0 72.0 L115.0 99.0 C115.0 100.0 114.0 101.0 113.0 101.0 L113.0 101.0 Z M88.0 97.0 L111.0 97.0 L111.0 74.0 L88.0 74.0 L88.0 97.0 L88.0 97.0 Z"></path>
<path fill="#bb6644" fill-opacity="1.0"  filling="0" d="M122.0 72.0 L148.0 72.0 L148.0 99.0 L122.0 99.0 L122.0 72.0 L122.0 72.0 Z"></path>
<path fill="#553333" fill-opacity="1.0"  filling="0" d="M148.0 101.0 L122.0 101.0 C121.0 101.0 120.0 100.0 120.0 99.0 L120.0 72.0 C120.0 70.0 121.0 69.0 122.0 69.0 L148.0 69.0 C149.0 69.0 150.0 70.0 150.0 72.0 L150.0 99.0 C150.0 100.0 149.0 101.0 148.0 101.0 L148.0 101.0 Z M124.0 97.0 L146.0 97.0 L146.0 74.0 L124.0 74.0 L124.0 97.0 L124.0 97.0 Z"></path>
<path fill="#cc8844" fill-opacity="1.0"  filling="0" d="M52.0 107.0 L78.0 107.0 L78.0 133.0 L52.0 133.0 L52.0 107.0 L52.0 107.0 Z"></path>
<path fill="#553333" fill-opacity="1.0"  filling="0" d="M78.0 136.0 L52.0 136.0 C50.0 136.0 49.0 135.0 49.0 133.0 L49.0 107.0 C49.0 106.0 50.0 105.0 52.0 105.0 L78.0 105.0 C80.0 105.0 80.0 106.0 80.0 107.0 L80.0 133.0 C80.0 135.0 80.0 136.0 78.0 136.0 L78.0 136.0 Z M53.0 131.0 L76.0 131.0 L76.0 109.0 L53.0 109.0 L53.0 131.0 L53.0 131.0 Z"></path>
<path fill="#ee9933" fill-opacity="1.0"  filling="0" d="M87.0 107.0 L113.0 107.0 L113.0 133.0 L87.0 133.0 L87.0 107.0 L87.0 107.0 Z"></path>
<path fill="#553333" fill-opacity="1.0"  filling="0" d="M113.0 136.0 L87.0 136.0 C86.0 136.0 84.0 135.0 84.0 133.0 L84.0 107.0 C84.0 106.0 86.0 105.0 87.0 105.0 L113.0 105.0 C114.0 105.0 115.0 106.0 115.0 107.0 L115.0 133.0 C115.0 135.0 114.0 136.0 113.0 136.0 L113.0 136.0 Z M88.0 131.0 L111.0 131.0 L111.0 109.0 L88.0 109.0 L88.0 131.0 L88.0 131.0 Z"></path>
<path fill="#dd7733" fill-opacity="1.0"  filling="0" d="M122.0 107.0 L148.0 107.0 L148.0 133.0 L122.0 133.0 L122.0 107.0 L122.0 107.0 Z"></path>
<path fill="#553333" fill-opacity="1.0"  filling="0" d="M148.0 136.0 L122.0 136.0 C121.0 136.0 120.0 135.0 120.0 133.0 L120.0 107.0 C120.0 106.0 121.0 105.0 122.0 105.0 L148.0 105.0 C149.0 105.0 150.0 106.0 150.0 107.0 L150.0 133.0 C150.0 135.0 149.0 136.0 148.0 136.0 L148.0 136.0 Z M124.0 131.0 L146.0 131.0 L146.0 109.0 L124.0 109.0 L124.0 131.0 L124.0 131.0 Z"></path>
<path fill="#dd7733" fill-opacity="1.0"  filling="0" d="M52.0 142.0 L78.0 142.0 L78.0 169.0 L52.0 169.0 L52.0 142.0 L52.0 142.0 Z"></path>
<path fill="#553333" fill-opacity="1.0"  filling="0" d="M78.0 171.0 L52.0 171.0 C50.0 171.0 49.0 170.0 49.0 169.0 L49.0 142.0 C49.0 141.0 50.0 140.0 52.0 140.0 L78.0 140.0 C80.0 140.0 80.0 141.0 80.0 142.0 L80.0 169.0 C80.0 170.0 80.0 171.0 78.0 171.0 L78.0 171.0 Z M53.0 167.0 L76.0 167.0 L76.0 144.0 L53.0 144.0 L53.0 167.0 L53.0 167.0 Z"></path>
<path fill="#bb6644" fill-opacity="1.0"  filling="0" d="M87.0 142.0 L113.0 142.0 L113.0 169.0 L87.0 169.0 L87.0 142.0 L87.0 142.0 Z"></path>
<path fill="#553333" fill-opacity="1.0"  filling="0" d="M113.0 171.0 L87.0 171.0 C86.0 171.0 84.0 170.0 84.0 169.0 L84.0 142.0 C84.0 141.0 86.0 140.0 87.0 140.0 L113.0 140.0 C114.0 140.0 115.0 141.0 115.0 142.0 L115.0 169.0 C115.0 170.0 114.0 171.0 113.0 171.0 L113.0 171.0 Z M88.0 167.0 L111.0 167.0 L111.0 144.0 L88.0 144.0 L88.0 167.0 L88.0 167.0 Z"></path>
<path fill="#775544" fill-opacity="1.0"  filling="0" d="M122.0 142.0 L148.0 142.0 L148.0 169.0 L122.0 169.0 L122.0 142.0 L122.0 142.0 Z"></path>
<path fill="#553333" fill-opacity="1.0"  filling="0" d="M148.0 171.0 L122.0 171.0 C121.0 171.0 120.0 170.0 120.0 169.0 L120.0 142.0 C120.0 141.0 121.0 140.0 122.0 140.0 L148.0 140.0 C149.0 140.0 150.0 141.0 150.0 142.0 L150.0 169.0 C150.0 170.0 149.0 171.0 148.0 171.0 L148.0 171.0 Z M124.0 167.0 L146.0 167.0 L146.0 144.0 L124.0 144.0 L124.0 167.0 L124.0 167.0 Z"></path></svg>