<svg xmlns="http://www.w3.org/2000/svg" viewBox="0.0 0.0 200.0 200.0" height="200px" width="200px"><path fill="#229977" fill-opacity="1.0"  filling="0" d="M100.0 13.0 C104.0 13.0 109.0 32.0 109.0 53.0 C109.0 72.0 104.0 91.0 100.0 91.0 C96.0 91.0 91.0 72.0 91.0 53.0 C91.0 32.0 96.0 13.0 100.0 13.0 L100.0 13.0 Z"></path>
<path fill="#ffbb44" fill-opacity="1.0"  filling="0" d="M109.0 100.0 C109.0 105.0 104.0 109.0 100.0 109.0 C96.0 109.0 91.0 105.0 91.0 100.0 C91.0 95.0 96.0 91.0 100.0 91.0 C104.0 91.0 109.0 95.0 109.0 100.0 L109.0 100.0 Z"></path>
<path fill="#ffbb44" fill-opacity="1.0"  filling="0" d="M109.0 100.0 C109.0 105.0 104.0 109.0 100.0 109.0 C96.0 109.0 91.0 105.0 91.0 100.0 C91.0 95.0 96.0 91.0 100.0 91.0 C104.0 91.0 109.0 95.0 109.0 100.0 L109.0 100.0 Z"></path>
<path fill="#229977" fill-opacity="1.0"  filling="0" d="M100.0 13.0 C100.0 13.0 100.0 13.0 99.0 13.0 C102.0 21.0 104.0 36.0 104.0 53.0 C104.0 69.0 102.0 85.0 99.0 90.0 C99.0 90.0 100.0 91.0 100.0 91.0 C104.0 91.0 109.0 72.0 109.0 53.0 C109.0 32.0 104.0 13.0 100.0 13.0 L100.0 13.0 Z"></path>
<path fill="#229977" fill-opacity="1.0"  filling="0" d="M100.0 91.0 C100.0 91.0 99.0 90.0 99.0 90.0 C102.0 85.0 104.0 69.0 104.0 53.0 C104.0 36.0 102.0 21.0 99.0 13.0 C99.0 13.0 100.0 13.0 100.0 13.0 C104.0 13.0 109.0 32.0 109.0 53.0 C109.0 72.0 104.0 91.0 100.0 91.0 L100.0 91.0 Z"></path>
<path fill="#ee8800" fill-opacity="1.0"  filling="0" d="M109.0 100.0 C109.0 105.0 104.0 109.0 100.0 109.0 C100.0 109.0 99.0 109.0 99.0 109.0 C102.0 107.0 104.0 103.0 104.0 100.0 C104.0 95.0 102.0 92.0 99.0 91.0 C99.0 91.0 100.0 91.0 100.0 91.0 C104.0 91.0 109.0 95.0 109.0 100.0 L109.0 100.0 Z"></path>
<path fill="#ffbb44" fill-opacity="1.0"  filling="0" d="M100.0 13.0 C100.0 13.0 99.0 13.0 99.0 13.0 C100.0 13.0 100.0 13.0 100.0 13.0 C100.0 13.0 100.0 13.0 100.0 13.0 L100.0 13.0 Z"></path>
<path fill="#ee8800" fill-opacity="1.0"  filling="0" d="M109.0 100.0 C109.0 105.0 104.0 109.0 100.0 109.0 C100.0 109.0 99.0 109.0 99.0 109.0 C102.0 107.0 104.0 103.0 104.0 100.0 C104.0 95.0 102.0 92.0 99.0 91.0 C99.0 91.0 100.0 91.0 100.0 91.0 C104.0 91.0 109.0 95.0 109.0 100.0 L109.0 100.0 Z"></path>
<path fill="#ffbb44" fill-opacity="1.0"  filling="0" d="M100.0 13.0 C100.0 13.0 100.0 13.0 99.0 13.0 C100.0 13.0 100.0 13.0 100.0 13.0 C100.0 13.0 100.0 13.0 100.0 13.0 L100.0 13.0 Z"></path>
<path fill="#ee8800" fill-opacity="1.0"  filling="0" d="M109.0 100.0 C109.0 105.0 104.0 109.0 100.0 109.0 C100.0 109.0 99.0 109.0 99.0 109.0 C102.0 107.0 104.0 103.0 104.0 100.0 C104.0 95.0 102.0 92.0 99.0 91.0 C99.0 91.0 100.0 91.0 100.0 91.0 C104.0 91.0 109.0 95.0 109.0 100.0 L109.0 100.0 Z"></path>
<path fill="#ffbb44" fill-opacity="1.0"  filling="0" d="M100.0 13.0 C100.0 13.0 100.0 13.0 99.0 13.0 C100.0 13.0 100.0 13.0 100.0 13.0 C100.0 13.0 100.0 13.0 100.0 13.0 L100.0 13.0 Z"></path>
<path fill="#ffbb44" fill-opacity="1.0"  filling="0" d="M100.0 13.0 C100.0 13.0 100.0 13.0 99.0 13.0 C100.0 13.0 100.0 13.0 100.0 13.0 C100.0 13.0 100.0 13.0 100.0 13.0 L100.0 13.0 Z"></path>
<path fill="#ffbb44" fill-opacity="1.0"  filling="0" d="M100.0 13.0 C100.0 13.0 100.0 13.0 99.0 13.0 C100.0 13.0 100.0 13.0 100.0 13.0 C100.0 13.0 100.0 13.0 100.0 13.0 L100.0 13.0 Z"></path>
<path fill="#ffbb44" fill-opacity="1.0"  filling="0" d="M100.0 13.0 C100.0 13.0 100.0 13.0 99.0 13.0 C100.0 13.0 100.0 13.0 100.0 13.0 C100.0 13.0 100.0 13.0 100.0 13.0 L100.0 13.0 Z"></path>
<path fill="#ffbb44" fill-opacity="1.0"  filling="0" d="M100.0 13.0 C100.0 13.0 100.0 13.0 99.0 13.0 C100.0 13.0 100.0 13.0 100.0 13.0 C100.0 13.0 100.0 13.0 100.0 13.0 L100.0 13.0 Z"></path>
<path fill="#ffbb44" fill-opacity="1.0"  filling="0" d="M100.0 13.0 C100.0 13.0 100.0 13.0 99.0 13.0 C100.0 13.0 100.0 13.0 100.0 13.0 C100.0 13.0 100.0 13.0 100.0 13.0 L100.0 13.0 Z"></path>
<path fill="#ffbb44" fill-opacity="1.0"  filling="0" d="M100.0 13.0 C100.0 13.0 100.0 13.0 99.0 13.0 C100.0 13.0 100.0 13.0 100.0 13.0 C100.0 13.0 100.0 13.0 100.0 13.0 L100.0 13.0 Z"></path>
<path fill="#ffbb44" fill-opacity="1.0"  filling="0" d="M100.0 13.0 C100.0 13.0 100.0 13.0 99.0 13.0 C100.0 13.0 100.0 13.0 100.0 13.0 C100.0 13.0 100.0 13.0 100.0 13.0 L100.0 13.0 Z"></path>
<path fill="#ffbb44" fill-opacity="1.0"  filling="0" d="M100.0 13.0 C100.0 13.0 100.0 13.0 99.0 13.0 C100.0 13.0 100.0 13.0 100.0 13.0 C100.0 13.0 100.0 13.0 100.0 13.0 L100.0 13.0 Z"></path>
<path fill="#ffbb44" fill-opacity="1.0"  filling="0" d="M100.0 13.0 C100.0 13.0 100.0 13.0 99.0 13.0 C100.0 13.0 100.0 13.0 100.0 13.0 C100.0 13.0 100.0 13.0 100.0 13.0 L100.0 13.0 Z"></path>
<path fill="#ffbb44" fill-opacity="1.0"  filling="0" d="M100.0 13.0 C100.0 13.0 100.0 13.0 99.0 13.0 C100.0 13.0 100.0 13.0 100.0 13.0 C100.0 13.0 100.0 13.0 100.0 13.0 L100.0 13.0 Z"></path>
<path fill="#ffbb44" fill-opacity="1.0"  filling="0" d="M100.0 13.0 C100.0 13.0 100.0 13.0 99.0 13.0 C100.0 13.0 100.0 13.0 100.0 13.0 C100.0 13.0 100.0 13.0 100.0 13.0 L100.0 13.0 Z"></path>
<path fill="#ffbb44" fill-opacity="1.0"  filling="0" d="M100.0 13.0 C100.0 13.0 100.0 13.0 99.0 13.0 C100.0 13.0 100.0 13.0 100.0 13.0 C100.0 13.0 100.0 13.0 100.0 13.0 L100.0 13.0 Z"></path>
<path fill="#ffbb44" fill-opacity="1.0"  filling="0" d="M100.0 13.0 C100.0 13.0 100.0 13.0 99.0 13.0 C100.0 13.0 100.0 13.0 100.0 13.0 C100.0 13.0 100.0 13.0 100.0 13.0 L100.0 13.0 Z"></path>
<path fill="#ffbb44" fill-opacity="1.0"  filling="0" d="M100.0 13.0 C100.0 13.0 100.0 13.0 99.0 13.0 C100.0 13.0 100.0 13.0 100.0 13.0 C100.0 13.0 100.0 13.0 100.0 13.0 L100.0 13.0 Z"></path>
<path fill="#ffbb44" fill-opacity="1.0"  filling="0" d="M100.0 13.0 C100.0 13.0 100.0 13.0 99.0 13.0 C100.0 13.0 100.0 13.0 100.0 13.0 C100.0 13.0 100.0 13.0 100.0 13.0 L100.0 13.0 Z"></path>
<path fill="#ffbb44" fill-opacity="1.0"  filling="0" d="M100.0 13.0 C100.0 13.0 100.0 13.0 99.0 13.0 C100.0 13.0 100.0 13.0 100.0 13.0 C100.0 13.0 100.0 13.0 100.0 13.0 L100.0 13.0 Z"></path>
<path fill="#ffbb44" fill-opacity="1.0"  filling="0" d="M100.0 13.0 C100.0 13.0 100.0 13.0 99.0 13.0 C100.0 13.0 100.0 13.0 100.0 13.0 C100.0 13.0 100.0 13.0 100.0 13.0 L100.0 13.0 Z"></path>
<path fill="#ffbb44" fill-opacity="1.0"  filling="0" d="M100.0 13.0 C100.0 13.0 100.0 13.0 99.0 13.0 C100.0 13.0 100.0 13.0 100.0 13.0 C100.0 13.0 100.0 13.0 100.0 13.0 L100.0 13.0 Z"></path>
<path fill="#ffbb44" fill-opacity="1.0"  filling="0" d="M100.0 13.0 C100.0 13.0 100.0 13.0 99.0 13.0 C100.0 13.0 100.0 13.0 100.0 13.0 C100.0 13.0 100.0 13.0 100.0 13.0 L100.0 13.0 Z"></path>
<path fill="#ffbb44" fill-opacity="1.0"  filling="0" d="M100.0 13.0 C100.0 13.0 100.0 13.0 99.0 13.0 C100.0 13.0 100.0 13.0 100.0 13.0 C100.0 13.0 100.0 13.0 100.0 13.0 L100.0 13.0 Z"></path>
<path fill="#ffbb44" fill-opacity="1.0"  filling="0" d="M100.0 13.0 C100.0 13.0 100.0 13.0 99.0 13.0 C100.0 13.0 100.0 13.0 100.0 13.0 C100.0 13.0 100.0 13.0 100.0 13.0 L100.0 13.0 Z"></path>
<path fill="#000000" fill-opacity="1.0"  filling="0" d="M100.0 13.0 C100.0 13.0 100.0 13.0 99.0 13.0 C100.0 13.0 100.0 13.0 99.0 13.0 C99.0 13.0 99.0 13.0 99.0 13.0 C99.0 13.0 99.0 13.0 99.0 13.0 C99.0 13.0 99.0 13.0 99.0 13.0 C99.0 13.0 99.0 13.0 99.0 13.0 C99.0 13.0 99.0 13.0 99.0 13.0 C99.0 13.0 99.0 13.0 99.0 13.0 C99.0 13.0 99.0 13.0 99.0 13.0 C99.0 13.0 99.0 13.0 99.0 13.0 C99.0 13.0 99.0 13.0 99.0 13.0 C99.0 13.0 99.0 13.0 99.0 13.0 C99.0 13.0 99.0 13.0 99.0 13.0 C99.0 13.0 99.0 13.0 99.0 13.0 C99.0 13.0 99.0 13.0 99.0 13.0 C99.0 13.0 99.0 13.0 99.0 13.0 C99.0 13.0 99.0 13.0 99.0 13.0 C99.0 13.0 99.0 13.0 99.0 13.0 C99.0 13.0 99.0 13.0 99.0 13.0 C99.0 13.0 99.0 13.0 99.0 13.0 C99.0 13.0 99.0 13.0 99.0 13.0 C99.0 13.0 99.0 13.0 99.0 13.0 C99.0 13.0 99.0 13.0 99.0 13.0 C99.0 13.0 99.0 13.0 99.0 13.0 C99.0 13.0 99.0 13.0 99.0 13.0 C99.0 13.0 99.0 13.0 99.0 13.0 C99.0 13.0 99.0 13.0 99.0 13.0 C99.0 13.0 99.0 13.0 99.0 13.0 C99.0 13.0 99.0 13.0 99.0 13.0 C99.0 13.0 99.0 13.0 99.0 13.0 C99.0 13.0 99.0 13.0 99.0 13.0 C99.0 13.0 99.0 13.0 99.0 13.0 C99.0 13.0 99.0 13.0 99.0 13.0 C99.0 13.0 99.0 13.0 99.0 13.0 C99.0 13.0 99.0 13.0 99.0 13.0 C99.0 13.0 99.0 13.0 99.0 13.0 C99.0 13.0 99.0 13.0 99.0 13.0 C99.0 13.0 99.0 13.0 99.0 13.0 C99.0 13.0 99.0 13.0 99.0 13.0 C99.0 13.0 99.0 13.0 99.0 13.0 C99.0 13.0 99.0 13.0 99.0 13.0 C99.0 13.0 99.0 13.0 99.0 13.0 C99.0 13.0 99.0 13.0 99.0 13.0 C99.0 13.0 99.0 13.0 99.0 13.0 C99.0 13.0 99.0 13.0 99.0 13.0 C99.0 13.0 99.0 13.0 99.0 13.0 C99.0 13.0 99.0 13.0 99.0 13.0 C99.0 13.0 99.0 13.0 99.0 13.0 C99.0 13.0 99.0 13.0 99.0 13.0 C99.0 13.0 99.0 13.0 99.0 13.0 C99.0 13.0 99.0 13.0 99.0 13.0 C99.0 13.0 99.0 13.0 99.0 13.0 C99.0 13.0 99.0 13.0 99.0 13.0 C99.0 13.0 99.0 13.0 99.0 13.0 C99.0 13.0 99.0 13.0 99.0 13.0 C99.0 13.0 99.0 13.0 99.0 13.0 C99.0 13.0 99.0 13.0 99.0 13.0 C99.0 13.0 99.0 13.0 99.0 13.0 C99.0 13.0 99.0 13.0 99.0 13.0 C99.0 13.0 99.0 13.0 99.0 13.0 C99.0 13.0 99.0 13.0 99.0 13.0 C99.0 13.0 99.0 13.0 99.0 13.0 C99.0 13.0 99.0 13.0 99.0 13.0 C99.0 13.0 99.0 13.0 99.0 13.0 C99.0 13.0 99.0 13.0 99.0 13.0 C99.0 13.0 99.0 13.0 99.0 13.0 C99.0 13.0 99.0 13.0 99.0 13.0 C99.0 13.0 99.0 13.0 99.0 13.0 C99.0 13.0 99.0 13.0 99.0 13.0 C99.0 13.0 99.0 13.0 99.0 13.0 C99.0 13.0 99.0 13.0 99.0 13.0 C99.0 13.0 99.0 13.0 99.0 13.0 C99.0 13.0 99.0 13.0 99.0 13.0 C99.0 13.0 99.0 13.0 99.0 13.0 C99.0 13.0 99.0 13.0 99.0 13.0 C99.0 13.0 99.0 13.0 99.0 13.0 C99.0 13.0 99.0 13.0 99.0 13.0 C99.0 13.0 99.0 13.0 99.0 13.0 C99.0 13.0 99.0 13.0 99.0 13.0 C99.0 13.0 99.0 13.0 99.0 13.0 C99.0 13.0 99.0 13.0 99.0 13.0 C99.0 13.0 99.0 13.0 99.0 13.0 C99.0 13.0 99.0 13.0 99.0 13.0 C99.0 13.0 99.0 13.0 99.0 13.0 C99.0 13.0 99.0 13.0 99.0 13.0 C99.0 13.0 99.0 13.0 99.0 13.0 C99.0 13.0 99.0 13.0 99.0 13.0 C99.0 13.0 99.0 13.0 99.0 13.0 C99.0 13.0 99.0 13.0 99.0 13.0 C99.0 13.0 99.0 13.0 99.0 13.0 C99.0 13.0 99.0 13.0 99.0 13.0 C99.0 13.0 99.0 13.0 99.0 13.0 C99.0 13.0 99.0 13.0 99.0 13.0 C99.0 13.0 99.0 13.0 99.0 13.0 C99.0 13.0 99.0 13.0 99.0 13.0 C99.0 13.0 99.0 13.0 99.0 13.0 C99.0 13.0 99.0 13.0 99.0 13.0 C99.0 13.0 99.0 13.0 99.0 13.0 C99.0 13.0 99.0 13.0 99.0 13.0 C99.0 13.0 99.0 13.0 99.0 13.0 C99.0 13.0 99.0 13.0 99.0 13.0 C99.0 13.0 99.0 13.0 99.0 13.0 C99.0 13.0 99.0 13.0 99.0 13.0 C99.0 13.0 99.0 13.0 99.0 13.0 C99.0 13.0 99.0 13.0 99.0 13.0 C99.0 13.0 99.0 13.0 99.0 13.0 C99.0 13.0 99.0 13.0 99.0 13.0 C99.0 13.0 99.0 13.0 99.0 13.0 C99.0 13.0 99.0 13.0 99.0 13.0 C99.0 13.0 99.0 13.0 99.0 13.0 C99.0 13.0 99.0 13.0 99.0 13.0 C99.0 13.0 99.0 13.0 99.0 13.0 C99.0 13.0 99.0 13.0 99.0 13.0 C99.0 13.0 99.0 13.0 99.0 13.0 C99.0 13.0 99.0 13.0 99.0 13.0 C99.0 13.0 99.0 13.0 99.0 13.0 C99.0 13.0 99.0 13.0 99.0 13.0 C99.0 13.0 99.0 13.0 99.0 13.0 C99.0 13.0 99.0 13.0 99.0 13.0 C99.0 13.0 99.0 13.0 99.0 13.0 C99.0 13.0 99.0 13.0 99.0 13.0 C99.0 13.0 99.0 13.0 99.0 13.0 C99.0 13.0 99.0 13.0 99.0 13.0 C99.0 13.0 99.0 13.0 99.0 13.0 C99.0 13.0 99.0 13.0 99.0 13.0 C99.0 13.0 99.0 13.0 99.0 13.0 C99.0 13.0 99.0 13.0 99.0 13.0 C99.0 13.0 99.0 13.0 99.0 13.0 C99.0 13.0 99.0 13.0 99.0 13.0 C99.0 13.0 99.0 13.0 99.0 13.0 C99.0 13.0 99.0 13.0 99.0 13.0 C99.0 13.0 99.0 13.0 99.0 13.0 C99.0 13.0 99.0 13.0 99.0 13.0 C99.0 13.0 99.0 13.0 99.0 13.0 C99.0 13.0 99.0 13.0 99.0 13.0 C99.0 13.0 99.0 13.0 99.0 13.0 C99.0 13.0 99.0 13.0 99.0 13.0 C99.0 13.0 99.0 13.0 99.0 13.0 C99.0 13.0 99.0 13.0 99.0 13.0 C99.0 13.0 99.0 13.0 99.0 13.0 C99.0 13.0 99.0 13.0 99.0 13.0 C99.0 13.0 99.0 13.0 99.0 13.0 C99.0 13.0 99.0 13.0 99.0 13.0 C99.0 13.0 99.0 13.0 99.0 13.0 C99.0 13.0 99.0 13.0 99.0 13.0 C99.0 13.0 99.0 13.0 99.0 13.0 C99.0 13.0 99.0 13.0 99.0 13.0 C99.0 13.0 99.0 13.0 99.0 13.0 C99.0 13.0 99.0 13.0 99.0 13.0 C99.0 13.0 99.0 13.0 99.0 13.0 C99.0 13.0 99.0 13.0 99.0 13.0 C99.0 13.0 99.0 13.0 99.0 13.0 C99.0 13.0 99.0 13.0 99.0 13.0 C99.0 13.0 99.0 13.0 99.0 13.0 C99.0 13.0 99.0 13.0 99.0 13.0 C99.0 13.0 99.0 13.0 99.0 13.0 C99.0 13.0 99.0 13.0 99.0 13.0 C99.0 13.0 99.0 13.0 99.0 13.0 C99.0 13.0 99.0 13.0 99.0 13.0 C99.0 13.0 99.0 13.0 99.0 13.0 C99.0 13.0 99.0 13.0 99.0 13.0 C99.0 13.0 99.0 13.0 99.0 13.0 C99.0 13.0 99.0 13.0 99.0 13.0 C99.0 13.0 99.0 13.0 99.0 13.0"></path></svg>