<svg xmlns="http://www.w3.org/2000/svg" viewBox="0.0 0.0 200.0 200.0" height="200px" width="200px"><path fill="#ffaa22" fill-opacity="1.0"  filling="0" d="M13.0 99.0 A85.0 85.0 0.0 1 0 183.0 99.0 A85.0 85.0 0.0 1 0 13.0 99.0 L13.0 99.0 Z"></path>
<path fill="#ff9911" fill-opacity="1.0"  filling="0" d="M95.0 87.0 C93.0 87.0 91.0 86.0 90.0 85.0 L65.0 63.0 C63.0 61.0 63.0 57.0 65.0 55.0 C67.0 53.0 71.0 53.0 73.0 55.0 L98.0 76.0 C100.0 78.0 100.0 82.0 98.0 85.0 C97.0 86.0 96.0 87.0 95.0 87.0 L95.0 87.0 Z"></path>
<path fill="#ff9911" fill-opacity="1.0"  filling="0" d="M102.0 87.0 C101.0 87.0 100.0 86.0 99.0 85.0 C96.0 82.0 96.0 78.0 99.0 76.0 L125.0 55.0 C127.0 53.0 130.0 53.0 132.0 55.0 C135.0 57.0 135.0 61.0 132.0 63.0 L107.0 85.0 C106.0 86.0 104.0 87.0 102.0 87.0 L102.0 87.0 Z"></path>
<path fill="#ff9911" fill-opacity="1.0"  filling="0" d="M70.0 92.0 C68.0 92.0 65.0 90.0 65.0 87.0 C65.0 84.0 68.0 81.0 70.0 81.0 L127.0 81.0 C130.0 81.0 132.0 84.0 132.0 87.0 C132.0 90.0 130.0 92.0 127.0 92.0 L70.0 92.0 L70.0 92.0 Z M127.0 110.0 L70.0 110.0 C68.0 110.0 65.0 108.0 65.0 105.0 C65.0 102.0 68.0 100.0 70.0 100.0 L127.0 100.0 C130.0 100.0 132.0 102.0 132.0 105.0 C132.0 108.0 130.0 110.0 127.0 110.0 L127.0 110.0 Z"></path>
<path fill="#ff9911" fill-opacity="1.0"  filling="0" d="M98.0 140.0 C95.0 140.0 92.0 138.0 92.0 135.0 L92.0 82.0 C92.0 79.0 95.0 77.0 98.0 77.0 C101.0 77.0 103.0 79.0 103.0 82.0 L103.0 135.0 C103.0 138.0 101.0 140.0 98.0 140.0 L98.0 140.0 Z"></path>
<path fill="#ffcc11" fill-opacity="1.0"  filling="0" d="M98.0 155.0 C68.0 155.0 43.0 130.0 43.0 99.0 C43.0 69.0 68.0 45.0 98.0 45.0 C128.0 45.0 153.0 69.0 153.0 99.0 C153.0 130.0 128.0 155.0 98.0 155.0 L98.0 155.0 Z M98.0 56.0 C74.0 56.0 54.0 76.0 54.0 99.0 C54.0 124.0 74.0 145.0 98.0 145.0 C122.0 145.0 142.0 124.0 142.0 99.0 C142.0 76.0 122.0 56.0 98.0 56.0 L98.0 56.0 Z"></path></svg>