<svg xmlns="http://www.w3.org/2000/svg" viewBox="0.0 0.0 200.0 200.0" height="200px" width="200px"><path fill="#ffaa22" fill-opacity="1.0"  filling="0" d="M13.0 99.0 A85.0 85.0 0.0 1 0 183.0 99.0 A85.0 85.0 0.0 1 0 13.0 99.0 L13.0 99.0 Z"></path>
<path fill="#ffaa11" fill-opacity="1.0"  filling="0" d="M179.0 137.0 C179.0 131.0 181.0 125.0 181.0 119.0 C181.0 63.0 143.0 27.0 97.0 27.0 C52.0 27.0 13.0 63.0 13.0 119.0 C13.0 125.0 13.0 131.0 14.0 137.0 C36.0 168.0 66.0 185.0 97.0 185.0 C129.0 185.0 159.0 168.0 179.0 137.0 L179.0 137.0 Z"></path>
<path fill="#ffffff" fill-opacity="1.0"  filling="0" d="M114.0 132.0 C114.0 132.0 114.0 132.0 114.0 132.0 C114.0 132.0 114.0 132.0 114.0 132.0 L114.0 132.0 Z"></path>
<path fill="#ffaa11" fill-opacity="1.0"  filling="0" d="M97.0 20.0 C51.0 20.0 13.0 56.0 13.0 99.0 C13.0 142.0 51.0 178.0 97.0 178.0 C142.0 178.0 179.0 142.0 179.0 99.0 C179.0 56.0 142.0 20.0 97.0 20.0 L97.0 20.0 Z M97.0 167.0 C56.0 167.0 24.0 136.0 24.0 99.0 C24.0 62.0 56.0 32.0 97.0 32.0 C136.0 32.0 168.0 62.0 168.0 99.0 C168.0 136.0 136.0 167.0 97.0 167.0 L97.0 167.0 Z"></path>
<path fill="#ffaa11" fill-opacity="1.0"  filling="0" d="M97.0 180.0 C52.0 180.0 13.0 143.0 13.0 99.0 C13.0 56.0 52.0 17.0 97.0 17.0 C143.0 17.0 179.0 56.0 179.0 99.0 C179.0 143.0 143.0 180.0 97.0 180.0 L97.0 180.0 Z M97.0 25.0 C55.0 25.0 20.0 59.0 20.0 99.0 C20.0 139.0 55.0 173.0 97.0 173.0 C138.0 173.0 172.0 139.0 172.0 99.0 C172.0 59.0 138.0 25.0 97.0 25.0 L97.0 25.0 Z"></path>
<path fill="#ffaa11" fill-opacity="1.0"  filling="0" d="M158.0 45.0 C143.0 29.0 122.0 17.0 97.0 17.0 C52.0 17.0 13.0 56.0 13.0 99.0 C13.0 121.0 21.0 141.0 36.0 156.0 C49.0 163.0 64.0 167.0 79.0 167.0 C122.0 167.0 158.0 130.0 158.0 83.0 C158.0 70.0 153.0 57.0 146.0 45.0 L158.0 45.0 L158.0 45.0 Z M97.0 154.0 C63.0 154.0 37.0 129.0 37.0 99.0 C37.0 69.0 63.0 45.0 97.0 45.0 C128.0 45.0 153.0 69.0 153.0 99.0 C153.0 129.0 128.0 154.0 97.0 154.0 L97.0 154.0 Z"></path>
<path fill="#ffbb22" fill-opacity="1.0"  filling="0" d="M13.0 99.0 C13.0 108.0 14.0 116.0 16.0 123.0 A85.0 85.0 0.0 0 0 37.0 127.0 C34.0 119.0 32.0 110.0 32.0 99.0 C32.0 69.0 55.0 43.0 86.0 40.0 A85.0 85.0 0.0 0 0 86.0 17.0 C47.0 21.0 13.0 57.0 13.0 99.0 L13.0 99.0 Z"></path>
<path fill="#ffaa11" fill-opacity="1.0"  filling="0" d="M129.0 63.0 L114.0 63.0 L97.0 89.0 L80.0 63.0 L65.0 63.0 L91.0 98.0 L68.0 102.0 L68.0 110.0 L92.0 110.0 L92.0 116.0 L68.0 116.0 L68.0 125.0 L92.0 125.0 L92.0 142.0 L103.0 142.0 L103.0 125.0 L127.0 125.0 L127.0 116.0 L103.0 116.0 L103.0 110.0 L127.0 110.0 L127.0 102.0 L104.0 98.0 L129.0 63.0 L129.0 63.0 Z"></path></svg>