<svg xmlns="http://www.w3.org/2000/svg" viewBox="0.0 0.0 200.0 200.0" height="200px" width="200px"><path fill="#ffaa22" fill-opacity="1.0"  filling="0" d="M13.0 99.0 A85.0 85.0 0.0 1 0 183.0 99.0 A85.0 85.0 0.0 1 0 13.0 99.0 L13.0 99.0 Z"></path>
<path fill="#ff9911" fill-opacity="1.0"  filling="0" d="M95.0 87.0 C93.0 87.0 91.0 86.0 90.0 85.0 L65.0 63.0 C63.0 61.0 63.0 57.0 65.0 55.0 C67.0 53.0 71.0 53.0 73.0 55.0 L98.0 76.0 C100.0 78.0 100.0 82.0 98.0 85.0 C97.0 86.0 96.0 87.0 95.0 87.0 L95.0 87.0 Z"></path>
<path fill="#ff9911" fill-opacity="1.0"  filling="0" d="M102.0 87.0 C101.0 87.0 99.0 86.0 98.0 85.0 C96.0 82.0 96.0 78.0 98.0 76.0 L125.0 55.0 C128.0 53.0 131.0 53.0 133.0 55.0 C135.0 57.0 135.0 61.0 133.0 63.0 L107.0 85.0 C106.0 86.0 104.0 87.0 102.0 87.0 L102.0 87.0 Z"></path>
<path fill="#ff9911" fill-opacity="1.0"  filling="0" d="M92.0 142.0 L92.0 92.0 C92.0 89.0 95.0 87.0 98.0 87.0 C101.0 87.0 103.0 89.0 103.0 92.0 L103.0 142.0 C103.0 145.0 101.0 147.0 98.0 147.0 C95.0 147.0 92.0 145.0 92.0 142.0 L92.0 142.0 Z"></path>
<path fill="#ff9911" fill-opacity="1.0"  filling="0" d="M127.0 110.0 L68.0 110.0 C66.0 110.0 63.0 108.0 63.0 105.0 C63.0 103.0 66.0 100.0 68.0 100.0 L127.0 100.0 C130.0 100.0 132.0 103.0 132.0 105.0 C132.0 108.0 130.0 110.0 127.0 110.0 L127.0 110.0 Z M127.0 125.0 L68.0 125.0 C66.0 125.0 63.0 123.0 63.0 120.0 C63.0 118.0 66.0 116.0 68.0 116.0 L127.0 116.0 C130.0 116.0 132.0 118.0 132.0 120.0 C132.0 123.0 130.0 125.0 127.0 125.0 L127.0 125.0 Z"></path>
<path fill="#ffcc11" fill-opacity="1.0"  filling="0" d="M43.0 99.0 A56.0 56.0 0.0 1 0 153.0 99.0 A56.0 56.0 0.0 1 0 43.0 99.0 L43.0 99.0 Z"></path></svg>