<svg xmlns="http://www.w3.org/2000/svg" viewBox="0.0 0.0 200.0 200.0" height="200px" width="200px"><path fill="#229977" fill-opacity="1.0"  filling="0" d="M100.0 13.0 C104.0 13.0 109.0 31.0 109.0 59.0 C109.0 82.0 104.0 100.0 100.0 100.0 C96.0 100.0 91.0 82.0 91.0 59.0 C91.0 31.0 96.0 13.0 100.0 13.0 L100.0 13.0 Z"></path>
<path fill="#229977" fill-opacity="1.0"  filling="0" d="M134.0 25.0 C138.0 25.0 128.0 44.0 116.0 69.0 C103.0 94.0 94.0 112.0 91.0 110.0 C88.0 108.0 94.0 85.0 109.0 62.0 C122.0 38.0 131.0 24.0 134.0 25.0 L134.0 25.0 Z"></path>
<path fill="#229977" fill-opacity="1.0"  filling="0" d="M134.0 25.0 C138.0 26.0 131.0 43.0 118.0 67.0 C106.0 88.0 94.0 106.0 91.0 104.0 C88.0 101.0 100.0 83.0 112.0 61.0 C124.0 39.0 131.0 24.0 134.0 25.0 L134.0 25.0 Z"></path>
<path fill="#229977" fill-opacity="1.0"  filling="0" d="M66.0 25.0 C69.0 24.0 78.0 38.0 91.0 62.0 C106.0 85.0 112.0 108.0 109.0 110.0 C106.0 112.0 97.0 94.0 84.0 69.0 C72.0 44.0 62.0 25.0 66.0 25.0 L66.0 25.0 Z"></path>
<path fill="#229977" fill-opacity="1.0"  filling="0" d="M66.0 25.0 C69.0 24.0 76.0 39.0 88.0 61.0 C100.0 83.0 112.0 101.0 109.0 104.0 C106.0 106.0 94.0 88.0 82.0 67.0 C69.0 43.0 62.0 26.0 66.0 25.0 L66.0 25.0 Z"></path>
<path fill="#ffbb44" fill-opacity="1.0"  filling="0" d="M148.0 125.0 C148.0 159.0 136.0 187.0 100.0 187.0 C64.0 187.0 52.0 159.0 52.0 125.0 C52.0 88.0 74.0 71.0 100.0 71.0 C126.0 71.0 148.0 88.0 148.0 125.0 L148.0 125.0 Z"></path>
<path fill="#ffbb44" fill-opacity="1.0"  filling="0" d="M100.0 71.0 C126.0 71.0 148.0 88.0 148.0 125.0 C148.0 159.0 136.0 187.0 100.0 187.0 C64.0 187.0 52.0 159.0 52.0 125.0 C52.0 88.0 74.0 71.0 100.0 71.0 L100.0 71.0 Z"></path>
<path fill="#ee8800" fill-opacity="1.0"  filling="0" d="M100.0 128.0 L114.0 137.0 L128.0 125.0 L148.0 132.0 C148.0 130.0 148.0 128.0 148.0 125.0 C148.0 121.0 148.0 117.0 147.0 114.0 L128.0 98.0 L114.0 111.0 L100.0 98.0 L86.0 111.0 L72.0 98.0 L53.0 113.0 C52.0 117.0 52.0 121.0 52.0 125.0 C52.0 128.0 52.0 130.0 52.0 132.0 L72.0 125.0 L86.0 137.0 L100.0 128.0 L100.0 128.0 Z"></path>
<path fill="#33cc88" fill-opacity="1.0"  filling="0" d="M100.0 115.0 L114.0 127.0 L128.0 115.0 L148.0 125.0 L148.0 125.0 C148.0 121.0 148.0 117.0 147.0 114.0 L128.0 98.0 L114.0 111.0 L100.0 98.0 L86.0 111.0 L72.0 98.0 L53.0 113.0 C52.0 117.0 52.0 121.0 52.0 125.0 L52.0 125.0 L72.0 115.0 L86.0 127.0 L100.0 115.0 L100.0 115.0 Z"></path>
<path fill="#ee8800" fill-opacity="1.0"  filling="0" d="M72.0 142.0 L72.0 142.0 L72.0 142.0 L72.0 142.0 L72.0 142.0 Z"></path>
<path fill="#33cc88" fill-opacity="1.0"  filling="0" d="M100.0 127.0 L100.0 142.0 L86.0 154.0 L72.0 142.0 L72.0 142.0 L72.0 142.0 L72.0 142.0 L56.0 155.0 C57.0 157.0 57.0 160.0 58.0 162.0 L59.0 152.0 L72.0 152.0 L86.0 164.0 L100.0 152.0 L114.0 164.0 L128.0 152.0 L141.0 152.0 L142.0 162.0 C143.0 160.0 143.0 157.0 144.0 155.0 L128.0 142.0 L128.0 142.0 L128.0 142.0 L128.0 142.0 L114.0 154.0 L100.0 142.0 L100.0 127.0 L100.0 127.0 Z"></path></svg>