<svg xmlns="http://www.w3.org/2000/svg" viewBox="0.0 0.0 200.0 200.0" height="200px" width="200px"><path fill="#229977" fill-opacity="1.0"  filling="0" d="M100.0 13.0 C104.0 13.0 109.0 31.0 109.0 59.0 C109.0 82.0 104.0 100.0 100.0 100.0 C96.0 100.0 91.0 82.0 91.0 59.0 C91.0 31.0 96.0 13.0 100.0 13.0 L100.0 13.0 Z"></path>
<path fill="#229977" fill-opacity="1.0"  filling="0" d="M134.0 25.0 C138.0 25.0 128.0 44.0 115.0 69.0 C103.0 94.0 94.0 112.0 91.0 110.0 C88.0 108.0 94.0 85.0 107.0 59.0 C119.0 32.0 131.0 22.0 134.0 25.0 L134.0 25.0 Z"></path>
<path fill="#229977" fill-opacity="1.0"  filling="0" d="M134.0 25.0 C138.0 25.0 128.0 44.0 115.0 69.0 C103.0 94.0 94.0 112.0 91.0 110.0 C88.0 108.0 94.0 85.0 107.0 59.0 C119.0 32.0 131.0 22.0 134.0 25.0 L134.0 25.0 Z"></path>
<path fill="#229977" fill-opacity="1.0"  filling="0" d="M66.0 25.0 C62.0 25.0 72.0 44.0 85.0 69.0 C97.0 94.0 106.0 112.0 109.0 110.0 C112.0 108.0 106.0 85.0 93.0 59.0 C81.0 32.0 69.0 22.0 66.0 25.0 L66.0 25.0 Z"></path>
<path fill="#ffffff" fill-opacity="1.0"  filling="0" d="M21.0 21.0 L179.0 21.0 L179.0 179.0 L21.0 179.0 L21.0 21.0 L21.0 21.0 Z"></path>
<path fill="#ffbb44" fill-opacity="1.0"  filling="0" d="M100.0 128.0 C128.0 128.0 150.0 145.0 150.0 163.0 C150.0 180.0 128.0 187.0 100.0 187.0 C72.0 187.0 50.0 180.0 50.0 163.0 C50.0 145.0 72.0 128.0 100.0 128.0 L100.0 128.0 Z"></path>
<path fill="#ee8800" fill-opacity="1.0"  filling="0" d="M150.0 163.0 C150.0 165.0 149.0 166.0 148.0 168.0 C146.0 156.0 128.0 142.0 100.0 142.0 C72.0 142.0 54.0 156.0 52.0 168.0 C51.0 166.0 50.0 165.0 50.0 163.0 C50.0 145.0 72.0 128.0 100.0 128.0 C128.0 128.0 150.0 145.0 150.0 163.0 L150.0 163.0 Z"></path>
<path fill="#ffbb44" fill-opacity="1.0"  filling="0" d="M100.0 71.0 C128.0 71.0 150.0 87.0 150.0 107.0 C150.0 125.0 128.0 138.0 100.0 138.0 C72.0 138.0 50.0 125.0 50.0 107.0 C50.0 87.0 72.0 71.0 100.0 71.0 L100.0 71.0 Z"></path>
<path fill="#ee8800" fill-opacity="1.0"  filling="0" d="M150.0 107.0 C150.0 108.0 149.0 110.0 148.0 112.0 C146.0 101.0 128.0 88.0 100.0 88.0 C72.0 88.0 54.0 101.0 52.0 112.0 C51.0 110.0 50.0 108.0 50.0 107.0 C50.0 87.0 72.0 71.0 100.0 71.0 C128.0 71.0 150.0 87.0 150.0 107.0 L150.0 107.0 Z"></path>
<path fill="#229977" fill-opacity="1.0"  filling="0" d="M105.0 43.0 C108.0 47.0 109.0 54.0 109.0 59.0 C109.0 65.0 108.0 70.0 106.0 74.0 C104.0 72.0 102.0 69.0 100.0 66.0 C98.0 69.0 96.0 72.0 94.0 74.0 C92.0 70.0 91.0 65.0 91.0 59.0 C91.0 54.0 92.0 47.0 95.0 43.0 C97.0 46.0 98.0 49.0 100.0 53.0 C102.0 49.0 103.0 46.0 105.0 43.0 L105.0 43.0 Z"></path>
<path fill="#33cc88" fill-opacity="1.0"  filling="0" d="M128.0 75.0 C134.0 79.0 139.0 84.0 142.0 89.0 C144.0 95.0 146.0 101.0 146.0 107.0 C146.0 112.0 145.0 118.0 142.0 123.0 C139.0 127.0 134.0 131.0 128.0 134.0 C122.0 137.0 114.0 138.0 106.0 138.0 C104.0 138.0 102.0 138.0 100.0 138.0 C98.0 138.0 96.0 138.0 94.0 138.0 C86.0 138.0 78.0 137.0 72.0 134.0 C66.0 131.0 61.0 127.0 58.0 123.0 C55.0 118.0 54.0 112.0 54.0 107.0 C54.0 101.0 56.0 95.0 58.0 89.0 C61.0 84.0 66.0 79.0 72.0 75.0 C78.0 72.0 86.0 71.0 94.0 71.0 C96.0 71.0 98.0 71.0 100.0 71.0 C102.0 71.0 104.0 71.0 106.0 71.0 C114.0 71.0 122.0 72.0 128.0 75.0 L128.0 75.0 Z M126.0 50.0 C117.0 47.0 108.0 46.0 100.0 46.0 C92.0 46.0 83.0 47.0 74.0 50.0 C66.0 53.0 59.0 58.0 54.0 63.0 C49.0 69.0 46.0 75.0 46.0 82.0 C46.0 89.0 49.0 96.0 54.0 102.0 C59.0 99.0 66.0 95.0 74.0 92.0 C83.0 89.0 92.0 88.0 100.0 88.0 C108.0 88.0 117.0 89.0 126.0 92.0 C134.0 95.0 141.0 99.0 146.0 102.0 C151.0 96.0 154.0 89.0 154.0 82.0 C154.0 75.0 151.0 69.0 146.0 63.0 C141.0 58.0 134.0 53.0 126.0 50.0 L126.0 50.0 Z"></path>
<path fill="#229977" fill-opacity="1.0"  filling="0" d="M154.0 82.0 C154.0 89.0 151.0 96.0 146.0 102.0 C141.0 99.0 134.0 95.0 126.0 92.0 C117.0 89.0 108.0 88.0 100.0 88.0 C92.0 88.0 83.0 89.0 74.0 92.0 C66.0 95.0 59.0 99.0 54.0 102.0 C49.0 96.0 46.0 89.0 46.0 82.0 C46.0 75.0 49.0 69.0 54.0 63.0 C59.0 58.0 66.0 53.0 74.0 50.0 C83.0 47.0 92.0 46.0 100.0 46.0 C108.0 46.0 117.0 47.0 126.0 50.0 C134.0 53.0 141.0 58.0 146.0 63.0 C151.0 69.0 154.0 75.0 154.0 82.0 L154.0 82.0 Z"></path>
<path fill="#ee8800" fill-opacity="1.0"  filling="0" d="M125.0 103.0 L100.0 115.0 L75.0 103.0 L52.0 131.0 C52.0 134.0 52.0 137.0 53.0 140.0 L72.0 125.0 L86.0 137.0 L100.0 125.0 L114.0 137.0 L128.0 125.0 L147.0 140.0 C148.0 137.0 148.0 134.0 148.0 131.0 L125.0 103.0 L125.0 103.0 Z"></path>
<path fill="#ee8800" fill-opacity="1.0"  filling="0" d="M125.0 103.0 L100.0 115.0 L75.0 103.0 L53.0 113.0 C53.0 116.0 52.0 118.0 52.0 121.0 L72.0 98.0 L86.0 110.0 L100.0 98.0 L114.0 111.0 L128.0 98.0 L147.0 121.0 C148.0 118.0 148.0 116.0 147.0 113.0 L125.0 103.0 L125.0 103.0 Z"></path></svg>