<svg xmlns="http://www.w3.org/2000/svg" viewBox="0.0 0.0 200.0 200.0" height="200px" width="200px"><path fill="#229977" fill-opacity="1.0"  filling="0" d="M100.0 13.0 C104.0 13.0 109.0 34.0 109.0 59.0 C109.0 82.0 104.0 100.0 100.0 100.0 C96.0 100.0 91.0 82.0 91.0 59.0 C91.0 34.0 96.0 13.0 100.0 13.0 L100.0 13.0 Z"></path>
<path fill="#229977" fill-opacity="1.0"  filling="0" d="M134.0 25.0 C138.0 25.0 128.0 44.0 116.0 62.0 C104.0 81.0 96.0 97.0 100.0 100.0 C104.0 103.0 117.0 94.0 130.0 78.0 C143.0 61.0 150.0 44.0 148.0 46.0 C145.0 47.0 134.0 54.0 122.0 62.0 C110.0 54.0 95.0 47.0 92.0 46.0 C90.0 44.0 104.0 61.0 116.0 78.0 C129.0 94.0 145.0 103.0 148.0 100.0 C150.0 97.0 143.0 81.0 130.0 62.0 C134.0 44.0 138.0 25.0 134.0 25.0 L134.0 25.0 Z"></path>
<path fill="#229977" fill-opacity="1.0"  filling="0" d="M66.0 25.0 C62.0 25.0 66.0 44.0 70.0 62.0 C57.0 81.0 50.0 97.0 52.0 100.0 C55.0 103.0 71.0 94.0 84.0 78.0 C96.0 61.0 110.0 44.0 108.0 46.0 C105.0 47.0 90.0 54.0 78.0 62.0 C66.0 54.0 55.0 47.0 52.0 46.0 C50.0 44.0 57.0 61.0 70.0 78.0 C83.0 94.0 96.0 103.0 100.0 100.0 C104.0 97.0 96.0 81.0 84.0 62.0 C72.0 44.0 62.0 25.0 66.0 25.0 L66.0 25.0 Z"></path>
<path fill="#ffbb44" fill-opacity="1.0"  filling="0" d="M100.0 71.0 C129.0 71.0 148.0 91.0 148.0 119.0 C148.0 147.0 142.0 187.0 100.0 187.0 C58.0 187.0 52.0 147.0 52.0 119.0 C52.0 91.0 71.0 71.0 100.0 71.0 L100.0 71.0 Z"></path>
<path fill="#ffffff" fill-opacity="1.0"  filling="0" d="M148.0 119.0 C148.0 147.0 142.0 187.0 100.0 187.0 C58.0 187.0 52.0 147.0 52.0 119.0 C52.0 118.0 52.0 117.0 52.0 117.0 C51.0 118.0 51.0 118.0 51.0 119.0 C51.0 146.0 58.0 186.0 100.0 186.0 C142.0 186.0 149.0 146.0 149.0 119.0 C149.0 118.0 149.0 118.0 148.0 117.0 C148.0 117.0 148.0 118.0 148.0 119.0 L148.0 119.0 Z"></path>
<path fill="#ee8800" fill-opacity="1.0"  filling="0" d="M100.0 100.0 L114.0 100.0 L128.0 88.0 L144.0 102.0 L147.0 113.0 L128.0 115.0 L114.0 127.0 L100.0 115.0 L86.0 127.0 L72.0 115.0 L53.0 113.0 L56.0 102.0 L72.0 88.0 L86.0 100.0 L100.0 100.0 L100.0 100.0 Z"></path>
<path fill="#ffbb44" fill-opacity="1.0"  filling="0" d="M105.0 100.0 L114.0 103.0 L128.0 95.0 L144.0 106.0 L146.0 110.0 L128.0 111.0 L114.0 124.0 L100.0 113.0 L86.0 124.0 L72.0 111.0 L54.0 110.0 L56.0 106.0 L72.0 95.0 L86.0 103.0 L95.0 100.0 L105.0 100.0 L105.0 100.0 Z"></path>
<path fill="#ffbb44" fill-opacity="1.0"  filling="0" d="M105.0 100.0 L114.0 103.0 L128.0 95.0 L144.0 106.0 L146.0 110.0 L128.0 111.0 L114.0 124.0 L100.0 113.0 L86.0 124.0 L72.0 111.0 L54.0 110.0 L56.0 106.0 L72.0 95.0 L86.0 103.0 L95.0 100.0 L105.0 100.0 L105.0 100.0 Z"></path>
<path fill="#ee8800" fill-opacity="1.0"  filling="0" d="M100.0 112.0 L114.0 121.0 L128.0 109.0 L147.0 112.0 L148.0 119.0 C148.0 124.0 148.0 129.0 148.0 133.0 L128.0 126.0 L114.0 139.0 L100.0 126.0 L86.0 139.0 L72.0 126.0 L52.0 133.0 C52.0 129.0 52.0 124.0 52.0 119.0 L53.0 112.0 L72.0 109.0 L86.0 121.0 L100.0 112.0 L100.0 112.0 Z"></path>
<path fill="#ffbb44" fill-opacity="1.0"  filling="0" d="M100.0 112.0 L114.0 121.0 L128.0 109.0 L147.0 112.0 L148.0 119.0 C148.0 124.0 148.0 129.0 148.0 133.0 L128.0 126.0 L114.0 139.0 L100.0 126.0 L86.0 139.0 L72.0 126.0 L52.0 133.0 C52.0 129.0 52.0 124.0 52.0 119.0 L53.0 112.0 L72.0 109.0 L86.0 121.0 L100.0 112.0 L100.0 112.0 Z"></path>
<path fill="#ee8800" fill-opacity="1.0"  filling="0" d="M100.0 142.0 L114.0 150.0 L128.0 141.0 L147.0 155.0 C146.0 158.0 145.0 161.0 144.0 163.0 L128.0 152.0 L114.0 164.0 L100.0 152.0 L86.0 164.0 L72.0 152.0 L56.0 163.0 C55.0 161.0 54.0 158.0 53.0 155.0 L72.0 141.0 L86.0 150.0 L100.0 142.0 L100.0 142.0 Z"></path>
<path fill="#ffbb44" fill-opacity="1.0"  filling="0" d="M100.0 142.0 L114.0 150.0 L128.0 141.0 L147.0 155.0 C146.0 158.0 145.0 161.0 144.0 163.0 L128.0 152.0 L114.0 164.0 L100.0 152.0 L86.0 164.0 L72.0 152.0 L56.0 163.0 C55.0 161.0 54.0 158.0 53.0 155.0 L72.0 141.0 L86.0 150.0 L100.0 142.0 L100.0 142.0 Z"></path></svg>