<svg xmlns="http://www.w3.org/2000/svg" viewBox="0.0 0.0 200.0 200.0" height="200px" width="200px"><path fill="#229977" fill-opacity="1.0"  filling="0" d="M100.0 13.0 C104.0 13.0 109.0 26.0 109.0 48.0 C109.0 71.0 104.0 85.0 100.0 85.0 C96.0 85.0 91.0 71.0 91.0 48.0 C91.0 26.0 96.0 13.0 100.0 13.0 L100.0 13.0 Z"></path>
<path fill="#229977" fill-opacity="1.0"  filling="0" d="M100.0 71.0 C121.0 71.0 136.0 60.0 149.0 49.0 C152.0 47.0 150.0 44.0 147.0 44.0 C129.0 44.0 112.0 54.0 100.0 71.0 L100.0 71.0 Z"></path>
<path fill="#229977" fill-opacity="1.0"  filling="0" d="M100.0 71.0 C88.0 54.0 71.0 44.0 53.0 44.0 C50.0 44.0 48.0 47.0 51.0 49.0 C64.0 60.0 79.0 71.0 100.0 71.0 L100.0 71.0 Z"></path>
<path fill="#229977" fill-opacity="1.0"  filling="0" d="M100.0 71.0 C79.0 71.0 64.0 81.0 55.0 97.0 C54.0 99.0 56.0 102.0 59.0 102.0 C79.0 102.0 91.0 91.0 100.0 71.0 L100.0 71.0 Z"></path>
<path fill="#229977" fill-opacity="1.0"  filling="0" d="M100.0 71.0 C109.0 91.0 121.0 102.0 141.0 102.0 C144.0 102.0 146.0 99.0 145.0 97.0 C136.0 81.0 121.0 71.0 100.0 71.0 L100.0 71.0 Z"></path>
<path fill="#229977" fill-opacity="1.0"  filling="0" d="M100.0 71.0 C88.0 91.0 79.0 106.0 62.0 122.0 C60.0 124.0 62.0 127.0 65.0 127.0 C83.0 127.0 94.0 113.0 100.0 71.0 L100.0 71.0 Z"></path>
<path fill="#229977" fill-opacity="1.0"  filling="0" d="M100.0 71.0 C106.0 113.0 117.0 127.0 135.0 127.0 C138.0 127.0 140.0 124.0 138.0 122.0 C121.0 106.0 112.0 91.0 100.0 71.0 L100.0 71.0 Z"></path>
<path fill="#ee8800" fill-opacity="1.0"  filling="0" d="M100.0 71.0 C94.0 91.0 88.0 106.0 74.0 122.0 C73.0 124.0 74.0 127.0 77.0 127.0 C92.0 127.0 106.0 113.0 100.0 71.0 L100.0 71.0 Z"></path>
<path fill="#ee8800" fill-opacity="1.0"  filling="0" d="M100.0 71.0 C94.0 113.0 92.0 127.0 86.0 137.0 C85.0 139.0 86.0 142.0 89.0 142.0 C93.0 142.0 97.0 139.0 100.0 136.0 C103.0 139.0 107.0 142.0 111.0 142.0 C114.0 142.0 115.0 139.0 114.0 137.0 C108.0 127.0 106.0 113.0 100.0 71.0 L100.0 71.0 Z"></path>
<path fill="#ee8800" fill-opacity="1.0"  filling="0" d="M100.0 71.0 C106.0 113.0 108.0 127.0 114.0 137.0 C115.0 139.0 114.0 142.0 111.0 142.0 C107.0 142.0 103.0 139.0 100.0 136.0 C97.0 139.0 93.0 142.0 89.0 142.0 C86.0 142.0 85.0 139.0 86.0 137.0 C92.0 127.0 94.0 113.0 100.0 71.0 L100.0 71.0 Z"></path>
<path fill="#ee8800" fill-opacity="1.0"  filling="0" d="M100.0 71.0 C94.0 113.0 92.0 127.0 86.0 137.0 C85.0 139.0 86.0 142.0 89.0 142.0 C93.0 142.0 97.0 139.0 100.0 136.0 C103.0 139.0 107.0 142.0 111.0 142.0 C114.0 142.0 115.0 139.0 114.0 137.0 C108.0 127.0 106.0 113.0 100.0 71.0 L100.0 71.0 Z"></path>
<path fill="#229977" fill-opacity="1.0"  filling="0" d="M100.0 85.0 C96.0 85.0 91.0 71.0 91.0 48.0 C91.0 26.0 96.0 13.0 100.0 13.0 L100.0 85.0 L100.0 85.0 Z"></path>
<path fill="#229977" fill-opacity="1.0"  filling="0" d="M100.0 71.0 C79.0 71.0 64.0 81.0 55.0 97.0 C54.0 99.0 56.0 102.0 59.0 102.0 C79.0 102.0 91.0 91.0 100.0 71.0 L100.0 71.0 Z"></path>
<path fill="#ee8800" fill-opacity="1.0"  filling="0" d="M100.0 71.0 C108.0 91.0 112.0 106.0 126.0 122.0 C127.0 124.0 126.0 127.0 123.0 127.0 C108.0 127.0 94.0 113.0 100.0 71.0 L100.0 71.0 Z"></path>
<path fill="#ee8800" fill-opacity="1.0"  filling="0" d="M100.0 71.0 C106.0 113.0 108.0 127.0 114.0 137.0 C115.0 139.0 114.0 142.0 111.0 142.0 C107.0 142.0 103.0 139.0 100.0 136.0 C97.0 139.0 93.0 142.0 89.0 142.0 C86.0 142.0 85.0 139.0 86.0 137.0 C92.0 127.0 94.0 113.0 100.0 71.0 L100.0 71.0 Z"></path>
<path fill="#ffbb44" fill-opacity="1.0"  filling="0" d="M100.0 115.0 L100.0 115.0 L100.0 115.0 L100.0 115.0 L100.0 115.0 Z"></path>
<path fill="#ee8800" fill-opacity="1.0"  filling="0" d="M100.0 71.0 C92.0 109.0 83.0 127.0 65.0 127.0 C62.0 127.0 60.0 124.0 62.0 122.0 C79.0 106.0 88.0 91.0 100.0 71.0 L100.0 71.0 Z"></path>
<path fill="#229977" fill-opacity="1.0"  filling="0" d="M100.0 85.0 L100.0 13.0 C96.0 13.0 91.0 26.0 91.0 48.0 C91.0 71.0 96.0 85.0 100.0 85.0 L100.0 85.0 Z"></path>
<path fill="#ffbb44" fill-opacity="1.0"  filling="0" d="M9.0 9.0 L9.0 9.0 L9.0 9.0 L9.0 9.0 L9.0 9.0 Z"></path>
<path fill="#ffbb44" fill-opacity="1.0"  filling="0" d="M9.0 9.0 L9.0 9.0 L9.0 9.0 L9.0 9.0 L9.0 9.0 Z"></path>
<path fill="#ffbb44" fill-opacity="1.0"  filling="0" d="M9.0 9.0 L9.0 9.0 L9.0 9.0 L9.0 9.0 L9.0 9.0 Z"></path>
<path fill="#ffbb44" fill-opacity="1.0"  filling="0" d="M9.0 9.0 L9.0 9.0 L9.0 9.0 L9.0 9.0 L9.0 9.0 Z"></path>
<path fill="#ffbb44" fill-opacity="1.0"  filling="0" d="M9.0 9.0 L9.0 9.0 L9.0 9.0 L9.0 9.0 L9.0 9.0 Z"></path>
<path fill="#ffbb44" fill-opacity="1.0"  filling="0" d="M9.0 9.0 L9.0 9.0 L9.0 9.0 L9.0 9.0 L9.0 9.0 Z"></path>
<path fill="#ffbb44" fill-opacity="1.0"  filling="0" d="M9.0 9.0 L9.0 9.0 L9.0 9.0 L9.0 9.0 L9.0 9.0 Z"></path>
<path fill="#ffbb44" fill-opacity="1.0"  filling="0" d="M9.0 9.0 L9.0 9.0 L9.0 9.0 L9.0 9.0 L9.0 9.0 Z"></path>
<path fill="#ffbb44" fill-opacity="1.0"  filling="0" d="M9.0 9.0 L9.0 9.0 L9.0 9.0 L9.0 9.0 L9.0 9.0 Z"></path>
<path fill="#ffbb44" fill-opacity="1.0"  filling="0" d="M9.0 9.0 L9.0 9.0 L9.0 9.0 L9.0 9.0 L9.0 9.0 Z"></path>
<path fill="#ffbb44" fill-opacity="1.0"  filling="0" d="M9.0 9.0 L9.0 9.0 L9.0 9.0 L9.0 9.0 L9.0 9.0 Z"></path>
<path fill="#ffbb44" fill-opacity="1.0"  filling="0" d="M9.0 9.0 L9.0 9.0 L9.0 9.0 L9.0 9.0 L9.0 9.0 Z"></path>
<path fill="#ffbb44" fill-opacity="1.0"  filling="0" d="M9.0 9.0 L9.0 9.0 L9.0 9.0 L9.0 9.0 L9.0 9.0 Z"></path>
<path fill="#ffbb44" fill-opacity="1.0"  filling="0" d="M9.0 9.0 L9.0 9.0 L9.0 9.0 L9.0 9.0 L9.0 9.0 Z"></path>
<path fill="#ffbb44" fill-opacity="1.0"  filling="0" d="M9.0 9.0 L9.0 9.0 L9.0 9.0 L9.0 9.0 L9.0 9.0 Z"></path>
<path fill="#ffbb44" fill-opacity="1.0"  filling="0" d="M9.0 9.0 L9.0 9.0 L9.0 9.0 L9.0 9.0 L9.0 9.0 Z"></path>
<path fill="#ffbb44" fill-opacity="1.0"  filling="0" d="M9.0 9.0 L9.0 9.0 L9.0 9.0 L9.0 9.0 L9.0 9.0 Z"></path>
<path fill="#ffbb44" fill-opacity="1.0"  filling="0" d="M9.0 9.0 L9.0 9.0 L9.0 9.0 L9.0 9.0 L9.0 9.0 Z"></path>
<path fill="#ffbb44" fill-opacity="1.0"  filling="0" d="M9.0 9.0 L9.0 9.0 L9.0 9.0 L9.0 9.0 L9.0 9.0 Z"></path>
<path fill="#ffbb44" fill-opacity="1.0"  filling="0" d="M9.0 9.0 L9.0 9.0 L9.0 9.0 L9.0 9.0 L9.0 9.0 Z"></path>
<path fill="#ffbb44" fill-opacity="1.0"  filling="0" d="M9.0 9.0 L9.0 9.0 L9.0 9.0 L9.0 9.0 L9.0 9.0 Z"></path>
<path fill="#ffbb44" fill-opacity="1.0"  filling="0" d="M9.0 9.0 L9.0 9.0 L9.0 9.0 L9.0 9.0 L9.0 9.0 Z"></path>
<path fill="#ffbb44" fill-opacity="1.0"  filling="0" d="M9.0 9.0 L9.0 9.0 L9.0 9.0 L9.0 9.0 L9.0 9.0 Z"></path>
<path fill="#ffbb44" fill-opacity="1.0"  filling="0" d="M9.0 9.0 L9.0 9.0 L9.0 9.0 L9.0 9.0 L9.0 9.0 Z"></path>
<path fill="#ffbb44" fill-opacity="1.0"  filling="0" d="M9.0 9.0 L9.0 9.0 L9.0 9.0 L9.0 9.0 L9.0 9.0 Z"></path>
<path fill="#ffbb44" fill-opacity="1.0"  filling="0" d="M9.0 9.0 L9.0 9.0 L9.0 9.0 L9.0 9.0 L9.0 9.0 Z"></path>
<path fill="#ffbb44" fill-opacity="1.0"  filling="0" d="M9.0 9.0 L9.0 9.0 L9.0 9.0 L9.0 9.0 L9.0 9.0 Z"></path>
<path fill="#ffbb44" fill-opacity="1.0"  filling="0" d="M9.0 9.0 L9.0 9.0 L9.0 9.0 L9.0 9.0 L9.0 9.0 Z"></path>
<path fill="#ffbb44" fill-opacity="1.0"  filling="0" d="M9.0 9.0 L9.0 9.0 L9.0 9.0 L9.0 9.0 L9.0 9.0 Z"></path>
<path fill="#ffbb44" fill-opacity="1.0"  filling="0" d="M9.0 9.0 L9.0 9.0 L9.0 9.0 L9.0 9.0 L9.0 9.0 Z"></path>
<path fill="#ffbb44" fill-opacity="1.0"  filling="0" d="M9.0 9.0 L9.0 9.0 L9.0 9.0 L9.0 9.0 L9.0 9.0 Z"></path>
<path fill="#ffbb44" fill-opacity="1.0"  filling="0" d="M9.0 9.0 L9.0 9.0 L9.0 9.0 L9.0 9.0 L9.0 9.0 Z"></path>
<path fill="#ffbb44" fill-opacity="1.0"  filling="0" d="M9.0 9.0 L9.0 9.0 L9.0 9.0 L9.0 9.0 L9.0 9.0 Z"></path>
<path fill="#ffbb44" fill-opacity="1.0"  filling="0" d="M9.0 9.0 L9.0 9.0 L9.0 9.0 L9.0 9.0 L9.0 9.0 Z"></path>
<path fill="#ffbb44" fill-opacity="1.0"  filling="0" d="M9.0 9.0 L9.0 9.0 L9.0 9.0 L9.0 9.0 L9.0 9.0 Z"></path>
<path fill="#ffbb44" fill-opacity="1.0"  filling="0" d="M9.0 9.0 L9.0 9.0 L9.0 9.0 L9.0 9.0 L9.0 9.0 Z"></path>
<path fill="#ffbb44" fill-opacity="1.0"  filling="0" d="M9.0 9.0 L9.0 9.0 L9.0 9.0 L9.0 9.0 L9.0 9.0 Z"></path>
<path fill="#ffbb44" fill-opacity="1.0"  filling="0" d="M9.0 9.0 L9.0 9.0 L9.0 9.0 L9.0 9.0 L9.0 9.0 Z"></path>
<path fill="#ffbb44" fill-opacity="1.0"  filling="0" d="M9.0 9.0 L9.0 9.0 L9.0 9.0 L9.0 9.0 L9.0 9.0 Z"></path>
<path fill="#ffbb44" fill-opacity="1.0"  filling="0" d="M9.0 9.0 L9.0 9.0 L9.0 9.0 L9.0 9.0 L9.0 9.0 Z"></path>
<path fill="#ffbb44" fill-opacity="1.0"  filling="0" d="M9.0 9.0 L9.0 9.0 L9.0 9.0 L9.0 9.0 L9.0 9.0 Z"></path>
<path fill="#ffbb44" fill-opacity="1.0"  filling="0" d="M9.0 9.0 L9.0 9.0 L9.0 9.0 L9.0 9.0 L9.0 9.0 Z"></path>
<path fill="#ffbb44" fill-opacity="1.0"  filling="0" d="M9.0 9.0 L9.0 9.0 L9.0 9.0 L9.0 9.0 L9.0 9.0 Z"></path>
<path fill="#ffbb44" fill-opacity="1.0"  filling="0" d="M9.0 9.0 L9.0 9.0 L9.0 9.0 L9.0 9.0 L9.0 9.0 Z"></path>
<path fill="#ffbb44" fill-opacity="1.0"  filling="0" d="M9.0 9.0 L9.0 9.0 L9.0 9.0 L9.0 9.0 L9.0 9.0 Z"></path>
<path fill="#ffbb44" fill-opacity="1.0"  filling="0" d="M9.0 9.0 L9.0 9.0 L9.0 9.0 L9.0 9.0 L9.0 9.0 Z"></path>
<path fill="#ffbb44" fill-opacity="1.0"  filling="0" d="M9.0 9.0 L9.0 9.0 L9.0 9.0 L9.0 9.0 L9.0 9.0 Z"></path>
<path fill="#ffbb44" fill-opacity="1.0"  filling="0" d="M9.0 9.0 L9.0 9.0 L9.0 9.0 L9.0 9.0 L9.0 9.0 Z"></path>
<path fill="#ffbb44" fill-opacity="1.0"  filling="0" d="M9.0 9.0 L9.0 9.0 L9.0 9.0 L9.0 9.0 L9.0 9.0 Z"></path>
<path fill="#ffbb44" fill-opacity="1.0"  filling="0" d="M9.0 9.0 L9.0 9.0 L9.0 9.0 L9.0 9.0 L9.0 9.0 Z"></path>
<path fill="#ffbb44" fill-opacity="1.0"  filling="0" d="M9.0 9.0 L9.0 9.0 L9.0 9.0 L9.0 9.0 L9.0 9.0 Z"></path>
<path fill="#ffbb44" fill-opacity="1.0"  filling="0" d="M9.0 9.0 L9.0 9.0 L9.0 9.0 L9.0 9.0 L9.0 9.0 Z"></path>
<path fill="#ffbb44" fill-opacity="1.0"  filling="0" d="M9.0 9.0 L9.0 9.0 L9.0 9.0 L9.0 9.0 L9.0 9.0 Z"></path>
<path fill="#ffbb44" fill-opacity="1.0"  filling="0" d="M9.0 9.0 L9.0 9.0 L9.0 9.0 L9.0 9.0 L9.0 9.0 Z"></path>
<path fill="#000000" fill-opacity="1.0"  filling="0" d="M9.0 9.0 L9.0 9.0 L9.0 9.0 L9.0 9.0 L9.0 9.0 Z"></path></svg>