<svg xmlns="http://www.w3.org/2000/svg" viewBox="0.0 0.0 200.0 200.0" height="200px" width="200px"><path fill="#ffdd44" fill-opacity="1.0"  filling="0" d="M63.0 178.0 C62.0 178.0 62.0 178.0 61.0 177.0 C61.0 177.0 60.0 176.0 60.0 175.0 C61.0 168.0 61.0 160.0 61.0 158.0 C61.0 156.0 61.0 154.0 61.0 152.0 C61.0 141.0 68.0 132.0 75.0 126.0 C76.0 125.0 77.0 125.0 78.0 126.0 C78.0 127.0 78.0 128.0 78.0 129.0 C71.0 135.0 64.0 143.0 64.0 152.0 C64.0 154.0 64.0 156.0 64.0 158.0 C64.0 160.0 64.0 167.0 64.0 174.0 C71.0 173.0 82.0 170.0 88.0 164.0 C92.0 162.0 94.0 158.0 96.0 154.0 C98.0 151.0 99.0 147.0 100.0 143.0 C100.0 142.0 101.0 141.0 102.0 141.0 C103.0 141.0 104.0 142.0 104.0 143.0 C103.0 148.0 101.0 152.0 99.0 156.0 C97.0 160.0 94.0 164.0 91.0 167.0 C83.0 173.0 68.0 178.0 63.0 178.0 C63.0 178.0 63.0 178.0 63.0 178.0 L63.0 178.0 Z M56.0 140.0 C56.0 140.0 56.0 140.0 55.0 140.0 C41.0 131.0 30.0 116.0 27.0 99.0 C24.0 83.0 27.0 67.0 34.0 53.0 C41.0 41.0 51.0 31.0 63.0 25.0 C73.0 20.0 83.0 18.0 92.0 19.0 C93.0 20.0 94.0 20.0 94.0 21.0 C94.0 22.0 94.0 23.0 93.0 24.0 C87.0 30.0 80.0 36.0 74.0 43.0 C69.0 49.0 65.0 56.0 63.0 64.0 C61.0 73.0 62.0 83.0 65.0 93.0 C66.0 94.0 65.0 95.0 64.0 95.0 C63.0 96.0 62.0 95.0 62.0 94.0 C58.0 84.0 57.0 73.0 60.0 63.0 C62.0 55.0 66.0 47.0 71.0 41.0 C76.0 35.0 82.0 29.0 88.0 23.0 C78.0 22.0 68.0 26.0 62.0 29.0 C53.0 34.0 44.0 43.0 37.0 55.0 C30.0 68.0 28.0 83.0 31.0 98.0 C33.0 114.0 43.0 128.0 57.0 137.0 C58.0 137.0 59.0 139.0 58.0 139.0 C58.0 140.0 57.0 140.0 56.0 140.0 L56.0 140.0 Z"></path>
<path fill="#ffdd44" fill-opacity="1.0"  filling="0" d="M76.0 159.0 C76.0 159.0 75.0 159.0 75.0 158.0 C72.0 155.0 72.0 150.0 74.0 146.0 C75.0 142.0 78.0 136.0 81.0 132.0 C82.0 131.0 83.0 131.0 84.0 131.0 C84.0 132.0 85.0 133.0 84.0 134.0 C81.0 138.0 78.0 143.0 77.0 147.0 C76.0 150.0 76.0 153.0 77.0 155.0 C81.0 154.0 86.0 151.0 90.0 148.0 C92.0 146.0 93.0 143.0 94.0 140.0 C94.0 139.0 95.0 138.0 96.0 139.0 C97.0 139.0 97.0 140.0 97.0 141.0 C96.0 144.0 94.0 148.0 92.0 150.0 C88.0 154.0 82.0 158.0 77.0 159.0 C77.0 159.0 77.0 159.0 76.0 159.0 L76.0 159.0 Z M124.0 153.0 C123.0 153.0 122.0 153.0 122.0 152.0 L113.0 135.0 C113.0 134.0 113.0 133.0 114.0 133.0 C115.0 132.0 116.0 133.0 116.0 134.0 L124.0 150.0 L137.0 131.0 C137.0 126.0 136.0 119.0 134.0 113.0 C134.0 112.0 134.0 111.0 135.0 111.0 C136.0 110.0 137.0 111.0 138.0 112.0 C140.0 119.0 141.0 126.0 141.0 131.0 C141.0 132.0 141.0 132.0 141.0 133.0 L126.0 152.0 C125.0 153.0 125.0 153.0 124.0 153.0 L124.0 153.0 Z M64.0 96.0 C63.0 96.0 62.0 95.0 62.0 94.0 C59.0 84.0 58.0 73.0 60.0 63.0 C62.0 55.0 66.0 47.0 70.0 41.0 C76.0 35.0 82.0 29.0 89.0 22.0 C90.0 22.0 91.0 22.0 92.0 23.0 C92.0 23.0 92.0 24.0 92.0 25.0 C86.0 30.0 80.0 36.0 75.0 43.0 C69.0 49.0 65.0 56.0 63.0 64.0 C61.0 73.0 62.0 83.0 65.0 93.0 C66.0 94.0 65.0 95.0 64.0 95.0 C64.0 96.0 64.0 96.0 64.0 96.0 L64.0 96.0 Z"></path>
<path fill="#000000" fill-opacity="1.0"  filling="0" d="M115.0 138.0 C114.0 138.0 114.0 138.0 114.0 138.0 L81.0 115.0 C81.0 114.0 80.0 114.0 80.0 113.0 C80.0 112.0 80.0 111.0 81.0 110.0 C81.0 110.0 81.0 110.0 81.0 110.0 C81.0 109.0 81.0 109.0 81.0 109.0 C81.0 109.0 81.0 109.0 81.0 109.0 L81.0 109.0 C81.0 109.0 81.0 109.0 81.0 109.0 L81.0 109.0 C81.0 109.0 81.0 109.0 81.0 109.0 L81.0 109.0 C81.0 109.0 81.0 109.0 81.0 109.0 L81.0 109.0 C81.0 109.0 81.0 109.0 81.0 109.0 L81.0 109.0 C81.0 109.0 81.0 109.0 81.0 109.0 L81.0 109.0 C81.0 109.0 81.0 109.0 81.0 109.0 L81.0 109.0 C81.0 109.0 81.0 109.0 81.0 109.0 L81.0 109.0 C81.0 109.0 81.0 109.0 81.0 109.0 L81.0 109.0 C81.0 109.0 81.0 109.0 81.0 109.0 L81.0 109.0 C81.0 109.0 81.0 109.0 81.0 109.0 L81.0 109.0 C81.0 109.0 81.0 109.0 81.0 109.0 L81.0 109.0 C81.0 109.0 81.0 109.0 81.0 109.0 L81.0 109.0 C81.0 109.0 81.0 109.0 81.0 109.0 L81.0 109.0 C81.0 109.0 81.0 109.0 81.0 109.0 L81.0 109.0 C81.0 109.0 81.0 109.0 81.0 109.0 L81.0 109.0 C81.0 109.0 81.0 109.0 81.0 109.0 L81.0 109.0 C81.0 109.0 81.0 109.0 81.0 109.0 L81.0 109.0 C81.0 109.0 81.0 109.0 81.0 109.0 L81.0 109.0 C81.0 109.0 81.0 109.0 81.0 109.0 L81.0 109.0 C81.0 109.0 81.0 109.0 81.0 109.0 L81.0 109.0 C81.0 109.0 81.0 109.0 81.0 109.0 L81.0 109.0 C81.0 109.0 81.0 109.0 81.0 109.0 L81.0 109.0 C81.0 109.0 81.0 109.0 81.0 109.0 L81.0 109.0 C81.0 109.0 81.0 109.0 81.0 109.0 L81.0 109.0 C81.0 109.0 81.0 109.0 81.0 109.0 L81.0 109.0 C81.0 109.0 81.0 109.0 81.0 109.0 L81.0 109.0 C81.0 109.0 81.0 109.0 81.0 109.0 L81.0 109.0 C81.0 109.0 81.0 109.0 81.0 109.0 L81.0 109.0 C81.0 109.0 81.0 109.0 81.0 109.0 L81.0 109.0 C81.0 109.0 81.0 109.0 81.0 109.0 L81.0 109.0 C81.0 109.0 81.0 109.0 81.0 109.0 L81.0 109.0 C81.0 109.0 81.0 109.0 81.0 109.0 L81.0 109.0 C81.0 109.0 81.0 109.0 81.0 109.0 L81.0 109.0 C81.0 109.0 81.0 109.0 81.0 109.0 L81.0 109.0 C81.0 109.0 81.0 109.0 81.0 109.0 L81.0 109.0 C81.0 109.0 81.0 109.0 81.0 109.0 L81.0 109.0 C81.0 109.0 81.0 109.0 81.0 109.0 L81.0 109.0 C81.0 109.0 81.0 109.0 81.0 109.0 L81.0 109.0 C81.0 109.0 81.0 109.0 81.0 109.0 L81.0 109.0 C81.0 109.0 81.0 109.0 81.0 109.0 L81.0 109.0 C81.0 109.0 81.0 109.0 81.0 109.0 L81.0 109.0 C81.0 109.0 81.0 109.0 81.0 109.0 L81.0 109.0 C81.0 109.0 81.0 109.0 81.0 109.0 L81.0 109.0 C81.0 109.0 81.0 109.0 81.0 109.0 L81.0 109.0 C81.0 109.0 81.0 109.0 81.0 109.0 L81.0 109.0 C81.0 109.0 81.0 109.0 81.0 109.0 L81.0 109.0 C81.0 109.0 81.0 109.0 81.0 109.0 L81.0 109.0 C81.0 109.0 81.0 109.0 81.0 109.0 L81.0 109.0 C81.0 109.0 81.0 109.0 81.0 109.0 L81.0 109.0 C81.0 109.0 81.0 109.0 81.0 109.0 L81.0 109.0 C81.0 109.0 81.0 109.0 81.0 109.0 L81.0 109.0 C81.0 109.0 81.0 109.0 81.0 109.0 L81.0 109.0 C81.0 109.0 81.0 109.0 81.0 109.0 L81.0 109.0 C81.0 109.0 81.0 109.0 81.0 109.0 L81.0 109.0 C81.0 109.0 81.0 109.0 81.0 109.0 L81.0 109.0 C81.0 109.0 81.0 109.0 81.0 109.0 L81.0 109.0 C81.0 109.0 81.0 109.0 81.0 109.0 L81.0 109.0 C81.0 109.0 81.0 109.0 81.0 109.0 L81.0 109.0 C81.0 109.0 81.0 109.0 81.0 109.0 L81.0 109.0 C81.0 109.0 81.0 109.0 81.0 109.0 L81.0 109.0 C81.0 109.0 81.0 109.0 81.0 109.0 L81.0 109.0 C81.0 109.0 81.0 109.0 81.0 109.0 L81.0 109.0 C81.0 109.0 81.0 109.0 81.0 109.0 L81.0 109.0 C81.0 109.0 81.0 109.0 81.0 109.0 L81.0 109.0 C81.0 109.0 81.0 109.0 81.0 109.0 L81.0 109.0 C81.0 109.0 81.0 109.0 81.0 109.0 L81.0 109.0 C81.0 109.0 81.0 109.0 81.0 109.0 L81.0 109.0 C81.0 109.0 81.0 109.0 81.0 109.0 L81.0 109.0 C81.0 109.0 81.0 109.0 81.0 109.0 L81.0 109.0 C81.0 109.0 81.0 109.0 81.0 109.0 L81.0 109.0 C81.0 109.0 81.0 109.0 81.0 109.0 L81.0 109.0 C81.0 109.0 81.0 109.0 81.0 109.0 L81.0 109.0 C81.0 109.0 81.0 109.0 81.0 109.0 L81.0 109.0 C81.0 109.0 81.0 109.0 81.0 109.0 L81.0 109.0 C81.0 109.0 81.0 109.0 81.0 109.0 L81.0 109.0 C81.0 109.0 81.0 109.0 81.0 109.0 L81.0 109.0 C81.0 109.0 81.0 109.0 81.0 109.0 L81.0 109.0 C81.0 109.0 81.0 109.0 81.0 109.0 L81.0 109.0 C81.0 109.0 81.0 109.0 81.0 109.0 L81.0 109.0 C81.0 109.0 81.0 109.0 81.0 109.0 L81.0 109.0 C81.0 109.0 81.0 109.0 81.0 109.0 L81.0 109.0 C81.0 109.0 81.0 109.0 81.0 109.0 L81.0 109.0 C81.0 109.0 81.0 109.0 81.0 109.0 L81.0 109.0 C81.0 109.0 81.0 109.0 81.0 109.0 L81.0 109.0 C81.0 109.0 81.0 109.0 81.0 109.0 L81.0 109.0 C81.0 109.0 81.0 109.0 81.0 109.0 L81.0 109.0 C81.0 109.0 81.0 109.0 81.0 109.0 L81.0 109.0 C81.0 109.0 81.0 109.0 81.0 109.0 L81.0 109.0 C81.0 109.0 81.0 109.0 81.0 109.0 L81.0 109.0 C81.0 109.0 81.0 109.0 81.0 109.0 L81.0 109.0 C81.0 109.0 81.0 109.0 81.0 109.0 L81.0 109.0 C81.0 109.0 81.0 109.0 81.0 109.0 L81.0 109.0 C81.0 109.0 81.0 109.0 81.0 109.0 L81.0 109.0 C81.0 109.0 81.0 109.0 81.0 109.0 L81.0 109.0 C81.0 109.0 81.0 109.0 81.0 109.0 L81.0 109.0 C81.0 109.0 81.0 109.0 81.0 109.0 L81.0 109.0 C81.0 109.0 81.0 109.0 81.0 109.0 L81.0 109.0 C81.0 109.0 81.0 109.0 81.0 109.0 L81.0 109.0 C81.0 109.0 81.0 109.0 81.0 109.0 L81.0 109.0 C81.0 109.0 81.0 109.0 81.0 109.0 L81.0 109.0 C81.0 109.0 81.0 109.0 81.0 109.0 L81.0 109.0 C81.0 109.0 81.0 109.0 81.0 109.0 L81.0 109.0 C81.0 109.0 81.0 109.0 81.0 109.0 L81.0 109.0 C81.0 109.0 81.0 109.0 81.0 109.0 L81.0 109.0 C81.0 109.0 81.0 109.0 81.0 109.0 L81.0 109.0 C81.0 109.0 81.0 109.0 81.0 109.0 L81.0 109.0 C81.0 109.0 81.0 109.0 81.0 109.0 L81.0 109.0 C81.0 109.0 81.0 109.0 81.0 109.0 L81.0 109.0 C81.0 109.0 81.0 109.0 81.0 109.0 L81.0 109.0 C81.0 109.0 81.0 109.0 81.0 109.0 L81.0 109.0 C81.0 109.0 81.0 109.0 81.0 109.0 L81.0 109.0 C81.0 109.0 81.0 109.0 81.0 109.0 L81.0 109.0 C81.0 109.0 81.0 109.0 81.0 109.0 L81.0 109.0 C81.0 109.0 81.0 109.0 81.0 109.0 L81.0 109.0 C81.0 109.0 81.0 109.0 81.0 109.0 L81.0 109.0 C81.0 109.0 81.0 109.0 81.0 109.0 L81.0 109.0 C81.0 109.0 81.0 109.0 81.0 109.0 L81.0 109.0 C81.0 109.0 81.0 109.0 81.0 109.0 L81.0 109.0 C81.0 109.0 81.0 109.0 81.0 109.0 L81.0 109.0 C81.0 109.0 81.0 109.0 81.0 109.0 L81.0 109.0 C81.0 109.0 81.0 109.0 81.0 109.0 L81.0 109.0 C81.0 109.0 81.0 109.0 81.0 109.0 L81.0 109.0 C81.0 109.0 81.0 109.0 81.0 109.0 L81.0 109.0 C81.0 109.0 81.0 109.0 81.0 109.0 L81.0 109.0 C81.0 109.0 81.0 109.0 81.0 109.0 L81.0 109.0 C81.0 109.0 81.0 109.0 81.0 109.0 L81.0 109.0 C81.0 109.0 81.0 109.0 81.0 109.0 L81.0 109.0 C81.0 109.0 81.0 109.0 81.0 109.0 L81.0 109.0 C81.0 109.0 81.0 109.0 81.0 109.0 L81.0 109.0 C81.0 109.0 81.0 109.0 81.0 109.0 L81.0 109.0 C81.0 109.0 81.0 109.0 81.0 109.0 L81.0 109.0 C81.0 109.0 81.0 109.0 81.0 109.0 L81.0 109.0 C81.0 109.0 81.0 109.0 81.0 109.0 L81.0 109.0 C81.0 109.0 81.0 109.0 81.0 109.0 L81.0 109.0 C81.0 109.0 81.0 109.0 81.0 109.0 L81.0 109.0 C81.0 109.0 81.0 109.0 81.0 109.0 L81.0 109.0 C81.0 109.0 81.0 109.0 81.0 109.0 L81.0 109.0 C81.0 109.0 81.0 109.0 81.0 109.0 L81.0 109.0 C81.0 109.0 81.0 109.0 81.0 109.0 L81.0 109.0 C81.0 109.0 81.0 109.0 81.0 109.0 L81.0 109.0 C81.0 109.0 81.0 109.0 81.0 109.0 L81.0 109.0 C81.0 109.0 81.0 109.0 81.0 109.0 L81.0 109.0 C81.0 109.0 81.0 109.0 81.0 109.0 L81.0 109.0 C81.0 109.0 81.0 109.0 81.0 109.0 L81.0 109.0 C81.0 109.0 81.0 109.0 81.0 109.0 L81.0 109.0 C81.0 109.0 81.0 109.0 81.0 109.0 L81.0 109.0 C81.0 109.0 81.0 109.0 81.0 109.0 L81.0 109.0 C81.0 109.0 81.0 109.0 81.0 109.0 L81.0 109.0 C81.0 109.0 81.0 109.0 81.0 109.0 L81.0 109.0 C81.0 109.0 81.0 109.0 81.0 109.0 L81.0 109.0 C81.0 109.0 81.0 109.0 81.0 109.0 L81.0 109.0 C81.0 109.0 81.0 109.0 81.0 109.0 L81.0 109.0 C81.0 109.0 81.0 109.0 81.0 109.0 L81.0 109.0 C81.0 109.0 81.0 109.0 81.0 109.0 L81.0 109.0 C81.0 109.0 81.0 109.0 81.0 109.0 L81.0 109.0 C81.0 109.0 81.0 109.0 81.0 109.0 L81.0 109.0 C81.0 109.0 81.0 109.0 81.0 109.0 L81.0 109.0 C81.0 109.0 81.0 109.0 81.0 109.0 L81.0 109.0 C81.0 109.0 81.0 109.0 81.0 109.0 L81.0 109.0 C81.0 109.0 81.0 109.0 81.0 109.0 L81.0 109.0 C81.0 109.0 81.0 109.0 81.0 109.0 L81.0 109.0 C81.0 109.0 81.0 109.0 81.0 109.0 L81.0 109.0 C81.0 109.0 81.0 109.0 81.0 109.0 L81.0 109.0 C81.0 109.0 81.0 109.0 81.0 109.0 L81.0 109.0 C81.0 109.0 81.0 109.0 81.0 109.0 L81.0 109.0 C81.0 109.0 81.0 109.0 81.0 109.0 L81.0 109.0 C81.0 109.0 81.0 109.0 81.0 109.0 L81.0 109.0 C81.0 109.0 81.0 109.0 81.0 109.0 L81.0 109.0 C81.0 109.0 81.0 109.0 81.0 109.0 L81.0 109.0 C81.0 109.0 81.0 109.0 81.0 109.0 L81.0 109.0 C81.0 109.0 81.0 109.0 81.0 109.0 L81.0 109.0 C81.0 109.0 81.0 109.0 81.0 109.0 L81.0 109.0 C81.0 109.0 81.0 109.0 81.0 109.0 L81.0 109.0 C81.0 109.0 81.0 109.0 81.0 109.0 L81.0 109.0 C81.0 109.0 81.0 109.0 81.0 109.0 L81.0 109.0 C81.0 109.0 81.0 109.0 81.0 109.0 L81.0 109.0 C81.0 109.0 81.0 109.0 81.0 109.0 L81.0 109.0 C81.0 109.0 81.0 109.0 81.0 109.0 L81.0 109.0 C81.0 109.0 81.0 109.0 81.0 109.0 L81.0 109.0 C81.0 109.0 81.0 109.0 81.0 109.0 L81.0 109.0 C81.0 109.0 81.0 109.0 81.0 109.0 L81.0 109.0 C81.0 109.0 81.0 109.0 81.0 109.0 L81.0 109.0 C81.0 109.0 81.0 109.0 81.0 109.0 L81.0 109.0 C81.0 109.0 81.0 109.0 81.0 109.0 L81.0 109.0 C81.0 109.0 81.0 109.0 81.0 109.0 L81.0 109.0 C81.0 109.0 81.0 109.0 81.0 109.0 L81.0 109.0 C81.0 109.0 81.0 109.0 81.0 109.0 L81.0 109.0 C81.0 109.0 81.0 109.0 81.0 109.0 L81.0 109.0 C81.0 109.0 81.0 109.0 81.0 109.0 L81.0 109.0"></path></svg>