<svg xmlns="http://www.w3.org/2000/svg" viewBox="0.0 0.0 200.0 200.0" height="200px" width="200px"><path fill="#ee8844" fill-opacity="1.0"  filling="0" d="M63.0 178.0 C62.0 178.0 62.0 178.0 61.0 177.0 C61.0 177.0 60.0 176.0 60.0 175.0 C61.0 168.0 61.0 160.0 61.0 154.0 C61.0 147.0 63.0 139.0 75.0 126.0 C76.0 125.0 77.0 125.0 78.0 126.0 C78.0 127.0 78.0 128.0 78.0 129.0 C66.0 140.0 65.0 148.0 64.0 154.0 C64.0 160.0 64.0 167.0 64.0 174.0 C71.0 173.0 82.0 170.0 88.0 164.0 C93.0 158.0 96.0 151.0 99.0 140.0 C99.0 139.0 100.0 138.0 101.0 139.0 C102.0 139.0 103.0 140.0 102.0 141.0 C100.0 152.0 96.0 160.0 90.0 167.0 C82.0 174.0 65.0 178.0 63.0 178.0 C63.0 178.0 63.0 178.0 63.0 178.0 L63.0 178.0 Z"></path>
<path fill="#ee8844" fill-opacity="1.0"  filling="0" d="M77.0 159.0 C76.0 159.0 75.0 158.0 75.0 158.0 C72.0 145.0 81.0 132.0 81.0 132.0 C82.0 131.0 83.0 131.0 84.0 131.0 C85.0 132.0 85.0 133.0 84.0 134.0 C84.0 134.0 75.0 146.0 78.0 156.0 C79.0 157.0 78.0 158.0 77.0 159.0 C77.0 159.0 77.0 159.0 77.0 159.0 L77.0 159.0 Z"></path>
<path fill="#ee8844" fill-opacity="1.0"  filling="0" d="M57.0 140.0 C57.0 140.0 56.0 140.0 56.0 140.0 C40.0 131.0 30.0 116.0 27.0 97.0 C25.0 79.0 29.0 61.0 39.0 46.0 C49.0 31.0 64.0 21.0 81.0 19.0 C83.0 19.0 85.0 19.0 87.0 19.0 C88.0 19.0 89.0 19.0 90.0 19.0 C92.0 19.0 93.0 20.0 94.0 21.0 C94.0 22.0 94.0 24.0 93.0 25.0 C74.0 26.0 61.0 40.0 57.0 60.0 C53.0 74.0 59.0 87.0 65.0 94.0 C66.0 95.0 66.0 96.0 65.0 96.0 C64.0 97.0 63.0 97.0 62.0 96.0 C56.0 88.0 49.0 74.0 54.0 59.0 C57.0 45.0 65.0 34.0 75.0 28.0 C61.0 32.0 50.0 39.0 42.0 49.0 C33.0 63.0 28.0 79.0 31.0 96.0 C33.0 115.0 42.0 129.0 58.0 137.0 C59.0 138.0 59.0 139.0 59.0 140.0 C58.0 140.0 58.0 140.0 57.0 140.0 L57.0 140.0 Z M124.0 153.0 C123.0 153.0 122.0 153.0 122.0 152.0 C121.0 152.0 121.0 151.0 121.0 150.0 C124.0 142.0 128.0 131.0 131.0 117.0 C136.0 103.0 139.0 88.0 139.0 75.0 C139.0 47.0 115.0 34.0 115.0 34.0 C114.0 33.0 113.0 32.0 114.0 31.0 C114.0 30.0 115.0 30.0 116.0 30.0 C117.0 31.0 143.0 45.0 143.0 75.0 C143.0 88.0 139.0 103.0 135.0 118.0 C131.0 132.0 127.0 143.0 125.0 152.0 C125.0 152.0 124.0 153.0 124.0 153.0 L124.0 153.0 Z"></path>
<path fill="#ee8844" fill-opacity="1.0"  filling="0" d="M103.0 137.0 C102.0 137.0 102.0 137.0 102.0 137.0 C102.0 137.0 92.0 119.0 82.0 111.0 C80.0 110.0 79.0 108.0 78.0 107.0 C72.0 106.0 63.0 107.0 63.0 107.0 C62.0 108.0 61.0 107.0 61.0 106.0 C60.0 105.0 61.0 104.0 62.0 104.0 C63.0 103.0 72.0 102.0 79.0 104.0 C81.0 105.0 83.0 107.0 85.0 109.0 C95.0 117.0 104.0 134.0 104.0 135.0 C105.0 136.0 105.0 137.0 104.0 137.0 C104.0 137.0 103.0 137.0 103.0 137.0 L103.0 137.0 Z"></path>
<path fill="#ee8844" fill-opacity="1.0"  filling="0" d="M82.0 113.0 C81.0 113.0 81.0 113.0 81.0 113.0 C80.0 112.0 80.0 111.0 81.0 110.0 C81.0 110.0 87.0 96.0 96.0 84.0 C104.0 74.0 111.0 64.0 117.0 57.0 C126.0 49.0 131.0 43.0 131.0 43.0 C132.0 42.0 133.0 42.0 134.0 43.0 C135.0 43.0 135.0 45.0 134.0 45.0 C134.0 46.0 129.0 51.0 120.0 60.0 C114.0 66.0 107.0 76.0 99.0 86.0 C90.0 98.0 84.0 112.0 83.0 112.0 C83.0 113.0 82.0 113.0 82.0 113.0 L82.0 113.0 Z"></path>
<path fill="#ee8844" fill-opacity="1.0"  filling="0" d="M161.0 70.0 C160.0 70.0 160.0 70.0 160.0 70.0 C160.0 70.0 147.0 63.0 135.0 56.0 C127.0 51.0 121.0 47.0 121.0 47.0 C120.0 46.0 120.0 45.0 120.0 44.0 C121.0 43.0 122.0 43.0 123.0 44.0 C123.0 44.0 129.0 48.0 137.0 53.0 C148.0 60.0 161.0 66.0 161.0 66.0 C162.0 66.0 163.0 68.0 162.0 69.0 C162.0 69.0 161.0 70.0 161.0 70.0 L161.0 70.0 Z"></path>
<path fill="#ee8844" fill-opacity="1.0"  filling="0" d="M116.0 138.0 C116.0 138.0 115.0 138.0 115.0 137.0 C114.0 137.0 114.0 136.0 115.0 135.0 L135.0 111.0 C135.0 111.0 136.0 111.0 137.0 111.0 C138.0 112.0 138.0 113.0 137.0 114.0 L118.0 137.0 C117.0 137.0 117.0 138.0 116.0 138.0 L116.0 138.0 Z"></path>
<path fill="#ee8844" fill-opacity="1.0"  filling="0" d="M129.0 95.0 C121.0 95.0 114.0 88.0 114.0 80.0 C114.0 72.0 121.0 65.0 129.0 65.0 C137.0 65.0 143.0 72.0 143.0 80.0 C143.0 88.0 137.0 95.0 129.0 95.0 L129.0 95.0 Z M129.0 68.0 C123.0 68.0 117.0 74.0 117.0 80.0 C117.0 86.0 123.0 92.0 129.0 92.0 C135.0 92.0 140.0 86.0 140.0 80.0 C140.0 74.0 135.0 68.0 129.0 68.0 L129.0 68.0 Z M136.0 96.0 C136.0 96.0 136.0 96.0 136.0 96.0 C135.0 96.0 134.0 95.0 134.0 94.0 C134.0 94.0 136.0 90.0 138.0 86.0 C140.0 84.0 141.0 81.0 141.0 79.0 C141.0 78.0 142.0 77.0 143.0 77.0 L143.0 77.0 C144.0 77.0 144.0 78.0 144.0 79.0 C144.0 82.0 143.0 85.0 141.0 88.0 C139.0 92.0 138.0 95.0 138.0 95.0 C138.0 96.0 137.0 96.0 136.0 96.0 L136.0 96.0 Z M126.0 74.0 C126.0 74.0 126.0 74.0 126.0 74.0 C125.0 74.0 124.0 73.0 124.0 72.0 C124.0 72.0 126.0 69.0 130.0 68.0 C132.0 67.0 134.0 67.0 136.0 68.0 C138.0 69.0 139.0 70.0 139.0 70.0 C140.0 71.0 140.0 72.0 139.0 73.0 C139.0 73.0 137.0 74.0 137.0 73.0 C137.0 73.0 136.0 72.0 135.0 71.0 C134.0 71.0 132.0 70.0 131.0 71.0 C128.0 71.0 128.0 73.0 128.0 73.0 C127.0 74.0 127.0 74.0 126.0 74.0 L126.0 74.0 Z"></path></svg>