<svg xmlns="http://www.w3.org/2000/svg" viewBox="0.0 0.0 200.0 200.0" height="200px" width="200px"><path fill="#ffffff" fill-opacity="1.0"  filling="0" d="M0.0 0.0 L199.0 0.0 L199.0 199.0 L0.0 199.0 L0.0 0.0 L0.0 0.0 Z"></path>
<path fill="#ff99aa" fill-opacity="1.0"  filling="0" d="M63.0 42.0 L71.0 63.0 L52.0 57.0 L63.0 42.0 L63.0 42.0 Z"></path>
<path fill="#ff99aa" fill-opacity="1.0"  filling="0" d="M63.0 42.0 L71.0 63.0 L52.0 57.0 L63.0 42.0 L63.0 42.0 Z"></path>
<path fill="#ff99aa" fill-opacity="1.0"  filling="0" d="M63.0 42.0 L71.0 63.0 L52.0 57.0 L63.0 42.0 L63.0 42.0 Z"></path>
<path fill="#ff99aa" fill-opacity="1.0"  filling="0" d="M56.0 74.0 L69.0 71.0 L64.0 79.0 L56.0 74.0 L56.0 74.0 Z"></path>
<path fill="#ff99aa" fill-opacity="1.0"  filling="0" d="M56.0 74.0 L69.0 71.0 L64.0 79.0 L56.0 74.0 L56.0 74.0 Z"></path>
<path fill="#ff99aa" fill-opacity="1.0"  filling="0" d="M56.0 74.0 L69.0 71.0 L64.0 79.0 L56.0 74.0 L56.0 74.0 Z"></path>
<path fill="#ff99aa" fill-opacity="1.0"  filling="0" d="M52.0 57.0 L71.0 63.0 L63.0 42.0 L52.0 57.0 L52.0 57.0 Z"></path>
<path fill="#ff99aa" fill-opacity="1.0"  filling="0" d="M52.0 57.0 L71.0 63.0 L63.0 42.0 L52.0 57.0 L52.0 57.0 Z"></path>
<path fill="#ff99aa" fill-opacity="1.0"  filling="0" d="M52.0 57.0 L71.0 63.0 L63.0 42.0 L52.0 57.0 L52.0 57.0 Z"></path>
<path fill="#ff99aa" fill-opacity="1.0"  filling="0" d="M63.0 42.0 L71.0 63.0 L52.0 57.0 L63.0 42.0 L63.0 42.0 Z"></path>
<path fill="#ff99aa" fill-opacity="1.0"  filling="0" d="M63.0 42.0 L71.0 63.0 L52.0 57.0 L63.0 42.0 L63.0 42.0 Z"></path>
<path fill="#ff99aa" fill-opacity="1.0"  filling="0" d="M56.0 74.0 L69.0 71.0 L64.0 79.0 L56.0 74.0 L56.0 74.0 Z"></path>
<path fill="#ff99aa" fill-opacity="1.0"  filling="0" d="M56.0 74.0 L69.0 71.0 L64.0 79.0 L56.0 74.0 L56.0 74.0 Z"></path>
<path fill="#ff99aa" fill-opacity="1.0"  filling="0" d="M56.0 74.0 L69.0 71.0 L64.0 79.0 L56.0 74.0 L56.0 74.0 Z"></path>
<path fill="#000000" fill-opacity="1.0"  filling="0" d="M15.0 15.0 L185.0 15.0 L185.0 185.0 L15.0 185.0 L15.0 15.0 L15.0 15.0 Z M22.0 22.0 L22.0 178.0 L178.0 178.0 L178.0 22.0 L22.0 22.0 L22.0 22.0 Z"></path>
<path fill="#000000" fill-opacity="1.0"  filling="0" d="M88.0 118.0 L92.0 122.0 L53.0 159.0 L49.0 155.0 L88.0 118.0 L88.0 118.0 Z"></path>
<path fill="#000000" fill-opacity="1.0"  filling="0" d="M88.0 118.0 L92.0 122.0 L53.0 159.0 L49.0 155.0 L88.0 118.0 L88.0 118.0 Z"></path>
<path fill="#000000" fill-opacity="1.0"  filling="0" d="M-7.0 -7.0 L88.0 118.0 C88.0 118.0 88.0 118.0 89.0 118.0 C89.0 118.0 89.0 118.0 89.0 118.0 L92.0 122.0 C93.0 123.0 93.0 123.0 92.0 123.0 L53.0 159.0 C53.0 159.0 53.0 159.0 52.0 159.0 C52.0 159.0 52.0 159.0 52.0 159.0 L48.0 155.0 C48.0 155.0 48.0 155.0 48.0 155.0 C48.0 155.0 48.0 155.0 48.0 155.0 L47.0 154.0 L47.0 155.0 L47.0 155.0 Z M88.0 119.0 L49.0 155.0 L53.0 158.0 L91.0 122.0 L88.0 119.0 L88.0 119.0 Z"></path>
<path fill="#ff5577" fill-opacity="1.0"  filling="0" d="M53.0 159.0 L92.0 122.0 L102.0 139.0 C105.0 142.0 106.0 146.0 104.0 149.0 C104.0 149.0 104.0 149.0 104.0 149.0 L74.0 169.0 C71.0 171.0 67.0 171.0 64.0 168.0 L53.0 159.0 L53.0 159.0 L53.0 159.0 Z"></path>
<path fill="#ff5577" fill-opacity="1.0"  filling="0" d="M53.0 159.0 L92.0 122.0 L102.0 139.0 C105.0 142.0 106.0 146.0 104.0 149.0 C104.0 149.0 104.0 149.0 104.0 149.0 L74.0 169.0 C71.0 171.0 67.0 171.0 64.0 168.0 L53.0 159.0 L53.0 159.0 L53.0 159.0 Z"></path>
<path fill="#ff5577" fill-opacity="1.0"  filling="0" d="M53.0 159.0 L92.0 122.0 L102.0 139.0 C105.0 142.0 106.0 146.0 104.0 149.0 C104.0 149.0 104.0 149.0 104.0 149.0 L74.0 169.0 C71.0 171.0 67.0 171.0 64.0 168.0 L53.0 159.0 L53.0 159.0 L53.0 159.0 Z"></path>
<path fill="#000000" fill-opacity="1.0"  filling="0" d="M52.0 159.0 L91.0 122.0 C91.0 122.0 91.0 122.0 92.0 122.0 C92.0 122.0 92.0 122.0 92.0 122.0 L102.0 139.0 C106.0 142.0 106.0 142.0 106.0 144.0 C106.0 147.0 106.0 147.0 104.0 149.0 C104.0 149.0 104.0 149.0 104.0 149.0 C104.0 149.0 104.0 149.0 104.0 149.0 L74.0 169.0 C71.0 171.0 71.0 171.0 69.0 171.0 C66.0 171.0 66.0 171.0 64.0 169.0 C64.0 169.0 64.0 169.0 64.0 169.0 L53.0 159.0 C53.0 159.0 53.0 159.0 52.0 159.0 C52.0 159.0 52.0 159.0 52.0 159.0 C52.0 159.0 52.0 159.0 52.0 159.0 L52.0 159.0 Z M53.0 159.0 L64.0 168.0 C66.0 170.0 66.0 170.0 69.0 170.0 C71.0 170.0 71.0 170.0 74.0 168.0 L104.0 149.0 C105.0 147.0 105.0 147.0 105.0 144.0 C105.0 142.0 105.0 142.0 102.0 139.0 L91.0 122.0 L53.0 159.0 L53.0 159.0 Z"></path>
<path fill="#000000" fill-opacity="1.0"  filling="0" d="M100.0 105.0 L100.0 105.0 C101.0 105.0 103.0 106.0 104.0 108.0 L104.0 108.0 C105.0 109.0 106.0 110.0 105.0 112.0 L105.0 112.0 C104.0 113.0 103.0 114.0 101.0 114.0 L101.0 114.0 C99.0 115.0 98.0 114.0 97.0 112.0 L97.0 112.0 C96.0 111.0 96.0 109.0 97.0 108.0 L97.0 108.0 C98.0 106.0 99.0 105.0 100.0 105.0 L100.0 105.0 Z M100.0 106.0 C99.0 106.0 98.0 107.0 97.0 108.0 L97.0 108.0 C97.0 109.0 97.0 111.0 97.0 112.0 L97.0 112.0 C98.0 113.0 99.0 114.0 101.0 114.0 L101.0 114.0 C103.0 113.0 104.0 113.0 104.0 112.0 L104.0 112.0 C105.0 110.0 105.0 109.0 104.0 108.0 L104.0 108.0 C103.0 107.0 101.0 106.0 100.0 106.0 L100.0 106.0 L100.0 106.0 Z"></path>
<path fill="#ff5577" fill-opacity="1.0"  filling="0" d="M100.0 105.0 L100.0 105.0 C101.0 105.0 103.0 106.0 104.0 108.0 L104.0 108.0 C105.0 109.0 106.0 110.0 105.0 112.0 L105.0 112.0 C104.0 113.0 103.0 114.0 101.0 114.0 L101.0 114.0 C99.0 115.0 98.0 114.0 97.0 112.0 L97.0 112.0 C96.0 111.0 96.0 109.0 97.0 108.0 L97.0 108.0 C98.0 106.0 99.0 105.0 100.0 105.0 L100.0 105.0 Z"></path>
<path fill="#000000" fill-opacity="1.0"  filling="0" d="M100.0 105.0 L100.0 105.0 C102.0 105.0 102.0 105.0 104.0 108.0 C106.0 110.0 106.0 110.0 105.0 112.0 C104.0 114.0 104.0 114.0 101.0 114.0 L101.0 114.0 C98.0 115.0 98.0 115.0 97.0 112.0 C96.0 109.0 96.0 109.0 97.0 108.0 C98.0 105.0 98.0 105.0 100.0 105.0 L100.0 105.0 Z M100.0 106.0 C98.0 106.0 98.0 106.0 97.0 108.0 C96.0 109.0 96.0 109.0 97.0 112.0 C99.0 114.0 99.0 114.0 101.0 114.0 L101.0 114.0 C104.0 113.0 104.0 113.0 104.0 112.0 C106.0 110.0 106.0 110.0 104.0 108.0 C102.0 106.0 102.0 106.0 100.0 106.0 L100.0 106.0 L100.0 106.0 Z"></path>
<path fill="#000000" fill-opacity="1.0"  filling="0" d="M97.0 109.0 L97.0 109.0 C97.0 108.0 98.0 108.0 98.0 108.0 L98.0 108.0 C99.0 108.0 99.0 108.0 99.0 109.0 L99.0 109.0 C99.0 109.0 99.0 110.0 98.0 110.0 L98.0 110.0 C98.0 110.0 97.0 109.0 97.0 109.0 L97.0 109.0 Z"></path>
<path fill="#000000" fill-opacity="1.0"  filling="0" d="M98.0 111.0 L98.0 111.0 C98.0 111.0 98.0 110.0 98.0 110.0 L98.0 110.0 C99.0 110.0 99.0 111.0 99.0 111.0 L99.0 111.0 C99.0 112.0 99.0 112.0 98.0 112.0 L98.0 112.0 C98.0 112.0 98.0 112.0 98.0 111.0 L98.0 111.0 Z"></path>
<path fill="#000000" fill-opacity="1.0"  filling="0" d="M101.0 112.0 L101.0 112.0 C101.0 111.0 101.0 111.0 102.0 111.0 L102.0 111.0 C102.0 111.0 102.0 111.0 102.0 112.0 L102.0 112.0 C102.0 112.0 102.0 113.0 102.0 113.0 L102.0 113.0 C101.0 113.0 101.0 112.0 101.0 112.0 L101.0 112.0 Z"></path>
<path fill="#000000" fill-opacity="1.0"  filling="0" d="M103.0 111.0 L103.0 111.0 C103.0 111.0 103.0 110.0 104.0 110.0 L104.0 110.0 C104.0 110.0 105.0 111.0 105.0 111.0 L105.0 111.0 C105.0 112.0 104.0 112.0 104.0 112.0 L104.0 112.0 C103.0 112.0 103.0 112.0 103.0 111.0 L103.0 111.0 Z"></path>
<path fill="#ff5577" fill-opacity="1.0"  filling="0" d="M100.0 105.0 L100.0 105.0 C101.0 105.0 103.0 106.0 104.0 108.0 L104.0 108.0 C105.0 109.0 106.0 110.0 105.0 112.0 L105.0 112.0 C104.0 113.0 103.0 114.0 101.0 114.0 L101.0 114.0 C99.0 115.0 98.0 114.0 97.0 112.0 L97.0 112.0 C96.0 111.0 96.0 109.0 97.0 108.0 L97.0 108.0 C98.0 106.0 99.0 105.0 100.0 105.0 L100.0 105.0 Z"></path>
<path fill="#000000" fill-opacity="1.0"  filling="0" d="M100.0 105.0 L100.0 105.0 C102.0 105.0 102.0 105.0 104.0 108.0 C106.0 110.0 106.0 110.0 105.0 112.0 C104.0 114.0 104.0 114.0 101.0 114.0 L101.0 114.0 C98.0 115.0 98.0 115.0 97.0 112.0 C96.0 109.0 96.0 109.0 97.0 108.0 C98.0 105.0 98.0 105.0 100.0 105.0 L100.0 105.0 Z M100.0 106.0 C98.0 106.0 98.0 106.0 97.0 108.0 C96.0 109.0 96.0 109.0 97.0 112.0 C99.0 114.0 99.0 114.0 101.0 114.0 L101.0 114.0 C104.0 113.0 104.0 113.0 104.0 112.0 C106.0 110.0 106.0 110.0 104.0 108.0 C102.0 106.0 102.0 106.0 100.0 106.0 L100.0 106.0 L100.0 106.0 Z"></path>
<path fill="#000000" fill-opacity="1.0"  filling="0" d="M97.0 109.0 L97.0 109.0 C97.0 108.0 98.0 108.0 98.0 108.0 L98.0 108.0 C99.0 108.0 99.0 108.0 99.0 109.0 L99.0 109.0 C99.0 109.0 99.0 110.0 98.0 110.0 L98.0 110.0 C98.0 110.0 97.0 109.0 97.0 109.0 L97.0 109.0 Z"></path>
<path fill="#000000" fill-opacity="1.0"  filling="0" d="M98.0 111.0 L98.0 111.0 C98.0 111.0 98.0 110.0 98.0 110.0 L98.0 110.0 C99.0 110.0 99.0 111.0 99.0 111.0 L99.0 111.0 C99.0 112.0 99.0 112.0 98.0 112.0 L98.0 112.0 C98.0 112.0 98.0 112.0 98.0 111.0 L98.0 111.0 Z"></path>
<path fill="#000000" fill-opacity="1.0"  filling="0" d="M101.0 112.0 L101.0 112.0 C101.0 111.0 101.0 111.0 102.0 111.0 L102.0 111.0 C102.0 111.0 102.0 111.0 102.0 112.0 L102.0 112.0 C102.0 112.0 102.0 113.0 102.0 113.0 L102.0 113.0 C101.0 113.0 101.0 112.0 101.0 112.0 L101.0 112.0 Z"></path>
<path fill="#000000" fill-opacity="1.0"  filling="0" d="M103.0 111.0 L103.0 111.0 C103.0 111.0 103.0 110.0 104.0 110.0 L104.0 110.0 C104.0 110.0 105.0 111.0 105.0 111.0 L105.0 111.0 C105.0 112.0 104.0 112.0 104.0 112.0 L104.0 112.0 C103.0 112.0 103.0 112.0 103.0 111.0 L103.0 111.0 Z"></path>
<path fill="#000000" fill-opacity="1.0"  filling="0" d="M100.0 104.0 L100.0 104.0 C101.0 104.0 103.0 104.0 104.0 106.0 C106.0 107.0 107.0 109.0 107.0 111.0 C107.0 113.0 106.0 115.0 104.0 116.0 C103.0 117.0 101.0 118.0 99.0 117.0 C97.0 117.0 95.0 116.0 94.0 114.0 C93.0 112.0 93.0 110.0 94.0 108.0 C95.0 106.0 97.0 104.0 100.0 104.0 L100.0 104.0 Z M100.0 106.0 C98.0 106.0 97.0 107.0 96.0 109.0 C95.0 110.0 95.0 111.0 96.0 113.0 C97.0 114.0 98.0 115.0 100.0 115.0 C101.0 116.0 103.0 115.0 104.0 114.0 C105.0 113.0 105.0 112.0 105.0 111.0 C105.0 109.0 105.0 108.0 104.0 107.0 C103.0 106.0 101.0 106.0 100.0 106.0 L100.0 106.0 L100.0 106.0 Z"></path>
<path fill="#ff5577" fill-opacity="1.0"  filling="0" d="M100.0 104.0 L100.0 104.0 C101.0 104.0 103.0 104.0 104.0 106.0 C106.0 107.0 107.0 109.0 107.0 111.0 C107.0 113.0 106.0 115.0 104.0 116.0 C103.0 117.0 101.0 118.0 99.0 117.0 C97.0 117.0 95.0 116.0 94.0 114.0 C93.0 112.0 93.0 110.0 94.0 108.0 C95.0 106.0 97.0 104.0 100.0 104.0 L100.0 104.0 Z"></path>
<path fill="#000000" fill-opacity="1.0"  filling="0" d="M100.0 104.0 L100.0 104.0 C102.0 104.0 102.0 104.0 104.0 106.0 C107.0 108.0 107.0 108.0 107.0 111.0 C107.0 114.0 107.0 114.0 104.0 116.0 C102.0 118.0 102.0 118.0 99.0 117.0 C96.0 117.0 96.0 117.0 94.0 114.0 C92.0 111.0 92.0 111.0 94.0 108.0 C96.0 104.0 96.0 104.0 100.0 104.0 L100.0 104.0 Z M100.0 105.0 C97.0 105.0 97.0 105.0 95.0 108.0 C93.0 111.0 93.0 111.0 95.0 113.0 C96.0 116.0 96.0 116.0 99.0 116.0 C102.0 117.0 102.0 117.0 104.0 115.0 C106.0 113.0 106.0 113.0 106.0 111.0 C106.0 108.0 106.0 108.0 104.0 107.0 C102.0 105.0 102.0 105.0 100.0 105.0 L100.0 105.0 L100.0 105.0 Z"></path>
<path fill="#000000" fill-opacity="1.0"  filling="0" d="M63.0 42.0 L71.0 63.0 L52.0 57.0 L63.0 42.0 L63.0 42.0 Z"></path></svg>