<svg xmlns="http://www.w3.org/2000/svg" viewBox="0.0 0.0 200.0 200.0" height="200px" width="200px"><path fill="#ee99aa" fill-opacity="1.0"  filling="0" d="M63.0 42.0 L71.0 63.0 L52.0 57.0 L63.0 42.0 L63.0 42.0 Z"></path>
<path fill="#ee99aa" fill-opacity="1.0"  filling="0" d="M69.0 71.0 L64.0 79.0 L56.0 74.0 L69.0 71.0 L69.0 71.0 Z"></path>
<path fill="#dd4444" fill-opacity="1.0"  filling="0" d="M-7.0 -7.0 L113.0 137.0 C111.0 141.0 107.0 143.0 103.0 142.0 L67.0 131.0 C64.0 130.0 62.0 126.0 63.0 123.0 L86.0 49.0 C87.0 45.0 91.0 42.0 95.0 43.0 L130.0 54.0 C134.0 55.0 136.0 59.0 134.0 62.0 L134.0 62.0 Z"></path>
<path fill="#dd6666" fill-opacity="1.0"  filling="0" d="M129.0 62.0 L107.0 136.0 C107.0 138.0 105.0 139.0 103.0 139.0 L68.0 126.0 C66.0 126.0 65.0 124.0 66.0 123.0 L90.0 50.0 C90.0 48.0 92.0 47.0 94.0 47.0 L128.0 58.0 C129.0 59.0 130.0 61.0 129.0 62.0 L129.0 62.0 Z"></path>
<path fill="#dd4444" fill-opacity="1.0"  filling="0" d="M140.0 69.0 L134.0 62.0 C136.0 59.0 134.0 55.0 130.0 54.0 L95.0 43.0 C91.0 42.0 87.0 45.0 86.0 49.0 L83.0 57.0 L140.0 69.0 L140.0 69.0 Z"></path>
<path fill="#ee7777" fill-opacity="1.0"  filling="0" d="M130.0 62.0 L107.0 137.0 C107.0 138.0 105.0 140.0 103.0 140.0 L69.0 125.0 C67.0 125.0 66.0 123.0 67.0 122.0 L91.0 51.0 C91.0 49.0 93.0 48.0 95.0 49.0 L128.0 59.0 C129.0 59.0 130.0 61.0 130.0 62.0 L130.0 62.0 Z"></path>
<path fill="#ee8888" fill-opacity="1.0"  filling="0" d="M129.0 79.0 L129.0 62.0 C130.0 61.0 129.0 59.0 128.0 59.0 L95.0 49.0 C93.0 48.0 91.0 49.0 91.0 51.0 L89.0 63.0 L129.0 79.0 L129.0 79.0 Z"></path>
<path fill="#000000" fill-opacity="1.0"  filling="0" d="M106.0 65.0 L104.0 69.0 C103.0 70.0 102.0 70.0 101.0 70.0 L97.0 68.0 C96.0 68.0 96.0 67.0 96.0 66.0 L98.0 62.0 C98.0 61.0 99.0 61.0 100.0 61.0 L104.0 62.0 C105.0 63.0 106.0 64.0 106.0 65.0 L106.0 65.0 Z M104.0 58.0 L102.0 57.0 C101.0 56.0 100.0 57.0 99.0 58.0 L99.0 58.0 C98.0 59.0 98.0 60.0 99.0 61.0 L101.0 62.0 C102.0 63.0 103.0 63.0 104.0 62.0 L104.0 62.0 C105.0 61.0 105.0 59.0 104.0 58.0 L104.0 58.0 Z M106.0 71.0 L105.0 74.0 C104.0 75.0 103.0 76.0 102.0 75.0 L98.0 74.0 C97.0 73.0 96.0 72.0 97.0 71.0 L98.0 68.0 C99.0 67.0 100.0 66.0 101.0 67.0 L104.0 68.0 C106.0 68.0 106.0 70.0 106.0 71.0 L106.0 71.0 Z"></path>
<path fill="#000000" fill-opacity="1.0"  filling="0" d="M106.0 65.0 L104.0 69.0 C103.0 70.0 102.0 70.0 101.0 70.0 L97.0 68.0 C96.0 68.0 96.0 67.0 96.0 66.0 L98.0 62.0 C98.0 61.0 99.0 61.0 100.0 61.0 L104.0 62.0 C105.0 63.0 106.0 64.0 106.0 65.0 L106.0 65.0 Z M104.0 58.0 L102.0 57.0 C101.0 56.0 100.0 57.0 99.0 58.0 L99.0 58.0 C98.0 59.0 98.0 60.0 99.0 61.0 L101.0 62.0 C102.0 63.0 103.0 63.0 104.0 62.0 L104.0 62.0 C105.0 61.0 105.0 59.0 104.0 58.0 L104.0 58.0 Z M106.0 71.0 L105.0 74.0 C104.0 75.0 103.0 76.0 102.0 75.0 L98.0 74.0 C97.0 73.0 96.0 72.0 97.0 71.0 L98.0 68.0 C99.0 67.0 100.0 66.0 101.0 67.0 L104.0 68.0 C106.0 68.0 106.0 70.0 106.0 71.0 L106.0 71.0 Z"></path>
<path fill="#000000" fill-opacity="1.0"  filling="0" d="M106.0 65.0 L104.0 69.0 C103.0 70.0 102.0 70.0 101.0 70.0 L97.0 68.0 C96.0 68.0 96.0 67.0 96.0 66.0 L98.0 62.0 C98.0 61.0 99.0 61.0 100.0 61.0 L104.0 62.0 C105.0 63.0 106.0 64.0 106.0 65.0 L106.0 65.0 Z M104.0 58.0 L102.0 57.0 C101.0 56.0 100.0 57.0 99.0 58.0 L99.0 58.0 C98.0 59.0 98.0 60.0 99.0 61.0 L101.0 62.0 C102.0 63.0 103.0 63.0 104.0 62.0 L104.0 62.0 C105.0 61.0 105.0 59.0 104.0 58.0 L104.0 58.0 Z M106.0 71.0 L105.0 74.0 C104.0 75.0 103.0 76.0 102.0 75.0 L98.0 74.0 C97.0 73.0 96.0 72.0 97.0 71.0 L98.0 68.0 C99.0 67.0 100.0 66.0 101.0 67.0 L104.0 68.0 C106.0 68.0 106.0 70.0 106.0 71.0 L106.0 71.0 Z"></path>
<path fill="#000000" fill-opacity="1.0"  filling="0" d="M106.0 65.0 L104.0 69.0 C103.0 70.0 102.0 70.0 101.0 70.0 L97.0 68.0 C96.0 68.0 96.0 67.0 96.0 66.0 L98.0 62.0 C98.0 61.0 99.0 61.0 100.0 61.0 L104.0 62.0 C105.0 63.0 106.0 64.0 106.0 65.0 L106.0 65.0 Z M104.0 58.0 L102.0 57.0 C101.0 56.0 100.0 57.0 99.0 58.0 L99.0 58.0 C98.0 59.0 98.0 60.0 99.0 61.0 L101.0 62.0 C102.0 63.0 103.0 63.0 104.0 62.0 L104.0 62.0 C105.0 61.0 105.0 59.0 104.0 58.0 L104.0 58.0 Z M106.0 71.0 L105.0 74.0 C104.0 75.0 103.0 76.0 102.0 75.0 L98.0 74.0 C97.0 73.0 96.0 72.0 97.0 71.0 L98.0 68.0 C99.0 67.0 100.0 66.0 101.0 67.0 L104.0 68.0 C106.0 68.0 106.0 70.0 106.0 71.0 L106.0 71.0 Z"></path>
<path fill="#000000" fill-opacity="1.0"  filling="0" d="M106.0 65.0 L104.0 69.0 C103.0 70.0 102.0 70.0 101.0 70.0 L97.0 68.0 C96.0 68.0 96.0 67.0 96.0 66.0 L98.0 62.0 C98.0 61.0 99.0 61.0 100.0 61.0 L104.0 62.0 C105.0 63.0 106.0 64.0 106.0 65.0 L106.0 65.0 Z M104.0 58.0 L102.0 57.0 C101.0 56.0 100.0 57.0 99.0 58.0 L99.0 58.0 C98.0 59.0 98.0 60.0 99.0 61.0 L101.0 62.0 C102.0 63.0 103.0 63.0 104.0 62.0 L104.0 62.0 C105.0 61.0 105.0 59.0 104.0 58.0 L104.0 58.0 Z M106.0 71.0 L105.0 74.0 C104.0 75.0 103.0 76.0 102.0 75.0 L98.0 74.0 C97.0 73.0 96.0 72.0 97.0 71.0 L98.0 68.0 C99.0 67.0 100.0 66.0 101.0 67.0 L104.0 68.0 C106.0 68.0 106.0 70.0 106.0 71.0 L106.0 71.0 Z"></path>
<path fill="#000000" fill-opacity="1.0"  filling="0" d="M106.0 65.0 L104.0 69.0 C103.0 70.0 102.0 70.0 101.0 70.0 L97.0 68.0 C96.0 68.0 96.0 67.0 96.0 66.0 L98.0 62.0 C98.0 61.0 99.0 61.0 100.0 61.0 L104.0 62.0 C105.0 63.0 106.0 64.0 106.0 65.0 L106.0 65.0 Z M104.0 58.0 L102.0 57.0 C101.0 56.0 100.0 57.0 99.0 58.0 L99.0 58.0 C98.0 59.0 98.0 60.0 99.0 61.0 L101.0 62.0 C102.0 63.0 103.0 63.0 104.0 62.0 L104.0 62.0 C105.0 61.0 105.0 59.0 104.0 58.0 L104.0 58.0 Z M106.0 71.0 L105.0 74.0 C104.0 75.0 103.0 76.0 102.0 75.0 L98.0 74.0 C97.0 73.0 96.0 72.0 97.0 71.0 L98.0 68.0 C99.0 67.0 100.0 66.0 101.0 67.0 L104.0 68.0 C106.0 68.0 106.0 70.0 106.0 71.0 L106.0 71.0 Z"></path>
<path fill="#000000" fill-opacity="1.0"  filling="0" d="M106.0 65.0 L104.0 69.0 C103.0 70.0 102.0 70.0 101.0 70.0 L97.0 68.0 C96.0 68.0 96.0 67.0 96.0 66.0 L98.0 62.0 C98.0 61.0 99.0 61.0 100.0 61.0 L104.0 62.0 C105.0 63.0 106.0 64.0 106.0 65.0 L106.0 65.0 Z M104.0 58.0 L102.0 57.0 C101.0 56.0 100.0 57.0 99.0 58.0 L99.0 58.0 C98.0 59.0 98.0 60.0 99.0 61.0 L101.0 62.0 C102.0 63.0 103.0 63.0 104.0 62.0 L104.0 62.0 C105.0 61.0 105.0 59.0 104.0 58.0 L104.0 58.0 Z M106.0 71.0 L105.0 74.0 C104.0 75.0 103.0 76.0 102.0 75.0 L98.0 74.0 C97.0 73.0 96.0 72.0 97.0 71.0 L98.0 68.0 C99.0 67.0 100.0 66.0 101.0 67.0 L104.0 68.0 C106.0 68.0 106.0 70.0 106.0 71.0 L106.0 71.0 Z"></path>
<path fill="#000000" fill-opacity="1.0"  filling="0" d="M106.0 65.0 L104.0 69.0 C103.0 70.0 102.0 70.0 101.0 70.0 L97.0 68.0 C96.0 68.0 96.0 67.0 96.0 66.0 L98.0 62.0 C98.0 61.0 99.0 61.0 100.0 61.0 L104.0 62.0 C105.0 63.0 106.0 64.0 106.0 65.0 L106.0 65.0 Z M104.0 58.0 L102.0 57.0 C101.0 56.0 100.0 57.0 99.0 58.0 L99.0 58.0 C98.0 59.0 98.0 60.0 99.0 61.0 L101.0 62.0 C102.0 63.0 103.0 63.0 104.0 62.0 L104.0 62.0 C105.0 61.0 105.0 59.0 104.0 58.0 L104.0 58.0 Z M106.0 71.0 L105.0 74.0 C104.0 75.0 103.0 76.0 102.0 75.0 L98.0 74.0 C97.0 73.0 96.0 72.0 97.0 71.0 L98.0 68.0 C99.0 67.0 100.0 66.0 101.0 67.0 L104.0 68.0 C106.0 68.0 106.0 70.0 106.0 71.0 L106.0 71.0 Z"></path>
<path fill="#000000" fill-opacity="1.0"  filling="0" d="M106.0 65.0 L104.0 69.0 C103.0 70.0 102.0 70.0 101.0 70.0 L97.0 68.0 C96.0 68.0 96.0 67.0 96.0 66.0 L98.0 62.0 C98.0 61.0 99.0 61.0 100.0 61.0 L104.0 62.0 C105.0 63.0 106.0 64.0 106.0 65.0 L106.0 65.0 Z M104.0 58.0 L102.0 57.0 C101.0 56.0 100.0 57.0 99.0 58.0 L99.0 58.0 C98.0 59.0 98.0 60.0 99.0 61.0 L101.0 62.0 C102.0 63.0 103.0 63.0 104.0 62.0 L104.0 62.0 C105.0 61.0 105.0 59.0 104.0 58.0 L104.0 58.0 Z M106.0 71.0 L105.0 74.0 C104.0 75.0 103.0 76.0 102.0 75.0 L98.0 74.0 C97.0 73.0 96.0 72.0 97.0 71.0 L98.0 68.0 C99.0 67.0 100.0 66.0 101.0 67.0 L104.0 68.0 C106.0 68.0 106.0 70.0 106.0 71.0 L106.0 71.0 Z"></path>
<path fill="#000000" fill-opacity="1.0"  filling="0" d="M106.0 65.0 L104.0 69.0 C103.0 70.0 102.0 70.0 101.0 70.0 L97.0 68.0 C96.0 68.0 96.0 67.0 96.0 66.0 L98.0 62.0 C98.0 61.0 99.0 61.0 100.0 61.0 L104.0 62.0 C105.0 63.0 106.0 64.0 106.0 65.0 L106.0 65.0 Z M104.0 58.0 L102.0 57.0 C101.0 56.0 100.0 57.0 99.0 58.0 L99.0 58.0 C98.0 59.0 98.0 60.0 99.0 61.0 L101.0 62.0 C102.0 63.0 103.0 63.0 104.0 62.0 L104.0 62.0 C105.0 61.0 105.0 59.0 104.0 58.0 L104.0 58.0 Z M106.0 71.0 L105.0 74.0 C104.0 75.0 103.0 76.0 102.0 75.0 L98.0 74.0 C97.0 73.0 96.0 72.0 97.0 71.0 L98.0 68.0 C99.0 67.0 100.0 66.0 101.0 67.0 L104.0 68.0 C106.0 68.0 106.0 70.0 106.0 71.0 L106.0 71.0 Z"></path>
<path fill="#000000" fill-opacity="1.0"  filling="0" d="M87.0 67.0 A3.0 3.0 0.0 1 0 93.0 67.0 A3.0 3.0 0.0 1 0 87.0 67.0 L87.0 67.0 Z"></path>
<path fill="#000000" fill-opacity="1.0"  filling="0" d="M97.0 60.0 A2.0 2.0 0.0 1 0 102.0 60.0 A2.0 2.0 0.0 1 0 97.0 60.0 L97.0 60.0 Z"></path></svg>