<svg xmlns="http://www.w3.org/2000/svg" viewBox="0.0 0.0 200.0 200.0" height="200px" width="200px"><path fill="#ffffff" fill-opacity="1.0"  filling="0" d="M0.0 0.0 L199.0 0.0 L199.0 199.0 L0.0 199.0 L0.0 0.0 L0.0 0.0 Z"></path>
<path fill="#ff99aa" fill-opacity="1.0"  filling="0" d="M63.0 42.0 L71.0 63.0 L52.0 57.0 L63.0 42.0 L63.0 42.0 Z"></path>
<path fill="#ffffff" fill-opacity="1.0"  filling="0" d="M63.0 42.0 L71.0 63.0 L52.0 57.0 L63.0 42.0 L63.0 42.0 Z M63.0 43.0 L53.0 57.0 L70.0 63.0 L63.0 43.0 L63.0 43.0 Z"></path>
<path fill="#ff99aa" fill-opacity="1.0"  filling="0" d="M69.0 71.0 L64.0 79.0 L56.0 74.0 L69.0 71.0 L69.0 71.0 Z"></path>
<path fill="#ffffff" fill-opacity="1.0"  filling="0" d="M69.0 71.0 L64.0 79.0 L56.0 74.0 L69.0 71.0 L69.0 71.0 Z M68.0 72.0 L57.0 74.0 L64.0 79.0 L68.0 72.0 L68.0 72.0 Z"></path>
<path fill="#dd4444" fill-opacity="1.0"  filling="0" d="M96.0 44.0 L130.0 54.0 C133.0 55.0 135.0 59.0 135.0 62.0 L113.0 137.0 C112.0 140.0 109.0 142.0 106.0 142.0 L67.0 131.0 C64.0 130.0 62.0 127.0 63.0 124.0 L86.0 49.0 C87.0 45.0 91.0 43.0 96.0 44.0 L96.0 44.0 Z"></path>
<path fill="#ffffff" fill-opacity="1.0"  filling="0" d="M96.0 44.0 L130.0 54.0 C133.0 55.0 135.0 59.0 135.0 62.0 L113.0 137.0 C112.0 140.0 109.0 142.0 106.0 142.0 L67.0 131.0 C64.0 130.0 62.0 127.0 63.0 124.0 L86.0 49.0 C87.0 45.0 91.0 43.0 96.0 44.0 L96.0 44.0 Z M96.0 45.0 C92.0 44.0 88.0 46.0 87.0 49.0 L64.0 124.0 C63.0 127.0 64.0 130.0 67.0 130.0 L106.0 141.0 C109.0 142.0 112.0 140.0 112.0 137.0 L134.0 62.0 C134.0 59.0 132.0 56.0 130.0 55.0 L96.0 45.0 L96.0 45.0 Z"></path>
<path fill="#ee6677" fill-opacity="1.0"  filling="0" d="M95.0 48.0 L126.0 58.0 C128.0 59.0 130.0 61.0 129.0 63.0 L107.0 136.0 C107.0 138.0 105.0 140.0 103.0 139.0 L70.0 126.0 C68.0 126.0 67.0 124.0 67.0 122.0 L90.0 51.0 C91.0 49.0 93.0 47.0 95.0 48.0 L95.0 48.0 Z"></path>
<path fill="#ffffff" fill-opacity="1.0"  filling="0" d="M95.0 48.0 L126.0 58.0 C128.0 59.0 130.0 61.0 129.0 63.0 L107.0 136.0 C107.0 138.0 105.0 140.0 103.0 139.0 L70.0 126.0 C68.0 126.0 67.0 124.0 67.0 122.0 L90.0 51.0 C91.0 49.0 93.0 47.0 95.0 48.0 L95.0 48.0 Z M95.0 49.0 C93.0 48.0 91.0 49.0 91.0 51.0 L68.0 122.0 C67.0 124.0 68.0 126.0 70.0 126.0 L103.0 139.0 C105.0 140.0 107.0 138.0 107.0 136.0 L129.0 63.0 C129.0 61.0 128.0 59.0 126.0 58.0 L95.0 49.0 L95.0 49.0 Z"></path>
<path fill="#dd4444" fill-opacity="1.0"  filling="0" d="M88.0 47.0 C88.0 46.0 89.0 45.0 90.0 44.0 C91.0 43.0 93.0 43.0 94.0 43.0 L129.0 53.0 C131.0 53.0 132.0 55.0 133.0 56.0 C134.0 58.0 134.0 60.0 134.0 61.0 L113.0 138.0 C112.0 140.0 111.0 141.0 109.0 142.0 C108.0 143.0 106.0 143.0 105.0 142.0 L67.0 131.0 C66.0 130.0 64.0 129.0 64.0 128.0 C63.0 126.0 63.0 125.0 63.0 123.0 L88.0 47.0 L88.0 47.0 Z M90.0 48.0 L65.0 124.0 C65.0 125.0 65.0 126.0 65.0 127.0 C66.0 128.0 67.0 129.0 68.0 129.0 L105.0 141.0 C106.0 141.0 107.0 141.0 108.0 140.0 C109.0 140.0 110.0 139.0 110.0 138.0 L132.0 61.0 C132.0 60.0 132.0 59.0 131.0 58.0 C131.0 57.0 130.0 56.0 129.0 56.0 L93.0 45.0 C92.0 45.0 91.0 45.0 90.0 46.0 C90.0 46.0 89.0 47.0 90.0 48.0 L90.0 48.0 Z"></path>
<path fill="#ff99aa" fill-opacity="1.0"  filling="0" d="M92.0 60.0 C91.0 61.0 90.0 60.0 89.0 59.0 C89.0 58.0 89.0 56.0 90.0 56.0 C91.0 55.0 93.0 55.0 93.0 56.0 C94.0 57.0 93.0 59.0 92.0 60.0 L92.0 60.0 Z"></path>
<path fill="#ffffff" fill-opacity="1.0"  filling="0" d="M92.0 60.0 C91.0 61.0 90.0 60.0 89.0 59.0 C89.0 58.0 89.0 56.0 90.0 56.0 C91.0 55.0 93.0 55.0 93.0 56.0 C94.0 57.0 93.0 59.0 92.0 60.0 L92.0 60.0 Z M92.0 59.0 C93.0 58.0 93.0 57.0 92.0 56.0 C92.0 56.0 91.0 56.0 90.0 56.0 C90.0 57.0 89.0 58.0 90.0 59.0 C90.0 59.0 91.0 60.0 92.0 59.0 L92.0 59.0 Z"></path>
<path fill="#ff99aa" fill-opacity="1.0"  filling="0" d="M101.0 64.0 C100.0 65.0 98.0 64.0 98.0 63.0 C97.0 61.0 98.0 60.0 99.0 59.0 C100.0 59.0 102.0 59.0 103.0 60.0 C103.0 62.0 103.0 63.0 101.0 64.0 L101.0 64.0 Z"></path>
<path fill="#ffffff" fill-opacity="1.0"  filling="0" d="M101.0 64.0 C100.0 65.0 98.0 64.0 98.0 63.0 C97.0 61.0 98.0 60.0 99.0 59.0 C100.0 59.0 102.0 59.0 103.0 60.0 C103.0 62.0 103.0 63.0 101.0 64.0 L101.0 64.0 Z M101.0 63.0 C102.0 63.0 102.0 62.0 102.0 60.0 C101.0 60.0 100.0 60.0 100.0 60.0 C98.0 60.0 98.0 61.0 98.0 62.0 C99.0 63.0 100.0 64.0 101.0 63.0 L101.0 63.0 Z"></path>
<path fill="#ff99aa" fill-opacity="1.0"  filling="0" d="M92.0 69.0 C91.0 70.0 89.0 69.0 88.0 68.0 C87.0 66.0 87.0 65.0 89.0 64.0 C90.0 63.0 92.0 63.0 93.0 65.0 C94.0 66.0 93.0 68.0 92.0 69.0 L92.0 69.0 Z"></path>
<path fill="#ffffff" fill-opacity="1.0"  filling="0" d="M92.0 69.0 C91.0 70.0 89.0 69.0 88.0 68.0 C87.0 66.0 87.0 65.0 89.0 64.0 C90.0 63.0 92.0 63.0 93.0 65.0 C94.0 66.0 93.0 68.0 92.0 69.0 L92.0 69.0 Z M91.0 68.0 C92.0 68.0 93.0 66.0 92.0 65.0 C92.0 64.0 90.0 64.0 90.0 64.0 C88.0 65.0 88.0 66.0 88.0 67.0 C89.0 68.0 90.0 69.0 91.0 68.0 L91.0 68.0 Z"></path>
<path fill="#ff99aa" fill-opacity="1.0"  filling="0" d="M101.0 69.0 C100.0 70.0 98.0 69.0 98.0 68.0 C97.0 66.0 98.0 65.0 99.0 64.0 C100.0 63.0 102.0 63.0 103.0 65.0 C103.0 66.0 103.0 68.0 101.0 69.0 L101.0 69.0 Z"></path>
<path fill="#ffffff" fill-opacity="1.0"  filling="0" d="M101.0 69.0 C100.0 70.0 98.0 69.0 98.0 68.0 C97.0 66.0 98.0 65.0 99.0 64.0 C100.0 63.0 102.0 63.0 103.0 65.0 C103.0 66.0 103.0 68.0 101.0 69.0 L101.0 69.0 Z M101.0 68.0 C102.0 67.0 102.0 66.0 102.0 65.0 C101.0 64.0 100.0 64.0 100.0 64.0 C98.0 65.0 98.0 66.0 98.0 67.0 C99.0 68.0 100.0 69.0 101.0 68.0 L101.0 68.0 Z"></path>
<path fill="#dd4444" fill-opacity="1.0"  filling="0" d="M100.0 78.0 L86.0 74.0 C84.0 73.0 83.0 71.0 83.0 69.0 L83.0 69.0 C84.0 67.0 86.0 66.0 88.0 66.0 L102.0 70.0 C104.0 70.0 105.0 72.0 105.0 74.0 L105.0 75.0 C104.0 77.0 102.0 78.0 100.0 78.0 L100.0 78.0 Z"></path></svg>