<svg xmlns="http://www.w3.org/2000/svg" viewBox="0.0 0.0 200.0 200.0" height="200px" width="200px"><path fill="#ffffff" fill-opacity="1.0"  filling="0" d="M0.0 0.0 L199.0 0.0 L199.0 199.0 L0.0 199.0 L0.0 0.0 L0.0 0.0 Z"></path>
<path fill="#ff99aa" fill-opacity="1.0"  filling="0" d="M63.0 42.0 L71.0 63.0 L52.0 57.0 L63.0 42.0 L63.0 42.0 Z"></path>
<path fill="#ffbbcc" fill-opacity="1.0"  filling="0" d="M63.0 42.0 L71.0 63.0 L52.0 57.0 L63.0 42.0 L63.0 42.0 Z M63.0 43.0 L53.0 57.0 L70.0 63.0 L63.0 43.0 L63.0 43.0 Z"></path>
<path fill="#ff99aa" fill-opacity="1.0"  filling="0" d="M69.0 71.0 L64.0 79.0 L56.0 74.0 L69.0 71.0 L69.0 71.0 Z"></path>
<path fill="#ffbbcc" fill-opacity="1.0"  filling="0" d="M69.0 71.0 L64.0 79.0 L56.0 74.0 L69.0 71.0 L69.0 71.0 Z M68.0 72.0 L57.0 74.0 L64.0 79.0 L68.0 72.0 L68.0 72.0 Z"></path>
<path fill="#dd4444" fill-opacity="1.0"  filling="0" d="M96.0 44.0 L130.0 54.0 C133.0 55.0 135.0 59.0 135.0 62.0 L113.0 137.0 C112.0 140.0 109.0 142.0 106.0 142.0 L67.0 131.0 C64.0 130.0 62.0 127.0 63.0 124.0 L86.0 49.0 C87.0 45.0 91.0 43.0 96.0 44.0 L96.0 44.0 Z"></path>
<path fill="#ff5555" fill-opacity="1.0"  filling="0" d="M96.0 44.0 L130.0 54.0 C133.0 55.0 135.0 59.0 135.0 62.0 L113.0 137.0 C112.0 140.0 109.0 142.0 106.0 142.0 L67.0 131.0 C64.0 130.0 62.0 127.0 63.0 124.0 L86.0 49.0 C87.0 45.0 91.0 43.0 96.0 44.0 L96.0 44.0 Z M96.0 45.0 C92.0 44.0 88.0 46.0 87.0 49.0 L64.0 124.0 C63.0 127.0 64.0 130.0 68.0 130.0 L106.0 141.0 C109.0 142.0 112.0 140.0 112.0 137.0 L134.0 62.0 C134.0 59.0 132.0 56.0 130.0 55.0 L96.0 45.0 L96.0 45.0 Z"></path>
<path fill="#ee6677" fill-opacity="1.0"  filling="0" d="M95.0 48.0 L126.0 58.0 C128.0 59.0 129.0 61.0 129.0 63.0 L107.0 136.0 C107.0 138.0 105.0 139.0 103.0 139.0 L69.0 127.0 C67.0 126.0 66.0 124.0 66.0 122.0 L90.0 51.0 C90.0 49.0 92.0 48.0 95.0 48.0 L95.0 48.0 Z"></path>
<path fill="#ff5555" fill-opacity="1.0"  filling="0" d="M61.0 42.0 L72.0 62.0 L71.0 63.0 L60.0 42.0 L61.0 42.0 L61.0 42.0 Z"></path>
<path fill="#ff5555" fill-opacity="1.0"  filling="0" d="M63.0 42.0 L71.0 63.0 L71.0 63.0 L62.0 42.0 L63.0 42.0 L63.0 42.0 Z"></path>
<path fill="#ff5555" fill-opacity="1.0"  filling="0" d="M63.0 42.0 L71.0 63.0 L70.0 63.0 L62.0 42.0 L63.0 42.0 L63.0 42.0 Z"></path>
<path fill="#ff5555" fill-opacity="1.0"  filling="0" d="M63.0 43.0 L70.0 63.0 L70.0 63.0 L63.0 43.0 L63.0 43.0 L63.0 43.0 Z"></path>
<path fill="#ff5555" fill-opacity="1.0"  filling="0" d="M63.0 43.0 L70.0 63.0 L70.0 63.0 L63.0 43.0 L63.0 43.0 L63.0 43.0 Z"></path>
<path fill="#ff5555" fill-opacity="1.0"  filling="0" d="M63.0 44.0 L70.0 62.0 L70.0 62.0 L63.0 44.0 L63.0 44.0 L63.0 44.0 Z"></path>
<path fill="#ff5555" fill-opacity="1.0"  filling="0" d="M62.0 44.0 L70.0 62.0 L70.0 62.0 L62.0 45.0 L62.0 44.0 L62.0 44.0 Z"></path>
<path fill="#ff5555" fill-opacity="1.0"  filling="0" d="M62.0 44.0 L70.0 62.0 L70.0 62.0 L62.0 45.0 L62.0 44.0 L62.0 44.0 Z"></path>
<path fill="#ff5555" fill-opacity="1.0"  filling="0" d="M62.0 45.0 L70.0 62.0 L70.0 62.0 L62.0 45.0 L62.0 45.0 L62.0 45.0 Z"></path>
<path fill="#ff5555" fill-opacity="1.0"  filling="0" d="M62.0 45.0 L70.0 62.0 L70.0 62.0 L62.0 45.0 L62.0 45.0 L62.0 45.0 Z"></path>
<path fill="#ff5555" fill-opacity="1.0"  filling="0" d="M61.0 46.0 L70.0 62.0 L70.0 62.0 L61.0 46.0 L61.0 46.0 L61.0 46.0 Z"></path>
<path fill="#ff5555" fill-opacity="1.0"  filling="0" d="M61.0 46.0 L70.0 62.0 L70.0 62.0 L61.0 46.0 L61.0 46.0 L61.0 46.0 Z"></path>
<path fill="#ff5555" fill-opacity="1.0"  filling="0" d="M61.0 47.0 L70.0 62.0 L70.0 62.0 L60.0 47.0 L61.0 47.0 L61.0 47.0 Z"></path>
<path fill="#ff5555" fill-opacity="1.0"  filling="0" d="M60.0 47.0 L70.0 62.0 L70.0 62.0 L60.0 47.0 L60.0 47.0 L60.0 47.0 Z"></path>
<path fill="#ff5555" fill-opacity="1.0"  filling="0" d="M60.0 47.0 L70.0 62.0 L70.0 62.0 L60.0 47.0 L60.0 47.0 L60.0 47.0 Z"></path>
<path fill="#ff5555" fill-opacity="1.0"  filling="0" d="M60.0 48.0 L70.0 62.0 L70.0 62.0 L60.0 48.0 L60.0 48.0 L60.0 48.0 Z"></path>
<path fill="#ff5555" fill-opacity="1.0"  filling="0" d="M60.0 48.0 L70.0 62.0 L70.0 62.0 L60.0 48.0 L60.0 48.0 L60.0 48.0 Z"></path>
<path fill="#ff5555" fill-opacity="1.0"  filling="0" d="M60.0 48.0 L70.0 62.0 L70.0 62.0 L60.0 48.0 L60.0 48.0 L60.0 48.0 Z"></path>
<path fill="#ff5555" fill-opacity="1.0"  filling="0" d="M60.0 48.0 L70.0 62.0 L70.0 62.0 L60.0 48.0 L60.0 48.0 L60.0 48.0 Z"></path>
<path fill="#ff5555" fill-opacity="1.0"  filling="0" d="M60.0 48.0 L70.0 62.0 L70.0 62.0 L60.0 48.0 L60.0 48.0 L60.0 48.0 Z"></path>
<path fill="#ff5555" fill-opacity="1.0"  filling="0" d="M60.0 49.0 L70.0 62.0 L70.0 62.0 L60.0 48.0 L60.0 49.0 L60.0 49.0 Z"></path>
<path fill="#ff5555" fill-opacity="1.0"  filling="0" d="M60.0 48.0 L70.0 62.0 L70.0 62.0 L60.0 49.0 L60.0 48.0 L60.0 48.0 Z"></path>
<path fill="#ff5555" fill-opacity="1.0"  filling="0" d="M60.0 49.0 L70.0 62.0 L70.0 62.0 L60.0 48.0 L60.0 49.0 L60.0 49.0 Z"></path>
<path fill="#ff5555" fill-opacity="1.0"  filling="0" d="M60.0 49.0 L70.0 62.0 L70.0 62.0 L60.0 49.0 L60.0 49.0 L60.0 49.0 Z"></path>
<path fill="#ff5555" fill-opacity="1.0"  filling="0" d="M60.0 49.0 L70.0 62.0 L70.0 62.0 L60.0 49.0 L60.0 49.0 L60.0 49.0 Z"></path>
<path fill="#ff5555" fill-opacity="1.0"  filling="0" d="M60.0 50.0 L70.0 62.0 L70.0 62.0 L60.0 50.0 L60.0 50.0 L60.0 50.0 Z"></path>
<path fill="#ff5555" fill-opacity="1.0"  filling="0" d="M60.0 50.0 L70.0 62.0 L70.0 62.0 L60.0 50.0 L60.0 50.0 L60.0 50.0 Z"></path>
<path fill="#ff5555" fill-opacity="1.0"  filling="0" d="M60.0 50.0 L70.0 62.0 L70.0 62.0 L60.0 50.0 L60.0 50.0 L60.0 50.0 Z"></path>
<path fill="#ff5555" fill-opacity="1.0"  filling="0" d="M60.0 50.0 L70.0 62.0 L70.0 62.0 L60.0 50.0 L60.0 50.0 L60.0 50.0 Z"></path>
<path fill="#ff5555" fill-opacity="1.0"  filling="0" d="M60.0 50.0 L70.0 62.0 L70.0 62.0 L60.0 50.0 L60.0 50.0 L60.0 50.0 Z"></path>
<path fill="#ff5555" fill-opacity="1.0"  filling="0" d="M60.0 50.0 L70.0 62.0 L70.0 62.0 L60.0 50.0 L60.0 50.0 L60.0 50.0 Z"></path>
<path fill="#ff5555" fill-opacity="1.0"  filling="0" d="M60.0 50.0 L70.0 62.0 L70.0 62.0 L60.0 50.0 L60.0 50.0 L60.0 50.0 Z"></path>
<path fill="#ff5555" fill-opacity="1.0"  filling="0" d="M60.0 50.0 L70.0 62.0 L70.0 62.0 L60.0 50.0 L60.0 50.0 L60.0 50.0 Z"></path>
<path fill="#ff5555" fill-opacity="1.0"  filling="0" d="M60.0 50.0 L70.0 62.0 L70.0 62.0 L60.0 50.0 L60.0 50.0 L60.0 50.0 Z"></path>
<path fill="#ff5555" fill-opacity="1.0"  filling="0" d="M60.0 50.0 L70.0 62.0 L70.0 62.0 L60.0 50.0 L60.0 50.0 L60.0 50.0 Z"></path>
<path fill="#ff5555" fill-opacity="1.0"  filling="0" d="M60.0 50.0 L70.0 62.0 L70.0 62.0 L60.0 50.0 L60.0 50.0 L60.0 50.0 Z"></path>
<path fill="#ff5555" fill-opacity="1.0"  filling="0" d="M60.0 50.0 L70.0 62.0 L70.0 62.0 L60.0 50.0 L60.0 50.0 L60.0 50.0 Z"></path>
<path fill="#ff5555" fill-opacity="1.0"  filling="0" d="M60.0 50.0 L70.0 62.0 L70.0 62.0 L60.0 50.0 L60.0 50.0 L60.0 50.0 Z"></path>
<path fill="#ff5555" fill-opacity="1.0"  filling="0" d="M60.0 50.0 L70.0 62.0 L70.0 62.0 L60.0 50.0 L60.0 50.0 L60.0 50.0 Z"></path>
<path fill="#ff5555" fill-opacity="1.0"  filling="0" d="M60.0 50.0 L70.0 62.0 L70.0 62.0 L60.0 50.0 L60.0 50.0 L60.0 50.0 Z"></path>
<path fill="#ff5555" fill-opacity="1.0"  filling="0" d="M60.0 50.0 L70.0 62.0 L70.0 62.0 L60.0 50.0 L60.0 50.0 L60.0 50.0 Z"></path>
<path fill="#ff5555" fill-opacity="1.0"  filling="0" d="M60.0 50.0 L70.0 62.0 L70.0 62.0 L60.0 50.0 L60.0 50.0 L60.0 50.0 Z"></path>
<path fill="#ff5555" fill-opacity="1.0"  filling="0" d="M60.0 50.0 L70.0 62.0 L70.0 62.0 L60.0 50.0 L60.0 50.0 L60.0 50.0 Z"></path>
<path fill="#ff5555" fill-opacity="1.0"  filling="0" d="M60.0 50.0 L70.0 62.0 L70.0 62.0 L60.0 50.0 L60.0 50.0 L60.0 50.0 Z"></path>
<path fill="#ff5555" fill-opacity="1.0"  filling="0" d="M60.0 50.0 L70.0 62.0 L70.0 62.0 L60.0 50.0 L60.0 50.0 L60.0 50.0 Z"></path>
<path fill="#ff5555" fill-opacity="1.0"  filling="0" d="M60.0 50.0 L70.0 62.0 L70.0 62.0 L60.0 50.0 L60.0 50.0 L60.0 50.0 Z"></path>
<path fill="#ff5555" fill-opacity="1.0"  filling="0" d="M60.0 50.0 L70.0 62.0 L70.0 62.0 L60.0 50.0 L60.0 50.0 L60.0 50.0 Z"></path>
<path fill="#ff5555" fill-opacity="1.0"  filling="0" d="M60.0 50.0 L70.0 62.0 L70.0 62.0 L60.0 50.0 L60.0 50.0 L60.0 50.0 Z"></path>
<path fill="#ff5555" fill-opacity="1.0"  filling="0" d="M60.0 50.0 L70.0 62.0 L70.0 62.0 L60.0 50.0 L60.0 50.0 L60.0 50.0 Z"></path>
<path fill="#ff5555" fill-opacity="1.0"  filling="0" d="M60.0 50.0 L70.0 62.0 L70.0 62.0 L60.0 50.0 L60.0 50.0 L60.0 50.0 Z"></path>
<path fill="#ff5555" fill-opacity="1.0"  filling="0" d="M60.0 50.0 L70.0 62.0 L70.0 62.0 L60.0 50.0 L60.0 50.0 L60.0 50.0 Z"></path>
<path fill="#ff5555" fill-opacity="1.0"  filling="0" d="M60.0 50.0 L70.0 62.0 L70.0 62.0 L60.0 50.0 L60.0 50.0 L60.0 50.0 Z"></path>
<path fill="#ff5555" fill-opacity="1.0"  filling="0" d="M60.0 50.0 L70.0 62.0 L70.0 62.0 L60.0 50.0 L60.0 50.0 L60.0 50.0 Z"></path>
<path fill="#ff5555" fill-opacity="1.0"  filling="0" d="M60.0 50.0 L70.0 62.0 L70.0 62.0 L60.0 50.0 L60.0 50.0 L60.0 50.0 Z"></path>
<path fill="#ff5555" fill-opacity="1.0"  filling="0" d="M60.0 50.0 L70.0 62.0 L70.0 62.0 L60.0 50.0 L60.0 50.0 L60.0 50.0 Z"></path>
<path fill="#ff5555" fill-opacity="1.0"  filling="0" d="M60.0 50.0 L70.0 62.0 L70.0 62.0 L60.0 50.0 L60.0 50.0 L60.0 50.0 Z"></path>
<path fill="#ff5555" fill-opacity="1.0"  filling="0" d="M60.0 50.0 L70.0 62.0 L70.0 62.0 L60.0 50.0 L60.0 50.0 L60.0 50.0 Z"></path>
<path fill="#ff5555" fill-opacity="1.0"  filling="0" d="M60.0 50.0 L70.0 62.0 L70.0 62.0 L60.0 50.0 L60.0 50.0 L60.0 50.0 Z"></path>
<path fill="#ff5555" fill-opacity="1.0"  filling="0" d="M60.0 50.0 L70.0 62.0 L70.0 62.0 L60.0 50.0 L60.0 50.0 L60.0 50.0 Z"></path>
<path fill="#000000" fill-opacity="1.0"  filling="0" d="M60.0 50.0 L70.0 62.0 L70.0 62.0 L60.0 50.0 L60.0 50.0 L60.0 50.0 Z"></path></svg>