<svg xmlns="http://www.w3.org/2000/svg" viewBox="0.0 0.0 200.0 200.0" height="200px" width="200px"><path fill="#000000" fill-opacity="1.0"  filling="0" d="M139.0 78.0 C139.0 78.0 147.0 69.0 149.0 67.0 C151.0 66.0 157.0 66.0 157.0 70.0 L157.0 117.0 L139.0 117.0 L139.0 78.0 L139.0 78.0 Z M92.0 97.0 C92.0 97.0 91.0 96.0 91.0 96.0 L91.0 72.0 C91.0 68.0 94.0 66.0 97.0 67.0 C101.0 68.0 107.0 78.0 112.0 78.0 C115.0 78.0 118.0 76.0 124.0 76.0 C131.0 76.0 138.0 78.0 144.0 83.0 C151.0 89.0 157.0 98.0 159.0 110.0 C159.0 126.0 146.0 141.0 125.0 141.0 C120.0 141.0 116.0 140.0 112.0 138.0 C112.0 138.0 112.0 138.0 112.0 138.0 C112.0 138.0 112.0 138.0 112.0 138.0 C112.0 138.0 112.0 138.0 112.0 138.0 C112.0 138.0 112.0 138.0 112.0 138.0 C41825.0 41825.0 -5.0 -5.0 0.0 0.0 M49.0 49.0 C49.0 49.0 50.0 49.0 50.0 49.0 C50.0 49.0 50.0 49.0 50.0 49.0 C50.0 49.0 50.0 49.0 50.0 49.0 C50.0 49.0 50.0 49.0 50.0 49.0 C51.0 49.0 51.0 48.0 51.0 48.0 C51.0 48.0 51.0 48.0 51.0 48.0 C51.0 48.0 51.0 48.0 51.0 48.0 C51.0 48.0 51.0 48.0 51.0 48.0 C51.0 48.0 51.0 48.0 51.0 48.0 C51.0 48.0 51.0 48.0 51.0 48.0 C51.0 48.0 51.0 48.0 51.0 48.0 C51.0 48.0 51.0 48.0 51.0 48.0 C51.0 48.0 52.0 48.0 52.0 48.0 C52.0 48.0 52.0 48.0 52.0 48.0 C52.0 48.0 52.0 48.0 52.0 48.0 C52.0 48.0 52.0 48.0 52.0 48.0 C52.0 48.0 52.0 48.0 52.0 48.0 C52.0 48.0 52.0 48.0 52.0 48.0 C52.0 48.0 52.0 48.0 52.0 48.0 C52.0 48.0 52.0 48.0 52.0 48.0 C53.0 48.0 53.0 48.0 53.0 48.0 C53.0 48.0 53.0 48.0 53.0 48.0 C53.0 48.0 53.0 48.0 53.0 48.0 C53.0 48.0 53.0 48.0 53.0 48.0 C53.0 48.0 53.0 48.0 53.0 48.0 C53.0 48.0 53.0 48.0 53.0 48.0 C53.0 48.0 53.0 48.0 53.0 48.0 C53.0 48.0 54.0 48.0 54.0 48.0 C54.0 48.0 54.0 48.0 54.0 48.0 C54.0 48.0 54.0 48.0 54.0 48.0 C54.0 48.0 54.0 48.0 54.0 48.0 C54.0 48.0 54.0 48.0 54.0 48.0 C54.0 48.0 54.0 48.0 54.0 48.0 C54.0 48.0 54.0 48.0 54.0 48.0 C54.0 48.0 54.0 48.0 54.0 48.0 C55.0 48.0 55.0 48.0 55.0 48.0 C55.0 48.0 55.0 48.0 55.0 48.0 C55.0 48.0 55.0 48.0 55.0 48.0 C55.0 48.0 55.0 48.0 55.0 48.0 C55.0 48.0 55.0 48.0 55.0 48.0 C55.0 48.0 55.0 48.0 55.0 48.0 C55.0 48.0 55.0 48.0 55.0 48.0 C55.0 48.0 55.0 48.0 55.0 48.0 C55.0 48.0 56.0 48.0 56.0 48.0 C56.0 48.0 56.0 48.0 56.0 48.0 C56.0 48.0 56.0 48.0 56.0 48.0 C56.0 48.0 56.0 48.0 56.0 48.0 C56.0 48.0 56.0 48.0 56.0 48.0 C56.0 48.0 56.0 48.0 56.0 48.0 C56.0 48.0 56.0 48.0 56.0 48.0 C56.0 48.0 56.0 48.0 56.0 48.0 C56.0 48.0 57.0 48.0 57.0 48.0 C57.0 48.0 57.0 48.0 57.0 48.0 C57.0 48.0 57.0 48.0 57.0 48.0 C57.0 48.0 57.0 48.0 57.0 48.0 C57.0 48.0 57.0 48.0 57.0 48.0 C57.0 48.0 57.0 48.0 57.0 48.0 C57.0 48.0 57.0 48.0 57.0 48.0 C57.0 48.0 57.0 48.0 57.0 48.0 C57.0 48.0 58.0 48.0 58.0 48.0 C58.0 48.0 58.0 48.0 58.0 48.0 C58.0 48.0 58.0 48.0 58.0 48.0 C58.0 48.0 58.0 48.0 58.0 48.0 C58.0 48.0 58.0 48.0 58.0 48.0 C58.0 48.0 58.0 48.0 58.0 48.0 C58.0 48.0 58.0 48.0 59.0 48.0 C59.0 48.0 59.0 48.0 59.0 48.0 C59.0 48.0 59.0 48.0 59.0 48.0 C59.0 48.0 59.0 48.0 59.0 48.0 C59.0 48.0 59.0 48.0 59.0 48.0 C59.0 48.0 59.0 48.0 59.0 48.0 C59.0 48.0 59.0 48.0 59.0 48.0 C59.0 48.0 59.0 48.0 59.0 48.0 C59.0 48.0 59.0 48.0 59.0 48.0 C60.0 48.0 60.0 48.0 60.0 48.0 C60.0 48.0 60.0 48.0 60.0 48.0 C60.0 48.0 60.0 48.0 60.0 48.0 C60.0 48.0 60.0 48.0 60.0 48.0 C60.0 48.0 60.0 48.0 60.0 48.0 C60.0 48.0 60.0 48.0 60.0 48.0 C60.0 48.0 60.0 48.0 60.0 48.0 C60.0 48.0 60.0 48.0 60.0 48.0 C61.0 48.0 61.0 48.0 61.0 48.0 C61.0 48.0 61.0 48.0 61.0 48.0 C61.0 48.0 61.0 48.0 61.0 48.0 C61.0 48.0 61.0 48.0 61.0 48.0 C61.0 48.0 61.0 48.0 61.0 48.0 C61.0 48.0 61.0 48.0 61.0 48.0 C61.0 48.0 61.0 48.0 61.0 48.0 C61.0 48.0 61.0 48.0 61.0 48.0 C61.0 48.0 62.0 48.0 62.0 48.0 C62.0 48.0 62.0 48.0 62.0 48.0 C62.0 48.0 62.0 48.0 62.0 48.0 C62.0 48.0 62.0 48.0 62.0 48.0 C62.0 48.0 62.0 48.0 62.0 48.0 C62.0 48.0 62.0 48.0 62.0 48.0 C62.0 48.0 62.0 48.0 62.0 48.0 C62.0 48.0 62.0 48.0 62.0 48.0 C62.0 48.0 62.0 48.0 62.0 48.0 C63.0 48.0 63.0 48.0 63.0 48.0 C63.0 48.0 63.0 48.0 63.0 48.0 C63.0 48.0 63.0 48.0 63.0 48.0 C63.0 48.0 63.0 48.0 63.0 48.0 C63.0 48.0 63.0 48.0 63.0 48.0 C63.0 48.0 63.0 48.0 63.0 48.0 C63.0 48.0 63.0 48.0 63.0 48.0 C63.0 48.0 63.0 48.0 63.0 48.0 C63.0 48.0 64.0 48.0 64.0 48.0 C64.0 48.0 64.0 48.0 64.0 48.0 C64.0 48.0 64.0 48.0 64.0 48.0 C64.0 48.0 64.0 48.0 64.0 48.0 C64.0 48.0 64.0 48.0 64.0 48.0 C64.0 48.0 64.0 48.0 64.0 48.0 C64.0 48.0 64.0 48.0 64.0 48.0 C64.0 48.0 64.0 48.0 64.0 48.0 C64.0 48.0 65.0 48.0 65.0 48.0 C65.0 48.0 65.0 48.0 65.0 48.0 C65.0 48.0 65.0 48.0 65.0 48.0 C65.0 48.0 65.0 48.0 65.0 48.0 C65.0 48.0 65.0 48.0 65.0 48.0 C65.0 48.0 65.0 48.0 65.0 48.0 C65.0 48.0 65.0 48.0 65.0 48.0 C65.0 48.0 65.0 48.0 65.0 48.0 C65.0 48.0 65.0 48.0 66.0 48.0 C66.0 48.0 66.0 48.0 66.0 48.0 C66.0 48.0 66.0 48.0 66.0 48.0 C66.0 48.0 66.0 48.0 66.0 48.0 C66.0 48.0 66.0 48.0 66.0 48.0 C66.0 48.0 66.0 48.0 66.0 48.0 C66.0 48.0 66.0 48.0 66.0 48.0 C66.0 48.0 66.0 48.0 66.0 48.0 C66.0 48.0 67.0 48.0 67.0 48.0 C67.0 48.0 67.0 48.0 67.0 48.0 C67.0 48.0 67.0 48.0 67.0 48.0 C67.0 48.0 67.0 48.0 67.0 48.0 C67.0 48.0 67.0 48.0 67.0 48.0 C67.0 48.0 67.0 48.0 67.0 48.0 C67.0 48.0 67.0 48.0 67.0 48.0 C67.0 48.0 67.0 48.0 67.0 48.0 C67.0 48.0 67.0 48.0 68.0 48.0 C68.0 48.0 68.0 48.0 68.0 48.0 C68.0 48.0 68.0 48.0 68.0 48.0 C68.0 48.0 68.0 48.0 68.0 48.0 C68.0 48.0 68.0 48.0 68.0 48.0 C68.0 48.0 68.0 48.0 68.0 48.0 C68.0 48.0 68.0 48.0 68.0 48.0 C68.0 48.0 68.0 48.0 68.0 48.0 C68.0 48.0 68.0 48.0 69.0 48.0 C69.0 48.0 69.0 48.0 69.0 48.0 C69.0 48.0 69.0 48.0 69.0 48.0 C69.0 48.0 69.0 48.0 69.0 48.0 C69.0 48.0 69.0 48.0 69.0 48.0 C69.0 48.0 69.0 48.0 69.0 48.0 C69.0 48.0 69.0 48.0 69.0 48.0 C69.0 48.0 69.0 48.0 69.0 48.0 C69.0 48.0 69.0 48.0 69.0 48.0 C70.0 48.0 70.0 48.0 70.0 48.0 C70.0 48.0 70.0 48.0 70.0 48.0 C70.0 48.0 70.0 48.0 70.0 48.0 C70.0 48.0 70.0 48.0 70.0 48.0 C70.0 48.0 70.0 48.0 70.0 48.0 C70.0 48.0 70.0 48.0 70.0 48.0 C70.0 48.0 70.0 48.0 70.0 48.0 C70.0 48.0 70.0 48.0 70.0 48.0 C70.0 48.0 70.0 48.0 71.0 48.0 C71.0 48.0 71.0 48.0 71.0 48.0 C71.0 48.0 71.0 48.0 71.0 48.0 C71.0 48.0 71.0 48.0 71.0 48.0 C71.0 48.0 71.0 48.0 71.0 48.0 C71.0 48.0 71.0 48.0 71.0 48.0 C71.0 48.0 71.0 48.0 71.0 48.0 C71.0 48.0 71.0 48.0 72.0 48.0 C72.0 48.0 72.0 48.0 72.0 48.0 C72.0 48.0 72.0 48.0 72.0 48.0 C72.0 48.0 72.0 48.0 72.0 48.0 C72.0 48.0 72.0 48.0 72.0 48.0 C72.0 48.0 72.0 48.0 72.0 48.0 C72.0 48.0 72.0 48.0 72.0 48.0 C72.0 48.0 73.0 48.0 73.0 48.0 C73.0 48.0 73.0 48.0 73.0 48.0 C73.0 48.0 73.0 48.0 73.0 48.0 C73.0 48.0 73.0 48.0 73.0 48.0 C73.0 48.0 73.0 48.0 73.0 48.0 C73.0 48.0 73.0 48.0 73.0 48.0 C73.0 48.0 73.0 48.0 73.0 48.0 C73.0 48.0 73.0 48.0 73.0 48.0 C74.0 48.0 74.0 48.0 74.0 48.0 C74.0 48.0 74.0 48.0 74.0 48.0 C74.0 48.0 74.0 48.0 74.0 48.0 C74.0 48.0 74.0 48.0 74.0 48.0 C74.0 48.0 74.0 48.0 74.0 48.0 C74.0 48.0 74.0 48.0 74.0 48.0 C74.0 48.0 74.0 48.0 75.0 48.0 C75.0 48.0 75.0 48.0 75.0 48.0 C75.0 48.0 75.0 48.0 75.0 48.0 C75.0 48.0 75.0 48.0 75.0 48.0 C75.0 48.0 75.0 48.0 75.0 48.0 C75.0 48.0 75.0 48.0 75.0 48.0 C75.0 48.0 75.0 48.0 75.0 48.0 C75.0 48.0 75.0 48.0 75.0 48.0 C75.0 48.0 75.0 48.0 76.0 48.0 C76.0 48.0 76.0 48.0 76.0 48.0 C76.0 48.0 76.0 48.0 76.0 48.0 C76.0 48.0 76.0 48.0 76.0 48.0 C76.0 48.0 76.0 48.0 76.0 48.0 C76.0 48.0 76.0 48.0 76.0 48.0 C76.0 48.0 76.0 48.0 76.0 48.0 C76.0 48.0 76.0 48.0 77.0 48.0 C77.0 48.0 77.0 48.0 77.0 48.0 C77.0 48.0 77.0 48.0 77.0 48.0 C77.0 48.0 77.0 48.0 77.0 48.0 C77.0 48.0 77.0 48.0 77.0 48.0 C77.0 48.0 77.0 48.0 77.0 48.0 C77.0 48.0 77.0 48.0 77.0 48.0 C77.0 48.0 77.0 48.0 77.0 48.0 C78.0 48.0 78.0 48.0 78.0 48.0 C78.0 48.0 78.0 48.0 78.0 48.0 C78.0 48.0 78.0 48.0 78.0 48.0 C78.0 48.0 78.0 48.0 78.0 48.0 C78.0 48.0 78.0 48.0 78.0 48.0 C78.0 48.0 78.0 48.0 78.0 48.0 C78.0 48.0 78.0 48.0 78.0 48.0 C78.0 48.0 78.0 48.0 79.0 48.0 C79.0 48.0 79.0 48.0 79.0 48.0 C79.0 48.0 79.0 48.0 79.0 48.0 C79.0 48.0 79.0 48.0 79.0 48.0 C79.0 48.0 79.0 48.0 79.0 48.0 C79.0 48.0 79.0 48.0 79.0 48.0 C79.0 48.0 79.0 48.0 79.0 48.0 C79.0 48.0 79.0 48.0 80.0 48.0 C80.0 48.0 80.0 48.0 80.0 48.0 C80.0 48.0 80.0 48.0 80.0 48.0 C80.0 48.0 80.0 48.0 80.0 48.0 C80.0 48.0 80.0 48.0 80.0 48.0 C80.0 48.0 80.0 48.0 80.0 48.0 C80.0 48.0 80.0 48.0 80.0 48.0 C80.0 48.0 80.0 48.0 80.0 48.0 C80.0 48.0 80.0 48.0 81.0 48.0 C81.0 48.0 81.0 48.0 81.0 48.0 C81.0 48.0 81.0 48.0 81.0 48.0 C81.0 48.0 81.0 48.0 81.0 48.0 C81.0 48.0 81.0 48.0 81.0 48.0 C81.0 48.0 81.0 48.0 81.0 48.0 C81.0 48.0 81.0 48.0 81.0 48.0 C81.0 48.0 81.0 48.0 81.0 48.0 C81.0 48.0 81.0 48.0 82.0 48.0 C82.0 48.0 82.0 48.0 82.0 48.0 C82.0 48.0 82.0 48.0 82.0 48.0 C82.0 48.0 82.0 48.0 82.0 48.0 C82.0 48.0 82.0 48.0 82.0 48.0 C82.0 48.0 82.0 48.0 82.0 48.0 C82.0 48.0 82.0 48.0 82.0 48.0 C82.0 48.0 82.0 48.0 82.0 48.0 C82.0 48.0 82.0 48.0 83.0 48.0 C83.0 48.0 83.0 48.0 83.0 48.0 C83.0 48.0 83.0 48.0 83.0 48.0 C83.0 48.0 83.0 48.0 83.0 48.0 C83.0 48.0 83.0 48.0 83.0 48.0 C83.0 48.0 83.0 48.0 83.0 48.0 C83.0 48.0 83.0 48.0 83.0 48.0 C83.0 48.0 83.0 48.0 83.0 48.0 C83.0 48.0 83.0 48.0 84.0 48.0 C84.0 48.0 84.0 48.0 84.0 48.0 C84.0 48.0 84.0 48.0 84.0 48.0 C84.0 48.0 84.0 48.0 84.0 48.0 C84.0 48.0 84.0 48.0 84.0 48.0 C84.0 48.0 84.0 48.0 84.0 48.0 C84.0 48.0 84.0 48.0 84.0 48.0 C84.0 48.0 84.0 48.0 84.0 48.0 C85.0 48.0 85.0 48.0 85.0 48.0 C85.0 48.0 85.0 48.0 85.0 48.0 C85.0 48.0 85.0 48.0 85.0 48.0 C85.0 48.0 85.0 48.0 85.0 48.0 C85.0 48.0 85.0 48.0 85.0 48.0 C85.0 48.0 85.0 48.0 85.0 48.0 C85.0 48.0 85.0 48.0 85.0 48.0 C85.0 48.0 86.0 48.0 86.0 48.0 C86.0 48.0 86.0 48.0 86.0 48.0 C86.0 48.0 86.0 48.0 86.0 48.0 C86.0 48.0 86.0 48.0 86.0 48.0 C86.0 48.0 86.0 48.0 86.0 48.0 C86.0 48.0 86.0 48.0 86.0 48.0 C86.0 48.0 86.0 48.0 86.0 48.0 C86.0 48.0 86.0 48.0 87.0 48.0 C87.0 48.0 87.0 48.0 87.0 48.0 C87.0 48.0 87.0 48.0 87.0 48.0 C87.0 48.0 87.0 48.0 87.0 48.0 C87.0 48.0 87.0 48.0 87.0 48.0 C87.0 48.0 87.0 48.0 87.0 48.0 C87.0 48.0 87.0 48.0 87.0 48.0 C87.0 48.0 87.0 48.0 88.0 48.0 C88.0 48.0 88.0 48.0 88.0 48.0 C88.0 48.0 88.0 48.0 88.0 48.0 C88.0 48.0 88.0 48.0 88.0 48.0 C88.0 48.0 88.0 48.0 88.0 48.0 C88.0 48.0 88.0 48.0 88.0 48.0 C88.0 48.0 88.0 48.0 88.0 48.0 C88.0 48.0 88.0 48.0 88.0 48.0 C88.0 48.0 88.0 48.0 89.0 48.0 C89.0 48.0 89.0 48.0 89.0 48.0 C89.0 48.0 89.0 48.0 89.0 48.0 C89.0 48.0 89.0 48.0 89.0 48.0 C89.0 48.0 89.0 48.0 89.0 48.0 C89.0 48.0 89.0 48.0 89.0 48.0 C89.0 48.0 89.0 48.0 89.0 48.0 C89.0 48.0 89.0 48.0 89.0 48.0 C89.0 48.0 89.0 48.0 90.0 48.0 C90.0 48.0 90.0 48.0 90.0 48.0 C90.0 48.0 90.0 48.0 90.0 48.0 C90.0 48.0 90.0 48.0 90.0 48.0 C90.0 48.0 90.0 48.0 90.0 48.0 C90.0 48.0 90.0 48.0 90.0 48.0 C90.0 48.0 90.0 48.0 90.0 48.0 C90.0 48.0 90.0 48.0 90.0 48.0 C90.0 48.0 90.0 48.0 91.0 48.0 C91.0 48.0 91.0 48.0 91.0 48.0 C91.0 48.0 91.0 48.0 91.0 48.0 C91.0 48.0 91.0 48.0 91.0 48.0 C91.0 48.0 91.0 48.0 91.0 48.0 C91.0 48.0 91.0 48.0 91.0 48.0 C91.0 48.0 91.0 48.0 91.0 48.0 C91.0 48.0 91.0 48.0 92.0 48.0 C92.0 48.0 92.0 48.0 92.0 48.0 C92.0 48.0 92.0 48.0 92.0 48.0 C92.0 48.0 92.0 48.0 92.0 48.0 C92.0 48.0 92.0 48.0 92.0 48.0 C92.0 48.0 92.0 48.0 92.0 48.0 C92.0 48.0 92.0 48.0 92.0 48.0 C92.0 48.0 93.0 48.0 93.0 48.0 C93.0 48.0 93.0 48.0 93.0 48.0 C93.0 48.0 93.0 48.0 93.0 48.0 C93.0 48.0 93.0 48.0 93.0 48.0 C93.0 48.0 93.0 48.0 93.0 48.0 C93.0 48.0 93.0 48.0 93.0 48.0 C93.0 48.0 93.0 48.0 93.0 48.0 C93.0 48.0 93.0 48.0 94.0 48.0 C94.0 48.0 94.0 48.0 94.0 48.0 C94.0 48.0 94.0 48.0 94.0 48.0 C94.0 48.0 94.0 48.0 94.0 48.0 C94.0 48.0 94.0 48.0 94.0 48.0 C94.0 48.0 94.0 48.0 94.0 48.0 C94.0 48.0 94.0 48.0 94.0 48.0 C94.0 48.0 94.0 48.0 94.0 48.0 C94.0 48.0 95.0 48.0 95.0 48.0 C95.0 48.0 95.0 48.0 95.0 48.0 C95.0 48.0 95.0 48.0 95.0 48.0 C95.0 48.0 95.0 48.0 95.0 48.0 C95.0 48.0 95.0 48.0 95.0 48.0 C95.0 48.0 95.0 48.0 95.0 48.0 C95.0 48.0 95.0 48.0 95.0 48.0 C95.0 48.0 95.0 48.0 96.0 48.0 C96.0 48.0 96.0 48.0 96.0 48.0 C96.0 48.0 96.0 48.0 96.0 48.0 C96.0 48.0 96.0 48.0 96.0 48.0 C96.0 48.0 96.0 48.0 96.0 48.0 C96.0 48.0 96.0 48.0 96.0 48.0 C96.0 48.0 96.0 48.0 96.0 48.0 C96.0 48.0 96.0 48.0 97.0 48.0 C97.0 48.0 97.0 48.0 97.0 48.0 C97.0 48.0 97.0 48.0 97.0 48.0 C97.0 48.0 97.0 48.0 97.0 48.0"></path></svg>