<svg xmlns="http://www.w3.org/2000/svg" viewBox="0.0 0.0 200.0 200.0" height="200px" width="200px"><path fill="#000000" fill-opacity="1.0"  filling="0" d="M139.0 78.0 C139.0 78.0 144.0 69.0 148.0 68.0 C152.0 66.0 157.0 67.0 157.0 70.0 L157.0 117.0 L139.0 117.0 L139.0 78.0 L139.0 78.0 Z M92.0 97.0 C92.0 97.0 91.0 96.0 91.0 96.0 C91.0 96.0 91.0 96.0 91.0 96.0 C91.0 96.0 91.0 96.0 91.0 96.0 C91.0 96.0 91.0 96.0 91.0 96.0 C91.0 96.0 91.0 96.0 91.0 96.0 C91.0 96.0 91.0 96.0 91.0 96.0 C91.0 96.0 91.0 96.0 91.0 96.0 C91.0 96.0 91.0 96.0 91.0 96.0 C91.0 96.0 91.0 96.0 91.0 96.0 C91.0 96.0 91.0 96.0 91.0 96.0 C91.0 96.0 91.0 96.0 91.0 96.0 C91.0 96.0 91.0 96.0 91.0 96.0 C91.0 96.0 91.0 96.0 91.0 96.0 C91.0 96.0 91.0 96.0 91.0 96.0 C91.0 96.0 91.0 96.0 91.0 96.0 C91.0 96.0 91.0 96.0 91.0 96.0 C91.0 96.0 91.0 96.0 91.0 96.0 C91.0 96.0 91.0 96.0 91.0 96.0 C91.0 96.0 91.0 96.0 91.0 96.0 C91.0 96.0 91.0 96.0 91.0 96.0 C91.0 96.0 91.0 96.0 91.0 96.0 C91.0 96.0 91.0 96.0 91.0 96.0 C91.0 96.0 91.0 96.0 91.0 96.0 C91.0 96.0 91.0 96.0 91.0 96.0 C91.0 96.0 91.0 96.0 91.0 96.0 C91.0 96.0 91.0 96.0 91.0 96.0 C91.0 96.0 91.0 96.0 91.0 96.0 C91.0 96.0 91.0 96.0 91.0 96.0 C91.0 96.0 91.0 96.0 91.0 96.0 C91.0 96.0 91.0 96.0 91.0 96.0 C91.0 96.0 91.0 96.0 91.0 96.0 C91.0 96.0 91.0 96.0 91.0 96.0 C91.0 96.0 91.0 96.0 91.0 96.0 C91.0 96.0 91.0 96.0 91.0 96.0 C91.0 96.0 91.0 96.0 91.0 96.0 C91.0 96.0 91.0 96.0 91.0 96.0 C91.0 96.0 91.0 96.0 91.0 96.0 C91.0 96.0 91.0 96.0 91.0 96.0 C91.0 96.0 91.0 96.0 91.0 96.0 C91.0 96.0 91.0 96.0 91.0 96.0 C91.0 96.0 91.0 96.0 91.0 96.0 C91.0 96.0 91.0 96.0 91.0 96.0 C91.0 96.0 91.0 96.0 91.0 96.0 C91.0 96.0 91.0 96.0 91.0 96.0 C91.0 96.0 91.0 96.0 91.0 96.0 C91.0 96.0 91.0 96.0 91.0 96.0 C91.0 96.0 91.0 96.0 91.0 96.0 C91.0 96.0 91.0 96.0 91.0 96.0 C91.0 96.0 91.0 96.0 91.0 96.0 C91.0 96.0 91.0 96.0 91.0 96.0 C91.0 96.0 91.0 96.0 91.0 96.0 C91.0 96.0 91.0 96.0 91.0 96.0 C91.0 96.0 91.0 96.0 91.0 96.0 C91.0 96.0 91.0 96.0 91.0 96.0 C91.0 96.0 91.0 96.0 91.0 96.0 C91.0 96.0 91.0 96.0 91.0 96.0 C91.0 96.0 91.0 96.0 91.0 96.0 C91.0 96.0 91.0 96.0 91.0 96.0 C91.0 96.0 91.0 96.0 91.0 96.0 C91.0 96.0 91.0 96.0 91.0 96.0 C91.0 96.0 91.0 96.0 91.0 96.0 C91.0 96.0 91.0 96.0 91.0 96.0 C91.0 96.0 91.0 96.0 91.0 96.0 C91.0 96.0 91.0 96.0 91.0 96.0 C91.0 96.0 91.0 96.0 91.0 96.0 C91.0 96.0 91.0 96.0 91.0 96.0 C91.0 96.0 91.0 96.0 91.0 96.0 C91.0 96.0 91.0 96.0 91.0 96.0 C91.0 96.0 91.0 96.0 91.0 96.0 C91.0 96.0 91.0 96.0 91.0 96.0 C91.0 96.0 91.0 96.0 91.0 96.0 C91.0 96.0 91.0 96.0 91.0 96.0 C91.0 96.0 91.0 96.0 91.0 96.0 C91.0 96.0 91.0 96.0 91.0 96.0 C91.0 96.0 91.0 96.0 91.0 96.0 C91.0 96.0 91.0 96.0 91.0 96.0 C91.0 96.0 91.0 96.0 91.0 96.0 C91.0 96.0 91.0 96.0 91.0 96.0 C91.0 96.0 91.0 96.0 91.0 96.0 C91.0 96.0 91.0 96.0 91.0 96.0 C91.0 96.0 91.0 96.0 91.0 96.0 C91.0 96.0 91.0 96.0 91.0 96.0 C91.0 96.0 91.0 96.0 91.0 96.0 C91.0 96.0 91.0 96.0 91.0 96.0 C91.0 96.0 91.0 96.0 91.0 96.0 C91.0 96.0 91.0 96.0 91.0 96.0 C91.0 96.0 91.0 96.0 91.0 96.0 C91.0 96.0 91.0 96.0 91.0 96.0 C91.0 96.0 91.0 96.0 91.0 96.0 C91.0 96.0 91.0 96.0 91.0 96.0 C91.0 96.0 91.0 96.0 91.0 96.0 C91.0 96.0 91.0 96.0 91.0 96.0 C91.0 96.0 91.0 96.0 91.0 96.0 C91.0 96.0 91.0 96.0 91.0 96.0 C91.0 96.0 91.0 96.0 91.0 96.0 C91.0 96.0 91.0 96.0 91.0 96.0 C91.0 96.0 91.0 96.0 91.0 96.0 C91.0 96.0 91.0 96.0 91.0 96.0 C91.0 96.0 91.0 96.0 91.0 96.0 C91.0 96.0 91.0 96.0 91.0 96.0 C91.0 96.0 91.0 96.0 91.0 96.0 C91.0 96.0 91.0 96.0 91.0 96.0 C91.0 96.0 91.0 96.0 91.0 96.0 C91.0 96.0 91.0 96.0 91.0 96.0 C91.0 96.0 91.0 96.0 91.0 96.0 C91.0 96.0 91.0 96.0 91.0 96.0 C91.0 96.0 91.0 96.0 91.0 96.0 C91.0 96.0 91.0 96.0 91.0 96.0 C91.0 96.0 91.0 96.0 91.0 96.0 C91.0 96.0 91.0 96.0 91.0 96.0 C91.0 96.0 91.0 96.0 91.0 96.0 C91.0 96.0 91.0 96.0 91.0 96.0 C91.0 96.0 91.0 96.0 91.0 96.0 C91.0 96.0 91.0 96.0 91.0 96.0 C91.0 96.0 91.0 96.0 91.0 96.0 C91.0 96.0 91.0 96.0 91.0 96.0 C91.0 96.0 91.0 96.0 91.0 96.0 C91.0 96.0 91.0 96.0 91.0 96.0 C91.0 96.0 91.0 96.0 91.0 96.0 C91.0 96.0 91.0 96.0 91.0 96.0 C91.0 96.0 91.0 96.0 91.0 96.0 C91.0 96.0 91.0 96.0 91.0 96.0 C91.0 96.0 91.0 96.0 91.0 96.0 C91.0 96.0 91.0 96.0 91.0 96.0 C91.0 96.0 91.0 96.0 91.0 96.0 C91.0 96.0 91.0 96.0 91.0 96.0 C91.0 96.0 91.0 96.0 91.0 96.0 C91.0 96.0 91.0 96.0 91.0 96.0 C91.0 96.0 91.0 96.0 91.0 96.0 C91.0 96.0 91.0 96.0 91.0 96.0 C91.0 96.0 91.0 96.0 91.0 96.0 C91.0 96.0 91.0 96.0 91.0 96.0 C91.0 96.0 91.0 96.0 91.0 96.0 C91.0 96.0 91.0 96.0 91.0 96.0 C91.0 96.0 91.0 96.0 91.0 96.0 C91.0 96.0 91.0 96.0 91.0 96.0 C91.0 96.0 91.0 96.0 91.0 96.0 C91.0 96.0 91.0 96.0 91.0 96.0 C91.0 96.0 91.0 96.0 91.0 96.0 C91.0 96.0 91.0 96.0 91.0 96.0 C91.0 96.0 91.0 96.0 91.0 96.0 C91.0 96.0 91.0 96.0 91.0 96.0 C91.0 96.0 91.0 96.0 91.0 96.0 C91.0 96.0 91.0 96.0 91.0 96.0 C91.0 96.0 91.0 96.0 91.0 96.0 C91.0 96.0 91.0 96.0 91.0 96.0 C91.0 96.0 91.0 96.0 91.0 96.0 C91.0 96.0 91.0 96.0 91.0 96.0 C91.0 96.0 91.0 96.0 91.0 96.0 C91.0 96.0 91.0 96.0 91.0 96.0 C91.0 96.0 91.0 96.0 91.0 96.0 C91.0 96.0 91.0 96.0 91.0 96.0 C91.0 96.0 91.0 96.0 91.0 96.0 C91.0 96.0 91.0 96.0 91.0 96.0 C91.0 96.0 91.0 96.0 91.0 96.0 C91.0 96.0 91.0 96.0 91.0 96.0 C91.0 96.0 91.0 96.0 91.0 96.0 C91.0 96.0 91.0 96.0 91.0 96.0 C91.0 96.0 91.0 96.0 91.0 96.0 C91.0 96.0 91.0 96.0 91.0 96.0 C91.0 96.0 91.0 96.0 91.0 96.0 C91.0 96.0 91.0 96.0 91.0 96.0 C91.0 96.0 91.0 96.0 91.0 96.0 C91.0 96.0 91.0 96.0 91.0 96.0 C91.0 96.0 91.0 96.0 91.0 96.0 C91.0 96.0 91.0 96.0 91.0 96.0 C91.0 96.0 91.0 96.0 91.0 96.0 C91.0 96.0 91.0 96.0 91.0 96.0 C91.0 96.0 91.0 96.0 91.0 96.0 C91.0 96.0 91.0 96.0 91.0 96.0 C91.0 96.0 91.0 96.0 91.0 96.0 C91.0 96.0 91.0 96.0 91.0 96.0 C91.0 96.0 91.0 96.0 91.0 96.0 C91.0 96.0 91.0 96.0 91.0 96.0 C91.0 96.0 91.0 96.0 91.0 96.0 C91.0 96.0 91.0 96.0 91.0 96.0 C91.0 96.0 91.0 96.0 91.0 96.0 C91.0 96.0 91.0 96.0 91.0 96.0 C91.0 96.0 91.0 96.0 91.0 96.0 C91.0 96.0 91.0 96.0 91.0 96.0 C91.0 96.0 91.0 96.0 91.0 96.0 C91.0 96.0 91.0 96.0 91.0 96.0 C91.0 96.0 91.0 96.0 91.0 96.0 C91.0 96.0 91.0 96.0 91.0 96.0 C91.0 96.0 91.0 96.0 91.0 96.0 C91.0 96.0 91.0 96.0 91.0 96.0 C91.0 96.0 91.0 96.0 91.0 96.0 C91.0 96.0 91.0 96.0 91.0 96.0 C91.0 96.0 91.0 96.0 91.0 96.0 C91.0 96.0 91.0 96.0 91.0 96.0 C91.0 96.0 91.0 96.0 91.0 96.0 C91.0 96.0 91.0 96.0 91.0 96.0 C91.0 96.0 91.0 96.0 91.0 96.0 C91.0 96.0 91.0 96.0 91.0 96.0 C91.0 96.0 91.0 96.0 91.0 96.0 C91.0 96.0 91.0 96.0 91.0 96.0 C91.0 96.0 91.0 96.0 91.0 96.0 C91.0 96.0 91.0 96.0 91.0 96.0 C91.0 96.0 91.0 96.0 91.0 96.0 C91.0 96.0 91.0 96.0 91.0 96.0 C91.0 96.0 91.0 96.0 91.0 96.0 C91.0 96.0 91.0 96.0 91.0 96.0 C91.0 96.0 91.0 96.0 91.0 96.0 C91.0 96.0 91.0 96.0 91.0 96.0 C91.0 96.0 91.0 96.0 91.0 96.0 C91.0 96.0 91.0 96.0 91.0 96.0 C91.0 96.0 91.0 96.0 91.0 96.0 C91.0 96.0 91.0 96.0 91.0 96.0 C91.0 96.0 91.0 96.0 91.0 96.0 C91.0 96.0 91.0 96.0 91.0 96.0 C91.0 96.0 91.0 96.0 91.0 96.0 C91.0 96.0 91.0 96.0 91.0 96.0 C91.0 96.0 91.0 96.0 91.0 96.0 C91.0 96.0 91.0 96.0 91.0 96.0 C91.0 96.0 91.0 96.0 91.0 96.0 C91.0 96.0 91.0 96.0 91.0 96.0 C91.0 96.0 91.0 96.0 91.0 96.0 C91.0 96.0 91.0 96.0 91.0 96.0 C91.0 96.0 91.0 96.0 91.0 96.0 C91.0 96.0 91.0 96.0 91.0 96.0 C91.0 96.0 91.0 96.0 91.0 96.0 C91.0 96.0 91.0 96.0 91.0 96.0 C91.0 96.0 91.0 96.0 91.0 96.0 C91.0 96.0 91.0 96.0 91.0 96.0 C91.0 96.0 91.0 96.0 91.0 96.0 C91.0 96.0 91.0 96.0 91.0 96.0 C91.0 96.0 91.0 96.0 91.0 96.0 C91.0 96.0 91.0 96.0 91.0 96.0 C91.0 96.0 91.0 96.0 91.0 96.0 C91.0 96.0 91.0 96.0 91.0 96.0 C91.0 96.0 91.0 96.0 91.0 96.0 C91.0 96.0 91.0 96.0 91.0 96.0 C91.0 96.0 91.0 96.0 91.0 96.0 C91.0 96.0 91.0 96.0 91.0 96.0 C91.0 96.0 91.0 96.0 91.0 96.0 C91.0 96.0 91.0 96.0 91.0 96.0 C91.0 96.0 91.0 96.0 91.0 96.0 C91.0 96.0 91.0 96.0 91.0 96.0 C91.0 96.0 91.0 96.0 91.0 96.0 C91.0 96.0 91.0 96.0 91.0 96.0 C91.0 96.0 91.0 96.0 91.0 96.0 C91.0 96.0 91.0 96.0 91.0 96.0 C91.0 96.0 91.0 96.0 91.0 96.0 C91.0 96.0 91.0 96.0 91.0 96.0 C91.0 96.0 91.0 96.0 91.0 96.0 C91.0 96.0 91.0 96.0 91.0 96.0 C91.0 96.0 91.0 96.0 91.0 96.0 C91.0 96.0 91.0 96.0 91.0 96.0 C91.0 96.0 91.0 96.0 91.0 96.0 C91.0 96.0 91.0 96.0 91.0 96.0 C91.0 96.0 91.0 96.0 91.0 96.0 C91.0 96.0 91.0 96.0 91.0 96.0 C91.0 96.0 91.0 96.0 91.0 96.0 C91.0 96.0 91.0 96.0 91.0 96.0 C91.0 96.0 91.0 96.0 91.0 96.0 C91.0 96.0 91.0 96.0 91.0 96.0 C91.0 96.0 91.0 96.0 91.0 96.0 C91.0 96.0 91.0 96.0 91.0 96.0 C91.0 96.0 91.0 96.0 91.0 96.0 C91.0 96.0 91.0 96.0 91.0 96.0 C91.0 96.0 91.0 96.0 91.0 96.0 C91.0 96.0 91.0 96.0 91.0 96.0 C91.0 96.0 91.0 96.0 91.0 96.0 C91.0 96.0 91.0 96.0 91.0 96.0 C91.0 96.0 91.0 96.0 91.0 96.0 C91.0 96.0 91.0 96.0 91.0 96.0 C91.0 96.0 91.0 96.0 91.0 96.0 C91.0 96.0 91.0 96.0 91.0 96.0 C91.0 96.0 91.0 96.0 91.0 96.0 C91.0 96.0 91.0 96.0 91.0 96.0 C91.0 96.0 91.0 96.0 91.0 96.0 C91.0 96.0 91.0 96.0 91.0 96.0 C91.0 96.0 91.0 96.0 91.0 96.0 C91.0 96.0 91.0 96.0 91.0 96.0 C91.0 96.0 91.0 96.0 91.0 96.0 C91.0 96.0 91.0 96.0 91.0 96.0 C91.0 96.0 91.0 96.0 91.0 96.0 C91.0 96.0 91.0 96.0 91.0 96.0 C91.0 96.0 91.0 96.0 91.0 96.0 C91.0 96.0 91.0 96.0 91.0 96.0 C91.0 96.0 91.0 96.0 91.0 96.0 C91.0 96.0 91.0 96.0 91.0 96.0 C91.0 96.0 91.0 96.0 91.0 96.0 C91.0 96.0 91.0 96.0 91.0 96.0 C91.0 96.0 91.0 96.0 91.0 96.0 C91.0 96.0 91.0 96.0 91.0 96.0 C91.0 96.0 91.0 96.0 91.0 96.0 C91.0 96.0 91.0 96.0 91.0 96.0 C91.0 96.0 91.0 96.0 91.0 96.0 C91.0 96.0 91.0 96.0 91.0 96.0 C91.0 96.0 91.0 96.0 91.0 96.0 C91.0 96.0 91.0 96.0 91.0 96.0 C91.0 96.0 91.0 96.0 91.0 96.0 C91.0 96.0 91.0 96.0 91.0 96.0 C91.0 96.0 91.0 96.0 91.0 96.0 C91.0 96.0 91.0 96.0 91.0 96.0 C91.0 96.0 91.0 96.0 91.0 96.0 C91.0 96.0 91.0 96.0 91.0 96.0 C91.0 96.0 91.0 96.0 91.0 96.0 C91.0 96.0 91.0 96.0 91.0 96.0 C91.0 96.0 91.0 96.0 91.0 96.0 C91.0 96.0 91.0 96.0 91.0 96.0 C91.0 96.0 91.0 96.0 91.0 96.0 C91.0 96.0 91.0 96.0 91.0 96.0 C91.0 96.0 91.0 96.0 91.0 96.0 C91.0 96.0 91.0 96.0 91.0 96.0 C91.0 96.0 91.0 96.0 91.0 96.0 C91.0 96.0 91.0 96.0 91.0 96.0 C91.0 96.0 91.0 96.0 91.0 96.0 C91.0 96.0 91.0 96.0 91.0 96.0 C91.0 96.0 91.0 96.0 91.0 96.0 C91.0 96.0 91.0 96.0 91.0 96.0 C91.0 96.0 91.0 96.0 91.0 96.0 C91.0 96.0 91.0 96.0 91.0 96.0 C91.0 96.0 91.0 96.0 91.0 96.0 C91.0 96.0 91.0 96.0 91.0 96.0 C91.0 96.0 91.0 96.0 91.0 96.0 C91.0 96.0 91.0 96.0 91.0 96.0 C91.0 96.0 91.0 96.0 91.0 96.0 C91.0 96.0 91.0 96.0 91.0 96.0 C91.0 96.0 91.0 96.0 91.0 96.0 C91.0 96.0 91.0 96.0 91.0 96.0 C91.0 96.0 91.0 96.0 91.0 96.0 C91.0 96.0 91.0 96.0 91.0 96.0 C91.0 96.0 91.0 96.0 91.0 96.0 C91.0 96.0 91.0 96.0 91.0 96.0 C91.0 96.0 91.0 96.0 91.0 96.0 C91.0 96.0 91.0 96.0 91.0 96.0 C91.0 96.0 91.0 96.0 91.0 96.0 C91.0 96.0 91.0 96.0 91.0 96.0 C91.0 96.0 91.0 96.0 91.0 96.0 C91.0 96.0 91.0 96.0 91.0 96.0 C91.0 96.0 91.0 96.0 91.0 96.0 C91.0 96.0 91.0 96.0 91.0 96.0 C91.0 96.0 91.0 96.0 91.0 96.0 C91.0 96.0 91.0 96.0 91.0 96.0 C91.0 96.0 91.0 96.0 91.0 96.0 C91.0 96.0 91.0 96.0 91.0 96.0 C91.0 96.0 91.0 96.0 91.0 96.0 C91.0 96.0 91.0 96.0 91.0 96.0 C91.0 96.0 91.0 96.0 91.0 96.0 C91.0 96.0 91.0 96.0 91.0 96.0 C91.0 96.0 91.0 96.0 91.0 96.0 C91.0 96.0 91.0 96.0 91.0 96.0 C91.0 96.0 91.0 96.0 91.0 96.0 C91.0 96.0 91.0 96.0 91.0 96.0 C91.0 96.0 91.0 96.0 91.0 96.0 C91.0 96.0 91.0 96.0 91.0 96.0 C91.0 96.0 91.0 96.0 91.0 96.0 C91.0 96.0 91.0 96.0 91.0 96.0 C91.0 96.0 91.0 96.0 91.0 96.0 C91.0 96.0 91.0 96.0 91.0 96.0 C91.0 96.0 91.0 96.0 91.0 96.0 C91.0 96.0 91.0 96.0 91.0 96.0 C91.0 96.0 91.0 96.0 91.0 96.0 C91.0 96.0 91.0 96.0 91.0 96.0 C91.0 96.0 91.0 96.0 91.0 96.0 C91.0 96.0 91.0 96.0 91.0 96.0 C91.0 96.0 91.0 96.0 91.0 96.0 C91.0 96.0 91.0 96.0 91.0 96.0 C91.0 96.0 91.0 96.0 91.0 96.0 C91.0 96.0 91.0 96.0 91.0 96.0 C91.0 96.0 91.0 96.0 91.0 96.0 C91.0 96.0 91.0 96.0 91.0 96.0 C91.0 96.0 91.0 96.0 91.0 96.0 C91.0 96.0 91.0 96.0 91.0 96.0 C91.0 96.0 91.0 96.0 91.0 96.0 C91.0 96.0 91.0 96.0 91.0 96.0 C91.0 96.0 91.0 96.0 91.0 96.0 C91.0 96.0 91.0 96.0 91.0 96.0 C91.0 96.0 91.0 96.0 91.0 96.0 C91.0 96.0 91.0 96.0 91.0 96.0 C91.0 96.0 91.0 96.0 91.0 96.0 C91.0 96.0 91.0 96.0 91.0 96.0 C91.0 96.0 91.0 96.0 91.0 96.0"></path></svg>