<svg xmlns="http://www.w3.org/2000/svg" viewBox="0.0 0.0 200.0 200.0" height="200px" width="200px"><path fill="#ffffff" fill-opacity="1.0"  filling="0" d="M4.0 4.0 L196.0 4.0 L196.0 196.0 L4.0 196.0 L4.0 4.0 L4.0 4.0 Z"></path>
<path fill="#ffffff" fill-opacity="1.0"  filling="0" d="M4.0 4.0 L196.0 4.0 L196.0 196.0 L4.0 196.0 L4.0 4.0 L4.0 4.0 Z"></path>
<path fill="#ffffff" fill-opacity="1.0"  filling="0" d="M4.0 4.0 L196.0 4.0 L196.0 196.0 L4.0 196.0 L4.0 4.0 L4.0 4.0 Z"></path>
<path fill="#000000" fill-opacity="1.0"  filling="0" d="M159.0 98.0 L159.0 70.0 C159.0 68.0 156.0 67.0 154.0 67.0 C153.0 67.0 152.0 67.0 151.0 68.0 L151.0 68.0 L151.0 68.0 C151.0 68.0 150.0 68.0 150.0 68.0 L150.0 68.0 L150.0 68.0 C149.0 69.0 149.0 70.0 148.0 70.0 C148.0 71.0 147.0 72.0 146.0 73.0 C144.0 76.0 142.0 79.0 139.0 82.0 L139.0 82.0 L139.0 82.0 C139.0 82.0 139.0 82.0 139.0 82.0 L138.0 83.0 L138.0 83.0 C138.0 83.0 138.0 83.0 138.0 83.0 L138.0 83.0 L138.0 83.0 C137.0 84.0 137.0 84.0 137.0 84.0 L137.0 84.0 L137.0 84.0 C137.0 84.0 137.0 84.0 137.0 84.0 L137.0 85.0 L136.0 85.0 L136.0 85.0 L136.0 85.0 L136.0 85.0 L136.0 85.0 C136.0 85.0 135.0 85.0 135.0 85.0 L135.0 85.0 L135.0 85.0 C135.0 85.0 135.0 85.0 135.0 85.0 L135.0 85.0 C134.0 86.0 134.0 86.0 134.0 86.0 L134.0 86.0 L134.0 86.0 C133.0 86.0 133.0 86.0 133.0 86.0 L133.0 86.0 L133.0 86.0 C132.0 86.0 132.0 86.0 132.0 86.0 L132.0 86.0 L132.0 86.0 C131.0 86.0 131.0 86.0 131.0 86.0 L131.0 86.0 L130.0 86.0 C130.0 86.0 130.0 86.0 130.0 86.0 L130.0 86.0 L130.0 86.0 C130.0 86.0 129.0 86.0 129.0 86.0 L129.0 86.0 L128.0 86.0 C128.0 86.0 128.0 86.0 128.0 86.0 L128.0 86.0 L128.0 86.0 C127.0 86.0 127.0 86.0 127.0 86.0 L127.0 86.0 L126.0 86.0 C126.0 86.0 126.0 86.0 126.0 86.0 L126.0 86.0 L125.0 86.0 C125.0 86.0 125.0 86.0 125.0 86.0 L125.0 86.0 L125.0 86.0 C124.0 86.0 124.0 86.0 124.0 86.0 L124.0 86.0 L124.0 86.0 C123.0 86.0 123.0 86.0 123.0 86.0 L123.0 86.0 C123.0 86.0 122.0 86.0 122.0 86.0 L122.0 86.0 L122.0 86.0 C121.0 86.0 121.0 86.0 121.0 86.0 L121.0 86.0 L121.0 86.0 C120.0 86.0 120.0 86.0 120.0 86.0 L120.0 86.0 L119.0 86.0 C119.0 86.0 119.0 86.0 119.0 86.0 L119.0 86.0 L119.0 86.0 C118.0 86.0 118.0 86.0 118.0 86.0 L118.0 86.0 L118.0 86.0 C117.0 86.0 117.0 86.0 117.0 86.0 L117.0 86.0 L117.0 86.0 C116.0 86.0 116.0 86.0 116.0 86.0 L116.0 86.0 L116.0 86.0 C115.0 86.0 115.0 86.0 115.0 86.0 L115.0 86.0 L115.0 86.0 C114.0 86.0 114.0 86.0 114.0 86.0 L114.0 86.0 L114.0 86.0 C114.0 86.0 113.0 86.0 113.0 86.0 L113.0 86.0 L113.0 86.0 C112.0 86.0 112.0 86.0 112.0 86.0 L112.0 86.0 L112.0 86.0 C111.0 86.0 111.0 86.0 111.0 86.0 L111.0 86.0 C111.0 86.0 111.0 86.0 110.0 86.0 L110.0 86.0 L110.0 86.0 C110.0 86.0 110.0 86.0 109.0 86.0 L109.0 86.0 L109.0 86.0 C109.0 86.0 109.0 86.0 108.0 86.0 L108.0 86.0 L108.0 86.0 C108.0 86.0 108.0 86.0 107.0 86.0 L107.0 86.0 L107.0 86.0 C107.0 86.0 106.0 86.0 106.0 86.0 L106.0 86.0 L106.0 86.0 C105.0 86.0 105.0 86.0 105.0 86.0 L105.0 86.0 L105.0 86.0 C104.0 86.0 104.0 86.0 104.0 86.0 L104.0 86.0 L103.0 86.0 C103.0 86.0 103.0 86.0 103.0 86.0 L103.0 86.0 C102.0 86.0 102.0 86.0 102.0 86.0 L102.0 86.0 L101.0 86.0 C101.0 86.0 101.0 86.0 101.0 86.0 L101.0 86.0 L100.0 86.0 C100.0 86.0 100.0 86.0 100.0 86.0 L100.0 86.0 L100.0 86.0 C99.0 86.0 99.0 86.0 99.0 86.0 L99.0 86.0 L99.0 86.0 C98.0 86.0 98.0 86.0 98.0 86.0 L98.0 86.0 L98.0 86.0 C97.0 86.0 97.0 86.0 97.0 86.0 L97.0 86.0 L97.0 86.0 C96.0 86.0 96.0 86.0 96.0 86.0 L96.0 86.0 L96.0 86.0 C95.0 86.0 95.0 86.0 95.0 86.0 L95.0 86.0 L95.0 86.0 C94.0 86.0 94.0 86.0 94.0 86.0 L94.0 86.0 L94.0 86.0 C93.0 86.0 93.0 86.0 93.0 86.0 L93.0 86.0 L93.0 86.0 C92.0 86.0 92.0 86.0 92.0 86.0 L92.0 86.0 L92.0 86.0 C91.0 86.0 91.0 86.0 91.0 86.0 L91.0 86.0 L91.0 86.0 C90.0 86.0 90.0 86.0 90.0 86.0 L90.0 86.0 C90.0 86.0 89.0 86.0 89.0 86.0 L89.0 86.0 L89.0 86.0 C89.0 86.0 89.0 86.0 88.0 86.0 L88.0 86.0 L88.0 86.0 C88.0 86.0 87.0 86.0 87.0 86.0 L87.0 86.0 L87.0 86.0 C87.0 86.0 86.0 86.0 86.0 86.0 L86.0 86.0 C86.0 86.0 86.0 86.0 85.0 86.0 L85.0 86.0 C85.0 86.0 85.0 86.0 85.0 86.0 L85.0 86.0 L85.0 86.0 C84.0 86.0 84.0 86.0 84.0 86.0 L84.0 86.0 C84.0 86.0 84.0 86.0 83.0 86.0 L83.0 86.0 L83.0 86.0 C83.0 86.0 83.0 86.0 82.0 86.0 L82.0 86.0 L82.0 86.0 C82.0 86.0 82.0 86.0 81.0 86.0 L81.0 86.0 L81.0 86.0 C81.0 86.0 81.0 86.0 80.0 86.0 L80.0 86.0 L80.0 86.0 C80.0 86.0 80.0 86.0 79.0 86.0 L79.0 86.0 L79.0 86.0 C79.0 86.0 78.0 86.0 78.0 86.0 L78.0 86.0 L78.0 86.0 C78.0 86.0 78.0 86.0 77.0 86.0 L77.0 86.0 C77.0 86.0 77.0 86.0 76.0 86.0 L76.0 86.0 L76.0 86.0 C76.0 86.0 76.0 86.0 75.0 86.0 L75.0 86.0 L75.0 86.0 C75.0 86.0 75.0 86.0 74.0 86.0 L74.0 86.0 L74.0 86.0 C74.0 86.0 74.0 86.0 73.0 86.0 L73.0 86.0 L73.0 86.0 C73.0 86.0 72.0 86.0 72.0 86.0 L72.0 86.0 L72.0 86.0 C72.0 86.0 71.0 86.0 71.0 86.0 L71.0 86.0 L71.0 86.0 C71.0 86.0 70.0 86.0 70.0 86.0 L70.0 86.0 L70.0 86.0 C70.0 86.0 69.0 86.0 69.0 86.0 L69.0 86.0 L69.0 86.0 C68.0 86.0 68.0 86.0 68.0 86.0 L68.0 86.0 C68.0 86.0 68.0 86.0 67.0 86.0 L67.0 86.0 L67.0 86.0 C67.0 86.0 67.0 86.0 66.0 86.0 L66.0 86.0 L66.0 86.0 C66.0 86.0 66.0 86.0 65.0 86.0 L65.0 86.0 C65.0 86.0 65.0 86.0 65.0 86.0 L65.0 86.0 C64.0 86.0 64.0 86.0 64.0 86.0 L64.0 86.0 L64.0 86.0 C63.0 86.0 63.0 86.0 63.0 86.0 L63.0 86.0 C63.0 86.0 62.0 86.0 62.0 86.0 L62.0 86.0 C62.0 86.0 62.0 86.0 61.0 86.0 L61.0 86.0 L61.0 86.0 C61.0 86.0 60.0 86.0 60.0 86.0 L60.0 86.0 C60.0 86.0 60.0 86.0 59.0 86.0 L59.0 86.0 C59.0 86.0 59.0 86.0 58.0 86.0 L58.0 86.0 L58.0 86.0 C58.0 86.0 57.0 86.0 57.0 86.0 L57.0 86.0 C57.0 86.0 57.0 86.0 56.0 86.0 L56.0 86.0 C56.0 86.0 56.0 86.0 56.0 86.0 L56.0 86.0 L56.0 86.0 C55.0 86.0 55.0 86.0 55.0 86.0 C54.0 85.0 54.0 84.0 55.0 83.0 C55.0 83.0 55.0 83.0 55.0 83.0 L55.0 83.0 L56.0 83.0 C56.0 83.0 56.0 83.0 56.0 83.0 L56.0 82.0 L56.0 82.0 C56.0 82.0 57.0 82.0 57.0 82.0 L57.0 82.0 L57.0 82.0 C57.0 82.0 57.0 82.0 57.0 82.0 L57.0 82.0 L58.0 82.0 C58.0 82.0 58.0 81.0 58.0 81.0 L58.0 81.0 L59.0 81.0 C59.0 81.0 59.0 81.0 59.0 81.0 L59.0 81.0 L59.0 81.0 C60.0 81.0 60.0 81.0 60.0 81.0 L60.0 81.0 L61.0 81.0 C61.0 81.0 61.0 81.0 61.0 81.0 L61.0 81.0 L61.0 81.0 C62.0 81.0 62.0 81.0 62.0 81.0 L62.0 81.0 L63.0 81.0 C63.0 81.0 63.0 81.0 63.0 81.0 L63.0 81.0 L64.0 81.0 C64.0 81.0 64.0 81.0 64.0 81.0 L64.0 81.0 L64.0 81.0 C65.0 81.0 65.0 81.0 65.0 81.0 L65.0 81.0 L65.0 81.0 C66.0 81.0 66.0 81.0 66.0 81.0 L66.0 81.0 L66.0 81.0 C67.0 81.0 67.0 81.0 67.0 81.0 L67.0 81.0 L67.0 81.0 C68.0 81.0 68.0 81.0 68.0 81.0 L68.0 81.0 L68.0 81.0 C69.0 81.0 69.0 81.0 69.0 81.0 L69.0 81.0 L70.0 81.0 C70.0 81.0 70.0 81.0 70.0 81.0 L70.0 81.0 L70.0 81.0 C71.0 81.0 71.0 81.0 71.0 81.0 L71.0 81.0 L71.0 81.0 C72.0 81.0 72.0 81.0 72.0 81.0 L72.0 81.0 L72.0 81.0 C73.0 81.0 73.0 81.0 73.0 81.0 L73.0 81.0 L73.0 81.0 C74.0 81.0 74.0 81.0 74.0 81.0 L74.0 81.0 L74.0 81.0 C75.0 81.0 75.0 81.0 75.0 81.0 L75.0 81.0 L75.0 81.0 C76.0 81.0 76.0 81.0 76.0 81.0 L76.0 81.0 L76.0 81.0 C77.0 81.0 77.0 81.0 77.0 81.0 L77.0 81.0 C77.0 81.0 78.0 81.0 78.0 81.0 L78.0 81.0 C78.0 81.0 78.0 81.0 79.0 81.0 L79.0 81.0 L79.0 81.0 C79.0 81.0 80.0 81.0 80.0 81.0 L80.0 81.0 C80.0 81.0 80.0 81.0 81.0 81.0 L81.0 81.0 C81.0 81.0 81.0 81.0 82.0 81.0 L82.0 81.0 C82.0 81.0 82.0 81.0 83.0 81.0 L83.0 81.0 C83.0 81.0 83.0 81.0 84.0 81.0 L84.0 81.0 C84.0 81.0 84.0 81.0 84.0 81.0 L84.0 81.0 C85.0 81.0 85.0 81.0 85.0 81.0 L85.0 81.0 C85.0 81.0 86.0 81.0 86.0 81.0 L86.0 81.0 C86.0 81.0 86.0 81.0 87.0 81.0 L87.0 81.0 C87.0 81.0 87.0 81.0 87.0 81.0 L87.0 81.0 C88.0 81.0 88.0 81.0 88.0 81.0 L88.0 81.0 C88.0 81.0 89.0 81.0 89.0 81.0 L89.0 81.0 C89.0 81.0 89.0 81.0 90.0 81.0 L90.0 81.0 C90.0 81.0 90.0 81.0 91.0 81.0 L91.0 81.0 C91.0 81.0 91.0 81.0 92.0 81.0 L92.0 81.0 C92.0 81.0 92.0 81.0 93.0 81.0 L93.0 81.0 C93.0 81.0 93.0 81.0 94.0 81.0 L94.0 81.0 C94.0 81.0 94.0 81.0 95.0 81.0 L95.0 81.0 C95.0 81.0 95.0 81.0 96.0 81.0 L96.0 81.0 C96.0 81.0 96.0 81.0 97.0 81.0 L97.0 81.0 C97.0 81.0 97.0 81.0 98.0 81.0 L98.0 81.0 C98.0 81.0 98.0 81.0 99.0 81.0 L99.0 81.0 C99.0 81.0 99.0 81.0 100.0 81.0 L100.0 81.0 C100.0 81.0 100.0 81.0 101.0 81.0 L101.0 81.0 C101.0 81.0 101.0 81.0 102.0 81.0 L102.0 81.0 C102.0 81.0 102.0 81.0 103.0 81.0 L103.0 81.0 C103.0 81.0 103.0 81.0 104.0 81.0 L104.0 81.0 C104.0 81.0 104.0 81.0 105.0 81.0 L105.0 81.0 C105.0 81.0 105.0 81.0 106.0 81.0 L106.0 81.0 C106.0 81.0 106.0 81.0 107.0 81.0 L107.0 81.0 C107.0 81.0 107.0 81.0 108.0 81.0 L108.0 81.0 C108.0 81.0 108.0 81.0 109.0 81.0 L109.0 81.0 C109.0 81.0 109.0 81.0 110.0 81.0 L110.0 81.0 C110.0 81.0 110.0 81.0 111.0 81.0 L111.0 81.0 C111.0 81.0 111.0 81.0 112.0 81.0 L112.0 81.0 C112.0 81.0 112.0 81.0 113.0 81.0 L113.0 81.0 C113.0 81.0 113.0 81.0 113.0 81.0 L114.0 81.0 C114.0 81.0 114.0 81.0 114.0 81.0 L114.0 81.0 C115.0 81.0 115.0 81.0 115.0 81.0 L115.0 81.0 C115.0 81.0 116.0 81.0 116.0 81.0 L116.0 81.0 C116.0 81.0 116.0 81.0 117.0 81.0 L117.0 81.0 C117.0 81.0 117.0 81.0 118.0 81.0 L118.0 81.0 C118.0 81.0 118.0 81.0 119.0 81.0 L119.0 81.0 C119.0 81.0 119.0 81.0 120.0 81.0 L120.0 81.0 C120.0 81.0 120.0 81.0 121.0 81.0 L121.0 81.0 C121.0 81.0 121.0 81.0 122.0 81.0 L122.0 81.0 C122.0 81.0 122.0 81.0 123.0 81.0 L123.0 81.0 C123.0 81.0 123.0 81.0 124.0 81.0 L124.0 81.0 C124.0 81.0 124.0 81.0 125.0 81.0 L125.0 81.0 C125.0 81.0 125.0 81.0 126.0 81.0 L126.0 81.0 C126.0 81.0 126.0 81.0 126.0 81.0 L126.0 81.0 C127.0 81.0 127.0 81.0 127.0 81.0 L127.0 81.0 C127.0 81.0 128.0 81.0 128.0 81.0 L128.0 81.0 C128.0 81.0 128.0 81.0 129.0 81.0 L129.0 81.0 C129.0 81.0 129.0 81.0 130.0 81.0 L130.0 81.0 C130.0 81.0 130.0 81.0 131.0 81.0 L131.0 81.0 C131.0 81.0 131.0 81.0 132.0 81.0 L132.0 81.0 C132.0 81.0 132.0 81.0 133.0 81.0 L133.0 81.0 C133.0 81.0 133.0 81.0 134.0 81.0 L134.0 81.0 C134.0 81.0 134.0 81.0 135.0 81.0 L135.0 81.0 C135.0 81.0 135.0 81.0 136.0 81.0 L136.0 81.0 C136.0 81.0 136.0 81.0 136.0 81.0 L136.0 81.0 C137.0 81.0 137.0 81.0 137.0 81.0 L137.0 81.0 C137.0 81.0 137.0 81.0 138.0 81.0 L138.0 81.0 C138.0 81.0 138.0 81.0 139.0 81.0 L139.0 81.0 C139.0 81.0 139.0 81.0 139.0 81.0 L139.0 81.0 C140.0 81.0 140.0 81.0 140.0 81.0 L140.0 81.0 C140.0 81.0 140.0 81.0 141.0 81.0 L141.0 81.0 C141.0 81.0 141.0 81.0 141.0 81.0 L141.0 81.0 C142.0 81.0 142.0 81.0 142.0 81.0 L142.0 81.0 C142.0 81.0 142.0 82.0 142.0 82.0 L142.0 82.0 L142.0 82.0 C142.0 82.0 143.0 82.0 143.0 82.0 L143.0 82.0 C143.0 82.0 143.0 82.0 143.0 82.0 L143.0 82.0 L143.0 82.0 C143.0 82.0 144.0 82.0 144.0 82.0 L144.0 82.0 L144.0 83.0 C144.0 83.0 144.0 83.0 144.0 83.0 L144.0 83.0 L144.0 83.0 C145.0 83.0 145.0 83.0 145.0 83.0 L145.0 83.0 L145.0 83.0 C145.0 83.0 145.0 83.0 145.0 83.0 L145.0 83.0 L145.0 83.0 C146.0 84.0 146.0 85.0 145.0 86.0 C145.0 86.0 145.0 86.0 145.0 86.0 L145.0 86.0 L144.0 86.0 C144.0 86.0 144.0 86.0 144.0 86.0 L144.0 86.0 L144.0 86.0 C144.0 86.0 143.0 86.0 143.0 86.0 L143.0 86.0 C143.0 86.0 143.0 86.0 142.0 86.0 L142.0 86.0 C142.0 86.0 142.0 86.0 141.0 86.0 L141.0 86.0 L141.0 86.0 C141.0 86.0 141.0 86.0 140.0 86.0 L140.0 86.0 C140.0 86.0 140.0 86.0 139.0 86.0 L139.0 86.0 C139.0 86.0 139.0 86.0 139.0 86.0 L139.0 86.0 L139.0 86.0 C138.0 86.0 138.0 86.0 138.0 86.0 L138.0 86.0"></path></svg>