<svg xmlns="http://www.w3.org/2000/svg" viewBox="0.0 0.0 200.0 200.0" height="200px" width="200px"><path fill="#aa5522" fill-opacity="1.0"  filling="0" d="M139.0 78.0 C139.0 78.0 147.0 69.0 149.0 67.0 C151.0 66.0 157.0 66.0 157.0 70.0 L157.0 118.0 L139.0 122.0 L139.0 78.0 L139.0 78.0 Z"></path>
<path fill="#ffffff" fill-opacity="1.0"  filling="0" d="M6.0 6.0 L194.0 6.0 L194.0 194.0 L6.0 194.0 L6.0 6.0 L6.0 6.0 Z"></path>
<path fill="#774422" fill-opacity="1.0"  filling="0" d="M4.0 4.0 L4.0 196.0 L196.0 196.0 L196.0 4.0 L4.0 4.0 L4.0 4.0 Z M192.0 192.0 L8.0 192.0 L8.0 8.0 L192.0 8.0 L192.0 192.0 L192.0 192.0 Z"></path>
<path fill="#774422" fill-opacity="1.0"  filling="0" d="M4.0 4.0 L4.0 196.0 L196.0 196.0 L196.0 4.0 L4.0 4.0 L4.0 4.0 Z M192.0 192.0 L8.0 192.0 L8.0 8.0 L192.0 8.0 L192.0 192.0 L192.0 192.0 Z"></path>
<path fill="#774422" fill-opacity="1.0"  filling="0" d="M4.0 4.0 L4.0 196.0 L196.0 196.0 L196.0 4.0 L4.0 4.0 L4.0 4.0 Z M192.0 192.0 L8.0 192.0 L8.0 8.0 L192.0 8.0 L192.0 192.0 L192.0 192.0 Z"></path>
<path fill="#774422" fill-opacity="1.0"  filling="0" d="M4.0 4.0 L4.0 196.0 L196.0 196.0 L196.0 4.0 L4.0 4.0 L4.0 4.0 Z M192.0 192.0 L8.0 192.0 L8.0 8.0 L192.0 8.0 L192.0 192.0 L192.0 192.0 Z"></path>
<path fill="#774422" fill-opacity="1.0"  filling="0" d="M4.0 4.0 L4.0 196.0 L196.0 196.0 L196.0 4.0 L4.0 4.0 L4.0 4.0 Z M192.0 192.0 L8.0 192.0 L8.0 8.0 L192.0 8.0 L192.0 192.0 L192.0 192.0 Z"></path>
<path fill="#774422" fill-opacity="1.0"  filling="0" d="M4.0 4.0 L4.0 196.0 L196.0 196.0 L196.0 4.0 L4.0 4.0 L4.0 4.0 Z M192.0 192.0 L8.0 192.0 L8.0 8.0 L192.0 8.0 L192.0 192.0 L192.0 192.0 Z"></path>
<path fill="#774422" fill-opacity="1.0"  filling="0" d="M4.0 4.0 L4.0 196.0 L196.0 196.0 L196.0 4.0 L4.0 4.0 L4.0 4.0 Z M192.0 192.0 L8.0 192.0 L8.0 8.0 L192.0 8.0 L192.0 192.0 L192.0 192.0 Z"></path>
<path fill="#774422" fill-opacity="1.0"  filling="0" d="M4.0 4.0 L4.0 196.0 L196.0 196.0 L196.0 4.0 L4.0 4.0 L4.0 4.0 Z M192.0 192.0 L8.0 192.0 L8.0 8.0 L192.0 8.0 L192.0 192.0 L192.0 192.0 Z"></path>
<path fill="#774422" fill-opacity="1.0"  filling="0" d="M4.0 4.0 L4.0 196.0 L196.0 196.0 L196.0 4.0 L4.0 4.0 L4.0 4.0 Z M192.0 192.0 L8.0 192.0 L8.0 8.0 L192.0 8.0 L192.0 192.0 L192.0 192.0 Z"></path>
<path fill="#774422" fill-opacity="1.0"  filling="0" d="M4.0 4.0 L4.0 196.0 L196.0 196.0 L196.0 4.0 L4.0 4.0 L4.0 4.0 Z M192.0 192.0 L8.0 192.0 L8.0 8.0 L192.0 8.0 L192.0 192.0 L192.0 192.0 Z"></path>
<path fill="#774422" fill-opacity="1.0"  filling="0" d="M4.0 4.0 L4.0 196.0 L196.0 196.0 L196.0 4.0 L4.0 4.0 L4.0 4.0 Z M192.0 192.0 L8.0 192.0 L8.0 8.0 L192.0 8.0 L192.0 192.0 L192.0 192.0 Z"></path>
<path fill="#774422" fill-opacity="1.0"  filling="0" d="M4.0 4.0 L4.0 196.0 L196.0 196.0 L196.0 4.0 L4.0 4.0 L4.0 4.0 Z M192.0 192.0 L8.0 192.0 L8.0 8.0 L192.0 8.0 L192.0 192.0 L192.0 192.0 Z"></path>
<path fill="#774422" fill-opacity="1.0"  filling="0" d="M4.0 4.0 L4.0 196.0 L196.0 196.0 L196.0 4.0 L4.0 4.0 L4.0 4.0 Z M192.0 192.0 L8.0 192.0 L8.0 8.0 L192.0 8.0 L192.0 192.0 L192.0 192.0 Z"></path>
<path fill="#774422" fill-opacity="1.0"  filling="0" d="M4.0 4.0 L4.0 196.0 L196.0 196.0 L196.0 4.0 L4.0 4.0 L4.0 4.0 Z M192.0 192.0 L8.0 192.0 L8.0 8.0 L192.0 8.0 L192.0 192.0 L192.0 192.0 Z"></path>
<path fill="#774422" fill-opacity="1.0"  filling="0" d="M4.0 4.0 L4.0 196.0 L196.0 196.0 L196.0 4.0 L4.0 4.0 L4.0 4.0 Z M192.0 192.0 L8.0 192.0 L8.0 8.0 L192.0 8.0 L192.0 192.0 L192.0 192.0 Z"></path>
<path fill="#774422" fill-opacity="1.0"  filling="0" d="M4.0 4.0 L4.0 196.0 L196.0 196.0 L196.0 4.0 L4.0 4.0 L4.0 4.0 Z M192.0 192.0 L8.0 192.0 L8.0 8.0 L192.0 8.0 L192.0 192.0 L192.0 192.0 Z"></path>
<path fill="#774422" fill-opacity="1.0"  filling="0" d="M4.0 4.0 L4.0 196.0 L196.0 196.0 L196.0 4.0 L4.0 4.0 L4.0 4.0 Z M192.0 192.0 L8.0 192.0 L8.0 8.0 L192.0 8.0 L192.0 192.0 L192.0 192.0 Z"></path>
<path fill="#774422" fill-opacity="1.0"  filling="0" d="M4.0 4.0 L4.0 196.0 L196.0 196.0 L196.0 4.0 L4.0 4.0 L4.0 4.0 Z M192.0 192.0 L8.0 192.0 L8.0 8.0 L192.0 8.0 L192.0 192.0 L192.0 192.0 Z"></path>
<path fill="#774422" fill-opacity="1.0"  filling="0" d="M4.0 4.0 L4.0 196.0 L196.0 196.0 L196.0 4.0 L4.0 4.0 L4.0 4.0 Z M192.0 192.0 L8.0 192.0 L8.0 8.0 L192.0 8.0 L192.0 192.0 L192.0 192.0 Z"></path>
<path fill="#774422" fill-opacity="1.0"  filling="0" d="M4.0 4.0 L4.0 196.0 L196.0 196.0 L196.0 4.0 L4.0 4.0 L4.0 4.0 Z M192.0 192.0 L8.0 192.0 L8.0 8.0 L192.0 8.0 L192.0 192.0 L192.0 192.0 Z"></path>
<path fill="#774422" fill-opacity="1.0"  filling="0" d="M4.0 4.0 L4.0 196.0 L196.0 196.0 L196.0 4.0 L4.0 4.0 L4.0 4.0 Z M192.0 192.0 L8.0 192.0 L8.0 8.0 L192.0 8.0 L192.0 192.0 L192.0 192.0 Z"></path>
<path fill="#774422" fill-opacity="1.0"  filling="0" d="M4.0 4.0 L4.0 196.0 L196.0 196.0 L196.0 4.0 L4.0 4.0 L4.0 4.0 Z M192.0 192.0 L8.0 192.0 L8.0 8.0 L192.0 8.0 L192.0 192.0 L192.0 192.0 Z"></path>
<path fill="#774422" fill-opacity="1.0"  filling="0" d="M4.0 4.0 L4.0 196.0 L196.0 196.0 L196.0 4.0 L4.0 4.0 L4.0 4.0 Z M192.0 192.0 L8.0 192.0 L8.0 8.0 L192.0 8.0 L192.0 192.0 L192.0 192.0 Z"></path>
<path fill="#774422" fill-opacity="1.0"  filling="0" d="M4.0 4.0 L4.0 196.0 L196.0 196.0 L196.0 4.0 L4.0 4.0 L4.0 4.0 Z M192.0 192.0 L8.0 192.0 L8.0 8.0 L192.0 8.0 L192.0 192.0 L192.0 192.0 Z"></path>
<path fill="#774422" fill-opacity="1.0"  filling="0" d="M4.0 4.0 L4.0 196.0 L196.0 196.0 L196.0 4.0 L4.0 4.0 L4.0 4.0 Z M192.0 192.0 L8.0 192.0 L8.0 8.0 L192.0 8.0 L192.0 192.0 L192.0 192.0 Z"></path>
<path fill="#774422" fill-opacity="1.0"  filling="0" d="M4.0 4.0 L4.0 196.0 L196.0 196.0 L196.0 4.0 L4.0 4.0 L4.0 4.0 Z M192.0 192.0 L8.0 192.0 L8.0 8.0 L192.0 8.0 L192.0 192.0 L192.0 192.0 Z"></path>
<path fill="#774422" fill-opacity="1.0"  filling="0" d="M4.0 4.0 L4.0 196.0 L196.0 196.0 L196.0 4.0 L4.0 4.0 L4.0 4.0 Z M192.0 192.0 L8.0 192.0 L8.0 8.0 L192.0 8.0 L192.0 192.0 L192.0 192.0 Z"></path>
<path fill="#774422" fill-opacity="1.0"  filling="0" d="M4.0 4.0 L4.0 196.0 L196.0 196.0 L196.0 4.0 L4.0 4.0 L4.0 4.0 Z M192.0 192.0 L8.0 192.0 L8.0 8.0 L192.0 8.0 L192.0 192.0 L192.0 192.0 Z"></path>
<path fill="#774422" fill-opacity="1.0"  filling="0" d="M4.0 4.0 L4.0 196.0 L196.0 196.0 L196.0 4.0 L4.0 4.0 L4.0 4.0 Z M192.0 192.0 L8.0 192.0 L8.0 8.0 L192.0 8.0 L192.0 192.0 L192.0 192.0 Z"></path>
<path fill="#774422" fill-opacity="1.0"  filling="0" d="M4.0 4.0 L4.0 196.0 L196.0 196.0 L196.0 4.0 L4.0 4.0 L4.0 4.0 Z M192.0 192.0 L8.0 192.0 L8.0 8.0 L192.0 8.0 L192.0 192.0 L192.0 192.0 Z"></path>
<path fill="#774422" fill-opacity="1.0"  filling="0" d="M4.0 4.0 L4.0 196.0 L196.0 196.0 L196.0 4.0 L4.0 4.0 L4.0 4.0 Z M192.0 192.0 L8.0 192.0 L8.0 8.0 L192.0 8.0 L192.0 192.0 L192.0 192.0 Z"></path>
<path fill="#774422" fill-opacity="1.0"  filling="0" d="M4.0 4.0 L4.0 196.0 L196.0 196.0 L196.0 4.0 L4.0 4.0 L4.0 4.0 Z M192.0 192.0 L8.0 192.0 L8.0 8.0 L192.0 8.0 L192.0 192.0 L192.0 192.0 Z"></path>
<path fill="#774422" fill-opacity="1.0"  filling="0" d="M4.0 4.0 L4.0 196.0 L196.0 196.0 L196.0 4.0 L4.0 4.0 L4.0 4.0 Z M192.0 192.0 L8.0 192.0 L8.0 8.0 L192.0 8.0 L192.0 192.0 L192.0 192.0 Z"></path>
<path fill="#774422" fill-opacity="1.0"  filling="0" d="M4.0 4.0 L4.0 196.0 L196.0 196.0 L196.0 4.0 L4.0 4.0 L4.0 4.0 Z M192.0 192.0 L8.0 192.0 L8.0 8.0 L192.0 8.0 L192.0 192.0 L192.0 192.0 Z"></path>
<path fill="#774422" fill-opacity="1.0"  filling="0" d="M4.0 4.0 L4.0 196.0 L196.0 196.0 L196.0 4.0 L4.0 4.0 L4.0 4.0 Z M192.0 192.0 L8.0 192.0 L8.0 8.0 L192.0 8.0 L192.0 192.0 L192.0 192.0 Z"></path>
<path fill="#774422" fill-opacity="1.0"  filling="0" d="M4.0 4.0 L4.0 196.0 L196.0 196.0 L196.0 4.0 L4.0 4.0 L4.0 4.0 Z M192.0 192.0 L8.0 192.0 L8.0 8.0 L192.0 8.0 L192.0 192.0 L192.0 192.0 Z"></path>
<path fill="#000000" fill-opacity="1.0"  filling="0" d="M4.0 4.0 L4.0 196.0 L196.0 196.0"></path></svg>