<svg xmlns="http://www.w3.org/2000/svg" viewBox="0.0 0.0 200.0 200.0" height="200px" width="200px"><path fill="#cc7733" fill-opacity="1.0"  filling="0" d="M139.0 78.0 C139.0 78.0 147.0 69.0 149.0 67.0 C151.0 66.0 157.0 66.0 157.0 70.0 L157.0 117.0 L139.0 117.0 L139.0 78.0 L139.0 78.0 Z M92.0 97.0 C92.0 97.0 91.0 96.0 91.0 96.0 L91.0 72.0 C91.0 68.0 94.0 66.0 97.0 67.0 C101.0 68.0 107.0 79.0 112.0 78.0 C116.0 77.0 120.0 76.0 124.0 76.0 C128.0 76.0 133.0 77.0 137.0 78.0 C150.0 81.0 159.0 91.0 159.0 109.0 C159.0 127.0 147.0 141.0 124.0 141.0 C107.0 141.0 94.0 127.0 94.0 109.0 C94.0 104.0 94.0 100.0 96.0 97.0 L92.0 97.0 L92.0 97.0 Z"></path>
<path fill="#000000" fill-opacity="1.0"  filling="0" d="M125.0 79.0 C130.0 79.0 134.0 80.0 138.0 82.0 C148.0 85.0 155.0 93.0 155.0 109.0 C155.0 125.0 145.0 137.0 125.0 137.0 C109.0 137.0 97.0 125.0 97.0 109.0 C97.0 103.0 98.0 99.0 100.0 96.0 L100.0 96.0 C101.0 96.0 101.0 95.0 101.0 95.0 C102.0 95.0 102.0 95.0 102.0 95.0 C103.0 94.0 103.0 94.0 103.0 94.0 C103.0 94.0 103.0 94.0 103.0 94.0 C103.0 94.0 103.0 94.0 103.0 94.0 C103.0 94.0 103.0 94.0 103.0 94.0 C103.0 94.0 103.0 94.0 103.0 94.0 C103.0 94.0 103.0 94.0 103.0 94.0 C103.0 94.0 103.0 94.0 103.0 94.0 C103.0 94.0 103.0 94.0 103.0 94.0 C103.0 94.0 103.0 94.0 103.0 94.0 C103.0 94.0 103.0 94.0 103.0 94.0 C103.0 94.0 103.0 94.0 103.0 94.0 C103.0 94.0 103.0 94.0 103.0 94.0 C103.0 94.0 103.0 94.0 103.0 94.0 C103.0 94.0 103.0 94.0 103.0 94.0 C103.0 94.0 103.0 94.0 103.0 94.0 C103.0 94.0 103.0 94.0 103.0 94.0 C103.0 94.0 103.0 94.0 103.0 94.0 C103.0 94.0 103.0 94.0 103.0 94.0 C103.0 94.0 103.0 94.0 103.0 94.0 C103.0 94.0 103.0 94.0 103.0 94.0 C103.0 94.0 103.0 94.0 103.0 94.0 C103.0 94.0 103.0 94.0 103.0 94.0 C103.0 94.0 103.0 94.0 103.0 94.0 C103.0 94.0 103.0 94.0 103.0 94.0 C103.0 94.0 103.0 94.0 103.0 94.0 C103.0 94.0 103.0 94.0 103.0 94.0 C103.0 94.0 103.0 94.0 103.0 94.0 C103.0 94.0 103.0 94.0 103.0 94.0 C103.0 94.0 103.0 94.0 103.0 94.0 C103.0 94.0 103.0 94.0 103.0 94.0 C103.0 94.0 103.0 94.0 103.0 94.0 C103.0 94.0 103.0 94.0 103.0 94.0 C103.0 94.0 103.0 94.0 103.0 94.0 C103.0 94.0 103.0 94.0 103.0 94.0 C103.0 94.0 103.0 94.0 103.0 94.0 C103.0 94.0 103.0 94.0 103.0 94.0 C103.0 94.0 103.0 94.0 103.0 94.0 C103.0 94.0 103.0 94.0 103.0 94.0 C103.0 94.0 103.0 94.0 103.0 94.0 C103.0 94.0 103.0 94.0 103.0 94.0 C103.0 94.0 103.0 94.0 103.0 94.0 C103.0 94.0 103.0 94.0 103.0 94.0 C103.0 94.0 103.0 94.0 103.0 94.0 C103.0 94.0 103.0 94.0 103.0 94.0 C103.0 94.0 103.0 94.0 103.0 94.0 C103.0 94.0 103.0 94.0 103.0 94.0 C103.0 94.0 103.0 94.0 103.0 94.0 C103.0 94.0 103.0 94.0 103.0 94.0 C103.0 94.0 103.0 94.0 103.0 94.0 C103.0 94.0 103.0 94.0 103.0 94.0 C103.0 94.0 103.0 94.0 103.0 94.0 C103.0 94.0 103.0 94.0 103.0 94.0 C103.0 94.0 103.0 94.0 103.0 94.0 C103.0 94.0 103.0 94.0 103.0 94.0 C103.0 94.0 103.0 94.0 103.0 94.0 C103.0 94.0 103.0 94.0 103.0 94.0 C103.0 94.0 103.0 94.0 103.0 94.0 C103.0 94.0 103.0 94.0 103.0 94.0 C103.0 94.0 103.0 94.0 103.0 94.0 C103.0 94.0 103.0 94.0 103.0 94.0 C103.0 94.0 103.0 94.0 103.0 94.0 C103.0 94.0 103.0 94.0 103.0 94.0 C103.0 94.0 103.0 94.0 103.0 94.0 C103.0 94.0 103.0 94.0 103.0 94.0 C103.0 94.0 103.0 94.0 103.0 94.0 C103.0 94.0 103.0 94.0 103.0 94.0 C103.0 94.0 103.0 94.0 103.0 94.0 C103.0 94.0 103.0 94.0 103.0 94.0 C103.0 94.0 103.0 94.0 103.0 94.0 C103.0 94.0 103.0 94.0 103.0 94.0 C103.0 94.0 103.0 94.0 103.0 94.0 C103.0 94.0 103.0 94.0 103.0 94.0 C103.0 94.0 103.0 94.0 103.0 94.0 C103.0 94.0 103.0 94.0 103.0 94.0 C103.0 94.0 103.0 94.0 103.0 94.0 C103.0 94.0 103.0 94.0 103.0 94.0 C103.0 94.0 103.0 94.0 103.0 94.0 C103.0 94.0 103.0 94.0 103.0 94.0 C103.0 94.0 103.0 94.0 103.0 94.0 C103.0 94.0 103.0 94.0 103.0 94.0 C103.0 94.0 103.0 94.0 103.0 94.0 C103.0 94.0 103.0 94.0 103.0 94.0 C103.0 94.0 103.0 94.0 103.0 94.0 C103.0 94.0 103.0 94.0 103.0 94.0 C103.0 94.0 103.0 94.0 103.0 94.0 C103.0 94.0 103.0 94.0 103.0 94.0 C103.0 94.0 103.0 94.0 103.0 94.0 C103.0 94.0 103.0 94.0 103.0 94.0 C103.0 94.0 103.0 94.0 103.0 94.0 C103.0 94.0 103.0 94.0 103.0 94.0 C103.0 94.0 103.0 94.0 103.0 94.0 C103.0 94.0 103.0 94.0 103.0 94.0 C103.0 94.0 103.0 94.0 103.0 94.0 C103.0 94.0 103.0 94.0 103.0 94.0 C103.0 94.0 103.0 94.0 103.0 94.0 C103.0 94.0 103.0 94.0 103.0 94.0 C103.0 94.0 103.0 94.0 103.0 94.0 C103.0 94.0 103.0 94.0 103.0 94.0 C103.0 94.0 103.0 94.0 103.0 94.0 C103.0 94.0 103.0 94.0 103.0 94.0 C103.0 94.0 103.0 94.0 103.0 94.0 C103.0 94.0 103.0 94.0 103.0 94.0 C103.0 94.0 103.0 94.0 103.0 94.0 C103.0 94.0 103.0 94.0 103.0 94.0 C103.0 94.0 103.0 94.0 103.0 94.0 C103.0 94.0 103.0 94.0 103.0 94.0 C103.0 94.0 103.0 94.0 103.0 94.0 C103.0 94.0 103.0 94.0 103.0 94.0 C103.0 94.0 103.0 94.0 103.0 94.0 C103.0 94.0 103.0 94.0 103.0 94.0 C103.0 94.0 103.0 94.0 103.0 94.0 C103.0 94.0 103.0 94.0 103.0 94.0 C103.0 94.0 103.0 94.0 103.0 94.0 C103.0 94.0 103.0 94.0 103.0 94.0 C103.0 94.0 103.0 94.0 103.0 94.0 C103.0 94.0 103.0 94.0 103.0 94.0 C103.0 94.0 103.0 94.0 103.0 94.0 C103.0 94.0 103.0 94.0 103.0 94.0 C103.0 94.0 103.0 94.0 103.0 94.0 C103.0 94.0 103.0 94.0 103.0 94.0 C103.0 94.0 103.0 94.0 103.0 94.0 C103.0 94.0 103.0 94.0 103.0 94.0 C103.0 94.0 103.0 94.0 103.0 94.0 C103.0 94.0 103.0 94.0 103.0 94.0 C103.0 94.0 103.0 94.0 103.0 94.0 C103.0 94.0 103.0 94.0 103.0 94.0 C103.0 94.0 103.0 94.0 103.0 94.0 C103.0 94.0 103.0 94.0 103.0 94.0 C103.0 94.0 103.0 94.0 103.0 94.0 C103.0 94.0 103.0 94.0 103.0 94.0 C103.0 94.0 103.0 94.0 103.0 94.0 C103.0 94.0 103.0 94.0 103.0 94.0 C103.0 94.0 103.0 94.0 103.0 94.0 C103.0 94.0 103.0 94.0 103.0 94.0 C103.0 94.0 103.0 94.0 103.0 94.0 C103.0 94.0 103.0 94.0 103.0 94.0 C103.0 94.0 103.0 94.0 103.0 94.0 C103.0 94.0 103.0 94.0 103.0 94.0 C103.0 94.0 103.0 94.0 103.0 94.0 C103.0 94.0 103.0 94.0 103.0 94.0 C103.0 94.0 103.0 94.0 103.0 94.0 C103.0 94.0 103.0 94.0 103.0 94.0 C103.0 94.0 103.0 94.0 103.0 94.0 C103.0 94.0 103.0 94.0 103.0 94.0 C103.0 94.0 103.0 94.0 103.0 94.0 C103.0 94.0 103.0 94.0 103.0 94.0 C103.0 94.0 103.0 94.0 103.0 94.0 C103.0 94.0 103.0 94.0 103.0 94.0 C103.0 94.0 103.0 94.0 103.0 94.0 C103.0 94.0 103.0 94.0 103.0 94.0 C103.0 94.0 103.0 94.0 103.0 94.0 C103.0 94.0 103.0 94.0 103.0 94.0 C103.0 94.0 103.0 94.0 103.0 94.0 C103.0 94.0 103.0 94.0 103.0 94.0 C103.0 94.0 103.0 94.0 103.0 94.0 C103.0 94.0 103.0 94.0 103.0 94.0 C103.0 94.0 103.0 94.0 103.0 94.0 C103.0 94.0 103.0 94.0 103.0 94.0 C103.0 94.0 103.0 94.0 103.0 94.0 C103.0 94.0 103.0 94.0 103.0 94.0 C103.0 94.0 103.0 94.0 103.0 94.0 C103.0 94.0 103.0 94.0 103.0 94.0 C103.0 94.0 103.0 94.0 103.0 94.0 C103.0 94.0 103.0 94.0 103.0 94.0 C103.0 94.0 103.0 94.0 103.0 94.0 C103.0 94.0 103.0 94.0 103.0 94.0 C103.0 94.0 103.0 94.0 103.0 94.0 C103.0 94.0 103.0 94.0 103.0 94.0 C103.0 94.0 103.0 94.0 103.0 94.0 C103.0 94.0 103.0 94.0 103.0 94.0 C103.0 94.0 103.0 94.0 103.0 94.0 C103.0 94.0 103.0 94.0 103.0 94.0 C103.0 94.0 103.0 94.0 103.0 94.0 C103.0 94.0 103.0 94.0 103.0 94.0 C103.0 94.0 103.0 94.0 103.0 94.0 C103.0 94.0 103.0 94.0 103.0 94.0 C103.0 94.0 103.0 94.0 103.0 94.0 C103.0 94.0 103.0 94.0 103.0 94.0 C103.0 94.0 103.0 94.0 103.0 94.0 C103.0 94.0 103.0 94.0 103.0 94.0 C103.0 94.0 103.0 94.0 103.0 94.0 C103.0 94.0 103.0 94.0 103.0 94.0 C103.0 94.0 103.0 94.0 103.0 94.0 C103.0 94.0 103.0 94.0 103.0 94.0 C103.0 94.0 103.0 94.0 103.0 94.0 C103.0 94.0 103.0 94.0 103.0 94.0 C103.0 94.0 103.0 94.0 103.0 94.0 C103.0 94.0 103.0 94.0 103.0 94.0 C103.0 94.0 103.0 94.0 103.0 94.0 C103.0 94.0 103.0 94.0 103.0 94.0 C103.0 94.0 103.0 94.0 103.0 94.0 C103.0 94.0 103.0 94.0 103.0 94.0 C103.0 94.0 103.0 94.0 103.0 94.0 C103.0 94.0 103.0 94.0 103.0 94.0 C103.0 94.0 103.0 94.0 103.0 94.0 C103.0 94.0 103.0 94.0 103.0 94.0 C103.0 94.0 103.0 94.0 103.0 94.0 C103.0 94.0 103.0 94.0 103.0 94.0 C103.0 94.0 103.0 94.0 103.0 94.0 C103.0 94.0 103.0 94.0 103.0 94.0 C103.0 94.0 103.0 94.0 103.0 94.0 C103.0 94.0 103.0 94.0 103.0 94.0 C103.0 94.0 103.0 94.0 103.0 94.0 C103.0 94.0 103.0 94.0 103.0 94.0 C103.0 94.0 103.0 94.0 103.0 94.0 C103.0 94.0 103.0 94.0 103.0 94.0 C103.0 94.0 103.0 94.0 103.0 94.0 C103.0 94.0 103.0 94.0 103.0 94.0 C103.0 94.0 103.0 94.0 103.0 94.0 C103.0 94.0 103.0 94.0 103.0 94.0 C103.0 94.0 103.0 94.0 103.0 94.0 C103.0 94.0 103.0 94.0 103.0 94.0 C103.0 94.0 103.0 94.0 103.0 94.0 C103.0 94.0 103.0 94.0 103.0 94.0 C103.0 94.0 103.0 94.0 103.0 94.0 C103.0 94.0 103.0 94.0 103.0 94.0 C103.0 94.0 103.0 94.0 103.0 94.0 C103.0 94.0 103.0 94.0 103.0 94.0 C103.0 94.0 103.0 94.0 103.0 94.0 C103.0 94.0 103.0 94.0 103.0 94.0 C103.0 94.0 103.0 94.0 103.0 94.0 C103.0 94.0 103.0 94.0 103.0 94.0 C103.0 94.0 103.0 94.0 103.0 94.0 C103.0 94.0 103.0 94.0 103.0 94.0 C103.0 94.0 103.0 94.0 103.0 94.0 C103.0 94.0 103.0 94.0 103.0 94.0 C103.0 94.0 103.0 94.0 103.0 94.0 C103.0 94.0 103.0 94.0 103.0 94.0 C103.0 94.0 103.0 94.0 103.0 94.0 C103.0 94.0 103.0 94.0 103.0 94.0 C103.0 94.0 103.0 94.0 103.0 94.0 C103.0 94.0 103.0 94.0 103.0 94.0 C103.0 94.0 103.0 94.0 103.0 94.0 C103.0 94.0 103.0 94.0 103.0 94.0 C103.0 94.0 103.0 94.0 103.0 94.0 C103.0 94.0 103.0 94.0 103.0 94.0 C103.0 94.0 103.0 94.0 103.0 94.0 C103.0 94.0 103.0 94.0 103.0 94.0 C103.0 94.0 103.0 94.0 103.0 94.0 C103.0 94.0 103.0 94.0 103.0 94.0 C103.0 94.0 103.0 94.0 103.0 94.0 C103.0 94.0 103.0 94.0 103.0 94.0 C103.0 94.0 103.0 94.0 103.0 94.0 C103.0 94.0 103.0 94.0 103.0 94.0 C103.0 94.0 103.0 94.0 103.0 94.0 C103.0 94.0 103.0 94.0 103.0 94.0 C103.0 94.0 103.0 94.0 103.0 94.0 C103.0 94.0 103.0 94.0 103.0 94.0 C103.0 94.0 103.0 94.0 103.0 94.0 C103.0 94.0 103.0 94.0 103.0 94.0 C103.0 94.0 103.0 94.0 103.0 94.0 C103.0 94.0 103.0 94.0 103.0 94.0 C103.0 94.0 103.0 94.0 103.0 94.0 C103.0 94.0 103.0 94.0 103.0 94.0 C103.0 94.0 103.0 94.0 103.0 94.0 C103.0 94.0 103.0 94.0 103.0 94.0 C103.0 94.0 103.0 94.0 103.0 94.0 C103.0 94.0 103.0 94.0 103.0 94.0 C103.0 94.0 103.0 94.0 103.0 94.0 C103.0 94.0 103.0 94.0 103.0 94.0 C103.0 94.0 103.0 94.0 103.0 94.0 C103.0 94.0 103.0 94.0 103.0 94.0 C103.0 94.0 103.0 94.0 103.0 94.0 C103.0 94.0 103.0 94.0 103.0 94.0 C103.0 94.0 103.0 94.0 103.0 94.0 C103.0 94.0 103.0 94.0 103.0 94.0 C103.0 94.0 103.0 94.0 103.0 94.0 C103.0 94.0 103.0 94.0 103.0 94.0 C103.0 94.0 103.0 94.0 103.0 94.0 C103.0 94.0 103.0 94.0 103.0 94.0 C103.0 94.0 103.0 94.0 103.0 94.0 C103.0 94.0 103.0 94.0 103.0 94.0 C103.0 94.0 103.0 94.0 103.0 94.0 C103.0 94.0 103.0 94.0 103.0 94.0 C103.0 94.0 103.0 94.0 103.0 94.0 C103.0 94.0 103.0 94.0 103.0 94.0 C103.0 94.0 103.0 94.0 103.0 94.0 C103.0 94.0 103.0 94.0 103.0 94.0 C103.0 94.0 103.0 94.0 103.0 94.0 C103.0 94.0 103.0 94.0 103.0 94.0 C103.0 94.0 103.0 94.0 103.0 94.0 C103.0 94.0 103.0 94.0 103.0 94.0 C103.0 94.0 103.0 94.0 103.0 94.0 C103.0 94.0 103.0 94.0 103.0 94.0 C103.0 94.0 103.0 94.0 103.0 94.0 C103.0 94.0 103.0 94.0 103.0 94.0 C103.0 94.0 103.0 94.0 103.0 94.0 C103.0 94.0 103.0 94.0 103.0 94.0 C103.0 94.0 103.0 94.0 103.0 94.0 C103.0 94.0 103.0 94.0 103.0 94.0 C103.0 94.0 103.0 94.0 103.0 94.0 C103.0 94.0 103.0 94.0 103.0 94.0 C103.0 94.0 103.0 94.0 103.0 94.0 C103.0 94.0 103.0 94.0 103.0 94.0 C103.0 94.0 103.0 94.0 103.0 94.0 C103.0 94.0 103.0 94.0 103.0 94.0 C103.0 94.0 103.0 94.0 103.0 94.0 C103.0 94.0 103.0 94.0 103.0 94.0 C103.0 94.0 103.0 94.0 103.0 94.0 C103.0 94.0 103.0 94.0 103.0 94.0 C103.0 94.0 103.0 94.0 103.0 94.0 C103.0 94.0 103.0 94.0 103.0 94.0 C103.0 94.0 103.0 94.0 103.0 94.0 C103.0 94.0 103.0 94.0 103.0 94.0 C103.0 94.0 103.0 94.0 103.0 94.0 C103.0 94.0 103.0 94.0 103.0 94.0 C103.0 94.0 103.0 94.0 103.0 94.0 C103.0 94.0 103.0 94.0 103.0 94.0 C103.0 94.0 103.0 94.0 103.0 94.0 C103.0 94.0 103.0 94.0 103.0 94.0 C103.0 94.0 103.0 94.0 103.0 94.0 C103.0 94.0 103.0 94.0 103.0 94.0 C103.0 94.0 103.0 94.0 103.0 94.0 C103.0 94.0 103.0 94.0 103.0 94.0 C103.0 94.0 103.0 94.0 103.0 94.0 C103.0 94.0 103.0 94.0 103.0 94.0 C103.0 94.0 103.0 94.0 103.0 94.0 C103.0 94.0 103.0 94.0 103.0 94.0 C103.0 94.0 103.0 94.0 103.0 94.0 C103.0 94.0 103.0 94.0 103.0 94.0 C103.0 94.0 103.0 94.0 103.0 94.0 C103.0 94.0 103.0 94.0 103.0 94.0 C103.0 94.0 103.0 94.0 103.0 94.0 C103.0 94.0 103.0 94.0 103.0 94.0 C103.0 94.0 103.0 94.0 103.0 94.0 C103.0 94.0 103.0 94.0 103.0 94.0 C103.0 94.0 103.0 94.0 103.0 94.0 C103.0 94.0 103.0 94.0 103.0 94.0 C103.0 94.0 103.0 94.0 103.0 94.0 C103.0 94.0 103.0 94.0 103.0 94.0 C103.0 94.0 103.0 94.0 103.0 94.0 C103.0 94.0 103.0 94.0 103.0 94.0 C103.0 94.0 103.0 94.0 103.0 94.0 C103.0 94.0 103.0 94.0 103.0 94.0 C103.0 94.0 103.0 94.0 103.0 94.0 C103.0 94.0 103.0 94.0 103.0 94.0 C103.0 94.0 103.0 94.0 103.0 94.0 C103.0 94.0 103.0 94.0 103.0 94.0 C103.0 94.0 103.0 94.0 103.0 94.0 C103.0 94.0 103.0 94.0 103.0 94.0 C103.0 94.0 103.0 94.0 103.0 94.0 C103.0 94.0 103.0 94.0 103.0 94.0 C103.0 94.0 103.0 94.0 103.0 94.0 C103.0 94.0 103.0 94.0 103.0 94.0 C103.0 94.0 103.0 94.0 103.0 94.0 C103.0 94.0 103.0 94.0 103.0 94.0 C103.0 94.0 103.0 94.0 103.0 94.0 C103.0 94.0 103.0 94.0 103.0 94.0 C103.0 94.0 103.0 94.0 103.0 94.0 C103.0 94.0 103.0 94.0 103.0 94.0 C103.0 94.0 103.0 94.0 103.0 94.0 C103.0 94.0 103.0 94.0 103.0 94.0 C103.0 94.0 103.0 94.0 103.0 94.0 C103.0 94.0 103.0 94.0 103.0 94.0 C103.0 94.0 103.0 94.0 103.0 94.0"></path></svg>