<svg xmlns="http://www.w3.org/2000/svg" viewBox="0.0 0.0 200.0 200.0" height="200px" width="200px"><path fill="#ffeecc" fill-opacity="1.0"  filling="0" d="M171.0 104.0 C171.0 140.0 140.0 170.0 104.0 170.0 C68.0 170.0 38.0 140.0 38.0 104.0 C38.0 68.0 68.0 38.0 104.0 38.0 C140.0 38.0 171.0 68.0 171.0 104.0 L171.0 104.0 Z"></path>
<path fill="#221111" fill-opacity="1.0"  filling="0" d="M104.0 171.0 C67.0 171.0 36.0 141.0 36.0 104.0 C36.0 67.0 67.0 36.0 104.0 36.0 C142.0 36.0 173.0 67.0 173.0 104.0 C173.0 141.0 141.0 171.0 104.0 171.0 L104.0 171.0 Z M104.0 40.0 C69.0 40.0 40.0 69.0 40.0 104.0 C40.0 139.0 69.0 167.0 104.0 167.0 C139.0 167.0 169.0 139.0 169.0 104.0 C169.0 69.0 139.0 40.0 104.0 40.0 L104.0 40.0 Z"></path>
<path fill="#ffeecc" fill-opacity="1.0"  filling="0" d="M38.0 104.0 A58.0 58.0 0.0 1 0 154.0 104.0 A58.0 58.0 0.0 1 0 38.0 104.0 L38.0 104.0 Z"></path>
<path fill="#221111" fill-opacity="1.0"  filling="0" d="M96.0 162.0 C64.0 162.0 38.0 136.0 38.0 104.0 C38.0 71.0 64.0 45.0 96.0 45.0 C129.0 45.0 155.0 71.0 155.0 104.0 C155.0 136.0 129.0 162.0 96.0 162.0 L96.0 162.0 Z M96.0 48.0 C66.0 48.0 40.0 73.0 40.0 104.0 C40.0 134.0 66.0 159.0 96.0 159.0 C127.0 159.0 152.0 134.0 152.0 104.0 C152.0 73.0 127.0 48.0 96.0 48.0 L96.0 48.0 Z"></path>
<path fill="#ffeecc" fill-opacity="1.0"  filling="0" d="M38.0 104.0 A58.0 58.0 0.0 1 0 154.0 104.0 A58.0 58.0 0.0 1 0 38.0 104.0 L38.0 104.0 Z"></path>
<path fill="#221111" fill-opacity="1.0"  filling="0" d="M96.0 162.0 C64.0 162.0 38.0 136.0 38.0 104.0 C38.0 71.0 64.0 45.0 96.0 45.0 C129.0 45.0 155.0 71.0 155.0 104.0 C155.0 136.0 129.0 162.0 96.0 162.0 L96.0 162.0 Z M96.0 48.0 C66.0 48.0 40.0 73.0 40.0 104.0 C40.0 134.0 66.0 159.0 96.0 159.0 C127.0 159.0 152.0 134.0 152.0 104.0 C152.0 73.0 127.0 48.0 96.0 48.0 L96.0 48.0 Z"></path>
<path fill="#ffeecc" fill-opacity="1.0"  filling="0" d="M38.0 104.0 A58.0 58.0 0.0 1 0 154.0 104.0 A58.0 58.0 0.0 1 0 38.0 104.0 L38.0 104.0 Z"></path>
<path fill="#221111" fill-opacity="1.0"  filling="0" d="M96.0 162.0 C64.0 162.0 38.0 136.0 38.0 104.0 C38.0 71.0 64.0 45.0 96.0 45.0 C129.0 45.0 155.0 71.0 155.0 104.0 C155.0 136.0 129.0 162.0 96.0 162.0 L96.0 162.0 Z M96.0 48.0 C66.0 48.0 40.0 73.0 40.0 104.0 C40.0 134.0 66.0 159.0 96.0 159.0 C127.0 159.0 152.0 134.0 152.0 104.0 C152.0 73.0 127.0 48.0 96.0 48.0 L96.0 48.0 Z"></path>
<path fill="#ffeecc" fill-opacity="1.0"  filling="0" d="M38.0 104.0 A58.0 58.0 0.0 1 0 154.0 104.0 A58.0 58.0 0.0 1 0 38.0 104.0 L38.0 104.0 Z"></path>
<path fill="#221111" fill-opacity="1.0"  filling="0" d="M96.0 162.0 C64.0 162.0 38.0 136.0 38.0 104.0 C38.0 71.0 64.0 45.0 96.0 45.0 C129.0 45.0 155.0 71.0 155.0 104.0 C155.0 136.0 129.0 162.0 96.0 162.0 L96.0 162.0 Z M96.0 48.0 C66.0 48.0 40.0 73.0 40.0 104.0 C40.0 134.0 66.0 159.0 96.0 159.0 C127.0 159.0 152.0 134.0 152.0 104.0 C152.0 73.0 127.0 48.0 96.0 48.0 L96.0 48.0 Z"></path>
<path fill="#ffeecc" fill-opacity="1.0"  filling="0" d="M38.0 104.0 A58.0 58.0 0.0 1 0 154.0 104.0 A58.0 58.0 0.0 1 0 38.0 104.0 L38.0 104.0 Z"></path>
<path fill="#221111" fill-opacity="1.0"  filling="0" d="M96.0 162.0 C64.0 162.0 38.0 136.0 38.0 104.0 C38.0 71.0 64.0 45.0 96.0 45.0 C129.0 45.0 155.0 71.0 155.0 104.0 C155.0 136.0 129.0 162.0 96.0 162.0 L96.0 162.0 Z M96.0 48.0 C66.0 48.0 40.0 73.0 40.0 104.0 C40.0 134.0 66.0 159.0 96.0 159.0 C127.0 159.0 152.0 134.0 152.0 104.0 C152.0 73.0 127.0 48.0 96.0 48.0 L96.0 48.0 Z"></path>
<path fill="#ffeecc" fill-opacity="1.0"  filling="0" d="M38.0 104.0 A58.0 58.0 0.0 1 0 154.0 104.0 A58.0 58.0 0.0 1 0 38.0 104.0 L38.0 104.0 Z"></path>
<path fill="#221111" fill-opacity="1.0"  filling="0" d="M96.0 162.0 C64.0 162.0 38.0 136.0 38.0 104.0 C38.0 71.0 64.0 45.0 96.0 45.0 C129.0 45.0 155.0 71.0 155.0 104.0 C155.0 136.0 129.0 162.0 96.0 162.0 L96.0 162.0 Z M96.0 48.0 C66.0 48.0 40.0 73.0 40.0 104.0 C40.0 134.0 66.0 159.0 96.0 159.0 C127.0 159.0 152.0 134.0 152.0 104.0 C152.0 73.0 127.0 48.0 96.0 48.0 L96.0 48.0 Z"></path>
<path fill="#ffeecc" fill-opacity="1.0"  filling="0" d="M38.0 104.0 A58.0 58.0 0.0 1 0 154.0 104.0 A58.0 58.0 0.0 1 0 38.0 104.0 L38.0 104.0 Z"></path>
<path fill="#221111" fill-opacity="1.0"  filling="0" d="M96.0 162.0 C64.0 162.0 38.0 136.0 38.0 104.0 C38.0 71.0 64.0 45.0 96.0 45.0 C129.0 45.0 155.0 71.0 155.0 104.0 C155.0 136.0 129.0 162.0 96.0 162.0 L96.0 162.0 Z M96.0 48.0 C66.0 48.0 40.0 73.0 40.0 104.0 C40.0 134.0 66.0 159.0 96.0 159.0 C127.0 159.0 152.0 134.0 152.0 104.0 C152.0 73.0 127.0 48.0 96.0 48.0 L96.0 48.0 Z"></path>
<path fill="#ffeecc" fill-opacity="1.0"  filling="0" d="M38.0 104.0 A58.0 58.0 0.0 1 0 154.0 104.0 A58.0 58.0 0.0 1 0 38.0 104.0 L38.0 104.0 Z"></path>
<path fill="#221111" fill-opacity="1.0"  filling="0" d="M96.0 162.0 C64.0 162.0 38.0 136.0 38.0 104.0 C38.0 71.0 64.0 45.0 96.0 45.0 C129.0 45.0 155.0 71.0 155.0 104.0 C155.0 136.0 129.0 162.0 96.0 162.0 L96.0 162.0 Z M96.0 48.0 C66.0 48.0 40.0 73.0 40.0 104.0 C40.0 134.0 66.0 159.0 96.0 159.0 C127.0 159.0 152.0 134.0 152.0 104.0 C152.0 73.0 127.0 48.0 96.0 48.0 L96.0 48.0 Z"></path>
<path fill="#ffeecc" fill-opacity="1.0"  filling="0" d="M38.0 104.0 A58.0 58.0 0.0 1 0 154.0 104.0 A58.0 58.0 0.0 1 0 38.0 104.0 L38.0 104.0 Z"></path>
<path fill="#221111" fill-opacity="1.0"  filling="0" d="M96.0 162.0 C64.0 162.0 38.0 136.0 38.0 104.0 C38.0 71.0 64.0 45.0 96.0 45.0 C129.0 45.0 155.0 71.0 155.0 104.0 C155.0 136.0 129.0 162.0 96.0 162.0 L96.0 162.0 Z M96.0 48.0 C66.0 48.0 40.0 73.0 40.0 104.0 C40.0 134.0 66.0 159.0 96.0 159.0 C127.0 159.0 152.0 134.0 152.0 104.0 C152.0 73.0 127.0 48.0 96.0 48.0 L96.0 48.0 Z"></path>
<path fill="#ffeecc" fill-opacity="1.0"  filling="0" d="M38.0 104.0 A58.0 58.0 0.0 1 0 154.0 104.0 A58.0 58.0 0.0 1 0 38.0 104.0 L38.0 104.0 Z"></path>
<path fill="#221111" fill-opacity="1.0"  filling="0" d="M96.0 162.0 C64.0 162.0 38.0 136.0 38.0 104.0 C38.0 71.0 64.0 45.0 96.0 45.0 C129.0 45.0 155.0 71.0 155.0 104.0 C155.0 136.0 129.0 162.0 96.0 162.0 L96.0 162.0 Z M96.0 48.0 C66.0 48.0 40.0 73.0 40.0 104.0 C40.0 134.0 66.0 159.0 96.0 159.0 C127.0 159.0 152.0 134.0 152.0 104.0 C152.0 73.0 127.0 48.0 96.0 48.0 L96.0 48.0 Z"></path>
<path fill="#ffeecc" fill-opacity="1.0"  filling="0" d="M38.0 104.0 A58.0 58.0 0.0 1 0 154.0 104.0 A58.0 58.0 0.0 1 0 38.0 104.0 L38.0 104.0 Z"></path>
<path fill="#221111" fill-opacity="1.0"  filling="0" d="M96.0 162.0 C64.0 162.0 38.0 136.0 38.0 104.0 C38.0 71.0 64.0 45.0 96.0 45.0 C129.0 45.0 155.0 71.0 155.0 104.0 C155.0 136.0 129.0 162.0 96.0 162.0 L96.0 162.0 Z M96.0 48.0 C66.0 48.0 40.0 73.0 40.0 104.0 C40.0 134.0 66.0 159.0 96.0 159.0 C127.0 159.0 152.0 134.0 152.0 104.0 C152.0 73.0 127.0 48.0 96.0 48.0 L96.0 48.0 Z"></path>
<path fill="#ffeecc" fill-opacity="1.0"  filling="0" d="M38.0 104.0 A58.0 58.0 0.0 1 0 154.0 104.0 A58.0 58.0 0.0 1 0 38.0 104.0 L38.0 104.0 Z"></path>
<path fill="#221111" fill-opacity="1.0"  filling="0" d="M96.0 162.0 C64.0 162.0 38.0 136.0 38.0 104.0 C38.0 71.0 64.0 45.0 96.0 45.0 C129.0 45.0 155.0 71.0 155.0 104.0 C155.0 136.0 129.0 162.0 96.0 162.0 L96.0 162.0 Z M96.0 48.0 C66.0 48.0 40.0 73.0 40.0 104.0 C40.0 134.0 66.0 159.0 96.0 159.0 C127.0 159.0 152.0 134.0 152.0 104.0 C152.0 73.0 127.0 48.0 96.0 48.0 L96.0 48.0 Z"></path>
<path fill="#ffeecc" fill-opacity="1.0"  filling="0" d="M38.0 104.0 A58.0 58.0 0.0 1 0 154.0 104.0 A58.0 58.0 0.0 1 0 38.0 104.0 L38.0 104.0 Z"></path>
<path fill="#221111" fill-opacity="1.0"  filling="0" d="M96.0 162.0 C64.0 162.0 38.0 136.0 38.0 104.0 C38.0 71.0 64.0 45.0 96.0 45.0 C129.0 45.0 155.0 71.0 155.0 104.0 C155.0 136.0 129.0 162.0 96.0 162.0 L96.0 162.0 Z M96.0 48.0 C66.0 48.0 40.0 73.0 40.0 104.0 C40.0 134.0 66.0 159.0 96.0 159.0 C127.0 159.0 152.0 134.0 152.0 104.0 C152.0 73.0 127.0 48.0 96.0 48.0 L96.0 48.0 Z"></path>
<path fill="#ffeecc" fill-opacity="1.0"  filling="0" d="M38.0 104.0 A58.0 58.0 0.0 1 0 154.0 104.0 A58.0 58.0 0.0 1 0 38.0 104.0 L38.0 104.0 Z"></path>
<path fill="#221111" fill-opacity="1.0"  filling="0" d="M96.0 162.0 C64.0 162.0 38.0 136.0 38.0 104.0 C38.0 71.0 64.0 45.0 96.0 45.0 C129.0 45.0 155.0 71.0 155.0 104.0 C155.0 136.0 129.0 162.0 96.0 162.0 L96.0 162.0 Z M96.0 48.0 C66.0 48.0 40.0 73.0 40.0 104.0 C40.0 134.0 66.0 159.0 96.0 159.0 C127.0 159.0 152.0 134.0 152.0 104.0 C152.0 73.0 127.0 48.0 96.0 48.0 L96.0 48.0 Z"></path>
<path fill="#ffeecc" fill-opacity="1.0"  filling="0" d="M38.0 104.0 A58.0 58.0 0.0 1 0 154.0 104.0 A58.0 58.0 0.0 1 0 38.0 104.0 L38.0 104.0 Z"></path>
<path fill="#221111" fill-opacity="1.0"  filling="0" d="M96.0 162.0 C64.0 162.0 38.0 136.0 38.0 104.0 C38.0 71.0 64.0 45.0 96.0 45.0 C129.0 45.0 155.0 71.0 155.0 104.0 C155.0 136.0 129.0 162.0 96.0 162.0 L96.0 162.0 Z M96.0 48.0 C66.0 48.0 40.0 73.0 40.0 104.0 C40.0 134.0 66.0 159.0 96.0 159.0 C127.0 159.0 152.0 134.0 152.0 104.0 C152.0 73.0 127.0 48.0 96.0 48.0 L96.0 48.0 Z"></path>
<path fill="#ffeecc" fill-opacity="1.0"  filling="0" d="M38.0 104.0 A58.0 58.0 0.0 1 0 154.0 104.0 A58.0 58.0 0.0 1 0 38.0 104.0 L38.0 104.0 Z"></path>
<path fill="#221111" fill-opacity="1.0"  filling="0" d="M96.0 162.0 C64.0 162.0 38.0 136.0 38.0 104.0 C38.0 71.0 64.0 45.0 96.0 45.0 C129.0 45.0 155.0 71.0 155.0 104.0 C155.0 136.0 129.0 162.0 96.0 162.0 L96.0 162.0 Z M96.0 48.0 C66.0 48.0 40.0 73.0 40.0 104.0 C40.0 134.0 66.0 159.0 96.0 159.0 C127.0 159.0 152.0 134.0 152.0 104.0 C152.0 73.0 127.0 48.0 96.0 48.0 L96.0 48.0 Z"></path>
<path fill="#ffeecc" fill-opacity="1.0"  filling="0" d="M38.0 104.0 A58.0 58.0 0.0 1 0 154.0 104.0 A58.0 58.0 0.0 1 0 38.0 104.0 L38.0 104.0 Z"></path>
<path fill="#221111" fill-opacity="1.0"  filling="0" d="M96.0 162.0 C64.0 162.0 38.0 136.0 38.0 104.0 C38.0 71.0 64.0 45.0 96.0 45.0 C129.0 45.0 155.0 71.0 155.0 104.0 C155.0 136.0 129.0 162.0 96.0 162.0 L96.0 162.0 Z M96.0 48.0 C66.0 48.0 40.0 73.0 40.0 104.0 C40.0 134.0 66.0 159.0 96.0 159.0 C127.0 159.0 152.0 134.0 152.0 104.0 C152.0 73.0 127.0 48.0 96.0 48.0 L96.0 48.0 Z"></path>
<path fill="#ffeecc" fill-opacity="1.0"  filling="0" d="M38.0 104.0 A58.0 58.0 0.0 1 0 154.0 104.0 A58.0 58.0 0.0 1 0 38.0 104.0 L38.0 104.0 Z"></path>
<path fill="#000000" fill-opacity="1.0"  filling="0" d="M96.0 162.0 C64.0 162.0 38.0 136.0 38.0 104.0 C38.0 71.0 64.0 45.0 96.0 45.0 C129.0 45.0 155.0 71.0 155.0 104.0 C155.0 136.0 129.0 162.0 96.0 162.0 L96.0 162.0 Z"></path></svg>