<svg xmlns="http://www.w3.org/2000/svg" viewBox="0.0 0.0 200.0 200.0" height="200px" width="200px"><path fill="#ffeecc" fill-opacity="1.0"  filling="0" d="M171.0 104.0 C171.0 140.0 140.0 170.0 104.0 170.0 C68.0 170.0 38.0 140.0 38.0 104.0 C38.0 68.0 68.0 38.0 104.0 38.0 C140.0 38.0 171.0 68.0 171.0 104.0 L171.0 104.0 Z"></path>
<path fill="#333322" fill-opacity="1.0"  filling="0" d="M104.0 171.0 C67.0 171.0 36.0 141.0 36.0 104.0 C36.0 67.0 67.0 36.0 104.0 36.0 C142.0 36.0 173.0 67.0 173.0 104.0 C173.0 141.0 141.0 171.0 104.0 171.0 L104.0 171.0 Z M104.0 40.0 C69.0 40.0 40.0 69.0 40.0 104.0 C40.0 139.0 69.0 167.0 104.0 167.0 C139.0 167.0 169.0 139.0 169.0 104.0 C169.0 69.0 139.0 40.0 104.0 40.0 L104.0 40.0 Z"></path>
<path fill="#333322" fill-opacity="1.0"  filling="0" d="M132.0 84.0 C132.0 84.0 132.0 84.0 132.0 84.0 C131.0 83.0 131.0 82.0 132.0 81.0 C133.0 81.0 134.0 81.0 134.0 81.0 C135.0 82.0 135.0 83.0 134.0 84.0 C134.0 84.0 133.0 84.0 132.0 84.0 L132.0 84.0 Z M132.0 77.0 C131.0 77.0 131.0 76.0 131.0 76.0 C130.0 75.0 130.0 74.0 131.0 74.0 C132.0 73.0 133.0 73.0 133.0 74.0 C134.0 74.0 134.0 75.0 133.0 76.0 C133.0 76.0 132.0 77.0 132.0 77.0 L132.0 77.0 Z M129.0 70.0 C129.0 70.0 128.0 69.0 128.0 69.0 C127.0 68.0 127.0 67.0 128.0 67.0 C129.0 66.0 130.0 66.0 130.0 67.0 C131.0 67.0 131.0 68.0 130.0 69.0 C130.0 69.0 130.0 70.0 129.0 70.0 L129.0 70.0 Z M125.0 64.0 C125.0 64.0 124.0 64.0 124.0 64.0 C123.0 63.0 123.0 62.0 124.0 61.0 C125.0 61.0 126.0 61.0 126.0 61.0 C127.0 62.0 127.0 63.0 126.0 64.0 C126.0 64.0 126.0 64.0 125.0 64.0 L125.0 64.0 Z M121.0 60.0 C120.0 60.0 120.0 60.0 120.0 59.0 C119.0 59.0 119.0 58.0 120.0 57.0 C120.0 57.0 121.0 57.0 122.0 57.0 C122.0 58.0 122.0 59.0 122.0 59.0 C122.0 60.0 121.0 60.0 121.0 60.0 L121.0 60.0 Z M116.0 56.0 C116.0 56.0 115.0 56.0 115.0 56.0 C114.0 55.0 114.0 54.0 115.0 54.0 C115.0 53.0 116.0 53.0 117.0 54.0 C118.0 54.0 118.0 55.0 117.0 56.0 C117.0 56.0 117.0 56.0 116.0 56.0 L116.0 56.0 Z M111.0 52.0 C111.0 52.0 110.0 52.0 110.0 52.0 C109.0 51.0 109.0 50.0 110.0 49.0 C110.0 49.0 111.0 49.0 112.0 49.0 C113.0 50.0 113.0 51.0 112.0 52.0 C112.0 52.0 112.0 52.0 111.0 52.0 L111.0 52.0 Z M106.0 48.0 C106.0 48.0 105.0 48.0 105.0 48.0 C104.0 47.0 104.0 46.0 105.0 45.0 C106.0 45.0 107.0 45.0 107.0 45.0 C108.0 46.0 108.0 47.0 107.0 48.0 C107.0 48.0 107.0 48.0 106.0 48.0 L106.0 48.0 Z"></path>
<path fill="#447799" fill-opacity="1.0"  filling="0" d="M67.0 94.0 C67.0 101.0 62.0 107.0 55.0 107.0 C48.0 107.0 42.0 101.0 42.0 94.0 C42.0 88.0 48.0 82.0 55.0 82.0 C62.0 82.0 67.0 88.0 67.0 94.0 L67.0 94.0 Z"></path>
<path fill="#333322" fill-opacity="1.0"  filling="0" d="M55.0 109.0 C47.0 109.0 40.0 102.0 40.0 94.0 C40.0 87.0 47.0 80.0 55.0 80.0 C63.0 80.0 69.0 87.0 69.0 94.0 C69.0 102.0 63.0 109.0 55.0 109.0 L55.0 109.0 Z M55.0 84.0 C49.0 84.0 44.0 89.0 44.0 94.0 C44.0 100.0 49.0 105.0 55.0 105.0 C60.0 105.0 65.0 100.0 65.0 94.0 C65.0 89.0 60.0 84.0 55.0 84.0 L55.0 84.0 Z"></path>
<path fill="#558877" fill-opacity="1.0"  filling="0" d="M76.0 130.0 C76.0 137.0 70.0 143.0 63.0 143.0 C55.0 143.0 49.0 137.0 49.0 130.0 C49.0 122.0 55.0 117.0 63.0 117.0 C70.0 117.0 76.0 122.0 76.0 130.0 L76.0 130.0 Z"></path>
<path fill="#333322" fill-opacity="1.0"  filling="0" d="M63.0 144.0 C54.0 144.0 47.0 138.0 47.0 130.0 C47.0 121.0 54.0 115.0 63.0 115.0 C70.0 115.0 78.0 121.0 78.0 130.0 C78.0 138.0 70.0 144.0 63.0 144.0 L63.0 144.0 Z M63.0 119.0 C56.0 119.0 51.0 123.0 51.0 130.0 C51.0 136.0 56.0 140.0 63.0 140.0 C68.0 140.0 74.0 136.0 74.0 130.0 C74.0 123.0 68.0 119.0 63.0 119.0 L63.0 119.0 Z"></path>
<path fill="#ee6633" fill-opacity="1.0"  filling="0" d="M91.0 66.0 C91.0 73.0 86.0 78.0 79.0 78.0 C72.0 78.0 66.0 73.0 66.0 66.0 C66.0 59.0 72.0 53.0 79.0 53.0 C86.0 53.0 91.0 59.0 91.0 66.0 L91.0 66.0 Z"></path>
<path fill="#333322" fill-opacity="1.0"  filling="0" d="M79.0 80.0 C71.0 80.0 64.0 74.0 64.0 66.0 C64.0 58.0 71.0 51.0 79.0 51.0 C87.0 51.0 93.0 58.0 93.0 66.0 C93.0 74.0 87.0 80.0 79.0 80.0 L79.0 80.0 Z M79.0 55.0 C73.0 55.0 68.0 60.0 68.0 66.0 C68.0 72.0 73.0 76.0 79.0 76.0 C85.0 76.0 89.0 72.0 89.0 66.0 C89.0 60.0 85.0 55.0 79.0 55.0 L79.0 55.0 Z"></path>
<path fill="#ffffff" fill-opacity="1.0"  filling="0" d="M135.0 130.0 C135.0 134.0 131.0 139.0 127.0 139.0 C122.0 139.0 118.0 134.0 118.0 130.0 C118.0 125.0 122.0 121.0 127.0 121.0 C131.0 121.0 135.0 125.0 135.0 130.0 L135.0 130.0 Z"></path>
<path fill="#333322" fill-opacity="1.0"  filling="0" d="M127.0 141.0 C121.0 141.0 116.0 136.0 116.0 130.0 C116.0 124.0 121.0 119.0 127.0 119.0 C132.0 119.0 137.0 124.0 137.0 130.0 C137.0 136.0 132.0 141.0 127.0 141.0 L127.0 141.0 Z M127.0 123.0 C123.0 123.0 120.0 126.0 120.0 130.0 C120.0 134.0 123.0 136.0 127.0 136.0 C130.0 136.0 133.0 134.0 133.0 130.0 C133.0 126.0 130.0 123.0 127.0 123.0 L127.0 123.0 Z"></path>
<path fill="#887766" fill-opacity="1.0"  filling="0" d="M106.0 127.0 C106.0 140.0 79.0 145.0 79.0 145.0 C79.0 145.0 83.0 120.0 92.0 117.0 C100.0 114.0 106.0 118.0 106.0 127.0 L106.0 127.0 Z"></path>
<path fill="#333322" fill-opacity="1.0"  filling="0" d="M79.0 147.0 C78.0 147.0 78.0 147.0 77.0 147.0 C77.0 146.0 76.0 146.0 76.0 145.0 C77.0 143.0 82.0 118.0 92.0 115.0 C95.0 113.0 99.0 113.0 102.0 115.0 C105.0 117.0 108.0 121.0 108.0 127.0 C108.0 141.0 82.0 147.0 79.0 147.0 C79.0 147.0 79.0 147.0 79.0 147.0 L79.0 147.0 Z M96.0 118.0 C95.0 118.0 94.0 118.0 93.0 119.0 C88.0 121.0 84.0 135.0 82.0 143.0 C90.0 140.0 104.0 134.0 104.0 127.0 C104.0 123.0 103.0 120.0 100.0 119.0 C99.0 118.0 97.0 118.0 96.0 118.0 L96.0 118.0 Z"></path>
<path fill="#333322" fill-opacity="1.0"  filling="0" d="M177.0 28.0 C177.0 28.0 147.0 54.0 113.0 89.0 C112.0 89.0 112.0 90.0 111.0 90.0 C111.0 90.0 111.0 91.0 111.0 91.0 C111.0 91.0 111.0 91.0 111.0 91.0 C110.0 92.0 109.0 93.0 108.0 94.0 C106.0 96.0 104.0 98.0 102.0 100.0 C101.0 101.0 101.0 103.0 102.0 104.0 C103.0 105.0 105.0 105.0 106.0 104.0 C109.0 102.0 111.0 99.0 113.0 97.0 C114.0 96.0 114.0 95.0 115.0 94.0 C115.0 94.0 115.0 94.0 115.0 94.0 C115.0 94.0 115.0 94.0 115.0 94.0 C116.0 93.0 116.0 93.0 117.0 92.0 C150.0 58.0 178.0 31.0 178.0 31.0 C179.0 30.0 179.0 28.0 178.0 27.0 C178.0 26.0 176.0 26.0 177.0 28.0 L177.0 28.0 Z"></path>
<path fill="#333322" fill-opacity="1.0"  filling="0" d="M26.0 26.0 C25.0 25.0 23.0 25.0 22.0 26.0 C21.0 27.0 21.0 29.0 22.0 30.0 C22.0 30.0 51.0 58.0 81.0 92.0 C82.0 93.0 82.0 94.0 83.0 95.0 C83.0 95.0 83.0 95.0 83.0 95.0 C83.0 95.0 83.0 95.0 83.0 95.0 C84.0 96.0 85.0 97.0 86.0 98.0 C88.0 100.0 90.0 103.0 92.0 105.0 C93.0 106.0 95.0 106.0 96.0 105.0 C97.0 104.0 97.0 102.0 96.0 101.0 C94.0 99.0 92.0 97.0 90.0 95.0 C89.0 94.0 88.0 93.0 87.0 92.0 C87.0 92.0 87.0 92.0 87.0 92.0 C87.0 91.0 87.0 91.0 87.0 91.0 C86.0 91.0 86.0 90.0 85.0 89.0 C55.0 55.0 26.0 26.0 26.0 26.0 L26.0 26.0 Z"></path>
<path fill="#333322" fill-opacity="1.0"  filling="0" d="M100.0 96.0 C100.0 96.0 100.0 96.0 100.0 96.0 C98.0 96.0 97.0 94.0 97.0 93.0 C97.0 93.0 97.0 92.0 97.0 91.0 C97.0 91.0 97.0 91.0 97.0 91.0 C97.0 90.0 97.0 89.0 98.0 88.0 C100.0 85.0 102.0 82.0 104.0 79.0 C105.0 78.0 107.0 78.0 108.0 79.0 C109.0 80.0 109.0 82.0 108.0 83.0 C106.0 86.0 104.0 89.0 102.0 92.0 C102.0 92.0 102.0 93.0 102.0 93.0 C102.0 93.0 102.0 93.0 102.0 93.0 C102.0 94.0 102.0 95.0 101.0 96.0 C101.0 96.0 101.0 96.0 100.0 96.0 L100.0 96.0 Z"></path>
<path fill="#333322" fill-opacity="1.0"  filling="0" d="M177.0 27.0 C177.0 26.0 176.0 26.0 176.0 26.0 C176.0 26.0 175.0 26.0 175.0 26.0 C174.0 27.0 144.0 54.0 112.0 88.0 C111.0 89.0 111.0 89.0 110.0 90.0 C110.0 90.0 110.0 90.0 110.0 90.0 C110.0 90.0 110.0 90.0 110.0 90.0 C109.0 91.0 108.0 93.0 107.0 94.0 C105.0 96.0 103.0 98.0 101.0 100.0 C100.0 101.0 100.0 103.0 101.0 105.0 C102.0 106.0 104.0 106.0 105.0 105.0 C108.0 103.0 110.0 100.0 112.0 97.0 C113.0 96.0 114.0 95.0 114.0 94.0 C114.0 94.0 114.0 94.0 114.0 94.0 C114.0 94.0 114.0 94.0 114.0 94.0 C115.0 93.0 115.0 93.0 116.0 92.0 C149.0 59.0 177.0 30.0 178.0 30.0 C178.0 29.0 178.0 27.0 177.0 26.0 C177.0 26.0 177.0 27.0 177.0 27.0 L177.0 27.0 Z"></path>
<path fill="#333322" fill-opacity="1.0"  filling="0" d="M23.0 27.0 C23.0 27.0 23.0 26.0 23.0 26.0 C22.0 27.0 22.0 29.0 22.0 30.0 C23.0 30.0 51.0 59.0 84.0 92.0 C85.0 93.0 85.0 93.0 86.0 94.0 C86.0 94.0 86.0 94.0 86.0 94.0 C86.0 94.0 86.0 94.0 86.0 94.0 C86.0 95.0 87.0 96.0 88.0 97.0 C90.0 100.0 92.0 103.0 95.0 105.0 C96.0 106.0 98.0 106.0 99.0 105.0 C100.0 103.0 100.0 101.0 99.0 100.0 C97.0 98.0 95.0 96.0 93.0 94.0 C92.0 93.0 91.0 91.0 90.0 90.0 C90.0 90.0 90.0 90.0 90.0 90.0 C90.0 90.0 90.0 90.0 90.0 90.0 C89.0 89.0 89.0 89.0 88.0 88.0 C56.0 54.0 26.0 27.0 25.0 26.0 C25.0 26.0 24.0 26.0 24.0 26.0 C24.0 26.0 23.0 26.0 23.0 27.0 L23.0 27.0 Z"></path></svg>