<svg xmlns="http://www.w3.org/2000/svg" viewBox="0.0 0.0 200.0 200.0" height="200px" width="200px"><path fill="#ffeecc" fill-opacity="1.0"  filling="0" d="M171.0 104.0 C171.0 140.0 140.0 170.0 104.0 170.0 C68.0 170.0 38.0 140.0 38.0 104.0 C38.0 68.0 68.0 38.0 104.0 38.0 C140.0 38.0 171.0 68.0 171.0 104.0 L171.0 104.0 Z"></path>
<path fill="#221111" fill-opacity="1.0"  filling="0" d="M104.0 171.0 C67.0 171.0 36.0 141.0 36.0 104.0 C36.0 67.0 67.0 36.0 104.0 36.0 C142.0 36.0 173.0 67.0 173.0 104.0 C173.0 141.0 141.0 171.0 104.0 171.0 L104.0 171.0 Z M104.0 40.0 C69.0 40.0 40.0 69.0 40.0 104.0 C40.0 139.0 69.0 167.0 104.0 167.0 C139.0 167.0 169.0 139.0 169.0 104.0 C169.0 69.0 139.0 40.0 104.0 40.0 L104.0 40.0 Z"></path>
<path fill="#55aa88" fill-opacity="1.0"  filling="0" d="M66.0 124.0 C72.0 130.0 72.0 138.0 66.0 144.0 C60.0 149.0 52.0 149.0 46.0 144.0 C40.0 138.0 40.0 130.0 46.0 124.0 C52.0 118.0 60.0 118.0 66.0 124.0 L66.0 124.0 Z"></path>
<path fill="#221111" fill-opacity="1.0"  filling="0" d="M57.0 150.0 C53.0 150.0 48.0 148.0 45.0 145.0 C39.0 139.0 39.0 129.0 45.0 123.0 C51.0 117.0 61.0 117.0 67.0 123.0 C74.0 129.0 74.0 139.0 67.0 145.0 C64.0 148.0 61.0 150.0 57.0 150.0 L57.0 150.0 Z M57.0 121.0 C53.0 121.0 50.0 122.0 47.0 125.0 C42.0 130.0 42.0 138.0 47.0 143.0 C52.0 148.0 60.0 148.0 65.0 143.0 C70.0 138.0 70.0 130.0 65.0 125.0 C63.0 122.0 60.0 121.0 57.0 121.0 L57.0 121.0 Z"></path>
<path fill="#ffeecc" fill-opacity="1.0"  filling="0" d="M105.0 95.0 C105.0 83.0 112.0 75.0 120.0 70.0 C130.0 65.0 135.0 56.0 127.0 48.0 C120.0 41.0 108.0 38.0 94.0 38.0 C59.0 38.0 29.0 68.0 29.0 104.0 C29.0 140.0 59.0 170.0 94.0 170.0 C127.0 170.0 154.0 140.0 154.0 104.0 C154.0 101.0 151.0 99.0 148.0 97.0 C141.0 93.0 129.0 95.0 120.0 95.0 L105.0 95.0 L105.0 95.0 L105.0 95.0 Z"></path>
<path fill="#221111" fill-opacity="1.0"  filling="0" d="M94.0 171.0 C58.0 171.0 27.0 141.0 27.0 104.0 C27.0 67.0 58.0 36.0 94.0 36.0 C108.0 36.0 121.0 40.0 128.0 47.0 C132.0 51.0 133.0 56.0 132.0 60.0 C131.0 65.0 127.0 69.0 121.0 72.0 C113.0 76.0 107.0 84.0 107.0 95.0 L120.0 95.0 C129.0 95.0 141.0 93.0 148.0 97.0 C153.0 99.0 156.0 102.0 156.0 108.0 C155.0 141.0 128.0 171.0 94.0 171.0 L94.0 171.0 Z M94.0 40.0 C60.0 40.0 31.0 69.0 31.0 104.0 C31.0 139.0 60.0 167.0 94.0 167.0 C126.0 167.0 152.0 139.0 152.0 108.0 C152.0 104.0 150.0 101.0 147.0 100.0 C140.0 96.0 129.0 98.0 120.0 98.0 L105.0 98.0 A2.0 2.0 0.0 0 1 103.0 95.0 C103.0 83.0 110.0 74.0 120.0 69.0 C125.0 67.0 128.0 63.0 129.0 59.0 C129.0 56.0 128.0 52.0 126.0 50.0 C119.0 43.0 107.0 40.0 94.0 40.0 L94.0 40.0 Z"></path>
<path fill="#ee6633" fill-opacity="1.0"  filling="0" d="M66.0 66.0 A12.0 12.0 0.0 1 0 91.0 66.0 A12.0 12.0 0.0 1 0 66.0 66.0 L66.0 66.0 Z"></path>
<path fill="#221111" fill-opacity="1.0"  filling="0" d="M79.0 80.0 C71.0 80.0 64.0 74.0 64.0 66.0 C64.0 58.0 71.0 51.0 79.0 51.0 C87.0 51.0 93.0 58.0 93.0 66.0 C93.0 74.0 87.0 80.0 79.0 80.0 L79.0 80.0 Z M79.0 55.0 C73.0 55.0 68.0 60.0 68.0 66.0 C68.0 72.0 73.0 76.0 79.0 76.0 C85.0 76.0 89.0 72.0 89.0 66.0 C89.0 60.0 85.0 55.0 79.0 55.0 L79.0 55.0 Z"></path>
<path fill="#4477aa" fill-opacity="1.0"  filling="0" d="M42.0 94.0 A12.0 12.0 0.0 1 0 67.0 94.0 A12.0 12.0 0.0 1 0 42.0 94.0 L42.0 94.0 Z"></path>
<path fill="#221111" fill-opacity="1.0"  filling="0" d="M54.0 109.0 C46.0 109.0 40.0 102.0 40.0 94.0 C40.0 86.0 46.0 80.0 54.0 80.0 C62.0 80.0 69.0 86.0 69.0 94.0 C69.0 102.0 62.0 109.0 54.0 109.0 L54.0 109.0 Z M54.0 84.0 C48.0 84.0 44.0 88.0 44.0 94.0 C44.0 100.0 48.0 105.0 54.0 105.0 C60.0 105.0 65.0 100.0 65.0 94.0 C65.0 88.0 60.0 84.0 54.0 84.0 L54.0 84.0 Z"></path>
<path fill="#55aa88" fill-opacity="1.0"  filling="0" d="M49.0 130.0 A12.0 12.0 0.0 1 0 74.0 130.0 A12.0 12.0 0.0 1 0 49.0 130.0 L49.0 130.0 Z"></path>
<path fill="#221111" fill-opacity="1.0"  filling="0" d="M61.0 144.0 C53.0 144.0 47.0 139.0 47.0 130.0 C47.0 122.0 53.0 115.0 61.0 115.0 C69.0 115.0 76.0 122.0 76.0 130.0 C76.0 139.0 69.0 144.0 61.0 144.0 L61.0 144.0 Z M61.0 119.0 C55.0 119.0 51.0 124.0 51.0 130.0 C51.0 136.0 55.0 140.0 61.0 140.0 C67.0 140.0 72.0 136.0 72.0 130.0 C72.0 124.0 67.0 119.0 61.0 119.0 L61.0 119.0 Z"></path>
<path fill="#221111" fill-opacity="1.0"  filling="0" d="M78.0 147.0 A2.0 2.0 0.0 0 1 77.0 144.0 C77.0 144.0 81.0 140.0 82.0 131.0 C84.0 119.0 89.0 115.0 95.0 114.0 C100.0 113.0 106.0 112.0 109.0 97.0 C111.0 87.0 114.0 81.0 118.0 77.0 C124.0 72.0 132.0 71.0 132.0 71.0 C133.0 71.0 134.0 72.0 134.0 73.0 A2.0 2.0 0.0 0 1 132.0 75.0 C132.0 75.0 125.0 75.0 120.0 80.0 C117.0 83.0 114.0 89.0 112.0 98.0 C110.0 110.0 105.0 115.0 96.0 117.0 C91.0 118.0 87.0 121.0 85.0 131.0 C84.0 142.0 79.0 146.0 79.0 147.0 C79.0 147.0 78.0 147.0 78.0 147.0 L78.0 147.0 Z"></path>
<path fill="#ffffff" fill-opacity="1.0"  filling="0" d="M115.0 130.0 A9.0 9.0 0.0 1 0 135.0 130.0 A9.0 9.0 0.0 1 0 115.0 130.0 L115.0 130.0 Z"></path>
<path fill="#221111" fill-opacity="1.0"  filling="0" d="M127.0 141.0 C121.0 141.0 116.0 136.0 116.0 130.0 C116.0 124.0 121.0 119.0 127.0 119.0 C133.0 119.0 138.0 124.0 138.0 130.0 C138.0 136.0 133.0 141.0 127.0 141.0 L127.0 141.0 Z M127.0 124.0 C123.0 124.0 120.0 126.0 120.0 130.0 C120.0 134.0 123.0 136.0 127.0 136.0 C130.0 136.0 133.0 134.0 133.0 130.0 C133.0 126.0 130.0 124.0 127.0 124.0 L127.0 124.0 Z"></path>
<path fill="#aa7744" fill-opacity="1.0"  filling="0" d="M177.0 27.0 C177.0 27.0 175.0 38.0 166.0 52.0 C157.0 68.0 143.0 86.0 128.0 100.0 C117.0 112.0 105.0 122.0 95.0 127.0 C85.0 134.0 79.0 145.0 79.0 145.0 C79.0 145.0 96.0 145.0 105.0 133.0 C113.0 122.0 126.0 108.0 136.0 97.0 C145.0 86.0 157.0 68.0 164.0 52.0 C172.0 38.0 177.0 27.0 177.0 27.0 L177.0 27.0 Z"></path>
<path fill="#221111" fill-opacity="1.0"  filling="0" d="M79.0 147.0 A2.0 2.0 0.0 0 1 77.0 144.0 C77.0 144.0 83.0 133.0 94.0 126.0 C103.0 121.0 115.0 111.0 127.0 99.0 C141.0 85.0 155.0 67.0 163.0 51.0 C173.0 37.0 175.0 27.0 175.0 27.0 A2.0 2.0 0.0 1 1 179.0 27.0 C179.0 28.0 176.0 39.0 167.0 53.0 C159.0 69.0 145.0 88.0 129.0 101.0 C118.0 113.0 106.0 124.0 96.0 129.0 C86.0 136.0 81.0 146.0 81.0 146.0 C81.0 147.0 80.0 147.0 79.0 147.0 L79.0 147.0 Z"></path>
<path fill="#221111" fill-opacity="1.0"  filling="0" d="M117.0 100.0 C117.0 100.0 116.0 100.0 116.0 99.0 C115.0 99.0 115.0 98.0 116.0 97.0 C116.0 97.0 118.0 94.0 122.0 90.0 C126.0 86.0 137.0 76.0 148.0 64.0 C161.0 51.0 173.0 28.0 174.0 27.0 C174.0 26.0 175.0 25.0 176.0 26.0 C177.0 26.0 178.0 27.0 177.0 28.0 C177.0 29.0 165.0 53.0 151.0 67.0 C139.0 80.0 128.0 89.0 125.0 93.0 C120.0 97.0 118.0 99.0 118.0 99.0 A2.0 2.0 0.0 0 1 117.0 100.0 L117.0 100.0 Z"></path></svg>