<svg xmlns="http://www.w3.org/2000/svg" viewBox="0.0 0.0 200.0 200.0" height="200px" width="200px"><path fill="#ffeecc" fill-opacity="1.0"  filling="0" d="M171.0 104.0 C171.0 140.0 140.0 170.0 104.0 170.0 C68.0 170.0 38.0 140.0 38.0 104.0 C38.0 68.0 68.0 38.0 104.0 38.0 C140.0 38.0 171.0 68.0 171.0 104.0 L171.0 104.0 Z"></path>
<path fill="#221111" fill-opacity="1.0"  filling="0" d="M104.0 171.0 C67.0 171.0 36.0 141.0 36.0 104.0 C36.0 67.0 67.0 36.0 104.0 36.0 C142.0 36.0 173.0 67.0 173.0 104.0 C173.0 141.0 141.0 171.0 104.0 171.0 L104.0 171.0 Z M104.0 40.0 C69.0 40.0 40.0 69.0 40.0 104.0 C40.0 139.0 69.0 167.0 104.0 167.0 C139.0 167.0 169.0 139.0 169.0 104.0 C169.0 69.0 139.0 40.0 104.0 40.0 L104.0 40.0 Z"></path>
<path fill="#221111" fill-opacity="1.0"  filling="0" d="M150.0 83.0 C150.0 83.0 150.0 83.0 150.0 83.0 C149.0 83.0 148.0 82.0 148.0 81.0 C148.0 79.0 148.0 78.0 148.0 76.0 C148.0 75.0 149.0 74.0 150.0 74.0 C151.0 74.0 152.0 75.0 152.0 76.0 C152.0 78.0 152.0 80.0 152.0 82.0 C152.0 82.0 151.0 83.0 150.0 83.0 L150.0 83.0 Z"></path>
<path fill="#221111" fill-opacity="1.0"  filling="0" d="M150.0 69.0 C149.0 69.0 148.0 69.0 148.0 68.0 C141.0 54.0 128.0 44.0 112.0 41.0 C111.0 41.0 110.0 40.0 111.0 39.0 C111.0 38.0 112.0 37.0 113.0 38.0 C130.0 41.0 144.0 51.0 152.0 65.0 C152.0 67.0 152.0 68.0 151.0 69.0 C150.0 69.0 150.0 69.0 150.0 69.0 L150.0 69.0 Z"></path>
<path fill="#221111" fill-opacity="1.0"  filling="0" d="M150.0 83.0 C149.0 83.0 148.0 82.0 148.0 81.0 C148.0 79.0 148.0 78.0 148.0 76.0 C148.0 75.0 149.0 74.0 150.0 74.0 C151.0 74.0 152.0 75.0 152.0 76.0 C152.0 78.0 152.0 80.0 152.0 82.0 C152.0 82.0 151.0 83.0 150.0 83.0 L150.0 83.0 Z"></path>
<path fill="#221111" fill-opacity="1.0"  filling="0" d="M150.0 69.0 C149.0 69.0 148.0 69.0 148.0 68.0 C141.0 54.0 128.0 44.0 112.0 41.0 C111.0 41.0 110.0 40.0 111.0 39.0 C111.0 38.0 112.0 37.0 113.0 38.0 C130.0 41.0 144.0 51.0 152.0 65.0 C152.0 67.0 152.0 68.0 151.0 69.0 C150.0 69.0 150.0 69.0 150.0 69.0 L150.0 69.0 Z"></path>
<path fill="#221111" fill-opacity="1.0"  filling="0" d="M150.0 83.0 C149.0 83.0 148.0 82.0 148.0 81.0 C148.0 79.0 148.0 78.0 148.0 76.0 C148.0 75.0 149.0 74.0 150.0 74.0 C151.0 74.0 152.0 75.0 152.0 76.0 C152.0 78.0 152.0 80.0 152.0 82.0 C152.0 82.0 151.0 83.0 150.0 83.0 L150.0 83.0 Z"></path>
<path fill="#221111" fill-opacity="1.0"  filling="0" d="M150.0 69.0 C149.0 69.0 148.0 69.0 148.0 68.0 C141.0 54.0 128.0 44.0 112.0 41.0 C111.0 41.0 110.0 40.0 111.0 39.0 C111.0 38.0 112.0 37.0 113.0 38.0 C130.0 41.0 144.0 51.0 152.0 65.0 C152.0 67.0 152.0 68.0 151.0 69.0 C150.0 69.0 150.0 69.0 150.0 69.0 L150.0 69.0 Z"></path>
<path fill="#221111" fill-opacity="1.0"  filling="0" d="M150.0 83.0 C149.0 83.0 148.0 82.0 148.0 81.0 C148.0 79.0 148.0 78.0 148.0 76.0 C148.0 75.0 149.0 74.0 150.0 74.0 C151.0 74.0 152.0 75.0 152.0 76.0 C152.0 78.0 152.0 80.0 152.0 82.0 C152.0 82.0 151.0 83.0 150.0 83.0 L150.0 83.0 Z"></path>
<path fill="#221111" fill-opacity="1.0"  filling="0" d="M150.0 69.0 C149.0 69.0 148.0 69.0 148.0 68.0 C141.0 54.0 128.0 44.0 112.0 41.0 C111.0 41.0 110.0 40.0 111.0 39.0 C111.0 38.0 112.0 37.0 113.0 38.0 C130.0 41.0 144.0 51.0 152.0 65.0 C152.0 67.0 152.0 68.0 151.0 69.0 C150.0 69.0 150.0 69.0 150.0 69.0 L150.0 69.0 Z"></path>
<path fill="#aa7744" fill-opacity="1.0"  filling="0" d="M102.0 143.0 C93.0 148.0 81.0 149.0 78.0 145.0 C76.0 142.0 81.0 135.0 83.0 127.0 C87.0 119.0 93.0 114.0 98.0 116.0 C103.0 118.0 105.0 128.0 102.0 143.0 L102.0 143.0 Z"></path>
<path fill="#221111" fill-opacity="1.0"  filling="0" d="M84.0 149.0 C81.0 149.0 78.0 148.0 77.0 146.0 C74.0 144.0 77.0 140.0 79.0 136.0 C80.0 133.0 81.0 130.0 82.0 127.0 C85.0 120.0 90.0 115.0 95.0 114.0 C97.0 113.0 99.0 114.0 100.0 115.0 C105.0 118.0 107.0 128.0 103.0 144.0 L103.0 144.0 C98.0 147.0 92.0 149.0 87.0 149.0 C86.0 149.0 85.0 149.0 84.0 149.0 L84.0 149.0 Z M95.0 117.0 C95.0 117.0 95.0 117.0 95.0 117.0 C91.0 118.0 87.0 122.0 85.0 128.0 C84.0 131.0 83.0 134.0 82.0 137.0 C81.0 140.0 79.0 143.0 80.0 144.0 C80.0 145.0 83.0 145.0 87.0 145.0 C91.0 145.0 96.0 144.0 100.0 141.0 C103.0 128.0 102.0 120.0 98.0 118.0 C97.0 117.0 96.0 117.0 95.0 117.0 L95.0 117.0 Z"></path>
<path fill="#aa7744" fill-opacity="1.0"  filling="0" d="M102.0 143.0 C93.0 148.0 81.0 149.0 78.0 145.0 C76.0 142.0 81.0 135.0 83.0 127.0 C87.0 119.0 93.0 114.0 98.0 116.0 C103.0 118.0 105.0 128.0 102.0 143.0 L102.0 143.0 Z"></path>
<path fill="#221111" fill-opacity="1.0"  filling="0" d="M84.0 149.0 C81.0 149.0 78.0 148.0 77.0 146.0 C74.0 144.0 77.0 140.0 79.0 136.0 C80.0 133.0 81.0 130.0 82.0 127.0 C85.0 120.0 90.0 115.0 95.0 114.0 C97.0 113.0 99.0 114.0 100.0 115.0 C105.0 118.0 107.0 128.0 103.0 144.0 L103.0 144.0 C98.0 147.0 92.0 149.0 87.0 149.0 C86.0 149.0 85.0 149.0 84.0 149.0 L84.0 149.0 Z M95.0 117.0 C95.0 117.0 95.0 117.0 95.0 117.0 C91.0 118.0 87.0 122.0 85.0 128.0 C84.0 131.0 83.0 134.0 82.0 137.0 C81.0 140.0 79.0 143.0 80.0 144.0 C80.0 145.0 83.0 145.0 87.0 145.0 C91.0 145.0 96.0 144.0 100.0 141.0 C103.0 128.0 102.0 120.0 98.0 118.0 C97.0 117.0 96.0 117.0 95.0 117.0 L95.0 117.0 Z"></path>
<path fill="#aa7744" fill-opacity="1.0"  filling="0" d="M102.0 143.0 C93.0 148.0 81.0 149.0 78.0 145.0 C76.0 142.0 81.0 135.0 83.0 127.0 C87.0 119.0 93.0 114.0 98.0 116.0 C103.0 118.0 105.0 128.0 102.0 143.0 L102.0 143.0 Z"></path>
<path fill="#221111" fill-opacity="1.0"  filling="0" d="M84.0 149.0 C81.0 149.0 78.0 148.0 77.0 146.0 C74.0 144.0 77.0 140.0 79.0 136.0 C80.0 133.0 81.0 130.0 82.0 127.0 C85.0 120.0 90.0 115.0 95.0 114.0 C97.0 113.0 99.0 114.0 100.0 115.0 C105.0 118.0 107.0 128.0 103.0 144.0 L103.0 144.0 C98.0 147.0 92.0 149.0 87.0 149.0 C86.0 149.0 85.0 149.0 84.0 149.0 L84.0 149.0 Z M95.0 117.0 C95.0 117.0 95.0 117.0 95.0 117.0 C91.0 118.0 87.0 122.0 85.0 128.0 C84.0 131.0 83.0 134.0 82.0 137.0 C81.0 140.0 79.0 143.0 80.0 144.0 C80.0 145.0 83.0 145.0 87.0 145.0 C91.0 145.0 96.0 144.0 100.0 141.0 C103.0 128.0 102.0 120.0 98.0 118.0 C97.0 117.0 96.0 117.0 95.0 117.0 L95.0 117.0 Z"></path>
<path fill="#aa7744" fill-opacity="1.0"  filling="0" d="M102.0 143.0 C93.0 148.0 81.0 149.0 78.0 145.0 C76.0 142.0 81.0 135.0 83.0 127.0 C87.0 119.0 93.0 114.0 98.0 116.0 C103.0 118.0 105.0 128.0 102.0 143.0 L102.0 143.0 Z"></path>
<path fill="#221111" fill-opacity="1.0"  filling="0" d="M84.0 149.0 C81.0 149.0 78.0 148.0 77.0 146.0 C74.0 144.0 77.0 140.0 79.0 136.0 C80.0 133.0 81.0 130.0 82.0 127.0 C85.0 120.0 90.0 115.0 95.0 114.0 C97.0 113.0 99.0 114.0 100.0 115.0 C105.0 118.0 107.0 128.0 103.0 144.0 L103.0 144.0 C98.0 147.0 92.0 149.0 87.0 149.0 C86.0 149.0 85.0 149.0 84.0 149.0 L84.0 149.0 Z M95.0 117.0 C95.0 117.0 95.0 117.0 95.0 117.0 C91.0 118.0 87.0 122.0 85.0 128.0 C84.0 131.0 83.0 134.0 82.0 137.0 C81.0 140.0 79.0 143.0 80.0 144.0 C80.0 145.0 83.0 145.0 87.0 145.0 C91.0 145.0 96.0 144.0 100.0 141.0 C103.0 128.0 102.0 120.0 98.0 118.0 C97.0 117.0 96.0 117.0 95.0 117.0 L95.0 117.0 Z"></path>
<path fill="#aa7744" fill-opacity="1.0"  filling="0" d="M102.0 143.0 C93.0 148.0 81.0 149.0 78.0 145.0 C76.0 142.0 81.0 135.0 83.0 127.0 C87.0 119.0 93.0 114.0 98.0 116.0 C103.0 118.0 105.0 128.0 102.0 143.0 L102.0 143.0 Z"></path>
<path fill="#221111" fill-opacity="1.0"  filling="0" d="M84.0 149.0 C81.0 149.0 78.0 148.0 77.0 146.0 C74.0 144.0 77.0 140.0 79.0 136.0 C80.0 133.0 81.0 130.0 82.0 127.0 C85.0 120.0 90.0 115.0 95.0 114.0 C97.0 113.0 99.0 114.0 100.0 115.0 C105.0 118.0 107.0 128.0 103.0 144.0 L103.0 144.0 C98.0 147.0 92.0 149.0 87.0 149.0 C86.0 149.0 85.0 149.0 84.0 149.0 L84.0 149.0 Z M95.0 117.0 C95.0 117.0 95.0 117.0 95.0 117.0 C91.0 118.0 87.0 122.0 85.0 128.0 C84.0 131.0 83.0 134.0 82.0 137.0 C81.0 140.0 79.0 143.0 80.0 144.0 C80.0 145.0 83.0 145.0 87.0 145.0 C91.0 145.0 96.0 144.0 100.0 141.0 C103.0 128.0 102.0 120.0 98.0 118.0 C97.0 117.0 96.0 117.0 95.0 117.0 L95.0 117.0 Z"></path>
<path fill="#aa7744" fill-opacity="1.0"  filling="0" d="M102.0 143.0 C93.0 148.0 81.0 149.0 78.0 145.0 C76.0 142.0 81.0 135.0 83.0 127.0 C87.0 119.0 93.0 114.0 98.0 116.0 C103.0 118.0 105.0 128.0 102.0 143.0 L102.0 143.0 Z"></path>
<path fill="#221111" fill-opacity="1.0"  filling="0" d="M84.0 149.0 C81.0 149.0 78.0 148.0 77.0 146.0 C74.0 144.0 77.0 140.0 79.0 136.0 C80.0 133.0 81.0 130.0 82.0 127.0 C85.0 120.0 90.0 115.0 95.0 114.0 C97.0 113.0 99.0 114.0 100.0 115.0 C105.0 118.0 107.0 128.0 103.0 144.0 L103.0 144.0 C98.0 147.0 92.0 149.0 87.0 149.0 C86.0 149.0 85.0 149.0 84.0 149.0 L84.0 149.0 Z M95.0 117.0 C95.0 117.0 95.0 117.0 95.0 117.0 C91.0 118.0 87.0 122.0 85.0 128.0 C84.0 131.0 83.0 134.0 82.0 137.0 C81.0 140.0 79.0 143.0 80.0 144.0 C80.0 145.0 83.0 145.0 87.0 145.0 C91.0 145.0 96.0 144.0 100.0 141.0 C103.0 128.0 102.0 120.0 98.0 118.0 C97.0 117.0 96.0 117.0 95.0 117.0 L95.0 117.0 Z"></path>
<path fill="#aa7744" fill-opacity="1.0"  filling="0" d="M102.0 143.0 C93.0 148.0 81.0 149.0 78.0 145.0 C76.0 142.0 81.0 135.0 83.0 127.0 C87.0 119.0 93.0 114.0 98.0 116.0 C103.0 118.0 105.0 128.0 102.0 143.0 L102.0 143.0 Z"></path>
<path fill="#221111" fill-opacity="1.0"  filling="0" d="M84.0 149.0 C81.0 149.0 78.0 148.0 77.0 146.0 C74.0 144.0 77.0 140.0 79.0 136.0 C80.0 133.0 81.0 130.0 82.0 127.0 C85.0 120.0 90.0 115.0 95.0 114.0 C97.0 113.0 99.0 114.0 100.0 115.0 C105.0 118.0 107.0 128.0 103.0 144.0 L103.0 144.0 C98.0 147.0 92.0 149.0 87.0 149.0 C86.0 149.0 85.0 149.0 84.0 149.0 L84.0 149.0 Z M95.0 117.0 C95.0 117.0 95.0 117.0 95.0 117.0 C91.0 118.0 87.0 122.0 85.0 128.0 C84.0 131.0 83.0 134.0 82.0 137.0 C81.0 140.0 79.0 143.0 80.0 144.0 C80.0 145.0 83.0 145.0 87.0 145.0 C91.0 145.0 96.0 144.0 100.0 141.0 C103.0 128.0 102.0 120.0 98.0 118.0 C97.0 117.0 96.0 117.0 95.0 117.0 L95.0 117.0 Z"></path>
<path fill="#aa7744" fill-opacity="1.0"  filling="0" d="M102.0 143.0 C93.0 148.0 81.0 149.0 78.0 145.0 C76.0 142.0 81.0 135.0 83.0 127.0 C87.0 119.0 93.0 114.0 98.0 116.0 C103.0 118.0 105.0 128.0 102.0 143.0 L102.0 143.0 Z"></path>
<path fill="#221111" fill-opacity="1.0"  filling="0" d="M84.0 149.0 C81.0 149.0 78.0 148.0 77.0 146.0 C74.0 144.0 77.0 140.0 79.0 136.0 C80.0 133.0 81.0 130.0 82.0 127.0 C85.0 120.0 90.0 115.0 95.0 114.0 C97.0 113.0 99.0 114.0 100.0 115.0 C105.0 118.0 107.0 128.0 103.0 144.0 L103.0 144.0 C98.0 147.0 92.0 149.0 87.0 149.0 C86.0 149.0 85.0 149.0 84.0 149.0 L84.0 149.0 Z M95.0 117.0 C95.0 117.0 95.0 117.0 95.0 117.0 C91.0 118.0 87.0 122.0 85.0 128.0 C84.0 131.0 83.0 134.0 82.0 137.0 C81.0 140.0 79.0 143.0 80.0 144.0 C80.0 145.0 83.0 145.0 87.0 145.0 C91.0 145.0 96.0 144.0 100.0 141.0 C103.0 128.0 102.0 120.0 98.0 118.0 C97.0 117.0 96.0 117.0 95.0 117.0 L95.0 117.0 Z"></path>
<path fill="#aa7744" fill-opacity="1.0"  filling="0" d="M102.0 143.0 C93.0 148.0 81.0 149.0 78.0 145.0 C76.0 142.0 81.0 135.0 83.0 127.0 C87.0 119.0 93.0 114.0 98.0 116.0 C103.0 118.0 105.0 128.0 102.0 143.0 L102.0 143.0 Z"></path>
<path fill="#221111" fill-opacity="1.0"  filling="0" d="M84.0 149.0 C81.0 149.0 78.0 148.0 77.0 146.0 C74.0 144.0 77.0 140.0 79.0 136.0 C80.0 133.0 81.0 130.0 82.0 127.0 C85.0 120.0 90.0 115.0 95.0 114.0 C97.0 113.0 99.0 114.0 100.0 115.0 C105.0 118.0 107.0 128.0 103.0 144.0 L103.0 144.0 C98.0 147.0 92.0 149.0 87.0 149.0 C86.0 149.0 85.0 149.0 84.0 149.0 L84.0 149.0 Z M95.0 117.0 C95.0 117.0 95.0 117.0 95.0 117.0 C91.0 118.0 87.0 122.0 85.0 128.0 C84.0 131.0 83.0 134.0 82.0 137.0 C81.0 140.0 79.0 143.0 80.0 144.0 C80.0 145.0 83.0 145.0 87.0 145.0 C91.0 145.0 96.0 144.0 100.0 141.0 C103.0 128.0 102.0 120.0 98.0 118.0 C97.0 117.0 96.0 117.0 95.0 117.0 L95.0 117.0 Z"></path>
<path fill="#aa7744" fill-opacity="1.0"  filling="0" d="M102.0 143.0 C93.0 148.0 81.0 149.0 78.0 145.0 C76.0 142.0 81.0 135.0 83.0 127.0 C87.0 119.0 93.0 114.0 98.0 116.0 C103.0 118.0 105.0 128.0 102.0 143.0 L102.0 143.0 Z"></path>
<path fill="#000000" fill-opacity="1.0"  filling="0" d="M84.0 149.0 C81.0 149.0 78.0 148.0 77.0 146.0 C74.0 144.0 77.0 140.0 79.0 136.0 C80.0 133.0 81.0 130.0 82.0 127.0 C85.0 120.0 90.0 115.0 95.0 114.0"></path></svg>