<svg xmlns="http://www.w3.org/2000/svg" viewBox="0.0 0.0 200.0 200.0" height="200px" width="200px"><path fill="#ff9900" fill-opacity="1.0"  filling="0" d="M134.0 58.0 C134.0 58.0 134.0 58.0 134.0 58.0 C132.0 57.0 107.0 58.0 92.0 85.0 C78.0 108.0 92.0 142.0 120.0 141.0 C151.0 140.0 157.0 113.0 157.0 112.0 C156.0 111.0 156.0 111.0 156.0 111.0 C155.0 111.0 155.0 111.0 155.0 111.0 C155.0 111.0 124.0 119.0 120.0 83.0 C119.0 67.0 133.0 59.0 133.0 58.0 C133.0 58.0 133.0 58.0 134.0 58.0 L134.0 58.0 Z"></path>
<path fill="currentColor" fill-opacity="1.0"  filling="0" d="M122.0 143.0 L122.0 143.0 C112.0 143.0 104.0 139.0 98.0 132.0 C93.0 127.0 90.0 121.0 88.0 114.0 C86.0 106.0 86.0 98.0 89.0 91.0 C91.0 87.0 93.0 83.0 95.0 79.0 C100.0 73.0 105.0 68.0 111.0 63.0 C116.0 60.0 120.0 58.0 124.0 57.0 C129.0 56.0 132.0 55.0 133.0 55.0 C134.0 55.0 134.0 55.0 134.0 55.0 L135.0 55.0 L135.0 56.0 C136.0 56.0 136.0 57.0 136.0 57.0 C136.0 59.0 136.0 60.0 135.0 61.0 C134.0 61.0 122.0 62.0 119.0 83.0 C120.0 88.0 121.0 93.0 122.0 98.0 C124.0 104.0 127.0 109.0 131.0 113.0 C141.0 118.0 151.0 115.0 154.0 114.0 C154.0 114.0 154.0 114.0 154.0 114.0 C154.0 114.0 154.0 114.0 155.0 115.0 L155.0 115.0 L155.0 115.0 C155.0 116.0 156.0 121.0 152.0 127.0 C149.0 132.0 140.0 143.0 122.0 143.0 L122.0 143.0 Z M132.0 59.0 C130.0 59.0 126.0 60.0 123.0 62.0 C114.0 64.0 105.0 71.0 98.0 81.0 C94.0 86.0 92.0 90.0 91.0 93.0 C88.0 100.0 88.0 106.0 91.0 113.0 C93.0 122.0 99.0 130.0 106.0 135.0 C110.0 138.0 116.0 140.0 122.0 140.0 L122.0 140.0 C135.0 140.0 144.0 134.0 149.0 125.0 C151.0 122.0 151.0 119.0 151.0 117.0 C147.0 119.0 138.0 121.0 129.0 116.0 C121.0 111.0 117.0 101.0 116.0 83.0 C116.0 76.0 119.0 69.0 124.0 65.0 C127.0 62.0 130.0 60.0 132.0 59.0 L132.0 59.0 Z"></path>
<path fill="#000000" fill-opacity="1.0"  filling="0" d="M52.0 99.0 C52.0 99.0 51.0 112.0 56.0 123.0 C56.0 123.0 56.0 123.0 56.0 123.0 C56.0 123.0 56.0 123.0 56.0 123.0 C56.0 123.0 56.0 123.0 56.0 123.0 C56.0 123.0 56.0 123.0 56.0 123.0 C56.0 123.0 56.0 123.0 56.0 123.0 C56.0 123.0 56.0 123.0 56.0 123.0 C56.0 123.0 56.0 123.0 56.0 123.0 C56.0 123.0 56.0 123.0 56.0 123.0 C56.0 123.0 56.0 123.0 56.0 123.0 C56.0 123.0 56.0 123.0 56.0 123.0 C56.0 123.0 56.0 123.0 56.0 123.0 C56.0 123.0 56.0 123.0 56.0 123.0 C56.0 123.0 56.0 123.0 56.0 123.0 C56.0 123.0 56.0 123.0 56.0 123.0 C56.0 123.0 56.0 123.0 56.0 123.0 C56.0 123.0 56.0 123.0 56.0 123.0 C56.0 123.0 56.0 123.0 56.0 123.0 C56.0 123.0 56.0 123.0 56.0 123.0 C56.0 123.0 56.0 123.0 56.0 123.0 C56.0 123.0 56.0 123.0 56.0 123.0 C56.0 123.0 56.0 123.0 56.0 123.0 C56.0 123.0 56.0 123.0 56.0 123.0 C56.0 123.0 56.0 123.0 56.0 123.0 C56.0 123.0 56.0 123.0 56.0 123.0 C56.0 123.0 56.0 123.0 56.0 123.0 C56.0 123.0 56.0 123.0 56.0 123.0 C56.0 123.0 56.0 123.0 56.0 123.0 C56.0 123.0 56.0 123.0 56.0 123.0 C56.0 123.0 56.0 123.0 56.0 123.0 C56.0 123.0 56.0 123.0 56.0 123.0 C56.0 123.0 56.0 123.0 56.0 123.0 C56.0 123.0 56.0 123.0 56.0 123.0 C56.0 123.0 56.0 123.0 56.0 123.0 C56.0 123.0 56.0 123.0 56.0 123.0 C56.0 123.0 56.0 123.0 56.0 123.0 C56.0 123.0 56.0 123.0 56.0 123.0 C56.0 123.0 56.0 123.0 56.0 123.0 C56.0 123.0 56.0 123.0 56.0 123.0 C56.0 123.0 56.0 123.0 56.0 123.0 C56.0 123.0 56.0 123.0 56.0 123.0 C56.0 123.0 56.0 123.0 56.0 123.0 C56.0 123.0 56.0 123.0 56.0 123.0 C56.0 123.0 56.0 123.0 56.0 123.0 C56.0 123.0 56.0 123.0 56.0 123.0 C56.0 123.0 56.0 123.0 56.0 123.0 C56.0 123.0 56.0 123.0 56.0 123.0 C56.0 123.0 56.0 123.0 56.0 123.0 C56.0 123.0 56.0 123.0 56.0 123.0 C56.0 123.0 56.0 123.0 56.0 123.0 C56.0 123.0 56.0 123.0 56.0 123.0 C56.0 123.0 56.0 123.0 56.0 123.0 C56.0 123.0 56.0 123.0 56.0 123.0 C56.0 123.0 56.0 123.0 56.0 123.0 C56.0 123.0 56.0 123.0 56.0 123.0 C56.0 123.0 56.0 123.0 56.0 123.0 C56.0 123.0 56.0 123.0 56.0 123.0 C56.0 123.0 56.0 123.0 56.0 123.0 C56.0 123.0 56.0 123.0 56.0 123.0 C56.0 123.0 56.0 123.0 56.0 123.0 C56.0 123.0 56.0 123.0 56.0 123.0 C56.0 123.0 56.0 123.0 56.0 123.0 C56.0 123.0 56.0 123.0 56.0 123.0 C56.0 123.0 56.0 123.0 56.0 123.0 C56.0 123.0 56.0 123.0 56.0 123.0 C56.0 123.0 56.0 123.0 56.0 123.0 C56.0 123.0 56.0 123.0 56.0 123.0 C56.0 123.0 56.0 123.0 56.0 123.0 C56.0 123.0 56.0 123.0 56.0 123.0 C56.0 123.0 56.0 123.0 56.0 123.0 C56.0 123.0 56.0 123.0 56.0 123.0 C56.0 123.0 56.0 123.0 56.0 123.0 C56.0 123.0 56.0 123.0 56.0 123.0 C56.0 123.0 56.0 123.0 56.0 123.0 C56.0 123.0 56.0 123.0 56.0 123.0 C56.0 123.0 56.0 123.0 56.0 123.0 C56.0 123.0 56.0 123.0 56.0 123.0 C56.0 123.0 56.0 123.0 56.0 123.0 C56.0 123.0 56.0 123.0 56.0 123.0 C56.0 123.0 56.0 123.0 56.0 123.0 C56.0 123.0 56.0 123.0 56.0 123.0 C56.0 123.0 56.0 123.0 56.0 123.0 C56.0 123.0 56.0 123.0 56.0 123.0 C56.0 123.0 56.0 123.0 56.0 123.0 C56.0 123.0 56.0 123.0 56.0 123.0 C56.0 123.0 56.0 123.0 56.0 123.0 C56.0 123.0 56.0 123.0 56.0 123.0 C56.0 123.0 56.0 123.0 56.0 123.0 C56.0 123.0 56.0 123.0 56.0 123.0 C56.0 123.0 56.0 123.0 56.0 123.0 C56.0 123.0 56.0 123.0 56.0 123.0 C56.0 123.0 56.0 123.0 56.0 123.0 C56.0 123.0 56.0 123.0 56.0 123.0 C56.0 123.0 56.0 123.0 56.0 123.0 C56.0 123.0 56.0 123.0 56.0 123.0 C56.0 123.0 56.0 123.0 56.0 123.0 C56.0 123.0 56.0 123.0 56.0 123.0 C56.0 123.0 56.0 123.0 56.0 123.0 C56.0 123.0 56.0 123.0 56.0 123.0 C56.0 123.0 56.0 123.0 56.0 123.0 C56.0 123.0 56.0 123.0 56.0 123.0 C56.0 123.0 56.0 123.0 56.0 123.0 C56.0 123.0 56.0 123.0 56.0 123.0 C56.0 123.0 56.0 123.0 56.0 123.0 C56.0 123.0 56.0 123.0 56.0 123.0 C56.0 123.0 56.0 123.0 56.0 123.0 C56.0 123.0 56.0 123.0 56.0 123.0 C56.0 123.0 56.0 123.0 56.0 123.0 C56.0 123.0 56.0 123.0 56.0 123.0 C56.0 123.0 56.0 123.0 56.0 123.0 C56.0 123.0 56.0 123.0 56.0 123.0 C56.0 123.0 56.0 123.0 56.0 123.0 C56.0 123.0 56.0 123.0 56.0 123.0 C56.0 123.0 56.0 123.0 56.0 123.0 C56.0 123.0 56.0 123.0 56.0 123.0 C56.0 123.0 56.0 123.0 56.0 123.0 C56.0 123.0 56.0 123.0 56.0 123.0 C56.0 123.0 56.0 123.0 56.0 123.0 C56.0 123.0 56.0 123.0 56.0 123.0 C56.0 123.0 56.0 123.0 56.0 123.0 C56.0 123.0 56.0 123.0 56.0 123.0 C56.0 123.0 56.0 123.0 56.0 123.0 C56.0 123.0 56.0 123.0 56.0 123.0 C56.0 123.0 56.0 123.0 56.0 123.0 C56.0 123.0 56.0 123.0 56.0 123.0 C56.0 123.0 56.0 123.0 56.0 123.0 C56.0 123.0 56.0 123.0 56.0 123.0 C56.0 123.0 56.0 123.0 56.0 123.0 C56.0 123.0 56.0 123.0 56.0 123.0 C56.0 123.0 56.0 123.0 56.0 123.0 C56.0 123.0 56.0 123.0 56.0 123.0 C56.0 123.0 56.0 123.0 56.0 123.0 C56.0 123.0 56.0 123.0 56.0 123.0 C56.0 123.0 56.0 123.0 56.0 123.0 C56.0 123.0 56.0 123.0 56.0 123.0 C56.0 123.0 56.0 123.0 56.0 123.0 C56.0 123.0 56.0 123.0 56.0 123.0 C56.0 123.0 56.0 123.0 56.0 123.0 C56.0 123.0 56.0 123.0 56.0 123.0 C56.0 123.0 56.0 123.0 56.0 123.0 C56.0 123.0 56.0 123.0 56.0 123.0 C56.0 123.0 56.0 123.0 56.0 123.0 C56.0 123.0 56.0 123.0 56.0 123.0 C56.0 123.0 56.0 123.0 56.0 123.0 C56.0 123.0 56.0 123.0 56.0 123.0 C56.0 123.0 56.0 123.0 56.0 123.0 C56.0 123.0 56.0 123.0 56.0 123.0 C56.0 123.0 56.0 123.0 56.0 123.0 C56.0 123.0 56.0 123.0 56.0 123.0 C56.0 123.0 56.0 123.0 56.0 123.0 C56.0 123.0 56.0 123.0 56.0 123.0 C56.0 123.0 56.0 123.0 56.0 123.0 C56.0 123.0 56.0 123.0 56.0 123.0 C56.0 123.0 56.0 123.0 56.0 123.0 C56.0 123.0 56.0 123.0 56.0 123.0 C56.0 123.0 56.0 123.0 56.0 123.0 C56.0 123.0 56.0 123.0 56.0 123.0 C56.0 123.0 56.0 123.0 56.0 123.0 C56.0 123.0 56.0 123.0 56.0 123.0 C56.0 123.0 56.0 123.0 56.0 123.0 C56.0 123.0 56.0 123.0 56.0 123.0 C56.0 123.0 56.0 123.0 56.0 123.0 C56.0 123.0 56.0 123.0 56.0 123.0 C56.0 123.0 56.0 123.0 56.0 123.0 C56.0 123.0 56.0 123.0 56.0 123.0 C56.0 123.0 56.0 123.0 56.0 123.0 C56.0 123.0 56.0 123.0 56.0 123.0 C56.0 123.0 56.0 123.0 56.0 123.0 C56.0 123.0 56.0 123.0 56.0 123.0 C56.0 123.0 56.0 123.0 56.0 123.0 C56.0 123.0 56.0 123.0 56.0 123.0 C56.0 123.0 56.0 123.0 56.0 123.0 C56.0 123.0 56.0 123.0 56.0 123.0 C56.0 123.0 56.0 123.0 56.0 123.0 C56.0 123.0 56.0 123.0 56.0 123.0 C56.0 123.0 56.0 123.0 56.0 123.0 C56.0 123.0 56.0 123.0 56.0 123.0 C56.0 123.0 56.0 123.0 56.0 123.0 C56.0 123.0 56.0 123.0 56.0 123.0 C56.0 123.0 56.0 123.0 56.0 123.0 C56.0 123.0 56.0 123.0 56.0 123.0 C56.0 123.0 56.0 123.0 56.0 123.0 C56.0 123.0 56.0 123.0 56.0 123.0 C56.0 123.0 56.0 123.0 56.0 123.0 C56.0 123.0 56.0 123.0 56.0 123.0 C56.0 123.0 56.0 123.0 56.0 123.0 C56.0 123.0 56.0 123.0 56.0 123.0 C56.0 123.0 56.0 123.0 56.0 123.0 C56.0 123.0 56.0 123.0 56.0 123.0 C56.0 123.0 56.0 123.0 56.0 123.0 C56.0 123.0 56.0 123.0 56.0 123.0 C56.0 123.0 56.0 123.0 56.0 123.0 C56.0 123.0 56.0 123.0 56.0 123.0 C56.0 123.0 56.0 123.0 56.0 123.0 C56.0 123.0 56.0 123.0 56.0 123.0 C56.0 123.0 56.0 123.0 56.0 123.0 C56.0 123.0 56.0 123.0 56.0 123.0 C56.0 123.0 56.0 123.0 56.0 123.0 C56.0 123.0 56.0 123.0 56.0 123.0 C56.0 123.0 56.0 123.0 56.0 123.0 C56.0 123.0 56.0 123.0 56.0 123.0 C56.0 123.0 56.0 123.0 56.0 123.0 C56.0 123.0 56.0 123.0 56.0 123.0 C56.0 123.0 56.0 123.0 56.0 123.0 C56.0 123.0 56.0 123.0 56.0 123.0 C56.0 123.0 56.0 123.0 56.0 123.0 C56.0 123.0 56.0 123.0 56.0 123.0 C56.0 123.0 56.0 123.0 56.0 123.0 C56.0 123.0 56.0 123.0 56.0 123.0 C56.0 123.0 56.0 123.0 56.0 123.0 C56.0 123.0 56.0 123.0 56.0 123.0 C56.0 123.0 56.0 123.0 56.0 123.0 C56.0 123.0 56.0 123.0 56.0 123.0 C56.0 123.0 56.0 123.0 56.0 123.0 C56.0 123.0 56.0 123.0 56.0 123.0 C56.0 123.0 56.0 123.0 56.0 123.0 C56.0 123.0 56.0 123.0 56.0 123.0 C56.0 123.0 56.0 123.0 56.0 123.0 C56.0 123.0 56.0 123.0 56.0 123.0 C56.0 123.0 56.0 123.0 56.0 123.0 C56.0 123.0 56.0 123.0 56.0 123.0 C56.0 123.0 56.0 123.0 56.0 123.0 C56.0 123.0 56.0 123.0 56.0 123.0 C56.0 123.0 56.0 123.0 56.0 123.0 C56.0 123.0 56.0 123.0 56.0 123.0 C56.0 123.0 56.0 123.0 56.0 123.0 C56.0 123.0 56.0 123.0 56.0 123.0 C56.0 123.0 56.0 123.0 56.0 123.0 C56.0 123.0 56.0 123.0 56.0 123.0 C56.0 123.0 56.0 123.0 56.0 123.0 C56.0 123.0 56.0 123.0 56.0 123.0 C56.0 123.0 56.0 123.0 56.0 123.0 C56.0 123.0 56.0 123.0 56.0 123.0 C56.0 123.0 56.0 123.0 56.0 123.0 C56.0 123.0 56.0 123.0 56.0 123.0 C56.0 123.0 56.0 123.0 56.0 123.0 C56.0 123.0 56.0 123.0 56.0 123.0 C56.0 123.0 56.0 123.0 56.0 123.0 C56.0 123.0 56.0 123.0 56.0 123.0 C56.0 123.0 56.0 123.0 56.0 123.0 C56.0 123.0 56.0 123.0 56.0 123.0 C56.0 123.0 56.0 123.0 56.0 123.0 C56.0 123.0 56.0 123.0 56.0 123.0 C56.0 123.0 56.0 123.0 56.0 123.0 C56.0 123.0 56.0 123.0 56.0 123.0 C56.0 123.0 56.0 123.0 56.0 123.0 C56.0 123.0 56.0 123.0 56.0 123.0 C56.0 123.0 56.0 123.0 56.0 123.0 C56.0 123.0 56.0 123.0 56.0 123.0 C56.0 123.0 56.0 123.0 56.0 123.0 C56.0 123.0 56.0 123.0 56.0 123.0 C56.0 123.0 56.0 123.0 56.0 123.0 C56.0 123.0 56.0 123.0 56.0 123.0 C56.0 123.0 56.0 123.0 56.0 123.0 C56.0 123.0 56.0 123.0 56.0 123.0 C56.0 123.0 56.0 123.0 56.0 123.0 C56.0 123.0 56.0 123.0 56.0 123.0 C56.0 123.0 56.0 123.0 56.0 123.0 C56.0 123.0 56.0 123.0 56.0 123.0 C56.0 123.0 56.0 123.0 56.0 123.0 C56.0 123.0 56.0 123.0 56.0 123.0 C56.0 123.0 56.0 123.0 56.0 123.0 C56.0 123.0 56.0 123.0 56.0 123.0 C56.0 123.0 56.0 123.0 56.0 123.0 C56.0 123.0 56.0 123.0 56.0 123.0 C56.0 123.0 56.0 123.0 56.0 123.0 C56.0 123.0 56.0 123.0 56.0 123.0 C56.0 123.0 56.0 123.0 56.0 123.0 C56.0 123.0 56.0 123.0 56.0 123.0 C56.0 123.0 56.0 123.0 56.0 123.0 C56.0 123.0 56.0 123.0 56.0 123.0 C56.0 123.0 56.0 123.0 56.0 123.0 C56.0 123.0 56.0 123.0 56.0 123.0 C56.0 123.0 56.0 123.0 56.0 123.0 C56.0 123.0 56.0 123.0 56.0 123.0 C56.0 123.0 56.0 123.0 56.0 123.0 C56.0 123.0 56.0 123.0 56.0 123.0 C56.0 123.0 56.0 123.0 56.0 123.0 C56.0 123.0 56.0 123.0 56.0 123.0 C56.0 123.0 56.0 123.0 56.0 123.0 C56.0 123.0 56.0 123.0 56.0 123.0 C56.0 123.0 56.0 123.0 56.0 123.0 C56.0 123.0 56.0 123.0 56.0 123.0 C56.0 123.0 56.0 123.0 56.0 123.0 C56.0 123.0 56.0 123.0 56.0 123.0 C56.0 123.0 56.0 123.0 56.0 123.0 C56.0 123.0 56.0 123.0 56.0 123.0 C56.0 123.0 56.0 123.0 56.0 123.0 C56.0 123.0 56.0 123.0 56.0 123.0 C56.0 123.0 56.0 123.0 56.0 123.0 C56.0 123.0 56.0 123.0 56.0 123.0 C56.0 123.0 56.0 123.0 56.0 123.0 C56.0 123.0 56.0 123.0 56.0 123.0 C56.0 123.0 56.0 123.0 56.0 123.0 C56.0 123.0 56.0 123.0 56.0 123.0 C56.0 123.0 56.0 123.0 56.0 123.0 C56.0 123.0 56.0 123.0 56.0 123.0 C56.0 123.0 56.0 123.0 56.0 123.0 C56.0 123.0 56.0 123.0 56.0 123.0 C56.0 123.0 56.0 123.0 56.0 123.0 C56.0 123.0 56.0 123.0 56.0 123.0 C56.0 123.0 56.0 123.0 56.0 123.0 C56.0 123.0 56.0 123.0 56.0 123.0 C56.0 123.0 56.0 123.0 56.0 123.0 C56.0 123.0 56.0 123.0 56.0 123.0 C56.0 123.0 56.0 123.0 56.0 123.0 C56.0 123.0 56.0 123.0 56.0 123.0 C56.0 123.0 56.0 123.0 56.0 123.0 C56.0 123.0 56.0 123.0 56.0 123.0 C56.0 123.0 56.0 123.0 56.0 123.0 C56.0 123.0 56.0 123.0 56.0 123.0 C56.0 123.0 56.0 123.0 56.0 123.0 C56.0 123.0 56.0 123.0 56.0 123.0 C56.0 123.0 56.0 123.0 56.0 123.0 C56.0 123.0 56.0 123.0 56.0 123.0 C56.0 123.0 56.0 123.0 56.0 123.0 C56.0 123.0 56.0 123.0 56.0 123.0 C56.0 123.0 56.0 123.0 56.0 123.0 C56.0 123.0 56.0 123.0 56.0 123.0 C56.0 123.0 56.0 123.0 56.0 123.0 C56.0 123.0 56.0 123.0 56.0 123.0 C56.0 123.0 56.0 123.0 56.0 123.0 C56.0 123.0 56.0 123.0 56.0 123.0 C56.0 123.0 56.0 123.0 56.0 123.0 C56.0 123.0 56.0 123.0 56.0 123.0 C56.0 123.0 56.0 123.0 56.0 123.0 C56.0 123.0 56.0 123.0 56.0 123.0 C56.0 123.0 56.0 123.0 56.0 123.0 C56.0 123.0 56.0 123.0 56.0 123.0 C56.0 123.0 56.0 123.0 56.0 123.0"></path></svg>