<svg xmlns="http://www.w3.org/2000/svg" viewBox="0.0 0.0 200.0 200.0" height="200px" width="200px"><path fill="#ffbb00" fill-opacity="1.0"  filling="0" d="M134.0 58.0 C134.0 58.0 134.0 58.0 134.0 58.0 C132.0 57.0 107.0 58.0 92.0 85.0 C78.0 108.0 92.0 142.0 120.0 141.0 C151.0 140.0 157.0 113.0 157.0 112.0 C156.0 111.0 156.0 111.0 156.0 111.0 C155.0 111.0 155.0 111.0 155.0 111.0 C155.0 111.0 124.0 119.0 120.0 83.0 C119.0 67.0 133.0 59.0 133.0 58.0 C133.0 58.0 133.0 58.0 134.0 58.0 L134.0 58.0 Z"></path>
<path fill="#000000" fill-opacity="1.0"  filling="0" d="M122.0 143.0 L122.0 143.0 C112.0 143.0 104.0 139.0 98.0 132.0 C93.0 127.0 90.0 121.0 88.0 114.0 C86.0 107.0 86.0 99.0 89.0 92.0 C91.0 89.0 92.0 86.0 94.0 83.0 C101.0 74.0 109.0 67.0 118.0 62.0 C125.0 59.0 131.0 57.0 133.0 56.0 C133.0 56.0 134.0 56.0 134.0 56.0 L134.0 56.0 C135.0 56.0 136.0 57.0 136.0 58.0 L136.0 58.0 C137.0 59.0 136.0 60.0 135.0 61.0 C135.0 61.0 135.0 61.0 135.0 61.0 C135.0 61.0 132.0 63.0 128.0 67.0 C125.0 72.0 122.0 77.0 123.0 84.0 C124.0 94.0 126.0 102.0 131.0 107.0 C137.0 113.0 145.0 113.0 150.0 112.0 C153.0 112.0 155.0 111.0 155.0 111.0 C155.0 110.0 155.0 110.0 155.0 110.0 L156.0 110.0 C156.0 110.0 157.0 110.0 157.0 110.0 C158.0 110.0 159.0 111.0 159.0 112.0 C159.0 113.0 159.0 118.0 156.0 123.0 C154.0 128.0 151.0 132.0 147.0 136.0 C141.0 141.0 133.0 143.0 122.0 143.0 L122.0 143.0 Z M130.0 61.0 C128.0 62.0 124.0 64.0 121.0 66.0 C112.0 71.0 104.0 77.0 98.0 85.0 C96.0 88.0 94.0 91.0 93.0 94.0 C91.0 106.0 93.0 121.0 101.0 129.0 C106.0 135.0 113.0 137.0 122.0 137.0 L122.0 137.0 C137.0 137.0 147.0 131.0 151.0 121.0 C152.0 120.0 152.0 119.0 153.0 118.0 C151.0 118.0 149.0 118.0 145.0 118.0 C139.0 117.0 133.0 115.0 128.0 110.0 C122.0 104.0 119.0 95.0 117.0 84.0 C117.0 78.0 119.0 71.0 124.0 65.0 C126.0 64.0 128.0 62.0 130.0 61.0 L130.0 61.0 Z"></path>
<path fill="#ffbb00" fill-opacity="1.0"  filling="0" d="M134.0 58.0 C134.0 58.0 134.0 58.0 134.0 58.0 C132.0 57.0 107.0 58.0 92.0 85.0 C78.0 108.0 92.0 142.0 120.0 141.0 C151.0 140.0 157.0 113.0 157.0 112.0 C156.0 111.0 156.0 111.0 156.0 111.0 C155.0 111.0 155.0 111.0 155.0 111.0 C155.0 111.0 124.0 119.0 120.0 83.0 C119.0 67.0 133.0 59.0 133.0 58.0 C133.0 58.0 133.0 58.0 134.0 58.0 L134.0 58.0 Z"></path>
<path fill="#000000" fill-opacity="1.0"  filling="0" d="M122.0 143.0 L122.0 143.0 C112.0 143.0 104.0 139.0 98.0 132.0 C93.0 127.0 90.0 121.0 88.0 114.0 C86.0 107.0 86.0 99.0 89.0 92.0 C91.0 89.0 92.0 86.0 94.0 83.0 C101.0 74.0 109.0 67.0 118.0 62.0 C125.0 59.0 131.0 57.0 133.0 56.0 C133.0 56.0 134.0 56.0 134.0 56.0 L134.0 56.0 C135.0 56.0 136.0 57.0 136.0 58.0 L136.0 58.0 C137.0 59.0 136.0 60.0 135.0 61.0 C135.0 61.0 135.0 61.0 135.0 61.0 C135.0 61.0 132.0 63.0 128.0 67.0 C125.0 72.0 122.0 77.0 123.0 84.0 C124.0 94.0 126.0 102.0 131.0 107.0 C137.0 113.0 145.0 113.0 150.0 112.0 C153.0 112.0 155.0 111.0 155.0 111.0 C155.0 110.0 155.0 110.0 155.0 110.0 L156.0 110.0 C156.0 110.0 157.0 110.0 157.0 110.0 C158.0 110.0 159.0 111.0 159.0 112.0 C159.0 113.0 159.0 118.0 156.0 123.0 C154.0 128.0 151.0 132.0 147.0 136.0 C141.0 141.0 133.0 143.0 122.0 143.0 L122.0 143.0 Z M130.0 61.0 C128.0 62.0 124.0 64.0 121.0 66.0 C112.0 71.0 104.0 77.0 98.0 85.0 C96.0 88.0 94.0 91.0 93.0 94.0 C91.0 106.0 93.0 121.0 101.0 129.0 C106.0 135.0 113.0 137.0 122.0 137.0 L122.0 137.0 C137.0 137.0 147.0 131.0 151.0 121.0 C152.0 120.0 152.0 119.0 153.0 118.0 C151.0 118.0 149.0 118.0 145.0 118.0 C139.0 117.0 133.0 115.0 128.0 110.0 C122.0 104.0 119.0 95.0 117.0 84.0 C117.0 78.0 119.0 71.0 124.0 65.0 C126.0 64.0 128.0 62.0 130.0 61.0 L130.0 61.0 Z"></path>
<path fill="#000000" fill-opacity="1.0"  filling="0" d="M100.0 142.0 C100.0 142.0 99.0 142.0 99.0 141.0 C99.0 141.0 98.0 140.0 98.0 140.0 C98.0 140.0 98.0 140.0 98.0 140.0 C98.0 140.0 98.0 140.0 98.0 140.0 C99.0 140.0 99.0 140.0 99.0 140.0 C99.0 140.0 99.0 140.0 99.0 140.0 C99.0 140.0 99.0 140.0 99.0 140.0 C99.0 140.0 99.0 140.0 99.0 140.0 C99.0 140.0 100.0 140.0 100.0 140.0 C100.0 140.0 100.0 140.0 100.0 140.0 C100.0 140.0 100.0 140.0 100.0 140.0 C100.0 140.0 100.0 140.0 100.0 140.0 C100.0 140.0 100.0 140.0 100.0 140.0 C100.0 140.0 101.0 140.0 101.0 140.0 C101.0 140.0 101.0 140.0 101.0 140.0 C101.0 140.0 101.0 140.0 101.0 140.0 C101.0 140.0 101.0 140.0 101.0 140.0 C101.0 140.0 101.0 140.0 101.0 140.0 C101.0 140.0 101.0 140.0 101.0 140.0 C101.0 140.0 101.0 140.0 101.0 140.0 C101.0 140.0 101.0 140.0 101.0 140.0 C101.0 140.0 101.0 140.0 101.0 140.0 C101.0 140.0 101.0 140.0 101.0 140.0 C101.0 140.0 101.0 140.0 101.0 140.0 C101.0 140.0 101.0 140.0 101.0 140.0 C101.0 140.0 101.0 140.0 101.0 140.0 C101.0 140.0 101.0 140.0 101.0 140.0 C101.0 140.0 101.0 140.0 101.0 140.0 C101.0 140.0 101.0 140.0 101.0 140.0 C101.0 140.0 101.0 140.0 101.0 140.0 C101.0 140.0 101.0 140.0 101.0 140.0 C101.0 140.0 101.0 140.0 101.0 140.0 C101.0 140.0 101.0 140.0 101.0 140.0 C101.0 140.0 101.0 140.0 101.0 140.0 C101.0 140.0 101.0 140.0 101.0 140.0 C101.0 140.0 101.0 140.0 101.0 140.0 C101.0 140.0 101.0 140.0 101.0 140.0 C101.0 140.0 101.0 140.0 101.0 140.0 C101.0 140.0 101.0 140.0 101.0 140.0 C101.0 140.0 101.0 140.0 101.0 140.0 C101.0 140.0 101.0 140.0 101.0 140.0 C101.0 140.0 101.0 140.0 101.0 140.0 C101.0 140.0 101.0 140.0 101.0 140.0 C101.0 140.0 101.0 140.0 101.0 140.0 C101.0 140.0 101.0 140.0 101.0 140.0 C101.0 140.0 101.0 140.0 101.0 140.0 C101.0 140.0 101.0 140.0 101.0 140.0 C101.0 140.0 101.0 140.0 101.0 140.0 C101.0 140.0 101.0 140.0 101.0 140.0 C101.0 140.0 101.0 140.0 101.0 140.0 C101.0 140.0 101.0 140.0 101.0 140.0 C101.0 140.0 101.0 140.0 101.0 140.0 C101.0 140.0 101.0 140.0 101.0 140.0 C101.0 140.0 101.0 140.0 101.0 140.0 C101.0 140.0 101.0 140.0 101.0 140.0 C101.0 140.0 101.0 140.0 101.0 140.0 C101.0 140.0 101.0 140.0 101.0 140.0 C101.0 140.0 101.0 140.0 101.0 140.0 C101.0 140.0 101.0 140.0 101.0 140.0 C101.0 140.0 101.0 140.0 101.0 140.0 C101.0 140.0 101.0 140.0 101.0 140.0 C101.0 140.0 101.0 140.0 101.0 140.0 C101.0 140.0 101.0 140.0 101.0 140.0 C101.0 140.0 101.0 140.0 101.0 140.0 C101.0 140.0 101.0 140.0 101.0 140.0 C101.0 140.0 101.0 140.0 101.0 140.0 C101.0 140.0 101.0 140.0 101.0 140.0 C101.0 140.0 101.0 140.0 101.0 140.0 C101.0 140.0 101.0 140.0 101.0 140.0 C101.0 140.0 101.0 140.0 101.0 140.0 C101.0 140.0 101.0 140.0 101.0 140.0 C101.0 140.0 101.0 140.0 101.0 140.0 C101.0 140.0 101.0 140.0 101.0 140.0 C101.0 140.0 101.0 140.0 101.0 140.0 C101.0 140.0 101.0 140.0 101.0 140.0 C101.0 140.0 101.0 140.0 101.0 140.0 C101.0 140.0 101.0 140.0 101.0 140.0 C101.0 140.0 101.0 140.0 101.0 140.0 C101.0 140.0 101.0 140.0 101.0 140.0 C101.0 140.0 101.0 140.0 101.0 140.0 C101.0 140.0 101.0 140.0 101.0 140.0 C101.0 140.0 101.0 140.0 101.0 140.0 C101.0 140.0 101.0 140.0 101.0 140.0 C101.0 140.0 101.0 140.0 101.0 140.0 C101.0 140.0 101.0 140.0 101.0 140.0 C101.0 140.0 101.0 140.0 101.0 140.0 C101.0 140.0 101.0 140.0 101.0 140.0 C101.0 140.0 101.0 140.0 101.0 140.0 C101.0 140.0 101.0 140.0 101.0 140.0 C101.0 140.0 101.0 140.0 101.0 140.0 C101.0 140.0 101.0 140.0 101.0 140.0 C101.0 140.0 101.0 140.0 101.0 140.0 C101.0 140.0 101.0 140.0 101.0 140.0 C101.0 140.0 101.0 140.0 101.0 140.0 C101.0 140.0 101.0 140.0 101.0 140.0 C101.0 140.0 101.0 140.0 101.0 140.0 C101.0 140.0 101.0 140.0 101.0 140.0 C101.0 140.0 101.0 140.0 101.0 140.0 C101.0 140.0 101.0 140.0 101.0 140.0 C101.0 140.0 101.0 140.0 101.0 140.0 C101.0 140.0 101.0 140.0 101.0 140.0 C101.0 140.0 101.0 140.0 101.0 140.0 C101.0 140.0 101.0 140.0 101.0 140.0 C101.0 140.0 101.0 140.0 101.0 140.0 C101.0 140.0 101.0 140.0 101.0 140.0 C101.0 140.0 101.0 140.0 101.0 140.0 C101.0 140.0 101.0 140.0 101.0 140.0 C101.0 140.0 101.0 140.0 101.0 140.0 C101.0 140.0 101.0 140.0 101.0 140.0 C101.0 140.0 101.0 140.0 101.0 140.0 C101.0 140.0 101.0 140.0 101.0 140.0 C101.0 140.0 101.0 140.0 101.0 140.0 C101.0 140.0 101.0 140.0 101.0 140.0 C101.0 140.0 101.0 140.0 101.0 140.0 C101.0 140.0 101.0 140.0 101.0 140.0 C101.0 140.0 101.0 140.0 101.0 140.0 C101.0 140.0 101.0 140.0 101.0 140.0 C101.0 140.0 101.0 140.0 101.0 140.0 C101.0 140.0 101.0 140.0 101.0 140.0 C101.0 140.0 101.0 140.0 101.0 140.0 C101.0 140.0 101.0 140.0 101.0 140.0 C101.0 140.0 101.0 140.0 101.0 140.0 C101.0 140.0 101.0 140.0 101.0 140.0 C101.0 140.0 101.0 140.0 101.0 140.0 C101.0 140.0 101.0 140.0 101.0 140.0 C101.0 140.0 101.0 140.0 101.0 140.0 C101.0 140.0 101.0 140.0 101.0 140.0 C101.0 140.0 101.0 140.0 101.0 140.0 C101.0 140.0 101.0 140.0 101.0 140.0 C101.0 140.0 101.0 140.0 101.0 140.0 C101.0 140.0 101.0 140.0 101.0 140.0 C101.0 140.0 101.0 140.0 101.0 140.0 C101.0 140.0 101.0 140.0 101.0 140.0 C101.0 140.0 101.0 140.0 101.0 140.0 C101.0 140.0 101.0 140.0 101.0 140.0 C101.0 140.0 101.0 140.0 101.0 140.0 C101.0 140.0 101.0 140.0 101.0 140.0 C101.0 140.0 101.0 140.0 101.0 140.0 C101.0 140.0 101.0 140.0 101.0 140.0 C101.0 140.0 101.0 140.0 101.0 140.0 C101.0 140.0 101.0 140.0 101.0 140.0 C101.0 140.0 101.0 140.0 101.0 140.0 C101.0 140.0 101.0 140.0 101.0 140.0 C101.0 140.0 101.0 140.0 101.0 140.0 C101.0 140.0 101.0 140.0 101.0 140.0 C101.0 140.0 101.0 140.0 101.0 140.0 C101.0 140.0 101.0 140.0 101.0 140.0 C101.0 140.0 101.0 140.0 101.0 140.0 C101.0 140.0 101.0 140.0 101.0 140.0 C101.0 140.0 101.0 140.0 101.0 140.0 C101.0 140.0 101.0 140.0 101.0 140.0 C101.0 140.0 101.0 140.0 101.0 140.0 C101.0 140.0 101.0 140.0 101.0 140.0 C101.0 140.0 101.0 140.0 101.0 140.0 C101.0 140.0 101.0 140.0 101.0 140.0 C101.0 140.0 101.0 140.0 101.0 140.0 C101.0 140.0 101.0 140.0 101.0 140.0 C101.0 140.0 101.0 140.0 101.0 140.0 C101.0 140.0 101.0 140.0 101.0 140.0 C101.0 140.0 101.0 140.0 101.0 140.0 C101.0 140.0 101.0 140.0 101.0 140.0 C101.0 140.0 101.0 140.0 101.0 140.0 C101.0 140.0 101.0 140.0 101.0 140.0 C101.0 140.0 101.0 140.0 101.0 140.0 C101.0 140.0 101.0 140.0 101.0 140.0 C101.0 140.0 101.0 140.0 101.0 140.0 C101.0 140.0 101.0 140.0 101.0 140.0 C101.0 140.0 101.0 140.0 101.0 140.0 C101.0 140.0 101.0 140.0 101.0 140.0 C101.0 140.0 101.0 140.0 101.0 140.0 C101.0 140.0 101.0 140.0 101.0 140.0 C101.0 140.0 101.0 140.0 101.0 140.0 C101.0 140.0 101.0 140.0 101.0 140.0 C101.0 140.0 101.0 140.0 101.0 140.0 C101.0 140.0 101.0 140.0 101.0 140.0 C101.0 140.0 101.0 140.0 101.0 140.0 C101.0 140.0 101.0 140.0 101.0 140.0 C101.0 140.0 101.0 140.0 101.0 140.0 C101.0 140.0 101.0 140.0 101.0 140.0 C101.0 140.0 101.0 140.0 101.0 140.0 C101.0 140.0 101.0 140.0 101.0 140.0 C101.0 140.0 101.0 140.0 101.0 140.0 C101.0 140.0 101.0 140.0 101.0 140.0 C101.0 140.0 101.0 140.0 101.0 140.0 C101.0 140.0 101.0 140.0 101.0 140.0 C101.0 140.0 101.0 140.0 101.0 140.0 C101.0 140.0 101.0 140.0 101.0 140.0 C101.0 140.0 101.0 140.0 101.0 140.0 C101.0 140.0 101.0 140.0 101.0 140.0 C101.0 140.0 101.0 140.0 101.0 140.0 C101.0 140.0 101.0 140.0 101.0 140.0 C101.0 140.0 101.0 140.0 101.0 140.0 C101.0 140.0 101.0 140.0 101.0 140.0 C101.0 140.0 101.0 140.0 101.0 140.0 C101.0 140.0 101.0 140.0 101.0 140.0 C101.0 140.0 101.0 140.0 101.0 140.0 C101.0 140.0 101.0 140.0 101.0 140.0 C101.0 140.0 101.0 140.0 101.0 140.0 C101.0 140.0 101.0 140.0 101.0 140.0 C101.0 140.0 101.0 140.0 101.0 140.0 C101.0 140.0 101.0 140.0 101.0 140.0 C101.0 140.0 101.0 140.0 101.0 140.0 C101.0 140.0 101.0 140.0 101.0 140.0 C101.0 140.0 101.0 140.0 101.0 140.0 C101.0 140.0 101.0 140.0 101.0 140.0 C101.0 140.0 101.0 140.0 101.0 140.0 C101.0 140.0 101.0 140.0 101.0 140.0 C101.0 140.0 101.0 140.0 101.0 140.0 C101.0 140.0 101.0 140.0 101.0 140.0 C101.0 140.0 101.0 140.0 101.0 140.0 C101.0 140.0 101.0 140.0 101.0 140.0 C101.0 140.0 101.0 140.0 101.0 140.0 C101.0 140.0 101.0 140.0 101.0 140.0 C101.0 140.0 101.0 140.0 101.0 140.0 C101.0 140.0 101.0 140.0 101.0 140.0 C101.0 140.0 101.0 140.0 101.0 140.0 C101.0 140.0 101.0 140.0 101.0 140.0 C101.0 140.0 101.0 140.0 101.0 140.0 C101.0 140.0 101.0 140.0 101.0 140.0 C101.0 140.0 101.0 140.0 101.0 140.0 C101.0 140.0 101.0 140.0 101.0 140.0 C101.0 140.0 101.0 140.0 101.0 140.0 C101.0 140.0 101.0 140.0 101.0 140.0 C101.0 140.0 101.0 140.0 101.0 140.0 C101.0 140.0 101.0 140.0 101.0 140.0 C101.0 140.0 101.0 140.0 101.0 140.0 C101.0 140.0 101.0 140.0 101.0 140.0 C101.0 140.0 101.0 140.0 101.0 140.0 C101.0 140.0 101.0 140.0 101.0 140.0 C101.0 140.0 101.0 140.0 101.0 140.0 C101.0 140.0 101.0 140.0 101.0 140.0 C101.0 140.0 101.0 140.0 101.0 140.0 C101.0 140.0 101.0 140.0 101.0 140.0 C101.0 140.0 101.0 140.0 101.0 140.0 C101.0 140.0 101.0 140.0 101.0 140.0 C101.0 140.0 101.0 140.0 101.0 140.0 C101.0 140.0 101.0 140.0 101.0 140.0 C101.0 140.0 101.0 140.0 101.0 140.0 C101.0 140.0 101.0 140.0 101.0 140.0 C101.0 140.0 101.0 140.0 101.0 140.0 C101.0 140.0 101.0 140.0 101.0 140.0 C101.0 140.0 101.0 140.0 101.0 140.0 C101.0 140.0 101.0 140.0 101.0 140.0 C101.0 140.0 101.0 140.0 101.0 140.0 C101.0 140.0 101.0 140.0 101.0 140.0 C101.0 140.0 101.0 140.0 101.0 140.0 C101.0 140.0 101.0 140.0 101.0 140.0 C101.0 140.0 101.0 140.0 101.0 140.0 C101.0 140.0 101.0 140.0 101.0 140.0 C101.0 140.0 101.0 140.0 101.0 140.0 C101.0 140.0 101.0 140.0 101.0 140.0 C101.0 140.0 101.0 140.0 101.0 140.0 C101.0 140.0 101.0 140.0 101.0 140.0 C101.0 140.0 101.0 140.0 101.0 140.0 C101.0 140.0 101.0 140.0 101.0 140.0 C101.0 140.0 101.0 140.0 101.0 140.0 C101.0 140.0 101.0 140.0 101.0 140.0 C101.0 140.0 101.0 140.0 101.0 140.0 C101.0 140.0 101.0 140.0 101.0 140.0 C101.0 140.0 101.0 140.0 101.0 140.0 C101.0 140.0 101.0 140.0 101.0 140.0 C101.0 140.0 101.0 140.0 101.0 140.0 C101.0 140.0 101.0 140.0 101.0 140.0 C101.0 140.0 101.0 140.0 101.0 140.0 C101.0 140.0 101.0 140.0 101.0 140.0 C101.0 140.0 101.0 140.0 101.0 140.0 C101.0 140.0 101.0 140.0 101.0 140.0 C101.0 140.0 101.0 140.0 101.0 140.0 C101.0 140.0 101.0 140.0 101.0 140.0 C101.0 140.0 101.0 140.0 101.0 140.0 C101.0 140.0 101.0 140.0 101.0 140.0 C101.0 140.0 101.0 140.0 101.0 140.0 C101.0 140.0 101.0 140.0 101.0 140.0 C101.0 140.0 101.0 140.0 101.0 140.0"></path></svg>