<svg xmlns="http://www.w3.org/2000/svg" viewBox="0.0 0.0 200.0 200.0" height="200px" width="200px"><path fill="#ff9900" fill-opacity="1.0"  filling="0" d="M134.0 58.0 C134.0 58.0 134.0 58.0 134.0 58.0 C132.0 57.0 106.0 58.0 92.0 86.0 C59.0 110.0 18.0 18.0 18.0 18.0 C18.0 18.0 46.0 122.0 63.0 117.0 C137.0 117.0 130.0 60.0 134.0 58.0 L134.0 58.0 Z"></path>
<path fill="#000000" fill-opacity="1.0"  filling="0" d="M136.0 138.0 C132.0 135.0 158.0 136.0 157.0 111.0 C156.0 111.0 156.0 111.0 155.0 111.0 C155.0 111.0 155.0 111.0 154.0 111.0 C154.0 111.0 154.0 111.0 154.0 111.0 C154.0 111.0 154.0 111.0 154.0 111.0 C154.0 111.0 153.0 111.0 153.0 112.0 C153.0 112.0 153.0 112.0 153.0 112.0 C153.0 112.0 153.0 112.0 152.0 112.0 C152.0 112.0 152.0 112.0 152.0 112.0 C152.0 112.0 152.0 112.0 151.0 112.0 C151.0 112.0 151.0 112.0 151.0 112.0 C151.0 112.0 151.0 112.0 151.0 112.0 C151.0 112.0 151.0 112.0 150.0 112.0 C150.0 112.0 150.0 112.0 150.0 112.0 C150.0 112.0 150.0 112.0 150.0 112.0 C150.0 112.0 150.0 112.0 150.0 112.0 C150.0 112.0 149.0 112.0 149.0 112.0 C149.0 112.0 149.0 112.0 149.0 112.0 C149.0 112.0 149.0 112.0 149.0 112.0 C149.0 112.0 149.0 112.0 149.0 112.0 C148.0 112.0 148.0 112.0 148.0 112.0 C148.0 112.0 148.0 112.0 148.0 112.0 C148.0 112.0 148.0 112.0 148.0 112.0 C148.0 112.0 148.0 112.0 147.0 112.0 C147.0 112.0 147.0 112.0 147.0 112.0 C147.0 112.0 147.0 112.0 147.0 112.0 C147.0 112.0 147.0 112.0 147.0 112.0 C146.0 112.0 146.0 112.0 146.0 112.0 C146.0 112.0 146.0 112.0 146.0 112.0 C146.0 112.0 146.0 112.0 146.0 112.0 C146.0 112.0 146.0 112.0 145.0 112.0 C145.0 112.0 145.0 112.0 145.0 112.0 C145.0 112.0 145.0 112.0 145.0 112.0 C145.0 112.0 145.0 112.0 145.0 112.0 C144.0 112.0 144.0 112.0 144.0 112.0 C144.0 112.0 144.0 112.0 144.0 112.0 C144.0 112.0 144.0 112.0 144.0 112.0 C143.0 112.0 143.0 112.0 143.0 112.0 C143.0 112.0 143.0 112.0 143.0 112.0 C143.0 112.0 143.0 112.0 143.0 112.0 C143.0 112.0 142.0 112.0 142.0 112.0 C142.0 112.0 142.0 112.0 142.0 112.0 C142.0 112.0 142.0 112.0 142.0 112.0 C142.0 112.0 142.0 112.0 141.0 112.0 C141.0 112.0 141.0 112.0 141.0 112.0 C141.0 112.0 141.0 112.0 141.0 112.0 C141.0 112.0 141.0 112.0 140.0 112.0 C140.0 112.0 140.0 112.0 140.0 112.0 C140.0 112.0 140.0 112.0 140.0 112.0 C140.0 112.0 140.0 112.0 140.0 112.0 C139.0 112.0 139.0 112.0 139.0 112.0 C139.0 112.0 139.0 112.0 139.0 112.0 C139.0 112.0 139.0 112.0 139.0 112.0 C138.0 112.0 138.0 112.0 138.0 112.0 C138.0 112.0 138.0 112.0 138.0 112.0 C138.0 112.0 138.0 112.0 138.0 112.0 C137.0 112.0 137.0 112.0 137.0 112.0 C137.0 112.0 137.0 112.0 137.0 112.0 C137.0 112.0 137.0 112.0 136.0 112.0 C136.0 112.0 136.0 112.0 136.0 112.0 C136.0 112.0 136.0 112.0 136.0 112.0 C136.0 112.0 136.0 112.0 135.0 112.0 C135.0 112.0 135.0 112.0 135.0 112.0 C135.0 112.0 135.0 112.0 135.0 112.0 C135.0 112.0 135.0 112.0 134.0 112.0 C134.0 112.0 134.0 112.0 134.0 112.0 C134.0 112.0 134.0 112.0 134.0 112.0 C134.0 112.0 133.0 112.0 133.0 112.0 C133.0 112.0 133.0 112.0 133.0 112.0 C133.0 112.0 133.0 112.0 133.0 112.0 C133.0 112.0 133.0 112.0 132.0 112.0 C132.0 112.0 132.0 112.0 132.0 112.0 C132.0 112.0 132.0 112.0 132.0 112.0 C132.0 112.0 132.0 112.0 132.0 112.0 C131.0 112.0 131.0 112.0 131.0 112.0 C131.0 112.0 131.0 112.0 131.0 112.0 C131.0 112.0 131.0 112.0 131.0 112.0 C130.0 112.0 130.0 112.0 130.0 112.0 C130.0 112.0 130.0 112.0 130.0 112.0 C130.0 112.0 130.0 112.0 130.0 112.0 C129.0 112.0 129.0 112.0 129.0 112.0 C129.0 112.0 129.0 112.0 129.0 112.0 C129.0 112.0 129.0 112.0 129.0 112.0 C128.0 112.0 128.0 112.0 128.0 112.0 C128.0 112.0 128.0 112.0 128.0 112.0 C128.0 112.0 128.0 112.0 128.0 112.0 C127.0 112.0 127.0 112.0 127.0 112.0 C127.0 112.0 127.0 112.0 127.0 112.0 C127.0 112.0 127.0 112.0 127.0 112.0 C126.0 112.0 126.0 112.0 126.0 112.0 C126.0 112.0 126.0 112.0 126.0 112.0 C126.0 112.0 126.0 112.0 126.0 112.0 C126.0 112.0 125.0 112.0 125.0 112.0 C125.0 112.0 125.0 112.0 125.0 112.0 C125.0 112.0 125.0 112.0 125.0 112.0 C125.0 112.0 125.0 112.0 124.0 112.0 C124.0 112.0 124.0 112.0 124.0 112.0 C124.0 112.0 124.0 112.0 124.0 112.0 C124.0 112.0 124.0 112.0 124.0 112.0 C123.0 112.0 123.0 112.0 123.0 112.0 C123.0 112.0 123.0 112.0 123.0 112.0 C123.0 112.0 123.0 112.0 123.0 112.0 C123.0 112.0 122.0 112.0 122.0 112.0 C122.0 112.0 122.0 112.0 122.0 112.0 C122.0 112.0 122.0 112.0 122.0 112.0 C122.0 112.0 122.0 112.0 121.0 112.0 C121.0 112.0 121.0 112.0 121.0 112.0 C121.0 112.0 121.0 112.0 121.0 112.0 C121.0 112.0 121.0 112.0 121.0 112.0 C120.0 112.0 120.0 112.0 120.0 112.0 C120.0 112.0 120.0 112.0 120.0 112.0 C120.0 112.0 120.0 112.0 120.0 112.0 C120.0 112.0 119.0 112.0 119.0 112.0 C119.0 112.0 119.0 112.0 119.0 112.0 C119.0 112.0 119.0 112.0 119.0 112.0 C119.0 112.0 119.0 112.0 118.0 112.0 C118.0 112.0 118.0 112.0 118.0 112.0 C118.0 112.0 118.0 112.0 118.0 112.0 C118.0 112.0 118.0 112.0 118.0 112.0 C117.0 112.0 117.0 112.0 117.0 112.0 C117.0 112.0 117.0 112.0 117.0 112.0 C117.0 112.0 117.0 112.0 117.0 112.0 C116.0 112.0 116.0 112.0 116.0 112.0 C116.0 112.0 116.0 112.0 116.0 112.0 C116.0 112.0 116.0 112.0 116.0 112.0 C115.0 112.0 115.0 112.0 115.0 112.0 C115.0 112.0 115.0 112.0 115.0 112.0 C115.0 112.0 115.0 112.0 115.0 112.0 C114.0 112.0 114.0 112.0 114.0 112.0 C114.0 112.0 114.0 112.0 114.0 112.0 C114.0 112.0 114.0 112.0 114.0 112.0 C114.0 112.0 113.0 112.0 113.0 112.0 C113.0 112.0 113.0 112.0 113.0 112.0 C113.0 112.0 113.0 112.0 113.0 112.0 C113.0 112.0 113.0 112.0 112.0 112.0 C112.0 112.0 112.0 112.0 112.0 112.0 C112.0 112.0 112.0 112.0 112.0 112.0 C112.0 112.0 112.0 112.0 112.0 112.0 C111.0 112.0 111.0 112.0 111.0 112.0 C111.0 112.0 111.0 112.0 111.0 112.0 C111.0 112.0 111.0 112.0 111.0 112.0 C111.0 112.0 110.0 112.0 110.0 112.0 C110.0 112.0 110.0 112.0 110.0 112.0 C110.0 112.0 110.0 112.0 110.0 112.0 C110.0 112.0 110.0 112.0 109.0 112.0 C109.0 112.0 109.0 112.0 109.0 112.0 C109.0 112.0 109.0 112.0 109.0 112.0 C109.0 112.0 109.0 112.0 109.0 112.0 C108.0 112.0 108.0 112.0 108.0 112.0 C108.0 112.0 108.0 112.0 108.0 112.0 C108.0 112.0 108.0 112.0 108.0 112.0 C107.0 112.0 107.0 112.0 107.0 112.0 C107.0 112.0 107.0 112.0 107.0 112.0 C107.0 112.0 107.0 112.0 107.0 112.0 C106.0 112.0 106.0 112.0 106.0 112.0 C106.0 112.0 106.0 112.0 106.0 112.0 C106.0 112.0 106.0 112.0 106.0 112.0 C105.0 112.0 105.0 112.0 105.0 112.0 C105.0 112.0 105.0 112.0 105.0 112.0 C105.0 112.0 105.0 112.0 105.0 112.0 C105.0 112.0 105.0 112.0 104.0 112.0 C104.0 112.0 104.0 112.0 104.0 112.0 C104.0 112.0 104.0 112.0 104.0 112.0 C104.0 112.0 104.0 112.0 104.0 112.0 C103.0 112.0 103.0 112.0 103.0 112.0 C103.0 112.0 103.0 112.0 103.0 112.0 C103.0 112.0 103.0 112.0 103.0 112.0 C102.0 112.0 102.0 112.0 102.0 112.0 C102.0 112.0 102.0 112.0 102.0 112.0 C102.0 112.0 102.0 112.0 102.0 112.0 C101.0 112.0 101.0 112.0 101.0 112.0 C101.0 112.0 101.0 112.0 101.0 112.0 C101.0 112.0 101.0 112.0 101.0 112.0 C100.0 112.0 100.0 112.0 100.0 112.0 C100.0 112.0 100.0 112.0 100.0 112.0 C100.0 112.0 100.0 112.0 100.0 112.0 C99.0 112.0 99.0 112.0 99.0 112.0 C99.0 112.0 99.0 112.0 99.0 112.0 C99.0 112.0 99.0 112.0 99.0 112.0 C98.0 112.0 98.0 112.0 98.0 112.0 C98.0 112.0 98.0 112.0 98.0 112.0 C98.0 112.0 98.0 112.0 98.0 112.0 C98.0 112.0 97.0 112.0 97.0 112.0 C97.0 112.0 97.0 112.0 97.0 112.0 C97.0 112.0 97.0 112.0 97.0 112.0 C97.0 112.0 97.0 112.0 96.0 112.0 C96.0 112.0 96.0 112.0 96.0 112.0 C96.0 112.0 96.0 112.0 96.0 112.0 C96.0 112.0 96.0 112.0 96.0 112.0 C95.0 112.0 95.0 112.0 95.0 112.0 C95.0 112.0 95.0 112.0 95.0 112.0 C95.0 112.0 95.0 112.0 95.0 112.0 C95.0 112.0 94.0 112.0 94.0 112.0 C94.0 112.0 94.0 112.0 94.0 112.0 C94.0 112.0 94.0 112.0 94.0 112.0 C94.0 112.0 94.0 112.0 93.0 112.0 C93.0 112.0 93.0 112.0 93.0 112.0 C93.0 112.0 93.0 112.0 93.0 112.0 C93.0 112.0 93.0 112.0 93.0 112.0 C92.0 112.0 92.0 112.0 92.0 112.0 C92.0 112.0 92.0 112.0 92.0 112.0 C92.0 112.0 92.0 112.0 92.0 112.0 C92.0 112.0 91.0 112.0 91.0 112.0 C91.0 112.0 91.0 112.0 91.0 112.0 C91.0 112.0 91.0 112.0 91.0 112.0 C91.0 112.0 91.0 112.0 90.0 112.0 C90.0 112.0 90.0 112.0 90.0 112.0 C90.0 112.0 90.0 112.0 90.0 112.0 C90.0 112.0 90.0 112.0 89.0 112.0 C89.0 112.0 89.0 112.0 89.0 112.0 C89.0 112.0 89.0 112.0 89.0 112.0 C89.0 112.0 89.0 112.0 88.0 112.0 C88.0 112.0 88.0 112.0 88.0 112.0 C88.0 112.0 88.0 112.0 88.0 112.0 C88.0 112.0 88.0 112.0 88.0 112.0 C87.0 112.0 87.0 112.0 87.0 112.0 C87.0 112.0 87.0 112.0 87.0 112.0 C87.0 112.0 87.0 112.0 87.0 112.0 C86.0 112.0 86.0 112.0 86.0 112.0 C86.0 112.0 86.0 112.0 86.0 112.0 C86.0 112.0 86.0 112.0 86.0 112.0 C85.0 112.0 85.0 112.0 85.0 112.0 C85.0 112.0 85.0 112.0 85.0 112.0 C85.0 112.0 85.0 112.0 85.0 112.0 C84.0 112.0 84.0 112.0 84.0 112.0 C84.0 112.0 84.0 112.0 84.0 112.0 C84.0 112.0 84.0 112.0 84.0 112.0 C84.0 112.0 83.0 112.0 83.0 112.0 C83.0 112.0 83.0 112.0 83.0 112.0 C83.0 112.0 83.0 112.0 83.0 112.0 C83.0 112.0 83.0 112.0 82.0 112.0 C82.0 112.0 82.0 112.0 82.0 112.0 C82.0 112.0 82.0 112.0 82.0 112.0 C82.0 112.0 82.0 112.0 82.0 112.0 C81.0 112.0 81.0 112.0 81.0 112.0 C81.0 112.0 81.0 112.0 81.0 112.0 C81.0 112.0 81.0 112.0 81.0 112.0 C80.0 112.0 80.0 112.0 80.0 112.0 C80.0 112.0 80.0 112.0 80.0 112.0 C80.0 112.0 80.0 112.0 80.0 112.0 C80.0 112.0 79.0 112.0 79.0 112.0 C79.0 112.0 79.0 112.0 79.0 112.0 C79.0 112.0 79.0 112.0 79.0 112.0 C79.0 112.0 79.0 112.0 78.0 112.0 C78.0 112.0 78.0 112.0 78.0 112.0 C78.0 112.0 78.0 112.0 78.0 112.0 C78.0 112.0 78.0 112.0 78.0 112.0 C77.0 112.0 77.0 112.0 77.0 112.0 C77.0 112.0 77.0 112.0 77.0 112.0 C77.0 112.0 77.0 112.0 77.0 112.0 C77.0 112.0 76.0 112.0 76.0 112.0 C76.0 112.0 76.0 112.0 76.0 112.0 C76.0 112.0 76.0 112.0 76.0 112.0 C76.0 112.0 75.0 112.0 75.0 112.0 C75.0 112.0 75.0 112.0 75.0 112.0 C75.0 112.0 75.0 112.0 75.0 112.0 C75.0 112.0 74.0 112.0 74.0 112.0 C74.0 112.0 74.0 112.0 74.0 112.0 C74.0 112.0 74.0 112.0 74.0 112.0 C74.0 112.0 74.0 112.0 73.0 112.0 C73.0 112.0 73.0 112.0 73.0 112.0 C73.0 112.0 73.0 112.0 73.0 112.0 C73.0 112.0 73.0 112.0 72.0 112.0 C72.0 112.0 72.0 112.0 72.0 112.0 C72.0 112.0 72.0 112.0 72.0 112.0 C72.0 112.0 72.0 112.0 71.0 112.0 C71.0 112.0 71.0 112.0 71.0 112.0 C71.0 112.0 71.0 112.0 71.0 112.0 C71.0 112.0 71.0 112.0 70.0 112.0 C70.0 112.0 70.0 112.0 70.0 112.0 C70.0 112.0 70.0 112.0 70.0 112.0 C70.0 112.0 70.0 112.0 69.0 112.0 C69.0 112.0 69.0 112.0 69.0 112.0 C69.0 112.0 69.0 112.0 69.0 112.0 C69.0 112.0 69.0 112.0 68.0 112.0 C68.0 112.0 68.0 112.0 68.0 112.0 C68.0 112.0 68.0 112.0 68.0 112.0 C68.0 112.0 68.0 112.0 68.0 112.0 C67.0 112.0 67.0 112.0 67.0 112.0 C67.0 112.0 67.0 112.0 67.0 112.0 C67.0 112.0 67.0 112.0 67.0 112.0 C67.0 112.0 66.0 112.0 66.0 112.0 C66.0 112.0 66.0 112.0 66.0 112.0 C66.0 112.0 66.0 112.0 66.0 112.0 C66.0 112.0 66.0 112.0 65.0 112.0 C65.0 112.0 65.0 112.0 65.0 112.0 C65.0 112.0 65.0 112.0 65.0 112.0 C65.0 112.0 65.0 112.0 64.0 112.0 C64.0 112.0 64.0 112.0 64.0 112.0 C64.0 112.0 64.0 112.0 64.0 112.0 C64.0 112.0 64.0 112.0 64.0 112.0 C63.0 112.0 63.0 112.0 63.0 112.0 C63.0 112.0 63.0 112.0 63.0 112.0 C63.0 112.0 63.0 112.0 63.0 112.0 C63.0 112.0 62.0 112.0 62.0 112.0 C62.0 112.0 62.0 112.0 62.0 112.0 C62.0 112.0 62.0 112.0 62.0 112.0 C62.0 112.0 62.0 112.0 61.0 112.0 C61.0 112.0 61.0 112.0 61.0 112.0 C61.0 112.0 61.0 112.0 61.0 112.0 C61.0 112.0 61.0 112.0 61.0 112.0 C60.0 112.0 60.0 112.0 60.0 112.0 C60.0 112.0 60.0 112.0 60.0 112.0 C60.0 112.0 60.0 112.0 60.0 112.0 C60.0 112.0 60.0 112.0 59.0 112.0 C59.0 112.0 59.0 112.0 59.0 112.0 C59.0 112.0 59.0 112.0 59.0 112.0 C59.0 112.0 59.0 112.0 59.0 112.0 C58.0 112.0 58.0 112.0 58.0 112.0 C58.0 112.0 58.0 112.0 58.0 112.0 C58.0 112.0 58.0 112.0 58.0 112.0 C58.0 112.0 57.0 112.0 57.0 112.0 C57.0 112.0 57.0 112.0 57.0 112.0 C57.0 112.0 57.0 112.0 57.0 112.0 C57.0 112.0 57.0 112.0 56.0 112.0 C56.0 112.0 56.0 112.0 56.0 112.0 C56.0 112.0 56.0 112.0 56.0 112.0 C56.0 112.0 56.0 112.0 55.0 112.0 C55.0 112.0 55.0 112.0 55.0 112.0 C55.0 112.0 55.0 112.0 55.0 112.0 C55.0 112.0 55.0 112.0 55.0 112.0 C54.0 112.0 54.0 112.0 54.0 112.0 C54.0 112.0 54.0 112.0 54.0 112.0 C54.0 112.0 54.0 112.0 54.0 112.0 C54.0 112.0 54.0 112.0 53.0 112.0 C53.0 112.0 53.0 112.0 53.0 112.0 C53.0 112.0 53.0 112.0 53.0 112.0 C53.0 112.0 53.0 112.0 53.0 112.0 C52.0 112.0 52.0 112.0 52.0 112.0 C52.0 112.0 52.0 112.0 52.0 112.0 C52.0 112.0 52.0 112.0 52.0 112.0 C52.0 112.0 51.0 112.0 51.0 112.0 C51.0 112.0 51.0 112.0 51.0 112.0 C51.0 112.0 51.0 112.0 51.0 112.0 C51.0 112.0 51.0 112.0 50.0 112.0 C50.0 112.0 50.0 112.0 50.0 112.0 C50.0 112.0 50.0 112.0 50.0 112.0 C50.0 112.0 50.0 112.0 50.0 112.0 C49.0 112.0 49.0 112.0 49.0 112.0 C49.0 112.0 49.0 112.0 49.0 112.0 C49.0 112.0 49.0 112.0 49.0 112.0 C49.0 112.0 48.0 112.0 48.0 112.0 C48.0 112.0 48.0 112.0 48.0 112.0 C48.0 112.0 48.0 112.0 48.0 112.0 C48.0 112.0 48.0 112.0 47.0 112.0 C47.0 112.0 47.0 112.0 47.0 112.0 C47.0 112.0 47.0 112.0 47.0 112.0 C47.0 112.0 47.0 112.0 46.0 112.0 C46.0 112.0 46.0 112.0 46.0 112.0 C46.0 112.0 46.0 112.0 46.0 112.0 C46.0 112.0 46.0 112.0 45.0 112.0 C45.0 112.0 45.0 112.0 45.0 112.0 C45.0 112.0 45.0 112.0 45.0 112.0 C45.0 112.0 45.0 112.0 45.0 112.0 C44.0 112.0 44.0 112.0 44.0 112.0 C44.0 112.0 44.0 112.0 44.0 112.0 C44.0 112.0 44.0 112.0 44.0 112.0 C44.0 112.0 43.0 112.0 43.0 112.0 C43.0 112.0 43.0 112.0 43.0 112.0 C43.0 112.0 43.0 112.0 43.0 112.0 C43.0 112.0 43.0 112.0 43.0 112.0 C42.0 112.0 42.0 112.0 42.0 112.0 C42.0 112.0 42.0 112.0 42.0 112.0 C42.0 112.0 42.0 112.0 42.0 112.0 C42.0 112.0 41.0 112.0 41.0 112.0 C41.0 112.0 41.0 112.0 41.0 112.0 C41.0 112.0 41.0 112.0 41.0 112.0 C41.0 112.0 41.0 112.0 41.0 112.0 C40.0 112.0 40.0 112.0 40.0 112.0 C40.0 112.0 40.0 112.0 40.0 112.0 C40.0 112.0 40.0 112.0 40.0 112.0 C40.0 112.0 40.0 112.0 39.0 112.0 C39.0 112.0 39.0 112.0 39.0 112.0 C39.0 112.0 39.0 112.0 39.0 112.0"></path></svg>