<svg xmlns="http://www.w3.org/2000/svg" viewBox="0.0 0.0 200.0 200.0" height="200px" width="200px"><path fill="#112222" fill-opacity="1.0"  filling="0" d="M110.0 151.0 L110.0 151.0 C114.0 151.0 117.0 151.0 121.0 151.0 C123.0 151.0 125.0 151.0 126.0 151.0 C128.0 151.0 129.0 151.0 131.0 151.0 C132.0 151.0 133.0 151.0 134.0 151.0 C136.0 151.0 137.0 151.0 139.0 151.0 C140.0 151.0 140.0 151.0 140.0 151.0 C140.0 151.0 140.0 151.0 140.0 151.0 C140.0 151.0 140.0 151.0 140.0 151.0 C140.0 152.0 140.0 152.0 140.0 152.0 C140.0 153.0 140.0 153.0 140.0 154.0 C140.0 155.0 140.0 156.0 140.0 157.0 C139.0 158.0 139.0 159.0 138.0 160.0 C138.0 160.0 137.0 160.0 137.0 160.0 C134.0 160.0 132.0 160.0 130.0 160.0 C129.0 160.0 128.0 160.0 126.0 160.0 C125.0 160.0 123.0 160.0 121.0 161.0 C117.0 161.0 114.0 161.0 110.0 161.0 C109.0 161.0 107.0 161.0 106.0 161.0 C105.0 162.0 104.0 162.0 104.0 162.0 C104.0 162.0 104.0 162.0 104.0 162.0 C104.0 161.0 104.0 160.0 104.0 159.0 C104.0 158.0 104.0 157.0 104.0 156.0 C104.0 155.0 104.0 155.0 104.0 154.0 C104.0 153.0 104.0 152.0 104.0 151.0 C104.0 151.0 104.0 151.0 104.0 151.0 C105.0 151.0 106.0 151.0 107.0 151.0 C108.0 151.0 109.0 151.0 110.0 151.0 L110.0 151.0 Z"></path>
<path fill="#112222" fill-opacity="1.0"  filling="0" d="M90.0 151.0 L91.0 151.0 C92.0 151.0 93.0 151.0 94.0 151.0 C95.0 151.0 96.0 151.0 97.0 151.0 C97.0 151.0 97.0 151.0 97.0 151.0 C97.0 152.0 97.0 153.0 97.0 154.0 C97.0 155.0 97.0 155.0 97.0 156.0 C97.0 157.0 97.0 158.0 97.0 159.0 C97.0 160.0 97.0 161.0 97.0 162.0 C97.0 162.0 97.0 162.0 97.0 162.0 C96.0 162.0 95.0 162.0 94.0 161.0 C93.0 161.0 92.0 161.0 91.0 161.0 C86.0 161.0 83.0 161.0 78.0 161.0 C77.0 160.0 75.0 160.0 74.0 160.0 C72.0 160.0 71.0 160.0 69.0 160.0 C68.0 160.0 66.0 160.0 64.0 160.0 C63.0 160.0 63.0 160.0 62.0 160.0 C61.0 159.0 61.0 158.0 61.0 157.0 C60.0 156.0 60.0 155.0 60.0 154.0 C60.0 153.0 60.0 153.0 60.0 152.0 C60.0 152.0 60.0 152.0 60.0 151.0 C60.0 151.0 60.0 151.0 60.0 151.0 C60.0 151.0 61.0 151.0 61.0 151.0 C63.0 151.0 64.0 151.0 65.0 151.0 C66.0 151.0 68.0 151.0 69.0 151.0 C70.0 151.0 72.0 151.0 74.0 151.0 C75.0 151.0 77.0 151.0 78.0 151.0 C82.0 151.0 86.0 151.0 90.0 151.0 L90.0 151.0 Z"></path>
<path fill="#112222" fill-opacity="1.0"  filling="0" d="M110.0 151.0 C109.0 151.0 108.0 151.0 107.0 151.0 C106.0 151.0 105.0 151.0 104.0 151.0 C104.0 151.0 104.0 151.0 104.0 151.0 C104.0 152.0 104.0 153.0 104.0 154.0 C104.0 155.0 104.0 155.0 104.0 156.0 C104.0 157.0 104.0 158.0 104.0 159.0 C104.0 160.0 104.0 161.0 104.0 162.0 C104.0 162.0 104.0 162.0 104.0 162.0 C104.0 162.0 105.0 162.0 106.0 161.0 C107.0 161.0 109.0 161.0 110.0 161.0 C114.0 161.0 117.0 161.0 121.0 161.0 C123.0 160.0 125.0 160.0 126.0 160.0 C128.0 160.0 129.0 160.0 130.0 160.0 C132.0 160.0 134.0 160.0 137.0 160.0 C137.0 160.0 138.0 160.0 138.0 160.0 C139.0 159.0 139.0 158.0 140.0 157.0 C140.0 156.0 140.0 155.0 140.0 154.0 C140.0 153.0 140.0 153.0 140.0 152.0 C140.0 152.0 140.0 152.0 140.0 151.0 C140.0 151.0 140.0 151.0 140.0 151.0 C140.0 151.0 140.0 151.0 139.0 151.0 C137.0 151.0 136.0 151.0 134.0 151.0 C133.0 151.0 132.0 151.0 131.0 151.0 C129.0 151.0 128.0 151.0 126.0 151.0 C125.0 151.0 123.0 151.0 121.0 151.0 C117.0 151.0 114.0 151.0 110.0 151.0 L110.0 151.0 Z"></path>
<path fill="#112222" fill-opacity="1.0"  filling="0" d="M90.0 151.0 C86.0 151.0 82.0 151.0 78.0 151.0 C77.0 151.0 75.0 151.0 74.0 151.0 C72.0 151.0 70.0 151.0 69.0 151.0 C68.0 151.0 66.0 151.0 65.0 151.0 C64.0 151.0 63.0 151.0 61.0 151.0 C61.0 151.0 60.0 151.0 60.0 151.0 C60.0 151.0 60.0 151.0 60.0 151.0 C60.0 151.0 60.0 152.0 60.0 152.0 C60.0 153.0 60.0 153.0 60.0 154.0 C60.0 155.0 60.0 156.0 61.0 157.0 C61.0 158.0 61.0 159.0 62.0 160.0 C63.0 160.0 63.0 160.0 64.0 160.0 C66.0 160.0 68.0 160.0 69.0 160.0 C71.0 160.0 72.0 160.0 74.0 160.0 C75.0 160.0 77.0 160.0 78.0 161.0 C83.0 161.0 86.0 161.0 91.0 161.0 C92.0 161.0 93.0 161.0 94.0 161.0 C95.0 162.0 96.0 162.0 97.0 162.0 C97.0 162.0 97.0 162.0 97.0 162.0 C97.0 161.0 97.0 160.0 97.0 159.0 C97.0 158.0 97.0 157.0 97.0 156.0 C97.0 155.0 97.0 155.0 97.0 154.0 C97.0 153.0 97.0 152.0 97.0 151.0 C97.0 151.0 97.0 151.0 97.0 151.0 C96.0 151.0 95.0 151.0 94.0 151.0 C93.0 151.0 92.0 151.0 91.0 151.0 L90.0 151.0 L90.0 151.0 Z"></path>
<path fill="#112222" fill-opacity="1.0"  filling="0" d="M110.0 151.0 C109.0 151.0 108.0 151.0 107.0 151.0 C106.0 151.0 105.0 151.0 104.0 151.0 C104.0 151.0 104.0 151.0 104.0 151.0 C104.0 152.0 104.0 153.0 104.0 154.0 C104.0 155.0 104.0 155.0 104.0 156.0 C104.0 157.0 104.0 158.0 104.0 159.0 C104.0 160.0 104.0 161.0 104.0 162.0 C104.0 162.0 104.0 162.0 104.0 162.0 C105.0 162.0 105.0 162.0 106.0 161.0 C107.0 161.0 109.0 161.0 110.0 161.0 C114.0 161.0 117.0 161.0 121.0 161.0 C123.0 160.0 125.0 160.0 126.0 160.0 C128.0 160.0 129.0 160.0 130.0 160.0 C132.0 160.0 134.0 160.0 137.0 160.0 C137.0 160.0 138.0 160.0 138.0 160.0 C139.0 159.0 139.0 158.0 140.0 157.0 C140.0 156.0 140.0 155.0 140.0 154.0 C140.0 153.0 140.0 153.0 140.0 152.0 C140.0 152.0 140.0 152.0 140.0 151.0 C140.0 151.0 140.0 151.0 140.0 151.0 C140.0 151.0 139.0 151.0 139.0 151.0 C137.0 151.0 136.0 151.0 134.0 151.0 C133.0 151.0 132.0 151.0 131.0 151.0 C129.0 151.0 128.0 151.0 126.0 151.0 C125.0 151.0 123.0 151.0 121.0 151.0 C117.0 151.0 114.0 151.0 110.0 151.0 L110.0 151.0 Z"></path>
<path fill="#000000" fill-opacity="1.0"  filling="0" d="M110.0 151.0 C110.0 151.0 109.0 151.0 109.0 151.0 C109.0 151.0 109.0 151.0 109.0 151.0 C109.0 151.0 109.0 151.0 109.0 151.0 C109.0 151.0 109.0 151.0 109.0 151.0 C109.0 151.0 109.0 151.0 109.0 151.0 C109.0 151.0 109.0 151.0 109.0 151.0 C109.0 151.0 109.0 151.0 109.0 151.0 C109.0 151.0 109.0 151.0 109.0 151.0 C109.0 151.0 109.0 151.0 109.0 151.0 C109.0 151.0 109.0 151.0 109.0 151.0 C109.0 151.0 109.0 151.0 109.0 151.0 C109.0 151.0 109.0 151.0 109.0 151.0 C109.0 151.0 109.0 151.0 109.0 151.0 C109.0 151.0 109.0 151.0 109.0 151.0 C109.0 151.0 109.0 151.0 109.0 151.0 C109.0 151.0 109.0 151.0 109.0 151.0 C109.0 151.0 109.0 151.0 109.0 151.0 C109.0 151.0 109.0 151.0 109.0 151.0 C109.0 151.0 109.0 151.0 109.0 151.0 C109.0 151.0 109.0 151.0 109.0 151.0 C109.0 151.0 109.0 151.0 109.0 151.0 C109.0 151.0 109.0 151.0 109.0 151.0 C109.0 151.0 109.0 151.0 109.0 151.0 C109.0 151.0 109.0 151.0 109.0 151.0 C109.0 151.0 109.0 151.0 109.0 151.0 C109.0 151.0 109.0 151.0 109.0 151.0 C109.0 151.0 109.0 151.0 109.0 151.0 C109.0 151.0 109.0 151.0 109.0 151.0 C109.0 151.0 109.0 151.0 109.0 151.0 C109.0 151.0 109.0 151.0 109.0 151.0 C109.0 151.0 109.0 151.0 109.0 151.0 C109.0 151.0 109.0 151.0 109.0 151.0 C109.0 151.0 109.0 151.0 109.0 151.0 C109.0 151.0 109.0 151.0 109.0 151.0 C109.0 151.0 109.0 151.0 109.0 151.0 C109.0 151.0 109.0 151.0 109.0 151.0 C109.0 151.0 109.0 151.0 109.0 151.0 C109.0 151.0 109.0 151.0 109.0 151.0 C109.0 151.0 109.0 151.0 109.0 151.0 C109.0 151.0 109.0 151.0 109.0 151.0 C109.0 151.0 109.0 151.0 109.0 151.0 C109.0 151.0 109.0 151.0 109.0 151.0 C109.0 151.0 109.0 151.0 109.0 151.0 C109.0 151.0 109.0 151.0 109.0 151.0 C109.0 151.0 109.0 151.0 109.0 151.0 C109.0 151.0 109.0 151.0 109.0 151.0 C109.0 151.0 109.0 151.0 109.0 151.0 C109.0 151.0 109.0 151.0 109.0 151.0 C109.0 151.0 109.0 151.0 109.0 151.0 C109.0 151.0 109.0 151.0 109.0 151.0 C109.0 151.0 109.0 151.0 109.0 151.0 C109.0 151.0 109.0 151.0 109.0 151.0 C109.0 151.0 109.0 151.0 109.0 151.0 C109.0 151.0 109.0 151.0 109.0 151.0 C109.0 151.0 109.0 151.0 109.0 151.0 C109.0 151.0 109.0 151.0 109.0 151.0 C109.0 151.0 109.0 151.0 109.0 151.0 C109.0 151.0 109.0 151.0 109.0 151.0 C109.0 151.0 109.0 151.0 109.0 151.0 C109.0 151.0 109.0 151.0 109.0 151.0 C109.0 151.0 109.0 151.0 109.0 151.0 C109.0 151.0 109.0 151.0 109.0 151.0 C109.0 151.0 109.0 151.0 109.0 151.0 C109.0 151.0 109.0 151.0 109.0 151.0 C109.0 151.0 109.0 151.0 109.0 151.0 C109.0 151.0 109.0 151.0 109.0 151.0 C109.0 151.0 109.0 151.0 109.0 151.0 C109.0 151.0 109.0 151.0 109.0 151.0 C109.0 151.0 109.0 151.0 109.0 151.0 C109.0 151.0 109.0 151.0 109.0 151.0 C109.0 151.0 109.0 151.0 109.0 151.0 C109.0 151.0 109.0 151.0 109.0 151.0 C109.0 151.0 109.0 151.0 109.0 151.0 C109.0 151.0 109.0 151.0 109.0 151.0 C109.0 151.0 109.0 151.0 109.0 151.0 C109.0 151.0 109.0 151.0 109.0 151.0 C109.0 151.0 109.0 151.0 109.0 151.0 C109.0 151.0 109.0 151.0 109.0 151.0 C109.0 151.0 109.0 151.0 109.0 151.0 C109.0 151.0 109.0 151.0 109.0 151.0 C109.0 151.0 109.0 151.0 109.0 151.0 C109.0 151.0 109.0 151.0 109.0 151.0 C109.0 151.0 109.0 151.0 109.0 151.0 C109.0 151.0 109.0 151.0 109.0 151.0 C109.0 151.0 109.0 151.0 109.0 151.0 C109.0 151.0 109.0 151.0 109.0 151.0 C109.0 151.0 109.0 151.0 109.0 151.0 C109.0 151.0 109.0 151.0 109.0 151.0 C109.0 151.0 109.0 151.0 109.0 151.0 C109.0 151.0 109.0 151.0 109.0 151.0 C109.0 151.0 109.0 151.0 109.0 151.0 C109.0 151.0 109.0 151.0 109.0 151.0 C109.0 151.0 109.0 151.0 109.0 151.0 C109.0 151.0 109.0 151.0 109.0 151.0 C109.0 151.0 109.0 151.0 109.0 151.0 C109.0 151.0 109.0 151.0 109.0 151.0 C109.0 151.0 109.0 151.0 109.0 151.0 C109.0 151.0 109.0 151.0 109.0 151.0 C109.0 151.0 109.0 151.0 109.0 151.0 C109.0 151.0 109.0 151.0 109.0 151.0 C109.0 151.0 109.0 151.0 109.0 151.0 C109.0 151.0 109.0 151.0 109.0 151.0 C109.0 151.0 109.0 151.0 109.0 151.0 C109.0 151.0 109.0 151.0 109.0 151.0 C109.0 151.0 109.0 151.0 109.0 151.0 C109.0 151.0 109.0 151.0 109.0 151.0 C109.0 151.0 109.0 151.0 109.0 151.0 C109.0 151.0 109.0 151.0 109.0 151.0 C109.0 151.0 109.0 151.0 109.0 151.0 C109.0 151.0 109.0 151.0 109.0 151.0 C109.0 151.0 109.0 151.0 109.0 151.0 C109.0 151.0 109.0 151.0 109.0 151.0 C109.0 151.0 109.0 151.0 109.0 151.0 C109.0 151.0 109.0 151.0 109.0 151.0 C109.0 151.0 109.0 151.0 109.0 151.0 C109.0 151.0 109.0 151.0 109.0 151.0 C109.0 151.0 109.0 151.0 109.0 151.0 C109.0 151.0 109.0 151.0 109.0 151.0 C109.0 151.0 109.0 151.0 109.0 151.0 C109.0 151.0 109.0 151.0 109.0 151.0 C109.0 151.0 109.0 151.0 109.0 151.0 C109.0 151.0 109.0 151.0 109.0 151.0 C109.0 151.0 109.0 151.0 109.0 151.0 C109.0 151.0 109.0 151.0 109.0 151.0 C109.0 151.0 109.0 151.0 109.0 151.0 C109.0 151.0 109.0 151.0 109.0 151.0 C109.0 151.0 109.0 151.0 109.0 151.0 C109.0 151.0 109.0 151.0 109.0 151.0 C109.0 151.0 109.0 151.0 109.0 151.0 C109.0 151.0 109.0 151.0 109.0 151.0 C109.0 151.0 109.0 151.0 109.0 151.0 C109.0 151.0 109.0 151.0 109.0 151.0 C109.0 151.0 109.0 151.0 109.0 151.0 C109.0 151.0 109.0 151.0 109.0 151.0 C109.0 151.0 109.0 151.0 109.0 151.0 C109.0 151.0 109.0 151.0 109.0 151.0 C109.0 151.0 109.0 151.0 109.0 151.0 C109.0 151.0 109.0 151.0 109.0 151.0 C109.0 151.0 109.0 151.0 109.0 151.0 C109.0 151.0 109.0 151.0 109.0 151.0 C109.0 151.0 109.0 151.0 109.0 151.0 C109.0 151.0 109.0 151.0 109.0 151.0 C109.0 151.0 109.0 151.0 109.0 151.0 C109.0 151.0 109.0 151.0 109.0 151.0 C109.0 151.0 109.0 151.0 109.0 151.0 C109.0 151.0 109.0 151.0 109.0 151.0 C109.0 151.0 109.0 151.0 109.0 151.0 C109.0 151.0 109.0 151.0 109.0 151.0 C109.0 151.0 109.0 151.0 109.0 151.0 C109.0 151.0 109.0 151.0 109.0 151.0 C109.0 151.0 109.0 151.0 109.0 151.0 C109.0 151.0 109.0 151.0 109.0 151.0 C109.0 151.0 109.0 151.0 109.0 151.0 C109.0 151.0 109.0 151.0 109.0 151.0 C109.0 151.0 109.0 151.0 109.0 151.0 C109.0 151.0 109.0 151.0 109.0 151.0 C109.0 151.0 109.0 151.0 109.0 151.0 C109.0 151.0 109.0 151.0 109.0 151.0 C109.0 151.0 109.0 151.0 109.0 151.0 C109.0 151.0 109.0 151.0 109.0 151.0 C109.0 151.0 109.0 151.0 109.0 151.0 C109.0 151.0 109.0 151.0 109.0 151.0 C109.0 151.0 109.0 151.0 109.0 151.0 C109.0 151.0 109.0 151.0 109.0 151.0 C109.0 151.0 109.0 151.0 109.0 151.0 C109.0 151.0 109.0 151.0 109.0 151.0 C109.0 151.0 109.0 151.0 109.0 151.0 C109.0 151.0 109.0 151.0 109.0 151.0 C109.0 151.0 109.0 151.0 109.0 151.0 C109.0 151.0 109.0 151.0 109.0 151.0 C109.0 151.0 109.0 151.0 109.0 151.0 C109.0 151.0 109.0 151.0 109.0 151.0 C109.0 151.0 109.0 151.0 109.0 151.0 C109.0 151.0 109.0 151.0 109.0 151.0 C109.0 151.0 109.0 151.0 109.0 151.0 C109.0 151.0 109.0 151.0 109.0 151.0 C109.0 151.0 109.0 151.0 109.0 151.0 C109.0 151.0 109.0 151.0 109.0 151.0 C109.0 151.0 109.0 151.0 109.0 151.0 C109.0 151.0 109.0 151.0 109.0 151.0 C109.0 151.0 109.0 151.0 109.0 151.0 C109.0 151.0 109.0 151.0 109.0 151.0 C109.0 151.0 109.0 151.0 109.0 151.0 C109.0 151.0 109.0 151.0 109.0 151.0 C109.0 151.0 109.0 151.0 109.0 151.0 C109.0 151.0 109.0 151.0 109.0 151.0 C109.0 151.0 109.0 151.0 109.0 151.0 C109.0 151.0 109.0 151.0 109.0 151.0 C109.0 151.0 109.0 151.0 109.0 151.0 C109.0 151.0 109.0 151.0 109.0 151.0 C109.0 151.0 109.0 151.0 109.0 151.0 C109.0 151.0 109.0 151.0 109.0 151.0 C109.0 151.0 109.0 151.0 109.0 151.0 C109.0 151.0 109.0 151.0 109.0 151.0 C109.0 151.0 109.0 151.0 109.0 151.0 C109.0 151.0 109.0 151.0 109.0 151.0 C109.0 151.0 109.0 151.0 109.0 151.0 C109.0 151.0 109.0 151.0 109.0 151.0 C109.0 151.0 109.0 151.0 109.0 151.0 C109.0 151.0 109.0 151.0 109.0 151.0 C109.0 151.0 109.0 151.0 109.0 151.0 C109.0 151.0 109.0 151.0 109.0 151.0 C109.0 151.0 109.0 151.0 109.0 151.0 C109.0 151.0 109.0 151.0 109.0 151.0 C109.0 151.0 109.0 151.0 109.0 151.0 C109.0 151.0 109.0 151.0 109.0 151.0 C109.0 151.0 109.0 151.0 109.0 151.0 C109.0 151.0 109.0 151.0 109.0 151.0 C109.0 151.0 109.0 151.0 109.0 151.0 C109.0 151.0 109.0 151.0 109.0 151.0 C109.0 151.0 109.0 151.0 109.0 151.0 C109.0 151.0 109.0 151.0 109.0 151.0 C109.0 151.0 109.0 151.0 109.0 151.0 C109.0 151.0 109.0 151.0 109.0 151.0 C109.0 151.0 109.0 151.0 109.0 151.0 C109.0 151.0 109.0 151.0 109.0 151.0 C109.0 151.0 109.0 151.0 109.0 151.0 C109.0 151.0 109.0 151.0 109.0 151.0 C109.0 151.0 109.0 151.0 109.0 151.0 C109.0 151.0 109.0 151.0 109.0 151.0 C109.0 151.0 109.0 151.0 109.0 151.0 C109.0 151.0 109.0 151.0 109.0 151.0 C109.0 151.0 109.0 151.0 109.0 151.0 C109.0 151.0 109.0 151.0 109.0 151.0 C109.0 151.0 109.0 151.0 109.0 151.0 C109.0 151.0 109.0 151.0 109.0 151.0 C109.0 151.0 109.0 151.0 109.0 151.0 C109.0 151.0 109.0 151.0 109.0 151.0 C109.0 151.0 109.0 151.0 109.0 151.0 C109.0 151.0 109.0 151.0 109.0 151.0 C109.0 151.0 109.0 151.0 109.0 151.0 C109.0 151.0 109.0 151.0 109.0 151.0 C109.0 151.0 109.0 151.0 109.0 151.0"></path></svg>