<svg xmlns="http://www.w3.org/2000/svg" viewBox="0.0 0.0 200.0 200.0" height="200px" width="200px"><path fill="#223344" fill-opacity="1.0"  filling="0" d="M53.0 81.0 C53.0 81.0 53.0 81.0 53.0 81.0 L46.0 81.0 C45.0 81.0 44.0 81.0 44.0 82.0 L43.0 89.0 C43.0 89.0 43.0 90.0 44.0 90.0 L51.0 90.0 C51.0 90.0 52.0 89.0 52.0 89.0 L53.0 81.0 L53.0 81.0 Z"></path>
<path fill="#223344" fill-opacity="1.0"  filling="0" d="M156.0 81.0 L150.0 81.0 C150.0 81.0 150.0 81.0 150.0 81.0 L149.0 89.0 C149.0 89.0 150.0 90.0 150.0 90.0 L156.0 90.0 C157.0 90.0 158.0 89.0 158.0 89.0 L158.0 82.0 C158.0 81.0 157.0 81.0 156.0 81.0 L156.0 81.0 Z"></path>
<path fill="#000000" fill-opacity="1.0"  filling="0" d="M50.0 150.0 C50.0 151.0 50.0 152.0 50.0 152.0 C50.0 152.0 50.0 153.0 50.0 153.0 C50.0 154.0 50.0 154.0 50.0 155.0 C50.0 155.0 50.0 156.0 50.0 156.0 C50.0 157.0 50.0 158.0 51.0 159.0 C51.0 160.0 51.0 160.0 51.0 161.0 C51.0 161.0 52.0 162.0 52.0 162.0 C52.0 163.0 52.0 163.0 52.0 164.0 C53.0 164.0 53.0 164.0 53.0 165.0 C53.0 165.0 53.0 166.0 54.0 166.0 C54.0 167.0 54.0 167.0 54.0 168.0 C54.0 168.0 54.0 168.0 54.0 168.0 C54.0 169.0 55.0 170.0 55.0 170.0 C55.0 170.0 55.0 171.0 55.0 171.0 C56.0 172.0 56.0 172.0 57.0 173.0 C57.0 173.0 57.0 173.0 57.0 173.0 C57.0 173.0 57.0 173.0 57.0 173.0 C57.0 174.0 58.0 174.0 58.0 174.0 C58.0 174.0 58.0 174.0 59.0 175.0 C59.0 175.0 59.0 175.0 60.0 175.0 C60.0 176.0 60.0 176.0 61.0 176.0 C61.0 176.0 61.0 176.0 61.0 176.0 C61.0 176.0 61.0 176.0 62.0 177.0 C62.0 177.0 62.0 177.0 62.0 177.0 C62.0 177.0 63.0 177.0 63.0 178.0 C63.0 178.0 63.0 178.0 63.0 178.0 C64.0 178.0 64.0 178.0 65.0 178.0 C65.0 179.0 65.0 179.0 66.0 179.0 C66.0 179.0 66.0 179.0 67.0 179.0 C67.0 179.0 67.0 179.0 67.0 179.0 C68.0 179.0 68.0 179.0 68.0 179.0 C68.0 179.0 69.0 179.0 69.0 179.0 C69.0 179.0 70.0 179.0 70.0 179.0 C70.0 179.0 71.0 179.0 71.0 179.0 C71.0 179.0 72.0 179.0 72.0 179.0 C72.0 179.0 73.0 179.0 73.0 179.0 C73.0 179.0 74.0 179.0 74.0 179.0 C74.0 179.0 75.0 179.0 75.0 179.0 C75.0 179.0 76.0 179.0 76.0 179.0 C76.0 179.0 77.0 179.0 77.0 179.0 C77.0 179.0 78.0 179.0 78.0 179.0 C78.0 179.0 79.0 179.0 79.0 179.0 C79.0 179.0 80.0 179.0 80.0 179.0 C80.0 179.0 81.0 179.0 81.0 179.0 C81.0 179.0 82.0 179.0 82.0 179.0 C82.0 179.0 83.0 179.0 83.0 179.0 C83.0 179.0 84.0 179.0 84.0 179.0 C85.0 179.0 85.0 179.0 85.0 179.0 C86.0 179.0 86.0 179.0 86.0 179.0 C87.0 179.0 87.0 179.0 87.0 179.0 C88.0 179.0 88.0 179.0 88.0 179.0 C89.0 179.0 89.0 179.0 89.0 179.0 C90.0 179.0 90.0 179.0 91.0 179.0 C91.0 179.0 91.0 179.0 92.0 179.0 C92.0 179.0 92.0 179.0 93.0 179.0 C93.0 179.0 94.0 179.0 94.0 179.0 C94.0 179.0 95.0 179.0 95.0 179.0 C95.0 179.0 96.0 179.0 96.0 179.0 C96.0 179.0 97.0 179.0 97.0 179.0 C97.0 179.0 98.0 179.0 98.0 179.0 C99.0 179.0 99.0 179.0 99.0 179.0 C100.0 179.0 100.0 179.0 101.0 179.0 C101.0 179.0 101.0 179.0 102.0 179.0 C102.0 179.0 103.0 179.0 103.0 179.0 C103.0 179.0 104.0 179.0 104.0 179.0 C105.0 179.0 105.0 179.0 105.0 179.0 C106.0 179.0 106.0 179.0 107.0 179.0 C107.0 179.0 107.0 179.0 107.0 179.0 C108.0 179.0 108.0 179.0 109.0 179.0 C109.0 179.0 109.0 179.0 109.0 179.0 C110.0 179.0 110.0 179.0 111.0 179.0 C111.0 179.0 111.0 179.0 112.0 179.0 C112.0 179.0 113.0 179.0 113.0 179.0 C113.0 179.0 114.0 179.0 114.0 179.0 C114.0 179.0 115.0 179.0 115.0 179.0 C115.0 179.0 116.0 179.0 116.0 179.0 C116.0 179.0 117.0 179.0 117.0 179.0 C117.0 179.0 118.0 179.0 118.0 179.0 C118.0 179.0 119.0 179.0 119.0 179.0 C119.0 179.0 120.0 179.0 120.0 179.0 C120.0 179.0 121.0 179.0 121.0 179.0 C121.0 179.0 122.0 179.0 122.0 179.0 C122.0 179.0 123.0 179.0 123.0 179.0 C123.0 179.0 124.0 179.0 124.0 179.0 C124.0 179.0 125.0 179.0 125.0 179.0 C125.0 179.0 126.0 179.0 126.0 179.0 C126.0 179.0 127.0 179.0 127.0 179.0 C127.0 179.0 128.0 179.0 128.0 179.0 C128.0 179.0 129.0 179.0 129.0 179.0 C129.0 179.0 130.0 179.0 130.0 179.0 C130.0 179.0 131.0 179.0 131.0 179.0 C131.0 179.0 132.0 179.0 132.0 179.0 C132.0 179.0 133.0 179.0 133.0 179.0 C133.0 179.0 134.0 179.0 134.0 179.0 C134.0 179.0 135.0 179.0 135.0 179.0 C135.0 179.0 136.0 179.0 136.0 179.0 C136.0 179.0 137.0 179.0 137.0 178.0 C137.0 178.0 137.0 178.0 138.0 178.0 C138.0 178.0 138.0 178.0 138.0 178.0 C139.0 178.0 139.0 178.0 139.0 178.0 C139.0 178.0 140.0 178.0 140.0 178.0 C140.0 177.0 141.0 177.0 141.0 177.0 C141.0 177.0 141.0 177.0 142.0 177.0 C142.0 176.0 142.0 176.0 143.0 176.0 C143.0 176.0 143.0 176.0 143.0 176.0 C143.0 176.0 144.0 176.0 144.0 175.0 C144.0 175.0 144.0 175.0 144.0 175.0 C145.0 175.0 145.0 174.0 145.0 174.0 C145.0 174.0 146.0 174.0 146.0 173.0 C146.0 173.0 146.0 173.0 146.0 173.0 C146.0 173.0 146.0 173.0 146.0 173.0 C146.0 172.0 147.0 172.0 147.0 172.0 C147.0 172.0 147.0 171.0 147.0 171.0 C147.0 171.0 147.0 170.0 148.0 170.0 C148.0 170.0 148.0 169.0 148.0 169.0 C148.0 168.0 148.0 168.0 149.0 168.0 C149.0 167.0 149.0 167.0 149.0 166.0 C149.0 166.0 149.0 165.0 149.0 165.0 C149.0 165.0 149.0 164.0 150.0 164.0 C150.0 163.0 150.0 163.0 150.0 162.0 C150.0 162.0 150.0 161.0 151.0 161.0 C151.0 160.0 151.0 160.0 151.0 159.0 C151.0 158.0 151.0 157.0 151.0 156.0 C151.0 156.0 151.0 155.0 151.0 155.0 C151.0 154.0 151.0 154.0 151.0 153.0 C151.0 153.0 151.0 152.0 151.0 152.0 C151.0 152.0 151.0 151.0 151.0 150.0 C151.0 149.0 151.0 148.0 151.0 147.0 C151.0 146.0 151.0 145.0 151.0 144.0 C151.0 143.0 151.0 142.0 151.0 141.0 C151.0 140.0 150.0 139.0 150.0 138.0 C150.0 137.0 150.0 136.0 150.0 135.0 C150.0 134.0 150.0 133.0 150.0 132.0 C150.0 131.0 150.0 130.0 150.0 129.0 C150.0 128.0 150.0 127.0 150.0 126.0 C150.0 125.0 150.0 124.0 150.0 122.0 C150.0 121.0 150.0 120.0 150.0 119.0 C150.0 118.0 150.0 117.0 150.0 116.0 C150.0 115.0 151.0 114.0 151.0 113.0 C151.0 112.0 151.0 111.0 151.0 110.0 C151.0 109.0 151.0 108.0 151.0 107.0 C151.0 106.0 151.0 105.0 151.0 104.0 C151.0 103.0 151.0 102.0 151.0 101.0 C151.0 100.0 151.0 99.0 151.0 98.0 C151.0 97.0 151.0 96.0 151.0 95.0 C151.0 94.0 151.0 93.0 151.0 92.0 C151.0 91.0 151.0 90.0 151.0 89.0 C151.0 88.0 151.0 87.0 151.0 86.0 C151.0 85.0 151.0 84.0 151.0 83.0 C151.0 82.0 151.0 81.0 151.0 80.0 C151.0 79.0 151.0 78.0 151.0 77.0 C151.0 76.0 151.0 75.0 151.0 74.0 C151.0 73.0 151.0 73.0 151.0 73.0 C151.0 73.0 151.0 73.0 150.0 73.0 C150.0 73.0 150.0 73.0 150.0 73.0 C150.0 73.0 150.0 73.0 150.0 73.0 C150.0 73.0 150.0 73.0 150.0 73.0 C150.0 73.0 150.0 73.0 150.0 73.0 C150.0 73.0 150.0 73.0 150.0 73.0 C150.0 73.0 150.0 73.0 150.0 73.0 C150.0 73.0 150.0 73.0 150.0 73.0 C150.0 73.0 150.0 73.0 150.0 73.0 C150.0 73.0 150.0 73.0 150.0 73.0 C150.0 73.0 150.0 73.0 150.0 73.0 C150.0 73.0 150.0 73.0 150.0 73.0 C150.0 73.0 150.0 73.0 150.0 73.0 C150.0 73.0 150.0 73.0 150.0 73.0 C150.0 73.0 150.0 73.0 150.0 73.0 C150.0 73.0 150.0 73.0 150.0 73.0 C150.0 73.0 150.0 73.0 150.0 73.0 C150.0 73.0 150.0 73.0 150.0 73.0 C150.0 73.0 150.0 73.0 150.0 73.0 C150.0 73.0 150.0 73.0 150.0 73.0 C150.0 73.0 150.0 73.0 150.0 73.0 C150.0 73.0 150.0 73.0 150.0 73.0 C150.0 73.0 150.0 73.0 150.0 73.0 C150.0 73.0 150.0 73.0 150.0 73.0 C150.0 73.0 150.0 73.0 150.0 73.0 C150.0 73.0 150.0 73.0 150.0 73.0 C150.0 73.0 150.0 73.0 150.0 73.0 C150.0 73.0 150.0 73.0 150.0 73.0 C150.0 73.0 150.0 73.0 150.0 73.0 C150.0 73.0 150.0 73.0 150.0 73.0 C150.0 73.0 150.0 73.0 150.0 73.0 C150.0 73.0 150.0 73.0 150.0 73.0 C150.0 73.0 150.0 73.0 150.0 73.0 C150.0 73.0 150.0 73.0 150.0 73.0 C150.0 73.0 150.0 73.0 150.0 73.0 C150.0 73.0 150.0 73.0 150.0 73.0 C150.0 73.0 150.0 73.0 150.0 73.0 C150.0 73.0 150.0 73.0 150.0 73.0 C150.0 73.0 150.0 73.0 150.0 73.0 C150.0 73.0 150.0 73.0 150.0 73.0 C150.0 73.0 150.0 73.0 150.0 73.0 C150.0 73.0 150.0 73.0 150.0 73.0 C150.0 73.0 150.0 73.0 150.0 73.0 C150.0 73.0 150.0 73.0 150.0 73.0 C150.0 73.0 150.0 73.0 150.0 73.0 C150.0 73.0 150.0 73.0 150.0 73.0 C150.0 73.0 150.0 73.0 150.0 73.0 C150.0 73.0 150.0 73.0 150.0 73.0 C150.0 73.0 150.0 73.0 150.0 73.0 C150.0 73.0 150.0 73.0 150.0 73.0 C150.0 73.0 150.0 73.0 150.0 73.0 C150.0 73.0 150.0 73.0 150.0 73.0 C150.0 73.0 150.0 73.0 150.0 73.0 C150.0 73.0 150.0 73.0 150.0 73.0 C150.0 73.0 150.0 73.0 150.0 73.0 C150.0 73.0 150.0 73.0 150.0 73.0 C150.0 73.0 150.0 73.0 150.0 73.0 C150.0 73.0 150.0 73.0 150.0 73.0 C150.0 73.0 150.0 73.0 150.0 73.0 C150.0 73.0 150.0 73.0 150.0 73.0 C150.0 73.0 150.0 73.0 150.0 73.0 C150.0 73.0 150.0 73.0 150.0 73.0 C150.0 73.0 150.0 73.0 150.0 73.0 C150.0 73.0 150.0 73.0 150.0 73.0 C150.0 73.0 150.0 73.0 150.0 73.0 C150.0 73.0 150.0 73.0 150.0 73.0 C150.0 73.0 150.0 73.0 150.0 73.0 C150.0 73.0 150.0 73.0 150.0 73.0 C150.0 73.0 150.0 73.0 150.0 73.0 C150.0 73.0 150.0 73.0 150.0 73.0 C150.0 73.0 150.0 73.0 150.0 73.0 C150.0 73.0 150.0 73.0 150.0 73.0 C150.0 73.0 150.0 73.0 150.0 73.0 C150.0 73.0 150.0 73.0 150.0 73.0 C150.0 73.0 150.0 73.0 150.0 73.0 C150.0 73.0 150.0 73.0 150.0 73.0 C150.0 73.0 150.0 73.0 150.0 73.0 C150.0 73.0 150.0 73.0 150.0 73.0 C150.0 73.0 150.0 73.0 150.0 73.0 C150.0 73.0 150.0 73.0 150.0 73.0 C150.0 73.0 150.0 73.0 150.0 73.0 C150.0 73.0 150.0 73.0 150.0 73.0 C150.0 73.0 150.0 73.0 150.0 73.0 C150.0 73.0 150.0 73.0 150.0 73.0 C150.0 73.0 150.0 73.0 150.0 73.0 C150.0 73.0 150.0 73.0 150.0 73.0 C150.0 73.0 150.0 73.0 150.0 73.0 C150.0 73.0 150.0 73.0 150.0 73.0 C150.0 73.0 150.0 73.0 150.0 73.0 C150.0 73.0 150.0 73.0 150.0 73.0 C150.0 73.0 150.0 73.0 150.0 73.0 C150.0 73.0 150.0 73.0 150.0 73.0 C150.0 73.0 150.0 73.0 150.0 73.0 C150.0 73.0 150.0 73.0 150.0 73.0 C150.0 73.0 150.0 73.0 150.0 73.0 C150.0 73.0 150.0 73.0 150.0 73.0 C150.0 73.0 150.0 73.0 150.0 73.0 C150.0 73.0 150.0 73.0 150.0 73.0 C150.0 73.0 150.0 73.0 150.0 73.0 C150.0 73.0 150.0 73.0 150.0 73.0 C150.0 73.0 150.0 73.0 150.0 73.0 C150.0 73.0 150.0 73.0 150.0 73.0 C150.0 73.0 150.0 73.0 150.0 73.0 C150.0 73.0 150.0 73.0 150.0 73.0 C150.0 73.0 150.0 73.0 150.0 73.0 C150.0 73.0 150.0 73.0 150.0 73.0 C150.0 73.0 150.0 73.0 150.0 73.0 C150.0 73.0 150.0 73.0 150.0 73.0 C150.0 73.0 150.0 73.0 150.0 73.0 C150.0 73.0 150.0 73.0 150.0 73.0 C150.0 73.0 150.0 73.0 150.0 73.0 C150.0 73.0 150.0 73.0 150.0 73.0 C150.0 73.0 150.0 73.0 150.0 73.0 C150.0 73.0 150.0 73.0 150.0 73.0 C150.0 73.0 150.0 73.0 150.0 73.0 C150.0 73.0 150.0 73.0 150.0 73.0 C150.0 73.0 150.0 73.0 150.0 73.0 C150.0 73.0 150.0 73.0 150.0 73.0 C150.0 73.0 150.0 73.0 150.0 73.0 C150.0 73.0 150.0 73.0 150.0 73.0 C150.0 73.0 150.0 73.0 150.0 73.0 C150.0 73.0 150.0 73.0 150.0 73.0 C150.0 73.0 150.0 73.0 150.0 73.0 C150.0 73.0 150.0 73.0 150.0 73.0 C150.0 73.0 150.0 73.0 150.0 73.0 C150.0 73.0 150.0 73.0 150.0 73.0 C150.0 73.0 150.0 73.0 150.0 73.0 C150.0 73.0 150.0 73.0 150.0 73.0 C150.0 73.0 150.0 73.0 150.0 73.0 C150.0 73.0 150.0 73.0 150.0 73.0 C150.0 73.0 150.0 73.0 150.0 73.0 C150.0 73.0 150.0 73.0 150.0 73.0 C150.0 73.0 150.0 73.0 150.0 73.0 C150.0 73.0 150.0 73.0 150.0 73.0 C150.0 73.0 150.0 73.0 150.0 73.0 C150.0 73.0 150.0 73.0 150.0 73.0 C150.0 73.0 150.0 73.0 150.0 73.0 C150.0 73.0 150.0 73.0 150.0 73.0 C150.0 73.0 150.0 73.0 150.0 73.0 C150.0 73.0 150.0 73.0 150.0 73.0 C150.0 73.0 150.0 73.0 150.0 73.0 C150.0 73.0 150.0 73.0 150.0 73.0 C150.0 73.0 150.0 73.0 150.0 73.0 C150.0 73.0 150.0 73.0 150.0 73.0 C150.0 73.0 150.0 73.0 150.0 73.0 C150.0 73.0 150.0 73.0 150.0 73.0 C150.0 73.0 150.0 73.0 150.0 73.0 C150.0 73.0 150.0 73.0 150.0 73.0 C150.0 73.0 150.0 73.0 150.0 73.0 C150.0 73.0 150.0 73.0 150.0 73.0 C150.0 73.0 150.0 73.0 150.0 73.0 C150.0 73.0 150.0 73.0 150.0 73.0 C150.0 73.0 150.0 73.0 150.0 73.0 C150.0 73.0 150.0 73.0 150.0 73.0 C150.0 73.0 150.0 73.0 150.0 73.0 C150.0 73.0 150.0 73.0 150.0 73.0 C150.0 73.0 150.0 73.0 150.0 73.0 C150.0 73.0 150.0 73.0 150.0 73.0 C150.0 73.0 150.0 73.0 150.0 73.0 C150.0 73.0 150.0 73.0 150.0 73.0 C150.0 73.0 150.0 73.0 150.0 73.0 C150.0 73.0 150.0 73.0 150.0 73.0 C150.0 73.0 150.0 73.0 150.0 73.0 C150.0 73.0 150.0 73.0 150.0 73.0 C150.0 73.0 150.0 73.0 150.0 73.0 C150.0 73.0 150.0 73.0 150.0 73.0 C150.0 73.0 150.0 73.0 150.0 73.0 C150.0 73.0 150.0 73.0 150.0 73.0 C150.0 73.0 150.0 73.0 150.0 73.0 C150.0 73.0 150.0 73.0 150.0 73.0 C150.0 73.0 150.0 73.0 150.0 73.0 C150.0 73.0 150.0 73.0 150.0 73.0 C150.0 73.0 150.0 73.0 150.0 73.0 C150.0 73.0 150.0 73.0 150.0 73.0 C150.0 73.0 150.0 73.0 150.0 73.0 C150.0 73.0 150.0 73.0 150.0 73.0 C150.0 73.0 150.0 73.0 150.0 73.0 C150.0 73.0 150.0 73.0 150.0 73.0 C150.0 73.0 150.0 73.0 150.0 73.0 C150.0 73.0 150.0 73.0 150.0 73.0 C150.0 73.0 150.0 73.0 150.0 73.0 C150.0 73.0 150.0 73.0 150.0 73.0 C150.0 73.0 150.0 73.0 150.0 73.0 C150.0 73.0 150.0 73.0 150.0 73.0 C150.0 73.0 150.0 73.0 150.0 73.0 C150.0 73.0 150.0 73.0 150.0 73.0 C150.0 73.0 150.0 73.0 150.0 73.0 C150.0 73.0 150.0 73.0 150.0 73.0 C150.0 73.0 150.0 73.0 150.0 73.0 C150.0 73.0 150.0 73.0 150.0 73.0 C150.0 73.0 150.0 73.0 150.0 73.0 C150.0 73.0 150.0 73.0 150.0 73.0 C150.0 73.0 150.0 73.0 150.0 73.0 C150.0 73.0 150.0 73.0 150.0 73.0 C150.0 73.0 150.0 73.0 150.0 73.0 C150.0 73.0 150.0 73.0 150.0 73.0 C150.0 73.0 150.0 73.0 150.0 73.0 C150.0 73.0 150.0 73.0 150.0 73.0 C150.0 73.0 150.0 73.0 150.0 73.0 C150.0 73.0 150.0 73.0 150.0 73.0 C150.0 73.0 150.0 73.0 150.0 73.0 C150.0 73.0 150.0 73.0 150.0 73.0 C150.0 73.0 150.0 73.0 150.0 73.0 C150.0 73.0 150.0 73.0 150.0 73.0 C150.0 73.0 150.0 73.0 150.0 73.0 C150.0 73.0 150.0 73.0 150.0 73.0 C150.0 73.0 150.0 73.0 150.0 73.0 C150.0 73.0 150.0 73.0 150.0 73.0 C150.0 73.0 150.0 73.0 150.0 73.0 C150.0 73.0 150.0 73.0 150.0 73.0"></path></svg>