<svg xmlns="http://www.w3.org/2000/svg" viewBox="0.0 0.0 200.0 200.0" height="200px" width="200px"><path fill="#223344" fill-opacity="1.0"  filling="0" d="M53.0 81.0 L45.0 81.0 C45.0 81.0 44.0 82.0 44.0 82.0 L44.0 111.0 C44.0 111.0 44.0 112.0 45.0 112.0 L51.0 112.0 C51.0 112.0 51.0 111.0 51.0 111.0 L53.0 82.0 C53.0 81.0 53.0 81.0 53.0 81.0"></path>
<path fill="#223344" fill-opacity="1.0"  filling="0" d="M156.0 81.0 L150.0 81.0 C150.0 81.0 149.0 82.0 149.0 82.0 L148.0 111.0 C148.0 111.0 149.0 112.0 149.0 112.0 L155.0 112.0 C156.0 112.0 157.0 111.0 157.0 111.0 L158.0 82.0 C158.0 81.0 157.0 81.0 156.0 81.0"></path>
<path fill="#eeeeee" fill-opacity="1.0"  filling="0" d="M100.0 12.0 C70.0 12.0 49.0 33.0 48.0 71.0 C48.0 74.0 51.0 73.0 52.0 73.0 L150.0 73.0 C151.0 73.0 152.0 74.0 152.0 71.0 C151.0 33.0 130.0 12.0 100.0 12.0"></path>
<path fill="#eeeeff" fill-opacity="1.0"  filling="0" d="M100.0 54.0 C71.0 54.0 48.0 71.0 48.0 71.0 C48.0 73.0 49.0 74.0 50.0 74.0 L150.0 74.0 C151.0 74.0 152.0 73.0 152.0 71.0 C152.0 71.0 129.0 54.0 100.0 54.0"></path>
<path fill="#eeeeff" fill-opacity="1.0"  filling="0" d="M100.0 54.0 C71.0 54.0 48.0 71.0 48.0 71.0 C48.0 73.0 49.0 74.0 50.0 74.0 L150.0 74.0 C151.0 74.0 152.0 73.0 152.0 71.0 C152.0 71.0 129.0 54.0 100.0 54.0"></path>
<path fill="#aabbbb" fill-opacity="1.0"  filling="0" d="M93.0 96.0 C93.0 96.0 93.0 96.0 93.0 96.0 L93.0 96.0 C93.0 96.0 93.0 96.0 93.0 96.0"></path>
<path fill="#aabbbb" fill-opacity="1.0"  filling="0" d="M93.0 96.0 L93.0 96.0 C93.0 96.0 93.0 96.0 93.0 96.0 C93.0 96.0 93.0 96.0 93.0 96.0"></path>
<path fill="#aabbbb" fill-opacity="1.0"  filling="0" d="M152.0 89.0 C152.0 89.0 152.0 89.0 152.0 89.0 L152.0 89.0 C152.0 89.0 152.0 89.0 152.0 89.0"></path>
<path fill="#aabbbb" fill-opacity="1.0"  filling="0" d="M152.0 89.0 L152.0 89.0 C152.0 89.0 152.0 89.0 152.0 89.0 C152.0 89.0 152.0 89.0 152.0 89.0"></path>
<path fill="#aabbbb" fill-opacity="1.0"  filling="0" d="M152.0 89.0 C152.0 89.0 152.0 89.0 152.0 89.0 L152.0 89.0 C152.0 89.0 152.0 89.0 152.0 89.0"></path>
<path fill="#aabbbb" fill-opacity="1.0"  filling="0" d="M152.0 89.0 L152.0 89.0 C152.0 89.0 152.0 89.0 152.0 89.0 C152.0 89.0 152.0 89.0 152.0 89.0"></path>
<path fill="#aabbbb" fill-opacity="1.0"  filling="0" d="M152.0 89.0 C152.0 89.0 152.0 89.0 152.0 89.0 L152.0 89.0 C152.0 89.0 152.0 89.0 152.0 89.0"></path>
<path fill="#aabbbb" fill-opacity="1.0"  filling="0" d="M152.0 89.0 L152.0 89.0 C152.0 89.0 152.0 89.0 152.0 89.0 C152.0 89.0 152.0 89.0 152.0 89.0"></path>
<path fill="#aabbbb" fill-opacity="1.0"  filling="0" d="M152.0 89.0 C152.0 89.0 152.0 89.0 152.0 89.0 L152.0 89.0 C152.0 89.0 152.0 89.0 152.0 89.0"></path>
<path fill="#aabbbb" fill-opacity="1.0"  filling="0" d="M152.0 89.0 L152.0 89.0 C152.0 89.0 152.0 89.0 152.0 89.0 C152.0 89.0 152.0 89.0 152.0 89.0"></path>
<path fill="#aabbbb" fill-opacity="1.0"  filling="0" d="M152.0 89.0 C152.0 89.0 152.0 89.0 152.0 89.0 L152.0 89.0 C152.0 89.0 152.0 89.0 152.0 89.0"></path>
<path fill="#aabbbb" fill-opacity="1.0"  filling="0" d="M152.0 89.0 L152.0 89.0 C152.0 89.0 152.0 89.0 152.0 89.0 C152.0 89.0 152.0 89.0 152.0 89.0"></path>
<path fill="#aabbbb" fill-opacity="1.0"  filling="0" d="M152.0 89.0 C152.0 89.0 152.0 89.0 152.0 89.0 L152.0 89.0 C152.0 89.0 152.0 89.0 152.0 89.0"></path>
<path fill="#aabbbb" fill-opacity="1.0"  filling="0" d="M152.0 89.0 L152.0 89.0 C152.0 89.0 152.0 89.0 152.0 89.0 C152.0 89.0 152.0 89.0 152.0 89.0"></path>
<path fill="#aabbbb" fill-opacity="1.0"  filling="0" d="M152.0 89.0 C152.0 89.0 152.0 89.0 152.0 89.0 L152.0 89.0 C152.0 89.0 152.0 89.0 152.0 89.0"></path>
<path fill="#aabbbb" fill-opacity="1.0"  filling="0" d="M152.0 89.0 L152.0 89.0 C152.0 89.0 152.0 89.0 152.0 89.0 C152.0 89.0 152.0 89.0 152.0 89.0"></path>
<path fill="#aabbbb" fill-opacity="1.0"  filling="0" d="M152.0 89.0 C152.0 89.0 152.0 89.0 152.0 89.0 L152.0 89.0 C152.0 89.0 152.0 89.0 152.0 89.0"></path>
<path fill="#aabbbb" fill-opacity="1.0"  filling="0" d="M152.0 89.0 L152.0 89.0 C152.0 89.0 152.0 89.0 152.0 89.0 C152.0 89.0 152.0 89.0 152.0 89.0"></path>
<path fill="#aabbbb" fill-opacity="1.0"  filling="0" d="M152.0 89.0 C152.0 89.0 152.0 89.0 152.0 89.0 L152.0 89.0 C152.0 89.0 152.0 89.0 152.0 89.0"></path>
<path fill="#aabbbb" fill-opacity="1.0"  filling="0" d="M152.0 89.0 L152.0 89.0 C152.0 89.0 152.0 89.0 152.0 89.0 C152.0 89.0 152.0 89.0 152.0 89.0"></path>
<path fill="#aabbbb" fill-opacity="1.0"  filling="0" d="M152.0 89.0 C152.0 89.0 152.0 89.0 152.0 89.0 L152.0 89.0 C152.0 89.0 152.0 89.0 152.0 89.0"></path>
<path fill="#aabbbb" fill-opacity="1.0"  filling="0" d="M152.0 89.0 L152.0 89.0 C152.0 89.0 152.0 89.0 152.0 89.0 C152.0 89.0 152.0 89.0 152.0 89.0"></path>
<path fill="#aabbbb" fill-opacity="1.0"  filling="0" d="M152.0 89.0 C152.0 89.0 152.0 89.0 152.0 89.0 L152.0 89.0 C152.0 89.0 152.0 89.0 152.0 89.0"></path>
<path fill="#aabbbb" fill-opacity="1.0"  filling="0" d="M152.0 89.0 L152.0 89.0 C152.0 89.0 152.0 89.0 152.0 89.0 C152.0 89.0 152.0 89.0 152.0 89.0"></path>
<path fill="#aabbbb" fill-opacity="1.0"  filling="0" d="M152.0 89.0 C152.0 89.0 152.0 89.0 152.0 89.0 L152.0 89.0 C152.0 89.0 152.0 89.0 152.0 89.0"></path>
<path fill="#aabbbb" fill-opacity="1.0"  filling="0" d="M152.0 89.0 L152.0 89.0 C152.0 89.0 152.0 89.0 152.0 89.0 C152.0 89.0 152.0 89.0 152.0 89.0"></path>
<path fill="#aabbbb" fill-opacity="1.0"  filling="0" d="M152.0 89.0 C152.0 89.0 152.0 89.0 152.0 89.0 L152.0 89.0 C152.0 89.0 152.0 89.0 152.0 89.0"></path>
<path fill="#aabbbb" fill-opacity="1.0"  filling="0" d="M152.0 89.0 L152.0 89.0 C152.0 89.0 152.0 89.0 152.0 89.0 C152.0 89.0 152.0 89.0 152.0 89.0"></path>
<path fill="#aabbbb" fill-opacity="1.0"  filling="0" d="M152.0 89.0 C152.0 89.0 152.0 89.0 152.0 89.0 L152.0 89.0 C152.0 89.0 152.0 89.0 152.0 89.0"></path>
<path fill="#aabbbb" fill-opacity="1.0"  filling="0" d="M152.0 89.0 L152.0 89.0 C152.0 89.0 152.0 89.0 152.0 89.0 C152.0 89.0 152.0 89.0 152.0 89.0"></path>
<path fill="#aabbbb" fill-opacity="1.0"  filling="0" d="M152.0 89.0 C152.0 89.0 152.0 89.0 152.0 89.0 L152.0 89.0 C152.0 89.0 152.0 89.0 152.0 89.0"></path>
<path fill="#aabbbb" fill-opacity="1.0"  filling="0" d="M152.0 89.0 L152.0 89.0 C152.0 89.0 152.0 89.0 152.0 89.0 C152.0 89.0 152.0 89.0 152.0 89.0"></path>
<path fill="#aabbbb" fill-opacity="1.0"  filling="0" d="M152.0 89.0 C152.0 89.0 152.0 89.0 152.0 89.0 L152.0 89.0 C152.0 89.0 152.0 89.0 152.0 89.0"></path>
<path fill="#aabbbb" fill-opacity="1.0"  filling="0" d="M152.0 89.0 L152.0 89.0 C152.0 89.0 152.0 89.0 152.0 89.0 C152.0 89.0 152.0 89.0 152.0 89.0"></path>
<path fill="#aabbbb" fill-opacity="1.0"  filling="0" d="M152.0 89.0 C152.0 89.0 152.0 89.0 152.0 89.0 L152.0 89.0 C152.0 89.0 152.0 89.0 152.0 89.0"></path>
<path fill="#aabbbb" fill-opacity="1.0"  filling="0" d="M152.0 89.0 L152.0 89.0 C152.0 89.0 152.0 89.0 152.0 89.0 C152.0 89.0 152.0 89.0 152.0 89.0"></path>
<path fill="#aabbbb" fill-opacity="1.0"  filling="0" d="M152.0 89.0 C152.0 89.0 152.0 89.0 152.0 89.0 L152.0 89.0 C152.0 89.0 152.0 89.0 152.0 89.0"></path>
<path fill="#aabbbb" fill-opacity="1.0"  filling="0" d="M152.0 89.0 L152.0 89.0 C152.0 89.0 152.0 89.0 152.0 89.0 C152.0 89.0 152.0 89.0 152.0 89.0"></path>
<path fill="#aabbbb" fill-opacity="1.0"  filling="0" d="M152.0 89.0 C152.0 89.0 152.0 89.0 152.0 89.0 L152.0 89.0 C152.0 89.0 152.0 89.0 152.0 89.0"></path>
<path fill="#aabbbb" fill-opacity="1.0"  filling="0" d="M152.0 89.0 L152.0 89.0 C152.0 89.0 152.0 89.0 152.0 89.0 C152.0 89.0 152.0 89.0 152.0 89.0"></path>
<path fill="#aabbbb" fill-opacity="1.0"  filling="0" d="M152.0 89.0 C152.0 89.0 152.0 89.0 152.0 89.0 L152.0 89.0 C152.0 89.0 152.0 89.0 152.0 89.0"></path>
<path fill="#aabbbb" fill-opacity="1.0"  filling="0" d="M152.0 89.0 L152.0 89.0 C152.0 89.0 152.0 89.0 152.0 89.0 C152.0 89.0 152.0 89.0 152.0 89.0"></path>
<path fill="#aabbbb" fill-opacity="1.0"  filling="0" d="M152.0 89.0 C152.0 89.0 152.0 89.0 152.0 89.0 L152.0 89.0 C152.0 89.0 152.0 89.0 152.0 89.0"></path>
<path fill="#aabbbb" fill-opacity="1.0"  filling="0" d="M152.0 89.0 L152.0 89.0 C152.0 89.0 152.0 89.0 152.0 89.0 C152.0 89.0 152.0 89.0 152.0 89.0"></path>
<path fill="#aabbbb" fill-opacity="1.0"  filling="0" d="M152.0 89.0 C152.0 89.0 152.0 89.0 152.0 89.0 L152.0 89.0 C152.0 89.0 152.0 89.0 152.0 89.0"></path>
<path fill="#aabbbb" fill-opacity="1.0"  filling="0" d="M152.0 89.0 L152.0 89.0 C152.0 89.0 152.0 89.0 152.0 89.0 C152.0 89.0 152.0 89.0 152.0 89.0"></path>
<path fill="#aabbbb" fill-opacity="1.0"  filling="0" d="M152.0 89.0 C152.0 89.0 152.0 89.0 152.0 89.0 L152.0 89.0 C152.0 89.0 152.0 89.0 152.0 89.0"></path>
<path fill="#aabbbb" fill-opacity="1.0"  filling="0" d="M152.0 89.0 L152.0 89.0 C152.0 89.0 152.0 89.0 152.0 89.0 C152.0 89.0 152.0 89.0 152.0 89.0"></path>
<path fill="#aabbbb" fill-opacity="1.0"  filling="0" d="M152.0 89.0 C152.0 89.0 152.0 89.0 152.0 89.0 L152.0 89.0 C152.0 89.0 152.0 89.0 152.0 89.0"></path>
<path fill="#aabbbb" fill-opacity="1.0"  filling="0" d="M152.0 89.0 L152.0 89.0 C152.0 89.0 152.0 89.0 152.0 89.0 C152.0 89.0 152.0 89.0 152.0 89.0"></path>
<path fill="#aabbbb" fill-opacity="1.0"  filling="0" d="M152.0 89.0 C152.0 89.0 152.0 89.0 152.0 89.0 L152.0 89.0 C152.0 89.0 152.0 89.0 152.0 89.0"></path>
<path fill="#aabbbb" fill-opacity="1.0"  filling="0" d="M152.0 89.0 L152.0 89.0 C152.0 89.0 152.0 89.0 152.0 89.0 C152.0 89.0 152.0 89.0 152.0 89.0"></path>
<path fill="#aabbbb" fill-opacity="1.0"  filling="0" d="M152.0 89.0 C152.0 89.0 152.0 89.0 152.0 89.0 L152.0 89.0 C152.0 89.0 152.0 89.0 152.0 89.0"></path>
<path fill="#aabbbb" fill-opacity="1.0"  filling="0" d="M152.0 89.0 L152.0 89.0 C152.0 89.0 152.0 89.0 152.0 89.0 C152.0 89.0 152.0 89.0 152.0 89.0"></path>
<path fill="#aabbbb" fill-opacity="1.0"  filling="0" d="M152.0 89.0 C152.0 89.0 152.0 89.0 152.0 89.0 L152.0 89.0 C152.0 89.0 152.0 89.0 152.0 89.0"></path>
<path fill="#aabbbb" fill-opacity="1.0"  filling="0" d="M152.0 89.0 L152.0 89.0 C152.0 89.0 152.0 89.0 152.0 89.0 C152.0 89.0 152.0 89.0 152.0 89.0"></path>
<path fill="#aabbbb" fill-opacity="1.0"  filling="0" d="M152.0 89.0 C152.0 89.0 152.0 89.0 152.0 89.0 L152.0 89.0 C152.0 89.0 152.0 89.0 152.0 89.0"></path>
<path fill="#aabbbb" fill-opacity="1.0"  filling="0" d="M152.0 89.0 L152.0 89.0 C152.0 89.0 152.0 89.0 152.0 89.0 C152.0 89.0 152.0 89.0 152.0 89.0"></path>
<path fill="#aabbbb" fill-opacity="1.0"  filling="0" d="M152.0 89.0 C152.0 89.0 152.0 89.0 152.0 89.0 L152.0 89.0 C152.0 89.0 152.0 89.0 152.0 89.0"></path>
<path fill="#aabbbb" fill-opacity="1.0"  filling="0" d="M152.0 89.0 L152.0 89.0 C152.0 89.0 152.0 89.0 152.0 89.0 C152.0 89.0 152.0 89.0 152.0 89.0"></path>
<path fill="#aabbbb" fill-opacity="1.0"  filling="0" d="M152.0 89.0 C152.0 89.0 152.0 89.0 152.0 89.0 L152.0 89.0 C152.0 89.0 152.0 89.0 152.0 89.0"></path>
<path fill="#aabbbb" fill-opacity="1.0"  filling="0" d="M152.0 89.0 L152.0 89.0 C152.0 89.0 152.0 89.0 152.0 89.0 C152.0 89.0 152.0 89.0 152.0 89.0"></path>
<path fill="#aabbbb" fill-opacity="1.0"  filling="0" d="M152.0 89.0 C152.0 89.0 152.0 89.0 152.0 89.0 L152.0 89.0 C152.0 89.0 152.0 89.0 152.0 89.0"></path>
<path fill="#aabbbb" fill-opacity="1.0"  filling="0" d="M152.0 89.0 L152.0 89.0 C152.0 89.0 152.0 89.0 152.0 89.0 C152.0 89.0 152.0 89.0 152.0 89.0"></path>
<path fill="#aabbbb" fill-opacity="1.0"  filling="0" d="M152.0 89.0 C152.0 89.0 152.0 89.0 152.0 89.0 L152.0 89.0 C152.0 89.0 152.0 89.0 152.0 89.0"></path>
<path fill="#aabbbb" fill-opacity="1.0"  filling="0" d="M152.0 89.0 L152.0 89.0 C152.0 89.0 152.0 89.0 152.0 89.0 C152.0 89.0 152.0 89.0 152.0 89.0"></path>
<path fill="#aabbbb" fill-opacity="1.0"  filling="0" d="M152.0 89.0 C152.0 89.0 152.0 89.0 152.0 89.0 L152.0 89.0 C152.0 89.0 152.0 89.0 152.0 89.0"></path>
<path fill="#aabbbb" fill-opacity="1.0"  filling="0" d="M152.0 89.0 L152.0 89.0 C152.0 89.0 152.0 89.0 152.0 89.0 C152.0 89.0 152.0 89.0 152.0 89.0"></path>
<path fill="#aabbbb" fill-opacity="1.0"  filling="0" d="M152.0 89.0 C152.0 89.0 152.0 89.0 152.0 89.0 L152.0 89.0 C152.0 89.0 152.0 89.0 152.0 89.0"></path>
<path fill="#aabbbb" fill-opacity="1.0"  filling="0" d="M152.0 89.0 L152.0 89.0 C152.0 89.0 152.0 89.0 152.0 89.0 C152.0 89.0 152.0 89.0 152.0 89.0"></path>
<path fill="#aabbbb" fill-opacity="1.0"  filling="0" d="M152.0 89.0 C152.0 89.0 152.0 89.0 152.0 89.0 L152.0 89.0 C152.0 89.0 152.0 89.0 152.0 89.0"></path>
<path fill="#aabbbb" fill-opacity="1.0"  filling="0" d="M152.0 89.0 L152.0 89.0 C152.0 89.0 152.0 89.0 152.0 89.0 C152.0 89.0 152.0 89.0 152.0 89.0"></path>
<path fill="#aabbbb" fill-opacity="1.0"  filling="0" d="M152.0 89.0 C152.0 89.0 152.0 89.0 152.0 89.0 L152.0 89.0 C152.0 89.0 152.0 89.0 152.0 89.0"></path>
<path fill="#aabbbb" fill-opacity="1.0"  filling="0" d="M152.0 89.0 L152.0 89.0 C152.0 89.0 152.0 89.0 152.0 89.0 C152.0 89.0 152.0 89.0 152.0 89.0"></path>
<path fill="#aabbbb" fill-opacity="1.0"  filling="0" d="M152.0 89.0 C152.0 89.0 152.0 89.0 152.0 89.0 L152.0 89.0 C152.0 89.0 152.0 89.0 152.0 89.0"></path>
<path fill="#aabbbb" fill-opacity="1.0"  filling="0" d="M152.0 89.0 L152.0 89.0 C152.0 89.0 152.0 89.0 152.0 89.0 C152.0 89.0 152.0 89.0 152.0 89.0"></path>
<path fill="#aabbbb" fill-opacity="1.0"  filling="0" d="M152.0 89.0 C152.0 89.0 152.0 89.0 152.0 89.0 L152.0 89.0 C152.0 89.0 152.0 89.0 152.0 89.0"></path>
<path fill="#aabbbb" fill-opacity="1.0"  filling="0" d="M152.0 89.0 L152.0 89.0 C152.0 89.0 152.0 89.0 152.0 89.0 C152.0 89.0 152.0 89.0 152.0 89.0"></path>
<path fill="#aabbbb" fill-opacity="1.0"  filling="0" d="M152.0 89.0 C152.0 89.0 152.0 89.0 152.0 89.0 L152.0 89.0 C152.0 89.0 152.0 89.0 152.0 89.0"></path>
<path fill="#aabbbb" fill-opacity="1.0"  filling="0" d="M152.0 89.0 L152.0 89.0 C152.0 89.0 152.0 89.0 152.0 89.0 C152.0 89.0 152.0 89.0 152.0 89.0"></path>
<path fill="#aabbbb" fill-opacity="1.0"  filling="0" d="M152.0 89.0 C152.0 89.0 152.0 89.0 152.0 89.0 L152.0 89.0 C152.0 89.0 152.0 89.0 152.0 89.0"></path>
<path fill="#aabbbb" fill-opacity="1.0"  filling="0" d="M152.0 89.0 L152.0 89.0 C152.0 89.0 152.0 89.0 152.0 89.0 C152.0 89.0 152.0 89.0 152.0 89.0"></path>
<path fill="none" fill-opacity="1.0" filling="0" d="M0.0 M.0 Z"></path></svg>