<svg xmlns="http://www.w3.org/2000/svg" viewBox="0.0 0.0 200.0 200.0" height="200px" width="200px"><path fill="#223344" fill-opacity="1.0"  filling="0" d="M59.0 155.0 C59.0 155.0 59.0 159.0 61.0 160.0 C64.0 162.0 79.0 163.0 83.0 163.0 C88.0 163.0 100.0 172.0 96.0 169.0 C92.0 165.0 92.0 162.0 92.0 162.0 L59.0 155.0 L59.0 155.0 Z"></path>
<path fill="#223344" fill-opacity="1.0"  filling="0" d="M142.0 155.0 C142.0 155.0 142.0 159.0 140.0 160.0 C137.0 162.0 120.0 163.0 117.0 163.0 C113.0 163.0 101.0 172.0 105.0 169.0 C108.0 165.0 109.0 162.0 109.0 162.0 L142.0 155.0 L142.0 155.0 Z"></path>
<path fill="#223344" fill-opacity="1.0"  filling="0" d="M105.0 102.0 L95.0 102.0 C95.0 102.0 79.0 118.0 79.0 139.0 C79.0 158.0 92.0 162.0 92.0 162.0 L109.0 162.0 C109.0 162.0 123.0 158.0 123.0 139.0 C123.0 118.0 105.0 102.0 105.0 102.0 L105.0 102.0 Z"></path>
<path fill="#223344" fill-opacity="1.0"  filling="0" d="M97.0 99.0 L104.0 99.0 L104.0 109.0 L97.0 109.0 L97.0 99.0 L97.0 99.0 Z"></path>
<path fill="#223344" fill-opacity="1.0"  filling="0" d="M97.0 99.0 L104.0 99.0 L104.0 109.0 L97.0 109.0 L97.0 99.0 L97.0 99.0 Z"></path>
<path fill="#223344" fill-opacity="1.0"  filling="0" d="M101.0 130.0 C101.0 130.0 101.0 142.0 101.0 144.0 C101.0 145.0 101.0 145.0 101.0 145.0 C101.0 145.0 100.0 145.0 100.0 144.0 C100.0 143.0 99.0 130.0 99.0 130.0 L101.0 130.0 L101.0 130.0 Z"></path>
<path fill="#223344" fill-opacity="1.0"  filling="0" d="M99.0 130.0 C99.0 130.0 100.0 142.0 100.0 144.0 C100.0 145.0 99.0 145.0 99.0 145.0 C99.0 145.0 99.0 145.0 99.0 144.0 C99.0 142.0 99.0 130.0 99.0 130.0 L99.0 130.0 L99.0 130.0 Z"></path>
<path fill="#223344" fill-opacity="1.0"  filling="0" d="M100.0 144.0 C100.0 144.0 100.0 144.0 100.0 144.0 C100.0 144.0 100.0 144.0 100.0 144.0 C100.0 144.0 100.0 144.0 100.0 144.0 C100.0 144.0 100.0 144.0 100.0 144.0 L100.0 144.0 Z"></path>
<path fill="#223344" fill-opacity="1.0"  filling="0" d="M99.0 130.0 C99.0 130.0 100.0 142.0 100.0 144.0 C100.0 145.0 99.0 145.0 99.0 145.0 C99.0 145.0 99.0 145.0 99.0 144.0 C99.0 142.0 99.0 130.0 99.0 130.0 L99.0 130.0 L99.0 130.0 Z"></path>
<path fill="#223344" fill-opacity="1.0"  filling="0" d="M100.0 144.0 C100.0 144.0 100.0 144.0 100.0 144.0 C100.0 144.0 100.0 144.0 100.0 144.0 C100.0 144.0 100.0 144.0 100.0 144.0 C100.0 144.0 100.0 144.0 100.0 144.0 L100.0 144.0 Z"></path>
<path fill="#223344" fill-opacity="1.0"  filling="0" d="M99.0 130.0 C99.0 130.0 100.0 142.0 100.0 144.0 C100.0 145.0 99.0 145.0 99.0 145.0 C99.0 145.0 99.0 145.0 99.0 144.0 C99.0 142.0 99.0 130.0 99.0 130.0 L99.0 130.0 L99.0 130.0 Z"></path>
<path fill="#223344" fill-opacity="1.0"  filling="0" d="M100.0 144.0 C100.0 144.0 100.0 144.0 100.0 144.0 C100.0 144.0 100.0 144.0 100.0 144.0 C100.0 144.0 100.0 144.0 100.0 144.0 C100.0 144.0 100.0 144.0 100.0 144.0 L100.0 144.0 Z"></path>
<path fill="#223344" fill-opacity="1.0"  filling="0" d="M100.0 144.0 C100.0 144.0 100.0 144.0 100.0 144.0 C100.0 144.0 100.0 144.0 100.0 144.0 C100.0 144.0 100.0 144.0 100.0 144.0 C100.0 144.0 100.0 144.0 100.0 144.0 L100.0 144.0 Z"></path>
<path fill="#223344" fill-opacity="1.0"  filling="0" d="M99.0 130.0 C99.0 130.0 100.0 142.0 100.0 144.0 C100.0 145.0 99.0 145.0 99.0 145.0 C99.0 145.0 99.0 145.0 99.0 144.0 C99.0 142.0 99.0 130.0 99.0 130.0 L99.0 130.0 L99.0 130.0 Z"></path>
<path fill="#223344" fill-opacity="1.0"  filling="0" d="M100.0 144.0 C100.0 144.0 100.0 144.0 100.0 144.0 C100.0 144.0 100.0 144.0 100.0 144.0 C100.0 144.0 100.0 144.0 100.0 144.0 C100.0 144.0 100.0 144.0 100.0 144.0 L100.0 144.0 Z"></path>
<path fill="#223344" fill-opacity="1.0"  filling="0" d="M100.0 144.0 C100.0 144.0 100.0 144.0 100.0 144.0 C100.0 144.0 100.0 144.0 100.0 144.0 C100.0 144.0 100.0 144.0 100.0 144.0 C100.0 144.0 100.0 144.0 100.0 144.0 L100.0 144.0 Z"></path>
<path fill="#223344" fill-opacity="1.0"  filling="0" d="M99.0 130.0 C99.0 130.0 100.0 142.0 100.0 144.0 C100.0 145.0 99.0 145.0 99.0 145.0 C99.0 145.0 99.0 145.0 99.0 144.0 C99.0 142.0 99.0 130.0 99.0 130.0 L99.0 130.0 L99.0 130.0 Z"></path>
<path fill="#223344" fill-opacity="1.0"  filling="0" d="M100.0 144.0 C100.0 144.0 100.0 144.0 100.0 144.0 C100.0 144.0 100.0 144.0 100.0 144.0 C100.0 144.0 100.0 144.0 100.0 144.0 C100.0 144.0 100.0 144.0 100.0 144.0 L100.0 144.0 Z"></path>
<path fill="#223344" fill-opacity="1.0"  filling="0" d="M100.0 144.0 C100.0 144.0 100.0 144.0 100.0 144.0 C100.0 144.0 100.0 144.0 100.0 144.0 C100.0 144.0 100.0 144.0 100.0 144.0 C100.0 144.0 100.0 144.0 100.0 144.0 L100.0 144.0 Z"></path>
<path fill="#223344" fill-opacity="1.0"  filling="0" d="M99.0 130.0 C99.0 130.0 100.0 142.0 100.0 144.0 C100.0 145.0 99.0 145.0 99.0 145.0 C99.0 145.0 99.0 145.0 99.0 144.0 C99.0 142.0 99.0 130.0 99.0 130.0 L99.0 130.0 L99.0 130.0 Z"></path>
<path fill="#223344" fill-opacity="1.0"  filling="0" d="M100.0 144.0 C100.0 144.0 100.0 144.0 100.0 144.0 C100.0 144.0 100.0 144.0 100.0 144.0 C100.0 144.0 100.0 144.0 100.0 144.0 C100.0 144.0 100.0 144.0 100.0 144.0 L100.0 144.0 Z"></path>
<path fill="#223344" fill-opacity="1.0"  filling="0" d="M100.0 144.0 C100.0 144.0 100.0 144.0 100.0 144.0 C100.0 144.0 100.0 144.0 100.0 144.0 C100.0 144.0 100.0 144.0 100.0 144.0 C100.0 144.0 100.0 144.0 100.0 144.0 L100.0 144.0 Z"></path>
<path fill="#223344" fill-opacity="1.0"  filling="0" d="M99.0 130.0 C99.0 130.0 100.0 142.0 100.0 144.0 C100.0 145.0 99.0 145.0 99.0 145.0 C99.0 145.0 99.0 145.0 99.0 144.0 C99.0 142.0 99.0 130.0 99.0 130.0 L99.0 130.0 L99.0 130.0 Z"></path>
<path fill="#223344" fill-opacity="1.0"  filling="0" d="M100.0 144.0 C100.0 144.0 100.0 144.0 100.0 144.0 C100.0 144.0 100.0 144.0 100.0 144.0 C100.0 144.0 100.0 144.0 100.0 144.0 C100.0 144.0 100.0 144.0 100.0 144.0 L100.0 144.0 Z"></path>
<path fill="#223344" fill-opacity="1.0"  filling="0" d="M100.0 144.0 C100.0 144.0 100.0 144.0 100.0 144.0 C100.0 144.0 100.0 144.0 100.0 144.0 C100.0 144.0 100.0 144.0 100.0 144.0 C100.0 144.0 100.0 144.0 100.0 144.0 L100.0 144.0 Z"></path>
<path fill="#223344" fill-opacity="1.0"  filling="0" d="M99.0 130.0 C99.0 130.0 100.0 142.0 100.0 144.0 C100.0 145.0 99.0 145.0 99.0 145.0 C99.0 145.0 99.0 145.0 99.0 144.0 C99.0 142.0 99.0 130.0 99.0 130.0 L99.0 130.0 L99.0 130.0 Z"></path>
<path fill="#223344" fill-opacity="1.0"  filling="0" d="M100.0 144.0 C100.0 144.0 100.0 144.0 100.0 144.0 C100.0 144.0 100.0 144.0 100.0 144.0 C100.0 144.0 100.0 144.0 100.0 144.0 C100.0 144.0 100.0 144.0 100.0 144.0 L100.0 144.0 Z"></path>
<path fill="#223344" fill-opacity="1.0"  filling="0" d="M100.0 144.0 C100.0 144.0 100.0 144.0 100.0 144.0 C100.0 144.0 100.0 144.0 100.0 144.0 C100.0 144.0 100.0 144.0 100.0 144.0 C100.0 144.0 100.0 144.0 100.0 144.0 L100.0 144.0 Z"></path>
<path fill="#223344" fill-opacity="1.0"  filling="0" d="M99.0 130.0 C99.0 130.0 100.0 142.0 100.0 144.0 C100.0 145.0 99.0 145.0 99.0 145.0 C99.0 145.0 99.0 145.0 99.0 144.0 C99.0 142.0 99.0 130.0 99.0 130.0 L99.0 130.0 L99.0 130.0 Z"></path>
<path fill="#223344" fill-opacity="1.0"  filling="0" d="M100.0 144.0 C100.0 144.0 100.0 144.0 100.0 144.0 C100.0 144.0 100.0 144.0 100.0 144.0 C100.0 144.0 100.0 144.0 100.0 144.0 C100.0 144.0 100.0 144.0 100.0 144.0 L100.0 144.0 Z"></path>
<path fill="#223344" fill-opacity="1.0"  filling="0" d="M100.0 144.0 C100.0 144.0 100.0 144.0 100.0 144.0 C100.0 144.0 100.0 144.0 100.0 144.0 C100.0 144.0 100.0 144.0 100.0 144.0 C100.0 144.0 100.0 144.0 100.0 144.0 L100.0 144.0 Z"></path>
<path fill="#223344" fill-opacity="1.0"  filling="0" d="M99.0 130.0 C99.0 130.0 100.0 142.0 100.0 144.0 C100.0 145.0 99.0 145.0 99.0 145.0 C99.0 145.0 99.0 145.0 99.0 144.0 C99.0 142.0 99.0 130.0 99.0 130.0 L99.0 130.0 L99.0 130.0 Z"></path>
<path fill="#223344" fill-opacity="1.0"  filling="0" d="M100.0 144.0 C100.0 144.0 100.0 144.0 100.0 144.0 C100.0 144.0 100.0 144.0 100.0 144.0 C100.0 144.0 100.0 144.0 100.0 144.0 C100.0 144.0 100.0 144.0 100.0 144.0 L100.0 144.0 Z"></path>
<path fill="#223344" fill-opacity="1.0"  filling="0" d="M100.0 144.0 C100.0 144.0 100.0 144.0 100.0 144.0 C100.0 144.0 100.0 144.0 100.0 144.0 C100.0 144.0 100.0 144.0 100.0 144.0 C100.0 144.0 100.0 144.0 100.0 144.0 L100.0 144.0 Z"></path>
<path fill="#223344" fill-opacity="1.0"  filling="0" d="M99.0 130.0 C99.0 130.0 100.0 142.0 100.0 144.0 C100.0 145.0 99.0 145.0 99.0 145.0 C99.0 145.0 99.0 145.0 99.0 144.0 C99.0 142.0 99.0 130.0 99.0 130.0 L99.0 130.0 L99.0 130.0 Z"></path>
<path fill="#223344" fill-opacity="1.0"  filling="0" d="M100.0 144.0 C100.0 144.0 100.0 144.0 100.0 144.0 C100.0 144.0 100.0 144.0 100.0 144.0 C100.0 144.0 100.0 144.0 100.0 144.0 C100.0 144.0 100.0 144.0 100.0 144.0 L100.0 144.0 Z"></path>
<path fill="#223344" fill-opacity="1.0"  filling="0" d="M100.0 144.0 C100.0 144.0 100.0 144.0 100.0 144.0 C100.0 144.0 100.0 144.0 100.0 144.0 C100.0 144.0 100.0 144.0 100.0 144.0 C100.0 144.0 100.0 144.0 100.0 144.0 L100.0 144.0 Z"></path>
<path fill="#223344" fill-opacity="1.0"  filling="0" d="M99.0 130.0 C99.0 130.0 100.0 142.0 100.0 144.0 C100.0 145.0 99.0 145.0 99.0 145.0 C99.0 145.0 99.0 145.0 99.0 144.0 C99.0 142.0 99.0 130.0 99.0 130.0 L99.0 130.0 L99.0 130.0 Z"></path>
<path fill="#223344" fill-opacity="1.0"  filling="0" d="M100.0 144.0 C100.0 144.0 100.0 144.0 100.0 144.0 C100.0 144.0 100.0 144.0 100.0 144.0 C100.0 144.0 100.0 144.0 100.0 144.0 C100.0 144.0 100.0 144.0 100.0 144.0 L100.0 144.0 Z"></path>
<path fill="#223344" fill-opacity="1.0"  filling="0" d="M100.0 144.0 C100.0 144.0 100.0 144.0 100.0 144.0 C100.0 144.0 100.0 144.0 100.0 144.0 C100.0 144.0 100.0 144.0 100.0 144.0 C100.0 144.0 100.0 144.0 100.0 144.0 L100.0 144.0 Z"></path>
<path fill="#223344" fill-opacity="1.0"  filling="0" d="M99.0 130.0 C99.0 130.0 100.0 142.0 100.0 144.0 C100.0 145.0 99.0 145.0 99.0 145.0 C99.0 145.0 99.0 145.0 99.0 144.0 C99.0 142.0 99.0 130.0 99.0 130.0 L99.0 130.0 L99.0 130.0 Z"></path>
<path fill="#223344" fill-opacity="1.0"  filling="0" d="M100.0 144.0 C100.0 144.0 100.0 144.0 100.0 144.0 C100.0 144.0 100.0 144.0 100.0 144.0 C100.0 144.0 100.0 144.0 100.0 144.0 C100.0 144.0 100.0 144.0 100.0 144.0 L100.0 144.0 Z"></path>
<path fill="#223344" fill-opacity="1.0"  filling="0" d="M100.0 144.0 C100.0 144.0 100.0 144.0 100.0 144.0 C100.0 144.0 100.0 144.0 100.0 144.0 C100.0 144.0 100.0 144.0 100.0 144.0 C100.0 144.0 100.0 144.0 100.0 144.0 L100.0 144.0 Z"></path>
<path fill="#223344" fill-opacity="1.0"  filling="0" d="M99.0 130.0 C99.0 130.0 100.0 142.0 100.0 144.0 C100.0 145.0 99.0 145.0 99.0 145.0 C99.0 145.0 99.0 145.0 99.0 144.0 C99.0 142.0 99.0 130.0 99.0 130.0 L99.0 130.0 L99.0 130.0 Z"></path>
<path fill="#223344" fill-opacity="1.0"  filling="0" d="M100.0 144.0 C100.0 144.0 100.0 144.0 100.0 144.0 C100.0 144.0 100.0 144.0 100.0 144.0 C100.0 144.0 100.0 144.0 100.0 144.0 C100.0 144.0 100.0 144.0 100.0 144.0 L100.0 144.0 Z"></path>
<path fill="#223344" fill-opacity="1.0"  filling="0" d="M100.0 144.0 C100.0 144.0 100.0 144.0 100.0 144.0 C100.0 144.0 100.0 144.0 100.0 144.0 C100.0 144.0 100.0 144.0 100.0 144.0 C100.0 144.0 100.0 144.0 100.0 144.0 L100.0 144.0 Z"></path>
<path fill="#223344" fill-opacity="1.0"  filling="0" d="M99.0 130.0 C99.0 130.0 100.0 142.0 100.0 144.0 C100.0 145.0 99.0 145.0 99.0 145.0 C99.0 145.0 99.0 145.0 99.0 144.0 C99.0 142.0 99.0 130.0 99.0 130.0 L99.0 130.0 L99.0 130.0 Z"></path>
<path fill="#223344" fill-opacity="1.0"  filling="0" d="M100.0 144.0 C100.0 144.0 100.0 144.0 100.0 144.0 C100.0 144.0 100.0 144.0 100.0 144.0 C100.0 144.0 100.0 144.0 100.0 144.0 C100.0 144.0 100.0 144.0 100.0 144.0 L100.0 144.0 Z"></path>
<path fill="#223344" fill-opacity="1.0"  filling="0" d="M100.0 144.0 C100.0 144.0 100.0 144.0 100.0 144.0 C100.0 144.0 100.0 144.0 100.0 144.0 C100.0 144.0 100.0 144.0 100.0 144.0 C100.0 144.0 100.0 144.0 100.0 144.0 L100.0 144.0 Z"></path>
<path fill="#223344" fill-opacity="1.0"  filling="0" d="M99.0 130.0 C99.0 130.0 100.0 142.0 100.0 144.0 C100.0 145.0 99.0 145.0 99.0 145.0 C99.0 145.0 99.0 145.0 99.0 144.0 C99.0 142.0 99.0 130.0 99.0 130.0 L99.0 130.0 L99.0 130.0 Z"></path>
<path fill="#223344" fill-opacity="1.0"  filling="0" d="M100.0 144.0 C100.0 144.0 100.0 144.0 100.0 144.0 C100.0 144.0 100.0 144.0 100.0 144.0 C100.0 144.0 100.0 144.0 100.0 144.0 C100.0 144.0 100.0 144.0 100.0 144.0 L100.0 144.0 Z"></path>
<path fill="#223344" fill-opacity="1.0"  filling="0" d="M100.0 144.0 C100.0 144.0 100.0 144.0 100.0 144.0 C100.0 144.0 100.0 144.0 100.0 144.0 C100.0 144.0 100.0 144.0 100.0 144.0 C100.0 144.0 100.0 144.0 100.0 144.0 L100.0 144.0 Z"></path></svg>