<svg xmlns="http://www.w3.org/2000/svg" viewBox="0.0 0.0 200.0 200.0" height="200px" width="200px"><path fill="#7777bb" fill-opacity="1.0"  filling="0" d="M150.0 121.0 L53.0 121.0 L53.0 119.0 A13.0 13.0 0.0 0 0 38.0 119.0 A16.0 16.0 0.0 0 0 29.0 140.0 A15.0 15.0 0.0 0 0 55.0 145.0 L145.0 145.0 A15.0 15.0 0.0 0 0 171.0 140.0 A16.0 16.0 0.0 0 0 162.0 119.0 A13.0 13.0 0.0 0 0 150.0 119.0 L150.0 121.0 L150.0 121.0 Z"></path>
<path fill="#5555aa" fill-opacity="1.0"  filling="0" d="M150.0 121.0 L53.0 121.0 L53.0 119.0 A13.0 13.0 0.0 0 0 38.0 119.0 A16.0 16.0 0.0 0 0 29.0 140.0 C30.0 141.0 30.0 141.0 31.0 142.0 A15.0 15.0 0.0 0 1 41.0 131.0 A13.0 13.0 0.0 0 1 53.0 131.0 L150.0 131.0 L150.0 121.0 L150.0 121.0 Z"></path>
<path fill="#5555aa" fill-opacity="1.0"  filling="0" d="M164.0 130.0 A10.0 10.0 0.0 0 1 170.0 140.0 A15.0 15.0 0.0 0 1 145.0 145.0 L55.0 145.0 A15.0 15.0 0.0 0 1 30.0 140.0 A10.0 10.0 0.0 0 1 36.0 130.0 L164.0 130.0 L164.0 130.0 Z"></path>
<path fill="#443388" fill-opacity="1.0"  filling="0" d="M164.0 130.0 L36.0 130.0 A10.0 10.0 0.0 0 0 30.0 140.0 A15.0 15.0 0.0 0 0 31.0 145.0 A10.0 10.0 0.0 0 1 36.0 137.0 L164.0 137.0 A10.0 10.0 0.0 0 1 169.0 145.0 A15.0 15.0 0.0 0 0 170.0 140.0 A10.0 10.0 0.0 0 0 164.0 130.0 L164.0 130.0 Z"></path>
<path fill="#ddeeff" fill-opacity="1.0"  filling="0" d="M150.0 121.0 C150.0 121.0 140.0 142.0 126.0 142.0 L55.0 142.0 C55.0 142.0 55.0 141.0 55.0 141.0 A15.0 15.0 0.0 0 0 54.0 131.0 C54.0 131.0 54.0 131.0 54.0 130.0 L148.0 130.0 L150.0 121.0 L150.0 121.0 Z"></path>
<path fill="#ccddee" fill-opacity="1.0"  filling="0" d="M146.0 130.0 L54.0 130.0 C54.0 131.0 54.0 131.0 54.0 131.0 A15.0 15.0 0.0 0 1 55.0 141.0 C55.0 141.0 55.0 142.0 55.0 142.0 L59.0 142.0 A14.0 14.0 0.0 0 0 58.0 140.0 A15.0 15.0 0.0 0 1 57.0 131.0 C57.0 131.0 57.0 131.0 57.0 130.0 L146.0 130.0 L146.0 130.0 Z"></path>
<path fill="#eebb44" fill-opacity="1.0"  filling="0" d="M122.0 134.0 L79.0 134.0 A5.0 5.0 0.0 0 1 79.0 125.0 L122.0 125.0 A5.0 5.0 0.0 0 1 122.0 134.0 L122.0 134.0 Z"></path>
<path fill="#333366" fill-opacity="1.0"  filling="0" d="M122.0 124.0 L79.0 124.0 A6.0 6.0 0.0 0 0 79.0 135.0 L122.0 135.0 A6.0 6.0 0.0 0 0 122.0 124.0 L122.0 124.0 Z M122.0 132.0 L79.0 132.0 A3.0 3.0 0.0 0 1 79.0 126.0 L122.0 126.0 A3.0 3.0 0.0 0 1 122.0 132.0 L122.0 132.0 Z"></path>
<path fill="#7777bb" fill-opacity="1.0"  filling="0" d="M91.0 98.0 C-3.0 -3.0 91.0 98.0 91.0 98.0 A26.0 26.0 0.0 0 0 77.0 99.0 L75.0 100.0 A5.0 5.0 0.0 0 1 69.0 100.0 A15.0 15.0 0.0 0 1 66.0 88.0 A15.0 15.0 0.0 0 1 66.0 84.0 L66.0 83.0 A23.0 23.0 0.0 0 0 91.0 98.0 L91.0 98.0 Z"></path>
<path fill="#5555aa" fill-opacity="1.0"  filling="0" d="M67.0 83.0 L66.0 84.0 A15.0 15.0 0.0 0 0 66.0 88.0 A15.0 15.0 0.0 0 0 69.0 100.0 A5.0 5.0 0.0 0 0 75.0 100.0 L77.0 99.0 A26.0 26.0 0.0 0 1 91.0 98.0 C91.0 98.0 91.0 98.0 91.0 98.0 A23.0 23.0 0.0 0 1 67.0 83.0 L67.0 83.0 Z"></path>
<path fill="#7777bb" fill-opacity="1.0"  filling="0" d="M134.0 84.0 A5.0 5.0 0.0 0 1 127.0 86.0 L126.0 86.0 A199.0 199.0 0.0 0 0 91.0 98.0 A23.0 23.0 0.0 0 1 67.0 83.0 A23.0 23.0 0.0 0 1 67.0 83.0 A23.0 23.0 0.0 0 1 68.0 55.0 A32.0 32.0 0.0 0 1 100.0 28.0 A34.0 34.0 0.0 0 1 134.0 49.0 A29.0 29.0 0.0 0 1 134.0 58.0 A23.0 23.0 0.0 0 1 134.0 84.0 L134.0 84.0 Z"></path>
<path fill="#443388" fill-opacity="1.0"  filling="0" d="M100.0 31.0 A34.0 34.0 0.0 0 1 132.0 53.0 A29.0 29.0 0.0 0 1 132.0 60.0 A23.0 23.0 0.0 0 1 132.0 81.0 A5.0 5.0 0.0 0 1 127.0 83.0 L126.0 83.0 A199.0 199.0 0.0 0 0 91.0 98.0 A23.0 23.0 0.0 0 1 67.0 83.0 A23.0 23.0 0.0 0 1 67.0 83.0 A23.0 23.0 0.0 0 1 68.0 55.0 A32.0 32.0 0.0 0 1 100.0 31.0 M100.0 28.0 A32.0 32.0 0.0 0 0 68.0 55.0 A23.0 23.0 0.0 0 0 67.0 83.0 C67.0 83.0 67.0 83.0 67.0 83.0 A23.0 23.0 0.0 0 0 91.0 98.0 C91.0 98.0 91.0 98.0 91.0 98.0 A199.0 199.0 0.0 0 1 126.0 86.0 L127.0 86.0 A5.0 5.0 0.0 0 0 134.0 84.0 A23.0 23.0 0.0 0 0 134.0 58.0 A29.0 29.0 0.0 0 0 134.0 49.0 A34.0 34.0 0.0 0 0 100.0 28.0 L100.0 28.0 Z"></path>
<path fill="#5555aa" fill-opacity="1.0"  filling="0" d="M100.0 31.0 A32.0 32.0 0.0 0 0 70.0 53.0 A23.0 23.0 0.0 0 0 70.0 68.0 A23.0 23.0 0.0 0 0 70.0 79.0 A23.0 23.0 0.0 0 0 91.0 98.0 A23.0 23.0 0.0 0 1 67.0 83.0 A23.0 23.0 0.0 0 1 68.0 55.0 A32.0 32.0 0.0 0 1 100.0 31.0 L100.0 31.0 Z"></path>
<path fill="#7777bb" fill-opacity="1.0"  filling="0" d="M133.0 84.0 A5.0 5.0 0.0 0 1 127.0 86.0 L126.0 86.0 A199.0 199.0 0.0 0 0 91.0 98.0 A23.0 23.0 0.0 0 1 67.0 83.0 A23.0 23.0 0.0 0 1 67.0 83.0 A23.0 23.0 0.0 0 1 68.0 55.0 A32.0 32.0 0.0 0 1 100.0 28.0 A34.0 34.0 0.0 0 1 134.0 49.0 A29.0 29.0 0.0 0 1 134.0 58.0 A23.0 23.0 0.0 0 1 133.0 84.0 L133.0 84.0 Z"></path>
<path fill="#443388" fill-opacity="1.0"  filling="0" d="M100.0 31.0 A34.0 34.0 0.0 0 1 132.0 53.0 A29.0 29.0 0.0 0 1 132.0 60.0 A23.0 23.0 0.0 0 1 132.0 81.0 A5.0 5.0 0.0 0 1 127.0 83.0 L126.0 83.0 A199.0 199.0 0.0 0 0 91.0 98.0 A23.0 23.0 0.0 0 1 67.0 83.0 A23.0 23.0 0.0 0 1 68.0 55.0 A32.0 32.0 0.0 0 1 100.0 31.0 M100.0 28.0 A32.0 32.0 0.0 0 0 68.0 55.0 A23.0 23.0 0.0 0 0 67.0 83.0 C67.0 83.0 67.0 83.0 67.0 83.0 A23.0 23.0 0.0 0 0 91.0 98.0 C91.0 98.0 91.0 98.0 91.0 98.0 A199.0 199.0 0.0 0 1 126.0 86.0 L127.0 86.0 A5.0 5.0 0.0 0 0 134.0 84.0 A23.0 23.0 0.0 0 0 134.0 58.0 A29.0 29.0 0.0 0 0 134.0 49.0 A34.0 34.0 0.0 0 0 100.0 28.0 L100.0 28.0 Z"></path>
<path fill="#5555aa" fill-opacity="1.0"  filling="0" d="M100.0 31.0 A32.0 32.0 0.0 0 0 70.0 53.0 A23.0 23.0 0.0 0 0 70.0 68.0 A23.0 23.0 0.0 0 0 70.0 79.0 A23.0 23.0 0.0 0 0 91.0 98.0 A23.0 23.0 0.0 0 1 67.0 83.0 A23.0 23.0 0.0 0 1 68.0 55.0 A32.0 32.0 0.0 0 1 100.0 31.0 L100.0 31.0 Z"></path>
<path fill="#443388" fill-opacity="1.0"  filling="0" d="M67.0 83.0 A23.0 23.0 0.0 0 1 68.0 55.0 A32.0 32.0 0.0 0 1 100.0 28.0 L100.0 31.0 A30.0 30.0 0.0 0 0 70.0 53.0 A23.0 23.0 0.0 0 0 70.0 79.0 A23.0 23.0 0.0 0 0 91.0 98.0 A23.0 23.0 0.0 0 1 67.0 83.0 L67.0 83.0 Z"></path>
<path fill="#5555aa" fill-opacity="1.0"  filling="0" d="M94.0 89.0 A2.0 2.0 0.0 0 1 94.0 89.0 A2.0 2.0 0.0 0 1 93.0 87.0 A26.0 26.0 0.0 0 1 104.0 82.0 A2.0 2.0 0.0 0 1 105.0 85.0 A22.0 22.0 0.0 0 0 95.0 89.0 A2.0 2.0 0.0 0 1 94.0 89.0 L94.0 89.0 Z M75.0 82.0 A2.0 2.0 0.0 0 1 74.0 79.0 C75.0 78.0 75.0 78.0 77.0 78.0 A26.0 26.0 0.0 0 1 85.0 77.0 A2.0 2.0 0.0 0 1 84.0 80.0 A22.0 22.0 0.0 0 0 78.0 81.0 C77.0 81.0 76.0 81.0 75.0 82.0 A2.0 2.0 0.0 0 1 75.0 82.0 L75.0 82.0 Z M95.0 70.0 A2.0 2.0 0.0 0 1 94.0 66.0 A26.0 26.0 0.0 0 1 106.0 64.0 A2.0 2.0 0.0 0 1 105.0 67.0 A22.0 22.0 0.0 0 0 95.0 69.0 A2.0 2.0 0.0 0 1 95.0 70.0 L95.0 70.0 Z M119.0 55.0 A2.0 2.0 0.0 0 1 118.0 55.0 A23.0 23.0 0.0 0 0 110.0 53.0 A2.0 2.0 0.0 0 1 110.0 49.0 A27.0 27.0 0.0 0 1 119.0 52.0 A2.0 2.0 0.0 0 1 119.0 55.0 L119.0 55.0 L119.0 55.0 Z M73.0 64.0 A2.0 2.0 0.0 0 1 73.0 61.0 A23.0 23.0 0.0 0 1 81.0 58.0 A2.0 2.0 0.0 0 1 82.0 62.0 A21.0 21.0 0.0 0 0 74.0 64.0 A2.0 2.0 0.0 0 1 73.0 64.0 L73.0 64.0 Z M100.0 39.0 A2.0 2.0 0.0 0 1 99.0 35.0 A23.0 23.0 0.0 0 1 107.0 34.0 A2.0 2.0 0.0 0 1 107.0 38.0 A21.0 21.0 0.0 0 0 101.0 38.0 A2.0 2.0 0.0 0 1 100.0 39.0 L100.0 39.0 Z"></path>
<path fill="#333366" fill-opacity="1.0"  filling="0" d="M160.0 161.0 A14.0 14.0 0.0 1 1 174.0 145.0 A14.0 14.0 0.0 0 1 160.0 161.0 L160.0 161.0 Z M160.0 132.0 A11.0 11.0 0.0 1 0 171.0 145.0 A11.0 11.0 0.0 0 0 160.0 132.0 L160.0 132.0 Z"></path>
<path fill="#5555aa" fill-opacity="1.0"  filling="0" d="M160.0 145.0 A3.0 3.0 0.0 1 0 165.0 145.0 A3.0 3.0 0.0 1 0 160.0 145.0 L160.0 145.0 Z"></path>
<path fill="#333366" fill-opacity="1.0"  filling="0" d="M43.0 161.0 A14.0 14.0 0.0 1 1 58.0 145.0 A14.0 14.0 0.0 0 1 43.0 161.0 L43.0 161.0 Z M43.0 132.0 A11.0 11.0 0.0 1 0 55.0 145.0 A11.0 11.0 0.0 0 0 43.0 132.0 L43.0 132.0 Z"></path>
<path fill="#5555aa" fill-opacity="1.0"  filling="0" d="M43.0 145.0 A3.0 3.0 0.0 1 0 48.0 145.0 A3.0 3.0 0.0 1 0 43.0 145.0 L43.0 145.0 Z"></path>
<path fill="#333366" fill-opacity="1.0"  filling="0" d="M138.0 166.0 L119.0 166.0 A2.0 2.0 0.0 0 1 119.0 163.0 L138.0 163.0 A2.0 2.0 0.0 0 1 138.0 166.0 L138.0 166.0 Z"></path>
<path fill="#333366" fill-opacity="1.0"  filling="0" d="M115.0 166.0 L80.0 166.0 A2.0 2.0 0.0 0 1 80.0 163.0 L115.0 163.0 A2.0 2.0 0.0 0 1 115.0 166.0 L115.0 166.0 Z"></path>
<path fill="#000000" fill-opacity="1.0"  filling="0" d="M75.0 166.0 L62.0 166.0 A2.0 2.0 0.0 0 1 62.0 163.0 L75.0 163.0 A2.0 2.0 0.0 0 1 75.0 166.0 L75.0 166.0 Z"></path></svg>