<svg xmlns="http://www.w3.org/2000/svg" viewBox="0.0 0.0 200.0 200.0" height="200px" width="200px"><path fill="#333366" fill-opacity="1.0"  filling="0" d="M150.0 121.0 L53.0 121.0 A1.0 1.0 0.0 0 1 53.0 120.0 L150.0 120.0 A1.0 1.0 0.0 0 1 150.0 121.0 L150.0 121.0 Z"></path>
<path fill="#333366" fill-opacity="1.0"  filling="0" d="M150.0 121.0 L53.0 121.0 A1.0 1.0 0.0 0 1 53.0 120.0 L150.0 120.0 A1.0 1.0 0.0 0 1 150.0 121.0 L150.0 121.0 Z"></path>
<path fill="#333366" fill-opacity="1.0"  filling="0" d="M150.0 121.0 L53.0 121.0 A1.0 1.0 0.0 0 1 53.0 120.0 L150.0 120.0 A1.0 1.0 0.0 0 1 150.0 121.0 L150.0 121.0 Z"></path>
<path fill="#333366" fill-opacity="1.0"  filling="0" d="M150.0 121.0 L53.0 121.0 A1.0 1.0 0.0 0 1 53.0 120.0 L150.0 120.0 A1.0 1.0 0.0 0 1 150.0 121.0 L150.0 121.0 Z"></path>
<path fill="#333366" fill-opacity="1.0"  filling="0" d="M122.0 160.0 A1.0 1.0 0.0 0 1 122.0 158.0 L138.0 158.0 A1.0 1.0 0.0 0 1 138.0 160.0 L122.0 160.0 L122.0 160.0 L122.0 160.0 Z"></path>
<path fill="#333366" fill-opacity="1.0"  filling="0" d="M115.0 160.0 A1.0 1.0 0.0 0 1 115.0 158.0 L117.0 158.0 A1.0 1.0 0.0 0 1 117.0 160.0 L115.0 160.0 L115.0 160.0 L115.0 160.0 Z"></path>
<path fill="#333366" fill-opacity="1.0"  filling="0" d="M138.0 160.0 L122.0 160.0 A1.0 1.0 0.0 0 1 122.0 158.0 L138.0 158.0 A1.0 1.0 0.0 0 1 138.0 160.0 L138.0 160.0 Z"></path>
<path fill="#333366" fill-opacity="1.0"  filling="0" d="M117.0 160.0 L115.0 160.0 A1.0 1.0 0.0 0 1 115.0 158.0 L117.0 158.0 A1.0 1.0 0.0 0 1 117.0 160.0 L117.0 160.0 Z"></path>
<path fill="#333366" fill-opacity="1.0"  filling="0" d="M62.0 160.0 A1.0 1.0 0.0 0 1 62.0 158.0 L78.0 158.0 A1.0 1.0 0.0 0 1 78.0 160.0 L62.0 160.0 L62.0 160.0 L62.0 160.0 Z"></path>
<path fill="#333366" fill-opacity="1.0"  filling="0" d="M58.0 160.0 A1.0 1.0 0.0 0 1 58.0 158.0 L60.0 158.0 A1.0 1.0 0.0 0 1 60.0 160.0 L58.0 160.0 L58.0 160.0 L58.0 160.0 Z"></path>
<path fill="#333366" fill-opacity="1.0"  filling="0" d="M78.0 160.0 L62.0 160.0 A1.0 1.0 0.0 0 1 62.0 158.0 L78.0 158.0 A1.0 1.0 0.0 0 1 78.0 160.0 L78.0 160.0 Z"></path>
<path fill="#333366" fill-opacity="1.0"  filling="0" d="M60.0 160.0 L58.0 160.0 A1.0 1.0 0.0 0 1 58.0 158.0 L60.0 158.0 A1.0 1.0 0.0 0 1 60.0 160.0 L60.0 160.0 Z"></path>
<path fill="#333366" fill-opacity="1.0"  filling="0" d="M115.0 171.0 L80.0 171.0 A1.0 1.0 0.0 0 1 80.0 169.0 L115.0 169.0 A1.0 1.0 0.0 0 1 115.0 171.0 L115.0 171.0 Z"></path>
<path fill="#333366" fill-opacity="1.0"  filling="0" d="M138.0 166.0 L119.0 166.0 A1.0 1.0 0.0 0 1 119.0 163.0 L138.0 163.0 A1.0 1.0 0.0 0 1 138.0 166.0 L138.0 166.0 Z"></path>
<path fill="#333366" fill-opacity="1.0"  filling="0" d="M83.0 166.0 L62.0 166.0 A1.0 1.0 0.0 0 1 62.0 163.0 L83.0 163.0 A1.0 1.0 0.0 0 1 83.0 166.0 L83.0 166.0 Z"></path>
<path fill="#333366" fill-opacity="1.0"  filling="0" d="M138.0 166.0 L119.0 166.0 A1.0 1.0 0.0 0 1 119.0 163.0 L138.0 163.0 A1.0 1.0 0.0 0 1 138.0 166.0 L138.0 166.0 Z"></path>
<path fill="#333366" fill-opacity="1.0"  filling="0" d="M115.0 166.0 L80.0 166.0 A1.0 1.0 0.0 0 1 80.0 163.0 L115.0 163.0 A1.0 1.0 0.0 0 1 115.0 166.0 L115.0 166.0 Z"></path>
<path fill="#7777bb" fill-opacity="1.0"  filling="0" d="M50.0 121.0 C50.0 121.0 22.0 122.0 22.0 133.0 C24.0 143.0 56.0 143.0 56.0 143.0 L50.0 121.0 L50.0 121.0 Z"></path>
<path fill="#333366" fill-opacity="1.0"  filling="0" d="M56.0 144.0 L56.0 144.0 C54.0 144.0 23.0 144.0 20.0 133.0 C21.0 121.0 49.0 120.0 50.0 120.0 A1.0 1.0 0.0 0 1 51.0 121.0 L57.0 142.0 A1.0 1.0 0.0 0 1 57.0 144.0 A1.0 1.0 0.0 0 1 56.0 144.0 L56.0 144.0 Z M47.0 122.0 C41.0 122.0 23.0 124.0 23.0 132.0 C25.0 139.0 45.0 142.0 54.0 142.0 L49.0 122.0 C48.0 122.0 48.0 122.0 47.0 122.0 L47.0 122.0 L47.0 122.0 Z"></path>
<path fill="#7777bb" fill-opacity="1.0"  filling="0" d="M150.0 121.0 C150.0 121.0 178.0 122.0 178.0 133.0 C176.0 143.0 144.0 143.0 144.0 143.0 L150.0 121.0 L150.0 121.0 Z"></path>
<path fill="#333366" fill-opacity="1.0"  filling="0" d="M144.0 144.0 A1.0 1.0 0.0 0 1 143.0 144.0 A1.0 1.0 0.0 0 1 143.0 142.0 L149.0 121.0 A1.0 1.0 0.0 0 1 150.0 120.0 C151.0 120.0 179.0 121.0 180.0 133.0 C177.0 144.0 146.0 144.0 144.0 144.0 L144.0 144.0 L144.0 144.0 Z M151.0 122.0 L146.0 142.0 C155.0 142.0 175.0 139.0 177.0 132.0 C177.0 124.0 159.0 122.0 153.0 122.0 C152.0 122.0 152.0 122.0 151.0 122.0 L151.0 122.0 L151.0 122.0 Z"></path>
<path fill="#7777bb" fill-opacity="1.0"  filling="0" d="M150.0 120.0 C150.0 120.0 142.0 141.0 128.0 141.0 L61.0 141.0 C61.0 141.0 55.0 141.0 53.0 120.0 L150.0 120.0 L150.0 120.0 Z"></path>
<path fill="#333366" fill-opacity="1.0"  filling="0" d="M128.0 142.0 L61.0 142.0 C60.0 142.0 54.0 142.0 52.0 120.0 A1.0 1.0 0.0 0 1 53.0 118.0 L150.0 118.0 A1.0 1.0 0.0 0 1 151.0 120.0 C151.0 120.0 143.0 142.0 128.0 142.0 L128.0 142.0 Z M57.0 121.0 C57.0 130.0 59.0 139.0 61.0 139.0 L128.0 139.0 C135.0 139.0 143.0 130.0 147.0 121.0 L57.0 121.0 L57.0 121.0 Z"></path>
<path fill="#7777bb" fill-opacity="1.0"  filling="0" d="M150.0 120.0 C150.0 120.0 142.0 141.0 128.0 141.0 L61.0 141.0 C61.0 141.0 55.0 141.0 53.0 120.0 L150.0 120.0 L150.0 120.0 Z"></path>
<path fill="#333366" fill-opacity="1.0"  filling="0" d="M128.0 142.0 L61.0 142.0 C60.0 142.0 54.0 142.0 52.0 120.0 A1.0 1.0 0.0 0 1 53.0 118.0 L150.0 118.0 A1.0 1.0 0.0 0 1 151.0 120.0 C151.0 120.0 143.0 142.0 128.0 142.0 L128.0 142.0 Z M57.0 121.0 C57.0 130.0 59.0 139.0 61.0 139.0 L128.0 139.0 C135.0 139.0 143.0 130.0 147.0 121.0 L57.0 121.0 L57.0 121.0 Z"></path>
<path fill="#7777bb" fill-opacity="1.0"  filling="0" d="M150.0 120.0 C150.0 120.0 142.0 141.0 128.0 141.0 L61.0 141.0 C61.0 141.0 55.0 141.0 53.0 120.0 L150.0 120.0 L150.0 120.0 Z"></path>
<path fill="#333366" fill-opacity="1.0"  filling="0" d="M128.0 142.0 L61.0 142.0 C60.0 142.0 54.0 142.0 52.0 120.0 A1.0 1.0 0.0 0 1 53.0 118.0 L150.0 118.0 A1.0 1.0 0.0 0 1 151.0 120.0 C151.0 120.0 143.0 142.0 128.0 142.0 L128.0 142.0 Z M57.0 121.0 C57.0 130.0 59.0 139.0 61.0 139.0 L128.0 139.0 C135.0 139.0 143.0 130.0 147.0 121.0 L57.0 121.0 L57.0 121.0 Z"></path>
<path fill="#7777bb" fill-opacity="1.0"  filling="0" d="M150.0 120.0 C150.0 120.0 142.0 141.0 128.0 141.0 L61.0 141.0 C61.0 141.0 55.0 141.0 53.0 120.0 L150.0 120.0 L150.0 120.0 Z"></path>
<path fill="#333366" fill-opacity="1.0"  filling="0" d="M128.0 142.0 L61.0 142.0 C60.0 142.0 54.0 142.0 52.0 120.0 A1.0 1.0 0.0 0 1 53.0 118.0 L150.0 118.0 A1.0 1.0 0.0 0 1 151.0 120.0 C151.0 120.0 143.0 142.0 128.0 142.0 L128.0 142.0 Z M57.0 121.0 C57.0 130.0 59.0 139.0 61.0 139.0 L128.0 139.0 C135.0 139.0 143.0 130.0 147.0 121.0 L57.0 121.0 L57.0 121.0 Z"></path>
<path fill="#7777bb" fill-opacity="1.0"  filling="0" d="M150.0 120.0 C150.0 120.0 142.0 141.0 128.0 141.0 L61.0 141.0 C61.0 141.0 55.0 141.0 53.0 120.0 L150.0 120.0 L150.0 120.0 Z"></path>
<path fill="#333366" fill-opacity="1.0"  filling="0" d="M128.0 142.0 L61.0 142.0 C60.0 142.0 54.0 142.0 52.0 120.0 A1.0 1.0 0.0 0 1 53.0 118.0 L150.0 118.0 A1.0 1.0 0.0 0 1 151.0 120.0 C151.0 120.0 143.0 142.0 128.0 142.0 L128.0 142.0 Z M57.0 121.0 C57.0 130.0 59.0 139.0 61.0 139.0 L128.0 139.0 C135.0 139.0 143.0 130.0 147.0 121.0 L57.0 121.0 L57.0 121.0 Z"></path>
<path fill="#7777bb" fill-opacity="1.0"  filling="0" d="M150.0 120.0 C150.0 120.0 142.0 141.0 128.0 141.0 L61.0 141.0 C61.0 141.0 55.0 141.0 53.0 120.0 L150.0 120.0 L150.0 120.0 Z"></path>
<path fill="#333366" fill-opacity="1.0"  filling="0" d="M128.0 142.0 L61.0 142.0 C60.0 142.0 54.0 142.0 52.0 120.0 A1.0 1.0 0.0 0 1 53.0 118.0 L150.0 118.0 A1.0 1.0 0.0 0 1 151.0 120.0 C151.0 120.0 143.0 142.0 128.0 142.0 L128.0 142.0 Z M57.0 121.0 C57.0 130.0 59.0 139.0 61.0 139.0 L128.0 139.0 C135.0 139.0 143.0 130.0 147.0 121.0 L57.0 121.0 L57.0 121.0 Z"></path>
<path fill="#7777bb" fill-opacity="1.0"  filling="0" d="M150.0 120.0 C150.0 120.0 142.0 141.0 128.0 141.0 L61.0 141.0 C61.0 141.0 55.0 141.0 53.0 120.0 L150.0 120.0 L150.0 120.0 Z"></path>
<path fill="#333366" fill-opacity="1.0"  filling="0" d="M128.0 142.0 L61.0 142.0 C60.0 142.0 54.0 142.0 52.0 120.0 A1.0 1.0 0.0 0 1 53.0 118.0 L150.0 118.0 A1.0 1.0 0.0 0 1 151.0 120.0 C151.0 120.0 143.0 142.0 128.0 142.0 L128.0 142.0 Z M57.0 121.0 C57.0 130.0 59.0 139.0 61.0 139.0 L128.0 139.0 C135.0 139.0 143.0 130.0 147.0 121.0 L57.0 121.0 L57.0 121.0 Z"></path>
<path fill="#7777bb" fill-opacity="1.0"  filling="0" d="M150.0 120.0 C150.0 120.0 142.0 141.0 128.0 141.0 L61.0 141.0 C61.0 141.0 55.0 141.0 53.0 120.0 L150.0 120.0 L150.0 120.0 Z"></path>
<path fill="#333366" fill-opacity="1.0"  filling="0" d="M128.0 142.0 L61.0 142.0 C60.0 142.0 54.0 142.0 52.0 120.0 A1.0 1.0 0.0 0 1 53.0 118.0 L150.0 118.0 A1.0 1.0 0.0 0 1 151.0 120.0 C151.0 120.0 143.0 142.0 128.0 142.0 L128.0 142.0 Z M57.0 121.0 C57.0 130.0 59.0 139.0 61.0 139.0 L128.0 139.0 C135.0 139.0 143.0 130.0 147.0 121.0 L57.0 121.0 L57.0 121.0 Z"></path>
<path fill="#7777bb" fill-opacity="1.0"  filling="0" d="M150.0 120.0 C150.0 120.0 142.0 141.0 128.0 141.0 L61.0 141.0 C61.0 141.0 55.0 141.0 53.0 120.0 L150.0 120.0 L150.0 120.0 Z"></path>
<path fill="#333366" fill-opacity="1.0"  filling="0" d="M128.0 142.0 L61.0 142.0 C60.0 142.0 54.0 142.0 52.0 120.0 A1.0 1.0 0.0 0 1 53.0 118.0 L150.0 118.0 A1.0 1.0 0.0 0 1 151.0 120.0 C151.0 120.0 143.0 142.0 128.0 142.0 L128.0 142.0 Z M57.0 121.0 C57.0 130.0 59.0 139.0 61.0 139.0 L128.0 139.0 C135.0 139.0 143.0 130.0 147.0 121.0 L57.0 121.0 L57.0 121.0 Z"></path>
<path fill="#7777bb" fill-opacity="1.0"  filling="0" d="M150.0 120.0 C150.0 120.0 142.0 141.0 128.0 141.0 L61.0 141.0 C61.0 141.0 55.0 141.0 53.0 120.0 L150.0 120.0 L150.0 120.0 Z"></path>
<path fill="#000000" fill-opacity="1.0"  filling="0" d="M128.0 142.0 L61.0 142.0 C60.0 142.0 54.0 142.0 52.0 120.0 A1.0 1.0 0.0 0 1 53.0 118.0 L150.0 118.0 A1.0 1.0 0.0 0 1 151.0 120.0 C151.0 120.0 143.0 142.0 128.0 142.0 L128.0 142.0 Z M57.0 121.0 C57.0 130.0 59.0 139.0 61.0 139.0"></path></svg>