<svg xmlns="http://www.w3.org/2000/svg" viewBox="0.0 0.0 200.0 200.0" height="200px" width="200px"><path fill="#6677bb" fill-opacity="1.0"  filling="0" d="M150.0 121.0 C150.0 121.0 150.0 121.0 150.0 121.0 L53.0 121.0 C51.0 121.0 49.0 120.0 48.0 119.0 C46.0 117.0 45.0 115.0 45.0 113.0 C45.0 108.0 49.0 104.0 53.0 104.0 L150.0 104.0 C154.0 104.0 158.0 108.0 158.0 113.0 C158.0 117.0 154.0 121.0 150.0 121.0 L150.0 121.0 Z"></path>
<path fill="#445588" fill-opacity="1.0"  filling="0" d="M150.0 121.0 L53.0 121.0 C51.0 121.0 49.0 120.0 48.0 119.0 C47.0 118.0 46.0 116.0 46.0 115.0 L158.0 115.0 C157.0 118.0 154.0 121.0 150.0 121.0 L150.0 121.0 Z"></path>
<path fill="#6677bb" fill-opacity="1.0"  filling="0" d="M50.0 104.0 C47.0 104.0 44.0 107.0 44.0 110.0 C44.0 110.0 44.0 110.0 44.0 110.0 C44.0 110.0 44.0 110.0 44.0 110.0 C44.0 113.0 47.0 116.0 50.0 116.0 L150.0 116.0 C153.0 116.0 156.0 113.0 156.0 110.0 C156.0 110.0 156.0 110.0 156.0 110.0 C156.0 110.0 156.0 110.0 156.0 110.0 C156.0 107.0 153.0 104.0 150.0 104.0 L50.0 104.0 L50.0 104.0 L50.0 104.0 Z"></path>
<path fill="#445588" fill-opacity="1.0"  filling="0" d="M156.0 110.0 C156.0 113.0 153.0 116.0 150.0 116.0 L50.0 116.0 C47.0 116.0 44.0 113.0 44.0 110.0 C44.0 107.0 47.0 104.0 50.0 104.0 L150.0 104.0 C153.0 104.0 156.0 107.0 156.0 110.0 L156.0 110.0 Z"></path>
<path fill="#000000" fill-opacity="1.0"  filling="0" d="M67.0 104.0 C66.0 104.0 66.0 104.0 66.0 104.0 C66.0 104.0 66.0 104.0 66.0 104.0 C66.0 103.0 66.0 103.0 66.0 103.0 C66.0 103.0 66.0 103.0 66.0 103.0 C66.0 103.0 66.0 103.0 66.0 103.0 C66.0 103.0 66.0 103.0 66.0 103.0 C66.0 103.0 66.0 103.0 66.0 103.0 C66.0 103.0 66.0 103.0 66.0 103.0 C66.0 103.0 66.0 103.0 66.0 103.0 C66.0 103.0 66.0 103.0 66.0 103.0 C66.0 103.0 66.0 103.0 66.0 103.0 C66.0 103.0 66.0 103.0 66.0 103.0 C66.0 103.0 66.0 103.0 66.0 103.0 C66.0 103.0 66.0 103.0 66.0 103.0 C66.0 103.0 66.0 103.0 66.0 103.0 C66.0 103.0 66.0 103.0 66.0 103.0 C66.0 103.0 66.0 103.0 66.0 103.0 C66.0 103.0 66.0 103.0 66.0 103.0 C66.0 103.0 66.0 103.0 66.0 103.0 C66.0 103.0 66.0 103.0 66.0 103.0 C66.0 103.0 66.0 103.0 66.0 103.0 C66.0 103.0 66.0 103.0 66.0 103.0 C66.0 103.0 66.0 103.0 66.0 103.0 C66.0 103.0 66.0 103.0 66.0 103.0 C66.0 103.0 66.0 103.0 66.0 103.0 C66.0 103.0 66.0 103.0 66.0 103.0 C66.0 103.0 66.0 103.0 66.0 103.0 C66.0 103.0 66.0 103.0 66.0 103.0 C66.0 103.0 66.0 103.0 66.0 103.0 C66.0 103.0 66.0 103.0 66.0 103.0 C66.0 103.0 66.0 103.0 66.0 103.0 C66.0 103.0 66.0 103.0 66.0 103.0 C66.0 103.0 66.0 103.0 66.0 103.0 C66.0 103.0 66.0 103.0 66.0 103.0 C66.0 103.0 66.0 103.0 66.0 103.0 C66.0 103.0 66.0 103.0 66.0 103.0 C66.0 103.0 66.0 103.0 66.0 103.0 C66.0 103.0 66.0 103.0 66.0 103.0 C66.0 103.0 66.0 103.0 66.0 103.0 C66.0 103.0 66.0 103.0 66.0 103.0 C66.0 103.0 66.0 103.0 66.0 103.0 C66.0 103.0 66.0 103.0 66.0 103.0 C66.0 103.0 66.0 103.0 66.0 103.0 C66.0 103.0 66.0 103.0 66.0 103.0 C66.0 103.0 66.0 103.0 66.0 103.0 C66.0 103.0 66.0 103.0 66.0 103.0 C66.0 103.0 66.0 103.0 66.0 103.0 C66.0 103.0 66.0 103.0 66.0 103.0 C66.0 103.0 66.0 103.0 66.0 103.0 C66.0 103.0 66.0 103.0 66.0 103.0 C66.0 103.0 66.0 103.0 66.0 103.0 C66.0 103.0 66.0 103.0 66.0 103.0 C66.0 103.0 66.0 103.0 66.0 103.0 C66.0 103.0 66.0 103.0 66.0 103.0 C66.0 103.0 66.0 103.0 66.0 103.0 C66.0 103.0 66.0 103.0 66.0 103.0 C66.0 103.0 66.0 103.0 66.0 103.0 C66.0 103.0 66.0 103.0 66.0 103.0 C66.0 103.0 66.0 103.0 66.0 103.0 C66.0 103.0 66.0 103.0 66.0 103.0 C66.0 103.0 66.0 103.0 66.0 103.0 C66.0 103.0 66.0 103.0 66.0 103.0 C66.0 103.0 66.0 103.0 66.0 103.0 C66.0 103.0 66.0 103.0 66.0 103.0 C66.0 103.0 66.0 103.0 66.0 103.0 C66.0 103.0 66.0 103.0 66.0 103.0 C66.0 103.0 66.0 103.0 66.0 103.0 C66.0 103.0 66.0 103.0 66.0 103.0 C66.0 103.0 66.0 103.0 66.0 103.0 C66.0 103.0 66.0 103.0 66.0 103.0 C66.0 103.0 66.0 103.0 66.0 103.0 C66.0 103.0 66.0 103.0 66.0 103.0 C66.0 103.0 66.0 103.0 66.0 103.0 C66.0 103.0 66.0 103.0 66.0 103.0 C66.0 103.0 66.0 103.0 66.0 103.0 C66.0 103.0 66.0 103.0 66.0 103.0 C66.0 103.0 66.0 103.0 66.0 103.0 C66.0 103.0 66.0 103.0 66.0 103.0 C66.0 103.0 66.0 103.0 66.0 103.0 C66.0 103.0 66.0 103.0 66.0 103.0 C66.0 103.0 66.0 103.0 66.0 103.0 C66.0 103.0 66.0 103.0 66.0 103.0 C66.0 103.0 66.0 103.0 66.0 103.0 C66.0 103.0 66.0 103.0 66.0 103.0 C66.0 103.0 66.0 103.0 66.0 103.0 C66.0 103.0 66.0 103.0 66.0 103.0 C66.0 103.0 66.0 103.0 66.0 103.0 C66.0 103.0 66.0 103.0 66.0 103.0 C66.0 103.0 66.0 103.0 66.0 103.0 C66.0 103.0 66.0 103.0 66.0 103.0 C66.0 103.0 66.0 103.0 66.0 103.0 C66.0 103.0 66.0 103.0 66.0 103.0 C66.0 103.0 66.0 103.0 66.0 103.0 C66.0 103.0 66.0 103.0 66.0 103.0 C66.0 103.0 66.0 103.0 66.0 103.0 C66.0 103.0 66.0 103.0 66.0 103.0 C66.0 103.0 66.0 103.0 66.0 103.0 C66.0 103.0 66.0 103.0 66.0 103.0 C66.0 103.0 66.0 103.0 66.0 103.0 C66.0 103.0 66.0 103.0 66.0 103.0 C66.0 103.0 66.0 103.0 66.0 103.0 C66.0 103.0 66.0 103.0 66.0 103.0 C66.0 103.0 66.0 103.0 66.0 103.0 C66.0 103.0 66.0 103.0 66.0 103.0 C66.0 103.0 66.0 103.0 66.0 103.0 C66.0 103.0 66.0 103.0 66.0 103.0 C66.0 103.0 66.0 103.0 66.0 103.0 C66.0 103.0 66.0 103.0 66.0 103.0 C66.0 103.0 66.0 103.0 66.0 103.0 C66.0 103.0 66.0 103.0 66.0 103.0 C66.0 103.0 66.0 103.0 66.0 103.0 C66.0 103.0 66.0 103.0 66.0 103.0 C66.0 103.0 66.0 103.0 66.0 103.0 C66.0 103.0 66.0 103.0 66.0 103.0 C66.0 103.0 66.0 103.0 66.0 103.0 C66.0 103.0 66.0 103.0 66.0 103.0 C66.0 103.0 66.0 103.0 66.0 103.0 C66.0 103.0 66.0 103.0 66.0 103.0 C66.0 103.0 66.0 103.0 66.0 103.0 C66.0 103.0 66.0 103.0 66.0 103.0 C66.0 103.0 66.0 103.0 66.0 103.0 C66.0 103.0 66.0 103.0 66.0 103.0 C66.0 103.0 66.0 103.0 66.0 103.0 C66.0 103.0 66.0 103.0 66.0 103.0 C66.0 103.0 66.0 103.0 66.0 103.0 C66.0 103.0 66.0 103.0 66.0 103.0 C66.0 103.0 66.0 103.0 66.0 103.0 C66.0 103.0 66.0 103.0 66.0 103.0 C66.0 103.0 66.0 103.0 66.0 103.0 C66.0 103.0 66.0 103.0 66.0 103.0 C66.0 103.0 66.0 103.0 66.0 103.0 C66.0 103.0 66.0 103.0 66.0 103.0 C66.0 103.0 66.0 103.0 66.0 103.0 C66.0 103.0 66.0 103.0 66.0 103.0 C66.0 103.0 66.0 103.0 66.0 103.0 C66.0 103.0 66.0 103.0 66.0 103.0 C66.0 103.0 66.0 103.0 66.0 103.0 C66.0 103.0 66.0 103.0 66.0 103.0 C66.0 103.0 66.0 103.0 66.0 103.0 C66.0 103.0 66.0 103.0 66.0 103.0 C66.0 103.0 66.0 103.0 66.0 103.0 C66.0 103.0 66.0 103.0 66.0 103.0 C66.0 103.0 66.0 103.0 66.0 103.0 C66.0 103.0 66.0 103.0 66.0 103.0 C66.0 103.0 66.0 103.0 66.0 103.0 C66.0 103.0 66.0 103.0 66.0 103.0 C66.0 103.0 66.0 103.0 66.0 103.0 C66.0 103.0 66.0 103.0 66.0 103.0 C66.0 103.0 66.0 103.0 66.0 103.0 C66.0 103.0 66.0 103.0 66.0 103.0 C66.0 103.0 66.0 103.0 66.0 103.0 C66.0 103.0 66.0 103.0 66.0 103.0 C66.0 103.0 66.0 103.0 66.0 103.0 C66.0 103.0 66.0 103.0 66.0 103.0 C66.0 103.0 66.0 103.0 66.0 103.0 C66.0 103.0 66.0 103.0 66.0 103.0 C66.0 103.0 66.0 103.0 66.0 103.0 C66.0 103.0 66.0 103.0 66.0 103.0 C66.0 103.0 66.0 103.0 66.0 103.0 C66.0 103.0 66.0 103.0 66.0 103.0 C66.0 103.0 66.0 103.0 66.0 103.0 C66.0 103.0 66.0 103.0 66.0 103.0 C66.0 103.0 66.0 103.0 66.0 103.0 C66.0 103.0 66.0 103.0 66.0 103.0 C66.0 103.0 66.0 103.0 66.0 103.0 C66.0 103.0 66.0 103.0 66.0 103.0 C66.0 103.0 66.0 103.0 66.0 103.0 C66.0 103.0 66.0 103.0 66.0 103.0 C66.0 103.0 66.0 103.0 66.0 103.0 C66.0 103.0 66.0 103.0 66.0 103.0 C66.0 103.0 66.0 103.0 66.0 103.0 C66.0 103.0 66.0 103.0 66.0 103.0 C66.0 103.0 66.0 103.0 66.0 103.0 C66.0 103.0 66.0 103.0 66.0 103.0 C66.0 103.0 66.0 103.0 66.0 103.0 C66.0 103.0 66.0 103.0 66.0 103.0 C66.0 103.0 66.0 103.0 66.0 103.0 C66.0 103.0 66.0 103.0 66.0 103.0 C66.0 103.0 66.0 103.0 66.0 103.0 C66.0 103.0 66.0 103.0 66.0 103.0 C66.0 103.0 66.0 103.0 66.0 103.0 C66.0 103.0 66.0 103.0 66.0 103.0 C66.0 103.0 66.0 103.0 66.0 103.0 C66.0 103.0 66.0 103.0 66.0 103.0 C66.0 103.0 66.0 103.0 66.0 103.0 C66.0 103.0 66.0 103.0 66.0 103.0 C66.0 103.0 66.0 103.0 66.0 103.0 C66.0 103.0 66.0 103.0 66.0 103.0 C66.0 103.0 66.0 103.0 66.0 103.0 C66.0 103.0 66.0 103.0 66.0 103.0 C66.0 103.0 66.0 103.0 66.0 103.0 C66.0 103.0 66.0 103.0 66.0 103.0 C66.0 103.0 66.0 103.0 66.0 103.0 C66.0 103.0 66.0 103.0 66.0 103.0 C66.0 103.0 66.0 103.0 66.0 103.0 C66.0 103.0 66.0 103.0 66.0 103.0 C66.0 103.0 66.0 103.0 66.0 103.0 C66.0 103.0 66.0 103.0 66.0 103.0 C66.0 103.0 66.0 103.0 66.0 103.0 C66.0 103.0 66.0 103.0 66.0 103.0 C66.0 103.0 66.0 103.0 66.0 103.0 C66.0 103.0 66.0 103.0 66.0 103.0 C66.0 103.0 66.0 103.0 66.0 103.0 C66.0 103.0 66.0 103.0 66.0 103.0 C66.0 103.0 66.0 103.0 66.0 103.0 C66.0 103.0 66.0 103.0 66.0 103.0 C66.0 103.0 66.0 103.0 66.0 103.0 C66.0 103.0 66.0 103.0 66.0 103.0 C66.0 103.0 66.0 103.0 66.0 103.0 C66.0 103.0 66.0 103.0 66.0 103.0 C66.0 103.0 66.0 103.0 66.0 103.0 C66.0 103.0 66.0 103.0 66.0 103.0 C66.0 103.0 66.0 103.0 66.0 103.0 C66.0 103.0 66.0 103.0 66.0 103.0 C66.0 103.0 66.0 103.0 66.0 103.0 C66.0 103.0 66.0 103.0 66.0 103.0 C66.0 103.0 66.0 103.0 66.0 103.0 C66.0 103.0 66.0 103.0 66.0 103.0 C66.0 103.0 66.0 103.0 66.0 103.0 C66.0 103.0 66.0 103.0 66.0 103.0 C66.0 103.0 66.0 103.0 66.0 103.0 C66.0 103.0 66.0 103.0 66.0 103.0 C66.0 103.0 66.0 103.0 66.0 103.0 C66.0 103.0 66.0 103.0 66.0 103.0 C66.0 103.0 66.0 103.0 66.0 103.0 C66.0 103.0 66.0 103.0 66.0 103.0 C66.0 103.0 66.0 103.0 66.0 103.0 C66.0 103.0 66.0 103.0 66.0 103.0 C66.0 103.0 66.0 103.0 66.0 103.0 C66.0 103.0 66.0 103.0 66.0 103.0 C66.0 103.0 66.0 103.0 66.0 103.0 C66.0 103.0 66.0 103.0 66.0 103.0 C66.0 103.0 66.0 103.0 66.0 103.0 C66.0 103.0 66.0 103.0 66.0 103.0 C66.0 103.0 66.0 103.0 66.0 103.0 C66.0 103.0 66.0 103.0 66.0 103.0 C66.0 103.0 66.0 103.0 66.0 103.0 C66.0 103.0 66.0 103.0 66.0 103.0 C66.0 103.0 66.0 103.0 66.0 103.0 C66.0 103.0 66.0 103.0 66.0 103.0 C66.0 103.0 66.0 103.0 66.0 103.0 C66.0 103.0 66.0 103.0 66.0 103.0 C66.0 103.0 66.0 103.0 66.0 103.0 C66.0 103.0 66.0 103.0 66.0 103.0 C66.0 103.0 66.0 103.0 66.0 103.0 C66.0 103.0 66.0 103.0 66.0 103.0 C66.0 103.0 66.0 103.0 66.0 103.0 C66.0 103.0 66.0 103.0 66.0 103.0 C66.0 103.0 66.0 103.0 66.0 103.0 C66.0 103.0 66.0 103.0 66.0 103.0 C66.0 103.0 66.0 103.0 66.0 103.0 C66.0 103.0 66.0 103.0 66.0 103.0 C66.0 103.0 66.0 103.0 66.0 103.0 C66.0 103.0 66.0 103.0 66.0 103.0 C66.0 103.0 66.0 103.0 66.0 103.0 C66.0 103.0 66.0 103.0 66.0 103.0 C66.0 103.0 66.0 103.0 66.0 103.0 C66.0 103.0 66.0 103.0 66.0 103.0 C66.0 103.0 66.0 103.0 66.0 103.0 C66.0 103.0 66.0 103.0 66.0 103.0 C66.0 103.0 66.0 103.0 66.0 103.0 C66.0 103.0 66.0 103.0 66.0 103.0 C66.0 103.0 66.0 103.0 66.0 103.0 C66.0 103.0 66.0 103.0 66.0 103.0 C66.0 103.0 66.0 103.0 66.0 103.0 C66.0 103.0 66.0 103.0 66.0 103.0 C66.0 103.0 66.0 103.0 66.0 103.0 C66.0 103.0 66.0 103.0 66.0 103.0 C66.0 103.0 66.0 103.0 66.0 103.0 C66.0 103.0 66.0 103.0 66.0 103.0 C66.0 103.0 66.0 103.0 66.0 103.0 C66.0 103.0 66.0 103.0 66.0 103.0 C66.0 103.0 66.0 103.0 66.0 103.0 C66.0 103.0 66.0 103.0 66.0 103.0 C66.0 103.0 66.0 103.0 66.0 103.0 C66.0 103.0 66.0 103.0 66.0 103.0 C66.0 103.0 66.0 103.0 66.0 103.0 C66.0 103.0 66.0 103.0 66.0 103.0 C66.0 103.0 66.0 103.0 66.0 103.0 C66.0 103.0 66.0 103.0 66.0 103.0 C66.0 103.0 66.0 103.0 66.0 103.0 C66.0 103.0 66.0 103.0 66.0 103.0 C66.0 103.0 66.0 103.0 66.0 103.0 C66.0 103.0 66.0 103.0 66.0 103.0 C66.0 103.0 66.0 103.0 66.0 103.0 C66.0 103.0 66.0 103.0 66.0 103.0 C66.0 103.0 66.0 103.0 66.0 103.0 C66.0 103.0 66.0 103.0 66.0 103.0 C66.0 103.0 66.0 103.0 66.0 103.0 C66.0 103.0 66.0 103.0 66.0 103.0 C66.0 103.0 66.0 103.0 66.0 103.0 C66.0 103.0 66.0 103.0 66.0 103.0 C66.0 103.0 66.0 103.0 66.0 103.0 C66.0 103.0 66.0 103.0 66.0 103.0 C66.0 103.0 66.0 103.0 66.0 103.0 C66.0 103.0 66.0 103.0 66.0 103.0 C66.0 103.0 66.0 103.0 66.0 103.0 C66.0 103.0 66.0 103.0 66.0 103.0 C66.0 103.0 66.0 103.0 66.0 103.0 C66.0 103.0 66.0 103.0 66.0 103.0 C66.0 103.0 66.0 103.0 66.0 103.0 C66.0 103.0 66.0 103.0 66.0 103.0 C66.0 103.0 66.0 103.0 66.0 103.0 C66.0 103.0 66.0 103.0 66.0 103.0 C66.0 103.0 66.0 103.0 66.0 103.0 C66.0 103.0 66.0 103.0 66.0 103.0 C66.0 103.0 66.0 103.0 66.0 103.0 C66.0 103.0 66.0 103.0 66.0 103.0 C66.0 103.0 66.0 103.0 66.0 103.0 C66.0 103.0 66.0 103.0 66.0 103.0 C66.0 103.0 66.0 103.0 66.0 103.0 C66.0 103.0 66.0 103.0 66.0 103.0 C66.0 103.0 66.0 103.0 66.0 103.0 C66.0 103.0 66.0 103.0 66.0 103.0 C66.0 103.0 66.0 103.0 66.0 103.0 C66.0 103.0 66.0 103.0 66.0 103.0 C66.0 103.0 66.0 103.0 66.0 103.0 C66.0 103.0 66.0 103.0 66.0 103.0 C66.0 103.0 66.0 103.0 66.0 103.0 C66.0 103.0 66.0 103.0 66.0 103.0 C66.0 103.0 66.0 103.0 66.0 103.0 C66.0 103.0 66.0 103.0 66.0 103.0 C66.0 103.0 66.0 103.0 66.0 103.0 C66.0 103.0 66.0 103.0 66.0 103.0 C66.0 103.0 66.0 103.0 66.0 103.0 C66.0 103.0 66.0 103.0 66.0 103.0 C66.0 103.0 66.0 103.0 66.0 103.0 C66.0 103.0 66.0 103.0 66.0 103.0 C66.0 103.0 66.0 103.0 66.0 103.0 C66.0 103.0 66.0 103.0 66.0 103.0 C66.0 103.0 66.0 103.0 66.0 103.0 C66.0 103.0 66.0 103.0 66.0 103.0 C66.0 103.0 66.0 103.0 66.0 103.0 C66.0 103.0 66.0 103.0 66.0 103.0 C66.0 103.0 66.0 103.0 66.0 103.0 C66.0 103.0 66.0 103.0 66.0 103.0 C66.0 103.0 66.0 103.0 66.0 103.0 C66.0 103.0 66.0 103.0 66.0 103.0 C66.0 103.0 66.0 103.0 66.0 103.0 C66.0 103.0 66.0 103.0 66.0 103.0 C66.0 103.0 66.0 103.0 66.0 103.0 C66.0 103.0 66.0 103.0 66.0 103.0 C66.0 103.0 66.0 103.0 66.0 103.0"></path></svg>