<svg xmlns="http://www.w3.org/2000/svg" viewBox="0.0 0.0 200.0 200.0" height="200px" width="200px"><path fill="#000000" fill-opacity="1.0"  filling="0" d="M150.0 121.0 C150.0 121.0 150.0 121.0 150.0 121.0 L53.0 121.0 C52.0 121.0 52.0 121.0 52.0 121.0 C51.0 121.0 50.0 121.0 49.0 120.0 C48.0 120.0 48.0 119.0 47.0 118.0 C47.0 118.0 46.0 117.0 46.0 116.0 C45.0 115.0 44.0 115.0 43.0 115.0 C42.0 114.0 41.0 114.0 40.0 114.0 C39.0 114.0 38.0 114.0 37.0 114.0 C36.0 114.0 35.0 114.0 34.0 115.0 C33.0 115.0 32.0 115.0 31.0 116.0 C30.0 116.0 29.0 117.0 28.0 118.0 C27.0 118.0 27.0 119.0 26.0 120.0 C25.0 120.0 24.0 121.0 24.0 122.0 C23.0 123.0 23.0 124.0 22.0 125.0 C22.0 126.0 22.0 127.0 22.0 128.0 C21.0 129.0 21.0 130.0 21.0 131.0 C21.0 132.0 22.0 133.0 22.0 134.0 C22.0 135.0 23.0 136.0 23.0 137.0 C24.0 138.0 24.0 138.0 25.0 139.0 C26.0 140.0 26.0 141.0 27.0 141.0 C28.0 142.0 28.0 143.0 29.0 143.0 C30.0 144.0 30.0 144.0 31.0 145.0 C32.0 145.0 33.0 146.0 34.0 146.0 C35.0 146.0 36.0 146.0 37.0 147.0 C38.0 147.0 39.0 147.0 40.0 147.0 C41.0 148.0 42.0 148.0 43.0 148.0 C44.0 148.0 45.0 148.0 46.0 147.0 C47.0 147.0 48.0 147.0 49.0 147.0 C50.0 146.0 51.0 146.0 52.0 146.0 C53.0 146.0 54.0 145.0 55.0 145.0 C56.0 144.0 57.0 144.0 58.0 143.0 C59.0 143.0 59.0 142.0 60.0 141.0 C61.0 141.0 62.0 140.0 63.0 139.0 C63.0 138.0 64.0 138.0 65.0 137.0 C65.0 136.0 66.0 135.0 66.0 134.0 C67.0 133.0 67.0 132.0 67.0 131.0 C68.0 130.0 68.0 129.0 68.0 128.0 C68.0 127.0 68.0 126.0 67.0 125.0 C67.0 124.0 67.0 123.0 66.0 122.0 C66.0 121.0 65.0 120.0 65.0 120.0 C64.0 119.0 63.0 118.0 62.0 118.0 C62.0 117.0 61.0 116.0 60.0 116.0 C59.0 115.0 59.0 115.0 58.0 115.0 C58.0 114.0 58.0 114.0 58.0 114.0 L148.0 114.0 C148.0 114.0 148.0 114.0 148.0 114.0 C149.0 114.0 149.0 114.0 149.0 115.0 C149.0 115.0 149.0 115.0 149.0 115.0 C149.0 115.0 149.0 115.0 149.0 115.0 C149.0 115.0 149.0 115.0 149.0 115.0 C149.0 115.0 149.0 115.0 149.0 115.0 C149.0 115.0 149.0 115.0 149.0 115.0 C149.0 115.0 149.0 115.0 149.0 115.0 C149.0 115.0 149.0 115.0 149.0 115.0 C149.0 115.0 149.0 115.0 149.0 115.0 C149.0 115.0 149.0 115.0 149.0 115.0 C149.0 115.0 149.0 115.0 149.0 115.0 C149.0 115.0 149.0 115.0 149.0 115.0 C149.0 115.0 149.0 115.0 149.0 115.0 C149.0 115.0 149.0 115.0 149.0 115.0 C149.0 115.0 149.0 115.0 149.0 115.0 C149.0 115.0 149.0 115.0 149.0 115.0 C149.0 115.0 149.0 115.0 149.0 115.0 C149.0 115.0 149.0 115.0 149.0 115.0 C149.0 115.0 149.0 115.0 149.0 115.0 C149.0 115.0 149.0 115.0 149.0 115.0 C149.0 115.0 149.0 115.0 149.0 115.0 C149.0 115.0 149.0 115.0 149.0 115.0 C149.0 115.0 149.0 115.0 149.0 115.0 C149.0 115.0 149.0 115.0 149.0 115.0 C149.0 115.0 149.0 115.0 149.0 115.0 C149.0 115.0 149.0 115.0 149.0 115.0 C149.0 115.0 149.0 115.0 149.0 115.0 C149.0 115.0 149.0 115.0 149.0 115.0 C149.0 115.0 149.0 115.0 149.0 115.0 C149.0 115.0 149.0 115.0 149.0 115.0 C149.0 115.0 149.0 115.0 149.0 115.0 C149.0 115.0 149.0 115.0 149.0 115.0 C149.0 115.0 149.0 115.0 149.0 115.0 C149.0 115.0 149.0 115.0 149.0 115.0 C149.0 115.0 149.0 115.0 149.0 115.0 C149.0 115.0 149.0 115.0 149.0 115.0 C149.0 115.0 149.0 115.0 149.0 115.0 C149.0 115.0 149.0 115.0 149.0 115.0 C149.0 115.0 149.0 115.0 149.0 115.0 C149.0 115.0 149.0 115.0 149.0 115.0 C149.0 115.0 149.0 115.0 149.0 115.0 C149.0 115.0 149.0 115.0 149.0 115.0 C149.0 115.0 149.0 115.0 149.0 115.0 C149.0 115.0 149.0 115.0 149.0 115.0 C149.0 115.0 149.0 115.0 149.0 115.0 C149.0 115.0 149.0 115.0 149.0 115.0 C149.0 115.0 149.0 115.0 149.0 115.0 C149.0 115.0 149.0 115.0 149.0 115.0 C149.0 115.0 149.0 115.0 149.0 115.0 C149.0 115.0 149.0 115.0 149.0 115.0 C149.0 115.0 149.0 115.0 149.0 115.0 C149.0 115.0 149.0 115.0 149.0 115.0 C149.0 115.0 149.0 115.0 149.0 115.0 C149.0 115.0 149.0 115.0 149.0 115.0 C149.0 115.0 149.0 115.0 149.0 115.0 C149.0 115.0 149.0 115.0 149.0 115.0 C149.0 115.0 149.0 115.0 149.0 115.0 C149.0 115.0 149.0 115.0 149.0 115.0 C149.0 115.0 149.0 115.0 149.0 115.0 C149.0 115.0 149.0 115.0 149.0 115.0 C149.0 115.0 149.0 115.0 149.0 115.0 C149.0 115.0 149.0 115.0 149.0 115.0 C149.0 115.0 149.0 115.0 149.0 115.0 C149.0 115.0 149.0 115.0 149.0 115.0 C149.0 115.0 149.0 115.0 149.0 115.0 C149.0 115.0 149.0 115.0 149.0 115.0 C149.0 115.0 149.0 115.0 149.0 115.0 C149.0 115.0 149.0 115.0 149.0 115.0 C149.0 115.0 149.0 115.0 149.0 115.0 C149.0 115.0 149.0 115.0 149.0 115.0 C149.0 115.0 149.0 115.0 149.0 115.0 C149.0 115.0 149.0 115.0 149.0 115.0 C149.0 115.0 149.0 115.0 149.0 115.0 C149.0 115.0 149.0 115.0 149.0 115.0 C149.0 115.0 149.0 115.0 149.0 115.0 C149.0 115.0 149.0 115.0 149.0 115.0 C149.0 115.0 149.0 115.0 149.0 115.0 C149.0 115.0 149.0 115.0 149.0 115.0 C149.0 115.0 149.0 115.0 149.0 115.0 C149.0 115.0 149.0 115.0 149.0 115.0 C149.0 115.0 149.0 115.0 149.0 115.0 C149.0 115.0 149.0 115.0 149.0 115.0 C149.0 115.0 149.0 115.0 149.0 115.0 C149.0 115.0 149.0 115.0 149.0 115.0 C149.0 115.0 149.0 115.0 149.0 115.0 C149.0 115.0 149.0 115.0 149.0 115.0 C149.0 115.0 149.0 115.0 149.0 115.0 C149.0 115.0 149.0 115.0 149.0 115.0 C149.0 115.0 149.0 115.0 149.0 115.0 C149.0 115.0 149.0 115.0 149.0 115.0 C149.0 115.0 149.0 115.0 149.0 115.0 C149.0 115.0 149.0 115.0 149.0 115.0 C149.0 115.0 149.0 115.0 149.0 115.0 C149.0 115.0 149.0 115.0 149.0 115.0 C149.0 115.0 149.0 115.0 149.0 115.0 C149.0 115.0 149.0 115.0 149.0 115.0 C149.0 115.0 149.0 115.0 149.0 115.0 C149.0 115.0 149.0 115.0 149.0 115.0 C149.0 115.0 149.0 115.0 149.0 115.0 C149.0 115.0 149.0 115.0 149.0 115.0 C149.0 115.0 149.0 115.0 149.0 115.0 C149.0 115.0 149.0 115.0 149.0 115.0 C149.0 115.0 149.0 115.0 149.0 115.0 C149.0 115.0 149.0 115.0 149.0 115.0 C149.0 115.0 149.0 115.0 149.0 115.0 C149.0 115.0 149.0 115.0 149.0 115.0 C149.0 115.0 149.0 115.0 149.0 115.0 C149.0 115.0 149.0 115.0 149.0 115.0 C149.0 115.0 149.0 115.0 149.0 115.0 C149.0 115.0 149.0 115.0 149.0 115.0 C149.0 115.0 149.0 115.0 149.0 115.0 C149.0 115.0 149.0 115.0 149.0 115.0 C149.0 115.0 149.0 115.0 149.0 115.0 C149.0 115.0 149.0 115.0 149.0 115.0 C149.0 115.0 149.0 115.0 149.0 115.0 C149.0 115.0 149.0 115.0 149.0 115.0 C149.0 115.0 149.0 115.0 149.0 115.0 C149.0 115.0 149.0 115.0 149.0 115.0 C149.0 115.0 149.0 115.0 149.0 115.0 C149.0 115.0 149.0 115.0 149.0 115.0 C149.0 115.0 149.0 115.0 149.0 115.0 C149.0 115.0 149.0 115.0 149.0 115.0 C149.0 115.0 149.0 115.0 149.0 115.0 C149.0 115.0 149.0 115.0 149.0 115.0 C149.0 115.0 149.0 115.0 149.0 115.0 C149.0 115.0 149.0 115.0 149.0 115.0 C149.0 115.0 149.0 115.0 149.0 115.0 C149.0 115.0 149.0 115.0 149.0 115.0 C149.0 115.0 149.0 115.0 149.0 115.0 C149.0 115.0 149.0 115.0 149.0 115.0 C149.0 115.0 149.0 115.0 149.0 115.0 C149.0 115.0 149.0 115.0 149.0 115.0 C149.0 115.0 149.0 115.0 149.0 115.0 C149.0 115.0 149.0 115.0 149.0 115.0 C149.0 115.0 149.0 115.0 149.0 115.0 C149.0 115.0 149.0 115.0 149.0 115.0 C149.0 115.0 149.0 115.0 149.0 115.0 C149.0 115.0 149.0 115.0 149.0 115.0 C149.0 115.0 149.0 115.0 149.0 115.0 C149.0 115.0 149.0 115.0 149.0 115.0 C149.0 115.0 149.0 115.0 149.0 115.0 C149.0 115.0 149.0 115.0 149.0 115.0 C149.0 115.0 149.0 115.0 149.0 115.0 C149.0 115.0 149.0 115.0 149.0 115.0 C149.0 115.0 149.0 115.0 149.0 115.0 C149.0 115.0 149.0 115.0 149.0 115.0 C149.0 115.0 149.0 115.0 149.0 115.0 C149.0 115.0 149.0 115.0 149.0 115.0 C149.0 115.0 149.0 115.0 149.0 115.0 C149.0 115.0 149.0 115.0 149.0 115.0 C149.0 115.0 149.0 115.0 149.0 115.0 C149.0 115.0 149.0 115.0 149.0 115.0 C149.0 115.0 149.0 115.0 149.0 115.0 C149.0 115.0 149.0 115.0 149.0 115.0 C149.0 115.0 149.0 115.0 149.0 115.0 C149.0 115.0 149.0 115.0 149.0 115.0 C149.0 115.0 149.0 115.0 149.0 115.0 C149.0 115.0 149.0 115.0 149.0 115.0 C149.0 115.0 149.0 115.0 149.0 115.0 C149.0 115.0 149.0 115.0 149.0 115.0 C149.0 115.0 149.0 115.0 149.0 115.0 C149.0 115.0 149.0 115.0 149.0 115.0 C149.0 115.0 149.0 115.0 149.0 115.0 C149.0 115.0 149.0 115.0 149.0 115.0 C149.0 115.0 149.0 115.0 149.0 115.0 C149.0 115.0 149.0 115.0 149.0 115.0 C149.0 115.0 149.0 115.0 149.0 115.0 C149.0 115.0 149.0 115.0 149.0 115.0 C149.0 115.0 149.0 115.0 149.0 115.0 C149.0 115.0 149.0 115.0 149.0 115.0 C149.0 115.0 149.0 115.0 149.0 115.0 C149.0 115.0 149.0 115.0 149.0 115.0 C149.0 115.0 149.0 115.0 149.0 115.0 C149.0 115.0 149.0 115.0 149.0 115.0 C149.0 115.0 149.0 115.0 149.0 115.0 C149.0 115.0 149.0 115.0 149.0 115.0 C149.0 115.0 149.0 115.0 149.0 115.0 C149.0 115.0 149.0 115.0 149.0 115.0 C149.0 115.0 149.0 115.0 149.0 115.0 C149.0 115.0 149.0 115.0 149.0 115.0 C149.0 115.0 149.0 115.0 149.0 115.0 C149.0 115.0 149.0 115.0 149.0 115.0 C149.0 115.0 149.0 115.0 149.0 115.0 C149.0 115.0 149.0 115.0 149.0 115.0 C149.0 115.0 149.0 115.0 149.0 115.0 C149.0 115.0 149.0 115.0 149.0 115.0 C149.0 115.0 149.0 115.0 149.0 115.0 C149.0 115.0 149.0 115.0 149.0 115.0 C149.0 115.0 149.0 115.0 149.0 115.0 C149.0 115.0 149.0 115.0 149.0 115.0 C149.0 115.0 149.0 115.0 149.0 115.0 C149.0 115.0 149.0 115.0 149.0 115.0 C149.0 115.0 149.0 115.0 149.0 115.0 C149.0 115.0 149.0 115.0 149.0 115.0 C149.0 115.0 149.0 115.0 149.0 115.0 C149.0 115.0 149.0 115.0 149.0 115.0 C149.0 115.0 149.0 115.0 149.0 115.0 C149.0 115.0 149.0 115.0 149.0 115.0 C149.0 115.0 149.0 115.0 149.0 115.0 C149.0 115.0 149.0 115.0 149.0 115.0 C149.0 115.0 149.0 115.0 149.0 115.0 C149.0 115.0 149.0 115.0 149.0 115.0 C149.0 115.0 149.0 115.0 149.0 115.0 C149.0 115.0 149.0 115.0 149.0 115.0 C149.0 115.0 149.0 115.0 149.0 115.0 C149.0 115.0 149.0 115.0 149.0 115.0 C149.0 115.0 149.0 115.0 149.0 115.0 C149.0 115.0 149.0 115.0 149.0 115.0 C149.0 115.0 149.0 115.0 149.0 115.0 C149.0 115.0 149.0 115.0 149.0 115.0 C149.0 115.0 149.0 115.0 149.0 115.0 C149.0 115.0 149.0 115.0 149.0 115.0 C149.0 115.0 149.0 115.0 149.0 115.0 C149.0 115.0 149.0 115.0 149.0 115.0 C149.0 115.0 149.0 115.0 149.0 115.0 C149.0 115.0 149.0 115.0 149.0 115.0 C149.0 115.0 149.0 115.0 149.0 115.0 C149.0 115.0 149.0 115.0 149.0 115.0 C149.0 115.0 149.0 115.0 149.0 115.0 C149.0 115.0 149.0 115.0 149.0 115.0 C149.0 115.0 149.0 115.0 149.0 115.0 C149.0 115.0 149.0 115.0 149.0 115.0 C149.0 115.0 149.0 115.0 149.0 115.0 C149.0 115.0 149.0 115.0 149.0 115.0 C149.0 115.0 149.0 115.0 149.0 115.0 C149.0 115.0 149.0 115.0 149.0 115.0 C149.0 115.0 149.0 115.0 149.0 115.0 C149.0 115.0 149.0 115.0 149.0 115.0 C149.0 115.0 149.0 115.0 149.0 115.0 C149.0 115.0 149.0 115.0 149.0 115.0 C149.0 115.0 149.0 115.0 149.0 115.0 C149.0 115.0 149.0 115.0 149.0 115.0 C149.0 115.0 149.0 115.0 149.0 115.0 C149.0 115.0 149.0 115.0 149.0 115.0 C149.0 115.0 149.0 115.0 149.0 115.0 C149.0 115.0 149.0 115.0 149.0 115.0 C149.0 115.0 149.0 115.0 149.0 115.0 C149.0 115.0 149.0 115.0 149.0 115.0 C149.0 115.0 149.0 115.0 149.0 115.0 C149.0 115.0 149.0 115.0 149.0 115.0 C149.0 115.0 149.0 115.0 149.0 115.0 C149.0 115.0 149.0 115.0 149.0 115.0 C149.0 115.0 149.0 115.0 149.0 115.0 C149.0 115.0 149.0 115.0 149.0 115.0 C149.0 115.0 149.0 115.0 149.0 115.0 C149.0 115.0 149.0 115.0 149.0 115.0 C149.0 115.0 149.0 115.0 149.0 115.0 C149.0 115.0 149.0 115.0 149.0 115.0 C149.0 115.0 149.0 115.0 149.0 115.0 C149.0 115.0 149.0 115.0 149.0 115.0 C149.0 115.0 149.0 115.0 149.0 115.0 C149.0 115.0 149.0 115.0 149.0 115.0 C149.0 115.0 149.0 115.0 149.0 115.0 C149.0 115.0 149.0 115.0 149.0 115.0 C149.0 115.0 149.0 115.0 149.0 115.0 C149.0 115.0 149.0 115.0 149.0 115.0 C149.0 115.0 149.0 115.0 149.0 115.0 C149.0 115.0 149.0 115.0 149.0 115.0 C149.0 115.0 149.0 115.0 149.0 115.0 C149.0 115.0 149.0 115.0 149.0 115.0 C149.0 115.0 149.0 115.0 149.0 115.0 C149.0 115.0 149.0 115.0 149.0 115.0 C149.0 115.0 149.0 115.0 149.0 115.0 C149.0 115.0 149.0 115.0 149.0 115.0 C149.0 115.0 149.0 115.0 149.0 115.0 C149.0 115.0 149.0 115.0 149.0 115.0 C149.0 115.0 149.0 115.0 149.0 115.0 C149.0 115.0 149.0 115.0 149.0 115.0 C149.0 115.0 149.0 115.0 149.0 115.0 C149.0 115.0 149.0 115.0 149.0 115.0 C149.0 115.0 149.0 115.0 149.0 115.0 C149.0 115.0 149.0 115.0 149.0 115.0 C149.0 115.0 149.0 115.0 149.0 115.0 C149.0 115.0 149.0 115.0 149.0 115.0 C149.0 115.0 149.0 115.0 149.0 115.0 C149.0 115.0 149.0 115.0 149.0 115.0 C149.0 115.0 149.0 115.0 149.0 115.0 C149.0 115.0 149.0 115.0 149.0 115.0 C149.0 115.0 149.0 115.0 149.0 115.0 C149.0 115.0 149.0 115.0 149.0 115.0 C149.0 115.0 149.0 115.0 149.0 115.0 C149.0 115.0 149.0 115.0 149.0 115.0 C149.0 115.0 149.0 115.0 149.0 115.0 C149.0 115.0 149.0 115.0 149.0 115.0 C149.0 115.0 149.0 115.0 149.0 115.0 C149.0 115.0 149.0 115.0 149.0 115.0 C149.0 115.0 149.0 115.0 149.0 115.0 C149.0 115.0 149.0 115.0 149.0 115.0 C149.0 115.0 149.0 115.0 149.0 115.0 C149.0 115.0 149.0 115.0 149.0 115.0 C149.0 115.0 149.0 115.0 149.0 115.0 C149.0 115.0 149.0 115.0 149.0 115.0 C149.0 115.0 149.0 115.0 149.0 115.0 C149.0 115.0 149.0 115.0 149.0 115.0 C149.0 115.0 149.0 115.0 149.0 115.0 C149.0 115.0 149.0 115.0 149.0 115.0 C149.0 115.0 149.0 115.0 149.0 115.0 C149.0 115.0 149.0 115.0 149.0 115.0 C149.0 115.0 149.0 115.0 149.0 115.0 C149.0 115.0 149.0 115.0 149.0 115.0 C149.0 115.0 149.0 115.0 149.0 115.0 C149.0 115.0 149.0 115.0 149.0 115.0 C149.0 115.0 149.0 115.0 149.0 115.0 C149.0 115.0 149.0 115.0 149.0 115.0 C149.0 115.0 149.0 115.0 149.0 115.0 C149.0 115.0 149.0 115.0 149.0 115.0 C149.0 115.0 149.0 115.0 149.0 115.0 C149.0 115.0 149.0 115.0 149.0 115.0 C149.0 115.0 149.0 115.0 149.0 115.0 C149.0 115.0 149.0 115.0 149.0 115.0 C149.0 115.0 149.0 115.0 149.0 115.0 C149.0 115.0 149.0 115.0 149.0 115.0 C149.0 115.0 149.0 115.0 149.0 115.0 C149.0 115.0 149.0 115.0 149.0 115.0 C149.0 115.0 149.0 115.0 149.0 115.0 C149.0 115.0 149.0 115.0 149.0 115.0 C149.0 115.0 149.0 115.0 149.0 115.0 C149.0 115.0 149.0 115.0 149.0 115.0 C149.0 115.0 149.0 115.0 149.0 115.0 C149.0 115.0 149.0 115.0 149.0 115.0 C149.0 115.0 149.0 115.0 149.0 115.0 C149.0 115.0 149.0 115.0 149.0 115.0 C149.0 115.0 149.0 115.0 149.0 115.0 C149.0 115.0 149.0 115.0 149.0 115.0 C149.0 115.0 149.0 115.0 149.0 115.0 C149.0 115.0 149.0 115.0 149.0 115.0 C149.0 115.0 149.0 115.0 149.0 115.0 C149.0 115.0 149.0 115.0 149.0 115.0 C149.0 115.0 149.0 115.0 149.0 115.0 C149.0 115.0 149.0 115.0 149.0 115.0 C149.0 115.0 149.0 115.0 149.0 115.0 C149.0 115.0 149.0 115.0 149.0 115.0 C149.0 115.0 149.0 115.0 149.0 115.0 C149.0 115.0 149.0 115.0 149.0 115.0 C149.0 115.0 149.0 115.0 149.0 115.0 C149.0 115.0 149.0 115.0 149.0 115.0"></path></svg>