<svg xmlns="http://www.w3.org/2000/svg" viewBox="0.0 0.0 200.0 200.0" height="200px" width="200px"><path fill="#ff8833" fill-opacity="1.0"  filling="0" d="M128.0 121.0 C128.0 121.0 128.0 122.0 128.0 123.0 C129.0 127.0 130.0 132.0 130.0 136.0 C130.0 152.0 117.0 165.0 100.0 165.0 C83.0 165.0 70.0 152.0 70.0 136.0 C70.0 132.0 71.0 127.0 72.0 123.0 C72.0 122.0 72.0 121.0 72.0 121.0 L128.0 121.0 L128.0 121.0 Z"></path>
<path fill="#334466" fill-opacity="1.0"  filling="0" d="M100.0 165.0 C92.0 165.0 84.0 162.0 78.0 157.0 C72.0 151.0 69.0 144.0 69.0 136.0 C69.0 132.0 70.0 127.0 71.0 122.0 C71.0 121.0 71.0 121.0 71.0 121.0 C71.0 120.0 71.0 119.0 72.0 119.0 L128.0 119.0 C129.0 119.0 129.0 120.0 129.0 121.0 C129.0 121.0 129.0 121.0 129.0 122.0 C130.0 127.0 131.0 132.0 131.0 136.0 C131.0 144.0 128.0 151.0 122.0 157.0 C116.0 162.0 108.0 165.0 100.0 165.0 L100.0 165.0 Z M74.0 123.0 C73.0 128.0 72.0 132.0 72.0 136.0 C72.0 150.0 85.0 161.0 100.0 161.0 C115.0 161.0 128.0 150.0 128.0 136.0 C128.0 132.0 127.0 128.0 126.0 123.0 L74.0 123.0 L74.0 123.0 Z"></path>
<path fill="#334466" fill-opacity="1.0"  filling="0" d="M128.0 115.0 C127.0 115.0 126.0 115.0 126.0 114.0 C126.0 113.0 126.0 112.0 127.0 112.0 C127.0 112.0 127.0 112.0 127.0 112.0 C128.0 112.0 129.0 112.0 129.0 113.0 C129.0 114.0 129.0 115.0 128.0 115.0 C128.0 115.0 128.0 115.0 128.0 115.0 L128.0 115.0 Z"></path>
<path fill="#000000" fill-opacity="1.0"  filling="0" d="M100.0 164.0 C92.0 164.0 85.0 161.0 79.0 156.0 C73.0 151.0 70.0 144.0 70.0 136.0 C70.0 132.0 71.0 127.0 72.0 123.0 C72.0 123.0 72.0 122.0 72.0 122.0 C72.0 116.0 72.0 110.0 72.0 104.0 C72.0 102.0 72.0 100.0 72.0 98.0 C72.0 97.0 72.0 96.0 72.0 96.0 C72.0 95.0 72.0 95.0 72.0 95.0 C72.0 94.0 72.0 94.0 72.0 94.0 C72.0 93.0 73.0 93.0 73.0 93.0 C73.0 93.0 73.0 93.0 73.0 93.0 C73.0 93.0 73.0 93.0 73.0 93.0 C73.0 93.0 73.0 93.0 73.0 93.0 C73.0 93.0 73.0 93.0 73.0 93.0 C74.0 93.0 74.0 93.0 74.0 93.0 C74.0 93.0 74.0 93.0 74.0 93.0 C74.0 93.0 74.0 93.0 74.0 93.0 C74.0 93.0 74.0 93.0 74.0 93.0 C75.0 93.0 75.0 93.0 75.0 93.0 C75.0 93.0 75.0 93.0 75.0 93.0 C75.0 93.0 75.0 93.0 75.0 93.0 C75.0 93.0 75.0 93.0 75.0 93.0 C75.0 93.0 75.0 93.0 75.0 93.0 C75.0 93.0 76.0 93.0 76.0 93.0 C76.0 93.0 76.0 93.0 76.0 93.0 C76.0 93.0 76.0 93.0 76.0 93.0 C76.0 93.0 76.0 93.0 76.0 93.0 C76.0 93.0 76.0 93.0 76.0 93.0 C76.0 93.0 76.0 93.0 76.0 93.0 C77.0 93.0 77.0 93.0 77.0 93.0 C77.0 93.0 77.0 93.0 77.0 93.0 C77.0 93.0 77.0 93.0 77.0 93.0 C77.0 93.0 77.0 93.0 77.0 93.0 C77.0 93.0 77.0 93.0 77.0 93.0 C78.0 93.0 78.0 93.0 78.0 93.0 C78.0 93.0 78.0 93.0 78.0 93.0 C78.0 93.0 78.0 93.0 78.0 93.0 C78.0 93.0 78.0 93.0 78.0 93.0 C78.0 93.0 78.0 93.0 78.0 93.0 C78.0 93.0 79.0 93.0 79.0 93.0 C79.0 93.0 79.0 93.0 79.0 93.0 C79.0 93.0 79.0 93.0 79.0 93.0 C79.0 93.0 79.0 93.0 79.0 93.0 C79.0 93.0 79.0 93.0 79.0 93.0 C79.0 93.0 79.0 93.0 79.0 93.0 C79.0 93.0 79.0 93.0 80.0 93.0 C80.0 93.0 80.0 93.0 80.0 93.0 C80.0 93.0 80.0 93.0 80.0 93.0 C80.0 93.0 80.0 93.0 80.0 93.0 C80.0 93.0 80.0 93.0 80.0 93.0 C80.0 93.0 80.0 93.0 80.0 93.0 C80.0 93.0 80.0 93.0 81.0 93.0 C81.0 93.0 81.0 93.0 81.0 93.0 C81.0 93.0 81.0 93.0 81.0 93.0 C81.0 93.0 81.0 93.0 81.0 93.0 C81.0 93.0 81.0 93.0 81.0 93.0 C81.0 93.0 81.0 93.0 81.0 93.0 C81.0 93.0 82.0 93.0 82.0 93.0 C82.0 93.0 82.0 93.0 82.0 93.0 C82.0 93.0 82.0 93.0 82.0 93.0 C82.0 93.0 82.0 93.0 82.0 93.0 C82.0 93.0 82.0 93.0 82.0 93.0 C82.0 93.0 82.0 93.0 82.0 93.0 C83.0 93.0 83.0 93.0 83.0 93.0 C83.0 93.0 83.0 93.0 83.0 93.0 C83.0 93.0 83.0 93.0 83.0 93.0 C83.0 93.0 83.0 93.0 83.0 93.0 C83.0 93.0 83.0 93.0 83.0 93.0 C83.0 93.0 83.0 93.0 83.0 93.0 C84.0 93.0 84.0 93.0 84.0 93.0 C84.0 93.0 84.0 93.0 84.0 93.0 C84.0 93.0 84.0 93.0 84.0 93.0 C84.0 93.0 84.0 93.0 84.0 93.0 C84.0 93.0 84.0 93.0 84.0 93.0 C84.0 93.0 84.0 93.0 84.0 93.0 C85.0 93.0 85.0 93.0 85.0 93.0 C85.0 93.0 85.0 93.0 85.0 93.0 C85.0 93.0 85.0 93.0 85.0 93.0 C85.0 93.0 85.0 93.0 85.0 93.0 C85.0 93.0 85.0 93.0 85.0 93.0 C85.0 93.0 85.0 93.0 85.0 93.0 C86.0 93.0 86.0 93.0 86.0 93.0 C86.0 93.0 86.0 93.0 86.0 93.0 C86.0 93.0 86.0 93.0 86.0 93.0 C86.0 93.0 86.0 93.0 86.0 93.0 C86.0 93.0 86.0 93.0 86.0 93.0 C86.0 93.0 86.0 93.0 86.0 93.0 C87.0 93.0 87.0 93.0 87.0 93.0 C87.0 93.0 87.0 93.0 87.0 93.0 C87.0 93.0 87.0 93.0 87.0 93.0 C87.0 93.0 87.0 93.0 87.0 93.0 C87.0 93.0 87.0 93.0 87.0 93.0 C87.0 93.0 87.0 93.0 87.0 93.0 C87.0 93.0 88.0 93.0 88.0 93.0 C88.0 93.0 88.0 93.0 88.0 93.0 C88.0 93.0 88.0 93.0 88.0 93.0 C88.0 93.0 88.0 93.0 88.0 93.0 C88.0 93.0 88.0 93.0 88.0 93.0 C88.0 93.0 88.0 93.0 88.0 93.0 C89.0 93.0 89.0 93.0 89.0 93.0 C89.0 93.0 89.0 93.0 89.0 93.0 C89.0 93.0 89.0 93.0 89.0 93.0 C89.0 93.0 89.0 93.0 89.0 93.0 C89.0 93.0 89.0 93.0 89.0 93.0 C89.0 93.0 89.0 93.0 89.0 93.0 C89.0 93.0 89.0 93.0 89.0 93.0 C90.0 93.0 90.0 93.0 90.0 93.0 C90.0 93.0 90.0 93.0 90.0 93.0 C90.0 93.0 90.0 93.0 90.0 93.0 C90.0 93.0 90.0 93.0 90.0 93.0 C90.0 93.0 90.0 93.0 90.0 93.0 C90.0 93.0 90.0 93.0 90.0 93.0 C90.0 93.0 90.0 93.0 90.0 93.0 C90.0 93.0 90.0 93.0 90.0 93.0 C90.0 93.0 91.0 93.0 91.0 93.0 C91.0 93.0 91.0 93.0 91.0 93.0 C91.0 93.0 91.0 93.0 91.0 93.0 C91.0 93.0 91.0 93.0 91.0 93.0 C91.0 93.0 91.0 93.0 91.0 93.0 C91.0 93.0 91.0 93.0 91.0 93.0 C91.0 93.0 91.0 93.0 91.0 93.0 C91.0 93.0 91.0 93.0 91.0 93.0 C91.0 93.0 91.0 93.0 91.0 93.0 C91.0 93.0 91.0 93.0 91.0 93.0 C91.0 93.0 91.0 93.0 91.0 93.0 C91.0 93.0 91.0 93.0 91.0 93.0 C91.0 93.0 91.0 93.0 91.0 93.0 C91.0 93.0 91.0 93.0 91.0 93.0 C91.0 93.0 91.0 93.0 91.0 93.0 C91.0 93.0 91.0 93.0 91.0 93.0 C91.0 93.0 91.0 93.0 91.0 93.0 C91.0 93.0 91.0 93.0 91.0 93.0 C91.0 93.0 91.0 93.0 91.0 93.0 C91.0 93.0 91.0 93.0 91.0 93.0 C91.0 93.0 91.0 93.0 91.0 93.0 C91.0 93.0 91.0 93.0 91.0 93.0 C91.0 93.0 91.0 93.0 91.0 93.0 C91.0 93.0 91.0 93.0 91.0 93.0 C91.0 93.0 91.0 93.0 91.0 93.0 C91.0 93.0 91.0 93.0 91.0 93.0 C91.0 93.0 91.0 93.0 91.0 93.0 C91.0 93.0 91.0 93.0 91.0 93.0 C91.0 93.0 91.0 93.0 91.0 93.0 C91.0 93.0 91.0 93.0 91.0 93.0 C91.0 93.0 91.0 93.0 91.0 93.0 C91.0 93.0 91.0 93.0 91.0 93.0 C91.0 93.0 91.0 93.0 91.0 93.0 C91.0 93.0 91.0 93.0 91.0 93.0 C91.0 93.0 91.0 93.0 91.0 93.0 C91.0 93.0 91.0 93.0 91.0 93.0 C91.0 93.0 91.0 93.0 91.0 93.0 C91.0 93.0 91.0 93.0 91.0 93.0 C91.0 93.0 91.0 93.0 91.0 93.0 C91.0 93.0 91.0 93.0 91.0 93.0 C91.0 93.0 91.0 93.0 91.0 93.0 C91.0 93.0 91.0 93.0 91.0 93.0 C91.0 93.0 91.0 93.0 91.0 93.0 C91.0 93.0 91.0 93.0 91.0 93.0 C91.0 93.0 91.0 93.0 91.0 93.0 C91.0 93.0 91.0 93.0 91.0 93.0 C91.0 93.0 91.0 93.0 91.0 93.0 C91.0 93.0 91.0 93.0 91.0 93.0 C91.0 93.0 91.0 93.0 91.0 93.0 C91.0 93.0 91.0 93.0 91.0 93.0 C91.0 93.0 91.0 93.0 91.0 93.0 C91.0 93.0 91.0 93.0 91.0 93.0 C91.0 93.0 91.0 93.0 91.0 93.0 C91.0 93.0 91.0 93.0 91.0 93.0 C91.0 93.0 91.0 93.0 91.0 93.0 C91.0 93.0 91.0 93.0 91.0 93.0 C91.0 93.0 91.0 93.0 91.0 93.0 C91.0 93.0 91.0 93.0 91.0 93.0 C91.0 93.0 91.0 93.0 91.0 93.0 C91.0 93.0 91.0 93.0 91.0 93.0 C91.0 93.0 91.0 93.0 91.0 93.0 C91.0 93.0 91.0 93.0 91.0 93.0 C91.0 93.0 91.0 93.0 91.0 93.0 C91.0 93.0 91.0 93.0 91.0 93.0 C91.0 93.0 91.0 93.0 91.0 93.0 C91.0 93.0 91.0 93.0 91.0 93.0 C91.0 93.0 91.0 93.0 91.0 93.0 C91.0 93.0 91.0 93.0 91.0 93.0 C91.0 93.0 91.0 93.0 91.0 93.0 C91.0 93.0 91.0 93.0 91.0 93.0 C91.0 93.0 91.0 93.0 91.0 93.0 C91.0 93.0 91.0 93.0 91.0 93.0 C91.0 93.0 91.0 93.0 91.0 93.0 C91.0 93.0 91.0 93.0 91.0 93.0 C91.0 93.0 91.0 93.0 91.0 93.0 C91.0 93.0 91.0 93.0 91.0 93.0 C91.0 93.0 91.0 93.0 91.0 93.0 C91.0 93.0 91.0 93.0 91.0 93.0 C91.0 93.0 91.0 93.0 91.0 93.0 C91.0 93.0 91.0 93.0 91.0 93.0 C91.0 93.0 91.0 93.0 91.0 93.0 C91.0 93.0 91.0 93.0 91.0 93.0 C91.0 93.0 91.0 93.0 91.0 93.0 C91.0 93.0 91.0 93.0 91.0 93.0 C91.0 93.0 91.0 93.0 91.0 93.0 C91.0 93.0 91.0 93.0 91.0 93.0 C91.0 93.0 91.0 93.0 91.0 93.0 C91.0 93.0 91.0 93.0 91.0 93.0 C91.0 93.0 91.0 93.0 91.0 93.0 C91.0 93.0 91.0 93.0 91.0 93.0 C91.0 93.0 91.0 93.0 91.0 93.0 C91.0 93.0 91.0 93.0 91.0 93.0 C91.0 93.0 91.0 93.0 91.0 93.0 C91.0 93.0 91.0 93.0 91.0 93.0 C91.0 93.0 91.0 93.0 91.0 93.0 C91.0 93.0 91.0 93.0 91.0 93.0 C91.0 93.0 91.0 93.0 91.0 93.0 C91.0 93.0 91.0 93.0 91.0 93.0 C91.0 93.0 91.0 93.0 91.0 93.0 C91.0 93.0 91.0 93.0 91.0 93.0 C91.0 93.0 91.0 93.0 91.0 93.0 C91.0 93.0 91.0 93.0 91.0 93.0 C91.0 93.0 91.0 93.0 91.0 93.0 C91.0 93.0 91.0 93.0 91.0 93.0 C91.0 93.0 91.0 93.0 91.0 93.0 C91.0 93.0 91.0 93.0 91.0 93.0 C91.0 93.0 91.0 93.0 91.0 93.0 C91.0 93.0 91.0 93.0 91.0 93.0 C91.0 93.0 91.0 93.0 91.0 93.0 C91.0 93.0 91.0 93.0 91.0 93.0 C91.0 93.0 91.0 93.0 91.0 93.0 C91.0 93.0 91.0 93.0 91.0 93.0 C91.0 93.0 91.0 93.0 91.0 93.0 C91.0 93.0 91.0 93.0 91.0 93.0 C91.0 93.0 91.0 93.0 91.0 93.0 C91.0 93.0 91.0 93.0 91.0 93.0 C91.0 93.0 91.0 93.0 91.0 93.0 C91.0 93.0 91.0 93.0 91.0 93.0 C91.0 93.0 91.0 93.0 91.0 93.0 C91.0 93.0 91.0 93.0 91.0 93.0 C91.0 93.0 91.0 93.0 91.0 93.0 C91.0 93.0 91.0 93.0 91.0 93.0 C91.0 93.0 91.0 93.0 91.0 93.0 C91.0 93.0 91.0 93.0 91.0 93.0 C91.0 93.0 91.0 93.0 91.0 93.0 C91.0 93.0 91.0 93.0 91.0 93.0 C91.0 93.0 91.0 93.0 91.0 93.0 C91.0 93.0 91.0 93.0 91.0 93.0 C91.0 93.0 91.0 93.0 91.0 93.0 C91.0 93.0 91.0 93.0 91.0 93.0 C91.0 93.0 91.0 93.0 91.0 93.0 C91.0 93.0 91.0 93.0 91.0 93.0 C91.0 93.0 91.0 93.0 91.0 93.0 C91.0 93.0 91.0 93.0 91.0 93.0 C91.0 93.0 91.0 93.0 91.0 93.0 C91.0 93.0 91.0 93.0 91.0 93.0 C91.0 93.0 91.0 93.0 91.0 93.0 C91.0 93.0 91.0 93.0 91.0 93.0 C91.0 93.0 91.0 93.0 91.0 93.0 C91.0 93.0 91.0 93.0 91.0 93.0 C91.0 93.0 91.0 93.0 91.0 93.0 C91.0 93.0 91.0 93.0 91.0 93.0 C91.0 93.0 91.0 93.0 91.0 93.0 C91.0 93.0 91.0 93.0 91.0 93.0 C91.0 93.0 91.0 93.0 91.0 93.0 C91.0 93.0 91.0 93.0 91.0 93.0 C91.0 93.0 91.0 93.0 91.0 93.0 C91.0 93.0 91.0 93.0 91.0 93.0 C91.0 93.0 91.0 93.0 91.0 93.0 C91.0 93.0 91.0 93.0 91.0 93.0 C91.0 93.0 91.0 93.0 91.0 93.0 C91.0 93.0 91.0 93.0 91.0 93.0 C91.0 93.0 91.0 93.0 91.0 93.0 C91.0 93.0 91.0 93.0 91.0 93.0 C91.0 93.0 91.0 93.0 91.0 93.0 C91.0 93.0 91.0 93.0 91.0 93.0 C91.0 93.0 91.0 93.0 91.0 93.0 C91.0 93.0 91.0 93.0 91.0 93.0 C91.0 93.0 91.0 93.0 91.0 93.0 C91.0 93.0 91.0 93.0 91.0 93.0 C91.0 93.0 91.0 93.0 91.0 93.0 C91.0 93.0 91.0 93.0 91.0 93.0 C91.0 93.0 91.0 93.0 91.0 93.0 C91.0 93.0 91.0 93.0 91.0 93.0 C91.0 93.0 91.0 93.0 91.0 93.0 C91.0 93.0 91.0 93.0 91.0 93.0 C91.0 93.0 91.0 93.0 91.0 93.0 C91.0 93.0 91.0 93.0 91.0 93.0 C91.0 93.0 91.0 93.0 91.0 93.0 C91.0 93.0 91.0 93.0 91.0 93.0 C91.0 93.0 91.0 93.0 91.0 93.0 C91.0 93.0 91.0 93.0 91.0 93.0 C91.0 93.0 91.0 93.0 91.0 93.0 C91.0 93.0 91.0 93.0 91.0 93.0 C91.0 93.0 91.0 93.0 91.0 93.0 C91.0 93.0 91.0 93.0 91.0 93.0 C91.0 93.0 91.0 93.0 91.0 93.0 C91.0 93.0 91.0 93.0 91.0 93.0 C91.0 93.0 91.0 93.0 91.0 93.0 C91.0 93.0 91.0 93.0 91.0 93.0 C91.0 93.0 91.0 93.0 91.0 93.0 C91.0 93.0 91.0 93.0 91.0 93.0 C91.0 93.0 91.0 93.0 91.0 93.0 C91.0 93.0 91.0 93.0 91.0 93.0 C91.0 93.0 91.0 93.0 91.0 93.0 C91.0 93.0 91.0 93.0 91.0 93.0 C91.0 93.0 91.0 93.0 91.0 93.0 C91.0 93.0 91.0 93.0 91.0 93.0 C91.0 93.0 91.0 93.0 91.0 93.0 C91.0 93.0 91.0 93.0 91.0 93.0 C91.0 93.0 91.0 93.0 91.0 93.0 C91.0 93.0 91.0 93.0 91.0 93.0 C91.0 93.0 91.0 93.0 91.0 93.0 C91.0 93.0 91.0 93.0 91.0 93.0 C91.0 93.0 91.0 93.0 91.0 93.0 C91.0 93.0 91.0 93.0 91.0 93.0 C91.0 93.0 91.0 93.0 91.0 93.0 C91.0 93.0 91.0 93.0 91.0 93.0 C91.0 93.0 91.0 93.0 91.0 93.0 C91.0 93.0 91.0 93.0 91.0 93.0 C91.0 93.0 91.0 93.0 91.0 93.0 C91.0 93.0 91.0 93.0 91.0 93.0 C91.0 93.0 91.0 93.0 91.0 93.0 C91.0 93.0 91.0 93.0 91.0 93.0 C91.0 93.0 91.0 93.0 91.0 93.0 C91.0 93.0 91.0 93.0 91.0 93.0 C91.0 93.0 91.0 93.0 91.0 93.0 C91.0 93.0 91.0 93.0 91.0 93.0 C91.0 93.0 91.0 93.0 91.0 93.0 C91.0 93.0 91.0 93.0 91.0 93.0 C91.0 93.0 91.0 93.0 91.0 93.0 C91.0 93.0 91.0 93.0 91.0 93.0 C91.0 93.0 91.0 93.0 91.0 93.0 C91.0 93.0 91.0 93.0 91.0 93.0 C91.0 93.0 91.0 93.0 91.0 93.0 C91.0 93.0 91.0 93.0 91.0 93.0 C91.0 93.0 91.0 93.0 91.0 93.0 C91.0 93.0 91.0 93.0 91.0 93.0 C91.0 93.0 91.0 93.0 91.0 93.0 C91.0 93.0 91.0 93.0 91.0 93.0 C91.0 93.0 91.0 93.0 91.0 93.0 C91.0 93.0 91.0 93.0 91.0 93.0 C91.0 93.0 91.0 93.0 91.0 93.0 C91.0 93.0 91.0 93.0 91.0 93.0 C91.0 93.0 91.0 93.0 91.0 93.0 C91.0 93.0 91.0 93.0 91.0 93.0 C91.0 93.0 91.0 93.0 91.0 93.0 C91.0 93.0 91.0 93.0 91.0 93.0"></path></svg>