<svg xmlns="http://www.w3.org/2000/svg" viewBox="0.0 0.0 200.0 200.0" height="200px" width="200px"><path fill="#ff8833" fill-opacity="1.0"  filling="0" d="M128.0 121.0 C128.0 121.0 128.0 122.0 128.0 123.0 C129.0 127.0 130.0 132.0 130.0 136.0 C130.0 152.0 117.0 165.0 100.0 165.0 C83.0 165.0 70.0 152.0 70.0 136.0 C70.0 132.0 71.0 127.0 72.0 123.0 C72.0 122.0 72.0 121.0 72.0 121.0 L128.0 121.0 L128.0 121.0 Z"></path>
<path fill="#334466" fill-opacity="1.0"  filling="0" d="M100.0 165.0 C92.0 165.0 84.0 162.0 78.0 157.0 C72.0 151.0 69.0 144.0 69.0 136.0 C69.0 132.0 70.0 127.0 71.0 122.0 C71.0 121.0 71.0 121.0 71.0 121.0 C71.0 120.0 71.0 119.0 72.0 119.0 L128.0 119.0 C129.0 119.0 129.0 120.0 129.0 121.0 C129.0 121.0 129.0 121.0 129.0 122.0 C130.0 127.0 131.0 132.0 131.0 136.0 C131.0 144.0 128.0 151.0 122.0 157.0 C116.0 162.0 108.0 165.0 100.0 165.0 L100.0 165.0 Z M74.0 122.0 C74.0 122.0 74.0 123.0 74.0 123.0 C73.0 127.0 72.0 132.0 72.0 136.0 C72.0 150.0 85.0 162.0 100.0 162.0 C115.0 162.0 128.0 150.0 128.0 136.0 C128.0 132.0 127.0 127.0 126.0 123.0 C126.0 123.0 126.0 122.0 126.0 122.0 L74.0 122.0 L74.0 122.0 L74.0 122.0 Z"></path>
<path fill="#334466" fill-opacity="1.0"  filling="0" d="M128.0 115.0 C128.0 115.0 128.0 115.0 128.0 115.0 C128.0 115.0 127.0 115.0 127.0 114.0 C127.0 114.0 127.0 113.0 127.0 113.0 C127.0 112.0 126.0 112.0 125.0 112.0 C125.0 112.0 124.0 113.0 124.0 114.0 C124.0 114.0 124.0 115.0 124.0 115.0 C124.0 116.0 123.0 116.0 123.0 116.0 C122.0 116.0 122.0 116.0 122.0 115.0 C122.0 115.0 122.0 114.0 122.0 114.0 C122.0 112.0 123.0 110.0 125.0 109.0 C126.0 109.0 127.0 109.0 128.0 110.0 C129.0 111.0 129.0 112.0 129.0 113.0 C129.0 113.0 129.0 114.0 129.0 114.0 C129.0 115.0 128.0 115.0 128.0 115.0 L128.0 115.0 Z"></path>
<path fill="#334466" fill-opacity="1.0"  filling="0" d="M125.0 115.0 C125.0 115.0 125.0 115.0 124.0 115.0 C124.0 115.0 124.0 114.0 124.0 114.0 C124.0 114.0 124.0 113.0 124.0 113.0 C124.0 112.0 125.0 112.0 125.0 112.0 C126.0 112.0 127.0 112.0 127.0 113.0 C127.0 113.0 127.0 114.0 127.0 114.0 C127.0 114.0 127.0 115.0 127.0 115.0 C126.0 115.0 126.0 115.0 125.0 115.0 L125.0 115.0 Z"></path>
<path fill="#334466" fill-opacity="1.0"  filling="0" d="M125.0 115.0 C125.0 115.0 124.0 115.0 124.0 114.0 C124.0 114.0 124.0 114.0 124.0 114.0 C124.0 114.0 124.0 113.0 124.0 113.0 C124.0 112.0 125.0 112.0 125.0 112.0 C126.0 112.0 126.0 112.0 126.0 113.0 C126.0 113.0 127.0 114.0 127.0 114.0 C127.0 114.0 127.0 114.0 126.0 114.0 C126.0 115.0 126.0 115.0 125.0 115.0 L125.0 115.0 Z"></path>
<path fill="#334466" fill-opacity="1.0"  filling="0" d="M72.0 115.0 C72.0 115.0 71.0 115.0 71.0 114.0 C71.0 114.0 71.0 113.0 71.0 113.0 C71.0 112.0 71.0 111.0 72.0 110.0 C73.0 109.0 74.0 109.0 75.0 109.0 C77.0 110.0 78.0 112.0 78.0 114.0 C78.0 114.0 78.0 115.0 78.0 115.0 C78.0 116.0 78.0 116.0 77.0 116.0 C77.0 116.0 76.0 116.0 76.0 115.0 C76.0 115.0 76.0 114.0 76.0 114.0 C76.0 113.0 75.0 112.0 75.0 112.0 C74.0 112.0 73.0 112.0 73.0 113.0 C73.0 113.0 73.0 114.0 73.0 114.0 C73.0 115.0 72.0 115.0 72.0 115.0 L72.0 115.0 Z"></path>
<path fill="#334466" fill-opacity="1.0"  filling="0" d="M75.0 115.0 C74.0 115.0 74.0 115.0 73.0 115.0 C73.0 115.0 73.0 114.0 73.0 114.0 C73.0 114.0 73.0 113.0 73.0 113.0 C74.0 112.0 74.0 112.0 75.0 112.0 C75.0 112.0 76.0 112.0 76.0 113.0 C76.0 113.0 76.0 114.0 76.0 114.0 C76.0 114.0 76.0 115.0 76.0 115.0 C75.0 115.0 75.0 115.0 75.0 115.0 L75.0 115.0 Z"></path>
<path fill="#334466" fill-opacity="1.0"  filling="0" d="M75.0 115.0 C74.0 115.0 74.0 115.0 73.0 114.0 C73.0 114.0 73.0 114.0 73.0 114.0 C73.0 114.0 73.0 113.0 73.0 113.0 C73.0 112.0 74.0 112.0 75.0 112.0 C75.0 112.0 76.0 112.0 76.0 113.0 C76.0 113.0 76.0 114.0 76.0 114.0 C76.0 114.0 76.0 114.0 76.0 114.0 C76.0 115.0 75.0 115.0 75.0 115.0 L75.0 115.0 Z"></path>
<path fill="#334466" fill-opacity="1.0"  filling="0" d="M85.0 174.0 C79.0 174.0 75.0 171.0 72.0 168.0 C70.0 166.0 68.0 165.0 67.0 165.0 C65.0 165.0 63.0 166.0 62.0 167.0 C59.0 169.0 56.0 170.0 53.0 170.0 C49.0 169.0 46.0 167.0 44.0 164.0 C43.0 161.0 42.0 158.0 43.0 154.0 C51.0 137.0 54.0 113.0 58.0 91.0 C59.0 83.0 59.0 75.0 59.0 67.0 C59.0 57.0 63.0 48.0 70.0 41.0 C78.0 33.0 88.0 27.0 100.0 27.0 C112.0 27.0 122.0 33.0 130.0 41.0 C137.0 48.0 141.0 57.0 141.0 67.0 C141.0 75.0 141.0 83.0 142.0 91.0 C146.0 113.0 149.0 137.0 157.0 154.0 C158.0 158.0 157.0 161.0 156.0 164.0 C154.0 167.0 151.0 169.0 147.0 170.0 C144.0 170.0 141.0 169.0 138.0 167.0 C137.0 166.0 135.0 165.0 133.0 165.0 C132.0 165.0 130.0 166.0 128.0 168.0 C125.0 171.0 121.0 174.0 115.0 174.0 C112.0 174.0 109.0 173.0 106.0 171.0 C104.0 170.0 102.0 169.0 100.0 169.0 C98.0 169.0 96.0 170.0 94.0 171.0 C91.0 173.0 88.0 174.0 85.0 174.0 L85.0 174.0 Z M67.0 162.0 C70.0 162.0 72.0 163.0 74.0 165.0 C77.0 168.0 80.0 170.0 85.0 170.0 C87.0 170.0 90.0 169.0 92.0 168.0 C94.0 166.0 97.0 165.0 100.0 165.0 C103.0 165.0 106.0 166.0 108.0 168.0 C110.0 169.0 113.0 170.0 115.0 170.0 C120.0 170.0 123.0 168.0 126.0 165.0 C128.0 163.0 130.0 162.0 133.0 162.0 C136.0 162.0 138.0 163.0 140.0 165.0 C142.0 166.0 144.0 167.0 147.0 167.0 C149.0 166.0 152.0 165.0 153.0 162.0 C154.0 160.0 154.0 158.0 154.0 156.0 C146.0 138.0 143.0 113.0 139.0 91.0 C138.0 83.0 138.0 75.0 138.0 67.0 C138.0 58.0 134.0 50.0 128.0 43.0 C120.0 36.0 111.0 31.0 100.0 31.0 C89.0 31.0 80.0 36.0 72.0 43.0 C66.0 50.0 62.0 58.0 62.0 67.0 C62.0 75.0 62.0 83.0 61.0 91.0 C57.0 113.0 54.0 138.0 46.0 156.0 C46.0 158.0 46.0 160.0 47.0 162.0 C48.0 165.0 51.0 166.0 53.0 167.0 C56.0 167.0 58.0 166.0 60.0 165.0 C62.0 163.0 64.0 162.0 67.0 162.0 L67.0 162.0 Z"></path>
<path fill="#334466" fill-opacity="1.0"  filling="0" d="M80.0 116.0 C78.0 116.0 76.0 116.0 74.0 115.0 C73.0 115.0 73.0 114.0 73.0 113.0 C73.0 112.0 74.0 112.0 75.0 112.0 C78.0 113.0 81.0 113.0 84.0 112.0 C88.0 111.0 90.0 108.0 90.0 105.0 C91.0 101.0 88.0 98.0 84.0 96.0 C81.0 94.0 77.0 94.0 73.0 95.0 C72.0 95.0 71.0 94.0 71.0 93.0 C70.0 92.0 71.0 91.0 72.0 91.0 C77.0 90.0 82.0 91.0 86.0 93.0 C91.0 96.0 94.0 100.0 94.0 105.0 C94.0 109.0 90.0 113.0 86.0 115.0 C84.0 116.0 82.0 116.0 80.0 116.0 L80.0 116.0 Z"></path>
<path fill="#334466" fill-opacity="1.0"  filling="0" d="M120.0 116.0 C118.0 116.0 116.0 116.0 114.0 115.0 C110.0 113.0 106.0 109.0 106.0 105.0 C106.0 100.0 109.0 96.0 114.0 93.0 C118.0 91.0 123.0 90.0 128.0 91.0 C129.0 91.0 130.0 92.0 129.0 93.0 C129.0 94.0 128.0 95.0 127.0 95.0 C123.0 94.0 119.0 94.0 116.0 96.0 C112.0 98.0 109.0 101.0 110.0 105.0 C110.0 108.0 112.0 111.0 116.0 112.0 C119.0 113.0 122.0 113.0 125.0 112.0 C126.0 112.0 127.0 112.0 127.0 113.0 C127.0 114.0 127.0 115.0 126.0 115.0 C124.0 116.0 122.0 116.0 120.0 116.0 L120.0 116.0 Z"></path>
<path fill="#334466" fill-opacity="1.0"  filling="0" d="M100.0 146.0 C93.0 146.0 88.0 145.0 84.0 143.0 C86.0 144.0 89.0 145.0 92.0 146.0 C95.0 147.0 98.0 148.0 102.0 148.0 C106.0 148.0 109.0 147.0 112.0 146.0 C114.0 145.0 116.0 144.0 118.0 143.0 C113.0 145.0 107.0 146.0 100.0 146.0 L100.0 146.0 Z"></path>
<path fill="#334466" fill-opacity="1.0"  filling="0" d="M97.0 153.0 L97.0 152.0 L103.0 152.0 L103.0 153.0 C103.0 154.0 103.0 155.0 103.0 156.0 C103.0 157.0 102.0 158.0 100.0 158.0 C98.0 158.0 97.0 157.0 97.0 156.0 C97.0 155.0 97.0 154.0 97.0 153.0 L97.0 153.0 Z"></path>
<path fill="#334466" fill-opacity="1.0"  filling="0" d="M97.0 141.0 L97.0 141.0 C98.0 140.0 99.0 140.0 100.0 140.0 C101.0 140.0 102.0 140.0 103.0 141.0 L104.0 141.0 L104.0 141.0 C104.0 139.0 103.0 137.0 102.0 136.0 C101.0 135.0 101.0 134.0 100.0 134.0 C100.0 134.0 99.0 135.0 98.0 136.0 C97.0 137.0 96.0 139.0 96.0 141.0 L97.0 141.0 L97.0 141.0 Z"></path>
<path fill="#000000" fill-opacity="1.0"  filling="0" d="M84.0 138.0 C84.0 138.0 84.0 138.0 84.0 138.0 C84.0 138.0 84.0 138.0 84.0 138.0 C84.0 138.0 84.0 138.0 84.0 138.0 C84.0 138.0 84.0 138.0 84.0 138.0 C84.0 138.0 84.0 138.0 84.0 138.0 C84.0 138.0 84.0 138.0 84.0 138.0 C84.0 138.0 84.0 138.0 84.0 138.0 C84.0 138.0 84.0 138.0 84.0 138.0 C84.0 138.0 84.0 138.0 84.0 138.0 C84.0 138.0 84.0 138.0 84.0 138.0 C84.0 138.0 84.0 138.0 84.0 138.0 C84.0 138.0 84.0 138.0 84.0 138.0 C84.0 138.0 84.0 138.0 84.0 138.0 C84.0 138.0 84.0 138.0 84.0 138.0 C84.0 138.0 84.0 138.0 84.0 138.0 C84.0 138.0 84.0 138.0 84.0 138.0 C84.0 138.0 84.0 138.0 84.0 138.0 C84.0 138.0 84.0 138.0 84.0 138.0 C84.0 138.0 84.0 138.0 84.0 138.0 C84.0 138.0 84.0 138.0 84.0 138.0 C84.0 138.0 84.0 138.0 84.0 138.0 C84.0 138.0 84.0 138.0 84.0 138.0 C84.0 138.0 84.0 138.0 84.0 138.0 C84.0 138.0 84.0 138.0 84.0 138.0 C84.0 138.0 84.0 138.0 84.0 138.0 C84.0 138.0 84.0 138.0 84.0 138.0 C84.0 138.0 84.0 138.0 84.0 138.0 C84.0 138.0 84.0 138.0 84.0 138.0 C84.0 138.0 84.0 138.0 84.0 138.0 C84.0 138.0 84.0 138.0 84.0 138.0 C84.0 138.0 84.0 138.0 84.0 138.0 C84.0 138.0 84.0 138.0 84.0 138.0 C84.0 138.0 84.0 138.0 84.0 138.0 C84.0 138.0 84.0 138.0 84.0 138.0 C84.0 138.0 84.0 138.0 84.0 138.0 C84.0 138.0 84.0 138.0 84.0 138.0 C84.0 138.0 84.0 138.0 84.0 138.0 C84.0 138.0 84.0 138.0 84.0 138.0 C84.0 138.0 84.0 138.0 84.0 138.0 C84.0 138.0 84.0 138.0 84.0 138.0 C84.0 138.0 84.0 138.0 84.0 138.0 C84.0 138.0 84.0 138.0 84.0 138.0 C84.0 138.0 84.0 138.0 84.0 138.0 C84.0 138.0 84.0 138.0 84.0 138.0 C84.0 138.0 84.0 138.0 84.0 138.0 C84.0 138.0 84.0 138.0 84.0 138.0 C84.0 138.0 84.0 138.0 84.0 138.0 C84.0 138.0 84.0 138.0 84.0 138.0 C84.0 138.0 84.0 138.0 84.0 138.0 C84.0 138.0 84.0 138.0 84.0 138.0 C84.0 138.0 84.0 138.0 84.0 138.0 C84.0 138.0 84.0 138.0 84.0 138.0 C84.0 138.0 84.0 138.0 84.0 138.0 C84.0 138.0 84.0 138.0 84.0 138.0 C84.0 138.0 84.0 138.0 84.0 138.0 C84.0 138.0 84.0 138.0 84.0 138.0 C84.0 138.0 84.0 138.0 84.0 138.0 C84.0 138.0 84.0 138.0 84.0 138.0 C84.0 138.0 84.0 138.0 84.0 138.0 C84.0 138.0 84.0 138.0 84.0 138.0 C84.0 138.0 84.0 138.0 84.0 138.0 C84.0 138.0 84.0 138.0 84.0 138.0 C84.0 138.0 84.0 138.0 84.0 138.0 C84.0 138.0 84.0 138.0 84.0 138.0 C84.0 138.0 84.0 138.0 84.0 138.0 C84.0 138.0 84.0 138.0 84.0 138.0 C84.0 138.0 84.0 138.0 84.0 138.0 C84.0 138.0 84.0 138.0 84.0 138.0 C84.0 138.0 84.0 138.0 84.0 138.0 C84.0 138.0 84.0 138.0 84.0 138.0 C84.0 138.0 84.0 138.0 84.0 138.0 C84.0 138.0 84.0 138.0 84.0 138.0 C84.0 138.0 84.0 138.0 84.0 138.0 C84.0 138.0 84.0 138.0 84.0 138.0 C84.0 138.0 84.0 138.0 84.0 138.0 C84.0 138.0 84.0 138.0 84.0 138.0 C84.0 138.0 84.0 138.0 84.0 138.0 C84.0 138.0 84.0 138.0 84.0 138.0 C84.0 138.0 84.0 138.0 84.0 138.0 C84.0 138.0 84.0 138.0 84.0 138.0 C84.0 138.0 84.0 138.0 84.0 138.0 C84.0 138.0 84.0 138.0 84.0 138.0 C84.0 138.0 84.0 138.0 84.0 138.0 C84.0 138.0 84.0 138.0 84.0 138.0 C84.0 138.0 84.0 138.0 84.0 138.0 C84.0 138.0 84.0 138.0 84.0 138.0 C84.0 138.0 84.0 138.0 84.0 138.0 C84.0 138.0 84.0 138.0 84.0 138.0 C84.0 138.0 84.0 138.0 84.0 138.0 C84.0 138.0 84.0 138.0 84.0 138.0 C84.0 138.0 84.0 138.0 84.0 138.0 C84.0 138.0 84.0 138.0 84.0 138.0 C84.0 138.0 84.0 138.0 84.0 138.0 C84.0 138.0 84.0 138.0 84.0 138.0 C84.0 138.0 84.0 138.0 84.0 138.0 C84.0 138.0 84.0 138.0 84.0 138.0 C84.0 138.0 84.0 138.0 84.0 138.0 C84.0 138.0 84.0 138.0 84.0 138.0 C84.0 138.0 84.0 138.0 84.0 138.0 C84.0 138.0 84.0 138.0 84.0 138.0 C84.0 138.0 84.0 138.0 84.0 138.0 C84.0 138.0 84.0 138.0 84.0 138.0 C84.0 138.0 84.0 138.0 84.0 138.0 C84.0 138.0 84.0 138.0 84.0 138.0 C84.0 138.0 84.0 138.0 84.0 138.0 C84.0 138.0 84.0 138.0 84.0 138.0 C84.0 138.0 84.0 138.0 84.0 138.0 C84.0 138.0 84.0 138.0 84.0 138.0 C84.0 138.0 84.0 138.0 84.0 138.0 C84.0 138.0 84.0 138.0 84.0 138.0 C84.0 138.0 84.0 138.0 84.0 138.0 C84.0 138.0 84.0 138.0 84.0 138.0 C84.0 138.0 84.0 138.0 84.0 138.0 C84.0 138.0 84.0 138.0 84.0 138.0 C84.0 138.0 84.0 138.0 84.0 138.0 C84.0 138.0 84.0 138.0 84.0 138.0 C84.0 138.0 84.0 138.0 84.0 138.0 C84.0 138.0 84.0 138.0 84.0 138.0 C84.0 138.0 84.0 138.0 84.0 138.0 C84.0 138.0 84.0 138.0 84.0 138.0 C84.0 138.0 84.0 138.0 84.0 138.0 C84.0 138.0 84.0 138.0 84.0 138.0 C84.0 138.0 84.0 138.0 84.0 138.0 C84.0 138.0 84.0 138.0 84.0 138.0 C84.0 138.0 84.0 138.0 84.0 138.0 C84.0 138.0 84.0 138.0 84.0 138.0 C84.0 138.0 84.0 138.0 84.0 138.0 C84.0 138.0 84.0 138.0 84.0 138.0 C84.0 138.0 84.0 138.0 84.0 138.0 C84.0 138.0 84.0 138.0 84.0 138.0 C84.0 138.0 84.0 138.0 84.0 138.0 C84.0 138.0 84.0 138.0 84.0 138.0 C84.0 138.0 84.0 138.0 84.0 138.0 C84.0 138.0 84.0 138.0 84.0 138.0 C84.0 138.0 84.0 138.0 84.0 138.0 C84.0 138.0 84.0 138.0 84.0 138.0 C84.0 138.0 84.0 138.0 84.0 138.0 C84.0 138.0 84.0 138.0 84.0 138.0 C84.0 138.0 84.0 138.0 84.0 138.0 C84.0 138.0 84.0 138.0 84.0 138.0 C84.0 138.0 84.0 138.0 84.0 138.0 C84.0 138.0 84.0 138.0 84.0 138.0 C84.0 138.0 84.0 138.0 84.0 138.0 C84.0 138.0 84.0 138.0 84.0 138.0 C84.0 138.0 84.0 138.0 84.0 138.0 C84.0 138.0 84.0 138.0 84.0 138.0 C84.0 138.0 84.0 138.0 84.0 138.0 C84.0 138.0 84.0 138.0 84.0 138.0 C84.0 138.0 84.0 138.0 84.0 138.0 C84.0 138.0 84.0 138.0 84.0 138.0 C84.0 138.0 84.0 138.0 84.0 138.0 C84.0 138.0 84.0 138.0 84.0 138.0 C84.0 138.0 84.0 138.0 84.0 138.0 C84.0 138.0 84.0 138.0 84.0 138.0"></path></svg>