<svg xmlns="http://www.w3.org/2000/svg" viewBox="0.0 0.0 200.0 200.0" height="200px" width="200px"><path fill="#ffffff" fill-opacity="1.0"  filling="0" d="M128.0 121.0 C128.0 121.0 128.0 121.0 128.0 121.0 L128.0 120.0 L128.0 120.0 C128.0 120.0 128.0 119.0 127.0 119.0 C127.0 119.0 127.0 119.0 127.0 119.0 C127.0 119.0 127.0 119.0 127.0 119.0 C127.0 119.0 127.0 119.0 127.0 119.0 C127.0 119.0 127.0 119.0 127.0 119.0 C127.0 119.0 127.0 119.0 127.0 119.0 C127.0 119.0 127.0 119.0 127.0 119.0 C127.0 119.0 127.0 119.0 127.0 119.0 C127.0 119.0 127.0 119.0 127.0 119.0 C126.0 119.0 126.0 119.0 126.0 119.0 C126.0 119.0 126.0 119.0 126.0 119.0 C126.0 119.0 126.0 119.0 126.0 119.0 C126.0 119.0 126.0 119.0 126.0 119.0 C126.0 119.0 126.0 119.0 126.0 119.0 C126.0 119.0 126.0 119.0 126.0 119.0 C126.0 119.0 126.0 119.0 126.0 119.0 C126.0 119.0 126.0 119.0 126.0 119.0 C126.0 119.0 126.0 119.0 126.0 119.0 C126.0 119.0 126.0 119.0 126.0 119.0 C126.0 119.0 126.0 119.0 126.0 119.0 C125.0 119.0 125.0 119.0 125.0 119.0 C125.0 119.0 125.0 119.0 125.0 119.0 C125.0 119.0 125.0 119.0 125.0 119.0 C125.0 119.0 125.0 119.0 125.0 119.0 C125.0 119.0 125.0 119.0 125.0 119.0 C125.0 119.0 125.0 119.0 125.0 119.0 C125.0 119.0 125.0 119.0 125.0 119.0 C125.0 119.0 125.0 119.0 125.0 119.0 C125.0 119.0 125.0 119.0 125.0 119.0 C124.0 119.0 124.0 119.0 124.0 119.0 C124.0 119.0 124.0 119.0 124.0 119.0 C124.0 119.0 124.0 119.0 124.0 119.0 C124.0 119.0 124.0 119.0 124.0 119.0 C124.0 119.0 124.0 119.0 124.0 119.0 C124.0 119.0 124.0 119.0 124.0 119.0 C124.0 119.0 124.0 119.0 124.0 119.0 C124.0 119.0 124.0 119.0 124.0 119.0 C124.0 119.0 124.0 119.0 124.0 119.0 C124.0 119.0 124.0 119.0 124.0 119.0 C124.0 119.0 124.0 119.0 124.0 119.0 C124.0 119.0 124.0 119.0 124.0 119.0 C124.0 119.0 124.0 119.0 124.0 119.0 C124.0 119.0 124.0 119.0 124.0 119.0 C124.0 119.0 124.0 119.0 124.0 119.0 C124.0 119.0 124.0 119.0 124.0 119.0 C124.0 119.0 124.0 119.0 124.0 119.0 C124.0 119.0 124.0 119.0 124.0 119.0 C124.0 119.0 124.0 119.0 124.0 119.0 C124.0 119.0 124.0 119.0 124.0 119.0 C124.0 119.0 124.0 119.0 124.0 119.0 C124.0 119.0 124.0 119.0 124.0 119.0 C124.0 119.0 124.0 119.0 124.0 119.0 C124.0 119.0 124.0 119.0 124.0 119.0 C124.0 119.0 124.0 119.0 124.0 119.0 C124.0 119.0 124.0 119.0 124.0 119.0 C124.0 119.0 124.0 119.0 124.0 119.0 C124.0 119.0 124.0 119.0 124.0 119.0 C124.0 119.0 124.0 119.0 124.0 119.0 C124.0 119.0 124.0 119.0 124.0 119.0 C124.0 119.0 124.0 119.0 124.0 119.0 C124.0 119.0 124.0 119.0 124.0 119.0 C124.0 119.0 124.0 119.0 124.0 119.0 C124.0 119.0 124.0 119.0 124.0 119.0 C124.0 119.0 124.0 119.0 124.0 119.0 C124.0 119.0 124.0 119.0 124.0 119.0 C124.0 119.0 124.0 119.0 124.0 119.0 C124.0 119.0 124.0 119.0 124.0 119.0 C124.0 119.0 124.0 119.0 124.0 119.0 C124.0 119.0 124.0 119.0 124.0 119.0 C124.0 119.0 124.0 119.0 124.0 119.0 C124.0 119.0 124.0 119.0 124.0 119.0 C124.0 119.0 124.0 119.0 124.0 119.0 C124.0 119.0 124.0 119.0 124.0 119.0 C124.0 119.0 124.0 119.0 124.0 119.0 C124.0 119.0 124.0 119.0 124.0 119.0 C124.0 119.0 124.0 119.0 124.0 119.0 C124.0 119.0 124.0 119.0 124.0 119.0 C124.0 119.0 124.0 119.0 124.0 119.0 C124.0 119.0 124.0 119.0 124.0 119.0 C124.0 119.0 124.0 119.0 124.0 119.0 C124.0 119.0 124.0 119.0 124.0 119.0 C124.0 119.0 124.0 119.0 124.0 119.0 C124.0 119.0 124.0 119.0 124.0 119.0 C124.0 119.0 124.0 119.0 124.0 119.0 C124.0 119.0 124.0 119.0 124.0 119.0 C124.0 119.0 124.0 119.0 124.0 119.0 C124.0 119.0 124.0 119.0 124.0 119.0 C124.0 119.0 124.0 119.0 124.0 119.0 C124.0 119.0 124.0 119.0 124.0 119.0 C124.0 119.0 124.0 119.0 124.0 119.0 C124.0 119.0 124.0 119.0 124.0 119.0 C124.0 119.0 124.0 119.0 124.0 119.0 C124.0 119.0 124.0 119.0 124.0 119.0 C124.0 119.0 124.0 119.0 124.0 119.0 C124.0 119.0 124.0 119.0 124.0 119.0 C124.0 119.0 124.0 119.0 124.0 119.0 C124.0 119.0 124.0 119.0 124.0 119.0 C124.0 119.0 124.0 119.0 124.0 119.0 C124.0 119.0 124.0 119.0 124.0 119.0 C124.0 119.0 124.0 119.0 124.0 119.0 C124.0 119.0 124.0 119.0 124.0 119.0 C124.0 119.0 124.0 119.0 124.0 119.0 C124.0 119.0 124.0 119.0 124.0 119.0 C124.0 119.0 124.0 119.0 124.0 119.0 C124.0 119.0 124.0 119.0 124.0 119.0 C124.0 119.0 124.0 119.0 124.0 119.0 C124.0 119.0 124.0 119.0 124.0 119.0 C124.0 119.0 124.0 119.0 124.0 119.0 C124.0 119.0 124.0 119.0 124.0 119.0 C124.0 119.0 124.0 119.0 124.0 119.0 C124.0 119.0 124.0 119.0 124.0 119.0 C124.0 119.0 124.0 119.0 124.0 119.0 C124.0 119.0 124.0 119.0 124.0 119.0 C124.0 119.0 124.0 119.0 124.0 119.0 C124.0 119.0 124.0 119.0 124.0 119.0 C124.0 119.0 124.0 119.0 124.0 119.0 C124.0 119.0 124.0 119.0 124.0 119.0 C124.0 119.0 124.0 119.0 124.0 119.0 C124.0 119.0 124.0 119.0 124.0 119.0 C124.0 119.0 124.0 119.0 124.0 119.0 C124.0 119.0 124.0 119.0 124.0 119.0 C124.0 119.0 124.0 119.0 124.0 119.0 C124.0 119.0 124.0 119.0 124.0 119.0 C124.0 119.0 124.0 119.0 124.0 119.0 C124.0 119.0 124.0 119.0 124.0 119.0 C124.0 119.0 124.0 119.0 124.0 119.0 C124.0 119.0 124.0 119.0 124.0 119.0 C124.0 119.0 124.0 119.0 124.0 119.0 C124.0 119.0 124.0 119.0 124.0 119.0 C124.0 119.0 124.0 119.0 124.0 119.0 C124.0 119.0 124.0 119.0 124.0 119.0 C124.0 119.0 124.0 119.0 124.0 119.0 C124.0 119.0 124.0 119.0 124.0 119.0 C124.0 119.0 124.0 119.0 124.0 119.0 C124.0 119.0 124.0 119.0 124.0 119.0 C124.0 119.0 124.0 119.0 124.0 119.0 C124.0 119.0 124.0 119.0 124.0 119.0 C124.0 119.0 124.0 119.0 124.0 119.0 C124.0 119.0 124.0 119.0 124.0 119.0 C124.0 119.0 124.0 119.0 124.0 119.0 C124.0 119.0 124.0 119.0 124.0 119.0 C124.0 119.0 124.0 119.0 124.0 119.0 C124.0 119.0 124.0 119.0 124.0 119.0 C124.0 119.0 124.0 119.0 124.0 119.0 C124.0 119.0 124.0 119.0 124.0 119.0 C124.0 119.0 124.0 119.0 124.0 119.0 C124.0 119.0 124.0 119.0 124.0 119.0 C124.0 119.0 124.0 119.0 124.0 119.0 C124.0 119.0 124.0 119.0 124.0 119.0 C124.0 119.0 124.0 119.0 124.0 119.0 C124.0 119.0 124.0 119.0 124.0 119.0 C124.0 119.0 124.0 119.0 124.0 119.0 C124.0 119.0 124.0 119.0 124.0 119.0 C124.0 119.0 124.0 119.0 124.0 119.0 C124.0 119.0 124.0 119.0 124.0 119.0 C124.0 119.0 124.0 119.0 124.0 119.0 C124.0 119.0 124.0 119.0 124.0 119.0 C124.0 119.0 124.0 119.0 124.0 119.0 C124.0 119.0 124.0 119.0 124.0 119.0 C124.0 119.0 124.0 119.0 124.0 119.0 C124.0 119.0 124.0 119.0 124.0 119.0 C124.0 119.0 124.0 119.0 124.0 119.0 C124.0 119.0 124.0 119.0 124.0 119.0 C124.0 119.0 124.0 119.0 124.0 119.0 C124.0 119.0 124.0 119.0 124.0 119.0 C124.0 119.0 124.0 119.0 124.0 119.0 C124.0 119.0 124.0 119.0 124.0 119.0 C124.0 119.0 124.0 119.0 124.0 119.0 C124.0 119.0 124.0 119.0 124.0 119.0 C124.0 119.0 124.0 119.0 124.0 119.0 C124.0 119.0 124.0 119.0 124.0 119.0 C124.0 119.0 124.0 119.0 124.0 119.0 C124.0 119.0 124.0 119.0 124.0 119.0 C124.0 119.0 124.0 119.0 124.0 119.0 C124.0 119.0 124.0 119.0 124.0 119.0 C124.0 119.0 124.0 119.0 124.0 119.0 C124.0 119.0 124.0 119.0 124.0 119.0 C124.0 119.0 124.0 119.0 124.0 119.0 C124.0 119.0 124.0 119.0 124.0 119.0 C124.0 119.0 124.0 119.0 124.0 119.0 C124.0 119.0 124.0 119.0 124.0 119.0 C124.0 119.0 124.0 119.0 124.0 119.0 C124.0 119.0 124.0 119.0 124.0 119.0 C124.0 119.0 124.0 119.0 124.0 119.0 C124.0 119.0 124.0 119.0 124.0 119.0 C124.0 119.0 124.0 119.0 124.0 119.0 C124.0 119.0 124.0 119.0 124.0 119.0 C124.0 119.0 124.0 119.0 124.0 119.0 C124.0 119.0 124.0 119.0 124.0 119.0 C124.0 119.0 124.0 119.0 124.0 119.0 C124.0 119.0 124.0 119.0 124.0 119.0 C124.0 119.0 124.0 119.0 124.0 119.0 C124.0 119.0 124.0 119.0 124.0 119.0 C124.0 119.0 124.0 119.0 124.0 119.0 C124.0 119.0 124.0 119.0 124.0 119.0 C124.0 119.0 124.0 119.0 124.0 119.0 C124.0 119.0 124.0 119.0 124.0 119.0 C124.0 119.0 124.0 119.0 124.0 119.0 C124.0 119.0 124.0 119.0 124.0 119.0 C124.0 119.0 124.0 119.0 124.0 119.0 C124.0 119.0 124.0 119.0 124.0 119.0 C124.0 119.0 124.0 119.0 124.0 119.0 C124.0 119.0 124.0 119.0 124.0 119.0 C124.0 119.0 124.0 119.0 124.0 119.0 C124.0 119.0 124.0 119.0 124.0 119.0 C124.0 119.0 124.0 119.0 124.0 119.0 C124.0 119.0 124.0 119.0 124.0 119.0 C124.0 119.0 124.0 119.0 124.0 119.0 C124.0 119.0 124.0 119.0 124.0 119.0 C124.0 119.0 124.0 119.0 124.0 119.0 C124.0 119.0 124.0 119.0 124.0 119.0 C124.0 119.0 124.0 119.0 124.0 119.0 C124.0 119.0 124.0 119.0 124.0 119.0 C124.0 119.0 124.0 119.0 124.0 119.0 C124.0 119.0 124.0 119.0 124.0 119.0 C124.0 119.0 124.0 119.0 124.0 119.0 C124.0 119.0 124.0 119.0 124.0 119.0 C124.0 119.0 124.0 119.0 124.0 119.0 C124.0 119.0 124.0 119.0 124.0 119.0 C124.0 119.0 124.0 119.0 124.0 119.0 C124.0 119.0 124.0 119.0 124.0 119.0 C124.0 119.0 124.0 119.0 124.0 119.0 C124.0 119.0 124.0 119.0 124.0 119.0 C124.0 119.0 124.0 119.0 124.0 119.0 C124.0 119.0 124.0 119.0 124.0 119.0 C124.0 119.0 124.0 119.0 124.0 119.0 C124.0 119.0 124.0 119.0 124.0 119.0 C124.0 119.0 124.0 119.0 124.0 119.0 C124.0 119.0 124.0 119.0 124.0 119.0 C124.0 119.0 124.0 119.0 124.0 119.0 C124.0 119.0 124.0 119.0 124.0 119.0 C124.0 119.0 124.0 119.0 124.0 119.0 C124.0 119.0 124.0 119.0 124.0 119.0 C124.0 119.0 124.0 119.0 124.0 119.0 C124.0 119.0 124.0 119.0 124.0 119.0 C124.0 119.0 124.0 119.0 124.0 119.0 C124.0 119.0 124.0 119.0 124.0 119.0 C124.0 119.0 124.0 119.0 124.0 119.0 C124.0 119.0 124.0 119.0 124.0 119.0 C124.0 119.0 124.0 119.0 124.0 119.0 C124.0 119.0 124.0 119.0 124.0 119.0 C124.0 119.0 124.0 119.0 124.0 119.0 C124.0 119.0 124.0 119.0 124.0 119.0 C124.0 119.0 124.0 119.0 124.0 119.0 M8.0 8.0 L192.0 8.0 L192.0 192.0 L8.0 192.0 L8.0 8.0 L8.0 8.0 Z"></path>
<path fill="#334455" fill-opacity="1.0"  filling="0" d="M55.0 170.0 C53.0 170.0 51.0 170.0 49.0 169.0 C44.0 166.0 42.0 161.0 43.0 156.0 C43.0 156.0 43.0 155.0 43.0 155.0 C43.0 154.0 43.0 154.0 44.0 153.0 C44.0 152.0 44.0 152.0 44.0 151.0 C44.0 150.0 45.0 149.0 45.0 148.0 C45.0 144.0 46.0 139.0 48.0 133.0 C51.0 127.0 53.0 121.0 54.0 114.0 C57.0 106.0 58.0 96.0 58.0 82.0 C58.0 79.0 58.0 76.0 58.0 74.0 C58.0 72.0 58.0 70.0 58.0 69.0 C58.0 68.0 58.0 68.0 58.0 67.0 C58.0 66.0 58.0 65.0 58.0 64.0 C59.0 52.0 66.0 41.0 76.0 33.0 C84.0 29.0 92.0 27.0 100.0 27.0 C108.0 27.0 116.0 29.0 124.0 33.0 C134.0 41.0 141.0 52.0 142.0 64.0 C142.0 65.0 142.0 66.0 142.0 67.0 C142.0 68.0 142.0 68.0 142.0 69.0 C142.0 70.0 142.0 72.0 142.0 74.0 C142.0 76.0 142.0 79.0 142.0 82.0 C142.0 96.0 143.0 106.0 146.0 114.0 C147.0 121.0 149.0 127.0 152.0 133.0 C154.0 139.0 155.0 144.0 155.0 148.0 C155.0 149.0 156.0 150.0 156.0 151.0 C156.0 152.0 156.0 152.0 156.0 153.0 C157.0 154.0 157.0 154.0 157.0 155.0 C157.0 155.0 157.0 156.0 157.0 156.0 C158.0 161.0 156.0 166.0 151.0 169.0 C147.0 171.0 142.0 171.0 138.0 167.0 C138.0 167.0 138.0 166.0 137.0 166.0 C137.0 165.0 136.0 165.0 135.0 165.0 C134.0 164.0 133.0 164.0 132.0 165.0 C131.0 165.0 130.0 165.0 130.0 166.0 C129.0 166.0 129.0 167.0 128.0 167.0 C128.0 168.0 128.0 168.0 127.0 168.0 C124.0 172.0 119.0 174.0 115.0 174.0 C112.0 174.0 109.0 173.0 106.0 171.0 C106.0 171.0 105.0 170.0 105.0 170.0 C104.0 170.0 103.0 169.0 102.0 169.0 C101.0 168.0 99.0 168.0 98.0 169.0 C97.0 169.0 96.0 170.0 95.0 170.0 C95.0 170.0 94.0 171.0 94.0 171.0 C91.0 173.0 88.0 174.0 85.0 174.0 C81.0 174.0 76.0 172.0 73.0 168.0 C72.0 168.0 72.0 168.0 72.0 167.0 C71.0 167.0 71.0 166.0 70.0 166.0 C70.0 165.0 69.0 165.0 68.0 165.0 C67.0 164.0 66.0 164.0 65.0 165.0 C64.0 165.0 63.0 165.0 63.0 166.0 C62.0 166.0 62.0 167.0 62.0 167.0 C60.0 169.0 57.0 170.0 55.0 170.0 L55.0 170.0 Z"></path>
<path fill="#ffffff" fill-opacity="1.0"  filling="0" d="M100.0 31.0 C108.0 31.0 115.0 33.0 122.0 37.0 C131.0 44.0 137.0 54.0 138.0 65.0 C138.0 66.0 138.0 66.0 138.0 67.0 C138.0 68.0 138.0 69.0 138.0 69.0 C138.0 71.0 138.0 72.0 138.0 74.0 C138.0 76.0 138.0 79.0 138.0 82.0 C138.0 96.0 139.0 106.0 142.0 115.0 C143.0 122.0 145.0 128.0 147.0 134.0 C149.0 139.0 150.0 144.0 151.0 148.0 C151.0 149.0 151.0 150.0 152.0 151.0 C152.0 152.0 152.0 153.0 152.0 154.0 C153.0 155.0 153.0 155.0 153.0 156.0 C153.0 156.0 153.0 156.0 153.0 156.0 C154.0 159.0 153.0 163.0 149.0 165.0 C147.0 166.0 144.0 166.0 141.0 164.0 C141.0 164.0 141.0 163.0 140.0 163.0 C139.0 162.0 138.0 161.0 137.0 161.0 C134.0 160.0 131.0 161.0 129.0 162.0 C128.0 163.0 127.0 163.0 127.0 164.0 C126.0 164.0 126.0 165.0 124.0 165.0 C122.0 168.0 119.0 170.0 115.0 170.0 C113.0 170.0 111.0 169.0 109.0 168.0 C108.0 168.0 108.0 167.0 107.0 167.0 C107.0 167.0 106.0 166.0 106.0 166.0 C104.0 166.0 103.0 165.0 101.0 165.0 C100.0 164.0 100.0 164.0 99.0 165.0 C97.0 165.0 96.0 166.0 94.0 166.0 C94.0 166.0 93.0 167.0 93.0 167.0 C92.0 167.0 92.0 168.0 91.0 168.0 C89.0 169.0 87.0 170.0 85.0 170.0 C81.0 170.0 78.0 168.0 76.0 165.0 C74.0 165.0 74.0 164.0 73.0 164.0 C73.0 163.0 72.0 163.0 71.0 162.0 C69.0 161.0 66.0 160.0 63.0 161.0 C62.0 161.0 61.0 162.0 60.0 163.0 C59.0 163.0 59.0 164.0 59.0 164.0 C57.0 166.0 54.0 166.0 51.0 165.0 C49.0 164.0 47.0 161.0 47.0 158.0 C47.0 157.0 47.0 156.0 48.0 156.0 C48.0 155.0 48.0 154.0 48.0 154.0 C48.0 153.0 48.0 152.0 48.0 151.0 C49.0 150.0 49.0 149.0 49.0 148.0 C50.0 144.0 51.0 139.0 53.0 134.0 C55.0 128.0 57.0 122.0 58.0 115.0 C61.0 106.0 62.0 96.0 62.0 82.0 C62.0 79.0 62.0 76.0 62.0 74.0 C62.0 72.0 62.0 71.0 62.0 69.0 C62.0 69.0 62.0 68.0 62.0 67.0 C62.0 66.0 62.0 66.0 62.0 65.0 C63.0 54.0 69.0 44.0 78.0 37.0 C85.0 33.0 92.0 31.0 100.0 31.0 L100.0 31.0 Z"></path>
<path fill="#334455" fill-opacity="1.0"  filling="0" d="M-7.0 -7.0 A6.0 5.0 90.0 1 0 79.0 65.0 A6.0 5.0 90.0 1 0 90.0 65.0 L90.0 65.0 Z"></path>
<path fill="#334455" fill-opacity="1.0"  filling="0" d="M121.0 65.0 A6.0 5.0 90.0 1 0 110.0 65.0 A6.0 5.0 90.0 1 0 121.0 65.0 L121.0 65.0 Z"></path>
<path fill="#000000" fill-opacity="1.0"  filling="0" d="M100.0 81.0 C96.0 81.0 93.0 79.0 92.0 76.0 C92.0 75.0 92.0 74.0 93.0 74.0 C94.0 74.0 95.0 74.0 95.0 75.0 C96.0 77.0 98.0 78.0 100.0 78.0"></path></svg>