<svg xmlns="http://www.w3.org/2000/svg" viewBox="0.0 0.0 200.0 200.0" height="200px" width="200px"><path fill="#ff8833" fill-opacity="1.0"  filling="0" d="M128.0 121.0 C128.0 121.0 128.0 122.0 128.0 123.0 C129.0 129.0 130.0 134.0 129.0 139.0 C128.0 149.0 123.0 157.0 114.0 161.0 C111.0 164.0 106.0 165.0 101.0 165.0 C100.0 165.0 100.0 165.0 99.0 165.0 C94.0 165.0 89.0 164.0 86.0 161.0 C77.0 157.0 72.0 149.0 71.0 139.0 C70.0 134.0 71.0 129.0 72.0 123.0 C72.0 122.0 72.0 121.0 72.0 121.0 C72.0 120.0 73.0 119.0 74.0 119.0 L126.0 119.0 C127.0 119.0 128.0 120.0 128.0 121.0 L128.0 121.0 Z"></path>
<path fill="#ff8833" fill-opacity="1.0"  filling="0" d="M128.0 121.0 C128.0 121.0 128.0 122.0 128.0 123.0 C129.0 129.0 130.0 134.0 129.0 139.0 C128.0 149.0 123.0 157.0 114.0 161.0 C111.0 164.0 106.0 165.0 101.0 165.0 C100.0 165.0 100.0 165.0 99.0 165.0 C94.0 165.0 89.0 164.0 86.0 161.0 C77.0 157.0 72.0 149.0 71.0 139.0 C70.0 134.0 71.0 129.0 72.0 123.0 C72.0 122.0 72.0 121.0 72.0 121.0 C72.0 120.0 73.0 119.0 74.0 119.0 L126.0 119.0 C127.0 119.0 128.0 120.0 128.0 121.0 L128.0 121.0 Z"></path>
<path fill="#445555" fill-opacity="1.0"  filling="0" d="M100.0 146.0 C93.0 146.0 88.0 145.0 84.0 143.0 C86.0 151.0 92.0 156.0 100.0 156.0 C108.0 156.0 114.0 151.0 116.0 143.0 C112.0 145.0 107.0 146.0 100.0 146.0 L100.0 146.0 Z"></path>
<path fill="#445555" fill-opacity="1.0"  filling="0" d="M100.0 135.0 L97.0 141.0 C97.0 141.0 97.0 141.0 97.0 141.0 C98.0 142.0 99.0 142.0 100.0 142.0 C101.0 142.0 102.0 142.0 103.0 141.0 C103.0 141.0 103.0 141.0 103.0 141.0 L100.0 135.0 L100.0 135.0 Z"></path>
<path fill="#445555" fill-opacity="1.0"  filling="0" d="M90.0 127.0 C90.0 127.0 90.0 127.0 90.0 127.0 C90.0 127.0 90.0 127.0 90.0 127.0 C90.0 127.0 90.0 127.0 90.0 127.0 C90.0 127.0 90.0 127.0 90.0 127.0 L90.0 127.0 Z"></path>
<path fill="#445555" fill-opacity="1.0"  filling="0" d="M100.0 134.0 C100.0 134.0 100.0 134.0 100.0 134.0 C100.0 134.0 100.0 134.0 100.0 134.0 C100.0 134.0 100.0 134.0 100.0 134.0 C100.0 134.0 100.0 134.0 100.0 134.0 L100.0 134.0 Z"></path>
<path fill="#445555" fill-opacity="1.0"  filling="0" d="M110.0 127.0 C110.0 127.0 110.0 127.0 110.0 127.0 C110.0 127.0 110.0 127.0 110.0 127.0 C110.0 127.0 110.0 127.0 110.0 127.0 C110.0 127.0 110.0 127.0 110.0 127.0 L110.0 127.0 Z"></path>
<path fill="#445555" fill-opacity="1.0"  filling="0" d="M100.0 134.0 C100.0 134.0 100.0 134.0 100.0 134.0 C100.0 134.0 100.0 134.0 100.0 134.0 C100.0 134.0 100.0 134.0 100.0 134.0 C100.0 134.0 100.0 134.0 100.0 134.0 L100.0 134.0 Z"></path>
<path fill="#445555" fill-opacity="1.0"  filling="0" d="M90.0 127.0 C90.0 127.0 90.0 127.0 90.0 127.0 C90.0 127.0 90.0 127.0 90.0 127.0 C90.0 127.0 90.0 127.0 90.0 127.0 C90.0 127.0 90.0 127.0 90.0 127.0 L90.0 127.0 Z"></path>
<path fill="#445555" fill-opacity="1.0"  filling="0" d="M100.0 134.0 C100.0 134.0 100.0 134.0 100.0 134.0 C100.0 134.0 100.0 134.0 100.0 134.0 C100.0 134.0 100.0 134.0 100.0 134.0 C100.0 134.0 100.0 134.0 100.0 134.0 L100.0 134.0 Z"></path>
<path fill="#445555" fill-opacity="1.0"  filling="0" d="M110.0 127.0 C110.0 127.0 110.0 127.0 110.0 127.0 C110.0 127.0 110.0 127.0 110.0 127.0 C110.0 127.0 110.0 127.0 110.0 127.0 C110.0 127.0 110.0 127.0 110.0 127.0 L110.0 127.0 Z"></path>
<path fill="#445555" fill-opacity="1.0"  filling="0" d="M110.0 127.0 C110.0 127.0 110.0 127.0 110.0 127.0 C110.0 127.0 110.0 127.0 110.0 127.0 C110.0 127.0 110.0 127.0 110.0 127.0 C110.0 127.0 110.0 127.0 110.0 127.0 L110.0 127.0 Z"></path>
<path fill="#445555" fill-opacity="1.0"  filling="0" d="M100.0 134.0 C100.0 134.0 100.0 134.0 100.0 134.0 C100.0 134.0 100.0 134.0 100.0 134.0 C100.0 134.0 100.0 134.0 100.0 134.0 C100.0 134.0 100.0 134.0 100.0 134.0 L100.0 134.0 Z"></path>
<path fill="#445555" fill-opacity="1.0"  filling="0" d="M100.0 134.0 C100.0 134.0 100.0 134.0 100.0 134.0 C100.0 134.0 100.0 134.0 100.0 134.0 C100.0 134.0 100.0 134.0 100.0 134.0 C100.0 134.0 100.0 134.0 100.0 134.0 L100.0 134.0 Z"></path>
<path fill="#445555" fill-opacity="1.0"  filling="0" d="M90.0 127.0 C90.0 127.0 90.0 127.0 90.0 127.0 C90.0 127.0 90.0 127.0 90.0 127.0 C90.0 127.0 90.0 127.0 90.0 127.0 C90.0 127.0 90.0 127.0 90.0 127.0 L90.0 127.0 Z"></path>
<path fill="#445555" fill-opacity="1.0"  filling="0" d="M110.0 127.0 C110.0 127.0 110.0 127.0 110.0 127.0 C110.0 127.0 110.0 127.0 110.0 127.0 C110.0 127.0 110.0 127.0 110.0 127.0 C110.0 127.0 110.0 127.0 110.0 127.0 L110.0 127.0 Z"></path>
<path fill="#445555" fill-opacity="1.0"  filling="0" d="M100.0 134.0 C100.0 134.0 100.0 134.0 100.0 134.0 C100.0 134.0 100.0 134.0 100.0 134.0 C100.0 134.0 100.0 134.0 100.0 134.0 C100.0 134.0 100.0 134.0 100.0 134.0 L100.0 134.0 Z"></path>
<path fill="#445555" fill-opacity="1.0"  filling="0" d="M100.0 134.0 C100.0 134.0 100.0 134.0 100.0 134.0 C100.0 134.0 100.0 134.0 100.0 134.0 C100.0 134.0 100.0 134.0 100.0 134.0 C100.0 134.0 100.0 134.0 100.0 134.0 L100.0 134.0 Z"></path>
<path fill="#445555" fill-opacity="1.0"  filling="0" d="M110.0 127.0 C110.0 127.0 110.0 127.0 110.0 127.0 C110.0 127.0 110.0 127.0 110.0 127.0 C110.0 127.0 110.0 127.0 110.0 127.0 C110.0 127.0 110.0 127.0 110.0 127.0 L110.0 127.0 Z"></path>
<path fill="#445555" fill-opacity="1.0"  filling="0" d="M110.0 127.0 C110.0 127.0 110.0 127.0 110.0 127.0 C110.0 127.0 110.0 127.0 110.0 127.0 C110.0 127.0 110.0 127.0 110.0 127.0 C110.0 127.0 110.0 127.0 110.0 127.0 L110.0 127.0 Z"></path>
<path fill="#445555" fill-opacity="1.0"  filling="0" d="M100.0 134.0 C100.0 134.0 100.0 134.0 100.0 134.0 C100.0 134.0 100.0 134.0 100.0 134.0 C100.0 134.0 100.0 134.0 100.0 134.0 C100.0 134.0 100.0 134.0 100.0 134.0 L100.0 134.0 Z"></path>
<path fill="#445555" fill-opacity="1.0"  filling="0" d="M100.0 134.0 C100.0 134.0 100.0 134.0 100.0 134.0 C100.0 134.0 100.0 134.0 100.0 134.0 C100.0 134.0 100.0 134.0 100.0 134.0 C100.0 134.0 100.0 134.0 100.0 134.0 L100.0 134.0 Z"></path>
<path fill="#445555" fill-opacity="1.0"  filling="0" d="M90.0 127.0 C90.0 127.0 90.0 127.0 90.0 127.0 C90.0 127.0 90.0 127.0 90.0 127.0 C90.0 127.0 90.0 127.0 90.0 127.0 C90.0 127.0 90.0 127.0 90.0 127.0 L90.0 127.0 Z"></path>
<path fill="#445555" fill-opacity="1.0"  filling="0" d="M90.0 127.0 C90.0 127.0 90.0 127.0 90.0 127.0 C90.0 127.0 90.0 127.0 90.0 127.0 C90.0 127.0 90.0 127.0 90.0 127.0 C90.0 127.0 90.0 127.0 90.0 127.0 L90.0 127.0 Z"></path>
<path fill="#445555" fill-opacity="1.0"  filling="0" d="M100.0 134.0 C100.0 134.0 100.0 134.0 100.0 134.0 C100.0 134.0 100.0 134.0 100.0 134.0 C100.0 134.0 100.0 134.0 100.0 134.0 C100.0 134.0 100.0 134.0 100.0 134.0 L100.0 134.0 Z"></path>
<path fill="#445555" fill-opacity="1.0"  filling="0" d="M100.0 134.0 C100.0 134.0 100.0 134.0 100.0 134.0 C100.0 134.0 100.0 134.0 100.0 134.0 C100.0 134.0 100.0 134.0 100.0 134.0 C100.0 134.0 100.0 134.0 100.0 134.0 L100.0 134.0 Z"></path>
<path fill="#445555" fill-opacity="1.0"  filling="0" d="M110.0 127.0 C110.0 127.0 110.0 127.0 110.0 127.0 C110.0 127.0 110.0 127.0 110.0 127.0 C110.0 127.0 110.0 127.0 110.0 127.0 C110.0 127.0 110.0 127.0 110.0 127.0 L110.0 127.0 Z"></path>
<path fill="#445555" fill-opacity="1.0"  filling="0" d="M110.0 127.0 C110.0 127.0 110.0 127.0 110.0 127.0 C110.0 127.0 110.0 127.0 110.0 127.0 C110.0 127.0 110.0 127.0 110.0 127.0 C110.0 127.0 110.0 127.0 110.0 127.0 L110.0 127.0 Z"></path>
<path fill="#445555" fill-opacity="1.0"  filling="0" d="M100.0 134.0 C100.0 134.0 100.0 134.0 100.0 134.0 C100.0 134.0 100.0 134.0 100.0 134.0 C100.0 134.0 100.0 134.0 100.0 134.0 C100.0 134.0 100.0 134.0 100.0 134.0 L100.0 134.0 Z"></path>
<path fill="#445555" fill-opacity="1.0"  filling="0" d="M100.0 134.0 C100.0 134.0 100.0 134.0 100.0 134.0 C100.0 134.0 100.0 134.0 100.0 134.0 C100.0 134.0 100.0 134.0 100.0 134.0 C100.0 134.0 100.0 134.0 100.0 134.0 L100.0 134.0 Z"></path>
<path fill="#445555" fill-opacity="1.0"  filling="0" d="M90.0 127.0 C90.0 127.0 90.0 127.0 90.0 127.0 C90.0 127.0 90.0 127.0 90.0 127.0 C90.0 127.0 90.0 127.0 90.0 127.0 C90.0 127.0 90.0 127.0 90.0 127.0 L90.0 127.0 Z"></path>
<path fill="#445555" fill-opacity="1.0"  filling="0" d="M90.0 127.0 C90.0 127.0 90.0 127.0 90.0 127.0 C90.0 127.0 90.0 127.0 90.0 127.0 C90.0 127.0 90.0 127.0 90.0 127.0 C90.0 127.0 90.0 127.0 90.0 127.0 L90.0 127.0 Z"></path>
<path fill="#445555" fill-opacity="1.0"  filling="0" d="M100.0 134.0 C100.0 134.0 100.0 134.0 100.0 134.0 C100.0 134.0 100.0 134.0 100.0 134.0 C100.0 134.0 100.0 134.0 100.0 134.0 C100.0 134.0 100.0 134.0 100.0 134.0 L100.0 134.0 Z"></path>
<path fill="#445555" fill-opacity="1.0"  filling="0" d="M100.0 134.0 C100.0 134.0 100.0 134.0 100.0 134.0 C100.0 134.0 100.0 134.0 100.0 134.0 C100.0 134.0 100.0 134.0 100.0 134.0 C100.0 134.0 100.0 134.0 100.0 134.0 L100.0 134.0 Z"></path>
<path fill="#445555" fill-opacity="1.0"  filling="0" d="M110.0 127.0 C110.0 127.0 110.0 127.0 110.0 127.0 C110.0 127.0 110.0 127.0 110.0 127.0 C110.0 127.0 110.0 127.0 110.0 127.0 C110.0 127.0 110.0 127.0 110.0 127.0 L110.0 127.0 Z"></path>
<path fill="#445555" fill-opacity="1.0"  filling="0" d="M110.0 127.0 C110.0 127.0 110.0 127.0 110.0 127.0 C110.0 127.0 110.0 127.0 110.0 127.0 C110.0 127.0 110.0 127.0 110.0 127.0 C110.0 127.0 110.0 127.0 110.0 127.0 L110.0 127.0 Z"></path>
<path fill="#445555" fill-opacity="1.0"  filling="0" d="M100.0 134.0 C100.0 134.0 100.0 134.0 100.0 134.0 C100.0 134.0 100.0 134.0 100.0 134.0 C100.0 134.0 100.0 134.0 100.0 134.0 C100.0 134.0 100.0 134.0 100.0 134.0 L100.0 134.0 Z"></path>
<path fill="#445555" fill-opacity="1.0"  filling="0" d="M100.0 134.0 C100.0 134.0 100.0 134.0 100.0 134.0 C100.0 134.0 100.0 134.0 100.0 134.0 C100.0 134.0 100.0 134.0 100.0 134.0 C100.0 134.0 100.0 134.0 100.0 134.0 L100.0 134.0 Z"></path>
<path fill="#445555" fill-opacity="1.0"  filling="0" d="M90.0 127.0 C90.0 127.0 90.0 127.0 90.0 127.0 C90.0 127.0 90.0 127.0 90.0 127.0 C90.0 127.0 90.0 127.0 90.0 127.0 C90.0 127.0 90.0 127.0 90.0 127.0 L90.0 127.0 Z"></path>
<path fill="#445555" fill-opacity="1.0"  filling="0" d="M90.0 127.0 C90.0 127.0 90.0 127.0 90.0 127.0 C90.0 127.0 90.0 127.0 90.0 127.0 C90.0 127.0 90.0 127.0 90.0 127.0 C90.0 127.0 90.0 127.0 90.0 127.0 L90.0 127.0 Z"></path>
<path fill="#445555" fill-opacity="1.0"  filling="0" d="M100.0 134.0 C100.0 134.0 100.0 134.0 100.0 134.0 C100.0 134.0 100.0 134.0 100.0 134.0 C100.0 134.0 100.0 134.0 100.0 134.0 C100.0 134.0 100.0 134.0 100.0 134.0 L100.0 134.0 Z"></path>
<path fill="#445555" fill-opacity="1.0"  filling="0" d="M100.0 134.0 C100.0 134.0 100.0 134.0 100.0 134.0 C100.0 134.0 100.0 134.0 100.0 134.0 C100.0 134.0 100.0 134.0 100.0 134.0 C100.0 134.0 100.0 134.0 100.0 134.0 L100.0 134.0 Z"></path>
<path fill="#445555" fill-opacity="1.0"  filling="0" d="M110.0 127.0 C110.0 127.0 110.0 127.0 110.0 127.0 C110.0 127.0 110.0 127.0 110.0 127.0 C110.0 127.0 110.0 127.0 110.0 127.0 C110.0 127.0 110.0 127.0 110.0 127.0 L110.0 127.0 Z"></path>
<path fill="#445555" fill-opacity="1.0"  filling="0" d="M110.0 127.0 C110.0 127.0 110.0 127.0 110.0 127.0 C110.0 127.0 110.0 127.0 110.0 127.0 C110.0 127.0 110.0 127.0 110.0 127.0 C110.0 127.0 110.0 127.0 110.0 127.0 L110.0 127.0 Z"></path>
<path fill="#445555" fill-opacity="1.0"  filling="0" d="M100.0 134.0 C100.0 134.0 100.0 134.0 100.0 134.0 C100.0 134.0 100.0 134.0 100.0 134.0 C100.0 134.0 100.0 134.0 100.0 134.0 C100.0 134.0 100.0 134.0 100.0 134.0 L100.0 134.0 Z"></path>
<path fill="#445555" fill-opacity="1.0"  filling="0" d="M100.0 134.0 C100.0 134.0 100.0 134.0 100.0 134.0 C100.0 134.0 100.0 134.0 100.0 134.0 C100.0 134.0 100.0 134.0 100.0 134.0 C100.0 134.0 100.0 134.0 100.0 134.0 L100.0 134.0 Z"></path>
<path fill="#445555" fill-opacity="1.0"  filling="0" d="M90.0 127.0 C90.0 127.0 90.0 127.0 90.0 127.0 C90.0 127.0 90.0 127.0 90.0 127.0 C90.0 127.0 90.0 127.0 90.0 127.0 C90.0 127.0 90.0 127.0 90.0 127.0 L90.0 127.0 Z"></path>
<path fill="#445555" fill-opacity="1.0"  filling="0" d="M90.0 127.0 C90.0 127.0 90.0 127.0 90.0 127.0 C90.0 127.0 90.0 127.0 90.0 127.0 C90.0 127.0 90.0 127.0 90.0 127.0 C90.0 127.0 90.0 127.0 90.0 127.0 L90.0 127.0 Z"></path>
<path fill="#445555" fill-opacity="1.0"  filling="0" d="M100.0 134.0 C100.0 134.0 100.0 134.0 100.0 134.0 C100.0 134.0 100.0 134.0 100.0 134.0 C100.0 134.0 100.0 134.0 100.0 134.0 C100.0 134.0 100.0 134.0 100.0 134.0 L100.0 134.0 Z"></path>
<path fill="#445555" fill-opacity="1.0"  filling="0" d="M100.0 134.0 C100.0 134.0 100.0 134.0 100.0 134.0 C100.0 134.0 100.0 134.0 100.0 134.0 C100.0 134.0 100.0 134.0 100.0 134.0 C100.0 134.0 100.0 134.0 100.0 134.0 L100.0 134.0 Z"></path>
<path fill="#000000" fill-opacity="1.0"  filling="0" d="M110.0 127.0 C110.0 127.0 110.0 127.0 110.0 127.0 C110.0 127.0 110.0 127.0 110.0 127.0 C110.0 127.0 110.0 127.0 110.0 127.0"></path></svg>