<svg xmlns="http://www.w3.org/2000/svg" viewBox="0.0 0.0 200.0 200.0" height="200px" width="200px"><path fill="#77aaff" fill-opacity="1.0"  filling="0" d="M61.0 151.0 C61.0 151.0 60.0 150.0 60.0 150.0 C60.0 148.0 61.0 147.0 61.0 147.0 C62.0 147.0 63.0 148.0 63.0 150.0 C63.0 150.0 62.0 151.0 61.0 151.0 L61.0 151.0 Z M61.0 149.0 C61.0 149.0 61.0 149.0 61.0 150.0 C61.0 150.0 61.0 150.0 61.0 150.0 C62.0 150.0 62.0 150.0 62.0 150.0 C62.0 149.0 62.0 149.0 61.0 149.0 L61.0 149.0 Z"></path>
<path fill="#77aaff" fill-opacity="1.0"  filling="0" d="M117.0 43.0 C117.0 43.0 117.0 44.0 117.0 44.0 C117.0 45.0 117.0 45.0 117.0 45.0 C118.0 45.0 118.0 45.0 118.0 44.0 C118.0 44.0 118.0 43.0 117.0 43.0 L117.0 43.0 Z"></path>
<path fill="#77aaff" fill-opacity="1.0"  filling="0" d="M96.0 38.0 C95.0 38.0 94.0 37.0 94.0 36.0 C94.0 34.0 95.0 33.0 96.0 33.0 C98.0 33.0 99.0 34.0 99.0 36.0 C99.0 37.0 98.0 38.0 96.0 38.0 L96.0 38.0 Z M96.0 34.0 C96.0 34.0 95.0 35.0 95.0 36.0 C95.0 36.0 96.0 37.0 96.0 37.0 C97.0 37.0 98.0 36.0 98.0 36.0 C98.0 35.0 97.0 34.0 96.0 34.0 L96.0 34.0 Z"></path>
<path fill="#77aaff" fill-opacity="1.0"  filling="0" d="M39.0 127.0 C37.0 127.0 36.0 126.0 36.0 125.0 C36.0 124.0 37.0 123.0 39.0 123.0 C40.0 123.0 41.0 124.0 41.0 125.0 C41.0 126.0 40.0 127.0 39.0 127.0 L39.0 127.0 Z M39.0 124.0 C38.0 124.0 37.0 124.0 37.0 125.0 C37.0 126.0 38.0 126.0 39.0 126.0 C39.0 126.0 40.0 126.0 40.0 125.0 C40.0 124.0 39.0 124.0 39.0 124.0 L39.0 124.0 Z"></path>
<path fill="#77aaff" fill-opacity="1.0"  filling="0" d="M152.0 120.0 C152.0 120.0 151.0 119.0 151.0 119.0 C151.0 118.0 152.0 118.0 152.0 118.0 C153.0 118.0 153.0 118.0 153.0 119.0 C153.0 119.0 153.0 120.0 152.0 120.0 L152.0 120.0 Z"></path>
<path fill="#77aaff" fill-opacity="1.0"  filling="0" d="M158.0 128.0 C158.0 128.0 157.0 127.0 157.0 126.0 C157.0 125.0 158.0 124.0 158.0 124.0 C159.0 124.0 160.0 125.0 160.0 126.0 C160.0 127.0 159.0 128.0 158.0 128.0 L158.0 128.0 Z"></path>
<path fill="#77aaff" fill-opacity="1.0"  filling="0" d="M166.0 125.0 C165.0 125.0 165.0 124.0 165.0 123.0 C165.0 122.0 165.0 121.0 166.0 121.0 C167.0 121.0 168.0 122.0 168.0 123.0 C168.0 124.0 167.0 125.0 166.0 125.0 L166.0 125.0 Z"></path>
<path fill="#77aaff" fill-opacity="1.0"  filling="0" d="M160.0 77.0 C159.0 77.0 158.0 76.0 158.0 75.0 C158.0 74.0 159.0 73.0 160.0 73.0 C161.0 73.0 162.0 74.0 162.0 75.0 C162.0 76.0 161.0 77.0 160.0 77.0 L160.0 77.0 Z M160.0 74.0 C159.0 74.0 159.0 74.0 159.0 75.0 C159.0 76.0 159.0 76.0 160.0 76.0 C160.0 76.0 161.0 76.0 161.0 75.0 C161.0 74.0 160.0 74.0 160.0 74.0 L160.0 74.0 Z"></path>
<path fill="#77aaff" fill-opacity="1.0"  filling="0" d="M141.0 65.0 C141.0 65.0 141.0 64.0 140.0 64.0 C140.0 63.0 141.0 63.0 141.0 63.0 C142.0 63.0 142.0 63.0 142.0 64.0 C142.0 64.0 142.0 65.0 141.0 65.0 L141.0 65.0 Z"></path>
<path fill="#77aaff" fill-opacity="1.0"  filling="0" d="M140.0 72.0 C139.0 72.0 139.0 71.0 139.0 70.0 C139.0 69.0 139.0 68.0 140.0 68.0 C141.0 68.0 142.0 69.0 142.0 70.0 C142.0 71.0 141.0 72.0 140.0 72.0 L140.0 72.0 Z"></path>
<path fill="#77aaff" fill-opacity="1.0"  filling="0" d="M130.0 69.0 C129.0 69.0 128.0 68.0 128.0 67.0 C128.0 66.0 129.0 65.0 130.0 65.0 C131.0 65.0 132.0 66.0 132.0 67.0 C132.0 68.0 131.0 69.0 130.0 69.0 L130.0 69.0 Z M130.0 66.0 C129.0 66.0 129.0 67.0 129.0 67.0 C129.0 68.0 129.0 68.0 130.0 68.0 C130.0 68.0 131.0 68.0 131.0 67.0 C131.0 67.0 130.0 66.0 130.0 66.0 L130.0 66.0 Z"></path>
<path fill="#77aaff" fill-opacity="1.0"  filling="0" d="M70.0 57.0 C70.0 57.0 69.0 56.0 69.0 56.0 C69.0 55.0 70.0 55.0 70.0 55.0 C71.0 55.0 71.0 55.0 71.0 56.0 C71.0 56.0 71.0 57.0 70.0 57.0 L70.0 57.0 Z"></path>
<path fill="#77aaff" fill-opacity="1.0"  filling="0" d="M70.0 65.0 C69.0 65.0 68.0 64.0 68.0 63.0 C68.0 61.0 69.0 60.0 70.0 60.0 C72.0 60.0 73.0 61.0 73.0 63.0 C73.0 64.0 72.0 65.0 70.0 65.0 L70.0 65.0 Z"></path>
<path fill="#77aaff" fill-opacity="1.0"  filling="0" d="M60.0 65.0 C59.0 65.0 58.0 64.0 58.0 63.0 C58.0 61.0 59.0 60.0 60.0 60.0 C62.0 60.0 63.0 61.0 63.0 63.0 C63.0 64.0 62.0 65.0 60.0 65.0 L60.0 65.0 Z M60.0 61.0 C60.0 61.0 59.0 61.0 59.0 63.0 C59.0 63.0 60.0 64.0 60.0 64.0 C61.0 64.0 62.0 63.0 62.0 63.0 C62.0 61.0 61.0 61.0 60.0 61.0 L60.0 61.0 Z"></path>
<path fill="#77aaff" fill-opacity="1.0"  filling="0" d="M43.0 99.0 C42.0 99.0 42.0 98.0 42.0 98.0 C42.0 97.0 42.0 96.0 43.0 96.0 C43.0 96.0 44.0 97.0 44.0 98.0 C44.0 98.0 43.0 99.0 43.0 99.0 L43.0 99.0 Z"></path>
<path fill="#77aaff" fill-opacity="1.0"  filling="0" d="M43.0 106.0 C42.0 106.0 41.0 105.0 41.0 104.0 C41.0 103.0 42.0 102.0 43.0 102.0 C44.0 102.0 45.0 103.0 45.0 104.0 C45.0 105.0 44.0 106.0 43.0 106.0 L43.0 106.0 Z"></path>
<path fill="#77aaff" fill-opacity="1.0"  filling="0" d="M36.0 106.0 C36.0 106.0 35.0 105.0 35.0 105.0 C35.0 104.0 36.0 103.0 36.0 103.0 C37.0 103.0 38.0 104.0 38.0 105.0 C38.0 105.0 37.0 106.0 36.0 106.0 L36.0 106.0 Z"></path>
<path fill="#77aaff" fill-opacity="1.0"  filling="0" d="M36.0 97.0 C35.0 97.0 34.0 96.0 34.0 95.0 C34.0 94.0 35.0 93.0 36.0 93.0 C37.0 93.0 38.0 94.0 38.0 95.0 C38.0 96.0 37.0 97.0 36.0 97.0 L36.0 97.0 Z"></path>
<path fill="#77aaff" fill-opacity="1.0"  filling="0" d="M39.0 90.0 C37.0 90.0 36.0 89.0 36.0 88.0 C36.0 87.0 37.0 86.0 39.0 86.0 C40.0 86.0 41.0 87.0 41.0 88.0 C41.0 89.0 40.0 90.0 39.0 90.0 L39.0 90.0 Z"></path>
<path fill="#77aaff" fill-opacity="1.0"  filling="0" d="M43.0 81.0 C42.0 81.0 41.0 80.0 41.0 79.0 C41.0 78.0 42.0 77.0 43.0 77.0 C44.0 77.0 45.0 78.0 45.0 79.0 C45.0 80.0 44.0 81.0 43.0 81.0 L43.0 81.0 Z"></path>
<path fill="#77aaff" fill-opacity="1.0"  filling="0" d="M51.0 70.0 C50.0 70.0 49.0 70.0 49.0 69.0 C49.0 68.0 50.0 67.0 51.0 67.0 C52.0 67.0 53.0 68.0 53.0 69.0 C53.0 70.0 52.0 70.0 51.0 70.0 L51.0 70.0 Z"></path>
<path fill="#77aaff" fill-opacity="1.0"  filling="0" d="M117.0 146.0 C116.0 146.0 115.0 145.0 115.0 144.0 C115.0 143.0 116.0 142.0 117.0 142.0 C118.0 142.0 119.0 143.0 119.0 144.0 C119.0 145.0 118.0 146.0 117.0 146.0 L117.0 146.0 Z"></path>
<path fill="#77aaff" fill-opacity="1.0"  filling="0" d="M117.0 151.0 C116.0 151.0 115.0 150.0 115.0 149.0 C115.0 148.0 116.0 147.0 117.0 147.0 C118.0 147.0 119.0 148.0 119.0 149.0 C119.0 150.0 118.0 151.0 117.0 151.0 L117.0 151.0 Z"></path>
<path fill="#77aaff" fill-opacity="1.0"  filling="0" d="M111.0 154.0 C110.0 154.0 110.0 154.0 110.0 153.0 C110.0 152.0 110.0 152.0 111.0 152.0 C112.0 152.0 113.0 152.0 113.0 153.0 C113.0 154.0 112.0 154.0 111.0 154.0 L111.0 154.0 Z"></path>
<path fill="#77aaff" fill-opacity="1.0"  filling="0" d="M111.0 158.0 C110.0 158.0 110.0 157.0 110.0 156.0 C110.0 156.0 110.0 155.0 111.0 155.0 C112.0 155.0 113.0 156.0 113.0 156.0 C113.0 157.0 112.0 158.0 111.0 158.0 L111.0 158.0 Z"></path>
<path fill="#77aaff" fill-opacity="1.0"  filling="0" d="M117.0 159.0 C116.0 159.0 116.0 159.0 116.0 158.0 C116.0 157.0 116.0 156.0 117.0 156.0 C118.0 156.0 119.0 157.0 119.0 158.0 C119.0 159.0 118.0 159.0 117.0 159.0 L117.0 159.0 Z"></path>
<path fill="#77aaff" fill-opacity="1.0"  filling="0" d="M123.0 155.0 C122.0 155.0 122.0 155.0 122.0 154.0 C122.0 153.0 122.0 152.0 123.0 152.0 C124.0 152.0 125.0 153.0 125.0 154.0 C125.0 155.0 124.0 155.0 123.0 155.0 L123.0 155.0 Z"></path>
<path fill="#77aaff" fill-opacity="1.0"  filling="0" d="M128.0 146.0 C127.0 146.0 126.0 145.0 126.0 144.0 C126.0 143.0 127.0 142.0 128.0 142.0 C129.0 142.0 130.0 143.0 130.0 144.0 C130.0 145.0 129.0 146.0 128.0 146.0 L128.0 146.0 Z"></path>
<path fill="#77aaff" fill-opacity="1.0"  filling="0" d="M71.0 146.0 C70.0 146.0 69.0 145.0 69.0 144.0 C69.0 143.0 70.0 142.0 71.0 142.0 C72.0 142.0 72.0 143.0 72.0 144.0 C72.0 145.0 72.0 146.0 71.0 146.0 L71.0 146.0 Z"></path>
<path fill="#77aaff" fill-opacity="1.0"  filling="0" d="M71.0 155.0 C70.0 155.0 69.0 155.0 69.0 154.0 C69.0 153.0 70.0 152.0 71.0 152.0 C72.0 152.0 72.0 153.0 72.0 154.0 C72.0 155.0 72.0 155.0 71.0 155.0 L71.0 155.0 Z"></path>
<path fill="#77aaff" fill-opacity="1.0"  filling="0" d="M80.0 159.0 C79.0 159.0 78.0 159.0 78.0 158.0 C78.0 157.0 79.0 156.0 80.0 156.0 C81.0 156.0 82.0 157.0 82.0 158.0 C82.0 159.0 81.0 159.0 80.0 159.0 L80.0 159.0 Z"></path>
<path fill="#77aaff" fill-opacity="1.0"  filling="0" d="M88.0 162.0 C87.0 162.0 87.0 161.0 87.0 160.0 C87.0 159.0 87.0 159.0 88.0 159.0 C89.0 159.0 90.0 159.0 90.0 160.0 C90.0 161.0 89.0 162.0 88.0 162.0 L88.0 162.0 Z"></path>
<path fill="#77aaff" fill-opacity="1.0"  filling="0" d="M94.0 159.0 C93.0 159.0 93.0 159.0 93.0 158.0 C93.0 157.0 93.0 156.0 94.0 156.0 C95.0 156.0 95.0 157.0 95.0 158.0 C95.0 159.0 95.0 159.0 94.0 159.0 L94.0 159.0 Z"></path>
<path fill="#000000" fill-opacity="1.0"  filling="0" d="M106.0 143.0 C96.0 143.0 86.0 139.0 79.0 132.0 C71.0 124.0 67.0 114.0 67.0 104.0 C67.0 104.0 67.0 104.0 67.0 104.0 C67.0 104.0 67.0 104.0 67.0 104.0 C67.0 104.0 67.0 104.0 67.0 104.0 C67.0 104.0 67.0 104.0 67.0 104.0 C67.0 104.0 67.0 104.0 67.0 104.0 C67.0 104.0 67.0 104.0 67.0 104.0 C67.0 104.0 67.0 104.0 67.0 104.0 C67.0 104.0 67.0 104.0 67.0 104.0 C67.0 104.0 67.0 104.0 67.0 104.0 C67.0 104.0 67.0 104.0 67.0 104.0 C67.0 104.0 67.0 104.0 67.0 104.0 C67.0 104.0 67.0 104.0 67.0 104.0 C67.0 104.0 67.0 104.0 67.0 104.0 C67.0 104.0 67.0 104.0 67.0 104.0 C67.0 104.0 67.0 104.0 67.0 104.0 C67.0 104.0 67.0 104.0 67.0 104.0 C68.0 109.0 70.0 114.0 73.0 118.0 C76.0 122.0 79.0 126.0 83.0 129.0 C89.0 134.0 97.0 137.0 106.0 137.0 C116.0 137.0 125.0 133.0 132.0 126.0 C139.0 119.0 143.0 110.0 147.0 101.0 C147.0 102.0 147.0 102.0 147.0 102.0 C147.0 102.0 147.0 102.0 147.0 102.0 C147.0 102.0 147.0 102.0 147.0 102.0 C147.0 102.0 147.0 102.0 147.0 102.0 C147.0 102.0 147.0 102.0 147.0 102.0 C147.0 102.0 147.0 102.0 147.0 102.0 C147.0 102.0 147.0 102.0 147.0 102.0 C147.0 102.0 147.0 102.0 147.0 102.0 C147.0 102.0 147.0 102.0 147.0 102.0 C147.0 102.0 147.0 102.0 147.0 102.0 C147.0 102.0 147.0 102.0 147.0 102.0 C147.0 102.0 147.0 102.0 147.0 102.0 C147.0 102.0 147.0 102.0 147.0 102.0 C147.0 102.0 147.0 102.0 147.0 102.0 C147.0 102.0 147.0 102.0 147.0 102.0 C147.0 102.0 147.0 102.0 147.0 102.0 C147.0 102.0 147.0 102.0 147.0 102.0 C147.0 102.0 147.0 102.0 147.0 102.0 C147.0 102.0 147.0 102.0 147.0 102.0 C147.0 102.0 147.0 102.0 147.0 102.0 C147.0 102.0 147.0 102.0 147.0 102.0 C147.0 102.0 147.0 102.0 147.0 102.0 C147.0 102.0 147.0 102.0 147.0 102.0 C147.0 102.0 147.0 102.0 147.0 102.0 C147.0 102.0 147.0 102.0 147.0 102.0 C147.0 102.0 147.0 102.0 147.0 102.0 C147.0 102.0 147.0 102.0 147.0 102.0 C147.0 102.0 147.0 102.0 147.0 102.0 C147.0 102.0 147.0 102.0 147.0 102.0 C147.0 102.0 147.0 102.0 147.0 102.0 C147.0 102.0 147.0 102.0 147.0 102.0 C147.0 102.0 147.0 102.0 147.0 102.0 C147.0 102.0 147.0 102.0 147.0 102.0 C147.0 102.0 147.0 102.0 147.0 102.0 C147.0 102.0 147.0 102.0 147.0 102.0 C147.0 102.0 147.0 102.0 147.0 102.0 C147.0 102.0 147.0 102.0 147.0 102.0 C147.0 102.0 147.0 102.0 147.0 102.0 C147.0 102.0 147.0 102.0 147.0 102.0 C147.0 102.0 147.0 102.0 147.0 102.0 C147.0 102.0 147.0 102.0 147.0 102.0 C147.0 102.0 147.0 102.0 147.0 102.0 C147.0 102.0 147.0 102.0 147.0 102.0 C147.0 102.0 147.0 102.0 147.0 102.0 C147.0 102.0 147.0 102.0 147.0 102.0 C147.0 102.0 147.0 102.0 147.0 102.0 C147.0 102.0 147.0 102.0 147.0 102.0 C147.0 102.0 147.0 102.0 147.0 102.0 C147.0 102.0 147.0 102.0 147.0 102.0 C147.0 102.0 147.0 102.0 147.0 102.0 C147.0 102.0 147.0 102.0 147.0 102.0 C147.0 102.0 147.0 102.0 147.0 102.0 C147.0 102.0 147.0 102.0 147.0 102.0 C147.0 102.0 147.0 102.0 147.0 102.0 C147.0 102.0 147.0 102.0 147.0 102.0 C147.0 102.0 147.0 102.0 147.0 102.0 C147.0 102.0 147.0 102.0 147.0 102.0 C147.0 102.0 147.0 102.0 147.0 102.0 C147.0 102.0 147.0 102.0 147.0 102.0 C147.0 102.0 147.0 102.0 147.0 102.0 C147.0 102.0 147.0 102.0 147.0 102.0 C147.0 102.0 147.0 102.0 147.0 102.0 C147.0 102.0 147.0 102.0 147.0 102.0 C147.0 102.0 147.0 102.0 147.0 102.0 C147.0 102.0 147.0 102.0 147.0 102.0 C147.0 102.0 147.0 102.0 147.0 102.0 C147.0 102.0 147.0 102.0 147.0 102.0 C147.0 102.0 147.0 102.0 147.0 102.0 C147.0 102.0 147.0 102.0 147.0 102.0 C147.0 102.0 147.0 102.0 147.0 102.0 C147.0 102.0 147.0 102.0 147.0 102.0 C147.0 102.0 147.0 102.0 147.0 102.0 C147.0 102.0 147.0 102.0 147.0 102.0 C147.0 102.0 147.0 102.0 147.0 102.0 C147.0 102.0 147.0 102.0 147.0 102.0 C147.0 102.0 147.0 102.0 147.0 102.0 C147.0 102.0 147.0 102.0 147.0 102.0 C147.0 102.0 147.0 102.0 147.0 102.0"></path></svg>