<svg xmlns="http://www.w3.org/2000/svg" viewBox="0.0 0.0 200.0 200.0" height="200px" width="200px"><path fill="#004488" fill-opacity="1.0"  filling="0" d="M61.0 151.0 C61.0 151.0 60.0 150.0 60.0 150.0 C60.0 147.0 61.0 145.0 61.0 144.0 C62.0 144.0 62.0 144.0 62.0 144.0 C63.0 144.0 64.0 145.0 64.0 145.0 C65.0 146.0 65.0 147.0 65.0 149.0 C65.0 149.0 65.0 149.0 65.0 149.0 C66.0 148.0 68.0 148.0 70.0 148.0 C70.0 148.0 70.0 149.0 70.0 149.0 C70.0 151.0 68.0 153.0 67.0 154.0 C67.0 154.0 67.0 154.0 67.0 154.0 C69.0 154.0 70.0 154.0 71.0 155.0 C71.0 155.0 71.0 156.0 71.0 156.0 C69.0 157.0 68.0 157.0 67.0 158.0 C67.0 158.0 67.0 158.0 67.0 158.0 C68.0 159.0 69.0 161.0 70.0 163.0 C70.0 163.0 70.0 163.0 70.0 163.0 C68.0 163.0 66.0 163.0 65.0 163.0 C65.0 163.0 65.0 163.0 65.0 163.0 C64.0 161.0 63.0 159.0 62.0 158.0 C62.0 158.0 62.0 158.0 62.0 158.0 C61.0 159.0 60.0 160.0 59.0 162.0 C59.0 162.0 59.0 162.0 59.0 162.0 C58.0 161.0 58.0 159.0 57.0 158.0 C57.0 158.0 57.0 158.0 57.0 158.0 C56.0 157.0 54.0 157.0 53.0 156.0 C53.0 156.0 53.0 155.0 53.0 155.0 C54.0 154.0 56.0 154.0 57.0 154.0 C57.0 154.0 57.0 154.0 57.0 154.0 C57.0 153.0 56.0 151.0 56.0 149.0 C56.0 149.0 56.0 148.0 56.0 148.0 C58.0 148.0 59.0 148.0 61.0 149.0 C61.0 149.0 61.0 149.0 61.0 149.0 C61.0 150.0 62.0 151.0 61.0 151.0 L61.0 151.0 Z"></path>
<path fill="#004488" fill-opacity="1.0"  filling="0" d="M65.0 65.0 C65.0 65.0 65.0 65.0 65.0 65.0 C64.0 62.0 64.0 60.0 64.0 60.0 C64.0 60.0 64.0 60.0 64.0 60.0 C65.0 60.0 67.0 60.0 68.0 60.0 C68.0 60.0 68.0 61.0 68.0 61.0 C67.0 62.0 67.0 64.0 67.0 65.0 C67.0 65.0 67.0 65.0 67.0 65.0 C69.0 66.0 71.0 66.0 72.0 67.0 C72.0 67.0 72.0 67.0 71.0 68.0 C70.0 68.0 68.0 69.0 67.0 69.0 C67.0 69.0 67.0 69.0 67.0 69.0 C67.0 70.0 68.0 72.0 68.0 74.0 C68.0 74.0 68.0 74.0 68.0 74.0 C67.0 73.0 65.0 73.0 64.0 73.0 C64.0 73.0 64.0 73.0 64.0 73.0 C64.0 72.0 64.0 70.0 63.0 68.0 C63.0 68.0 63.0 68.0 63.0 68.0 C62.0 69.0 60.0 69.0 59.0 69.0 C59.0 69.0 59.0 68.0 59.0 68.0 C60.0 67.0 62.0 66.0 63.0 65.0 C63.0 65.0 64.0 65.0 64.0 65.0 C64.0 65.0 64.0 65.0 65.0 65.0 L65.0 65.0 Z"></path>
<path fill="#004488" fill-opacity="1.0"  filling="0" d="M38.0 100.0 C38.0 100.0 38.0 99.0 38.0 99.0 C38.0 97.0 38.0 95.0 38.0 95.0 C38.0 95.0 38.0 95.0 38.0 95.0 C39.0 94.0 40.0 94.0 41.0 93.0 C42.0 93.0 42.0 93.0 41.0 94.0 C41.0 95.0 41.0 97.0 41.0 98.0 C41.0 98.0 41.0 98.0 42.0 99.0 C43.0 99.0 44.0 99.0 45.0 99.0 C45.0 99.0 45.0 99.0 45.0 99.0 C44.0 100.0 43.0 101.0 42.0 101.0 C42.0 101.0 42.0 101.0 42.0 101.0 C42.0 102.0 43.0 103.0 43.0 105.0 C43.0 105.0 43.0 106.0 43.0 106.0 C42.0 105.0 41.0 105.0 40.0 105.0 C40.0 105.0 40.0 105.0 40.0 105.0 C40.0 104.0 39.0 103.0 38.0 101.0 C38.0 101.0 38.0 101.0 38.0 101.0 C37.0 101.0 36.0 101.0 35.0 101.0 C35.0 101.0 34.0 101.0 34.0 101.0 C35.0 100.0 37.0 100.0 38.0 100.0 C38.0 100.0 38.0 100.0 38.0 100.0 L38.0 100.0 Z"></path>
<path fill="#004488" fill-opacity="1.0"  filling="0" d="M42.0 128.0 C42.0 128.0 42.0 127.0 42.0 127.0 C42.0 126.0 42.0 124.0 42.0 124.0 C42.0 124.0 42.0 124.0 42.0 124.0 C43.0 123.0 44.0 123.0 45.0 122.0 C46.0 122.0 46.0 122.0 45.0 123.0 C45.0 124.0 45.0 125.0 45.0 127.0 C45.0 127.0 45.0 127.0 45.0 128.0 C46.0 128.0 48.0 128.0 49.0 129.0 C49.0 129.0 49.0 129.0 49.0 129.0 C48.0 130.0 46.0 130.0 45.0 130.0 C45.0 130.0 45.0 130.0 45.0 130.0 C45.0 131.0 45.0 132.0 45.0 133.0 C45.0 133.0 44.0 134.0 44.0 134.0 C44.0 133.0 43.0 132.0 42.0 131.0 C42.0 131.0 42.0 131.0 42.0 131.0 C42.0 130.0 40.0 130.0 39.0 129.0 C39.0 129.0 39.0 129.0 39.0 129.0 C40.0 128.0 41.0 128.0 42.0 128.0 C42.0 128.0 42.0 128.0 42.0 128.0 L42.0 128.0 Z"></path>
<path fill="#ff8844" fill-opacity="1.0"  filling="0" d="M103.0 45.0 C103.0 44.0 103.0 38.0 104.0 37.0 C105.0 37.0 105.0 37.0 105.0 37.0 C106.0 36.0 105.0 36.0 105.0 36.0 C103.0 36.0 101.0 35.0 100.0 35.0 C99.0 35.0 99.0 35.0 99.0 35.0 C99.0 34.0 98.0 33.0 98.0 31.0 C98.0 31.0 98.0 30.0 97.0 30.0 C97.0 31.0 96.0 31.0 96.0 32.0 C96.0 33.0 95.0 34.0 95.0 35.0 C95.0 35.0 95.0 35.0 94.0 35.0 C93.0 35.0 91.0 36.0 90.0 36.0 C90.0 37.0 90.0 37.0 90.0 37.0 C91.0 38.0 93.0 38.0 94.0 39.0 C94.0 39.0 94.0 39.0 94.0 39.0 C95.0 40.0 96.0 42.0 96.0 44.0 C96.0 44.0 97.0 44.0 97.0 44.0 C98.0 43.0 98.0 41.0 99.0 40.0 C99.0 39.0 99.0 39.0 99.0 39.0 C101.0 40.0 102.0 40.0 104.0 41.0 C104.0 41.0 104.0 41.0 104.0 41.0 C104.0 42.0 103.0 43.0 103.0 45.0 C103.0 45.0 103.0 45.0 103.0 45.0 L103.0 45.0 Z"></path>
<path fill="#004488" fill-opacity="1.0"  filling="0" d="M123.0 50.0 C123.0 50.0 123.0 50.0 123.0 50.0 C123.0 49.0 123.0 46.0 124.0 45.0 C124.0 45.0 124.0 45.0 124.0 45.0 C124.0 45.0 125.0 44.0 125.0 44.0 C124.0 44.0 123.0 44.0 122.0 44.0 C122.0 44.0 122.0 45.0 122.0 45.0 C122.0 46.0 121.0 47.0 121.0 49.0 C121.0 49.0 121.0 49.0 121.0 49.0 C120.0 49.0 118.0 49.0 117.0 50.0 C117.0 50.0 117.0 50.0 117.0 51.0 C118.0 51.0 120.0 51.0 121.0 51.0 C121.0 51.0 121.0 51.0 121.0 51.0 C121.0 52.0 121.0 54.0 122.0 55.0 C122.0 55.0 122.0 55.0 122.0 55.0 C123.0 54.0 123.0 52.0 123.0 51.0 C123.0 51.0 123.0 51.0 123.0 51.0 C124.0 51.0 126.0 51.0 127.0 51.0 C127.0 51.0 127.0 50.0 127.0 50.0 C126.0 50.0 125.0 50.0 123.0 50.0 L123.0 50.0 Z"></path>
<path fill="#ff8844" fill-opacity="1.0"  filling="0" d="M140.0 129.0 C140.0 129.0 140.0 129.0 140.0 129.0 C140.0 127.0 141.0 125.0 141.0 124.0 C141.0 124.0 141.0 124.0 141.0 124.0 C142.0 124.0 142.0 123.0 142.0 123.0 C141.0 123.0 140.0 123.0 139.0 123.0 C139.0 123.0 139.0 123.0 139.0 123.0 C139.0 125.0 138.0 126.0 138.0 128.0 C138.0 128.0 138.0 128.0 138.0 128.0 C136.0 128.0 135.0 128.0 134.0 129.0 C134.0 129.0 134.0 129.0 134.0 129.0 C135.0 130.0 136.0 130.0 138.0 131.0 C138.0 131.0 138.0 131.0 138.0 131.0 C138.0 132.0 138.0 134.0 139.0 135.0 C139.0 135.0 139.0 136.0 140.0 136.0 C141.0 135.0 141.0 133.0 141.0 132.0 C141.0 132.0 141.0 131.0 141.0 131.0 C142.0 130.0 144.0 130.0 145.0 129.0 C145.0 129.0 145.0 129.0 145.0 129.0 C144.0 128.0 142.0 128.0 140.0 129.0 L140.0 129.0 Z"></path>
<path fill="#004488" fill-opacity="1.0"  filling="0" d="M152.0 119.0 C152.0 119.0 152.0 119.0 152.0 119.0 C152.0 118.0 153.0 116.0 154.0 115.0 C154.0 115.0 154.0 115.0 154.0 115.0 C154.0 115.0 154.0 114.0 154.0 114.0 C153.0 114.0 152.0 114.0 151.0 114.0 C151.0 114.0 151.0 114.0 151.0 114.0 C151.0 116.0 151.0 117.0 150.0 118.0 C150.0 118.0 150.0 118.0 150.0 118.0 C149.0 118.0 147.0 118.0 146.0 119.0 C146.0 119.0 146.0 119.0 146.0 119.0 C147.0 120.0 149.0 120.0 150.0 120.0 C150.0 120.0 150.0 120.0 150.0 120.0 C151.0 121.0 151.0 122.0 151.0 124.0 C151.0 124.0 152.0 124.0 152.0 124.0 C153.0 123.0 153.0 121.0 153.0 120.0 C153.0 120.0 153.0 120.0 153.0 120.0 C154.0 120.0 156.0 120.0 157.0 119.0 C157.0 119.0 157.0 119.0 157.0 119.0 C156.0 118.0 154.0 118.0 152.0 119.0 L152.0 119.0 Z"></path>
<path fill="#004488" fill-opacity="1.0"  filling="0" d="M152.0 77.0 C152.0 77.0 152.0 77.0 152.0 77.0 C152.0 76.0 153.0 74.0 154.0 73.0 C154.0 73.0 154.0 73.0 154.0 73.0 C154.0 72.0 154.0 72.0 154.0 72.0 C153.0 72.0 152.0 72.0 151.0 72.0 C151.0 72.0 151.0 72.0 151.0 73.0 C151.0 74.0 150.0 75.0 150.0 76.0 C150.0 76.0 150.0 76.0 150.0 76.0 C149.0 76.0 147.0 76.0 146.0 77.0 C146.0 77.0 146.0 77.0 146.0 78.0 C147.0 78.0 149.0 79.0 150.0 79.0 C150.0 79.0 150.0 79.0 150.0 79.0 C151.0 80.0 151.0 81.0 151.0 82.0 C151.0 82.0 152.0 83.0 152.0 83.0 C153.0 81.0 153.0 80.0 153.0 79.0 C153.0 79.0 153.0 79.0 153.0 79.0 C154.0 79.0 156.0 78.0 157.0 78.0 C157.0 77.0 157.0 77.0 157.0 77.0 C156.0 77.0 154.0 77.0 152.0 77.0 L152.0 77.0 Z"></path>
<path fill="#ff8844" fill-opacity="1.0"  filling="0" d="M145.0 86.0 C145.0 86.0 145.0 86.0 145.0 86.0 C145.0 84.0 146.0 83.0 146.0 82.0 C146.0 82.0 146.0 82.0 146.0 82.0 C145.0 82.0 145.0 82.0 145.0 82.0 C144.0 82.0 143.0 82.0 142.0 82.0 C142.0 82.0 142.0 82.0 142.0 82.0 C142.0 83.0 143.0 85.0 143.0 86.0 C143.0 86.0 143.0 86.0 143.0 86.0 C142.0 86.0 140.0 87.0 139.0 87.0 C139.0 87.0 139.0 88.0 139.0 88.0 C140.0 88.0 142.0 89.0 143.0 89.0 C143.0 89.0 143.0 89.0 143.0 89.0 C143.0 90.0 144.0 91.0 144.0 93.0 C144.0 93.0 145.0 93.0 145.0 93.0 C146.0 91.0 146.0 90.0 146.0 88.0 C146.0 88.0 146.0 88.0 146.0 88.0 C147.0 88.0 149.0 87.0 150.0 87.0 C150.0 87.0 150.0 87.0 150.0 87.0 C149.0 86.0 147.0 86.0 145.0 86.0 L145.0 86.0 Z"></path>
<path fill="#eebb55" fill-opacity="1.0"  filling="0" d="M108.0 121.0 C96.0 127.0 82.0 122.0 76.0 110.0 C70.0 98.0 75.0 84.0 87.0 79.0 C93.0 77.0 99.0 76.0 104.0 78.0 C104.0 78.0 104.0 78.0 103.0 78.0 C96.0 80.0 89.0 86.0 88.0 95.0 C87.0 104.0 93.0 112.0 103.0 112.0 C111.0 112.0 119.0 106.0 121.0 97.0 C121.0 96.0 121.0 95.0 121.0 94.0 C122.0 94.0 122.0 94.0 122.0 94.0 C125.0 104.0 119.0 116.0 108.0 121.0 L108.0 121.0 Z"></path>
<path fill="#004488" fill-opacity="1.0"  filling="0" d="M106.0 143.0 C91.0 143.0 77.0 135.0 69.0 122.0 C67.0 117.0 66.0 111.0 66.0 105.0 C66.0 104.0 67.0 104.0 67.0 105.0 C70.0 119.0 79.0 130.0 92.0 135.0 C102.0 140.0 114.0 138.0 124.0 131.0 C134.0 124.0 141.0 113.0 146.0 102.0 C146.0 102.0 147.0 102.0 147.0 102.0 C145.0 125.0 127.0 142.0 106.0 143.0 L106.0 143.0 Z"></path>
<path fill="#004488" fill-opacity="1.0"  filling="0" d="M91.0 64.0 C77.0 64.0 65.0 72.0 59.0 83.0 C56.0 88.0 54.0 94.0 54.0 100.0 C54.0 101.0 57.0 101.0 57.0 100.0 C57.0 87.0 65.0 76.0 76.0 70.0 C82.0 67.0 87.0 66.0 91.0 66.0 C93.0 66.0 93.0 64.0 91.0 64.0 L91.0 64.0 Z"></path>
<path fill="#000000" fill-opacity="1.0"  filling="0" d="M138.0 92.0 C138.0 70.0 120.0 52.0 98.0 52.0 C92.0 52.0 86.0 53.0 81.0 55.0 C81.0 55.0 81.0 55.0 81.0 55.0 C82.0 55.0 82.0 55.0 82.0 55.0 C82.0 55.0 82.0 55.0 82.0 55.0 C82.0 55.0 82.0 55.0 82.0 55.0 C82.0 56.0 82.0 56.0 82.0 56.0 C82.0 56.0 82.0 56.0 82.0 56.0 C82.0 56.0 82.0 56.0 82.0 56.0 C82.0 56.0 82.0 56.0 82.0 56.0 C82.0 56.0 82.0 56.0 82.0 56.0 C82.0 56.0 82.0 56.0 82.0 56.0 C82.0 56.0 82.0 56.0 82.0 56.0 C82.0 56.0 82.0 56.0 82.0 56.0 C82.0 56.0 82.0 56.0 82.0 56.0 C82.0 56.0 82.0 56.0 82.0 57.0 C82.0 57.0 82.0 57.0 82.0 57.0 C82.0 57.0 82.0 57.0 82.0 57.0 C82.0 57.0 82.0 57.0 82.0 57.0 C82.0 57.0 82.0 57.0 82.0 57.0 C82.0 57.0 82.0 57.0 82.0 57.0 C82.0 57.0 82.0 57.0 82.0 57.0 C82.0 57.0 82.0 57.0 82.0 57.0 C82.0 57.0 82.0 57.0 82.0 57.0 C82.0 57.0 82.0 57.0 82.0 57.0 C82.0 57.0 82.0 57.0 82.0 57.0 C82.0 57.0 82.0 57.0 82.0 57.0 C82.0 57.0 82.0 57.0 82.0 57.0 C82.0 57.0 82.0 57.0 82.0 57.0 C82.0 57.0 82.0 57.0 82.0 57.0 C82.0 57.0 82.0 57.0 82.0 57.0 C82.0 57.0 82.0 57.0 82.0 57.0 C82.0 57.0 82.0 57.0 82.0 57.0 C82.0 57.0 82.0 57.0 82.0 57.0 C82.0 57.0 82.0 57.0 82.0 57.0 C82.0 57.0 82.0 57.0 82.0 57.0 C82.0 57.0 82.0 57.0 82.0 57.0 C82.0 57.0 82.0 57.0 82.0 57.0 C82.0 57.0 82.0 57.0 82.0 57.0 C82.0 57.0 82.0 57.0 82.0 57.0 C82.0 57.0 82.0 57.0 82.0 57.0 C82.0 57.0 82.0 57.0 82.0 57.0 C82.0 57.0 82.0 57.0 82.0 57.0 C82.0 57.0 82.0 57.0 82.0 57.0 C82.0 57.0 82.0 57.0 82.0 57.0 C82.0 57.0 82.0 57.0 82.0 57.0 C82.0 57.0 82.0 57.0 82.0 57.0 C82.0 57.0 82.0 57.0 82.0 57.0 C82.0 57.0 82.0 57.0 82.0 57.0 C82.0 57.0 82.0 57.0 82.0 57.0 C82.0 57.0 82.0 57.0 82.0 57.0 C82.0 57.0 82.0 57.0 82.0 57.0 C82.0 57.0 82.0 57.0 82.0 57.0 C82.0 57.0 82.0 57.0 82.0 57.0 C82.0 57.0 82.0 57.0 82.0 57.0 C82.0 57.0 82.0 57.0 82.0 57.0 C82.0 57.0 82.0 57.0 82.0 57.0 C82.0 57.0 82.0 57.0 82.0 57.0 C82.0 57.0 82.0 57.0 82.0 57.0 C82.0 57.0 82.0 57.0 82.0 57.0 C82.0 57.0 82.0 57.0 82.0 57.0 C82.0 57.0 82.0 57.0 82.0 57.0 C82.0 57.0 82.0 57.0 82.0 57.0 C82.0 57.0 82.0 57.0 82.0 57.0 C82.0 57.0 82.0 57.0 82.0 57.0 C82.0 57.0 82.0 57.0 82.0 57.0 C82.0 57.0 82.0 57.0 82.0 57.0 C82.0 57.0 82.0 57.0 82.0 57.0 C82.0 57.0 82.0 57.0 82.0 57.0 C82.0 57.0 82.0 57.0 82.0 57.0 C82.0 57.0 82.0 57.0 82.0 57.0 C82.0 57.0 82.0 57.0 82.0 57.0 C82.0 57.0 82.0 57.0 82.0 57.0 C82.0 57.0 82.0 57.0 82.0 57.0 C82.0 57.0 82.0 57.0 82.0 57.0 C82.0 57.0 82.0 57.0 82.0 57.0 C82.0 57.0 82.0 57.0 82.0 57.0 C82.0 57.0 82.0 57.0 82.0 57.0 C82.0 57.0 82.0 57.0 82.0 57.0 C82.0 57.0 82.0 57.0 82.0 57.0 C82.0 57.0 82.0 57.0 82.0 57.0 C82.0 57.0 82.0 57.0 82.0 57.0 C82.0 57.0 82.0 57.0 82.0 57.0 C82.0 57.0 82.0 57.0 82.0 57.0 C82.0 57.0 82.0 57.0 82.0 57.0 C82.0 57.0 82.0 57.0 82.0 57.0 C82.0 57.0 82.0 57.0 82.0 57.0 C82.0 57.0 82.0 57.0 82.0 57.0 C82.0 57.0 82.0 57.0 82.0 57.0 C82.0 57.0 82.0 57.0 82.0 57.0 C82.0 57.0 82.0 57.0 82.0 57.0 C82.0 57.0 82.0 57.0 82.0 57.0 C82.0 57.0 82.0 57.0 82.0 57.0 C82.0 57.0 82.0 57.0 82.0 57.0 C82.0 57.0 82.0 57.0 82.0 57.0 C82.0 57.0 82.0 57.0 82.0 57.0 C82.0 57.0 82.0 57.0 82.0 57.0 C82.0 57.0 82.0 57.0 82.0 57.0 C82.0 57.0 82.0 57.0 82.0 57.0 C82.0 57.0 82.0 57.0 82.0 57.0 C82.0 57.0 82.0 57.0 82.0 57.0 C82.0 57.0 82.0 57.0 82.0 57.0 C82.0 57.0 82.0 57.0 82.0 57.0 C82.0 57.0 82.0 57.0 82.0 57.0"></path></svg>