<svg xmlns="http://www.w3.org/2000/svg" viewBox="0.0 0.0 200.0 200.0" height="200px" width="200px"><path fill="#113355" fill-opacity="1.0"  filling="0" d="M61.0 151.0 C61.0 151.0 61.0 151.0 61.0 151.0 C61.0 151.0 61.0 151.0 61.0 151.0 L61.0 147.0 L56.0 146.0 C56.0 146.0 56.0 146.0 56.0 146.0 C56.0 146.0 56.0 146.0 56.0 146.0 L61.0 144.0 L61.0 139.0 C61.0 139.0 61.0 139.0 61.0 139.0 C63.0 139.0 63.0 139.0 63.0 139.0 L64.0 144.0 L69.0 145.0 C69.0 145.0 69.0 146.0 69.0 146.0 C69.0 146.0 69.0 146.0 69.0 146.0 L64.0 148.0 L64.0 152.0 C64.0 152.0 63.0 152.0 63.0 152.0 C63.0 152.0 63.0 152.0 63.0 152.0 L61.0 151.0 L61.0 151.0 Z"></path>
<path fill="#113355" fill-opacity="1.0"  filling="0" d="M50.0 62.0 C50.0 62.0 50.0 62.0 50.0 62.0 C50.0 62.0 50.0 62.0 50.0 62.0 L50.0 58.0 L46.0 58.0 C46.0 58.0 46.0 58.0 46.0 58.0 C46.0 58.0 46.0 58.0 46.0 58.0 L50.0 56.0 L50.0 52.0 C50.0 52.0 50.0 52.0 50.0 52.0 C50.0 52.0 50.0 52.0 50.0 52.0 L53.0 56.0 L57.0 55.0 C57.0 55.0 58.0 55.0 58.0 55.0 C58.0 55.0 58.0 56.0 57.0 56.0 L53.0 58.0 L54.0 62.0 C54.0 62.0 54.0 62.0 54.0 62.0 C54.0 62.0 54.0 62.0 54.0 62.0 L50.0 62.0 L50.0 62.0 Z"></path>
<path fill="#113355" fill-opacity="1.0"  filling="0" d="M38.0 106.0 C37.0 106.0 37.0 106.0 37.0 105.0 L37.0 100.0 L30.0 99.0 C30.0 99.0 29.0 98.0 29.0 98.0 C29.0 97.0 29.0 97.0 30.0 97.0 L37.0 96.0 L37.0 90.0 C37.0 90.0 37.0 90.0 37.0 90.0 C37.0 90.0 38.0 90.0 38.0 90.0 L40.0 96.0 L45.0 97.0 C45.0 97.0 45.0 97.0 45.0 98.0 C45.0 98.0 45.0 98.0 45.0 98.0 L40.0 100.0 L38.0 105.0 C38.0 105.0 38.0 106.0 38.0 106.0 C38.0 106.0 38.0 106.0 38.0 106.0 L38.0 106.0 Z"></path>
<path fill="#113355" fill-opacity="1.0"  filling="0" d="M43.0 134.0 C43.0 134.0 43.0 134.0 43.0 134.0 C43.0 134.0 43.0 134.0 43.0 134.0 L42.0 130.0 L37.0 127.0 C36.0 127.0 36.0 126.0 36.0 126.0 C36.0 125.0 36.0 125.0 37.0 125.0 L42.0 124.0 L43.0 119.0 C43.0 118.0 43.0 118.0 43.0 118.0 C44.0 118.0 44.0 118.0 44.0 119.0 L45.0 124.0 L50.0 125.0 C51.0 125.0 51.0 126.0 51.0 126.0 C51.0 126.0 51.0 126.0 51.0 126.0 L45.0 128.0 L44.0 133.0 C44.0 134.0 44.0 134.0 43.0 134.0 L43.0 134.0 Z"></path>
<path fill="#113355" fill-opacity="1.0"  filling="0" d="M88.0 162.0 C88.0 162.0 88.0 162.0 88.0 162.0 C88.0 162.0 88.0 162.0 88.0 162.0 L86.0 157.0 L82.0 156.0 C82.0 156.0 81.0 155.0 81.0 155.0 C81.0 155.0 82.0 154.0 82.0 154.0 L86.0 154.0 L87.0 149.0 C87.0 149.0 88.0 148.0 88.0 148.0 C88.0 148.0 88.0 149.0 88.0 149.0 L89.0 154.0 L93.0 154.0 C94.0 154.0 94.0 155.0 94.0 155.0 C94.0 156.0 94.0 156.0 93.0 156.0 L89.0 157.0 L88.0 162.0 C88.0 162.0 88.0 162.0 88.0 162.0 L88.0 162.0 Z"></path>
<path fill="#113355" fill-opacity="1.0"  filling="0" d="M159.0 100.0 C159.0 100.0 159.0 100.0 159.0 100.0 L157.0 95.0 L152.0 93.0 C151.0 93.0 151.0 92.0 151.0 92.0 C151.0 91.0 151.0 91.0 152.0 91.0 L157.0 90.0 L159.0 82.0 C159.0 82.0 159.0 81.0 159.0 81.0 C160.0 81.0 160.0 82.0 160.0 82.0 L162.0 89.0 L168.0 90.0 C168.0 90.0 168.0 90.0 168.0 91.0 C168.0 91.0 168.0 91.0 168.0 91.0 L162.0 93.0 L160.0 99.0 C160.0 99.0 160.0 100.0 159.0 100.0 C159.0 100.0 159.0 100.0 159.0 100.0 L159.0 100.0 Z"></path>
<path fill="#113355" fill-opacity="1.0"  filling="0" d="M159.0 128.0 C159.0 128.0 158.0 128.0 158.0 127.0 L157.0 122.0 L152.0 121.0 C152.0 121.0 151.0 120.0 151.0 120.0 C152.0 119.0 152.0 119.0 152.0 119.0 L157.0 118.0 L158.0 113.0 C158.0 113.0 159.0 112.0 159.0 112.0 C160.0 112.0 160.0 113.0 160.0 113.0 L161.0 118.0 L166.0 119.0 C167.0 119.0 167.0 120.0 167.0 120.0 C167.0 120.0 167.0 121.0 166.0 121.0 L161.0 122.0 L160.0 127.0 C160.0 127.0 160.0 128.0 159.0 128.0 C159.0 128.0 159.0 128.0 159.0 128.0 L159.0 128.0 Z"></path>
<path fill="#113355" fill-opacity="1.0"  filling="0" d="M118.0 163.0 C118.0 163.0 118.0 163.0 118.0 163.0 L116.0 158.0 L111.0 157.0 C111.0 157.0 110.0 157.0 111.0 156.0 C111.0 156.0 111.0 155.0 111.0 155.0 L116.0 154.0 L117.0 149.0 C117.0 149.0 118.0 148.0 118.0 148.0 C118.0 148.0 119.0 149.0 119.0 149.0 L120.0 154.0 L125.0 155.0 C125.0 155.0 126.0 156.0 125.0 156.0 C125.0 156.0 125.0 157.0 125.0 157.0 L120.0 158.0 L119.0 163.0 C119.0 163.0 118.0 163.0 118.0 163.0 C118.0 163.0 118.0 163.0 118.0 163.0 L118.0 163.0 Z"></path>
<path fill="#ffbb55" fill-opacity="1.0"  filling="0" d="M140.0 71.0 C140.0 71.0 140.0 71.0 140.0 71.0 C140.0 71.0 140.0 71.0 140.0 71.0 L141.0 65.0 L136.0 61.0 C136.0 61.0 136.0 61.0 136.0 61.0 C136.0 60.0 136.0 60.0 137.0 60.0 L143.0 59.0 L145.0 53.0 C145.0 53.0 145.0 52.0 146.0 52.0 C146.0 52.0 146.0 53.0 146.0 53.0 L148.0 59.0 L154.0 60.0 C155.0 60.0 155.0 61.0 155.0 61.0 C155.0 61.0 155.0 61.0 155.0 61.0 L148.0 65.0 L141.0 71.0 C141.0 71.0 141.0 71.0 140.0 71.0 L140.0 71.0 Z"></path>
<path fill="#113355" fill-opacity="1.0"  filling="0" d="M40.0 77.0 C40.0 77.0 40.0 77.0 40.0 77.0 C40.0 77.0 40.0 77.0 40.0 77.0 L39.0 71.0 L34.0 70.0 C34.0 70.0 33.0 70.0 33.0 70.0 C33.0 69.0 34.0 69.0 34.0 69.0 L39.0 68.0 L40.0 63.0 C40.0 63.0 40.0 63.0 40.0 63.0 C41.0 63.0 41.0 63.0 41.0 63.0 L43.0 68.0 L47.0 69.0 C47.0 69.0 48.0 69.0 48.0 70.0 C48.0 70.0 47.0 70.0 47.0 70.0 L43.0 71.0 L41.0 77.0 C41.0 77.0 41.0 77.0 40.0 77.0 L40.0 77.0 Z"></path>
<path fill="#113355" fill-opacity="1.0"  filling="0" d="M123.0 50.0 C123.0 50.0 123.0 50.0 123.0 50.0 C123.0 50.0 123.0 50.0 123.0 50.0 L122.0 45.0 L118.0 44.0 C118.0 44.0 117.0 44.0 117.0 44.0 C117.0 44.0 117.0 43.0 118.0 43.0 L122.0 42.0 L122.0 38.0 C122.0 38.0 123.0 38.0 123.0 38.0 C123.0 38.0 123.0 38.0 123.0 38.0 L124.0 42.0 L128.0 43.0 C128.0 43.0 128.0 44.0 128.0 44.0 C128.0 44.0 128.0 44.0 128.0 44.0 L124.0 45.0 L124.0 50.0 C124.0 50.0 123.0 50.0 123.0 50.0 L123.0 50.0 Z"></path>
<path fill="#113355" fill-opacity="1.0"  filling="0" d="M105.0 74.0 C105.0 74.0 105.0 74.0 105.0 74.0 C105.0 74.0 105.0 74.0 105.0 74.0 L105.0 70.0 L102.0 69.0 C102.0 69.0 102.0 69.0 102.0 69.0 C102.0 68.0 102.0 68.0 102.0 68.0 L105.0 68.0 L105.0 65.0 C105.0 65.0 105.0 65.0 105.0 65.0 C105.0 65.0 106.0 65.0 106.0 65.0 L107.0 68.0 L110.0 68.0 C110.0 68.0 110.0 69.0 110.0 69.0 C110.0 69.0 110.0 69.0 110.0 69.0 L107.0 70.0 L106.0 74.0 C106.0 74.0 105.0 74.0 105.0 74.0 L105.0 74.0 Z"></path>
<path fill="#113355" fill-opacity="1.0"  filling="0" d="M127.0 126.0 C127.0 126.0 127.0 126.0 127.0 126.0 L123.0 125.0 L122.0 122.0 C122.0 121.0 122.0 121.0 122.0 121.0 C122.0 121.0 122.0 121.0 122.0 122.0 L121.0 125.0 L118.0 126.0 C118.0 126.0 117.0 126.0 117.0 126.0 C117.0 126.0 117.0 126.0 118.0 126.0 L121.0 127.0 L122.0 130.0 C122.0 130.0 122.0 131.0 122.0 131.0 C122.0 131.0 122.0 131.0 122.0 130.0 L123.0 127.0 L127.0 126.0 C127.0 126.0 127.0 126.0 127.0 126.0 L127.0 126.0 Z"></path>
<path fill="#113355" fill-opacity="1.0"  filling="0" d="M71.0 146.0 C71.0 146.0 71.0 146.0 71.0 146.0 L67.0 145.0 L66.0 140.0 C66.0 140.0 66.0 140.0 65.0 140.0 C65.0 140.0 65.0 140.0 65.0 140.0 L64.0 145.0 L60.0 146.0 C60.0 146.0 60.0 146.0 60.0 146.0 C60.0 147.0 60.0 147.0 60.0 147.0 L64.0 148.0 L65.0 152.0 C65.0 152.0 65.0 153.0 65.0 153.0 C65.0 153.0 66.0 152.0 66.0 152.0 L67.0 148.0 L71.0 147.0 C71.0 147.0 72.0 147.0 71.0 146.0 C71.0 146.0 71.0 146.0 71.0 146.0 L71.0 146.0 Z"></path>
<path fill="#113355" fill-opacity="1.0"  filling="0" d="M141.0 69.0 C141.0 69.0 141.0 69.0 141.0 69.0 L137.0 67.0 L136.0 63.0 C136.0 63.0 136.0 63.0 136.0 63.0 C136.0 63.0 136.0 63.0 136.0 63.0 L138.0 66.0 L141.0 64.0 C141.0 64.0 141.0 64.0 141.0 64.0 C141.0 64.0 141.0 64.0 141.0 64.0 L140.0 67.0 L142.0 69.0 C142.0 69.0 142.0 69.0 142.0 69.0 C142.0 69.0 142.0 69.0 141.0 69.0 L141.0 69.0 Z"></path>
<path fill="#113355" fill-opacity="1.0"  filling="0" d="M42.0 67.0 C42.0 67.0 42.0 67.0 42.0 67.0 L39.0 65.0 L39.0 62.0 C39.0 62.0 39.0 62.0 39.0 62.0 C39.0 62.0 39.0 62.0 39.0 62.0 L39.0 65.0 L36.0 64.0 C36.0 64.0 35.0 64.0 35.0 64.0 C35.0 64.0 35.0 65.0 36.0 65.0 L38.0 66.0 L39.0 69.0 C39.0 69.0 39.0 69.0 39.0 69.0 C39.0 69.0 39.0 69.0 39.0 69.0 L39.0 66.0 L42.0 67.0 C42.0 67.0 42.0 67.0 42.0 67.0 L42.0 67.0 Z"></path>
<path fill="#113355" fill-opacity="1.0"  filling="0" d="M38.0 106.0 C37.0 106.0 37.0 106.0 37.0 105.0 L37.0 100.0 L30.0 99.0 C30.0 99.0 29.0 98.0 29.0 98.0 C29.0 97.0 29.0 97.0 30.0 97.0 L37.0 96.0 L37.0 90.0 C37.0 90.0 37.0 90.0 37.0 90.0 C37.0 90.0 38.0 90.0 38.0 90.0 L40.0 96.0 L45.0 97.0 C45.0 97.0 45.0 97.0 45.0 98.0 C45.0 98.0 45.0 98.0 45.0 98.0 L40.0 100.0 L38.0 105.0 C38.0 105.0 38.0 106.0 38.0 106.0 C38.0 106.0 38.0 106.0 38.0 106.0 L38.0 106.0 Z"></path>
<path fill="#113355" fill-opacity="1.0"  filling="0" d="M43.0 134.0 C43.0 134.0 43.0 134.0 43.0 134.0 C43.0 134.0 43.0 134.0 43.0 134.0 L42.0 130.0 L37.0 127.0 C36.0 127.0 36.0 126.0 36.0 126.0 C36.0 125.0 36.0 125.0 37.0 125.0 L42.0 124.0 L43.0 119.0 C43.0 118.0 43.0 118.0 43.0 118.0 C44.0 118.0 44.0 118.0 44.0 119.0 L45.0 124.0 L50.0 125.0 C51.0 125.0 51.0 126.0 51.0 126.0 C51.0 126.0 51.0 126.0 51.0 126.0 L45.0 128.0 L44.0 133.0 C44.0 134.0 44.0 134.0 43.0 134.0 L43.0 134.0 Z"></path>
<path fill="#113355" fill-opacity="1.0"  filling="0" d="M88.0 162.0 C88.0 162.0 88.0 162.0 88.0 162.0 C88.0 162.0 88.0 162.0 88.0 162.0 L86.0 157.0 L82.0 156.0 C82.0 156.0 81.0 155.0 81.0 155.0 C81.0 155.0 82.0 154.0 82.0 154.0 L86.0 154.0 L87.0 149.0 C87.0 149.0 88.0 148.0 88.0 148.0 C88.0 148.0 88.0 149.0 88.0 149.0 L89.0 154.0 L93.0 154.0 C94.0 154.0 94.0 155.0 94.0 155.0 C94.0 156.0 94.0 156.0 93.0 156.0 L89.0 157.0 L88.0 162.0 C88.0 162.0 88.0 162.0 88.0 162.0 L88.0 162.0 Z"></path>
<path fill="#113355" fill-opacity="1.0"  filling="0" d="M159.0 128.0 C159.0 128.0 158.0 128.0 158.0 127.0 L157.0 122.0 L152.0 121.0 C152.0 121.0 151.0 120.0 151.0 120.0 C152.0 119.0 152.0 119.0 152.0 119.0 L157.0 118.0 L158.0 113.0 C158.0 113.0 159.0 112.0 159.0 112.0 C160.0 112.0 160.0 113.0 160.0 113.0 L161.0 118.0 L166.0 119.0 C167.0 119.0 167.0 120.0 167.0 120.0 C167.0 120.0 167.0 121.0 166.0 121.0 L161.0 122.0 L160.0 127.0 C160.0 127.0 159.0 128.0 159.0 128.0 C159.0 128.0 159.0 128.0 159.0 128.0 L159.0 128.0 Z"></path>
<path fill="#113355" fill-opacity="1.0"  filling="0" d="M159.0 100.0 C159.0 100.0 159.0 100.0 159.0 100.0 L157.0 95.0 L152.0 93.0 C151.0 93.0 151.0 92.0 151.0 92.0 C151.0 91.0 151.0 91.0 152.0 91.0 L157.0 90.0 L159.0 82.0 C159.0 82.0 159.0 81.0 159.0 81.0 C160.0 81.0 160.0 82.0 160.0 82.0 L162.0 89.0 L168.0 90.0 C168.0 90.0 168.0 90.0 168.0 91.0 C168.0 91.0 168.0 91.0 168.0 91.0 L162.0 93.0 L160.0 99.0 C160.0 99.0 160.0 100.0 159.0 100.0 C159.0 100.0 159.0 100.0 159.0 100.0 L159.0 100.0 Z"></path>
<path fill="#ffbb55" fill-opacity="1.0"  filling="0" d="M140.0 71.0 C140.0 71.0 140.0 71.0 140.0 71.0 C140.0 71.0 140.0 71.0 140.0 71.0 L141.0 65.0 L136.0 61.0 C136.0 61.0 136.0 61.0 136.0 61.0 C136.0 60.0 136.0 60.0 137.0 60.0 L143.0 59.0 L145.0 53.0 C145.0 53.0 145.0 52.0 146.0 52.0 C146.0 52.0 146.0 53.0 146.0 53.0 L148.0 59.0 L154.0 60.0 C155.0 60.0 155.0 61.0 155.0 61.0 C155.0 61.0 155.0 61.0 155.0 61.0 L148.0 65.0 L141.0 71.0 C141.0 71.0 141.0 71.0 140.0 71.0 L140.0 71.0 Z"></path>
<path fill="#113355" fill-opacity="1.0"  filling="0" d="M123.0 50.0 C123.0 50.0 123.0 50.0 123.0 50.0 L122.0 45.0 L118.0 44.0 C118.0 44.0 117.0 44.0 117.0 44.0 C117.0 44.0 117.0 43.0 118.0 43.0 L122.0 42.0 L122.0 38.0 C122.0 38.0 123.0 38.0 123.0 38.0 C123.0 38.0 123.0 38.0 123.0 38.0 L124.0 42.0 L128.0 43.0 C128.0 43.0 128.0 44.0 128.0 44.0 C128.0 44.0 128.0 44.0 128.0 44.0 L124.0 45.0 L124.0 50.0 C124.0 50.0 123.0 50.0 123.0 50.0 L123.0 50.0 Z"></path>
<path fill="#000000" fill-opacity="1.0"  filling="0" d="M105.0 74.0 C105.0 74.0 105.0 74.0 105.0 74.0 L105.0 70.0 L102.0 69.0 C102.0 69.0 102.0 69.0 102.0 69.0 C102.0 68.0 102.0 68.0 102.0 68.0 L105.0 68.0 L105.0 65.0 C105.0 65.0 105.0 65.0 105.0 65.0 C105.0 65.0 106.0 65.0 106.0 65.0 L107.0 68.0 L110.0 68.0 C110.0 68.0 110.0 69.0 110.0 69.0 C110.0 69.0 110.0 69.0 110.0 69.0 L107.0 70.0 L106.0 74.0"></path></svg>