<svg xmlns="http://www.w3.org/2000/svg" viewBox="0.0 0.0 200.0 200.0" height="200px" width="200px"><path fill="#113355" fill-opacity="1.0"  filling="0" d="M61.0 151.0 C61.0 151.0 61.0 151.0 61.0 151.0 C61.0 151.0 61.0 151.0 61.0 151.0 L61.0 148.0 L56.0 146.0 C56.0 146.0 56.0 146.0 56.0 146.0 C56.0 146.0 56.0 146.0 56.0 146.0 L61.0 144.0 L63.0 139.0 C63.0 139.0 63.0 139.0 64.0 139.0 C64.0 139.0 64.0 139.0 64.0 139.0 L66.0 144.0 L71.0 146.0 C71.0 146.0 71.0 146.0 71.0 146.0 C71.0 146.0 71.0 146.0 71.0 146.0 L66.0 148.0 L64.0 151.0 C64.0 151.0 64.0 152.0 64.0 152.0 C64.0 152.0 63.0 151.0 63.0 151.0 L61.0 151.0 L61.0 151.0 Z"></path>
<path fill="#113355" fill-opacity="1.0"  filling="0" d="M50.0 62.0 C50.0 62.0 50.0 62.0 50.0 62.0 C50.0 62.0 50.0 62.0 50.0 62.0 L50.0 59.0 L47.0 58.0 C46.0 58.0 46.0 58.0 46.0 58.0 C46.0 58.0 46.0 58.0 47.0 58.0 L50.0 57.0 L50.0 54.0 C50.0 54.0 50.0 54.0 50.0 54.0 C50.0 54.0 50.0 54.0 50.0 54.0 L52.0 57.0 L55.0 58.0 C55.0 58.0 55.0 58.0 55.0 58.0 C55.0 58.0 55.0 58.0 55.0 58.0 L52.0 59.0 L51.0 62.0 C51.0 62.0 51.0 62.0 50.0 62.0 L50.0 62.0 Z"></path>
<path fill="#113355" fill-opacity="1.0"  filling="0" d="M38.0 106.0 C37.0 106.0 37.0 106.0 37.0 105.0 L37.0 100.0 L29.0 98.0 C29.0 98.0 29.0 97.0 29.0 97.0 C29.0 97.0 29.0 97.0 29.0 97.0 L34.0 95.0 L36.0 90.0 C36.0 90.0 37.0 90.0 37.0 90.0 C37.0 90.0 37.0 90.0 37.0 90.0 L39.0 94.0 L44.0 97.0 C44.0 97.0 44.0 97.0 44.0 98.0 C44.0 98.0 44.0 98.0 44.0 98.0 L39.0 100.0 L38.0 105.0 C38.0 105.0 38.0 106.0 38.0 106.0 C38.0 106.0 38.0 106.0 38.0 106.0 L38.0 106.0 Z"></path>
<path fill="#113355" fill-opacity="1.0"  filling="0" d="M43.0 134.0 C43.0 134.0 43.0 134.0 43.0 134.0 C43.0 134.0 43.0 134.0 43.0 134.0 L42.0 130.0 L36.0 126.0 C36.0 126.0 36.0 126.0 36.0 126.0 C36.0 126.0 36.0 125.0 36.0 125.0 L41.0 124.0 L43.0 118.0 C43.0 118.0 43.0 118.0 43.0 118.0 C44.0 118.0 44.0 118.0 44.0 118.0 L46.0 124.0 L51.0 125.0 C51.0 125.0 51.0 126.0 51.0 126.0 C51.0 126.0 51.0 126.0 51.0 126.0 L46.0 129.0 L44.0 134.0 C44.0 134.0 44.0 134.0 43.0 134.0 L43.0 134.0 Z"></path>
<path fill="#113355" fill-opacity="1.0"  filling="0" d="M88.0 162.0 C88.0 162.0 88.0 162.0 88.0 162.0 C88.0 162.0 88.0 162.0 88.0 162.0 L88.0 159.0 L82.0 156.0 C82.0 156.0 82.0 156.0 82.0 155.0 C82.0 155.0 82.0 155.0 82.0 155.0 L87.0 154.0 L88.0 149.0 C88.0 149.0 88.0 149.0 88.0 149.0 C88.0 149.0 88.0 149.0 88.0 149.0 L90.0 154.0 L94.0 155.0 C95.0 155.0 95.0 155.0 95.0 155.0 C95.0 156.0 95.0 156.0 94.0 156.0 L90.0 159.0 L89.0 162.0 C89.0 162.0 89.0 162.0 88.0 162.0 L88.0 162.0 Z"></path>
<path fill="#113355" fill-opacity="1.0"  filling="0" d="M118.0 163.0 C118.0 163.0 118.0 163.0 118.0 163.0 C118.0 163.0 118.0 163.0 118.0 162.0 L116.0 159.0 L111.0 157.0 C111.0 157.0 111.0 156.0 111.0 156.0 C111.0 156.0 111.0 155.0 111.0 155.0 L116.0 154.0 L118.0 149.0 C118.0 149.0 118.0 149.0 118.0 149.0 C118.0 149.0 119.0 149.0 119.0 149.0 L120.0 154.0 L125.0 155.0 C125.0 155.0 125.0 156.0 125.0 156.0 C125.0 156.0 125.0 157.0 125.0 157.0 L120.0 159.0 L119.0 162.0 C119.0 163.0 118.0 163.0 118.0 163.0 L118.0 163.0 Z"></path>
<path fill="#113355" fill-opacity="1.0"  filling="0" d="M142.0 150.0 C142.0 150.0 142.0 149.0 142.0 149.0 L140.0 145.0 L136.0 143.0 C136.0 143.0 135.0 143.0 135.0 142.0 C136.0 142.0 136.0 142.0 136.0 142.0 L140.0 141.0 L142.0 136.0 C142.0 136.0 142.0 136.0 142.0 136.0 C143.0 136.0 143.0 136.0 143.0 136.0 L144.0 141.0 L148.0 142.0 C149.0 142.0 149.0 142.0 149.0 142.0 C149.0 143.0 149.0 143.0 148.0 143.0 L144.0 145.0 L143.0 149.0 C143.0 149.0 143.0 150.0 142.0 150.0 L142.0 150.0 Z"></path>
<path fill="#113355" fill-opacity="1.0"  filling="0" d="M159.0 128.0 C159.0 128.0 158.0 128.0 158.0 127.0 L157.0 123.0 L152.0 121.0 C152.0 121.0 152.0 120.0 152.0 120.0 C152.0 120.0 152.0 119.0 152.0 119.0 L157.0 118.0 L158.0 113.0 C158.0 113.0 159.0 113.0 159.0 113.0 C159.0 113.0 160.0 113.0 160.0 113.0 L161.0 118.0 L166.0 119.0 C166.0 119.0 167.0 120.0 167.0 120.0 C167.0 120.0 166.0 121.0 166.0 121.0 L161.0 123.0 L160.0 127.0 C160.0 128.0 160.0 128.0 159.0 128.0 L159.0 128.0 Z"></path>
<path fill="#113355" fill-opacity="1.0"  filling="0" d="M159.0 100.0 C159.0 100.0 158.0 99.0 158.0 99.0 L157.0 94.0 L151.0 92.0 C150.0 92.0 150.0 92.0 150.0 91.0 C150.0 91.0 150.0 91.0 151.0 91.0 L157.0 88.0 L158.0 82.0 C158.0 82.0 159.0 81.0 159.0 81.0 C159.0 81.0 160.0 82.0 160.0 82.0 L162.0 88.0 L168.0 90.0 C168.0 90.0 168.0 90.0 168.0 91.0 C168.0 91.0 168.0 91.0 168.0 91.0 L162.0 93.0 L160.0 99.0 C160.0 99.0 160.0 100.0 159.0 100.0 C159.0 100.0 159.0 100.0 159.0 100.0 L159.0 100.0 Z"></path>
<path fill="#ffbb55" fill-opacity="1.0"  filling="0" d="M140.0 71.0 C140.0 71.0 140.0 71.0 140.0 71.0 C140.0 71.0 140.0 71.0 140.0 71.0 L141.0 65.0 L136.0 61.0 C136.0 61.0 136.0 61.0 136.0 60.0 C136.0 60.0 136.0 60.0 137.0 60.0 L143.0 59.0 L145.0 53.0 C145.0 53.0 145.0 52.0 146.0 52.0 C146.0 52.0 146.0 53.0 146.0 53.0 L148.0 59.0 L155.0 60.0 C155.0 60.0 155.0 60.0 155.0 60.0 C155.0 61.0 155.0 61.0 155.0 61.0 L148.0 65.0 L141.0 71.0 C141.0 71.0 141.0 71.0 140.0 71.0 L140.0 71.0 Z"></path>
<path fill="#113355" fill-opacity="1.0"  filling="0" d="M117.0 44.0 C117.0 44.0 117.0 44.0 117.0 44.0 C117.0 44.0 117.0 44.0 117.0 44.0 L121.0 41.0 L122.0 39.0 C122.0 39.0 122.0 39.0 123.0 39.0 C123.0 39.0 123.0 39.0 123.0 39.0 L124.0 42.0 L127.0 44.0 C128.0 44.0 128.0 44.0 128.0 44.0 C128.0 45.0 128.0 45.0 127.0 45.0 L124.0 46.0 L123.0 50.0 C123.0 50.0 123.0 50.0 123.0 50.0 C122.0 50.0 122.0 50.0 122.0 50.0 L121.0 46.0 L117.0 45.0 C117.0 45.0 117.0 45.0 117.0 44.0 L117.0 44.0 Z"></path>
<path fill="#ffbb55" fill-opacity="1.0"  filling="0" d="M96.0 38.0 C96.0 37.0 97.0 37.0 97.0 37.0 L99.0 35.0 L98.0 31.0 C98.0 31.0 98.0 30.0 98.0 30.0 C99.0 30.0 99.0 31.0 99.0 31.0 L101.0 34.0 L104.0 35.0 C104.0 36.0 104.0 36.0 104.0 36.0 C104.0 37.0 104.0 37.0 104.0 37.0 L101.0 38.0 L99.0 42.0 C99.0 42.0 99.0 43.0 98.0 43.0 C98.0 43.0 98.0 42.0 98.0 42.0 L97.0 38.0 L92.0 37.0 C92.0 37.0 91.0 37.0 91.0 37.0 C91.0 36.0 92.0 36.0 92.0 35.0 L96.0 34.0 L97.0 31.0 C97.0 31.0 97.0 31.0 97.0 31.0 C97.0 31.0 97.0 31.0 97.0 31.0 L95.0 35.0 L92.0 37.0 C92.0 37.0 92.0 37.0 92.0 38.0 C92.0 38.0 92.0 38.0 92.0 38.0 L96.0 38.0 L96.0 38.0 Z"></path>
<path fill="#113355" fill-opacity="1.0"  filling="0" d="M34.0 70.0 C34.0 70.0 34.0 70.0 34.0 70.0 C34.0 70.0 34.0 70.0 34.0 70.0 L37.0 68.0 L39.0 64.0 C39.0 64.0 39.0 64.0 39.0 64.0 C40.0 64.0 40.0 64.0 40.0 64.0 L42.0 68.0 L46.0 69.0 C46.0 69.0 46.0 70.0 46.0 70.0 C46.0 70.0 46.0 71.0 46.0 71.0 L42.0 72.0 L40.0 76.0 C40.0 77.0 40.0 77.0 39.0 77.0 C39.0 77.0 39.0 77.0 39.0 76.0 L37.0 72.0 L34.0 71.0 C34.0 71.0 34.0 70.0 34.0 70.0 L34.0 70.0 Z"></path>
<path fill="#113355" fill-opacity="1.0"  filling="0" d="M106.0 143.0 C84.0 143.0 67.0 126.0 67.0 104.0 C67.0 104.0 67.0 104.0 67.0 104.0 C67.0 104.0 67.0 104.0 67.0 104.0 C67.0 122.0 83.0 137.0 106.0 137.0 C126.0 137.0 142.0 122.0 142.0 104.0 C142.0 84.0 126.0 67.0 106.0 67.0 C99.0 67.0 93.0 69.0 87.0 72.0 C88.0 72.0 90.0 72.0 91.0 72.0 C113.0 72.0 127.0 87.0 127.0 104.0 C127.0 119.0 113.0 133.0 97.0 133.0 C79.0 133.0 65.0 119.0 65.0 104.0 C65.0 104.0 65.0 104.0 65.0 104.0 C65.0 81.0 78.0 64.0 95.0 64.0 C104.0 64.0 113.0 66.0 120.0 70.0 C132.0 75.0 138.0 86.0 138.0 99.0 C138.0 117.0 124.0 131.0 107.0 131.0 C88.0 131.0 73.0 117.0 73.0 99.0 C73.0 87.0 80.0 77.0 91.0 73.0 C81.0 76.0 73.0 86.0 73.0 99.0 C73.0 114.0 85.0 125.0 99.0 125.0 C112.0 125.0 123.0 114.0 123.0 99.0 C123.0 97.0 122.0 95.0 122.0 94.0 C122.0 96.0 123.0 98.0 123.0 100.0 C123.0 113.0 113.0 124.0 99.0 124.0 C85.0 124.0 74.0 113.0 74.0 100.0 C74.0 87.0 85.0 76.0 99.0 76.0 C101.0 76.0 103.0 77.0 104.0 78.0 C102.0 79.0 99.0 80.0 97.0 81.0 C92.0 83.0 88.0 89.0 88.0 96.0 C88.0 105.0 95.0 112.0 105.0 112.0 C113.0 112.0 120.0 105.0 120.0 96.0 C120.0 95.0 120.0 94.0 121.0 93.0 C121.0 95.0 121.0 97.0 121.0 99.0 C121.0 108.0 113.0 115.0 105.0 115.0 C95.0 115.0 87.0 108.0 87.0 99.0 C87.0 89.0 94.0 81.0 104.0 78.0 C102.0 78.0 100.0 77.0 98.0 77.0 C84.0 77.0 73.0 87.0 73.0 100.0 C73.0 114.0 85.0 125.0 98.0 125.0 C112.0 125.0 122.0 114.0 122.0 100.0 C122.0 88.0 112.0 77.0 99.0 77.0 C96.0 77.0 93.0 77.0 90.0 78.0 C89.0 78.0 88.0 78.0 87.0 78.0 C81.0 82.0 77.0 90.0 77.0 99.0 C77.0 112.0 88.0 122.0 101.0 122.0 C114.0 122.0 124.0 112.0 124.0 99.0 C124.0 85.0 112.0 73.0 97.0 73.0 C95.0 73.0 93.0 73.0 91.0 74.0 C92.0 73.0 92.0 73.0 93.0 73.0 C97.0 71.0 101.0 70.0 106.0 70.0 C125.0 70.0 139.0 84.0 139.0 101.0 C139.0 121.0 124.0 137.0 106.0 137.0 C85.0 137.0 69.0 121.0 69.0 103.0 C69.0 102.0 69.0 101.0 69.0 100.0 C69.0 101.0 69.0 102.0 69.0 103.0 C69.0 125.0 86.0 143.0 106.0 143.0 L106.0 143.0 Z"></path>
<path fill="#113355" fill-opacity="1.0"  filling="0" d="M130.0 134.0 C130.0 134.0 130.0 134.0 130.0 134.0 C130.0 134.0 130.0 134.0 130.0 134.0 L133.0 130.0 L127.0 126.0 C127.0 126.0 127.0 126.0 127.0 126.0 C127.0 126.0 127.0 125.0 127.0 125.0 L133.0 124.0 L135.0 118.0 C135.0 118.0 135.0 118.0 136.0 118.0 C136.0 118.0 136.0 118.0 136.0 118.0 L138.0 124.0 L143.0 125.0 C143.0 125.0 143.0 126.0 143.0 126.0 C143.0 126.0 143.0 126.0 143.0 126.0 L138.0 130.0 L133.0 134.0 C133.0 134.0 133.0 134.0 130.0 134.0 L130.0 134.0 Z"></path>
<path fill="#113355" fill-opacity="1.0"  filling="0" d="M71.0 134.0 C71.0 134.0 71.0 134.0 71.0 134.0 C71.0 134.0 71.0 134.0 71.0 134.0 L68.0 130.0 L63.0 126.0 C63.0 126.0 63.0 126.0 63.0 126.0 C63.0 126.0 63.0 125.0 63.0 125.0 L68.0 124.0 L71.0 118.0 C71.0 118.0 71.0 118.0 72.0 118.0 C72.0 118.0 72.0 118.0 72.0 118.0 L74.0 124.0 L79.0 125.0 C80.0 125.0 80.0 126.0 80.0 126.0 C80.0 126.0 80.0 126.0 79.0 126.0 L74.0 130.0 L72.0 134.0 C72.0 134.0 72.0 134.0 71.0 134.0 L71.0 134.0 Z"></path>
<path fill="#113355" fill-opacity="1.0"  filling="0" d="M130.0 95.0 C130.0 95.0 130.0 95.0 130.0 95.0 C130.0 95.0 130.0 95.0 130.0 95.0 L132.0 90.0 L127.0 87.0 C127.0 87.0 127.0 87.0 127.0 87.0 C127.0 86.0 127.0 86.0 127.0 86.0 L133.0 85.0 L135.0 80.0 C135.0 80.0 135.0 80.0 136.0 80.0 C136.0 80.0 136.0 80.0 136.0 80.0 L138.0 85.0 L143.0 86.0 C143.0 86.0 143.0 87.0 143.0 87.0 C143.0 87.0 143.0 87.0 143.0 87.0 L138.0 90.0 L132.0 95.0 C132.0 95.0 131.0 95.0 130.0 95.0 L130.0 95.0 Z"></path>
<path fill="#113355" fill-opacity="1.0"  filling="0" d="M67.0 95.0 C67.0 95.0 67.0 95.0 67.0 95.0 C67.0 95.0 67.0 95.0 67.0 95.0 L65.0 90.0 L60.0 87.0 C60.0 87.0 60.0 87.0 60.0 87.0 C60.0 86.0 60.0 86.0 60.0 86.0 L65.0 85.0 L67.0 80.0 C67.0 80.0 67.0 80.0 67.0 80.0 C67.0 80.0 67.0 80.0 67.0 80.0 L69.0 85.0 L74.0 86.0 C74.0 86.0 74.0 87.0 74.0 87.0 C74.0 87.0 74.0 87.0 74.0 87.0 L69.0 90.0 L67.0 95.0 C67.0 95.0 67.0 95.0 67.0 95.0 L67.0 95.0 Z"></path>
<path fill="#113355" fill-opacity="1.0"  filling="0" d="M80.0 58.0 C80.0 58.0 80.0 58.0 80.0 58.0 C80.0 58.0 80.0 58.0 80.0 58.0 L82.0 54.0 L80.0 52.0 C80.0 52.0 80.0 52.0 80.0 52.0 C80.0 52.0 80.0 52.0 80.0 52.0 L84.0 51.0 L86.0 47.0 C86.0 47.0 86.0 47.0 87.0 47.0 C87.0 47.0 87.0 47.0 87.0 47.0 L88.0 51.0 L92.0 52.0 C92.0 52.0 92.0 52.0 92.0 52.0 C92.0 52.0 92.0 52.0 92.0 52.0 L88.0 54.0 L87.0 58.0 C87.0 58.0 87.0 58.0 87.0 58.0 C86.0 58.0 86.0 58.0 86.0 58.0 L84.0 55.0 L80.0 58.0 C80.0 58.0 80.0 58.0 80.0 58.0 L80.0 58.0 Z"></path>
<path fill="#113355" fill-opacity="1.0"  filling="0" d="M80.0 58.0 C80.0 58.0 80.0 58.0 80.0 58.0 C80.0 58.0 80.0 58.0 80.0 58.0 L82.0 54.0 L80.0 52.0 C80.0 52.0 80.0 52.0 80.0 52.0 C80.0 52.0 80.0 52.0 80.0 52.0 L84.0 51.0 L86.0 47.0 C86.0 47.0 86.0 47.0 87.0 47.0 C87.0 47.0 87.0 47.0 87.0 47.0 L88.0 51.0 L92.0 52.0 C92.0 52.0 92.0 52.0 92.0 52.0 C92.0 52.0 92.0 52.0 92.0 52.0 L88.0 54.0 L87.0 58.0 C87.0 58.0 87.0 58.0 87.0 58.0 C86.0 58.0 86.0 58.0 86.0 58.0 L84.0 55.0 L80.0 58.0 C80.0 58.0 80.0 58.0 80.0 58.0 L80.0 58.0 Z"></path></svg>