<svg xmlns="http://www.w3.org/2000/svg" viewBox="0.0 0.0 200.0 200.0" height="200px" width="200px"><path fill="#bbcccc" fill-opacity="1.0"  filling="0" d="M164.0 177.0 C164.0 181.0 135.0 185.0 99.0 185.0 C64.0 185.0 35.0 181.0 35.0 177.0 C35.0 173.0 64.0 170.0 99.0 170.0 C135.0 170.0 164.0 173.0 164.0 177.0 L164.0 177.0 Z"></path>
<path fill="#334455" fill-opacity="1.0"  filling="0" d="M100.0 26.0 C100.0 26.0 100.0 26.0 99.0 26.0 C98.0 26.0 97.0 25.0 96.0 24.0 L84.0 10.0 C83.0 9.0 83.0 7.0 85.0 6.0 C86.0 5.0 88.0 5.0 89.0 6.0 L101.0 20.0 C102.0 21.0 102.0 23.0 102.0 24.0 C101.0 25.0 101.0 26.0 100.0 26.0 L100.0 26.0 Z"></path>
<path fill="#334455" fill-opacity="1.0"  filling="0" d="M101.0 26.0 C100.0 26.0 99.0 25.0 98.0 24.0 C98.0 23.0 98.0 21.0 99.0 20.0 L112.0 6.0 C113.0 5.0 115.0 5.0 116.0 6.0 C117.0 7.0 117.0 9.0 116.0 10.0 L103.0 24.0 C103.0 25.0 102.0 26.0 101.0 26.0 L101.0 26.0 Z"></path>
<path fill="#334455" fill-opacity="1.0"  filling="0" d="M100.0 26.0 C98.0 26.0 97.0 25.0 97.0 23.0 L97.0 8.0 C97.0 7.0 98.0 5.0 100.0 5.0 C101.0 5.0 103.0 7.0 103.0 8.0 L103.0 23.0 C103.0 25.0 101.0 26.0 100.0 26.0 L100.0 26.0 Z"></path>
<path fill="#334455" fill-opacity="1.0"  filling="0" d="M100.0 26.0 C99.0 26.0 98.0 26.0 97.0 25.0 L77.0 14.0 C76.0 13.0 75.0 11.0 76.0 10.0 C77.0 8.0 79.0 8.0 80.0 9.0 L102.0 20.0 C103.0 21.0 103.0 23.0 103.0 24.0 C102.0 25.0 101.0 26.0 100.0 26.0 L100.0 26.0 Z"></path>
<path fill="#334455" fill-opacity="1.0"  filling="0" d="M101.0 26.0 C100.0 26.0 99.0 25.0 98.0 24.0 C98.0 23.0 98.0 21.0 99.0 20.0 L120.0 9.0 C121.0 8.0 123.0 8.0 124.0 10.0 C125.0 11.0 124.0 13.0 123.0 14.0 L103.0 25.0 C102.0 26.0 101.0 26.0 101.0 26.0 L101.0 26.0 Z"></path>
<path fill="#ffbb88" fill-opacity="1.0"  filling="0" d="M155.0 79.0 C157.0 83.0 159.0 87.0 159.0 91.0 C159.0 107.0 158.0 122.0 155.0 136.0 C154.0 144.0 152.0 151.0 148.0 157.0 C144.0 163.0 138.0 167.0 131.0 168.0 C120.0 171.0 109.0 172.0 99.0 172.0 C89.0 172.0 79.0 171.0 68.0 168.0 C61.0 167.0 55.0 163.0 51.0 157.0 C47.0 151.0 45.0 144.0 43.0 136.0 C41.0 122.0 40.0 107.0 40.0 91.0 C40.0 87.0 41.0 83.0 43.0 79.0 L155.0 79.0 L155.0 79.0 Z"></path>
<path fill="#664422" fill-opacity="1.0"  filling="0" d="M99.0 174.0 C89.0 174.0 79.0 173.0 68.0 171.0 C60.0 169.0 54.0 165.0 49.0 159.0 C45.0 153.0 42.0 145.0 41.0 137.0 C39.0 122.0 38.0 107.0 38.0 91.0 C38.0 87.0 39.0 82.0 41.0 78.0 C41.0 77.0 42.0 76.0 43.0 76.0 L155.0 76.0 C156.0 76.0 157.0 77.0 157.0 78.0 C160.0 82.0 161.0 87.0 161.0 91.0 C161.0 107.0 160.0 122.0 157.0 137.0 C156.0 145.0 154.0 153.0 150.0 159.0 C145.0 165.0 139.0 169.0 131.0 171.0 C120.0 173.0 109.0 174.0 99.0 174.0 L99.0 174.0 Z M45.0 82.0 C44.0 84.0 43.0 88.0 43.0 91.0 C43.0 107.0 44.0 121.0 46.0 136.0 C47.0 143.0 50.0 150.0 54.0 155.0 C58.0 161.0 63.0 164.0 69.0 165.0 C80.0 168.0 90.0 169.0 99.0 169.0 C109.0 169.0 119.0 168.0 130.0 165.0 C136.0 164.0 141.0 161.0 145.0 155.0 C149.0 150.0 152.0 143.0 153.0 136.0 C155.0 121.0 156.0 107.0 156.0 91.0 C156.0 88.0 155.0 84.0 154.0 82.0 L45.0 82.0 L45.0 82.0 Z"></path>
<path fill="#ffbb88" fill-opacity="1.0"  filling="0" d="M155.0 79.0 C157.0 83.0 159.0 87.0 159.0 91.0 C159.0 107.0 158.0 122.0 155.0 136.0 C154.0 144.0 152.0 151.0 148.0 157.0 C144.0 163.0 138.0 167.0 131.0 168.0 C120.0 171.0 109.0 172.0 99.0 172.0 C89.0 172.0 79.0 171.0 68.0 168.0 C61.0 167.0 55.0 163.0 51.0 157.0 C47.0 151.0 45.0 144.0 43.0 136.0 C41.0 122.0 40.0 107.0 40.0 91.0 C40.0 87.0 41.0 83.0 43.0 79.0 L155.0 79.0 L155.0 79.0 Z"></path>
<path fill="#664422" fill-opacity="1.0"  filling="0" d="M99.0 174.0 C89.0 174.0 79.0 173.0 68.0 171.0 C60.0 169.0 54.0 165.0 49.0 159.0 C45.0 153.0 42.0 145.0 41.0 137.0 C39.0 122.0 38.0 107.0 38.0 91.0 C38.0 87.0 39.0 82.0 41.0 78.0 C41.0 77.0 42.0 76.0 43.0 76.0 L155.0 76.0 C156.0 76.0 157.0 77.0 157.0 78.0 C160.0 82.0 161.0 87.0 161.0 91.0 C161.0 107.0 160.0 122.0 157.0 137.0 C156.0 145.0 154.0 153.0 150.0 159.0 C145.0 165.0 139.0 169.0 131.0 171.0 C120.0 173.0 109.0 174.0 99.0 174.0 L99.0 174.0 Z M45.0 82.0 C44.0 84.0 43.0 88.0 43.0 91.0 C43.0 107.0 44.0 121.0 46.0 136.0 C47.0 143.0 50.0 150.0 54.0 155.0 C58.0 161.0 63.0 164.0 69.0 165.0 C80.0 168.0 90.0 169.0 99.0 169.0 C109.0 169.0 119.0 168.0 130.0 165.0 C136.0 164.0 141.0 161.0 145.0 155.0 C149.0 150.0 152.0 143.0 153.0 136.0 C155.0 121.0 156.0 107.0 156.0 91.0 C156.0 88.0 155.0 84.0 154.0 82.0 L45.0 82.0 L45.0 82.0 Z"></path>
<path fill="#ffbb88" fill-opacity="1.0"  filling="0" d="M155.0 79.0 C157.0 83.0 159.0 87.0 159.0 91.0 C159.0 107.0 158.0 122.0 155.0 136.0 C154.0 144.0 152.0 151.0 148.0 157.0 C144.0 163.0 138.0 167.0 131.0 168.0 C120.0 171.0 109.0 172.0 99.0 172.0 C89.0 172.0 79.0 171.0 68.0 168.0 C61.0 167.0 55.0 163.0 51.0 157.0 C47.0 151.0 45.0 144.0 43.0 136.0 C41.0 122.0 40.0 107.0 40.0 91.0 C40.0 87.0 41.0 83.0 43.0 79.0 L155.0 79.0 L155.0 79.0 Z"></path>
<path fill="#664422" fill-opacity="1.0"  filling="0" d="M99.0 174.0 C89.0 174.0 79.0 173.0 68.0 171.0 C60.0 169.0 54.0 165.0 49.0 159.0 C45.0 153.0 42.0 145.0 41.0 137.0 C39.0 122.0 38.0 107.0 38.0 91.0 C38.0 87.0 39.0 82.0 41.0 78.0 C41.0 77.0 42.0 76.0 43.0 76.0 L155.0 76.0 C156.0 76.0 157.0 77.0 157.0 78.0 C160.0 82.0 161.0 87.0 161.0 91.0 C161.0 107.0 160.0 122.0 157.0 137.0 C156.0 145.0 154.0 153.0 150.0 159.0 C145.0 165.0 139.0 169.0 131.0 171.0 C120.0 173.0 109.0 174.0 99.0 174.0 L99.0 174.0 Z M45.0 82.0 C44.0 84.0 43.0 88.0 43.0 91.0 C43.0 107.0 44.0 121.0 46.0 136.0 C47.0 143.0 50.0 150.0 54.0 155.0 C58.0 161.0 63.0 164.0 69.0 165.0 C80.0 168.0 90.0 169.0 99.0 169.0 C109.0 169.0 119.0 168.0 130.0 165.0 C136.0 164.0 141.0 161.0 145.0 155.0 C149.0 150.0 152.0 143.0 153.0 136.0 C155.0 121.0 156.0 107.0 156.0 91.0 C156.0 88.0 155.0 84.0 154.0 82.0 L45.0 82.0 L45.0 82.0 Z"></path>
<path fill="#ffbb88" fill-opacity="1.0"  filling="0" d="M155.0 79.0 C157.0 83.0 159.0 87.0 159.0 91.0 C159.0 107.0 158.0 122.0 155.0 136.0 C154.0 144.0 152.0 151.0 148.0 157.0 C144.0 163.0 138.0 167.0 131.0 168.0 C120.0 171.0 109.0 172.0 99.0 172.0 C89.0 172.0 79.0 171.0 68.0 168.0 C61.0 167.0 55.0 163.0 51.0 157.0 C47.0 151.0 45.0 144.0 43.0 136.0 C41.0 122.0 40.0 107.0 40.0 91.0 C40.0 87.0 41.0 83.0 43.0 79.0 L155.0 79.0 L155.0 79.0 Z"></path>
<path fill="#664422" fill-opacity="1.0"  filling="0" d="M99.0 174.0 C89.0 174.0 79.0 173.0 68.0 171.0 C60.0 169.0 54.0 165.0 49.0 159.0 C45.0 153.0 42.0 145.0 41.0 137.0 C39.0 122.0 38.0 107.0 38.0 91.0 C38.0 87.0 39.0 82.0 41.0 78.0 C41.0 77.0 42.0 76.0 43.0 76.0 L155.0 76.0 C156.0 76.0 157.0 77.0 157.0 78.0 C160.0 82.0 161.0 87.0 161.0 91.0 C161.0 107.0 160.0 122.0 157.0 137.0 C156.0 145.0 154.0 153.0 150.0 159.0 C145.0 165.0 139.0 169.0 131.0 171.0 C120.0 173.0 109.0 174.0 99.0 174.0 L99.0 174.0 Z M45.0 82.0 C44.0 84.0 43.0 88.0 43.0 91.0 C43.0 107.0 44.0 121.0 46.0 136.0 C47.0 143.0 50.0 150.0 54.0 155.0 C58.0 161.0 63.0 164.0 69.0 165.0 C80.0 168.0 90.0 169.0 99.0 169.0 C109.0 169.0 119.0 168.0 130.0 165.0 C136.0 164.0 141.0 161.0 145.0 155.0 C149.0 150.0 152.0 143.0 153.0 136.0 C155.0 121.0 156.0 107.0 156.0 91.0 C156.0 88.0 155.0 84.0 154.0 82.0 L45.0 82.0 L45.0 82.0 Z"></path>
<path fill="#ffbb88" fill-opacity="1.0"  filling="0" d="M155.0 79.0 C157.0 83.0 159.0 87.0 159.0 91.0 C159.0 107.0 158.0 122.0 155.0 136.0 C154.0 144.0 152.0 151.0 148.0 157.0 C144.0 163.0 138.0 167.0 131.0 168.0 C120.0 171.0 109.0 172.0 99.0 172.0 C89.0 172.0 79.0 171.0 68.0 168.0 C61.0 167.0 55.0 163.0 51.0 157.0 C47.0 151.0 45.0 144.0 43.0 136.0 C41.0 122.0 40.0 107.0 40.0 91.0 C40.0 87.0 41.0 83.0 43.0 79.0 L155.0 79.0 L155.0 79.0 Z"></path>
<path fill="#664422" fill-opacity="1.0"  filling="0" d="M99.0 174.0 C89.0 174.0 79.0 173.0 68.0 171.0 C60.0 169.0 54.0 165.0 49.0 159.0 C45.0 153.0 42.0 145.0 41.0 137.0 C39.0 122.0 38.0 107.0 38.0 91.0 C38.0 87.0 39.0 82.0 41.0 78.0 C41.0 77.0 42.0 76.0 43.0 76.0 L155.0 76.0 C156.0 76.0 157.0 77.0 157.0 78.0 C160.0 82.0 161.0 87.0 161.0 91.0 C161.0 107.0 160.0 122.0 157.0 137.0 C156.0 145.0 154.0 153.0 150.0 159.0 C145.0 165.0 139.0 169.0 131.0 171.0 C120.0 173.0 109.0 174.0 99.0 174.0 L99.0 174.0 Z M45.0 82.0 C44.0 84.0 43.0 88.0 43.0 91.0 C43.0 107.0 44.0 121.0 46.0 136.0 C47.0 143.0 50.0 150.0 54.0 155.0 C58.0 161.0 63.0 164.0 69.0 165.0 C80.0 168.0 90.0 169.0 99.0 169.0 C109.0 169.0 119.0 168.0 130.0 165.0 C136.0 164.0 141.0 161.0 145.0 155.0 C149.0 150.0 152.0 143.0 153.0 136.0 C155.0 121.0 156.0 107.0 156.0 91.0 C156.0 88.0 155.0 84.0 154.0 82.0 L45.0 82.0 L45.0 82.0 Z"></path>
<path fill="#ffbb88" fill-opacity="1.0"  filling="0" d="M155.0 79.0 C157.0 83.0 159.0 87.0 159.0 91.0 C159.0 107.0 158.0 122.0 155.0 136.0 C154.0 144.0 152.0 151.0 148.0 157.0 C144.0 163.0 138.0 167.0 131.0 168.0 C120.0 171.0 109.0 172.0 99.0 172.0 C89.0 172.0 79.0 171.0 68.0 168.0 C61.0 167.0 55.0 163.0 51.0 157.0 C47.0 151.0 45.0 144.0 43.0 136.0 C41.0 122.0 40.0 107.0 40.0 91.0 C40.0 87.0 41.0 83.0 43.0 79.0 L155.0 79.0 L155.0 79.0 Z"></path>
<path fill="#664422" fill-opacity="1.0"  filling="0" d="M99.0 174.0 C89.0 174.0 79.0 173.0 68.0 171.0 C60.0 169.0 54.0 165.0 49.0 159.0 C45.0 153.0 42.0 145.0 41.0 137.0 C39.0 122.0 38.0 107.0 38.0 91.0 C38.0 87.0 39.0 82.0 41.0 78.0 C41.0 77.0 42.0 76.0 43.0 76.0 L155.0 76.0 C156.0 76.0 157.0 77.0 157.0 78.0 C160.0 82.0 161.0 87.0 161.0 91.0 C161.0 107.0 160.0 122.0 157.0 137.0 C156.0 145.0 154.0 153.0 150.0 159.0 C145.0 165.0 139.0 169.0 131.0 171.0 C120.0 173.0 109.0 174.0 99.0 174.0 L99.0 174.0 Z M45.0 82.0 C44.0 84.0 43.0 88.0 43.0 91.0 C43.0 107.0 44.0 121.0 46.0 136.0 C47.0 143.0 50.0 150.0 54.0 155.0 C58.0 161.0 63.0 164.0 69.0 165.0 C80.0 168.0 90.0 169.0 99.0 169.0 C109.0 169.0 119.0 168.0 130.0 165.0 C136.0 164.0 141.0 161.0 145.0 155.0 C149.0 150.0 152.0 143.0 153.0 136.0 C155.0 121.0 156.0 107.0 156.0 91.0 C156.0 88.0 155.0 84.0 154.0 82.0 L45.0 82.0 L45.0 82.0 Z"></path>
<path fill="#ffbb88" fill-opacity="1.0"  filling="0" d="M155.0 79.0 C157.0 83.0 159.0 87.0 159.0 91.0 C159.0 107.0 158.0 122.0 155.0 136.0 C154.0 144.0 152.0 151.0 148.0 157.0 C144.0 163.0 138.0 167.0 131.0 168.0 C120.0 171.0 109.0 172.0 99.0 172.0 C89.0 172.0 79.0 171.0 68.0 168.0 C61.0 167.0 55.0 163.0 51.0 157.0 C47.0 151.0 45.0 144.0 43.0 136.0 C41.0 122.0 40.0 107.0 40.0 91.0 C40.0 87.0 41.0 83.0 43.0 79.0 L155.0 79.0 L155.0 79.0 Z"></path>
<path fill="#664422" fill-opacity="1.0"  filling="0" d="M99.0 174.0 C89.0 174.0 79.0 173.0 68.0 171.0 C60.0 169.0 54.0 165.0 49.0 159.0 C45.0 153.0 42.0 145.0 41.0 137.0 C39.0 122.0 38.0 107.0 38.0 91.0 C38.0 87.0 39.0 82.0 41.0 78.0 C41.0 77.0 42.0 76.0 43.0 76.0 L155.0 76.0 C156.0 76.0 157.0 77.0 157.0 78.0 C160.0 82.0 161.0 87.0 161.0 91.0 C161.0 107.0 160.0 122.0 157.0 137.0 C156.0 145.0 154.0 153.0 150.0 159.0 C145.0 165.0 139.0 169.0 131.0 171.0 C120.0 173.0 109.0 174.0 99.0 174.0 L99.0 174.0 Z M45.0 82.0 C44.0 84.0 43.0 88.0 43.0 91.0 C43.0 107.0 44.0 121.0 46.0 136.0 C47.0 143.0 50.0 150.0 54.0 155.0 C58.0 161.0 63.0 164.0 69.0 165.0 C80.0 168.0 90.0 169.0 99.0 169.0 C109.0 169.0 119.0 168.0 130.0 165.0 C136.0 164.0 141.0 161.0 145.0 155.0 C149.0 150.0 152.0 143.0 153.0 136.0 C155.0 121.0 156.0 107.0 156.0 91.0 C156.0 88.0 155.0 84.0 154.0 82.0 L45.0 82.0 L45.0 82.0 Z"></path>
<path fill="#ffbb88" fill-opacity="1.0"  filling="0" d="M155.0 79.0 C157.0 83.0 159.0 87.0 159.0 91.0 C159.0 107.0 158.0 122.0 155.0 136.0 C154.0 144.0 152.0 151.0 148.0 157.0 C144.0 163.0 138.0 167.0 131.0 168.0 C120.0 171.0 109.0 172.0 99.0 172.0 C89.0 172.0 79.0 171.0 68.0 168.0 C61.0 167.0 55.0 163.0 51.0 157.0 C47.0 151.0 45.0 144.0 43.0 136.0 C41.0 122.0 40.0 107.0 40.0 91.0 C40.0 87.0 41.0 83.0 43.0 79.0 L155.0 79.0 L155.0 79.0 Z"></path>
<path fill="#000000" fill-opacity="1.0"  filling="0" d="M99.0 174.0 C89.0 174.0 79.0 173.0 68.0 171.0 C60.0 169.0 54.0 165.0 49.0 159.0 C45.0 153.0 42.0 145.0 41.0 137.0 C39.0 122.0 38.0 107.0 38.0 91.0 C38.0 87.0 39.0 82.0 41.0 78.0 C41.0 77.0 42.0 76.0 43.0 76.0 L155.0 76.0 C156.0 76.0 157.0 77.0 157.0 78.0 C160.0 82.0 161.0 87.0 161.0 91.0 C161.0 107.0 160.0 122.0 157.0 137.0 C156.0 145.0 154.0 153.0 150.0 159.0 C145.0 165.0 139.0 169.0 131.0 171.0 C120.0 173.0 109.0 174.0 99.0 174.0 L99.0 174.0 Z"></path></svg>