<svg xmlns="http://www.w3.org/2000/svg" viewBox="0.0 0.0 200.0 200.0" height="200px" width="200px"><path fill="#bbcccc" fill-opacity="1.0"  filling="0" d="M165.0 177.0 C165.0 180.0 -7.0 -7.0 -8.0 -8.0 A0.0 0.0 0.0 1 0 35.0 177.0 L35.0 177.0 Z"></path>
<path fill="#334455" fill-opacity="1.0"  filling="0" d="M92.0 68.0 A3.0 3.0 0.0 0 1 89.0 67.0 L67.0 28.0 A3.0 3.0 0.0 1 1 72.0 25.0 L94.0 63.0 A3.0 3.0 0.0 0 1 92.0 68.0 L92.0 68.0 Z"></path>
<path fill="#334455" fill-opacity="1.0"  filling="0" d="M105.0 68.0 A3.0 3.0 0.0 0 1 103.0 63.0 L124.0 25.0 A3.0 3.0 0.0 1 1 129.0 28.0 L107.0 67.0 A3.0 3.0 0.0 0 1 105.0 68.0 L105.0 68.0 Z"></path>
<path fill="#445555" fill-opacity="1.0"  filling="0" d="M44.0 68.0 L156.0 68.0 A9.0 9.0 0.0 0 1 164.0 75.0 L164.0 153.0 A9.0 9.0 0.0 0 1 156.0 160.0 L44.0 160.0 A9.0 9.0 0.0 0 1 36.0 153.0 L36.0 75.0 A9.0 9.0 0.0 0 1 44.0 68.0 L44.0 68.0 Z"></path>
<path fill="#445555" fill-opacity="1.0"  filling="0" d="M44.0 68.0 L156.0 68.0 A9.0 9.0 0.0 0 1 164.0 75.0 L164.0 153.0 A9.0 9.0 0.0 0 1 156.0 160.0 L44.0 160.0 A9.0 9.0 0.0 0 1 36.0 153.0 L36.0 75.0 A9.0 9.0 0.0 0 1 44.0 68.0 L44.0 68.0 Z"></path>
<path fill="#ffcc33" fill-opacity="1.0"  filling="0" d="M54.0 76.0 L146.0 76.0 A9.0 9.0 0.0 0 1 155.0 85.0 L155.0 144.0 A9.0 9.0 0.0 0 1 146.0 152.0 L54.0 152.0 A9.0 9.0 0.0 0 1 45.0 144.0 L45.0 85.0 A9.0 9.0 0.0 0 1 54.0 76.0 L54.0 76.0 Z"></path>
<path fill="#ffcc33" fill-opacity="1.0"  filling="0" d="M54.0 76.0 L146.0 76.0 A9.0 9.0 0.0 0 1 155.0 85.0 L155.0 144.0 A9.0 9.0 0.0 0 1 146.0 152.0 L54.0 152.0 A9.0 9.0 0.0 0 1 45.0 144.0 L45.0 85.0 A9.0 9.0 0.0 0 1 54.0 76.0 L54.0 76.0 Z"></path>
<path fill="#ffcc33" fill-opacity="1.0"  filling="0" d="M54.0 76.0 L146.0 76.0 A9.0 9.0 0.0 0 1 155.0 85.0 L155.0 144.0 A9.0 9.0 0.0 0 1 146.0 152.0 L54.0 152.0 A9.0 9.0 0.0 0 1 45.0 144.0 L45.0 85.0 A9.0 9.0 0.0 0 1 54.0 76.0 L54.0 76.0 Z"></path>
<path fill="#ffbb66" fill-opacity="1.0"  filling="0" d="M44.0 98.0 L155.0 98.0 L155.0 115.0 L44.0 115.0 L44.0 98.0 L44.0 98.0 Z"></path>
<path fill="#44aabb" fill-opacity="1.0"  filling="0" d="M44.0 124.0 L155.0 124.0 L155.0 140.0 L44.0 140.0 L44.0 124.0 L44.0 124.0 Z"></path>
<path fill="#ffbb66" fill-opacity="1.0"  filling="0" d="M44.0 98.0 L155.0 98.0 L155.0 115.0 L44.0 115.0 L44.0 98.0 L44.0 98.0 Z"></path>
<path fill="#44aabb" fill-opacity="1.0"  filling="0" d="M44.0 124.0 L155.0 124.0 L155.0 140.0 L44.0 140.0 L44.0 124.0 L44.0 124.0 Z"></path>
<path fill="#334455" fill-opacity="1.0"  filling="0" d="M141.0 88.0 A8.0 8.0 0.0 1 0 157.0 88.0 A8.0 8.0 0.0 1 0 141.0 88.0 L141.0 88.0 Z"></path>
<path fill="#334455" fill-opacity="1.0"  filling="0" d="M143.0 110.0 A6.0 6.0 0.0 1 0 155.0 110.0 A6.0 6.0 0.0 1 0 143.0 110.0 L143.0 110.0 Z"></path>
<path fill="#445555" fill-opacity="1.0"  filling="0" d="M44.0 68.0 L156.0 68.0 A9.0 9.0 0.0 0 1 164.0 75.0 L164.0 153.0 A9.0 9.0 0.0 0 1 156.0 160.0 L44.0 160.0 A9.0 9.0 0.0 0 1 36.0 153.0 L36.0 75.0 A9.0 9.0 0.0 0 1 44.0 68.0 L44.0 68.0 Z"></path>
<path fill="#445555" fill-opacity="1.0"  filling="0" d="M44.0 68.0 L156.0 68.0 A9.0 9.0 0.0 0 1 164.0 75.0 L164.0 153.0 A9.0 9.0 0.0 0 1 156.0 160.0 L44.0 160.0 A9.0 9.0 0.0 0 1 36.0 153.0 L36.0 75.0 A9.0 9.0 0.0 0 1 44.0 68.0 L44.0 68.0 Z"></path>
<path fill="#ffcc33" fill-opacity="1.0"  filling="0" d="M54.0 76.0 L146.0 76.0 A9.0 9.0 0.0 0 1 155.0 85.0 L155.0 144.0 A9.0 9.0 0.0 0 1 146.0 152.0 L54.0 152.0 A9.0 9.0 0.0 0 1 45.0 144.0 L45.0 85.0 A9.0 9.0 0.0 0 1 54.0 76.0 L54.0 76.0 Z"></path>
<path fill="#ffcc33" fill-opacity="1.0"  filling="0" d="M54.0 76.0 L146.0 76.0 A9.0 9.0 0.0 0 1 155.0 85.0 L155.0 144.0 A9.0 9.0 0.0 0 1 146.0 152.0 L54.0 152.0 A9.0 9.0 0.0 0 1 45.0 144.0 L45.0 85.0 A9.0 9.0 0.0 0 1 54.0 76.0 L54.0 76.0 Z"></path>
<path fill="#ffbb66" fill-opacity="1.0"  filling="0" d="M44.0 98.0 L155.0 98.0 L155.0 115.0 L44.0 115.0 L44.0 98.0 L44.0 98.0 Z"></path>
<path fill="#44aabb" fill-opacity="1.0"  filling="0" d="M44.0 124.0 L155.0 124.0 L155.0 140.0 L44.0 140.0 L44.0 124.0 L44.0 124.0 Z"></path>
<path fill="#ffbb66" fill-opacity="1.0"  filling="0" d="M44.0 98.0 L155.0 98.0 L155.0 115.0 L44.0 115.0 L44.0 98.0 L44.0 98.0 Z"></path>
<path fill="#44aabb" fill-opacity="1.0"  filling="0" d="M44.0 124.0 L155.0 124.0 L155.0 140.0 L44.0 140.0 L44.0 124.0 L44.0 124.0 Z"></path>
<path fill="#334455" fill-opacity="1.0"  filling="0" d="M141.0 88.0 A8.0 8.0 0.0 1 0 157.0 88.0 A8.0 8.0 0.0 1 0 141.0 88.0 L141.0 88.0 Z"></path>
<path fill="#334455" fill-opacity="1.0"  filling="0" d="M143.0 110.0 A6.0 6.0 0.0 1 0 155.0 110.0 A6.0 6.0 0.0 1 0 143.0 110.0 L143.0 110.0 Z"></path>
<path fill="#445555" fill-opacity="1.0"  filling="0" d="M44.0 68.0 L156.0 68.0 A9.0 9.0 0.0 0 1 164.0 75.0 L164.0 153.0 A9.0 9.0 0.0 0 1 156.0 160.0 L44.0 160.0 A9.0 9.0 0.0 0 1 36.0 153.0 L36.0 75.0 A9.0 9.0 0.0 0 1 44.0 68.0 L44.0 68.0 Z"></path>
<path fill="#445555" fill-opacity="1.0"  filling="0" d="M44.0 68.0 L156.0 68.0 A9.0 9.0 0.0 0 1 164.0 75.0 L164.0 153.0 A9.0 9.0 0.0 0 1 156.0 160.0 L44.0 160.0 A9.0 9.0 0.0 0 1 36.0 153.0 L36.0 75.0 A9.0 9.0 0.0 0 1 44.0 68.0 L44.0 68.0 Z"></path>
<path fill="#ffcc33" fill-opacity="1.0"  filling="0" d="M54.0 76.0 L146.0 76.0 A9.0 9.0 0.0 0 1 155.0 85.0 L155.0 144.0 A9.0 9.0 0.0 0 1 146.0 152.0 L54.0 152.0 A9.0 9.0 0.0 0 1 45.0 144.0 L45.0 85.0 A9.0 9.0 0.0 0 1 54.0 76.0 L54.0 76.0 Z"></path>
<path fill="#ffcc33" fill-opacity="1.0"  filling="0" d="M54.0 76.0 L146.0 76.0 A9.0 9.0 0.0 0 1 155.0 85.0 L155.0 144.0 A9.0 9.0 0.0 0 1 146.0 152.0 L54.0 152.0 A9.0 9.0 0.0 0 1 45.0 144.0 L45.0 85.0 A9.0 9.0 0.0 0 1 54.0 76.0 L54.0 76.0 Z"></path>
<path fill="#ffbb66" fill-opacity="1.0"  filling="0" d="M44.0 98.0 L155.0 98.0 L155.0 115.0 L44.0 115.0 L44.0 98.0 L44.0 98.0 Z"></path>
<path fill="#44aabb" fill-opacity="1.0"  filling="0" d="M44.0 124.0 L155.0 124.0 L155.0 140.0 L44.0 140.0 L44.0 124.0 L44.0 124.0 Z"></path>
<path fill="#ffbb66" fill-opacity="1.0"  filling="0" d="M44.0 98.0 L155.0 98.0 L155.0 115.0 L44.0 115.0 L44.0 98.0 L44.0 98.0 Z"></path>
<path fill="#44aabb" fill-opacity="1.0"  filling="0" d="M44.0 124.0 L155.0 124.0 L155.0 140.0 L44.0 140.0 L44.0 124.0 L44.0 124.0 Z"></path>
<path fill="#334455" fill-opacity="1.0"  filling="0" d="M141.0 88.0 A8.0 8.0 0.0 1 0 157.0 88.0 A8.0 8.0 0.0 1 0 141.0 88.0 L141.0 88.0 Z"></path>
<path fill="#334455" fill-opacity="1.0"  filling="0" d="M143.0 110.0 A6.0 6.0 0.0 1 0 155.0 110.0 A6.0 6.0 0.0 1 0 143.0 110.0 L143.0 110.0 Z"></path>
<path fill="#445555" fill-opacity="1.0"  filling="0" d="M44.0 68.0 L156.0 68.0 A9.0 9.0 0.0 0 1 164.0 75.0 L164.0 153.0 A9.0 9.0 0.0 0 1 156.0 160.0 L44.0 160.0 A9.0 9.0 0.0 0 1 36.0 153.0 L36.0 75.0 A9.0 9.0 0.0 0 1 44.0 68.0 L44.0 68.0 Z"></path>
<path fill="#445555" fill-opacity="1.0"  filling="0" d="M44.0 68.0 L156.0 68.0 A9.0 9.0 0.0 0 1 164.0 75.0 L164.0 153.0 A9.0 9.0 0.0 0 1 156.0 160.0 L44.0 160.0 A9.0 9.0 0.0 0 1 36.0 153.0 L36.0 75.0 A9.0 9.0 0.0 0 1 44.0 68.0 L44.0 68.0 Z"></path>
<path fill="#ffcc33" fill-opacity="1.0"  filling="0" d="M54.0 76.0 L146.0 76.0 A9.0 9.0 0.0 0 1 155.0 85.0 L155.0 144.0 A9.0 9.0 0.0 0 1 146.0 152.0 L54.0 152.0 A9.0 9.0 0.0 0 1 45.0 144.0 L45.0 85.0 A9.0 9.0 0.0 0 1 54.0 76.0 L54.0 76.0 Z"></path>
<path fill="#ffcc33" fill-opacity="1.0"  filling="0" d="M54.0 76.0 L146.0 76.0 A9.0 9.0 0.0 0 1 155.0 85.0 L155.0 144.0 A9.0 9.0 0.0 0 1 146.0 152.0 L54.0 152.0 A9.0 9.0 0.0 0 1 45.0 144.0 L45.0 85.0 A9.0 9.0 0.0 0 1 54.0 76.0 L54.0 76.0 Z"></path>
<path fill="#ffbb66" fill-opacity="1.0"  filling="0" d="M44.0 98.0 L155.0 98.0 L155.0 115.0 L44.0 115.0 L44.0 98.0 L44.0 98.0 Z"></path>
<path fill="#44aabb" fill-opacity="1.0"  filling="0" d="M44.0 124.0 L155.0 124.0 L155.0 140.0 L44.0 140.0 L44.0 124.0 L44.0 124.0 Z"></path>
<path fill="#ffbb66" fill-opacity="1.0"  filling="0" d="M44.0 98.0 L155.0 98.0 L155.0 115.0 L44.0 115.0 L44.0 98.0 L44.0 98.0 Z"></path>
<path fill="#44aabb" fill-opacity="1.0"  filling="0" d="M44.0 124.0 L155.0 124.0 L155.0 140.0 L44.0 140.0 L44.0 124.0 L44.0 124.0 Z"></path>
<path fill="#334455" fill-opacity="1.0"  filling="0" d="M141.0 88.0 A8.0 8.0 0.0 1 0 157.0 88.0 A8.0 8.0 0.0 1 0 141.0 88.0 L141.0 88.0 Z"></path>
<path fill="#334455" fill-opacity="1.0"  filling="0" d="M143.0 110.0 A6.0 6.0 0.0 1 0 155.0 110.0 A6.0 6.0 0.0 1 0 143.0 110.0 L143.0 110.0 Z"></path>
<path fill="#445555" fill-opacity="1.0"  filling="0" d="M44.0 68.0 L156.0 68.0 A9.0 9.0 0.0 0 1 164.0 75.0 L164.0 153.0 A9.0 9.0 0.0 0 1 156.0 160.0 L44.0 160.0 A9.0 9.0 0.0 0 1 36.0 153.0 L36.0 75.0 A9.0 9.0 0.0 0 1 44.0 68.0 L44.0 68.0 Z"></path>
<path fill="#445555" fill-opacity="1.0"  filling="0" d="M44.0 68.0 L156.0 68.0 A9.0 9.0 0.0 0 1 164.0 75.0 L164.0 153.0 A9.0 9.0 0.0 0 1 156.0 160.0 L44.0 160.0 A9.0 9.0 0.0 0 1 36.0 153.0 L36.0 75.0 A9.0 9.0 0.0 0 1 44.0 68.0 L44.0 68.0 Z"></path>
<path fill="#ffcc33" fill-opacity="1.0"  filling="0" d="M54.0 76.0 L146.0 76.0 A9.0 9.0 0.0 0 1 155.0 85.0 L155.0 144.0 A9.0 9.0 0.0 0 1 146.0 152.0 L54.0 152.0 A9.0 9.0 0.0 0 1 45.0 144.0 L45.0 85.0 A9.0 9.0 0.0 0 1 54.0 76.0 L54.0 76.0 Z"></path>
<path fill="none" fill-opacity="1.0" filling="0" d="M0.0 M.0 Z"></path></svg>