<svg xmlns="http://www.w3.org/2000/svg" viewBox="0.0 0.0 200.0 200.0" height="200px" width="200px"><path fill="#bbcccc" fill-opacity="1.0"  filling="0" d="M164.0 177.0 C164.0 181.0 135.0 185.0 100.0 185.0 C65.0 185.0 35.0 181.0 35.0 177.0 C35.0 173.0 65.0 169.0 100.0 169.0 C135.0 169.0 164.0 173.0 164.0 177.0 L164.0 177.0 Z"></path>
<path fill="#334455" fill-opacity="1.0"  filling="0" d="M100.0 26.0 C99.0 26.0 98.0 26.0 97.0 25.0 L80.0 5.0 C79.0 4.0 79.0 2.0 80.0 1.0 C81.0 0.0 83.0 0.0 84.0 1.0 L102.0 21.0 C103.0 22.0 103.0 24.0 102.0 25.0 C101.0 26.0 100.0 26.0 100.0 26.0 L100.0 26.0 Z"></path>
<path fill="#334455" fill-opacity="1.0"  filling="0" d="M101.0 26.0 C100.0 26.0 99.0 26.0 98.0 25.0 C97.0 24.0 97.0 22.0 98.0 21.0 L117.0 1.0 C118.0 0.0 120.0 0.0 121.0 1.0 C122.0 2.0 122.0 4.0 121.0 5.0 L103.0 25.0 C102.0 26.0 101.0 26.0 101.0 26.0 L101.0 26.0 Z"></path>
<path fill="#334455" fill-opacity="1.0"  filling="0" d="M100.0 26.0 A3.0 3.0 0.0 0 1 97.0 23.0 L97.0 3.0 A3.0 3.0 0.0 1 1 103.0 3.0 L103.0 23.0 A3.0 3.0 0.0 0 1 100.0 26.0 L100.0 26.0 Z"></path>
<path fill="#334455" fill-opacity="1.0"  filling="0" d="M100.0 26.0 A3.0 3.0 0.0 0 1 98.0 28.0 L78.0 50.0 C77.0 51.0 75.0 51.0 73.0 50.0 C72.0 49.0 72.0 47.0 73.0 46.0 L97.0 24.0 C98.0 23.0 99.0 23.0 100.0 23.0 C101.0 23.0 102.0 23.0 102.0 24.0 L126.0 46.0 C128.0 47.0 128.0 49.0 126.0 50.0 C125.0 51.0 123.0 51.0 122.0 50.0 L99.0 28.0 A3.0 3.0 0.0 0 1 100.0 26.0 L100.0 26.0 Z"></path>
<path fill="#334455" fill-opacity="1.0"  filling="0" d="M155.0 79.0 C155.0 77.0 153.0 75.0 151.0 75.0 L49.0 75.0 C47.0 75.0 45.0 77.0 45.0 79.0 L45.0 173.0 C45.0 175.0 47.0 177.0 49.0 177.0 L151.0 177.0 C153.0 177.0 155.0 175.0 155.0 173.0 L155.0 79.0 L155.0 79.0 Z"></path>
<path fill="#334455" fill-opacity="1.0"  filling="0" d="M151.0 181.0 L49.0 181.0 C45.0 181.0 42.0 177.0 42.0 173.0 L42.0 79.0 C42.0 75.0 45.0 71.0 49.0 71.0 L151.0 71.0 C155.0 71.0 159.0 75.0 159.0 79.0 L159.0 173.0 C159.0 177.0 155.0 181.0 151.0 181.0 L151.0 181.0 Z M49.0 78.0 C48.0 78.0 48.0 78.0 48.0 79.0 L48.0 173.0 C48.0 174.0 48.0 174.0 49.0 174.0 L151.0 174.0 C152.0 174.0 152.0 174.0 152.0 173.0 L152.0 79.0 C152.0 78.0 152.0 78.0 151.0 78.0 L49.0 78.0 L49.0 78.0 Z"></path>
<path fill="#334455" fill-opacity="1.0"  filling="0" d="M155.0 79.0 C155.0 77.0 153.0 75.0 151.0 75.0 L49.0 75.0 C47.0 75.0 45.0 77.0 45.0 79.0 L45.0 173.0 C45.0 175.0 47.0 177.0 49.0 177.0 L151.0 177.0 C153.0 177.0 155.0 175.0 155.0 173.0 L155.0 79.0 L155.0 79.0 Z"></path>
<path fill="#334455" fill-opacity="1.0"  filling="0" d="M151.0 181.0 L49.0 181.0 C45.0 181.0 42.0 177.0 42.0 173.0 L42.0 79.0 C42.0 75.0 45.0 71.0 49.0 71.0 L151.0 71.0 C155.0 71.0 159.0 75.0 159.0 79.0 L159.0 173.0 C159.0 177.0 155.0 181.0 151.0 181.0 L151.0 181.0 Z M49.0 78.0 C48.0 78.0 48.0 78.0 48.0 79.0 L48.0 173.0 C48.0 174.0 48.0 174.0 49.0 174.0 L151.0 174.0 C152.0 174.0 152.0 174.0 152.0 173.0 L152.0 79.0 C152.0 78.0 152.0 78.0 151.0 78.0 L49.0 78.0 L49.0 78.0 Z"></path>
<path fill="#334455" fill-opacity="1.0"  filling="0" d="M155.0 79.0 C155.0 77.0 153.0 75.0 151.0 75.0 L49.0 75.0 C47.0 75.0 45.0 77.0 45.0 79.0 L45.0 173.0 C45.0 175.0 47.0 177.0 49.0 177.0 L151.0 177.0 C153.0 177.0 155.0 175.0 155.0 173.0 L155.0 79.0 L155.0 79.0 Z"></path>
<path fill="#334455" fill-opacity="1.0"  filling="0" d="M151.0 181.0 L49.0 181.0 C45.0 181.0 42.0 177.0 42.0 173.0 L42.0 79.0 C42.0 75.0 45.0 71.0 49.0 71.0 L151.0 71.0 C155.0 71.0 159.0 75.0 159.0 79.0 L159.0 173.0 C159.0 177.0 155.0 181.0 151.0 181.0 L151.0 181.0 Z M49.0 78.0 C48.0 78.0 48.0 78.0 48.0 79.0 L48.0 173.0 C48.0 174.0 48.0 174.0 49.0 174.0 L151.0 174.0 C152.0 174.0 152.0 174.0 152.0 173.0 L152.0 79.0 C152.0 78.0 152.0 78.0 151.0 78.0 L49.0 78.0 L49.0 78.0 Z"></path>
<path fill="#334455" fill-opacity="1.0"  filling="0" d="M155.0 79.0 C155.0 77.0 153.0 75.0 151.0 75.0 L49.0 75.0 C47.0 75.0 45.0 77.0 45.0 79.0 L45.0 173.0 C45.0 175.0 47.0 177.0 49.0 177.0 L151.0 177.0 C153.0 177.0 155.0 175.0 155.0 173.0 L155.0 79.0 L155.0 79.0 Z"></path>
<path fill="#334455" fill-opacity="1.0"  filling="0" d="M151.0 181.0 L49.0 181.0 C45.0 181.0 42.0 177.0 42.0 173.0 L42.0 79.0 C42.0 75.0 45.0 71.0 49.0 71.0 L151.0 71.0 C155.0 71.0 159.0 75.0 159.0 79.0 L159.0 173.0 C159.0 177.0 155.0 181.0 151.0 181.0 L151.0 181.0 Z M49.0 78.0 C48.0 78.0 48.0 78.0 48.0 79.0 L48.0 173.0 C48.0 174.0 48.0 174.0 49.0 174.0 L151.0 174.0 C152.0 174.0 152.0 174.0 152.0 173.0 L152.0 79.0 C152.0 78.0 152.0 78.0 151.0 78.0 L49.0 78.0 L49.0 78.0 Z"></path>
<path fill="#ffee99" fill-opacity="1.0"  filling="0" d="M155.0 121.0 C155.0 123.0 153.0 125.0 151.0 125.0 L49.0 125.0 C47.0 125.0 45.0 123.0 45.0 121.0 L45.0 84.0 C45.0 82.0 47.0 80.0 49.0 80.0 L151.0 80.0 C153.0 80.0 155.0 82.0 155.0 84.0 L155.0 121.0 L155.0 121.0 Z"></path>
<path fill="#334455" fill-opacity="1.0"  filling="0" d="M151.0 128.0 L49.0 128.0 C45.0 128.0 42.0 125.0 42.0 121.0 L42.0 84.0 C42.0 80.0 45.0 77.0 49.0 77.0 L151.0 77.0 C155.0 77.0 159.0 80.0 159.0 84.0 L159.0 121.0 C159.0 125.0 155.0 128.0 151.0 128.0 L151.0 128.0 Z M49.0 83.0 C48.0 83.0 48.0 83.0 48.0 84.0 L48.0 121.0 C48.0 121.0 48.0 122.0 49.0 122.0 L151.0 122.0 C152.0 122.0 152.0 121.0 152.0 121.0 L152.0 84.0 C152.0 83.0 152.0 83.0 151.0 83.0 L49.0 83.0 L49.0 83.0 Z"></path>
<path fill="#ffee99" fill-opacity="1.0"  filling="0" d="M155.0 121.0 C155.0 123.0 153.0 125.0 151.0 125.0 L49.0 125.0 C47.0 125.0 45.0 123.0 45.0 121.0 L45.0 84.0 C45.0 82.0 47.0 80.0 49.0 80.0 L151.0 80.0 C153.0 80.0 155.0 82.0 155.0 84.0 L155.0 121.0 L155.0 121.0 Z"></path>
<path fill="#334455" fill-opacity="1.0"  filling="0" d="M151.0 128.0 L49.0 128.0 C45.0 128.0 42.0 125.0 42.0 121.0 L42.0 84.0 C42.0 80.0 45.0 77.0 49.0 77.0 L151.0 77.0 C155.0 77.0 159.0 80.0 159.0 84.0 L159.0 121.0 C159.0 125.0 155.0 128.0 151.0 128.0 L151.0 128.0 Z M49.0 83.0 C48.0 83.0 48.0 83.0 48.0 84.0 L48.0 121.0 C48.0 121.0 48.0 122.0 49.0 122.0 L151.0 122.0 C152.0 122.0 152.0 121.0 152.0 121.0 L152.0 84.0 C152.0 83.0 152.0 83.0 151.0 83.0 L49.0 83.0 L49.0 83.0 Z"></path>
<path fill="#ffee99" fill-opacity="1.0"  filling="0" d="M155.0 121.0 C155.0 123.0 153.0 125.0 151.0 125.0 L49.0 125.0 C47.0 125.0 45.0 123.0 45.0 121.0 L45.0 84.0 C45.0 82.0 47.0 80.0 49.0 80.0 L151.0 80.0 C153.0 80.0 155.0 82.0 155.0 84.0 L155.0 121.0 L155.0 121.0 Z"></path>
<path fill="#334455" fill-opacity="1.0"  filling="0" d="M151.0 128.0 L49.0 128.0 C45.0 128.0 42.0 125.0 42.0 121.0 L42.0 84.0 C42.0 80.0 45.0 77.0 49.0 77.0 L151.0 77.0 C155.0 77.0 159.0 80.0 159.0 84.0 L159.0 121.0 C159.0 125.0 155.0 128.0 151.0 128.0 L151.0 128.0 Z M49.0 83.0 C48.0 83.0 48.0 83.0 48.0 84.0 L48.0 121.0 C48.0 121.0 48.0 122.0 49.0 122.0 L151.0 122.0 C152.0 122.0 152.0 121.0 152.0 121.0 L152.0 84.0 C152.0 83.0 152.0 83.0 151.0 83.0 L49.0 83.0 L49.0 83.0 Z"></path>
<path fill="#ffee99" fill-opacity="1.0"  filling="0" d="M155.0 121.0 C155.0 123.0 153.0 125.0 151.0 125.0 L49.0 125.0 C47.0 125.0 45.0 123.0 45.0 121.0 L45.0 84.0 C45.0 82.0 47.0 80.0 49.0 80.0 L151.0 80.0 C153.0 80.0 155.0 82.0 155.0 84.0 L155.0 121.0 L155.0 121.0 Z"></path>
<path fill="#334455" fill-opacity="1.0"  filling="0" d="M151.0 128.0 L49.0 128.0 C45.0 128.0 42.0 125.0 42.0 121.0 L42.0 84.0 C42.0 80.0 45.0 77.0 49.0 77.0 L151.0 77.0 C155.0 77.0 159.0 80.0 159.0 84.0 L159.0 121.0 C159.0 125.0 155.0 128.0 151.0 128.0 L151.0 128.0 Z M49.0 83.0 C48.0 83.0 48.0 83.0 48.0 84.0 L48.0 121.0 C48.0 121.0 48.0 122.0 49.0 122.0 L151.0 122.0 C152.0 122.0 152.0 121.0 152.0 121.0 L152.0 84.0 C152.0 83.0 152.0 83.0 151.0 83.0 L49.0 83.0 L49.0 83.0 Z"></path>
<path fill="#ffee99" fill-opacity="1.0"  filling="0" d="M155.0 121.0 C155.0 123.0 153.0 125.0 151.0 125.0 L49.0 125.0 C47.0 125.0 45.0 123.0 45.0 121.0 L45.0 84.0 C45.0 82.0 47.0 80.0 49.0 80.0 L151.0 80.0 C153.0 80.0 155.0 82.0 155.0 84.0 L155.0 121.0 L155.0 121.0 Z"></path>
<path fill="#334455" fill-opacity="1.0"  filling="0" d="M151.0 128.0 L49.0 128.0 C45.0 128.0 42.0 125.0 42.0 121.0 L42.0 84.0 C42.0 80.0 45.0 77.0 49.0 77.0 L151.0 77.0 C155.0 77.0 159.0 80.0 159.0 84.0 L159.0 121.0 C159.0 125.0 155.0 128.0 151.0 128.0 L151.0 128.0 Z M49.0 83.0 C48.0 83.0 48.0 83.0 48.0 84.0 L48.0 121.0 C48.0 121.0 48.0 122.0 49.0 122.0 L151.0 122.0 C152.0 122.0 152.0 121.0 152.0 121.0 L152.0 84.0 C152.0 83.0 152.0 83.0 151.0 83.0 L49.0 83.0 L49.0 83.0 Z"></path>
<path fill="#ffee99" fill-opacity="1.0"  filling="0" d="M155.0 121.0 C155.0 123.0 153.0 125.0 151.0 125.0 L49.0 125.0 C47.0 125.0 45.0 123.0 45.0 121.0 L45.0 84.0 C45.0 82.0 47.0 80.0 49.0 80.0 L151.0 80.0 C153.0 80.0 155.0 82.0 155.0 84.0 L155.0 121.0 L155.0 121.0 Z"></path>
<path fill="#334455" fill-opacity="1.0"  filling="0" d="M151.0 128.0 L49.0 128.0 C45.0 128.0 42.0 125.0 42.0 121.0 L42.0 84.0 C42.0 80.0 45.0 77.0 49.0 77.0 L151.0 77.0 C155.0 77.0 159.0 80.0 159.0 84.0 L159.0 121.0 C159.0 125.0 155.0 128.0 151.0 128.0 L151.0 128.0 Z M49.0 83.0 C48.0 83.0 48.0 83.0 48.0 84.0 L48.0 121.0 C48.0 121.0 48.0 122.0 49.0 122.0 L151.0 122.0 C152.0 122.0 152.0 121.0 152.0 121.0 L152.0 84.0 C152.0 83.0 152.0 83.0 151.0 83.0 L49.0 83.0 L49.0 83.0 Z"></path>
<path fill="#ffee99" fill-opacity="1.0"  filling="0" d="M155.0 121.0 C155.0 123.0 153.0 125.0 151.0 125.0 L49.0 125.0 C47.0 125.0 45.0 123.0 45.0 121.0 L45.0 84.0 C45.0 82.0 47.0 80.0 49.0 80.0 L151.0 80.0 C153.0 80.0 155.0 82.0 155.0 84.0 L155.0 121.0 L155.0 121.0 Z"></path>
<path fill="#334455" fill-opacity="1.0"  filling="0" d="M151.0 128.0 L49.0 128.0 C45.0 128.0 42.0 125.0 42.0 121.0 L42.0 84.0 C42.0 80.0 45.0 77.0 49.0 77.0 L151.0 77.0 C155.0 77.0 159.0 80.0 159.0 84.0 L159.0 121.0 C159.0 125.0 155.0 128.0 151.0 128.0 L151.0 128.0 Z M49.0 83.0 C48.0 83.0 48.0 83.0 48.0 84.0 L48.0 121.0 C48.0 121.0 48.0 122.0 49.0 122.0 L151.0 122.0 C152.0 122.0 152.0 121.0 152.0 121.0 L152.0 84.0 C152.0 83.0 152.0 83.0 151.0 83.0 L49.0 83.0 L49.0 83.0 Z"></path>
<path fill="#ffee99" fill-opacity="1.0"  filling="0" d="M155.0 121.0 C155.0 123.0 153.0 125.0 151.0 125.0 L49.0 125.0 C47.0 125.0 45.0 123.0 45.0 121.0 L45.0 84.0 C45.0 82.0 47.0 80.0 49.0 80.0 L151.0 80.0 C153.0 80.0 155.0 82.0 155.0 84.0 L155.0 121.0 L155.0 121.0 Z"></path>
<path fill="#334455" fill-opacity="1.0"  filling="0" d="M151.0 128.0 L49.0 128.0 C45.0 128.0 42.0 125.0 42.0 121.0 L42.0 84.0 C42.0 80.0 45.0 77.0 49.0 77.0 L151.0 77.0 C155.0 77.0 159.0 80.0 159.0 84.0 L159.0 121.0 C159.0 125.0 155.0 128.0 151.0 128.0 L151.0 128.0 Z M49.0 83.0 C48.0 83.0 48.0 83.0 48.0 84.0 L48.0 121.0 C48.0 121.0 48.0 122.0 49.0 122.0 L151.0 122.0 C152.0 122.0 152.0 121.0 152.0 121.0 L152.0 84.0 C152.0 83.0 152.0 83.0 151.0 83.0 L49.0 83.0 L49.0 83.0 Z"></path>
<path fill="#000000" fill-opacity="1.0"  filling="0" d="M155.0 121.0 C155.0 123.0 153.0 125.0 151.0 125.0 L49.0 125.0 C47.0 125.0 45.0 123.0 45.0 121.0 L45.0 84.0"></path></svg>