<svg xmlns="http://www.w3.org/2000/svg" viewBox="0.0 0.0 200.0 200.0" height="200px" width="200px"><path fill="#000000" fill-opacity="1.0"  filling="0" d="M165.0 177.0 C165.0 180.0 141.0 49.0 -3.0 -3.0 C161.0 82.0 165.0 77.0 169.0 72.0 C169.0 72.0 169.0 72.0 169.0 72.0 C169.0 72.0 169.0 72.0 169.0 72.0 C169.0 72.0 169.0 72.0 169.0 72.0 C169.0 72.0 169.0 72.0 169.0 72.0 C169.0 72.0 169.0 72.0 169.0 72.0 C169.0 72.0 170.0 72.0 170.0 72.0 C170.0 72.0 170.0 72.0 170.0 72.0 C170.0 72.0 170.0 72.0 170.0 72.0 C170.0 72.0 170.0 72.0 170.0 72.0 C170.0 72.0 170.0 72.0 170.0 72.0 C170.0 72.0 170.0 72.0 170.0 72.0 C170.0 72.0 170.0 72.0 170.0 72.0 C170.0 72.0 170.0 72.0 170.0 72.0 C170.0 72.0 170.0 72.0 170.0 72.0 C170.0 72.0 170.0 72.0 170.0 72.0 C170.0 72.0 170.0 72.0 170.0 72.0 C170.0 72.0 171.0 72.0 171.0 72.0 C171.0 72.0 171.0 72.0 171.0 72.0 C171.0 72.0 171.0 72.0 171.0 72.0 C171.0 72.0 171.0 72.0 171.0 72.0 C171.0 72.0 171.0 72.0 171.0 72.0 C171.0 72.0 171.0 72.0 171.0 72.0 C171.0 72.0 171.0 72.0 171.0 72.0 C171.0 72.0 171.0 72.0 171.0 72.0 C171.0 72.0 171.0 72.0 171.0 72.0 C171.0 72.0 171.0 72.0 171.0 72.0 C171.0 72.0 171.0 72.0 171.0 72.0 C172.0 72.0 172.0 72.0 172.0 72.0 C172.0 72.0 172.0 72.0 172.0 72.0 C172.0 72.0 172.0 72.0 172.0 72.0 C172.0 72.0 172.0 72.0 172.0 72.0 C172.0 72.0 172.0 72.0 172.0 72.0 C172.0 72.0 172.0 72.0 172.0 72.0 C172.0 72.0 172.0 72.0 172.0 72.0 C172.0 72.0 172.0 72.0 172.0 72.0 C172.0 72.0 172.0 72.0 172.0 72.0 C172.0 72.0 172.0 72.0 172.0 72.0 C173.0 72.0 173.0 72.0 173.0 72.0 C173.0 72.0 173.0 72.0 173.0 72.0 C173.0 72.0 173.0 72.0 173.0 72.0 C173.0 72.0 173.0 72.0 173.0 72.0 C173.0 72.0 173.0 72.0 173.0 72.0 C173.0 72.0 173.0 72.0 173.0 72.0 C173.0 72.0 173.0 72.0 173.0 72.0 C173.0 72.0 173.0 72.0 173.0 72.0 C173.0 72.0 173.0 72.0 173.0 72.0 C173.0 72.0 173.0 72.0 173.0 72.0 C173.0 72.0 173.0 72.0 173.0 72.0 C173.0 72.0 173.0 72.0 173.0 72.0 C173.0 72.0 173.0 72.0 173.0 72.0 C173.0 72.0 173.0 72.0 173.0 72.0 C173.0 72.0 173.0 72.0 173.0 72.0 C173.0 72.0 173.0 72.0 173.0 72.0 C173.0 72.0 174.0 72.0 174.0 72.0 C174.0 72.0 174.0 72.0 174.0 72.0 C174.0 72.0 174.0 72.0 174.0 72.0 C174.0 72.0 174.0 72.0 174.0 72.0 C174.0 72.0 174.0 72.0 174.0 72.0 C174.0 72.0 174.0 72.0 174.0 72.0 C174.0 72.0 174.0 72.0 174.0 72.0 C174.0 72.0 174.0 72.0 174.0 72.0 C174.0 72.0 174.0 72.0 174.0 72.0 C174.0 72.0 174.0 72.0 174.0 72.0 C174.0 72.0 174.0 72.0 174.0 72.0 C174.0 72.0 174.0 72.0 174.0 72.0 C174.0 72.0 174.0 72.0 174.0 72.0 C174.0 72.0 174.0 72.0 174.0 72.0 C174.0 72.0 174.0 72.0 174.0 72.0 C174.0 72.0 174.0 72.0 174.0 72.0 C174.0 72.0 174.0 72.0 174.0 72.0 C174.0 72.0 174.0 72.0 174.0 72.0 C174.0 72.0 174.0 72.0 174.0 72.0 C174.0 72.0 174.0 72.0 174.0 72.0 C174.0 72.0 174.0 72.0 174.0 72.0 C174.0 72.0 174.0 72.0 174.0 72.0 C174.0 72.0 174.0 72.0 174.0 72.0 C174.0 72.0 174.0 72.0 174.0 72.0 C174.0 72.0 174.0 72.0 174.0 72.0 C174.0 72.0 174.0 72.0 174.0 72.0 C174.0 72.0 174.0 72.0 174.0 72.0 C174.0 72.0 174.0 72.0 174.0 72.0 C174.0 72.0 174.0 72.0 174.0 72.0 C174.0 72.0 174.0 72.0 174.0 72.0 C174.0 72.0 174.0 72.0 174.0 72.0 C174.0 72.0 174.0 72.0 174.0 72.0 C174.0 72.0 174.0 72.0 174.0 72.0 C174.0 72.0 174.0 72.0 174.0 72.0 C174.0 72.0 174.0 72.0 174.0 72.0 C174.0 72.0 174.0 72.0 174.0 72.0 C174.0 72.0 174.0 72.0 174.0 72.0 C174.0 72.0 174.0 72.0 174.0 72.0 C174.0 72.0 174.0 72.0 174.0 72.0 C174.0 72.0 174.0 72.0 174.0 72.0 C174.0 72.0 174.0 72.0 174.0 72.0 C174.0 72.0 174.0 72.0 174.0 72.0 C174.0 72.0 174.0 72.0 174.0 72.0 C174.0 72.0 174.0 72.0 174.0 72.0 C174.0 72.0 174.0 72.0 174.0 72.0 C174.0 72.0 174.0 72.0 174.0 72.0 C174.0 72.0 174.0 72.0 174.0 72.0 C174.0 72.0 174.0 72.0 174.0 72.0 C174.0 72.0 174.0 72.0 174.0 72.0 C174.0 72.0 174.0 72.0 174.0 72.0 C174.0 72.0 174.0 72.0 174.0 72.0 C174.0 72.0 174.0 72.0 174.0 72.0 C174.0 72.0 174.0 72.0 174.0 72.0 C174.0 72.0 174.0 72.0 174.0 72.0 C174.0 72.0 174.0 72.0 174.0 72.0 C174.0 72.0 174.0 72.0 174.0 72.0 C174.0 72.0 174.0 72.0 174.0 72.0 C174.0 72.0 174.0 72.0 174.0 72.0 C174.0 72.0 174.0 72.0 174.0 72.0 C174.0 72.0 174.0 72.0 174.0 72.0 C174.0 72.0 174.0 72.0 174.0 72.0 C174.0 72.0 174.0 72.0 174.0 72.0 C174.0 72.0 174.0 72.0 174.0 72.0 C174.0 72.0 174.0 72.0 174.0 72.0 C174.0 72.0 174.0 72.0 174.0 72.0 C174.0 72.0 174.0 72.0 174.0 72.0 C174.0 72.0 174.0 72.0 174.0 72.0 C174.0 72.0 174.0 72.0 174.0 72.0 C174.0 72.0 174.0 72.0 174.0 72.0 C174.0 72.0 174.0 72.0 174.0 72.0 C174.0 72.0 174.0 72.0 174.0 72.0 C174.0 72.0 174.0 72.0 174.0 72.0 C174.0 72.0 174.0 72.0 174.0 72.0 C174.0 72.0 174.0 72.0 174.0 72.0 C174.0 72.0 174.0 72.0 174.0 72.0 C174.0 72.0 174.0 72.0 174.0 72.0 C174.0 72.0 174.0 72.0 174.0 72.0 C174.0 72.0 174.0 72.0 174.0 72.0 C174.0 72.0 174.0 72.0 174.0 72.0 C174.0 72.0 174.0 72.0 174.0 72.0 C174.0 72.0 174.0 72.0 174.0 72.0 C174.0 72.0 174.0 72.0 174.0 72.0 C174.0 72.0 174.0 72.0 174.0 72.0 C174.0 72.0 174.0 72.0 174.0 72.0 C174.0 72.0 174.0 72.0 174.0 72.0 C174.0 72.0 174.0 72.0 174.0 72.0 C174.0 72.0 174.0 72.0 174.0 72.0 C174.0 72.0 174.0 72.0 174.0 72.0 C174.0 72.0 174.0 72.0 174.0 72.0 C174.0 72.0 174.0 72.0 174.0 72.0 C174.0 72.0 174.0 72.0 174.0 72.0 C174.0 72.0 174.0 72.0 174.0 72.0 C174.0 72.0 174.0 72.0 174.0 72.0 C174.0 72.0 174.0 72.0 174.0 72.0 C174.0 72.0 174.0 72.0 174.0 72.0 C174.0 72.0 174.0 72.0 174.0 72.0 C174.0 72.0 174.0 72.0 174.0 72.0 C174.0 72.0 174.0 72.0 174.0 72.0 C174.0 72.0 174.0 72.0 174.0 72.0 C174.0 72.0 174.0 72.0 174.0 72.0 C174.0 72.0 174.0 72.0 174.0 72.0 C174.0 72.0 174.0 72.0 174.0 72.0 C174.0 72.0 174.0 72.0 174.0 72.0 C174.0 72.0 174.0 72.0 174.0 72.0 C174.0 72.0 174.0 72.0 174.0 72.0 C174.0 72.0 174.0 72.0 174.0 72.0 C174.0 72.0 174.0 72.0 174.0 72.0 C174.0 72.0 174.0 72.0 174.0 72.0 C174.0 72.0 174.0 72.0 174.0 72.0 C174.0 72.0 174.0 72.0 174.0 72.0 C174.0 72.0 174.0 72.0 174.0 72.0 C174.0 72.0 174.0 72.0 174.0 72.0 C174.0 72.0 174.0 72.0 174.0 72.0 C174.0 72.0 174.0 72.0 174.0 72.0 C174.0 72.0 174.0 72.0 174.0 72.0 C174.0 72.0 174.0 72.0 174.0 72.0 C174.0 72.0 174.0 72.0 174.0 72.0 C174.0 72.0 174.0 72.0 174.0 72.0 C174.0 72.0 174.0 72.0 174.0 72.0 C174.0 72.0 174.0 72.0 174.0 72.0 C174.0 72.0 174.0 72.0 174.0 72.0 C174.0 72.0 174.0 72.0 174.0 72.0 C174.0 72.0 174.0 72.0 174.0 72.0 C174.0 72.0 174.0 72.0 174.0 72.0 C174.0 72.0 174.0 72.0 174.0 72.0 C174.0 72.0 174.0 72.0 174.0 72.0 C174.0 72.0 174.0 72.0 174.0 72.0 C174.0 72.0 174.0 72.0 174.0 72.0 C174.0 72.0 174.0 72.0 174.0 72.0 C174.0 72.0 174.0 72.0 174.0 72.0 C174.0 72.0 174.0 72.0 174.0 72.0 C174.0 72.0 174.0 72.0 174.0 72.0 C174.0 72.0 174.0 72.0 174.0 72.0 C174.0 72.0 174.0 72.0 174.0 72.0 C174.0 72.0 174.0 72.0 174.0 72.0 C174.0 72.0 174.0 72.0 174.0 72.0 C174.0 72.0 174.0 72.0 174.0 72.0 C174.0 72.0 174.0 72.0 174.0 72.0 C174.0 72.0 174.0 72.0 174.0 72.0 C174.0 72.0 174.0 72.0 174.0 72.0 C174.0 72.0 174.0 72.0 174.0 72.0 C174.0 72.0 174.0 72.0 174.0 72.0 C174.0 72.0 174.0 72.0 174.0 72.0 C174.0 72.0 174.0 72.0 174.0 72.0 C174.0 72.0 174.0 72.0 174.0 72.0 C174.0 72.0 174.0 72.0 174.0 72.0 C174.0 72.0 174.0 72.0 174.0 72.0 C174.0 72.0 174.0 72.0 174.0 72.0 C174.0 72.0 174.0 72.0 174.0 72.0 C174.0 72.0 174.0 72.0 174.0 72.0 C174.0 72.0 174.0 72.0 174.0 72.0 C174.0 72.0 174.0 72.0 174.0 72.0 C174.0 72.0 174.0 72.0 174.0 72.0 C174.0 72.0 174.0 72.0 174.0 72.0 C174.0 72.0 174.0 72.0 174.0 72.0 C174.0 72.0 174.0 72.0 174.0 72.0 C174.0 72.0 174.0 72.0 174.0 72.0 C174.0 72.0 174.0 72.0 174.0 72.0 C174.0 72.0 174.0 72.0 174.0 72.0 C174.0 72.0 174.0 72.0 174.0 72.0 C174.0 72.0 174.0 72.0 174.0 72.0 C174.0 72.0 174.0 72.0 174.0 72.0 C174.0 72.0 174.0 72.0 174.0 72.0 C174.0 72.0 174.0 72.0 174.0 72.0 C174.0 72.0 174.0 72.0 174.0 72.0 C174.0 72.0 174.0 72.0 174.0 72.0 C174.0 72.0 174.0 72.0 174.0 72.0 C174.0 72.0 174.0 72.0 174.0 72.0 C174.0 72.0 174.0 72.0 174.0 72.0 C174.0 72.0 174.0 72.0 174.0 72.0 C174.0 72.0 174.0 72.0 174.0 72.0 C174.0 72.0 174.0 72.0 174.0 72.0 C174.0 72.0 174.0 72.0 174.0 72.0 C174.0 72.0 174.0 72.0 174.0 72.0 C174.0 72.0 174.0 72.0 174.0 72.0 C174.0 72.0 174.0 72.0 174.0 72.0 C174.0 72.0 174.0 72.0 174.0 72.0 C174.0 72.0 174.0 72.0 174.0 72.0 C174.0 72.0 174.0 72.0 174.0 72.0 C174.0 72.0 174.0 72.0 174.0 72.0 C174.0 72.0 174.0 72.0 174.0 72.0 C174.0 72.0 174.0 72.0 174.0 72.0 C174.0 72.0 174.0 72.0 174.0 72.0 C174.0 72.0 174.0 72.0 174.0 72.0 C174.0 72.0 174.0 72.0 174.0 72.0 C174.0 72.0 174.0 72.0 174.0 72.0 C174.0 72.0 174.0 72.0 174.0 72.0 C174.0 72.0 174.0 72.0 174.0 72.0 C174.0 72.0 174.0 72.0 174.0 72.0 C174.0 72.0 174.0 72.0 174.0 72.0 C174.0 72.0 174.0 72.0 174.0 72.0 C174.0 72.0 174.0 72.0 174.0 72.0 C174.0 72.0 174.0 72.0 174.0 72.0 C174.0 72.0 174.0 72.0 174.0 72.0 C174.0 72.0 174.0 72.0 174.0 72.0 C174.0 72.0 174.0 72.0 174.0 72.0 C174.0 72.0 174.0 72.0 174.0 72.0 C174.0 72.0 174.0 72.0 174.0 72.0 C174.0 72.0 174.0 72.0 174.0 72.0 C174.0 72.0 174.0 72.0 174.0 72.0 C174.0 72.0 174.0 72.0 174.0 72.0 C174.0 72.0 174.0 72.0 174.0 72.0 C174.0 72.0 174.0 72.0 174.0 72.0 C174.0 72.0 174.0 72.0 174.0 72.0 C174.0 72.0 174.0 72.0 174.0 72.0 C174.0 72.0 174.0 72.0 174.0 72.0 C174.0 72.0 174.0 72.0 174.0 72.0 C174.0 72.0 174.0 72.0 174.0 72.0 C174.0 72.0 174.0 72.0 174.0 72.0 C174.0 72.0 174.0 72.0 174.0 72.0 C174.0 72.0 174.0 72.0 174.0 72.0 C174.0 72.0 174.0 72.0 174.0 72.0 C174.0 72.0 174.0 72.0 174.0 72.0 C174.0 72.0 174.0 72.0 174.0 72.0 C174.0 72.0 174.0 72.0 174.0 72.0 C174.0 72.0 174.0 72.0 174.0 72.0 C174.0 72.0 174.0 72.0 174.0 72.0 C174.0 72.0 174.0 72.0 174.0 72.0 C174.0 72.0 174.0 72.0 174.0 72.0 C174.0 72.0 174.0 72.0 174.0 72.0 C174.0 72.0 174.0 72.0 174.0 72.0 C174.0 72.0 174.0 72.0 174.0 72.0 C174.0 72.0 174.0 72.0 174.0 72.0 C174.0 72.0 174.0 72.0 174.0 72.0 C174.0 72.0 174.0 72.0 174.0 72.0 C174.0 72.0 174.0 72.0 174.0 72.0 C174.0 72.0 174.0 72.0 174.0 72.0 C174.0 72.0 174.0 72.0 174.0 72.0 C174.0 72.0 174.0 72.0 174.0 72.0 C174.0 72.0 174.0 72.0 174.0 72.0 C174.0 72.0 174.0 72.0 174.0 72.0 C174.0 72.0 174.0 72.0 174.0 72.0 C174.0 72.0 174.0 72.0 174.0 72.0 C174.0 72.0 174.0 72.0 174.0 72.0 C174.0 72.0 174.0 72.0 174.0 72.0 C174.0 72.0 174.0 72.0 174.0 72.0 C174.0 72.0 174.0 72.0 174.0 72.0 C174.0 72.0 174.0 72.0 174.0 72.0 C174.0 72.0 174.0 72.0 174.0 72.0 C174.0 72.0 174.0 72.0 174.0 72.0 C174.0 72.0 174.0 72.0 174.0 72.0 C174.0 72.0 174.0 72.0 174.0 72.0 C174.0 72.0 174.0 72.0 174.0 72.0 C174.0 72.0 174.0 72.0 174.0 72.0 C174.0 72.0 174.0 72.0 174.0 72.0 C174.0 72.0 174.0 72.0 174.0 72.0 C174.0 72.0 174.0 72.0 174.0 72.0 C174.0 72.0 174.0 72.0 174.0 72.0 C174.0 72.0 174.0 72.0 174.0 72.0 C174.0 72.0 174.0 72.0 174.0 72.0 C174.0 72.0 174.0 72.0 174.0 72.0 C174.0 72.0 174.0 72.0 174.0 72.0 C174.0 72.0 174.0 72.0 174.0 72.0 C174.0 72.0 174.0 72.0 174.0 72.0 C174.0 72.0 174.0 72.0 174.0 72.0 C174.0 72.0 174.0 72.0 174.0 72.0 C174.0 72.0 174.0 72.0 174.0 72.0 C174.0 72.0 174.0 72.0 174.0 72.0 C174.0 72.0 174.0 72.0 174.0 72.0 C174.0 72.0 174.0 72.0 174.0 72.0 C174.0 72.0 174.0 72.0 174.0 72.0 C174.0 72.0 174.0 72.0 174.0 72.0 C174.0 72.0 174.0 72.0 174.0 72.0 C174.0 72.0 174.0 72.0 174.0 72.0 C174.0 72.0 174.0 72.0 174.0 72.0 C174.0 72.0 174.0 72.0 174.0 72.0 C174.0 72.0 174.0 72.0 174.0 72.0 C174.0 72.0 174.0 72.0 174.0 72.0 C174.0 72.0 174.0 72.0 174.0 72.0 C174.0 72.0 174.0 72.0 174.0 72.0 C174.0 72.0 174.0 72.0 174.0 72.0 C174.0 72.0 174.0 72.0 174.0 72.0 C174.0 72.0 174.0 72.0 174.0 72.0 C174.0 72.0 174.0 72.0 174.0 72.0 C174.0 72.0 174.0 72.0 174.0 72.0 C174.0 72.0 174.0 72.0 174.0 72.0 C174.0 72.0 174.0 72.0 174.0 72.0 C174.0 72.0 174.0 72.0 174.0 72.0 C174.0 72.0 174.0 72.0 174.0 72.0 C174.0 72.0 174.0 72.0 174.0 72.0 C174.0 72.0 174.0 72.0 174.0 72.0 C174.0 72.0 174.0 72.0 174.0 72.0 C174.0 72.0 174.0 72.0 174.0 72.0 C174.0 72.0 174.0 72.0 174.0 72.0 C174.0 72.0 174.0 72.0 174.0 72.0 C174.0 72.0 174.0 72.0 174.0 72.0 C174.0 72.0 174.0 72.0 174.0 72.0 C174.0 72.0 174.0 72.0 174.0 72.0 C174.0 72.0 174.0 72.0 174.0 72.0 C174.0 72.0 174.0 72.0 174.0 72.0 C174.0 72.0 174.0 72.0 174.0 72.0 C174.0 72.0 174.0 72.0 174.0 72.0 C174.0 72.0 174.0 72.0 174.0 72.0 C174.0 72.0 174.0 72.0 174.0 72.0 C174.0 72.0 174.0 72.0 174.0 72.0 C174.0 72.0 174.0 72.0 174.0 72.0 C174.0 72.0 174.0 72.0 174.0 72.0 C174.0 72.0 174.0 72.0 174.0 72.0 C174.0 72.0 174.0 72.0 174.0 72.0 C174.0 72.0 174.0 72.0 174.0 72.0 C174.0 72.0 174.0 72.0 174.0 72.0 C174.0 72.0 174.0 72.0 174.0 72.0 C174.0 72.0 174.0 72.0 174.0 72.0 C174.0 72.0 174.0 72.0 174.0 72.0 C174.0 72.0 174.0 72.0 174.0 72.0 C174.0 72.0 174.0 72.0 174.0 72.0 C174.0 72.0 174.0 72.0 174.0 72.0 C174.0 72.0 174.0 72.0 174.0 72.0 C174.0 72.0 174.0 72.0 174.0 72.0 C174.0 72.0 174.0 72.0 174.0 72.0 C174.0 72.0 174.0 72.0 174.0 72.0 C174.0 72.0 174.0 72.0 174.0 72.0 C174.0 72.0 174.0 72.0 174.0 72.0 C174.0 72.0 174.0 72.0 174.0 72.0 C174.0 72.0 174.0 72.0 174.0 72.0 C174.0 72.0 174.0 72.0 174.0 72.0 C174.0 72.0 174.0 72.0 174.0 72.0 C174.0 72.0 174.0 72.0 174.0 72.0 C174.0 72.0 174.0 72.0 174.0 72.0 C174.0 72.0 174.0 72.0 174.0 72.0 C174.0 72.0 174.0 72.0 174.0 72.0 C174.0 72.0 174.0 72.0 174.0 72.0 C174.0 72.0 174.0 72.0 174.0 72.0 C174.0 72.0 174.0 72.0 174.0 72.0 C174.0 72.0 174.0 72.0 174.0 72.0 C174.0 72.0 174.0 72.0 174.0 72.0"></path></svg>