<svg xmlns="http://www.w3.org/2000/svg" viewBox="0.0 0.0 200.0 200.0" height="200px" width="200px"><path fill="#ffbb66" fill-opacity="1.0"  filling="0" d="M53.0 96.0 A47.0 47.0 0.0 1 0 147.0 96.0 A47.0 47.0 0.0 1 0 53.0 96.0 L53.0 96.0 Z"></path>
<path fill="#eeaa44" fill-opacity="1.0"  filling="0" d="M147.0 96.0 C147.0 122.0 126.0 143.0 100.0 143.0 L100.0 57.0 C126.0 57.0 147.0 78.0 147.0 96.0 L147.0 96.0 Z"></path>
<path fill="#553333" fill-opacity="1.0"  filling="0" d="M100.0 146.0 C73.0 146.0 51.0 124.0 51.0 96.0 C51.0 68.0 73.0 46.0 100.0 46.0 C127.0 46.0 149.0 68.0 149.0 96.0 C149.0 124.0 127.0 146.0 100.0 146.0 L100.0 146.0 Z M100.0 51.0 C76.0 51.0 55.0 71.0 55.0 96.0 C55.0 121.0 76.0 142.0 100.0 142.0 C124.0 142.0 145.0 121.0 145.0 96.0 C145.0 71.0 124.0 51.0 100.0 51.0 L100.0 51.0 Z"></path>
<path fill="#553333" fill-opacity="1.0"  filling="0" d="M100.0 146.0 C73.0 146.0 51.0 124.0 51.0 96.0 C51.0 68.0 73.0 46.0 100.0 46.0 C127.0 46.0 149.0 68.0 149.0 96.0 C149.0 124.0 127.0 146.0 100.0 146.0 L100.0 146.0 Z M100.0 51.0 C76.0 51.0 55.0 71.0 55.0 96.0 C55.0 121.0 76.0 142.0 100.0 142.0 C124.0 142.0 145.0 121.0 145.0 96.0 C145.0 71.0 124.0 51.0 100.0 51.0 L100.0 51.0 Z"></path>
<path fill="#553333" fill-opacity="1.0"  filling="0" d="M100.0 146.0 C73.0 146.0 51.0 124.0 51.0 96.0 C51.0 68.0 73.0 46.0 100.0 46.0 C127.0 46.0 149.0 68.0 149.0 96.0 C149.0 124.0 127.0 146.0 100.0 146.0 L100.0 146.0 Z M100.0 51.0 C76.0 51.0 55.0 71.0 55.0 96.0 C55.0 121.0 76.0 142.0 100.0 142.0 C124.0 142.0 145.0 121.0 145.0 96.0 C145.0 71.0 124.0 51.0 100.0 51.0 L100.0 51.0 Z"></path>
<path fill="#553333" fill-opacity="1.0"  filling="0" d="M100.0 146.0 C73.0 146.0 51.0 124.0 51.0 96.0 C51.0 68.0 73.0 46.0 100.0 46.0 C127.0 46.0 149.0 68.0 149.0 96.0 C149.0 124.0 127.0 146.0 100.0 146.0 L100.0 146.0 Z M100.0 51.0 C76.0 51.0 55.0 71.0 55.0 96.0 C55.0 121.0 76.0 142.0 100.0 142.0 C124.0 142.0 145.0 121.0 145.0 96.0 C145.0 71.0 124.0 51.0 100.0 51.0 L100.0 51.0 Z"></path>
<path fill="#553333" fill-opacity="1.0"  filling="0" d="M100.0 146.0 C73.0 146.0 51.0 124.0 51.0 96.0 C51.0 68.0 73.0 46.0 100.0 46.0 C127.0 46.0 149.0 68.0 149.0 96.0 C149.0 124.0 127.0 146.0 100.0 146.0 L100.0 146.0 Z M100.0 51.0 C76.0 51.0 55.0 71.0 55.0 96.0 C55.0 121.0 76.0 142.0 100.0 142.0 C124.0 142.0 145.0 121.0 145.0 96.0 C145.0 71.0 124.0 51.0 100.0 51.0 L100.0 51.0 Z"></path>
<path fill="#553333" fill-opacity="1.0"  filling="0" d="M100.0 146.0 C73.0 146.0 51.0 124.0 51.0 96.0 C51.0 68.0 73.0 46.0 100.0 46.0 C127.0 46.0 149.0 68.0 149.0 96.0 C149.0 124.0 127.0 146.0 100.0 146.0 L100.0 146.0 Z M100.0 51.0 C76.0 51.0 55.0 71.0 55.0 96.0 C55.0 121.0 76.0 142.0 100.0 142.0 C124.0 142.0 145.0 121.0 145.0 96.0 C145.0 71.0 124.0 51.0 100.0 51.0 L100.0 51.0 Z"></path>
<path fill="#553333" fill-opacity="1.0"  filling="0" d="M100.0 146.0 C73.0 146.0 51.0 124.0 51.0 96.0 C51.0 68.0 73.0 46.0 100.0 46.0 C127.0 46.0 149.0 68.0 149.0 96.0 C149.0 124.0 127.0 146.0 100.0 146.0 L100.0 146.0 Z M100.0 51.0 C76.0 51.0 55.0 71.0 55.0 96.0 C55.0 121.0 76.0 142.0 100.0 142.0 C124.0 142.0 145.0 121.0 145.0 96.0 C145.0 71.0 124.0 51.0 100.0 51.0 L100.0 51.0 Z"></path>
<path fill="#553333" fill-opacity="1.0"  filling="0" d="M100.0 146.0 C73.0 146.0 51.0 124.0 51.0 96.0 C51.0 68.0 73.0 46.0 100.0 46.0 C127.0 46.0 149.0 68.0 149.0 96.0 C149.0 124.0 127.0 146.0 100.0 146.0 L100.0 146.0 Z M100.0 51.0 C76.0 51.0 55.0 71.0 55.0 96.0 C55.0 121.0 76.0 142.0 100.0 142.0 C124.0 142.0 145.0 121.0 145.0 96.0 C145.0 71.0 124.0 51.0 100.0 51.0 L100.0 51.0 Z"></path>
<path fill="#553333" fill-opacity="1.0"  filling="0" d="M100.0 146.0 C73.0 146.0 51.0 124.0 51.0 96.0 C51.0 68.0 73.0 46.0 100.0 46.0 C127.0 46.0 149.0 68.0 149.0 96.0 C149.0 124.0 127.0 146.0 100.0 146.0 L100.0 146.0 Z M100.0 51.0 C76.0 51.0 55.0 71.0 55.0 96.0 C55.0 121.0 76.0 142.0 100.0 142.0 C124.0 142.0 145.0 121.0 145.0 96.0 C145.0 71.0 124.0 51.0 100.0 51.0 L100.0 51.0 Z"></path>
<path fill="#553333" fill-opacity="1.0"  filling="0" d="M100.0 146.0 C73.0 146.0 51.0 124.0 51.0 96.0 C51.0 68.0 73.0 46.0 100.0 46.0 C127.0 46.0 149.0 68.0 149.0 96.0 C149.0 124.0 127.0 146.0 100.0 146.0 L100.0 146.0 Z M100.0 51.0 C76.0 51.0 55.0 71.0 55.0 96.0 C55.0 121.0 76.0 142.0 100.0 142.0 C124.0 142.0 145.0 121.0 145.0 96.0 C145.0 71.0 124.0 51.0 100.0 51.0 L100.0 51.0 Z"></path>
<path fill="#553333" fill-opacity="1.0"  filling="0" d="M100.0 146.0 C73.0 146.0 51.0 124.0 51.0 96.0 C51.0 68.0 73.0 46.0 100.0 46.0 C127.0 46.0 149.0 68.0 149.0 96.0 C149.0 124.0 127.0 146.0 100.0 146.0 L100.0 146.0 Z M100.0 51.0 C76.0 51.0 55.0 71.0 55.0 96.0 C55.0 121.0 76.0 142.0 100.0 142.0 C124.0 142.0 145.0 121.0 145.0 96.0 C145.0 71.0 124.0 51.0 100.0 51.0 L100.0 51.0 Z"></path>
<path fill="#553333" fill-opacity="1.0"  filling="0" d="M100.0 146.0 C73.0 146.0 51.0 124.0 51.0 96.0 C51.0 68.0 73.0 46.0 100.0 46.0 C127.0 46.0 149.0 68.0 149.0 96.0 C149.0 124.0 127.0 146.0 100.0 146.0 L100.0 146.0 Z M100.0 51.0 C76.0 51.0 55.0 71.0 55.0 96.0 C55.0 121.0 76.0 142.0 100.0 142.0 C124.0 142.0 145.0 121.0 145.0 96.0 C145.0 71.0 124.0 51.0 100.0 51.0 L100.0 51.0 Z"></path>
<path fill="#553333" fill-opacity="1.0"  filling="0" d="M100.0 146.0 C73.0 146.0 51.0 124.0 51.0 96.0 C51.0 68.0 73.0 46.0 100.0 46.0 C127.0 46.0 149.0 68.0 149.0 96.0 C149.0 124.0 127.0 146.0 100.0 146.0 L100.0 146.0 Z M100.0 51.0 C76.0 51.0 55.0 71.0 55.0 96.0 C55.0 121.0 76.0 142.0 100.0 142.0 C124.0 142.0 145.0 121.0 145.0 96.0 C145.0 71.0 124.0 51.0 100.0 51.0 L100.0 51.0 Z"></path>
<path fill="#553333" fill-opacity="1.0"  filling="0" d="M100.0 146.0 C73.0 146.0 51.0 124.0 51.0 96.0 C51.0 68.0 73.0 46.0 100.0 46.0 C127.0 46.0 149.0 68.0 149.0 96.0 C149.0 124.0 127.0 146.0 100.0 146.0 L100.0 146.0 Z M100.0 51.0 C76.0 51.0 55.0 71.0 55.0 96.0 C55.0 121.0 76.0 142.0 100.0 142.0 C124.0 142.0 145.0 121.0 145.0 96.0 C145.0 71.0 124.0 51.0 100.0 51.0 L100.0 51.0 Z"></path>
<path fill="#553333" fill-opacity="1.0"  filling="0" d="M100.0 146.0 C73.0 146.0 51.0 124.0 51.0 96.0 C51.0 68.0 73.0 46.0 100.0 46.0 C127.0 46.0 149.0 68.0 149.0 96.0 C149.0 124.0 127.0 146.0 100.0 146.0 L100.0 146.0 Z M100.0 51.0 C76.0 51.0 55.0 71.0 55.0 96.0 C55.0 121.0 76.0 142.0 100.0 142.0 C124.0 142.0 145.0 121.0 145.0 96.0 C145.0 71.0 124.0 51.0 100.0 51.0 L100.0 51.0 Z"></path>
<path fill="#553333" fill-opacity="1.0"  filling="0" d="M100.0 146.0 C73.0 146.0 51.0 124.0 51.0 96.0 C51.0 68.0 73.0 46.0 100.0 46.0 C127.0 46.0 149.0 68.0 149.0 96.0 C149.0 124.0 127.0 146.0 100.0 146.0 L100.0 146.0 Z M100.0 51.0 C76.0 51.0 55.0 71.0 55.0 96.0 C55.0 121.0 76.0 142.0 100.0 142.0 C124.0 142.0 145.0 121.0 145.0 96.0 C145.0 71.0 124.0 51.0 100.0 51.0 L100.0 51.0 Z"></path>
<path fill="#553333" fill-opacity="1.0"  filling="0" d="M100.0 146.0 C73.0 146.0 51.0 124.0 51.0 96.0 C51.0 68.0 73.0 46.0 100.0 46.0 C127.0 46.0 149.0 68.0 149.0 96.0 C149.0 124.0 127.0 146.0 100.0 146.0 L100.0 146.0 Z M100.0 51.0 C76.0 51.0 55.0 71.0 55.0 96.0 C55.0 121.0 76.0 142.0 100.0 142.0 C124.0 142.0 145.0 121.0 145.0 96.0 C145.0 71.0 124.0 51.0 100.0 51.0 L100.0 51.0 Z"></path>
<path fill="#553333" fill-opacity="1.0"  filling="0" d="M100.0 146.0 C73.0 146.0 51.0 124.0 51.0 96.0 C51.0 68.0 73.0 46.0 100.0 46.0 C127.0 46.0 149.0 68.0 149.0 96.0 C149.0 124.0 127.0 146.0 100.0 146.0 L100.0 146.0 Z M100.0 51.0 C76.0 51.0 55.0 71.0 55.0 96.0 C55.0 121.0 76.0 142.0 100.0 142.0 C124.0 142.0 145.0 121.0 145.0 96.0 C145.0 71.0 124.0 51.0 100.0 51.0 L100.0 51.0 Z"></path>
<path fill="#553333" fill-opacity="1.0"  filling="0" d="M100.0 146.0 C73.0 146.0 51.0 124.0 51.0 96.0 C51.0 68.0 73.0 46.0 100.0 46.0 C127.0 46.0 149.0 68.0 149.0 96.0 C149.0 124.0 127.0 146.0 100.0 146.0 L100.0 146.0 Z M100.0 51.0 C76.0 51.0 55.0 71.0 55.0 96.0 C55.0 121.0 76.0 142.0 100.0 142.0 C124.0 142.0 145.0 121.0 145.0 96.0 C145.0 71.0 124.0 51.0 100.0 51.0 L100.0 51.0 Z"></path>
<path fill="#553333" fill-opacity="1.0"  filling="0" d="M100.0 146.0 C73.0 146.0 51.0 124.0 51.0 96.0 C51.0 68.0 73.0 46.0 100.0 46.0 C127.0 46.0 149.0 68.0 149.0 96.0 C149.0 124.0 127.0 146.0 100.0 146.0 L100.0 146.0 Z M100.0 51.0 C76.0 51.0 55.0 71.0 55.0 96.0 C55.0 121.0 76.0 142.0 100.0 142.0 C124.0 142.0 145.0 121.0 145.0 96.0 C145.0 71.0 124.0 51.0 100.0 51.0 L100.0 51.0 Z"></path>
<path fill="#553333" fill-opacity="1.0"  filling="0" d="M100.0 146.0 C73.0 146.0 51.0 124.0 51.0 96.0 C51.0 68.0 73.0 46.0 100.0 46.0 C127.0 46.0 149.0 68.0 149.0 96.0 C149.0 124.0 127.0 146.0 100.0 146.0 L100.0 146.0 Z M100.0 51.0 C76.0 51.0 55.0 71.0 55.0 96.0 C55.0 121.0 76.0 142.0 100.0 142.0 C124.0 142.0 145.0 121.0 145.0 96.0 C145.0 71.0 124.0 51.0 100.0 51.0 L100.0 51.0 Z"></path>
<path fill="#553333" fill-opacity="1.0"  filling="0" d="M100.0 146.0 C73.0 146.0 51.0 124.0 51.0 96.0 C51.0 68.0 73.0 46.0 100.0 46.0 C127.0 46.0 149.0 68.0 149.0 96.0 C149.0 124.0 127.0 146.0 100.0 146.0 L100.0 146.0 Z M100.0 51.0 C76.0 51.0 55.0 71.0 55.0 96.0 C55.0 121.0 76.0 142.0 100.0 142.0 C124.0 142.0 145.0 121.0 145.0 96.0 C145.0 71.0 124.0 51.0 100.0 51.0 L100.0 51.0 Z"></path>
<path fill="#553333" fill-opacity="1.0"  filling="0" d="M100.0 146.0 C73.0 146.0 51.0 124.0 51.0 96.0 C51.0 68.0 73.0 46.0 100.0 46.0 C127.0 46.0 149.0 68.0 149.0 96.0 C149.0 124.0 127.0 146.0 100.0 146.0 L100.0 146.0 Z M100.0 51.0 C76.0 51.0 55.0 71.0 55.0 96.0 C55.0 121.0 76.0 142.0 100.0 142.0 C124.0 142.0 145.0 121.0 145.0 96.0 C145.0 71.0 124.0 51.0 100.0 51.0 L100.0 51.0 Z"></path>
<path fill="#553333" fill-opacity="1.0"  filling="0" d="M100.0 146.0 C73.0 146.0 51.0 124.0 51.0 96.0 C51.0 68.0 73.0 46.0 100.0 46.0 C127.0 46.0 149.0 68.0 149.0 96.0 C149.0 124.0 127.0 146.0 100.0 146.0 L100.0 146.0 Z M100.0 51.0 C76.0 51.0 55.0 71.0 55.0 96.0 C55.0 121.0 76.0 142.0 100.0 142.0 C124.0 142.0 145.0 121.0 145.0 96.0 C145.0 71.0 124.0 51.0 100.0 51.0 L100.0 51.0 Z"></path>
<path fill="#553333" fill-opacity="1.0"  filling="0" d="M100.0 146.0 C73.0 146.0 51.0 124.0 51.0 96.0 C51.0 68.0 73.0 46.0 100.0 46.0 C127.0 46.0 149.0 68.0 149.0 96.0 C149.0 124.0 127.0 146.0 100.0 146.0 L100.0 146.0 Z M100.0 51.0 C76.0 51.0 55.0 71.0 55.0 96.0 C55.0 121.0 76.0 142.0 100.0 142.0 C124.0 142.0 145.0 121.0 145.0 96.0 C145.0 71.0 124.0 51.0 100.0 51.0 L100.0 51.0 Z"></path>
<path fill="#553333" fill-opacity="1.0"  filling="0" d="M100.0 146.0 C73.0 146.0 51.0 124.0 51.0 96.0 C51.0 68.0 73.0 46.0 100.0 46.0 C127.0 46.0 149.0 68.0 149.0 96.0 C149.0 124.0 127.0 146.0 100.0 146.0 L100.0 146.0 Z M100.0 51.0 C76.0 51.0 55.0 71.0 55.0 96.0 C55.0 121.0 76.0 142.0 100.0 142.0 C124.0 142.0 145.0 121.0 145.0 96.0 C145.0 71.0 124.0 51.0 100.0 51.0 L100.0 51.0 Z"></path>
<path fill="none" fill-opacity="1.0" filling="0" d="M0.0 M.0 Z"></path></svg>