<svg xmlns="http://www.w3.org/2000/svg" viewBox="0.0 0.0 200.0 200.0" height="200px" width="200px"><path fill="#ffbb55" fill-opacity="1.0"  filling="0" d="M53.0 96.0 A47.0 47.0 0.0 1 0 147.0 96.0 A47.0 47.0 0.0 1 0 53.0 96.0 L53.0 96.0 Z"></path>
<path fill="#ffaa44" fill-opacity="1.0"  filling="0" d="M53.0 96.0 C53.0 99.0 53.0 103.0 54.0 106.0 C55.0 110.0 56.0 113.0 57.0 116.0 C61.0 120.0 66.0 122.0 71.0 122.0 C90.0 122.0 107.0 111.0 119.0 93.0 C125.0 80.0 128.0 67.0 127.0 54.0 C126.0 53.0 126.0 52.0 125.0 51.0 C117.0 47.0 109.0 45.0 100.0 45.0 C74.0 45.0 53.0 67.0 53.0 96.0 L53.0 96.0 Z"></path>
<path fill="#553333" fill-opacity="1.0"  filling="0" d="M100.0 146.0 C127.0 146.0 149.0 124.0 149.0 96.0 C149.0 69.0 127.0 47.0 100.0 47.0 C73.0 47.0 51.0 69.0 51.0 96.0 C51.0 124.0 73.0 146.0 100.0 146.0 L100.0 146.0 Z M100.0 51.0 C125.0 51.0 145.0 71.0 145.0 96.0 C145.0 122.0 125.0 142.0 100.0 142.0 C75.0 142.0 55.0 122.0 55.0 96.0 C55.0 71.0 75.0 51.0 100.0 51.0 L100.0 51.0 Z"></path>
<path fill="#553333" fill-opacity="1.0"  filling="0" d="M100.0 146.0 C127.0 146.0 149.0 124.0 149.0 96.0 C149.0 69.0 127.0 47.0 100.0 47.0 C73.0 47.0 51.0 69.0 51.0 96.0 C51.0 124.0 73.0 146.0 100.0 146.0 L100.0 146.0 Z M100.0 51.0 C125.0 51.0 145.0 71.0 145.0 96.0 C145.0 122.0 125.0 142.0 100.0 142.0 C75.0 142.0 55.0 122.0 55.0 96.0 C55.0 71.0 75.0 51.0 100.0 51.0 L100.0 51.0 Z"></path>
<path fill="#553333" fill-opacity="1.0"  filling="0" d="M100.0 146.0 C127.0 146.0 149.0 124.0 149.0 96.0 C149.0 69.0 127.0 47.0 100.0 47.0 C73.0 47.0 51.0 69.0 51.0 96.0 C51.0 124.0 73.0 146.0 100.0 146.0 L100.0 146.0 Z M100.0 51.0 C125.0 51.0 145.0 71.0 145.0 96.0 C145.0 122.0 125.0 142.0 100.0 142.0 C75.0 142.0 55.0 122.0 55.0 96.0 C55.0 71.0 75.0 51.0 100.0 51.0 L100.0 51.0 Z"></path>
<path fill="#553333" fill-opacity="1.0"  filling="0" d="M104.0 76.0 C114.0 76.0 121.0 78.0 129.0 80.0 C115.0 85.0 102.0 92.0 91.0 100.0 C84.0 107.0 77.0 113.0 71.0 120.0 C79.0 120.0 88.0 119.0 96.0 115.0 C113.0 104.0 129.0 89.0 144.0 76.0 C144.0 76.0 144.0 75.0 144.0 75.0 C137.0 61.0 120.0 52.0 104.0 52.0 C87.0 52.0 71.0 61.0 63.0 75.0 C62.0 75.0 63.0 76.0 63.0 76.0 C-1.0 -1.0 0.0 0.0 44026.0 44026.0 M47.0 61.0 C47.0 61.0 47.0 61.0 47.0 61.0 C46.0 61.0 45.0 60.0 45.0 59.0 L41.0 49.0 L31.0 44.0 C30.0 44.0 30.0 43.0 30.0 42.0 C30.0 41.0 30.0 40.0 31.0 39.0 L41.0 37.0 L45.0 28.0 C45.0 27.0 46.0 26.0 47.0 26.0 C48.0 26.0 49.0 27.0 50.0 28.0 L54.0 37.0 L64.0 39.0 C65.0 40.0 65.0 41.0 65.0 42.0 C65.0 43.0 65.0 44.0 64.0 44.0 L54.0 49.0 L50.0 59.0 C49.0 60.0 48.0 61.0 47.0 61.0 L47.0 61.0 Z M36.0 42.0 L43.0 45.0 C44.0 45.0 44.0 46.0 44.0 46.0 L47.0 53.0 L50.0 46.0 C51.0 46.0 51.0 45.0 52.0 45.0 L59.0 42.0 L52.0 40.0 C51.0 40.0 51.0 39.0 50.0 39.0 L47.0 32.0 L44.0 39.0 C44.0 39.0 44.0 40.0 43.0 40.0 L36.0 42.0 L36.0 42.0 Z"></path>
<path fill="#553333" fill-opacity="1.0"  filling="0" d="M153.0 173.0 C152.0 173.0 151.0 172.0 151.0 171.0 L145.0 159.0 L133.0 153.0 C132.0 152.0 132.0 151.0 132.0 150.0 C132.0 149.0 132.0 148.0 133.0 147.0 L145.0 144.0 L151.0 132.0 C151.0 131.0 152.0 130.0 153.0 130.0 C154.0 130.0 155.0 131.0 156.0 132.0 L161.0 144.0 L173.0 147.0 C174.0 148.0 175.0 149.0 175.0 150.0 C175.0 151.0 174.0 152.0 173.0 153.0 L161.0 159.0 L156.0 171.0 C155.0 172.0 154.0 173.0 153.0 173.0 L153.0 173.0 Z M139.0 150.0 L147.0 155.0 C148.0 155.0 148.0 156.0 148.0 156.0 L153.0 167.0 L157.0 156.0 C158.0 156.0 158.0 155.0 159.0 155.0 L168.0 150.0 L159.0 148.0 C158.0 147.0 158.0 147.0 157.0 146.0 L153.0 136.0 L148.0 146.0 C148.0 147.0 148.0 147.0 147.0 148.0 L139.0 150.0 L139.0 150.0 Z"></path>
<path fill="none" fill-opacity="1.0" filling="0" d="M0.0 M.0 Z"></path></svg>