<svg xmlns="http://www.w3.org/2000/svg" viewBox="0.0 0.0 200.0 200.0" height="200px" width="200px"><path fill="#ffbb55" fill-opacity="1.0"  filling="0" d="M53.0 96.0 A47.0 47.0 0.0 1 0 147.0 96.0 A47.0 47.0 0.0 1 0 53.0 96.0 L53.0 96.0 Z"></path>
<path fill="#ffaa44" fill-opacity="1.0"  filling="0" d="M53.0 96.0 C53.0 99.0 53.0 103.0 54.0 106.0 C55.0 110.0 56.0 113.0 57.0 116.0 C61.0 120.0 66.0 122.0 71.0 122.0 C90.0 122.0 107.0 111.0 119.0 93.0 C125.0 80.0 128.0 67.0 127.0 54.0 C126.0 53.0 126.0 52.0 125.0 51.0 C117.0 47.0 109.0 45.0 100.0 45.0 C74.0 45.0 53.0 67.0 53.0 96.0 L53.0 96.0 Z"></path>
<path fill="#553333" fill-opacity="1.0"  filling="0" d="M100.0 146.0 C127.0 146.0 149.0 124.0 149.0 96.0 C149.0 68.0 127.0 46.0 100.0 46.0 C73.0 46.0 51.0 68.0 51.0 96.0 C51.0 124.0 73.0 146.0 100.0 146.0 L100.0 146.0 Z M100.0 51.0 C125.0 51.0 145.0 71.0 145.0 96.0 C145.0 122.0 125.0 142.0 100.0 142.0 C75.0 142.0 55.0 122.0 55.0 96.0 C55.0 71.0 75.0 51.0 100.0 51.0 L100.0 51.0 Z"></path>
<path fill="#553333" fill-opacity="1.0"  filling="0" d="M100.0 146.0 C127.0 146.0 149.0 124.0 149.0 96.0 C149.0 68.0 127.0 46.0 100.0 46.0 C73.0 46.0 51.0 68.0 51.0 96.0 C51.0 124.0 73.0 146.0 100.0 146.0 L100.0 146.0 Z M100.0 51.0 C125.0 51.0 145.0 71.0 145.0 96.0 C145.0 122.0 125.0 142.0 100.0 142.0 C75.0 142.0 55.0 122.0 55.0 96.0 C55.0 71.0 75.0 51.0 100.0 51.0 L100.0 51.0 Z"></path>
<path fill="#553333" fill-opacity="1.0"  filling="0" d="M100.0 146.0 C127.0 146.0 149.0 124.0 149.0 96.0 C149.0 68.0 127.0 46.0 100.0 46.0 C73.0 46.0 51.0 68.0 51.0 96.0 C51.0 124.0 73.0 146.0 100.0 146.0 L100.0 146.0 Z M100.0 51.0 C125.0 51.0 145.0 71.0 145.0 96.0 C145.0 122.0 125.0 142.0 100.0 142.0 C75.0 142.0 55.0 122.0 55.0 96.0 C55.0 71.0 75.0 51.0 100.0 51.0 L100.0 51.0 Z"></path>
<path fill="#553333" fill-opacity="1.0"  filling="0" d="M100.0 146.0 C127.0 146.0 149.0 124.0 149.0 96.0 C149.0 68.0 127.0 46.0 100.0 46.0 C73.0 46.0 51.0 68.0 51.0 96.0 C51.0 124.0 73.0 146.0 100.0 146.0 L100.0 146.0 Z M100.0 51.0 C125.0 51.0 145.0 71.0 145.0 96.0 C145.0 122.0 125.0 142.0 100.0 142.0 C75.0 142.0 55.0 122.0 55.0 96.0 C55.0 71.0 75.0 51.0 100.0 51.0 L100.0 51.0 Z"></path>
<path fill="#553333" fill-opacity="1.0"  filling="0" d="M100.0 146.0 C127.0 146.0 149.0 124.0 149.0 96.0 C149.0 68.0 127.0 46.0 100.0 46.0 C73.0 46.0 51.0 68.0 51.0 96.0 C51.0 124.0 73.0 146.0 100.0 146.0 L100.0 146.0 Z M100.0 51.0 C125.0 51.0 145.0 71.0 145.0 96.0 C145.0 122.0 125.0 142.0 100.0 142.0 C75.0 142.0 55.0 122.0 55.0 96.0 C55.0 71.0 75.0 51.0 100.0 51.0 L100.0 51.0 Z"></path>
<path fill="#553333" fill-opacity="1.0"  filling="0" d="M59.0 83.0 C59.0 83.0 59.0 83.0 59.0 83.0 C59.0 83.0 59.0 83.0 59.0 83.0 C59.0 83.0 59.0 83.0 59.0 83.0 L59.0 83.0 Z M59.0 83.0 C59.0 83.0 59.0 83.0 59.0 83.0 C59.0 83.0 59.0 83.0 59.0 83.0 C59.0 83.0 59.0 83.0 59.0 83.0 L59.0 83.0 Z M59.0 83.0 C59.0 83.0 59.0 83.0 59.0 83.0 C59.0 83.0 59.0 83.0 59.0 83.0 C59.0 83.0 59.0 83.0 59.0 83.0 L59.0 83.0 Z M59.0 83.0 C59.0 83.0 59.0 83.0 59.0 83.0 C59.0 83.0 59.0 83.0 59.0 83.0 C59.0 83.0 59.0 83.0 59.0 83.0 L59.0 83.0 Z M59.0 83.0 C59.0 83.0 59.0 83.0 59.0 83.0 C59.0 83.0 59.0 83.0 59.0 83.0 C59.0 83.0 59.0 83.0 59.0 83.0 L59.0 83.0 Z M59.0 83.0 C59.0 83.0 59.0 83.0 59.0 83.0 C59.0 83.0 59.0 83.0 59.0 83.0 C59.0 83.0 59.0 83.0 59.0 83.0 L59.0 83.0 Z M59.0 83.0 C59.0 83.0 59.0 83.0 59.0 83.0 C59.0 83.0 59.0 83.0 59.0 83.0 C59.0 83.0 59.0 83.0 59.0 83.0 L59.0 83.0 Z M59.0 83.0 C59.0 83.0 59.0 83.0 59.0 83.0 C59.0 83.0 59.0 83.0 59.0 83.0 C59.0 83.0 59.0 83.0 59.0 83.0 L59.0 83.0 Z M59.0 83.0 C59.0 83.0 59.0 83.0 59.0 83.0 C59.0 83.0 59.0 83.0 59.0 83.0 C59.0 83.0 59.0 83.0 59.0 83.0 L59.0 83.0 Z M59.0 83.0 C59.0 83.0 59.0 83.0 59.0 83.0 C59.0 83.0 59.0 83.0 59.0 83.0 C59.0 83.0 59.0 83.0 59.0 83.0 L59.0 83.0 Z M59.0 83.0 C59.0 83.0 59.0 83.0 59.0 83.0 C59.0 83.0 59.0 83.0 59.0 83.0 C59.0 83.0 59.0 83.0 59.0 83.0 L59.0 83.0 Z M59.0 83.0 C59.0 83.0 59.0 83.0 59.0 83.0 C59.0 83.0 59.0 83.0 59.0 83.0 C59.0 83.0 59.0 83.0 59.0 83.0 L59.0 83.0 Z M59.0 83.0 C59.0 83.0 59.0 83.0 59.0 83.0 C59.0 83.0 59.0 83.0 59.0 83.0 C59.0 83.0 59.0 83.0 59.0 83.0 L59.0 83.0 Z"></path>
<path fill="#553333" fill-opacity="1.0"  filling="0" d="M59.0 83.0 C59.0 83.0 59.0 83.0 59.0 83.0 C59.0 83.0 59.0 83.0 59.0 83.0 C59.0 83.0 59.0 83.0 59.0 83.0 L59.0 83.0 Z"></path>
<path fill="#553333" fill-opacity="1.0"  filling="0" d="M59.0 83.0 C59.0 83.0 59.0 83.0 59.0 83.0 C59.0 83.0 59.0 83.0 59.0 83.0 C59.0 83.0 59.0 83.0 59.0 83.0 L59.0 83.0 Z"></path>
<path fill="#553333" fill-opacity="1.0"  filling="0" d="M59.0 83.0 C59.0 83.0 59.0 83.0 59.0 83.0 C59.0 83.0 59.0 83.0 59.0 83.0 C59.0 83.0 59.0 83.0 59.0 83.0 L59.0 83.0 Z"></path>
<path fill="#553333" fill-opacity="1.0"  filling="0" d="M59.0 83.0 C59.0 83.0 59.0 83.0 59.0 83.0 C59.0 83.0 59.0 83.0 59.0 83.0 C59.0 83.0 59.0 83.0 59.0 83.0 L59.0 83.0 Z"></path>
<path fill="#553333" fill-opacity="1.0"  filling="0" d="M59.0 83.0 C59.0 83.0 59.0 83.0 59.0 83.0 C59.0 83.0 59.0 83.0 59.0 83.0 C59.0 83.0 59.0 83.0 59.0 83.0 L59.0 83.0 Z"></path>
<path fill="#553333" fill-opacity="1.0"  filling="0" d="M59.0 83.0 C59.0 83.0 59.0 83.0 59.0 83.0 C59.0 83.0 59.0 83.0 59.0 83.0 C59.0 83.0 59.0 83.0 59.0 83.0 L59.0 83.0 Z"></path>
<path fill="#553333" fill-opacity="1.0"  filling="0" d="M59.0 83.0 C59.0 83.0 59.0 83.0 59.0 83.0 C59.0 83.0 59.0 83.0 59.0 83.0 C59.0 83.0 59.0 83.0 59.0 83.0 L59.0 83.0 Z"></path>
<path fill="#553333" fill-opacity="1.0"  filling="0" d="M59.0 83.0 C59.0 83.0 59.0 83.0 59.0 83.0 C59.0 83.0 59.0 83.0 59.0 83.0 C59.0 83.0 59.0 83.0 59.0 83.0 L59.0 83.0 Z"></path>
<path fill="#553333" fill-opacity="1.0"  filling="0" d="M59.0 83.0 C59.0 83.0 59.0 83.0 59.0 83.0 C59.0 83.0 59.0 83.0 59.0 83.0 C59.0 83.0 59.0 83.0 59.0 83.0 L59.0 83.0 Z"></path>
<path fill="#553333" fill-opacity="1.0"  filling="0" d="M59.0 83.0 C59.0 83.0 59.0 83.0 59.0 83.0 C59.0 83.0 59.0 83.0 59.0 83.0 C59.0 83.0 59.0 83.0 59.0 83.0 L59.0 83.0 Z"></path>
<path fill="#553333" fill-opacity="1.0"  filling="0" d="M59.0 83.0 C59.0 83.0 59.0 83.0 59.0 83.0 C59.0 83.0 59.0 83.0 59.0 83.0 C59.0 83.0 59.0 83.0 59.0 83.0 L59.0 83.0 Z"></path>
<path fill="#553333" fill-opacity="1.0"  filling="0" d="M59.0 83.0 C59.0 83.0 59.0 83.0 59.0 83.0 C59.0 83.0 59.0 83.0 59.0 83.0 C59.0 83.0 59.0 83.0 59.0 83.0 L59.0 83.0 Z"></path>
<path fill="#553333" fill-opacity="1.0"  filling="0" d="M59.0 83.0 C59.0 83.0 59.0 83.0 59.0 83.0 C59.0 83.0 59.0 83.0 59.0 83.0 C59.0 83.0 59.0 83.0 59.0 83.0 L59.0 83.0 Z"></path>
<path fill="#553333" fill-opacity="1.0"  filling="0" d="M59.0 83.0 C59.0 83.0 59.0 83.0 59.0 83.0 C59.0 83.0 59.0 83.0 59.0 83.0 C59.0 83.0 59.0 83.0 59.0 83.0 L59.0 83.0 Z"></path>
<path fill="#553333" fill-opacity="1.0"  filling="0" d="M59.0 83.0 C59.0 83.0 59.0 83.0 59.0 83.0 C59.0 83.0 59.0 83.0 59.0 83.0 C59.0 83.0 59.0 83.0 59.0 83.0 L59.0 83.0 Z"></path>
<path fill="#553333" fill-opacity="1.0"  filling="0" d="M59.0 83.0 C59.0 83.0 59.0 83.0 59.0 83.0 C59.0 83.0 59.0 83.0 59.0 83.0 C59.0 83.0 59.0 83.0 59.0 83.0 L59.0 83.0 Z"></path>
<path fill="#553333" fill-opacity="1.0"  filling="0" d="M59.0 83.0 C59.0 83.0 59.0 83.0 59.0 83.0 C59.0 83.0 59.0 83.0 59.0 83.0 C59.0 83.0 59.0 83.0 59.0 83.0 L59.0 83.0 Z"></path>
<path fill="#553333" fill-opacity="1.0"  filling="0" d="M59.0 83.0 C59.0 83.0 59.0 83.0 59.0 83.0 C59.0 83.0 59.0 83.0 59.0 83.0 C59.0 83.0 59.0 83.0 59.0 83.0 L59.0 83.0 Z"></path>
<path fill="#553333" fill-opacity="1.0"  filling="0" d="M59.0 83.0 C59.0 83.0 59.0 83.0 59.0 83.0 C59.0 83.0 59.0 83.0 59.0 83.0 C59.0 83.0 59.0 83.0 59.0 83.0 L59.0 83.0 Z"></path>
<path fill="#553333" fill-opacity="1.0"  filling="0" d="M59.0 83.0 C59.0 83.0 59.0 83.0 59.0 83.0 C59.0 83.0 59.0 83.0 59.0 83.0 C59.0 83.0 59.0 83.0 59.0 83.0 L59.0 83.0 Z"></path>
<path fill="#553333" fill-opacity="1.0"  filling="0" d="M59.0 83.0 C59.0 83.0 59.0 83.0 59.0 83.0 C59.0 83.0 59.0 83.0 59.0 83.0 C59.0 83.0 59.0 83.0 59.0 83.0 L59.0 83.0 Z"></path>
<path fill="#553333" fill-opacity="1.0"  filling="0" d="M59.0 83.0 C59.0 83.0 59.0 83.0 59.0 83.0 C59.0 83.0 59.0 83.0 59.0 83.0 C59.0 83.0 59.0 83.0 59.0 83.0 L59.0 83.0 Z"></path>
<path fill="#553333" fill-opacity="1.0"  filling="0" d="M59.0 83.0 C59.0 83.0 59.0 83.0 59.0 83.0 C59.0 83.0 59.0 83.0 59.0 83.0 C59.0 83.0 59.0 83.0 59.0 83.0 L59.0 83.0 Z"></path>
<path fill="#553333" fill-opacity="1.0"  filling="0" d="M59.0 83.0 C59.0 83.0 59.0 83.0 59.0 83.0 C59.0 83.0 59.0 83.0 59.0 83.0 C59.0 83.0 59.0 83.0 59.0 83.0 L59.0 83.0 Z"></path>
<path fill="#553333" fill-opacity="1.0"  filling="0" d="M59.0 83.0 C59.0 83.0 59.0 83.0 59.0 83.0 C59.0 83.0 59.0 83.0 59.0 83.0 C59.0 83.0 59.0 83.0 59.0 83.0 L59.0 83.0 Z"></path>
<path fill="#553333" fill-opacity="1.0"  filling="0" d="M59.0 83.0 C59.0 83.0 59.0 83.0 59.0 83.0 C59.0 83.0 59.0 83.0 59.0 83.0 C59.0 83.0 59.0 83.0 59.0 83.0 L59.0 83.0 Z"></path>
<path fill="#553333" fill-opacity="1.0"  filling="0" d="M59.0 83.0 C59.0 83.0 59.0 83.0 59.0 83.0 C59.0 83.0 59.0 83.0 59.0 83.0 C59.0 83.0 59.0 83.0 59.0 83.0 L59.0 83.0 Z"></path>
<path fill="#553333" fill-opacity="1.0"  filling="0" d="M59.0 83.0 C59.0 83.0 59.0 83.0 59.0 83.0 C59.0 83.0 59.0 83.0 59.0 83.0 C59.0 83.0 59.0 83.0 59.0 83.0 L59.0 83.0 Z"></path>
<path fill="#553333" fill-opacity="1.0"  filling="0" d="M59.0 83.0 C59.0 83.0 59.0 83.0 59.0 83.0 C59.0 83.0 59.0 83.0 59.0 83.0 C59.0 83.0 59.0 83.0 59.0 83.0 L59.0 83.0 Z"></path>
<path fill="#553333" fill-opacity="1.0"  filling="0" d="M59.0 83.0 C59.0 83.0 59.0 83.0 59.0 83.0 C59.0 83.0 59.0 83.0 59.0 83.0 C59.0 83.0 59.0 83.0 59.0 83.0 L59.0 83.0 Z"></path>
<path fill="#553333" fill-opacity="1.0"  filling="0" d="M59.0 83.0 C59.0 83.0 59.0 83.0 59.0 83.0 C59.0 83.0 59.0 83.0 59.0 83.0 C59.0 83.0 59.0 83.0 59.0 83.0 L59.0 83.0 Z"></path>
<path fill="#553333" fill-opacity="1.0"  filling="0" d="M59.0 83.0 C59.0 83.0 59.0 83.0 59.0 83.0 C59.0 83.0 59.0 83.0 59.0 83.0 C59.0 83.0 59.0 83.0 59.0 83.0 L59.0 83.0 Z"></path>
<path fill="#553333" fill-opacity="1.0"  filling="0" d="M59.0 83.0 C59.0 83.0 59.0 83.0 59.0 83.0 C59.0 83.0 59.0 83.0 59.0 83.0 C59.0 83.0 59.0 83.0 59.0 83.0 L59.0 83.0 Z"></path>
<path fill="#553333" fill-opacity="1.0"  filling="0" d="M59.0 83.0 C59.0 83.0 59.0 83.0 59.0 83.0 C59.0 83.0 59.0 83.0 59.0 83.0 C59.0 83.0 59.0 83.0 59.0 83.0 L59.0 83.0 Z"></path>
<path fill="#000000" fill-opacity="1.0"  filling="0" d="M59.0 83.0 C59.0 83.0 59.0 83.0 59.0 83.0 C59.0 83.0 59.0 83.0 59.0 83.0"></path></svg>