<svg xmlns="http://www.w3.org/2000/svg" viewBox="0.0 0.0 200.0 200.0" height="200px" width="200px"><path fill="#ffbb55" fill-opacity="1.0"  filling="0" d="M53.0 96.0 A47.0 47.0 0.0 1 0 147.0 96.0 A47.0 47.0 0.0 1 0 53.0 96.0 L53.0 96.0 Z"></path>
<path fill="#443333" fill-opacity="1.0"  filling="0" d="M53.0 96.0 C53.0 99.0 53.0 103.0 54.0 106.0 C55.0 110.0 56.0 113.0 57.0 116.0 A47.0 47.0 0.0 0 0 59.0 127.0 C60.0 128.0 60.0 129.0 61.0 130.0 C62.0 132.0 64.0 134.0 66.0 136.0 C67.0 138.0 69.0 140.0 71.0 141.0 C72.0 142.0 73.0 143.0 74.0 144.0 C76.0 145.0 78.0 147.0 80.0 148.0 A47.0 47.0 0.0 0 0 90.0 151.0 C91.0 151.0 92.0 151.0 93.0 152.0 C95.0 152.0 98.0 152.0 100.0 152.0 C102.0 152.0 105.0 152.0 107.0 152.0 C108.0 151.0 109.0 151.0 110.0 151.0 A47.0 47.0 0.0 0 0 120.0 148.0 C122.0 147.0 124.0 145.0 126.0 144.0 C127.0 143.0 128.0 142.0 129.0 141.0 C131.0 140.0 133.0 138.0 134.0 136.0 C136.0 134.0 138.0 132.0 139.0 130.0 C140.0 129.0 140.0 128.0 141.0 127.0 A47.0 47.0 0.0 0 0 143.0 116.0 C144.0 113.0 145.0 110.0 146.0 106.0 C147.0 103.0 147.0 99.0 147.0 96.0 C147.0 93.0 147.0 90.0 146.0 87.0 A47.0 47.0 0.0 0 0 143.0 77.0 C142.0 76.0 142.0 75.0 141.0 74.0 C140.0 72.0 139.0 70.0 137.0 68.0 C136.0 66.0 135.0 64.0 134.0 62.0 C133.0 61.0 131.0 60.0 129.0 59.0 C128.0 58.0 127.0 57.0 126.0 56.0 C124.0 55.0 122.0 53.0 120.0 52.0 A47.0 47.0 0.0 0 0 110.0 49.0 C109.0 49.0 108.0 49.0 107.0 48.0 C105.0 48.0 102.0 48.0 100.0 48.0 C98.0 48.0 95.0 48.0 93.0 48.0 C92.0 49.0 91.0 49.0 90.0 49.0 A47.0 47.0 0.0 0 0 80.0 52.0 C78.0 53.0 76.0 55.0 74.0 56.0 C73.0 57.0 72.0 58.0 71.0 59.0 C69.0 60.0 67.0 61.0 66.0 62.0 C65.0 64.0 64.0 66.0 63.0 68.0 C61.0 70.0 60.0 72.0 59.0 74.0 C58.0 75.0 58.0 76.0 57.0 77.0 A47.0 47.0 0.0 0 0 54.0 87.0 C53.0 90.0 53.0 93.0 53.0 96.0 L53.0 96.0 Z M50.0 96.0 C50.0 92.0 50.0 89.0 51.0 86.0 A50.0 50.0 0.0 0 1 54.0 76.0 C55.0 75.0 56.0 74.0 57.0 73.0 C58.0 71.0 60.0 69.0 61.0 67.0 C62.0 65.0 63.0 63.0 64.0 61.0 C66.0 60.0 68.0 58.0 69.0 57.0 C71.0 56.0 72.0 55.0 73.0 54.0 C75.0 52.0 77.0 51.0 79.0 50.0 A50.0 50.0 0.0 0 1 89.0 47.0 C90.0 47.0 91.0 47.0 92.0 46.0 C95.0 46.0 97.0 46.0 100.0 46.0 C103.0 46.0 105.0 46.0 108.0 46.0 C109.0 47.0 110.0 47.0 111.0 47.0 A50.0 50.0 0.0 0 1 121.0 50.0 C123.0 51.0 125.0 52.0 127.0 54.0 C128.0 55.0 129.0 56.0 131.0 57.0 C132.0 58.0 134.0 60.0 136.0 61.0 C137.0 63.0 138.0 65.0 139.0 67.0 C140.0 69.0 142.0 71.0 143.0 73.0 C144.0 74.0 145.0 75.0 146.0 76.0 A50.0 50.0 0.0 0 1 149.0 86.0 C150.0 89.0 150.0 92.0 150.0 96.0 C150.0 99.0 150.0 103.0 149.0 106.0 A50.0 50.0 0.0 0 1 146.0 116.0 C145.0 118.0 144.0 120.0 143.0 122.0 C143.0 123.0 142.0 125.0 143.0 127.0 C142.0 129.0 140.0 131.0 139.0 133.0 C138.0 135.0 137.0 137.0 136.0 139.0 C134.0 141.0 132.0 142.0 131.0 143.0 C129.0 145.0 128.0 146.0 127.0 147.0 C125.0 149.0 123.0 150.0 121.0 151.0 A50.0 50.0 0.0 0 1 111.0 154.0 C110.0 154.0 109.0 154.0 108.0 154.0 C105.0 155.0 103.0 155.0 100.0 155.0 C97.0 155.0 95.0 155.0 92.0 154.0 C91.0 154.0 90.0 154.0 89.0 154.0 A50.0 50.0 0.0 0 1 79.0 151.0 C77.0 150.0 75.0 149.0 73.0 147.0 C72.0 146.0 71.0 145.0 69.0 143.0 C68.0 142.0 66.0 141.0 64.0 139.0 C63.0 137.0 62.0 135.0 61.0 133.0 C60.0 131.0 58.0 129.0 57.0 127.0 C58.0 125.0 57.0 123.0 57.0 122.0 C56.0 120.0 55.0 118.0 54.0 116.0 A50.0 50.0 0.0 0 1 51.0 106.0 C50.0 103.0 50.0 99.0 50.0 96.0 L50.0 96.0 Z"></path>
<path fill="#ffbb55" fill-opacity="1.0"  filling="0" d="M100.0 96.0 L53.0 96.0 C53.0 99.0 53.0 103.0 54.0 106.0 C55.0 110.0 56.0 113.0 57.0 116.0 C57.0 119.0 58.0 121.0 59.0 123.0 C59.0 124.0 60.0 125.0 60.0 125.0 C61.0 126.0 62.0 127.0 63.0 128.0 C64.0 130.0 65.0 131.0 66.0 133.0 C67.0 134.0 68.0 135.0 69.0 137.0 C70.0 137.0 71.0 138.0 72.0 139.0 C73.0 140.0 74.0 141.0 75.0 142.0 C77.0 143.0 78.0 144.0 80.0 145.0 C81.0 146.0 82.0 146.0 84.0 147.0 C85.0 147.0 87.0 148.0 88.0 148.0 C89.0 149.0 91.0 149.0 92.0 149.0 C94.0 150.0 97.0 150.0 100.0 150.0 C103.0 150.0 106.0 150.0 108.0 149.0 C109.0 149.0 111.0 149.0 112.0 148.0 C113.0 148.0 115.0 147.0 116.0 147.0 C118.0 146.0 119.0 146.0 120.0 145.0 C122.0 144.0 123.0 143.0 125.0 142.0 C126.0 141.0 127.0 140.0 128.0 139.0 C129.0 138.0 130.0 137.0 131.0 137.0 C132.0 135.0 133.0 134.0 134.0 133.0 C135.0 131.0 136.0 130.0 137.0 128.0 C138.0 127.0 139.0 126.0 140.0 125.0 C140.0 125.0 141.0 124.0 141.0 123.0 C142.0 121.0 143.0 119.0 143.0 116.0 C144.0 113.0 145.0 110.0 146.0 106.0 C147.0 103.0 147.0 99.0 147.0 96.0 L100.0 96.0 L100.0 96.0 L100.0 96.0 Z"></path>
<path fill="#443333" fill-opacity="1.0"  filling="0" d="M100.0 96.0 L53.0 96.0 C53.0 99.0 53.0 103.0 54.0 106.0 C55.0 110.0 56.0 113.0 57.0 116.0 C57.0 119.0 58.0 121.0 59.0 123.0 C59.0 124.0 60.0 125.0 60.0 125.0 C61.0 126.0 62.0 127.0 63.0 128.0 C64.0 130.0 65.0 131.0 66.0 133.0 C67.0 134.0 68.0 135.0 69.0 137.0 C70.0 137.0 71.0 138.0 72.0 139.0 C73.0 140.0 74.0 141.0 75.0 142.0 C77.0 143.0 78.0 144.0 80.0 145.0 C81.0 146.0 82.0 146.0 84.0 147.0 C85.0 147.0 87.0 148.0 88.0 148.0 C89.0 149.0 91.0 149.0 92.0 149.0 C94.0 150.0 97.0 150.0 100.0 150.0 C103.0 150.0 106.0 150.0 108.0 149.0 C109.0 149.0 111.0 149.0 112.0 148.0 C113.0 148.0 115.0 147.0 116.0 147.0 C118.0 146.0 119.0 146.0 120.0 145.0 C122.0 144.0 123.0 143.0 125.0 142.0 C126.0 141.0 127.0 140.0 128.0 139.0 C129.0 138.0 130.0 137.0 131.0 137.0 C132.0 135.0 133.0 134.0 134.0 133.0 C135.0 131.0 136.0 130.0 137.0 128.0 C138.0 127.0 139.0 126.0 140.0 125.0 C140.0 125.0 141.0 124.0 141.0 123.0 C142.0 121.0 143.0 119.0 143.0 116.0 C144.0 113.0 145.0 110.0 146.0 106.0 C147.0 103.0 147.0 99.0 147.0 96.0 L100.0 96.0 L100.0 96.0 L100.0 96.0 Z M100.0 92.0 L149.0 92.0 L149.0 96.0 C149.0 99.0 149.0 103.0 148.0 106.0 C147.0 110.0 146.0 113.0 145.0 116.0 C145.0 119.0 144.0 121.0 143.0 123.0 C143.0 124.0 142.0 125.0 142.0 126.0 C141.0 127.0 140.0 128.0 139.0 129.0 C138.0 130.0 137.0 132.0 135.0 134.0 C134.0 135.0 133.0 136.0 132.0 138.0 C131.0 139.0 130.0 140.0 129.0 141.0 C128.0 142.0 126.0 143.0 126.0 144.0 C124.0 146.0 122.0 147.0 120.0 148.0 C118.0 149.0 116.0 149.0 114.0 150.0 C113.0 150.0 111.0 150.0 110.0 150.0 C108.0 151.0 105.0 151.0 103.0 151.0 C101.0 151.0 99.0 151.0 97.0 151.0 C95.0 151.0 92.0 151.0 90.0 150.0 C89.0 150.0 87.0 150.0 86.0 150.0 C84.0 149.0 82.0 149.0 80.0 148.0 C78.0 147.0 76.0 146.0 74.0 144.0 C74.0 143.0 72.0 142.0 71.0 141.0 C70.0 140.0 69.0 139.0 68.0 138.0 C67.0 136.0 66.0 135.0 65.0 134.0 C63.0 132.0 62.0 130.0 61.0 129.0 C60.0 128.0 59.0 127.0 58.0 126.0 C58.0 125.0 57.0 124.0 57.0 123.0 C56.0 121.0 55.0 119.0 55.0 116.0 C54.0 113.0 53.0 110.0 52.0 106.0 C51.0 103.0 51.0 99.0 51.0 96.0 L51.0 92.0 L100.0 92.0 L100.0 92.0 Z"></path>
<path fill="#ffbb55" fill-opacity="1.0"  filling="0" d="M100.0 96.0 C100.0 96.0 100.0 96.0 100.0 96.0 C100.0 96.0 100.0 96.0 100.0 96.0 L100.0 96.0 L100.0 96.0 Z"></path>
<path fill="#ffbb55" fill-opacity="1.0"  filling="0" d="M100.0 96.0 C100.0 96.0 100.0 96.0 100.0 96.0 C100.0 96.0 100.0 96.0 100.0 96.0 L100.0 96.0 L100.0 96.0 Z"></path>
<path fill="#ffbb55" fill-opacity="1.0"  filling="0" d="M100.0 96.0 C100.0 96.0 100.0 96.0 100.0 96.0 C100.0 96.0 100.0 96.0 100.0 96.0 L100.0 96.0 L100.0 96.0 Z"></path>
<path fill="#ffbb55" fill-opacity="1.0"  filling="0" d="M100.0 96.0 C100.0 96.0 100.0 96.0 100.0 96.0 C100.0 96.0 100.0 96.0 100.0 96.0 L100.0 96.0 L100.0 96.0 Z"></path>
<path fill="#ffbb55" fill-opacity="1.0"  filling="0" d="M100.0 96.0 C100.0 96.0 100.0 96.0 100.0 96.0 C100.0 96.0 100.0 96.0 100.0 96.0 L100.0 96.0 L100.0 96.0 Z"></path>
<path fill="#ffbb55" fill-opacity="1.0"  filling="0" d="M100.0 96.0 C100.0 96.0 100.0 96.0 100.0 96.0 C100.0 96.0 100.0 96.0 100.0 96.0 L100.0 96.0 L100.0 96.0 Z"></path>
<path fill="#ffbb55" fill-opacity="1.0"  filling="0" d="M100.0 96.0 C100.0 96.0 100.0 96.0 100.0 96.0 C100.0 96.0 100.0 96.0 100.0 96.0 L100.0 96.0 L100.0 96.0 Z"></path>
<path fill="#ffbb55" fill-opacity="1.0"  filling="0" d="M100.0 96.0 C100.0 96.0 100.0 96.0 100.0 96.0 C100.0 96.0 100.0 96.0 100.0 96.0 L100.0 96.0 L100.0 96.0 Z"></path>
<path fill="#ffbb55" fill-opacity="1.0"  filling="0" d="M100.0 96.0 C100.0 96.0 100.0 96.0 100.0 96.0 C100.0 96.0 100.0 96.0 100.0 96.0 L100.0 96.0 L100.0 96.0 Z"></path>
<path fill="#ffbb55" fill-opacity="1.0"  filling="0" d="M100.0 96.0 C100.0 96.0 100.0 96.0 100.0 96.0 C100.0 96.0 100.0 96.0 100.0 96.0 L100.0 96.0 L100.0 96.0 Z"></path>
<path fill="#ffbb55" fill-opacity="1.0"  filling="0" d="M100.0 96.0 C100.0 96.0 100.0 96.0 100.0 96.0 C100.0 96.0 100.0 96.0 100.0 96.0 L100.0 96.0 L100.0 96.0 Z"></path>
<path fill="#ffbb55" fill-opacity="1.0"  filling="0" d="M100.0 96.0 C100.0 96.0 100.0 96.0 100.0 96.0 C100.0 96.0 100.0 96.0 100.0 96.0 L100.0 96.0 L100.0 96.0 Z"></path>
<path fill="#ffbb55" fill-opacity="1.0"  filling="0" d="M100.0 96.0 C100.0 96.0 100.0 96.0 100.0 96.0 C100.0 96.0 100.0 96.0 100.0 96.0 L100.0 96.0 L100.0 96.0 Z"></path>
<path fill="#ffbb55" fill-opacity="1.0"  filling="0" d="M100.0 96.0 C100.0 96.0 100.0 96.0 100.0 96.0 C100.0 96.0 100.0 96.0 100.0 96.0 L100.0 96.0 L100.0 96.0 Z"></path>
<path fill="#ffbb55" fill-opacity="1.0"  filling="0" d="M100.0 96.0 C100.0 96.0 100.0 96.0 100.0 96.0 C100.0 96.0 100.0 96.0 100.0 96.0 L100.0 96.0 L100.0 96.0 Z"></path>
<path fill="#ffbb55" fill-opacity="1.0"  filling="0" d="M100.0 96.0 C100.0 96.0 100.0 96.0 100.0 96.0 C100.0 96.0 100.0 96.0 100.0 96.0 L100.0 96.0 L100.0 96.0 Z"></path>
<path fill="#ffbb55" fill-opacity="1.0"  filling="0" d="M100.0 96.0 C100.0 96.0 100.0 96.0 100.0 96.0 C100.0 96.0 100.0 96.0 100.0 96.0 L100.0 96.0 L100.0 96.0 Z"></path>
<path fill="#ffbb55" fill-opacity="1.0"  filling="0" d="M100.0 96.0 C100.0 96.0 100.0 96.0 100.0 96.0 C100.0 96.0 100.0 96.0 100.0 96.0 L100.0 96.0 L100.0 96.0 Z"></path>
<path fill="#ffbb55" fill-opacity="1.0"  filling="0" d="M100.0 96.0 C100.0 96.0 100.0 96.0 100.0 96.0 C100.0 96.0 100.0 96.0 100.0 96.0 L100.0 96.0 L100.0 96.0 Z"></path>
<path fill="#ffbb55" fill-opacity="1.0"  filling="0" d="M100.0 96.0 C100.0 96.0 100.0 96.0 100.0 96.0 C100.0 96.0 100.0 96.0 100.0 96.0 L100.0 96.0 L100.0 96.0 Z"></path>
<path fill="#ffbb55" fill-opacity="1.0"  filling="0" d="M100.0 96.0 C100.0 96.0 100.0 96.0 100.0 96.0 C100.0 96.0 100.0 96.0 100.0 96.0 L100.0 96.0 L100.0 96.0 Z"></path>
<path fill="#ffbb55" fill-opacity="1.0"  filling="0" d="M100.0 96.0 C100.0 96.0 100.0 96.0 100.0 96.0 C100.0 96.0 100.0 96.0 100.0 96.0 L100.0 96.0 L100.0 96.0 Z"></path>
<path fill="#ffbb55" fill-opacity="1.0"  filling="0" d="M100.0 96.0 C100.0 96.0 100.0 96.0 100.0 96.0 C100.0 96.0 100.0 96.0 100.0 96.0 L100.0 96.0 L100.0 96.0 Z"></path>
<path fill="#ffbb55" fill-opacity="1.0"  filling="0" d="M100.0 96.0 C100.0 96.0 100.0 96.0 100.0 96.0 C100.0 96.0 100.0 96.0 100.0 96.0 L100.0 96.0 L100.0 96.0 Z"></path>
<path fill="#ffbb55" fill-opacity="1.0"  filling="0" d="M100.0 96.0 C100.0 96.0 100.0 96.0 100.0 96.0 C100.0 96.0 100.0 96.0 100.0 96.0 L100.0 96.0 L100.0 96.0 Z"></path>
<path fill="#ffbb55" fill-opacity="1.0"  filling="0" d="M100.0 96.0 C100.0 96.0 100.0 96.0 100.0 96.0 C100.0 96.0 100.0 96.0 100.0 96.0 L100.0 96.0 L100.0 96.0 Z"></path>
<path fill="#ffbb55" fill-opacity="1.0"  filling="0" d="M100.0 96.0 C100.0 96.0 100.0 96.0 100.0 96.0 C100.0 96.0 100.0 96.0 100.0 96.0 L100.0 96.0 L100.0 96.0 Z"></path>
<path fill="#ffbb55" fill-opacity="1.0"  filling="0" d="M100.0 96.0 C100.0 96.0 100.0 96.0 100.0 96.0 C100.0 96.0 100.0 96.0 100.0 96.0 L100.0 96.0 L100.0 96.0 Z"></path>
<path fill="#ffbb55" fill-opacity="1.0"  filling="0" d="M100.0 96.0 C100.0 96.0 100.0 96.0 100.0 96.0 C100.0 96.0 100.0 96.0 100.0 96.0 L100.0 96.0 L100.0 96.0 Z"></path>
<path fill="#ffbb55" fill-opacity="1.0"  filling="0" d="M100.0 96.0 C100.0 96.0 100.0 96.0 100.0 96.0 C100.0 96.0 100.0 96.0 100.0 96.0 L100.0 96.0 L100.0 96.0 Z"></path>
<path fill="#000000" fill-opacity="1.0"  filling="0" d="M100.0 96.0 C100.0 96.0 100.0 96.0 100.0 96.0"></path></svg>