<svg xmlns="http://www.w3.org/2000/svg" viewBox="0.0 0.0 200.0 200.0" height="200px" width="200px"><path fill="#224455" fill-opacity="1.0"  filling="0" d="M30.0 180.0 C30.0 180.0 30.0 180.0 30.0 180.0 L169.0 180.0 C169.0 180.0 169.0 180.0 169.0 180.0 C169.0 180.0 169.0 180.0 169.0 180.0 L30.0 180.0 C30.0 180.0 30.0 180.0 30.0 180.0 L30.0 180.0 Z"></path>
<path fill="#224455" fill-opacity="1.0"  filling="0" d="M100.0 95.0 C99.0 95.0 97.0 94.0 97.0 93.0 L97.0 11.0 C97.0 10.0 99.0 9.0 100.0 9.0 C101.0 9.0 102.0 10.0 102.0 11.0 L102.0 93.0 C102.0 94.0 101.0 95.0 100.0 95.0 L100.0 95.0 Z"></path>
<path fill="#224455" fill-opacity="1.0"  filling="0" d="M86.0 28.0 L86.0 28.0 C86.0 27.0 86.0 27.0 86.0 27.0 L95.0 18.0 C95.0 18.0 95.0 18.0 95.0 18.0 L95.0 18.0 C96.0 18.0 96.0 18.0 96.0 18.0 L86.0 27.0 C86.0 28.0 86.0 28.0 86.0 28.0 L86.0 28.0 Z"></path>
<path fill="#224455" fill-opacity="1.0"  filling="0" d="M86.0 28.0 L86.0 28.0 C86.0 27.0 86.0 27.0 86.0 27.0 L95.0 18.0 C95.0 18.0 95.0 18.0 95.0 18.0 L95.0 18.0 C96.0 18.0 96.0 18.0 96.0 18.0 L86.0 27.0 C86.0 28.0 86.0 28.0 86.0 28.0 L86.0 28.0 Z"></path>
<path fill="#224455" fill-opacity="1.0"  filling="0" d="M113.0 28.0 L113.0 28.0 C113.0 27.0 113.0 27.0 113.0 27.0 L104.0 18.0 C103.0 18.0 103.0 18.0 103.0 18.0 L103.0 18.0 C103.0 18.0 103.0 18.0 103.0 18.0 L113.0 27.0 C113.0 27.0 113.0 27.0 113.0 28.0 L113.0 28.0 Z"></path>
<path fill="#224455" fill-opacity="1.0"  filling="0" d="M113.0 28.0 L113.0 28.0 C113.0 27.0 113.0 27.0 113.0 27.0 L104.0 18.0 C103.0 18.0 103.0 18.0 103.0 18.0 L103.0 18.0 C103.0 18.0 103.0 18.0 103.0 18.0 L113.0 27.0 C113.0 27.0 113.0 27.0 113.0 28.0 L113.0 28.0 Z"></path>
<path fill="#224455" fill-opacity="1.0"  filling="0" d="M94.0 51.0 L93.0 51.0 C92.0 51.0 92.0 51.0 92.0 50.0 L92.0 49.0 C92.0 48.0 92.0 48.0 93.0 48.0 L94.0 48.0 C95.0 48.0 95.0 48.0 95.0 49.0 L95.0 50.0 C95.0 51.0 95.0 51.0 94.0 51.0 L94.0 51.0 Z"></path>
<path fill="#224455" fill-opacity="1.0"  filling="0" d="M106.0 51.0 L107.0 51.0 C107.0 51.0 108.0 51.0 108.0 50.0 L108.0 49.0 C108.0 48.0 107.0 48.0 107.0 48.0 L106.0 48.0 C105.0 48.0 105.0 48.0 105.0 49.0 L105.0 50.0 C105.0 51.0 105.0 51.0 106.0 51.0 L106.0 51.0 Z"></path>
<path fill="#224455" fill-opacity="1.0"  filling="0" d="M94.0 51.0 L93.0 51.0 C92.0 51.0 92.0 51.0 92.0 50.0 L92.0 49.0 C92.0 48.0 92.0 48.0 93.0 48.0 L94.0 48.0 C95.0 48.0 95.0 48.0 95.0 49.0 L95.0 50.0 C95.0 51.0 95.0 51.0 94.0 51.0 L94.0 51.0 Z"></path>
<path fill="#224455" fill-opacity="1.0"  filling="0" d="M106.0 51.0 L107.0 51.0 C107.0 51.0 108.0 51.0 108.0 50.0 L108.0 49.0 C108.0 48.0 107.0 48.0 107.0 48.0 L106.0 48.0 C105.0 48.0 105.0 48.0 105.0 49.0 L105.0 50.0 C105.0 51.0 105.0 51.0 106.0 51.0 L106.0 51.0 Z"></path>
<path fill="#224455" fill-opacity="1.0"  filling="0" d="M100.0 26.0 L100.0 26.0 C95.0 26.0 91.0 22.0 91.0 17.0 L91.0 16.0 C91.0 11.0 95.0 7.0 100.0 7.0 L100.0 7.0 C105.0 7.0 109.0 11.0 109.0 16.0 L109.0 17.0 C109.0 22.0 105.0 26.0 100.0 26.0 L100.0 26.0 Z"></path>
<path fill="#224455" fill-opacity="1.0"  filling="0" d="M86.0 28.0 L113.0 28.0 L113.0 29.0 L86.0 29.0 L86.0 28.0 L86.0 28.0 Z"></path>
<path fill="#224455" fill-opacity="1.0"  filling="0" d="M86.0 28.0 L86.0 28.0 C86.0 28.0 86.0 28.0 86.0 28.0 L114.0 28.0 C114.0 28.0 114.0 28.0 114.0 28.0 L114.0 28.0 C114.0 28.0 114.0 28.0 114.0 28.0 L86.0 28.0 C86.0 28.0 86.0 28.0 86.0 28.0 L86.0 28.0 Z"></path>
<path fill="#224455" fill-opacity="1.0"  filling="0" d="M86.0 28.0 L86.0 28.0 C86.0 28.0 86.0 28.0 86.0 28.0 L114.0 28.0 C114.0 28.0 114.0 28.0 114.0 28.0 L114.0 28.0 C114.0 28.0 114.0 28.0 114.0 28.0 L86.0 28.0 C86.0 28.0 86.0 28.0 86.0 28.0 L86.0 28.0 Z"></path>
<path fill="#224455" fill-opacity="1.0"  filling="0" d="M86.0 28.0 L86.0 28.0 C86.0 28.0 86.0 28.0 86.0 28.0 L114.0 28.0 C114.0 28.0 114.0 28.0 114.0 28.0 L114.0 28.0 C114.0 28.0 114.0 28.0 114.0 28.0 L86.0 28.0 C86.0 28.0 86.0 28.0 86.0 28.0 L86.0 28.0 Z"></path>
<path fill="#224455" fill-opacity="1.0"  filling="0" d="M86.0 28.0 L86.0 28.0 C86.0 28.0 86.0 28.0 86.0 28.0 L114.0 28.0 C114.0 28.0 114.0 28.0 114.0 28.0 L114.0 28.0 C114.0 28.0 114.0 28.0 114.0 28.0 L86.0 28.0 C86.0 28.0 86.0 28.0 86.0 28.0 L86.0 28.0 Z"></path>
<path fill="#224455" fill-opacity="1.0"  filling="0" d="M86.0 28.0 L86.0 28.0 C86.0 28.0 86.0 28.0 86.0 28.0 L114.0 28.0 C114.0 28.0 114.0 28.0 114.0 28.0 L114.0 28.0 C114.0 28.0 114.0 28.0 114.0 28.0 L86.0 28.0 C86.0 28.0 86.0 28.0 86.0 28.0 L86.0 28.0 Z"></path>
<path fill="#224455" fill-opacity="1.0"  filling="0" d="M86.0 28.0 L86.0 28.0 C86.0 28.0 86.0 28.0 86.0 28.0 L114.0 28.0 C114.0 28.0 114.0 28.0 114.0 28.0 L114.0 28.0 C114.0 28.0 114.0 28.0 114.0 28.0 L86.0 28.0 C86.0 28.0 86.0 28.0 86.0 28.0 L86.0 28.0 Z"></path>
<path fill="#224455" fill-opacity="1.0"  filling="0" d="M86.0 28.0 L86.0 28.0 C86.0 28.0 86.0 28.0 86.0 28.0 L114.0 28.0 C114.0 28.0 114.0 28.0 114.0 28.0 L114.0 28.0 C114.0 28.0 114.0 28.0 114.0 28.0 L86.0 28.0 C86.0 28.0 86.0 28.0 86.0 28.0 L86.0 28.0 Z"></path>
<path fill="#224455" fill-opacity="1.0"  filling="0" d="M86.0 28.0 L86.0 28.0 C86.0 28.0 86.0 28.0 86.0 28.0 L114.0 28.0 C114.0 28.0 114.0 28.0 114.0 28.0 L114.0 28.0 C114.0 28.0 114.0 28.0 114.0 28.0 L86.0 28.0 C86.0 28.0 86.0 28.0 86.0 28.0 L86.0 28.0 Z"></path>
<path fill="#224455" fill-opacity="1.0"  filling="0" d="M86.0 28.0 L86.0 28.0 C86.0 28.0 86.0 28.0 86.0 28.0 L114.0 28.0 C114.0 28.0 114.0 28.0 114.0 28.0 L114.0 28.0 C114.0 28.0 114.0 28.0 114.0 28.0 L86.0 28.0 C86.0 28.0 86.0 28.0 86.0 28.0 L86.0 28.0 Z"></path>
<path fill="#224455" fill-opacity="1.0"  filling="0" d="M86.0 28.0 L86.0 28.0 C86.0 28.0 86.0 28.0 86.0 28.0 L114.0 28.0 C114.0 28.0 114.0 28.0 114.0 28.0 L114.0 28.0 C114.0 28.0 114.0 28.0 114.0 28.0 L86.0 28.0 C86.0 28.0 86.0 28.0 86.0 28.0 L86.0 28.0 Z"></path>
<path fill="#224455" fill-opacity="1.0"  filling="0" d="M86.0 28.0 L86.0 28.0 C86.0 28.0 86.0 28.0 86.0 28.0 L114.0 28.0 C114.0 28.0 114.0 28.0 114.0 28.0 L114.0 28.0 C114.0 28.0 114.0 28.0 114.0 28.0 L86.0 28.0 C86.0 28.0 86.0 28.0 86.0 28.0 L86.0 28.0 Z"></path>
<path fill="#224455" fill-opacity="1.0"  filling="0" d="M86.0 28.0 L86.0 28.0 C86.0 28.0 86.0 28.0 86.0 28.0 L114.0 28.0 C114.0 28.0 114.0 28.0 114.0 28.0 L114.0 28.0 C114.0 28.0 114.0 28.0 114.0 28.0 L86.0 28.0 C86.0 28.0 86.0 28.0 86.0 28.0 L86.0 28.0 Z"></path>
<path fill="#224455" fill-opacity="1.0"  filling="0" d="M86.0 28.0 L86.0 28.0 C86.0 28.0 86.0 28.0 86.0 28.0 L114.0 28.0 C114.0 28.0 114.0 28.0 114.0 28.0 L114.0 28.0 C114.0 28.0 114.0 28.0 114.0 28.0 L86.0 28.0 C86.0 28.0 86.0 28.0 86.0 28.0 L86.0 28.0 Z"></path>
<path fill="#224455" fill-opacity="1.0"  filling="0" d="M86.0 28.0 L86.0 28.0 C86.0 28.0 86.0 28.0 86.0 28.0 L114.0 28.0 C114.0 28.0 114.0 28.0 114.0 28.0 L114.0 28.0 C114.0 28.0 114.0 28.0 114.0 28.0 L86.0 28.0 C86.0 28.0 86.0 28.0 86.0 28.0 L86.0 28.0 Z"></path>
<path fill="#224455" fill-opacity="1.0"  filling="0" d="M86.0 28.0 L86.0 28.0 C86.0 28.0 86.0 28.0 86.0 28.0 L114.0 28.0 C114.0 28.0 114.0 28.0 114.0 28.0 L114.0 28.0 C114.0 28.0 114.0 28.0 114.0 28.0 L86.0 28.0 C86.0 28.0 86.0 28.0 86.0 28.0 L86.0 28.0 Z"></path>
<path fill="#224455" fill-opacity="1.0"  filling="0" d="M86.0 28.0 L86.0 28.0 C86.0 28.0 86.0 28.0 86.0 28.0 L114.0 28.0 C114.0 28.0 114.0 28.0 114.0 28.0 L114.0 28.0 C114.0 28.0 114.0 28.0 114.0 28.0 L86.0 28.0 C86.0 28.0 86.0 28.0 86.0 28.0 L86.0 28.0 Z"></path>
<path fill="#224455" fill-opacity="1.0"  filling="0" d="M86.0 28.0 L86.0 28.0 C86.0 28.0 86.0 28.0 86.0 28.0 L114.0 28.0 C114.0 28.0 114.0 28.0 114.0 28.0 L114.0 28.0 C114.0 28.0 114.0 28.0 114.0 28.0 L86.0 28.0 C86.0 28.0 86.0 28.0 86.0 28.0 L86.0 28.0 Z"></path>
<path fill="#224455" fill-opacity="1.0"  filling="0" d="M86.0 28.0 L86.0 28.0 C86.0 28.0 86.0 28.0 86.0 28.0 L114.0 28.0 C114.0 28.0 114.0 28.0 114.0 28.0 L114.0 28.0 C114.0 28.0 114.0 28.0 114.0 28.0 L86.0 28.0 C86.0 28.0 86.0 28.0 86.0 28.0 L86.0 28.0 Z"></path>
<path fill="#224455" fill-opacity="1.0"  filling="0" d="M86.0 27.0 L86.0 27.0 C86.0 27.0 86.0 27.0 86.0 27.0 L114.0 27.0 C114.0 27.0 114.0 27.0 114.0 27.0 L114.0 27.0 C114.0 27.0 114.0 27.0 114.0 27.0 L86.0 27.0 C86.0 27.0 86.0 27.0 86.0 27.0 L86.0 27.0 Z"></path>
<path fill="#224455" fill-opacity="1.0"  filling="0" d="M86.0 27.0 L86.0 27.0 C86.0 27.0 86.0 27.0 86.0 27.0 L114.0 27.0 C114.0 27.0 114.0 27.0 114.0 27.0 L114.0 27.0 C114.0 27.0 114.0 27.0 114.0 27.0 L86.0 27.0 C86.0 27.0 86.0 27.0 86.0 27.0 L86.0 27.0 Z"></path>
<path fill="#224455" fill-opacity="1.0"  filling="0" d="M86.0 27.0 L86.0 27.0 C86.0 27.0 86.0 27.0 86.0 27.0 L114.0 27.0 C114.0 27.0 114.0 27.0 114.0 27.0 L114.0 27.0 C114.0 27.0 114.0 27.0 114.0 27.0 L86.0 27.0 C86.0 27.0 86.0 27.0 86.0 27.0 L86.0 27.0 Z"></path>
<path fill="#224455" fill-opacity="1.0"  filling="0" d="M86.0 27.0 L86.0 27.0 C86.0 27.0 86.0 27.0 86.0 27.0 L114.0 27.0 C114.0 27.0 114.0 27.0 114.0 27.0 L114.0 27.0 C114.0 27.0 114.0 27.0 114.0 27.0 L86.0 27.0 C86.0 27.0 86.0 27.0 86.0 27.0 L86.0 27.0 Z"></path>
<path fill="#224455" fill-opacity="1.0"  filling="0" d="M86.0 27.0 L86.0 27.0 C86.0 27.0 86.0 27.0 86.0 27.0 L114.0 27.0 C114.0 27.0 114.0 27.0 114.0 27.0 L114.0 27.0 C114.0 27.0 114.0 27.0 114.0 27.0 L86.0 27.0 C86.0 27.0 86.0 27.0 86.0 27.0 L86.0 27.0 Z"></path>
<path fill="#224455" fill-opacity="1.0"  filling="0" d="M86.0 27.0 L86.0 27.0 C86.0 27.0 86.0 27.0 86.0 27.0 L114.0 27.0 C114.0 27.0 114.0 27.0 114.0 27.0 L114.0 27.0 C114.0 27.0 114.0 27.0 114.0 27.0 L86.0 27.0 C86.0 27.0 86.0 27.0 86.0 27.0 L86.0 27.0 Z"></path>
<path fill="#224455" fill-opacity="1.0"  filling="0" d="M86.0 27.0 L86.0 27.0 C86.0 27.0 86.0 27.0 86.0 27.0 L114.0 27.0 C114.0 27.0 114.0 27.0 114.0 27.0 L114.0 27.0 C114.0 27.0 114.0 27.0 114.0 27.0 L86.0 27.0 C86.0 27.0 86.0 27.0 86.0 27.0 L86.0 27.0 Z"></path>
<path fill="#224455" fill-opacity="1.0"  filling="0" d="M86.0 27.0 L86.0 27.0 C86.0 27.0 86.0 27.0 86.0 27.0 L114.0 27.0 C114.0 27.0 114.0 27.0 114.0 27.0 L114.0 27.0 C114.0 27.0 114.0 27.0 114.0 27.0 L86.0 27.0 C86.0 27.0 86.0 27.0 86.0 27.0 L86.0 27.0 Z"></path>
<path fill="#224455" fill-opacity="1.0"  filling="0" d="M86.0 27.0 L86.0 27.0 C86.0 27.0 86.0 27.0 86.0 27.0 L114.0 27.0 C114.0 27.0 114.0 27.0 114.0 27.0 L114.0 27.0 C114.0 27.0 114.0 27.0 114.0 27.0 L86.0 27.0 C86.0 27.0 86.0 27.0 86.0 27.0 L86.0 27.0 Z"></path>
<path fill="#224455" fill-opacity="1.0"  filling="0" d="M86.0 27.0 L86.0 27.0 C86.0 27.0 86.0 27.0 86.0 27.0 L114.0 27.0 C114.0 27.0 114.0 27.0 114.0 27.0 L114.0 27.0 C114.0 27.0 114.0 27.0 114.0 27.0 L86.0 27.0 C86.0 27.0 86.0 27.0 86.0 27.0 L86.0 27.0 Z"></path>
<path fill="#224455" fill-opacity="1.0"  filling="0" d="M86.0 27.0 L86.0 27.0 C86.0 27.0 86.0 27.0 86.0 27.0 L114.0 27.0 C114.0 27.0 114.0 27.0 114.0 27.0 L114.0 27.0 C114.0 27.0 114.0 27.0 114.0 27.0 L86.0 27.0 C86.0 27.0 86.0 27.0 86.0 27.0 L86.0 27.0 Z"></path>
<path fill="#224455" fill-opacity="1.0"  filling="0" d="M86.0 27.0 L86.0 27.0 C86.0 27.0 86.0 27.0 86.0 27.0 L114.0 27.0 C114.0 27.0 114.0 27.0 114.0 27.0 L114.0 27.0 C114.0 27.0 114.0 27.0 114.0 27.0 L86.0 27.0 C86.0 27.0 86.0 27.0 86.0 27.0 L86.0 27.0 Z"></path>
<path fill="none" fill-opacity="1.0" filling="0" d="M0.0 M.0 Z"></path></svg>