<svg xmlns="http://www.w3.org/2000/svg" viewBox="0.0 0.0 200.0 200.0" height="200px" width="200px"><path fill="#224455" fill-opacity="1.0"  filling="0" d="M30.0 180.0 C30.0 180.0 30.0 180.0 30.0 180.0 L169.0 180.0 C169.0 180.0 169.0 180.0 169.0 180.0 C169.0 180.0 169.0 180.0 169.0 180.0 L30.0 180.0 C30.0 180.0 30.0 180.0 30.0 180.0 L30.0 180.0 Z"></path>
<path fill="#224455" fill-opacity="1.0"  filling="0" d="M100.0 56.0 C99.0 56.0 98.0 55.0 98.0 54.0 L98.0 12.0 C98.0 11.0 99.0 10.0 100.0 10.0 C101.0 10.0 102.0 11.0 102.0 12.0 L102.0 54.0 C102.0 55.0 101.0 56.0 100.0 56.0 L100.0 56.0 Z"></path>
<path fill="#224455" fill-opacity="1.0"  filling="0" d="M114.0 12.0 C114.0 15.0 111.0 17.0 108.0 17.0 L92.0 17.0 C89.0 17.0 86.0 15.0 86.0 12.0 C86.0 9.0 89.0 7.0 92.0 7.0 L108.0 7.0 C111.0 7.0 114.0 9.0 114.0 12.0 L114.0 12.0 Z"></path>
<path fill="#224455" fill-opacity="1.0"  filling="0" d="M114.0 28.0 C114.0 30.0 111.0 32.0 108.0 32.0 L92.0 32.0 C89.0 32.0 86.0 30.0 86.0 28.0 C86.0 25.0 89.0 23.0 92.0 23.0 L108.0 23.0 C111.0 23.0 114.0 25.0 114.0 28.0 L114.0 28.0 Z"></path>
<path fill="#224455" fill-opacity="1.0"  filling="0" d="M108.0 49.0 C108.0 50.0 107.0 51.0 106.0 51.0 L94.0 51.0 C93.0 51.0 92.0 50.0 92.0 49.0 L92.0 49.0 C92.0 48.0 93.0 48.0 94.0 48.0 L106.0 48.0 C107.0 48.0 108.0 48.0 108.0 49.0 L108.0 49.0 L108.0 49.0 Z"></path>
<path fill="#224455" fill-opacity="1.0"  filling="0" d="M108.0 60.0 C108.0 61.0 107.0 62.0 106.0 62.0 L94.0 62.0 C93.0 62.0 92.0 61.0 92.0 60.0 L92.0 60.0 C92.0 59.0 93.0 58.0 94.0 58.0 L106.0 58.0 C107.0 58.0 108.0 59.0 108.0 60.0 L108.0 60.0 L108.0 60.0 Z"></path>
<path fill="#224455" fill-opacity="1.0"  filling="0" d="M108.0 132.0 C108.0 133.0 107.0 134.0 106.0 134.0 L94.0 134.0 C93.0 134.0 92.0 133.0 92.0 132.0 L92.0 132.0 C92.0 131.0 93.0 131.0 94.0 131.0 L106.0 131.0 C107.0 131.0 108.0 131.0 108.0 132.0 L108.0 132.0 L108.0 132.0 Z"></path>
<path fill="#224455" fill-opacity="1.0"  filling="0" d="M108.0 143.0 C108.0 144.0 107.0 145.0 106.0 145.0 L94.0 145.0 C93.0 145.0 92.0 144.0 92.0 143.0 L92.0 143.0 C92.0 142.0 93.0 141.0 94.0 141.0 L106.0 141.0 C107.0 141.0 108.0 142.0 108.0 143.0 L108.0 143.0 L108.0 143.0 Z"></path>
<path fill="#224455" fill-opacity="1.0"  filling="0" d="M108.0 166.0 C108.0 167.0 107.0 168.0 106.0 168.0 L94.0 168.0 C93.0 168.0 92.0 167.0 92.0 166.0 L92.0 166.0 C92.0 165.0 93.0 164.0 94.0 164.0 L106.0 164.0 C107.0 164.0 108.0 165.0 108.0 166.0 L108.0 166.0 L108.0 166.0 Z"></path>
<path fill="#224455" fill-opacity="1.0"  filling="0" d="M108.0 177.0 C108.0 178.0 107.0 179.0 106.0 179.0 L94.0 179.0 C93.0 179.0 92.0 178.0 92.0 177.0 L92.0 177.0 C92.0 176.0 93.0 175.0 94.0 175.0 L106.0 175.0 C107.0 175.0 108.0 176.0 108.0 177.0 L108.0 177.0 L108.0 177.0 Z"></path>
<path fill="#224455" fill-opacity="1.0"  filling="0" d="M139.0 132.0 C139.0 133.0 138.0 134.0 137.0 134.0 L124.0 134.0 C123.0 134.0 122.0 133.0 122.0 132.0 L122.0 132.0 C122.0 131.0 123.0 131.0 124.0 131.0 L137.0 131.0 C138.0 131.0 139.0 131.0 139.0 132.0 L139.0 132.0 L139.0 132.0 Z"></path>
<path fill="#224455" fill-opacity="1.0"  filling="0" d="M139.0 143.0 C139.0 144.0 138.0 145.0 137.0 145.0 L124.0 145.0 C123.0 145.0 122.0 144.0 122.0 143.0 L122.0 143.0 C122.0 142.0 123.0 141.0 124.0 141.0 L137.0 141.0 C138.0 141.0 139.0 142.0 139.0 143.0 L139.0 143.0 L139.0 143.0 Z"></path>
<path fill="#224455" fill-opacity="1.0"  filling="0" d="M139.0 166.0 C139.0 167.0 138.0 168.0 137.0 168.0 L124.0 168.0 C123.0 168.0 122.0 167.0 122.0 166.0 L122.0 166.0 C122.0 165.0 123.0 164.0 124.0 164.0 L137.0 164.0 C138.0 164.0 139.0 165.0 139.0 166.0 L139.0 166.0 L139.0 166.0 Z"></path>
<path fill="#224455" fill-opacity="1.0"  filling="0" d="M139.0 177.0 C139.0 178.0 138.0 179.0 137.0 179.0 L124.0 179.0 C123.0 179.0 122.0 178.0 122.0 177.0 L122.0 177.0 C122.0 176.0 123.0 175.0 124.0 175.0 L137.0 175.0 C138.0 175.0 139.0 176.0 139.0 177.0 L139.0 177.0 L139.0 177.0 Z"></path>
<path fill="#224455" fill-opacity="1.0"  filling="0" d="M172.0 132.0 C172.0 133.0 171.0 134.0 170.0 134.0 L157.0 134.0 C156.0 134.0 155.0 133.0 155.0 132.0 L155.0 132.0 C155.0 131.0 156.0 131.0 157.0 131.0 L170.0 131.0 C171.0 131.0 172.0 131.0 172.0 132.0 L172.0 132.0 L172.0 132.0 Z"></path>
<path fill="#224455" fill-opacity="1.0"  filling="0" d="M172.0 143.0 C172.0 144.0 171.0 145.0 170.0 145.0 L157.0 145.0 C156.0 145.0 155.0 144.0 155.0 143.0 L155.0 143.0 C155.0 142.0 156.0 141.0 157.0 141.0 L170.0 141.0 C171.0 141.0 172.0 142.0 172.0 143.0 L172.0 143.0 L172.0 143.0 Z"></path>
<path fill="#224455" fill-opacity="1.0"  filling="0" d="M172.0 166.0 C172.0 167.0 171.0 168.0 170.0 168.0 L157.0 168.0 C156.0 168.0 155.0 167.0 155.0 166.0 L155.0 166.0 C155.0 165.0 156.0 164.0 157.0 164.0 L170.0 164.0 C171.0 164.0 172.0 165.0 172.0 166.0 L172.0 166.0 L172.0 166.0 Z"></path>
<path fill="#224455" fill-opacity="1.0"  filling="0" d="M172.0 177.0 C172.0 178.0 171.0 179.0 170.0 179.0 L157.0 179.0 C156.0 179.0 155.0 178.0 155.0 177.0 L155.0 177.0 C155.0 176.0 156.0 175.0 157.0 175.0 L170.0 175.0 C171.0 175.0 172.0 176.0 172.0 177.0 L172.0 177.0 L172.0 177.0 Z"></path>
<path fill="#224455" fill-opacity="1.0"  filling="0" d="M45.0 132.0 C45.0 133.0 44.0 134.0 43.0 134.0 L30.0 134.0 C29.0 134.0 28.0 133.0 28.0 132.0 L28.0 132.0 C28.0 131.0 29.0 131.0 30.0 131.0 L43.0 131.0 C44.0 131.0 45.0 131.0 45.0 132.0 L45.0 132.0 L45.0 132.0 Z"></path>
<path fill="#224455" fill-opacity="1.0"  filling="0" d="M45.0 143.0 C45.0 144.0 44.0 145.0 43.0 145.0 L30.0 145.0 C29.0 145.0 28.0 144.0 28.0 143.0 L28.0 143.0 C28.0 142.0 29.0 141.0 30.0 141.0 L43.0 141.0 C44.0 141.0 45.0 142.0 45.0 143.0 L45.0 143.0 L45.0 143.0 Z"></path>
<path fill="#224455" fill-opacity="1.0"  filling="0" d="M45.0 166.0 C45.0 167.0 44.0 168.0 43.0 168.0 L30.0 168.0 C29.0 168.0 28.0 167.0 28.0 166.0 L28.0 166.0 C28.0 165.0 29.0 164.0 30.0 164.0 L43.0 164.0 C44.0 164.0 45.0 165.0 45.0 166.0 L45.0 166.0 L45.0 166.0 Z"></path>
<path fill="#224455" fill-opacity="1.0"  filling="0" d="M45.0 177.0 C45.0 178.0 44.0 179.0 43.0 179.0 L30.0 179.0 C29.0 179.0 28.0 178.0 28.0 177.0 L28.0 177.0 C28.0 176.0 29.0 175.0 30.0 175.0 L43.0 175.0 C44.0 175.0 45.0 176.0 45.0 177.0 L45.0 177.0 L45.0 177.0 Z"></path>
<path fill="#224455" fill-opacity="1.0"  filling="0" d="M78.0 132.0 C78.0 133.0 77.0 134.0 76.0 134.0 L63.0 134.0 C62.0 134.0 61.0 133.0 61.0 132.0 L61.0 132.0 C61.0 131.0 62.0 131.0 63.0 131.0 L76.0 131.0 C77.0 131.0 78.0 131.0 78.0 132.0 L78.0 132.0 L78.0 132.0 Z"></path>
<path fill="#224455" fill-opacity="1.0"  filling="0" d="M78.0 143.0 C78.0 144.0 77.0 145.0 76.0 145.0 L63.0 145.0 C62.0 145.0 61.0 144.0 61.0 143.0 L61.0 143.0 C61.0 142.0 62.0 141.0 63.0 141.0 L76.0 141.0 C77.0 141.0 78.0 142.0 78.0 143.0 L78.0 143.0 L78.0 143.0 Z"></path>
<path fill="#224455" fill-opacity="1.0"  filling="0" d="M78.0 166.0 C78.0 167.0 77.0 168.0 76.0 168.0 L63.0 168.0 C62.0 168.0 61.0 167.0 61.0 166.0 L61.0 166.0 C61.0 165.0 62.0 164.0 63.0 164.0 L76.0 164.0 C77.0 164.0 78.0 165.0 78.0 166.0 L78.0 166.0 L78.0 166.0 Z"></path>
<path fill="#224455" fill-opacity="1.0"  filling="0" d="M78.0 177.0 C78.0 178.0 77.0 179.0 76.0 179.0 L63.0 179.0 C62.0 179.0 61.0 178.0 61.0 177.0 L61.0 177.0 C61.0 176.0 62.0 175.0 63.0 175.0 L76.0 175.0 C77.0 175.0 78.0 176.0 78.0 177.0 L78.0 177.0 L78.0 177.0 Z"></path>
<path fill="#224455" fill-opacity="1.0"  filling="0" d="M78.0 132.0 C78.0 133.0 77.0 134.0 76.0 134.0 L63.0 134.0 C62.0 134.0 61.0 133.0 61.0 132.0 L61.0 132.0 C61.0 131.0 62.0 131.0 63.0 131.0 L76.0 131.0 C77.0 131.0 78.0 131.0 78.0 132.0 L78.0 132.0 L78.0 132.0 Z"></path>
<path fill="#224455" fill-opacity="1.0"  filling="0" d="M78.0 143.0 C78.0 144.0 77.0 145.0 76.0 145.0 L63.0 145.0 C62.0 145.0 61.0 144.0 61.0 143.0 L61.0 143.0 C61.0 142.0 62.0 141.0 63.0 141.0 L76.0 141.0 C77.0 141.0 78.0 142.0 78.0 143.0 L78.0 143.0 L78.0 143.0 Z"></path>
<path fill="#224455" fill-opacity="1.0"  filling="0" d="M78.0 166.0 C78.0 167.0 77.0 168.0 76.0 168.0 L63.0 168.0 C62.0 168.0 61.0 167.0 61.0 166.0 L61.0 166.0 C61.0 165.0 62.0 164.0 63.0 164.0 L76.0 164.0 C77.0 164.0 78.0 165.0 78.0 166.0 L78.0 166.0 L78.0 166.0 Z"></path>
<path fill="#224455" fill-opacity="1.0"  filling="0" d="M78.0 177.0 C78.0 178.0 77.0 179.0 76.0 179.0 L63.0 179.0 C62.0 179.0 61.0 178.0 61.0 177.0 L61.0 177.0 C61.0 176.0 62.0 175.0 63.0 175.0 L76.0 175.0 C77.0 175.0 78.0 176.0 78.0 177.0 L78.0 177.0 L78.0 177.0 Z"></path>
<path fill="#224455" fill-opacity="1.0"  filling="0" d="M122.0 132.0 C122.0 133.0 123.0 134.0 124.0 134.0 L137.0 134.0 C138.0 134.0 139.0 133.0 139.0 132.0 L139.0 132.0 C139.0 131.0 138.0 131.0 137.0 131.0 L124.0 131.0 C123.0 131.0 122.0 131.0 122.0 132.0 L122.0 132.0 L122.0 132.0 Z"></path>
<path fill="#224455" fill-opacity="1.0"  filling="0" d="M122.0 143.0 C122.0 144.0 123.0 145.0 124.0 145.0 L137.0 145.0 C138.0 145.0 139.0 144.0 139.0 143.0 L139.0 143.0 C139.0 142.0 138.0 141.0 137.0 141.0 L124.0 141.0 C123.0 141.0 122.0 142.0 122.0 143.0 L122.0 143.0 L122.0 143.0 Z"></path>
<path fill="#224455" fill-opacity="1.0"  filling="0" d="M122.0 166.0 C122.0 167.0 123.0 168.0 124.0 168.0 L137.0 168.0 C138.0 168.0 139.0 167.0 139.0 166.0 L139.0 166.0 C139.0 165.0 138.0 164.0 137.0 164.0 L124.0 164.0 C123.0 164.0 122.0 165.0 122.0 166.0 L122.0 166.0 L122.0 166.0 Z"></path>
<path fill="#224455" fill-opacity="1.0"  filling="0" d="M122.0 177.0 C122.0 178.0 123.0 179.0 124.0 179.0 L137.0 179.0 C138.0 179.0 139.0 178.0 139.0 177.0 L139.0 177.0 C139.0 176.0 138.0 175.0 137.0 175.0 L124.0 175.0 C123.0 175.0 122.0 176.0 122.0 177.0 L122.0 177.0 L122.0 177.0 Z"></path>
<path fill="#224455" fill-opacity="1.0"  filling="0" d="M155.0 132.0 C155.0 133.0 156.0 134.0 157.0 134.0 L170.0 134.0 C171.0 134.0 172.0 133.0 172.0 132.0 L172.0 132.0 C172.0 131.0 171.0 131.0 170.0 131.0 L157.0 131.0 C156.0 131.0 155.0 131.0 155.0 132.0 L155.0 132.0 L155.0 132.0 Z"></path>
<path fill="#224455" fill-opacity="1.0"  filling="0" d="M155.0 143.0 C155.0 144.0 156.0 145.0 157.0 145.0 L170.0 145.0 C171.0 145.0 172.0 144.0 172.0 143.0 L172.0 143.0 C172.0 142.0 171.0 141.0 170.0 141.0 L157.0 141.0 C156.0 141.0 155.0 142.0 155.0 143.0 L155.0 143.0 L155.0 143.0 Z"></path>
<path fill="#224455" fill-opacity="1.0"  filling="0" d="M155.0 166.0 C155.0 167.0 156.0 168.0 157.0 168.0 L170.0 168.0 C171.0 168.0 172.0 167.0 172.0 166.0 L172.0 166.0 C172.0 165.0 171.0 164.0 170.0 164.0 L157.0 164.0 C156.0 164.0 155.0 165.0 155.0 166.0 L155.0 166.0 L155.0 166.0 Z"></path>
<path fill="#224455" fill-opacity="1.0"  filling="0" d="M155.0 177.0 C155.0 178.0 156.0 179.0 157.0 179.0 L170.0 179.0 C171.0 179.0 172.0 178.0 172.0 177.0 L172.0 177.0 C172.0 176.0 171.0 175.0 170.0 175.0 L157.0 175.0 C156.0 175.0 155.0 176.0 155.0 177.0 L155.0 177.0 L155.0 177.0 Z"></path>
<path fill="#224455" fill-opacity="1.0"  filling="0" d="M61.0 132.0 C61.0 133.0 62.0 134.0 63.0 134.0 L76.0 134.0 C77.0 134.0 78.0 133.0 78.0 132.0 L78.0 132.0 C78.0 131.0 77.0 131.0 76.0 131.0 L63.0 131.0 C62.0 131.0 61.0 131.0 61.0 132.0 L61.0 132.0 L61.0 132.0 Z"></path>
<path fill="#224455" fill-opacity="1.0"  filling="0" d="M61.0 143.0 C61.0 144.0 62.0 145.0 63.0 145.0 L76.0 145.0 C77.0 145.0 78.0 144.0 78.0 143.0 L78.0 143.0 C78.0 142.0 77.0 141.0 76.0 141.0 L63.0 141.0 C62.0 141.0 61.0 142.0 61.0 143.0 L61.0 143.0 L61.0 143.0 Z"></path>
<path fill="#224455" fill-opacity="1.0"  filling="0" d="M61.0 166.0 C61.0 167.0 62.0 168.0 63.0 168.0 L76.0 168.0 C77.0 168.0 78.0 167.0 78.0 166.0 L78.0 166.0 C78.0 165.0 77.0 164.0 76.0 164.0 L63.0 164.0 C62.0 164.0 61.0 165.0 61.0 166.0 L61.0 166.0 L61.0 166.0 Z"></path>
<path fill="#000000" fill-opacity="1.0"  filling="0" d="M61.0 177.0 C61.0 178.0 62.0 179.0 63.0 179.0 L76.0 179.0 C77.0 179.0 78.0 178.0 78.0 177.0 L78.0 177.0 C78.0 176.0 77.0 175.0 76.0 175.0 L63.0 175.0 C62.0 175.0 61.0 176.0 61.0 177.0 L61.0 177.0 L61.0 177.0 Z"></path></svg>