<svg xmlns="http://www.w3.org/2000/svg" viewBox="0.0 0.0 200.0 200.0" height="200px" width="200px"><path fill="#224455" fill-opacity="1.0"  filling="0" d="M30.0 180.0 C30.0 180.0 30.0 180.0 30.0 180.0 L169.0 180.0 C169.0 180.0 169.0 180.0 169.0 180.0 C169.0 180.0 169.0 180.0 169.0 180.0 L30.0 180.0 C30.0 180.0 30.0 180.0 30.0 180.0 L30.0 180.0 Z"></path>
<path fill="#223344" fill-opacity="1.0"  filling="0" d="M106.0 130.0 L94.0 127.0 L94.0 127.0 L94.0 131.0 L94.0 131.0 L94.0 132.0 L94.0 132.0 L94.0 142.0 L94.0 142.0 L94.0 146.0 L94.0 146.0 L94.0 153.0 L94.0 153.0 L94.0 160.0 L94.0 160.0 L94.0 167.0 L94.0 167.0 L94.0 172.0 L94.0 172.0 L94.0 177.0 L94.0 177.0 L94.0 177.0 L106.0 177.0 L106.0 177.0 L106.0 130.0 L106.0 130.0 Z"></path>
<path fill="#223344" fill-opacity="1.0"  filling="0" d="M106.0 130.0 L94.0 127.0 L94.0 127.0 L94.0 131.0 L94.0 131.0 L94.0 132.0 L94.0 132.0 L94.0 142.0 L94.0 142.0 L94.0 146.0 L94.0 146.0 L94.0 153.0 L94.0 153.0 L94.0 160.0 L94.0 160.0 L94.0 167.0 L94.0 167.0 L94.0 172.0 L94.0 172.0 L94.0 177.0 L94.0 177.0 L94.0 177.0 L106.0 177.0 L106.0 177.0 L106.0 130.0 L106.0 130.0 Z"></path>
<path fill="#223344" fill-opacity="1.0"  filling="0" d="M94.0 130.0 L106.0 127.0 L106.0 127.0 L106.0 131.0 L106.0 131.0 L106.0 132.0 L106.0 132.0 L106.0 142.0 L106.0 142.0 L106.0 146.0 L106.0 146.0 L106.0 153.0 L106.0 153.0 L106.0 160.0 L106.0 160.0 L106.0 167.0 L106.0 167.0 L106.0 172.0 L106.0 172.0 L106.0 177.0 L106.0 177.0 L94.0 177.0 L94.0 177.0 L94.0 177.0 L94.0 172.0 L94.0 172.0 L94.0 167.0 L94.0 167.0 L94.0 160.0 L94.0 160.0 L94.0 153.0 L94.0 153.0 L94.0 146.0 L94.0 146.0 L94.0 142.0 L94.0 142.0 L94.0 132.0 L94.0 132.0 L94.0 131.0 L94.0 131.0 L94.0 127.0 L94.0 130.0 L94.0 130.0 Z"></path>
<path fill="#223344" fill-opacity="1.0"  filling="0" d="M94.0 130.0 L106.0 127.0 L106.0 127.0 L106.0 131.0 L106.0 131.0 L106.0 132.0 L106.0 132.0 L106.0 142.0 L106.0 142.0 L106.0 146.0 L106.0 146.0 L106.0 153.0 L106.0 153.0 L106.0 160.0 L106.0 160.0 L106.0 167.0 L106.0 167.0 L106.0 172.0 L106.0 172.0 L106.0 177.0 L106.0 177.0 L94.0 177.0 L94.0 177.0 L94.0 177.0 L94.0 172.0 L94.0 172.0 L94.0 167.0 L94.0 167.0 L94.0 160.0 L94.0 160.0 L94.0 153.0 L94.0 153.0 L94.0 146.0 L94.0 146.0 L94.0 142.0 L94.0 142.0 L94.0 132.0 L94.0 132.0 L94.0 131.0 L94.0 131.0 L94.0 127.0 L94.0 130.0 L94.0 130.0 Z"></path>
<path fill="#223344" fill-opacity="1.0"  filling="0" d="M106.0 23.0 L94.0 23.0 L94.0 36.0 L94.0 36.0 L94.0 41.0 L94.0 41.0 L94.0 48.0 L94.0 48.0 L94.0 52.0 L94.0 52.0 L94.0 59.0 L94.0 59.0 L94.0 64.0 L94.0 64.0 L94.0 73.0 L94.0 73.0 L94.0 80.0 L94.0 80.0 L94.0 110.0 L94.0 110.0 L94.0 115.0 L94.0 115.0 L94.0 115.0 L106.0 115.0 L106.0 115.0 L106.0 23.0 L106.0 23.0 L106.0 23.0 Z"></path>
<path fill="#223344" fill-opacity="1.0"  filling="0" d="M106.0 23.0 L94.0 23.0 L94.0 36.0 L94.0 36.0 L94.0 41.0 L94.0 41.0 L94.0 48.0 L94.0 48.0 L94.0 52.0 L94.0 52.0 L94.0 59.0 L94.0 59.0 L94.0 64.0 L94.0 64.0 L94.0 73.0 L94.0 73.0 L94.0 80.0 L94.0 80.0 L94.0 110.0 L94.0 110.0 L94.0 115.0 L94.0 115.0 L94.0 115.0 L106.0 115.0 L106.0 115.0 L106.0 23.0 L106.0 23.0 L106.0 23.0 Z"></path>
<path fill="#223344" fill-opacity="1.0"  filling="0" d="M106.0 23.0 L94.0 23.0 L94.0 36.0 L94.0 36.0 L94.0 41.0 L94.0 41.0 L94.0 48.0 L94.0 48.0 L94.0 52.0 L94.0 52.0 L94.0 59.0 L94.0 59.0 L94.0 64.0 L94.0 64.0 L94.0 73.0 L94.0 73.0 L94.0 80.0 L94.0 80.0 L94.0 110.0 L94.0 110.0 L94.0 115.0 L94.0 115.0 L94.0 115.0 L106.0 115.0 L106.0 115.0 L106.0 23.0 L106.0 23.0 L106.0 23.0 Z"></path>
<path fill="#223344" fill-opacity="1.0"  filling="0" d="M106.0 23.0 L94.0 23.0 L94.0 36.0 L94.0 36.0 L94.0 41.0 L94.0 41.0 L94.0 48.0 L94.0 48.0 L94.0 52.0 L94.0 52.0 L94.0 59.0 L94.0 59.0 L94.0 64.0 L94.0 64.0 L94.0 73.0 L94.0 73.0 L94.0 80.0 L94.0 80.0 L94.0 110.0 L94.0 110.0 L94.0 115.0 L94.0 115.0 L94.0 115.0 L106.0 115.0 L106.0 115.0 L106.0 23.0 L106.0 23.0 L106.0 23.0 Z"></path>
<path fill="#223344" fill-opacity="1.0"  filling="0" d="M106.0 23.0 L94.0 23.0 L94.0 36.0 L94.0 36.0 L94.0 41.0 L94.0 41.0 L94.0 48.0 L94.0 48.0 L94.0 52.0 L94.0 52.0 L94.0 59.0 L94.0 59.0 L94.0 64.0 L94.0 64.0 L94.0 73.0 L94.0 73.0 L94.0 80.0 L94.0 80.0 L94.0 110.0 L94.0 110.0 L94.0 115.0 L94.0 115.0 L94.0 115.0 L106.0 115.0 L106.0 115.0 L106.0 23.0 L106.0 23.0 L106.0 23.0 Z"></path>
<path fill="#223344" fill-opacity="1.0"  filling="0" d="M106.0 23.0 L94.0 23.0 L94.0 36.0 L94.0 36.0 L94.0 41.0 L94.0 41.0 L94.0 48.0 L94.0 48.0 L94.0 52.0 L94.0 52.0 L94.0 59.0 L94.0 59.0 L94.0 64.0 L94.0 64.0 L94.0 73.0 L94.0 73.0 L94.0 80.0 L94.0 80.0 L94.0 110.0 L94.0 110.0 L94.0 115.0 L94.0 115.0 L94.0 115.0 L106.0 115.0 L106.0 115.0 L106.0 23.0 L106.0 23.0 L106.0 23.0 Z"></path>
<path fill="#223344" fill-opacity="1.0"  filling="0" d="M106.0 23.0 L94.0 23.0 L94.0 36.0 L94.0 36.0 L94.0 41.0 L94.0 41.0 L94.0 48.0 L94.0 48.0 L94.0 52.0 L94.0 52.0 L94.0 59.0 L94.0 59.0 L94.0 64.0 L94.0 64.0 L94.0 73.0 L94.0 73.0 L94.0 80.0 L94.0 80.0 L94.0 110.0 L94.0 110.0 L94.0 115.0 L94.0 115.0 L94.0 115.0 L106.0 115.0 L106.0 115.0 L106.0 23.0 L106.0 23.0 L106.0 23.0 Z"></path>
<path fill="#223344" fill-opacity="1.0"  filling="0" d="M106.0 23.0 L94.0 23.0 L94.0 36.0 L94.0 36.0 L94.0 41.0 L94.0 41.0 L94.0 48.0 L94.0 48.0 L94.0 52.0 L94.0 52.0 L94.0 59.0 L94.0 59.0 L94.0 64.0 L94.0 64.0 L94.0 73.0 L94.0 73.0 L94.0 80.0 L94.0 80.0 L94.0 110.0 L94.0 110.0 L94.0 115.0 L94.0 115.0 L94.0 115.0 L106.0 115.0 L106.0 115.0 L106.0 23.0 L106.0 23.0 L106.0 23.0 Z"></path>
<path fill="#223344" fill-opacity="1.0"  filling="0" d="M106.0 23.0 L94.0 23.0 L94.0 36.0 L94.0 36.0 L94.0 41.0 L94.0 41.0 L94.0 48.0 L94.0 48.0 L94.0 52.0 L94.0 52.0 L94.0 59.0 L94.0 59.0 L94.0 64.0 L94.0 64.0 L94.0 73.0 L94.0 73.0 L94.0 80.0 L94.0 80.0 L94.0 110.0 L94.0 110.0 L94.0 115.0 L94.0 115.0 L94.0 115.0 L106.0 115.0 L106.0 115.0 L106.0 23.0 L106.0 23.0 L106.0 23.0 Z"></path>
<path fill="#223344" fill-opacity="1.0"  filling="0" d="M106.0 23.0 L94.0 23.0 L94.0 36.0 L94.0 36.0 L94.0 41.0 L94.0 41.0 L94.0 48.0 L94.0 48.0 L94.0 52.0 L94.0 52.0 L94.0 59.0 L94.0 59.0 L94.0 64.0 L94.0 64.0 L94.0 73.0 L94.0 73.0 L94.0 80.0 L94.0 80.0 L94.0 110.0 L94.0 110.0 L94.0 115.0 L94.0 115.0 L94.0 115.0 L106.0 115.0 L106.0 115.0 L106.0 23.0 L106.0 23.0 L106.0 23.0 Z"></path>
<path fill="#223344" fill-opacity="1.0"  filling="0" d="M106.0 23.0 L94.0 23.0 L94.0 36.0 L94.0 36.0 L94.0 41.0 L94.0 41.0 L94.0 48.0 L94.0 48.0 L94.0 52.0 L94.0 52.0 L94.0 59.0 L94.0 59.0 L94.0 64.0 L94.0 64.0 L94.0 73.0 L94.0 73.0 L94.0 80.0 L94.0 80.0 L94.0 110.0 L94.0 110.0 L94.0 115.0 L94.0 115.0 L94.0 115.0 L106.0 115.0 L106.0 115.0 L106.0 23.0 L106.0 23.0 L106.0 23.0 Z"></path>
<path fill="#223344" fill-opacity="1.0"  filling="0" d="M106.0 23.0 L94.0 23.0 L94.0 36.0 L94.0 36.0 L94.0 41.0 L94.0 41.0 L94.0 48.0 L94.0 48.0 L94.0 52.0 L94.0 52.0 L94.0 59.0 L94.0 59.0 L94.0 64.0 L94.0 64.0 L94.0 73.0 L94.0 73.0 L94.0 80.0 L94.0 80.0 L94.0 110.0 L94.0 110.0 L94.0 115.0 L94.0 115.0 L94.0 115.0 L106.0 115.0 L106.0 115.0 L106.0 23.0 L106.0 23.0 L106.0 23.0 Z"></path>
<path fill="#223344" fill-opacity="1.0"  filling="0" d="M106.0 23.0 L94.0 23.0 L94.0 36.0 L94.0 36.0 L94.0 41.0 L94.0 41.0 L94.0 48.0 L94.0 48.0 L94.0 52.0 L94.0 52.0 L94.0 59.0 L94.0 59.0 L94.0 64.0 L94.0 64.0 L94.0 73.0 L94.0 73.0 L94.0 80.0 L94.0 80.0 L94.0 110.0 L94.0 110.0 L94.0 115.0 L94.0 115.0 L94.0 115.0 L106.0 115.0 L106.0 115.0 L106.0 23.0 L106.0 23.0 L106.0 23.0 Z"></path>
<path fill="#223344" fill-opacity="1.0"  filling="0" d="M106.0 23.0 L94.0 23.0 L94.0 36.0 L94.0 36.0 L94.0 41.0 L94.0 41.0 L94.0 48.0 L94.0 48.0 L94.0 52.0 L94.0 52.0 L94.0 59.0 L94.0 59.0 L94.0 64.0 L94.0 64.0 L94.0 73.0 L94.0 73.0 L94.0 80.0 L94.0 80.0 L94.0 110.0 L94.0 110.0 L94.0 115.0 L94.0 115.0 L94.0 115.0 L106.0 115.0 L106.0 115.0 L106.0 23.0 L106.0 23.0 L106.0 23.0 Z"></path>
<path fill="#223344" fill-opacity="1.0"  filling="0" d="M106.0 23.0 L94.0 23.0 L94.0 36.0 L94.0 36.0 L94.0 41.0 L94.0 41.0 L94.0 48.0 L94.0 48.0 L94.0 52.0 L94.0 52.0 L94.0 59.0 L94.0 59.0 L94.0 64.0 L94.0 64.0 L94.0 73.0 L94.0 73.0 L94.0 80.0 L94.0 80.0 L94.0 110.0 L94.0 110.0 L94.0 115.0 L94.0 115.0 L94.0 115.0 L106.0 115.0 L106.0 115.0 L106.0 23.0 L106.0 23.0 L106.0 23.0 Z"></path>
<path fill="#223344" fill-opacity="1.0"  filling="0" d="M106.0 23.0 L94.0 23.0 L94.0 36.0 L94.0 36.0 L94.0 41.0 L94.0 41.0 L94.0 48.0 L94.0 48.0 L94.0 52.0 L94.0 52.0 L94.0 59.0 L94.0 59.0 L94.0 64.0 L94.0 64.0 L94.0 73.0 L94.0 73.0 L94.0 80.0 L94.0 80.0 L94.0 110.0 L94.0 110.0 L94.0 115.0 L94.0 115.0 L94.0 115.0 L106.0 115.0 L106.0 115.0 L106.0 23.0 L106.0 23.0 L106.0 23.0 Z"></path>
<path fill="#223344" fill-opacity="1.0"  filling="0" d="M106.0 23.0 L94.0 23.0 L94.0 36.0 L94.0 36.0 L94.0 41.0 L94.0 41.0 L94.0 48.0 L94.0 48.0 L94.0 52.0 L94.0 52.0 L94.0 59.0 L94.0 59.0 L94.0 64.0 L94.0 64.0 L94.0 73.0 L94.0 73.0 L94.0 80.0 L94.0 80.0 L94.0 110.0 L94.0 110.0 L94.0 115.0 L94.0 115.0 L94.0 115.0 L106.0 115.0 L106.0 115.0 L106.0 23.0 L106.0 23.0 L106.0 23.0 Z"></path>
<path fill="#223344" fill-opacity="1.0"  filling="0" d="M106.0 23.0 L94.0 23.0 L94.0 36.0 L94.0 36.0 L94.0 41.0 L94.0 41.0 L94.0 48.0 L94.0 48.0 L94.0 52.0 L94.0 52.0 L94.0 59.0 L94.0 59.0 L94.0 64.0 L94.0 64.0 L94.0 73.0 L94.0 73.0 L94.0 80.0 L94.0 80.0 L94.0 110.0 L94.0 110.0 L94.0 115.0 L94.0 115.0 L94.0 115.0 L106.0 115.0 L106.0 115.0 L106.0 23.0 L106.0 23.0 L106.0 23.0 Z"></path>
<path fill="#000000" fill-opacity="1.0"  filling="0" d="M106.0 23.0 L94.0 23.0 L94.0 36.0 L94.0 36.0 L94.0 41.0 L94.0 41.0 L94.0 48.0 L94.0 48.0"></path></svg>