<svg xmlns="http://www.w3.org/2000/svg" viewBox="0.0 0.0 200.0 200.0" height="200px" width="200px"><path fill="#224455" fill-opacity="1.0"  filling="0" d="M30.0 180.0 C30.0 180.0 30.0 180.0 30.0 180.0 L169.0 180.0 C169.0 180.0 169.0 180.0 169.0 180.0 C169.0 180.0 169.0 180.0 169.0 180.0 L30.0 180.0 C30.0 180.0 30.0 180.0 30.0 180.0 L30.0 180.0 Z"></path>
<path fill="#224455" fill-opacity="1.0"  filling="0" d="M100.0 56.0 C99.0 56.0 98.0 55.0 98.0 54.0 L98.0 12.0 C98.0 11.0 99.0 10.0 100.0 10.0 C101.0 10.0 102.0 11.0 102.0 12.0 L102.0 54.0 C102.0 55.0 101.0 56.0 100.0 56.0 L100.0 56.0 Z"></path>
<path fill="#224455" fill-opacity="1.0"  filling="0" d="M114.0 12.0 L86.0 12.0 C85.0 12.0 84.0 11.0 84.0 10.0 C84.0 9.0 85.0 8.0 86.0 8.0 L114.0 8.0 C115.0 8.0 116.0 9.0 116.0 10.0 C116.0 11.0 115.0 12.0 114.0 12.0 L114.0 12.0 Z"></path>
<path fill="#224455" fill-opacity="1.0"  filling="0" d="M86.0 28.0 L86.0 28.0 C86.0 27.0 86.0 27.0 86.0 27.0 L95.0 18.0 C96.0 18.0 96.0 18.0 96.0 18.0 L96.0 18.0 C96.0 19.0 96.0 19.0 96.0 19.0 L87.0 28.0 C87.0 28.0 86.0 28.0 86.0 28.0 L86.0 28.0 Z"></path>
<path fill="#224455" fill-opacity="1.0"  filling="0" d="M114.0 28.0 L114.0 28.0 C114.0 27.0 114.0 27.0 114.0 27.0 L105.0 18.0 C104.0 18.0 104.0 18.0 104.0 18.0 L104.0 18.0 C104.0 19.0 104.0 19.0 104.0 19.0 L113.0 28.0 C113.0 28.0 114.0 28.0 114.0 28.0 L114.0 28.0 Z"></path>
<path fill="#224455" fill-opacity="1.0"  filling="0" d="M86.0 28.0 L86.0 28.0 C86.0 27.0 86.0 27.0 86.0 27.0 L95.0 18.0 C96.0 18.0 96.0 18.0 96.0 18.0 L96.0 18.0 C96.0 19.0 96.0 19.0 96.0 19.0 L87.0 28.0 C87.0 28.0 86.0 28.0 86.0 28.0 L86.0 28.0 Z"></path>
<path fill="#224455" fill-opacity="1.0"  filling="0" d="M114.0 28.0 L114.0 28.0 C114.0 27.0 114.0 27.0 114.0 27.0 L105.0 18.0 C104.0 18.0 104.0 18.0 104.0 18.0 L104.0 18.0 C104.0 19.0 104.0 19.0 104.0 19.0 L113.0 28.0 C113.0 28.0 114.0 28.0 114.0 28.0 L114.0 28.0 Z"></path>
<path fill="#224455" fill-opacity="1.0"  filling="0" d="M94.0 51.0 L107.0 51.0 C108.0 51.0 108.0 51.0 108.0 50.0 L108.0 49.0 C108.0 48.0 108.0 48.0 107.0 48.0 L94.0 48.0 C93.0 48.0 92.0 48.0 92.0 49.0 L92.0 50.0 C92.0 51.0 93.0 51.0 94.0 51.0 L94.0 51.0 Z"></path>
<path fill="#224455" fill-opacity="1.0"  filling="0" d="M106.0 70.0 L94.0 70.0 C93.0 70.0 92.0 70.0 92.0 69.0 L92.0 68.0 C92.0 67.0 93.0 67.0 94.0 67.0 L106.0 67.0 C107.0 67.0 107.0 67.0 107.0 68.0 L107.0 69.0 C107.0 70.0 107.0 70.0 106.0 70.0 L106.0 70.0 Z"></path>
<path fill="#224455" fill-opacity="1.0"  filling="0" d="M106.0 96.0 L94.0 96.0 C93.0 96.0 92.0 96.0 92.0 95.0 L92.0 94.0 C92.0 93.0 93.0 93.0 94.0 93.0 L106.0 93.0 C107.0 93.0 107.0 93.0 107.0 94.0 L107.0 95.0 C107.0 96.0 107.0 96.0 106.0 96.0 L106.0 96.0 Z"></path>
<path fill="#224455" fill-opacity="1.0"  filling="0" d="M106.0 121.0 L94.0 121.0 C93.0 121.0 92.0 120.0 92.0 119.0 L92.0 118.0 C92.0 118.0 93.0 117.0 94.0 117.0 L106.0 117.0 C107.0 117.0 107.0 118.0 107.0 118.0 L107.0 119.0 C107.0 120.0 107.0 121.0 106.0 121.0 L106.0 121.0 Z"></path>
<path fill="#224455" fill-opacity="1.0"  filling="0" d="M106.0 147.0 L94.0 147.0 C93.0 147.0 92.0 146.0 92.0 146.0 L92.0 145.0 C92.0 144.0 93.0 144.0 94.0 144.0 L106.0 144.0 C107.0 144.0 107.0 144.0 107.0 145.0 L107.0 146.0 C107.0 146.0 107.0 147.0 106.0 147.0 L106.0 147.0 Z"></path>
<path fill="#224455" fill-opacity="1.0"  filling="0" d="M106.0 170.0 L94.0 170.0 C93.0 170.0 92.0 169.0 92.0 168.0 L92.0 168.0 C92.0 167.0 93.0 166.0 94.0 166.0 L106.0 166.0 C107.0 166.0 107.0 167.0 107.0 168.0 L107.0 168.0 C107.0 169.0 107.0 170.0 106.0 170.0 L106.0 170.0 Z"></path>
<path fill="#224455" fill-opacity="1.0"  filling="0" d="M106.0 70.0 L94.0 70.0 C93.0 70.0 92.0 70.0 92.0 69.0 L92.0 68.0 C92.0 67.0 93.0 67.0 94.0 67.0 L106.0 67.0 C107.0 67.0 107.0 67.0 107.0 68.0 L107.0 69.0 C107.0 70.0 107.0 70.0 106.0 70.0 L106.0 70.0 Z"></path>
<path fill="#224455" fill-opacity="1.0"  filling="0" d="M106.0 96.0 L94.0 96.0 C93.0 96.0 92.0 96.0 92.0 95.0 L92.0 94.0 C92.0 93.0 93.0 93.0 94.0 93.0 L106.0 93.0 C107.0 93.0 107.0 93.0 107.0 94.0 L107.0 95.0 C107.0 96.0 107.0 96.0 106.0 96.0 L106.0 96.0 Z"></path>
<path fill="#224455" fill-opacity="1.0"  filling="0" d="M106.0 121.0 L94.0 121.0 C93.0 121.0 92.0 120.0 92.0 119.0 L92.0 118.0 C92.0 118.0 93.0 117.0 94.0 117.0 L106.0 117.0 C107.0 117.0 107.0 118.0 107.0 118.0 L107.0 119.0 C107.0 120.0 107.0 121.0 106.0 121.0 L106.0 121.0 Z"></path>
<path fill="#224455" fill-opacity="1.0"  filling="0" d="M106.0 147.0 L94.0 147.0 C93.0 147.0 92.0 146.0 92.0 146.0 L92.0 145.0 C92.0 144.0 93.0 144.0 94.0 144.0 L106.0 144.0 C107.0 144.0 107.0 144.0 107.0 145.0 L107.0 146.0 C107.0 146.0 107.0 147.0 106.0 147.0 L106.0 147.0 Z"></path>
<path fill="#224455" fill-opacity="1.0"  filling="0" d="M106.0 170.0 L94.0 170.0 C93.0 170.0 92.0 169.0 92.0 168.0 L92.0 168.0 C92.0 167.0 93.0 166.0 94.0 166.0 L106.0 166.0 C107.0 166.0 107.0 167.0 107.0 168.0 L107.0 168.0 C107.0 169.0 107.0 170.0 106.0 170.0 L106.0 170.0 Z"></path>
<path fill="#224455" fill-opacity="1.0"  filling="0" d="M106.0 51.0 L94.0 51.0 C93.0 51.0 92.0 51.0 92.0 50.0 L92.0 49.0 C92.0 48.0 93.0 48.0 94.0 48.0 L106.0 48.0 C107.0 48.0 107.0 48.0 107.0 49.0 L107.0 50.0 C107.0 51.0 107.0 51.0 106.0 51.0 L106.0 51.0 Z"></path>
<path fill="#224455" fill-opacity="1.0"  filling="0" d="M106.0 17.0 L94.0 17.0 C93.0 17.0 92.0 16.0 92.0 15.0 L92.0 14.0 C92.0 13.0 93.0 13.0 94.0 13.0 L106.0 13.0 C107.0 13.0 107.0 13.0 107.0 14.0 L107.0 15.0 C107.0 16.0 107.0 17.0 106.0 17.0 L106.0 17.0 Z"></path>
<path fill="#224455" fill-opacity="1.0"  filling="0" d="M106.0 70.0 L94.0 70.0 C93.0 70.0 92.0 70.0 92.0 69.0 L92.0 68.0 C92.0 67.0 93.0 67.0 94.0 67.0 L106.0 67.0 C107.0 67.0 107.0 67.0 107.0 68.0 L107.0 69.0 C107.0 70.0 107.0 70.0 106.0 70.0 L106.0 70.0 Z"></path>
<path fill="#224455" fill-opacity="1.0"  filling="0" d="M106.0 96.0 L94.0 96.0 C93.0 96.0 92.0 96.0 92.0 95.0 L92.0 94.0 C92.0 93.0 93.0 93.0 94.0 93.0 L106.0 93.0 C107.0 93.0 107.0 93.0 107.0 94.0 L107.0 95.0 C107.0 96.0 107.0 96.0 106.0 96.0 L106.0 96.0 Z"></path>
<path fill="#224455" fill-opacity="1.0"  filling="0" d="M106.0 121.0 L94.0 121.0 C93.0 121.0 92.0 120.0 92.0 119.0 L92.0 118.0 C92.0 118.0 93.0 117.0 94.0 117.0 L106.0 117.0 C107.0 117.0 107.0 118.0 107.0 118.0 L107.0 119.0 C107.0 120.0 107.0 121.0 106.0 121.0 L106.0 121.0 Z"></path>
<path fill="#224455" fill-opacity="1.0"  filling="0" d="M106.0 147.0 L94.0 147.0 C93.0 147.0 92.0 146.0 92.0 146.0 L92.0 145.0 C92.0 144.0 93.0 144.0 94.0 144.0 L106.0 144.0 C107.0 144.0 107.0 144.0 107.0 145.0 L107.0 146.0 C107.0 146.0 107.0 147.0 106.0 147.0 L106.0 147.0 Z"></path>
<path fill="#224455" fill-opacity="1.0"  filling="0" d="M106.0 170.0 L94.0 170.0 C93.0 170.0 92.0 169.0 92.0 168.0 L92.0 168.0 C92.0 167.0 93.0 166.0 94.0 166.0 L106.0 166.0 C107.0 166.0 107.0 167.0 107.0 168.0 L107.0 168.0 C107.0 169.0 107.0 170.0 106.0 170.0 L106.0 170.0 Z"></path>
<path fill="#224455" fill-opacity="1.0"  filling="0" d="M106.0 51.0 L94.0 51.0 C93.0 51.0 92.0 51.0 92.0 50.0 L92.0 49.0 C92.0 48.0 93.0 48.0 94.0 48.0 L106.0 48.0 C107.0 48.0 107.0 48.0 107.0 49.0 L107.0 50.0 C107.0 51.0 107.0 51.0 106.0 51.0 L106.0 51.0 Z"></path>
<path fill="#224455" fill-opacity="1.0"  filling="0" d="M106.0 17.0 L94.0 17.0 C93.0 17.0 92.0 16.0 92.0 15.0 L92.0 14.0 C92.0 13.0 93.0 13.0 94.0 13.0 L106.0 13.0 C107.0 13.0 107.0 13.0 107.0 14.0 L107.0 15.0 C107.0 16.0 107.0 17.0 106.0 17.0 L106.0 17.0 Z"></path>
<path fill="#224455" fill-opacity="1.0"  filling="0" d="M106.0 29.0 L94.0 29.0 C93.0 29.0 92.0 28.0 92.0 27.0 L92.0 26.0 C92.0 26.0 93.0 25.0 94.0 25.0 L106.0 25.0 C107.0 25.0 107.0 26.0 107.0 26.0 L107.0 27.0 C107.0 28.0 107.0 29.0 106.0 29.0 L106.0 29.0 Z"></path>
<path fill="#224455" fill-opacity="1.0"  filling="0" d="M106.0 70.0 L94.0 70.0 C93.0 70.0 92.0 70.0 92.0 69.0 L92.0 68.0 C92.0 67.0 93.0 67.0 94.0 67.0 L106.0 67.0 C107.0 67.0 107.0 67.0 107.0 68.0 L107.0 69.0 C107.0 70.0 107.0 70.0 106.0 70.0 L106.0 70.0 Z"></path>
<path fill="#224455" fill-opacity="1.0"  filling="0" d="M106.0 96.0 L94.0 96.0 C93.0 96.0 92.0 96.0 92.0 95.0 L92.0 94.0 C92.0 93.0 93.0 93.0 94.0 93.0 L106.0 93.0 C107.0 93.0 107.0 93.0 107.0 94.0 L107.0 95.0 C107.0 96.0 107.0 96.0 106.0 96.0 L106.0 96.0 Z"></path>
<path fill="#224455" fill-opacity="1.0"  filling="0" d="M106.0 121.0 L94.0 121.0 C93.0 121.0 92.0 120.0 92.0 119.0 L92.0 118.0 C92.0 118.0 93.0 117.0 94.0 117.0 L106.0 117.0 C107.0 117.0 107.0 118.0 107.0 118.0 L107.0 119.0 C107.0 120.0 107.0 121.0 106.0 121.0 L106.0 121.0 Z"></path>
<path fill="#224455" fill-opacity="1.0"  filling="0" d="M106.0 147.0 L94.0 147.0 C93.0 147.0 92.0 146.0 92.0 146.0 L92.0 145.0 C92.0 144.0 93.0 144.0 94.0 144.0 L106.0 144.0 C107.0 144.0 107.0 144.0 107.0 145.0 L107.0 146.0 C107.0 146.0 107.0 147.0 106.0 147.0 L106.0 147.0 Z"></path>
<path fill="#224455" fill-opacity="1.0"  filling="0" d="M106.0 170.0 L94.0 170.0 C93.0 170.0 92.0 169.0 92.0 168.0 L92.0 168.0 C92.0 167.0 93.0 166.0 94.0 166.0 L106.0 166.0 C107.0 166.0 107.0 167.0 107.0 168.0 L107.0 168.0 C107.0 169.0 107.0 170.0 106.0 170.0 L106.0 170.0 Z"></path>
<path fill="#224455" fill-opacity="1.0"  filling="0" d="M106.0 51.0 L94.0 51.0 C93.0 51.0 92.0 51.0 92.0 50.0 L92.0 49.0 C92.0 48.0 93.0 48.0 94.0 48.0 L106.0 48.0 C107.0 48.0 107.0 48.0 107.0 49.0 L107.0 50.0 C107.0 51.0 107.0 51.0 106.0 51.0 L106.0 51.0 Z"></path>
<path fill="#224455" fill-opacity="1.0"  filling="0" d="M106.0 17.0 L94.0 17.0 C93.0 17.0 92.0 16.0 92.0 15.0 L92.0 14.0 C92.0 13.0 93.0 13.0 94.0 13.0 L106.0 13.0 C107.0 13.0 107.0 13.0 107.0 14.0 L107.0 15.0 C107.0 16.0 107.0 17.0 106.0 17.0 L106.0 17.0 Z"></path>
<path fill="#224455" fill-opacity="1.0"  filling="0" d="M106.0 29.0 L94.0 29.0 C93.0 29.0 92.0 28.0 92.0 27.0 L92.0 26.0 C92.0 26.0 93.0 25.0 94.0 25.0 L106.0 25.0 C107.0 25.0 107.0 26.0 107.0 26.0 L107.0 27.0 C107.0 28.0 107.0 29.0 106.0 29.0 L106.0 29.0 Z"></path>
<path fill="#224455" fill-opacity="1.0"  filling="0" d="M106.0 70.0 L94.0 70.0 C93.0 70.0 92.0 70.0 92.0 69.0 L92.0 68.0 C92.0 67.0 93.0 67.0 94.0 67.0 L106.0 67.0 C107.0 67.0 107.0 67.0 107.0 68.0 L107.0 69.0 C107.0 70.0 107.0 70.0 106.0 70.0 L106.0 70.0 Z"></path>
<path fill="#224455" fill-opacity="1.0"  filling="0" d="M106.0 96.0 L94.0 96.0 C93.0 96.0 92.0 96.0 92.0 95.0 L92.0 94.0 C92.0 93.0 93.0 93.0 94.0 93.0 L106.0 93.0 C107.0 93.0 107.0 93.0 107.0 94.0 L107.0 95.0 C107.0 96.0 107.0 96.0 106.0 96.0 L106.0 96.0 Z"></path>
<path fill="#224455" fill-opacity="1.0"  filling="0" d="M106.0 121.0 L94.0 121.0 C93.0 121.0 92.0 120.0 92.0 119.0 L92.0 118.0 C92.0 118.0 93.0 117.0 94.0 117.0 L106.0 117.0 C107.0 117.0 107.0 118.0 107.0 118.0 L107.0 119.0 C107.0 120.0 107.0 121.0 106.0 121.0 L106.0 121.0 Z"></path>
<path fill="#224455" fill-opacity="1.0"  filling="0" d="M106.0 147.0 L94.0 147.0 C93.0 147.0 92.0 146.0 92.0 146.0 L92.0 145.0 C92.0 144.0 93.0 144.0 94.0 144.0 L106.0 144.0 C107.0 144.0 107.0 144.0 107.0 145.0 L107.0 146.0 C107.0 146.0 107.0 147.0 106.0 147.0 L106.0 147.0 Z"></path>
<path fill="#224455" fill-opacity="1.0"  filling="0" d="M106.0 170.0 L94.0 170.0 C93.0 170.0 92.0 169.0 92.0 168.0 L92.0 168.0 C92.0 167.0 93.0 166.0 94.0 166.0 L106.0 166.0 C107.0 166.0 107.0 167.0 107.0 168.0 L107.0 168.0 C107.0 169.0 107.0 170.0 106.0 170.0 L106.0 170.0 Z"></path>
<path fill="#000000" fill-opacity="1.0"  filling="0" d="M106.0 51.0 L94.0 51.0 C93.0 51.0 92.0 51.0 92.0 50.0 L92.0 49.0 C92.0 48.0 93.0 48.0 94.0 48.0 L106.0 48.0 C107.0 48.0 107.0 48.0 107.0 49.0 L107.0 50.0 C107.0 51.0 107.0 51.0 106.0 51.0"></path></svg>