<svg xmlns="http://www.w3.org/2000/svg" viewBox="0.0 0.0 200.0 200.0" height="200px" width="200px"><path fill="#66bbee" fill-opacity="1.0"  filling="0" d="M100.0 46.0 C130.0 46.0 154.0 70.0 154.0 100.0 C154.0 130.0 130.0 154.0 100.0 154.0 C70.0 154.0 46.0 130.0 46.0 100.0 C46.0 70.0 70.0 46.0 100.0 46.0 L100.0 46.0 Z M100.0 63.0 C79.0 63.0 63.0 79.0 63.0 100.0 C63.0 121.0 79.0 137.0 100.0 137.0 C121.0 137.0 137.0 121.0 137.0 100.0 C137.0 79.0 121.0 63.0 100.0 63.0 L100.0 63.0 Z"></path>
<path fill="#4499ee" fill-opacity="1.0"  filling="0" d="M100.0 70.0 C83.0 70.0 70.0 83.0 70.0 100.0 C70.0 117.0 83.0 130.0 100.0 130.0 C117.0 130.0 130.0 117.0 130.0 100.0 C130.0 83.0 117.0 70.0 100.0 70.0 L100.0 70.0 Z M100.0 78.0 C112.0 78.0 122.0 88.0 122.0 100.0 C122.0 112.0 112.0 122.0 100.0 122.0 C88.0 122.0 78.0 112.0 78.0 100.0 C78.0 88.0 88.0 78.0 100.0 78.0 L100.0 78.0 Z"></path>
<path fill="#555566" fill-opacity="1.0"  filling="0" d="M100.0 36.0 C135.0 36.0 164.0 65.0 164.0 100.0 C164.0 135.0 135.0 164.0 100.0 164.0 C65.0 164.0 36.0 135.0 36.0 100.0 C36.0 65.0 65.0 36.0 100.0 36.0 L100.0 36.0 Z M100.0 46.0 C70.0 46.0 46.0 70.0 46.0 100.0 C46.0 130.0 70.0 154.0 100.0 154.0 C130.0 154.0 154.0 130.0 154.0 100.0 C154.0 70.0 130.0 46.0 100.0 46.0 L100.0 46.0 Z"></path>
<path fill="#555566" fill-opacity="1.0"  filling="0" d="M100.0 70.0 C117.0 70.0 130.0 83.0 130.0 100.0 C130.0 117.0 117.0 130.0 100.0 130.0 C83.0 130.0 70.0 117.0 70.0 100.0 C70.0 83.0 83.0 70.0 100.0 70.0 L100.0 70.0 Z M100.0 78.0 C88.0 78.0 78.0 88.0 78.0 100.0 C78.0 112.0 88.0 122.0 100.0 122.0 C112.0 122.0 122.0 112.0 122.0 100.0 C122.0 88.0 112.0 78.0 100.0 78.0 L100.0 78.0 Z"></path>
<path fill="#66bbee" fill-opacity="1.0"  filling="0" d="M100.0 63.0 C121.0 63.0 137.0 79.0 137.0 100.0 C137.0 121.0 121.0 137.0 100.0 137.0 C79.0 137.0 63.0 121.0 63.0 100.0 C63.0 79.0 79.0 63.0 100.0 63.0 L100.0 63.0 Z M100.0 70.0 C83.0 70.0 70.0 83.0 70.0 100.0 C70.0 117.0 83.0 130.0 100.0 130.0 C117.0 130.0 130.0 117.0 130.0 100.0 C130.0 83.0 117.0 70.0 100.0 70.0 L100.0 70.0 Z"></path>
<path fill="#4499ee" fill-opacity="1.0"  filling="0" d="M100.0 70.0 C83.0 70.0 70.0 83.0 70.0 100.0 C70.0 117.0 83.0 130.0 100.0 130.0 C117.0 130.0 130.0 117.0 130.0 100.0 C130.0 83.0 117.0 70.0 100.0 70.0 L100.0 70.0 Z M100.0 78.0 C112.0 78.0 122.0 88.0 122.0 100.0 C122.0 112.0 112.0 122.0 100.0 122.0 C88.0 122.0 78.0 112.0 78.0 100.0 C78.0 88.0 88.0 78.0 100.0 78.0 L100.0 78.0 Z"></path>
<path fill="#66bbee" fill-opacity="1.0"  filling="0" d="M100.0 70.0 C83.0 70.0 70.0 83.0 70.0 100.0 C70.0 117.0 83.0 130.0 100.0 130.0 C117.0 130.0 130.0 117.0 130.0 100.0 C130.0 83.0 117.0 70.0 100.0 70.0 L100.0 70.0 Z M100.0 78.0 C112.0 78.0 122.0 88.0 122.0 100.0 C122.0 112.0 112.0 122.0 100.0 122.0 C88.0 122.0 78.0 112.0 78.0 100.0 C78.0 88.0 88.0 78.0 100.0 78.0 L100.0 78.0 Z"></path>
<path fill="#4499ee" fill-opacity="1.0"  filling="0" d="M100.0 70.0 C83.0 70.0 70.0 83.0 70.0 100.0 C70.0 117.0 83.0 130.0 100.0 130.0 C117.0 130.0 130.0 117.0 130.0 100.0 C130.0 83.0 117.0 70.0 100.0 70.0 L100.0 70.0 Z M100.0 78.0 C112.0 78.0 122.0 88.0 122.0 100.0 C122.0 112.0 112.0 122.0 100.0 122.0 C88.0 122.0 78.0 112.0 78.0 100.0 C78.0 88.0 88.0 78.0 100.0 78.0 L100.0 78.0 Z"></path>
<path fill="#66bbee" fill-opacity="1.0"  filling="0" d="M100.0 70.0 C83.0 70.0 70.0 83.0 70.0 100.0 C70.0 117.0 83.0 130.0 100.0 130.0 C117.0 130.0 130.0 117.0 130.0 100.0 C130.0 83.0 117.0 70.0 100.0 70.0 L100.0 70.0 Z M100.0 78.0 C112.0 78.0 122.0 88.0 122.0 100.0 C122.0 112.0 112.0 122.0 100.0 122.0 C88.0 122.0 78.0 112.0 78.0 100.0 C78.0 88.0 88.0 78.0 100.0 78.0 L100.0 78.0 Z"></path>
<path fill="#4499ee" fill-opacity="1.0"  filling="0" d="M100.0 70.0 C83.0 70.0 70.0 83.0 70.0 100.0 C70.0 117.0 83.0 130.0 100.0 130.0 C117.0 130.0 130.0 117.0 130.0 100.0 C130.0 83.0 117.0 70.0 100.0 70.0 L100.0 70.0 Z M100.0 78.0 C112.0 78.0 122.0 88.0 122.0 100.0 C122.0 112.0 112.0 122.0 100.0 122.0 C88.0 122.0 78.0 112.0 78.0 100.0 C78.0 88.0 88.0 78.0 100.0 78.0 L100.0 78.0 Z"></path>
<path fill="#66bbee" fill-opacity="1.0"  filling="0" d="M100.0 70.0 C83.0 70.0 70.0 83.0 70.0 100.0 C70.0 117.0 83.0 130.0 100.0 130.0 C117.0 130.0 130.0 117.0 130.0 100.0 C130.0 83.0 117.0 70.0 100.0 70.0 L100.0 70.0 Z M100.0 78.0 C112.0 78.0 122.0 88.0 122.0 100.0 C122.0 112.0 112.0 122.0 100.0 122.0 C88.0 122.0 78.0 112.0 78.0 100.0 C78.0 88.0 88.0 78.0 100.0 78.0 L100.0 78.0 Z"></path>
<path fill="#4499ee" fill-opacity="1.0"  filling="0" d="M100.0 70.0 C83.0 70.0 70.0 83.0 70.0 100.0 C70.0 117.0 83.0 130.0 100.0 130.0 C117.0 130.0 130.0 117.0 130.0 100.0 C130.0 83.0 117.0 70.0 100.0 70.0 L100.0 70.0 Z M100.0 78.0 C112.0 78.0 122.0 88.0 122.0 100.0 C122.0 112.0 112.0 122.0 100.0 122.0 C88.0 122.0 78.0 112.0 78.0 100.0 C78.0 88.0 88.0 78.0 100.0 78.0 L100.0 78.0 Z"></path>
<path fill="#66bbee" fill-opacity="1.0"  filling="0" d="M100.0 70.0 C83.0 70.0 70.0 83.0 70.0 100.0 C70.0 117.0 83.0 130.0 100.0 130.0 C117.0 130.0 130.0 117.0 130.0 100.0 C130.0 83.0 117.0 70.0 100.0 70.0 L100.0 70.0 Z M100.0 78.0 C112.0 78.0 122.0 88.0 122.0 100.0 C122.0 112.0 112.0 122.0 100.0 122.0 C88.0 122.0 78.0 112.0 78.0 100.0 C78.0 88.0 88.0 78.0 100.0 78.0 L100.0 78.0 Z"></path>
<path fill="#4499ee" fill-opacity="1.0"  filling="0" d="M100.0 70.0 C83.0 70.0 70.0 83.0 70.0 100.0 C70.0 117.0 83.0 130.0 100.0 130.0 C117.0 130.0 130.0 117.0 130.0 100.0 C130.0 83.0 117.0 70.0 100.0 70.0 L100.0 70.0 Z M100.0 78.0 C112.0 78.0 122.0 88.0 122.0 100.0 C122.0 112.0 112.0 122.0 100.0 122.0 C88.0 122.0 78.0 112.0 78.0 100.0 C78.0 88.0 88.0 78.0 100.0 78.0 L100.0 78.0 Z"></path>
<path fill="#66bbee" fill-opacity="1.0"  filling="0" d="M100.0 70.0 C83.0 70.0 70.0 83.0 70.0 100.0 C70.0 117.0 83.0 130.0 100.0 130.0 C117.0 130.0 130.0 117.0 130.0 100.0 C130.0 83.0 117.0 70.0 100.0 70.0 L100.0 70.0 Z M100.0 78.0 C112.0 78.0 122.0 88.0 122.0 100.0 C122.0 112.0 112.0 122.0 100.0 122.0 C88.0 122.0 78.0 112.0 78.0 100.0 C78.0 88.0 88.0 78.0 100.0 78.0 L100.0 78.0 Z"></path>
<path fill="#4499ee" fill-opacity="1.0"  filling="0" d="M100.0 70.0 C83.0 70.0 70.0 83.0 70.0 100.0 C70.0 117.0 83.0 130.0 100.0 130.0 C117.0 130.0 130.0 117.0 130.0 100.0 C130.0 83.0 117.0 70.0 100.0 70.0 L100.0 70.0 Z M100.0 78.0 C112.0 78.0 122.0 88.0 122.0 100.0 C122.0 112.0 112.0 122.0 100.0 122.0 C88.0 122.0 78.0 112.0 78.0 100.0 C78.0 88.0 88.0 78.0 100.0 78.0 L100.0 78.0 Z"></path>
<path fill="#66bbee" fill-opacity="1.0"  filling="0" d="M100.0 70.0 C83.0 70.0 70.0 83.0 70.0 100.0 C70.0 117.0 83.0 130.0 100.0 130.0 C117.0 130.0 130.0 117.0 130.0 100.0 C130.0 83.0 117.0 70.0 100.0 70.0 L100.0 70.0 Z M100.0 78.0 C112.0 78.0 122.0 88.0 122.0 100.0 C122.0 112.0 112.0 122.0 100.0 122.0 C88.0 122.0 78.0 112.0 78.0 100.0 C78.0 88.0 88.0 78.0 100.0 78.0 L100.0 78.0 Z"></path>
<path fill="#4499ee" fill-opacity="1.0"  filling="0" d="M100.0 70.0 C83.0 70.0 70.0 83.0 70.0 100.0 C70.0 117.0 83.0 130.0 100.0 130.0 C117.0 130.0 130.0 117.0 130.0 100.0 C130.0 83.0 117.0 70.0 100.0 70.0 L100.0 70.0 Z M100.0 78.0 C112.0 78.0 122.0 88.0 122.0 100.0 C122.0 112.0 112.0 122.0 100.0 122.0 C88.0 122.0 78.0 112.0 78.0 100.0 C78.0 88.0 88.0 78.0 100.0 78.0 L100.0 78.0 Z"></path>
<path fill="#66bbee" fill-opacity="1.0"  filling="0" d="M100.0 70.0 C83.0 70.0 70.0 83.0 70.0 100.0 C70.0 117.0 83.0 130.0 100.0 130.0 C117.0 130.0 130.0 117.0 130.0 100.0 C130.0 83.0 117.0 70.0 100.0 70.0 L100.0 70.0 Z M100.0 78.0 C112.0 78.0 122.0 88.0 122.0 100.0 C122.0 112.0 112.0 122.0 100.0 122.0 C88.0 122.0 78.0 112.0 78.0 100.0 C78.0 88.0 88.0 78.0 100.0 78.0 L100.0 78.0 Z"></path>
<path fill="#4499ee" fill-opacity="1.0"  filling="0" d="M100.0 70.0 C83.0 70.0 70.0 83.0 70.0 100.0 C70.0 117.0 83.0 130.0 100.0 130.0 C117.0 130.0 130.0 117.0 130.0 100.0 C130.0 83.0 117.0 70.0 100.0 70.0 L100.0 70.0 Z M100.0 78.0 C112.0 78.0 122.0 88.0 122.0 100.0 C122.0 112.0 112.0 122.0 100.0 122.0 C88.0 122.0 78.0 112.0 78.0 100.0 C78.0 88.0 88.0 78.0 100.0 78.0 L100.0 78.0 Z"></path>
<path fill="#66bbee" fill-opacity="1.0"  filling="0" d="M100.0 70.0 C83.0 70.0 70.0 83.0 70.0 100.0 C70.0 117.0 83.0 130.0 100.0 130.0 C117.0 130.0 130.0 117.0 130.0 100.0 C130.0 83.0 117.0 70.0 100.0 70.0 L100.0 70.0 Z M100.0 78.0 C112.0 78.0 122.0 88.0 122.0 100.0 C122.0 112.0 112.0 122.0 100.0 122.0 C88.0 122.0 78.0 112.0 78.0 100.0 C78.0 88.0 88.0 78.0 100.0 78.0 L100.0 78.0 Z"></path>
<path fill="#4499ee" fill-opacity="1.0"  filling="0" d="M100.0 70.0 C83.0 70.0 70.0 83.0 70.0 100.0 C70.0 117.0 83.0 130.0 100.0 130.0 C117.0 130.0 130.0 117.0 130.0 100.0 C130.0 83.0 117.0 70.0 100.0 70.0 L100.0 70.0 Z M100.0 78.0 C112.0 78.0 122.0 88.0 122.0 100.0 C122.0 112.0 112.0 122.0 100.0 122.0 C88.0 122.0 78.0 112.0 78.0 100.0 C78.0 88.0 88.0 78.0 100.0 78.0 L100.0 78.0 Z"></path>
<path fill="#66bbee" fill-opacity="1.0"  filling="0" d="M100.0 70.0 C83.0 70.0 70.0 83.0 70.0 100.0 C70.0 117.0 83.0 130.0 100.0 130.0 C117.0 130.0 130.0 117.0 130.0 100.0 C130.0 83.0 117.0 70.0 100.0 70.0 L100.0 70.0 Z M100.0 78.0 C112.0 78.0 122.0 88.0 122.0 100.0 C122.0 112.0 112.0 122.0 100.0 122.0 C88.0 122.0 78.0 112.0 78.0 100.0 C78.0 88.0 88.0 78.0 100.0 78.0 L100.0 78.0 Z"></path>
<path fill="#4499ee" fill-opacity="1.0"  filling="0" d="M100.0 70.0 C83.0 70.0 70.0 83.0 70.0 100.0 C70.0 117.0 83.0 130.0 100.0 130.0 C117.0 130.0 130.0 117.0 130.0 100.0 C130.0 83.0 117.0 70.0 100.0 70.0 L100.0 70.0 Z M100.0 78.0 C112.0 78.0 122.0 88.0 122.0 100.0 C122.0 112.0 112.0 122.0 100.0 122.0 C88.0 122.0 78.0 112.0 78.0 100.0 C78.0 88.0 88.0 78.0 100.0 78.0 L100.0 78.0 Z"></path>
<path fill="#66bbee" fill-opacity="1.0"  filling="0" d="M100.0 70.0 C83.0 70.0 70.0 83.0 70.0 100.0 C70.0 117.0 83.0 130.0 100.0 130.0 C117.0 130.0 130.0 117.0 130.0 100.0 C130.0 83.0 117.0 70.0 100.0 70.0 L100.0 70.0 Z M100.0 78.0 C112.0 78.0 122.0 88.0 122.0 100.0 C122.0 112.0 112.0 122.0 100.0 122.0 C88.0 122.0 78.0 112.0 78.0 100.0 C78.0 88.0 88.0 78.0 100.0 78.0 L100.0 78.0 Z"></path>
<path fill="#4499ee" fill-opacity="1.0"  filling="0" d="M100.0 70.0 C83.0 70.0 70.0 83.0 70.0 100.0 C70.0 117.0 83.0 130.0 100.0 130.0 C117.0 130.0 130.0 117.0 130.0 100.0 C130.0 83.0 117.0 70.0 100.0 70.0 L100.0 70.0 Z M100.0 78.0 C112.0 78.0 122.0 88.0 122.0 100.0 C122.0 112.0 112.0 122.0 100.0 122.0 C88.0 122.0 78.0 112.0 78.0 100.0 C78.0 88.0 88.0 78.0 100.0 78.0 L100.0 78.0 Z"></path>
<path fill="#000000" fill-opacity="1.0"  filling="0" d="M100.0 70.0 C83.0 70.0 70.0 83.0 70.0 100.0 C70.0 117.0 83.0 130.0 100.0 130.0 C117.0 130.0 130.0 117.0 130.0 100.0 C130.0 83.0 117.0 70.0 100.0 70.0 L100.0 70.0 Z M100.0 78.0 C112.0 78.0 122.0 88.0 122.0 100.0 C122.0 112.0 112.0 122.0 100.0 122.0 C88.0 122.0 78.0 112.0 78.0 100.0 C78.0 88.0 88.0 78.0 100.0 78.0 L100.0 78.0 Z"></path></svg>