<svg xmlns="http://www.w3.org/2000/svg" viewBox="0.0 0.0 200.0 200.0" height="200px" width="200px"><path fill="#44aadd" fill-opacity="1.0"  filling="0" d="M100.0 152.0 C75.0 152.0 55.0 132.0 55.0 106.0 C55.0 82.0 75.0 63.0 100.0 63.0 C125.0 63.0 145.0 82.0 145.0 106.0 C145.0 132.0 125.0 152.0 100.0 152.0"></path>
<path fill="#445555" fill-opacity="1.0"  filling="0" d="M100.0 62.0 C74.0 62.0 54.0 81.0 54.0 106.0 C54.0 133.0 74.0 153.0 100.0 153.0 C126.0 153.0 146.0 133.0 146.0 106.0 C146.0 81.0 126.0 62.0 100.0 62.0 M100.0 151.0 C76.0 151.0 56.0 131.0 56.0 106.0 C56.0 83.0 76.0 64.0 100.0 64.0 C124.0 64.0 144.0 83.0 144.0 106.0 C144.0 131.0 124.0 151.0 100.0 151.0"></path>
<path fill="#ddeeee" fill-opacity="1.0"  filling="0" d="M16.0 16.0 L16.0 16.0 C7.0 16.0 0.0 23.0 0.0 32.0 L0.0 122.0 C0.0 131.0 7.0 138.0 16.0 138.0 L16.0 138.0 C25.0 138.0 32.0 131.0 32.0 122.0 L32.0 32.0 C32.0 23.0 25.0 16.0 16.0 16.0 L16.0 16.0 Z"></path>
<path fill="#445555" fill-opacity="1.0"  filling="0" d="M16.0 14.0 C6.0 14.0 0.0 22.0 0.0 32.0 L0.0 122.0 C0.0 131.0 6.0 139.0 16.0 139.0 C24.0 139.0 32.0 131.0 32.0 122.0 L32.0 32.0 C32.0 22.0 24.0 14.0 16.0 14.0 M30.0 122.0 C30.0 130.0 24.0 136.0 16.0 136.0 C8.0 136.0 2.0 130.0 2.0 122.0 L2.0 32.0 C2.0 24.0 8.0 17.0 16.0 17.0 C24.0 17.0 30.0 24.0 30.0 32.0 L30.0 122.0 L30.0 122.0 Z"></path>
<path fill="#445555" fill-opacity="1.0"  filling="0" d="M16.0 24.0 C12.0 24.0 9.0 27.0 9.0 32.0 L9.0 122.0 C9.0 126.0 12.0 129.0 16.0 129.0 C20.0 129.0 23.0 126.0 23.0 122.0 L23.0 32.0 C23.0 27.0 20.0 24.0 16.0 24.0 M16.0 16.0 C25.0 16.0 32.0 23.0 32.0 32.0 L32.0 122.0 C32.0 131.0 25.0 138.0 16.0 138.0 C7.0 138.0 0.0 131.0 0.0 122.0 L0.0 32.0 C0.0 23.0 7.0 16.0 16.0 16.0"></path>
<path fill="#ddeeee" fill-opacity="1.0"  filling="0" d="M184.0 16.0 L184.0 16.0 C175.0 16.0 168.0 23.0 168.0 32.0 L168.0 122.0 C168.0 131.0 175.0 138.0 184.0 138.0 L184.0 138.0 C193.0 138.0 199.0 131.0 199.0 122.0 L199.0 32.0 C199.0 23.0 193.0 16.0 184.0 16.0 L184.0 16.0 Z"></path>
<path fill="#445555" fill-opacity="1.0"  filling="0" d="M184.0 14.0 C176.0 14.0 168.0 22.0 168.0 32.0 L168.0 122.0 C168.0 131.0 176.0 139.0 184.0 139.0 C194.0 139.0 199.0 131.0 199.0 122.0 L199.0 32.0 C199.0 22.0 194.0 14.0 184.0 14.0 M198.0 122.0 C198.0 130.0 192.0 136.0 184.0 136.0 C176.0 136.0 170.0 130.0 170.0 122.0 L170.0 32.0 C170.0 24.0 176.0 17.0 184.0 17.0 C192.0 17.0 198.0 24.0 198.0 32.0 L198.0 122.0 L198.0 122.0 Z"></path>
<path fill="#445555" fill-opacity="1.0"  filling="0" d="M184.0 24.0 C180.0 24.0 177.0 27.0 177.0 32.0 L177.0 122.0 C177.0 126.0 180.0 129.0 184.0 129.0 C188.0 129.0 191.0 126.0 191.0 122.0 L191.0 32.0 C191.0 27.0 188.0 24.0 184.0 24.0 M184.0 14.0 C193.0 14.0 199.0 22.0 199.0 32.0 L199.0 122.0 C199.0 131.0 193.0 138.0 184.0 138.0 C175.0 138.0 168.0 131.0 168.0 122.0 L168.0 32.0 C168.0 22.0 175.0 14.0 184.0 14.0"></path>
<path fill="#ddeeee" fill-opacity="1.0"  filling="0" d="M42.0 98.0 C41.0 98.0 40.0 97.0 40.0 96.0 C40.0 64.0 67.0 37.0 100.0 37.0 C133.0 37.0 160.0 64.0 160.0 96.0 C160.0 97.0 159.0 98.0 158.0 98.0 L164.0 98.0 C165.0 98.0 166.0 97.0 166.0 96.0 C166.0 61.0 136.0 33.0 100.0 33.0 C64.0 33.0 34.0 61.0 34.0 96.0 C34.0 97.0 35.0 98.0 36.0 98.0 L42.0 98.0 L42.0 98.0 L42.0 98.0 Z"></path>
<path fill="#445555" fill-opacity="1.0"  filling="0" d="M100.0 32.0 C64.0 32.0 34.0 61.0 34.0 96.0 C34.0 97.0 35.0 98.0 36.0 98.0 L42.0 98.0 C41.0 98.0 40.0 97.0 40.0 96.0 C40.0 64.0 67.0 37.0 100.0 37.0 C133.0 37.0 160.0 64.0 160.0 96.0 C160.0 97.0 159.0 98.0 158.0 98.0 L164.0 98.0 C165.0 98.0 166.0 97.0 166.0 96.0 C166.0 61.0 136.0 32.0 100.0 32.0 M36.0 96.0 C36.0 62.0 65.0 34.0 100.0 34.0 C135.0 34.0 164.0 62.0 164.0 96.0 L159.0 96.0 C159.0 63.0 133.0 36.0 100.0 36.0 C67.0 36.0 41.0 63.0 41.0 96.0 L36.0 96.0 L36.0 96.0 Z"></path>
<path fill="#445555" fill-opacity="1.0"  filling="0" d="M100.0 41.0 C69.0 41.0 44.0 65.0 44.0 96.0 L44.0 96.0 C47.0 66.0 71.0 43.0 100.0 43.0 C129.0 43.0 153.0 66.0 156.0 96.0 L156.0 96.0 C156.0 65.0 131.0 41.0 100.0 41.0 L100.0 41.0 L100.0 41.0 Z"></path>
<path fill="#ee8844" fill-opacity="1.0"  filling="0" d="M45.0 92.0 L32.0 92.0 C29.0 92.0 26.0 96.0 26.0 100.0 L26.0 122.0 C26.0 127.0 29.0 129.0 32.0 129.0 L45.0 129.0 C48.0 129.0 51.0 127.0 51.0 122.0 L51.0 100.0 C51.0 96.0 48.0 92.0 45.0 92.0 L45.0 92.0 Z"></path>
<path fill="#445555" fill-opacity="1.0"  filling="0" d="M45.0 91.0 L32.0 91.0 C28.0 91.0 24.0 95.0 24.0 100.0 L24.0 122.0 C24.0 127.0 28.0 131.0 32.0 131.0 L45.0 131.0 C49.0 131.0 53.0 127.0 53.0 122.0 L53.0 100.0 C53.0 95.0 49.0 91.0 45.0 91.0 L45.0 91.0 Z M50.0 122.0 C50.0 126.0 48.0 129.0 45.0 129.0 L32.0 129.0 C29.0 129.0 27.0 126.0 27.0 122.0 L27.0 100.0 C27.0 96.0 29.0 93.0 32.0 93.0 L45.0 93.0 C48.0 93.0 50.0 96.0 50.0 100.0 L50.0 122.0 L50.0 122.0 Z"></path>
<path fill="#ff9944" fill-opacity="1.0"  filling="0" d="M45.0 96.0 L32.0 96.0 C31.0 96.0 29.0 98.0 29.0 100.0 L29.0 122.0 C29.0 124.0 31.0 126.0 32.0 126.0 L45.0 126.0 C47.0 126.0 48.0 124.0 48.0 122.0 L48.0 100.0 C48.0 98.0 47.0 96.0 45.0 96.0 L45.0 96.0 Z"></path>
<path fill="#ee8844" fill-opacity="1.0"  filling="0" d="M168.0 92.0 L155.0 92.0 C152.0 92.0 149.0 96.0 149.0 100.0 L149.0 122.0 C149.0 127.0 152.0 129.0 155.0 129.0 L168.0 129.0 C171.0 129.0 174.0 127.0 174.0 122.0 L174.0 100.0 C174.0 96.0 171.0 92.0 168.0 92.0 L168.0 92.0 Z"></path>
<path fill="#445555" fill-opacity="1.0"  filling="0" d="M168.0 91.0 L155.0 91.0 C151.0 91.0 147.0 95.0 147.0 100.0 L147.0 122.0 C147.0 127.0 151.0 131.0 155.0 131.0 L168.0 131.0 C172.0 131.0 176.0 127.0 176.0 122.0 L176.0 100.0 C176.0 95.0 172.0 91.0 168.0 91.0 L168.0 91.0 Z M173.0 122.0 C173.0 126.0 171.0 129.0 168.0 129.0 L155.0 129.0 C152.0 129.0 150.0 126.0 150.0 122.0 L150.0 100.0 C150.0 96.0 152.0 93.0 155.0 93.0 L168.0 93.0 C171.0 93.0 173.0 96.0 173.0 100.0 L173.0 122.0 L173.0 122.0 Z"></path>
<path fill="#ff9944" fill-opacity="1.0"  filling="0" d="M168.0 96.0 L155.0 96.0 C153.0 96.0 152.0 98.0 152.0 100.0 L152.0 122.0 C152.0 124.0 153.0 126.0 155.0 126.0 L168.0 126.0 C169.0 126.0 171.0 124.0 171.0 122.0 L171.0 100.0 C171.0 98.0 169.0 96.0 168.0 96.0 L168.0 96.0 Z"></path>
<path fill="#55bb77" fill-opacity="1.0"  filling="0" d="M114.0 66.0 C114.0 66.0 105.0 66.0 107.0 76.0 C107.0 76.0 108.0 78.0 107.0 79.0 L104.0 83.0 C104.0 83.0 100.0 89.0 107.0 90.0 C107.0 90.0 112.0 90.0 116.0 85.0 C116.0 85.0 118.0 83.0 122.0 86.0 C122.0 86.0 129.0 88.0 129.0 91.0 C129.0 91.0 130.0 95.0 125.0 93.0 C125.0 93.0 120.0 90.0 114.0 91.0 C114.0 91.0 102.0 92.0 102.0 104.0 C102.0 104.0 101.0 111.0 113.0 111.0 C113.0 111.0 119.0 110.0 119.0 118.0 C119.0 118.0 119.0 122.0 118.0 126.0 C118.0 126.0 116.0 135.0 123.0 135.0 C123.0 135.0 127.0 136.0 131.0 128.0 C131.0 128.0 135.0 123.0 134.0 116.0 C134.0 116.0 133.0 114.0 136.0 112.0 C136.0 112.0 143.0 108.0 136.0 102.0 C136.0 102.0 132.0 100.0 133.0 100.0 C133.0 100.0 134.0 104.0 143.0 104.0 C143.0 104.0 147.0 104.0 150.0 96.0 C150.0 96.0 151.0 74.0 114.0 66.0 L114.0 66.0 Z"></path>
<path fill="#55bb77" fill-opacity="1.0"  filling="0" d="M85.0 65.0 C85.0 65.0 95.0 67.0 90.0 76.0 C90.0 76.0 90.0 78.0 89.0 79.0 L86.0 83.0 C86.0 83.0 83.0 89.0 90.0 88.0 C90.0 88.0 95.0 88.0 99.0 82.0 C99.0 82.0 101.0 80.0 105.0 83.0 C105.0 83.0 111.0 87.0 110.0 90.0 C110.0 90.0 109.0 95.0 102.0 92.0 C102.0 92.0 97.0 91.0 92.0 94.0 C92.0 94.0 82.0 99.0 83.0 109.0 C83.0 109.0 85.0 116.0 96.0 114.0 C96.0 114.0 101.0 113.0 98.0 122.0 C98.0 122.0 97.0 126.0 93.0 131.0 C93.0 131.0 86.0 140.0 89.0 144.0 C89.0 144.0 91.0 148.0 84.0 146.0 C84.0 146.0 79.0 145.0 78.0 131.0 C78.0 131.0 78.0 125.0 71.0 122.0 C71.0 122.0 66.0 118.0 70.0 111.0 C70.0 111.0 71.0 109.0 67.0 107.0 C67.0 107.0 59.0 103.0 67.0 97.0 C67.0 97.0 71.0 96.0 69.0 95.0 C69.0 95.0 67.0 100.0 57.0 101.0 C57.0 101.0 53.0 101.0 50.0 93.0 C50.0 93.0 49.0 74.0 85.0 65.0 L85.0 65.0 Z"></path></svg>