<svg xmlns="http://www.w3.org/2000/svg" viewBox="0.0 0.0 200.0 200.0" height="200px" width="200px"><path fill="#55bbee" fill-opacity="1.0"  filling="0" d="M144.0 106.0 A44.0 44.0 0.0 1 1 56.0 106.0 A44.0 44.0 0.0 1 1 144.0 106.0 L144.0 106.0 Z"></path>
<path fill="#5577cc" fill-opacity="1.0"  filling="0" d="M69.0 106.0 C69.0 81.0 87.0 63.0 109.0 62.0 A44.0 44.0 0.0 0 0 100.0 62.0 C76.0 62.0 56.0 82.0 56.0 106.0 C56.0 130.0 76.0 150.0 100.0 150.0 A44.0 44.0 0.0 0 0 109.0 150.0 C87.0 147.0 69.0 128.0 69.0 106.0 L69.0 106.0 Z"></path>
<path fill="#55bbee" fill-opacity="1.0"  filling="0" d="M117.0 83.0 C122.0 86.0 128.0 90.0 128.0 92.0 C128.0 95.0 121.0 92.0 117.0 92.0 C112.0 92.0 108.0 95.0 108.0 92.0 C108.0 90.0 114.0 86.0 117.0 83.0 L117.0 83.0 Z"></path>
<path fill="#55bbee" fill-opacity="1.0"  filling="0" d="M83.0 117.0 C86.0 122.0 90.0 128.0 90.0 128.0 C89.0 128.0 83.0 128.0 79.0 128.0 C75.0 128.0 72.0 128.0 72.0 127.0 C72.0 126.0 72.0 126.0 83.0 117.0 L83.0 117.0 Z"></path>
<path fill="#55bbee" fill-opacity="1.0"  filling="0" d="M106.0 94.0 C102.0 92.0 97.0 88.0 97.0 83.0 C97.0 79.0 102.0 72.0 106.0 72.0 C110.0 72.0 116.0 79.0 116.0 83.0 C116.0 88.0 110.0 92.0 106.0 94.0 L106.0 94.0 Z"></path>
<path fill="#55bbee" fill-opacity="1.0"  filling="0" d="M72.0 106.0 C72.0 103.0 75.0 103.0 79.0 103.0 C83.0 103.0 89.0 103.0 89.0 106.0 C89.0 108.0 83.0 109.0 79.0 109.0 C75.0 109.0 72.0 108.0 72.0 106.0 L72.0 106.0 Z"></path>
<path fill="#55bbee" fill-opacity="1.0"  filling="0" d="M106.0 94.0 C102.0 92.0 97.0 88.0 97.0 83.0 C97.0 79.0 102.0 72.0 106.0 72.0 C110.0 72.0 116.0 79.0 116.0 83.0 C116.0 88.0 110.0 92.0 106.0 94.0 L106.0 94.0 Z"></path>
<path fill="#55bbee" fill-opacity="1.0"  filling="0" d="M83.0 117.0 C86.0 122.0 90.0 128.0 90.0 128.0 C89.0 128.0 83.0 128.0 79.0 128.0 C75.0 128.0 72.0 128.0 72.0 127.0 C72.0 126.0 72.0 126.0 83.0 117.0 L83.0 117.0 Z"></path>
<path fill="#55bbee" fill-opacity="1.0"  filling="0" d="M106.0 94.0 C102.0 92.0 97.0 88.0 97.0 83.0 C97.0 79.0 102.0 72.0 106.0 72.0 C110.0 72.0 116.0 79.0 116.0 83.0 C116.0 88.0 110.0 92.0 106.0 94.0 L106.0 94.0 Z"></path>
<path fill="#55bbee" fill-opacity="1.0"  filling="0" d="M72.0 106.0 C72.0 103.0 75.0 103.0 79.0 103.0 C83.0 103.0 89.0 103.0 89.0 106.0 C89.0 108.0 83.0 109.0 79.0 109.0 C75.0 109.0 72.0 108.0 72.0 106.0 L72.0 106.0 Z"></path>
<path fill="#55bbee" fill-opacity="1.0"  filling="0" d="M117.0 83.0 C122.0 86.0 128.0 90.0 128.0 92.0 C128.0 95.0 121.0 92.0 117.0 92.0 C112.0 92.0 108.0 95.0 108.0 92.0 C108.0 90.0 114.0 86.0 117.0 83.0 L117.0 83.0 Z"></path>
<path fill="#55bbee" fill-opacity="1.0"  filling="0" d="M83.0 117.0 C86.0 122.0 90.0 128.0 90.0 128.0 C89.0 128.0 83.0 128.0 79.0 128.0 C75.0 128.0 72.0 128.0 72.0 127.0 C72.0 126.0 72.0 126.0 83.0 117.0 L83.0 117.0 Z"></path>
<path fill="#55bbee" fill-opacity="1.0"  filling="0" d="M106.0 94.0 C102.0 92.0 97.0 88.0 97.0 83.0 C97.0 79.0 102.0 72.0 106.0 72.0 C110.0 72.0 116.0 79.0 116.0 83.0 C116.0 88.0 110.0 92.0 106.0 94.0 L106.0 94.0 Z"></path>
<path fill="#55bbee" fill-opacity="1.0"  filling="0" d="M72.0 106.0 C72.0 103.0 75.0 103.0 79.0 103.0 C83.0 103.0 89.0 103.0 89.0 106.0 C89.0 108.0 83.0 109.0 79.0 109.0 C75.0 109.0 72.0 108.0 72.0 106.0 L72.0 106.0 Z"></path>
<path fill="#55bbee" fill-opacity="1.0"  filling="0" d="M117.0 83.0 C122.0 86.0 128.0 90.0 128.0 92.0 C128.0 95.0 121.0 92.0 117.0 92.0 C112.0 92.0 108.0 95.0 108.0 92.0 C108.0 90.0 114.0 86.0 117.0 83.0 L117.0 83.0 Z"></path>
<path fill="#55bbee" fill-opacity="1.0"  filling="0" d="M83.0 117.0 C86.0 122.0 90.0 128.0 90.0 128.0 C89.0 128.0 83.0 128.0 79.0 128.0 C75.0 128.0 72.0 128.0 72.0 127.0 C72.0 126.0 72.0 126.0 83.0 117.0 L83.0 117.0 Z"></path>
<path fill="#55bbee" fill-opacity="1.0"  filling="0" d="M106.0 94.0 C102.0 92.0 97.0 88.0 97.0 83.0 C97.0 79.0 102.0 72.0 106.0 72.0 C110.0 72.0 116.0 79.0 116.0 83.0 C116.0 88.0 110.0 92.0 106.0 94.0 L106.0 94.0 Z"></path>
<path fill="#55bbee" fill-opacity="1.0"  filling="0" d="M72.0 106.0 C72.0 103.0 75.0 103.0 79.0 103.0 C83.0 103.0 89.0 103.0 89.0 106.0 C89.0 108.0 83.0 109.0 79.0 109.0 C75.0 109.0 72.0 108.0 72.0 106.0 L72.0 106.0 Z"></path>
<path fill="#55bbee" fill-opacity="1.0"  filling="0" d="M117.0 83.0 C122.0 86.0 128.0 90.0 128.0 92.0 C128.0 95.0 121.0 92.0 117.0 92.0 C112.0 92.0 108.0 95.0 108.0 92.0 C108.0 90.0 114.0 86.0 117.0 83.0 L117.0 83.0 Z"></path>
<path fill="#55bbee" fill-opacity="1.0"  filling="0" d="M83.0 117.0 C86.0 122.0 90.0 128.0 90.0 128.0 C89.0 128.0 83.0 128.0 79.0 128.0 C75.0 128.0 72.0 128.0 72.0 127.0 C72.0 126.0 72.0 126.0 83.0 117.0 L83.0 117.0 Z"></path>
<path fill="#55bbee" fill-opacity="1.0"  filling="0" d="M106.0 94.0 C102.0 92.0 97.0 88.0 97.0 83.0 C97.0 79.0 102.0 72.0 106.0 72.0 C110.0 72.0 116.0 79.0 116.0 83.0 C116.0 88.0 110.0 92.0 106.0 94.0 L106.0 94.0 Z"></path>
<path fill="#55bbee" fill-opacity="1.0"  filling="0" d="M72.0 106.0 C72.0 103.0 75.0 103.0 79.0 103.0 C83.0 103.0 89.0 103.0 89.0 106.0 C89.0 108.0 83.0 109.0 79.0 109.0 C75.0 109.0 72.0 108.0 72.0 106.0 L72.0 106.0 Z"></path>
<path fill="#55bbee" fill-opacity="1.0"  filling="0" d="M117.0 83.0 C122.0 86.0 128.0 90.0 128.0 92.0 C128.0 95.0 121.0 92.0 117.0 92.0 C112.0 92.0 108.0 95.0 108.0 92.0 C108.0 90.0 114.0 86.0 117.0 83.0 L117.0 83.0 Z"></path>
<path fill="#55bbee" fill-opacity="1.0"  filling="0" d="M83.0 117.0 C86.0 122.0 90.0 128.0 90.0 128.0 C89.0 128.0 83.0 128.0 79.0 128.0 C75.0 128.0 72.0 128.0 72.0 127.0 C72.0 126.0 72.0 126.0 83.0 117.0 L83.0 117.0 Z"></path>
<path fill="#55bbee" fill-opacity="1.0"  filling="0" d="M106.0 94.0 C102.0 92.0 97.0 88.0 97.0 83.0 C97.0 79.0 102.0 72.0 106.0 72.0 C110.0 72.0 116.0 79.0 116.0 83.0 C116.0 88.0 110.0 92.0 106.0 94.0 L106.0 94.0 Z"></path>
<path fill="#55bbee" fill-opacity="1.0"  filling="0" d="M72.0 106.0 C72.0 103.0 75.0 103.0 79.0 103.0 C83.0 103.0 89.0 103.0 89.0 106.0 C89.0 108.0 83.0 109.0 79.0 109.0 C75.0 109.0 72.0 108.0 72.0 106.0 L72.0 106.0 Z"></path>
<path fill="#55bbee" fill-opacity="1.0"  filling="0" d="M117.0 83.0 C122.0 86.0 128.0 90.0 128.0 92.0 C128.0 95.0 121.0 92.0 117.0 92.0 C112.0 92.0 108.0 95.0 108.0 92.0 C108.0 90.0 114.0 86.0 117.0 83.0 L117.0 83.0 Z"></path>
<path fill="#55bbee" fill-opacity="1.0"  filling="0" d="M83.0 117.0 C86.0 122.0 90.0 128.0 90.0 128.0 C89.0 128.0 83.0 128.0 79.0 128.0 C75.0 128.0 72.0 128.0 72.0 127.0 C72.0 126.0 72.0 126.0 83.0 117.0 L83.0 117.0 Z"></path>
<path fill="#55bbee" fill-opacity="1.0"  filling="0" d="M106.0 94.0 C102.0 92.0 97.0 88.0 97.0 83.0 C97.0 79.0 102.0 72.0 106.0 72.0 C110.0 72.0 116.0 79.0 116.0 83.0 C116.0 88.0 110.0 92.0 106.0 94.0 L106.0 94.0 Z"></path>
<path fill="#55bbee" fill-opacity="1.0"  filling="0" d="M72.0 106.0 C72.0 103.0 75.0 103.0 79.0 103.0 C83.0 103.0 89.0 103.0 89.0 106.0 C89.0 108.0 83.0 109.0 79.0 109.0 C75.0 109.0 72.0 108.0 72.0 106.0 L72.0 106.0 Z"></path>
<path fill="#55bbee" fill-opacity="1.0"  filling="0" d="M117.0 83.0 C122.0 86.0 128.0 90.0 128.0 92.0 C128.0 95.0 121.0 92.0 117.0 92.0 C112.0 92.0 108.0 95.0 108.0 92.0 C108.0 90.0 114.0 86.0 117.0 83.0 L117.0 83.0 Z"></path>
<path fill="#55bbee" fill-opacity="1.0"  filling="0" d="M83.0 117.0 C86.0 122.0 90.0 128.0 90.0 128.0 C89.0 128.0 83.0 128.0 79.0 128.0 C75.0 128.0 72.0 128.0 72.0 127.0 C72.0 126.0 72.0 126.0 83.0 117.0 L83.0 117.0 Z"></path>
<path fill="#55bbee" fill-opacity="1.0"  filling="0" d="M106.0 94.0 C102.0 92.0 97.0 88.0 97.0 83.0 C97.0 79.0 102.0 72.0 106.0 72.0 C110.0 72.0 116.0 79.0 116.0 83.0 C116.0 88.0 110.0 92.0 106.0 94.0 L106.0 94.0 Z"></path>
<path fill="#55bbee" fill-opacity="1.0"  filling="0" d="M72.0 106.0 C72.0 103.0 75.0 103.0 79.0 103.0 C83.0 103.0 89.0 103.0 89.0 106.0 C89.0 108.0 83.0 109.0 79.0 109.0 C75.0 109.0 72.0 108.0 72.0 106.0 L72.0 106.0 Z"></path>
<path fill="#55bbee" fill-opacity="1.0"  filling="0" d="M117.0 83.0 C122.0 86.0 128.0 90.0 128.0 92.0 C128.0 95.0 121.0 92.0 117.0 92.0 C112.0 92.0 108.0 95.0 108.0 92.0 C108.0 90.0 114.0 86.0 117.0 83.0 L117.0 83.0 Z"></path>
<path fill="#55bbee" fill-opacity="1.0"  filling="0" d="M83.0 117.0 C86.0 122.0 90.0 128.0 90.0 128.0 C89.0 128.0 83.0 128.0 79.0 128.0 C75.0 128.0 72.0 128.0 72.0 127.0 C72.0 126.0 72.0 126.0 83.0 117.0 L83.0 117.0 Z"></path>
<path fill="#55bbee" fill-opacity="1.0"  filling="0" d="M106.0 94.0 C102.0 92.0 97.0 88.0 97.0 83.0 C97.0 79.0 102.0 72.0 106.0 72.0 C110.0 72.0 116.0 79.0 116.0 83.0 C116.0 88.0 110.0 92.0 106.0 94.0 L106.0 94.0 Z"></path>
<path fill="#55bbee" fill-opacity="1.0"  filling="0" d="M72.0 106.0 C72.0 103.0 75.0 103.0 79.0 103.0 C83.0 103.0 89.0 103.0 89.0 106.0 C89.0 108.0 83.0 109.0 79.0 109.0 C75.0 109.0 72.0 108.0 72.0 106.0 L72.0 106.0 Z"></path>
<path fill="#55bbee" fill-opacity="1.0"  filling="0" d="M117.0 83.0 C122.0 86.0 128.0 90.0 128.0 92.0 C128.0 95.0 121.0 92.0 117.0 92.0 C112.0 92.0 108.0 95.0 108.0 92.0 C108.0 90.0 114.0 86.0 117.0 83.0 L117.0 83.0 Z"></path>
<path fill="#55bbee" fill-opacity="1.0"  filling="0" d="M83.0 117.0 C86.0 122.0 90.0 128.0 90.0 128.0 C89.0 128.0 83.0 128.0 79.0 128.0 C75.0 128.0 72.0 128.0 72.0 127.0 C72.0 126.0 72.0 126.0 83.0 117.0 L83.0 117.0 Z"></path>
<path fill="#55bbee" fill-opacity="1.0"  filling="0" d="M106.0 94.0 C102.0 92.0 97.0 88.0 97.0 83.0 C97.0 79.0 102.0 72.0 106.0 72.0 C110.0 72.0 116.0 79.0 116.0 83.0 C116.0 88.0 110.0 92.0 106.0 94.0 L106.0 94.0 Z"></path>
<path fill="#55bbee" fill-opacity="1.0"  filling="0" d="M72.0 106.0 C72.0 103.0 75.0 103.0 79.0 103.0 C83.0 103.0 89.0 103.0 89.0 106.0 C89.0 108.0 83.0 109.0 79.0 109.0 C75.0 109.0 72.0 108.0 72.0 106.0 L72.0 106.0 Z"></path>
<path fill="#55bbee" fill-opacity="1.0"  filling="0" d="M117.0 83.0 C122.0 86.0 128.0 90.0 128.0 92.0 C128.0 95.0 121.0 92.0 117.0 92.0 C112.0 92.0 108.0 95.0 108.0 92.0 C108.0 90.0 114.0 86.0 117.0 83.0 L117.0 83.0 Z"></path>
<path fill="#55bbee" fill-opacity="1.0"  filling="0" d="M83.0 117.0 C86.0 122.0 90.0 128.0 90.0 128.0 C89.0 128.0 83.0 128.0 79.0 128.0 C75.0 128.0 72.0 128.0 72.0 127.0 C72.0 126.0 72.0 126.0 83.0 117.0 L83.0 117.0 Z"></path>
<path fill="#55bbee" fill-opacity="1.0"  filling="0" d="M106.0 94.0 C102.0 92.0 97.0 88.0 97.0 83.0 C97.0 79.0 102.0 72.0 106.0 72.0 C110.0 72.0 116.0 79.0 116.0 83.0 C116.0 88.0 110.0 92.0 106.0 94.0 L106.0 94.0 Z"></path>
<path fill="#55bbee" fill-opacity="1.0"  filling="0" d="M72.0 106.0 C72.0 103.0 75.0 103.0 79.0 103.0 C83.0 103.0 89.0 103.0 89.0 106.0 C89.0 108.0 83.0 109.0 79.0 109.0 C75.0 109.0 72.0 108.0 72.0 106.0 L72.0 106.0 Z"></path>
<path fill="#55bbee" fill-opacity="1.0"  filling="0" d="M117.0 83.0 C122.0 86.0 128.0 90.0 128.0 92.0 C128.0 95.0 121.0 92.0 117.0 92.0 C112.0 92.0 108.0 95.0 108.0 92.0 C108.0 90.0 114.0 86.0 117.0 83.0 L117.0 83.0 Z"></path>
<path fill="#55bbee" fill-opacity="1.0"  filling="0" d="M83.0 117.0 C86.0 122.0 90.0 128.0 90.0 128.0 C89.0 128.0 83.0 128.0 79.0 128.0 C75.0 128.0 72.0 128.0 72.0 127.0 C72.0 126.0 72.0 126.0 83.0 117.0 L83.0 117.0 Z"></path>
<path fill="#55bbee" fill-opacity="1.0"  filling="0" d="M106.0 94.0 C102.0 92.0 97.0 88.0 97.0 83.0 C97.0 79.0 102.0 72.0 106.0 72.0 C110.0 72.0 116.0 79.0 116.0 83.0 C116.0 88.0 110.0 92.0 106.0 94.0 L106.0 94.0 Z"></path>
<path fill="#55bbee" fill-opacity="1.0"  filling="0" d="M72.0 106.0 C72.0 103.0 75.0 103.0 79.0 103.0 C83.0 103.0 89.0 103.0 89.0 106.0 C89.0 108.0 83.0 109.0 79.0 109.0 C75.0 109.0 72.0 108.0 72.0 106.0 L72.0 106.0 Z"></path>
<path fill="#55bbee" fill-opacity="1.0"  filling="0" d="M117.0 83.0 C122.0 86.0 128.0 90.0 128.0 92.0 C128.0 95.0 121.0 92.0 117.0 92.0 C112.0 92.0 108.0 95.0 108.0 92.0 C108.0 90.0 114.0 86.0 117.0 83.0 L117.0 83.0 Z"></path>
<path fill="#55bbee" fill-opacity="1.0"  filling="0" d="M83.0 117.0 C86.0 122.0 90.0 128.0 90.0 128.0 C89.0 128.0 83.0 128.0 79.0 128.0 C75.0 128.0 72.0 128.0 72.0 127.0 C72.0 126.0 72.0 126.0 83.0 117.0 L83.0 117.0 Z"></path>
<path fill="#000000" fill-opacity="1.0"  filling="0" d="M106.0 94.0 C102.0 92.0 97.0 88.0 97.0 83.0 C97.0 79.0 102.0 72.0 106.0 72.0 C110.0 72.0 116.0 79.0 116.0 83.0"></path></svg>