<svg xmlns="http://www.w3.org/2000/svg" viewBox="0.0 0.0 200.0 200.0" height="200px" width="200px"><path fill="#55bbee" fill-opacity="1.0"  filling="0" d="M144.0 106.0 A44.0 44.0 0.0 1 1 56.0 106.0 A44.0 44.0 0.0 1 1 144.0 106.0 L144.0 106.0 Z"></path>
<path fill="#5577cc" fill-opacity="1.0"  filling="0" d="M69.0 106.0 C69.0 83.0 86.0 66.0 106.0 63.0 C104.0 63.0 102.0 63.0 100.0 63.0 C76.0 63.0 56.0 82.0 56.0 106.0 C56.0 131.0 76.0 151.0 100.0 151.0 C102.0 151.0 104.0 151.0 106.0 151.0 C86.0 147.0 69.0 128.0 69.0 106.0 L69.0 106.0 Z"></path>
<path fill="#5577cc" fill-opacity="1.0"  filling="0" d="M117.0 83.0 C117.0 83.0 117.0 83.0 117.0 83.0 C117.0 83.0 117.0 83.0 117.0 83.0 C117.0 83.0 117.0 83.0 117.0 83.0 L117.0 83.0 Z"></path>
<path fill="#5577cc" fill-opacity="1.0"  filling="0" d="M117.0 83.0 C117.0 83.0 117.0 83.0 117.0 83.0 C117.0 83.0 117.0 83.0 117.0 83.0 C117.0 83.0 117.0 83.0 117.0 83.0 L117.0 83.0 Z"></path>
<path fill="#eeffff" fill-opacity="1.0"  filling="0" d="M37.0 37.0 C45.0 30.0 55.0 24.0 66.0 19.0 C76.0 15.0 88.0 13.0 100.0 13.0 C112.0 13.0 124.0 15.0 134.0 19.0 C145.0 24.0 155.0 30.0 163.0 37.0 C171.0 45.0 176.0 55.0 181.0 66.0 C185.0 76.0 187.0 88.0 187.0 100.0 C187.0 112.0 185.0 124.0 181.0 134.0 C176.0 145.0 171.0 155.0 163.0 163.0 C155.0 171.0 145.0 176.0 134.0 181.0 C124.0 185.0 112.0 187.0 100.0 187.0 C88.0 187.0 76.0 185.0 66.0 181.0 C55.0 176.0 45.0 171.0 37.0 163.0 C29.0 155.0 24.0 145.0 19.0 134.0 C15.0 124.0 13.0 112.0 13.0 100.0 C13.0 88.0 15.0 76.0 19.0 66.0 C24.0 55.0 29.0 45.0 37.0 37.0 L37.0 37.0 Z M162.0 38.0 C146.0 21.0 124.0 13.0 100.0 13.0 C76.0 13.0 54.0 21.0 38.0 38.0 C21.0 54.0 13.0 76.0 13.0 100.0 C13.0 124.0 21.0 146.0 38.0 162.0 C54.0 179.0 76.0 187.0 100.0 187.0 C124.0 187.0 146.0 179.0 162.0 162.0 C179.0 146.0 187.0 124.0 187.0 100.0 C187.0 76.0 179.0 54.0 162.0 38.0 L162.0 38.0 Z"></path>
<path fill="#eeffff" fill-opacity="1.0"  filling="0" d="M100.0 20.0 C111.0 20.0 121.0 22.0 131.0 26.0 C141.0 30.0 149.0 36.0 156.0 44.0 C164.0 51.0 169.0 59.0 173.0 69.0 C178.0 79.0 180.0 89.0 180.0 100.0 C180.0 111.0 178.0 121.0 173.0 131.0 C169.0 141.0 164.0 149.0 156.0 156.0 C149.0 164.0 141.0 169.0 131.0 173.0 C121.0 178.0 111.0 180.0 100.0 180.0 C89.0 180.0 79.0 178.0 69.0 173.0 C59.0 169.0 51.0 164.0 44.0 156.0 C36.0 149.0 30.0 141.0 26.0 131.0 C22.0 121.0 20.0 111.0 20.0 100.0 C20.0 89.0 22.0 79.0 26.0 69.0 C30.0 59.0 36.0 51.0 44.0 44.0 C51.0 36.0 59.0 30.0 69.0 26.0 C79.0 22.0 89.0 20.0 100.0 20.0 M100.0 19.0 C55.0 19.0 19.0 55.0 19.0 100.0 C19.0 145.0 55.0 181.0 100.0 181.0 C145.0 181.0 181.0 145.0 181.0 100.0 C181.0 55.0 145.0 19.0 100.0 19.0 L100.0 19.0 Z"></path>
<path fill="#ddeeff" fill-opacity="1.0"  filling="0" d="M37.0 100.0 C37.0 100.0 37.0 100.0 37.0 100.0 L37.0 100.0 C37.0 100.0 37.0 100.0 37.0 100.0 L37.0 100.0 Z"></path>
<path fill="#ddeeff" fill-opacity="1.0"  filling="0" d="M37.0 100.0 L37.0 100.0 C37.0 100.0 37.0 100.0 37.0 100.0 C37.0 100.0 37.0 100.0 37.0 100.0 L37.0 100.0 Z"></path>
<path fill="#ddeeff" fill-opacity="1.0"  filling="0" d="M37.0 100.0 C37.0 100.0 37.0 100.0 37.0 100.0 L37.0 100.0 C37.0 100.0 37.0 100.0 37.0 100.0 L37.0 100.0 Z"></path>
<path fill="#ddeeff" fill-opacity="1.0"  filling="0" d="M37.0 100.0 L37.0 100.0 C37.0 100.0 37.0 100.0 37.0 100.0 C37.0 100.0 37.0 100.0 37.0 100.0 L37.0 100.0 Z"></path>
<path fill="#ddeeff" fill-opacity="1.0"  filling="0" d="M37.0 100.0 C37.0 100.0 37.0 100.0 37.0 100.0 L37.0 100.0 C37.0 100.0 37.0 100.0 37.0 100.0 L37.0 100.0 Z"></path>
<path fill="#ddeeff" fill-opacity="1.0"  filling="0" d="M37.0 100.0 L37.0 100.0 C37.0 100.0 37.0 100.0 37.0 100.0 C37.0 100.0 37.0 100.0 37.0 100.0 L37.0 100.0 Z"></path>
<path fill="#ddeeff" fill-opacity="1.0"  filling="0" d="M37.0 100.0 C37.0 100.0 37.0 100.0 37.0 100.0 L37.0 100.0 C37.0 100.0 37.0 100.0 37.0 100.0 L37.0 100.0 Z"></path>
<path fill="#ddeeff" fill-opacity="1.0"  filling="0" d="M37.0 100.0 C37.0 100.0 37.0 100.0 37.0 100.0 L37.0 100.0 C37.0 100.0 37.0 100.0 37.0 100.0 L37.0 100.0 Z"></path>
<path fill="#ddeeff" fill-opacity="1.0"  filling="0" d="M37.0 100.0 C37.0 100.0 37.0 100.0 37.0 100.0 L37.0 100.0 C37.0 100.0 37.0 100.0 37.0 100.0 L37.0 100.0 Z"></path>
<path fill="#ddeeff" fill-opacity="1.0"  filling="0" d="M37.0 100.0 C37.0 100.0 37.0 100.0 37.0 100.0 L37.0 100.0 C37.0 100.0 37.0 100.0 37.0 100.0 L37.0 100.0 Z"></path>
<path fill="#ddeeff" fill-opacity="1.0"  filling="0" d="M37.0 100.0 C37.0 100.0 37.0 100.0 37.0 100.0 L37.0 100.0 C37.0 100.0 37.0 100.0 37.0 100.0 L37.0 100.0 Z"></path>
<path fill="#ddeeff" fill-opacity="1.0"  filling="0" d="M37.0 100.0 C37.0 100.0 37.0 100.0 37.0 100.0 L37.0 100.0 C37.0 100.0 37.0 100.0 37.0 100.0 L37.0 100.0 Z"></path>
<path fill="#ddeeff" fill-opacity="1.0"  filling="0" d="M37.0 100.0 C37.0 100.0 37.0 100.0 37.0 100.0 L37.0 100.0 C37.0 100.0 37.0 100.0 37.0 100.0 L37.0 100.0 Z"></path>
<path fill="#ddeeff" fill-opacity="1.0"  filling="0" d="M37.0 100.0 C37.0 100.0 37.0 100.0 37.0 100.0 L37.0 100.0 C37.0 100.0 37.0 100.0 37.0 100.0 L37.0 100.0 Z"></path>
<path fill="#ddeeff" fill-opacity="1.0"  filling="0" d="M37.0 100.0 C37.0 100.0 37.0 100.0 37.0 100.0 L37.0 100.0 C37.0 100.0 37.0 100.0 37.0 100.0 L37.0 100.0 Z"></path>
<path fill="#ddeeff" fill-opacity="1.0"  filling="0" d="M37.0 100.0 C37.0 100.0 37.0 100.0 37.0 100.0 L37.0 100.0 C37.0 100.0 37.0 100.0 37.0 100.0 L37.0 100.0 Z"></path>
<path fill="#ddeeff" fill-opacity="1.0"  filling="0" d="M37.0 100.0 C37.0 100.0 37.0 100.0 37.0 100.0 L37.0 100.0 C37.0 100.0 37.0 100.0 37.0 100.0 L37.0 100.0 Z"></path>
<path fill="#ddeeff" fill-opacity="1.0"  filling="0" d="M37.0 100.0 C37.0 100.0 37.0 100.0 37.0 100.0 L37.0 100.0 C37.0 100.0 37.0 100.0 37.0 100.0 L37.0 100.0 Z"></path>
<path fill="#ddeeff" fill-opacity="1.0"  filling="0" d="M37.0 100.0 C37.0 100.0 37.0 100.0 37.0 100.0 L37.0 100.0 C37.0 100.0 37.0 100.0 37.0 100.0 L37.0 100.0 Z"></path>
<path fill="#ddeeff" fill-opacity="1.0"  filling="0" d="M37.0 100.0 C37.0 100.0 37.0 100.0 37.0 100.0 L37.0 100.0 C37.0 100.0 37.0 100.0 37.0 100.0 L37.0 100.0 Z"></path>
<path fill="#ddeeff" fill-opacity="1.0"  filling="0" d="M37.0 100.0 C37.0 100.0 37.0 100.0 37.0 100.0 L37.0 100.0 C37.0 100.0 37.0 100.0 37.0 100.0 L37.0 100.0 Z"></path>
<path fill="#ddeeff" fill-opacity="1.0"  filling="0" d="M37.0 100.0 C37.0 100.0 37.0 100.0 37.0 100.0 L37.0 100.0 C37.0 100.0 37.0 100.0 37.0 100.0 L37.0 100.0 Z"></path>
<path fill="#ddeeff" fill-opacity="1.0"  filling="0" d="M37.0 100.0 C37.0 100.0 37.0 100.0 37.0 100.0 L37.0 100.0 C37.0 100.0 37.0 100.0 37.0 100.0 L37.0 100.0 Z"></path>
<path fill="#ddeeff" fill-opacity="1.0"  filling="0" d="M37.0 100.0 C37.0 100.0 37.0 100.0 37.0 100.0 L37.0 100.0 C37.0 100.0 37.0 100.0 37.0 100.0 L37.0 100.0 Z"></path>
<path fill="#ddeeff" fill-opacity="1.0"  filling="0" d="M37.0 100.0 C37.0 100.0 37.0 100.0 37.0 100.0 L37.0 100.0 C37.0 100.0 37.0 100.0 37.0 100.0 L37.0 100.0 Z"></path>
<path fill="#ddeeff" fill-opacity="1.0"  filling="0" d="M37.0 100.0 C37.0 100.0 37.0 100.0 37.0 100.0 L37.0 100.0 C37.0 100.0 37.0 100.0 37.0 100.0 L37.0 100.0 Z"></path>
<path fill="#ddeeff" fill-opacity="1.0"  filling="0" d="M37.0 100.0 C37.0 100.0 37.0 100.0 37.0 100.0 L37.0 100.0 C37.0 100.0 37.0 100.0 37.0 100.0 L37.0 100.0 Z"></path>
<path fill="#ddeeff" fill-opacity="1.0"  filling="0" d="M37.0 100.0 C37.0 100.0 37.0 100.0 37.0 100.0 L37.0 100.0 C37.0 100.0 37.0 100.0 37.0 100.0 L37.0 100.0 Z"></path>
<path fill="#ddeeff" fill-opacity="1.0"  filling="0" d="M37.0 100.0 C37.0 100.0 37.0 100.0 37.0 100.0 L37.0 100.0 C37.0 100.0 37.0 100.0 37.0 100.0 L37.0 100.0 Z"></path>
<path fill="#ddeeff" fill-opacity="1.0"  filling="0" d="M37.0 100.0 C37.0 100.0 37.0 100.0 37.0 100.0 L37.0 100.0 C37.0 100.0 37.0 100.0 37.0 100.0 L37.0 100.0 Z"></path>
<path fill="#ddeeff" fill-opacity="1.0"  filling="0" d="M37.0 100.0 C37.0 100.0 37.0 100.0 37.0 100.0 L37.0 100.0 C37.0 100.0 37.0 100.0 37.0 100.0 L37.0 100.0 Z"></path>
<path fill="#ddeeff" fill-opacity="1.0"  filling="0" d="M37.0 100.0 C37.0 100.0 37.0 100.0 37.0 100.0 L37.0 100.0 C37.0 100.0 37.0 100.0 37.0 100.0 L37.0 100.0 Z"></path>
<path fill="#ddeeff" fill-opacity="1.0"  filling="0" d="M37.0 100.0 C37.0 100.0 37.0 100.0 37.0 100.0 L37.0 100.0 C37.0 100.0 37.0 100.0 37.0 100.0 L37.0 100.0 Z"></path>
<path fill="#ddeeff" fill-opacity="1.0"  filling="0" d="M37.0 100.0 C37.0 100.0 37.0 100.0 37.0 100.0 L37.0 100.0 C37.0 100.0 37.0 100.0 37.0 100.0 L37.0 100.0 Z"></path>
<path fill="#ddeeff" fill-opacity="1.0"  filling="0" d="M37.0 100.0 C37.0 100.0 37.0 100.0 37.0 100.0 L37.0 100.0 C37.0 100.0 37.0 100.0 37.0 100.0 L37.0 100.0 Z"></path>
<path fill="#ddeeff" fill-opacity="1.0"  filling="0" d="M37.0 100.0 C37.0 100.0 37.0 100.0 37.0 100.0 L37.0 100.0 C37.0 100.0 37.0 100.0 37.0 100.0 L37.0 100.0 Z"></path>
<path fill="#ddeeff" fill-opacity="1.0"  filling="0" d="M37.0 100.0 C37.0 100.0 37.0 100.0 37.0 100.0 L37.0 100.0 C37.0 100.0 37.0 100.0 37.0 100.0 L37.0 100.0 Z"></path>
<path fill="#ddeeff" fill-opacity="1.0"  filling="0" d="M37.0 100.0 C37.0 100.0 37.0 100.0 37.0 100.0 L37.0 100.0 C37.0 100.0 37.0 100.0 37.0 100.0 L37.0 100.0 Z"></path>
<path fill="#ddeeff" fill-opacity="1.0"  filling="0" d="M37.0 100.0 C37.0 100.0 37.0 100.0 37.0 100.0 L37.0 100.0 C37.0 100.0 37.0 100.0 37.0 100.0 L37.0 100.0 Z"></path>
<path fill="#ddeeff" fill-opacity="1.0"  filling="0" d="M37.0 100.0 C37.0 100.0 37.0 100.0 37.0 100.0 L37.0 100.0 C37.0 100.0 37.0 100.0 37.0 100.0 L37.0 100.0 Z"></path>
<path fill="#ddeeff" fill-opacity="1.0"  filling="0" d="M37.0 100.0 C37.0 100.0 37.0 100.0 37.0 100.0 L37.0 100.0 C37.0 100.0 37.0 100.0 37.0 100.0 L37.0 100.0 Z"></path>
<path fill="#ddeeff" fill-opacity="1.0"  filling="0" d="M37.0 100.0 C37.0 100.0 37.0 100.0 37.0 100.0 L37.0 100.0 C37.0 100.0 37.0 100.0 37.0 100.0 L37.0 100.0 Z"></path>
<path fill="#ddeeff" fill-opacity="1.0"  filling="0" d="M37.0 100.0 C37.0 100.0 37.0 100.0 37.0 100.0 L37.0 100.0 C37.0 100.0 37.0 100.0 37.0 100.0 L37.0 100.0 Z"></path>
<path fill="#ddeeff" fill-opacity="1.0"  filling="0" d="M37.0 100.0 C37.0 100.0 37.0 100.0 37.0 100.0 L37.0 100.0 C37.0 100.0 37.0 100.0 37.0 100.0 L37.0 100.0 Z"></path>
<path fill="#ddeeff" fill-opacity="1.0"  filling="0" d="M37.0 100.0 C37.0 100.0 37.0 100.0 37.0 100.0 L37.0 100.0 C37.0 100.0 37.0 100.0 37.0 100.0 L37.0 100.0 Z"></path>
<path fill="#ddeeff" fill-opacity="1.0"  filling="0" d="M37.0 100.0 C37.0 100.0 37.0 100.0 37.0 100.0 L37.0 100.0 C37.0 100.0 37.0 100.0 37.0 100.0 L37.0 100.0 Z"></path>
<path fill="#ddeeff" fill-opacity="1.0"  filling="0" d="M37.0 100.0 C37.0 100.0 37.0 100.0 37.0 100.0 L37.0 100.0 C37.0 100.0 37.0 100.0 37.0 100.0 L37.0 100.0 Z"></path>
<path fill="#ddeeff" fill-opacity="1.0"  filling="0" d="M37.0 100.0 C37.0 100.0 37.0 100.0 37.0 100.0 L37.0 100.0 C37.0 100.0 37.0 100.0 37.0 100.0 L37.0 100.0 Z"></path>
<path fill="#ddeeff" fill-opacity="1.0"  filling="0" d="M37.0 100.0 C37.0 100.0 37.0 100.0 37.0 100.0 L37.0 100.0 C37.0 100.0 37.0 100.0 37.0 100.0 L37.0 100.0 Z"></path>
<path fill="#ddeeff" fill-opacity="1.0"  filling="0" d="M37.0 100.0 C37.0 100.0 37.0 100.0 37.0 100.0 L37.0 100.0 C37.0 100.0 37.0 100.0 37.0 100.0 L37.0 100.0 Z"></path>
<path fill="#ddeeff" fill-opacity="1.0"  filling="0" d="M37.0 100.0 C37.0 100.0 37.0 100.0 37.0 100.0 L37.0 100.0 C37.0 100.0 37.0 100.0 37.0 100.0 L37.0 100.0 Z"></path>
<path fill="#ddeeff" fill-opacity="1.0"  filling="0" d="M37.0 100.0 C37.0 100.0 37.0 100.0 37.0 100.0 L37.0 100.0 C37.0 100.0 37.0 100.0 37.0 100.0 L37.0 100.0 Z"></path>
<path fill="none" fill-opacity="1.0" filling="0" d="M0.0 M.0 Z"></path></svg>