<svg xmlns="http://www.w3.org/2000/svg" viewBox="0.0 0.0 200.0 200.0" height="200px" width="200px"><path fill="#ffffff" fill-opacity="1.0"  filling="0" d="M0.0 100.0 A100.0 100.0 0.0 1 0 199.0 100.0 A100.0 100.0 0.0 1 0 0.0 100.0 L0.0 100.0 Z"></path>
<path fill="#ccdddd" fill-opacity="1.0"  filling="0" d="M151.0 44.0 A2.0 2.0 0.0 0 1 153.0 47.0 L153.0 49.0 L156.0 49.0 A2.0 2.0 0.0 0 1 156.0 53.0 L153.0 53.0 L153.0 56.0 A2.0 2.0 0.0 0 1 149.0 56.0 L149.0 53.0 L147.0 53.0 A2.0 2.0 0.0 0 1 147.0 49.0 L149.0 49.0 L149.0 47.0 A2.0 2.0 0.0 0 1 151.0 44.0 L151.0 44.0 Z M48.0 83.0 A2.0 2.0 0.0 0 1 50.0 85.0 L50.0 87.0 L52.0 87.0 A2.0 2.0 0.0 0 1 52.0 91.0 L50.0 91.0 L50.0 94.0 A2.0 2.0 0.0 0 1 47.0 94.0 L47.0 91.0 L44.0 91.0 A2.0 2.0 0.0 0 1 44.0 87.0 L47.0 87.0 L47.0 85.0 A2.0 2.0 0.0 0 1 48.0 83.0 L48.0 83.0 Z M148.0 111.0 A2.0 2.0 0.0 0 1 150.0 113.0 L150.0 115.0 L152.0 115.0 A2.0 2.0 0.0 0 1 152.0 119.0 L150.0 119.0 L150.0 121.0 A2.0 2.0 0.0 0 1 147.0 121.0 L147.0 119.0 L145.0 119.0 A2.0 2.0 0.0 0 1 145.0 115.0 L147.0 115.0 L147.0 113.0 A2.0 2.0 0.0 0 1 148.0 111.0 L148.0 111.0 Z"></path>
<path fill="#ccdddd" fill-opacity="1.0"  filling="0" d="M106.0 64.0 C108.0 64.0 109.0 66.0 109.0 68.0 C109.0 70.0 108.0 72.0 106.0 72.0 L106.0 72.0 L96.0 72.0 C94.0 72.0 92.0 70.0 92.0 68.0 C92.0 66.0 94.0 64.0 96.0 64.0 L96.0 64.0 L106.0 64.0 L106.0 64.0 Z M112.0 122.0 C114.0 122.0 116.0 123.0 116.0 125.0 C116.0 127.0 114.0 129.0 113.0 129.0 L112.0 129.0 L89.0 129.0 C87.0 129.0 85.0 127.0 85.0 125.0 C85.0 123.0 87.0 122.0 89.0 122.0 L89.0 122.0 L112.0 122.0 L112.0 122.0 Z"></path>
<path fill="#ccdddd" fill-opacity="1.0"  filling="0" d="M104.0 58.0 C108.0 58.0 111.0 61.0 111.0 65.0 C111.0 69.0 108.0 72.0 104.0 72.0 C100.0 72.0 96.0 69.0 96.0 65.0 C96.0 61.0 100.0 58.0 104.0 58.0 L104.0 58.0 Z M100.0 124.0 C105.0 124.0 108.0 127.0 108.0 131.0 C108.0 135.0 105.0 139.0 100.0 139.0 C96.0 139.0 93.0 135.0 93.0 131.0 C93.0 127.0 96.0 124.0 100.0 124.0 L100.0 124.0 Z"></path>
<path fill="#ee6655" fill-opacity="1.0"  filling="0" d="M101.0 56.0 C106.0 56.0 109.0 60.0 109.0 64.0 C109.0 68.0 106.0 72.0 101.0 72.0 C97.0 72.0 93.0 68.0 93.0 64.0 C93.0 60.0 97.0 56.0 101.0 56.0 L101.0 56.0 Z M101.0 121.0 C106.0 121.0 109.0 125.0 109.0 129.0 C109.0 133.0 106.0 137.0 101.0 137.0 C97.0 137.0 93.0 133.0 93.0 129.0 C93.0 125.0 97.0 121.0 101.0 121.0 L101.0 121.0 Z"></path>
<path fill="#ee6655" fill-opacity="1.0"  filling="0" d="M101.0 56.0 C106.0 56.0 109.0 60.0 109.0 64.0 C109.0 68.0 106.0 72.0 101.0 72.0 C97.0 72.0 93.0 68.0 93.0 64.0 C93.0 60.0 97.0 56.0 101.0 56.0 L101.0 56.0 Z M101.0 121.0 C106.0 121.0 109.0 125.0 109.0 129.0 C109.0 133.0 106.0 137.0 101.0 137.0 C97.0 137.0 93.0 133.0 93.0 129.0 C93.0 125.0 97.0 121.0 101.0 121.0 L101.0 121.0 Z"></path>
<path fill="#ccdddd" fill-opacity="1.0"  filling="0" d="M113.0 83.0 C121.0 83.0 128.0 89.0 128.0 98.0 C128.0 106.0 121.0 113.0 113.0 113.0 C104.0 113.0 98.0 106.0 98.0 98.0 C98.0 89.0 104.0 83.0 113.0 83.0 L113.0 83.0 Z"></path>
<path fill="#ee6655" fill-opacity="1.0"  filling="0" d="M113.0 83.0 C121.0 83.0 128.0 89.0 128.0 98.0 C128.0 106.0 121.0 113.0 113.0 113.0 C104.0 113.0 98.0 106.0 98.0 98.0 C98.0 89.0 104.0 83.0 113.0 83.0 L113.0 83.0 Z"></path>
<path fill="#ee6655" fill-opacity="1.0"  filling="0" d="M113.0 83.0 C121.0 83.0 128.0 89.0 128.0 98.0 C128.0 106.0 121.0 113.0 113.0 113.0 C104.0 113.0 98.0 106.0 98.0 98.0 C98.0 89.0 104.0 83.0 113.0 83.0 L113.0 83.0 Z"></path>
<path fill="#ee6655" fill-opacity="1.0"  filling="0" d="M113.0 83.0 C121.0 83.0 128.0 89.0 128.0 98.0 C128.0 106.0 121.0 113.0 113.0 113.0 C104.0 113.0 98.0 106.0 98.0 98.0 C98.0 89.0 104.0 83.0 113.0 83.0 L113.0 83.0 Z"></path>
<path fill="#ccdddd" fill-opacity="1.0"  filling="0" d="M73.0 44.0 C82.0 44.0 91.0 52.0 91.0 62.0 C91.0 72.0 82.0 80.0 73.0 80.0 C63.0 80.0 55.0 72.0 55.0 62.0 C55.0 52.0 63.0 44.0 73.0 44.0 L73.0 44.0 Z"></path>
<path fill="#ee6655" fill-opacity="1.0"  filling="0" d="M73.0 44.0 C82.0 44.0 91.0 52.0 91.0 62.0 C91.0 72.0 82.0 80.0 73.0 80.0 C63.0 80.0 55.0 72.0 55.0 62.0 C55.0 52.0 63.0 44.0 73.0 44.0 L73.0 44.0 Z"></path>
<path fill="#ffffff" fill-opacity="1.0"  filling="0" d="M68.0 47.0 C76.0 47.0 83.0 53.0 83.0 61.0 C83.0 69.0 76.0 75.0 68.0 75.0 C60.0 75.0 54.0 69.0 54.0 61.0 C54.0 53.0 60.0 47.0 68.0 47.0 L68.0 47.0 Z"></path>
<path fill="#ffffff" fill-opacity="1.0"  filling="0" d="M68.0 47.0 C76.0 47.0 83.0 53.0 83.0 61.0 C83.0 69.0 76.0 75.0 68.0 75.0 C60.0 75.0 54.0 69.0 54.0 61.0 C54.0 53.0 60.0 47.0 68.0 47.0 L68.0 47.0 Z"></path>
<path fill="#ccdddd" fill-opacity="1.0"  filling="0" d="M128.0 73.0 C137.0 73.0 144.0 80.0 144.0 89.0 C144.0 98.0 137.0 106.0 128.0 106.0 C119.0 106.0 111.0 98.0 111.0 89.0 C111.0 80.0 119.0 73.0 128.0 73.0 L128.0 73.0 Z"></path>
<path fill="#ee6655" fill-opacity="1.0"  filling="0" d="M128.0 73.0 C137.0 73.0 144.0 80.0 144.0 89.0 C144.0 98.0 137.0 106.0 128.0 106.0 C119.0 106.0 111.0 98.0 111.0 89.0 C111.0 80.0 119.0 73.0 128.0 73.0 L128.0 73.0 Z"></path>
<path fill="#ffffff" fill-opacity="1.0"  filling="0" d="M124.0 76.0 C132.0 76.0 138.0 82.0 138.0 89.0 C138.0 96.0 132.0 102.0 124.0 102.0 C117.0 102.0 111.0 96.0 111.0 89.0 C111.0 82.0 117.0 76.0 124.0 76.0 L124.0 76.0 Z"></path>
<path fill="#ffffff" fill-opacity="1.0"  filling="0" d="M124.0 76.0 C132.0 76.0 138.0 82.0 138.0 89.0 C138.0 96.0 132.0 102.0 124.0 102.0 C117.0 102.0 111.0 96.0 111.0 89.0 C111.0 82.0 117.0 76.0 124.0 76.0 L124.0 76.0 Z"></path>
<path fill="#ccdddd" fill-opacity="1.0"  filling="0" d="M103.0 72.0 A2.0 2.0 0.0 1 1 103.0 76.0 A2.0 2.0 0.0 0 1 103.0 72.0 L103.0 72.0 Z"></path>
<path fill="#ee6655" fill-opacity="1.0"  filling="0" d="M86.0 92.0 A2.0 2.0 0.0 1 1 86.0 96.0 A2.0 2.0 0.0 0 1 86.0 92.0 L86.0 92.0 Z"></path>
<path fill="#ccdddd" fill-opacity="1.0"  filling="0" d="M71.0 101.0 A2.0 2.0 0.0 0 1 74.0 103.0 L74.0 105.0 L76.0 105.0 A2.0 2.0 0.0 0 1 76.0 108.0 L74.0 108.0 L74.0 110.0 A2.0 2.0 0.0 0 1 69.0 110.0 L69.0 108.0 L67.0 108.0 A2.0 2.0 0.0 0 1 67.0 105.0 L69.0 105.0 L69.0 103.0 A2.0 2.0 0.0 0 1 71.0 101.0 L71.0 101.0 Z"></path>
<path fill="#ccdddd" fill-opacity="1.0"  filling="0" d="M165.0 59.0 A2.0 2.0 0.0 0 1 167.0 62.0 L167.0 64.0 L169.0 64.0 A2.0 2.0 0.0 0 1 169.0 68.0 L167.0 68.0 L167.0 70.0 A2.0 2.0 0.0 0 1 163.0 70.0 L163.0 68.0 L161.0 68.0 A2.0 2.0 0.0 0 1 161.0 64.0 L163.0 64.0 L163.0 62.0 A2.0 2.0 0.0 0 1 165.0 59.0 L165.0 59.0 Z"></path>
<path fill="#ccdddd" fill-opacity="1.0"  filling="0" d="M35.0 141.0 A2.0 2.0 0.0 0 1 38.0 138.0 L38.0 136.0 L40.0 136.0 A2.0 2.0 0.0 0 1 40.0 132.0 L38.0 132.0 L38.0 130.0 A2.0 2.0 0.0 0 0 33.0 130.0 L33.0 132.0 L31.0 132.0 A2.0 2.0 0.0 0 0 31.0 136.0 L33.0 136.0 L33.0 138.0 A2.0 2.0 0.0 0 1 35.0 141.0 L35.0 141.0 Z"></path>
<path fill="#ccdddd" fill-opacity="1.0"  filling="0" d="M165.0 141.0 A2.0 2.0 0.0 0 0 162.0 138.0 L162.0 136.0 L160.0 136.0 A2.0 2.0 0.0 0 0 160.0 132.0 L162.0 132.0 L162.0 130.0 A2.0 2.0 0.0 0 1 167.0 130.0 L167.0 132.0 L169.0 132.0 A2.0 2.0 0.0 0 1 169.0 136.0 L167.0 136.0 L167.0 138.0 A2.0 2.0 0.0 0 0 165.0 141.0 L165.0 141.0 Z"></path>
<path fill="#ccdddd" fill-opacity="1.0"  filling="0" d="M165.0 141.0 A2.0 2.0 0.0 0 0 162.0 138.0 L162.0 136.0 L160.0 136.0 A2.0 2.0 0.0 0 0 160.0 132.0 L162.0 132.0 L162.0 130.0 A2.0 2.0 0.0 0 1 167.0 130.0 L167.0 132.0 L169.0 132.0 A2.0 2.0 0.0 0 1 169.0 136.0 L167.0 136.0 L167.0 138.0 A2.0 2.0 0.0 0 0 165.0 141.0 L165.0 141.0 Z"></path>
<path fill="#ccdddd" fill-opacity="1.0"  filling="0" d="M35.0 141.0 A2.0 2.0 0.0 0 1 38.0 138.0 L38.0 136.0 L40.0 136.0 A2.0 2.0 0.0 0 0 40.0 132.0 L38.0 132.0 L38.0 130.0 A2.0 2.0 0.0 0 0 33.0 130.0 L33.0 132.0 L31.0 132.0 A2.0 2.0 0.0 0 0 31.0 136.0 L33.0 136.0 L33.0 138.0 A2.0 2.0 0.0 0 0 35.0 141.0 L35.0 141.0 Z"></path>
<path fill="#ccdddd" fill-opacity="1.0"  filling="0" d="M35.0 141.0 A2.0 2.0 0.0 0 0 38.0 138.0 L38.0 136.0 L40.0 136.0 A2.0 2.0 0.0 0 0 40.0 132.0 L38.0 132.0 L38.0 130.0 A2.0 2.0 0.0 0 0 33.0 130.0 L33.0 132.0 L31.0 132.0 A2.0 2.0 0.0 0 0 31.0 136.0 L33.0 136.0 L33.0 138.0 A2.0 2.0 0.0 0 0 35.0 141.0 L35.0 141.0 Z"></path>
<path fill="#ccdddd" fill-opacity="1.0"  filling="0" d="M165.0 59.0 A2.0 2.0 0.0 0 1 167.0 62.0 L167.0 64.0 L169.0 64.0 A2.0 2.0 0.0 0 1 169.0 68.0 L167.0 68.0 L167.0 70.0 A2.0 2.0 0.0 0 1 163.0 70.0 L163.0 68.0 L161.0 68.0 A2.0 2.0 0.0 0 1 161.0 64.0 L163.0 64.0 L163.0 62.0 A2.0 2.0 0.0 0 1 165.0 59.0 L165.0 59.0 Z"></path>
<path fill="#ccdddd" fill-opacity="1.0"  filling="0" d="M165.0 59.0 A2.0 2.0 0.0 0 1 167.0 62.0 L167.0 64.0 L169.0 64.0 A2.0 2.0 0.0 0 1 169.0 68.0 L167.0 68.0 L167.0 70.0 A2.0 2.0 0.0 0 1 163.0 70.0 L163.0 68.0 L161.0 68.0 A2.0 2.0 0.0 0 1 161.0 64.0 L163.0 64.0 L163.0 62.0 A2.0 2.0 0.0 0 1 165.0 59.0 L165.0 59.0 Z"></path></svg>