<svg xmlns="http://www.w3.org/2000/svg" viewBox="0.0 0.0 200.0 200.0" height="200px" width="200px"><path fill="#ffeedd" fill-opacity="1.0"  filling="0" d="M100.0 144.0 C100.0 144.0 86.0 127.0 48.0 127.0 C45.0 127.0 44.0 128.0 42.0 130.0 C39.0 133.0 35.0 138.0 35.0 144.0 L100.0 144.0 L100.0 144.0 Z"></path>
<path fill="#ffeedd" fill-opacity="1.0"  filling="0" d="M100.0 144.0 C100.0 144.0 114.0 127.0 152.0 127.0 C155.0 127.0 156.0 128.0 158.0 130.0 C161.0 133.0 165.0 138.0 165.0 144.0 L100.0 144.0 L100.0 144.0 Z"></path>
<path fill="#bb6644" fill-opacity="1.0"  filling="0" d="M149.0 99.0 C149.0 109.0 139.0 118.0 128.0 118.0 C118.0 118.0 109.0 109.0 109.0 99.0 C109.0 89.0 118.0 80.0 128.0 80.0 C139.0 80.0 149.0 89.0 149.0 99.0 L149.0 99.0 Z"></path>
<path fill="#bb6644" fill-opacity="1.0"  filling="0" d="M-7.0 -7.0 C144.0 99.0 137.0 107.0 128.0 107.0 C119.0 107.0 111.0 99.0 111.0 91.0 C111.0 81.0 119.0 73.0 128.0 73.0 C137.0 73.0 144.0 81.0 144.0 91.0 L144.0 91.0 Z"></path>
<path fill="#bb6644" fill-opacity="1.0"  filling="0" d="M144.0 109.0 C144.0 118.0 137.0 127.0 128.0 127.0 C119.0 127.0 111.0 118.0 111.0 109.0 C111.0 99.0 119.0 91.0 128.0 91.0 C137.0 91.0 144.0 99.0 144.0 109.0 L144.0 109.0 Z"></path>
<path fill="#dd8855" fill-opacity="1.0"  filling="0" d="M91.0 62.0 C91.0 72.0 83.0 80.0 73.0 80.0 C63.0 80.0 55.0 72.0 55.0 62.0 C55.0 52.0 63.0 44.0 73.0 44.0 C83.0 44.0 91.0 52.0 91.0 62.0 L91.0 62.0 Z"></path>
<path fill="#dd8855" fill-opacity="1.0"  filling="0" d="M91.0 55.0 C91.0 65.0 83.0 73.0 73.0 73.0 C63.0 73.0 55.0 65.0 55.0 55.0 C55.0 46.0 63.0 38.0 73.0 38.0 C83.0 38.0 91.0 46.0 91.0 55.0 L91.0 55.0 Z"></path>
<path fill="#dd8855" fill-opacity="1.0"  filling="0" d="M91.0 73.0 C91.0 82.0 83.0 91.0 73.0 91.0 C63.0 91.0 55.0 82.0 55.0 73.0 C55.0 64.0 63.0 55.0 73.0 55.0 C83.0 55.0 91.0 64.0 91.0 73.0 L91.0 73.0 Z"></path>
<path fill="#335555" fill-opacity="1.0"  filling="0" d="M14.0 14.0 L18.0 14.0 L18.0 18.0 C18.0 20.0 19.0 21.0 20.0 21.0 C22.0 21.0 23.0 20.0 23.0 18.0 L23.0 14.0 L28.0 14.0 C29.0 14.0 30.0 13.0 30.0 11.0 C30.0 10.0 29.0 9.0 28.0 9.0 L23.0 9.0 L23.0 4.0 C23.0 2.0 22.0 1.0 20.0 1.0 C19.0 1.0 18.0 2.0 18.0 4.0 L18.0 9.0 L14.0 9.0 C12.0 9.0 10.0 10.0 10.0 11.0 C10.0 13.0 12.0 14.0 14.0 14.0 L14.0 14.0 Z"></path>
<path fill="#335555" fill-opacity="1.0"  filling="0" d="M97.0 123.0 C97.0 123.0 96.0 123.0 96.0 123.0 C96.0 122.0 95.0 121.0 96.0 120.0 C97.0 120.0 98.0 119.0 99.0 118.0 C99.0 117.0 101.0 117.0 101.0 118.0 C102.0 119.0 102.0 120.0 101.0 121.0 C100.0 122.0 99.0 123.0 98.0 123.0 C98.0 123.0 98.0 123.0 97.0 123.0 L97.0 123.0 Z"></path>
<path fill="#335555" fill-opacity="1.0"  filling="0" d="M103.0 123.0 C102.0 123.0 102.0 123.0 101.0 123.0 C101.0 123.0 100.0 122.0 99.0 121.0 C98.0 120.0 98.0 119.0 99.0 118.0 C99.0 117.0 101.0 117.0 101.0 118.0 C102.0 119.0 103.0 120.0 104.0 120.0 C105.0 121.0 104.0 122.0 104.0 123.0 C104.0 123.0 103.0 123.0 103.0 123.0 L103.0 123.0 Z"></path>
<path fill="#335555" fill-opacity="1.0"  filling="0" d="M148.0 120.0 C147.0 120.0 146.0 119.0 146.0 118.0 L146.0 115.0 C146.0 114.0 147.0 114.0 148.0 114.0 C149.0 114.0 150.0 114.0 150.0 115.0 L150.0 118.0 C150.0 119.0 149.0 120.0 148.0 120.0 L148.0 120.0 Z"></path>
<path fill="#335555" fill-opacity="1.0"  filling="0" d="M152.0 105.0 L149.0 105.0 C148.0 105.0 147.0 104.0 147.0 103.0 C147.0 102.0 148.0 101.0 149.0 101.0 L152.0 101.0 C153.0 101.0 154.0 102.0 154.0 103.0 C154.0 104.0 153.0 105.0 152.0 105.0 L152.0 105.0 Z"></path>
<path fill="#335555" fill-opacity="1.0"  filling="0" d="M142.0 105.0 L139.0 105.0 C138.0 105.0 137.0 104.0 137.0 103.0 C137.0 102.0 138.0 101.0 139.0 101.0 L142.0 101.0 C143.0 101.0 144.0 102.0 144.0 103.0 C144.0 104.0 143.0 105.0 142.0 105.0 L142.0 105.0 Z"></path>
<path fill="#335555" fill-opacity="1.0"  filling="0" d="M151.0 118.0 L148.0 118.0 C147.0 118.0 146.0 117.0 146.0 116.0 C146.0 115.0 147.0 114.0 148.0 114.0 L151.0 114.0 C152.0 114.0 153.0 115.0 153.0 116.0 C153.0 117.0 152.0 118.0 151.0 118.0 L151.0 118.0 Z"></path>
<path fill="#335555" fill-opacity="1.0"  filling="0" d="M49.0 95.0 C48.0 95.0 47.0 94.0 47.0 93.0 L47.0 91.0 C47.0 90.0 48.0 89.0 49.0 89.0 C50.0 89.0 51.0 90.0 51.0 91.0 L51.0 93.0 C51.0 94.0 50.0 95.0 49.0 95.0 L49.0 95.0 Z"></path>
<path fill="#335555" fill-opacity="1.0"  filling="0" d="M54.0 87.0 L51.0 87.0 C50.0 87.0 49.0 86.0 49.0 85.0 C49.0 84.0 50.0 83.0 51.0 83.0 L54.0 83.0 C55.0 83.0 56.0 84.0 56.0 85.0 C56.0 86.0 55.0 87.0 54.0 87.0 L54.0 87.0 Z"></path>
<path fill="#335555" fill-opacity="1.0"  filling="0" d="M45.0 87.0 L43.0 87.0 C42.0 87.0 42.0 86.0 42.0 85.0 C42.0 84.0 42.0 83.0 43.0 83.0 L45.0 83.0 C46.0 83.0 47.0 84.0 47.0 85.0 C47.0 86.0 46.0 87.0 45.0 87.0 L45.0 87.0 Z"></path>
<path fill="#335555" fill-opacity="1.0"  filling="0" d="M53.0 93.0 L50.0 93.0 C49.0 93.0 48.0 92.0 48.0 91.0 C48.0 90.0 49.0 89.0 50.0 89.0 L53.0 89.0 C54.0 89.0 55.0 90.0 55.0 91.0 C55.0 92.0 54.0 93.0 53.0 93.0 L53.0 93.0 Z"></path>
<path fill="#335555" fill-opacity="1.0"  filling="0" d="M71.0 118.0 C70.0 118.0 69.0 117.0 69.0 116.0 L69.0 113.0 C69.0 112.0 70.0 111.0 71.0 111.0 C72.0 111.0 73.0 112.0 73.0 113.0 L73.0 116.0 C73.0 117.0 72.0 118.0 71.0 118.0 L71.0 118.0 Z"></path>
<path fill="#335555" fill-opacity="1.0"  filling="0" d="M78.0 108.0 L75.0 108.0 C74.0 108.0 73.0 108.0 73.0 107.0 C73.0 106.0 74.0 105.0 75.0 105.0 L78.0 105.0 C79.0 105.0 80.0 106.0 80.0 107.0 C80.0 108.0 79.0 108.0 78.0 108.0 L78.0 108.0 Z"></path>
<path fill="#335555" fill-opacity="1.0"  filling="0" d="M67.0 108.0 L64.0 108.0 C63.0 108.0 62.0 108.0 62.0 107.0 C62.0 106.0 63.0 105.0 64.0 105.0 L67.0 105.0 C68.0 105.0 69.0 106.0 69.0 107.0 C69.0 108.0 68.0 108.0 67.0 108.0 L67.0 108.0 Z"></path>
<path fill="#335555" fill-opacity="1.0"  filling="0" d="M74.0 113.0 L71.0 113.0 C70.0 113.0 69.0 112.0 69.0 111.0 C69.0 110.0 70.0 109.0 71.0 109.0 L74.0 109.0 C76.0 109.0 76.0 110.0 76.0 111.0 C76.0 112.0 76.0 113.0 74.0 113.0 L74.0 113.0 Z"></path>
<path fill="#335555" fill-opacity="1.0"  filling="0" d="M105.0 51.0 C104.0 51.0 103.0 51.0 103.0 50.0 L103.0 47.0 C103.0 46.0 104.0 45.0 105.0 45.0 C106.0 45.0 107.0 46.0 107.0 47.0 L107.0 50.0 C107.0 51.0 106.0 51.0 105.0 51.0 L105.0 51.0 Z"></path>
<path fill="#335555" fill-opacity="1.0"  filling="0" d="M110.0 43.0 L107.0 43.0 C106.0 43.0 105.0 42.0 105.0 41.0 C105.0 40.0 106.0 39.0 107.0 39.0 L110.0 39.0 C111.0 39.0 112.0 40.0 112.0 41.0 C112.0 42.0 111.0 43.0 110.0 43.0 L110.0 43.0 Z"></path>
<path fill="#335555" fill-opacity="1.0"  filling="0" d="M101.0 43.0 L99.0 43.0 C98.0 43.0 97.0 42.0 97.0 41.0 C97.0 40.0 98.0 39.0 99.0 39.0 L101.0 39.0 C102.0 39.0 103.0 40.0 103.0 41.0 C103.0 42.0 102.0 43.0 101.0 43.0 L101.0 43.0 Z"></path>
<path fill="#335555" fill-opacity="1.0"  filling="0" d="M108.0 49.0 L105.0 49.0 C104.0 49.0 103.0 48.0 103.0 47.0 C103.0 46.0 104.0 45.0 105.0 45.0 L108.0 45.0 C109.0 45.0 110.0 46.0 110.0 47.0 C110.0 48.0 109.0 49.0 108.0 49.0 L108.0 49.0 Z"></path>
<path fill="#335555" fill-opacity="1.0"  filling="0" d="M103.0 76.0 C101.0 76.0 101.0 75.0 101.0 74.0 L101.0 73.0 C101.0 72.0 101.0 71.0 103.0 71.0 C104.0 71.0 105.0 72.0 105.0 73.0 L105.0 74.0 C105.0 75.0 104.0 76.0 103.0 76.0 L103.0 76.0 Z"></path>
<path fill="#335555" fill-opacity="1.0"  filling="0" d="M107.0 70.0 L105.0 70.0 C104.0 70.0 103.0 69.0 103.0 68.0 C103.0 67.0 104.0 66.0 105.0 66.0 L107.0 66.0 C108.0 66.0 109.0 67.0 109.0 68.0 C109.0 69.0 108.0 70.0 107.0 70.0 L107.0 70.0 Z"></path>
<path fill="#335555" fill-opacity="1.0"  filling="0" d="M99.0 70.0 L97.0 70.0 C96.0 70.0 95.0 69.0 95.0 68.0 C95.0 67.0 96.0 66.0 97.0 66.0 L99.0 66.0 C101.0 66.0 101.0 67.0 101.0 68.0 C101.0 69.0 101.0 70.0 99.0 70.0 L99.0 70.0 Z"></path>
<path fill="#335555" fill-opacity="1.0"  filling="0" d="M104.0 74.0 C103.0 74.0 102.0 73.0 102.0 72.0 C102.0 71.0 103.0 71.0 104.0 71.0 C105.0 71.0 106.0 71.0 106.0 72.0 C106.0 73.0 105.0 74.0 104.0 74.0 L104.0 74.0 Z"></path>
<path fill="#335555" fill-opacity="1.0"  filling="0" d="M86.0 96.0 C85.0 96.0 84.0 95.0 84.0 94.0 L84.0 94.0 C84.0 93.0 85.0 92.0 86.0 92.0 C87.0 92.0 88.0 93.0 88.0 94.0 L88.0 94.0 C88.0 95.0 87.0 96.0 86.0 96.0 L86.0 96.0 Z"></path>
<path fill="#335555" fill-opacity="1.0"  filling="0" d="M108.0 105.0 C105.0 105.0 102.0 104.0 101.0 102.0 C99.0 100.0 100.0 97.0 105.0 92.0 C107.0 90.0 110.0 88.0 111.0 87.0 C112.0 87.0 113.0 87.0 114.0 88.0 C114.0 89.0 114.0 90.0 113.0 90.0 C111.0 91.0 106.0 94.0 104.0 97.0 C103.0 98.0 102.0 99.0 103.0 100.0 C104.0 102.0 110.0 102.0 116.0 100.0 C121.0 96.0 129.0 93.0 134.0 89.0 C141.0 86.0 146.0 83.0 148.0 81.0 C149.0 79.0 150.0 78.0 150.0 77.0 C149.0 77.0 147.0 77.0 144.0 78.0 C139.0 80.0 132.0 83.0 124.0 87.0 C117.0 92.0 108.0 95.0 103.0 96.0 C102.0 96.0 101.0 96.0 101.0 95.0 C101.0 94.0 101.0 93.0 102.0 93.0 C105.0 91.0 114.0 88.0 121.0 84.0 C131.0 80.0 139.0 76.0 143.0 74.0 C148.0 73.0 151.0 73.0 152.0 75.0 C154.0 77.0 154.0 80.0 151.0 83.0 C149.0 86.0 144.0 90.0 136.0 93.0 C130.0 96.0 123.0 99.0 117.0 102.0 C114.0 104.0 111.0 105.0 108.0 105.0 L108.0 105.0 Z"></path>
<path fill="#bb6644" fill-opacity="1.0"  filling="0" d="M100.0 161.0 C98.0 161.0 95.0 160.0 93.0 159.0 C78.0 157.0 34.0 148.0 34.0 148.0 C33.0 148.0 32.0 147.0 32.0 145.0 C32.0 144.0 33.0 143.0 35.0 143.0 C35.0 143.0 78.0 152.0 95.0 155.0 C98.0 156.0 102.0 156.0 105.0 155.0 C122.0 152.0 165.0 143.0 165.0 143.0 C167.0 143.0 168.0 144.0 168.0 145.0 C168.0 147.0 167.0 148.0 166.0 148.0 C166.0 148.0 122.0 157.0 107.0 159.0 C105.0 160.0 102.0 161.0 100.0 161.0 L100.0 161.0 Z"></path></svg>