<svg xmlns="http://www.w3.org/2000/svg" viewBox="0.0 0.0 200.0 200.0" height="200px" width="200px"><path fill="#66aabb" fill-opacity="1.0"  filling="0" d="M152.0 168.0 C152.0 167.0 152.0 166.0 152.0 165.0 C152.0 156.0 144.0 147.0 133.0 147.0 C128.0 147.0 123.0 149.0 120.0 153.0 C117.0 147.0 109.0 142.0 100.0 142.0 C91.0 142.0 83.0 147.0 80.0 153.0 C77.0 149.0 72.0 147.0 67.0 147.0 C56.0 147.0 48.0 156.0 48.0 165.0 C48.0 166.0 48.0 167.0 48.0 168.0 L47.0 168.0 C40.0 168.0 34.0 173.0 34.0 180.0 C34.0 182.0 36.0 183.0 37.0 183.0 L163.0 183.0 C164.0 183.0 166.0 182.0 166.0 180.0 C166.0 173.0 160.0 168.0 153.0 168.0 L152.0 168.0 L152.0 168.0 Z"></path>
<path fill="#66aabb" fill-opacity="1.0"  filling="0" d="M100.0 142.0 C91.0 142.0 83.0 147.0 80.0 153.0 C77.0 149.0 72.0 147.0 67.0 147.0 C56.0 147.0 48.0 156.0 48.0 165.0 C48.0 166.0 48.0 167.0 48.0 168.0 L47.0 168.0 C40.0 168.0 34.0 173.0 34.0 180.0 C34.0 182.0 36.0 183.0 37.0 183.0 L100.0 183.0 L100.0 142.0 L100.0 142.0 L100.0 142.0 Z"></path>
<path fill="#ee9922" fill-opacity="1.0"  filling="0" d="M110.0 125.0 C110.0 125.0 110.0 125.0 110.0 125.0 C107.0 125.0 104.0 127.0 103.0 130.0 C103.0 132.0 102.0 134.0 100.0 136.0 C98.0 134.0 97.0 132.0 97.0 130.0 C96.0 127.0 93.0 125.0 90.0 125.0 C90.0 125.0 90.0 125.0 90.0 125.0 C88.0 128.0 87.0 133.0 87.0 137.0 C87.0 141.0 88.0 145.0 90.0 149.0 C92.0 154.0 96.0 157.0 98.0 159.0 C98.0 160.0 99.0 160.0 100.0 160.0 C101.0 160.0 102.0 160.0 102.0 159.0 C104.0 157.0 108.0 154.0 110.0 149.0 C112.0 145.0 113.0 141.0 113.0 137.0 C113.0 133.0 112.0 128.0 110.0 125.0 L110.0 125.0 Z"></path>
<path fill="#dd8822" fill-opacity="1.0"  filling="0" d="M103.0 130.0 C103.0 132.0 102.0 134.0 100.0 136.0 L100.0 160.0 C101.0 160.0 102.0 160.0 102.0 159.0 C104.0 157.0 108.0 154.0 110.0 149.0 C112.0 145.0 113.0 141.0 113.0 137.0 C113.0 133.0 112.0 128.0 110.0 125.0 C110.0 125.0 110.0 125.0 110.0 125.0 C107.0 125.0 104.0 127.0 103.0 130.0 L103.0 130.0 Z"></path>
<path fill="#000000" fill-opacity="1.0"  filling="0" d="M140.0 108.0 C140.0 100.0 126.0 85.0 126.0 85.0 L126.0 85.0 C126.0 79.0 127.0 73.0 126.0 66.0 C125.0 56.0 122.0 48.0 120.0 42.0 C115.0 34.0 109.0 26.0 103.0 18.0 C101.0 17.0 99.0 17.0 97.0 18.0 C91.0 26.0 85.0 34.0 80.0 42.0 C78.0 48.0 75.0 56.0 74.0 66.0 C73.0 73.0 74.0 79.0 74.0 85.0 L74.0 85.0 C74.0 85.0 60.0 100.0 60.0 108.0 C60.0 108.0 60.0 108.0 60.0 109.0 C60.0 113.0 61.0 125.0 62.0 128.0 C63.0 130.0 66.0 131.0 68.0 129.0 C69.0 128.0 70.0 127.0 71.0 126.0 C74.0 122.0 78.0 118.0 81.0 117.0 C81.0 117.0 81.0 117.0 81.0 117.0 C81.0 117.0 81.0 117.0 81.0 117.0 C81.0 117.0 81.0 117.0 81.0 117.0 C81.0 112.0 78.0 97.0 78.0 97.0 C78.0 97.0 78.0 97.0 78.0 97.0 C77.0 95.0 77.0 94.0 77.0 92.0 C77.0 92.0 77.0 92.0 77.0 92.0 C76.0 91.0 76.0 89.0 76.0 88.0 C76.0 88.0 76.0 88.0 76.0 88.0 C76.0 87.0 76.0 86.0 76.0 85.0 L76.0 85.0 C76.0 79.0 76.0 73.0 77.0 66.0 C78.0 56.0 80.0 48.0 82.0 43.0 C82.0 43.0 82.0 43.0 82.0 43.0 C87.0 36.0 92.0 28.0 99.0 20.0 C99.0 20.0 99.0 20.0 99.0 20.0 C99.0 20.0 99.0 20.0 99.0 20.0 C99.0 20.0 99.0 20.0 99.0 20.0 C99.0 20.0 99.0 20.0 99.0 20.0 C99.0 20.0 99.0 20.0 99.0 20.0 C99.0 20.0 99.0 20.0 99.0 20.0 C100.0 20.0 100.0 20.0 100.0 20.0 C100.0 20.0 100.0 20.0 100.0 20.0 C100.0 20.0 100.0 20.0 100.0 20.0 C100.0 20.0 100.0 20.0 101.0 20.0 C101.0 20.0 101.0 20.0 101.0 20.0 C101.0 20.0 101.0 20.0 101.0 20.0 C101.0 20.0 101.0 20.0 101.0 20.0 C101.0 20.0 101.0 20.0 101.0 20.0 C101.0 20.0 101.0 20.0 101.0 20.0 C101.0 20.0 101.0 20.0 101.0 20.0 C108.0 28.0 113.0 36.0 118.0 43.0 C118.0 43.0 118.0 43.0 118.0 43.0 C120.0 48.0 122.0 56.0 123.0 66.0 C124.0 73.0 124.0 79.0 124.0 85.0 L124.0 85.0 C124.0 86.0 124.0 87.0 124.0 88.0 C124.0 88.0 124.0 88.0 124.0 88.0 C124.0 89.0 124.0 91.0 123.0 92.0 C123.0 92.0 123.0 92.0 123.0 92.0 C123.0 94.0 123.0 95.0 122.0 97.0 C122.0 97.0 122.0 97.0 122.0 97.0 C122.0 97.0 119.0 112.0 119.0 117.0 C119.0 117.0 119.0 117.0 119.0 117.0 C119.0 117.0 119.0 117.0 119.0 117.0 C119.0 117.0 119.0 117.0 119.0 117.0 C122.0 118.0 126.0 122.0 129.0 126.0 C130.0 127.0 131.0 128.0 132.0 129.0 C134.0 131.0 137.0 130.0 138.0 128.0 C139.0 125.0 140.0 113.0 140.0 109.0 C140.0 108.0 140.0 108.0 140.0 108.0 L140.0 108.0 Z M100.0 126.0 C100.0 126.0 100.0 126.0 100.0 126.0 C100.0 126.0 100.0 126.0 100.0 126.0 C100.0 126.0 100.0 126.0 100.0 126.0 C100.0 126.0 100.0 126.0 100.0 126.0 C100.0 126.0 100.0 126.0 100.0 126.0 C100.0 126.0 100.0 126.0 100.0 126.0 C100.0 126.0 100.0 126.0 100.0 126.0 C100.0 126.0 100.0 126.0 100.0 126.0 C100.0 126.0 100.0 126.0 100.0 126.0 C100.0 126.0 100.0 126.0 100.0 126.0 C100.0 126.0 100.0 126.0 100.0 126.0 C100.0 126.0 100.0 126.0 100.0 126.0 C100.0 126.0 100.0 126.0 100.0 126.0 C100.0 126.0 100.0 126.0 100.0 126.0 C100.0 126.0 100.0 126.0 100.0 126.0 C100.0 126.0 100.0 126.0 100.0 126.0 C100.0 126.0 100.0 126.0 100.0 126.0 C100.0 126.0 100.0 126.0 100.0 126.0 C100.0 126.0 100.0 126.0 100.0 126.0 C100.0 126.0 100.0 126.0 100.0 126.0 C100.0 126.0 100.0 126.0 100.0 126.0 C100.0 126.0 100.0 126.0 100.0 126.0 C100.0 126.0 100.0 126.0 100.0 126.0 C100.0 126.0 100.0 126.0 100.0 126.0 C100.0 126.0 100.0 126.0 100.0 126.0 C100.0 126.0 100.0 126.0 100.0 126.0 C100.0 126.0 100.0 126.0 100.0 126.0 C100.0 126.0 100.0 126.0 100.0 126.0 C100.0 126.0 100.0 126.0 100.0 126.0 C100.0 126.0 100.0 126.0 100.0 126.0 C100.0 126.0 100.0 126.0 100.0 126.0 C100.0 126.0 100.0 126.0 100.0 126.0 C100.0 126.0 100.0 126.0 100.0 126.0 C100.0 126.0 100.0 126.0 100.0 126.0 C100.0 126.0 100.0 126.0 100.0 126.0 C100.0 126.0 100.0 126.0 100.0 126.0 C100.0 126.0 100.0 126.0 100.0 126.0 C100.0 126.0 100.0 126.0 100.0 126.0 C100.0 126.0 100.0 126.0 100.0 126.0 C100.0 126.0 100.0 126.0 100.0 126.0 C100.0 126.0 100.0 126.0 100.0 126.0 C100.0 126.0 100.0 126.0 100.0 126.0 C100.0 126.0 100.0 126.0 100.0 126.0 C100.0 126.0 100.0 126.0 100.0 126.0 C100.0 126.0 100.0 126.0 100.0 126.0 C100.0 126.0 100.0 126.0 100.0 126.0 C100.0 126.0 100.0 126.0 100.0 126.0 C100.0 126.0 100.0 126.0 100.0 126.0 C100.0 126.0 100.0 126.0 100.0 126.0 C100.0 126.0 100.0 126.0 100.0 126.0 C100.0 126.0 100.0 126.0 100.0 126.0 C100.0 126.0 100.0 126.0 100.0 126.0 C100.0 126.0 100.0 126.0 100.0 126.0 C100.0 126.0 100.0 126.0 100.0 126.0 C100.0 126.0 100.0 126.0 100.0 126.0 C100.0 126.0 100.0 126.0 100.0 126.0 C100.0 126.0 100.0 126.0 100.0 126.0 C100.0 126.0 100.0 126.0 100.0 126.0 C100.0 126.0 100.0 126.0 100.0 126.0 C100.0 126.0 100.0 126.0 100.0 126.0 C100.0 126.0 100.0 126.0 100.0 126.0 C100.0 126.0 100.0 126.0 100.0 126.0 C100.0 126.0 100.0 126.0 100.0 126.0 C100.0 126.0 100.0 126.0 100.0 126.0 C100.0 126.0 100.0 126.0 100.0 126.0 C100.0 126.0 100.0 126.0 100.0 126.0 C100.0 126.0 100.0 126.0 100.0 126.0 C100.0 126.0 100.0 126.0 100.0 126.0 C100.0 126.0 100.0 126.0 100.0 126.0 C100.0 126.0 100.0 126.0 100.0 126.0 C100.0 126.0 100.0 126.0 100.0 126.0 C100.0 126.0 100.0 126.0 100.0 126.0 C100.0 126.0 100.0 126.0 100.0 126.0 C100.0 126.0 100.0 126.0 100.0 126.0 C100.0 126.0 100.0 126.0 100.0 126.0 C100.0 126.0 100.0 126.0 100.0 126.0 C100.0 126.0 100.0 126.0 100.0 126.0 C100.0 126.0 100.0 126.0 100.0 126.0 C100.0 126.0 100.0 126.0 100.0 126.0 C100.0 126.0 100.0 126.0 100.0 126.0 C100.0 126.0 100.0 126.0 100.0 126.0 C100.0 126.0 100.0 126.0 100.0 126.0 C100.0 126.0 100.0 126.0 100.0 126.0 C100.0 126.0 100.0 126.0 100.0 126.0 C100.0 126.0 100.0 126.0 100.0 126.0 C100.0 126.0 100.0 126.0 100.0 126.0 C100.0 126.0 100.0 126.0 100.0 126.0 C100.0 126.0 100.0 126.0 100.0 126.0 C100.0 126.0 100.0 126.0 100.0 126.0 C100.0 126.0 100.0 126.0 100.0 126.0 C100.0 126.0 100.0 126.0 100.0 126.0 C100.0 126.0 100.0 126.0 100.0 126.0 C100.0 126.0 100.0 126.0 100.0 126.0 C100.0 126.0 100.0 126.0 100.0 126.0 C100.0 126.0 100.0 126.0 100.0 126.0 C100.0 126.0 100.0 126.0 100.0 126.0 C100.0 126.0 100.0 126.0 100.0 126.0 C100.0 126.0 100.0 126.0 100.0 126.0 C100.0 126.0 100.0 126.0 100.0 126.0 C100.0 126.0 100.0 126.0 100.0 126.0 C100.0 126.0 100.0 126.0 100.0 126.0 C100.0 126.0 100.0 126.0 100.0 126.0 C100.0 126.0 100.0 126.0 100.0 126.0 C100.0 126.0 100.0 126.0 100.0 126.0 C100.0 126.0 100.0 126.0 100.0 126.0 C100.0 126.0 100.0 126.0 100.0 126.0 C100.0 126.0 100.0 126.0 100.0 126.0 C100.0 126.0 100.0 126.0 100.0 126.0 C100.0 126.0 100.0 126.0 100.0 126.0 C100.0 126.0 100.0 126.0 100.0 126.0 C100.0 126.0 100.0 126.0 100.0 126.0 C100.0 126.0 100.0 126.0 100.0 126.0 C100.0 126.0 100.0 126.0 100.0 126.0 C100.0 126.0 100.0 126.0 100.0 126.0 C100.0 126.0 100.0 126.0 100.0 126.0 C100.0 126.0 100.0 126.0 100.0 126.0 C100.0 126.0 100.0 126.0 100.0 126.0 C100.0 126.0 100.0 126.0 100.0 126.0 C100.0 126.0 100.0 126.0 100.0 126.0 C100.0 126.0 100.0 126.0 100.0 126.0 C100.0 126.0 100.0 126.0 100.0 126.0 C100.0 126.0 100.0 126.0 100.0 126.0 C100.0 126.0 100.0 126.0 100.0 126.0 C100.0 126.0 100.0 126.0 100.0 126.0 C100.0 126.0 100.0 126.0 100.0 126.0 C100.0 126.0 100.0 126.0 100.0 126.0 C100.0 126.0 100.0 126.0 100.0 126.0 C100.0 126.0 100.0 126.0 100.0 126.0 C100.0 126.0 100.0 126.0 100.0 126.0 C100.0 126.0 100.0 126.0 100.0 126.0 C100.0 126.0 100.0 126.0 100.0 126.0 C100.0 126.0 100.0 126.0 100.0 126.0 C100.0 126.0 100.0 126.0 100.0 126.0 C100.0 126.0 100.0 126.0 100.0 126.0 C100.0 126.0 100.0 126.0 100.0 126.0 C100.0 126.0 100.0 126.0 100.0 126.0 C100.0 126.0 100.0 126.0 100.0 126.0 C100.0 126.0 100.0 126.0 100.0 126.0 C100.0 126.0 100.0 126.0 100.0 126.0 C100.0 126.0 100.0 126.0 100.0 126.0 C100.0 126.0 100.0 126.0 100.0 126.0 C100.0 126.0 100.0 126.0 100.0 126.0 C100.0 126.0 100.0 126.0 100.0 126.0 C100.0 126.0 100.0 126.0 100.0 126.0 C100.0 126.0 100.0 126.0 100.0 126.0 C100.0 126.0 100.0 126.0 100.0 126.0 C100.0 126.0 100.0 126.0 100.0 126.0 C100.0 126.0 100.0 126.0 100.0 126.0 C100.0 126.0 100.0 126.0 100.0 126.0 C100.0 126.0 100.0 126.0 100.0 126.0 C100.0 126.0 100.0 126.0 100.0 126.0 C100.0 126.0 100.0 126.0 100.0 126.0 C100.0 126.0 100.0 126.0 100.0 126.0 C100.0 126.0 100.0 126.0 100.0 126.0 C100.0 126.0 100.0 126.0 100.0 126.0 C100.0 126.0 100.0 126.0 100.0 126.0 C100.0 126.0 100.0 126.0 100.0 126.0 C100.0 126.0 100.0 126.0 100.0 126.0 C100.0 126.0 100.0 126.0 100.0 126.0 C100.0 126.0 100.0 126.0 100.0 126.0 C100.0 126.0 100.0 126.0 100.0 126.0 C100.0 126.0 100.0 126.0 100.0 126.0 C100.0 126.0 100.0 126.0 100.0 126.0 C100.0 126.0 100.0 126.0 100.0 126.0 C100.0 126.0 100.0 126.0 100.0 126.0 C100.0 126.0 100.0 126.0 100.0 126.0 C100.0 126.0 100.0 126.0 100.0 126.0 C100.0 126.0 100.0 126.0 100.0 126.0 C100.0 126.0 100.0 126.0 100.0 126.0 C100.0 126.0 100.0 126.0 100.0 126.0 C100.0 126.0 100.0 126.0 100.0 126.0 C100.0 126.0 100.0 126.0 100.0 126.0 C100.0 126.0 100.0 126.0 100.0 126.0 C100.0 126.0 100.0 126.0 100.0 126.0 C100.0 126.0 100.0 126.0 100.0 126.0 C100.0 126.0 100.0 126.0 100.0 126.0 C100.0 126.0 100.0 126.0 100.0 126.0 C100.0 126.0 100.0 126.0 100.0 126.0 C100.0 126.0 100.0 126.0 100.0 126.0 C100.0 126.0 100.0 126.0 100.0 126.0 C100.0 126.0 100.0 126.0 100.0 126.0 C100.0 126.0 100.0 126.0 100.0 126.0 C100.0 126.0 100.0 126.0 100.0 126.0 C100.0 126.0 100.0 126.0 100.0 126.0 C100.0 126.0 100.0 126.0 100.0 126.0 C100.0 126.0 100.0 126.0 100.0 126.0 C100.0 126.0 100.0 126.0 100.0 126.0 C100.0 126.0 100.0 126.0 100.0 126.0 C100.0 126.0 100.0 126.0 100.0 126.0 C100.0 126.0 100.0 126.0 100.0 126.0 C100.0 126.0 100.0 126.0 100.0 126.0 C100.0 126.0 100.0 126.0 100.0 126.0 C100.0 126.0 100.0 126.0 100.0 126.0 C100.0 126.0 100.0 126.0 100.0 126.0 C100.0 126.0 100.0 126.0 100.0 126.0 C100.0 126.0 100.0 126.0 100.0 126.0 C100.0 126.0 100.0 126.0 100.0 126.0 C100.0 126.0 100.0 126.0 100.0 126.0 C100.0 126.0 100.0 126.0 100.0 126.0 C100.0 126.0 100.0 126.0 100.0 126.0 C100.0 126.0 100.0 126.0 100.0 126.0 C100.0 126.0 100.0 126.0 100.0 126.0 C100.0 126.0 100.0 126.0 100.0 126.0 C100.0 126.0 100.0 126.0 100.0 126.0 C100.0 126.0 100.0 126.0 100.0 126.0 C100.0 126.0 100.0 126.0 100.0 126.0 C100.0 126.0 100.0 126.0 100.0 126.0 C100.0 126.0 100.0 126.0 100.0 126.0 C100.0 126.0 100.0 126.0 100.0 126.0 C100.0 126.0 100.0 126.0 100.0 126.0 C100.0 126.0 100.0 126.0 100.0 126.0 C100.0 126.0 100.0 126.0 100.0 126.0 C100.0 126.0 100.0 126.0 100.0 126.0 C100.0 126.0 100.0 126.0 100.0 126.0 C100.0 126.0 100.0 126.0 100.0 126.0 C100.0 126.0 100.0 126.0 100.0 126.0 C100.0 126.0 100.0 126.0 100.0 126.0 C100.0 126.0 100.0 126.0 100.0 126.0 C100.0 126.0 100.0 126.0 100.0 126.0 C100.0 126.0 100.0 126.0 100.0 126.0 C100.0 126.0 100.0 126.0 100.0 126.0 C100.0 126.0 100.0 126.0 100.0 126.0 C100.0 126.0 100.0 126.0 100.0 126.0 C100.0 126.0 100.0 126.0 100.0 126.0 C100.0 126.0 100.0 126.0 100.0 126.0 C100.0 126.0 100.0 126.0 100.0 126.0 C100.0 126.0 100.0 126.0 100.0 126.0 C100.0 126.0 100.0 126.0 100.0 126.0 C100.0 126.0 100.0 126.0 100.0 126.0 C100.0 126.0 100.0 126.0 100.0 126.0 C100.0 126.0 100.0 126.0 100.0 126.0 C100.0 126.0 100.0 126.0 100.0 126.0 C100.0 126.0 100.0 126.0 100.0 126.0 C100.0 126.0 100.0 126.0 100.0 126.0 C100.0 126.0 100.0 126.0 100.0 126.0 C100.0 126.0 100.0 126.0 100.0 126.0 C100.0 126.0 100.0 126.0 100.0 126.0 C100.0 126.0 100.0 126.0 100.0 126.0 C100.0 126.0 100.0 126.0 100.0 126.0 C100.0 126.0 100.0 126.0 100.0 126.0 C100.0 126.0 100.0 126.0 100.0 126.0 C100.0 126.0 100.0 126.0 100.0 126.0 C100.0 126.0 100.0 126.0 100.0 126.0 C100.0 126.0 100.0 126.0 100.0 126.0 C100.0 126.0 100.0 126.0 100.0 126.0 C100.0 126.0 100.0 126.0 100.0 126.0 C100.0 126.0 100.0 126.0 100.0 126.0 C100.0 126.0 100.0 126.0 100.0 126.0 C100.0 126.0 100.0 126.0 100.0 126.0 C100.0 126.0 100.0 126.0 100.0 126.0 C100.0 126.0 100.0 126.0 100.0 126.0 C100.0 126.0 100.0 126.0 100.0 126.0 C100.0 126.0 100.0 126.0 100.0 126.0 C100.0 126.0 100.0 126.0 100.0 126.0 C100.0 126.0 100.0 126.0 100.0 126.0 C100.0 126.0 100.0 126.0 100.0 126.0 C100.0 126.0 100.0 126.0 100.0 126.0 C100.0 126.0 100.0 126.0 100.0 126.0"></path></svg>