<svg xmlns="http://www.w3.org/2000/svg" viewBox="0.0 0.0 200.0 200.0" height="200px" width="200px"><path fill="#66aabb" fill-opacity="1.0"  filling="0" d="M133.0 147.0 C127.0 147.0 122.0 149.0 120.0 153.0 C117.0 147.0 111.0 142.0 105.0 142.0 L95.0 142.0 C89.0 142.0 83.0 147.0 80.0 153.0 C78.0 149.0 73.0 147.0 67.0 147.0 C56.0 147.0 48.0 156.0 48.0 167.0 C48.0 167.0 48.0 168.0 48.0 168.0 C40.0 168.0 34.0 173.0 34.0 180.0 C34.0 182.0 36.0 183.0 37.0 183.0 L163.0 183.0 C164.0 183.0 166.0 182.0 166.0 180.0 C166.0 173.0 160.0 168.0 152.0 168.0 C152.0 168.0 152.0 167.0 152.0 167.0 C152.0 156.0 144.0 147.0 133.0 147.0 L133.0 147.0 Z"></path>
<path fill="#66aabb" fill-opacity="1.0"  filling="0" d="M133.0 147.0 C127.0 147.0 122.0 149.0 120.0 153.0 C117.0 147.0 111.0 142.0 105.0 142.0 L100.0 142.0 L100.0 183.0 L163.0 183.0 C164.0 183.0 166.0 182.0 166.0 180.0 C166.0 173.0 160.0 168.0 152.0 168.0 C152.0 168.0 152.0 167.0 152.0 167.0 C152.0 156.0 144.0 147.0 133.0 147.0 L133.0 147.0 Z"></path>
<path fill="#000000" fill-opacity="1.0"  filling="0" d="M113.0 137.0 C113.0 137.0 113.0 137.0 113.0 137.0 C113.0 137.0 113.0 137.0 113.0 137.0 C113.0 137.0 113.0 137.0 113.0 137.0 C113.0 137.0 113.0 137.0 113.0 137.0 C113.0 137.0 113.0 137.0 113.0 137.0 C113.0 137.0 113.0 137.0 113.0 137.0 C113.0 137.0 113.0 137.0 113.0 137.0 C113.0 137.0 113.0 137.0 113.0 137.0 C113.0 137.0 113.0 137.0 113.0 137.0 C113.0 137.0 113.0 137.0 113.0 137.0 C113.0 137.0 113.0 137.0 113.0 137.0 C113.0 137.0 113.0 137.0 113.0 137.0 C113.0 137.0 113.0 137.0 113.0 137.0 C113.0 137.0 113.0 137.0 113.0 137.0 C113.0 137.0 113.0 137.0 113.0 137.0 C113.0 137.0 113.0 137.0 113.0 137.0 C113.0 137.0 113.0 137.0 113.0 137.0 C113.0 137.0 113.0 137.0 113.0 137.0 C113.0 137.0 113.0 137.0 113.0 137.0 C113.0 137.0 113.0 137.0 113.0 137.0 C113.0 137.0 113.0 137.0 113.0 137.0 C113.0 137.0 113.0 137.0 113.0 137.0 C113.0 137.0 113.0 137.0 113.0 137.0 C113.0 137.0 113.0 137.0 113.0 137.0 C113.0 137.0 113.0 137.0 113.0 137.0 C113.0 137.0 113.0 137.0 113.0 137.0 C113.0 137.0 113.0 137.0 113.0 137.0 C113.0 137.0 113.0 137.0 113.0 137.0 C113.0 137.0 113.0 137.0 113.0 137.0 C113.0 137.0 113.0 137.0 113.0 137.0 C113.0 137.0 113.0 137.0 113.0 137.0 C113.0 137.0 113.0 137.0 113.0 137.0 C113.0 137.0 113.0 137.0 113.0 137.0 C113.0 137.0 113.0 137.0 113.0 137.0 C113.0 137.0 113.0 137.0 113.0 137.0 C113.0 137.0 113.0 137.0 113.0 137.0 C113.0 137.0 113.0 137.0 113.0 137.0 C113.0 137.0 113.0 137.0 113.0 137.0 C113.0 137.0 113.0 137.0 113.0 137.0 C113.0 137.0 113.0 137.0 113.0 137.0 C113.0 137.0 113.0 137.0 113.0 137.0 C113.0 137.0 113.0 137.0 113.0 137.0 C113.0 137.0 113.0 137.0 113.0 137.0 C113.0 137.0 113.0 137.0 113.0 137.0 C113.0 137.0 113.0 137.0 113.0 137.0 C113.0 137.0 113.0 137.0 113.0 137.0 C113.0 137.0 113.0 137.0 113.0 137.0 C113.0 137.0 113.0 137.0 113.0 137.0 C113.0 137.0 113.0 137.0 113.0 137.0 C113.0 137.0 113.0 137.0 113.0 137.0 C113.0 137.0 113.0 137.0 113.0 137.0 C113.0 137.0 113.0 137.0 113.0 137.0 C113.0 137.0 113.0 137.0 113.0 137.0 C113.0 137.0 113.0 137.0 113.0 137.0 C113.0 137.0 113.0 137.0 113.0 137.0 C113.0 137.0 113.0 137.0 113.0 137.0 C113.0 137.0 113.0 137.0 113.0 137.0 C113.0 137.0 113.0 137.0 113.0 137.0 C113.0 137.0 113.0 137.0 113.0 137.0 C113.0 137.0 113.0 137.0 113.0 137.0 C113.0 137.0 113.0 137.0 113.0 137.0 C113.0 137.0 113.0 137.0 113.0 137.0 C113.0 137.0 113.0 137.0 113.0 137.0 C113.0 137.0 113.0 137.0 113.0 137.0 C113.0 137.0 113.0 137.0 113.0 137.0 C113.0 137.0 113.0 137.0 113.0 137.0 C113.0 137.0 113.0 137.0 113.0 137.0 C113.0 137.0 113.0 137.0 113.0 137.0 C113.0 137.0 113.0 137.0 113.0 137.0 C113.0 137.0 113.0 137.0 113.0 137.0 C113.0 137.0 113.0 137.0 113.0 137.0 C113.0 137.0 113.0 137.0 113.0 137.0 C113.0 137.0 113.0 137.0 113.0 137.0 C113.0 137.0 113.0 137.0 113.0 137.0 C113.0 137.0 113.0 137.0 113.0 137.0 C113.0 137.0 113.0 137.0 113.0 137.0 C113.0 137.0 113.0 137.0 113.0 137.0 C113.0 137.0 113.0 137.0 113.0 137.0 C113.0 137.0 113.0 137.0 113.0 137.0 C113.0 137.0 113.0 137.0 113.0 137.0 C113.0 137.0 113.0 137.0 113.0 137.0 C113.0 137.0 113.0 137.0 113.0 137.0 C113.0 137.0 113.0 137.0 113.0 137.0 C113.0 137.0 113.0 137.0 113.0 137.0 C113.0 137.0 113.0 137.0 113.0 137.0 C113.0 137.0 113.0 137.0 113.0 137.0 C113.0 137.0 113.0 137.0 113.0 137.0 C113.0 137.0 113.0 137.0 113.0 137.0 C113.0 137.0 113.0 137.0 113.0 137.0 C113.0 137.0 113.0 137.0 113.0 137.0 C113.0 137.0 113.0 137.0 113.0 137.0 C113.0 137.0 113.0 137.0 113.0 137.0 C113.0 137.0 113.0 137.0 113.0 137.0 C113.0 137.0 113.0 137.0 113.0 137.0 C113.0 137.0 113.0 137.0 113.0 137.0 C113.0 137.0 113.0 137.0 113.0 137.0 C113.0 137.0 113.0 137.0 113.0 137.0 C113.0 137.0 113.0 137.0 113.0 137.0 C113.0 137.0 113.0 137.0 113.0 137.0 C113.0 137.0 113.0 137.0 113.0 137.0 C113.0 137.0 113.0 137.0 113.0 137.0 C113.0 137.0 113.0 137.0 113.0 137.0 C113.0 137.0 113.0 137.0 113.0 137.0 C113.0 137.0 113.0 137.0 113.0 137.0 C113.0 137.0 113.0 137.0 113.0 137.0 C113.0 137.0 113.0 137.0 113.0 137.0 C113.0 137.0 113.0 137.0 113.0 137.0 C113.0 137.0 113.0 137.0 113.0 137.0 C113.0 137.0 113.0 137.0 113.0 137.0 C113.0 137.0 113.0 137.0 113.0 137.0 C113.0 137.0 113.0 137.0 113.0 137.0 C113.0 137.0 113.0 137.0 113.0 137.0 C113.0 137.0 113.0 137.0 113.0 137.0 C113.0 137.0 113.0 137.0 113.0 137.0 C113.0 137.0 113.0 137.0 113.0 137.0 C113.0 137.0 113.0 137.0 113.0 137.0 C113.0 137.0 113.0 137.0 113.0 137.0 C113.0 137.0 113.0 137.0 113.0 137.0 C113.0 137.0 113.0 137.0 113.0 137.0 C113.0 137.0 113.0 137.0 113.0 137.0 C113.0 137.0 113.0 137.0 113.0 137.0 C113.0 137.0 113.0 137.0 113.0 137.0 C113.0 137.0 113.0 137.0 113.0 137.0 C113.0 137.0 113.0 137.0 113.0 137.0 C113.0 137.0 113.0 137.0 113.0 137.0 C113.0 137.0 113.0 137.0 113.0 137.0 C113.0 137.0 113.0 137.0 113.0 137.0 C113.0 137.0 113.0 137.0 113.0 137.0 C113.0 137.0 113.0 137.0 113.0 137.0 C113.0 137.0 113.0 137.0 113.0 137.0 C113.0 137.0 113.0 137.0 113.0 137.0 C113.0 137.0 113.0 137.0 113.0 137.0 C113.0 137.0 113.0 137.0 113.0 137.0 C113.0 137.0 113.0 137.0 113.0 137.0 C113.0 137.0 113.0 137.0 113.0 137.0 C113.0 137.0 113.0 137.0 113.0 137.0 C113.0 137.0 113.0 137.0 113.0 137.0 C113.0 137.0 113.0 137.0 113.0 137.0 C113.0 137.0 113.0 137.0 113.0 137.0 C113.0 137.0 113.0 137.0 113.0 137.0 C113.0 137.0 113.0 137.0 113.0 137.0 C113.0 137.0 113.0 137.0 113.0 137.0 C113.0 137.0 113.0 137.0 113.0 137.0 C113.0 137.0 113.0 137.0 113.0 137.0 C113.0 137.0 113.0 137.0 113.0 137.0 C113.0 137.0 113.0 137.0 113.0 137.0 C113.0 137.0 113.0 137.0 113.0 137.0 C113.0 137.0 113.0 137.0 113.0 137.0 C113.0 137.0 113.0 137.0 113.0 137.0 C113.0 137.0 113.0 137.0 113.0 137.0 C113.0 137.0 113.0 137.0 113.0 137.0 C113.0 137.0 113.0 137.0 113.0 137.0 C113.0 137.0 113.0 137.0 113.0 137.0 C113.0 137.0 113.0 137.0 113.0 137.0 C113.0 137.0 113.0 137.0 113.0 137.0 C113.0 137.0 113.0 137.0 113.0 137.0 C113.0 137.0 113.0 137.0 113.0 137.0 C113.0 137.0 113.0 137.0 113.0 137.0 C113.0 137.0 113.0 137.0 113.0 137.0 C113.0 137.0 113.0 137.0 113.0 137.0 C113.0 137.0 113.0 137.0 113.0 137.0 C113.0 137.0 113.0 137.0 113.0 137.0 C113.0 137.0 113.0 137.0 113.0 137.0 C113.0 137.0 113.0 137.0 113.0 137.0 C113.0 137.0 113.0 137.0 113.0 137.0 C113.0 137.0 113.0 137.0 113.0 137.0 C113.0 137.0 113.0 137.0 113.0 137.0 C113.0 137.0 113.0 137.0 113.0 137.0 C113.0 137.0 113.0 137.0 113.0 137.0 C113.0 137.0 113.0 137.0 113.0 137.0 C113.0 137.0 113.0 137.0 113.0 137.0 C113.0 137.0 113.0 137.0 113.0 137.0 C113.0 137.0 113.0 137.0 113.0 137.0 C113.0 137.0 113.0 137.0 113.0 137.0 C113.0 137.0 113.0 137.0 113.0 137.0 C113.0 137.0 113.0 137.0 113.0 137.0 C113.0 137.0 113.0 137.0 113.0 137.0 C113.0 137.0 113.0 137.0 113.0 137.0 C113.0 137.0 113.0 137.0 113.0 137.0 C113.0 137.0 113.0 137.0 113.0 137.0 C113.0 137.0 113.0 137.0 113.0 137.0 C113.0 137.0 113.0 137.0 113.0 137.0 C113.0 137.0 113.0 137.0 113.0 137.0 C113.0 137.0 113.0 137.0 113.0 137.0 C113.0 137.0 113.0 137.0 113.0 137.0 C113.0 137.0 113.0 137.0 113.0 137.0 C113.0 137.0 113.0 137.0 113.0 137.0 C113.0 137.0 113.0 137.0 113.0 137.0 C113.0 137.0 113.0 137.0 113.0 137.0 C113.0 137.0 113.0 137.0 113.0 137.0 C113.0 137.0 113.0 137.0 113.0 137.0 C113.0 137.0 113.0 137.0 113.0 137.0 C113.0 137.0 113.0 137.0 113.0 137.0 C113.0 137.0 113.0 137.0 113.0 137.0 C113.0 137.0 113.0 137.0 113.0 137.0 C113.0 137.0 113.0 137.0 113.0 137.0 C113.0 137.0 113.0 137.0 113.0 137.0 C113.0 137.0 113.0 137.0 113.0 137.0 C113.0 137.0 113.0 137.0 113.0 137.0 C113.0 137.0 113.0 137.0 113.0 137.0 C113.0 137.0 113.0 137.0 113.0 137.0 C113.0 137.0 113.0 137.0 113.0 137.0 C113.0 137.0 113.0 137.0 113.0 137.0 C113.0 137.0 113.0 137.0 113.0 137.0 C113.0 137.0 113.0 137.0 113.0 137.0 C113.0 137.0 113.0 137.0 113.0 137.0 C113.0 137.0 113.0 137.0 113.0 137.0 C113.0 137.0 113.0 137.0 113.0 137.0 C113.0 137.0 113.0 137.0 113.0 137.0 C113.0 137.0 113.0 137.0 113.0 137.0 C113.0 137.0 113.0 137.0 113.0 137.0 C113.0 137.0 113.0 137.0 113.0 137.0 C113.0 137.0 113.0 137.0 113.0 137.0 C113.0 137.0 113.0 137.0 113.0 137.0 C113.0 137.0 113.0 137.0 113.0 137.0 C113.0 137.0 113.0 137.0 113.0 137.0 C113.0 137.0 113.0 137.0 113.0 137.0 C113.0 137.0 113.0 137.0 113.0 137.0 C113.0 137.0 113.0 137.0 113.0 137.0 C113.0 137.0 113.0 137.0 113.0 137.0 C113.0 137.0 113.0 137.0 113.0 137.0 C113.0 137.0 113.0 137.0 113.0 137.0 C113.0 137.0 113.0 137.0 113.0 137.0 C113.0 137.0 113.0 137.0 113.0 137.0 C113.0 137.0 113.0 137.0 113.0 137.0 C113.0 137.0 113.0 137.0 113.0 137.0 C113.0 137.0 113.0 137.0 113.0 137.0 C113.0 137.0 113.0 137.0 113.0 137.0 C113.0 137.0 113.0 137.0 113.0 137.0 C113.0 137.0 113.0 137.0 113.0 137.0 C113.0 137.0 113.0 137.0 113.0 137.0 C113.0 137.0 113.0 137.0 113.0 137.0 C113.0 137.0 113.0 137.0 113.0 137.0 C113.0 137.0 113.0 137.0 113.0 137.0 C113.0 137.0 113.0 137.0 113.0 137.0 C113.0 137.0 113.0 137.0 113.0 137.0 C113.0 137.0 113.0 137.0 113.0 137.0 C113.0 137.0 113.0 137.0 113.0 137.0 C113.0 137.0 113.0 137.0 113.0 137.0 C113.0 137.0 113.0 137.0 113.0 137.0 C113.0 137.0 113.0 137.0 113.0 137.0 C113.0 137.0 113.0 137.0 113.0 137.0 C113.0 137.0 113.0 137.0 113.0 137.0 C113.0 137.0 113.0 137.0 113.0 137.0 C113.0 137.0 113.0 137.0 113.0 137.0 C113.0 137.0 113.0 137.0 113.0 137.0 C113.0 137.0 113.0 137.0 113.0 137.0 C113.0 137.0 113.0 137.0 113.0 137.0 C113.0 137.0 113.0 137.0 113.0 137.0 C113.0 137.0 113.0 137.0 113.0 137.0 C113.0 137.0 113.0 137.0 113.0 137.0 C113.0 137.0 113.0 137.0 113.0 137.0 C113.0 137.0 113.0 137.0 113.0 137.0 C113.0 137.0 113.0 137.0 113.0 137.0 C113.0 137.0 113.0 137.0 113.0 137.0 C113.0 137.0 113.0 137.0 113.0 137.0 C113.0 137.0 113.0 137.0 113.0 137.0 C113.0 137.0 113.0 137.0 113.0 137.0 C113.0 137.0 113.0 137.0 113.0 137.0 C113.0 137.0 113.0 137.0 113.0 137.0 C113.0 137.0 113.0 137.0 113.0 137.0 C113.0 137.0 113.0 137.0 113.0 137.0 C113.0 137.0 113.0 137.0 113.0 137.0 C113.0 137.0 113.0 137.0 113.0 137.0 C113.0 137.0 113.0 137.0 113.0 137.0 C113.0 137.0 113.0 137.0 113.0 137.0 C113.0 137.0 113.0 137.0 113.0 137.0 C113.0 137.0 113.0 137.0 113.0 137.0 C113.0 137.0 113.0 137.0 113.0 137.0 C113.0 137.0 113.0 137.0 113.0 137.0 C113.0 137.0 113.0 137.0 113.0 137.0 C113.0 137.0 113.0 137.0 113.0 137.0 C113.0 137.0 113.0 137.0 113.0 137.0 C113.0 137.0 113.0 137.0 113.0 137.0 C113.0 137.0 113.0 137.0 113.0 137.0 C113.0 137.0 113.0 137.0 113.0 137.0 C113.0 137.0 113.0 137.0 113.0 137.0 C113.0 137.0 113.0 137.0 113.0 137.0 C113.0 137.0 113.0 137.0 113.0 137.0 C113.0 137.0 113.0 137.0 113.0 137.0 C113.0 137.0 113.0 137.0 113.0 137.0 C113.0 137.0 113.0 137.0 113.0 137.0 C113.0 137.0 113.0 137.0 113.0 137.0 C113.0 137.0 113.0 137.0 113.0 137.0 C113.0 137.0 113.0 137.0 113.0 137.0 C113.0 137.0 113.0 137.0 113.0 137.0 C113.0 137.0 113.0 137.0 113.0 137.0 C113.0 137.0 113.0 137.0 113.0 137.0 C113.0 137.0 113.0 137.0 113.0 137.0 C113.0 137.0 113.0 137.0 113.0 137.0 C113.0 137.0 113.0 137.0 113.0 137.0 C113.0 137.0 113.0 137.0 113.0 137.0 C113.0 137.0 113.0 137.0 113.0 137.0 C113.0 137.0 113.0 137.0 113.0 137.0 C113.0 137.0 113.0 137.0 113.0 137.0 C113.0 137.0 113.0 137.0 113.0 137.0 C113.0 137.0 113.0 137.0 113.0 137.0 C113.0 137.0 113.0 137.0 113.0 137.0 C113.0 137.0 113.0 137.0 113.0 137.0 C113.0 137.0 113.0 137.0 113.0 137.0 C113.0 137.0 113.0 137.0 113.0 137.0 C113.0 137.0 113.0 137.0 113.0 137.0 C113.0 137.0 113.0 137.0 113.0 137.0 C113.0 137.0 113.0 137.0 113.0 137.0 C113.0 137.0 113.0 137.0 113.0 137.0 C113.0 137.0 113.0 137.0 113.0 137.0 C113.0 137.0 113.0 137.0 113.0 137.0 C113.0 137.0 113.0 137.0 113.0 137.0 C113.0 137.0 113.0 137.0 113.0 137.0 C113.0 137.0 113.0 137.0 113.0 137.0 C113.0 137.0 113.0 137.0 113.0 137.0 C113.0 137.0 113.0 137.0 113.0 137.0 C113.0 137.0 113.0 137.0 113.0 137.0 C113.0 137.0 113.0 137.0 113.0 137.0 C113.0 137.0 113.0 137.0 113.0 137.0 C113.0 137.0 113.0 137.0 113.0 137.0 C113.0 137.0 113.0 137.0 113.0 137.0 C113.0 137.0 113.0 137.0 113.0 137.0 C113.0 137.0 113.0 137.0 113.0 137.0 C113.0 137.0 113.0 137.0 113.0 137.0 C113.0 137.0 113.0 137.0 113.0 137.0 C113.0 137.0 113.0 137.0 113.0 137.0 C113.0 137.0 113.0 137.0 113.0 137.0 C113.0 137.0 113.0 137.0 113.0 137.0 C113.0 137.0 113.0 137.0 113.0 137.0 C113.0 137.0 113.0 137.0 113.0 137.0 C113.0 137.0 113.0 137.0 113.0 137.0 C113.0 137.0 113.0 137.0 113.0 137.0 C113.0 137.0 113.0 137.0 113.0 137.0 C113.0 137.0 113.0 137.0 113.0 137.0 C113.0 137.0 113.0 137.0 113.0 137.0 C113.0 137.0 113.0 137.0 113.0 137.0 C113.0 137.0 113.0 137.0 113.0 137.0 C113.0 137.0 113.0 137.0 113.0 137.0 C113.0 137.0 113.0 137.0 113.0 137.0 C113.0 137.0 113.0 137.0 113.0 137.0 C113.0 137.0 113.0 137.0 113.0 137.0 C113.0 137.0 113.0 137.0 113.0 137.0 C113.0 137.0 113.0 137.0 113.0 137.0 C113.0 137.0 113.0 137.0 113.0 137.0 C113.0 137.0 113.0 137.0 113.0 137.0 C113.0 137.0 113.0 137.0 113.0 137.0 C113.0 137.0 113.0 137.0 113.0 137.0 C113.0 137.0 113.0 137.0 113.0 137.0 C113.0 137.0 113.0 137.0 113.0 137.0 C113.0 137.0 113.0 137.0 113.0 137.0 C113.0 137.0 113.0 137.0 113.0 137.0 C113.0 137.0 113.0 137.0 113.0 137.0 C113.0 137.0 113.0 137.0 113.0 137.0 C113.0 137.0 113.0 137.0 113.0 137.0 C113.0 137.0 113.0 137.0 113.0 137.0 C113.0 137.0 113.0 137.0 113.0 137.0 C113.0 137.0 113.0 137.0 113.0 137.0 C113.0 137.0 113.0 137.0 113.0 137.0 C113.0 137.0 113.0 137.0 113.0 137.0"></path></svg>