<svg xmlns="http://www.w3.org/2000/svg" viewBox="0.0 0.0 200.0 200.0" height="200px" width="200px"><path fill="#66aabb" fill-opacity="1.0"  filling="0" d="M152.0 168.0 C152.0 167.0 152.0 166.0 152.0 165.0 C152.0 156.0 144.0 147.0 133.0 147.0 C127.0 147.0 123.0 149.0 120.0 153.0 C117.0 147.0 109.0 142.0 100.0 142.0 C91.0 142.0 83.0 147.0 80.0 153.0 C77.0 149.0 73.0 147.0 67.0 147.0 C56.0 147.0 48.0 156.0 48.0 165.0 C48.0 166.0 48.0 167.0 48.0 168.0 L47.0 168.0 C40.0 168.0 34.0 173.0 34.0 180.0 C34.0 182.0 36.0 183.0 37.0 183.0 L163.0 183.0 C164.0 183.0 166.0 182.0 166.0 180.0 C166.0 173.0 160.0 168.0 153.0 168.0 L152.0 168.0 L152.0 168.0 Z"></path>
<path fill="#66aabb" fill-opacity="1.0"  filling="0" d="M100.0 142.0 C91.0 142.0 83.0 147.0 80.0 153.0 C77.0 149.0 73.0 147.0 67.0 147.0 C56.0 147.0 48.0 156.0 48.0 165.0 C48.0 166.0 48.0 167.0 48.0 168.0 L47.0 168.0 C40.0 168.0 34.0 173.0 34.0 180.0 C34.0 182.0 36.0 183.0 37.0 183.0 L100.0 183.0 L100.0 142.0 L100.0 142.0 Z"></path>
<path fill="#000000" fill-opacity="1.0"  filling="0" d="M100.0 121.0 C98.0 121.0 97.0 122.0 97.0 124.0 L97.0 130.0 C97.0 132.0 98.0 133.0 100.0 133.0 C102.0 133.0 103.0 132.0 103.0 130.0 L103.0 124.0 C103.0 122.0 102.0 121.0 100.0 121.0 L100.0 121.0 Z"></path>
<path fill="#000000" fill-opacity="1.0"  filling="0" d="M112.0 123.0 C111.0 123.0 110.0 123.0 110.0 124.0 C109.0 125.0 110.0 126.0 111.0 127.0 C118.0 128.0 125.0 133.0 132.0 129.0 C132.0 129.0 132.0 129.0 132.0 129.0 C132.0 129.0 132.0 129.0 132.0 129.0 C134.0 129.0 135.0 130.0 136.0 130.0 C137.0 130.0 138.0 129.0 138.0 128.0 C138.0 128.0 138.0 128.0 138.0 128.0 C138.0 128.0 138.0 128.0 138.0 128.0 C139.0 126.0 140.0 113.0 141.0 108.0 C141.0 103.0 133.0 94.0 126.0 88.0 C125.0 88.0 124.0 87.0 123.0 88.0 C122.0 88.0 121.0 89.0 121.0 90.0 C121.0 91.0 121.0 91.0 121.0 92.0 C121.0 92.0 121.0 92.0 121.0 92.0 C121.0 92.0 121.0 93.0 121.0 93.0 C121.0 93.0 121.0 93.0 121.0 93.0 C121.0 93.0 121.0 94.0 121.0 94.0 C121.0 94.0 121.0 94.0 121.0 94.0 C121.0 94.0 121.0 95.0 121.0 95.0 C121.0 95.0 121.0 95.0 121.0 95.0 C121.0 95.0 121.0 96.0 121.0 96.0 C121.0 96.0 121.0 96.0 121.0 96.0 C121.0 96.0 121.0 97.0 121.0 97.0 C121.0 97.0 121.0 97.0 121.0 97.0 C121.0 97.0 121.0 98.0 121.0 98.0 C121.0 98.0 121.0 98.0 121.0 98.0 C121.0 98.0 121.0 99.0 121.0 99.0 C121.0 99.0 121.0 99.0 121.0 99.0 C121.0 99.0 121.0 100.0 121.0 100.0 C121.0 100.0 121.0 100.0 121.0 100.0 C121.0 100.0 121.0 101.0 121.0 101.0 C121.0 101.0 121.0 101.0 121.0 101.0 C121.0 101.0 121.0 102.0 121.0 102.0 C121.0 102.0 121.0 102.0 121.0 102.0 C121.0 102.0 121.0 103.0 121.0 103.0 C121.0 103.0 121.0 103.0 121.0 103.0 C121.0 103.0 121.0 104.0 121.0 104.0 C121.0 104.0 121.0 104.0 121.0 104.0 C121.0 104.0 121.0 105.0 121.0 105.0 C121.0 105.0 121.0 105.0 121.0 105.0 C121.0 105.0 121.0 106.0 121.0 106.0 C121.0 106.0 121.0 106.0 121.0 106.0 C121.0 106.0 121.0 107.0 121.0 107.0 C121.0 107.0 121.0 107.0 121.0 107.0 C121.0 107.0 121.0 108.0 121.0 108.0 C121.0 108.0 121.0 108.0 121.0 108.0 C121.0 108.0 121.0 109.0 121.0 109.0 C121.0 109.0 121.0 109.0 121.0 109.0 C121.0 109.0 121.0 110.0 121.0 110.0 C121.0 110.0 121.0 110.0 121.0 110.0 C121.0 110.0 121.0 111.0 121.0 111.0 C121.0 111.0 121.0 111.0 121.0 111.0 C121.0 111.0 121.0 112.0 121.0 112.0 C121.0 112.0 121.0 112.0 121.0 112.0 C121.0 112.0 121.0 113.0 121.0 113.0 C121.0 113.0 121.0 113.0 121.0 113.0 C121.0 113.0 121.0 114.0 121.0 114.0 C121.0 114.0 121.0 114.0 121.0 114.0 C121.0 114.0 121.0 115.0 121.0 115.0 C121.0 115.0 121.0 115.0 121.0 115.0 C121.0 115.0 121.0 116.0 121.0 116.0 C121.0 116.0 121.0 116.0 121.0 116.0 C121.0 116.0 121.0 117.0 121.0 117.0 C121.0 117.0 121.0 117.0 121.0 117.0 C121.0 117.0 121.0 118.0 121.0 118.0 C121.0 118.0 121.0 118.0 121.0 118.0 C121.0 118.0 121.0 119.0 121.0 119.0 C121.0 119.0 121.0 119.0 121.0 119.0 C121.0 119.0 121.0 119.0 121.0 120.0 C121.0 120.0 121.0 120.0 121.0 120.0 C121.0 120.0 121.0 120.0 121.0 120.0 C121.0 120.0 121.0 121.0 121.0 121.0 C121.0 121.0 121.0 121.0 121.0 121.0 C121.0 121.0 121.0 121.0 121.0 122.0 C121.0 122.0 121.0 122.0 121.0 122.0 C121.0 122.0 121.0 122.0 121.0 122.0 C121.0 122.0 121.0 123.0 121.0 123.0 C121.0 123.0 121.0 123.0 121.0 123.0 C120.0 123.0 120.0 123.0 120.0 123.0 C120.0 123.0 120.0 123.0 120.0 123.0 C120.0 124.0 120.0 124.0 120.0 124.0 C120.0 124.0 120.0 124.0 120.0 124.0 C120.0 124.0 120.0 124.0 120.0 124.0 C120.0 124.0 120.0 124.0 120.0 124.0 C120.0 124.0 120.0 124.0 120.0 124.0 C120.0 124.0 120.0 124.0 120.0 124.0 C120.0 124.0 120.0 124.0 120.0 124.0 C120.0 124.0 120.0 124.0 120.0 124.0 C120.0 124.0 120.0 124.0 120.0 124.0 C120.0 124.0 120.0 124.0 120.0 124.0 C120.0 124.0 120.0 124.0 120.0 124.0 C120.0 124.0 120.0 124.0 120.0 124.0 C120.0 124.0 120.0 124.0 120.0 124.0 C120.0 124.0 120.0 124.0 120.0 124.0 C120.0 124.0 120.0 124.0 120.0 124.0 C120.0 124.0 120.0 124.0 120.0 124.0 C120.0 124.0 120.0 124.0 120.0 124.0 C120.0 124.0 120.0 124.0 120.0 124.0 C120.0 124.0 120.0 124.0 120.0 124.0 C120.0 124.0 120.0 124.0 120.0 124.0 C120.0 124.0 120.0 124.0 120.0 124.0 C120.0 124.0 120.0 124.0 120.0 124.0 C120.0 124.0 120.0 124.0 120.0 124.0 C120.0 124.0 120.0 124.0 120.0 124.0 C120.0 124.0 120.0 124.0 120.0 124.0 C120.0 124.0 120.0 124.0 120.0 124.0 C120.0 124.0 120.0 124.0 120.0 124.0 C120.0 124.0 120.0 124.0 120.0 124.0 C120.0 124.0 120.0 124.0 120.0 124.0 C120.0 124.0 120.0 124.0 120.0 124.0 C120.0 124.0 120.0 124.0 120.0 124.0 C120.0 124.0 120.0 124.0 120.0 124.0 C120.0 124.0 120.0 124.0 120.0 124.0 C120.0 124.0 120.0 124.0 120.0 124.0 C120.0 124.0 120.0 124.0 120.0 124.0 C120.0 124.0 120.0 124.0 120.0 124.0 C120.0 124.0 120.0 124.0 120.0 124.0 C120.0 124.0 120.0 124.0 120.0 124.0 C120.0 124.0 120.0 124.0 120.0 124.0 C120.0 124.0 120.0 124.0 120.0 124.0 C120.0 124.0 120.0 124.0 120.0 124.0 C120.0 124.0 120.0 124.0 120.0 124.0 C120.0 124.0 120.0 124.0 120.0 124.0 C120.0 124.0 120.0 124.0 120.0 124.0 C120.0 124.0 120.0 124.0 120.0 124.0 C120.0 124.0 120.0 124.0 120.0 124.0 C120.0 124.0 120.0 124.0 120.0 124.0 C120.0 124.0 120.0 124.0 120.0 124.0 C120.0 124.0 120.0 124.0 120.0 124.0 C120.0 124.0 120.0 124.0 120.0 124.0 C120.0 124.0 120.0 124.0 120.0 124.0 C120.0 124.0 120.0 124.0 120.0 124.0 C120.0 124.0 120.0 124.0 120.0 124.0 C120.0 124.0 120.0 124.0 120.0 124.0 C120.0 124.0 120.0 124.0 120.0 124.0 C120.0 124.0 120.0 124.0 120.0 124.0 C120.0 124.0 120.0 124.0 120.0 124.0 C120.0 124.0 120.0 124.0 120.0 124.0 C120.0 124.0 120.0 124.0 120.0 124.0 C120.0 124.0 120.0 124.0 120.0 124.0 C120.0 124.0 120.0 124.0 120.0 124.0 C120.0 124.0 120.0 124.0 120.0 124.0 C120.0 124.0 120.0 124.0 120.0 124.0 C120.0 124.0 120.0 124.0 120.0 124.0 C120.0 124.0 120.0 124.0 120.0 124.0 C120.0 124.0 120.0 124.0 120.0 124.0 C120.0 124.0 120.0 124.0 120.0 124.0 C120.0 124.0 120.0 124.0 120.0 124.0 C120.0 124.0 120.0 124.0 120.0 124.0 C120.0 124.0 120.0 124.0 120.0 124.0 C120.0 124.0 120.0 124.0 120.0 124.0 C120.0 124.0 120.0 124.0 120.0 124.0 C120.0 124.0 120.0 124.0 120.0 124.0 C120.0 124.0 120.0 124.0 120.0 124.0 C120.0 124.0 120.0 124.0 120.0 124.0 C120.0 124.0 120.0 124.0 120.0 124.0 C120.0 124.0 120.0 124.0 120.0 124.0 C120.0 124.0 120.0 124.0 120.0 124.0 C120.0 124.0 120.0 124.0 120.0 124.0 C120.0 124.0 120.0 124.0 120.0 124.0 C120.0 124.0 120.0 124.0 120.0 124.0 C120.0 124.0 120.0 124.0 120.0 124.0 C120.0 124.0 120.0 124.0 120.0 124.0 C120.0 124.0 120.0 124.0 120.0 124.0 C120.0 124.0 120.0 124.0 120.0 124.0 C120.0 124.0 120.0 124.0 120.0 124.0 C120.0 124.0 120.0 124.0 120.0 124.0 C120.0 124.0 120.0 124.0 120.0 124.0 C120.0 124.0 120.0 124.0 120.0 124.0 C120.0 124.0 120.0 124.0 120.0 124.0 C120.0 124.0 120.0 124.0 120.0 124.0 C120.0 124.0 120.0 124.0 120.0 124.0 C120.0 124.0 120.0 124.0 120.0 124.0 C120.0 124.0 120.0 124.0 120.0 124.0 C120.0 124.0 120.0 124.0 120.0 124.0 C120.0 124.0 120.0 124.0 120.0 124.0 C120.0 124.0 120.0 124.0 120.0 124.0 C120.0 124.0 120.0 124.0 120.0 124.0 C120.0 124.0 120.0 124.0 120.0 124.0 C120.0 124.0 120.0 124.0 120.0 124.0 C120.0 124.0 120.0 124.0 120.0 124.0 C120.0 124.0 120.0 124.0 120.0 124.0 C120.0 124.0 120.0 124.0 120.0 124.0 C120.0 124.0 120.0 124.0 120.0 124.0 C120.0 124.0 120.0 124.0 120.0 124.0 C120.0 124.0 120.0 124.0 120.0 124.0 C120.0 124.0 120.0 124.0 120.0 124.0 C120.0 124.0 120.0 124.0 120.0 124.0 C120.0 124.0 120.0 124.0 120.0 124.0 C120.0 124.0 120.0 124.0 120.0 124.0 C120.0 124.0 120.0 124.0 120.0 124.0 C120.0 124.0 120.0 124.0 120.0 124.0 C120.0 124.0 120.0 124.0 120.0 124.0 C120.0 124.0 120.0 124.0 120.0 124.0 C120.0 124.0 120.0 124.0 120.0 124.0 C120.0 124.0 120.0 124.0 120.0 124.0 C120.0 124.0 120.0 124.0 120.0 124.0 C120.0 124.0 120.0 124.0 120.0 124.0 C120.0 124.0 120.0 124.0 120.0 124.0 C120.0 124.0 120.0 124.0 120.0 124.0 C120.0 124.0 120.0 124.0 120.0 124.0 C120.0 124.0 120.0 124.0 120.0 124.0 C120.0 124.0 120.0 124.0 120.0 124.0 C120.0 124.0 120.0 124.0 120.0 124.0 C120.0 124.0 120.0 124.0 120.0 124.0 C120.0 124.0 120.0 124.0 120.0 124.0 C120.0 124.0 120.0 124.0 120.0 124.0 C120.0 124.0 120.0 124.0 120.0 124.0 C120.0 124.0 120.0 124.0 120.0 124.0 C120.0 124.0 120.0 124.0 120.0 124.0 C120.0 124.0 120.0 124.0 120.0 124.0 C120.0 124.0 120.0 124.0 120.0 124.0 C120.0 124.0 120.0 124.0 120.0 124.0 C120.0 124.0 120.0 124.0 120.0 124.0 C120.0 124.0 120.0 124.0 120.0 124.0 C120.0 124.0 120.0 124.0 120.0 124.0 C120.0 124.0 120.0 124.0 120.0 124.0 C120.0 124.0 120.0 124.0 120.0 124.0 C120.0 124.0 120.0 124.0 120.0 124.0 C120.0 124.0 120.0 124.0 120.0 124.0 C120.0 124.0 120.0 124.0 120.0 124.0 C120.0 124.0 120.0 124.0 120.0 124.0 C120.0 124.0 120.0 124.0 120.0 124.0 C120.0 124.0 120.0 124.0 120.0 124.0 C120.0 124.0 120.0 124.0 120.0 124.0 C120.0 124.0 120.0 124.0 120.0 124.0 C120.0 124.0 120.0 124.0 120.0 124.0 C120.0 124.0 120.0 124.0 120.0 124.0 C120.0 124.0 120.0 124.0 120.0 124.0 C120.0 124.0 120.0 124.0 120.0 124.0 C120.0 124.0 120.0 124.0 120.0 124.0 C120.0 124.0 120.0 124.0 120.0 124.0 C120.0 124.0 120.0 124.0 120.0 124.0 C120.0 124.0 120.0 124.0 120.0 124.0 C120.0 124.0 120.0 124.0 120.0 124.0 C120.0 124.0 120.0 124.0 120.0 124.0 C120.0 124.0 120.0 124.0 120.0 124.0 C120.0 124.0 120.0 124.0 120.0 124.0 C120.0 124.0 120.0 124.0 120.0 124.0 C120.0 124.0 120.0 124.0 120.0 124.0 C120.0 124.0 120.0 124.0 120.0 124.0 C120.0 124.0 120.0 124.0 120.0 124.0 C120.0 124.0 120.0 124.0 120.0 124.0 C120.0 124.0 120.0 124.0 120.0 124.0 C120.0 124.0 120.0 124.0 120.0 124.0 C120.0 124.0 120.0 124.0 120.0 124.0 C120.0 124.0 120.0 124.0 120.0 124.0 C120.0 124.0 120.0 124.0 120.0 124.0 C120.0 124.0 120.0 124.0 120.0 124.0 C120.0 124.0 120.0 124.0 120.0 124.0 C120.0 124.0 120.0 124.0 120.0 124.0 C120.0 124.0 120.0 124.0 120.0 124.0 C120.0 124.0 120.0 124.0 120.0 124.0 C120.0 124.0 120.0 124.0 120.0 124.0 C120.0 124.0 120.0 124.0 120.0 124.0 C120.0 124.0 120.0 124.0 120.0 124.0 C120.0 124.0 120.0 124.0 120.0 124.0 C120.0 124.0 120.0 124.0 120.0 124.0 C120.0 124.0 120.0 124.0 120.0 124.0 C120.0 124.0 120.0 124.0 120.0 124.0 C120.0 124.0 120.0 124.0 120.0 124.0 C120.0 124.0 120.0 124.0 120.0 124.0 C120.0 124.0 120.0 124.0 120.0 124.0 C120.0 124.0 120.0 124.0 120.0 124.0 C120.0 124.0 120.0 124.0 120.0 124.0 C120.0 124.0 120.0 124.0 120.0 124.0 C120.0 124.0 120.0 124.0 120.0 124.0 C120.0 124.0 120.0 124.0 120.0 124.0 C120.0 124.0 120.0 124.0 120.0 124.0 C120.0 124.0 120.0 124.0 120.0 124.0 C120.0 124.0 120.0 124.0 120.0 124.0 C120.0 124.0 120.0 124.0 120.0 124.0 C120.0 124.0 120.0 124.0 120.0 124.0 C120.0 124.0 120.0 124.0 120.0 124.0 C120.0 124.0 120.0 124.0 120.0 124.0 C120.0 124.0 120.0 124.0 120.0 124.0 C120.0 124.0 120.0 124.0 120.0 124.0 C120.0 124.0 120.0 124.0 120.0 124.0 C120.0 124.0 120.0 124.0 120.0 124.0 C120.0 124.0 120.0 124.0 120.0 124.0 C120.0 124.0 120.0 124.0 120.0 124.0 C120.0 124.0 120.0 124.0 120.0 124.0 C120.0 124.0 120.0 124.0 120.0 124.0 C120.0 124.0 120.0 124.0 120.0 124.0 C120.0 124.0 120.0 124.0 120.0 124.0 C120.0 124.0 120.0 124.0 120.0 124.0 C120.0 124.0 120.0 124.0 120.0 124.0 C120.0 124.0 120.0 124.0 120.0 124.0 C120.0 124.0 120.0 124.0 120.0 124.0 C120.0 124.0 120.0 124.0 120.0 124.0 C120.0 124.0 120.0 124.0 120.0 124.0 C120.0 124.0 120.0 124.0 120.0 124.0 C120.0 124.0 120.0 124.0 120.0 124.0 C120.0 124.0 120.0 124.0 120.0 124.0 C120.0 124.0 120.0 124.0 120.0 124.0 C120.0 124.0 120.0 124.0 120.0 124.0 C120.0 124.0 120.0 124.0 120.0 124.0 C120.0 124.0 120.0 124.0 120.0 124.0 C120.0 124.0 120.0 124.0 120.0 124.0 C120.0 124.0 120.0 124.0 120.0 124.0 C120.0 124.0 120.0 124.0 120.0 124.0 C120.0 124.0 120.0 124.0 120.0 124.0 C120.0 124.0 120.0 124.0 120.0 124.0 C120.0 124.0 120.0 124.0 120.0 124.0 C120.0 124.0 120.0 124.0 120.0 124.0 C120.0 124.0 120.0 124.0 120.0 124.0 C120.0 124.0 120.0 124.0 120.0 124.0 C120.0 124.0 120.0 124.0 120.0 124.0 C120.0 124.0 120.0 124.0 120.0 124.0 C120.0 124.0 120.0 124.0 120.0 124.0 C120.0 124.0 120.0 124.0 120.0 124.0 C120.0 124.0 120.0 124.0 120.0 124.0 C120.0 124.0 120.0 124.0 120.0 124.0 C120.0 124.0 120.0 124.0 120.0 124.0 C120.0 124.0 120.0 124.0 120.0 124.0 C120.0 124.0 120.0 124.0 120.0 124.0 C120.0 124.0 120.0 124.0 120.0 124.0 C120.0 124.0 120.0 124.0 120.0 124.0 C120.0 124.0 120.0 124.0 120.0 124.0 C120.0 124.0 120.0 124.0 120.0 124.0 C120.0 124.0 120.0 124.0 120.0 124.0 C120.0 124.0 120.0 124.0 120.0 124.0 C120.0 124.0 120.0 124.0 120.0 124.0 C120.0 124.0 120.0 124.0 120.0 124.0 C120.0 124.0 120.0 124.0 120.0 124.0 C120.0 124.0 120.0 124.0 120.0 124.0 C120.0 124.0 120.0 124.0 120.0 124.0 C120.0 124.0 120.0 124.0 120.0 124.0 C120.0 124.0 120.0 124.0 120.0 124.0 C120.0 124.0 120.0 124.0 120.0 124.0 C120.0 124.0 120.0 124.0 120.0 124.0 C120.0 124.0 120.0 124.0 120.0 124.0 C120.0 124.0 120.0 124.0 120.0 124.0 C120.0 124.0 120.0 124.0 120.0 124.0 C120.0 124.0 120.0 124.0 120.0 124.0 C120.0 124.0 120.0 124.0 120.0 124.0 C120.0 124.0 120.0 124.0 120.0 124.0 C120.0 124.0 120.0 124.0 120.0 124.0 C120.0 124.0 120.0 124.0 120.0 124.0 C120.0 124.0 120.0 124.0 120.0 124.0 C120.0 124.0 120.0 124.0 120.0 124.0 C120.0 124.0 120.0 124.0 120.0 124.0 C120.0 124.0 120.0 124.0 120.0 124.0 C120.0 124.0 120.0 124.0 120.0 124.0 C120.0 124.0 120.0 124.0 120.0 124.0"></path></svg>