<svg xmlns="http://www.w3.org/2000/svg" viewBox="0.0 0.0 200.0 200.0" height="200px" width="200px"><path fill="#66aabb" fill-opacity="1.0"  filling="0" d="M133.0 147.0 C127.0 147.0 122.0 149.0 120.0 153.0 C117.0 147.0 111.0 142.0 105.0 142.0 L95.0 142.0 C89.0 142.0 83.0 147.0 80.0 153.0 C78.0 149.0 73.0 147.0 67.0 147.0 C56.0 147.0 48.0 156.0 48.0 167.0 C48.0 167.0 48.0 168.0 48.0 168.0 C40.0 168.0 34.0 173.0 34.0 180.0 C34.0 182.0 36.0 183.0 37.0 183.0 L163.0 183.0 C164.0 183.0 166.0 182.0 166.0 180.0 C166.0 173.0 160.0 168.0 152.0 168.0 C152.0 168.0 152.0 167.0 152.0 167.0 C152.0 156.0 144.0 147.0 133.0 147.0 L133.0 147.0 Z"></path>
<path fill="#66aabb" fill-opacity="1.0"  filling="0" d="M67.0 147.0 C73.0 147.0 78.0 149.0 80.0 153.0 C83.0 147.0 89.0 142.0 95.0 142.0 L105.0 142.0 C111.0 142.0 117.0 147.0 120.0 153.0 C122.0 149.0 127.0 147.0 133.0 147.0 C144.0 147.0 152.0 156.0 152.0 167.0 C152.0 167.0 152.0 168.0 152.0 168.0 C160.0 168.0 166.0 173.0 166.0 180.0 C166.0 182.0 164.0 183.0 163.0 183.0 L37.0 183.0 C36.0 183.0 34.0 182.0 34.0 180.0 C34.0 173.0 40.0 168.0 48.0 168.0 C48.0 168.0 48.0 167.0 48.0 167.0 C48.0 156.0 56.0 147.0 67.0 147.0 L67.0 147.0 Z"></path>
<path fill="#66aabb" fill-opacity="1.0"  filling="0" d="M95.0 142.0 L105.0 142.0 C111.0 142.0 117.0 147.0 120.0 153.0 C122.0 149.0 127.0 147.0 133.0 147.0 C144.0 147.0 152.0 156.0 152.0 167.0 C152.0 167.0 152.0 168.0 152.0 168.0 C160.0 168.0 166.0 173.0 166.0 180.0 C166.0 182.0 164.0 183.0 163.0 183.0 L37.0 183.0 C36.0 183.0 34.0 182.0 34.0 180.0 C34.0 173.0 40.0 168.0 48.0 168.0 C48.0 168.0 48.0 167.0 48.0 167.0 C48.0 156.0 56.0 147.0 67.0 147.0 C73.0 147.0 78.0 149.0 80.0 153.0 C83.0 147.0 89.0 142.0 95.0 142.0 L95.0 142.0 Z"></path>
<path fill="#66aabb" fill-opacity="1.0"  filling="0" d="M95.0 142.0 L105.0 142.0 C111.0 142.0 117.0 147.0 120.0 153.0 C122.0 149.0 127.0 147.0 133.0 147.0 C144.0 147.0 152.0 156.0 152.0 167.0 C152.0 167.0 152.0 168.0 152.0 168.0 C160.0 168.0 166.0 173.0 166.0 180.0 C166.0 182.0 164.0 183.0 163.0 183.0 L37.0 183.0 C36.0 183.0 34.0 182.0 34.0 180.0 C34.0 173.0 40.0 168.0 48.0 168.0 C48.0 168.0 48.0 167.0 48.0 167.0 C48.0 156.0 56.0 147.0 67.0 147.0 C73.0 147.0 78.0 149.0 80.0 153.0 C83.0 147.0 89.0 142.0 95.0 142.0 L95.0 142.0 Z"></path>
<path fill="#ee9922" fill-opacity="1.0"  filling="0" d="M113.0 137.0 C113.0 148.0 100.0 162.0 100.0 162.0 C100.0 162.0 87.0 148.0 87.0 137.0 C87.0 127.0 93.0 120.0 100.0 120.0 C107.0 120.0 113.0 127.0 113.0 137.0 L113.0 137.0 Z"></path>
<path fill="#ee8822" fill-opacity="1.0"  filling="0" d="M100.0 120.0 C107.0 120.0 113.0 127.0 113.0 137.0 C113.0 148.0 100.0 162.0 100.0 162.0 C100.0 162.0 100.0 162.0 100.0 161.0 C98.0 155.0 94.0 146.0 94.0 137.0 C94.0 129.0 98.0 123.0 101.0 121.0 C101.0 121.0 100.0 120.0 100.0 120.0 L100.0 120.0 Z"></path>
<path fill="#000000" fill-opacity="1.0"  filling="0" d="M141.0 108.0 C141.0 116.0 138.0 129.0 137.0 129.0 C133.0 131.0 126.0 119.0 119.0 117.0 C119.0 117.0 119.0 117.0 119.0 117.0 C119.0 117.0 119.0 117.0 119.0 117.0 C121.0 113.0 124.0 90.0 124.0 89.0 C124.0 89.0 124.0 89.0 124.0 89.0 C124.0 89.0 124.0 89.0 124.0 89.0 C124.0 89.0 124.0 89.0 124.0 89.0 C124.0 89.0 124.0 89.0 124.0 89.0 C124.0 89.0 124.0 89.0 124.0 89.0 C124.0 89.0 124.0 89.0 124.0 89.0 C124.0 89.0 124.0 89.0 124.0 89.0 C124.0 89.0 124.0 89.0 124.0 89.0 C124.0 89.0 124.0 89.0 124.0 89.0 C124.0 89.0 124.0 89.0 124.0 89.0 C124.0 89.0 124.0 89.0 124.0 89.0 C124.0 89.0 124.0 89.0 124.0 89.0 C124.0 89.0 124.0 89.0 124.0 89.0 C124.0 89.0 124.0 89.0 124.0 89.0 C124.0 89.0 124.0 89.0 124.0 89.0 C124.0 89.0 124.0 89.0 124.0 89.0 C124.0 89.0 124.0 89.0 124.0 89.0 C124.0 89.0 124.0 89.0 124.0 89.0 C124.0 89.0 124.0 89.0 124.0 89.0 C124.0 89.0 124.0 89.0 124.0 89.0 C124.0 89.0 124.0 89.0 124.0 89.0 C124.0 89.0 124.0 89.0 124.0 89.0 C124.0 89.0 124.0 89.0 124.0 89.0 C124.0 89.0 124.0 89.0 124.0 89.0 C124.0 89.0 124.0 89.0 124.0 89.0 C124.0 89.0 124.0 89.0 124.0 89.0 C124.0 89.0 124.0 89.0 124.0 89.0 C124.0 89.0 124.0 89.0 124.0 89.0 C124.0 89.0 124.0 89.0 124.0 89.0 C124.0 89.0 124.0 89.0 124.0 89.0 C124.0 89.0 124.0 89.0 124.0 89.0 C124.0 89.0 124.0 89.0 124.0 89.0 C124.0 89.0 124.0 89.0 124.0 89.0 C124.0 89.0 124.0 89.0 124.0 89.0 C124.0 89.0 124.0 89.0 124.0 89.0 C124.0 89.0 124.0 89.0 124.0 89.0 C124.0 89.0 124.0 89.0 124.0 89.0 C124.0 89.0 124.0 89.0 124.0 89.0 C124.0 89.0 124.0 89.0 124.0 89.0 C124.0 89.0 124.0 89.0 124.0 89.0 C124.0 89.0 124.0 89.0 124.0 89.0 C124.0 89.0 124.0 89.0 124.0 89.0 C124.0 89.0 124.0 89.0 124.0 89.0 C124.0 89.0 124.0 89.0 124.0 89.0 C124.0 89.0 124.0 89.0 124.0 89.0 C124.0 89.0 124.0 89.0 124.0 89.0 C124.0 89.0 124.0 89.0 124.0 89.0 C124.0 89.0 124.0 89.0 124.0 89.0 C124.0 89.0 124.0 89.0 124.0 89.0 C124.0 89.0 124.0 89.0 124.0 89.0 C124.0 89.0 124.0 89.0 124.0 89.0 C124.0 89.0 124.0 89.0 124.0 89.0 C124.0 89.0 124.0 89.0 124.0 89.0 C124.0 89.0 124.0 89.0 124.0 89.0 C124.0 89.0 124.0 89.0 124.0 89.0 C124.0 89.0 124.0 89.0 124.0 89.0 C124.0 89.0 124.0 89.0 124.0 89.0 C124.0 89.0 124.0 89.0 124.0 89.0 C124.0 89.0 124.0 89.0 124.0 89.0 C124.0 89.0 124.0 89.0 124.0 89.0 C124.0 89.0 124.0 89.0 124.0 89.0 C124.0 89.0 124.0 89.0 124.0 89.0 C124.0 89.0 124.0 89.0 124.0 89.0 C124.0 89.0 124.0 89.0 124.0 89.0 C124.0 89.0 124.0 89.0 124.0 89.0 C124.0 89.0 124.0 89.0 124.0 89.0 C124.0 89.0 124.0 89.0 124.0 89.0 C124.0 89.0 124.0 89.0 124.0 89.0 C124.0 89.0 124.0 89.0 124.0 89.0 C124.0 89.0 124.0 89.0 124.0 89.0 C124.0 89.0 124.0 89.0 124.0 89.0 C124.0 89.0 124.0 89.0 124.0 89.0 C124.0 89.0 124.0 89.0 124.0 89.0 C124.0 89.0 124.0 89.0 124.0 89.0 C124.0 89.0 124.0 89.0 124.0 89.0 C124.0 89.0 124.0 89.0 124.0 89.0 C124.0 89.0 124.0 89.0 124.0 89.0 C124.0 89.0 124.0 89.0 124.0 89.0 C124.0 89.0 124.0 89.0 124.0 89.0 C124.0 89.0 124.0 89.0 124.0 89.0 C124.0 89.0 124.0 89.0 124.0 89.0 C124.0 89.0 124.0 89.0 124.0 89.0 C124.0 89.0 124.0 89.0 124.0 89.0 C124.0 89.0 124.0 89.0 124.0 89.0 C124.0 89.0 124.0 89.0 124.0 89.0 C124.0 89.0 124.0 89.0 124.0 89.0 C124.0 89.0 124.0 89.0 124.0 89.0 C124.0 89.0 124.0 89.0 124.0 89.0 C124.0 89.0 124.0 89.0 124.0 89.0 C124.0 89.0 124.0 89.0 124.0 89.0 C124.0 89.0 124.0 89.0 124.0 89.0 C124.0 89.0 124.0 89.0 124.0 89.0 C124.0 89.0 124.0 89.0 124.0 89.0 C124.0 89.0 124.0 89.0 124.0 89.0 C124.0 89.0 124.0 89.0 124.0 89.0 C124.0 89.0 124.0 89.0 124.0 89.0 C124.0 89.0 124.0 89.0 124.0 89.0 C124.0 89.0 124.0 89.0 124.0 89.0 C124.0 89.0 124.0 89.0 124.0 89.0 C124.0 89.0 124.0 89.0 124.0 89.0 C124.0 89.0 124.0 89.0 124.0 89.0 C124.0 89.0 124.0 89.0 124.0 89.0 C124.0 89.0 124.0 89.0 124.0 89.0 C124.0 89.0 124.0 89.0 124.0 89.0 C124.0 89.0 124.0 89.0 124.0 89.0 C124.0 89.0 124.0 89.0 124.0 89.0 C124.0 89.0 124.0 89.0 124.0 89.0 C124.0 89.0 124.0 89.0 124.0 89.0 C124.0 89.0 124.0 89.0 124.0 89.0 C124.0 89.0 124.0 89.0 124.0 89.0 C124.0 89.0 124.0 89.0 124.0 89.0 C124.0 89.0 124.0 89.0 124.0 89.0 C124.0 89.0 124.0 89.0 124.0 89.0 C124.0 89.0 124.0 89.0 124.0 89.0 C124.0 89.0 124.0 89.0 124.0 89.0 C124.0 89.0 124.0 89.0 124.0 89.0 C124.0 89.0 124.0 89.0 124.0 89.0 C124.0 89.0 124.0 89.0 124.0 89.0 C124.0 89.0 124.0 89.0 124.0 89.0 C124.0 89.0 124.0 89.0 124.0 89.0 C124.0 89.0 124.0 89.0 124.0 89.0 C124.0 89.0 124.0 89.0 124.0 89.0 C124.0 89.0 124.0 89.0 124.0 89.0 C124.0 89.0 124.0 89.0 124.0 89.0 C124.0 89.0 124.0 89.0 124.0 89.0 C124.0 89.0 124.0 89.0 124.0 89.0 C124.0 89.0 124.0 89.0 124.0 89.0 C124.0 89.0 124.0 89.0 124.0 89.0 C124.0 89.0 124.0 89.0 124.0 89.0 C124.0 89.0 124.0 89.0 124.0 89.0 C124.0 89.0 124.0 89.0 124.0 89.0 C124.0 89.0 124.0 89.0 124.0 89.0 C124.0 89.0 124.0 89.0 124.0 89.0 C124.0 89.0 124.0 89.0 124.0 89.0 C124.0 89.0 124.0 89.0 124.0 89.0 C124.0 89.0 124.0 89.0 124.0 89.0 C124.0 89.0 124.0 89.0 124.0 89.0 C124.0 89.0 124.0 89.0 124.0 89.0 C124.0 89.0 124.0 89.0 124.0 89.0 C124.0 89.0 124.0 89.0 124.0 89.0 C124.0 89.0 124.0 89.0 124.0 89.0 C124.0 89.0 124.0 89.0 124.0 89.0 C124.0 89.0 124.0 89.0 124.0 89.0 C124.0 89.0 124.0 89.0 124.0 89.0 C124.0 89.0 124.0 89.0 124.0 89.0 C124.0 89.0 124.0 89.0 124.0 89.0 C124.0 89.0 124.0 89.0 124.0 89.0 C124.0 89.0 124.0 89.0 124.0 89.0 C124.0 89.0 124.0 89.0 124.0 89.0 C124.0 89.0 124.0 89.0 124.0 89.0 C124.0 89.0 124.0 89.0 124.0 89.0 C124.0 89.0 124.0 89.0 124.0 89.0 C124.0 89.0 124.0 89.0 124.0 89.0 C124.0 89.0 124.0 89.0 124.0 89.0 C124.0 89.0 124.0 89.0 124.0 89.0 C124.0 89.0 124.0 89.0 124.0 89.0 C124.0 89.0 124.0 89.0 124.0 89.0 C124.0 89.0 124.0 89.0 124.0 89.0 C124.0 89.0 124.0 89.0 124.0 89.0 C124.0 89.0 124.0 89.0 124.0 89.0 C124.0 89.0 124.0 89.0 124.0 89.0 C124.0 89.0 124.0 89.0 124.0 89.0 C124.0 89.0 124.0 89.0 124.0 89.0 C124.0 89.0 124.0 89.0 124.0 89.0 C124.0 89.0 124.0 89.0 124.0 89.0 C124.0 89.0 124.0 89.0 124.0 89.0 C124.0 89.0 124.0 89.0 124.0 89.0 C124.0 89.0 124.0 89.0 124.0 89.0 C124.0 89.0 124.0 89.0 124.0 89.0 C124.0 89.0 124.0 89.0 124.0 89.0 C124.0 89.0 124.0 89.0 124.0 89.0 C124.0 89.0 124.0 89.0 124.0 89.0 C124.0 89.0 124.0 89.0 124.0 89.0 C124.0 89.0 124.0 89.0 124.0 89.0 C124.0 89.0 124.0 89.0 124.0 89.0 C124.0 89.0 124.0 89.0 124.0 89.0 C124.0 89.0 124.0 89.0 124.0 89.0 C124.0 89.0 124.0 89.0 124.0 89.0 C124.0 89.0 124.0 89.0 124.0 89.0 C124.0 89.0 124.0 89.0 124.0 89.0 C124.0 89.0 124.0 89.0 124.0 89.0 C124.0 89.0 124.0 89.0 124.0 89.0 C124.0 89.0 124.0 89.0 124.0 89.0 C124.0 89.0 124.0 89.0 124.0 89.0 C124.0 89.0 124.0 89.0 124.0 89.0 C124.0 89.0 124.0 89.0 124.0 89.0 C124.0 89.0 124.0 89.0 124.0 89.0 C124.0 89.0 124.0 89.0 124.0 89.0 C124.0 89.0 124.0 89.0 124.0 89.0 C124.0 89.0 124.0 89.0 124.0 89.0 C124.0 89.0 124.0 89.0 124.0 89.0 C124.0 89.0 124.0 89.0 124.0 89.0 C124.0 89.0 124.0 89.0 124.0 89.0 C124.0 89.0 124.0 89.0 124.0 89.0 C124.0 89.0 124.0 89.0 124.0 89.0 C124.0 89.0 124.0 89.0 124.0 89.0 C124.0 89.0 124.0 89.0 124.0 89.0 C124.0 89.0 124.0 89.0 124.0 89.0 C124.0 89.0 124.0 89.0 124.0 89.0 C124.0 89.0 124.0 89.0 124.0 89.0 C124.0 89.0 124.0 89.0 124.0 89.0 C124.0 89.0 124.0 89.0 124.0 89.0 C124.0 89.0 124.0 89.0 124.0 89.0 C124.0 89.0 124.0 89.0 124.0 89.0 C124.0 89.0 124.0 89.0 124.0 89.0 C124.0 89.0 124.0 89.0 124.0 89.0 C124.0 89.0 124.0 89.0 124.0 89.0 C124.0 89.0 124.0 89.0 124.0 89.0 C124.0 89.0 124.0 89.0 124.0 89.0 C124.0 89.0 124.0 89.0 124.0 89.0 C124.0 89.0 124.0 89.0 124.0 89.0 C124.0 89.0 124.0 89.0 124.0 89.0 C124.0 89.0 124.0 89.0 124.0 89.0 C124.0 89.0 124.0 89.0 124.0 89.0 C124.0 89.0 124.0 89.0 124.0 89.0 C124.0 89.0 124.0 89.0 124.0 89.0 C124.0 89.0 124.0 89.0 124.0 89.0 C124.0 89.0 124.0 89.0 124.0 89.0 C124.0 89.0 124.0 89.0 124.0 89.0 C124.0 89.0 124.0 89.0 124.0 89.0 C124.0 89.0 124.0 89.0 124.0 89.0 C124.0 89.0 124.0 89.0 124.0 89.0 C124.0 89.0 124.0 89.0 124.0 89.0 C124.0 89.0 124.0 89.0 124.0 89.0 C124.0 89.0 124.0 89.0 124.0 89.0 C124.0 89.0 124.0 89.0 124.0 89.0 C124.0 89.0 124.0 89.0 124.0 89.0 C124.0 89.0 124.0 89.0 124.0 89.0 C124.0 89.0 124.0 89.0 124.0 89.0 C124.0 89.0 124.0 89.0 124.0 89.0 C124.0 89.0 124.0 89.0 124.0 89.0 C124.0 89.0 124.0 89.0 124.0 89.0 C124.0 89.0 124.0 89.0 124.0 89.0 C124.0 89.0 124.0 89.0 124.0 89.0 C124.0 89.0 124.0 89.0 124.0 89.0 C124.0 89.0 124.0 89.0 124.0 89.0 C124.0 89.0 124.0 89.0 124.0 89.0 C124.0 89.0 124.0 89.0 124.0 89.0 C124.0 89.0 124.0 89.0 124.0 89.0 C124.0 89.0 124.0 89.0 124.0 89.0 C124.0 89.0 124.0 89.0 124.0 89.0 C124.0 89.0 124.0 89.0 124.0 89.0 C124.0 89.0 124.0 89.0 124.0 89.0 C124.0 89.0 124.0 89.0 124.0 89.0 C124.0 89.0 124.0 89.0 124.0 89.0 C124.0 89.0 124.0 89.0 124.0 89.0 C124.0 89.0 124.0 89.0 124.0 89.0 C124.0 89.0 124.0 89.0 124.0 89.0 C124.0 89.0 124.0 89.0 124.0 89.0 C124.0 89.0 124.0 89.0 124.0 89.0 C124.0 89.0 124.0 89.0 124.0 89.0 C124.0 89.0 124.0 89.0 124.0 89.0 C124.0 89.0 124.0 89.0 124.0 89.0 C124.0 89.0 124.0 89.0 124.0 89.0 C124.0 89.0 124.0 89.0 124.0 89.0 C124.0 89.0 124.0 89.0 124.0 89.0 C124.0 89.0 124.0 89.0 124.0 89.0 C124.0 89.0 124.0 89.0 124.0 89.0 C124.0 89.0 124.0 89.0 124.0 89.0 C124.0 89.0 124.0 89.0 124.0 89.0 C124.0 89.0 124.0 89.0 124.0 89.0 C124.0 89.0 124.0 89.0 124.0 89.0 C124.0 89.0 124.0 89.0 124.0 89.0 C124.0 89.0 124.0 89.0 124.0 89.0 C124.0 89.0 124.0 89.0 124.0 89.0 C124.0 89.0 124.0 89.0 124.0 89.0 C124.0 89.0 124.0 89.0 124.0 89.0 C124.0 89.0 124.0 89.0 124.0 89.0 C124.0 89.0 124.0 89.0 124.0 89.0 C124.0 89.0 124.0 89.0 124.0 89.0 C124.0 89.0 124.0 89.0 124.0 89.0 C124.0 89.0 124.0 89.0 124.0 89.0 C124.0 89.0 124.0 89.0 124.0 89.0 C124.0 89.0 124.0 89.0 124.0 89.0 C124.0 89.0 124.0 89.0 124.0 89.0 C124.0 89.0 124.0 89.0 124.0 89.0 C124.0 89.0 124.0 89.0 124.0 89.0 C124.0 89.0 124.0 89.0 124.0 89.0 C124.0 89.0 124.0 89.0 124.0 89.0 C124.0 89.0 124.0 89.0 124.0 89.0 C124.0 89.0 124.0 89.0 124.0 89.0 C124.0 89.0 124.0 89.0 124.0 89.0 C124.0 89.0 124.0 89.0 124.0 89.0 C124.0 89.0 124.0 89.0 124.0 89.0 C124.0 89.0 124.0 89.0 124.0 89.0 C124.0 89.0 124.0 89.0 124.0 89.0 C124.0 89.0 124.0 89.0 124.0 89.0 C124.0 89.0 124.0 89.0 124.0 89.0 C124.0 89.0 124.0 89.0 124.0 89.0 C124.0 89.0 124.0 89.0 124.0 89.0 C124.0 89.0 124.0 89.0 124.0 89.0 C124.0 89.0 124.0 89.0 124.0 89.0 C124.0 89.0 124.0 89.0 124.0 89.0 C124.0 89.0 124.0 89.0 124.0 89.0 C124.0 89.0 124.0 89.0 124.0 89.0"></path></svg>