<svg xmlns="http://www.w3.org/2000/svg" viewBox="0.0 0.0 200.0 200.0" height="200px" width="200px"><path fill="#ffcc44" fill-opacity="1.0"  filling="0" d="M77.0 91.0 L123.0 91.0 L160.0 168.0 L153.0 173.0 C149.0 177.0 143.0 177.0 138.0 175.0 C133.0 172.0 127.0 173.0 124.0 178.0 L121.0 182.0 C118.0 186.0 112.0 187.0 108.0 184.0 C108.0 184.0 108.0 184.0 107.0 183.0 L107.0 183.0 C103.0 179.0 96.0 179.0 92.0 183.0 C89.0 187.0 83.0 186.0 80.0 183.0 C80.0 183.0 79.0 182.0 79.0 182.0 L76.0 178.0 C73.0 173.0 67.0 172.0 62.0 175.0 C57.0 177.0 51.0 177.0 46.0 173.0 L39.0 168.0 L77.0 91.0 L77.0 91.0 Z"></path>
<path fill="#ffcc44" fill-opacity="1.0"  filling="0" d="M57.0 18.0 L75.0 9.0 L100.0 34.0 L125.0 9.0 L143.0 18.0 L152.0 50.0 L129.0 65.0 L124.0 81.0 L75.0 81.0 L71.0 65.0 L48.0 50.0 L57.0 18.0 L57.0 18.0 Z"></path>
<path fill="#ffee99" fill-opacity="1.0"  filling="0" d="M57.0 18.0 L75.0 9.0 L100.0 34.0 L125.0 9.0 L143.0 18.0 L100.0 68.0 L57.0 18.0 L57.0 18.0 Z"></path>
<path fill="#eebb44" fill-opacity="1.0"  filling="0" d="M75.0 81.0 L125.0 81.0 L125.0 91.0 L75.0 91.0 L75.0 81.0 L75.0 81.0 Z"></path>
<path fill="#ffeeaa" fill-opacity="1.0"  filling="0" d="M100.0 80.0 C96.0 80.0 93.0 83.0 93.0 87.0 C93.0 91.0 96.0 94.0 100.0 94.0 C104.0 94.0 107.0 91.0 107.0 87.0 C107.0 83.0 104.0 80.0 100.0 80.0 L100.0 80.0 Z M100.0 92.0 C97.0 92.0 95.0 90.0 95.0 87.0 C95.0 84.0 97.0 82.0 100.0 82.0 C103.0 82.0 105.0 84.0 105.0 87.0 C105.0 90.0 103.0 92.0 100.0 92.0 L100.0 92.0 Z"></path></svg>