<svg xmlns="http://www.w3.org/2000/svg" viewBox="0.0 0.0 200.0 200.0" height="200px" width="200px"><path fill="#66bbcc" fill-opacity="1.0"  filling="0" d="M162.0 171.0 C162.0 181.0 135.0 188.0 99.0 188.0 C63.0 188.0 34.0 181.0 34.0 171.0 C34.0 162.0 63.0 154.0 99.0 154.0 C135.0 154.0 162.0 162.0 162.0 171.0 L162.0 171.0 Z"></path>
<path fill="#66bbcc" fill-opacity="1.0"  filling="0" d="M121.0 174.0 C121.0 176.0 112.0 177.0 101.0 177.0 C90.0 177.0 80.0 176.0 80.0 174.0 C80.0 172.0 90.0 170.0 101.0 170.0 C112.0 170.0 121.0 172.0 121.0 174.0 L121.0 174.0 Z"></path>
<path fill="#ffffff" fill-opacity="1.0"  filling="0" d="M67.0 172.0 C67.0 173.0 63.0 173.0 59.0 173.0 C55.0 173.0 52.0 173.0 52.0 172.0 C52.0 171.0 55.0 170.0 59.0 170.0 C63.0 170.0 67.0 171.0 67.0 172.0 L67.0 172.0 Z"></path>
<path fill="#ffffff" fill-opacity="1.0"  filling="0" d="M123.0 175.0 C123.0 176.0 120.0 176.0 116.0 176.0 C112.0 176.0 109.0 176.0 109.0 175.0 C109.0 174.0 112.0 173.0 116.0 173.0 C120.0 173.0 123.0 174.0 123.0 175.0 L123.0 175.0 Z"></path>
<path fill="#ffffff" fill-opacity="1.0"  filling="0" d="M129.0 174.0 C129.0 175.0 129.0 175.0 128.0 175.0 C127.0 175.0 126.0 175.0 126.0 174.0 C126.0 174.0 127.0 173.0 128.0 173.0 C129.0 173.0 129.0 174.0 129.0 174.0 L129.0 174.0 Z"></path>
<path fill="#000000" fill-opacity="1.0"  filling="0" d="M199.0 199.0 C199.0 199.0 199.0 199.0 199.0 199.0 C199.0 199.0 199.0 199.0 199.0 199.0 L199.0 199.0 L199.0 199.0 Z"></path>
<path fill="#000000" fill-opacity="1.0"  filling="0" d="M199.0 199.0 C199.0 199.0 199.0 199.0 199.0 199.0 C199.0 199.0 199.0 199.0 199.0 199.0 L199.0 199.0 L199.0 199.0 Z"></path>
<path fill="#000000" fill-opacity="1.0"  filling="0" d="M199.0 199.0 C199.0 199.0 199.0 199.0 199.0 199.0 C199.0 199.0 199.0 199.0 199.0 199.0 L199.0 199.0 L199.0 199.0 Z"></path>
<path fill="#000000" fill-opacity="1.0"  filling="0" d="M199.0 199.0 C199.0 199.0 199.0 199.0 199.0 199.0 C199.0 199.0 199.0 199.0 199.0 199.0 L199.0 199.0 L199.0 199.0 Z"></path>
<path fill="#000000" fill-opacity="1.0"  filling="0" d="M199.0 199.0 C199.0 199.0 199.0 199.0 199.0 199.0 C199.0 199.0 199.0 199.0 199.0 199.0 L199.0 199.0 L199.0 199.0 Z"></path>
<path fill="#000000" fill-opacity="1.0"  filling="0" d="M199.0 199.0 C199.0 199.0 199.0 199.0 199.0 199.0 C199.0 199.0 199.0 199.0 199.0 199.0 L199.0 199.0 L199.0 199.0 Z"></path>
<path fill="#000000" fill-opacity="1.0"  filling="0" d="M199.0 199.0 C199.0 199.0 199.0 199.0 199.0 199.0 C199.0 199.0 199.0 199.0 199.0 199.0 L199.0 199.0 L199.0 199.0 Z"></path>
<path fill="#000000" fill-opacity="1.0"  filling="0" d="M199.0 199.0 C199.0 199.0 199.0 199.0 199.0 199.0 C199.0 199.0 199.0 199.0 199.0 199.0 L199.0 199.0 L199.0 199.0 Z"></path>
<path fill="#000000" fill-opacity="1.0"  filling="0" d="M199.0 199.0 C199.0 199.0 199.0 199.0 199.0 199.0 C199.0 199.0 199.0 199.0 199.0 199.0 L199.0 199.0 L199.0 199.0 Z"></path>
<path fill="#000000" fill-opacity="1.0"  filling="0" d="M199.0 199.0 C199.0 199.0 199.0 199.0 199.0 199.0 C199.0 199.0 199.0 199.0 199.0 199.0 L199.0 199.0 L199.0 199.0 Z"></path>
<path fill="#000000" fill-opacity="1.0"  filling="0" d="M199.0 199.0 C199.0 199.0 199.0 199.0 199.0 199.0 C199.0 199.0 199.0 199.0 199.0 199.0 L199.0 199.0 L199.0 199.0 Z"></path>
<path fill="#000000" fill-opacity="1.0"  filling="0" d="M199.0 199.0 C199.0 199.0 199.0 199.0 199.0 199.0 C199.0 199.0 199.0 199.0 199.0 199.0 L199.0 199.0 L199.0 199.0 Z"></path>
<path fill="#000000" fill-opacity="1.0"  filling="0" d="M199.0 199.0 C199.0 199.0 199.0 199.0 199.0 199.0 C199.0 199.0 199.0 199.0 199.0 199.0 L199.0 199.0 L199.0 199.0 Z"></path>
<path fill="#000000" fill-opacity="1.0"  filling="0" d="M199.0 199.0 C199.0 199.0 199.0 199.0 199.0 199.0 C199.0 199.0 199.0 199.0 199.0 199.0 L199.0 199.0 L199.0 199.0 Z"></path>
<path fill="#000000" fill-opacity="1.0"  filling="0" d="M199.0 199.0 C199.0 199.0 199.0 199.0 199.0 199.0 C199.0 199.0 199.0 199.0 199.0 199.0 L199.0 199.0 L199.0 199.0 Z"></path>
<path fill="#000000" fill-opacity="1.0"  filling="0" d="M199.0 199.0 C199.0 199.0 199.0 199.0 199.0 199.0 C199.0 199.0 199.0 199.0 199.0 199.0 L199.0 199.0 L199.0 199.0 Z"></path>
<path fill="#000000" fill-opacity="1.0"  filling="0" d="M199.0 199.0 C199.0 199.0 199.0 199.0 199.0 199.0 C199.0 199.0 199.0 199.0 199.0 199.0 L199.0 199.0 L199.0 199.0 Z"></path>
<path fill="#000000" fill-opacity="1.0"  filling="0" d="M199.0 199.0 C199.0 199.0 199.0 199.0 199.0 199.0 C199.0 199.0 199.0 199.0 199.0 199.0 L199.0 199.0 L199.0 199.0 Z"></path>
<path fill="#000000" fill-opacity="1.0"  filling="0" d="M199.0 199.0 C199.0 199.0 199.0 199.0 199.0 199.0 C199.0 199.0 199.0 199.0 199.0 199.0 L199.0 199.0 L199.0 199.0 Z"></path>
<path fill="#000000" fill-opacity="1.0"  filling="0" d="M199.0 199.0 C199.0 199.0 199.0 199.0 199.0 199.0 C199.0 199.0 199.0 199.0 199.0 199.0 L199.0 199.0 L199.0 199.0 Z"></path>
<path fill="#000000" fill-opacity="1.0"  filling="0" d="M199.0 199.0 C199.0 199.0 199.0 199.0 199.0 199.0 C199.0 199.0 199.0 199.0 199.0 199.0 L199.0 199.0 L199.0 199.0 Z"></path>
<path fill="#000000" fill-opacity="1.0"  filling="0" d="M199.0 199.0 C199.0 199.0 199.0 199.0 199.0 199.0 C199.0 199.0 199.0 199.0 199.0 199.0 L199.0 199.0 L199.0 199.0 Z"></path>
<path fill="#000000" fill-opacity="1.0"  filling="0" d="M199.0 199.0 C199.0 199.0 199.0 199.0 199.0 199.0 C199.0 199.0 199.0 199.0 199.0 199.0 L199.0 199.0 L199.0 199.0 Z"></path>
<path fill="#000000" fill-opacity="1.0"  filling="0" d="M199.0 199.0 C199.0 199.0 199.0 199.0 199.0 199.0 C199.0 199.0 199.0 199.0 199.0 199.0 L199.0 199.0 L199.0 199.0 Z"></path>
<path fill="#000000" fill-opacity="1.0"  filling="0" d="M199.0 199.0 C199.0 199.0 199.0 199.0 199.0 199.0 C199.0 199.0 199.0 199.0 199.0 199.0 L199.0 199.0 L199.0 199.0 Z"></path>
<path fill="#000000" fill-opacity="1.0"  filling="0" d="M199.0 199.0 C199.0 199.0 199.0 199.0 199.0 199.0 C199.0 199.0 199.0 199.0 199.0 199.0 L199.0 199.0 L199.0 199.0 Z"></path>
<path fill="#000000" fill-opacity="1.0"  filling="0" d="M199.0 199.0 C199.0 199.0 199.0 199.0 199.0 199.0 C199.0 199.0 199.0 199.0 199.0 199.0 L199.0 199.0 L199.0 199.0 Z"></path>
<path fill="#000000" fill-opacity="1.0"  filling="0" d="M199.0 199.0 C199.0 199.0 199.0 199.0 199.0 199.0 C199.0 199.0 199.0 199.0 199.0 199.0 L199.0 199.0 L199.0 199.0 Z"></path>
<path fill="#000000" fill-opacity="1.0"  filling="0" d="M199.0 199.0 C199.0 199.0 199.0 199.0 199.0 199.0 C199.0 199.0 199.0 199.0 199.0 199.0 L199.0 199.0 L199.0 199.0 Z"></path>
<path fill="#000000" fill-opacity="1.0"  filling="0" d="M199.0 199.0 C199.0 199.0 199.0 199.0 199.0 199.0 C199.0 199.0 199.0 199.0 199.0 199.0 L199.0 199.0 L199.0 199.0 Z"></path>
<path fill="#000000" fill-opacity="1.0"  filling="0" d="M199.0 199.0 C199.0 199.0 199.0 199.0 199.0 199.0 C199.0 199.0 199.0 199.0 199.0 199.0 L199.0 199.0 L199.0 199.0 Z"></path>
<path fill="#000000" fill-opacity="1.0"  filling="0" d="M199.0 199.0 C199.0 199.0 199.0 199.0 199.0 199.0 C199.0 199.0 199.0 199.0 199.0 199.0 L199.0 199.0 L199.0 199.0 Z"></path>
<path fill="#000000" fill-opacity="1.0"  filling="0" d="M199.0 199.0 C199.0 199.0 199.0 199.0 199.0 199.0 C199.0 199.0 199.0 199.0 199.0 199.0 L199.0 199.0 L199.0 199.0 Z"></path>
<path fill="#000000" fill-opacity="1.0"  filling="0" d="M199.0 199.0 C199.0 199.0 199.0 199.0 199.0 199.0 C199.0 199.0 199.0 199.0 199.0 199.0 L199.0 199.0 L199.0 199.0 Z"></path>
<path fill="#000000" fill-opacity="1.0"  filling="0" d="M199.0 199.0 C199.0 199.0 199.0 199.0 199.0 199.0 C199.0 199.0 199.0 199.0 199.0 199.0 L199.0 199.0 L199.0 199.0 Z"></path>
<path fill="#000000" fill-opacity="1.0"  filling="0" d="M199.0 199.0 C199.0 199.0 199.0 199.0 199.0 199.0 C199.0 199.0 199.0 199.0 199.0 199.0 L199.0 199.0 L199.0 199.0 Z"></path>
<path fill="#000000" fill-opacity="1.0"  filling="0" d="M199.0 199.0 C199.0 199.0 199.0 199.0 199.0 199.0 C199.0 199.0 199.0 199.0 199.0 199.0 L199.0 199.0 L199.0 199.0 Z"></path>
<path fill="#000000" fill-opacity="1.0"  filling="0" d="M199.0 199.0 C199.0 199.0 199.0 199.0 199.0 199.0 C199.0 199.0 199.0 199.0 199.0 199.0 L199.0 199.0 L199.0 199.0 Z"></path>
<path fill="#000000" fill-opacity="1.0"  filling="0" d="M199.0 199.0 C199.0 199.0 199.0 199.0 199.0 199.0 C199.0 199.0 199.0 199.0 199.0 199.0 L199.0 199.0 L199.0 199.0 Z"></path>
<path fill="#000000" fill-opacity="1.0"  filling="0" d="M199.0 199.0 C199.0 199.0 199.0 199.0 199.0 199.0 C199.0 199.0 199.0 199.0 199.0 199.0 L199.0 199.0 L199.0 199.0 Z"></path>
<path fill="#000000" fill-opacity="1.0"  filling="0" d="M199.0 199.0 C199.0 199.0 199.0 199.0 199.0 199.0 C199.0 199.0 199.0 199.0 199.0 199.0 L199.0 199.0 L199.0 199.0 Z"></path>
<path fill="#000000" fill-opacity="1.0"  filling="0" d="M199.0 199.0 C199.0 199.0 199.0 199.0 199.0 199.0 C199.0 199.0 199.0 199.0 199.0 199.0 L199.0 199.0 L199.0 199.0 Z"></path>
<path fill="#000000" fill-opacity="1.0"  filling="0" d="M199.0 199.0 C199.0 199.0 199.0 199.0 199.0 199.0 C199.0 199.0 199.0 199.0 199.0 199.0 L199.0 199.0 L199.0 199.0 Z"></path>
<path fill="#000000" fill-opacity="1.0"  filling="0" d="M199.0 199.0 C199.0 199.0 199.0 199.0 199.0 199.0 C199.0 199.0 199.0 199.0 199.0 199.0 L199.0 199.0 L199.0 199.0 Z"></path>
<path fill="#000000" fill-opacity="1.0"  filling="0" d="M199.0 199.0 C199.0 199.0 199.0 199.0 199.0 199.0 C199.0 199.0 199.0 199.0 199.0 199.0 L199.0 199.0 L199.0 199.0 Z"></path>
<path fill="#000000" fill-opacity="1.0"  filling="0" d="M199.0 199.0 C199.0 199.0 199.0 199.0 199.0 199.0 C199.0 199.0 199.0 199.0 199.0 199.0 L199.0 199.0 L199.0 199.0 Z"></path>
<path fill="#000000" fill-opacity="1.0"  filling="0" d="M199.0 199.0 C199.0 199.0 199.0 199.0 199.0 199.0 C199.0 199.0 199.0 199.0 199.0 199.0 L199.0 199.0 L199.0 199.0 Z"></path>
<path fill="#000000" fill-opacity="1.0"  filling="0" d="M199.0 199.0 C199.0 199.0 199.0 199.0 199.0 199.0 C199.0 199.0 199.0 199.0 199.0 199.0 L199.0 199.0 L199.0 199.0 Z"></path>
<path fill="#000000" fill-opacity="1.0"  filling="0" d="M199.0 199.0 C199.0 199.0 199.0 199.0 199.0 199.0 C199.0 199.0 199.0 199.0 199.0 199.0 L199.0 199.0 L199.0 199.0 Z"></path>
<path fill="#000000" fill-opacity="1.0"  filling="0" d="M199.0 199.0 C199.0 199.0 199.0 199.0 199.0 199.0 C199.0 199.0 199.0 199.0 199.0 199.0 L199.0 199.0 L199.0 199.0 Z"></path>
<path fill="#000000" fill-opacity="1.0"  filling="0" d="M199.0 199.0 C199.0 199.0 199.0 199.0 199.0 199.0 C199.0 199.0 199.0 199.0 199.0 199.0 L199.0 199.0 L199.0 199.0 Z"></path>
<path fill="#000000" fill-opacity="1.0"  filling="0" d="M199.0 199.0 C199.0 199.0 199.0 199.0 199.0 199.0 C199.0 199.0 199.0 199.0 199.0 199.0 L199.0 199.0 L199.0 199.0 Z"></path>
<path fill="#000000" fill-opacity="1.0"  filling="0" d="M199.0 199.0 C199.0 199.0 199.0 199.0 199.0 199.0 C199.0 199.0 199.0 199.0 199.0 199.0 L199.0 199.0 L199.0 199.0 Z"></path>
<path fill="#000000" fill-opacity="1.0"  filling="0" d="M199.0 199.0 C199.0 199.0 199.0 199.0 199.0 199.0 C199.0 199.0 199.0 199.0 199.0 199.0 L199.0 199.0 L199.0 199.0 Z"></path>
<path fill="#000000" fill-opacity="1.0"  filling="0" d="M199.0 199.0 C199.0 199.0 199.0 199.0 199.0 199.0 C199.0 199.0 199.0 199.0 199.0 199.0 L199.0 199.0 L199.0 199.0 Z"></path>
<path fill="#000000" fill-opacity="1.0"  filling="0" d="M199.0 199.0 C199.0 199.0 199.0 199.0 199.0 199.0 C199.0 199.0 199.0 199.0 199.0 199.0 L199.0 199.0 L199.0 199.0 Z"></path>
<path fill="#000000" fill-opacity="1.0"  filling="0" d="M199.0 199.0 C199.0 199.0 199.0 199.0 199.0 199.0 C199.0 199.0 199.0 199.0 199.0 199.0 L199.0 199.0 L199.0 199.0 Z"></path>
<path fill="#000000" fill-opacity="1.0"  filling="0" d="M199.0 199.0 C199.0 199.0 199.0 199.0 199.0 199.0 C199.0 199.0 199.0 199.0 199.0 199.0 L199.0 199.0 L199.0 199.0 Z"></path>
<path fill="#000000" fill-opacity="1.0"  filling="0" d="M199.0 199.0 C199.0 199.0 199.0 199.0 199.0 199.0 C199.0 199.0 199.0 199.0 199.0 199.0 L199.0 199.0 L199.0 199.0 Z"></path>
<path fill="#000000" fill-opacity="1.0"  filling="0" d="M199.0 199.0 C199.0 199.0 199.0 199.0 199.0 199.0 C199.0 199.0 199.0 199.0 199.0 199.0 L199.0 199.0 L199.0 199.0 Z"></path>
<path fill="#000000" fill-opacity="1.0"  filling="0" d="M199.0 199.0 C199.0 199.0 199.0 199.0 199.0 199.0"></path></svg>