<svg xmlns="http://www.w3.org/2000/svg" viewBox="0.0 0.0 200.0 200.0" height="200px" width="200px"><path fill="#66bbcc" fill-opacity="1.0"  filling="0" d="M162.0 171.0 C162.0 181.0 135.0 188.0 99.0 188.0 C63.0 188.0 34.0 181.0 34.0 171.0 C34.0 162.0 63.0 154.0 99.0 154.0 C135.0 154.0 162.0 162.0 162.0 171.0 L162.0 171.0 Z"></path>
<path fill="#eeeeee" fill-opacity="1.0"  filling="0" d="M121.0 174.0 C121.0 175.0 119.0 176.0 116.0 176.0 C112.0 176.0 109.0 175.0 109.0 174.0 C109.0 173.0 112.0 173.0 116.0 173.0 C119.0 173.0 121.0 173.0 121.0 174.0 L121.0 174.0 Z"></path>
<path fill="#eeeeee" fill-opacity="1.0"  filling="0" d="M65.0 174.0 C65.0 175.0 62.0 176.0 59.0 176.0 C55.0 176.0 52.0 175.0 52.0 174.0 C52.0 173.0 55.0 173.0 59.0 173.0 C62.0 173.0 65.0 173.0 65.0 174.0 L65.0 174.0 Z"></path>
<path fill="#eeeeee" fill-opacity="1.0"  filling="0" d="M104.0 174.0 C104.0 175.0 101.0 176.0 97.0 176.0 C93.0 176.0 90.0 175.0 90.0 174.0 C90.0 173.0 93.0 173.0 97.0 173.0 C101.0 173.0 104.0 173.0 104.0 174.0 L104.0 174.0 Z"></path>
<path fill="#eeeeee" fill-opacity="1.0"  filling="0" d="M129.0 174.0 C129.0 175.0 127.0 176.0 124.0 176.0 C121.0 176.0 119.0 175.0 119.0 174.0 C119.0 173.0 121.0 173.0 124.0 173.0 C127.0 173.0 129.0 173.0 129.0 174.0 L129.0 174.0 Z"></path>
<path fill="#eeeeee" fill-opacity="1.0"  filling="0" d="M121.0 174.0 C121.0 175.0 119.0 176.0 116.0 176.0 C112.0 176.0 109.0 175.0 109.0 174.0 C109.0 173.0 112.0 173.0 116.0 173.0 C119.0 173.0 121.0 173.0 121.0 174.0 L121.0 174.0 Z"></path>
<path fill="#eeeeee" fill-opacity="1.0"  filling="0" d="M65.0 174.0 C65.0 175.0 62.0 176.0 59.0 176.0 C55.0 176.0 52.0 175.0 52.0 174.0 C52.0 173.0 55.0 173.0 59.0 173.0 C62.0 173.0 65.0 173.0 65.0 174.0 L65.0 174.0 Z"></path>
<path fill="#eeeeee" fill-opacity="1.0"  filling="0" d="M104.0 174.0 C104.0 175.0 101.0 176.0 97.0 176.0 C93.0 176.0 90.0 175.0 90.0 174.0 C90.0 173.0 93.0 173.0 97.0 173.0 C101.0 173.0 104.0 173.0 104.0 174.0 L104.0 174.0 Z"></path>
<path fill="#eeeeee" fill-opacity="1.0"  filling="0" d="M129.0 174.0 C129.0 175.0 127.0 176.0 124.0 176.0 C121.0 176.0 119.0 175.0 119.0 174.0 C119.0 173.0 121.0 173.0 124.0 173.0 C127.0 173.0 129.0 173.0 129.0 174.0 L129.0 174.0 Z"></path>
<path fill="#eeeeee" fill-opacity="1.0"  filling="0" d="M121.0 174.0 C121.0 175.0 119.0 176.0 116.0 176.0 C112.0 176.0 109.0 175.0 109.0 174.0 C109.0 173.0 112.0 173.0 116.0 173.0 C119.0 173.0 121.0 173.0 121.0 174.0 L121.0 174.0 Z"></path>
<path fill="#eeeeee" fill-opacity="1.0"  filling="0" d="M65.0 174.0 C65.0 175.0 62.0 176.0 59.0 176.0 C55.0 176.0 52.0 175.0 52.0 174.0 C52.0 173.0 55.0 173.0 59.0 173.0 C62.0 173.0 65.0 173.0 65.0 174.0 L65.0 174.0 Z"></path>
<path fill="#eeeeee" fill-opacity="1.0"  filling="0" d="M104.0 174.0 C104.0 175.0 101.0 176.0 97.0 176.0 C93.0 176.0 90.0 175.0 90.0 174.0 C90.0 173.0 93.0 173.0 97.0 173.0 C101.0 173.0 104.0 173.0 104.0 174.0 L104.0 174.0 Z"></path>
<path fill="#eeeeee" fill-opacity="1.0"  filling="0" d="M129.0 174.0 C129.0 175.0 127.0 176.0 124.0 176.0 C121.0 176.0 119.0 175.0 119.0 174.0 C119.0 173.0 121.0 173.0 124.0 173.0 C127.0 173.0 129.0 173.0 129.0 174.0 L129.0 174.0 Z"></path>
<path fill="#eeeeee" fill-opacity="1.0"  filling="0" d="M121.0 174.0 C121.0 175.0 119.0 176.0 116.0 176.0 C112.0 176.0 109.0 175.0 109.0 174.0 C109.0 173.0 112.0 173.0 116.0 173.0 C119.0 173.0 121.0 173.0 121.0 174.0 L121.0 174.0 Z"></path>
<path fill="#eeeeee" fill-opacity="1.0"  filling="0" d="M65.0 174.0 C65.0 175.0 62.0 176.0 59.0 176.0 C55.0 176.0 52.0 175.0 52.0 174.0 C52.0 173.0 55.0 173.0 59.0 173.0 C62.0 173.0 65.0 173.0 65.0 174.0 L65.0 174.0 Z"></path>
<path fill="#eeeeee" fill-opacity="1.0"  filling="0" d="M104.0 174.0 C104.0 175.0 101.0 176.0 97.0 176.0 C93.0 176.0 90.0 175.0 90.0 174.0 C90.0 173.0 93.0 173.0 97.0 173.0 C101.0 173.0 104.0 173.0 104.0 174.0 L104.0 174.0 Z"></path>
<path fill="#eeeeee" fill-opacity="1.0"  filling="0" d="M129.0 174.0 C129.0 175.0 127.0 176.0 124.0 176.0 C121.0 176.0 119.0 175.0 119.0 174.0 C119.0 173.0 121.0 173.0 124.0 173.0 C127.0 173.0 129.0 173.0 129.0 174.0 L129.0 174.0 Z"></path>
<path fill="#eeeeee" fill-opacity="1.0"  filling="0" d="M121.0 174.0 C121.0 175.0 119.0 176.0 116.0 176.0 C112.0 176.0 109.0 175.0 109.0 174.0 C109.0 173.0 112.0 173.0 116.0 173.0 C119.0 173.0 121.0 173.0 121.0 174.0 L121.0 174.0 Z"></path>
<path fill="#eeeeee" fill-opacity="1.0"  filling="0" d="M65.0 174.0 C65.0 175.0 62.0 176.0 59.0 176.0 C55.0 176.0 52.0 175.0 52.0 174.0 C52.0 173.0 55.0 173.0 59.0 173.0 C62.0 173.0 65.0 173.0 65.0 174.0 L65.0 174.0 Z"></path>
<path fill="#eeeeee" fill-opacity="1.0"  filling="0" d="M104.0 174.0 C104.0 175.0 101.0 176.0 97.0 176.0 C93.0 176.0 90.0 175.0 90.0 174.0 C90.0 173.0 93.0 173.0 97.0 173.0 C101.0 173.0 104.0 173.0 104.0 174.0 L104.0 174.0 Z"></path>
<path fill="#eeeeee" fill-opacity="1.0"  filling="0" d="M129.0 174.0 C129.0 175.0 127.0 176.0 124.0 176.0 C121.0 176.0 119.0 175.0 119.0 174.0 C119.0 173.0 121.0 173.0 124.0 173.0 C127.0 173.0 129.0 173.0 129.0 174.0 L129.0 174.0 Z"></path>
<path fill="#eeeeee" fill-opacity="1.0"  filling="0" d="M121.0 174.0 C121.0 175.0 119.0 176.0 116.0 176.0 C112.0 176.0 109.0 175.0 109.0 174.0 C109.0 173.0 112.0 173.0 116.0 173.0 C119.0 173.0 121.0 173.0 121.0 174.0 L121.0 174.0 Z"></path>
<path fill="#eeeeee" fill-opacity="1.0"  filling="0" d="M65.0 174.0 C65.0 175.0 62.0 176.0 59.0 176.0 C55.0 176.0 52.0 175.0 52.0 174.0 C52.0 173.0 55.0 173.0 59.0 173.0 C62.0 173.0 65.0 173.0 65.0 174.0 L65.0 174.0 Z"></path>
<path fill="#eeeeee" fill-opacity="1.0"  filling="0" d="M104.0 174.0 C104.0 175.0 101.0 176.0 97.0 176.0 C93.0 176.0 90.0 175.0 90.0 174.0 C90.0 173.0 93.0 173.0 97.0 173.0 C101.0 173.0 104.0 173.0 104.0 174.0 L104.0 174.0 Z"></path>
<path fill="#eeeeee" fill-opacity="1.0"  filling="0" d="M129.0 174.0 C129.0 175.0 127.0 176.0 124.0 176.0 C121.0 176.0 119.0 175.0 119.0 174.0 C119.0 173.0 121.0 173.0 124.0 173.0 C127.0 173.0 129.0 173.0 129.0 174.0 L129.0 174.0 Z"></path>
<path fill="#eeeeee" fill-opacity="1.0"  filling="0" d="M121.0 174.0 C121.0 175.0 119.0 176.0 116.0 176.0 C112.0 176.0 109.0 175.0 109.0 174.0 C109.0 173.0 112.0 173.0 116.0 173.0 C119.0 173.0 121.0 173.0 121.0 174.0 L121.0 174.0 Z"></path>
<path fill="#eeeeee" fill-opacity="1.0"  filling="0" d="M65.0 174.0 C65.0 175.0 62.0 176.0 59.0 176.0 C55.0 176.0 52.0 175.0 52.0 174.0 C52.0 173.0 55.0 173.0 59.0 173.0 C62.0 173.0 65.0 173.0 65.0 174.0 L65.0 174.0 Z"></path>
<path fill="#eeeeee" fill-opacity="1.0"  filling="0" d="M104.0 174.0 C104.0 175.0 101.0 176.0 97.0 176.0 C93.0 176.0 90.0 175.0 90.0 174.0 C90.0 173.0 93.0 173.0 97.0 173.0 C101.0 173.0 104.0 173.0 104.0 174.0 L104.0 174.0 Z"></path>
<path fill="#eeeeee" fill-opacity="1.0"  filling="0" d="M129.0 174.0 C129.0 175.0 127.0 176.0 124.0 176.0 C121.0 176.0 119.0 175.0 119.0 174.0 C119.0 173.0 121.0 173.0 124.0 173.0 C127.0 173.0 129.0 173.0 129.0 174.0 L129.0 174.0 Z"></path>
<path fill="#eeeeee" fill-opacity="1.0"  filling="0" d="M121.0 174.0 C121.0 175.0 119.0 176.0 116.0 176.0 C112.0 176.0 109.0 175.0 109.0 174.0 C109.0 173.0 112.0 173.0 116.0 173.0 C119.0 173.0 121.0 173.0 121.0 174.0 L121.0 174.0 Z"></path>
<path fill="#eeeeee" fill-opacity="1.0"  filling="0" d="M65.0 174.0 C65.0 175.0 62.0 176.0 59.0 176.0 C55.0 176.0 52.0 175.0 52.0 174.0 C52.0 173.0 55.0 173.0 59.0 173.0 C62.0 173.0 65.0 173.0 65.0 174.0 L65.0 174.0 Z"></path>
<path fill="#eeeeee" fill-opacity="1.0"  filling="0" d="M104.0 174.0 C104.0 175.0 101.0 176.0 97.0 176.0 C93.0 176.0 90.0 175.0 90.0 174.0 C90.0 173.0 93.0 173.0 97.0 173.0 C101.0 173.0 104.0 173.0 104.0 174.0 L104.0 174.0 Z"></path>
<path fill="#eeeeee" fill-opacity="1.0"  filling="0" d="M129.0 174.0 C129.0 175.0 127.0 176.0 124.0 176.0 C121.0 176.0 119.0 175.0 119.0 174.0 C119.0 173.0 121.0 173.0 124.0 173.0 C127.0 173.0 129.0 173.0 129.0 174.0 L129.0 174.0 Z"></path>
<path fill="#eeeeee" fill-opacity="1.0"  filling="0" d="M121.0 174.0 C121.0 175.0 119.0 176.0 116.0 176.0 C112.0 176.0 109.0 175.0 109.0 174.0 C109.0 173.0 112.0 173.0 116.0 173.0 C119.0 173.0 121.0 173.0 121.0 174.0 L121.0 174.0 Z"></path>
<path fill="#eeeeee" fill-opacity="1.0"  filling="0" d="M65.0 174.0 C65.0 175.0 62.0 176.0 59.0 176.0 C55.0 176.0 52.0 175.0 52.0 174.0 C52.0 173.0 55.0 173.0 59.0 173.0 C62.0 173.0 65.0 173.0 65.0 174.0 L65.0 174.0 Z"></path>
<path fill="#eeeeee" fill-opacity="1.0"  filling="0" d="M104.0 174.0 C104.0 175.0 101.0 176.0 97.0 176.0 C93.0 176.0 90.0 175.0 90.0 174.0 C90.0 173.0 93.0 173.0 97.0 173.0 C101.0 173.0 104.0 173.0 104.0 174.0 L104.0 174.0 Z"></path>
<path fill="#eeeeee" fill-opacity="1.0"  filling="0" d="M129.0 174.0 C129.0 175.0 127.0 176.0 124.0 176.0 C121.0 176.0 119.0 175.0 119.0 174.0 C119.0 173.0 121.0 173.0 124.0 173.0 C127.0 173.0 129.0 173.0 129.0 174.0 L129.0 174.0 Z"></path>
<path fill="#eeeeee" fill-opacity="1.0"  filling="0" d="M121.0 174.0 C121.0 175.0 119.0 176.0 116.0 176.0 C112.0 176.0 109.0 175.0 109.0 174.0 C109.0 173.0 112.0 173.0 116.0 173.0 C119.0 173.0 121.0 173.0 121.0 174.0 L121.0 174.0 Z"></path>
<path fill="#eeeeee" fill-opacity="1.0"  filling="0" d="M65.0 174.0 C65.0 175.0 62.0 176.0 59.0 176.0 C55.0 176.0 52.0 175.0 52.0 174.0 C52.0 173.0 55.0 173.0 59.0 173.0 C62.0 173.0 65.0 173.0 65.0 174.0 L65.0 174.0 Z"></path>
<path fill="#eeeeee" fill-opacity="1.0"  filling="0" d="M104.0 174.0 C104.0 175.0 101.0 176.0 97.0 176.0 C93.0 176.0 90.0 175.0 90.0 174.0 C90.0 173.0 93.0 173.0 97.0 173.0 C101.0 173.0 104.0 173.0 104.0 174.0 L104.0 174.0 Z"></path>
<path fill="#eeeeee" fill-opacity="1.0"  filling="0" d="M129.0 174.0 C129.0 175.0 127.0 176.0 124.0 176.0 C121.0 176.0 119.0 175.0 119.0 174.0 C119.0 173.0 121.0 173.0 124.0 173.0 C127.0 173.0 129.0 173.0 129.0 174.0 L129.0 174.0 Z"></path>
<path fill="#eeeeee" fill-opacity="1.0"  filling="0" d="M121.0 174.0 C121.0 175.0 119.0 176.0 116.0 176.0 C112.0 176.0 109.0 175.0 109.0 174.0 C109.0 173.0 112.0 173.0 116.0 173.0 C119.0 173.0 121.0 173.0 121.0 174.0 L121.0 174.0 Z"></path>
<path fill="#eeeeee" fill-opacity="1.0"  filling="0" d="M65.0 174.0 C65.0 175.0 62.0 176.0 59.0 176.0 C55.0 176.0 52.0 175.0 52.0 174.0 C52.0 173.0 55.0 173.0 59.0 173.0 C62.0 173.0 65.0 173.0 65.0 174.0 L65.0 174.0 Z"></path>
<path fill="#eeeeee" fill-opacity="1.0"  filling="0" d="M104.0 174.0 C104.0 175.0 101.0 176.0 97.0 176.0 C93.0 176.0 90.0 175.0 90.0 174.0 C90.0 173.0 93.0 173.0 97.0 173.0 C101.0 173.0 104.0 173.0 104.0 174.0 L104.0 174.0 Z"></path>
<path fill="#eeeeee" fill-opacity="1.0"  filling="0" d="M129.0 174.0 C129.0 175.0 127.0 176.0 124.0 176.0 C121.0 176.0 119.0 175.0 119.0 174.0 C119.0 173.0 121.0 173.0 124.0 173.0 C127.0 173.0 129.0 173.0 129.0 174.0 L129.0 174.0 Z"></path>
<path fill="#eeeeee" fill-opacity="1.0"  filling="0" d="M121.0 174.0 C121.0 175.0 119.0 176.0 116.0 176.0 C112.0 176.0 109.0 175.0 109.0 174.0 C109.0 173.0 112.0 173.0 116.0 173.0 C119.0 173.0 121.0 173.0 121.0 174.0 L121.0 174.0 Z"></path>
<path fill="#eeeeee" fill-opacity="1.0"  filling="0" d="M65.0 174.0 C65.0 175.0 62.0 176.0 59.0 176.0 C55.0 176.0 52.0 175.0 52.0 174.0 C52.0 173.0 55.0 173.0 59.0 173.0 C62.0 173.0 65.0 173.0 65.0 174.0 L65.0 174.0 Z"></path>
<path fill="#eeeeee" fill-opacity="1.0"  filling="0" d="M104.0 174.0 C104.0 175.0 101.0 176.0 97.0 176.0 C93.0 176.0 90.0 175.0 90.0 174.0 C90.0 173.0 93.0 173.0 97.0 173.0 C101.0 173.0 104.0 173.0 104.0 174.0 L104.0 174.0 Z"></path>
<path fill="#eeeeee" fill-opacity="1.0"  filling="0" d="M129.0 174.0 C129.0 175.0 127.0 176.0 124.0 176.0 C121.0 176.0 119.0 175.0 119.0 174.0 C119.0 173.0 121.0 173.0 124.0 173.0 C127.0 173.0 129.0 173.0 129.0 174.0 L129.0 174.0 Z"></path>
<path fill="#eeeeee" fill-opacity="1.0"  filling="0" d="M121.0 174.0 C121.0 175.0 119.0 176.0 116.0 176.0 C112.0 176.0 109.0 175.0 109.0 174.0 C109.0 173.0 112.0 173.0 116.0 173.0 C119.0 173.0 121.0 173.0 121.0 174.0 L121.0 174.0 Z"></path>
<path fill="#eeeeee" fill-opacity="1.0"  filling="0" d="M65.0 174.0 C65.0 175.0 62.0 176.0 59.0 176.0 C55.0 176.0 52.0 175.0 52.0 174.0 C52.0 173.0 55.0 173.0 59.0 173.0 C62.0 173.0 65.0 173.0 65.0 174.0 L65.0 174.0 Z"></path>
<path fill="#eeeeee" fill-opacity="1.0"  filling="0" d="M104.0 174.0 C104.0 175.0 101.0 176.0 97.0 176.0 C93.0 176.0 90.0 175.0 90.0 174.0 C90.0 173.0 93.0 173.0 97.0 173.0 C101.0 173.0 104.0 173.0 104.0 174.0 L104.0 174.0 Z"></path>
<path fill="#000000" fill-opacity="1.0"  filling="0" d="M129.0 174.0 C129.0 175.0 127.0 176.0 124.0 176.0 C121.0 176.0 119.0 175.0 119.0 174.0 C119.0 173.0 121.0 173.0 124.0 173.0 C127.0 173.0 129.0 173.0 129.0 174.0 L129.0 174.0 Z"></path></svg>