<svg xmlns="http://www.w3.org/2000/svg" viewBox="0.0 0.0 200.0 200.0" height="200px" width="200px"><path fill="#000000" fill-opacity="1.0"  filling="0" d="M162.0 171.0 C162.0 181.0 135.0 188.0 99.0 188.0 C63.0 188.0 35.0 181.0 35.0 171.0 C35.0 161.0 63.0 154.0 99.0 154.0 C135.0 154.0 162.0 161.0 162.0 171.0 L162.0 171.0 Z"></path>
<path fill="#000000" fill-opacity="1.0"  filling="0" d="M9.0 9.0 C9.0 9.0 9.0 9.0 9.0 9.0 C9.0 9.0 9.0 9.0 9.0 9.0 L9.0 191.0 C9.0 191.0 9.0 191.0 9.0 191.0 L190.0 191.0 C190.0 191.0 190.0 191.0 190.0 191.0 C190.0 191.0 190.0 191.0 190.0 191.0 L190.0 9.0 C190.0 9.0 190.0 9.0 190.0 9.0 L9.0 9.0 L9.0 9.0 Z M9.0 8.0 L190.0 8.0 C191.0 8.0 191.0 8.0 191.0 9.0 L191.0 191.0 C191.0 192.0 191.0 192.0 190.0 192.0 L9.0 192.0 C9.0 192.0 9.0 192.0 9.0 191.0 L9.0 9.0 C9.0 8.0 9.0 8.0 9.0 8.0 L9.0 8.0 Z"></path>
<path fill="#000000" fill-opacity="1.0"  filling="0" d="M191.0 9.0 C191.0 9.0 191.0 9.0 191.0 9.0 L191.0 191.0 C191.0 191.0 191.0 191.0 191.0 191.0 L9.0 191.0 C9.0 191.0 9.0 191.0 9.0 191.0 C9.0 191.0 9.0 191.0 9.0 191.0 L9.0 9.0 C9.0 9.0 9.0 9.0 9.0 9.0 L191.0 9.0 L191.0 9.0 Z M191.0 9.0 L9.0 9.0 C9.0 9.0 9.0 9.0 9.0 9.0 L9.0 191.0 C9.0 191.0 9.0 191.0 9.0 191.0 L191.0 191.0 C191.0 191.0 191.0 191.0 191.0 191.0 L191.0 9.0 C191.0 9.0 191.0 9.0 191.0 9.0 L191.0 9.0 Z"></path>
<path fill="#000000" fill-opacity="1.0"  filling="0" d="M4.0 4.0 C4.0 4.0 4.0 4.0 4.0 4.0 C4.0 4.0 4.0 4.0 4.0 4.0 L4.0 196.0 C4.0 196.0 4.0 196.0 4.0 196.0 L195.0 196.0 C195.0 196.0 195.0 196.0 195.0 196.0 C195.0 196.0 195.0 196.0 195.0 196.0 L195.0 4.0 C195.0 4.0 195.0 4.0 195.0 4.0 L4.0 4.0 L4.0 4.0 Z M4.0 3.0 L195.0 3.0 C196.0 3.0 196.0 3.0 196.0 4.0 L196.0 196.0 C196.0 196.0 196.0 196.0 195.0 196.0 L4.0 196.0 C4.0 196.0 4.0 196.0 4.0 196.0 L4.0 4.0 C4.0 3.0 4.0 3.0 4.0 3.0 L4.0 3.0 Z"></path>
<path fill="#000000" fill-opacity="1.0"  filling="0" d="M63.0 85.0 C63.0 85.0 63.0 85.0 63.0 85.0 C63.0 85.0 63.0 85.0 63.0 85.0 L63.0 123.0 C63.0 123.0 63.0 123.0 63.0 123.0 L136.0 123.0 C136.0 123.0 136.0 123.0 136.0 123.0 C136.0 123.0 136.0 123.0 136.0 123.0 L136.0 85.0 C136.0 85.0 136.0 85.0 136.0 85.0 L63.0 85.0 L63.0 85.0 Z M63.0 85.0 L136.0 85.0 C136.0 85.0 136.0 85.0 136.0 85.0 L136.0 123.0 C136.0 123.0 136.0 123.0 136.0 123.0 L63.0 123.0 C63.0 123.0 63.0 123.0 63.0 123.0 L63.0 85.0 C63.0 85.0 63.0 85.0 63.0 85.0 L63.0 85.0 Z"></path>
<path fill="#000000" fill-opacity="1.0"  filling="0" d="M49.0 49.0 C49.0 49.0 49.0 49.0 49.0 49.0 C49.0 49.0 49.0 49.0 49.0 49.0 L49.0 148.0 C49.0 148.0 49.0 148.0 49.0 148.0 L150.0 148.0 C150.0 148.0 150.0 148.0 150.0 148.0 C150.0 148.0 150.0 148.0 150.0 148.0 L150.0 49.0 C150.0 49.0 150.0 49.0 150.0 49.0 L49.0 49.0 L49.0 49.0 Z M49.0 49.0 L150.0 49.0 C150.0 49.0 150.0 49.0 150.0 49.0 L150.0 148.0 C150.0 148.0 150.0 148.0 150.0 148.0 L49.0 148.0 C49.0 148.0 49.0 148.0 49.0 148.0 L49.0 49.0 C49.0 49.0 49.0 49.0 49.0 49.0 L49.0 49.0 Z"></path>
<path fill="#000000" fill-opacity="1.0"  filling="0" d="M40.0 138.0 C40.0 138.0 40.0 138.0 40.0 138.0 C40.0 138.0 40.0 138.0 40.0 138.0 L40.0 172.0 C40.0 172.0 40.0 172.0 40.0 172.0 L159.0 172.0 C159.0 172.0 159.0 172.0 159.0 172.0 C159.0 172.0 159.0 172.0 159.0 172.0 L159.0 138.0 C159.0 138.0 159.0 138.0 159.0 138.0 L40.0 138.0 L40.0 138.0 Z M40.0 138.0 L159.0 138.0 C159.0 138.0 159.0 138.0 159.0 138.0 L159.0 172.0 C159.0 172.0 159.0 172.0 159.0 172.0 L40.0 172.0 C40.0 172.0 40.0 172.0 40.0 172.0 L40.0 138.0 C40.0 138.0 40.0 138.0 40.0 138.0 L40.0 138.0 Z"></path>
<path fill="#ee6666" fill-opacity="1.0"  filling="0" d="M94.0 112.0 L94.0 112.0 L93.0 174.0 L93.0 174.0 L94.0 112.0 L94.0 112.0 Z"></path>
<path fill="#000000" fill-opacity="1.0"  filling="0" d="M94.0 112.0 L94.0 112.0 L93.0 174.0 L93.0 174.0 L94.0 112.0 L94.0 112.0 Z"></path>
<path fill="#ee6666" fill-opacity="1.0"  filling="0" d="M107.0 112.0 L107.0 112.0 L106.0 174.0 L106.0 174.0 L107.0 112.0 L107.0 112.0 Z"></path>
<path fill="#000000" fill-opacity="1.0"  filling="0" d="M107.0 112.0 L107.0 112.0 L106.0 174.0 L106.0 174.0 L107.0 112.0 L107.0 112.0 Z"></path>
<path fill="#000000" fill-opacity="1.0"  filling="0" d="M121.0 174.0 A21.0 2.0 0.0 1 1 79.0 174.0 A21.0 2.0 0.0 1 1 121.0 174.0 L121.0 174.0 Z"></path>
<path fill="#000000" fill-opacity="1.0"  filling="0" d="M121.0 174.0 A21.0 2.0 0.0 1 1 79.0 174.0 A21.0 2.0 0.0 1 1 121.0 174.0 L121.0 174.0 Z"></path>
<path fill="#ee6666" fill-opacity="1.0"  filling="0" d="M123.0 174.0 C123.0 178.0 123.0 178.0 116.0 181.0 C109.0 184.0 109.0 184.0 99.0 184.0 C90.0 184.0 90.0 184.0 83.0 181.0 C76.0 178.0 76.0 178.0 76.0 174.0 C76.0 169.0 76.0 169.0 83.0 166.0 C90.0 163.0 90.0 163.0 99.0 163.0 C109.0 163.0 109.0 163.0 116.0 166.0 C123.0 169.0 123.0 169.0 123.0 174.0 L123.0 174.0 Z M121.0 174.0 C121.0 169.0 121.0 169.0 115.0 166.0 C109.0 164.0 109.0 164.0 99.0 164.0 C90.0 164.0 90.0 164.0 84.0 166.0 C77.0 169.0 77.0 169.0 77.0 174.0 C77.0 178.0 77.0 178.0 84.0 181.0 C90.0 183.0 90.0 183.0 99.0 183.0 C109.0 183.0 109.0 183.0 115.0 181.0 C121.0 178.0 121.0 178.0 121.0 174.0 L121.0 174.0 Z"></path>
<path fill="#000000" fill-opacity="1.0"  filling="0" d="M121.0 174.0 A21.0 2.0 0.0 1 1 79.0 174.0 A21.0 2.0 0.0 1 1 121.0 174.0 L121.0 174.0 Z"></path>
<path fill="#ee6666" fill-opacity="1.0"  filling="0" d="M122.0 174.0 C122.0 179.0 122.0 179.0 115.0 182.0 C108.0 185.0 108.0 185.0 99.0 185.0 C91.0 185.0 91.0 185.0 84.0 182.0 C77.0 179.0 77.0 179.0 77.0 174.0 C77.0 169.0 77.0 169.0 84.0 166.0 C91.0 162.0 91.0 162.0 99.0 162.0 C108.0 162.0 108.0 162.0 115.0 166.0 C122.0 169.0 122.0 169.0 122.0 174.0 L122.0 174.0 Z M121.0 174.0 C121.0 170.0 121.0 170.0 115.0 167.0 C108.0 163.0 108.0 163.0 99.0 163.0 C91.0 163.0 91.0 163.0 84.0 167.0 C78.0 170.0 78.0 170.0 78.0 174.0 C78.0 179.0 78.0 179.0 84.0 182.0 C91.0 184.0 91.0 184.0 99.0 184.0 C108.0 184.0 108.0 184.0 115.0 182.0 C121.0 179.0 121.0 179.0 121.0 174.0 L121.0 174.0 Z"></path>
<path fill="#000000" fill-opacity="1.0"  filling="0" d="M79.0 174.0 A21.0 2.0 0.0 1 1 42.0 174.0 A21.0 2.0 0.0 1 1 79.0 174.0 L79.0 174.0 Z"></path>
<path fill="#ee6666" fill-opacity="1.0"  filling="0" d="M80.0 174.0 C80.0 179.0 80.0 179.0 73.0 182.0 C67.0 185.0 67.0 185.0 58.0 185.0 C50.0 185.0 50.0 185.0 44.0 182.0 C39.0 179.0 39.0 179.0 39.0 174.0 C39.0 169.0 39.0 169.0 44.0 166.0 C50.0 163.0 50.0 163.0 58.0 163.0 C67.0 163.0 67.0 163.0 73.0 166.0 C80.0 169.0 80.0 169.0 80.0 174.0 L80.0 174.0 Z M79.0 174.0 C79.0 170.0 79.0 170.0 73.0 167.0 C67.0 163.0 67.0 163.0 58.0 163.0 C50.0 163.0 50.0 163.0 45.0 167.0 C40.0 170.0 40.0 170.0 40.0 174.0 C40.0 179.0 40.0 179.0 45.0 182.0 C50.0 184.0 50.0 184.0 58.0 184.0 C67.0 184.0 67.0 184.0 73.0 182.0 C79.0 179.0 79.0 179.0 79.0 174.0 L79.0 174.0 Z"></path>
<path fill="#000000" fill-opacity="1.0"  filling="0" d="M158.0 174.0 A21.0 2.0 0.0 1 1 121.0 174.0 A21.0 2.0 0.0 1 1 158.0 174.0 L158.0 174.0 Z"></path>
<path fill="#ee6666" fill-opacity="1.0"  filling="0" d="M160.0 174.0 C160.0 179.0 160.0 179.0 154.0 182.0 C149.0 185.0 149.0 185.0 141.0 185.0 C133.0 185.0 133.0 185.0 127.0 182.0 C121.0 179.0 121.0 179.0 121.0 174.0 C121.0 169.0 121.0 169.0 127.0 166.0 C133.0 163.0 133.0 163.0 141.0 163.0 C149.0 163.0 149.0 163.0 154.0 166.0 C160.0 169.0 160.0 169.0 160.0 174.0 L160.0 174.0 Z M159.0 174.0 C159.0 170.0 159.0 170.0 154.0 167.0 C149.0 163.0 149.0 163.0 141.0 163.0 C133.0 163.0 133.0 163.0 127.0 167.0 C122.0 170.0 122.0 170.0 122.0 174.0 C122.0 179.0 122.0 179.0 127.0 182.0 C133.0 184.0 133.0 184.0 141.0 184.0 C149.0 184.0 149.0 184.0 154.0 182.0 C159.0 179.0 159.0 179.0 159.0 174.0 L159.0 174.0 Z"></path>
<path fill="#000000" fill-opacity="1.0"  filling="0" d="M112.0 82.0 C112.0 82.0 112.0 82.0 112.0 82.0 C112.0 82.0 112.0 82.0 112.0 82.0 L112.0 82.0 L112.0 82.0 Z"></path>
<path fill="#000000" fill-opacity="1.0"  filling="0" d="M111.0 83.0 C111.0 83.0 111.0 83.0 111.0 83.0 C111.0 83.0 111.0 83.0 111.0 83.0 C111.0 83.0 111.0 83.0 111.0 83.0 L111.0 83.0 L111.0 83.0 Z"></path>
<path fill="#000000" fill-opacity="1.0"  filling="0" d="M111.0 83.0 C111.0 83.0 111.0 83.0 111.0 83.0 C111.0 83.0 111.0 83.0 111.0 83.0 C111.0 83.0 111.0 83.0 111.0 83.0 L111.0 83.0 L111.0 83.0 Z"></path>
<path fill="#000000" fill-opacity="1.0"  filling="0" d="M111.0 83.0 C111.0 83.0 111.0 83.0 111.0 83.0 C111.0 83.0 111.0 83.0 111.0 83.0 C111.0 83.0 111.0 83.0 111.0 83.0 L111.0 83.0 L111.0 83.0 Z"></path>
<path fill="#000000" fill-opacity="1.0"  filling="0" d="M111.0 83.0 C111.0 83.0 111.0 83.0 111.0 83.0 C111.0 83.0 111.0 83.0 111.0 83.0 C111.0 83.0 111.0 83.0 111.0 83.0 L111.0 83.0 L111.0 83.0 Z"></path>
<path fill="#000000" fill-opacity="1.0"  filling="0" d="M111.0 83.0 C111.0 83.0 111.0 83.0 111.0 83.0 C111.0 83.0 111.0 83.0 111.0 83.0 C111.0 83.0 111.0 83.0 111.0 83.0 L111.0 83.0 L111.0 83.0 Z"></path>
<path fill="#000000" fill-opacity="1.0"  filling="0" d="M111.0 83.0 C111.0 83.0 111.0 83.0 111.0 83.0 C111.0 83.0 111.0 83.0 111.0 83.0 C111.0 83.0 111.0 83.0 111.0 83.0 L111.0 83.0 L111.0 83.0 Z"></path>
<path fill="#000000" fill-opacity="1.0"  filling="0" d="M111.0 83.0 C111.0 83.0 111.0 83.0 111.0 83.0 C111.0 83.0 111.0 83.0 111.0 83.0 C111.0 83.0 111.0 83.0 111.0 83.0 L111.0 83.0 L111.0 83.0 Z"></path>
<path fill="#000000" fill-opacity="1.0"  filling="0" d="M111.0 83.0 C111.0 83.0 111.0 83.0 111.0 83.0 C111.0 83.0 111.0 83.0 111.0 83.0 C111.0 83.0 111.0 83.0 111.0 83.0 L111.0 83.0 L111.0 83.0 Z"></path>
<path fill="#000000" fill-opacity="1.0"  filling="0" d="M111.0 83.0 C111.0 83.0 111.0 83.0 111.0 83.0 C111.0 83.0 111.0 83.0 111.0 83.0 C111.0 83.0 111.0 83.0 111.0 83.0 L111.0 83.0 L111.0 83.0 Z"></path>
<path fill="#000000" fill-opacity="1.0"  filling="0" d="M111.0 83.0 C111.0 83.0 111.0 83.0 111.0 83.0 C111.0 83.0 111.0 83.0 111.0 83.0 C111.0 83.0 111.0 83.0 111.0 83.0 L111.0 83.0 L111.0 83.0 Z"></path>
<path fill="#000000" fill-opacity="1.0"  filling="0" d="M111.0 83.0 C111.0 83.0 111.0 83.0 111.0 83.0 C111.0 83.0 111.0 83.0 111.0 83.0 C111.0 83.0 111.0 83.0 111.0 83.0 L111.0 83.0 L111.0 83.0 Z"></path>
<path fill="#000000" fill-opacity="1.0"  filling="0" d="M111.0 83.0 C111.0 83.0 111.0 83.0 111.0 83.0 C111.0 83.0 111.0 83.0 111.0 83.0 C111.0 83.0 111.0 83.0 111.0 83.0 L111.0 83.0 L111.0 83.0 Z"></path>
<path fill="#000000" fill-opacity="1.0"  filling="0" d="M111.0 83.0 C111.0 83.0 111.0 83.0 111.0 83.0 C111.0 83.0 111.0 83.0 111.0 83.0 C111.0 83.0 111.0 83.0 111.0 83.0 L111.0 83.0 L111.0 83.0 Z"></path>
<path fill="#000000" fill-opacity="1.0"  filling="0" d="M111.0 83.0 C111.0 83.0 111.0 83.0 111.0 83.0 C111.0 83.0 111.0 83.0 111.0 83.0 C111.0 83.0 111.0 83.0 111.0 83.0 L111.0 83.0 L111.0 83.0 Z"></path>
<path fill="#000000" fill-opacity="1.0"  filling="0" d="M111.0 83.0 C111.0 83.0 111.0 83.0 111.0 83.0 C111.0 83.0 111.0 83.0 111.0 83.0 C111.0 83.0 111.0 83.0 111.0 83.0 L111.0 83.0 L111.0 83.0 Z"></path>
<path fill="#000000" fill-opacity="1.0"  filling="0" d="M111.0 83.0 C111.0 83.0 111.0 83.0 111.0 83.0 C111.0 83.0 111.0 83.0 111.0 83.0 C111.0 83.0 111.0 83.0 111.0 83.0 L111.0 83.0 L111.0 83.0 Z"></path>
<path fill="none" fill-opacity="1.0" filling="0" d="M0.0 M.0 Z"></path></svg>