<svg xmlns="http://www.w3.org/2000/svg" viewBox="0.0 0.0 200.0 200.0" height="200px" width="200px"><path fill="#000000" fill-opacity="1.0"  filling="0" d="M38.0 171.0 A58.0 8.0 0.0 1 0 158.0 171.0 A58.0 8.0 0.0 1 0 38.0 171.0 L38.0 171.0 Z"></path>
<path fill="#77bbcc" fill-opacity="1.0"  filling="0" d="M33.0 171.0 A58.0 8.0 0.0 1 0 162.0 171.0 A58.0 8.0 0.0 1 0 33.0 171.0 L33.0 171.0 Z"></path>
<path fill="#ffffdd" fill-opacity="1.0"  filling="0" d="M121.0 174.0 C121.0 175.0 119.0 176.0 116.0 176.0 C112.0 176.0 109.0 175.0 109.0 174.0 C109.0 173.0 112.0 173.0 116.0 173.0 C119.0 173.0 121.0 173.0 121.0 174.0 L121.0 174.0 Z"></path>
<path fill="#ffffdd" fill-opacity="1.0"  filling="0" d="M71.0 174.0 C71.0 175.0 68.0 176.0 65.0 176.0 C61.0 176.0 58.0 175.0 58.0 174.0 C58.0 173.0 61.0 173.0 65.0 173.0 C68.0 173.0 71.0 173.0 71.0 174.0 L71.0 174.0 Z"></path>
<path fill="#77bbcc" fill-opacity="1.0"  filling="0" d="M104.0 174.0 C104.0 175.0 101.0 176.0 98.0 176.0 C94.0 176.0 91.0 175.0 91.0 174.0 C91.0 173.0 94.0 173.0 98.0 173.0 C101.0 173.0 104.0 173.0 104.0 174.0 L104.0 174.0 Z"></path>
<path fill="#77bbcc" fill-opacity="1.0"  filling="0" d="M68.0 174.0 C68.0 175.0 66.0 176.0 63.0 176.0 C59.0 176.0 57.0 175.0 57.0 174.0 C57.0 173.0 59.0 173.0 63.0 173.0 C66.0 173.0 68.0 173.0 68.0 174.0 L68.0 174.0 Z"></path>
<path fill="#ffffdd" fill-opacity="1.0"  filling="0" d="M123.0 174.0 C123.0 175.0 120.0 176.0 117.0 176.0 C113.0 176.0 110.0 175.0 110.0 174.0 C110.0 173.0 113.0 173.0 117.0 173.0 C120.0 173.0 123.0 173.0 123.0 174.0 L123.0 174.0 Z"></path>
<path fill="#ffffdd" fill-opacity="1.0"  filling="0" d="M129.0 174.0 C129.0 175.0 127.0 176.0 124.0 176.0 C121.0 176.0 119.0 175.0 119.0 174.0 C119.0 173.0 121.0 173.0 124.0 173.0 C127.0 173.0 129.0 173.0 129.0 174.0 L129.0 174.0 Z M144.0 174.0 C144.0 175.0 141.0 176.0 137.0 176.0 C134.0 176.0 131.0 175.0 131.0 174.0 C131.0 173.0 134.0 173.0 137.0 173.0 C141.0 173.0 144.0 173.0 144.0 174.0 L144.0 174.0 Z M41.0 174.0 C41.0 175.0 38.0 176.0 35.0 176.0 C31.0 176.0 28.0 175.0 28.0 174.0 C28.0 173.0 31.0 173.0 35.0 173.0 C38.0 173.0 41.0 173.0 41.0 174.0 L41.0 174.0 Z"></path>
<path fill="#77bbcc" fill-opacity="1.0"  filling="0" d="M49.0 174.0 C49.0 175.0 46.0 176.0 43.0 176.0 C39.0 176.0 37.0 175.0 37.0 174.0 C37.0 173.0 39.0 173.0 43.0 173.0 C46.0 173.0 49.0 173.0 49.0 174.0 L49.0 174.0 Z"></path>
<path fill="#ffffdd" fill-opacity="1.0"  filling="0" d="M41.0 174.0 C41.0 175.0 38.0 176.0 35.0 176.0 C31.0 176.0 28.0 175.0 28.0 174.0 C28.0 173.0 31.0 173.0 35.0 173.0 C38.0 173.0 41.0 173.0 41.0 174.0 L41.0 174.0 Z"></path>
<path fill="#77bbcc" fill-opacity="1.0"  filling="0" d="M49.0 174.0 C49.0 175.0 46.0 176.0 43.0 176.0 C39.0 176.0 37.0 175.0 37.0 174.0 C37.0 173.0 39.0 173.0 43.0 173.0 C46.0 173.0 49.0 173.0 49.0 174.0 L49.0 174.0 Z"></path>
<path fill="#ffffdd" fill-opacity="1.0"  filling="0" d="M71.0 174.0 C71.0 175.0 68.0 176.0 65.0 176.0 C61.0 176.0 58.0 175.0 58.0 174.0 C58.0 173.0 61.0 173.0 65.0 173.0 C68.0 173.0 71.0 173.0 71.0 174.0 L71.0 174.0 Z"></path>
<path fill="#77bbcc" fill-opacity="1.0"  filling="0" d="M83.0 174.0 C83.0 175.0 80.0 176.0 76.0 176.0 C73.0 176.0 71.0 175.0 71.0 174.0 C71.0 173.0 73.0 173.0 76.0 173.0 C80.0 173.0 83.0 173.0 83.0 174.0 L83.0 174.0 Z"></path>
<path fill="#ffffdd" fill-opacity="1.0"  filling="0" d="M84.0 174.0 C84.0 175.0 81.0 176.0 78.0 176.0 C74.0 176.0 72.0 175.0 72.0 174.0 C72.0 173.0 74.0 173.0 78.0 173.0 C81.0 173.0 84.0 173.0 84.0 174.0 L84.0 174.0 Z"></path>
<path fill="#77bbcc" fill-opacity="1.0"  filling="0" d="M97.0 174.0 C97.0 175.0 95.0 176.0 91.0 176.0 C87.0 176.0 84.0 175.0 84.0 174.0 C84.0 173.0 87.0 173.0 91.0 173.0 C95.0 173.0 97.0 173.0 97.0 174.0 L97.0 174.0 Z"></path>
<path fill="#ffffdd" fill-opacity="1.0"  filling="0" d="M100.0 174.0 C100.0 175.0 97.0 176.0 93.0 176.0 C90.0 176.0 87.0 175.0 87.0 174.0 C87.0 173.0 90.0 173.0 93.0 173.0 C97.0 173.0 100.0 173.0 100.0 174.0 L100.0 174.0 Z"></path>
<path fill="#77bbcc" fill-opacity="1.0"  filling="0" d="M108.0 174.0 C108.0 175.0 105.0 176.0 101.0 176.0 C98.0 176.0 95.0 175.0 95.0 174.0 C95.0 173.0 98.0 173.0 101.0 173.0 C105.0 173.0 108.0 173.0 108.0 174.0 L108.0 174.0 Z"></path>
<path fill="#ffffdd" fill-opacity="1.0"  filling="0" d="M141.0 174.0 C141.0 175.0 138.0 176.0 134.0 176.0 C131.0 176.0 128.0 175.0 128.0 174.0 C128.0 173.0 131.0 173.0 134.0 173.0 C138.0 173.0 141.0 173.0 141.0 174.0 L141.0 174.0 Z"></path>
<path fill="#77bbcc" fill-opacity="1.0"  filling="0" d="M152.0 174.0 C152.0 175.0 149.0 176.0 145.0 176.0 C142.0 176.0 140.0 175.0 140.0 174.0 C140.0 173.0 142.0 173.0 145.0 173.0 C149.0 173.0 152.0 173.0 152.0 174.0 L152.0 174.0 Z"></path>
<path fill="#ffffdd" fill-opacity="1.0"  filling="0" d="M152.0 174.0 C152.0 175.0 149.0 176.0 145.0 176.0 C142.0 176.0 140.0 175.0 140.0 174.0 C140.0 173.0 142.0 173.0 145.0 173.0 C149.0 173.0 152.0 173.0 152.0 174.0 L152.0 174.0 Z"></path>
<path fill="#77bbcc" fill-opacity="1.0"  filling="0" d="M153.0 174.0 C153.0 175.0 150.0 176.0 146.0 176.0 C142.0 176.0 140.0 175.0 140.0 174.0 C140.0 173.0 142.0 173.0 146.0 173.0 C150.0 173.0 153.0 173.0 153.0 174.0 L153.0 174.0 Z"></path>
<path fill="#ffffdd" fill-opacity="1.0"  filling="0" d="M171.0 174.0 C171.0 175.0 168.0 176.0 164.0 176.0 C160.0 176.0 157.0 175.0 157.0 174.0 C157.0 173.0 160.0 173.0 164.0 173.0 C168.0 173.0 171.0 173.0 171.0 174.0 L171.0 174.0 Z"></path>
<path fill="#77bbcc" fill-opacity="1.0"  filling="0" d="M185.0 174.0 C185.0 175.0 182.0 176.0 178.0 176.0 C175.0 176.0 172.0 175.0 172.0 174.0 C172.0 173.0 175.0 173.0 178.0 173.0 C182.0 173.0 185.0 173.0 185.0 174.0 L185.0 174.0 Z"></path>
<path fill="#ffffdd" fill-opacity="1.0"  filling="0" d="M185.0 174.0 C185.0 175.0 182.0 176.0 178.0 176.0 C175.0 176.0 172.0 175.0 172.0 174.0 C172.0 173.0 175.0 173.0 178.0 173.0 C182.0 173.0 185.0 173.0 185.0 174.0 L185.0 174.0 Z"></path>
<path fill="#77bbcc" fill-opacity="1.0"  filling="0" d="M186.0 174.0 C186.0 175.0 183.0 176.0 179.0 176.0 C176.0 176.0 173.0 175.0 173.0 174.0 C173.0 173.0 176.0 173.0 179.0 173.0 C183.0 173.0 186.0 173.0 186.0 174.0 L186.0 174.0 Z"></path>
<path fill="#000000" fill-opacity="1.0"  filling="0" d="M64.0 162.0 C64.0 162.0 63.0 162.0 63.0 162.0 C63.0 162.0 63.0 162.0 63.0 162.0 L63.0 162.0 C63.0 162.0 63.0 162.0 63.0 162.0 C63.0 162.0 63.0 162.0 63.0 162.0 C63.0 162.0 63.0 162.0 63.0 162.0 C63.0 162.0 63.0 162.0 63.0 162.0 C63.0 162.0 63.0 162.0 63.0 162.0 C63.0 162.0 63.0 162.0 63.0 162.0 C63.0 162.0 63.0 162.0 63.0 162.0 C63.0 162.0 63.0 162.0 63.0 162.0 C63.0 162.0 63.0 162.0 63.0 162.0 C63.0 162.0 63.0 162.0 63.0 162.0 C63.0 162.0 63.0 162.0 63.0 162.0 C63.0 162.0 63.0 162.0 63.0 162.0 C63.0 162.0 63.0 162.0 63.0 162.0 C63.0 162.0 63.0 162.0 63.0 162.0 C63.0 162.0 63.0 162.0 63.0 162.0 C63.0 162.0 63.0 162.0 63.0 162.0 C63.0 162.0 63.0 162.0 63.0 162.0 C63.0 162.0 63.0 162.0 63.0 162.0 C63.0 162.0 63.0 162.0 63.0 162.0 C63.0 162.0 63.0 162.0 63.0 162.0 C63.0 162.0 63.0 162.0 63.0 162.0 C63.0 162.0 63.0 162.0 63.0 162.0 C63.0 162.0 63.0 162.0 63.0 162.0 C63.0 162.0 63.0 162.0 63.0 162.0 C63.0 162.0 63.0 162.0 63.0 162.0 C63.0 162.0 63.0 162.0 63.0 162.0 C63.0 162.0 63.0 162.0 63.0 162.0 C63.0 162.0 63.0 162.0 63.0 162.0 C63.0 162.0 63.0 162.0 63.0 162.0 C63.0 162.0 63.0 162.0 63.0 162.0 C63.0 162.0 63.0 162.0 63.0 162.0 C63.0 162.0 63.0 162.0 63.0 162.0 C63.0 162.0 63.0 162.0 63.0 162.0 C63.0 162.0 63.0 162.0 63.0 162.0 C63.0 162.0 63.0 162.0 63.0 162.0 C63.0 162.0 63.0 162.0 63.0 162.0 C63.0 162.0 63.0 162.0 63.0 162.0 C63.0 162.0 63.0 162.0 63.0 162.0 C63.0 162.0 63.0 162.0 63.0 162.0 C63.0 162.0 63.0 162.0 63.0 162.0 C63.0 162.0 63.0 162.0 63.0 162.0 C63.0 162.0 63.0 162.0 63.0 162.0 C63.0 162.0 63.0 162.0 63.0 162.0 C63.0 162.0 63.0 162.0 63.0 162.0 C63.0 162.0 63.0 162.0 63.0 162.0 C63.0 162.0 63.0 162.0 63.0 162.0 C63.0 162.0 63.0 162.0 63.0 162.0 C63.0 162.0 63.0 162.0 63.0 162.0 C63.0 162.0 63.0 162.0 63.0 162.0 C63.0 162.0 63.0 162.0 63.0 162.0 C63.0 162.0 63.0 162.0 63.0 162.0 C63.0 162.0 63.0 162.0 63.0 162.0 C63.0 162.0 63.0 162.0 63.0 162.0 C63.0 162.0 63.0 162.0 63.0 162.0 C63.0 162.0 63.0 162.0 63.0 162.0 C63.0 162.0 63.0 162.0 63.0 162.0 C63.0 162.0 63.0 162.0 63.0 162.0 C63.0 162.0 63.0 162.0 63.0 162.0 C63.0 162.0 63.0 162.0 63.0 162.0 C63.0 162.0 63.0 162.0 63.0 162.0 C63.0 162.0 63.0 162.0 63.0 162.0 C63.0 162.0 63.0 162.0 63.0 162.0 C63.0 162.0 63.0 162.0 63.0 162.0 C63.0 162.0 63.0 162.0 63.0 162.0 C63.0 162.0 63.0 162.0 63.0 162.0 C63.0 162.0 63.0 162.0 63.0 162.0 C63.0 162.0 63.0 162.0 63.0 162.0 C63.0 162.0 63.0 162.0 63.0 162.0 C63.0 162.0 63.0 162.0 63.0 162.0 C63.0 162.0 63.0 162.0 63.0 162.0 C63.0 162.0 63.0 162.0 63.0 162.0 C63.0 162.0 63.0 162.0 63.0 162.0 C63.0 162.0 63.0 162.0 63.0 162.0 C63.0 162.0 63.0 162.0 63.0 162.0 C63.0 162.0 63.0 162.0 63.0 162.0 C63.0 162.0 63.0 162.0 63.0 162.0 C63.0 162.0 63.0 162.0 63.0 162.0 C63.0 162.0 63.0 162.0 63.0 162.0 C63.0 162.0 63.0 162.0 63.0 162.0 C63.0 162.0 63.0 162.0 63.0 162.0 C63.0 162.0 63.0 162.0 63.0 162.0 C63.0 162.0 63.0 162.0 63.0 162.0 C63.0 162.0 63.0 162.0 63.0 162.0 C63.0 162.0 63.0 162.0 63.0 162.0 C63.0 162.0 63.0 162.0 63.0 162.0 C63.0 162.0 63.0 162.0 63.0 162.0 C63.0 162.0 63.0 162.0 63.0 162.0 C63.0 162.0 63.0 162.0 63.0 162.0 C63.0 162.0 63.0 162.0 63.0 162.0 C63.0 162.0 63.0 162.0 63.0 162.0 C63.0 162.0 63.0 162.0 63.0 162.0 C63.0 162.0 63.0 162.0 63.0 162.0 C63.0 162.0 63.0 162.0 63.0 162.0 C63.0 162.0 63.0 162.0 63.0 162.0 C63.0 162.0 63.0 162.0 63.0 162.0 C63.0 162.0 63.0 162.0 63.0 162.0 C63.0 162.0 63.0 162.0 63.0 162.0 C63.0 162.0 63.0 162.0 63.0 162.0 C63.0 162.0 63.0 162.0 63.0 162.0 C63.0 162.0 63.0 162.0 63.0 162.0 C63.0 162.0 63.0 162.0 63.0 162.0 C63.0 162.0 63.0 162.0 63.0 162.0 C63.0 162.0 63.0 162.0 63.0 162.0 C63.0 162.0 63.0 162.0 63.0 162.0 C63.0 162.0 63.0 162.0 63.0 162.0 C63.0 162.0 63.0 162.0 63.0 162.0 C63.0 162.0 63.0 162.0 63.0 162.0 C63.0 162.0 63.0 162.0 63.0 162.0 C63.0 162.0 63.0 162.0 63.0 162.0 C63.0 162.0 63.0 162.0 63.0 162.0 C63.0 162.0 63.0 162.0 63.0 162.0 C63.0 162.0 63.0 162.0 63.0 162.0 C63.0 162.0 63.0 162.0 63.0 162.0 C63.0 162.0 63.0 162.0 63.0 162.0 C63.0 162.0 63.0 162.0 63.0 162.0 C63.0 162.0 63.0 162.0 63.0 162.0 C63.0 162.0 63.0 162.0 63.0 162.0 C63.0 162.0 63.0 162.0 63.0 162.0 C63.0 162.0 63.0 162.0 63.0 162.0 C63.0 162.0 63.0 162.0 63.0 162.0 C63.0 162.0 63.0 162.0 63.0 162.0 C63.0 162.0 63.0 162.0 63.0 162.0 C63.0 162.0 63.0 162.0 63.0 162.0 C63.0 162.0 63.0 162.0 63.0 162.0 C63.0 162.0 63.0 162.0 63.0 162.0 C63.0 162.0 63.0 162.0 63.0 162.0 C63.0 162.0 63.0 162.0 63.0 162.0 C63.0 162.0 63.0 162.0 63.0 162.0 C63.0 162.0 63.0 162.0 63.0 162.0 C63.0 162.0 63.0 162.0 63.0 162.0 C63.0 162.0 63.0 162.0 63.0 162.0 C63.0 162.0 63.0 162.0 63.0 162.0 C63.0 162.0 63.0 162.0 63.0 162.0 C63.0 162.0 63.0 162.0 63.0 162.0 C63.0 162.0 63.0 162.0 63.0 162.0 C63.0 162.0 63.0 162.0 63.0 162.0 C63.0 162.0 63.0 162.0 63.0 162.0 C63.0 162.0 63.0 162.0 63.0 162.0 C63.0 162.0 63.0 162.0 63.0 162.0 C63.0 162.0 63.0 162.0 63.0 162.0 C63.0 162.0 63.0 162.0 63.0 162.0 C63.0 162.0 63.0 162.0 63.0 162.0 C63.0 162.0 63.0 162.0 63.0 162.0 C63.0 162.0 63.0 162.0 63.0 162.0 C63.0 162.0 63.0 162.0 63.0 162.0 C63.0 162.0 63.0 162.0 63.0 162.0 C63.0 162.0 63.0 162.0 63.0 162.0 C63.0 162.0 63.0 162.0 63.0 162.0 C63.0 162.0 63.0 162.0 63.0 162.0 C63.0 162.0 63.0 162.0 63.0 162.0 C63.0 162.0 63.0 162.0 63.0 162.0 C63.0 162.0 63.0 162.0 63.0 162.0 C63.0 162.0 63.0 162.0 63.0 162.0 C63.0 162.0 63.0 162.0 63.0 162.0 C63.0 162.0 63.0 162.0 63.0 162.0 C63.0 162.0 63.0 162.0 63.0 162.0 C63.0 162.0 63.0 162.0 63.0 162.0 C63.0 162.0 63.0 162.0 63.0 162.0 C63.0 162.0 63.0 162.0 63.0 162.0 C63.0 162.0 63.0 162.0 63.0 162.0 C63.0 162.0 63.0 162.0 63.0 162.0 C63.0 162.0 63.0 162.0 63.0 162.0 C63.0 162.0 63.0 162.0 63.0 162.0 C63.0 162.0 63.0 162.0 63.0 162.0 C63.0 162.0 63.0 162.0 63.0 162.0 C63.0 162.0 63.0 162.0 63.0 162.0 C63.0 162.0 63.0 162.0 63.0 162.0 C63.0 162.0 63.0 162.0 63.0 162.0 C63.0 162.0 63.0 162.0 63.0 162.0 C63.0 162.0 63.0 162.0 63.0 162.0 C63.0 162.0 63.0 162.0 63.0 162.0 C63.0 162.0 63.0 162.0 63.0 162.0 C63.0 162.0 63.0 162.0 63.0 162.0 C63.0 162.0 63.0 162.0 63.0 162.0 C63.0 162.0 63.0 162.0 63.0 162.0 C63.0 162.0 63.0 162.0 63.0 162.0 C63.0 162.0 63.0 162.0 63.0 162.0 C63.0 162.0 63.0 162.0 63.0 162.0 C63.0 162.0 63.0 162.0 63.0 162.0 C63.0 162.0 63.0 162.0 63.0 162.0 C63.0 162.0 63.0 162.0 63.0 162.0 C63.0 162.0 63.0 162.0 63.0 162.0 C63.0 162.0 63.0 162.0 63.0 162.0 C63.0 162.0 63.0 162.0 63.0 162.0 C63.0 162.0 63.0 162.0 63.0 162.0 C63.0 162.0 63.0 162.0 63.0 162.0"></path></svg>