<svg xmlns="http://www.w3.org/2000/svg" viewBox="0.0 0.0 200.0 200.0" height="200px" width="200px"><path fill="#554444" fill-opacity="1.0"  filling="0" d="M50.0 170.0 L43.0 170.0 C40.0 170.0 39.0 168.0 39.0 166.0 L39.0 161.0 L53.0 161.0 L53.0 166.0 C53.0 168.0 52.0 170.0 50.0 170.0 L50.0 170.0 Z"></path>
<path fill="#554444" fill-opacity="1.0"  filling="0" d="M157.0 170.0 L150.0 170.0 C148.0 170.0 146.0 168.0 146.0 166.0 L146.0 161.0 L161.0 161.0 L161.0 166.0 C161.0 168.0 159.0 170.0 157.0 170.0 L157.0 170.0 Z"></path>
<path fill="#885533" fill-opacity="1.0"  filling="0" d="M170.0 52.0 L170.0 52.0 L170.0 52.0 C169.0 52.0 156.0 52.0 156.0 52.0 L44.0 52.0 L30.0 52.0 C25.0 52.0 21.0 56.0 21.0 61.0 L21.0 75.0 L179.0 75.0 L179.0 61.0 C179.0 56.0 175.0 52.0 170.0 52.0 L170.0 52.0 Z"></path>
<path fill="#885533" fill-opacity="1.0"  filling="0" d="M136.0 115.0 L136.0 115.0 L136.0 115.0 C135.0 115.0 122.0 115.0 122.0 115.0 L78.0 115.0 L64.0 115.0 C59.0 115.0 54.0 119.0 54.0 124.0 L54.0 136.0 L146.0 136.0 L146.0 124.0 C146.0 119.0 142.0 115.0 136.0 115.0 L136.0 115.0 Z"></path>
<path fill="#aa6644" fill-opacity="1.0"  filling="0" d="M156.0 52.0 L156.0 52.0 L44.0 52.0 L44.0 52.0 C44.0 66.0 34.0 75.0 22.0 75.0 L21.0 75.0 L21.0 142.0 C34.0 142.0 44.0 152.0 44.0 166.0 L44.0 166.0 L44.0 166.0 L161.0 166.0 L161.0 166.0 L161.0 166.0 C161.0 152.0 168.0 142.0 179.0 142.0 L179.0 75.0 L178.0 75.0 C166.0 75.0 156.0 66.0 156.0 52.0 L156.0 52.0 Z"></path>
<path fill="#ff9922" fill-opacity="1.0"  filling="0" d="M52.0 52.0 L61.0 52.0 L61.0 166.0 L52.0 166.0 L52.0 52.0 L52.0 52.0 Z"></path>
<path fill="#ff9922" fill-opacity="1.0"  filling="0" d="M139.0 52.0 L148.0 52.0 L148.0 166.0 L139.0 166.0 L139.0 52.0 L139.0 52.0 Z"></path>
<path fill="#88ccbb" fill-opacity="1.0"  filling="0" d="M100.0 87.0 C100.0 78.0 108.0 72.0 117.0 72.0 C126.0 72.0 134.0 78.0 134.0 87.0 C134.0 96.0 126.0 103.0 117.0 103.0 C108.0 103.0 100.0 96.0 100.0 87.0 L100.0 87.0 Z M100.0 103.0 C100.0 96.0 108.0 90.0 117.0 90.0 C126.0 90.0 134.0 96.0 134.0 103.0 C134.0 111.0 126.0 117.0 117.0 117.0 C108.0 117.0 100.0 111.0 100.0 103.0 L100.0 103.0 Z"></path>
<path fill="#223344" fill-opacity="1.0"  filling="0" d="M118.0 78.0 L110.0 103.0 L115.0 104.0 L123.0 79.0 L118.0 78.0 L118.0 78.0 Z"></path>
<path fill="#559977" fill-opacity="1.0"  filling="0" d="M120.0 75.0 C120.0 75.0 128.0 76.0 132.0 74.0 C136.0 72.0 127.0 67.0 120.0 73.0 C120.0 73.0 115.0 66.0 110.0 68.0 C106.0 71.0 113.0 75.0 120.0 75.0 L120.0 75.0 Z"></path>
<path fill="#559977" fill-opacity="1.0"  filling="0" d="M120.0 81.0 C120.0 81.0 128.0 83.0 132.0 87.0 C136.0 91.0 127.0 82.0 120.0 82.0 C120.0 82.0 115.0 89.0 110.0 86.0 C106.0 83.0 113.0 81.0 120.0 81.0 L120.0 81.0 Z"></path>
<path fill="#554444" fill-opacity="1.0"  filling="0" d="M126.0 52.0 L116.0 52.0 L116.0 43.0 C116.0 40.0 114.0 38.0 112.0 38.0 L86.0 38.0 C84.0 38.0 82.0 40.0 82.0 43.0 L82.0 52.0 L72.0 52.0 L72.0 43.0 C72.0 35.0 78.0 29.0 86.0 29.0 L112.0 29.0 C120.0 29.0 126.0 35.0 126.0 43.0 L126.0 52.0 L126.0 52.0 L126.0 52.0 Z"></path>
<path fill="#ff8822" fill-opacity="1.0"  filling="0" d="M97.0 136.0 L71.0 139.0 C69.0 139.0 68.0 138.0 69.0 136.0 L79.0 113.0 C80.0 112.0 81.0 112.0 82.0 113.0 L97.0 135.0 C98.0 135.0 97.0 136.0 97.0 136.0 L97.0 136.0 Z"></path>
<path fill="#88ccbb" fill-opacity="1.0"  filling="0" d="M106.0 92.0 C102.0 92.0 100.0 96.0 100.0 96.0 C100.0 96.0 100.0 102.0 100.0 104.0 C100.0 107.0 107.0 107.0 107.0 107.0 C107.0 107.0 114.0 107.0 117.0 107.0 C120.0 107.0 120.0 104.0 120.0 104.0 C120.0 104.0 120.0 92.0 117.0 92.0 C114.0 92.0 106.0 92.0 106.0 92.0 L106.0 92.0 Z"></path>
<path fill="#cc3322" fill-opacity="1.0"  filling="0" d="M88.0 73.0 L88.0 73.0 C87.0 71.0 85.0 71.0 84.0 73.0 L84.0 73.0 L84.0 73.0 C83.0 71.0 81.0 71.0 80.0 73.0 L80.0 73.0 L80.0 73.0 C80.0 71.0 78.0 71.0 77.0 73.0 L77.0 73.0 L77.0 73.0 C76.0 71.0 74.0 71.0 73.0 73.0 L73.0 73.0 C74.0 74.0 74.0 75.0 75.0 76.0 L75.0 80.0 L75.0 80.0 C73.0 80.0 73.0 82.0 75.0 83.0 L75.0 83.0 C76.0 83.0 77.0 84.0 78.0 84.0 L78.0 86.0 C78.0 87.0 79.0 88.0 80.0 88.0 L80.0 88.0 C81.0 88.0 82.0 87.0 82.0 86.0 L82.0 84.0 C83.0 84.0 84.0 83.0 85.0 83.0 L85.0 83.0 C86.0 82.0 86.0 80.0 84.0 80.0 L84.0 80.0 L84.0 76.0 C85.0 75.0 86.0 74.0 87.0 73.0 L88.0 73.0 L88.0 73.0 Z"></path>
<path fill="#cc3322" fill-opacity="1.0"  filling="0" d="M92.0 81.0 L92.0 81.0 C91.0 81.0 90.0 81.0 89.0 81.0 L89.0 81.0 L89.0 81.0 C88.0 80.0 87.0 79.0 86.0 81.0 L86.0 81.0 L86.0 81.0 C85.0 79.0 84.0 79.0 83.0 81.0 L83.0 81.0 C83.0 81.0 83.0 82.0 83.0 82.0 L83.0 86.0 C83.0 87.0 83.0 88.0 84.0 88.0 L84.0 88.0 C85.0 89.0 86.0 88.0 86.0 87.0 L86.0 87.0 C87.0 88.0 88.0 89.0 89.0 88.0 L89.0 88.0 C90.0 88.0 91.0 87.0 91.0 86.0 L91.0 82.0 C92.0 82.0 92.0 81.0 92.0 81.0 L92.0 81.0 Z"></path>
<path fill="#885533" fill-opacity="1.0"  filling="0" d="M47.0 117.0 C47.0 116.0 47.0 116.0 46.0 116.0 C45.0 116.0 44.0 116.0 43.0 116.0 C41.0 116.0 39.0 117.0 39.0 118.0 C39.0 120.0 40.0 121.0 42.0 121.0 C43.0 121.0 44.0 121.0 45.0 121.0 C47.0 121.0 48.0 120.0 48.0 119.0 C48.0 118.0 48.0 117.0 47.0 117.0 L47.0 117.0 Z"></path>
<path fill="#885533" fill-opacity="1.0"  filling="0" d="M38.0 100.0 C37.0 99.0 36.0 98.0 35.0 98.0 C33.0 98.0 32.0 99.0 32.0 100.0 L32.0 124.0 C32.0 126.0 33.0 127.0 35.0 127.0 C37.0 127.0 38.0 126.0 38.0 124.0 L38.0 100.0 L38.0 100.0 Z"></path>
<path fill="#885533" fill-opacity="1.0"  filling="0" d="M153.0 118.0 C153.0 117.0 153.0 116.0 152.0 116.0 C151.0 116.0 150.0 116.0 149.0 116.0 C148.0 116.0 146.0 116.0 146.0 118.0 C146.0 120.0 147.0 121.0 149.0 121.0 C150.0 121.0 151.0 121.0 152.0 121.0 C153.0 121.0 154.0 120.0 154.0 119.0 C154.0 118.0 154.0 118.0 153.0 118.0 L153.0 118.0 Z"></path>
<path fill="#885533" fill-opacity="1.0"  filling="0" d="M167.0 100.0 C167.0 99.0 166.0 98.0 165.0 98.0 C164.0 98.0 162.0 99.0 162.0 100.0 L162.0 124.0 C162.0 126.0 164.0 127.0 165.0 127.0 C166.0 127.0 167.0 126.0 167.0 124.0 L167.0 100.0 L167.0 100.0 Z"></path></svg>