<svg xmlns="http://www.w3.org/2000/svg" viewBox="0.0 0.0 200.0 200.0" height="200px" width="200px"><path fill="#554444" fill-opacity="1.0"  filling="0" d="M150.0 170.0 A4.0 4.0 0.0 0 1 146.0 166.0 L146.0 164.0 A4.0 4.0 0.0 0 1 150.0 160.0 L157.0 160.0 A4.0 4.0 0.0 0 1 161.0 164.0 L161.0 166.0 A4.0 4.0 0.0 0 1 157.0 170.0 L150.0 170.0 L150.0 170.0 Z"></path>
<path fill="#663322" fill-opacity="1.0"  filling="0" d="M170.0 165.0 L157.0 165.0 L157.0 164.0 A19.0 19.0 0.0 0 1 179.0 143.0 L179.0 157.0 A8.0 8.0 0.0 0 1 170.0 165.0 L170.0 165.0 Z"></path>
<path fill="#554444" fill-opacity="1.0"  filling="0" d="M43.0 170.0 A4.0 4.0 0.0 0 1 39.0 166.0 L39.0 164.0 A4.0 4.0 0.0 0 1 43.0 160.0 L50.0 160.0 A4.0 4.0 0.0 0 1 54.0 164.0 L54.0 166.0 A4.0 4.0 0.0 0 1 50.0 170.0 L43.0 170.0 L43.0 170.0 Z"></path>
<path fill="#663322" fill-opacity="1.0"  filling="0" d="M30.0 165.0 L43.0 165.0 L43.0 164.0 A19.0 19.0 0.0 0 0 21.0 143.0 L21.0 157.0 A8.0 8.0 0.0 0 0 30.0 165.0 L30.0 165.0 Z"></path>
<path fill="#443333" fill-opacity="1.0"  filling="0" d="M74.0 52.0 L74.0 42.0 A13.0 13.0 0.0 0 1 86.0 29.0 L113.0 29.0 A13.0 13.0 0.0 0 1 126.0 42.0 L126.0 52.0 L116.0 52.0 L116.0 43.0 A5.0 5.0 0.0 0 0 112.0 38.0 L87.0 38.0 A5.0 5.0 0.0 0 0 82.0 43.0 L82.0 52.0 L74.0 52.0 L74.0 52.0 Z"></path>
<path fill="#bb6644" fill-opacity="1.0"  filling="0" d="M29.0 52.0 L170.0 52.0 A9.0 9.0 0.0 0 1 179.0 61.0 L179.0 157.0 A9.0 9.0 0.0 0 1 170.0 165.0 L29.0 165.0 A9.0 9.0 0.0 0 1 20.0 157.0 L20.0 61.0 A9.0 9.0 0.0 0 1 29.0 52.0 L29.0 52.0 Z"></path>
<path fill="#663322" fill-opacity="1.0"  filling="0" d="M179.0 75.0 L179.0 75.0 A21.0 21.0 0.0 0 1 157.0 54.0 L157.0 52.0 L170.0 52.0 A9.0 9.0 0.0 0 1 179.0 61.0 L179.0 75.0 L179.0 75.0 Z"></path>
<path fill="#663322" fill-opacity="1.0"  filling="0" d="M21.0 75.0 L21.0 75.0 A21.0 21.0 0.0 0 0 43.0 54.0 L43.0 52.0 L29.0 52.0 A9.0 9.0 0.0 0 0 20.0 61.0 L21.0 75.0 L21.0 75.0 Z"></path>
<path fill="#774433" fill-opacity="1.0"  filling="0" d="M43.0 165.0 A19.0 19.0 0.0 0 0 21.0 143.0 L21.0 136.0 A26.0 26.0 0.0 0 1 43.0 164.0 L43.0 165.0 L43.0 165.0 Z"></path>
<path fill="#774433" fill-opacity="1.0"  filling="0" d="M157.0 165.0 A19.0 19.0 0.0 0 1 179.0 143.0 L179.0 136.0 A26.0 26.0 0.0 0 0 157.0 164.0 L157.0 165.0 L157.0 165.0 Z"></path>
<path fill="#bb6644" fill-opacity="1.0"  filling="0" d="M43.0 52.0 L157.0 52.0 L157.0 165.0 L43.0 165.0 L43.0 52.0 L43.0 52.0 Z"></path>
<path fill="#eeaa44" fill-opacity="1.0"  filling="0" d="M52.0 52.0 L61.0 52.0 L61.0 165.0 L52.0 165.0 L52.0 52.0 L52.0 52.0 Z"></path>
<path fill="#eeaa44" fill-opacity="1.0"  filling="0" d="M139.0 52.0 L148.0 52.0 L148.0 165.0 L139.0 165.0 L139.0 52.0 L139.0 52.0 Z"></path>
<path fill="#88bbbb" fill-opacity="1.0"  filling="0" d="M100.0 104.0 C100.0 98.0 106.0 92.0 112.0 92.0 C119.0 92.0 128.0 96.0 128.0 99.0 C128.0 103.0 127.0 107.0 112.0 107.0 C101.0 107.0 100.0 106.0 100.0 104.0 L100.0 104.0 Z"></path>
<path fill="#443333" fill-opacity="1.0"  filling="0" d="M120.0 104.0 L115.0 104.0 L117.0 80.0 L120.0 81.0 L120.0 104.0 L120.0 104.0 Z"></path>
<path fill="#ffffff" fill-opacity="1.0"  filling="0" d="M2.0 2.0 L198.0 2.0 L198.0 198.0 L2.0 198.0 L2.0 2.0 L2.0 2.0 Z"></path>
<path fill="#554444" fill-opacity="1.0"  filling="0" d="M0.0 0.0 L199.0 0.0 L199.0 199.0 L0.0 199.0 L0.0 0.0 L0.0 0.0 Z M4.0 4.0 L4.0 196.0 L196.0 196.0 L196.0 4.0 L4.0 4.0 L4.0 4.0 Z"></path>
<path fill="#554444" fill-opacity="1.0"  filling="0" d="M88.0 66.0 A2.0 2.0 0.0 0 1 87.0 64.0 L87.0 52.0 A2.0 2.0 0.0 0 1 90.0 52.0 L90.0 64.0 A2.0 2.0 0.0 0 1 88.0 66.0 L88.0 66.0 Z"></path>
<path fill="#554444" fill-opacity="1.0"  filling="0" d="M111.0 66.0 A2.0 2.0 0.0 0 1 109.0 64.0 L109.0 52.0 A2.0 2.0 0.0 0 1 112.0 52.0 L112.0 64.0 A2.0 2.0 0.0 0 1 111.0 66.0 L111.0 66.0 Z"></path>
<path fill="#bb3322" fill-opacity="1.0"  filling="0" d="M79.0 71.0 L83.0 80.0 L92.0 81.0 C93.0 82.0 93.0 83.0 92.0 84.0 L86.0 88.0 L87.0 96.0 C88.0 97.0 86.0 97.0 85.0 97.0 L79.0 93.0 L72.0 97.0 C71.0 97.0 70.0 97.0 70.0 96.0 L72.0 88.0 L67.0 84.0 C66.0 83.0 66.0 82.0 67.0 81.0 L75.0 80.0 L79.0 71.0 L79.0 71.0 Z"></path>
<path fill="#ccddee" fill-opacity="1.0"  filling="0" d="M80.0 71.0 A1.0 1.0 0.0 0 1 81.0 72.0 L83.0 80.0 L91.0 81.0 A1.0 1.0 0.0 0 1 92.0 83.0 L86.0 88.0 L87.0 95.0 A1.0 1.0 0.0 0 1 85.0 96.0 L79.0 92.0 L72.0 96.0 A1.0 1.0 0.0 0 1 70.0 95.0 L72.0 88.0 L66.0 83.0 A1.0 1.0 0.0 0 1 67.0 81.0 L75.0 80.0 L79.0 72.0 A1.0 1.0 0.0 0 1 80.0 71.0 L80.0 71.0 Z M80.0 73.0 L76.0 80.0 A1.0 1.0 0.0 0 1 75.0 81.0 L68.0 82.0 L73.0 87.0 A1.0 1.0 0.0 0 1 73.0 88.0 L71.0 95.0 L78.0 92.0 A1.0 1.0 0.0 0 1 79.0 92.0 L86.0 95.0 L85.0 88.0 A1.0 1.0 0.0 0 1 85.0 87.0 L91.0 82.0 L83.0 81.0 A1.0 1.0 0.0 0 1 82.0 80.0 L80.0 73.0 L80.0 73.0 Z"></path>
<path fill="#ffeecc" fill-opacity="1.0"  filling="0" d="M112.0 120.0 L114.0 118.0 C115.0 117.0 115.0 117.0 116.0 118.0 L134.0 122.0 L144.0 117.0 C146.0 115.0 146.0 115.0 148.0 116.0 L152.0 117.0 C154.0 117.0 154.0 117.0 153.0 119.0 L152.0 120.0 C151.0 122.0 151.0 122.0 149.0 123.0 L139.0 129.0 L135.0 148.0 C135.0 150.0 135.0 150.0 133.0 151.0 L131.0 152.0 C130.0 152.0 130.0 152.0 130.0 150.0 L130.0 135.0 L119.0 141.0 C118.0 142.0 118.0 142.0 118.0 144.0 L118.0 146.0 C118.0 148.0 118.0 148.0 116.0 148.0 L115.0 148.0 C114.0 148.0 114.0 148.0 114.0 146.0 L114.0 143.0 C114.0 140.0 114.0 140.0 116.0 137.0 L125.0 129.0 L112.0 123.0 C111.0 122.0 111.0 122.0 112.0 120.0 L112.0 120.0 Z"></path>
<path fill="#ffeecc" fill-opacity="1.0"  filling="0" d="M111.0 120.0 L113.0 117.0 C114.0 116.0 114.0 116.0 116.0 117.0 L133.0 123.0 L143.0 116.0 C146.0 114.0 146.0 114.0 149.0 115.0 L153.0 116.0 C154.0 116.0 154.0 116.0 154.0 118.0 L154.0 120.0 C153.0 122.0 153.0 122.0 151.0 124.0 L140.0 129.0 L136.0 148.0 C136.0 151.0 136.0 151.0 133.0 152.0 L131.0 153.0 C130.0 153.0 130.0 153.0 130.0 151.0 L130.0 136.0 L119.0 142.0 C117.0 143.0 117.0 143.0 117.0 145.0 L117.0 147.0 C117.0 149.0 117.0 149.0 115.0 149.0 L114.0 149.0 C113.0 149.0 113.0 149.0 113.0 147.0 L113.0 143.0 C113.0 140.0 113.0 140.0 115.0 137.0 L124.0 129.0 L112.0 124.0 C110.0 122.0 110.0 122.0 111.0 120.0 L111.0 120.0 Z M113.0 120.0 C112.0 122.0 112.0 122.0 113.0 123.0 L126.0 128.0 A1.0 1.0 0.0 0 1 126.0 130.0 L116.0 138.0 C114.0 140.0 114.0 140.0 114.0 143.0 L114.0 147.0 L116.0 147.0 L116.0 144.0 C116.0 142.0 116.0 142.0 118.0 141.0 L130.0 134.0 A1.0 1.0 0.0 0 1 131.0 135.0 L131.0 151.0 L133.0 151.0 L135.0 148.0 C135.0 150.0 135.0 150.0 135.0 148.0 L139.0 128.0 A1.0 1.0 0.0 0 1 139.0 127.0 L150.0 123.0 C152.0 122.0 152.0 122.0 152.0 119.0 L153.0 118.0 L152.0 117.0 L148.0 117.0 C146.0 116.0 146.0 116.0 144.0 118.0 L134.0 124.0 A1.0 1.0 0.0 0 1 133.0 124.0 L116.0 118.0 C115.0 117.0 115.0 117.0 114.0 119.0 L113.0 120.0 L113.0 120.0 Z"></path></svg>