<svg xmlns="http://www.w3.org/2000/svg" viewBox="0.0 0.0 200.0 200.0" height="200px" width="200px"><path fill="#444444" fill-opacity="1.0"  filling="0" d="M126.0 41.0 L126.0 55.0 C126.0 57.0 125.0 59.0 123.0 59.0 L118.0 59.0 C116.0 59.0 115.0 57.0 115.0 55.0 L115.0 43.0 C115.0 40.0 114.0 38.0 112.0 38.0 L86.0 38.0 C84.0 38.0 82.0 40.0 82.0 43.0 L82.0 55.0 C82.0 57.0 80.0 59.0 78.0 59.0 L74.0 59.0 C72.0 59.0 70.0 57.0 70.0 55.0 L70.0 41.0 C70.0 35.0 75.0 30.0 81.0 30.0 L118.0 30.0 C123.0 30.0 126.0 35.0 126.0 41.0 L126.0 41.0 Z"></path>
<path fill="#ffffff" fill-opacity="1.0"  filling="0" d="M1.0 1.0 L199.0 1.0 L199.0 199.0 L1.0 199.0 L1.0 1.0 L1.0 1.0 Z"></path>
<path fill="#ffffff" fill-opacity="1.0"  filling="0" d="M1.0 1.0 L199.0 1.0 L199.0 199.0 L1.0 199.0 L1.0 1.0 L1.0 1.0 Z"></path>
<path fill="#ffffff" fill-opacity="1.0"  filling="0" d="M199.0 13.0 L198.0 12.0 L11.0 199.0 L18.0 199.0 L199.0 18.0 L199.0 13.0 L199.0 13.0 Z M160.0 1.0 L1.0 161.0 L1.0 169.0 L168.0 1.0 L160.0 1.0 L160.0 1.0 Z M105.0 1.0 L1.0 106.0 L1.0 113.0 L112.0 1.0 L105.0 1.0 L105.0 1.0 Z M55.0 1.0 L1.0 55.0 L1.0 63.0 L63.0 1.0 L55.0 1.0 L55.0 1.0 Z M14.0 1.0 L1.0 14.0 L1.0 21.0 L21.0 1.0 L14.0 1.0 L14.0 1.0 Z M199.0 61.0 L61.0 199.0 L69.0 199.0 L199.0 69.0 L199.0 61.0 L199.0 61.0 Z M199.0 111.0 L110.0 199.0 L118.0 199.0 L199.0 118.0 L199.0 111.0 L199.0 111.0 Z M199.0 168.0 L167.0 199.0 L175.0 199.0 L199.0 176.0 L199.0 168.0 L199.0 168.0 Z"></path>
<path fill="#995533" fill-opacity="1.0"  filling="0" d="M171.0 165.0 L29.0 165.0 C25.0 165.0 21.0 162.0 21.0 157.0 L21.0 61.0 C21.0 56.0 25.0 52.0 29.0 52.0 L171.0 52.0 C175.0 52.0 179.0 56.0 179.0 61.0 L179.0 157.0 C179.0 162.0 175.0 165.0 171.0 165.0 L171.0 165.0 Z"></path>
<path fill="#774422" fill-opacity="1.0"  filling="0" d="M158.0 148.0 C155.0 152.0 156.0 158.0 160.0 162.0 C163.0 166.0 169.0 167.0 174.0 164.0 C179.0 161.0 181.0 155.0 178.0 150.0 C175.0 145.0 169.0 143.0 164.0 146.0 L64.0 100.0 L64.0 108.0 L158.0 148.0 L158.0 148.0 Z"></path>
<path fill="#774422" fill-opacity="1.0"  filling="0" d="M42.0 148.0 C45.0 152.0 44.0 158.0 40.0 162.0 C37.0 166.0 31.0 167.0 26.0 164.0 C21.0 161.0 19.0 155.0 22.0 150.0 C25.0 145.0 31.0 143.0 36.0 146.0 L136.0 100.0 L136.0 108.0 L42.0 148.0 L42.0 148.0 Z"></path>
<path fill="#000000" fill-opacity="1.0"  filling="0" d="M100.0 116.0 C99.0 116.0 98.0 115.0 98.0 114.0 L98.0 88.0 C98.0 87.0 99.0 87.0 100.0 87.0 C101.0 87.0 101.0 87.0 101.0 88.0 L101.0 114.0 C101.0 115.0 101.0 116.0 100.0 116.0 L100.0 116.0 Z"></path>
<path fill="#000000" fill-opacity="1.0"  filling="0" d="M100.0 116.0 C99.0 116.0 98.0 115.0 98.0 114.0 L98.0 88.0 C98.0 87.0 99.0 87.0 100.0 87.0 C101.0 87.0 101.0 87.0 101.0 88.0 L101.0 114.0 C101.0 115.0 101.0 116.0 100.0 116.0 L100.0 116.0 Z"></path>
<path fill="#000000" fill-opacity="1.0"  filling="0" d="M100.0 116.0 C99.0 116.0 98.0 115.0 98.0 114.0 L98.0 88.0 C98.0 87.0 99.0 87.0 100.0 87.0 C101.0 87.0 101.0 87.0 101.0 88.0 L101.0 114.0 C101.0 115.0 101.0 116.0 100.0 116.0 L100.0 116.0 Z"></path>
<path fill="#000000" fill-opacity="1.0"  filling="0" d="M100.0 116.0 C99.0 116.0 98.0 115.0 98.0 114.0 L98.0 88.0 C98.0 87.0 99.0 87.0 100.0 87.0 C101.0 87.0 101.0 87.0 101.0 88.0 L101.0 114.0 C101.0 115.0 101.0 116.0 100.0 116.0 L100.0 116.0 Z"></path>
<path fill="#000000" fill-opacity="1.0"  filling="0" d="M100.0 116.0 C99.0 116.0 98.0 115.0 98.0 114.0 L98.0 88.0 C98.0 87.0 99.0 87.0 100.0 87.0 C101.0 87.0 101.0 87.0 101.0 88.0 L101.0 114.0 C101.0 115.0 101.0 116.0 100.0 116.0 L100.0 116.0 Z"></path>
<path fill="#000000" fill-opacity="1.0"  filling="0" d="M100.0 116.0 C99.0 116.0 98.0 115.0 98.0 114.0 L98.0 88.0 C98.0 87.0 99.0 87.0 100.0 87.0 C101.0 87.0 101.0 87.0 101.0 88.0 L101.0 114.0 C101.0 115.0 101.0 116.0 100.0 116.0 L100.0 116.0 Z"></path>
<path fill="#000000" fill-opacity="1.0"  filling="0" d="M100.0 116.0 C99.0 116.0 98.0 115.0 98.0 114.0 L98.0 88.0 C98.0 87.0 99.0 87.0 100.0 87.0 C101.0 87.0 101.0 87.0 101.0 88.0 L101.0 114.0 C101.0 115.0 101.0 116.0 100.0 116.0 L100.0 116.0 Z"></path>
<path fill="#000000" fill-opacity="1.0"  filling="0" d="M100.0 116.0 C99.0 116.0 98.0 115.0 98.0 114.0 L98.0 88.0 C98.0 87.0 99.0 87.0 100.0 87.0 C101.0 87.0 101.0 87.0 101.0 88.0 L101.0 114.0 C101.0 115.0 101.0 116.0 100.0 116.0 L100.0 116.0 Z"></path>
<path fill="#000000" fill-opacity="1.0"  filling="0" d="M100.0 116.0 C99.0 116.0 98.0 115.0 98.0 114.0 L98.0 88.0 C98.0 87.0 99.0 87.0 100.0 87.0 C101.0 87.0 101.0 87.0 101.0 88.0 L101.0 114.0 C101.0 115.0 101.0 116.0 100.0 116.0 L100.0 116.0 Z"></path>
<path fill="#000000" fill-opacity="1.0"  filling="0" d="M100.0 116.0 C99.0 116.0 98.0 115.0 98.0 114.0 L98.0 88.0 C98.0 87.0 99.0 87.0 100.0 87.0 C101.0 87.0 101.0 87.0 101.0 88.0 L101.0 114.0 C101.0 115.0 101.0 116.0 100.0 116.0 L100.0 116.0 Z"></path>
<path fill="#000000" fill-opacity="1.0"  filling="0" d="M100.0 116.0 C99.0 116.0 98.0 115.0 98.0 114.0 L98.0 88.0 C98.0 87.0 99.0 87.0 100.0 87.0 C101.0 87.0 101.0 87.0 101.0 88.0 L101.0 114.0 C101.0 115.0 101.0 116.0 100.0 116.0 L100.0 116.0 Z"></path>
<path fill="#000000" fill-opacity="1.0"  filling="0" d="M100.0 116.0 C99.0 116.0 98.0 115.0 98.0 114.0 L98.0 88.0 C98.0 87.0 99.0 87.0 100.0 87.0 C101.0 87.0 101.0 87.0 101.0 88.0 L101.0 114.0 C101.0 115.0 101.0 116.0 100.0 116.0 L100.0 116.0 Z"></path>
<path fill="#000000" fill-opacity="1.0"  filling="0" d="M100.0 116.0 C99.0 116.0 98.0 115.0 98.0 114.0 L98.0 88.0 C98.0 87.0 99.0 87.0 100.0 87.0 C101.0 87.0 101.0 87.0 101.0 88.0 L101.0 114.0 C101.0 115.0 101.0 116.0 100.0 116.0 L100.0 116.0 Z"></path>
<path fill="#000000" fill-opacity="1.0"  filling="0" d="M100.0 116.0 C99.0 116.0 98.0 115.0 98.0 114.0 L98.0 88.0 C98.0 87.0 99.0 87.0 100.0 87.0 C101.0 87.0 101.0 87.0 101.0 88.0 L101.0 114.0 C101.0 115.0 101.0 116.0 100.0 116.0 L100.0 116.0 Z"></path>
<path fill="#000000" fill-opacity="1.0"  filling="0" d="M100.0 116.0 C99.0 116.0 98.0 115.0 98.0 114.0 L98.0 88.0 C98.0 87.0 99.0 87.0 100.0 87.0 C101.0 87.0 101.0 87.0 101.0 88.0 L101.0 114.0 C101.0 115.0 101.0 116.0 100.0 116.0 L100.0 116.0 Z"></path>
<path fill="#000000" fill-opacity="1.0"  filling="0" d="M100.0 116.0 C99.0 116.0 98.0 115.0 98.0 114.0 L98.0 88.0 C98.0 87.0 99.0 87.0 100.0 87.0 C101.0 87.0 101.0 87.0 101.0 88.0 L101.0 114.0 C101.0 115.0 101.0 116.0 100.0 116.0 L100.0 116.0 Z"></path>
<path fill="#000000" fill-opacity="1.0"  filling="0" d="M100.0 116.0 C99.0 116.0 98.0 115.0 98.0 114.0 L98.0 88.0 C98.0 87.0 99.0 87.0 100.0 87.0 C101.0 87.0 101.0 87.0 101.0 88.0 L101.0 114.0 C101.0 115.0 101.0 116.0 100.0 116.0 L100.0 116.0 Z"></path>
<path fill="#000000" fill-opacity="1.0"  filling="0" d="M100.0 116.0 C99.0 116.0 98.0 115.0 98.0 114.0 L98.0 88.0 C98.0 87.0 99.0 87.0 100.0 87.0 C101.0 87.0 101.0 87.0 101.0 88.0 L101.0 114.0 C101.0 115.0 101.0 116.0 100.0 116.0 L100.0 116.0 Z"></path>
<path fill="#000000" fill-opacity="1.0"  filling="0" d="M100.0 116.0 C99.0 116.0 98.0 115.0 98.0 114.0 L98.0 88.0 C98.0 87.0 99.0 87.0 100.0 87.0 C101.0 87.0 101.0 87.0 101.0 88.0 L101.0 114.0 C101.0 115.0 101.0 116.0 100.0 116.0 L100.0 116.0 Z"></path>
<path fill="#000000" fill-opacity="1.0"  filling="0" d="M100.0 116.0 C99.0 116.0 98.0 115.0 98.0 114.0 L98.0 88.0 C98.0 87.0 99.0 87.0 100.0 87.0 C101.0 87.0 101.0 87.0 101.0 88.0 L101.0 114.0 C101.0 115.0 101.0 116.0 100.0 116.0 L100.0 116.0 Z"></path>
<path fill="#000000" fill-opacity="1.0"  filling="0" d="M100.0 116.0 C99.0 116.0 98.0 115.0 98.0 114.0 L98.0 88.0 C98.0 87.0 99.0 87.0 100.0 87.0 C101.0 87.0 101.0 87.0 101.0 88.0 L101.0 114.0 C101.0 115.0 101.0 116.0 100.0 116.0 L100.0 116.0 Z"></path>
<path fill="#000000" fill-opacity="1.0"  filling="0" d="M100.0 116.0 C99.0 116.0 98.0 115.0 98.0 114.0 L98.0 88.0 C98.0 87.0 99.0 87.0 100.0 87.0 C101.0 87.0 101.0 87.0 101.0 88.0 L101.0 114.0 C101.0 115.0 101.0 116.0 100.0 116.0 L100.0 116.0 Z"></path>
<path fill="#000000" fill-opacity="1.0"  filling="0" d="M100.0 116.0 C99.0 116.0 98.0 115.0 98.0 114.0 L98.0 88.0 C98.0 87.0 99.0 87.0 100.0 87.0 C101.0 87.0 101.0 87.0 101.0 88.0 L101.0 114.0 C101.0 115.0 101.0 116.0 100.0 116.0 L100.0 116.0 Z"></path>
<path fill="#000000" fill-opacity="1.0"  filling="0" d="M100.0 116.0 C99.0 116.0 98.0 115.0 98.0 114.0 L98.0 88.0 C98.0 87.0 99.0 87.0 100.0 87.0 C101.0 87.0 101.0 87.0 101.0 88.0 L101.0 114.0 C101.0 115.0 101.0 116.0 100.0 116.0 L100.0 116.0 Z"></path>
<path fill="#000000" fill-opacity="1.0"  filling="0" d="M100.0 116.0 C99.0 116.0 98.0 115.0 98.0 114.0 L98.0 88.0 C98.0 87.0 99.0 87.0 100.0 87.0 C101.0 87.0 101.0 87.0 101.0 88.0 L101.0 114.0 C101.0 115.0 101.0 116.0 100.0 116.0 L100.0 116.0 Z"></path>
<path fill="#000000" fill-opacity="1.0"  filling="0" d="M100.0 116.0 C99.0 116.0 98.0 115.0 98.0 114.0 L98.0 88.0 C98.0 87.0 99.0 87.0 100.0 87.0 C101.0 87.0 101.0 87.0 101.0 88.0 L101.0 114.0 C101.0 115.0 101.0 116.0 100.0 116.0 L100.0 116.0 Z"></path>
<path fill="#000000" fill-opacity="1.0"  filling="0" d="M100.0 116.0 C99.0 116.0 98.0 115.0 98.0 114.0 L98.0 88.0 C98.0 87.0 99.0 87.0 100.0 87.0 C101.0 87.0 101.0 87.0 101.0 88.0 L101.0 114.0 C101.0 115.0 101.0 116.0 100.0 116.0 L100.0 116.0 Z"></path>
<path fill="#000000" fill-opacity="1.0"  filling="0" d="M100.0 116.0 C99.0 116.0 98.0 115.0 98.0 114.0 L98.0 88.0 C98.0 87.0 99.0 87.0 100.0 87.0 C101.0 87.0 101.0 87.0 101.0 88.0 L101.0 114.0 C101.0 115.0 101.0 116.0 100.0 116.0 L100.0 116.0 Z"></path>
<path fill="#000000" fill-opacity="1.0"  filling="0" d="M100.0 116.0 C99.0 116.0 98.0 115.0 98.0 114.0 L98.0 88.0 C98.0 87.0 99.0 87.0 100.0 87.0 C101.0 87.0 101.0 87.0 101.0 88.0 L101.0 114.0 C101.0 115.0 101.0 116.0 100.0 116.0 L100.0 116.0 Z"></path>
<path fill="#000000" fill-opacity="1.0"  filling="0" d="M100.0 116.0 C99.0 116.0 98.0 115.0 98.0 114.0 L98.0 88.0 C98.0 87.0 99.0 87.0 100.0 87.0 C101.0 87.0 101.0 87.0 101.0 88.0 L101.0 114.0 C101.0 115.0 101.0 116.0 100.0 116.0 L100.0 116.0 Z"></path>
<path fill="#000000" fill-opacity="1.0"  filling="0" d="M100.0 116.0 C99.0 116.0 98.0 115.0 98.0 114.0 L98.0 88.0 C98.0 87.0 99.0 87.0 100.0 87.0 C101.0 87.0 101.0 87.0 101.0 88.0 L101.0 114.0 C101.0 115.0 101.0 116.0 100.0 116.0 L100.0 116.0 Z"></path>
<path fill="#000000" fill-opacity="1.0"  filling="0" d="M100.0 116.0 C99.0 116.0 98.0 115.0 98.0 114.0 L98.0 88.0 C98.0 87.0 99.0 87.0 100.0 87.0 C101.0 87.0 101.0 87.0 101.0 88.0 L101.0 114.0 C101.0 115.0 101.0 116.0 100.0 116.0 L100.0 116.0 Z"></path>
<path fill="#000000" fill-opacity="1.0"  filling="0" d="M100.0 116.0 C99.0 116.0 98.0 115.0 98.0 114.0 L98.0 88.0 C98.0 87.0 99.0 87.0 100.0 87.0 C101.0 87.0 101.0 87.0 101.0 88.0 L101.0 114.0 C101.0 115.0 101.0 116.0 100.0 116.0 L100.0 116.0 Z"></path>
<path fill="#000000" fill-opacity="1.0"  filling="0" d="M100.0 116.0 C99.0 116.0 98.0 115.0 98.0 114.0 L98.0 88.0 C98.0 87.0 99.0 87.0 100.0 87.0 C101.0 87.0 101.0 87.0 101.0 88.0 L101.0 114.0 C101.0 115.0 101.0 116.0 100.0 116.0 L100.0 116.0 Z"></path>
<path fill="#000000" fill-opacity="1.0"  filling="0" d="M100.0 116.0 C99.0 116.0 98.0 115.0 98.0 114.0 L98.0 88.0 C98.0 87.0 99.0 87.0 100.0 87.0 C101.0 87.0 101.0 87.0 101.0 88.0 L101.0 114.0 C101.0 115.0 101.0 116.0 100.0 116.0 L100.0 116.0 Z"></path>
<path fill="none" fill-opacity="1.0" filling="0" d="M0.0 M.0 Z"></path></svg>