<svg xmlns="http://www.w3.org/2000/svg" viewBox="0.0 0.0 200.0 200.0" height="200px" width="200px"><path fill="#444444" fill-opacity="1.0"  filling="0" d="M150.0 170.0 A4.0 4.0 0.0 0 1 146.0 166.0 L146.0 164.0 A4.0 4.0 0.0 0 1 150.0 160.0 L157.0 160.0 A4.0 4.0 0.0 0 1 161.0 164.0 L161.0 166.0 A4.0 4.0 0.0 0 1 157.0 170.0 L150.0 170.0 L150.0 170.0 Z"></path>
<path fill="#444444" fill-opacity="1.0"  filling="0" d="M157.0 165.0 L157.0 165.0 C162.0 165.0 162.0 165.0 162.0 170.0 L162.0 170.0 C162.0 175.0 162.0 175.0 157.0 175.0 L157.0 175.0 C152.0 175.0 152.0 175.0 152.0 170.0 L152.0 170.0 C152.0 165.0 152.0 165.0 157.0 165.0 L157.0 165.0 Z"></path>
<path fill="#444444" fill-opacity="1.0"  filling="0" d="M43.0 170.0 A4.0 4.0 0.0 0 1 39.0 166.0 L39.0 164.0 A4.0 4.0 0.0 0 1 43.0 160.0 L50.0 160.0 A4.0 4.0 0.0 0 1 53.0 164.0 L53.0 166.0 A4.0 4.0 0.0 0 1 50.0 170.0 L43.0 170.0 L43.0 170.0 Z"></path>
<path fill="#444444" fill-opacity="1.0"  filling="0" d="M50.0 165.0 L50.0 165.0 C55.0 165.0 55.0 165.0 55.0 170.0 L55.0 170.0 C55.0 175.0 55.0 175.0 50.0 175.0 L50.0 175.0 C45.0 175.0 45.0 175.0 45.0 170.0 L45.0 170.0 C45.0 165.0 45.0 165.0 50.0 165.0 L50.0 165.0 Z"></path>
<path fill="#444444" fill-opacity="1.0"  filling="0" d="M74.0 52.0 L74.0 42.0 A13.0 13.0 0.0 0 1 86.0 29.0 L113.0 29.0 A13.0 13.0 0.0 0 1 126.0 42.0 L126.0 52.0"></path>
<path fill="#aa6644" fill-opacity="1.0"  filling="0" d="M29.0 52.0 L170.0 52.0 A9.0 9.0 0.0 0 1 179.0 61.0 L179.0 157.0 A9.0 9.0 0.0 0 1 170.0 165.0 L29.0 165.0 A9.0 9.0 0.0 0 1 20.0 157.0 L20.0 61.0 A9.0 9.0 0.0 0 1 29.0 52.0 L29.0 52.0 Z"></path>
<path fill="#774433" fill-opacity="1.0"  filling="0" d="M23.0 57.0 A9.0 9.0 0.0 0 0 20.0 61.0 L20.0 75.0 L23.0 75.0 A20.0 20.0 0.0 0 0 43.0 56.0 L43.0 52.0 L29.0 52.0 A9.0 9.0 0.0 0 0 23.0 57.0 L23.0 57.0 Z"></path>
<path fill="#774433" fill-opacity="1.0"  filling="0" d="M177.0 57.0 A9.0 9.0 0.0 0 1 179.0 61.0 L179.0 75.0 L176.0 75.0 A20.0 20.0 0.0 0 1 156.0 56.0 L156.0 52.0 L170.0 52.0 A9.0 9.0 0.0 0 1 177.0 57.0 L177.0 57.0 Z"></path>
<path fill="#774433" fill-opacity="1.0"  filling="0" d="M179.0 143.0 L179.0 157.0 A9.0 9.0 0.0 0 1 170.0 165.0 L156.0 165.0 L156.0 163.0 A20.0 20.0 0.0 0 1 179.0 143.0 L179.0 143.0 Z"></path>
<path fill="#774433" fill-opacity="1.0"  filling="0" d="M21.0 143.0 L21.0 157.0 A9.0 9.0 0.0 0 0 29.0 165.0 L43.0 165.0 L43.0 163.0 A20.0 20.0 0.0 0 0 21.0 143.0 L21.0 143.0 Z"></path>
<path fill="#ee9933" fill-opacity="1.0"  filling="0" d="M52.0 52.0 L61.0 52.0 L61.0 165.0 L52.0 165.0 L52.0 52.0 L52.0 52.0 Z"></path>
<path fill="#ee9933" fill-opacity="1.0"  filling="0" d="M139.0 52.0 L148.0 52.0 L148.0 165.0 L139.0 165.0 L139.0 52.0 L139.0 52.0 Z"></path>
<path fill="#88bbbb" fill-opacity="1.0"  filling="0" d="M100.0 104.0 A2.0 2.0 0.0 0 0 101.0 105.0 C104.0 108.0 117.0 107.0 124.0 106.0 A5.0 5.0 0.0 0 0 128.0 104.0 C129.0 99.0 129.0 93.0 112.0 92.0 C112.0 92.0 112.0 92.0 112.0 92.0 C112.0 92.0 112.0 92.0 112.0 92.0 C112.0 92.0 112.0 92.0 112.0 92.0 C104.0 93.0 100.0 99.0 100.0 104.0 L100.0 104.0 Z"></path>
<path fill="#000000" fill-opacity="1.0"  filling="0" d="M73.0 80.0 C73.0 80.0 73.0 80.0 73.0 80.0 C73.0 80.0 73.0 80.0 73.0 80.0 C73.0 80.0 73.0 80.0 73.0 80.0 C66.0 80.0 65.0 81.0 67.0 84.0 C68.0 85.0 69.0 85.0 70.0 87.0 C72.0 89.0 71.0 93.0 70.0 95.0 C69.0 97.0 71.0 96.0 75.0 96.0 C75.0 96.0 75.0 96.0 75.0 96.0 C75.0 96.0 75.0 96.0 75.0 96.0 C75.0 96.0 75.0 96.0 75.0 96.0 C79.0 96.0 83.0 93.0 86.0 91.0 C90.0 88.0 88.0 82.0 83.0 80.0 C83.0 80.0 83.0 80.0 83.0 80.0 C83.0 80.0 83.0 80.0 83.0 80.0 C83.0 80.0 83.0 80.0 83.0 80.0 C83.0 80.0 83.0 80.0 83.0 80.0 C83.0 80.0 83.0 80.0 83.0 80.0 C83.0 80.0 83.0 80.0 83.0 80.0 C83.0 80.0 83.0 80.0 83.0 80.0 C83.0 80.0 83.0 80.0 83.0 80.0 C83.0 80.0 83.0 80.0 83.0 80.0 C83.0 80.0 83.0 80.0 83.0 80.0 C83.0 80.0 83.0 80.0 83.0 80.0 C83.0 80.0 83.0 80.0 83.0 80.0 C83.0 80.0 83.0 80.0 83.0 80.0 C83.0 80.0 83.0 80.0 83.0 80.0 C83.0 80.0 83.0 80.0 83.0 80.0 C83.0 80.0 83.0 80.0 83.0 80.0 C83.0 80.0 83.0 80.0 83.0 80.0 C83.0 80.0 83.0 80.0 83.0 80.0 C83.0 80.0 83.0 80.0 83.0 80.0 C83.0 80.0 83.0 80.0 83.0 80.0 C83.0 80.0 83.0 80.0 83.0 80.0 C83.0 80.0 83.0 80.0 83.0 80.0 C83.0 80.0 83.0 80.0 83.0 80.0 C83.0 80.0 83.0 80.0 83.0 80.0 C83.0 80.0 83.0 80.0 83.0 80.0 C83.0 80.0 83.0 80.0 83.0 80.0 C83.0 80.0 83.0 80.0 83.0 80.0 C83.0 80.0 83.0 80.0 83.0 80.0 C83.0 80.0 83.0 80.0 83.0 80.0 C83.0 80.0 83.0 80.0 83.0 80.0 C83.0 80.0 83.0 80.0 83.0 80.0 C83.0 80.0 83.0 80.0 83.0 80.0 C83.0 80.0 83.0 80.0 83.0 80.0 C83.0 80.0 83.0 80.0 83.0 80.0 C83.0 80.0 83.0 80.0 83.0 80.0 C83.0 80.0 83.0 80.0 83.0 80.0 C83.0 80.0 83.0 80.0 83.0 80.0 C83.0 80.0 83.0 80.0 83.0 80.0 C83.0 80.0 83.0 80.0 83.0 80.0 C83.0 80.0 83.0 80.0 83.0 80.0 C83.0 80.0 83.0 80.0 83.0 80.0 C83.0 80.0 83.0 80.0 83.0 80.0 C83.0 80.0 83.0 80.0 83.0 80.0 C83.0 80.0 83.0 80.0 83.0 80.0 C83.0 80.0 83.0 80.0 83.0 80.0 C83.0 80.0 83.0 80.0 83.0 80.0 C83.0 80.0 83.0 80.0 83.0 80.0 C83.0 80.0 83.0 80.0 83.0 80.0 C83.0 80.0 83.0 80.0 83.0 80.0 C83.0 80.0 83.0 80.0 83.0 80.0 C83.0 80.0 83.0 80.0 83.0 80.0 C83.0 80.0 83.0 80.0 83.0 80.0 C83.0 80.0 83.0 80.0 83.0 80.0 C83.0 80.0 83.0 80.0 83.0 80.0 C83.0 80.0 83.0 80.0 83.0 80.0 C83.0 80.0 83.0 80.0 83.0 80.0 C83.0 80.0 83.0 80.0 83.0 80.0 C83.0 80.0 83.0 80.0 83.0 80.0 C83.0 80.0 83.0 80.0 83.0 80.0 C83.0 80.0 83.0 80.0 83.0 80.0 C83.0 80.0 83.0 80.0 83.0 80.0 C83.0 80.0 83.0 80.0 83.0 80.0 C83.0 80.0 83.0 80.0 83.0 80.0 C83.0 80.0 83.0 80.0 83.0 80.0 C83.0 80.0 83.0 80.0 83.0 80.0 C83.0 80.0 83.0 80.0 83.0 80.0 C83.0 80.0 83.0 80.0 83.0 80.0 C83.0 80.0 83.0 80.0 83.0 80.0 C83.0 80.0 83.0 80.0 83.0 80.0 C83.0 80.0 83.0 80.0 83.0 80.0 C83.0 80.0 83.0 80.0 83.0 80.0 C83.0 80.0 83.0 80.0 83.0 80.0 C83.0 80.0 83.0 80.0 83.0 80.0 C83.0 80.0 83.0 80.0 83.0 80.0 C83.0 80.0 83.0 80.0 83.0 80.0 C83.0 80.0 83.0 80.0 83.0 80.0 C83.0 80.0 83.0 80.0 83.0 80.0 C83.0 80.0 83.0 80.0 83.0 80.0 C83.0 80.0 83.0 80.0 83.0 80.0 C83.0 80.0 83.0 80.0 83.0 80.0 C83.0 80.0 83.0 80.0 83.0 80.0 C83.0 80.0 83.0 80.0 83.0 80.0 C83.0 80.0 83.0 80.0 83.0 80.0 C83.0 80.0 83.0 80.0 83.0 80.0 C83.0 80.0 83.0 80.0 83.0 80.0 C83.0 80.0 83.0 80.0 83.0 80.0 C83.0 80.0 83.0 80.0 83.0 80.0 C83.0 80.0 83.0 80.0 83.0 80.0 C83.0 80.0 83.0 80.0 83.0 80.0 C83.0 80.0 83.0 80.0 83.0 80.0 C83.0 80.0 83.0 80.0 83.0 80.0 C83.0 80.0 83.0 80.0 83.0 80.0 C83.0 80.0 83.0 80.0 83.0 80.0 C83.0 80.0 83.0 80.0 83.0 80.0 C83.0 80.0 83.0 80.0 83.0 80.0 C83.0 80.0 83.0 80.0 83.0 80.0 C83.0 80.0 83.0 80.0 83.0 80.0 C83.0 80.0 83.0 80.0 83.0 80.0 C83.0 80.0 83.0 80.0 83.0 80.0 C83.0 80.0 83.0 80.0 83.0 80.0 C83.0 80.0 83.0 80.0 83.0 80.0 C83.0 80.0 83.0 80.0 83.0 80.0 C83.0 80.0 83.0 80.0 83.0 80.0 C83.0 80.0 83.0 80.0 83.0 80.0 C83.0 80.0 83.0 80.0 83.0 80.0 C83.0 80.0 83.0 80.0 83.0 80.0 C83.0 80.0 83.0 80.0 83.0 80.0 C83.0 80.0 83.0 80.0 83.0 80.0 C83.0 80.0 83.0 80.0 83.0 80.0 C83.0 80.0 83.0 80.0 83.0 80.0 C83.0 80.0 83.0 80.0 83.0 80.0 C83.0 80.0 83.0 80.0 83.0 80.0 C83.0 80.0 83.0 80.0 83.0 80.0 C83.0 80.0 83.0 80.0 83.0 80.0 C83.0 80.0 83.0 80.0 83.0 80.0 C83.0 80.0 83.0 80.0 83.0 80.0 C83.0 80.0 83.0 80.0 83.0 80.0 C83.0 80.0 83.0 80.0 83.0 80.0 C83.0 80.0 83.0 80.0 83.0 80.0 C83.0 80.0 83.0 80.0 83.0 80.0 C83.0 80.0 83.0 80.0 83.0 80.0 C83.0 80.0 83.0 80.0 83.0 80.0 C83.0 80.0 83.0 80.0 83.0 80.0 C83.0 80.0 83.0 80.0 83.0 80.0 C83.0 80.0 83.0 80.0 83.0 80.0 C83.0 80.0 83.0 80.0 83.0 80.0 C83.0 80.0 83.0 80.0 83.0 80.0 C83.0 80.0 83.0 80.0 83.0 80.0 C83.0 80.0 83.0 80.0 83.0 80.0 C83.0 80.0 83.0 80.0 83.0 80.0 C83.0 80.0 83.0 80.0 83.0 80.0 C83.0 80.0 83.0 80.0 83.0 80.0 C83.0 80.0 83.0 80.0 83.0 80.0 C83.0 80.0 83.0 80.0 83.0 80.0 C83.0 80.0 83.0 80.0 83.0 80.0 C83.0 80.0 83.0 80.0 83.0 80.0 C83.0 80.0 83.0 80.0 83.0 80.0 C83.0 80.0 83.0 80.0 83.0 80.0 C83.0 80.0 83.0 80.0 83.0 80.0 C83.0 80.0 83.0 80.0 83.0 80.0 C83.0 80.0 83.0 80.0 83.0 80.0 C83.0 80.0 83.0 80.0 83.0 80.0 C83.0 80.0 83.0 80.0 83.0 80.0 C83.0 80.0 83.0 80.0 83.0 80.0 C83.0 80.0 83.0 80.0 83.0 80.0 C83.0 80.0 83.0 80.0 83.0 80.0 C83.0 80.0 83.0 80.0 83.0 80.0 C83.0 80.0 83.0 80.0 83.0 80.0 C83.0 80.0 83.0 80.0 83.0 80.0 C83.0 80.0 83.0 80.0 83.0 80.0 C83.0 80.0 83.0 80.0 83.0 80.0 C83.0 80.0 83.0 80.0 83.0 80.0 C83.0 80.0 83.0 80.0 83.0 80.0 C83.0 80.0 83.0 80.0 83.0 80.0 C83.0 80.0 83.0 80.0 83.0 80.0 C83.0 80.0 83.0 80.0 83.0 80.0 C83.0 80.0 83.0 80.0 83.0 80.0 C83.0 80.0 83.0 80.0 83.0 80.0 C83.0 80.0 83.0 80.0 83.0 80.0 C83.0 80.0 83.0 80.0 83.0 80.0 C83.0 80.0 83.0 80.0 83.0 80.0 C83.0 80.0 83.0 80.0 83.0 80.0 C83.0 80.0 83.0 80.0 83.0 80.0 C83.0 80.0 83.0 80.0 83.0 80.0 C83.0 80.0 83.0 80.0 83.0 80.0 C83.0 80.0 83.0 80.0 83.0 80.0 C83.0 80.0 83.0 80.0 83.0 80.0 C83.0 80.0 83.0 80.0 83.0 80.0 C83.0 80.0 83.0 80.0 83.0 80.0 C83.0 80.0 83.0 80.0 83.0 80.0 C83.0 80.0 83.0 80.0 83.0 80.0 C83.0 80.0 83.0 80.0 83.0 80.0 C83.0 80.0 83.0 80.0 83.0 80.0 C83.0 80.0 83.0 80.0 83.0 80.0 C83.0 80.0 83.0 80.0 83.0 80.0 C83.0 80.0 83.0 80.0 83.0 80.0 C83.0 80.0 83.0 80.0 83.0 80.0 C83.0 80.0 83.0 80.0 83.0 80.0 C83.0 80.0 83.0 80.0 83.0 80.0 C83.0 80.0 83.0 80.0 83.0 80.0 C83.0 80.0 83.0 80.0 83.0 80.0 C83.0 80.0 83.0 80.0 83.0 80.0 C83.0 80.0 83.0 80.0 83.0 80.0 C83.0 80.0 83.0 80.0 83.0 80.0 C83.0 80.0 83.0 80.0 83.0 80.0 C83.0 80.0 83.0 80.0 83.0 80.0 C83.0 80.0 83.0 80.0 83.0 80.0 C83.0 80.0 83.0 80.0 83.0 80.0 C83.0 80.0 83.0 80.0 83.0 80.0 C83.0 80.0 83.0 80.0 83.0 80.0 C83.0 80.0 83.0 80.0 83.0 80.0 C83.0 80.0 83.0 80.0 83.0 80.0 C83.0 80.0 83.0 80.0 83.0 80.0 C83.0 80.0 83.0 80.0 83.0 80.0 C83.0 80.0 83.0 80.0 83.0 80.0 C83.0 80.0 83.0 80.0 83.0 80.0 C83.0 80.0 83.0 80.0 83.0 80.0 C83.0 80.0 83.0 80.0 83.0 80.0 C83.0 80.0 83.0 80.0 83.0 80.0 C83.0 80.0 83.0 80.0 83.0 80.0 C83.0 80.0 83.0 80.0 83.0 80.0 C83.0 80.0 83.0 80.0 83.0 80.0 C83.0 80.0 83.0 80.0 83.0 80.0 C83.0 80.0 83.0 80.0 83.0 80.0 C83.0 80.0 83.0 80.0 83.0 80.0 C83.0 80.0 83.0 80.0 83.0 80.0 C83.0 80.0 83.0 80.0 83.0 80.0 C83.0 80.0 83.0 80.0 83.0 80.0 C83.0 80.0 83.0 80.0 83.0 80.0 C83.0 80.0 83.0 80.0 83.0 80.0 C83.0 80.0 83.0 80.0 83.0 80.0 C83.0 80.0 83.0 80.0 83.0 80.0 C83.0 80.0 83.0 80.0 83.0 80.0 C83.0 80.0 83.0 80.0 83.0 80.0 C83.0 80.0 83.0 80.0 83.0 80.0 C83.0 80.0 83.0 80.0 83.0 80.0 C83.0 80.0 83.0 80.0 83.0 80.0 C83.0 80.0 83.0 80.0 83.0 80.0 C83.0 80.0 83.0 80.0 83.0 80.0 C83.0 80.0 83.0 80.0 83.0 80.0 C83.0 80.0 83.0 80.0 83.0 80.0 C83.0 80.0 83.0 80.0 83.0 80.0 C83.0 80.0 83.0 80.0 83.0 80.0 C83.0 80.0 83.0 80.0 83.0 80.0 C83.0 80.0 83.0 80.0 83.0 80.0 C83.0 80.0 83.0 80.0 83.0 80.0 C83.0 80.0 83.0 80.0 83.0 80.0 C83.0 80.0 83.0 80.0 83.0 80.0 C83.0 80.0 83.0 80.0 83.0 80.0 C83.0 80.0 83.0 80.0 83.0 80.0 C83.0 80.0 83.0 80.0 83.0 80.0 C83.0 80.0 83.0 80.0 83.0 80.0 C83.0 80.0 83.0 80.0 83.0 80.0 C83.0 80.0 83.0 80.0 83.0 80.0 C83.0 80.0 83.0 80.0 83.0 80.0 C83.0 80.0 83.0 80.0 83.0 80.0 C83.0 80.0 83.0 80.0 83.0 80.0 C83.0 80.0 83.0 80.0 83.0 80.0 C83.0 80.0 83.0 80.0 83.0 80.0 C83.0 80.0 83.0 80.0 83.0 80.0 C83.0 80.0 83.0 80.0 83.0 80.0 C83.0 80.0 83.0 80.0 83.0 80.0 C83.0 80.0 83.0 80.0 83.0 80.0 C83.0 80.0 83.0 80.0 83.0 80.0 C83.0 80.0 83.0 80.0 83.0 80.0 C83.0 80.0 83.0 80.0 83.0 80.0 C83.0 80.0 83.0 80.0 83.0 80.0 C83.0 80.0 83.0 80.0 83.0 80.0 C83.0 80.0 83.0 80.0 83.0 80.0 C83.0 80.0 83.0 80.0 83.0 80.0 C83.0 80.0 83.0 80.0 83.0 80.0 C83.0 80.0 83.0 80.0 83.0 80.0 C83.0 80.0 83.0 80.0 83.0 80.0 C83.0 80.0 83.0 80.0 83.0 80.0"></path></svg>