<svg xmlns="http://www.w3.org/2000/svg" viewBox="0.0 0.0 200.0 200.0" height="200px" width="200px"><path fill="#eeeeee" fill-opacity="1.0"  filling="0" d="M199.0 100.0 C199.0 126.0 190.0 149.0 174.0 167.0 C172.0 169.0 170.0 172.0 168.0 174.0 C164.0 177.0 160.0 180.0 156.0 183.0 C154.0 184.0 153.0 185.0 151.0 186.0 C149.0 187.0 147.0 188.0 145.0 189.0 C142.0 191.0 139.0 192.0 136.0 193.0 C134.0 194.0 131.0 195.0 129.0 196.0 C126.0 197.0 123.0 197.0 120.0 198.0 C118.0 198.0 115.0 199.0 112.0 199.0 C109.0 199.0 107.0 199.0 104.0 199.0 C102.0 199.0 101.0 199.0 100.0 199.0 C98.0 199.0 96.0 199.0 94.0 199.0 C92.0 199.0 90.0 199.0 88.0 199.0 C84.0 199.0 80.0 198.0 77.0 197.0 C74.0 197.0 71.0 196.0 68.0 195.0 C66.0 194.0 64.0 193.0 61.0 192.0 C59.0 191.0 57.0 190.0 55.0 189.0 C52.0 188.0 50.0 186.0 47.0 185.0 C44.0 183.0 41.0 181.0 38.0 179.0 C36.0 177.0 34.0 175.0 32.0 174.0 C30.0 172.0 28.0 169.0 26.0 167.0 C10.0 149.0 0.0 126.0 0.0 100.0 C0.0 74.0 10.0 51.0 26.0 33.0 C28.0 31.0 30.0 28.0 32.0 26.0 C34.0 25.0 36.0 23.0 38.0 21.0 C41.0 19.0 44.0 17.0 47.0 15.0 C50.0 14.0 52.0 12.0 55.0 11.0 C57.0 10.0 59.0 9.0 61.0 8.0 C64.0 7.0 66.0 6.0 68.0 5.0 C71.0 4.0 74.0 3.0 77.0 3.0 C80.0 2.0 84.0 1.0 88.0 1.0 C90.0 0.0 92.0 0.0 94.0 0.0 C96.0 0.0 98.0 0.0 100.0 0.0 C101.0 0.0 102.0 0.0 103.0 0.0 C105.0 0.0 108.0 0.0 110.0 1.0 C112.0 1.0 115.0 1.0 117.0 2.0 C119.0 2.0 121.0 2.0 123.0 3.0 C125.0 3.0 127.0 4.0 129.0 4.0 C131.0 5.0 133.0 6.0 135.0 6.0 C137.0 7.0 139.0 8.0 141.0 9.0 C143.0 10.0 145.0 11.0 147.0 12.0 C150.0 13.0 152.0 14.0 154.0 16.0 C157.0 18.0 160.0 20.0 163.0 22.0 C165.0 24.0 167.0 26.0 169.0 28.0 C172.0 30.0 174.0 32.0 176.0 34.0 C190.0 51.0 199.0 74.0 199.0 100.0 L199.0 100.0 Z"></path>
<path fill="#eeeedd" fill-opacity="1.0"  filling="0" d="M199.0 32.0 L199.0 161.0 L199.0 168.0 L199.0 186.0 C199.0 190.0 199.0 193.0 196.0 196.0 C193.0 199.0 190.0 199.0 186.0 199.0 L168.0 199.0 L161.0 199.0 L104.0 199.0 C102.0 199.0 101.0 199.0 100.0 199.0 C98.0 199.0 96.0 199.0 94.0 199.0 C92.0 199.0 90.0 199.0 88.0 199.0 C84.0 199.0 80.0 198.0 77.0 197.0 C74.0 197.0 71.0 196.0 68.0 195.0 C66.0 194.0 64.0 193.0 61.0 192.0 C59.0 191.0 57.0 190.0 55.0 189.0 C52.0 188.0 50.0 186.0 47.0 185.0 C44.0 183.0 41.0 181.0 38.0 179.0 C36.0 177.0 34.0 175.0 32.0 174.0 C30.0 172.0 28.0 169.0 26.0 167.0 C10.0 149.0 0.0 126.0 0.0 100.0 C0.0 74.0 10.0 51.0 26.0 33.0 C28.0 31.0 30.0 28.0 32.0 26.0 C34.0 25.0 36.0 23.0 38.0 21.0 C41.0 19.0 44.0 17.0 47.0 15.0 C50.0 14.0 52.0 12.0 55.0 11.0 C57.0 10.0 59.0 9.0 61.0 8.0 C64.0 7.0 66.0 6.0 68.0 5.0 C71.0 4.0 74.0 3.0 77.0 3.0 C80.0 2.0 84.0 1.0 88.0 1.0 C90.0 0.0 92.0 0.0 94.0 0.0 C96.0 0.0 98.0 0.0 100.0 0.0 C101.0 0.0 102.0 0.0 103.0 0.0 L168.0 0.0 L186.0 0.0 C190.0 0.0 193.0 1.0 196.0 4.0 C199.0 7.0 199.0 10.0 199.0 14.0 L199.0 32.0 L199.0 32.0 L199.0 32.0 Z"></path>
<path fill="#000000" fill-opacity="1.0"  filling="0" d="M199.0 32.0 L199.0 39.0 L199.0 39.0 L199.0 39.0 L199.0 39.0 L199.0 39.0 L199.0 39.0 L199.0 39.0 L199.0 39.0 L199.0 39.0 L199.0 39.0 L199.0 39.0 L199.0 39.0 L199.0 39.0 L199.0 39.0 L199.0 39.0 L199.0 39.0 L199.0 39.0 L199.0 39.0 L199.0 39.0 L199.0 39.0 L199.0 39.0 L199.0 39.0 L199.0 39.0 L199.0 39.0 L199.0 39.0 L199.0 39.0 L199.0 39.0 L199.0 39.0 L199.0 39.0 L199.0 39.0 L199.0 39.0 L199.0 39.0 L199.0 39.0 L199.0 39.0 L199.0 39.0 L199.0 39.0 L199.0 39.0 L199.0 39.0 L199.0 39.0 L199.0 39.0 L199.0 39.0 L199.0 39.0 L199.0 39.0 L199.0 39.0 L199.0 39.0 L199.0 39.0 L199.0 39.0 L199.0 39.0 L199.0 39.0 L199.0 39.0 L199.0 39.0 L199.0 39.0 L199.0 39.0 L199.0 39.0 L199.0 39.0 L199.0 39.0 L199.0 39.0 L199.0 39.0 L199.0 39.0 L199.0 39.0 L199.0 39.0 L199.0 39.0 L199.0 39.0 L199.0 39.0 L199.0 39.0 L199.0 39.0 L199.0 39.0 L199.0 39.0 L199.0 39.0 L199.0 39.0 L199.0 39.0 L199.0 39.0 L199.0 39.0 L199.0 39.0 L199.0 39.0 L199.0 39.0 L199.0 39.0 L199.0 39.0 L199.0 39.0 L199.0 39.0 L199.0 39.0 L199.0 39.0 L199.0 39.0 L199.0 39.0 L199.0 39.0 L199.0 39.0 L199.0 39.0 L199.0 39.0 L199.0 39.0 L199.0 39.0 L199.0 39.0 L199.0 39.0 L199.0 39.0 L199.0 39.0 L199.0 39.0 L199.0 39.0 L199.0 39.0 L199.0 39.0 L199.0 39.0 L199.0 39.0 L199.0 39.0 L199.0 39.0 L199.0 39.0 L199.0 39.0 L199.0 39.0 L199.0 39.0 L199.0 39.0 L199.0 39.0 L199.0 39.0 L199.0 39.0 L199.0 39.0 L199.0 39.0 L199.0 39.0 L199.0 39.0 L199.0 39.0 L199.0 39.0 L199.0 39.0 L199.0 39.0 L199.0 39.0 L199.0 39.0 L199.0 39.0 L199.0 39.0 L199.0 39.0 L199.0 39.0 L199.0 39.0 L199.0 39.0 L199.0 39.0 L199.0 39.0 L199.0 39.0 L199.0 39.0 L199.0 39.0 L199.0 39.0 L199.0 39.0 L199.0 39.0 L199.0 39.0 L199.0 39.0 L199.0 39.0 L199.0 39.0 L199.0 39.0 L199.0 39.0 L199.0 39.0 L199.0 39.0 L199.0 39.0 L199.0 39.0 L199.0 39.0 L199.0 39.0 L199.0 39.0 L199.0 39.0 L199.0 39.0 L199.0 39.0 L199.0 39.0 L199.0 39.0 L199.0 39.0 L199.0 39.0 L199.0 39.0 L199.0 39.0 L199.0 39.0 L199.0 39.0 L199.0 39.0 L199.0 39.0 L199.0 39.0 L199.0 39.0 L199.0 39.0 L199.0 39.0 L199.0 39.0 L199.0 39.0 L199.0 39.0 L199.0 39.0 L199.0 39.0 L199.0 39.0 L199.0 39.0 L199.0 39.0 L199.0 39.0 L199.0 39.0 L199.0 39.0 L199.0 39.0 L199.0 39.0 L199.0 39.0 L199.0 39.0 L199.0 39.0 L199.0 39.0 L199.0 39.0 L199.0 39.0 L199.0 39.0 L199.0 39.0 L199.0 39.0 L199.0 39.0 L199.0 39.0 L199.0 39.0 L199.0 39.0 L199.0 39.0 L199.0 39.0 L199.0 39.0 L199.0 39.0 L199.0 39.0 L199.0 39.0 L199.0 39.0 L199.0 39.0 L199.0 39.0 L199.0 39.0 L199.0 39.0 L199.0 39.0 L199.0 39.0 L199.0 39.0 L199.0 39.0 L199.0 39.0 L199.0 39.0 L199.0 39.0 L199.0 39.0 L199.0 39.0 L199.0 39.0 L199.0 39.0 L199.0 39.0 L199.0 39.0 L199.0 39.0 L199.0 39.0 L199.0 39.0 L199.0 39.0 L199.0 39.0 L199.0 39.0 L199.0 39.0 L199.0 39.0 L199.0 39.0 L199.0 39.0 L199.0 39.0 L199.0 39.0 L199.0 39.0 L199.0 39.0 L199.0 39.0 L199.0 39.0 L199.0 39.0 L199.0 39.0 L199.0 39.0 L199.0 39.0 L199.0 39.0 L199.0 39.0 L199.0 39.0 L199.0 39.0 L199.0 39.0 L199.0 39.0 L199.0 39.0 L199.0 39.0 L199.0 39.0 L199.0 39.0 L199.0 39.0 L199.0 39.0 L199.0 39.0 L199.0 39.0 L199.0 39.0 L199.0 39.0 L199.0 39.0 L199.0 39.0 L199.0 39.0 L199.0 39.0 L199.0 39.0 L199.0 39.0 L199.0 39.0 L199.0 39.0 L199.0 39.0 L199.0 39.0 L199.0 39.0 L199.0 39.0 L199.0 39.0 L199.0 39.0 L199.0 39.0 L199.0 39.0 L199.0 39.0 L199.0 39.0 L199.0 39.0 L199.0 39.0 L199.0 39.0 L199.0 39.0 L199.0 39.0 L199.0 39.0 L199.0 39.0 L199.0 39.0 L199.0 39.0 L199.0 39.0 L199.0 39.0 L199.0 39.0 L199.0 39.0 L199.0 39.0 L199.0 39.0 L199.0 39.0 L199.0 39.0 L199.0 39.0 L199.0 39.0 L199.0 39.0 L199.0 39.0 L199.0 39.0 L199.0 39.0 L199.0 39.0 L199.0 39.0 L199.0 39.0 L199.0 39.0 L199.0 39.0 L199.0 39.0 L199.0 39.0 L199.0 39.0 L199.0 39.0 L199.0 39.0 L199.0 39.0 L199.0 39.0 L199.0 39.0 L199.0 39.0 L199.0 39.0 L199.0 39.0 L199.0 39.0 L199.0 39.0 L199.0 39.0 L199.0 39.0 L199.0 39.0 L199.0 39.0 L199.0 39.0 L199.0 39.0 L199.0 39.0 L199.0 39.0 L199.0 39.0 L199.0 39.0 L199.0 39.0 L199.0 39.0 L199.0 39.0 L199.0 39.0 L199.0 39.0 L199.0 39.0 L199.0 39.0 L199.0 39.0 L199.0 39.0 L199.0 39.0 L199.0 39.0 L199.0 39.0 L199.0 39.0 L199.0 39.0 L199.0 39.0 L199.0 39.0 L199.0 39.0 L199.0 39.0 L199.0 39.0 L199.0 39.0 L199.0 39.0 L199.0 39.0 L199.0 39.0 L199.0 39.0 L199.0 39.0 L199.0 39.0 L199.0 39.0 L199.0 39.0 L199.0 39.0 L199.0 39.0 L199.0 39.0 L199.0 39.0 L199.0 39.0 L199.0 39.0 L199.0 39.0 L199.0 39.0 L199.0 39.0 L199.0 39.0 L199.0 39.0 L199.0 39.0 L199.0 39.0 L199.0 39.0 L199.0 39.0 L199.0 39.0 L199.0 39.0 L199.0 39.0 L199.0 39.0 L199.0 39.0 L199.0 39.0 L199.0 39.0 L199.0 39.0 L199.0 39.0 L199.0 39.0 L199.0 39.0 L199.0 39.0 L199.0 39.0 L199.0 39.0 L199.0 39.0 L199.0 39.0 L199.0 39.0 L199.0 39.0 L199.0 39.0 L199.0 39.0 L199.0 39.0 L199.0 39.0 L199.0 39.0 L199.0 39.0 L199.0 39.0 L199.0 39.0 L199.0 39.0 L199.0 39.0 L199.0 39.0 L199.0 39.0 L199.0 39.0 L199.0 39.0 L199.0 39.0 L199.0 39.0 L199.0 39.0 L199.0 39.0 L199.0 39.0 L199.0 39.0 L199.0 39.0 L199.0 39.0 L199.0 39.0 L199.0 39.0 L199.0 39.0 L199.0 39.0 L199.0 39.0 L199.0 39.0 L199.0 39.0 L199.0 39.0 L199.0 39.0 L199.0 39.0 L199.0 39.0 L199.0 39.0 L199.0 39.0 L199.0 39.0 L199.0 39.0 L199.0 39.0 L199.0 39.0 L199.0 39.0 L199.0 39.0 L199.0 39.0 L199.0 39.0 L199.0 39.0 L199.0 39.0 L199.0 39.0 L199.0 39.0 L199.0 39.0 L199.0 39.0 L199.0 39.0 L199.0 39.0 L199.0 39.0 L199.0 39.0 L199.0 39.0 L199.0 39.0 L199.0 39.0 L199.0 39.0 L199.0 39.0 L199.0 39.0 L199.0 39.0 L199.0 39.0 L199.0 39.0 L199.0 39.0 L199.0 39.0 L199.0 39.0 L199.0 39.0 L199.0 39.0 L199.0 39.0 L199.0 39.0 L199.0 39.0 L199.0 39.0 L199.0 39.0 L199.0 39.0 L199.0 39.0 L199.0 39.0 L199.0 39.0 L199.0 39.0 L199.0 39.0 L199.0 39.0 L199.0 39.0 L199.0 39.0 L199.0 39.0 L199.0 39.0 L199.0 39.0 L199.0 39.0 L199.0 39.0 L199.0 39.0 L199.0 39.0 L199.0 39.0 L199.0 39.0 L199.0 39.0 L199.0 39.0 L199.0 39.0 L199.0 39.0 L199.0 39.0 L199.0 39.0 L199.0 39.0 L199.0 39.0 L199.0 39.0 L199.0 39.0 L199.0 39.0 L199.0 39.0 L199.0 39.0 L199.0 39.0 L199.0 39.0 L199.0 39.0 L199.0 39.0 L199.0 39.0 L199.0 39.0 L199.0 39.0 L199.0 39.0 L199.0 39.0 L199.0 39.0 L199.0 39.0 L199.0 39.0 L199.0 39.0 L199.0 39.0 L199.0 39.0 L199.0 39.0 L199.0 39.0 L199.0 39.0 L199.0 39.0 L199.0 39.0 L199.0 39.0 L199.0 39.0 L199.0 39.0 L199.0 39.0 L199.0 39.0 L199.0 39.0 L199.0 39.0 L199.0 39.0 L199.0 39.0 L199.0 39.0 L199.0 39.0 L199.0 39.0 L199.0 39.0 L199.0 39.0 L199.0 39.0 L199.0 39.0 L199.0 39.0 L199.0 39.0 L199.0 39.0 L199.0 39.0 L199.0 39.0 L199.0 39.0 L199.0 39.0 L199.0 39.0 L199.0 39.0 L199.0 39.0 L199.0 39.0 L199.0 39.0 L199.0 39.0 L199.0 39.0 L199.0 39.0 L199.0 39.0 L199.0 39.0 L199.0 39.0 L199.0 39.0 L199.0 39.0 L199.0 39.0 L199.0 39.0 L199.0 39.0 L199.0 39.0 L199.0 39.0 L199.0 39.0 L199.0 39.0 L199.0 39.0 L199.0 39.0 L199.0 39.0 L199.0 39.0 L199.0 39.0 L199.0 39.0 L199.0 39.0 L199.0 39.0 L199.0 39.0 L199.0 39.0 L199.0 39.0 L199.0 39.0 L199.0 39.0 L199.0 39.0 L199.0 39.0 L199.0 39.0 L199.0 39.0 L199.0 39.0 L199.0 39.0 L199.0 39.0 L199.0 39.0 L199.0 39.0 L199.0 39.0 L199.0 39.0 L199.0 39.0 L199.0 39.0 L199.0 39.0 L199.0 39.0 L199.0 39.0 L199.0 39.0 L199.0 39.0 L199.0 39.0 L199.0 39.0 L199.0 39.0 L199.0 39.0 L199.0 39.0 L199.0 39.0 L199.0 39.0 L199.0 39.0 L199.0 39.0 L199.0 39.0 L199.0 39.0 L199.0 39.0 L199.0 39.0 L199.0 39.0 L199.0 39.0 L199.0 39.0"></path></svg>