<svg xmlns="http://www.w3.org/2000/svg" viewBox="0.0 0.0 200.0 200.0" height="200px" width="200px"><path fill="#ffffff" fill-opacity="1.0"  filling="0" d="M199.0 100.0 C199.0 126.0 190.0 149.0 174.0 167.0 C172.0 169.0 170.0 172.0 168.0 174.0 C164.0 177.0 160.0 180.0 156.0 183.0 C154.0 184.0 152.0 186.0 149.0 187.0 C144.0 190.0 139.0 192.0 134.0 194.0 C131.0 195.0 128.0 196.0 125.0 197.0 C117.0 199.0 109.0 199.0 100.0 199.0 C91.0 199.0 83.0 199.0 75.0 197.0 C72.0 196.0 69.0 195.0 66.0 194.0 C61.0 192.0 56.0 190.0 51.0 187.0 C48.0 186.0 46.0 184.0 44.0 183.0 C40.0 180.0 36.0 177.0 32.0 174.0 C30.0 172.0 28.0 169.0 26.0 167.0 C10.0 149.0 0.0 126.0 0.0 100.0 C0.0 74.0 10.0 51.0 26.0 33.0 C28.0 31.0 30.0 28.0 32.0 26.0 C36.0 23.0 40.0 20.0 44.0 17.0 C46.0 16.0 48.0 14.0 51.0 13.0 C56.0 10.0 61.0 8.0 66.0 6.0 C69.0 5.0 72.0 4.0 75.0 3.0 C83.0 1.0 91.0 0.0 100.0 0.0 C109.0 0.0 117.0 1.0 125.0 3.0 C128.0 4.0 131.0 5.0 134.0 6.0 C139.0 8.0 144.0 10.0 149.0 13.0 C152.0 14.0 154.0 16.0 156.0 17.0 C160.0 20.0 164.0 23.0 168.0 26.0 C170.0 28.0 172.0 31.0 174.0 33.0 C190.0 51.0 199.0 74.0 199.0 100.0 L199.0 100.0 Z"></path>
<path fill="#ffffff" fill-opacity="1.0"  filling="0" d="M174.0 167.0 C172.0 169.0 170.0 172.0 168.0 174.0 C164.0 177.0 160.0 180.0 156.0 183.0 C154.0 184.0 152.0 186.0 149.0 187.0 C144.0 190.0 139.0 192.0 134.0 194.0 C131.0 195.0 128.0 196.0 125.0 197.0 C117.0 199.0 109.0 199.0 100.0 199.0 C91.0 199.0 83.0 199.0 75.0 197.0 C72.0 196.0 69.0 195.0 66.0 194.0 C61.0 192.0 56.0 190.0 51.0 187.0 C48.0 186.0 46.0 184.0 44.0 183.0 C40.0 180.0 36.0 177.0 32.0 174.0 C30.0 172.0 28.0 169.0 26.0 167.0 L174.0 167.0 L174.0 167.0 L174.0 167.0 Z"></path>
<path fill="#000000" fill-opacity="1.0"  filling="0" d="M199.0 100.0 C199.0 126.0 190.0 149.0 174.0 167.0 L26.0 167.0 C10.0 149.0 0.0 126.0 0.0 100.0 C0.0 74.0 10.0 51.0 26.0 33.0 L174.0 33.0 C190.0 51.0 199.0 74.0 199.0 100.0 L199.0 100.0 Z"></path>
<path fill="#000000" fill-opacity="1.0"  filling="0" d="M199.0 33.0 L199.0 33.0 L199.0 100.0 L199.0 100.0 L199.0 33.0 L199.0 33.0 Z"></path>
<path fill="#000000" fill-opacity="1.0"  filling="0" d="M199.0 100.0 C199.0 126.0 190.0 149.0 174.0 167.0 L26.0 167.0 C10.0 149.0 0.0 126.0 0.0 100.0 C0.0 74.0 10.0 51.0 26.0 33.0 L174.0 33.0 C190.0 51.0 199.0 74.0 199.0 100.0 L199.0 100.0 Z"></path>
<path fill="#000000" fill-opacity="1.0"  filling="0" d="M199.0 33.0 L199.0 33.0 L199.0 100.0 L199.0 100.0 L199.0 33.0 L199.0 33.0 Z"></path>
<path fill="#000000" fill-opacity="1.0"  filling="0" d="M199.0 100.0 C199.0 126.0 190.0 149.0 174.0 167.0 L26.0 167.0 C10.0 149.0 0.0 126.0 0.0 100.0 C0.0 74.0 10.0 51.0 26.0 33.0 L174.0 33.0 C190.0 51.0 199.0 74.0 199.0 100.0 L199.0 100.0 Z"></path>
<path fill="#000000" fill-opacity="1.0"  filling="0" d="M199.0 33.0 L199.0 33.0 L199.0 100.0 L199.0 100.0 L199.0 33.0 L199.0 33.0 Z"></path>
<path fill="#000000" fill-opacity="1.0"  filling="0" d="M199.0 33.0 L199.0 33.0 L199.0 100.0 L199.0 100.0 L199.0 33.0 L199.0 33.0 Z"></path>
<path fill="#000000" fill-opacity="1.0"  filling="0" d="M199.0 39.0 L199.0 100.0 L199.0 100.0 L199.0 39.0 L199.0 39.0 L199.0 39.0 Z"></path>
<path fill="#000000" fill-opacity="1.0"  filling="0" d="M199.0 100.0 C199.0 126.0 190.0 149.0 174.0 167.0 L26.0 167.0 C10.0 149.0 0.0 126.0 0.0 100.0 C0.0 74.0 10.0 51.0 26.0 33.0 L174.0 33.0 C190.0 51.0 199.0 74.0 199.0 100.0 L199.0 100.0 Z"></path>
<path fill="#000000" fill-opacity="1.0"  filling="0" d="M199.0 100.0 C199.0 126.0 190.0 149.0 174.0 167.0 L26.0 167.0 C10.0 149.0 0.0 126.0 0.0 100.0 C0.0 74.0 10.0 51.0 26.0 33.0 L174.0 33.0 C190.0 51.0 199.0 74.0 199.0 100.0 L199.0 100.0 Z"></path>
<path fill="#000000" fill-opacity="1.0"  filling="0" d="M0.0 39.0 L0.0 100.0 L0.0 100.0 L0.0 39.0 L0.0 39.0 L0.0 39.0 Z"></path>
<path fill="#000000" fill-opacity="1.0"  filling="0" d="M199.0 100.0 C199.0 126.0 190.0 149.0 174.0 167.0 L26.0 167.0 C10.0 149.0 0.0 126.0 0.0 100.0 C0.0 74.0 10.0 51.0 26.0 33.0 L174.0 33.0 C190.0 51.0 199.0 74.0 199.0 100.0 L199.0 100.0 Z"></path>
<path fill="#000000" fill-opacity="1.0"  filling="0" d="M199.0 100.0 C199.0 126.0 190.0 149.0 174.0 167.0 L26.0 167.0 C10.0 149.0 0.0 126.0 0.0 100.0 C0.0 74.0 10.0 51.0 26.0 33.0 L174.0 33.0 C190.0 51.0 199.0 74.0 199.0 100.0 L199.0 100.0 Z"></path>
<path fill="#000000" fill-opacity="1.0"  filling="0" d="M0.0 39.0 L0.0 39.0 L0.0 100.0 L0.0 100.0 L0.0 39.0 L0.0 39.0 Z"></path>
<path fill="#000000" fill-opacity="1.0"  filling="0" d="M0.0 100.0 C0.0 74.0 10.0 51.0 26.0 33.0 L174.0 33.0 C190.0 51.0 199.0 74.0 199.0 100.0 C199.0 126.0 190.0 149.0 174.0 167.0 L26.0 167.0 C10.0 149.0 0.0 126.0 0.0 100.0 L0.0 100.0 Z"></path>
<path fill="#000000" fill-opacity="1.0"  filling="0" d="M0.0 100.0 C0.0 74.0 10.0 51.0 26.0 33.0 L174.0 33.0 C190.0 51.0 199.0 74.0 199.0 100.0 C199.0 126.0 190.0 149.0 174.0 167.0 L26.0 167.0 C10.0 149.0 0.0 126.0 0.0 100.0 L0.0 100.0 Z"></path>
<path fill="#000000" fill-opacity="1.0"  filling="0" d="M0.0 39.0 L0.0 39.0 L0.0 100.0 L0.0 100.0 L0.0 39.0 L0.0 39.0 Z"></path>
<path fill="#000000" fill-opacity="1.0"  filling="0" d="M0.0 100.0 C0.0 74.0 10.0 51.0 26.0 33.0 L174.0 33.0 C190.0 51.0 199.0 74.0 199.0 100.0 C199.0 126.0 190.0 149.0 174.0 167.0 L26.0 167.0 C10.0 149.0 0.0 126.0 0.0 100.0 L0.0 100.0 Z"></path>
<path fill="#000000" fill-opacity="1.0"  filling="0" d="M0.0 100.0 C0.0 74.0 10.0 51.0 26.0 33.0 L174.0 33.0 C190.0 51.0 199.0 74.0 199.0 100.0 C199.0 126.0 190.0 149.0 174.0 167.0 L26.0 167.0 C10.0 149.0 0.0 126.0 0.0 100.0 L0.0 100.0 Z"></path>
<path fill="#000000" fill-opacity="1.0"  filling="0" d="M0.0 39.0 L0.0 39.0 L0.0 100.0 L0.0 100.0 L0.0 39.0 L0.0 39.0 Z"></path>
<path fill="#000000" fill-opacity="1.0"  filling="0" d="M0.0 100.0 C0.0 74.0 10.0 51.0 26.0 33.0 L174.0 33.0 C190.0 51.0 199.0 74.0 199.0 100.0 C199.0 126.0 190.0 149.0 174.0 167.0 L26.0 167.0 C10.0 149.0 0.0 126.0 0.0 100.0 L0.0 100.0 Z"></path>
<path fill="#000000" fill-opacity="1.0"  filling="0" d="M0.0 100.0 C0.0 74.0 10.0 51.0 26.0 33.0 L174.0 33.0 C190.0 51.0 199.0 74.0 199.0 100.0 C199.0 126.0 190.0 149.0 174.0 167.0 L26.0 167.0 C10.0 149.0 0.0 126.0 0.0 100.0 L0.0 100.0 Z"></path>
<path fill="#000000" fill-opacity="1.0"  filling="0" d="M0.0 39.0 L0.0 39.0 L0.0 100.0 L0.0 100.0 L0.0 39.0 L0.0 39.0 Z"></path>
<path fill="#000000" fill-opacity="1.0"  filling="0" d="M0.0 100.0 C0.0 74.0 10.0 51.0 26.0 33.0 L174.0 33.0 C190.0 51.0 199.0 74.0 199.0 100.0 C199.0 126.0 190.0 149.0 174.0 167.0 L26.0 167.0 C10.0 149.0 0.0 126.0 0.0 100.0 L0.0 100.0 Z"></path>
<path fill="#000000" fill-opacity="1.0"  filling="0" d="M0.0 100.0 C0.0 74.0 10.0 51.0 26.0 33.0 L174.0 33.0 C190.0 51.0 199.0 74.0 199.0 100.0 C199.0 126.0 190.0 149.0 174.0 167.0 L26.0 167.0 C10.0 149.0 0.0 126.0 0.0 100.0 L0.0 100.0 Z"></path>
<path fill="#000000" fill-opacity="1.0"  filling="0" d="M0.0 39.0 L0.0 39.0 L0.0 100.0 L0.0 100.0 L0.0 39.0 L0.0 39.0 Z"></path>
<path fill="#000000" fill-opacity="1.0"  filling="0" d="M0.0 100.0 C0.0 74.0 10.0 51.0 26.0 33.0 L174.0 33.0 C190.0 51.0 199.0 74.0 199.0 100.0 C199.0 126.0 190.0 149.0 174.0 167.0 L26.0 167.0 C10.0 149.0 0.0 126.0 0.0 100.0 L0.0 100.0 Z"></path>
<path fill="#000000" fill-opacity="1.0"  filling="0" d="M0.0 100.0 C0.0 74.0 10.0 51.0 26.0 33.0 L174.0 33.0 C190.0 51.0 199.0 74.0 199.0 100.0 C199.0 126.0 190.0 149.0 174.0 167.0 L26.0 167.0 C10.0 149.0 0.0 126.0 0.0 100.0 L0.0 100.0 Z"></path>
<path fill="#000000" fill-opacity="1.0"  filling="0" d="M0.0 39.0 L0.0 39.0 L0.0 100.0 L0.0 100.0 L0.0 39.0 L0.0 39.0 Z"></path>
<path fill="#000000" fill-opacity="1.0"  filling="0" d="M0.0 100.0 C0.0 74.0 10.0 51.0 26.0 33.0 L174.0 33.0 C190.0 51.0 199.0 74.0 199.0 100.0 C199.0 126.0 190.0 149.0 174.0 167.0 L26.0 167.0 C10.0 149.0 0.0 126.0 0.0 100.0 L0.0 100.0 Z"></path>
<path fill="#000000" fill-opacity="1.0"  filling="0" d="M0.0 100.0 C0.0 74.0 10.0 51.0 26.0 33.0 L174.0 33.0 C190.0 51.0 199.0 74.0 199.0 100.0 C199.0 126.0 190.0 149.0 174.0 167.0 L26.0 167.0 C10.0 149.0 0.0 126.0 0.0 100.0 L0.0 100.0 Z"></path>
<path fill="#000000" fill-opacity="1.0"  filling="0" d="M0.0 39.0 L0.0 39.0 L0.0 100.0 L0.0 100.0 L0.0 39.0 L0.0 39.0 Z"></path>
<path fill="#000000" fill-opacity="1.0"  filling="0" d="M0.0 100.0 C0.0 74.0 10.0 51.0 26.0 33.0 L174.0 33.0 C190.0 51.0 199.0 74.0 199.0 100.0 C199.0 126.0 190.0 149.0 174.0 167.0 L26.0 167.0 C10.0 149.0 0.0 126.0 0.0 100.0 L0.0 100.0 Z"></path>
<path fill="#000000" fill-opacity="1.0"  filling="0" d="M0.0 100.0 C0.0 74.0 10.0 51.0 26.0 33.0 L174.0 33.0 C190.0 51.0 199.0 74.0 199.0 100.0 C199.0 126.0 190.0 149.0 174.0 167.0 L26.0 167.0 C10.0 149.0 0.0 126.0 0.0 100.0 L0.0 100.0 Z"></path>
<path fill="#000000" fill-opacity="1.0"  filling="0" d="M0.0 39.0 L0.0 39.0 L0.0 100.0 L0.0 100.0 L0.0 39.0 L0.0 39.0 Z"></path>
<path fill="#000000" fill-opacity="1.0"  filling="0" d="M0.0 100.0 C0.0 74.0 10.0 51.0 26.0 33.0 L174.0 33.0 C190.0 51.0 199.0 74.0 199.0 100.0 C199.0 126.0 190.0 149.0 174.0 167.0 L26.0 167.0 C10.0 149.0 0.0 126.0 0.0 100.0 L0.0 100.0 Z"></path>
<path fill="#000000" fill-opacity="1.0"  filling="0" d="M0.0 100.0 C0.0 74.0 10.0 51.0 26.0 33.0 L174.0 33.0 C190.0 51.0 199.0 74.0 199.0 100.0 C199.0 126.0 190.0 149.0 174.0 167.0 L26.0 167.0 C10.0 149.0 0.0 126.0 0.0 100.0 L0.0 100.0 Z"></path>
<path fill="#000000" fill-opacity="1.0"  filling="0" d="M0.0 39.0 L0.0 39.0 L0.0 100.0 L0.0 100.0 L0.0 39.0 L0.0 39.0 Z"></path>
<path fill="#000000" fill-opacity="1.0"  filling="0" d="M0.0 100.0 C0.0 74.0 10.0 51.0 26.0 33.0 L174.0 33.0 C190.0 51.0 199.0 74.0 199.0 100.0 C199.0 126.0 190.0 149.0 174.0 167.0 L26.0 167.0 C10.0 149.0 0.0 126.0 0.0 100.0 L0.0 100.0 Z"></path>
<path fill="#000000" fill-opacity="1.0"  filling="0" d="M0.0 100.0 C0.0 74.0 10.0 51.0 26.0 33.0 L174.0 33.0 C190.0 51.0 199.0 74.0 199.0 100.0 C199.0 126.0 190.0 149.0 174.0 167.0 L26.0 167.0 C10.0 149.0 0.0 126.0 0.0 100.0 L0.0 100.0 Z"></path>
<path fill="#000000" fill-opacity="1.0"  filling="0" d="M0.0 39.0 L0.0 39.0 L0.0 100.0 L0.0 100.0 L0.0 39.0 L0.0 39.0 Z"></path>
<path fill="#000000" fill-opacity="1.0"  filling="0" d="M0.0 100.0 C0.0 74.0 10.0 51.0 26.0 33.0 L174.0 33.0 C190.0 51.0 199.0 74.0 199.0 100.0 C199.0 126.0 190.0 149.0 174.0 167.0 L26.0 167.0 C10.0 149.0 0.0 126.0 0.0 100.0 L0.0 100.0 Z"></path>
<path fill="#000000" fill-opacity="1.0"  filling="0" d="M0.0 100.0 C0.0 74.0 10.0 51.0 26.0 33.0 L174.0 33.0 C190.0 51.0 199.0 74.0 199.0 100.0 C199.0 126.0 190.0 149.0 174.0 167.0 L26.0 167.0 C10.0 149.0 0.0 126.0 0.0 100.0 L0.0 100.0 Z"></path>
<path fill="#000000" fill-opacity="1.0"  filling="0" d="M0.0 39.0 L0.0 39.0 L0.0 100.0 L0.0 100.0 L0.0 39.0 L0.0 39.0 Z"></path>
<path fill="#000000" fill-opacity="1.0"  filling="0" d="M0.0 100.0 C0.0 74.0 10.0 51.0 26.0 33.0 L174.0 33.0 C190.0 51.0 199.0 74.0 199.0 100.0 C199.0 126.0 190.0 149.0 174.0 167.0 L26.0 167.0 C10.0 149.0 0.0 126.0 0.0 100.0 L0.0 100.0 Z"></path>
<path fill="#000000" fill-opacity="1.0"  filling="0" d="M0.0 100.0 C0.0 74.0 10.0 51.0 26.0 33.0 L174.0 33.0 C190.0 51.0 199.0 74.0 199.0 100.0 C199.0 126.0 190.0 149.0 174.0 167.0 L26.0 167.0 C10.0 149.0 0.0 126.0 0.0 100.0 L0.0 100.0 Z"></path>
<path fill="#000000" fill-opacity="1.0"  filling="0" d="M0.0 39.0 L0.0 39.0 L0.0 100.0 L0.0 100.0 L0.0 39.0 L0.0 39.0 Z"></path>
<path fill="#000000" fill-opacity="1.0"  filling="0" d="M0.0 100.0 C0.0 74.0 10.0 51.0 26.0 33.0"></path></svg>