<svg xmlns="http://www.w3.org/2000/svg" viewBox="0.0 0.0 200.0 200.0" height="200px" width="200px"><path fill="#ffffff" fill-opacity="1.0"  filling="0" d="M199.0 100.0 C199.0 155.0 155.0 199.0 100.0 199.0 C45.0 199.0 1.0 155.0 1.0 100.0 C1.0 45.0 45.0 1.0 100.0 1.0 C155.0 1.0 199.0 45.0 199.0 100.0"></path>
<path fill="#ffffff" fill-opacity="1.0"  filling="0" d="M79.0 92.0 L85.0 92.0 L85.0 92.0 L79.0 92.0 L79.0 92.0 L79.0 92.0 Z M92.0 101.0 L99.0 101.0 L99.0 101.0 L92.0 101.0 L92.0 101.0 L92.0 101.0 Z M105.0 92.0 L112.0 92.0 L112.0 92.0 L105.0 92.0 L105.0 92.0 L105.0 92.0 Z M121.0 101.0 L128.0 101.0 L128.0 101.0 L121.0 101.0 L121.0 101.0 L121.0 101.0 Z M137.0 92.0 L144.0 92.0 L144.0 92.0 L137.0 92.0 L137.0 92.0 L137.0 92.0 Z M152.0 101.0 L159.0 101.0 L159.0 101.0 L152.0 101.0 L152.0 101.0 L152.0 101.0 Z M167.0 92.0 L174.0 92.0 L174.0 92.0 L167.0 92.0 L167.0 92.0 L167.0 92.0 Z M180.0 101.0 L188.0 101.0 L188.0 101.0 L180.0 101.0 L180.0 101.0 L180.0 101.0 Z M199.0 92.0 L199.0 92.0 C199.0 95.0 199.0 97.0 199.0 100.0 C199.0 103.0 199.0 105.0 199.0 108.0 L199.0 108.0 L199.0 108.0 L199.0 92.0 L199.0 92.0 L199.0 92.0 Z"></path>
<path fill="#ffffff" fill-opacity="1.0"  filling="0" d="M0.0 92.0 L0.0 92.0 L0.0 108.0 L0.0 108.0 C0.0 105.0 0.0 103.0 0.0 100.0 C0.0 97.0 0.0 95.0 0.0 92.0"></path>
<path fill="#ffffff" fill-opacity="1.0"  filling="0" d="M1.0 1.0 L199.0 1.0 L199.0 199.0 L1.0 199.0 L1.0 1.0 L1.0 1.0 Z"></path>
<path fill="#ffffff" fill-opacity="1.0"  filling="0" d="M199.0 1.0 L1.0 1.0 L1.0 199.0 L199.0 199.0 L199.0 1.0 L199.0 1.0 Z"></path>
<path fill="#ffffff" fill-opacity="1.0"  filling="0" d="M199.0 13.0 L198.0 12.0 L11.0 199.0 L18.0 199.0 L199.0 18.0 L199.0 13.0 L199.0 13.0 Z M160.0 1.0 L1.0 161.0 L1.0 169.0 L168.0 1.0 L160.0 1.0 L160.0 1.0 Z M105.0 1.0 L1.0 106.0 L1.0 113.0 L112.0 1.0 L105.0 1.0 L105.0 1.0 Z M55.0 1.0 L1.0 55.0 L1.0 63.0 L63.0 1.0 L55.0 1.0 L55.0 1.0 Z M14.0 1.0 L1.0 14.0 L1.0 21.0 L21.0 1.0 L14.0 1.0 L14.0 1.0 Z M199.0 61.0 L61.0 199.0 L69.0 199.0 L199.0 69.0 L199.0 61.0 L199.0 61.0 Z M199.0 111.0 L111.0 199.0 L119.0 199.0 L199.0 118.0 L199.0 111.0 L199.0 111.0 Z M199.0 168.0 L167.0 199.0 L175.0 199.0 L199.0 176.0 L199.0 168.0 L199.0 168.0 Z"></path>
<path fill="#775544" fill-opacity="1.0"  filling="0" d="M162.0 161.0 L199.0 161.0 L199.0 187.0 C199.0 194.0 194.0 199.0 188.0 199.0 L162.0 199.0 L162.0 161.0 L162.0 161.0 Z"></path>
<path fill="#775544" fill-opacity="1.0"  filling="0" d="M161.0 161.0 L199.0 161.0 L199.0 187.0 C199.0 193.0 193.0 199.0 187.0 199.0 L161.0 199.0 L161.0 161.0 L161.0 161.0 Z"></path>
<path fill="#775544" fill-opacity="1.0"  filling="0" d="M199.0 161.0 L161.0 161.0 L161.0 199.0 L181.0 199.0 L199.0 169.0 L199.0 161.0 L199.0 161.0 Z"></path>
<path fill="#775544" fill-opacity="1.0"  filling="0" d="M199.0 161.0 L161.0 161.0 L161.0 199.0 L181.0 199.0 L199.0 169.0 L199.0 161.0 L199.0 161.0 Z"></path>
<path fill="#66bbee" fill-opacity="1.0"  filling="0" d="M199.0 39.0 L199.0 39.0 L199.0 39.0 L199.0 39.0 L199.0 39.0 L161.0 161.0 L199.0 161.0 L199.0 39.0 L199.0 39.0 Z"></path>
<path fill="#66bbee" fill-opacity="1.0"  filling="0" d="M199.0 39.0 L199.0 39.0 L199.0 39.0 L199.0 39.0 L199.0 39.0 L161.0 161.0 L199.0 161.0 L199.0 39.0 L199.0 39.0 Z"></path>
<path fill="#ffffff" fill-opacity="1.0"  filling="0" d="M199.0 0.0 L160.0 0.0 L199.0 39.0 L199.0 0.0 L199.0 0.0 Z"></path>
<path fill="#ffffff" fill-opacity="1.0"  filling="0" d="M199.0 0.0 L160.0 0.0 L199.0 39.0 L199.0 0.0 L199.0 0.0 Z"></path>
<path fill="#000000" fill-opacity="1.0"  filling="0" d="M199.0 0.0 L199.0 0.0 L199.0 39.0 L199.0 0.0 L199.0 0.0 Z"></path>
<path fill="#999999" fill-opacity="1.0"  filling="0" d="M74.0 48.0 L122.0 48.0 L122.0 66.0 L74.0 66.0 L74.0 48.0 L74.0 48.0 Z"></path>
<path fill="#888888" fill-opacity="1.0"  filling="0" d="M74.0 52.0 L122.0 52.0 L122.0 56.0 L74.0 56.0 L74.0 52.0 L74.0 52.0 Z M74.0 52.0 L74.0 52.0 L74.0 56.0 L74.0 56.0 L74.0 52.0 L74.0 52.0 Z"></path>
<path fill="#999999" fill-opacity="1.0"  filling="0" d="M74.0 73.0 L122.0 73.0 L122.0 90.0 L74.0 90.0 L74.0 73.0 L74.0 73.0 Z"></path>
<path fill="#888888" fill-opacity="1.0"  filling="0" d="M74.0 78.0 L122.0 78.0 L122.0 82.0 L74.0 82.0 L74.0 78.0 L74.0 78.0 Z M74.0 78.0 L74.0 78.0 L74.0 82.0 L74.0 82.0 L74.0 78.0 L74.0 78.0 Z"></path>
<path fill="#999999" fill-opacity="1.0"  filling="0" d="M74.0 103.0 L122.0 103.0 L122.0 121.0 L74.0 121.0 L74.0 103.0 L74.0 103.0 Z"></path>
<path fill="#888888" fill-opacity="1.0"  filling="0" d="M74.0 106.0 L122.0 106.0 L122.0 110.0 L74.0 110.0 L74.0 106.0 L74.0 106.0 Z M74.0 106.0 L74.0 106.0 L74.0 110.0 L74.0 110.0 L74.0 106.0 L74.0 106.0 Z"></path>
<path fill="#999999" fill-opacity="1.0"  filling="0" d="M74.0 131.0 L122.0 131.0 L122.0 149.0 L74.0 149.0 L74.0 131.0 L74.0 131.0 Z"></path>
<path fill="#888888" fill-opacity="1.0"  filling="0" d="M74.0 134.0 L122.0 134.0 L122.0 138.0 L74.0 138.0 L74.0 134.0 L74.0 134.0 Z M74.0 134.0 L74.0 134.0 L74.0 138.0 L74.0 138.0 L74.0 134.0 L74.0 134.0 Z"></path>
<path fill="#999999" fill-opacity="1.0"  filling="0" d="M74.0 48.0 L122.0 48.0 L122.0 66.0 L74.0 66.0 L74.0 48.0 L74.0 48.0 Z"></path>
<path fill="#888888" fill-opacity="1.0"  filling="0" d="M74.0 52.0 L122.0 52.0 L122.0 56.0 L74.0 56.0 L74.0 52.0 L74.0 52.0 Z M74.0 52.0 L74.0 52.0 L74.0 56.0 L74.0 56.0 L74.0 52.0 L74.0 52.0 Z"></path>
<path fill="#999999" fill-opacity="1.0"  filling="0" d="M74.0 73.0 L122.0 73.0 L122.0 90.0 L74.0 90.0 L74.0 73.0 L74.0 73.0 Z"></path>
<path fill="#888888" fill-opacity="1.0"  filling="0" d="M74.0 78.0 L122.0 78.0 L122.0 82.0 L74.0 82.0 L74.0 78.0 L74.0 78.0 Z M74.0 78.0 L74.0 78.0 L74.0 82.0 L74.0 82.0 L74.0 78.0 L74.0 78.0 Z"></path>
<path fill="#999999" fill-opacity="1.0"  filling="0" d="M74.0 103.0 L122.0 103.0 L122.0 121.0 L74.0 121.0 L74.0 103.0 L74.0 103.0 Z"></path>
<path fill="#888888" fill-opacity="1.0"  filling="0" d="M74.0 106.0 L122.0 106.0 L122.0 110.0 L74.0 110.0 L74.0 106.0 L74.0 106.0 Z M74.0 106.0 L74.0 106.0 L74.0 110.0 L74.0 110.0 L74.0 106.0 L74.0 106.0 Z"></path>
<path fill="#999999" fill-opacity="1.0"  filling="0" d="M74.0 131.0 L122.0 131.0 L122.0 149.0 L74.0 149.0 L74.0 131.0 L74.0 131.0 Z"></path>
<path fill="#888888" fill-opacity="1.0"  filling="0" d="M74.0 134.0 L122.0 134.0 L122.0 138.0 L74.0 138.0 L74.0 134.0 L74.0 134.0 Z M74.0 134.0 L74.0 134.0 L74.0 138.0 L74.0 138.0 L74.0 134.0 L74.0 134.0 Z"></path>
<path fill="#aaaaaa" fill-opacity="1.0"  filling="0" d="M74.0 39.0 L109.0 39.0 L109.0 59.0 L74.0 59.0 L74.0 39.0 L74.0 39.0 Z"></path>
<path fill="#888888" fill-opacity="1.0"  filling="0" d="M74.0 39.0 L109.0 39.0 L109.0 44.0 L74.0 44.0 L74.0 39.0 L74.0 39.0 Z"></path>
<path fill="#aaaaaa" fill-opacity="1.0"  filling="0" d="M74.0 73.0 L109.0 73.0 L109.0 90.0 L74.0 90.0 L74.0 73.0 L74.0 73.0 Z"></path>
<path fill="#888888" fill-opacity="1.0"  filling="0" d="M74.0 73.0 L109.0 73.0 L109.0 78.0 L74.0 78.0 L74.0 73.0 L74.0 73.0 Z"></path>
<path fill="#aaaaaa" fill-opacity="1.0"  filling="0" d="M74.0 103.0 L109.0 103.0 L109.0 121.0 L74.0 121.0 L74.0 103.0 L74.0 103.0 Z"></path>
<path fill="#888888" fill-opacity="1.0"  filling="0" d="M74.0 103.0 L109.0 103.0 L109.0 107.0 L74.0 107.0 L74.0 103.0 L74.0 103.0 Z"></path>
<path fill="#aaaaaa" fill-opacity="1.0"  filling="0" d="M74.0 131.0 L109.0 131.0 L109.0 149.0 L74.0 149.0 L74.0 131.0 L74.0 131.0 Z"></path>
<path fill="#888888" fill-opacity="1.0"  filling="0" d="M74.0 131.0 L109.0 131.0 L109.0 135.0 L74.0 135.0 L74.0 131.0 L74.0 131.0 Z"></path>
<path fill="#999999" fill-opacity="1.0"  filling="0" d="M58.0 39.0 L89.0 39.0 C93.0 39.0 96.0 36.0 96.0 32.0 C96.0 29.0 93.0 26.0 89.0 26.0 L58.0 26.0 C55.0 26.0 52.0 29.0 52.0 32.0 C52.0 36.0 55.0 39.0 58.0 39.0 L58.0 39.0 Z"></path>
<path fill="#999999" fill-opacity="1.0"  filling="0" d="M58.0 39.0 L89.0 39.0 C93.0 39.0 96.0 36.0 96.0 32.0 C96.0 29.0 93.0 26.0 89.0 26.0 L58.0 26.0 C55.0 26.0 52.0 29.0 52.0 32.0 C52.0 36.0 55.0 39.0 58.0 39.0 L58.0 39.0 Z"></path>
<path fill="#aaaaaa" fill-opacity="1.0"  filling="0" d="M58.0 26.0 C55.0 26.0 52.0 29.0 52.0 32.0 C52.0 36.0 55.0 39.0 58.0 39.0 L74.0 39.0 L74.0 26.0 L58.0 26.0 L58.0 26.0 Z"></path>
<path fill="#999999" fill-opacity="1.0"  filling="0" d="M58.0 92.0 L89.0 92.0 C93.0 92.0 96.0 89.0 96.0 85.0 C96.0 81.0 93.0 78.0 89.0 78.0 L58.0 78.0 C55.0 78.0 52.0 81.0 52.0 85.0 C52.0 89.0 55.0 92.0 58.0 92.0 L58.0 92.0 Z"></path>
<path fill="#999999" fill-opacity="1.0"  filling="0" d="M58.0 92.0 L89.0 92.0 C93.0 92.0 96.0 89.0 96.0 85.0 C96.0 81.0 93.0 78.0 89.0 78.0 L58.0 78.0 C55.0 78.0 52.0 81.0 52.0 85.0 C52.0 89.0 55.0 92.0 58.0 92.0 L58.0 92.0 Z"></path>
<path fill="#aaaaaa" fill-opacity="1.0"  filling="0" d="M58.0 78.0 C55.0 78.0 52.0 81.0 52.0 85.0 C52.0 89.0 55.0 92.0 58.0 92.0 L74.0 92.0 L74.0 78.0 L58.0 78.0 L58.0 78.0 Z"></path>
<path fill="#999999" fill-opacity="1.0"  filling="0" d="M58.0 144.0 L89.0 144.0 C93.0 144.0 96.0 141.0 96.0 137.0 C96.0 133.0 93.0 130.0 89.0 130.0 L58.0 130.0 C55.0 130.0 52.0 133.0 52.0 137.0 C52.0 141.0 55.0 144.0 58.0 144.0 L58.0 144.0 Z"></path>
<path fill="none" fill-opacity="1.0" filling="0" d="M0.0 M.0 Z"></path></svg>