<svg xmlns="http://www.w3.org/2000/svg" viewBox="0.0 0.0 200.0 200.0" height="200px" width="200px"><path fill="#ffcc77" fill-opacity="1.0"  filling="0" d="M22.0 40.0 L100.0 72.0 L178.0 88.0 C180.0 88.0 181.0 87.0 181.0 85.0 L181.0 43.0 C181.0 41.0 180.0 40.0 178.0 40.0 L100.0 47.0 L22.0 40.0 L22.0 40.0 Z"></path>
<path fill="#ffcc77" fill-opacity="1.0"  filling="0" d="M31.0 31.0 L31.0 31.0 C27.0 31.0 22.0 35.0 22.0 40.0 L22.0 88.0 C22.0 88.0 22.0 88.0 22.0 88.0 L100.0 72.0 L100.0 47.0 L31.0 31.0 L31.0 31.0 Z"></path>
<path fill="#ffcc77" fill-opacity="1.0"  filling="0" d="M31.0 31.0 L31.0 31.0 L100.0 47.0 L178.0 40.0 C180.0 40.0 181.0 41.0 181.0 43.0 L181.0 31.0 C181.0 29.0 180.0 28.0 178.0 28.0 L31.0 31.0 L31.0 31.0 Z"></path>
<path fill="#ffcc77" fill-opacity="1.0"  filling="0" d="M31.0 31.0 L31.0 31.0 L100.0 47.0 L22.0 40.0 C22.0 40.0 22.0 40.0 22.0 40.0 L31.0 31.0 L31.0 31.0 Z"></path>
<path fill="#ffcc77" fill-opacity="1.0"  filling="0" d="M100.0 47.0 L31.0 31.0 L31.0 31.0 L100.0 47.0 L100.0 47.0 Z"></path>
<path fill="#ffcc77" fill-opacity="1.0"  filling="0" d="M31.0 31.0 L31.0 31.0 L100.0 47.0 L178.0 40.0 C180.0 40.0 181.0 41.0 181.0 43.0 L181.0 31.0 C181.0 29.0 180.0 28.0 178.0 28.0 L31.0 31.0 L31.0 31.0 Z"></path>
<path fill="#ffcc77" fill-opacity="1.0"  filling="0" d="M31.0 31.0 L31.0 31.0 L100.0 47.0 L22.0 40.0 C22.0 40.0 22.0 40.0 22.0 40.0 L31.0 31.0 L31.0 31.0 Z"></path>
<path fill="#ffcc77" fill-opacity="1.0"  filling="0" d="M31.0 31.0 L31.0 31.0 L100.0 47.0 L22.0 40.0 C22.0 40.0 22.0 40.0 22.0 40.0 L31.0 31.0 L31.0 31.0 Z"></path>
<path fill="#ffcc77" fill-opacity="1.0"  filling="0" d="M31.0 31.0 L31.0 31.0 L100.0 47.0 L22.0 40.0 C22.0 40.0 22.0 40.0 22.0 40.0 L31.0 31.0 L31.0 31.0 Z"></path>
<path fill="#ffcc77" fill-opacity="1.0"  filling="0" d="M100.0 47.0 L31.0 31.0 L31.0 31.0 L100.0 47.0 L100.0 47.0 Z"></path>
<path fill="#ffcc77" fill-opacity="1.0"  filling="0" d="M100.0 47.0 L31.0 31.0 L31.0 31.0 L100.0 47.0 L100.0 47.0 Z"></path>
<path fill="#ffcc77" fill-opacity="1.0"  filling="0" d="M100.0 47.0 L31.0 31.0 L31.0 31.0 L100.0 47.0 L100.0 47.0 Z"></path>
<path fill="#ffcc77" fill-opacity="1.0"  filling="0" d="M100.0 47.0 L31.0 31.0 L31.0 31.0 L100.0 47.0 L100.0 47.0 Z"></path>
<path fill="#ffcc77" fill-opacity="1.0"  filling="0" d="M31.0 31.0 L31.0 31.0 L100.0 47.0 L22.0 40.0 C22.0 40.0 22.0 40.0 22.0 40.0 L31.0 31.0 L31.0 31.0 Z"></path>
<path fill="#ffcc77" fill-opacity="1.0"  filling="0" d="M31.0 31.0 L31.0 31.0 L100.0 47.0 L22.0 40.0 C22.0 40.0 22.0 40.0 22.0 40.0 L31.0 31.0 L31.0 31.0 Z"></path>
<path fill="#ffcc77" fill-opacity="1.0"  filling="0" d="M31.0 31.0 L31.0 31.0 L100.0 47.0 L22.0 40.0 C22.0 40.0 22.0 40.0 22.0 40.0 L31.0 31.0 L31.0 31.0 Z"></path>
<path fill="#ffcc77" fill-opacity="1.0"  filling="0" d="M31.0 31.0 L31.0 31.0 L100.0 47.0 L22.0 40.0 C22.0 40.0 22.0 40.0 22.0 40.0 L31.0 31.0 L31.0 31.0 Z"></path>
<path fill="#ffcc77" fill-opacity="1.0"  filling="0" d="M100.0 47.0 L31.0 31.0 L31.0 31.0 L100.0 47.0 L100.0 47.0 Z"></path>
<path fill="#ffcc77" fill-opacity="1.0"  filling="0" d="M100.0 47.0 L31.0 31.0 L31.0 31.0 L100.0 47.0 L100.0 47.0 Z"></path>
<path fill="#ffcc77" fill-opacity="1.0"  filling="0" d="M100.0 47.0 L31.0 31.0 L31.0 31.0 L100.0 47.0 L100.0 47.0 Z"></path>
<path fill="#ffcc77" fill-opacity="1.0"  filling="0" d="M100.0 47.0 L31.0 31.0 L31.0 31.0 L100.0 47.0 L100.0 47.0 Z"></path>
<path fill="#ffcc77" fill-opacity="1.0"  filling="0" d="M31.0 31.0 L31.0 31.0 L100.0 47.0 L22.0 40.0 C22.0 40.0 22.0 40.0 22.0 40.0 L31.0 31.0 L31.0 31.0 Z"></path>
<path fill="#ffcc77" fill-opacity="1.0"  filling="0" d="M31.0 31.0 L31.0 31.0 L100.0 47.0 L22.0 40.0 C22.0 40.0 22.0 40.0 22.0 40.0 L31.0 31.0 L31.0 31.0 Z"></path>
<path fill="#224466" fill-opacity="1.0"  filling="0" d="M115.0 78.0 L85.0 78.0 C83.0 78.0 82.0 76.0 82.0 75.0 L82.0 54.0 C82.0 52.0 83.0 51.0 85.0 51.0 L115.0 51.0 C117.0 51.0 118.0 52.0 118.0 54.0 L118.0 75.0 C118.0 76.0 117.0 78.0 115.0 78.0 L115.0 78.0 Z M88.0 72.0 L112.0 72.0 L112.0 57.0 L88.0 57.0 L88.0 72.0 L88.0 72.0 Z"></path>
<path fill="#224466" fill-opacity="1.0"  filling="0" d="M120.0 78.0 L80.0 78.0 C78.0 78.0 77.0 76.0 77.0 75.0 C77.0 73.0 78.0 72.0 80.0 72.0 L120.0 72.0 C122.0 72.0 123.0 73.0 123.0 75.0 C123.0 76.0 122.0 78.0 120.0 78.0 L120.0 78.0 Z"></path>
<path fill="#224466" fill-opacity="1.0"  filling="0" d="M100.0 57.0 C98.0 57.0 97.0 56.0 97.0 54.0 L97.0 37.0 C97.0 35.0 98.0 34.0 100.0 34.0 C102.0 34.0 103.0 35.0 103.0 37.0 L103.0 54.0 C103.0 56.0 102.0 57.0 100.0 57.0 L100.0 57.0 Z"></path>
<path fill="#224466" fill-opacity="1.0"  filling="0" d="M100.0 45.0 C100.0 45.0 99.0 45.0 99.0 44.0 L80.0 52.0 C79.0 53.0 78.0 55.0 79.0 56.0 C80.0 57.0 81.0 58.0 82.0 57.0 L100.0 50.0 L118.0 57.0 C119.0 58.0 120.0 57.0 121.0 56.0 C122.0 55.0 121.0 53.0 120.0 52.0 L101.0 44.0 C101.0 45.0 100.0 45.0 100.0 45.0 L100.0 45.0 Z"></path>
<path fill="#224466" fill-opacity="1.0"  filling="0" d="M125.0 144.0 L75.0 144.0 L85.0 72.0 L115.0 72.0 L125.0 144.0 L125.0 144.0 Z M81.0 138.0 L119.0 138.0 L112.0 78.0 L88.0 78.0 L81.0 138.0 L81.0 138.0 Z"></path>
<path fill="#224466" fill-opacity="1.0"  filling="0" d="M117.0 106.0 L83.0 106.0 C81.0 106.0 80.0 105.0 80.0 103.0 C80.0 101.0 81.0 100.0 83.0 100.0 L117.0 100.0 C119.0 100.0 120.0 101.0 120.0 103.0 C120.0 105.0 119.0 106.0 117.0 106.0 L117.0 106.0 Z"></path>
<path fill="#224466" fill-opacity="1.0"  filling="0" d="M119.0 122.0 L81.0 122.0 C79.0 122.0 78.0 120.0 78.0 119.0 C78.0 117.0 79.0 116.0 81.0 116.0 L119.0 116.0 C121.0 116.0 122.0 117.0 122.0 119.0 C122.0 120.0 121.0 122.0 119.0 122.0 L119.0 122.0 Z"></path>
<path fill="#224466" fill-opacity="1.0"  filling="0" d="M143.0 159.0 C139.0 159.0 136.0 158.0 134.0 157.0 C132.0 156.0 131.0 155.0 128.0 155.0 C125.0 155.0 124.0 156.0 122.0 157.0 C120.0 158.0 117.0 159.0 114.0 159.0 C110.0 159.0 107.0 158.0 105.0 157.0 C103.0 156.0 102.0 155.0 100.0 155.0 C98.0 155.0 97.0 156.0 95.0 157.0 C93.0 158.0 90.0 159.0 86.0 159.0 C83.0 159.0 80.0 158.0 78.0 157.0 C76.0 156.0 75.0 155.0 72.0 155.0 C69.0 155.0 68.0 156.0 66.0 157.0 C64.0 158.0 61.0 159.0 57.0 159.0 C52.0 159.0 49.0 158.0 46.0 157.0 C44.0 156.0 43.0 155.0 42.0 155.0 C42.0 155.0 42.0 154.0 42.0 154.0 C42.0 154.0 42.0 154.0 42.0 154.0 C43.0 154.0 45.0 153.0 46.0 152.0 C49.0 151.0 52.0 149.0 57.0 149.0 C61.0 149.0 64.0 150.0 66.0 152.0 C68.0 153.0 69.0 153.0 72.0 153.0 C75.0 153.0 76.0 153.0 78.0 152.0 C80.0 150.0 83.0 149.0 86.0 149.0 C90.0 149.0 93.0 150.0 95.0 152.0 C97.0 153.0 98.0 153.0 100.0 153.0 C102.0 153.0 103.0 153.0 105.0 152.0 C107.0 150.0 110.0 149.0 114.0 149.0 C117.0 149.0 120.0 150.0 122.0 152.0 C124.0 153.0 125.0 153.0 128.0 153.0 C131.0 153.0 132.0 153.0 134.0 152.0 C136.0 150.0 139.0 149.0 143.0 149.0 C148.0 149.0 151.0 151.0 154.0 152.0 C155.0 153.0 157.0 154.0 158.0 154.0 C158.0 154.0 158.0 154.0 158.0 154.0 C158.0 154.0 158.0 155.0 158.0 155.0 C157.0 155.0 156.0 156.0 154.0 157.0 C151.0 158.0 148.0 159.0 143.0 159.0 L143.0 159.0 Z"></path>
<path fill="#224466" fill-opacity="1.0"  filling="0" d="M143.0 172.0 C139.0 172.0 136.0 171.0 134.0 170.0 C132.0 169.0 131.0 168.0 128.0 168.0 C125.0 168.0 124.0 169.0 122.0 170.0 C120.0 171.0 117.0 172.0 114.0 172.0 C110.0 172.0 107.0 171.0 105.0 170.0 C103.0 169.0 102.0 168.0 100.0 168.0 C98.0 168.0 97.0 169.0 95.0 170.0 C93.0 171.0 90.0 172.0 86.0 172.0 C83.0 172.0 80.0 171.0 78.0 170.0 C76.0 169.0 75.0 168.0 72.0 168.0 C69.0 168.0 68.0 169.0 66.0 170.0 C64.0 171.0 61.0 172.0 57.0 172.0 C52.0 172.0 49.0 171.0 46.0 170.0 C44.0 169.0 43.0 168.0 42.0 168.0 C42.0 168.0 42.0 167.0 42.0 167.0 C42.0 167.0 42.0 167.0 42.0 167.0 C43.0 167.0 45.0 166.0 46.0 165.0 C49.0 164.0 52.0 162.0 57.0 162.0 C61.0 162.0 64.0 164.0 66.0 165.0 C68.0 166.0 69.0 166.0 72.0 166.0 C75.0 166.0 76.0 166.0 78.0 165.0 C80.0 164.0 83.0 162.0 86.0 162.0 C90.0 162.0 93.0 164.0 95.0 165.0 C97.0 166.0 98.0 166.0 100.0 166.0 C102.0 166.0 103.0 166.0 105.0 165.0 C107.0 164.0 110.0 162.0 114.0 162.0 C117.0 162.0 120.0 164.0 122.0 165.0 C124.0 166.0 125.0 166.0 128.0 166.0 C131.0 166.0 132.0 166.0 134.0 165.0 C136.0 164.0 139.0 162.0 143.0 162.0 C148.0 162.0 151.0 164.0 154.0 165.0 C155.0 166.0 157.0 167.0 158.0 167.0 C158.0 167.0 158.0 167.0 158.0 167.0 C158.0 167.0 158.0 168.0 158.0 168.0 C157.0 168.0 156.0 169.0 154.0 170.0 C151.0 171.0 148.0 172.0 143.0 172.0 L143.0 172.0 Z"></path>
<path fill="#224466" fill-opacity="1.0"  filling="0" d="M22.0 172.0 C20.0 172.0 19.0 171.0 19.0 169.0 C19.0 168.0 20.0 166.0 22.0 166.0 C26.0 166.0 28.0 164.0 30.0 163.0 C32.0 161.0 35.0 159.0 40.0 159.0 C45.0 159.0 48.0 161.0 50.0 163.0 C53.0 164.0 54.0 166.0 58.0 166.0 C62.0 166.0 63.0 164.0 66.0 163.0 C68.0 161.0 70.0 159.0 75.0 159.0 C80.0 159.0 82.0 161.0 85.0 163.0 C87.0 164.0 89.0 166.0 92.0 166.0 C96.0 166.0 97.0 164.0 99.0 163.0 C101.0 161.0 104.0 159.0 108.0 159.0 C113.0 159.0 115.0 161.0 118.0 163.0 C120.0 164.0 122.0 166.0 126.0 166.0 C130.0 166.0 132.0 164.0 134.0 163.0 C137.0 161.0 139.0 159.0 143.0 159.0 C148.0 159.0 151.0 161.0 154.0 163.0 C156.0 164.0 158.0 166.0 162.0 166.0 C164.0 166.0 165.0 165.0 165.0 163.0 C165.0 162.0 164.0 160.0 162.0 160.0 C160.0 160.0 159.0 159.0 158.0 157.0 C155.0 156.0 151.0 153.0 143.0 153.0 C137.0 153.0 134.0 156.0 131.0 157.0 C130.0 159.0 129.0 160.0 126.0 160.0 C124.0 160.0 123.0 159.0 121.0 157.0 C119.0 156.0 115.0 153.0 108.0 153.0 C102.0 153.0 98.0 156.0 96.0 157.0 C95.0 159.0 94.0 160.0 92.0 160.0 C89.0 160.0 88.0 159.0 87.0 157.0 C84.0 156.0 81.0 153.0 75.0 153.0 C68.0 153.0 65.0 156.0 63.0 157.0 C61.0 159.0 60.0 160.0 58.0 160.0 C55.0 160.0 54.0 159.0 52.0 157.0 C50.0 156.0 46.0 153.0 40.0 153.0 C33.0 153.0 29.0 156.0 26.0 157.0 C24.0 159.0 23.0 160.0 22.0 160.0 C20.0 160.0 19.0 162.0 19.0 163.0 C19.0 165.0 20.0 166.0 22.0 166.0 C24.0 166.0 25.0 168.0 25.0 169.0 C25.0 171.0 24.0 172.0 22.0 172.0 L22.0 172.0 Z"></path>
<path fill="#224466" fill-opacity="1.0"  filling="0" d="M178.0 172.0 C176.0 172.0 175.0 171.0 175.0 169.0 C175.0 168.0 176.0 166.0 178.0 166.0 C180.0 166.0 181.0 165.0 181.0 163.0 C181.0 162.0 180.0 160.0 178.0 160.0 C176.0 160.0 174.0 159.0 172.0 157.0 C170.0 156.0 167.0 153.0 160.0 153.0 C155.0 153.0 152.0 156.0 150.0 157.0 C147.0 159.0 146.0 160.0 143.0 160.0 C140.0 160.0 139.0 159.0 137.0 157.0 C135.0 156.0 132.0 153.0 126.0 153.0 C119.0 153.0 116.0 156.0 113.0 157.0 C112.0 159.0 111.0 160.0 108.0 160.0 C106.0 160.0 105.0 159.0 104.0 157.0 C102.0 156.0 98.0 153.0 92.0 153.0 C85.0 153.0 81.0 156.0 79.0 157.0 C77.0 159.0 76.0 160.0 74.0 160.0 C71.0 160.0 70.0 159.0 69.0 157.0 C66.0 156.0 63.0 153.0 57.0 153.0 C49.0 153.0 45.0 156.0 42.0 157.0 C41.0 159.0 40.0 160.0 38.0 160.0 C36.0 160.0 35.0 159.0 33.0 157.0 C31.0 156.0 28.0 153.0 22.0 153.0 C20.0 153.0 19.0 154.0 19.0 155.0 C19.0 157.0 20.0 158.0 22.0 158.0 C24.0 158.0 25.0 159.0 26.0 160.0 C29.0 161.0 32.0 165.0 38.0 165.0 C45.0 165.0 48.0 161.0 50.0 160.0 C52.0 159.0 53.0 158.0 57.0 158.0 C60.0 158.0 61.0 159.0 63.0 160.0 C65.0 161.0 68.0 165.0 74.0 165.0 C80.0 165.0 82.0 161.0 85.0 160.0 C87.0 159.0 87.0 158.0 92.0 158.0 C96.0 158.0 96.0 159.0 99.0 160.0 C101.0 161.0 104.0 165.0 108.0 165.0 C114.0 165.0 117.0 161.0 119.0 160.0 C121.0 159.0 122.0 158.0 126.0 158.0 C129.0 158.0 130.0 159.0 132.0 160.0 C134.0 161.0 137.0 165.0 143.0 165.0 C149.0 165.0 152.0 161.0 154.0 160.0 C156.0 159.0 157.0 158.0 160.0 158.0 C163.0 158.0 164.0 159.0 165.0 160.0 C167.0 161.0 170.0 165.0 178.0 165.0 C180.0 165.0 181.0 166.0 181.0 168.0 C181.0 170.0 180.0 172.0 178.0 172.0 L178.0 172.0 Z"></path>
<path fill="#000000" fill-opacity="1.0"  filling="0" d="M178.0 90.0 C178.0 90.0 178.0 90.0 178.0 90.0 L100.0 75.0 L22.0 90.0 C22.0 90.0 22.0 90.0 22.0 90.0 C20.0 90.0 19.0 89.0 18.0 88.0 C18.0 87.0 19.0 87.0 19.0 86.0 C19.0 85.0 19.0 85.0 19.0 85.0 L19.0 43.0 C19.0 43.0 19.0 43.0 19.0 42.0"></path></svg>