<svg xmlns="http://www.w3.org/2000/svg" viewBox="0.0 0.0 200.0 200.0" height="200px" width="200px"><path fill="#ffcc77" fill-opacity="1.0"  filling="0" d="M22.0 40.0 L100.0 72.0 L178.0 88.0 C180.0 88.0 181.0 87.0 181.0 85.0 L181.0 43.0 C181.0 41.0 180.0 40.0 178.0 40.0 L100.0 49.0 L22.0 40.0 L22.0 40.0 Z"></path>
<path fill="#ffcc77" fill-opacity="1.0"  filling="0" d="M22.0 40.0 L100.0 72.0 L178.0 88.0 C180.0 88.0 181.0 87.0 181.0 85.0 L181.0 43.0 C181.0 41.0 180.0 40.0 178.0 40.0 L100.0 49.0 L22.0 40.0 L22.0 40.0 Z"></path>
<path fill="#ffcc77" fill-opacity="1.0"  filling="0" d="M100.0 128.0 L22.0 88.0 C20.0 88.0 19.0 87.0 19.0 85.0 L19.0 43.0 C19.0 41.0 20.0 40.0 22.0 40.0 L100.0 49.0 L100.0 128.0 L100.0 128.0 Z"></path>
<path fill="#ffcc77" fill-opacity="1.0"  filling="0" d="M100.0 128.0 L22.0 88.0 C20.0 88.0 19.0 87.0 19.0 85.0 L19.0 43.0 C19.0 41.0 20.0 40.0 22.0 40.0 L100.0 49.0 L100.0 128.0 L100.0 128.0 Z"></path>
<path fill="#ffcc77" fill-opacity="1.0"  filling="0" d="M100.0 86.0 L22.0 88.0 C20.0 88.0 19.0 87.0 19.0 85.0 L19.0 43.0 C19.0 41.0 20.0 40.0 22.0 40.0 L100.0 49.0 L100.0 86.0 L100.0 86.0 Z"></path>
<path fill="#ffcc77" fill-opacity="1.0"  filling="0" d="M100.0 86.0 L22.0 88.0 C20.0 88.0 19.0 87.0 19.0 85.0 L19.0 43.0 C19.0 41.0 20.0 40.0 22.0 40.0 L100.0 49.0 L100.0 86.0 L100.0 86.0 Z"></path>
<path fill="#ffcc77" fill-opacity="1.0"  filling="0" d="M100.0 86.0 L22.0 88.0 C20.0 88.0 19.0 87.0 19.0 85.0 L19.0 43.0 C19.0 41.0 20.0 40.0 22.0 40.0 L100.0 49.0 L100.0 86.0 L100.0 86.0 Z"></path>
<path fill="#ffcc77" fill-opacity="1.0"  filling="0" d="M100.0 86.0 L22.0 88.0 C20.0 88.0 19.0 87.0 19.0 85.0 L19.0 43.0 C19.0 41.0 20.0 40.0 22.0 40.0 L100.0 49.0 L100.0 86.0 L100.0 86.0 Z"></path>
<path fill="#ffcc77" fill-opacity="1.0"  filling="0" d="M100.0 86.0 L22.0 88.0 C20.0 88.0 19.0 87.0 19.0 85.0 L19.0 43.0 C19.0 41.0 20.0 40.0 22.0 40.0 L100.0 49.0 L100.0 86.0 L100.0 86.0 Z"></path>
<path fill="#ffcc77" fill-opacity="1.0"  filling="0" d="M100.0 49.0 L22.0 40.0 C20.0 40.0 19.0 41.0 19.0 43.0 L19.0 85.0 C19.0 87.0 20.0 88.0 22.0 88.0 L100.0 86.0 L100.0 49.0 L100.0 49.0 Z"></path>
<path fill="#ffcc77" fill-opacity="1.0"  filling="0" d="M100.0 86.0 L22.0 88.0 C20.0 88.0 19.0 87.0 19.0 85.0 L19.0 43.0 C19.0 41.0 20.0 40.0 22.0 40.0 L100.0 49.0 L100.0 86.0 L100.0 86.0 Z"></path>
<path fill="#ffcc77" fill-opacity="1.0"  filling="0" d="M100.0 49.0 L22.0 40.0 C20.0 40.0 19.0 41.0 19.0 43.0 L19.0 85.0 C19.0 87.0 20.0 88.0 22.0 88.0 L100.0 86.0 L100.0 49.0 L100.0 49.0 Z"></path>
<path fill="#ffcc77" fill-opacity="1.0"  filling="0" d="M100.0 49.0 L22.0 40.0 C20.0 40.0 19.0 41.0 19.0 43.0 L19.0 85.0 C19.0 87.0 20.0 88.0 22.0 88.0 L100.0 86.0 L100.0 49.0 L100.0 49.0 Z"></path>
<path fill="#ffcc77" fill-opacity="1.0"  filling="0" d="M100.0 86.0 L22.0 88.0 C20.0 88.0 19.0 87.0 19.0 85.0 L19.0 43.0 C19.0 41.0 20.0 40.0 22.0 40.0 L100.0 49.0 L100.0 86.0 L100.0 86.0 Z"></path>
<path fill="#ffcc77" fill-opacity="1.0"  filling="0" d="M0.0 88.0 L100.0 128.0 L199.0 88.0 L100.0 0.0 L0.0 88.0 L0.0 88.0 Z"></path>
<path fill="#ffcc77" fill-opacity="1.0"  filling="0" d="M0.0 88.0 L100.0 128.0 L199.0 88.0 L100.0 0.0 L0.0 88.0 L0.0 88.0 Z"></path>
<path fill="#ffcc77" fill-opacity="1.0"  filling="0" d="M0.0 88.0 L100.0 128.0 L199.0 88.0 L100.0 0.0 L0.0 88.0 L0.0 88.0 Z"></path>
<path fill="#ffcc77" fill-opacity="1.0"  filling="0" d="M0.0 88.0 L100.0 128.0 L199.0 88.0 L100.0 0.0 L0.0 88.0 L0.0 88.0 Z"></path>
<path fill="#ffcc77" fill-opacity="1.0"  filling="0" d="M0.0 88.0 L100.0 128.0 L199.0 88.0 L100.0 0.0 L0.0 88.0 L0.0 88.0 Z"></path>
<path fill="#ffcc77" fill-opacity="1.0"  filling="0" d="M0.0 88.0 L100.0 128.0 L199.0 88.0 L100.0 0.0 L0.0 88.0 L0.0 88.0 Z"></path>
<path fill="#ffcc77" fill-opacity="1.0"  filling="0" d="M0.0 88.0 L100.0 128.0 L199.0 88.0 L100.0 0.0 L0.0 88.0 L0.0 88.0 Z"></path>
<path fill="#ffcc77" fill-opacity="1.0"  filling="0" d="M0.0 88.0 L100.0 128.0 L199.0 88.0 L100.0 0.0 L0.0 88.0 L0.0 88.0 Z"></path>
<path fill="#ffcc77" fill-opacity="1.0"  filling="0" d="M0.0 88.0 L100.0 128.0 L199.0 88.0 L100.0 0.0 L0.0 88.0 L0.0 88.0 Z"></path>
<path fill="#ffcc77" fill-opacity="1.0"  filling="0" d="M0.0 88.0 L100.0 128.0 L199.0 88.0 L100.0 0.0 L0.0 88.0 L0.0 88.0 Z"></path>
<path fill="#ffcc77" fill-opacity="1.0"  filling="0" d="M0.0 88.0 L100.0 128.0 L199.0 88.0 L100.0 0.0 L0.0 88.0 L0.0 88.0 Z"></path>
<path fill="#ffcc77" fill-opacity="1.0"  filling="0" d="M0.0 88.0 L100.0 128.0 L199.0 88.0 L100.0 0.0 L0.0 88.0 L0.0 88.0 Z"></path>
<path fill="#ffcc77" fill-opacity="1.0"  filling="0" d="M0.0 88.0 L100.0 128.0 L199.0 88.0 L100.0 0.0 L0.0 88.0 L0.0 88.0 Z"></path>
<path fill="#ffcc77" fill-opacity="1.0"  filling="0" d="M0.0 88.0 L100.0 128.0 L199.0 88.0 L100.0 0.0 L0.0 88.0 L0.0 88.0 Z"></path>
<path fill="#ffcc77" fill-opacity="1.0"  filling="0" d="M0.0 88.0 L100.0 128.0 L199.0 88.0 L100.0 0.0 L0.0 88.0 L0.0 88.0 Z"></path>
<path fill="#ffcc77" fill-opacity="1.0"  filling="0" d="M0.0 88.0 L100.0 128.0 L199.0 88.0 L100.0 0.0 L0.0 88.0 L0.0 88.0 Z"></path>
<path fill="#ffcc77" fill-opacity="1.0"  filling="0" d="M0.0 88.0 L100.0 128.0 L199.0 88.0 L100.0 0.0 L0.0 88.0 L0.0 88.0 Z"></path>
<path fill="#ffcc77" fill-opacity="1.0"  filling="0" d="M0.0 88.0 L100.0 128.0 L199.0 88.0 L100.0 0.0 L0.0 88.0 L0.0 88.0 Z"></path>
<path fill="#ffcc77" fill-opacity="1.0"  filling="0" d="M0.0 88.0 L100.0 128.0 L199.0 88.0 L100.0 0.0 L0.0 88.0 L0.0 88.0 Z"></path>
<path fill="#ffcc77" fill-opacity="1.0"  filling="0" d="M0.0 88.0 L100.0 128.0 L199.0 88.0 L100.0 0.0 L0.0 88.0 L0.0 88.0 Z"></path>
<path fill="#ffcc77" fill-opacity="1.0"  filling="0" d="M0.0 88.0 L100.0 128.0 L199.0 88.0 L100.0 0.0 L0.0 88.0 L0.0 88.0 Z"></path>
<path fill="#ffcc77" fill-opacity="1.0"  filling="0" d="M0.0 88.0 L100.0 128.0 L199.0 88.0 L100.0 0.0 L0.0 88.0 L0.0 88.0 Z"></path>
<path fill="#ffcc77" fill-opacity="1.0"  filling="0" d="M0.0 88.0 L100.0 128.0 L199.0 88.0 L100.0 0.0 L0.0 88.0 L0.0 88.0 Z"></path>
<path fill="#ffcc77" fill-opacity="1.0"  filling="0" d="M0.0 88.0 L100.0 128.0 L199.0 88.0 L100.0 0.0 L0.0 88.0 L0.0 88.0 Z"></path>
<path fill="#ffcc77" fill-opacity="1.0"  filling="0" d="M0.0 88.0 L100.0 128.0 L199.0 88.0 L100.0 0.0 L0.0 88.0 L0.0 88.0 Z"></path>
<path fill="#ffcc77" fill-opacity="1.0"  filling="0" d="M0.0 88.0 L100.0 128.0 L199.0 88.0 L100.0 0.0 L0.0 88.0 L0.0 88.0 Z"></path>
<path fill="#ffcc77" fill-opacity="1.0"  filling="0" d="M0.0 88.0 L100.0 128.0 L199.0 88.0 L100.0 0.0 L0.0 88.0 L0.0 88.0 Z"></path>
<path fill="#ffcc77" fill-opacity="1.0"  filling="0" d="M0.0 88.0 L100.0 128.0 L199.0 88.0 L100.0 0.0 L0.0 88.0 L0.0 88.0 Z"></path>
<path fill="#ffcc77" fill-opacity="1.0"  filling="0" d="M0.0 88.0 L100.0 128.0 L199.0 88.0 L100.0 0.0 L0.0 88.0 L0.0 88.0 Z"></path>
<path fill="#ffcc77" fill-opacity="1.0"  filling="0" d="M0.0 88.0 L100.0 128.0 L199.0 88.0 L100.0 0.0 L0.0 88.0 L0.0 88.0 Z"></path>
<path fill="#ffcc77" fill-opacity="1.0"  filling="0" d="M0.0 88.0 L100.0 128.0 L199.0 88.0 L100.0 0.0 L0.0 88.0 L0.0 88.0 Z"></path>
<path fill="#ffcc77" fill-opacity="1.0"  filling="0" d="M0.0 88.0 L100.0 128.0 L199.0 88.0 L100.0 0.0 L0.0 88.0 L0.0 88.0 Z"></path>
<path fill="#ffcc77" fill-opacity="1.0"  filling="0" d="M0.0 88.0 L100.0 128.0 L199.0 88.0 L100.0 0.0 L0.0 88.0 L0.0 88.0 Z"></path>
<path fill="#ffcc77" fill-opacity="1.0"  filling="0" d="M0.0 88.0 L100.0 128.0 L199.0 88.0 L100.0 0.0 L0.0 88.0 L0.0 88.0 Z"></path>
<path fill="#ffcc77" fill-opacity="1.0"  filling="0" d="M0.0 88.0 L100.0 128.0 L199.0 88.0 L100.0 0.0 L0.0 88.0 L0.0 88.0 Z"></path>
<path fill="#ffcc77" fill-opacity="1.0"  filling="0" d="M0.0 88.0 L100.0 128.0 L199.0 88.0 L100.0 0.0 L0.0 88.0 L0.0 88.0 Z"></path>
<path fill="#ffcc77" fill-opacity="1.0"  filling="0" d="M0.0 88.0 L100.0 128.0 L199.0 88.0 L100.0 0.0 L0.0 88.0 L0.0 88.0 Z"></path>
<path fill="#ffcc77" fill-opacity="1.0"  filling="0" d="M0.0 88.0 L100.0 128.0 L199.0 88.0 L100.0 0.0 L0.0 88.0 L0.0 88.0 Z"></path>
<path fill="#ffcc77" fill-opacity="1.0"  filling="0" d="M0.0 88.0 L100.0 128.0 L199.0 88.0 L100.0 0.0 L0.0 88.0 L0.0 88.0 Z"></path>
<path fill="#ffcc77" fill-opacity="1.0"  filling="0" d="M0.0 88.0 L100.0 128.0 L199.0 88.0 L100.0 0.0 L0.0 88.0 L0.0 88.0 Z"></path>
<path fill="#ffcc77" fill-opacity="1.0"  filling="0" d="M0.0 88.0 L100.0 128.0 L199.0 88.0 L100.0 0.0 L0.0 88.0 L0.0 88.0 Z"></path>
<path fill="#ffcc77" fill-opacity="1.0"  filling="0" d="M0.0 88.0 L100.0 128.0 L199.0 88.0 L100.0 0.0 L0.0 88.0 L0.0 88.0 Z"></path>
<path fill="#ffcc77" fill-opacity="1.0"  filling="0" d="M0.0 88.0 L100.0 128.0 L199.0 88.0 L100.0 0.0 L0.0 88.0 L0.0 88.0 Z"></path>
<path fill="#ffcc77" fill-opacity="1.0"  filling="0" d="M0.0 88.0 L100.0 128.0 L199.0 88.0 L100.0 0.0 L0.0 88.0 L0.0 88.0 Z"></path>
<path fill="#ffcc77" fill-opacity="1.0"  filling="0" d="M0.0 88.0 L100.0 128.0 L199.0 88.0 L100.0 0.0 L0.0 88.0 L0.0 88.0 Z"></path>
<path fill="#ffcc77" fill-opacity="1.0"  filling="0" d="M0.0 88.0 L100.0 128.0 L199.0 88.0 L100.0 0.0 L0.0 88.0 L0.0 88.0 Z"></path>
<path fill="#ffcc77" fill-opacity="1.0"  filling="0" d="M0.0 88.0 L100.0 128.0 L199.0 88.0 L100.0 0.0 L0.0 88.0 L0.0 88.0 Z"></path>
<path fill="#ffcc77" fill-opacity="1.0"  filling="0" d="M0.0 88.0 L100.0 128.0 L199.0 88.0 L100.0 0.0 L0.0 88.0 L0.0 88.0 Z"></path>
<path fill="#ffcc77" fill-opacity="1.0"  filling="0" d="M0.0 88.0 L100.0 128.0 L199.0 88.0 L100.0 0.0 L0.0 88.0 L0.0 88.0 Z"></path>
<path fill="#ffcc77" fill-opacity="1.0"  filling="0" d="M0.0 88.0 L100.0 128.0 L199.0 88.0 L100.0 0.0 L0.0 88.0 L0.0 88.0 Z"></path>
<path fill="#ffcc77" fill-opacity="1.0"  filling="0" d="M0.0 88.0 L100.0 128.0 L199.0 88.0 L100.0 0.0 L0.0 88.0 L0.0 88.0 Z"></path>
<path fill="#ffcc77" fill-opacity="1.0"  filling="0" d="M0.0 88.0 L100.0 128.0 L199.0 88.0 L100.0 0.0 L0.0 88.0 L0.0 88.0 Z"></path>
<path fill="#ffcc77" fill-opacity="1.0"  filling="0" d="M0.0 88.0 L100.0 128.0 L199.0 88.0 L100.0 0.0 L0.0 88.0 L0.0 88.0 Z"></path>
<path fill="#000000" fill-opacity="1.0"  filling="0" d="M0.0 88.0 L100.0 128.0 L199.0 88.0 L100.0 0.0"></path></svg>