<svg xmlns="http://www.w3.org/2000/svg" viewBox="0.0 0.0 200.0 200.0" height="200px" width="200px"><path fill="#ffcc77" fill-opacity="1.0"  filling="0" d="M22.0 40.0 L100.0 72.0 L178.0 88.0 C180.0 88.0 181.0 87.0 181.0 85.0 L181.0 43.0 C181.0 41.0 180.0 40.0 178.0 40.0 L100.0 47.0 L22.0 40.0 L22.0 40.0 Z"></path>
<path fill="#ffcc77" fill-opacity="1.0"  filling="0" d="M31.0 31.0 L31.0 31.0 C27.0 31.0 22.0 33.0 19.0 37.0 C18.0 39.0 19.0 41.0 21.0 41.0 L100.0 47.0 L179.0 41.0 C181.0 41.0 182.0 39.0 181.0 37.0 C178.0 33.0 173.0 31.0 169.0 31.0 L169.0 31.0 C166.0 31.0 163.0 33.0 161.0 36.0 C159.0 33.0 156.0 31.0 153.0 31.0 L153.0 31.0 C149.0 31.0 146.0 33.0 144.0 36.0 C142.0 33.0 139.0 31.0 136.0 31.0 L136.0 31.0 C132.0 31.0 129.0 33.0 127.0 36.0 C126.0 33.0 123.0 31.0 119.0 31.0 L119.0 31.0 C116.0 31.0 113.0 33.0 111.0 36.0 C109.0 33.0 106.0 31.0 103.0 31.0 L103.0 31.0 C99.0 31.0 96.0 33.0 94.0 36.0 C92.0 33.0 89.0 31.0 86.0 31.0 L86.0 31.0 C82.0 31.0 79.0 33.0 77.0 36.0 C76.0 33.0 73.0 31.0 69.0 31.0 L69.0 31.0 C66.0 31.0 63.0 33.0 61.0 36.0 C59.0 33.0 57.0 31.0 53.0 31.0 L53.0 31.0 C50.0 31.0 47.0 33.0 45.0 36.0 C43.0 33.0 40.0 31.0 36.0 31.0 L36.0 31.0 C34.0 31.0 32.0 31.0 31.0 31.0 L31.0 31.0 Z"></path>
<path fill="#ffcc77" fill-opacity="1.0"  filling="0" d="M31.0 31.0 L31.0 31.0 C27.0 31.0 22.0 33.0 19.0 37.0 C18.0 39.0 19.0 41.0 21.0 41.0 L100.0 47.0 L179.0 41.0 C181.0 41.0 182.0 39.0 181.0 37.0 C178.0 33.0 173.0 31.0 169.0 31.0 L169.0 31.0 C166.0 31.0 163.0 33.0 161.0 36.0 C159.0 33.0 156.0 31.0 153.0 31.0 L153.0 31.0 C149.0 31.0 146.0 33.0 144.0 36.0 C142.0 33.0 139.0 31.0 136.0 31.0 L136.0 31.0 C132.0 31.0 129.0 33.0 127.0 36.0 C126.0 33.0 123.0 31.0 119.0 31.0 L119.0 31.0 C116.0 31.0 113.0 33.0 111.0 36.0 C109.0 33.0 106.0 31.0 103.0 31.0 L103.0 31.0 C99.0 31.0 96.0 33.0 94.0 36.0 C92.0 33.0 89.0 31.0 86.0 31.0 L86.0 31.0 C82.0 31.0 79.0 33.0 77.0 36.0 C76.0 33.0 73.0 31.0 69.0 31.0 L69.0 31.0 C66.0 31.0 63.0 33.0 61.0 36.0 C59.0 33.0 57.0 31.0 53.0 31.0 L53.0 31.0 C50.0 31.0 47.0 33.0 45.0 36.0 C43.0 33.0 40.0 31.0 36.0 31.0 L36.0 31.0 C34.0 31.0 32.0 31.0 31.0 31.0 L31.0 31.0 Z"></path>
<path fill="#ffcc77" fill-opacity="1.0"  filling="0" d="M31.0 31.0 L31.0 31.0 C27.0 31.0 22.0 33.0 19.0 37.0 C18.0 39.0 19.0 41.0 21.0 41.0 L100.0 47.0 L179.0 41.0 C181.0 41.0 182.0 39.0 181.0 37.0 C178.0 33.0 173.0 31.0 169.0 31.0 L169.0 31.0 C166.0 31.0 163.0 33.0 161.0 36.0 C159.0 33.0 156.0 31.0 153.0 31.0 L153.0 31.0 C149.0 31.0 146.0 33.0 144.0 36.0 C142.0 33.0 139.0 31.0 136.0 31.0 L136.0 31.0 C132.0 31.0 129.0 33.0 127.0 36.0 C126.0 33.0 123.0 31.0 119.0 31.0 L119.0 31.0 C116.0 31.0 113.0 33.0 111.0 36.0 C109.0 33.0 106.0 31.0 103.0 31.0 L103.0 31.0 C99.0 31.0 96.0 33.0 94.0 36.0 C92.0 33.0 89.0 31.0 86.0 31.0 L86.0 31.0 C82.0 31.0 79.0 33.0 77.0 36.0 C76.0 33.0 73.0 31.0 69.0 31.0 L69.0 31.0 C66.0 31.0 63.0 33.0 61.0 36.0 C59.0 33.0 57.0 31.0 53.0 31.0 L53.0 31.0 C50.0 31.0 47.0 33.0 45.0 36.0 C43.0 33.0 40.0 31.0 36.0 31.0 L36.0 31.0 C34.0 31.0 32.0 31.0 31.0 31.0 L31.0 31.0 Z"></path>
<path fill="#ffcc77" fill-opacity="1.0"  filling="0" d="M31.0 31.0 L31.0 31.0 C27.0 31.0 22.0 33.0 19.0 37.0 C18.0 39.0 19.0 41.0 21.0 41.0 L100.0 47.0 L179.0 41.0 C181.0 41.0 182.0 39.0 181.0 37.0 C178.0 33.0 173.0 31.0 169.0 31.0 L169.0 31.0 C166.0 31.0 163.0 33.0 161.0 36.0 C159.0 33.0 156.0 31.0 153.0 31.0 L153.0 31.0 C149.0 31.0 146.0 33.0 144.0 36.0 C142.0 33.0 139.0 31.0 136.0 31.0 L136.0 31.0 C132.0 31.0 129.0 33.0 127.0 36.0 C126.0 33.0 123.0 31.0 119.0 31.0 L119.0 31.0 C116.0 31.0 113.0 33.0 111.0 36.0 C109.0 33.0 106.0 31.0 103.0 31.0 L103.0 31.0 C99.0 31.0 96.0 33.0 94.0 36.0 C92.0 33.0 89.0 31.0 86.0 31.0 L86.0 31.0 C82.0 31.0 79.0 33.0 77.0 36.0 C76.0 33.0 73.0 31.0 69.0 31.0 L69.0 31.0 C66.0 31.0 63.0 33.0 61.0 36.0 C59.0 33.0 57.0 31.0 53.0 31.0 L53.0 31.0 C50.0 31.0 47.0 33.0 45.0 36.0 C43.0 33.0 40.0 31.0 36.0 31.0 L36.0 31.0 C34.0 31.0 32.0 31.0 31.0 31.0 L31.0 31.0 Z"></path>
<path fill="#ffcc77" fill-opacity="1.0"  filling="0" d="M31.0 31.0 L31.0 31.0 C27.0 31.0 22.0 33.0 19.0 37.0 C18.0 39.0 19.0 41.0 21.0 41.0 L100.0 47.0 L179.0 41.0 C181.0 41.0 182.0 39.0 181.0 37.0 C178.0 33.0 173.0 31.0 169.0 31.0 L169.0 31.0 C166.0 31.0 163.0 33.0 161.0 36.0 C159.0 33.0 156.0 31.0 153.0 31.0 L153.0 31.0 C149.0 31.0 146.0 33.0 144.0 36.0 C142.0 33.0 139.0 31.0 136.0 31.0 L136.0 31.0 C132.0 31.0 129.0 33.0 127.0 36.0 C126.0 33.0 123.0 31.0 119.0 31.0 L119.0 31.0 C116.0 31.0 113.0 33.0 111.0 36.0 C109.0 33.0 106.0 31.0 103.0 31.0 L103.0 31.0 C99.0 31.0 96.0 33.0 94.0 36.0 C92.0 33.0 89.0 31.0 86.0 31.0 L86.0 31.0 C82.0 31.0 79.0 33.0 77.0 36.0 C76.0 33.0 73.0 31.0 69.0 31.0 L69.0 31.0 C66.0 31.0 63.0 33.0 61.0 36.0 C59.0 33.0 57.0 31.0 53.0 31.0 L53.0 31.0 C50.0 31.0 47.0 33.0 45.0 36.0 C43.0 33.0 40.0 31.0 36.0 31.0 L36.0 31.0 C34.0 31.0 32.0 31.0 31.0 31.0 L31.0 31.0 Z"></path>
<path fill="#ffcc77" fill-opacity="1.0"  filling="0" d="M31.0 31.0 L31.0 31.0 C27.0 31.0 22.0 33.0 19.0 37.0 C18.0 39.0 19.0 41.0 21.0 41.0 L100.0 47.0 L179.0 41.0 C181.0 41.0 182.0 39.0 181.0 37.0 C178.0 33.0 173.0 31.0 169.0 31.0 L169.0 31.0 C166.0 31.0 163.0 33.0 161.0 36.0 C159.0 33.0 156.0 31.0 153.0 31.0 L153.0 31.0 C149.0 31.0 146.0 33.0 144.0 36.0 C142.0 33.0 139.0 31.0 136.0 31.0 L136.0 31.0 C132.0 31.0 129.0 33.0 127.0 36.0 C126.0 33.0 123.0 31.0 119.0 31.0 L119.0 31.0 C116.0 31.0 113.0 33.0 111.0 36.0 C109.0 33.0 106.0 31.0 103.0 31.0 L103.0 31.0 C99.0 31.0 96.0 33.0 94.0 36.0 C92.0 33.0 89.0 31.0 86.0 31.0 L86.0 31.0 C82.0 31.0 79.0 33.0 77.0 36.0 C76.0 33.0 73.0 31.0 69.0 31.0 L69.0 31.0 C66.0 31.0 63.0 33.0 61.0 36.0 C59.0 33.0 57.0 31.0 53.0 31.0 L53.0 31.0 C50.0 31.0 47.0 33.0 45.0 36.0 C43.0 33.0 40.0 31.0 36.0 31.0 L36.0 31.0 C34.0 31.0 32.0 31.0 31.0 31.0 L31.0 31.0 Z"></path>
<path fill="#ffcc77" fill-opacity="1.0"  filling="0" d="M31.0 31.0 L31.0 31.0 C27.0 31.0 22.0 33.0 19.0 37.0 C18.0 39.0 19.0 41.0 21.0 41.0 L100.0 47.0 L179.0 41.0 C181.0 41.0 182.0 39.0 181.0 37.0 C178.0 33.0 173.0 31.0 169.0 31.0 L169.0 31.0 C166.0 31.0 163.0 33.0 161.0 36.0 C159.0 33.0 156.0 31.0 153.0 31.0 L153.0 31.0 C149.0 31.0 146.0 33.0 144.0 36.0 C142.0 33.0 139.0 31.0 136.0 31.0 L136.0 31.0 C132.0 31.0 129.0 33.0 127.0 36.0 C126.0 33.0 123.0 31.0 119.0 31.0 L119.0 31.0 C116.0 31.0 113.0 33.0 111.0 36.0 C109.0 33.0 106.0 31.0 103.0 31.0 L103.0 31.0 C99.0 31.0 96.0 33.0 94.0 36.0 C92.0 33.0 89.0 31.0 86.0 31.0 L86.0 31.0 C82.0 31.0 79.0 33.0 77.0 36.0 C76.0 33.0 73.0 31.0 69.0 31.0 L69.0 31.0 C66.0 31.0 63.0 33.0 61.0 36.0 C59.0 33.0 57.0 31.0 53.0 31.0 L53.0 31.0 C50.0 31.0 47.0 33.0 45.0 36.0 C43.0 33.0 40.0 31.0 36.0 31.0 L36.0 31.0 C34.0 31.0 32.0 31.0 31.0 31.0 L31.0 31.0 Z"></path>
<path fill="#ffcc77" fill-opacity="1.0"  filling="0" d="M31.0 31.0 L31.0 31.0 C27.0 31.0 22.0 33.0 19.0 37.0 C18.0 39.0 19.0 41.0 21.0 41.0 L100.0 47.0 L179.0 41.0 C181.0 41.0 182.0 39.0 181.0 37.0 C178.0 33.0 173.0 31.0 169.0 31.0 L169.0 31.0 C166.0 31.0 163.0 33.0 161.0 36.0 C159.0 33.0 156.0 31.0 153.0 31.0 L153.0 31.0 C149.0 31.0 146.0 33.0 144.0 36.0 C142.0 33.0 139.0 31.0 136.0 31.0 L136.0 31.0 C132.0 31.0 129.0 33.0 127.0 36.0 C126.0 33.0 123.0 31.0 119.0 31.0 L119.0 31.0 C116.0 31.0 113.0 33.0 111.0 36.0 C109.0 33.0 106.0 31.0 103.0 31.0 L103.0 31.0 C99.0 31.0 96.0 33.0 94.0 36.0 C92.0 33.0 89.0 31.0 86.0 31.0 L86.0 31.0 C82.0 31.0 79.0 33.0 77.0 36.0 C76.0 33.0 73.0 31.0 69.0 31.0 L69.0 31.0 C66.0 31.0 63.0 33.0 61.0 36.0 C59.0 33.0 57.0 31.0 53.0 31.0 L53.0 31.0 C50.0 31.0 47.0 33.0 45.0 36.0 C43.0 33.0 40.0 31.0 36.0 31.0 L36.0 31.0 C34.0 31.0 32.0 31.0 31.0 31.0 L31.0 31.0 Z"></path>
<path fill="#ffcc77" fill-opacity="1.0"  filling="0" d="M31.0 31.0 L31.0 31.0 C27.0 31.0 22.0 33.0 19.0 37.0 C18.0 39.0 19.0 41.0 21.0 41.0 L100.0 47.0 L179.0 41.0 C181.0 41.0 182.0 39.0 181.0 37.0 C178.0 33.0 173.0 31.0 169.0 31.0 L169.0 31.0 C166.0 31.0 163.0 33.0 161.0 36.0 C159.0 33.0 156.0 31.0 153.0 31.0 L153.0 31.0 C149.0 31.0 146.0 33.0 144.0 36.0 C142.0 33.0 139.0 31.0 136.0 31.0 L136.0 31.0 C132.0 31.0 129.0 33.0 127.0 36.0 C126.0 33.0 123.0 31.0 119.0 31.0 L119.0 31.0 C116.0 31.0 113.0 33.0 111.0 36.0 C109.0 33.0 106.0 31.0 103.0 31.0 L103.0 31.0 C99.0 31.0 96.0 33.0 94.0 36.0 C92.0 33.0 89.0 31.0 86.0 31.0 L86.0 31.0 C82.0 31.0 79.0 33.0 77.0 36.0 C76.0 33.0 73.0 31.0 69.0 31.0 L69.0 31.0 C66.0 31.0 63.0 33.0 61.0 36.0 C59.0 33.0 57.0 31.0 53.0 31.0 L53.0 31.0 C50.0 31.0 47.0 33.0 45.0 36.0 C43.0 33.0 40.0 31.0 36.0 31.0 L36.0 31.0 C34.0 31.0 32.0 31.0 31.0 31.0 L31.0 31.0 Z"></path>
<path fill="#ffcc77" fill-opacity="1.0"  filling="0" d="M31.0 31.0 L31.0 31.0 C27.0 31.0 22.0 33.0 19.0 37.0 C18.0 39.0 19.0 41.0 21.0 41.0 L100.0 47.0 L179.0 41.0 C181.0 41.0 182.0 39.0 181.0 37.0 C178.0 33.0 173.0 31.0 169.0 31.0 L169.0 31.0 C166.0 31.0 163.0 33.0 161.0 36.0 C159.0 33.0 156.0 31.0 153.0 31.0 L153.0 31.0 C149.0 31.0 146.0 33.0 144.0 36.0 C142.0 33.0 139.0 31.0 136.0 31.0 L136.0 31.0 C132.0 31.0 129.0 33.0 127.0 36.0 C126.0 33.0 123.0 31.0 119.0 31.0 L119.0 31.0 C116.0 31.0 113.0 33.0 111.0 36.0 C109.0 33.0 106.0 31.0 103.0 31.0 L103.0 31.0 C99.0 31.0 96.0 33.0 94.0 36.0 C92.0 33.0 89.0 31.0 86.0 31.0 L86.0 31.0 C82.0 31.0 79.0 33.0 77.0 36.0 C76.0 33.0 73.0 31.0 69.0 31.0 L69.0 31.0 C66.0 31.0 63.0 33.0 61.0 36.0 C59.0 33.0 57.0 31.0 53.0 31.0 L53.0 31.0 C50.0 31.0 47.0 33.0 45.0 36.0 C43.0 33.0 40.0 31.0 36.0 31.0 L36.0 31.0 C34.0 31.0 32.0 31.0 31.0 31.0 L31.0 31.0 Z"></path>
<path fill="#ffcc77" fill-opacity="1.0"  filling="0" d="M31.0 31.0 L31.0 31.0 C27.0 31.0 22.0 33.0 19.0 37.0 C18.0 39.0 19.0 41.0 21.0 41.0 L100.0 47.0 L179.0 41.0 C181.0 41.0 182.0 39.0 181.0 37.0 C178.0 33.0 173.0 31.0 169.0 31.0 L169.0 31.0 C166.0 31.0 163.0 33.0 161.0 36.0 C159.0 33.0 156.0 31.0 153.0 31.0 L153.0 31.0 C149.0 31.0 146.0 33.0 144.0 36.0 C142.0 33.0 139.0 31.0 136.0 31.0 L136.0 31.0 C132.0 31.0 129.0 33.0 127.0 36.0 C126.0 33.0 123.0 31.0 119.0 31.0 L119.0 31.0 C116.0 31.0 113.0 33.0 111.0 36.0 C109.0 33.0 106.0 31.0 103.0 31.0 L103.0 31.0 C99.0 31.0 96.0 33.0 94.0 36.0 C92.0 33.0 89.0 31.0 86.0 31.0 L86.0 31.0 C82.0 31.0 79.0 33.0 77.0 36.0 C76.0 33.0 73.0 31.0 69.0 31.0 L69.0 31.0 C66.0 31.0 63.0 33.0 61.0 36.0 C59.0 33.0 57.0 31.0 53.0 31.0 L53.0 31.0 C50.0 31.0 47.0 33.0 45.0 36.0 C43.0 33.0 40.0 31.0 36.0 31.0 L36.0 31.0 C34.0 31.0 32.0 31.0 31.0 31.0 L31.0 31.0 Z"></path>
<path fill="#ffcc77" fill-opacity="1.0"  filling="0" d="M31.0 31.0 L31.0 31.0 C27.0 31.0 22.0 33.0 19.0 37.0 C18.0 39.0 19.0 41.0 21.0 41.0 L100.0 47.0 L179.0 41.0 C181.0 41.0 182.0 39.0 181.0 37.0 C178.0 33.0 173.0 31.0 169.0 31.0 L169.0 31.0 C166.0 31.0 163.0 33.0 161.0 36.0 C159.0 33.0 156.0 31.0 153.0 31.0 L153.0 31.0 C149.0 31.0 146.0 33.0 144.0 36.0 C142.0 33.0 139.0 31.0 136.0 31.0 L136.0 31.0 C132.0 31.0 129.0 33.0 127.0 36.0 C126.0 33.0 123.0 31.0 119.0 31.0 L119.0 31.0 C116.0 31.0 113.0 33.0 111.0 36.0 C109.0 33.0 106.0 31.0 103.0 31.0 L103.0 31.0 C99.0 31.0 96.0 33.0 94.0 36.0 C92.0 33.0 89.0 31.0 86.0 31.0 L86.0 31.0 C82.0 31.0 79.0 33.0 77.0 36.0 C76.0 33.0 73.0 31.0 69.0 31.0 L69.0 31.0 C66.0 31.0 63.0 33.0 61.0 36.0 C59.0 33.0 57.0 31.0 53.0 31.0 L53.0 31.0 C50.0 31.0 47.0 33.0 45.0 36.0 C43.0 33.0 40.0 31.0 36.0 31.0 L36.0 31.0 C34.0 31.0 32.0 31.0 31.0 31.0 L31.0 31.0 Z"></path>
<path fill="#000000" fill-opacity="1.0"  filling="0" d="M31.0 31.0 L31.0 31.0 C27.0 31.0 22.0 33.0 19.0 37.0 C18.0 39.0 19.0 41.0 21.0 41.0 L100.0 47.0 L179.0 41.0 C181.0 41.0 182.0 39.0 181.0 37.0 C178.0 33.0 173.0 31.0 169.0 31.0 L169.0 31.0 C166.0 31.0 163.0 33.0 161.0 36.0 C159.0 33.0 156.0 31.0 153.0 31.0 L153.0 31.0 C149.0 31.0 146.0 33.0 144.0 36.0 C142.0 33.0 139.0 31.0 136.0 31.0 L136.0 31.0"></path></svg>