<svg xmlns="http://www.w3.org/2000/svg" viewBox="0.0 0.0 200.0 200.0" height="200px" width="200px"><path fill="#556666" fill-opacity="1.0"  filling="0" d="M133.0 138.0 L67.0 138.0 C58.0 138.0 51.0 131.0 51.0 121.0 C51.0 111.0 58.0 103.0 67.0 103.0 L133.0 103.0 C142.0 103.0 149.0 111.0 149.0 121.0 C149.0 131.0 142.0 138.0 133.0 138.0 L133.0 138.0 Z"></path>
<path fill="#445555" fill-opacity="1.0"  filling="0" d="M133.0 138.0 L133.0 138.0 C142.0 138.0 149.0 131.0 149.0 121.0 C149.0 111.0 142.0 103.0 133.0 103.0 L133.0 103.0 C142.0 103.0 149.0 111.0 149.0 121.0 C149.0 131.0 142.0 138.0 133.0 138.0 L133.0 138.0 Z"></path>
<path fill="#bbbbbb" fill-opacity="1.0"  filling="0" d="M82.0 100.0 L118.0 100.0 L118.0 150.0 L82.0 150.0 L82.0 100.0 L82.0 100.0 Z"></path>
<path fill="#aaaaaa" fill-opacity="1.0"  filling="0" d="M82.0 150.0 L82.0 150.0 L118.0 150.0 L118.0 100.0 L118.0 100.0 L82.0 150.0 L82.0 150.0 Z"></path>
<path fill="#bbbbbb" fill-opacity="1.0"  filling="0" d="M123.0 150.0 L77.0 150.0 C72.0 150.0 68.0 146.0 68.0 141.0 L68.0 134.0 C68.0 130.0 72.0 126.0 77.0 126.0 L123.0 126.0 C128.0 126.0 132.0 130.0 132.0 134.0 L132.0 141.0 C132.0 146.0 128.0 150.0 123.0 150.0 L123.0 150.0 Z"></path>
<path fill="#bbbbbb" fill-opacity="1.0"  filling="0" d="M123.0 150.0 L77.0 150.0 C72.0 150.0 68.0 146.0 68.0 141.0 L68.0 134.0 C68.0 130.0 72.0 126.0 77.0 126.0 L123.0 126.0 C128.0 126.0 132.0 130.0 132.0 134.0 L132.0 141.0 C132.0 146.0 128.0 150.0 123.0 150.0 L123.0 150.0 Z"></path>
<path fill="#aaaaaa" fill-opacity="1.0"  filling="0" d="M123.0 126.0 L100.0 126.0 L100.0 150.0 L123.0 150.0 C128.0 150.0 132.0 146.0 132.0 141.0 L132.0 134.0 C132.0 130.0 128.0 126.0 123.0 126.0 L123.0 126.0 Z"></path>
<path fill="#bbbbbb" fill-opacity="1.0"  filling="0" d="M96.0 95.0 L76.0 95.0 C75.0 95.0 74.0 96.0 74.0 97.0 L74.0 122.0 C74.0 123.0 75.0 124.0 76.0 124.0 L86.0 124.0 C87.0 124.0 88.0 123.0 88.0 122.0 L88.0 112.0 C88.0 112.0 88.0 112.0 88.0 112.0 L96.0 112.0 C97.0 112.0 98.0 111.0 98.0 110.0 L98.0 97.0 C98.0 96.0 97.0 95.0 96.0 95.0 L96.0 95.0 Z"></path>
<path fill="#aaaaaa" fill-opacity="1.0"  filling="0" d="M124.0 95.0 L104.0 95.0 C103.0 95.0 103.0 96.0 103.0 97.0 L103.0 110.0 C103.0 111.0 103.0 112.0 104.0 112.0 L112.0 112.0 C112.0 112.0 112.0 112.0 112.0 112.0 L112.0 122.0 C112.0 123.0 113.0 124.0 114.0 124.0 L124.0 124.0 C125.0 124.0 126.0 123.0 126.0 122.0 L126.0 97.0 C126.0 96.0 125.0 95.0 124.0 95.0 L124.0 95.0 Z"></path>
<path fill="#556666" fill-opacity="1.0"  filling="0" d="M124.0 130.0 L113.0 130.0 C112.0 130.0 111.0 129.0 111.0 128.0 L111.0 123.0 C111.0 119.0 114.0 116.0 117.0 116.0 C122.0 116.0 126.0 119.0 126.0 123.0 L126.0 128.0 C126.0 129.0 125.0 130.0 124.0 130.0 L124.0 130.0 Z"></path>
<path fill="#556666" fill-opacity="1.0"  filling="0" d="M87.0 130.0 L76.0 130.0 C75.0 130.0 74.0 129.0 74.0 128.0 L74.0 123.0 C74.0 119.0 78.0 116.0 82.0 116.0 C86.0 116.0 89.0 119.0 89.0 123.0 L89.0 128.0 C89.0 129.0 88.0 130.0 87.0 130.0 L87.0 130.0 Z"></path>
<path fill="#556666" fill-opacity="1.0"  filling="0" d="M124.0 130.0 L113.0 130.0 C112.0 130.0 111.0 129.0 111.0 128.0 L111.0 123.0 C111.0 119.0 114.0 116.0 117.0 116.0 C122.0 116.0 126.0 119.0 126.0 123.0 L126.0 128.0 C126.0 129.0 125.0 130.0 124.0 130.0 L124.0 130.0 Z"></path>
<path fill="#556666" fill-opacity="1.0"  filling="0" d="M87.0 130.0 L76.0 130.0 C75.0 130.0 74.0 129.0 74.0 128.0 L74.0 123.0 C74.0 119.0 78.0 116.0 82.0 116.0 C86.0 116.0 89.0 119.0 89.0 123.0 L89.0 128.0 C89.0 129.0 88.0 130.0 87.0 130.0 L87.0 130.0 Z"></path>
<path fill="#556666" fill-opacity="1.0"  filling="0" d="M124.0 98.0 L76.0 98.0 C69.0 98.0 63.0 92.0 63.0 84.0 L63.0 58.0 C63.0 48.0 70.0 41.0 79.0 41.0 L121.0 41.0 C130.0 41.0 137.0 48.0 137.0 58.0 L137.0 84.0 C137.0 92.0 131.0 98.0 124.0 98.0 L124.0 98.0 Z"></path>
<path fill="#556666" fill-opacity="1.0"  filling="0" d="M124.0 98.0 L76.0 98.0 C69.0 98.0 63.0 92.0 63.0 84.0 L63.0 58.0 C63.0 48.0 70.0 41.0 79.0 41.0 L121.0 41.0 C130.0 41.0 137.0 48.0 137.0 58.0 L137.0 84.0 C137.0 92.0 131.0 98.0 124.0 98.0 L124.0 98.0 Z"></path>
<path fill="#445555" fill-opacity="1.0"  filling="0" d="M121.0 41.0 L100.0 41.0 L100.0 98.0 L124.0 98.0 C131.0 98.0 137.0 92.0 137.0 84.0 L137.0 58.0 C137.0 48.0 130.0 41.0 121.0 41.0 L121.0 41.0 Z"></path>
<path fill="#bbbbbb" fill-opacity="1.0"  filling="0" d="M110.0 74.0 L90.0 74.0 C89.0 74.0 88.0 73.0 88.0 72.0 L88.0 53.0 C88.0 52.0 89.0 51.0 90.0 51.0 L110.0 51.0 C111.0 51.0 112.0 52.0 112.0 53.0 L112.0 72.0 C112.0 73.0 111.0 74.0 110.0 74.0 L110.0 74.0 Z"></path>
<path fill="#bbbbbb" fill-opacity="1.0"  filling="0" d="M110.0 74.0 L90.0 74.0 C89.0 74.0 88.0 73.0 88.0 72.0 L88.0 53.0 C88.0 52.0 89.0 51.0 90.0 51.0 L110.0 51.0 C111.0 51.0 112.0 52.0 112.0 53.0 L112.0 72.0 C112.0 73.0 111.0 74.0 110.0 74.0 L110.0 74.0 Z"></path>
<path fill="#aaaaaa" fill-opacity="1.0"  filling="0" d="M110.0 74.0 L100.0 74.0 L100.0 51.0 L110.0 51.0 C111.0 51.0 112.0 52.0 112.0 53.0 L112.0 72.0 C112.0 73.0 111.0 74.0 110.0 74.0 L110.0 74.0 Z"></path>
<path fill="#888888" fill-opacity="1.0"  filling="0" d="M77.0 69.0 A7.0 7.0 0.0 1 0 90.0 69.0 A7.0 7.0 0.0 1 0 77.0 69.0 L77.0 69.0 Z"></path>
<path fill="#888888" fill-opacity="1.0"  filling="0" d="M110.0 69.0 A7.0 7.0 0.0 1 0 123.0 69.0 A7.0 7.0 0.0 1 0 110.0 69.0 L110.0 69.0 Z"></path>
<path fill="#bbbbbb" fill-opacity="1.0"  filling="0" d="M110.0 74.0 L90.0 74.0 C89.0 74.0 88.0 73.0 88.0 72.0 L88.0 53.0 C88.0 52.0 89.0 51.0 90.0 51.0 L110.0 51.0 C111.0 51.0 112.0 52.0 112.0 53.0 L112.0 72.0 C112.0 73.0 111.0 74.0 110.0 74.0 L110.0 74.0 Z"></path>
<path fill="#aaaaaa" fill-opacity="1.0"  filling="0" d="M110.0 74.0 L100.0 74.0 L100.0 51.0 L110.0 51.0 C111.0 51.0 112.0 52.0 112.0 53.0 L112.0 72.0 C112.0 73.0 111.0 74.0 110.0 74.0 L110.0 74.0 Z"></path>
<path fill="#bbbbbb" fill-opacity="1.0"  filling="0" d="M110.0 74.0 L90.0 74.0 C89.0 74.0 88.0 73.0 88.0 72.0 L88.0 53.0 C88.0 52.0 89.0 51.0 90.0 51.0 L110.0 51.0 C111.0 51.0 112.0 52.0 112.0 53.0 L112.0 72.0 C112.0 73.0 111.0 74.0 110.0 74.0 L110.0 74.0 Z"></path>
<path fill="#aaaaaa" fill-opacity="1.0"  filling="0" d="M110.0 74.0 L100.0 74.0 L100.0 51.0 L110.0 51.0 C111.0 51.0 112.0 52.0 112.0 53.0 L112.0 72.0 C112.0 73.0 111.0 74.0 110.0 74.0 L110.0 74.0 Z"></path>
<path fill="#bbbbbb" fill-opacity="1.0"  filling="0" d="M110.0 74.0 L90.0 74.0 C89.0 74.0 88.0 73.0 88.0 72.0 L88.0 53.0 C88.0 52.0 89.0 51.0 90.0 51.0 L110.0 51.0 C111.0 51.0 112.0 52.0 112.0 53.0 L112.0 72.0 C112.0 73.0 111.0 74.0 110.0 74.0 L110.0 74.0 Z"></path>
<path fill="#aaaaaa" fill-opacity="1.0"  filling="0" d="M110.0 74.0 L100.0 74.0 L100.0 51.0 L110.0 51.0 C111.0 51.0 112.0 52.0 112.0 53.0 L112.0 72.0 C112.0 73.0 111.0 74.0 110.0 74.0 L110.0 74.0 Z"></path>
<path fill="#bbbbbb" fill-opacity="1.0"  filling="0" d="M110.0 74.0 L90.0 74.0 C89.0 74.0 88.0 73.0 88.0 72.0 L88.0 53.0 C88.0 52.0 89.0 51.0 90.0 51.0 L110.0 51.0 C111.0 51.0 112.0 52.0 112.0 53.0 L112.0 72.0 C112.0 73.0 111.0 74.0 110.0 74.0 L110.0 74.0 Z"></path>
<path fill="#aaaaaa" fill-opacity="1.0"  filling="0" d="M110.0 74.0 L100.0 74.0 L100.0 51.0 L110.0 51.0 C111.0 51.0 112.0 52.0 112.0 53.0 L112.0 72.0 C112.0 73.0 111.0 74.0 110.0 74.0 L110.0 74.0 Z"></path>
<path fill="#bbbbbb" fill-opacity="1.0"  filling="0" d="M110.0 74.0 L90.0 74.0 C89.0 74.0 88.0 73.0 88.0 72.0 L88.0 53.0 C88.0 52.0 89.0 51.0 90.0 51.0 L110.0 51.0 C111.0 51.0 112.0 52.0 112.0 53.0 L112.0 72.0 C112.0 73.0 111.0 74.0 110.0 74.0 L110.0 74.0 Z"></path>
<path fill="#aaaaaa" fill-opacity="1.0"  filling="0" d="M110.0 74.0 L100.0 74.0 L100.0 51.0 L110.0 51.0 C111.0 51.0 112.0 52.0 112.0 53.0 L112.0 72.0 C112.0 73.0 111.0 74.0 110.0 74.0 L110.0 74.0 Z"></path>
<path fill="#bbbbbb" fill-opacity="1.0"  filling="0" d="M110.0 74.0 L90.0 74.0 C89.0 74.0 88.0 73.0 88.0 72.0 L88.0 53.0 C88.0 52.0 89.0 51.0 90.0 51.0 L110.0 51.0 C111.0 51.0 112.0 52.0 112.0 53.0 L112.0 72.0 C112.0 73.0 111.0 74.0 110.0 74.0 L110.0 74.0 Z"></path>
<path fill="#aaaaaa" fill-opacity="1.0"  filling="0" d="M110.0 74.0 L100.0 74.0 L100.0 51.0 L110.0 51.0 C111.0 51.0 112.0 52.0 112.0 53.0 L112.0 72.0 C112.0 73.0 111.0 74.0 110.0 74.0 L110.0 74.0 Z"></path>
<path fill="#bbbbbb" fill-opacity="1.0"  filling="0" d="M110.0 74.0 L90.0 74.0 C89.0 74.0 88.0 73.0 88.0 72.0 L88.0 53.0 C88.0 52.0 89.0 51.0 90.0 51.0 L110.0 51.0 C111.0 51.0 112.0 52.0 112.0 53.0 L112.0 72.0 C112.0 73.0 111.0 74.0 110.0 74.0 L110.0 74.0 Z"></path>
<path fill="#aaaaaa" fill-opacity="1.0"  filling="0" d="M110.0 74.0 L100.0 74.0 L100.0 51.0 L110.0 51.0 C111.0 51.0 112.0 52.0 112.0 53.0 L112.0 72.0 C112.0 73.0 111.0 74.0 110.0 74.0 L110.0 74.0 Z"></path>
<path fill="#bbbbbb" fill-opacity="1.0"  filling="0" d="M110.0 74.0 L90.0 74.0 C89.0 74.0 88.0 73.0 88.0 72.0 L88.0 53.0 C88.0 52.0 89.0 51.0 90.0 51.0 L110.0 51.0 C111.0 51.0 112.0 52.0 112.0 53.0 L112.0 72.0 C112.0 73.0 111.0 74.0 110.0 74.0 L110.0 74.0 Z"></path>
<path fill="#aaaaaa" fill-opacity="1.0"  filling="0" d="M110.0 74.0 L100.0 74.0 L100.0 51.0 L110.0 51.0 C111.0 51.0 112.0 52.0 112.0 53.0 L112.0 72.0 C112.0 73.0 111.0 74.0 110.0 74.0 L110.0 74.0 Z"></path>
<path fill="#bbbbbb" fill-opacity="1.0"  filling="0" d="M110.0 74.0 L90.0 74.0 C89.0 74.0 88.0 73.0 88.0 72.0 L88.0 53.0 C88.0 52.0 89.0 51.0 90.0 51.0 L110.0 51.0 C111.0 51.0 112.0 52.0 112.0 53.0 L112.0 72.0 C112.0 73.0 111.0 74.0 110.0 74.0 L110.0 74.0 Z"></path>
<path fill="#aaaaaa" fill-opacity="1.0"  filling="0" d="M110.0 74.0 L100.0 74.0 L100.0 51.0 L110.0 51.0 C111.0 51.0 112.0 52.0 112.0 53.0 L112.0 72.0 C112.0 73.0 111.0 74.0 110.0 74.0 L110.0 74.0 Z"></path>
<path fill="#bbbbbb" fill-opacity="1.0"  filling="0" d="M110.0 74.0 L90.0 74.0 C89.0 74.0 88.0 73.0 88.0 72.0 L88.0 53.0 C88.0 52.0 89.0 51.0 90.0 51.0 L110.0 51.0 C111.0 51.0 112.0 52.0 112.0 53.0 L112.0 72.0 C112.0 73.0 111.0 74.0 110.0 74.0 L110.0 74.0 Z"></path>
<path fill="#aaaaaa" fill-opacity="1.0"  filling="0" d="M110.0 74.0 L100.0 74.0 L100.0 51.0 L110.0 51.0 C111.0 51.0 112.0 52.0 112.0 53.0 L112.0 72.0 C112.0 73.0 111.0 74.0 110.0 74.0 L110.0 74.0 Z"></path>
<path fill="#bbbbbb" fill-opacity="1.0"  filling="0" d="M110.0 74.0 L90.0 74.0 C89.0 74.0 88.0 73.0 88.0 72.0 L88.0 53.0 C88.0 52.0 89.0 51.0 90.0 51.0 L110.0 51.0 C111.0 51.0 112.0 52.0 112.0 53.0 L112.0 72.0 C112.0 73.0 111.0 74.0 110.0 74.0 L110.0 74.0 Z"></path>
<path fill="#aaaaaa" fill-opacity="1.0"  filling="0" d="M110.0 74.0 L100.0 74.0 L100.0 51.0 L110.0 51.0 C111.0 51.0 112.0 52.0 112.0 53.0 L112.0 72.0 C112.0 73.0 111.0 74.0 110.0 74.0 L110.0 74.0 Z"></path>
<path fill="#bbbbbb" fill-opacity="1.0"  filling="0" d="M110.0 74.0 L90.0 74.0 C89.0 74.0 88.0 73.0 88.0 72.0 L88.0 53.0 C88.0 52.0 89.0 51.0 90.0 51.0 L110.0 51.0 C111.0 51.0 112.0 52.0 112.0 53.0 L112.0 72.0 C112.0 73.0 111.0 74.0 110.0 74.0 L110.0 74.0 Z"></path>
<path fill="#aaaaaa" fill-opacity="1.0"  filling="0" d="M110.0 74.0 L100.0 74.0 L100.0 51.0 L110.0 51.0 C111.0 51.0 112.0 52.0 112.0 53.0 L112.0 72.0 C112.0 73.0 111.0 74.0 110.0 74.0 L110.0 74.0 Z"></path>
<path fill="#000000" fill-opacity="1.0"  filling="0" d="M110.0 74.0 L90.0 74.0 C89.0 74.0 88.0 73.0 88.0 72.0 L88.0 53.0 C88.0 52.0 89.0 51.0 90.0 51.0 L110.0 51.0 C111.0 51.0 112.0 52.0 112.0 53.0 L112.0 72.0 C112.0 73.0 111.0 74.0 110.0 74.0 L110.0 74.0 Z"></path></svg>