<svg xmlns="http://www.w3.org/2000/svg" viewBox="0.0 0.0 200.0 200.0" height="200px" width="200px"><path fill="#ffffff" fill-opacity="1.0"  filling="0" d="M0.0 0.0 L199.0 0.0 L199.0 199.0 L0.0 199.0 L0.0 0.0 L0.0 0.0 Z"></path>
<path fill="#ffffff" fill-opacity="1.0"  filling="0" d="M0.0 0.0 L199.0 0.0 L199.0 199.0 L0.0 199.0 L0.0 0.0 L0.0 0.0 Z"></path>
<path fill="#667777" fill-opacity="1.0"  filling="0" d="M100.0 32.0 A7.0 7.0 0.0 1 0 93.0 25.0 A7.0 7.0 0.0 0 0 100.0 32.0 L100.0 32.0 Z"></path>
<path fill="#333344" fill-opacity="1.0"  filling="0" d="M100.0 36.0 A9.0 9.0 0.0 1 1 110.0 25.0 A9.0 9.0 0.0 0 1 100.0 36.0 L100.0 36.0 Z M100.0 28.0 A3.0 3.0 0.0 1 0 104.0 25.0 A3.0 3.0 0.0 0 0 100.0 28.0 L100.0 28.0 Z"></path>
<path fill="#667777" fill-opacity="1.0"  filling="0" d="M100.0 32.0 A7.0 7.0 0.0 1 0 93.0 25.0 A7.0 7.0 0.0 0 0 100.0 32.0 L100.0 32.0 Z"></path>
<path fill="#333344" fill-opacity="1.0"  filling="0" d="M100.0 36.0 A9.0 9.0 0.0 1 1 110.0 25.0 A9.0 9.0 0.0 0 1 100.0 36.0 L100.0 36.0 Z M100.0 28.0 A3.0 3.0 0.0 1 0 104.0 25.0 A3.0 3.0 0.0 0 0 100.0 28.0 L100.0 28.0 Z"></path>
<path fill="#667777" fill-opacity="1.0"  filling="0" d="M100.0 32.0 A7.0 7.0 0.0 1 0 93.0 25.0 A7.0 7.0 0.0 0 0 100.0 32.0 L100.0 32.0 Z"></path>
<path fill="#333344" fill-opacity="1.0"  filling="0" d="M100.0 36.0 A9.0 9.0 0.0 1 1 110.0 25.0 A9.0 9.0 0.0 0 1 100.0 36.0 L100.0 36.0 Z M100.0 28.0 A3.0 3.0 0.0 1 0 104.0 25.0 A3.0 3.0 0.0 0 0 100.0 28.0 L100.0 28.0 Z"></path>
<path fill="#667777" fill-opacity="1.0"  filling="0" d="M100.0 32.0 A7.0 7.0 0.0 1 0 93.0 25.0 A7.0 7.0 0.0 0 0 100.0 32.0 L100.0 32.0 Z"></path>
<path fill="#333344" fill-opacity="1.0"  filling="0" d="M100.0 36.0 A9.0 9.0 0.0 1 1 110.0 25.0 A9.0 9.0 0.0 0 1 100.0 36.0 L100.0 36.0 Z M100.0 28.0 A3.0 3.0 0.0 1 0 104.0 25.0 A3.0 3.0 0.0 0 0 100.0 28.0 L100.0 28.0 Z"></path>
<path fill="#667777" fill-opacity="1.0"  filling="0" d="M100.0 32.0 A7.0 7.0 0.0 1 0 93.0 25.0 A7.0 7.0 0.0 0 0 100.0 32.0 L100.0 32.0 Z"></path>
<path fill="#333344" fill-opacity="1.0"  filling="0" d="M100.0 36.0 A9.0 9.0 0.0 1 1 110.0 25.0 A9.0 9.0 0.0 0 1 100.0 36.0 L100.0 36.0 Z M100.0 28.0 A3.0 3.0 0.0 1 0 104.0 25.0 A3.0 3.0 0.0 0 0 100.0 28.0 L100.0 28.0 Z"></path>
<path fill="#ffffff" fill-opacity="1.0"  filling="0" d="M13.0 13.0 L187.0 13.0 L187.0 187.0 L13.0 187.0 L13.0 13.0 L13.0 13.0 Z"></path>
<path fill="#ffffff" fill-opacity="1.0"  filling="0" d="M13.0 13.0 L187.0 13.0 L187.0 187.0 L13.0 187.0 L13.0 13.0 L13.0 13.0 Z"></path>
<path fill="#ffffff" fill-opacity="1.0"  filling="0" d="M13.0 13.0 L187.0 13.0 L187.0 187.0 L13.0 187.0 L13.0 13.0 L13.0 13.0 Z"></path>
<path fill="#667777" fill-opacity="1.0"  filling="0" d="M100.0 168.0 A7.0 7.0 0.0 1 0 93.0 175.0 A7.0 7.0 0.0 0 0 100.0 168.0 L100.0 168.0 Z"></path>
<path fill="#333344" fill-opacity="1.0"  filling="0" d="M100.0 172.0 A9.0 9.0 0.0 1 1 90.0 175.0 A9.0 9.0 0.0 0 1 100.0 172.0 L100.0 172.0 Z M100.0 175.0 A3.0 3.0 0.0 1 0 96.0 175.0 A3.0 3.0 0.0 0 0 100.0 175.0 L100.0 175.0 Z"></path>
<path fill="#667777" fill-opacity="1.0"  filling="0" d="M100.0 168.0 A7.0 7.0 0.0 1 0 93.0 175.0 A7.0 7.0 0.0 0 0 100.0 168.0 L100.0 168.0 Z"></path>
<path fill="#333344" fill-opacity="1.0"  filling="0" d="M100.0 172.0 A9.0 9.0 0.0 1 1 90.0 175.0 A9.0 9.0 0.0 0 1 100.0 172.0 L100.0 172.0 Z M100.0 175.0 A3.0 3.0 0.0 1 0 96.0 175.0 A3.0 3.0 0.0 0 0 100.0 175.0 L100.0 175.0 Z"></path>
<path fill="#667777" fill-opacity="1.0"  filling="0" d="M100.0 168.0 A7.0 7.0 0.0 1 0 93.0 175.0 A7.0 7.0 0.0 0 0 100.0 168.0 L100.0 168.0 Z"></path>
<path fill="#333344" fill-opacity="1.0"  filling="0" d="M100.0 172.0 A9.0 9.0 0.0 1 1 90.0 175.0 A9.0 9.0 0.0 0 1 100.0 172.0 L100.0 172.0 Z M100.0 175.0 A3.0 3.0 0.0 1 0 96.0 175.0 A3.0 3.0 0.0 0 0 100.0 175.0 L100.0 175.0 Z"></path>
<path fill="#667777" fill-opacity="1.0"  filling="0" d="M100.0 168.0 A7.0 7.0 0.0 1 0 93.0 175.0 A7.0 7.0 0.0 0 0 100.0 168.0 L100.0 168.0 Z"></path>
<path fill="#333344" fill-opacity="1.0"  filling="0" d="M100.0 172.0 A9.0 9.0 0.0 1 1 90.0 175.0 A9.0 9.0 0.0 0 1 100.0 172.0 L100.0 172.0 Z M100.0 175.0 A3.0 3.0 0.0 1 0 96.0 175.0 A3.0 3.0 0.0 0 0 100.0 175.0 L100.0 175.0 Z"></path>
<path fill="#667777" fill-opacity="1.0"  filling="0" d="M100.0 168.0 A7.0 7.0 0.0 1 0 93.0 175.0 A7.0 7.0 0.0 0 0 100.0 168.0 L100.0 168.0 Z"></path>
<path fill="#333344" fill-opacity="1.0"  filling="0" d="M100.0 172.0 A9.0 9.0 0.0 1 1 90.0 175.0 A9.0 9.0 0.0 0 1 100.0 172.0 L100.0 172.0 Z M100.0 175.0 A3.0 3.0 0.0 1 0 96.0 175.0 A3.0 3.0 0.0 0 0 100.0 175.0 L100.0 175.0 Z"></path>
<path fill="#667777" fill-opacity="1.0"  filling="0" d="M100.0 168.0 A7.0 7.0 0.0 1 0 93.0 175.0 A7.0 7.0 0.0 0 0 100.0 168.0 L100.0 168.0 Z"></path>
<path fill="#333344" fill-opacity="1.0"  filling="0" d="M100.0 172.0 A9.0 9.0 0.0 1 1 90.0 175.0 A9.0 9.0 0.0 0 1 100.0 172.0 L100.0 172.0 Z M100.0 175.0 A3.0 3.0 0.0 1 0 96.0 175.0 A3.0 3.0 0.0 0 0 100.0 175.0 L100.0 175.0 Z"></path>
<path fill="#667777" fill-opacity="1.0"  filling="0" d="M100.0 168.0 A7.0 7.0 0.0 1 0 93.0 175.0 A7.0 7.0 0.0 0 0 100.0 168.0 L100.0 168.0 Z"></path>
<path fill="#333344" fill-opacity="1.0"  filling="0" d="M100.0 172.0 A9.0 9.0 0.0 1 1 90.0 175.0 A9.0 9.0 0.0 0 1 100.0 172.0 L100.0 172.0 Z M100.0 175.0 A3.0 3.0 0.0 1 0 96.0 175.0 A3.0 3.0 0.0 0 0 100.0 175.0 L100.0 175.0 Z"></path>
<path fill="#667777" fill-opacity="1.0"  filling="0" d="M100.0 168.0 A7.0 7.0 0.0 1 0 93.0 175.0 A7.0 7.0 0.0 0 0 100.0 168.0 L100.0 168.0 Z"></path>
<path fill="#333344" fill-opacity="1.0"  filling="0" d="M100.0 172.0 A9.0 9.0 0.0 1 1 90.0 175.0 A9.0 9.0 0.0 0 1 100.0 172.0 L100.0 172.0 Z M100.0 175.0 A3.0 3.0 0.0 1 0 96.0 175.0 A3.0 3.0 0.0 0 0 100.0 175.0 L100.0 175.0 Z"></path>
<path fill="#667777" fill-opacity="1.0"  filling="0" d="M123.0 150.0 L77.0 150.0 A11.0 11.0 0.0 0 1 66.0 139.0 L66.0 108.0 A11.0 11.0 0.0 0 1 77.0 97.0 L123.0 97.0 A11.0 11.0 0.0 0 1 134.0 108.0 L134.0 139.0 A11.0 11.0 0.0 0 1 123.0 150.0 L123.0 150.0 Z"></path>
<path fill="#333344" fill-opacity="1.0"  filling="0" d="M123.0 152.0 L77.0 152.0 A14.0 14.0 0.0 0 1 65.0 139.0 L65.0 108.0 A14.0 14.0 0.0 0 1 77.0 95.0 L123.0 95.0 A14.0 14.0 0.0 0 1 135.0 108.0 L135.0 139.0 A14.0 14.0 0.0 0 1 123.0 152.0 L123.0 152.0 Z M77.0 99.0 A9.0 9.0 0.0 0 0 70.0 108.0 L70.0 139.0 A9.0 9.0 0.0 0 0 77.0 147.0 L123.0 147.0 A9.0 9.0 0.0 0 0 130.0 139.0 L130.0 108.0 A9.0 9.0 0.0 0 0 123.0 99.0 L77.0 99.0 L77.0 99.0 Z"></path>
<path fill="#333344" fill-opacity="1.0"  filling="0" d="M133.0 138.0 L133.0 138.0 C132.0 138.0 131.0 137.0 130.0 136.0 C129.0 135.0 128.0 134.0 127.0 133.0 C126.0 132.0 125.0 131.0 124.0 130.0 C123.0 129.0 122.0 128.0 121.0 127.0 C120.0 126.0 119.0 125.0 118.0 124.0 C117.0 123.0 116.0 123.0 115.0 122.0 C114.0 121.0 113.0 121.0 112.0 120.0 C111.0 119.0 110.0 119.0 109.0 118.0 C108.0 118.0 107.0 117.0 106.0 116.0 C105.0 116.0 104.0 115.0 103.0 115.0 C102.0 114.0 101.0 114.0 100.0 113.0 C99.0 114.0 98.0 114.0 97.0 115.0 C96.0 115.0 95.0 116.0 94.0 116.0 C93.0 117.0 92.0 118.0 91.0 118.0 C90.0 119.0 89.0 119.0 88.0 120.0 C87.0 121.0 86.0 121.0 85.0 122.0 C84.0 123.0 83.0 123.0 82.0 124.0 C81.0 125.0 80.0 126.0 79.0 127.0 C78.0 128.0 77.0 129.0 76.0 130.0 C75.0 131.0 74.0 132.0 73.0 133.0 C72.0 134.0 71.0 135.0 70.0 136.0 C69.0 137.0 68.0 138.0 67.0 138.0 A3.0 3.0 0.0 0 1 66.0 133.0 C66.0 133.0 67.0 132.0 68.0 131.0 C69.0 130.0 70.0 129.0 71.0 128.0 C72.0 127.0 73.0 126.0 74.0 125.0 C75.0 124.0 76.0 123.0 77.0 122.0 C78.0 121.0 79.0 120.0 80.0 120.0 C81.0 119.0 82.0 118.0 83.0 118.0 C84.0 117.0 85.0 116.0 86.0 116.0 C87.0 115.0 88.0 114.0 89.0 114.0 C90.0 113.0 91.0 112.0 92.0 112.0 C93.0 111.0 94.0 111.0 95.0 110.0 C96.0 110.0 97.0 109.0 98.0 109.0 C99.0 109.0 100.0 108.0 100.0 108.0 C100.0 108.0 101.0 109.0 102.0 109.0 C103.0 109.0 104.0 110.0 105.0 110.0 C106.0 111.0 107.0 111.0 108.0 112.0 C109.0 112.0 110.0 113.0 111.0 114.0 C112.0 114.0 113.0 115.0 114.0 116.0 C115.0 116.0 116.0 117.0 117.0 118.0 C118.0 118.0 119.0 119.0 120.0 120.0 C121.0 120.0 122.0 121.0 123.0 122.0 C124.0 123.0 125.0 124.0 126.0 125.0 C127.0 126.0 128.0 127.0 129.0 128.0 C130.0 129.0 131.0 130.0 132.0 131.0 C133.0 132.0 134.0 133.0 134.0 133.0 A3.0 3.0 0.0 0 1 133.0 138.0 L133.0 138.0 L133.0 138.0 Z"></path>
<path fill="#000000" fill-opacity="1.0"  filling="0" d="M133.0 138.0 L133.0 138.0 C132.0 138.0 131.0 137.0 130.0 136.0 C129.0 135.0 128.0 134.0 127.0 133.0 C126.0 132.0 125.0 131.0 124.0 130.0 C123.0 129.0 122.0 128.0 121.0 127.0 C120.0 126.0 119.0 125.0 118.0 124.0 C117.0 123.0 116.0 123.0 115.0 122.0 C114.0 121.0 113.0 121.0 112.0 120.0 C111.0 119.0 110.0 119.0 109.0 118.0 C108.0 118.0 107.0 117.0 106.0 116.0 C105.0 116.0 104.0 115.0 103.0 115.0 C102.0 114.0 101.0 114.0 100.0 113.0 C99.0 114.0 98.0 114.0 97.0 115.0 C96.0 115.0 95.0 116.0 94.0 116.0 C93.0 117.0 92.0 118.0 91.0 118.0 C90.0 119.0 89.0 119.0 88.0 120.0 C87.0 121.0 86.0 121.0 85.0 122.0 C84.0 123.0 83.0 123.0 82.0 124.0 C81.0 125.0 80.0 126.0 79.0 127.0 C78.0 128.0 77.0 129.0 76.0 130.0 C75.0 131.0 74.0 132.0 73.0 133.0 C72.0 134.0 71.0 135.0 70.0 136.0 C69.0 137.0 68.0 138.0 67.0 138.0 A3.0 3.0 0.0 0 1 66.0 133.0 C66.0 133.0 67.0 132.0 68.0 131.0 C69.0 130.0 70.0 129.0 71.0 128.0 C72.0 127.0 73.0 126.0 74.0 125.0 C75.0 124.0 76.0 123.0 77.0 122.0"></path></svg>