<svg xmlns="http://www.w3.org/2000/svg" viewBox="0.0 0.0 200.0 200.0" height="200px" width="200px"><path fill="#556666" fill-opacity="1.0"  filling="0" d="M133.0 138.0 L67.0 138.0 C58.0 138.0 51.0 131.0 51.0 121.0 C51.0 111.0 58.0 103.0 67.0 103.0 L133.0 103.0 C142.0 103.0 149.0 111.0 149.0 121.0 C149.0 131.0 142.0 138.0 133.0 138.0 L133.0 138.0 Z"></path>
<path fill="#112222" fill-opacity="1.0"  filling="0" d="M133.0 138.0 L133.0 138.0 L133.0 138.0 L133.0 138.0 L133.0 138.0 C133.0 138.0 133.0 138.0 133.0 138.0 C133.0 138.0 133.0 138.0 133.0 138.0 L133.0 138.0 Z M133.0 103.0 L133.0 103.0 C133.0 103.0 133.0 103.0 133.0 103.0 C133.0 103.0 133.0 103.0 133.0 103.0 L133.0 103.0 Z M67.0 103.0 C58.0 103.0 51.0 111.0 51.0 121.0 C51.0 131.0 58.0 138.0 67.0 138.0 C67.0 138.0 67.0 138.0 67.0 138.0 C67.0 138.0 67.0 138.0 67.0 138.0 L133.0 138.0 C142.0 138.0 149.0 131.0 149.0 121.0 C149.0 111.0 142.0 103.0 133.0 103.0 L67.0 103.0 L67.0 103.0 Z"></path>
<path fill="#bbbbbb" fill-opacity="1.0"  filling="0" d="M123.0 150.0 L77.0 150.0 C72.0 150.0 67.0 146.0 67.0 140.0 L67.0 108.0 C67.0 102.0 72.0 97.0 77.0 97.0 L123.0 97.0 C128.0 97.0 133.0 102.0 133.0 108.0 L133.0 140.0 C133.0 146.0 128.0 150.0 123.0 150.0 L123.0 150.0 Z"></path>
<path fill="#112222" fill-opacity="1.0"  filling="0" d="M123.0 150.0 C128.0 150.0 133.0 146.0 133.0 140.0 L133.0 108.0 C133.0 102.0 128.0 97.0 123.0 97.0 L77.0 97.0 C72.0 97.0 67.0 102.0 67.0 108.0 L67.0 140.0 C67.0 146.0 72.0 150.0 77.0 150.0 L123.0 150.0 L123.0 150.0 Z M123.0 152.0 L77.0 152.0 C70.0 152.0 65.0 147.0 65.0 140.0 L65.0 108.0 C65.0 101.0 70.0 95.0 77.0 95.0 L123.0 95.0 C130.0 95.0 135.0 101.0 135.0 108.0 L135.0 140.0 C135.0 147.0 130.0 152.0 123.0 152.0 L123.0 152.0 Z"></path>
<path fill="#556666" fill-opacity="1.0"  filling="0" d="M123.0 97.0 L77.0 97.0 C72.0 97.0 67.0 90.0 67.0 84.0 L67.0 58.0 C67.0 49.0 72.0 41.0 79.0 41.0 L121.0 41.0 C128.0 41.0 133.0 49.0 133.0 58.0 L133.0 84.0 C133.0 90.0 128.0 97.0 123.0 97.0 L123.0 97.0 Z"></path>
<path fill="#112222" fill-opacity="1.0"  filling="0" d="M123.0 97.0 C128.0 97.0 133.0 90.0 133.0 84.0 L133.0 58.0 C133.0 49.0 128.0 41.0 121.0 41.0 L79.0 41.0 C72.0 41.0 67.0 49.0 67.0 58.0 L67.0 84.0 C67.0 90.0 72.0 97.0 77.0 97.0 L123.0 97.0 L123.0 97.0 Z M123.0 99.0 L77.0 99.0 C70.0 99.0 65.0 92.0 65.0 84.0 L65.0 58.0 C65.0 48.0 70.0 39.0 79.0 39.0 L121.0 39.0 C130.0 39.0 135.0 48.0 135.0 58.0 L135.0 84.0 C135.0 92.0 130.0 99.0 123.0 99.0 L123.0 99.0 Z"></path>
<path fill="#556666" fill-opacity="1.0"  filling="0" d="M94.0 34.0 L106.0 34.0 L106.0 41.0 L94.0 41.0 L94.0 34.0 L94.0 34.0 Z"></path>
<path fill="#112222" fill-opacity="1.0"  filling="0" d="M94.0 34.0 L106.0 34.0 L106.0 41.0 L94.0 41.0 L94.0 34.0 L94.0 34.0 Z"></path>
<path fill="#112222" fill-opacity="1.0"  filling="0" d="M100.0 97.0 C98.0 97.0 97.0 97.0 97.0 96.0 L97.0 32.0 C97.0 31.0 98.0 30.0 100.0 30.0 C102.0 30.0 103.0 31.0 103.0 32.0 L103.0 96.0 C103.0 97.0 102.0 97.0 100.0 97.0 L100.0 97.0 Z"></path>
<path fill="#112222" fill-opacity="1.0"  filling="0" d="M110.0 87.0 L90.0 87.0 C88.0 87.0 87.0 86.0 87.0 84.0 C87.0 83.0 88.0 82.0 90.0 82.0 L110.0 82.0 C112.0 82.0 113.0 83.0 113.0 84.0 C113.0 86.0 112.0 87.0 110.0 87.0 L110.0 87.0 Z"></path>
<path fill="#bbbbbb" fill-opacity="1.0"  filling="0" d="M77.0 68.0 A6.0 6.0 0.0 1 0 90.0 68.0 A6.0 6.0 0.0 1 0 77.0 68.0 L77.0 68.0 Z"></path>
<path fill="#112222" fill-opacity="1.0"  filling="0" d="M83.0 77.0 C78.0 77.0 74.0 73.0 74.0 68.0 C74.0 63.0 78.0 59.0 83.0 59.0 C88.0 59.0 92.0 63.0 92.0 68.0 C92.0 73.0 88.0 77.0 83.0 77.0 L83.0 77.0 Z M83.0 64.0 C81.0 64.0 79.0 66.0 79.0 68.0 C79.0 70.0 81.0 72.0 83.0 72.0 C85.0 72.0 87.0 70.0 87.0 68.0 C87.0 66.0 85.0 64.0 83.0 64.0 L83.0 64.0 Z"></path>
<path fill="#bbbbbb" fill-opacity="1.0"  filling="0" d="M110.0 68.0 A6.0 6.0 0.0 1 0 123.0 68.0 A6.0 6.0 0.0 1 0 110.0 68.0 L110.0 68.0 Z"></path>
<path fill="#112222" fill-opacity="1.0"  filling="0" d="M117.0 77.0 C112.0 77.0 108.0 73.0 108.0 68.0 C108.0 63.0 112.0 59.0 117.0 59.0 C122.0 59.0 126.0 63.0 126.0 68.0 C126.0 73.0 122.0 77.0 117.0 77.0 L117.0 77.0 Z M117.0 64.0 C115.0 64.0 113.0 66.0 113.0 68.0 C113.0 70.0 115.0 72.0 117.0 72.0 C119.0 72.0 121.0 70.0 121.0 68.0 C121.0 66.0 119.0 64.0 117.0 64.0 L117.0 64.0 Z"></path>
<path fill="#444455" fill-opacity="1.0"  filling="0" d="M102.0 117.0 L102.0 117.0 C101.0 118.0 99.0 118.0 98.0 117.0 L98.0 117.0 L98.0 117.0 C94.0 113.0 88.0 113.0 85.0 117.0 C81.0 121.0 81.0 127.0 85.0 131.0 L85.0 131.0 L97.0 136.0 C99.0 137.0 101.0 137.0 103.0 136.0 L115.0 131.0 L115.0 131.0 C119.0 127.0 119.0 121.0 115.0 117.0 C112.0 113.0 106.0 113.0 102.0 117.0 L102.0 117.0 Z"></path>
<path fill="#112222" fill-opacity="1.0"  filling="0" d="M102.0 116.0 C107.0 112.0 113.0 112.0 117.0 116.0 C121.0 121.0 121.0 128.0 117.0 132.0 L117.0 132.0 L104.0 138.0 C101.0 139.0 99.0 139.0 96.0 138.0 L83.0 132.0 C79.0 128.0 79.0 121.0 83.0 116.0 C87.0 112.0 94.0 112.0 98.0 116.0 L98.0 116.0 L99.0 116.0 C99.0 116.0 99.0 116.0 99.0 116.0 L99.0 116.0 C99.0 117.0 100.0 117.0 100.0 117.0 C101.0 117.0 101.0 117.0 101.0 116.0 L101.0 116.0 C101.0 116.0 101.0 116.0 101.0 116.0 L102.0 116.0 L102.0 116.0 Z M103.0 119.0 L103.0 119.0 C102.0 120.0 101.0 120.0 100.0 120.0 C99.0 120.0 98.0 120.0 97.0 119.0 L97.0 119.0 L97.0 118.0 C93.0 115.0 88.0 115.0 86.0 118.0 C82.0 122.0 82.0 127.0 86.0 130.0 L86.0 130.0 L97.0 135.0 C99.0 136.0 101.0 136.0 103.0 135.0 L114.0 130.0 L114.0 130.0 C118.0 127.0 118.0 122.0 114.0 118.0 C112.0 115.0 107.0 115.0 103.0 118.0 L103.0 119.0 L103.0 119.0 Z"></path>
<path fill="#556666" fill-opacity="1.0"  filling="0" d="M90.0 121.0 A6.0 6.0 0.0 1 0 102.0 121.0 A6.0 6.0 0.0 1 0 90.0 121.0 L90.0 121.0 Z"></path>
<path fill="#112222" fill-opacity="1.0"  filling="0" d="M96.0 128.0 C92.0 128.0 89.0 125.0 89.0 121.0 C89.0 117.0 92.0 114.0 96.0 114.0 C100.0 114.0 103.0 117.0 103.0 121.0 C103.0 125.0 100.0 128.0 96.0 128.0 L96.0 128.0 Z M96.0 117.0 C94.0 117.0 92.0 119.0 92.0 121.0 C92.0 123.0 94.0 125.0 96.0 125.0 C98.0 125.0 100.0 123.0 100.0 121.0 C100.0 119.0 98.0 117.0 96.0 117.0 L96.0 117.0 Z"></path>
<path fill="#556666" fill-opacity="1.0"  filling="0" d="M98.0 121.0 A6.0 6.0 0.0 1 0 110.0 121.0 A6.0 6.0 0.0 1 0 98.0 121.0 L98.0 121.0 Z"></path>
<path fill="#112222" fill-opacity="1.0"  filling="0" d="M104.0 128.0 C100.0 128.0 97.0 125.0 97.0 121.0 C97.0 117.0 100.0 114.0 104.0 114.0 C108.0 114.0 111.0 117.0 111.0 121.0 C111.0 125.0 108.0 128.0 104.0 128.0 L104.0 128.0 Z M104.0 117.0 C102.0 117.0 100.0 119.0 100.0 121.0 C100.0 123.0 102.0 125.0 104.0 125.0 C106.0 125.0 108.0 123.0 108.0 121.0 C108.0 119.0 106.0 117.0 104.0 117.0 L104.0 117.0 Z"></path>
<path fill="#556666" fill-opacity="1.0"  filling="0" d="M77.0 166.0 C72.0 166.0 69.0 170.0 69.0 176.0 L69.0 179.0 L94.0 179.0 L94.0 164.0 C94.0 165.0 95.0 166.0 95.0 166.0 L77.0 166.0 L77.0 166.0 Z"></path>
<path fill="#112222" fill-opacity="1.0"  filling="0" d="M77.0 166.0 C72.0 166.0 69.0 170.0 69.0 176.0 L69.0 179.0 L94.0 179.0 L94.0 164.0 C94.0 165.0 95.0 166.0 95.0 166.0 L77.0 166.0 L77.0 166.0 Z"></path>
<path fill="#556666" fill-opacity="1.0"  filling="0" d="M123.0 166.0 C128.0 166.0 132.0 170.0 132.0 176.0 L132.0 179.0 L106.0 179.0 L106.0 164.0 C106.0 165.0 106.0 166.0 105.0 166.0 L123.0 166.0 L123.0 166.0 Z"></path>
<path fill="#112222" fill-opacity="1.0"  filling="0" d="M123.0 166.0 C128.0 166.0 132.0 170.0 132.0 176.0 L132.0 179.0 L106.0 179.0 L106.0 164.0 C106.0 165.0 106.0 166.0 105.0 166.0 L123.0 166.0 L123.0 166.0 Z"></path>
<path fill="#556666" fill-opacity="1.0"  filling="0" d="M123.0 154.0 C127.0 154.0 131.0 151.0 132.0 146.0 L132.0 138.0 L121.0 138.0 C114.0 138.0 107.0 132.0 107.0 125.0 L107.0 125.0 L107.0 125.0 C107.0 119.0 114.0 114.0 121.0 114.0 L132.0 114.0 L132.0 121.0 C132.0 124.0 131.0 125.0 129.0 125.0 L130.0 125.0 C132.0 132.0 136.0 138.0 143.0 138.0 C147.0 138.0 151.0 134.0 152.0 130.0 C153.0 128.0 153.0 125.0 153.0 122.0 C153.0 112.0 146.0 103.0 136.0 101.0 C135.0 100.0 134.0 99.0 134.0 98.0 C134.0 97.0 134.0 96.0 134.0 95.0 C137.0 93.0 140.0 89.0 140.0 84.0 L140.0 81.0 L143.0 81.0 C146.0 81.0 149.0 77.0 149.0 73.0 L149.0 67.0 C149.0 62.0 146.0 59.0 143.0 59.0 L140.0 59.0 L140.0 58.0 C140.0 47.0 131.0 38.0 121.0 38.0 L103.0 38.0 L103.0 32.0 C103.0 31.0 102.0 30.0 100.0 30.0 C98.0 30.0 97.0 31.0 97.0 32.0 L97.0 38.0 L79.0 38.0 C69.0 38.0 60.0 47.0 60.0 58.0 L60.0 59.0 L57.0 59.0 C54.0 59.0 51.0 62.0 51.0 67.0 L51.0 73.0 C51.0 77.0 54.0 81.0 57.0 81.0 L60.0 81.0 L60.0 84.0 C60.0 89.0 63.0 93.0 66.0 95.0 C66.0 96.0 66.0 97.0 66.0 98.0 C66.0 99.0 65.0 100.0 64.0 101.0 C54.0 103.0 47.0 112.0 47.0 122.0 C47.0 125.0 47.0 128.0 48.0 130.0 C49.0 134.0 53.0 138.0 57.0 138.0 C64.0 138.0 68.0 132.0 70.0 125.0 L71.0 125.0 C69.0 125.0 68.0 124.0 68.0 121.0 L68.0 114.0 L79.0 114.0 C86.0 114.0 93.0 119.0 93.0 125.0 L93.0 125.0 L93.0 125.0 C93.0 132.0 86.0 138.0 79.0 138.0 L68.0 138.0 L68.0 146.0 C69.0 151.0 73.0 154.0 77.0 154.0 L123.0 154.0 L123.0 154.0 Z"></path>
<path fill="#556666" fill-opacity="1.0"  filling="0" d="M123.0 154.0 C127.0 154.0 131.0 151.0 132.0 146.0 L132.0 138.0 L121.0 138.0 C114.0 138.0 107.0 132.0 107.0 125.0 L107.0 125.0 L107.0 125.0 C107.0 119.0 114.0 114.0 121.0 114.0 L132.0 114.0 L132.0 121.0 C132.0 124.0 131.0 125.0 129.0 125.0 L130.0 125.0 C132.0 132.0 136.0 138.0 143.0 138.0 C147.0 138.0 151.0 134.0 152.0 130.0 C153.0 128.0 153.0 125.0 153.0 122.0 C153.0 112.0 146.0 103.0 136.0 101.0 C135.0 100.0 134.0 99.0 134.0 98.0 C134.0 97.0 134.0 96.0 134.0 95.0 C137.0 93.0 140.0 89.0 140.0 84.0 L140.0 81.0 L143.0 81.0 C146.0 81.0 149.0 77.0 149.0 73.0 L149.0 67.0 C149.0 62.0 146.0 59.0 143.0 59.0 L140.0 59.0 L140.0 58.0 C140.0 47.0 131.0 38.0 121.0 38.0 L103.0 38.0 L103.0 32.0 C103.0 31.0 102.0 30.0 100.0 30.0 C98.0 30.0 97.0 31.0 97.0 32.0 L97.0 38.0 L79.0 38.0 C69.0 38.0 60.0 47.0 60.0 58.0 L60.0 59.0 L57.0 59.0 C54.0 59.0 51.0 62.0 51.0 67.0 L51.0 73.0 C51.0 77.0 54.0 81.0 57.0 81.0 L60.0 81.0 L60.0 84.0 C60.0 89.0 63.0 93.0 66.0 95.0 C66.0 96.0 66.0 97.0 66.0 98.0 C66.0 99.0 65.0 100.0 64.0 101.0 C54.0 103.0 47.0 112.0 47.0 122.0 C47.0 125.0 47.0 128.0 48.0 130.0 C49.0 134.0 53.0 138.0 57.0 138.0 C64.0 138.0 68.0 132.0 70.0 125.0 L71.0 125.0 C69.0 125.0 68.0 124.0 68.0 121.0 L68.0 114.0 L79.0 114.0 C86.0 114.0 93.0 119.0 93.0 125.0 L93.0 125.0 L93.0 125.0 C93.0 132.0 86.0 138.0 79.0 138.0 L68.0 138.0 L68.0 146.0 C69.0 151.0 73.0 154.0 77.0 154.0 L123.0 154.0 L123.0 154.0 Z"></path>
<path fill="#000000" fill-opacity="1.0"  filling="0" d="M77.0 154.0 C73.0 154.0 69.0 151.0 68.0 146.0 L68.0 138.0 L79.0 138.0 C86.0 138.0 93.0 132.0 93.0 125.0 L93.0 125.0 L93.0 125.0 C93.0 119.0 86.0 114.0 79.0 114.0 L68.0 114.0 L68.0 121.0 C68.0 124.0 69.0 125.0 71.0 125.0 L70.0 125.0 C68.0 132.0 64.0 138.0 57.0 138.0 C53.0 138.0 49.0 134.0 48.0 130.0 C47.0 128.0 47.0 125.0 47.0 122.0 C47.0 112.0 54.0 103.0 64.0 101.0 C65.0 100.0 66.0 99.0 66.0 98.0 C66.0 97.0 66.0 96.0 66.0 95.0 C63.0 93.0 60.0 89.0 60.0 84.0 L60.0 81.0 L57.0 81.0 C54.0 81.0 51.0 77.0 51.0 73.0 L51.0 67.0 C51.0 62.0 54.0 59.0 57.0 59.0 L60.0 59.0 L60.0 58.0"></path></svg>