<svg xmlns="http://www.w3.org/2000/svg" viewBox="0.0 0.0 200.0 200.0" height="200px" width="200px"><path fill="#556666" fill-opacity="1.0"  filling="0" d="M133.0 138.0 L67.0 138.0 C58.0 138.0 51.0 131.0 51.0 121.0 C51.0 111.0 58.0 103.0 67.0 103.0 L133.0 103.0 C142.0 103.0 149.0 111.0 149.0 121.0 C149.0 131.0 142.0 138.0 133.0 138.0 L133.0 138.0 Z"></path>
<path fill="#112222" fill-opacity="1.0"  filling="0" d="M133.0 138.0 L133.0 138.0 L133.0 138.0 C133.0 138.0 133.0 138.0 133.0 138.0 C133.0 138.0 133.0 138.0 133.0 138.0 L133.0 138.0 Z M133.0 103.0 L133.0 103.0 C133.0 103.0 133.0 103.0 133.0 103.0 C133.0 103.0 133.0 103.0 133.0 103.0 L133.0 103.0 Z M67.0 138.0 C67.0 138.0 67.0 138.0 67.0 138.0 L67.0 138.0 L67.0 138.0 L67.0 138.0 Z"></path>
<path fill="#112222" fill-opacity="1.0"  filling="0" d="M133.0 138.0 C133.0 138.0 133.0 138.0 133.0 138.0 C133.0 138.0 133.0 138.0 133.0 138.0 L133.0 138.0 L133.0 138.0 Z"></path>
<path fill="#bbbbbb" fill-opacity="1.0"  filling="0" d="M123.0 150.0 L77.0 150.0 C72.0 150.0 67.0 146.0 67.0 140.0 L67.0 108.0 C67.0 103.0 72.0 98.0 77.0 98.0 L123.0 98.0 C128.0 98.0 133.0 103.0 133.0 108.0 L133.0 140.0 C133.0 146.0 128.0 150.0 123.0 150.0 L123.0 150.0 Z"></path>
<path fill="#112222" fill-opacity="1.0"  filling="0" d="M123.0 152.0 L77.0 152.0 C70.0 152.0 65.0 147.0 65.0 140.0 L65.0 108.0 C65.0 101.0 70.0 96.0 77.0 96.0 L123.0 96.0 C129.0 96.0 135.0 101.0 135.0 108.0 L135.0 140.0 C135.0 147.0 129.0 152.0 123.0 152.0 L123.0 152.0 Z M77.0 100.0 C73.0 100.0 70.0 104.0 70.0 108.0 L70.0 140.0 C70.0 144.0 73.0 147.0 77.0 147.0 L123.0 147.0 C127.0 147.0 130.0 144.0 130.0 140.0 L130.0 108.0 C130.0 104.0 127.0 100.0 123.0 100.0 L77.0 100.0 L77.0 100.0 Z"></path>
<path fill="#556666" fill-opacity="1.0"  filling="0" d="M123.0 97.0 L77.0 97.0 C70.0 97.0 64.0 91.0 64.0 84.0 L64.0 58.0 C64.0 49.0 70.0 41.0 79.0 41.0 L121.0 41.0 C130.0 41.0 137.0 49.0 137.0 58.0 L137.0 84.0 C137.0 91.0 130.0 97.0 123.0 97.0 L123.0 97.0 Z"></path>
<path fill="#112222" fill-opacity="1.0"  filling="0" d="M123.0 97.0 L77.0 97.0 C69.0 97.0 62.0 91.0 62.0 84.0 L62.0 58.0 C62.0 48.0 69.0 40.0 79.0 40.0 L121.0 40.0 C131.0 40.0 139.0 48.0 139.0 58.0 L139.0 84.0 C139.0 91.0 131.0 97.0 123.0 97.0 L123.0 97.0 Z M79.0 43.0 C71.0 43.0 65.0 50.0 65.0 58.0 L65.0 84.0 C65.0 90.0 71.0 95.0 77.0 95.0 L123.0 95.0 C130.0 95.0 135.0 90.0 135.0 84.0 L135.0 58.0 C135.0 50.0 129.0 43.0 121.0 43.0 L79.0 43.0 L79.0 43.0 Z"></path>
<path fill="#bbbbbb" fill-opacity="1.0"  filling="0" d="M83.0 75.0 C79.0 75.0 76.0 72.0 76.0 68.0 C76.0 64.0 79.0 61.0 83.0 61.0 C87.0 61.0 90.0 64.0 90.0 68.0 C90.0 72.0 87.0 75.0 83.0 75.0 L83.0 75.0 Z"></path>
<path fill="#112222" fill-opacity="1.0"  filling="0" d="M83.0 77.0 C78.0 77.0 74.0 73.0 74.0 68.0 C74.0 63.0 78.0 59.0 83.0 59.0 C88.0 59.0 92.0 63.0 92.0 68.0 C92.0 73.0 88.0 77.0 83.0 77.0 L83.0 77.0 Z M83.0 63.0 C81.0 63.0 79.0 65.0 79.0 68.0 C79.0 70.0 81.0 72.0 83.0 72.0 C86.0 72.0 88.0 70.0 88.0 68.0 C88.0 65.0 86.0 63.0 83.0 63.0 L83.0 63.0 Z"></path>
<path fill="#bbbbbb" fill-opacity="1.0"  filling="0" d="M117.0 75.0 C113.0 75.0 110.0 72.0 110.0 68.0 C110.0 64.0 113.0 61.0 117.0 61.0 C121.0 61.0 124.0 64.0 124.0 68.0 C124.0 72.0 121.0 75.0 117.0 75.0 L117.0 75.0 Z"></path>
<path fill="#112222" fill-opacity="1.0"  filling="0" d="M117.0 77.0 C112.0 77.0 108.0 73.0 108.0 68.0 C108.0 63.0 112.0 59.0 117.0 59.0 C122.0 59.0 126.0 63.0 126.0 68.0 C126.0 73.0 122.0 77.0 117.0 77.0 L117.0 77.0 Z M117.0 63.0 C114.0 63.0 112.0 65.0 112.0 68.0 C112.0 70.0 114.0 72.0 117.0 72.0 C119.0 72.0 121.0 70.0 121.0 68.0 C121.0 65.0 119.0 63.0 117.0 63.0 L117.0 63.0 Z"></path>
<path fill="#112222" fill-opacity="1.0"  filling="0" d="M110.0 87.0 L90.0 87.0 C88.0 87.0 87.0 86.0 87.0 84.0 C87.0 83.0 88.0 82.0 90.0 82.0 L110.0 82.0 C112.0 82.0 113.0 83.0 113.0 84.0 C113.0 86.0 112.0 87.0 110.0 87.0 L110.0 87.0 Z"></path>
<path fill="#112222" fill-opacity="1.0"  filling="0" d="M100.0 180.0 C99.0 180.0 98.0 180.0 98.0 179.0 L98.0 150.0 C98.0 149.0 99.0 148.0 100.0 148.0 C101.0 148.0 102.0 149.0 102.0 150.0 L102.0 179.0 C102.0 180.0 101.0 180.0 100.0 180.0 L100.0 180.0 Z"></path>
<path fill="#112222" fill-opacity="1.0"  filling="0" d="M100.0 180.0 C99.0 180.0 98.0 180.0 98.0 179.0 L98.0 150.0 C98.0 149.0 99.0 148.0 100.0 148.0 C101.0 148.0 102.0 149.0 102.0 150.0 L102.0 179.0 C102.0 180.0 101.0 180.0 100.0 180.0 L100.0 180.0 Z"></path>
<path fill="#112222" fill-opacity="1.0"  filling="0" d="M100.0 180.0 C99.0 180.0 98.0 180.0 98.0 179.0 L98.0 150.0 C98.0 149.0 99.0 148.0 100.0 148.0 C101.0 148.0 102.0 149.0 102.0 150.0 L102.0 179.0 C102.0 180.0 101.0 180.0 100.0 180.0 L100.0 180.0 Z"></path>
<path fill="#112222" fill-opacity="1.0"  filling="0" d="M100.0 180.0 C99.0 180.0 98.0 180.0 98.0 179.0 L98.0 150.0 C98.0 149.0 99.0 148.0 100.0 148.0 C101.0 148.0 102.0 149.0 102.0 150.0 L102.0 179.0 C102.0 180.0 101.0 180.0 100.0 180.0 L100.0 180.0 Z"></path>
<path fill="#112222" fill-opacity="1.0"  filling="0" d="M100.0 180.0 C99.0 180.0 98.0 180.0 98.0 179.0 L98.0 150.0 C98.0 149.0 99.0 148.0 100.0 148.0 C101.0 148.0 102.0 149.0 102.0 150.0 L102.0 179.0 C102.0 180.0 101.0 180.0 100.0 180.0 L100.0 180.0 Z"></path>
<path fill="#112222" fill-opacity="1.0"  filling="0" d="M100.0 180.0 C99.0 180.0 98.0 180.0 98.0 179.0 L98.0 150.0 C98.0 149.0 99.0 148.0 100.0 148.0 C101.0 148.0 102.0 149.0 102.0 150.0 L102.0 179.0 C102.0 180.0 101.0 180.0 100.0 180.0 L100.0 180.0 Z"></path>
<path fill="#112222" fill-opacity="1.0"  filling="0" d="M100.0 180.0 C99.0 180.0 98.0 180.0 98.0 179.0 L98.0 150.0 C98.0 149.0 99.0 148.0 100.0 148.0 C101.0 148.0 102.0 149.0 102.0 150.0 L102.0 179.0 C102.0 180.0 101.0 180.0 100.0 180.0 L100.0 180.0 Z"></path>
<path fill="#112222" fill-opacity="1.0"  filling="0" d="M100.0 180.0 C99.0 180.0 98.0 180.0 98.0 179.0 L98.0 150.0 C98.0 149.0 99.0 148.0 100.0 148.0 C101.0 148.0 102.0 149.0 102.0 150.0 L102.0 179.0 C102.0 180.0 101.0 180.0 100.0 180.0 L100.0 180.0 Z"></path>
<path fill="#112222" fill-opacity="1.0"  filling="0" d="M100.0 180.0 C99.0 180.0 98.0 180.0 98.0 179.0 L98.0 150.0 C98.0 149.0 99.0 148.0 100.0 148.0 C101.0 148.0 102.0 149.0 102.0 150.0 L102.0 179.0 C102.0 180.0 101.0 180.0 100.0 180.0 L100.0 180.0 Z"></path>
<path fill="#112222" fill-opacity="1.0"  filling="0" d="M100.0 180.0 C99.0 180.0 98.0 180.0 98.0 179.0 L98.0 150.0 C98.0 149.0 99.0 148.0 100.0 148.0 C101.0 148.0 102.0 149.0 102.0 150.0 L102.0 179.0 C102.0 180.0 101.0 180.0 100.0 180.0 L100.0 180.0 Z"></path>
<path fill="#112222" fill-opacity="1.0"  filling="0" d="M100.0 180.0 C99.0 180.0 98.0 180.0 98.0 179.0 L98.0 150.0 C98.0 149.0 99.0 148.0 100.0 148.0 C101.0 148.0 102.0 149.0 102.0 150.0 L102.0 179.0 C102.0 180.0 101.0 180.0 100.0 180.0 L100.0 180.0 Z"></path>
<path fill="#112222" fill-opacity="1.0"  filling="0" d="M100.0 180.0 C99.0 180.0 98.0 180.0 98.0 179.0 L98.0 150.0 C98.0 149.0 99.0 148.0 100.0 148.0 C101.0 148.0 102.0 149.0 102.0 150.0 L102.0 179.0 C102.0 180.0 101.0 180.0 100.0 180.0 L100.0 180.0 Z"></path>
<path fill="#112222" fill-opacity="1.0"  filling="0" d="M100.0 180.0 C99.0 180.0 98.0 180.0 98.0 179.0 L98.0 150.0 C98.0 149.0 99.0 148.0 100.0 148.0 C101.0 148.0 102.0 149.0 102.0 150.0 L102.0 179.0 C102.0 180.0 101.0 180.0 100.0 180.0 L100.0 180.0 Z"></path>
<path fill="#112222" fill-opacity="1.0"  filling="0" d="M100.0 180.0 C99.0 180.0 98.0 180.0 98.0 179.0 L98.0 150.0 C98.0 149.0 99.0 148.0 100.0 148.0 C101.0 148.0 102.0 149.0 102.0 150.0 L102.0 179.0 C102.0 180.0 101.0 180.0 100.0 180.0 L100.0 180.0 Z"></path>
<path fill="#112222" fill-opacity="1.0"  filling="0" d="M100.0 180.0 C99.0 180.0 98.0 180.0 98.0 179.0 L98.0 150.0 C98.0 149.0 99.0 148.0 100.0 148.0 C101.0 148.0 102.0 149.0 102.0 150.0 L102.0 179.0 C102.0 180.0 101.0 180.0 100.0 180.0 L100.0 180.0 Z"></path>
<path fill="#112222" fill-opacity="1.0"  filling="0" d="M100.0 180.0 C99.0 180.0 98.0 180.0 98.0 179.0 L98.0 150.0 C98.0 149.0 99.0 148.0 100.0 148.0 C101.0 148.0 102.0 149.0 102.0 150.0 L102.0 179.0 C102.0 180.0 101.0 180.0 100.0 180.0 L100.0 180.0 Z"></path>
<path fill="#112222" fill-opacity="1.0"  filling="0" d="M100.0 180.0 C99.0 180.0 98.0 180.0 98.0 179.0 L98.0 150.0 C98.0 149.0 99.0 148.0 100.0 148.0 C101.0 148.0 102.0 149.0 102.0 150.0 L102.0 179.0 C102.0 180.0 101.0 180.0 100.0 180.0 L100.0 180.0 Z"></path>
<path fill="#112222" fill-opacity="1.0"  filling="0" d="M100.0 180.0 C99.0 180.0 98.0 180.0 98.0 179.0 L98.0 150.0 C98.0 149.0 99.0 148.0 100.0 148.0 C101.0 148.0 102.0 149.0 102.0 150.0 L102.0 179.0 C102.0 180.0 101.0 180.0 100.0 180.0 L100.0 180.0 Z"></path>
<path fill="#112222" fill-opacity="1.0"  filling="0" d="M100.0 180.0 C99.0 180.0 98.0 180.0 98.0 179.0 L98.0 150.0 C98.0 149.0 99.0 148.0 100.0 148.0 C101.0 148.0 102.0 149.0 102.0 150.0 L102.0 179.0 C102.0 180.0 101.0 180.0 100.0 180.0 L100.0 180.0 Z"></path>
<path fill="#112222" fill-opacity="1.0"  filling="0" d="M100.0 180.0 C99.0 180.0 98.0 180.0 98.0 179.0 L98.0 150.0 C98.0 149.0 99.0 148.0 100.0 148.0 C101.0 148.0 102.0 149.0 102.0 150.0 L102.0 179.0 C102.0 180.0 101.0 180.0 100.0 180.0 L100.0 180.0 Z"></path>
<path fill="#112222" fill-opacity="1.0"  filling="0" d="M100.0 180.0 C99.0 180.0 98.0 180.0 98.0 179.0 L98.0 150.0 C98.0 149.0 99.0 148.0 100.0 148.0 C101.0 148.0 102.0 149.0 102.0 150.0 L102.0 179.0 C102.0 180.0 101.0 180.0 100.0 180.0 L100.0 180.0 Z"></path>
<path fill="#112222" fill-opacity="1.0"  filling="0" d="M100.0 180.0 C99.0 180.0 98.0 180.0 98.0 179.0 L98.0 150.0 C98.0 149.0 99.0 148.0 100.0 148.0 C101.0 148.0 102.0 149.0 102.0 150.0 L102.0 179.0 C102.0 180.0 101.0 180.0 100.0 180.0 L100.0 180.0 Z"></path>
<path fill="#112222" fill-opacity="1.0"  filling="0" d="M100.0 180.0 C99.0 180.0 98.0 180.0 98.0 179.0 L98.0 150.0 C98.0 149.0 99.0 148.0 100.0 148.0 C101.0 148.0 102.0 149.0 102.0 150.0 L102.0 179.0 C102.0 180.0 101.0 180.0 100.0 180.0 L100.0 180.0 Z"></path>
<path fill="#112222" fill-opacity="1.0"  filling="0" d="M100.0 180.0 C99.0 180.0 98.0 180.0 98.0 179.0 L98.0 150.0 C98.0 149.0 99.0 148.0 100.0 148.0 C101.0 148.0 102.0 149.0 102.0 150.0 L102.0 179.0 C102.0 180.0 101.0 180.0 100.0 180.0 L100.0 180.0 Z"></path>
<path fill="#112222" fill-opacity="1.0"  filling="0" d="M100.0 180.0 C99.0 180.0 98.0 180.0 98.0 179.0 L98.0 150.0 C98.0 149.0 99.0 148.0 100.0 148.0 C101.0 148.0 102.0 149.0 102.0 150.0 L102.0 179.0 C102.0 180.0 101.0 180.0 100.0 180.0 L100.0 180.0 Z"></path>
<path fill="#112222" fill-opacity="1.0"  filling="0" d="M100.0 180.0 C99.0 180.0 98.0 180.0 98.0 179.0 L98.0 150.0 C98.0 149.0 99.0 148.0 100.0 148.0 C101.0 148.0 102.0 149.0 102.0 150.0 L102.0 179.0 C102.0 180.0 101.0 180.0 100.0 180.0 L100.0 180.0 Z"></path>
<path fill="#112222" fill-opacity="1.0"  filling="0" d="M100.0 180.0 C99.0 180.0 98.0 180.0 98.0 179.0 L98.0 150.0 C98.0 149.0 99.0 148.0 100.0 148.0 C101.0 148.0 102.0 149.0 102.0 150.0 L102.0 179.0 C102.0 180.0 101.0 180.0 100.0 180.0 L100.0 180.0 Z"></path>
<path fill="#112222" fill-opacity="1.0"  filling="0" d="M100.0 180.0 C99.0 180.0 98.0 180.0 98.0 179.0 L98.0 150.0 C98.0 149.0 99.0 148.0 100.0 148.0 C101.0 148.0 102.0 149.0 102.0 150.0 L102.0 179.0 C102.0 180.0 101.0 180.0 100.0 180.0 L100.0 180.0 Z"></path>
<path fill="#112222" fill-opacity="1.0"  filling="0" d="M100.0 180.0 C99.0 180.0 98.0 180.0 98.0 179.0 L98.0 150.0 C98.0 149.0 99.0 148.0 100.0 148.0 C101.0 148.0 102.0 149.0 102.0 150.0 L102.0 179.0 C102.0 180.0 101.0 180.0 100.0 180.0 L100.0 180.0 Z"></path>
<path fill="#000000" fill-opacity="1.0"  filling="0" d="M100.0 180.0 C99.0 180.0 98.0 180.0 98.0 179.0 L98.0 150.0 C98.0 149.0 99.0 148.0 100.0 148.0 C101.0 148.0 102.0 149.0 102.0 150.0 L102.0 179.0 C102.0 180.0 101.0 180.0 100.0 180.0 L100.0 180.0 Z"></path></svg>