<svg xmlns="http://www.w3.org/2000/svg" viewBox="0.0 0.0 200.0 200.0" height="200px" width="200px"><path fill="#ddddbb" fill-opacity="1.0"  filling="0" d="M124.0 34.0 L24.0 34.0 C22.0 34.0 21.0 35.0 21.0 37.0 C21.0 39.0 22.0 40.0 24.0 40.0 L31.0 40.0 L31.0 55.0 C31.0 56.0 33.0 58.0 34.0 58.0 C36.0 58.0 37.0 56.0 37.0 55.0 L37.0 40.0 L70.0 40.0 L70.0 55.0 C70.0 56.0 72.0 58.0 73.0 58.0 C75.0 58.0 77.0 56.0 77.0 55.0 L77.0 40.0 L110.0 40.0 L110.0 55.0 C110.0 56.0 112.0 58.0 113.0 58.0 C115.0 58.0 117.0 56.0 117.0 55.0 L117.0 40.0 L124.0 40.0 C126.0 40.0 127.0 39.0 127.0 37.0 C127.0 35.0 126.0 34.0 124.0 34.0 L124.0 34.0 Z"></path>
<path fill="#003333" fill-opacity="1.0"  filling="0" d="M94.0 53.0 L28.0 53.0 C25.0 53.0 21.0 56.0 21.0 60.0 L21.0 136.0 C21.0 140.0 25.0 144.0 28.0 144.0 L94.0 144.0 L94.0 53.0 L94.0 53.0 Z"></path>
<path fill="#003333" fill-opacity="1.0"  filling="0" d="M106.0 53.0 L172.0 53.0 C175.0 53.0 179.0 56.0 179.0 60.0 L179.0 136.0 C179.0 140.0 175.0 144.0 172.0 144.0 L106.0 144.0 L106.0 53.0 L106.0 53.0 Z"></path>
<path fill="#003333" fill-opacity="1.0"  filling="0" d="M94.0 147.0 L28.0 147.0 C25.0 147.0 21.0 144.0 21.0 140.0 L21.0 64.0 C21.0 60.0 25.0 56.0 28.0 56.0 L94.0 56.0 L94.0 147.0 L94.0 147.0 Z"></path>
<path fill="#003333" fill-opacity="1.0"  filling="0" d="M106.0 53.0 L172.0 53.0 C175.0 53.0 179.0 56.0 179.0 60.0 L179.0 136.0 C179.0 140.0 175.0 144.0 172.0 144.0 L106.0 144.0 L106.0 53.0 L106.0 53.0 Z"></path>
<path fill="#003333" fill-opacity="1.0"  filling="0" d="M133.0 108.0 L33.0 108.0 C31.0 108.0 29.0 106.0 29.0 104.0 C29.0 103.0 31.0 101.0 33.0 101.0 L133.0 101.0 C135.0 101.0 136.0 103.0 136.0 104.0 C136.0 106.0 135.0 108.0 133.0 108.0 L133.0 108.0 Z"></path>
<path fill="#003333" fill-opacity="1.0"  filling="0" d="M133.0 108.0 L33.0 108.0 C31.0 108.0 29.0 106.0 29.0 104.0 C29.0 103.0 31.0 101.0 33.0 101.0 L133.0 101.0 C135.0 101.0 136.0 103.0 136.0 104.0 C136.0 106.0 135.0 108.0 133.0 108.0 L133.0 108.0 Z"></path>
<path fill="#114444" fill-opacity="1.0"  filling="0" d="M66.0 118.0 C52.0 118.0 40.0 130.0 40.0 144.0 C40.0 158.0 52.0 169.0 66.0 169.0 C80.0 169.0 91.0 158.0 91.0 144.0 C91.0 130.0 80.0 118.0 66.0 118.0 L66.0 118.0 Z"></path>
<path fill="#ddeecc" fill-opacity="1.0"  filling="0" d="M65.0 135.0 C61.0 135.0 56.0 139.0 56.0 144.0 C56.0 149.0 61.0 153.0 65.0 153.0 C70.0 153.0 75.0 149.0 75.0 144.0 C75.0 139.0 70.0 135.0 65.0 135.0 L65.0 135.0 Z"></path>
<path fill="#114444" fill-opacity="1.0"  filling="0" d="M147.0 118.0 C133.0 118.0 122.0 130.0 122.0 144.0 C122.0 158.0 133.0 169.0 147.0 169.0 C161.0 169.0 172.0 158.0 172.0 144.0 C172.0 130.0 161.0 118.0 147.0 118.0 L147.0 118.0 Z"></path>
<path fill="#ddeecc" fill-opacity="1.0"  filling="0" d="M147.0 135.0 C142.0 135.0 137.0 139.0 137.0 144.0 C137.0 149.0 142.0 153.0 147.0 153.0 C152.0 153.0 156.0 149.0 156.0 144.0 C156.0 139.0 152.0 135.0 147.0 135.0 L147.0 135.0 Z"></path>
<path fill="#114444" fill-opacity="1.0"  filling="0" d="M25.0 69.0 L12.0 69.0 C10.0 69.0 8.0 71.0 8.0 73.0 L8.0 123.0 C8.0 125.0 10.0 127.0 12.0 127.0 L25.0 127.0 L25.0 69.0 L25.0 69.0 Z"></path>
<path fill="#003333" fill-opacity="1.0"  filling="0" d="M25.0 69.0 L12.0 69.0 C10.0 69.0 8.0 71.0 8.0 73.0 L8.0 123.0 C8.0 125.0 10.0 127.0 12.0 127.0 L25.0 127.0 L25.0 69.0 L25.0 69.0 Z"></path>
<path fill="#114444" fill-opacity="1.0"  filling="0" d="M175.0 109.0 C173.0 109.0 170.0 112.0 170.0 115.0 C170.0 118.0 173.0 120.0 175.0 120.0 L192.0 120.0 L192.0 109.0 L175.0 109.0 L175.0 109.0 Z"></path>
<path fill="#003333" fill-opacity="1.0"  filling="0" d="M175.0 109.0 C173.0 109.0 170.0 112.0 170.0 115.0 C170.0 118.0 173.0 120.0 175.0 120.0 L192.0 120.0 L192.0 109.0 L175.0 109.0 L175.0 109.0 Z"></path>
<path fill="#003333" fill-opacity="1.0"  filling="0" d="M106.0 53.0 L43.0 43.0 L43.0 56.0 L106.0 56.0 L106.0 53.0 L106.0 53.0 Z"></path>
<path fill="#003333" fill-opacity="1.0"  filling="0" d="M106.0 53.0 L158.0 43.0 L158.0 56.0 L106.0 56.0 L106.0 53.0 L106.0 53.0 Z"></path>
<path fill="#ddeecc" fill-opacity="1.0"  filling="0" d="M75.0 69.0 L39.0 69.0 C38.0 69.0 37.0 70.0 37.0 71.0 L37.0 91.0 C37.0 92.0 38.0 93.0 39.0 93.0 L75.0 93.0 C76.0 93.0 77.0 92.0 77.0 91.0 L77.0 71.0 C77.0 70.0 76.0 69.0 75.0 69.0 L75.0 69.0 Z"></path>
<path fill="#ddeecc" fill-opacity="1.0"  filling="0" d="M75.0 69.0 L39.0 69.0 C38.0 69.0 37.0 70.0 37.0 71.0 L37.0 91.0 C37.0 92.0 38.0 93.0 39.0 93.0 L75.0 93.0 C76.0 93.0 77.0 92.0 77.0 91.0 L77.0 71.0 C77.0 70.0 76.0 69.0 75.0 69.0 L75.0 69.0 Z"></path>
<path fill="#ddeecc" fill-opacity="1.0"  filling="0" d="M119.0 69.0 L93.0 69.0 C91.0 69.0 89.0 70.0 89.0 73.0 L89.0 89.0 C89.0 91.0 91.0 93.0 93.0 93.0 L119.0 93.0 C121.0 93.0 123.0 91.0 123.0 89.0 L123.0 73.0 C123.0 70.0 121.0 69.0 119.0 69.0 L119.0 69.0 Z"></path>
<path fill="#ddeecc" fill-opacity="1.0"  filling="0" d="M119.0 69.0 L93.0 69.0 C91.0 69.0 89.0 70.0 89.0 73.0 L89.0 89.0 C89.0 91.0 91.0 93.0 93.0 93.0 L119.0 93.0 C121.0 93.0 123.0 91.0 123.0 89.0 L123.0 73.0 C123.0 70.0 121.0 69.0 119.0 69.0 L119.0 69.0 Z"></path></svg>