<svg xmlns="http://www.w3.org/2000/svg" viewBox="0.0 0.0 200.0 200.0" height="200px" width="200px"><path fill="#bbddbb" fill-opacity="1.0"  filling="0" d="M124.0 34.0 L24.0 34.0 C22.0 34.0 21.0 35.0 21.0 37.0 C21.0 39.0 22.0 40.0 24.0 40.0 L31.0 40.0 L31.0 55.0 C31.0 56.0 33.0 58.0 34.0 58.0 C36.0 58.0 37.0 56.0 37.0 55.0 L37.0 40.0 L70.0 40.0 L70.0 55.0 C70.0 56.0 72.0 58.0 73.0 58.0 C75.0 58.0 77.0 56.0 77.0 55.0 L77.0 40.0 L110.0 40.0 L110.0 55.0 C110.0 56.0 112.0 58.0 113.0 58.0 C115.0 58.0 117.0 56.0 117.0 55.0 L117.0 40.0 L124.0 40.0 C126.0 40.0 127.0 39.0 127.0 37.0 C127.0 35.0 126.0 34.0 124.0 34.0 L124.0 34.0 Z"></path>
<path fill="#bbddbb" fill-opacity="1.0"  filling="0" d="M107.0 34.0 L99.0 34.0 L99.0 40.0 L110.0 40.0 L110.0 55.0 C110.0 56.0 112.0 58.0 113.0 58.0 C115.0 58.0 117.0 56.0 117.0 55.0 L117.0 40.0 L124.0 40.0 C126.0 40.0 127.0 39.0 127.0 37.0 C127.0 35.0 126.0 34.0 124.0 34.0 L107.0 34.0 L107.0 34.0 Z"></path>
<path fill="#003333" fill-opacity="1.0"  filling="0" d="M168.0 90.0 L151.0 90.0 C149.0 90.0 147.0 88.0 147.0 86.0 L146.0 79.0 C145.0 65.0 132.0 53.0 117.0 53.0 L29.0 53.0 C25.0 53.0 21.0 57.0 21.0 61.0 L21.0 136.0 C21.0 140.0 25.0 144.0 29.0 144.0 L184.0 144.0 C188.0 144.0 192.0 140.0 192.0 136.0 L192.0 113.0 C192.0 100.0 181.0 90.0 168.0 90.0 L168.0 90.0 Z"></path>
<path fill="#114444" fill-opacity="1.0"  filling="0" d="M115.0 99.0 L93.0 99.0 C90.0 99.0 88.0 97.0 88.0 94.0 L88.0 53.0 L122.0 53.0 L122.0 94.0 C122.0 97.0 119.0 99.0 115.0 99.0 L115.0 99.0 Z"></path>
<path fill="#114444" fill-opacity="1.0"  filling="0" d="M44.0 75.0 L14.0 75.0 C11.0 75.0 8.0 77.0 8.0 80.0 L8.0 123.0 C8.0 125.0 10.0 127.0 12.0 127.0 L44.0 127.0 L44.0 75.0 L44.0 75.0 Z"></path>
<path fill="#003333" fill-opacity="1.0"  filling="0" d="M44.0 75.0 L43.0 75.0 L43.0 127.0 L44.0 127.0 L44.0 75.0 L44.0 75.0 Z"></path>
<path fill="#114444" fill-opacity="1.0"  filling="0" d="M156.0 75.0 L43.0 75.0 L43.0 127.0 L188.0 127.0 C190.0 127.0 192.0 125.0 192.0 123.0 L192.0 80.0 C192.0 77.0 189.0 75.0 186.0 75.0 L156.0 75.0 L156.0 75.0 Z"></path>
<path fill="#003333" fill-opacity="1.0"  filling="0" d="M186.0 75.0 L157.0 75.0 L157.0 127.0 L188.0 127.0 C190.0 127.0 192.0 125.0 192.0 123.0 L192.0 80.0 C192.0 77.0 189.0 75.0 186.0 75.0 L186.0 75.0 Z"></path>
<path fill="#003333" fill-opacity="1.0"  filling="0" d="M94.0 53.0 L94.0 100.0 C94.0 100.0 94.0 100.0 95.0 100.0 L115.0 100.0 C118.0 100.0 120.0 97.0 120.0 94.0 L120.0 53.0 L94.0 53.0 L94.0 53.0 Z"></path>
<path fill="#114444" fill-opacity="1.0"  filling="0" d="M149.0 53.0 L95.0 53.0 L95.0 93.0 C95.0 93.0 94.0 94.0 94.0 94.0 L126.0 94.0 C129.0 94.0 131.0 91.0 131.0 88.0 L131.0 80.0 C132.0 73.0 138.0 66.0 146.0 65.0 C149.0 65.0 151.0 62.0 151.0 59.0 L151.0 55.0 C151.0 54.0 150.0 53.0 149.0 53.0 L149.0 53.0 Z"></path>
<path fill="#003333" fill-opacity="1.0"  filling="0" d="M149.0 53.0 L97.0 53.0 L97.0 93.0 C97.0 93.0 97.0 94.0 98.0 94.0 L126.0 94.0 C129.0 94.0 131.0 91.0 131.0 88.0 L131.0 80.0 C132.0 73.0 138.0 66.0 146.0 65.0 C149.0 65.0 151.0 62.0 151.0 59.0 L151.0 55.0 C151.0 54.0 150.0 53.0 149.0 53.0 L149.0 53.0 Z"></path>
<path fill="#ddeecc" fill-opacity="1.0"  filling="0" d="M74.0 93.0 L39.0 93.0 C38.0 93.0 37.0 92.0 37.0 91.0 L37.0 71.0 C37.0 70.0 38.0 69.0 39.0 69.0 L74.0 69.0 C76.0 69.0 77.0 70.0 77.0 71.0 L77.0 91.0 C77.0 92.0 76.0 93.0 74.0 93.0 L74.0 93.0 Z"></path>
<path fill="#ccddbb" fill-opacity="1.0"  filling="0" d="M74.0 69.0 L43.0 69.0 L43.0 93.0 L74.0 93.0 C76.0 93.0 77.0 92.0 77.0 91.0 L77.0 71.0 C77.0 70.0 76.0 69.0 74.0 69.0 L74.0 69.0 Z"></path>
<path fill="#ddeecc" fill-opacity="1.0"  filling="0" d="M128.0 93.0 L93.0 93.0 C91.0 93.0 89.0 91.0 89.0 89.0 L89.0 73.0 C89.0 70.0 91.0 68.0 93.0 68.0 L120.0 68.0 C126.0 68.0 131.0 73.0 131.0 79.0 L131.0 89.0 C131.0 91.0 130.0 93.0 128.0 93.0 L128.0 93.0 Z"></path>
<path fill="#ccddbb" fill-opacity="1.0"  filling="0" d="M120.0 68.0 L94.0 68.0 L94.0 93.0 L128.0 93.0 C130.0 93.0 131.0 91.0 131.0 89.0 L131.0 79.0 C131.0 73.0 126.0 68.0 120.0 68.0 L120.0 68.0 Z"></path>
<path fill="#114444" fill-opacity="1.0"  filling="0" d="M40.0 144.0 A25.0 25.0 0.0 1 0 91.0 144.0 A25.0 25.0 0.0 1 0 40.0 144.0 L40.0 144.0 Z"></path>
<path fill="#003333" fill-opacity="1.0"  filling="0" d="M44.0 144.0 A22.0 22.0 0.0 1 0 88.0 144.0 A22.0 22.0 0.0 1 0 44.0 144.0 L44.0 144.0 Z"></path>
<path fill="#ddeecc" fill-opacity="1.0"  filling="0" d="M56.0 144.0 A9.0 9.0 0.0 1 0 75.0 144.0 A9.0 9.0 0.0 1 0 56.0 144.0 L56.0 144.0 Z"></path>
<path fill="#114444" fill-opacity="1.0"  filling="0" d="M122.0 144.0 A25.0 25.0 0.0 1 0 172.0 144.0 A25.0 25.0 0.0 1 0 122.0 144.0 L122.0 144.0 Z"></path>
<path fill="#003333" fill-opacity="1.0"  filling="0" d="M125.0 144.0 A22.0 22.0 0.0 1 0 169.0 144.0 A22.0 22.0 0.0 1 0 125.0 144.0 L125.0 144.0 Z"></path>
<path fill="#ddeecc" fill-opacity="1.0"  filling="0" d="M137.0 144.0 A9.0 9.0 0.0 1 0 156.0 144.0 A9.0 9.0 0.0 1 0 137.0 144.0 L137.0 144.0 Z"></path>
<path fill="#ddeecc" fill-opacity="1.0"  filling="0" d="M188.0 120.0 L175.0 120.0 C173.0 120.0 170.0 118.0 170.0 115.0 C170.0 112.0 173.0 109.0 175.0 109.0 L188.0 109.0 C190.0 109.0 192.0 112.0 192.0 115.0 C192.0 118.0 190.0 120.0 188.0 120.0 L188.0 120.0 Z"></path></svg>