<svg xmlns="http://www.w3.org/2000/svg" viewBox="0.0 0.0 200.0 200.0" height="200px" width="200px"><path fill="#bbddbb" fill-opacity="1.0"  filling="0" d="M124.0 34.0 L24.0 34.0 C22.0 34.0 21.0 35.0 21.0 37.0 C21.0 39.0 22.0 40.0 24.0 40.0 L31.0 40.0 L31.0 55.0 C31.0 57.0 33.0 58.0 34.0 58.0 C36.0 58.0 37.0 57.0 37.0 55.0 L37.0 40.0 L70.0 40.0 L70.0 55.0 C70.0 57.0 71.0 58.0 73.0 58.0 C74.0 58.0 76.0 57.0 76.0 55.0 L76.0 40.0 L110.0 40.0 L110.0 55.0 C110.0 57.0 111.0 58.0 113.0 58.0 C115.0 58.0 116.0 57.0 116.0 55.0 L116.0 40.0 L124.0 40.0 C126.0 40.0 127.0 39.0 127.0 37.0 C127.0 35.0 126.0 34.0 124.0 34.0 L124.0 34.0 Z"></path>
<path fill="#bbddbb" fill-opacity="1.0"  filling="0" d="M113.0 34.0 L94.0 34.0 L94.0 40.0 L110.0 40.0 L110.0 55.0 C110.0 57.0 111.0 58.0 113.0 58.0 C115.0 58.0 116.0 57.0 116.0 55.0 L116.0 40.0 L124.0 40.0 C126.0 40.0 127.0 39.0 127.0 37.0 C127.0 35.0 126.0 34.0 124.0 34.0 L113.0 34.0 L113.0 34.0 Z"></path>
<path fill="#003333" fill-opacity="1.0"  filling="0" d="M168.0 90.0 L151.0 90.0 C149.0 90.0 147.0 88.0 147.0 86.0 L146.0 79.0 C145.0 65.0 132.0 53.0 117.0 53.0 L29.0 53.0 C25.0 53.0 21.0 57.0 21.0 61.0 L21.0 136.0 C21.0 140.0 25.0 144.0 29.0 144.0 L184.0 144.0 C188.0 144.0 192.0 140.0 192.0 136.0 L192.0 113.0 C192.0 100.0 181.0 90.0 168.0 90.0 L168.0 90.0 Z"></path>
<path fill="#ffffff" fill-opacity="1.0"  filling="0" d="M19.0 19.0 L169.0 19.0 L169.0 56.0 L19.0 56.0 L19.0 19.0 L19.0 19.0 Z"></path>
<path fill="#eeeedd" fill-opacity="1.0"  filling="0" d="M94.0 19.0 L169.0 19.0 L169.0 56.0 L94.0 56.0 L94.0 19.0 L94.0 19.0 Z"></path>
<path fill="#eeeedd" fill-opacity="1.0"  filling="0" d="M31.0 31.0 L44.0 31.0 L44.0 56.0 L31.0 56.0 L31.0 31.0 L31.0 31.0 Z"></path>
<path fill="#eeeedd" fill-opacity="1.0"  filling="0" d="M56.0 31.0 L69.0 31.0 L69.0 56.0 L56.0 56.0 L56.0 31.0 L56.0 31.0 Z"></path>
<path fill="#eeeedd" fill-opacity="1.0"  filling="0" d="M81.0 31.0 L94.0 31.0 L94.0 56.0 L81.0 56.0 L81.0 31.0 L81.0 31.0 Z"></path>
<path fill="#ddddcc" fill-opacity="1.0"  filling="0" d="M106.0 31.0 L119.0 31.0 L119.0 56.0 L106.0 56.0 L106.0 31.0 L106.0 31.0 Z"></path>
<path fill="#ddddcc" fill-opacity="1.0"  filling="0" d="M131.0 31.0 L144.0 31.0 L144.0 56.0 L131.0 56.0 L131.0 31.0 L131.0 31.0 Z"></path>
<path fill="#ddddcc" fill-opacity="1.0"  filling="0" d="M156.0 31.0 L169.0 31.0 L169.0 56.0 L156.0 56.0 L156.0 31.0 L156.0 31.0 Z"></path>
<path fill="#003333" fill-opacity="1.0"  filling="0" d="M25.0 69.0 L12.0 69.0 C10.0 69.0 8.0 71.0 8.0 73.0 L8.0 123.0 C8.0 125.0 10.0 127.0 12.0 127.0 L25.0 127.0 L25.0 69.0 L25.0 69.0 Z"></path>
<path fill="#665555" fill-opacity="1.0"  filling="0" d="M100.0 94.0 L94.0 94.0 C92.0 94.0 90.0 92.0 90.0 90.0 C90.0 89.0 92.0 87.0 94.0 87.0 L100.0 87.0 C102.0 87.0 103.0 89.0 103.0 90.0 C103.0 92.0 102.0 94.0 100.0 94.0 L100.0 94.0 Z"></path>
<path fill="#665555" fill-opacity="1.0"  filling="0" d="M128.0 94.0 L112.0 94.0 C111.0 94.0 109.0 92.0 109.0 90.0 C109.0 89.0 111.0 87.0 112.0 87.0 L128.0 87.0 C130.0 87.0 131.0 89.0 131.0 90.0 C131.0 92.0 130.0 94.0 128.0 94.0 L128.0 94.0 Z"></path>
<path fill="#554444" fill-opacity="1.0"  filling="0" d="M128.0 94.0 L112.0 94.0 C111.0 94.0 109.0 92.0 109.0 90.0 C109.0 89.0 111.0 87.0 112.0 87.0 L128.0 87.0 C130.0 87.0 131.0 89.0 131.0 90.0 C131.0 92.0 130.0 94.0 128.0 94.0 L128.0 94.0 Z"></path>
<path fill="#665555" fill-opacity="1.0"  filling="0" d="M128.0 94.0 L112.0 94.0 C111.0 94.0 109.0 92.0 109.0 90.0 C109.0 89.0 111.0 87.0 112.0 87.0 L128.0 87.0 C130.0 87.0 131.0 89.0 131.0 90.0 C131.0 92.0 130.0 94.0 128.0 94.0 L128.0 94.0 Z"></path>
<path fill="#665555" fill-opacity="1.0"  filling="0" d="M100.0 94.0 L94.0 94.0 C92.0 94.0 90.0 92.0 90.0 90.0 C90.0 89.0 92.0 87.0 94.0 87.0 L100.0 87.0 C102.0 87.0 103.0 89.0 103.0 90.0 C103.0 92.0 102.0 94.0 100.0 94.0 L100.0 94.0 Z"></path>
<path fill="#554444" fill-opacity="1.0"  filling="0" d="M128.0 94.0 L112.0 94.0 C111.0 94.0 109.0 92.0 109.0 90.0 C109.0 89.0 111.0 87.0 112.0 87.0 L128.0 87.0 C130.0 87.0 131.0 89.0 131.0 90.0 C131.0 92.0 130.0 94.0 128.0 94.0 L128.0 94.0 Z"></path>
<path fill="#665555" fill-opacity="1.0"  filling="0" d="M128.0 94.0 L112.0 94.0 C111.0 94.0 109.0 92.0 109.0 90.0 C109.0 89.0 111.0 87.0 112.0 87.0 L128.0 87.0 C130.0 87.0 131.0 89.0 131.0 90.0 C131.0 92.0 130.0 94.0 128.0 94.0 L128.0 94.0 Z"></path>
<path fill="#665555" fill-opacity="1.0"  filling="0" d="M100.0 94.0 L94.0 94.0 C92.0 94.0 90.0 92.0 90.0 90.0 C90.0 89.0 92.0 87.0 94.0 87.0 L100.0 87.0 C102.0 87.0 103.0 89.0 103.0 90.0 C103.0 92.0 102.0 94.0 100.0 94.0 L100.0 94.0 Z"></path>
<path fill="#554444" fill-opacity="1.0"  filling="0" d="M128.0 94.0 L112.0 94.0 C111.0 94.0 109.0 92.0 109.0 90.0 C109.0 89.0 111.0 87.0 112.0 87.0 L128.0 87.0 C130.0 87.0 131.0 89.0 131.0 90.0 C131.0 92.0 130.0 94.0 128.0 94.0 L128.0 94.0 Z"></path>
<path fill="#665555" fill-opacity="1.0"  filling="0" d="M128.0 94.0 L112.0 94.0 C111.0 94.0 109.0 92.0 109.0 90.0 C109.0 89.0 111.0 87.0 112.0 87.0 L128.0 87.0 C130.0 87.0 131.0 89.0 131.0 90.0 C131.0 92.0 130.0 94.0 128.0 94.0 L128.0 94.0 Z"></path>
<path fill="#665555" fill-opacity="1.0"  filling="0" d="M100.0 94.0 L94.0 94.0 C92.0 94.0 90.0 92.0 90.0 90.0 C90.0 89.0 92.0 87.0 94.0 87.0 L100.0 87.0 C102.0 87.0 103.0 89.0 103.0 90.0 C103.0 92.0 102.0 94.0 100.0 94.0 L100.0 94.0 Z"></path>
<path fill="#554444" fill-opacity="1.0"  filling="0" d="M128.0 94.0 L112.0 94.0 C111.0 94.0 109.0 92.0 109.0 90.0 C109.0 89.0 111.0 87.0 112.0 87.0 L128.0 87.0 C130.0 87.0 131.0 89.0 131.0 90.0 C131.0 92.0 130.0 94.0 128.0 94.0 L128.0 94.0 Z"></path>
<path fill="#665555" fill-opacity="1.0"  filling="0" d="M128.0 94.0 L112.0 94.0 C111.0 94.0 109.0 92.0 109.0 90.0 C109.0 89.0 111.0 87.0 112.0 87.0 L128.0 87.0 C130.0 87.0 131.0 89.0 131.0 90.0 C131.0 92.0 130.0 94.0 128.0 94.0 L128.0 94.0 Z"></path>
<path fill="#665555" fill-opacity="1.0"  filling="0" d="M100.0 94.0 L94.0 94.0 C92.0 94.0 90.0 92.0 90.0 90.0 C90.0 89.0 92.0 87.0 94.0 87.0 L100.0 87.0 C102.0 87.0 103.0 89.0 103.0 90.0 C103.0 92.0 102.0 94.0 100.0 94.0 L100.0 94.0 Z"></path>
<path fill="#554444" fill-opacity="1.0"  filling="0" d="M128.0 94.0 L112.0 94.0 C111.0 94.0 109.0 92.0 109.0 90.0 C109.0 89.0 111.0 87.0 112.0 87.0 L128.0 87.0 C130.0 87.0 131.0 89.0 131.0 90.0 C131.0 92.0 130.0 94.0 128.0 94.0 L128.0 94.0 Z"></path>
<path fill="#665555" fill-opacity="1.0"  filling="0" d="M128.0 94.0 L112.0 94.0 C111.0 94.0 109.0 92.0 109.0 90.0 C109.0 89.0 111.0 87.0 112.0 87.0 L128.0 87.0 C130.0 87.0 131.0 89.0 131.0 90.0 C131.0 92.0 130.0 94.0 128.0 94.0 L128.0 94.0 Z"></path>
<path fill="#665555" fill-opacity="1.0"  filling="0" d="M100.0 94.0 L94.0 94.0 C92.0 94.0 90.0 92.0 90.0 90.0 C90.0 89.0 92.0 87.0 94.0 87.0 L100.0 87.0 C102.0 87.0 103.0 89.0 103.0 90.0 C103.0 92.0 102.0 94.0 100.0 94.0 L100.0 94.0 Z"></path>
<path fill="#554444" fill-opacity="1.0"  filling="0" d="M128.0 94.0 L112.0 94.0 C111.0 94.0 109.0 92.0 109.0 90.0 C109.0 89.0 111.0 87.0 112.0 87.0 L128.0 87.0 C130.0 87.0 131.0 89.0 131.0 90.0 C131.0 92.0 130.0 94.0 128.0 94.0 L128.0 94.0 Z"></path>
<path fill="#665555" fill-opacity="1.0"  filling="0" d="M128.0 94.0 L112.0 94.0 C111.0 94.0 109.0 92.0 109.0 90.0 C109.0 89.0 111.0 87.0 112.0 87.0 L128.0 87.0 C130.0 87.0 131.0 89.0 131.0 90.0 C131.0 92.0 130.0 94.0 128.0 94.0 L128.0 94.0 Z"></path>
<path fill="#665555" fill-opacity="1.0"  filling="0" d="M100.0 94.0 L94.0 94.0 C92.0 94.0 90.0 92.0 90.0 90.0 C90.0 89.0 92.0 87.0 94.0 87.0 L100.0 87.0 C102.0 87.0 103.0 89.0 103.0 90.0 C103.0 92.0 102.0 94.0 100.0 94.0 L100.0 94.0 Z"></path>
<path fill="#554444" fill-opacity="1.0"  filling="0" d="M128.0 94.0 L112.0 94.0 C111.0 94.0 109.0 92.0 109.0 90.0 C109.0 89.0 111.0 87.0 112.0 87.0 L128.0 87.0 C130.0 87.0 131.0 89.0 131.0 90.0 C131.0 92.0 130.0 94.0 128.0 94.0 L128.0 94.0 Z"></path>
<path fill="#665555" fill-opacity="1.0"  filling="0" d="M128.0 94.0 L112.0 94.0 C111.0 94.0 109.0 92.0 109.0 90.0 C109.0 89.0 111.0 87.0 112.0 87.0 L128.0 87.0 C130.0 87.0 131.0 89.0 131.0 90.0 C131.0 92.0 130.0 94.0 128.0 94.0 L128.0 94.0 Z"></path>
<path fill="#665555" fill-opacity="1.0"  filling="0" d="M100.0 94.0 L94.0 94.0 C92.0 94.0 90.0 92.0 90.0 90.0 C90.0 89.0 92.0 87.0 94.0 87.0 L100.0 87.0 C102.0 87.0 103.0 89.0 103.0 90.0 C103.0 92.0 102.0 94.0 100.0 94.0 L100.0 94.0 Z"></path>
<path fill="#554444" fill-opacity="1.0"  filling="0" d="M128.0 94.0 L112.0 94.0 C111.0 94.0 109.0 92.0 109.0 90.0 C109.0 89.0 111.0 87.0 112.0 87.0 L128.0 87.0 C130.0 87.0 131.0 89.0 131.0 90.0 C131.0 92.0 130.0 94.0 128.0 94.0 L128.0 94.0 Z"></path>
<path fill="#665555" fill-opacity="1.0"  filling="0" d="M128.0 94.0 L112.0 94.0 C111.0 94.0 109.0 92.0 109.0 90.0 C109.0 89.0 111.0 87.0 112.0 87.0 L128.0 87.0 C130.0 87.0 131.0 89.0 131.0 90.0 C131.0 92.0 130.0 94.0 128.0 94.0 L128.0 94.0 Z"></path>
<path fill="#665555" fill-opacity="1.0"  filling="0" d="M100.0 94.0 L94.0 94.0 C92.0 94.0 90.0 92.0 90.0 90.0 C90.0 89.0 92.0 87.0 94.0 87.0 L100.0 87.0 C102.0 87.0 103.0 89.0 103.0 90.0 C103.0 92.0 102.0 94.0 100.0 94.0 L100.0 94.0 Z"></path>
<path fill="#554444" fill-opacity="1.0"  filling="0" d="M128.0 94.0 L112.0 94.0 C111.0 94.0 109.0 92.0 109.0 90.0 C109.0 89.0 111.0 87.0 112.0 87.0 L128.0 87.0 C130.0 87.0 131.0 89.0 131.0 90.0 C131.0 92.0 130.0 94.0 128.0 94.0 L128.0 94.0 Z"></path>
<path fill="#665555" fill-opacity="1.0"  filling="0" d="M128.0 94.0 L112.0 94.0 C111.0 94.0 109.0 92.0 109.0 90.0 C109.0 89.0 111.0 87.0 112.0 87.0 L128.0 87.0 C130.0 87.0 131.0 89.0 131.0 90.0 C131.0 92.0 130.0 94.0 128.0 94.0 L128.0 94.0 Z"></path>
<path fill="#665555" fill-opacity="1.0"  filling="0" d="M100.0 94.0 L94.0 94.0 C92.0 94.0 90.0 92.0 90.0 90.0 C90.0 89.0 92.0 87.0 94.0 87.0 L100.0 87.0 C102.0 87.0 103.0 89.0 103.0 90.0 C103.0 92.0 102.0 94.0 100.0 94.0 L100.0 94.0 Z"></path>
<path fill="#554444" fill-opacity="1.0"  filling="0" d="M128.0 94.0 L112.0 94.0 C111.0 94.0 109.0 92.0 109.0 90.0 C109.0 89.0 111.0 87.0 112.0 87.0 L128.0 87.0 C130.0 87.0 131.0 89.0 131.0 90.0 C131.0 92.0 130.0 94.0 128.0 94.0 L128.0 94.0 Z"></path>
<path fill="#665555" fill-opacity="1.0"  filling="0" d="M128.0 94.0 L112.0 94.0 C111.0 94.0 109.0 92.0 109.0 90.0 C109.0 89.0 111.0 87.0 112.0 87.0 L128.0 87.0 C130.0 87.0 131.0 89.0 131.0 90.0 C131.0 92.0 130.0 94.0 128.0 94.0 L128.0 94.0 Z"></path>
<path fill="#665555" fill-opacity="1.0"  filling="0" d="M100.0 94.0 L94.0 94.0 C92.0 94.0 90.0 92.0 90.0 90.0 C90.0 89.0 92.0 87.0 94.0 87.0 L100.0 87.0 C102.0 87.0 103.0 89.0 103.0 90.0 C103.0 92.0 102.0 94.0 100.0 94.0 L100.0 94.0 Z"></path>
<path fill="#554444" fill-opacity="1.0"  filling="0" d="M128.0 94.0 L112.0 94.0 C111.0 94.0 109.0 92.0 109.0 90.0 C109.0 89.0 111.0 87.0 112.0 87.0 L128.0 87.0 C130.0 87.0 131.0 89.0 131.0 90.0 C131.0 92.0 130.0 94.0 128.0 94.0 L128.0 94.0 Z"></path>
<path fill="#665555" fill-opacity="1.0"  filling="0" d="M128.0 94.0 L112.0 94.0 C111.0 94.0 109.0 92.0 109.0 90.0 C109.0 89.0 111.0 87.0 112.0 87.0 L128.0 87.0 C130.0 87.0 131.0 89.0 131.0 90.0 C131.0 92.0 130.0 94.0 128.0 94.0 L128.0 94.0 Z"></path>
<path fill="#665555" fill-opacity="1.0"  filling="0" d="M100.0 94.0 L94.0 94.0 C92.0 94.0 90.0 92.0 90.0 90.0 C90.0 89.0 92.0 87.0 94.0 87.0 L100.0 87.0 C102.0 87.0 103.0 89.0 103.0 90.0 C103.0 92.0 102.0 94.0 100.0 94.0 L100.0 94.0 Z"></path>
<path fill="#000000" fill-opacity="1.0"  filling="0" d="M128.0 94.0 L112.0 94.0 C111.0 94.0 109.0 92.0 109.0 90.0 C109.0 89.0 111.0 87.0 112.0 87.0"></path></svg>