<svg xmlns="http://www.w3.org/2000/svg" viewBox="0.0 0.0 200.0 200.0" height="200px" width="200px"><path fill="#ddddbb" fill-opacity="1.0"  filling="0" d="M124.0 34.0 L24.0 34.0 C22.0 34.0 21.0 35.0 21.0 37.0 C21.0 39.0 22.0 40.0 24.0 40.0 L31.0 40.0 L31.0 55.0 C31.0 56.0 33.0 58.0 34.0 58.0 C36.0 58.0 37.0 56.0 37.0 55.0 L37.0 40.0 L70.0 40.0 L70.0 55.0 C70.0 56.0 72.0 58.0 73.0 58.0 C75.0 58.0 77.0 56.0 77.0 55.0 L77.0 40.0 L110.0 40.0 L110.0 55.0 C110.0 56.0 112.0 58.0 113.0 58.0 C115.0 58.0 117.0 56.0 117.0 55.0 L117.0 40.0 L124.0 40.0 C126.0 40.0 127.0 39.0 127.0 37.0 C127.0 35.0 126.0 34.0 124.0 34.0 L124.0 34.0 Z"></path>
<path fill="#003333" fill-opacity="1.0"  filling="0" d="M94.0 53.0 L28.0 53.0 C25.0 53.0 21.0 56.0 21.0 60.0 L21.0 136.0 C21.0 140.0 25.0 144.0 28.0 144.0 L94.0 144.0 L94.0 53.0 L94.0 53.0 Z"></path>
<path fill="#000000" fill-opacity="1.0"  filling="0" d="M94.0 147.0 L28.0 147.0 C22.0 147.0 17.0 142.0 17.0 136.0 L17.0 60.0 C17.0 54.0 22.0 49.0 28.0 49.0 L94.0 49.0 C96.0 49.0 97.0 50.0 97.0 52.0 L97.0 144.0 C97.0 145.0 96.0 147.0 94.0 147.0 L94.0 147.0 Z M28.0 56.0 C26.0 56.0 24.0 58.0 24.0 60.0 L24.0 136.0 C24.0 138.0 26.0 140.0 28.0 140.0 L91.0 140.0 L91.0 56.0 L28.0 56.0 L28.0 56.0 Z"></path>
<path fill="#003333" fill-opacity="1.0"  filling="0" d="M106.0 53.0 L172.0 53.0 C175.0 53.0 179.0 56.0 179.0 60.0 L179.0 136.0 C179.0 140.0 175.0 144.0 172.0 144.0 L106.0 144.0 L106.0 53.0 L106.0 53.0 Z"></path>
<path fill="#000000" fill-opacity="1.0"  filling="0" d="M172.0 147.0 L106.0 147.0 C104.0 147.0 103.0 145.0 103.0 144.0 L103.0 52.0 C103.0 50.0 104.0 49.0 106.0 49.0 L172.0 49.0 C178.0 49.0 183.0 54.0 183.0 60.0 L183.0 136.0 C183.0 142.0 178.0 147.0 172.0 147.0 L172.0 147.0 Z M109.0 140.0 L172.0 140.0 C174.0 140.0 176.0 138.0 176.0 136.0 L176.0 60.0 C176.0 58.0 174.0 56.0 172.0 56.0 L109.0 56.0 L109.0 140.0 L109.0 140.0 Z"></path>
<path fill="#000000" fill-opacity="1.0"  filling="0" d="M100.0 168.0 C98.0 168.0 97.0 167.0 97.0 165.0 L97.0 52.0 C97.0 50.0 98.0 49.0 100.0 49.0 C102.0 49.0 103.0 50.0 103.0 52.0 L103.0 165.0 C103.0 167.0 102.0 168.0 100.0 168.0 L100.0 168.0 Z"></path>
<path fill="#000000" fill-opacity="1.0"  filling="0" d="M100.0 168.0 C98.0 168.0 97.0 167.0 97.0 165.0 L97.0 52.0 C97.0 50.0 98.0 49.0 100.0 49.0 C102.0 49.0 103.0 50.0 103.0 52.0 L103.0 165.0 C103.0 167.0 102.0 168.0 100.0 168.0 L100.0 168.0 Z"></path>
<path fill="#000000" fill-opacity="1.0"  filling="0" d="M100.0 168.0 C98.0 168.0 97.0 167.0 97.0 165.0 L97.0 52.0 C97.0 50.0 98.0 49.0 100.0 49.0 C102.0 49.0 103.0 50.0 103.0 52.0 L103.0 165.0 C103.0 167.0 102.0 168.0 100.0 168.0 L100.0 168.0 Z"></path>
<path fill="#000000" fill-opacity="1.0"  filling="0" d="M100.0 168.0 C98.0 168.0 97.0 167.0 97.0 165.0 L97.0 52.0 C97.0 50.0 98.0 49.0 100.0 49.0 C102.0 49.0 103.0 50.0 103.0 52.0 L103.0 165.0 C103.0 167.0 102.0 168.0 100.0 168.0 L100.0 168.0 Z"></path>
<path fill="#000000" fill-opacity="1.0"  filling="0" d="M100.0 168.0 C98.0 168.0 97.0 167.0 97.0 165.0 L97.0 52.0 C97.0 50.0 98.0 49.0 100.0 49.0 C102.0 49.0 103.0 50.0 103.0 52.0 L103.0 165.0 C103.0 167.0 102.0 168.0 100.0 168.0 L100.0 168.0 Z"></path>
<path fill="#000000" fill-opacity="1.0"  filling="0" d="M100.0 168.0 C98.0 168.0 97.0 167.0 97.0 165.0 L97.0 52.0 C97.0 50.0 98.0 49.0 100.0 49.0 C102.0 49.0 103.0 50.0 103.0 52.0 L103.0 165.0 C103.0 167.0 102.0 168.0 100.0 168.0 L100.0 168.0 Z"></path>
<path fill="#000000" fill-opacity="1.0"  filling="0" d="M100.0 168.0 C98.0 168.0 97.0 167.0 97.0 165.0 L97.0 52.0 C97.0 50.0 98.0 49.0 100.0 49.0 C102.0 49.0 103.0 50.0 103.0 52.0 L103.0 165.0 C103.0 167.0 102.0 168.0 100.0 168.0 L100.0 168.0 Z"></path>
<path fill="#000000" fill-opacity="1.0"  filling="0" d="M100.0 168.0 C98.0 168.0 97.0 167.0 97.0 165.0 L97.0 52.0 C97.0 50.0 98.0 49.0 100.0 49.0 C102.0 49.0 103.0 50.0 103.0 52.0 L103.0 165.0 C103.0 167.0 102.0 168.0 100.0 168.0 L100.0 168.0 Z"></path>
<path fill="#000000" fill-opacity="1.0"  filling="0" d="M100.0 168.0 C98.0 168.0 97.0 167.0 97.0 165.0 L97.0 52.0 C97.0 50.0 98.0 49.0 100.0 49.0 C102.0 49.0 103.0 50.0 103.0 52.0 L103.0 165.0 C103.0 167.0 102.0 168.0 100.0 168.0 L100.0 168.0 Z"></path>
<path fill="#000000" fill-opacity="1.0"  filling="0" d="M100.0 168.0 C98.0 168.0 97.0 167.0 97.0 165.0 L97.0 52.0 C97.0 50.0 98.0 49.0 100.0 49.0 C102.0 49.0 103.0 50.0 103.0 52.0 L103.0 165.0 C103.0 167.0 102.0 168.0 100.0 168.0 L100.0 168.0 Z"></path>
<path fill="#000000" fill-opacity="1.0"  filling="0" d="M100.0 168.0 C98.0 168.0 97.0 167.0 97.0 165.0 L97.0 52.0 C97.0 50.0 98.0 49.0 100.0 49.0 C102.0 49.0 103.0 50.0 103.0 52.0 L103.0 165.0 C103.0 167.0 102.0 168.0 100.0 168.0 L100.0 168.0 Z"></path>
<path fill="#000000" fill-opacity="1.0"  filling="0" d="M100.0 168.0 C98.0 168.0 97.0 167.0 97.0 165.0 L97.0 52.0 C97.0 50.0 98.0 49.0 100.0 49.0 C102.0 49.0 103.0 50.0 103.0 52.0 L103.0 165.0 C103.0 167.0 102.0 168.0 100.0 168.0 L100.0 168.0 Z"></path>
<path fill="#000000" fill-opacity="1.0"  filling="0" d="M100.0 168.0 C98.0 168.0 97.0 167.0 97.0 165.0 L97.0 52.0 C97.0 50.0 98.0 49.0 100.0 49.0 C102.0 49.0 103.0 50.0 103.0 52.0 L103.0 165.0 C103.0 167.0 102.0 168.0 100.0 168.0 L100.0 168.0 Z"></path>
<path fill="#000000" fill-opacity="1.0"  filling="0" d="M100.0 168.0 C98.0 168.0 97.0 167.0 97.0 165.0 L97.0 52.0 C97.0 50.0 98.0 49.0 100.0 49.0 C102.0 49.0 103.0 50.0 103.0 52.0 L103.0 165.0 C103.0 167.0 102.0 168.0 100.0 168.0 L100.0 168.0 Z"></path>
<path fill="#000000" fill-opacity="1.0"  filling="0" d="M100.0 168.0 C98.0 168.0 97.0 167.0 97.0 165.0 L97.0 52.0 C97.0 50.0 98.0 49.0 100.0 49.0 C102.0 49.0 103.0 50.0 103.0 52.0 L103.0 165.0 C103.0 167.0 102.0 168.0 100.0 168.0 L100.0 168.0 Z"></path>
<path fill="#000000" fill-opacity="1.0"  filling="0" d="M100.0 168.0 C98.0 168.0 97.0 167.0 97.0 165.0 L97.0 52.0 C97.0 50.0 98.0 49.0 100.0 49.0 C102.0 49.0 103.0 50.0 103.0 52.0 L103.0 165.0 C103.0 167.0 102.0 168.0 100.0 168.0 L100.0 168.0 Z"></path>
<path fill="#000000" fill-opacity="1.0"  filling="0" d="M100.0 168.0 C98.0 168.0 97.0 167.0 97.0 165.0 L97.0 52.0 C97.0 50.0 98.0 49.0 100.0 49.0 C102.0 49.0 103.0 50.0 103.0 52.0 L103.0 165.0 C103.0 167.0 102.0 168.0 100.0 168.0 L100.0 168.0 Z"></path>
<path fill="#000000" fill-opacity="1.0"  filling="0" d="M100.0 168.0 C98.0 168.0 97.0 167.0 97.0 165.0 L97.0 52.0 C97.0 50.0 98.0 49.0 100.0 49.0 C102.0 49.0 103.0 50.0 103.0 52.0 L103.0 165.0 C103.0 167.0 102.0 168.0 100.0 168.0 L100.0 168.0 Z"></path>
<path fill="#000000" fill-opacity="1.0"  filling="0" d="M100.0 168.0 C98.0 168.0 97.0 167.0 97.0 165.0 L97.0 52.0 C97.0 50.0 98.0 49.0 100.0 49.0 C102.0 49.0 103.0 50.0 103.0 52.0 L103.0 165.0 C103.0 167.0 102.0 168.0 100.0 168.0 L100.0 168.0 Z"></path>
<path fill="#000000" fill-opacity="1.0"  filling="0" d="M100.0 168.0 C98.0 168.0 97.0 167.0 97.0 165.0 L97.0 52.0 C97.0 50.0 98.0 49.0 100.0 49.0 C102.0 49.0 103.0 50.0 103.0 52.0 L103.0 165.0 C103.0 167.0 102.0 168.0 100.0 168.0 L100.0 168.0 Z"></path>
<path fill="#000000" fill-opacity="1.0"  filling="0" d="M100.0 168.0 C98.0 168.0 97.0 167.0 97.0 165.0 L97.0 52.0 C97.0 50.0 98.0 49.0 100.0 49.0 C102.0 49.0 103.0 50.0 103.0 52.0 L103.0 165.0 C103.0 167.0 102.0 168.0 100.0 168.0 L100.0 168.0 Z"></path>
<path fill="#000000" fill-opacity="1.0"  filling="0" d="M100.0 168.0 C98.0 168.0 97.0 167.0 97.0 165.0 L97.0 52.0 C97.0 50.0 98.0 49.0 100.0 49.0 C102.0 49.0 103.0 50.0 103.0 52.0 L103.0 165.0 C103.0 167.0 102.0 168.0 100.0 168.0 L100.0 168.0 Z"></path>
<path fill="#000000" fill-opacity="1.0"  filling="0" d="M100.0 168.0 C98.0 168.0 97.0 167.0 97.0 165.0 L97.0 52.0 C97.0 50.0 98.0 49.0 100.0 49.0 C102.0 49.0 103.0 50.0 103.0 52.0 L103.0 165.0 C103.0 167.0 102.0 168.0 100.0 168.0 L100.0 168.0 Z"></path>
<path fill="#000000" fill-opacity="1.0"  filling="0" d="M100.0 168.0 C98.0 168.0 97.0 167.0 97.0 165.0 L97.0 52.0 C97.0 50.0 98.0 49.0 100.0 49.0 C102.0 49.0 103.0 50.0 103.0 52.0 L103.0 165.0 C103.0 167.0 102.0 168.0 100.0 168.0 L100.0 168.0 Z"></path>
<path fill="#000000" fill-opacity="1.0"  filling="0" d="M100.0 168.0 C98.0 168.0 97.0 167.0 97.0 165.0 L97.0 52.0 C97.0 50.0 98.0 49.0 100.0 49.0 C102.0 49.0 103.0 50.0 103.0 52.0 L103.0 165.0 C103.0 167.0 102.0 168.0 100.0 168.0 L100.0 168.0 Z"></path>
<path fill="#000000" fill-opacity="1.0"  filling="0" d="M100.0 168.0 C98.0 168.0 97.0 167.0 97.0 165.0 L97.0 52.0 C97.0 50.0 98.0 49.0 100.0 49.0 C102.0 49.0 103.0 50.0 103.0 52.0 L103.0 165.0 C103.0 167.0 102.0 168.0 100.0 168.0 L100.0 168.0 Z"></path>
<path fill="#000000" fill-opacity="1.0"  filling="0" d="M100.0 168.0 C98.0 168.0 97.0 167.0 97.0 165.0 L97.0 52.0 C97.0 50.0 98.0 49.0 100.0 49.0 C102.0 49.0 103.0 50.0 103.0 52.0 L103.0 165.0 C103.0 167.0 102.0 168.0 100.0 168.0 L100.0 168.0 Z"></path>
<path fill="#000000" fill-opacity="1.0"  filling="0" d="M100.0 168.0 C98.0 168.0 97.0 167.0 97.0 165.0 L97.0 52.0 C97.0 50.0 98.0 49.0 100.0 49.0 C102.0 49.0 103.0 50.0 103.0 52.0 L103.0 165.0 C103.0 167.0 102.0 168.0 100.0 168.0 L100.0 168.0 Z"></path>
<path fill="#000000" fill-opacity="1.0"  filling="0" d="M100.0 168.0 C98.0 168.0 97.0 167.0 97.0 165.0 L97.0 52.0 C97.0 50.0 98.0 49.0 100.0 49.0 C102.0 49.0 103.0 50.0 103.0 52.0 L103.0 165.0 C103.0 167.0 102.0 168.0 100.0 168.0 L100.0 168.0 Z"></path>
<path fill="#000000" fill-opacity="1.0"  filling="0" d="M100.0 168.0 C98.0 168.0 97.0 167.0 97.0 165.0 L97.0 52.0 C97.0 50.0 98.0 49.0 100.0 49.0 C102.0 49.0 103.0 50.0 103.0 52.0 L103.0 165.0 C103.0 167.0 102.0 168.0 100.0 168.0 L100.0 168.0 Z"></path>
<path fill="#000000" fill-opacity="1.0"  filling="0" d="M100.0 168.0 C98.0 168.0 97.0 167.0 97.0 165.0 L97.0 52.0 C97.0 50.0 98.0 49.0 100.0 49.0 C102.0 49.0 103.0 50.0 103.0 52.0 L103.0 165.0 C103.0 167.0 102.0 168.0 100.0 168.0 L100.0 168.0 Z"></path>
<path fill="#000000" fill-opacity="1.0"  filling="0" d="M100.0 168.0 C98.0 168.0 97.0 167.0 97.0 165.0 L97.0 52.0 C97.0 50.0 98.0 49.0 100.0 49.0 C102.0 49.0 103.0 50.0 103.0 52.0 L103.0 165.0 C103.0 167.0 102.0 168.0 100.0 168.0 L100.0 168.0 Z"></path>
<path fill="#000000" fill-opacity="1.0"  filling="0" d="M100.0 168.0 C98.0 168.0 97.0 167.0 97.0 165.0 L97.0 52.0 C97.0 50.0 98.0 49.0 100.0 49.0 C102.0 49.0 103.0 50.0 103.0 52.0 L103.0 165.0 C103.0 167.0 102.0 168.0 100.0 168.0 L100.0 168.0 Z"></path>
<path fill="#000000" fill-opacity="1.0"  filling="0" d="M100.0 168.0 C98.0 168.0 97.0 167.0 97.0 165.0 L97.0 52.0 C97.0 50.0 98.0 49.0 100.0 49.0 C102.0 49.0 103.0 50.0 103.0 52.0 L103.0 165.0 C103.0 167.0 102.0 168.0 100.0 168.0 L100.0 168.0 Z"></path>
<path fill="#000000" fill-opacity="1.0"  filling="0" d="M100.0 168.0 C98.0 168.0 97.0 167.0 97.0 165.0 L97.0 52.0 C97.0 50.0 98.0 49.0 100.0 49.0 C102.0 49.0 103.0 50.0 103.0 52.0 L103.0 165.0 C103.0 167.0 102.0 168.0 100.0 168.0 L100.0 168.0 Z"></path>
<path fill="#000000" fill-opacity="1.0"  filling="0" d="M100.0 168.0 C98.0 168.0 97.0 167.0 97.0 165.0 L97.0 52.0 C97.0 50.0 98.0 49.0 100.0 49.0 C102.0 49.0 103.0 50.0 103.0 52.0 L103.0 165.0 C103.0 167.0 102.0 168.0 100.0 168.0 L100.0 168.0 Z"></path>
<path fill="#000000" fill-opacity="1.0"  filling="0" d="M100.0 168.0 C98.0 168.0 97.0 167.0 97.0 165.0 L97.0 52.0 C97.0 50.0 98.0 49.0 100.0 49.0 C102.0 49.0 103.0 50.0 103.0 52.0 L103.0 165.0 C103.0 167.0 102.0 168.0 100.0 168.0 L100.0 168.0 Z"></path>
<path fill="#000000" fill-opacity="1.0"  filling="0" d="M100.0 168.0 C98.0 168.0 97.0 167.0 97.0 165.0 L97.0 52.0 C97.0 50.0 98.0 49.0 100.0 49.0 C102.0 49.0 103.0 50.0 103.0 52.0 L103.0 165.0 C103.0 167.0 102.0 168.0 100.0 168.0 L100.0 168.0 Z"></path>
<path fill="#000000" fill-opacity="1.0"  filling="0" d="M100.0 168.0 C98.0 168.0 97.0 167.0 97.0 165.0 L97.0 52.0 C97.0 50.0 98.0 49.0 100.0 49.0"></path></svg>