<svg xmlns="http://www.w3.org/2000/svg" viewBox="0.0 0.0 200.0 200.0" height="200px" width="200px"><path fill="#8877bb" fill-opacity="1.0"  filling="0" d="M163.0 115.0 A63.0 63.0 0.0 1 1 37.0 115.0 A63.0 63.0 0.0 1 1 163.0 115.0 L163.0 115.0 Z"></path>
<path fill="#eeeeff" fill-opacity="1.0"  filling="0" d="M47.0 115.0 C47.0 83.0 71.0 56.0 100.0 53.0 C97.0 53.0 94.0 53.0 92.0 53.0 C61.0 56.0 37.0 83.0 37.0 115.0 C37.0 149.0 64.0 176.0 100.0 176.0 C100.0 176.0 101.0 176.0 101.0 176.0 C71.0 174.0 47.0 147.0 47.0 115.0 L47.0 115.0 Z"></path>
<path fill="#99ddcc" fill-opacity="1.0"  filling="0" d="M145.0 115.0 A45.0 45.0 0.0 1 1 55.0 115.0 A45.0 45.0 0.0 1 1 145.0 115.0 L145.0 115.0 Z"></path>
<path fill="#eeeeff" fill-opacity="1.0"  filling="0" d="M64.0 115.0 C64.0 91.0 81.0 72.0 103.0 70.0 C101.0 70.0 101.0 70.0 100.0 70.0 C75.0 70.0 55.0 90.0 55.0 115.0 C55.0 140.0 75.0 161.0 100.0 161.0 C101.0 161.0 101.0 161.0 103.0 161.0 C81.0 159.0 64.0 139.0 64.0 115.0 L64.0 115.0 Z"></path>
<path fill="#ffcc00" fill-opacity="1.0"  filling="0" d="M110.0 115.0 A10.0 10.0 0.0 1 1 90.0 115.0 A10.0 10.0 0.0 1 1 110.0 115.0 L110.0 115.0 Z"></path>
<path fill="#883366" fill-opacity="1.0"  filling="0" d="M100.0 76.0 L94.0 105.0 C96.0 106.0 98.0 107.0 100.0 107.0 C102.0 107.0 104.0 106.0 106.0 105.0 L100.0 76.0 L100.0 76.0 Z"></path>
<path fill="#442244" fill-opacity="1.0"  filling="0" d="M100.0 156.0 C126.0 156.0 147.0 138.0 148.0 115.0 C148.0 89.0 126.0 68.0 100.0 67.0 C74.0 67.0 53.0 88.0 52.0 115.0 C52.0 139.0 74.0 157.0 100.0 156.0 L100.0 156.0 Z M97.0 72.0 L97.0 76.0 L92.0 105.0 C89.0 108.0 87.0 112.0 87.0 115.0 C87.0 119.0 89.0 123.0 92.0 125.0 L97.0 154.0 L97.0 159.0 C75.0 157.0 57.0 139.0 57.0 115.0 C57.0 92.0 75.0 73.0 97.0 72.0 L97.0 72.0 Z M103.0 110.0 L103.0 124.0 C103.0 124.0 103.0 124.0 103.0 124.0 C107.0 122.0 108.0 119.0 108.0 115.0 C108.0 113.0 107.0 110.0 103.0 109.0 C103.0 109.0 103.0 109.0 103.0 110.0 L103.0 110.0 Z M97.0 109.0 C97.0 109.0 97.0 109.0 97.0 109.0 L97.0 110.0 C93.0 110.0 92.0 113.0 92.0 115.0 C92.0 119.0 93.0 122.0 97.0 124.0 C97.0 124.0 97.0 124.0 97.0 124.0 L97.0 110.0 C97.0 109.0 97.0 109.0 97.0 109.0 L97.0 109.0 Z M103.0 129.0 L100.0 144.0 L97.0 129.0 C97.0 129.0 97.0 129.0 97.0 128.0 C97.0 128.0 97.0 128.0 97.0 128.0 C93.0 127.0 90.0 121.0 90.0 115.0 C90.0 111.0 93.0 106.0 97.0 105.0 C97.0 105.0 97.0 105.0 97.0 105.0 L97.0 105.0 C98.0 105.0 99.0 105.0 100.0 105.0 C101.0 105.0 102.0 105.0 103.0 105.0 L103.0 105.0 C103.0 105.0 103.0 105.0 103.0 105.0 C107.0 106.0 110.0 111.0 110.0 115.0 C110.0 121.0 107.0 127.0 103.0 128.0 C103.0 128.0 103.0 128.0 103.0 128.0 C103.0 129.0 103.0 129.0 103.0 129.0 L103.0 129.0 Z M103.0 110.0 C103.0 109.0 103.0 109.0 103.0 109.0 C103.0 109.0 103.0 109.0 103.0 110.0 L103.0 110.0 Z M97.0 110.0 C97.0 109.0 97.0 109.0 97.0 109.0 C97.0 109.0 97.0 109.0 97.0 110.0 L97.0 110.0 Z"></path>
<path fill="#442244" fill-opacity="1.0"  filling="0" d="M110.0 52.0 L110.0 49.0 L117.0 49.0 C121.0 49.0 124.0 46.0 124.0 42.0 L124.0 28.0 C124.0 24.0 121.0 22.0 117.0 22.0 L83.0 22.0 C79.0 22.0 76.0 24.0 76.0 28.0 L76.0 42.0 C76.0 46.0 79.0 49.0 83.0 49.0 L90.0 49.0 L90.0 52.0 C57.0 58.0 34.0 84.0 34.0 115.0 C34.0 150.0 64.0 178.0 100.0 178.0 C136.0 178.0 166.0 150.0 166.0 115.0 C166.0 84.0 143.0 58.0 110.0 52.0 L110.0 52.0 Z M82.0 42.0 L82.0 28.0 C82.0 27.0 82.0 26.0 83.0 26.0 L117.0 26.0 C118.0 26.0 118.0 27.0 118.0 28.0 L118.0 42.0 C118.0 43.0 118.0 44.0 117.0 44.0 L83.0 44.0 C82.0 44.0 82.0 43.0 82.0 42.0 L82.0 42.0 Z M95.0 49.0 L105.0 49.0 L105.0 52.0 C103.0 52.0 102.0 52.0 100.0 52.0 C98.0 52.0 97.0 52.0 95.0 52.0 L95.0 49.0 L95.0 49.0 Z M100.0 174.0 C66.0 174.0 39.0 147.0 39.0 115.0 C39.0 82.0 66.0 57.0 100.0 57.0 C134.0 57.0 161.0 82.0 161.0 115.0 C161.0 147.0 134.0 174.0 100.0 174.0 L100.0 174.0 Z"></path>
<path fill="#442244" fill-opacity="1.0"  filling="0" d="M127.0 72.0 L130.0 68.0 C128.0 66.0 125.0 65.0 122.0 64.0 L120.0 68.0 C122.0 69.0 125.0 71.0 127.0 72.0 L127.0 72.0 Z"></path>
<path fill="#442244" fill-opacity="1.0"  filling="0" d="M132.0 76.0 C141.0 82.0 146.0 91.0 149.0 100.0 L153.0 99.0 C150.0 89.0 144.0 79.0 135.0 72.0 L132.0 76.0 L132.0 76.0 Z"></path>
<path fill="#442244" fill-opacity="1.0"  filling="0" d="M62.0 113.0 L70.0 113.0 L70.0 118.0 L62.0 118.0 L62.0 113.0 L62.0 113.0 Z"></path>
<path fill="#442244" fill-opacity="1.0"  filling="0" d="M130.0 113.0 L138.0 113.0 L138.0 118.0 L130.0 118.0 L130.0 113.0 L130.0 113.0 Z"></path>
<path fill="#442244" fill-opacity="1.0"  filling="0" d="M71.0 141.0 L77.0 135.0 L80.0 138.0 L75.0 144.0 L71.0 141.0 L71.0 141.0 Z"></path>
<path fill="#442244" fill-opacity="1.0"  filling="0" d="M120.0 92.0 L125.0 87.0 L129.0 90.0 L123.0 95.0 L120.0 92.0 L120.0 92.0 Z"></path>
<path fill="#442244" fill-opacity="1.0"  filling="0" d="M120.0 138.0 L123.0 135.0 L129.0 141.0 L125.0 144.0 L120.0 138.0 L120.0 138.0 Z"></path>
<path fill="#442244" fill-opacity="1.0"  filling="0" d="M71.0 90.0 L75.0 87.0 L80.0 92.0 L77.0 95.0 L71.0 90.0 L71.0 90.0 Z"></path>
<path fill="#442244" fill-opacity="1.0"  filling="0" d="M90.0 35.0 L95.0 35.0 L95.0 44.0 L90.0 44.0 L90.0 35.0 L90.0 35.0 Z"></path>
<path fill="#442244" fill-opacity="1.0"  filling="0" d="M105.0 35.0 L110.0 35.0 L110.0 44.0 L105.0 44.0 L105.0 35.0 L105.0 35.0 Z"></path></svg>