<svg xmlns="http://www.w3.org/2000/svg" viewBox="0.0 0.0 200.0 200.0" height="200px" width="200px"><path fill="#8877bb" fill-opacity="1.0"  filling="0" d="M163.0 115.0 A63.0 63.0 0.0 1 1 37.0 115.0 A63.0 63.0 0.0 1 1 163.0 115.0 L163.0 115.0 Z"></path>
<path fill="#eeeeff" fill-opacity="1.0"  filling="0" d="M47.0 115.0 C47.0 83.0 71.0 56.0 100.0 53.0 C97.0 53.0 94.0 53.0 92.0 53.0 C61.0 56.0 37.0 83.0 37.0 115.0 C37.0 149.0 64.0 176.0 100.0 176.0 C106.0 176.0 111.0 175.0 116.0 174.0 C78.0 168.0 47.0 144.0 47.0 115.0 L47.0 115.0 Z"></path>
<path fill="#99ddcc" fill-opacity="1.0"  filling="0" d="M145.0 115.0 A45.0 45.0 0.0 1 1 55.0 115.0 A45.0 45.0 0.0 1 1 145.0 115.0 L145.0 115.0 Z"></path>
<path fill="#eeeeff" fill-opacity="1.0"  filling="0" d="M64.0 115.0 C64.0 91.0 82.0 72.0 106.0 70.0 C104.0 69.0 102.0 69.0 100.0 69.0 C75.0 69.0 55.0 89.0 55.0 115.0 C55.0 140.0 75.0 161.0 100.0 161.0 C102.0 161.0 104.0 161.0 106.0 161.0 C82.0 158.0 64.0 138.0 64.0 115.0 L64.0 115.0 Z"></path>
<path fill="#ffcc00" fill-opacity="1.0"  filling="0" d="M110.0 115.0 A10.0 10.0 0.0 1 1 90.0 115.0 A10.0 10.0 0.0 1 1 110.0 115.0 L110.0 115.0 Z"></path>
<path fill="#ffcc00" fill-opacity="1.0"  filling="0" d="M100.0 3.0 C90.0 3.0 83.0 11.0 83.0 20.0 L83.0 53.0 L117.0 53.0 L117.0 20.0 C117.0 11.0 110.0 3.0 100.0 3.0 L100.0 3.0 Z"></path>
<path fill="#eeeeff" fill-opacity="1.0"  filling="0" d="M100.0 3.0 C90.0 3.0 83.0 11.0 83.0 20.0 L83.0 53.0 L93.0 53.0 L93.0 27.0 C93.0 17.0 100.0 8.0 109.0 5.0 C107.0 4.0 103.0 3.0 100.0 3.0 L100.0 3.0 Z"></path>
<path fill="#ee6666" fill-opacity="1.0"  filling="0" d="M117.0 47.0 L83.0 47.0 C80.0 47.0 78.0 45.0 78.0 43.0 L78.0 28.0 C78.0 26.0 80.0 24.0 83.0 24.0 L117.0 24.0 C120.0 24.0 122.0 26.0 122.0 28.0 L122.0 43.0 C122.0 45.0 120.0 47.0 117.0 47.0 L117.0 47.0 Z"></path>
<path fill="#eeeeff" fill-opacity="1.0"  filling="0" d="M90.0 43.0 L90.0 28.0 C90.0 26.0 92.0 24.0 94.0 24.0 L83.0 24.0 C80.0 24.0 78.0 26.0 78.0 28.0 L78.0 43.0 C78.0 45.0 80.0 47.0 83.0 47.0 L94.0 47.0 C92.0 47.0 90.0 45.0 90.0 43.0 L90.0 43.0 Z"></path>
<path fill="#442244" fill-opacity="1.0"  filling="0" d="M100.0 155.0 C99.0 155.0 97.0 155.0 97.0 154.0 L92.0 125.0 C92.0 124.0 92.0 122.0 94.0 121.0 C95.0 121.0 97.0 122.0 97.0 123.0 L100.0 144.0 L103.0 123.0 C103.0 122.0 105.0 121.0 106.0 121.0 C108.0 122.0 108.0 124.0 108.0 125.0 L103.0 154.0 C103.0 155.0 101.0 155.0 100.0 155.0 L100.0 155.0 Z"></path>
<path fill="#442244" fill-opacity="1.0"  filling="0" d="M100.0 108.0 C99.0 108.0 97.0 107.0 97.0 105.0 L97.0 77.0 C97.0 76.0 99.0 75.0 100.0 75.0 C101.0 75.0 103.0 76.0 103.0 77.0 L103.0 105.0 C103.0 107.0 101.0 108.0 100.0 108.0 L100.0 108.0 Z"></path>
<path fill="#442244" fill-opacity="1.0"  filling="0" d="M62.0 113.0 L70.0 113.0 L70.0 118.0 L62.0 118.0 L62.0 113.0 L62.0 113.0 Z"></path>
<path fill="#442244" fill-opacity="1.0"  filling="0" d="M130.0 113.0 L138.0 113.0 L138.0 118.0 L130.0 118.0 L130.0 113.0 L130.0 113.0 Z"></path>
<path fill="#442244" fill-opacity="1.0"  filling="0" d="M72.0 90.0 L75.0 87.0 L80.0 92.0 L77.0 95.0 L72.0 90.0 L72.0 90.0 Z"></path>
<path fill="#442244" fill-opacity="1.0"  filling="0" d="M120.0 138.0 L123.0 135.0 L128.0 141.0 L125.0 144.0 L120.0 138.0 L120.0 138.0 Z"></path>
<path fill="#442244" fill-opacity="1.0"  filling="0" d="M72.0 141.0 L77.0 135.0 L80.0 138.0 L75.0 144.0 L72.0 141.0 L72.0 141.0 Z"></path>
<path fill="#442244" fill-opacity="1.0"  filling="0" d="M120.0 92.0 L125.0 87.0 L128.0 90.0 L123.0 95.0 L120.0 92.0 L120.0 92.0 Z"></path>
<path fill="#442244" fill-opacity="1.0"  filling="0" d="M97.0 55.0 L103.0 55.0 L103.0 69.0 L97.0 69.0 L97.0 55.0 L97.0 55.0 Z"></path>
<path fill="#442244" fill-opacity="1.0"  filling="0" d="M97.0 97.0 L103.0 97.0 L103.0 103.0 L97.0 103.0 L97.0 97.0 L97.0 97.0 Z"></path>
<path fill="#442244" fill-opacity="1.0"  filling="0" d="M100.0 178.0 C64.0 178.0 34.0 150.0 34.0 115.0 C34.0 80.0 64.0 50.0 100.0 50.0 C136.0 50.0 166.0 80.0 166.0 115.0 C166.0 150.0 136.0 178.0 100.0 178.0 L100.0 178.0 Z M100.0 55.0 C66.0 55.0 39.0 82.0 39.0 115.0 C39.0 147.0 66.0 174.0 100.0 174.0 C134.0 174.0 161.0 147.0 161.0 115.0 C161.0 82.0 134.0 55.0 100.0 55.0 L100.0 55.0 Z"></path>
<path fill="#442244" fill-opacity="1.0"  filling="0" d="M100.0 163.0 C74.0 163.0 52.0 141.0 52.0 115.0 C52.0 88.0 74.0 67.0 100.0 67.0 C126.0 67.0 148.0 88.0 148.0 115.0 C148.0 141.0 126.0 163.0 100.0 163.0 L100.0 163.0 Z M100.0 72.0 C77.0 72.0 57.0 91.0 57.0 115.0 C57.0 139.0 77.0 159.0 100.0 159.0 C123.0 159.0 143.0 139.0 143.0 115.0 C143.0 91.0 123.0 72.0 100.0 72.0 L100.0 72.0 Z"></path>
<path fill="#442244" fill-opacity="1.0"  filling="0" d="M117.0 55.0 L83.0 55.0 C81.0 55.0 80.0 54.0 80.0 53.0 L80.0 20.0 C80.0 9.0 89.0 0.0 100.0 0.0 C111.0 0.0 120.0 9.0 120.0 20.0 L120.0 53.0 C120.0 54.0 119.0 55.0 117.0 55.0 L117.0 55.0 Z M85.0 50.0 L115.0 50.0 L115.0 20.0 C115.0 12.0 108.0 5.0 100.0 5.0 C92.0 5.0 85.0 12.0 85.0 20.0 L85.0 50.0 L85.0 50.0 Z"></path>
<path fill="#442244" fill-opacity="1.0"  filling="0" d="M117.0 49.0 L83.0 49.0 C79.0 49.0 76.0 46.0 76.0 43.0 L76.0 28.0 C76.0 24.0 79.0 22.0 83.0 22.0 L117.0 22.0 C121.0 22.0 124.0 24.0 124.0 28.0 L124.0 43.0 C124.0 46.0 121.0 49.0 117.0 49.0 L117.0 49.0 Z M83.0 26.0 C82.0 26.0 80.0 27.0 80.0 28.0 L80.0 43.0 C80.0 44.0 82.0 44.0 83.0 44.0 L117.0 44.0 C118.0 44.0 120.0 44.0 120.0 43.0 L120.0 28.0 C120.0 27.0 118.0 26.0 117.0 26.0 L83.0 26.0 L83.0 26.0 Z"></path>
<path fill="#442244" fill-opacity="1.0"  filling="0" d="M90.0 35.0 L95.0 35.0 L95.0 47.0 L90.0 47.0 L90.0 35.0 L90.0 35.0 Z"></path>
<path fill="#442244" fill-opacity="1.0"  filling="0" d="M105.0 35.0 L110.0 35.0 L110.0 47.0 L105.0 47.0 L105.0 35.0 L105.0 35.0 Z"></path>
<path fill="#442244" fill-opacity="1.0"  filling="0" d="M100.0 128.0 C93.0 128.0 87.0 122.0 87.0 115.0 C87.0 109.0 93.0 103.0 100.0 103.0 C107.0 103.0 113.0 109.0 113.0 115.0 C113.0 122.0 107.0 128.0 100.0 128.0 L100.0 128.0 Z M100.0 107.0 C95.0 107.0 92.0 111.0 92.0 115.0 C92.0 120.0 95.0 123.0 100.0 123.0 C105.0 123.0 108.0 120.0 108.0 115.0 C108.0 111.0 105.0 107.0 100.0 107.0 L100.0 107.0 Z"></path>
<path fill="#442244" fill-opacity="1.0"  filling="0" d="M127.0 72.0 L120.0 68.0 L122.0 64.0 L129.0 68.0 L127.0 72.0 L127.0 72.0 Z"></path>
<path fill="#442244" fill-opacity="1.0"  filling="0" d="M148.0 99.0 C145.0 90.0 139.0 82.0 132.0 76.0 L135.0 72.0 C143.0 79.0 149.0 87.0 153.0 98.0 L148.0 99.0 L148.0 99.0 Z"></path></svg>