<svg xmlns="http://www.w3.org/2000/svg" viewBox="0.0 0.0 200.0 200.0" height="200px" width="200px"><path fill="#8877bb" fill-opacity="1.0"  filling="0" d="M163.0 115.0 A63.0 63.0 0.0 1 1 37.0 115.0 A63.0 63.0 0.0 1 1 163.0 115.0 L163.0 115.0 Z"></path>
<path fill="#eeeeff" fill-opacity="1.0"  filling="0" d="M47.0 115.0 C47.0 83.0 71.0 56.0 100.0 53.0 C97.0 53.0 94.0 53.0 92.0 53.0 C61.0 56.0 37.0 83.0 37.0 115.0 C37.0 149.0 64.0 176.0 100.0 176.0 C100.0 176.0 100.0 176.0 100.0 176.0 C71.0 174.0 47.0 147.0 47.0 115.0 L47.0 115.0 Z"></path>
<path fill="#99ddcc" fill-opacity="1.0"  filling="0" d="M145.0 115.0 A45.0 45.0 0.0 1 1 55.0 115.0 A45.0 45.0 0.0 1 1 145.0 115.0 L145.0 115.0 Z"></path>
<path fill="#eeeeff" fill-opacity="1.0"  filling="0" d="M64.0 115.0 C64.0 91.0 81.0 72.0 104.0 70.0 C102.0 70.0 101.0 70.0 100.0 70.0 C75.0 70.0 55.0 90.0 55.0 115.0 C55.0 140.0 75.0 161.0 100.0 161.0 C101.0 161.0 102.0 161.0 104.0 161.0 C81.0 159.0 64.0 139.0 64.0 115.0 L64.0 115.0 Z"></path>
<path fill="#ffcc00" fill-opacity="1.0"  filling="0" d="M110.0 115.0 A10.0 10.0 0.0 1 1 90.0 115.0 A10.0 10.0 0.0 1 1 110.0 115.0 L110.0 115.0 Z"></path>
<path fill="#883366" fill-opacity="1.0"  filling="0" d="M100.0 76.0 L94.0 105.0 C96.0 106.0 98.0 107.0 100.0 107.0 C102.0 107.0 104.0 106.0 106.0 105.0 L100.0 76.0 L100.0 76.0 Z"></path>
<path fill="#ee6666" fill-opacity="1.0"  filling="0" d="M100.0 124.0 C106.0 124.0 110.0 120.0 110.0 115.0 C110.0 112.0 109.0 109.0 106.0 108.0 C105.0 108.0 104.0 108.0 104.0 108.0 C100.0 108.0 96.0 113.0 96.0 117.0 C96.0 120.0 97.0 122.0 99.0 123.0 C99.0 123.0 100.0 124.0 100.0 124.0 L100.0 124.0 Z"></path>
<path fill="#eeeeff" fill-opacity="1.0"  filling="0" d="M100.0 76.0 L94.0 105.0 C95.0 105.0 96.0 106.0 97.0 106.0 L100.0 76.0 L100.0 76.0 Z"></path>
<path fill="#442244" fill-opacity="1.0"  filling="0" d="M100.0 163.0 C74.0 163.0 52.0 141.0 52.0 115.0 C52.0 89.0 74.0 67.0 100.0 67.0 C126.0 67.0 148.0 89.0 148.0 115.0 C148.0 141.0 126.0 163.0 100.0 163.0 L100.0 163.0 Z M100.0 72.0 C77.0 72.0 57.0 92.0 57.0 115.0 C57.0 139.0 77.0 159.0 100.0 159.0 C123.0 159.0 143.0 139.0 143.0 115.0 C143.0 92.0 123.0 72.0 100.0 72.0 L100.0 72.0 Z"></path>
<path fill="#442244" fill-opacity="1.0"  filling="0" d="M100.0 128.0 C93.0 128.0 87.0 122.0 87.0 115.0 C87.0 109.0 93.0 103.0 100.0 103.0 C107.0 103.0 113.0 109.0 113.0 115.0 C113.0 122.0 107.0 128.0 100.0 128.0 L100.0 128.0 Z M100.0 107.0 C96.0 107.0 92.0 111.0 92.0 115.0 C92.0 120.0 96.0 123.0 100.0 123.0 C104.0 123.0 108.0 120.0 108.0 115.0 C108.0 111.0 104.0 107.0 100.0 107.0 L100.0 107.0 Z"></path>
<path fill="#442244" fill-opacity="1.0"  filling="0" d="M106.0 107.0 C106.0 107.0 105.0 107.0 105.0 106.0 C103.0 106.0 102.0 104.0 103.0 103.0 L102.0 76.0 C102.0 75.0 102.0 74.0 103.0 74.0 C104.0 73.0 105.0 74.0 105.0 75.0 L108.0 104.0 C108.0 105.0 107.0 106.0 106.0 107.0 L106.0 107.0 Z"></path>
<path fill="#442244" fill-opacity="1.0"  filling="0" d="M94.0 107.0 C93.0 106.0 92.0 105.0 92.0 104.0 L95.0 75.0 C95.0 74.0 96.0 73.0 97.0 74.0 C98.0 74.0 98.0 75.0 98.0 76.0 L97.0 103.0 C98.0 104.0 97.0 106.0 95.0 106.0 C95.0 107.0 94.0 107.0 94.0 107.0 L94.0 107.0 Z"></path>
<path fill="#442244" fill-opacity="1.0"  filling="0" d="M100.0 178.0 C64.0 178.0 34.0 150.0 34.0 115.0 C34.0 80.0 64.0 50.0 100.0 50.0 C136.0 50.0 166.0 80.0 166.0 115.0 C166.0 150.0 136.0 178.0 100.0 178.0 L100.0 178.0 Z M100.0 55.0 C66.0 55.0 39.0 82.0 39.0 115.0 C39.0 148.0 66.0 174.0 100.0 174.0 C134.0 174.0 161.0 148.0 161.0 115.0 C161.0 82.0 134.0 55.0 100.0 55.0 L100.0 55.0 Z"></path>
<path fill="#442244" fill-opacity="1.0"  filling="0" d="M100.0 156.0 C76.0 156.0 57.0 137.0 57.0 115.0 C57.0 92.0 76.0 72.0 100.0 72.0 C124.0 72.0 143.0 92.0 143.0 115.0 C143.0 137.0 124.0 156.0 100.0 156.0 L100.0 156.0 Z M100.0 78.0 C78.0 78.0 61.0 95.0 61.0 115.0 C61.0 135.0 78.0 151.0 100.0 151.0 C122.0 151.0 139.0 135.0 139.0 115.0 C139.0 95.0 122.0 78.0 100.0 78.0 L100.0 78.0 Z"></path>
<path fill="#442244" fill-opacity="1.0"  filling="0" d="M62.0 113.0 L70.0 113.0 L70.0 118.0 L62.0 118.0 L62.0 113.0 L62.0 113.0 Z"></path>
<path fill="#442244" fill-opacity="1.0"  filling="0" d="M130.0 113.0 L138.0 113.0 L138.0 118.0 L130.0 118.0 L130.0 113.0 L130.0 113.0 Z"></path>
<path fill="#442244" fill-opacity="1.0"  filling="0" d="M71.0 140.0 L77.0 135.0 L80.0 138.0 L74.0 143.0 L71.0 140.0 L71.0 140.0 Z"></path>
<path fill="#442244" fill-opacity="1.0"  filling="0" d="M120.0 92.0 L125.0 87.0 L128.0 90.0 L123.0 95.0 L120.0 92.0 L120.0 92.0 Z"></path>
<path fill="#442244" fill-opacity="1.0"  filling="0" d="M120.0 138.0 L123.0 135.0 L129.0 140.0 L126.0 143.0 L120.0 138.0 L120.0 138.0 Z"></path>
<path fill="#442244" fill-opacity="1.0"  filling="0" d="M72.0 90.0 L75.0 87.0 L80.0 92.0 L77.0 95.0 L72.0 90.0 L72.0 90.0 Z"></path>
<path fill="#ffcc00" fill-opacity="1.0"  filling="0" d="M92.0 24.0 L108.0 24.0 L108.0 46.0 L92.0 46.0 L92.0 24.0 L92.0 24.0 Z"></path>
<path fill="#eeeeff" fill-opacity="1.0"  filling="0" d="M92.0 24.0 L100.0 24.0 L100.0 46.0 L92.0 46.0 L92.0 24.0 L92.0 24.0 Z"></path>
<path fill="#442244" fill-opacity="1.0"  filling="0" d="M108.0 49.0 L92.0 49.0 C91.0 49.0 90.0 48.0 90.0 46.0 L90.0 24.0 C90.0 23.0 91.0 22.0 92.0 22.0 L108.0 22.0 C109.0 22.0 110.0 23.0 110.0 24.0 L110.0 46.0 C110.0 48.0 109.0 49.0 108.0 49.0 L108.0 49.0 Z M95.0 44.0 L105.0 44.0 L105.0 26.0 L95.0 26.0 L95.0 44.0 L95.0 44.0 Z"></path>
<path fill="#ffcc00" fill-opacity="1.0"  filling="0" d="M117.0 47.0 L83.0 47.0 C80.0 47.0 78.0 45.0 78.0 43.0 L78.0 28.0 C78.0 25.0 80.0 24.0 83.0 24.0 L117.0 24.0 C120.0 24.0 122.0 25.0 122.0 28.0 L122.0 43.0 C122.0 45.0 120.0 47.0 117.0 47.0 L117.0 47.0 Z"></path>
<path fill="#eeeeff" fill-opacity="1.0"  filling="0" d="M86.0 43.0 L86.0 28.0 C86.0 25.0 88.0 24.0 91.0 24.0 L83.0 24.0 C80.0 24.0 78.0 25.0 78.0 28.0 L78.0 43.0 C78.0 45.0 80.0 47.0 83.0 47.0 L91.0 47.0 C88.0 47.0 86.0 45.0 86.0 43.0 L86.0 43.0 Z"></path>
<path fill="#442244" fill-opacity="1.0"  filling="0" d="M117.0 49.0 L83.0 49.0 C79.0 49.0 76.0 46.0 76.0 43.0 L76.0 28.0 C76.0 24.0 79.0 22.0 83.0 22.0 L117.0 22.0 C121.0 22.0 124.0 24.0 124.0 28.0 L124.0 43.0 C124.0 46.0 121.0 49.0 117.0 49.0 L117.0 49.0 Z M83.0 26.0 C82.0 26.0 80.0 27.0 80.0 28.0 L80.0 43.0 C80.0 44.0 82.0 44.0 83.0 44.0 L117.0 44.0 C118.0 44.0 120.0 44.0 120.0 43.0 L120.0 28.0 C120.0 27.0 118.0 26.0 117.0 26.0 L83.0 26.0 L83.0 26.0 Z"></path>
<path fill="#442244" fill-opacity="1.0"  filling="0" d="M127.0 72.0 L120.0 68.0 L122.0 64.0 L129.0 68.0 L127.0 72.0 L127.0 72.0 Z"></path>
<path fill="#442244" fill-opacity="1.0"  filling="0" d="M127.0 72.0 L121.0 68.0 L123.0 64.0 L130.0 68.0 L127.0 72.0 L127.0 72.0 Z"></path>
<path fill="#442244" fill-opacity="1.0"  filling="0" d="M127.0 72.0 L121.0 68.0 L123.0 64.0 L130.0 68.0 L127.0 72.0 L127.0 72.0 Z"></path>
<path fill="#442244" fill-opacity="1.0"  filling="0" d="M100.0 156.0 C99.0 156.0 98.0 155.0 98.0 154.0 L92.0 125.0 L97.0 124.0 L100.0 144.0 L103.0 124.0 L108.0 125.0 L102.0 154.0 C102.0 155.0 101.0 156.0 100.0 156.0 L100.0 156.0 Z"></path>
<path fill="#442244" fill-opacity="1.0"  filling="0" d="M149.0 99.0 C146.0 90.0 140.0 81.0 132.0 75.0 L135.0 72.0 C143.0 79.0 149.0 87.0 153.0 98.0 L149.0 99.0 L149.0 99.0 Z"></path>
<path fill="#442244" fill-opacity="1.0"  filling="0" d="M100.0 163.0 C74.0 163.0 52.0 141.0 52.0 115.0 C52.0 89.0 74.0 67.0 100.0 67.0 C126.0 67.0 148.0 89.0 148.0 115.0 C148.0 141.0 126.0 163.0 100.0 163.0 L100.0 163.0 Z M100.0 72.0 C77.0 72.0 57.0 92.0 57.0 115.0 C57.0 139.0 77.0 159.0 100.0 159.0 C123.0 159.0 143.0 139.0 143.0 115.0 C143.0 92.0 123.0 72.0 100.0 72.0 L100.0 72.0 Z"></path></svg>