<svg xmlns="http://www.w3.org/2000/svg" viewBox="0.0 0.0 200.0 200.0" height="200px" width="200px"><path fill="#8877bb" fill-opacity="1.0"  filling="0" d="M163.0 115.0 A63.0 63.0 0.0 1 1 37.0 115.0 A63.0 63.0 0.0 1 1 163.0 115.0 L163.0 115.0 Z"></path>
<path fill="#eeeeff" fill-opacity="1.0"  filling="0" d="M47.0 115.0 C47.0 83.0 71.0 56.0 100.0 53.0 C97.0 53.0 94.0 53.0 92.0 53.0 C61.0 56.0 37.0 83.0 37.0 115.0 C37.0 149.0 64.0 176.0 100.0 176.0 C106.0 176.0 111.0 175.0 117.0 174.0 C78.0 168.0 47.0 144.0 47.0 115.0 L47.0 115.0 Z"></path>
<path fill="#99ddcc" fill-opacity="1.0"  filling="0" d="M145.0 115.0 A45.0 45.0 0.0 1 1 55.0 115.0 A45.0 45.0 0.0 1 1 145.0 115.0 L145.0 115.0 Z"></path>
<path fill="#eeeeff" fill-opacity="1.0"  filling="0" d="M64.0 115.0 C64.0 91.0 81.0 72.0 104.0 70.0 C102.0 70.0 101.0 70.0 100.0 70.0 C75.0 70.0 55.0 90.0 55.0 115.0 C55.0 140.0 75.0 161.0 100.0 161.0 C101.0 161.0 102.0 161.0 104.0 161.0 C81.0 159.0 64.0 139.0 64.0 115.0 L64.0 115.0 Z"></path>
<path fill="#ffcc00" fill-opacity="1.0"  filling="0" d="M110.0 115.0 A10.0 10.0 0.0 1 1 90.0 115.0 A10.0 10.0 0.0 1 1 110.0 115.0 L110.0 115.0 Z"></path>
<path fill="#eebb00" fill-opacity="1.0"  filling="0" d="M100.0 104.0 C99.0 104.0 98.0 104.0 97.0 105.0 C100.0 106.0 103.0 110.0 103.0 115.0 C103.0 120.0 100.0 123.0 97.0 125.0 C98.0 125.0 99.0 126.0 100.0 126.0 C106.0 126.0 110.0 121.0 110.0 115.0 C110.0 109.0 106.0 104.0 100.0 104.0 L100.0 104.0 Z"></path>
<path fill="#ee6666" fill-opacity="1.0"  filling="0" d="M100.0 104.0 C100.0 104.0 100.0 104.0 100.0 104.0 C100.0 104.0 100.0 104.0 100.0 104.0 L100.0 104.0 L100.0 104.0 Z"></path>
<path fill="#ee6666" fill-opacity="1.0"  filling="0" d="M100.0 104.0 C100.0 104.0 100.0 104.0 100.0 104.0 C100.0 104.0 100.0 104.0 100.0 104.0 L100.0 104.0 L100.0 104.0 Z"></path>
<path fill="#442244" fill-opacity="1.0"  filling="0" d="M80.0 63.0 C79.0 64.0 78.0 65.0 77.0 65.0 C76.0 66.0 76.0 67.0 77.0 68.0 C77.0 70.0 79.0 70.0 80.0 69.0 C81.0 68.0 82.0 68.0 83.0 67.0 C84.0 67.0 85.0 65.0 84.0 64.0 C83.0 63.0 82.0 62.0 80.0 63.0 L80.0 63.0 Z"></path>
<path fill="#442244" fill-opacity="1.0"  filling="0" d="M110.0 53.0 L110.0 49.0 L117.0 49.0 C121.0 49.0 124.0 46.0 124.0 42.0 L124.0 28.0 C124.0 24.0 121.0 22.0 117.0 22.0 L83.0 22.0 C79.0 22.0 76.0 24.0 76.0 28.0 L76.0 42.0 C76.0 46.0 79.0 49.0 83.0 49.0 L90.0 49.0 L90.0 53.0 C87.0 54.0 84.0 55.0 81.0 57.0 C80.0 57.0 79.0 59.0 80.0 60.0 C81.0 61.0 83.0 62.0 84.0 61.0 C88.0 59.0 92.0 58.0 97.0 57.0 L103.0 57.0 C133.0 58.0 158.0 83.0 158.0 115.0 C158.0 147.0 132.0 174.0 100.0 174.0 C68.0 174.0 42.0 147.0 42.0 115.0 C42.0 96.0 52.0 79.0 67.0 69.0 C68.0 68.0 68.0 67.0 67.0 65.0 C67.0 64.0 65.0 64.0 64.0 65.0 C48.0 75.0 37.0 95.0 37.0 115.0 C37.0 149.0 65.0 178.0 100.0 178.0 C135.0 178.0 163.0 149.0 163.0 115.0 C163.0 81.0 138.0 55.0 110.0 53.0 L110.0 53.0 Z M80.0 42.0 L80.0 28.0 C80.0 27.0 81.0 26.0 83.0 26.0 L117.0 26.0 C119.0 26.0 120.0 27.0 120.0 28.0 L120.0 42.0 C120.0 43.0 119.0 44.0 117.0 44.0 L90.0 44.0 L90.0 35.0 L85.0 35.0 L85.0 44.0 L83.0 44.0 C81.0 44.0 80.0 43.0 80.0 42.0 L80.0 42.0 Z M95.0 49.0 L105.0 49.0 L105.0 52.0 L95.0 52.0 L95.0 49.0 L95.0 49.0 Z"></path>
<path fill="#442244" fill-opacity="1.0"  filling="0" d="M100.0 163.0 C126.0 163.0 148.0 141.0 148.0 115.0 C148.0 89.0 126.0 67.0 100.0 67.0 C74.0 67.0 52.0 89.0 52.0 115.0 C52.0 141.0 74.0 163.0 100.0 163.0 L100.0 163.0 Z M100.0 72.0 C123.0 72.0 143.0 92.0 143.0 115.0 C143.0 139.0 123.0 159.0 100.0 159.0 C77.0 159.0 57.0 139.0 57.0 115.0 C57.0 92.0 77.0 72.0 100.0 72.0 L100.0 72.0 Z"></path>
<path fill="#442244" fill-opacity="1.0"  filling="0" d="M100.0 128.0 C107.0 128.0 113.0 122.0 113.0 115.0 C113.0 108.0 107.0 102.0 100.0 102.0 C93.0 102.0 87.0 108.0 87.0 115.0 C87.0 122.0 93.0 128.0 100.0 128.0 L100.0 128.0 Z M100.0 107.0 C104.0 107.0 108.0 111.0 108.0 115.0 C108.0 120.0 104.0 124.0 100.0 124.0 C96.0 124.0 92.0 120.0 92.0 115.0 C92.0 111.0 96.0 107.0 100.0 107.0 L100.0 107.0 Z"></path>
<path fill="#442244" fill-opacity="1.0"  filling="0" d="M97.0 104.0 L97.0 76.0 L103.0 76.0 L103.0 104.0 L97.0 104.0 L97.0 104.0 Z"></path>
<path fill="#ee6666" fill-opacity="1.0"  filling="0" d="M100.0 155.0 L92.0 105.0 L108.0 105.0 L100.0 155.0 L100.0 155.0 Z"></path>
<path fill="#eeeeff" fill-opacity="1.0"  filling="0" d="M92.0 105.0 L100.0 155.0 L97.0 105.0 L92.0 105.0 L92.0 105.0 Z"></path>
<path fill="#442244" fill-opacity="1.0"  filling="0" d="M120.0 92.0 L125.0 87.0 L128.0 90.0 L123.0 95.0 L120.0 92.0 L120.0 92.0 Z"></path>
<path fill="#442244" fill-opacity="1.0"  filling="0" d="M71.0 141.0 L77.0 135.0 L80.0 138.0 L75.0 144.0 L71.0 141.0 L71.0 141.0 Z"></path>
<path fill="#eeeeff" fill-opacity="1.0"  filling="0" d="M80.0 138.0 L77.0 135.0 L75.0 138.0 L78.0 141.0 L80.0 138.0 L80.0 138.0 Z"></path>
<path fill="#442244" fill-opacity="1.0"  filling="0" d="M120.0 138.0 L123.0 135.0 L128.0 141.0 L125.0 144.0 L120.0 138.0 L120.0 138.0 Z"></path>
<path fill="#442244" fill-opacity="1.0"  filling="0" d="M72.0 90.0 L75.0 87.0 L80.0 92.0 L77.0 95.0 L72.0 90.0 L72.0 90.0 Z"></path>
<path fill="#442244" fill-opacity="1.0"  filling="0" d="M138.0 113.0 L131.0 113.0 L131.0 118.0 L138.0 118.0 L138.0 113.0 L138.0 113.0 Z"></path>
<path fill="#442244" fill-opacity="1.0"  filling="0" d="M69.0 113.0 L62.0 113.0 L62.0 118.0 L69.0 118.0 L69.0 113.0 L69.0 113.0 Z"></path>
<path fill="#ffcc00" fill-opacity="1.0"  filling="0" d="M95.0 35.0 L85.0 35.0 L85.0 44.0 L95.0 44.0 L95.0 35.0 L95.0 35.0 Z"></path>
<path fill="#eeeeff" fill-opacity="1.0"  filling="0" d="M85.0 35.0 L88.0 35.0 L88.0 44.0 L85.0 44.0 L85.0 35.0 L85.0 35.0 Z"></path>
<path fill="#ffcc00" fill-opacity="1.0"  filling="0" d="M115.0 35.0 L105.0 35.0 L105.0 44.0 L115.0 44.0 L115.0 35.0 L115.0 35.0 Z"></path>
<path fill="#eeeeff" fill-opacity="1.0"  filling="0" d="M115.0 35.0 L112.0 35.0 L112.0 44.0 L115.0 44.0 L115.0 35.0 L115.0 35.0 Z"></path>
<path fill="#442244" fill-opacity="1.0"  filling="0" d="M100.0 78.0 C99.0 78.0 98.0 77.0 97.0 76.0 L97.0 104.0 L100.0 104.0 C100.0 104.0 100.0 104.0 100.0 104.0 C100.0 104.0 100.0 104.0 100.0 104.0 L100.0 104.0 L103.0 76.0 C102.0 77.0 101.0 78.0 100.0 78.0 L100.0 78.0 Z"></path></svg>