<svg xmlns="http://www.w3.org/2000/svg" viewBox="0.0 0.0 200.0 200.0" height="200px" width="200px"><path fill="#ffccaa" fill-opacity="1.0"  filling="0" d="M178.0 147.0 L66.0 147.0 L70.0 129.0 A28.0 28.0 0.0 0 1 94.0 106.0 L156.0 106.0 A28.0 28.0 0.0 0 1 174.0 129.0 L178.0 147.0 L178.0 147.0 Z"></path>
<path fill="#ffccaa" fill-opacity="1.0"  filling="0" d="M178.0 147.0 L178.0 147.0 L178.0 147.0 L178.0 147.0 L178.0 147.0 Z"></path>
<path fill="#ffcc99" fill-opacity="1.0"  filling="0" d="M106.0 106.0 L106.0 119.0 A28.0 28.0 0.0 0 1 66.0 147.0 L66.0 147.0 L70.0 129.0 A28.0 28.0 0.0 0 1 94.0 106.0 L106.0 106.0 L106.0 106.0 Z"></path>
<path fill="#ffccaa" fill-opacity="1.0"  filling="0" d="M106.0 106.0 L106.0 106.0 L106.0 106.0 L106.0 106.0 L106.0 106.0 Z"></path>
<path fill="#ffccaa" fill-opacity="1.0"  filling="0" d="M178.0 147.0 L178.0 147.0 L178.0 147.0 L178.0 147.0 L178.0 147.0 Z"></path>
<path fill="#663322" fill-opacity="1.0"  filling="0" d="M159.0 41.0 A22.0 22.0 0.0 1 0 184.0 59.0 A22.0 22.0 0.0 0 0 159.0 41.0 L159.0 41.0 Z"></path>
<path fill="#ffccaa" fill-opacity="1.0"  filling="0" d="M175.0 88.0 A38.0 38.0 0.0 0 1 138.0 125.0 L100.0 125.0 A38.0 38.0 0.0 0 1 75.0 88.0 L75.0 75.0 A38.0 38.0 0.0 0 1 125.0 38.0 L138.0 38.0 A38.0 38.0 0.0 0 1 175.0 75.0 L175.0 88.0 L175.0 88.0 Z"></path>
<path fill="#663322" fill-opacity="1.0"  filling="0" d="M155.0 73.0 A3.0 3.0 0.0 0 1 153.0 70.0 A9.0 9.0 0.0 0 0 147.0 59.0 A3.0 3.0 0.0 0 1 147.0 53.0 A16.0 16.0 0.0 0 1 158.0 70.0 A3.0 3.0 0.0 0 1 155.0 73.0 L155.0 73.0 Z"></path>
<path fill="#663322" fill-opacity="1.0"  filling="0" d="M95.0 73.0 A3.0 3.0 0.0 0 1 92.0 70.0 A16.0 16.0 0.0 0 1 109.0 53.0 A3.0 3.0 0.0 0 1 109.0 59.0 A9.0 9.0 0.0 0 0 98.0 70.0 A3.0 3.0 0.0 0 1 95.0 73.0 L95.0 73.0 Z"></path>
<path fill="#663322" fill-opacity="1.0"  filling="0" d="M117.0 93.0 A3.0 3.0 0.0 0 1 115.0 92.0 L111.0 87.0 A3.0 3.0 0.0 1 1 115.0 83.0 L120.0 88.0 A3.0 3.0 0.0 0 1 117.0 93.0 L117.0 93.0 Z"></path>
<path fill="#663322" fill-opacity="1.0"  filling="0" d="M135.0 111.0 A3.0 3.0 0.0 0 1 133.0 110.0 L128.0 106.0 A3.0 3.0 0.0 0 1 133.0 101.0 L137.0 106.0 A3.0 3.0 0.0 0 1 135.0 111.0 L135.0 111.0 Z"></path>
<path fill="#663322" fill-opacity="1.0"  filling="0" d="M122.0 118.0 A19.0 19.0 0.0 0 1 103.0 97.0 A3.0 3.0 0.0 0 1 109.0 97.0 A12.0 12.0 0.0 0 0 122.0 111.0 A3.0 3.0 0.0 0 1 122.0 118.0 L122.0 118.0 Z"></path>
<path fill="#663322" fill-opacity="1.0"  filling="0" d="M153.0 109.0 A3.0 3.0 0.0 0 1 151.0 108.0 C143.0 108.0 138.0 86.0 136.0 74.0 A15.0 15.0 0.0 0 1 129.0 76.0 C121.0 76.0 115.0 71.0 111.0 67.0 A9.0 9.0 0.0 0 0 100.0 82.0 A3.0 3.0 0.0 1 1 96.0 87.0 A16.0 16.0 0.0 0 1 115.0 62.0 C119.0 67.0 124.0 70.0 129.0 70.0 A9.0 9.0 0.0 0 0 133.0 67.0 A3.0 3.0 0.0 0 1 141.0 69.0 C141.0 81.0 148.0 103.0 153.0 103.0 A3.0 3.0 0.0 0 1 153.0 109.0 L153.0 109.0 Z"></path>
<path fill="#99aaaa" fill-opacity="1.0"  filling="0" d="M84.0 147.0 L159.0 147.0 A9.0 9.0 0.0 0 0 169.0 138.0 A9.0 9.0 0.0 0 0 159.0 128.0 L91.0 128.0 A9.0 9.0 0.0 0 0 81.0 138.0 A9.0 9.0 0.0 0 0 91.0 147.0 L84.0 147.0 L84.0 147.0 Z M53.0 147.0 L22.0 147.0 L28.0 109.0 L47.0 109.0 L53.0 147.0 L53.0 147.0 Z"></path>
<path fill="#aa6644" fill-opacity="1.0"  filling="0" d="M9.0 147.0 L191.0 147.0 L191.0 166.0 L9.0 166.0 L9.0 147.0 L9.0 147.0 Z"></path>
<path fill="#dddddd" fill-opacity="1.0"  filling="0" d="M30.0 100.0 A3.0 3.0 0.0 0 1 27.0 97.0 A7.0 7.0 0.0 0 0 28.0 92.0 A2.0 2.0 0.0 0 0 28.0 90.0 A11.0 11.0 0.0 0 1 28.0 85.0 A11.0 11.0 0.0 0 1 28.0 81.0 A2.0 2.0 0.0 0 0 28.0 80.0 A7.0 7.0 0.0 0 0 29.0 75.0 A3.0 3.0 0.0 1 1 35.0 77.0 A11.0 11.0 0.0 0 1 34.0 82.0 A2.0 2.0 0.0 0 0 34.0 83.0 A7.0 7.0 0.0 0 0 35.0 88.0 A11.0 11.0 0.0 0 1 34.0 95.0 A2.0 2.0 0.0 0 0 33.0 95.0 A7.0 7.0 0.0 0 0 33.0 99.0 A3.0 3.0 0.0 0 1 30.0 100.0 L30.0 100.0 Z"></path>
<path fill="#dddddd" fill-opacity="1.0"  filling="0" d="M43.0 94.0 A3.0 3.0 0.0 0 1 39.0 90.0 A7.0 7.0 0.0 0 0 41.0 85.0 A2.0 2.0 0.0 0 0 41.0 83.0 A11.0 11.0 0.0 0 1 41.0 79.0 A11.0 11.0 0.0 0 1 41.0 75.0 A2.0 2.0 0.0 0 0 41.0 74.0 A7.0 7.0 0.0 0 0 42.0 70.0 A3.0 3.0 0.0 1 1 47.0 72.0 A11.0 11.0 0.0 0 1 46.0 77.0 A2.0 2.0 0.0 0 0 46.0 78.0 A7.0 7.0 0.0 0 0 46.0 82.0 A11.0 11.0 0.0 0 1 46.0 88.0 A2.0 2.0 0.0 0 0 45.0 89.0 A7.0 7.0 0.0 0 0 45.0 92.0 A3.0 3.0 0.0 0 1 43.0 94.0 L43.0 94.0 Z"></path></svg>