<svg xmlns="http://www.w3.org/2000/svg" viewBox="0.0 0.0 200.0 200.0" height="200px" width="200px"><path fill="#ffccaa" fill-opacity="1.0"  filling="0" d="M178.0 147.0 L66.0 147.0 L70.0 129.0 A25.0 25.0 0.0 0 1 94.0 109.0 L156.0 109.0 A25.0 25.0 0.0 0 1 174.0 129.0 L178.0 147.0 L178.0 147.0 Z"></path>
<path fill="#ffcc99" fill-opacity="1.0"  filling="0" d="M178.0 147.0 L134.0 147.0 L130.0 129.0 A25.0 25.0 0.0 0 0 106.0 109.0 L147.0 109.0 A25.0 25.0 0.0 0 1 170.0 129.0 L178.0 147.0 L178.0 147.0 Z"></path>
<path fill="#aa6644" fill-opacity="1.0"  filling="0" d="M9.0 147.0 L191.0 147.0 L191.0 166.0 L9.0 166.0 L9.0 147.0 L9.0 147.0 Z"></path>
<path fill="#ffccaa" fill-opacity="1.0"  filling="0" d="M147.0 147.0 L66.0 147.0 L70.0 129.0 A25.0 25.0 0.0 0 1 94.0 109.0 L134.0 109.0 A25.0 25.0 0.0 0 1 157.0 129.0 L147.0 147.0 L147.0 147.0 Z"></path>
<path fill="#ffcc99" fill-opacity="1.0"  filling="0" d="M147.0 147.0 L91.0 147.0 L93.0 129.0 A25.0 25.0 0.0 0 1 116.0 109.0 L147.0 109.0 A25.0 25.0 0.0 0 1 157.0 129.0 L147.0 147.0 L147.0 147.0 Z"></path>
<path fill="#ffccaa" fill-opacity="1.0"  filling="0" d="M153.0 109.0 L153.0 109.0 A12.0 12.0 0.0 0 1 166.0 122.0 L166.0 122.0 A12.0 12.0 0.0 0 1 153.0 134.0 L153.0 134.0 A12.0 12.0 0.0 0 1 141.0 122.0 L141.0 122.0 A12.0 12.0 0.0 0 1 153.0 109.0 L153.0 109.0 Z"></path>
<path fill="#ffcc99" fill-opacity="1.0"  filling="0" d="M153.0 109.0 A9.0 9.0 0.0 0 0 147.0 116.0 L147.0 128.0 A9.0 9.0 0.0 0 0 153.0 134.0 A9.0 9.0 0.0 0 0 153.0 122.0 L153.0 109.0 L153.0 109.0 Z"></path>
<path fill="#ffccaa" fill-opacity="1.0"  filling="0" d="M153.0 109.0 L153.0 109.0 A12.0 12.0 0.0 0 1 166.0 122.0 L166.0 122.0 A12.0 12.0 0.0 0 1 153.0 134.0 L153.0 134.0 A12.0 12.0 0.0 0 1 141.0 122.0 L141.0 122.0 A12.0 12.0 0.0 0 1 153.0 109.0 L153.0 109.0 Z"></path>
<path fill="#ffcc99" fill-opacity="1.0"  filling="0" d="M153.0 109.0 A9.0 9.0 0.0 0 0 147.0 116.0 L147.0 128.0 A9.0 9.0 0.0 0 0 153.0 134.0 A9.0 9.0 0.0 0 0 153.0 122.0 L153.0 109.0 L153.0 109.0 Z"></path>
<path fill="#ffccaa" fill-opacity="1.0"  filling="0" d="M153.0 109.0 L153.0 109.0 A12.0 12.0 0.0 0 1 166.0 122.0 L166.0 122.0 A12.0 12.0 0.0 0 1 153.0 134.0 L153.0 134.0 A12.0 12.0 0.0 0 1 141.0 122.0 L141.0 122.0 A12.0 12.0 0.0 0 1 153.0 109.0 L153.0 109.0 Z"></path>
<path fill="#ffcc99" fill-opacity="1.0"  filling="0" d="M153.0 109.0 A9.0 9.0 0.0 0 0 147.0 116.0 L147.0 128.0 A9.0 9.0 0.0 0 0 153.0 134.0 A9.0 9.0 0.0 0 0 153.0 122.0 L153.0 109.0 L153.0 109.0 Z"></path>
<path fill="#ffccaa" fill-opacity="1.0"  filling="0" d="M153.0 109.0 L153.0 109.0 A12.0 12.0 0.0 0 1 166.0 122.0 L166.0 122.0 A12.0 12.0 0.0 0 1 153.0 134.0 L153.0 134.0 A12.0 12.0 0.0 0 1 141.0 122.0 L141.0 122.0 A12.0 12.0 0.0 0 1 153.0 109.0 L153.0 109.0 Z"></path>
<path fill="#ffccaa" fill-opacity="1.0"  filling="0" d="M153.0 109.0 L153.0 109.0 A12.0 12.0 0.0 0 1 166.0 122.0 L166.0 122.0 A12.0 12.0 0.0 0 1 153.0 134.0 L153.0 134.0 A12.0 12.0 0.0 0 1 141.0 122.0 L141.0 122.0 A12.0 12.0 0.0 0 1 153.0 109.0 L153.0 109.0 Z"></path>
<path fill="#ffccaa" fill-opacity="1.0"  filling="0" d="M153.0 109.0 L153.0 109.0 A12.0 12.0 0.0 0 1 166.0 122.0 L166.0 122.0 A12.0 12.0 0.0 0 1 153.0 134.0 L153.0 134.0 A12.0 12.0 0.0 0 1 141.0 122.0 L141.0 122.0 A12.0 12.0 0.0 0 1 153.0 109.0 L153.0 109.0 Z"></path>
<path fill="#ffccaa" fill-opacity="1.0"  filling="0" d="M153.0 109.0 L153.0 109.0 A12.0 12.0 0.0 0 1 166.0 122.0 L166.0 122.0 A12.0 12.0 0.0 0 1 153.0 134.0 L153.0 134.0 A12.0 12.0 0.0 0 1 141.0 122.0 L141.0 122.0 A12.0 12.0 0.0 0 1 153.0 109.0 L153.0 109.0 Z"></path>
<path fill="#ffccaa" fill-opacity="1.0"  filling="0" d="M153.0 109.0 L153.0 109.0 A12.0 12.0 0.0 0 1 166.0 122.0 L166.0 122.0 A12.0 12.0 0.0 0 1 153.0 134.0 L153.0 134.0 A12.0 12.0 0.0 0 1 141.0 122.0 L141.0 122.0 A12.0 12.0 0.0 0 1 153.0 109.0 L153.0 109.0 Z"></path>
<path fill="#ffccaa" fill-opacity="1.0"  filling="0" d="M153.0 109.0 L153.0 109.0 A12.0 12.0 0.0 0 1 166.0 122.0 L166.0 122.0 A12.0 12.0 0.0 0 1 153.0 134.0 L153.0 134.0 A12.0 12.0 0.0 0 1 141.0 122.0 L141.0 122.0 A12.0 12.0 0.0 0 1 153.0 109.0 L153.0 109.0 Z"></path>
<path fill="#ffccaa" fill-opacity="1.0"  filling="0" d="M153.0 109.0 L153.0 109.0 A12.0 12.0 0.0 0 1 166.0 122.0 L166.0 122.0 A12.0 12.0 0.0 0 1 153.0 134.0 L153.0 134.0 A12.0 12.0 0.0 0 1 141.0 122.0 L141.0 122.0 A12.0 12.0 0.0 0 1 153.0 109.0 L153.0 109.0 Z"></path>
<path fill="#ffccaa" fill-opacity="1.0"  filling="0" d="M153.0 109.0 L153.0 109.0 A12.0 12.0 0.0 0 1 166.0 122.0 L166.0 122.0 A12.0 12.0 0.0 0 1 153.0 134.0 L153.0 134.0 A12.0 12.0 0.0 0 1 141.0 122.0 L141.0 122.0 A12.0 12.0 0.0 0 1 153.0 109.0 L153.0 109.0 Z"></path>
<path fill="#ffccaa" fill-opacity="1.0"  filling="0" d="M153.0 109.0 L153.0 109.0 A12.0 12.0 0.0 0 1 166.0 122.0 L166.0 122.0 A12.0 12.0 0.0 0 1 153.0 134.0 L153.0 134.0 A12.0 12.0 0.0 0 1 141.0 122.0 L141.0 122.0 A12.0 12.0 0.0 0 1 153.0 109.0 L153.0 109.0 Z"></path>
<path fill="#ffccaa" fill-opacity="1.0"  filling="0" d="M153.0 109.0 L153.0 109.0 A12.0 12.0 0.0 0 1 166.0 122.0 L166.0 122.0 A12.0 12.0 0.0 0 1 153.0 134.0 L153.0 134.0 A12.0 12.0 0.0 0 1 141.0 122.0 L141.0 122.0 A12.0 12.0 0.0 0 1 153.0 109.0 L153.0 109.0 Z"></path>
<path fill="#ffccaa" fill-opacity="1.0"  filling="0" d="M153.0 109.0 L153.0 109.0 A12.0 12.0 0.0 0 1 166.0 122.0 L166.0 122.0 A12.0 12.0 0.0 0 1 153.0 134.0 L153.0 134.0 A12.0 12.0 0.0 0 1 141.0 122.0 L141.0 122.0 A12.0 12.0 0.0 0 1 153.0 109.0 L153.0 109.0 Z"></path>
<path fill="#ffccaa" fill-opacity="1.0"  filling="0" d="M153.0 109.0 L153.0 109.0 A12.0 12.0 0.0 0 1 166.0 122.0 L166.0 122.0 A12.0 12.0 0.0 0 1 153.0 134.0 L153.0 134.0 A12.0 12.0 0.0 0 1 141.0 122.0 L141.0 122.0 A12.0 12.0 0.0 0 1 153.0 109.0 L153.0 109.0 Z"></path>
<path fill="#ffccaa" fill-opacity="1.0"  filling="0" d="M153.0 109.0 L153.0 109.0 A12.0 12.0 0.0 0 1 166.0 122.0 L166.0 122.0 A12.0 12.0 0.0 0 1 153.0 134.0 L153.0 134.0 A12.0 12.0 0.0 0 1 141.0 122.0 L141.0 122.0 A12.0 12.0 0.0 0 1 153.0 109.0 L153.0 109.0 Z"></path>
<path fill="#ffccaa" fill-opacity="1.0"  filling="0" d="M153.0 109.0 L153.0 109.0 A12.0 12.0 0.0 0 1 166.0 122.0 L166.0 122.0 A12.0 12.0 0.0 0 1 153.0 134.0 L153.0 134.0 A12.0 12.0 0.0 0 1 141.0 122.0 L141.0 122.0 A12.0 12.0 0.0 0 1 153.0 109.0 L153.0 109.0 Z"></path>
<path fill="#ffccaa" fill-opacity="1.0"  filling="0" d="M153.0 109.0 L153.0 109.0 A12.0 12.0 0.0 0 1 166.0 122.0 L166.0 122.0 A12.0 12.0 0.0 0 1 153.0 134.0 L153.0 134.0 A12.0 12.0 0.0 0 1 141.0 122.0 L141.0 122.0 A12.0 12.0 0.0 0 1 153.0 109.0 L153.0 109.0 Z"></path>
<path fill="#ffccaa" fill-opacity="1.0"  filling="0" d="M153.0 109.0 L153.0 109.0 A12.0 12.0 0.0 0 1 166.0 122.0 L166.0 122.0 A12.0 12.0 0.0 0 1 153.0 134.0 L153.0 134.0 A12.0 12.0 0.0 0 1 141.0 122.0 L141.0 122.0 A12.0 12.0 0.0 0 1 153.0 109.0 L153.0 109.0 Z"></path>
<path fill="#ffccaa" fill-opacity="1.0"  filling="0" d="M153.0 109.0 L153.0 109.0 A12.0 12.0 0.0 0 1 166.0 122.0 L166.0 122.0 A12.0 12.0 0.0 0 1 153.0 134.0 L153.0 134.0 A12.0 12.0 0.0 0 1 141.0 122.0 L141.0 122.0 A12.0 12.0 0.0 0 1 153.0 109.0 L153.0 109.0 Z"></path>
<path fill="#ffccaa" fill-opacity="1.0"  filling="0" d="M153.0 109.0 L153.0 109.0 A12.0 12.0 0.0 0 1 166.0 122.0 L166.0 122.0 A12.0 12.0 0.0 0 1 153.0 134.0 L153.0 134.0 A12.0 12.0 0.0 0 1 141.0 122.0 L141.0 122.0 A12.0 12.0 0.0 0 1 153.0 109.0 L153.0 109.0 Z"></path>
<path fill="#ffccaa" fill-opacity="1.0"  filling="0" d="M153.0 109.0 L153.0 109.0 A12.0 12.0 0.0 0 1 166.0 122.0 L166.0 122.0 A12.0 12.0 0.0 0 1 153.0 134.0 L153.0 134.0 A12.0 12.0 0.0 0 1 141.0 122.0 L141.0 122.0 A12.0 12.0 0.0 0 1 153.0 109.0 L153.0 109.0 Z"></path>
<path fill="#ffccaa" fill-opacity="1.0"  filling="0" d="M153.0 109.0 L153.0 109.0 A12.0 12.0 0.0 0 1 166.0 122.0 L166.0 122.0 A12.0 12.0 0.0 0 1 153.0 134.0 L153.0 134.0 A12.0 12.0 0.0 0 1 141.0 122.0 L141.0 122.0 A12.0 12.0 0.0 0 1 153.0 109.0 L153.0 109.0 Z"></path>
<path fill="#ffccaa" fill-opacity="1.0"  filling="0" d="M153.0 109.0 L153.0 109.0 A12.0 12.0 0.0 0 1 166.0 122.0 L166.0 122.0 A12.0 12.0 0.0 0 1 153.0 134.0 L153.0 134.0 A12.0 12.0 0.0 0 1 141.0 122.0 L141.0 122.0 A12.0 12.0 0.0 0 1 153.0 109.0 L153.0 109.0 Z"></path>
<path fill="#ffccaa" fill-opacity="1.0"  filling="0" d="M153.0 109.0 L153.0 109.0 A12.0 12.0 0.0 0 1 166.0 122.0 L166.0 122.0 A12.0 12.0 0.0 0 1 153.0 134.0 L153.0 134.0 A12.0 12.0 0.0 0 1 141.0 122.0 L141.0 122.0 A12.0 12.0 0.0 0 1 153.0 109.0 L153.0 109.0 Z"></path>
<path fill="#ffccaa" fill-opacity="1.0"  filling="0" d="M153.0 109.0 L153.0 109.0 A12.0 12.0 0.0 0 1 166.0 122.0 L166.0 122.0 A12.0 12.0 0.0 0 1 153.0 134.0 L153.0 134.0 A12.0 12.0 0.0 0 1 141.0 122.0 L141.0 122.0 A12.0 12.0 0.0 0 1 153.0 109.0 L153.0 109.0 Z"></path>
<path fill="#ffccaa" fill-opacity="1.0"  filling="0" d="M153.0 109.0 L153.0 109.0 A12.0 12.0 0.0 0 1 166.0 122.0 L166.0 122.0 A12.0 12.0 0.0 0 1 153.0 134.0 L153.0 134.0 A12.0 12.0 0.0 0 1 141.0 122.0 L141.0 122.0 A12.0 12.0 0.0 0 1 153.0 109.0 L153.0 109.0 Z"></path>
<path fill="#ffccaa" fill-opacity="1.0"  filling="0" d="M153.0 109.0 L153.0 109.0 A12.0 12.0 0.0 0 1 166.0 122.0 L166.0 122.0 A12.0 12.0 0.0 0 1 153.0 134.0 L153.0 134.0 A12.0 12.0 0.0 0 1 141.0 122.0 L141.0 122.0 A12.0 12.0 0.0 0 1 153.0 109.0 L153.0 109.0 Z"></path>
<path fill="#000000" fill-opacity="1.0"  filling="0" d="M153.0 109.0 L153.0 109.0 A12.0 12.0 0.0 0 1 166.0 122.0 L166.0 122.0"></path></svg>