<svg xmlns="http://www.w3.org/2000/svg" viewBox="0.0 0.0 200.0 200.0" height="200px" width="200px"><path fill="#ffccaa" fill-opacity="1.0"  filling="0" d="M178.0 147.0 L66.0 147.0 L70.0 129.0 A25.0 25.0 0.0 0 1 94.0 109.0 L156.0 109.0 A25.0 25.0 0.0 0 1 174.0 129.0 L178.0 147.0 L178.0 147.0 Z"></path>
<path fill="#ffcc99" fill-opacity="1.0"  filling="0" d="M178.0 147.0 L134.0 147.0 L130.0 129.0 A25.0 25.0 0.0 0 0 106.0 109.0 L153.0 109.0 A25.0 25.0 0.0 0 1 174.0 129.0 L178.0 147.0 L178.0 147.0 Z"></path>
<path fill="#ffcc99" fill-opacity="1.0"  filling="0" d="M166.0 147.0 L66.0 147.0 L70.0 129.0 A25.0 25.0 0.0 0 1 94.0 109.0 L147.0 109.0 A25.0 25.0 0.0 0 1 168.0 129.0 L166.0 147.0 L166.0 147.0 Z"></path>
<path fill="#ffccaa" fill-opacity="1.0"  filling="0" d="M166.0 147.0 L134.0 147.0 L130.0 129.0 A25.0 25.0 0.0 0 0 106.0 109.0 L144.0 109.0 A25.0 25.0 0.0 0 1 168.0 129.0 L166.0 147.0 L166.0 147.0 Z"></path>
<path fill="#ffccaa" fill-opacity="1.0"  filling="0" d="M147.0 147.0 L91.0 147.0 L93.0 129.0 A25.0 25.0 0.0 0 1 116.0 109.0 L134.0 109.0 A25.0 25.0 0.0 0 1 157.0 129.0 L147.0 147.0 L147.0 147.0 Z"></path>
<path fill="#ffcc99" fill-opacity="1.0"  filling="0" d="M147.0 147.0 L134.0 147.0 L130.0 129.0 A25.0 25.0 0.0 0 0 106.0 109.0 L128.0 109.0 A25.0 25.0 0.0 0 1 151.0 129.0 L147.0 147.0 L147.0 147.0 Z"></path>
<path fill="#ffcc99" fill-opacity="1.0"  filling="0" d="M128.0 147.0 L103.0 147.0 L107.0 129.0 A25.0 25.0 0.0 0 1 128.0 109.0 L144.0 109.0 A25.0 25.0 0.0 0 1 157.0 129.0 L153.0 147.0 L128.0 147.0 L128.0 147.0 Z"></path>
<path fill="#ffccaa" fill-opacity="1.0"  filling="0" d="M128.0 147.0 L103.0 147.0 L107.0 129.0 A25.0 25.0 0.0 0 1 128.0 109.0 L144.0 109.0 A25.0 25.0 0.0 0 1 157.0 129.0 L153.0 147.0 L128.0 147.0 L128.0 147.0 Z"></path>
<path fill="#bb1133" fill-opacity="1.0"  filling="0" d="M153.0 147.0 L91.0 147.0 A9.0 9.0 0.0 0 1 81.0 138.0 L81.0 138.0 A9.0 9.0 0.0 0 1 91.0 128.0 L153.0 128.0 A9.0 9.0 0.0 0 1 163.0 138.0 L163.0 138.0 A9.0 9.0 0.0 0 1 153.0 147.0 L153.0 147.0 Z"></path>
<path fill="#663322" fill-opacity="1.0"  filling="0" d="M184.0 59.0 A25.0 25.0 0.0 1 1 134.0 59.0 A25.0 25.0 0.0 1 1 184.0 59.0 L184.0 59.0 Z"></path>
<path fill="#663322" fill-opacity="1.0"  filling="0" d="M175.0 88.0 A40.0 40.0 0.0 0 1 153.0 128.0 A26.0 26.0 0.0 0 1 147.0 128.0 A25.0 25.0 0.0 0 1 134.0 74.0 C136.0 74.0 136.0 74.0 138.0 75.0 C139.0 75.0 140.0 75.0 141.0 75.0 A40.0 40.0 0.0 0 1 175.0 88.0 L175.0 88.0 Z"></path>
<path fill="#774433" fill-opacity="1.0"  filling="0" d="M175.0 88.0 A40.0 40.0 0.0 0 1 153.0 128.0 A26.0 26.0 0.0 0 1 147.0 128.0 A25.0 25.0 0.0 0 1 134.0 74.0 C136.0 74.0 136.0 74.0 138.0 75.0 C139.0 75.0 140.0 75.0 141.0 75.0 A40.0 40.0 0.0 0 1 175.0 88.0 L175.0 88.0 Z"></path>
<path fill="#ffccaa" fill-opacity="1.0"  filling="0" d="M153.0 109.0 L153.0 109.0 A9.0 9.0 0.0 0 1 162.0 119.0 L162.0 119.0 A9.0 9.0 0.0 0 1 153.0 128.0 L153.0 128.0 A9.0 9.0 0.0 0 1 144.0 119.0 L144.0 119.0 A9.0 9.0 0.0 0 1 153.0 109.0 L153.0 109.0 Z"></path>
<path fill="#ffccaa" fill-opacity="1.0"  filling="0" d="M153.0 109.0 L153.0 109.0 A9.0 9.0 0.0 0 1 162.0 119.0 L162.0 119.0 A9.0 9.0 0.0 0 1 153.0 128.0 L153.0 128.0 A9.0 9.0 0.0 0 1 144.0 119.0 L144.0 119.0 A9.0 9.0 0.0 0 1 153.0 109.0 L153.0 109.0 Z"></path>
<path fill="#ffccaa" fill-opacity="1.0"  filling="0" d="M153.0 109.0 L153.0 109.0 A9.0 9.0 0.0 0 1 162.0 119.0 L162.0 119.0 A9.0 9.0 0.0 0 1 153.0 128.0 L153.0 128.0 A9.0 9.0 0.0 0 1 144.0 119.0 L144.0 119.0 A9.0 9.0 0.0 0 1 153.0 109.0 L153.0 109.0 Z"></path>
<path fill="#663322" fill-opacity="1.0"  filling="0" d="M122.0 118.0 A19.0 19.0 0.0 0 1 103.0 97.0 A3.0 3.0 0.0 0 1 109.0 97.0 A12.0 12.0 0.0 0 0 122.0 111.0 A3.0 3.0 0.0 0 1 122.0 118.0 L122.0 118.0 Z"></path>
<path fill="#663322" fill-opacity="1.0"  filling="0" d="M117.0 93.0 A3.0 3.0 0.0 0 1 115.0 92.0 L111.0 87.0 A3.0 3.0 0.0 0 1 115.0 83.0 L120.0 88.0 A3.0 3.0 0.0 0 1 117.0 93.0 L117.0 93.0 Z"></path>
<path fill="#663322" fill-opacity="1.0"  filling="0" d="M135.0 111.0 A3.0 3.0 0.0 0 1 133.0 110.0 L128.0 106.0 A3.0 3.0 0.0 0 1 133.0 101.0 L137.0 106.0 A3.0 3.0 0.0 0 1 135.0 111.0 L135.0 111.0 Z"></path>
<path fill="#aa6644" fill-opacity="1.0"  filling="0" d="M9.0 147.0 L191.0 147.0 L191.0 166.0 L9.0 166.0 L9.0 147.0 L9.0 147.0 Z"></path>
<path fill="#ffccaa" fill-opacity="1.0"  filling="0" d="M100.0 82.0 A9.0 9.0 0.0 0 1 94.0 71.0 L106.0 57.0 A34.0 34.0 0.0 0 1 132.0 47.0 L134.0 47.0 A34.0 34.0 0.0 0 1 172.0 81.0 L172.0 81.0 A34.0 34.0 0.0 0 1 153.0 109.0 L153.0 109.0 A9.0 9.0 0.0 0 1 144.0 119.0 L144.0 119.0 A9.0 9.0 0.0 0 1 134.0 109.0 L116.0 109.0 A25.0 25.0 0.0 0 1 100.0 82.0 L100.0 82.0 Z"></path>
<path fill="#ffccaa" fill-opacity="1.0"  filling="0" d="M100.0 82.0 A9.0 9.0 0.0 0 1 94.0 71.0 L106.0 57.0 A34.0 34.0 0.0 0 1 132.0 47.0 L134.0 47.0 A34.0 34.0 0.0 0 1 172.0 81.0 L172.0 81.0 A34.0 34.0 0.0 0 1 153.0 109.0 L153.0 109.0 A9.0 9.0 0.0 0 1 144.0 119.0 L144.0 119.0 A9.0 9.0 0.0 0 1 134.0 109.0 L116.0 109.0 A25.0 25.0 0.0 0 1 100.0 82.0 L100.0 82.0 Z"></path>
<path fill="#ffccaa" fill-opacity="1.0"  filling="0" d="M100.0 82.0 A9.0 9.0 0.0 0 1 94.0 71.0 L106.0 57.0 A34.0 34.0 0.0 0 1 132.0 47.0 L134.0 47.0 A34.0 34.0 0.0 0 1 172.0 81.0 L172.0 81.0 A34.0 34.0 0.0 0 1 153.0 109.0 L116.0 109.0 A25.0 25.0 0.0 0 1 100.0 82.0 L100.0 82.0 Z"></path>
<path fill="#ffccaa" fill-opacity="1.0"  filling="0" d="M100.0 82.0 A9.0 9.0 0.0 0 1 94.0 71.0 L106.0 57.0 A34.0 34.0 0.0 0 1 132.0 47.0 L134.0 47.0 A34.0 34.0 0.0 0 1 172.0 81.0 L172.0 81.0 A34.0 34.0 0.0 0 1 153.0 109.0 L116.0 109.0 A25.0 25.0 0.0 0 1 100.0 82.0 L100.0 82.0 Z"></path>
<path fill="#ffccaa" fill-opacity="1.0"  filling="0" d="M100.0 82.0 A9.0 9.0 0.0 0 1 94.0 71.0 L106.0 57.0 A34.0 34.0 0.0 0 1 132.0 47.0 L134.0 47.0 A34.0 34.0 0.0 0 1 172.0 81.0 L172.0 81.0 A34.0 34.0 0.0 0 1 153.0 109.0 L116.0 109.0 A25.0 25.0 0.0 0 1 100.0 82.0 L100.0 82.0 Z"></path>
<path fill="#ffccaa" fill-opacity="1.0"  filling="0" d="M100.0 82.0 A9.0 9.0 0.0 0 1 94.0 71.0 L106.0 57.0 A34.0 34.0 0.0 0 1 132.0 47.0 L134.0 47.0 A34.0 34.0 0.0 0 1 172.0 81.0 L172.0 81.0 A34.0 34.0 0.0 0 1 153.0 109.0 L116.0 109.0 A25.0 25.0 0.0 0 1 100.0 82.0 L100.0 82.0 Z"></path>
<path fill="#ffccaa" fill-opacity="1.0"  filling="0" d="M100.0 82.0 A9.0 9.0 0.0 0 1 94.0 71.0 L106.0 57.0 A34.0 34.0 0.0 0 1 132.0 47.0 L134.0 47.0 A34.0 34.0 0.0 0 1 172.0 81.0 L172.0 81.0 A34.0 34.0 0.0 0 1 153.0 109.0 L116.0 109.0 A25.0 25.0 0.0 0 1 100.0 82.0 L100.0 82.0 Z"></path>
<path fill="#ffccaa" fill-opacity="1.0"  filling="0" d="M100.0 82.0 A9.0 9.0 0.0 0 1 94.0 71.0 L106.0 57.0 A34.0 34.0 0.0 0 1 132.0 47.0 L134.0 47.0 A34.0 34.0 0.0 0 1 172.0 81.0 L172.0 81.0 A34.0 34.0 0.0 0 1 153.0 109.0 L116.0 109.0 A25.0 25.0 0.0 0 1 100.0 82.0 L100.0 82.0 Z"></path>
<path fill="#ffccaa" fill-opacity="1.0"  filling="0" d="M100.0 82.0 A9.0 9.0 0.0 0 1 94.0 71.0 L106.0 57.0 A34.0 34.0 0.0 0 1 132.0 47.0 L134.0 47.0 A34.0 34.0 0.0 0 1 172.0 81.0 L172.0 81.0 A34.0 34.0 0.0 0 1 153.0 109.0 L116.0 109.0 A25.0 25.0 0.0 0 1 100.0 82.0 L100.0 82.0 Z"></path>
<path fill="#ffccaa" fill-opacity="1.0"  filling="0" d="M100.0 82.0 A9.0 9.0 0.0 0 1 94.0 71.0 L106.0 57.0 A34.0 34.0 0.0 0 1 132.0 47.0 L134.0 47.0 A34.0 34.0 0.0 0 1 172.0 81.0 L172.0 81.0 A34.0 34.0 0.0 0 1 153.0 109.0 L116.0 109.0 A25.0 25.0 0.0 0 1 100.0 82.0 L100.0 82.0 Z"></path>
<path fill="#ffccaa" fill-opacity="1.0"  filling="0" d="M100.0 82.0 A9.0 9.0 0.0 0 1 94.0 71.0 L106.0 57.0 A34.0 34.0 0.0 0 1 132.0 47.0 L134.0 47.0 A34.0 34.0 0.0 0 1 172.0 81.0 L172.0 81.0 A34.0 34.0 0.0 0 1 153.0 109.0 L116.0 109.0 A25.0 25.0 0.0 0 1 100.0 82.0 L100.0 82.0 Z"></path>
<path fill="#ffccaa" fill-opacity="1.0"  filling="0" d="M100.0 82.0 A9.0 9.0 0.0 0 1 94.0 71.0 L106.0 57.0 A34.0 34.0 0.0 0 1 132.0 47.0 L134.0 47.0 A34.0 34.0 0.0 0 1 172.0 81.0 L172.0 81.0 A34.0 34.0 0.0 0 1 153.0 109.0 L116.0 109.0 A25.0 25.0 0.0 0 1 100.0 82.0 L100.0 82.0 Z"></path>
<path fill="#ffccaa" fill-opacity="1.0"  filling="0" d="M100.0 82.0 A9.0 9.0 0.0 0 1 94.0 71.0 L106.0 57.0 A34.0 34.0 0.0 0 1 132.0 47.0 L134.0 47.0 A34.0 34.0 0.0 0 1 172.0 81.0 L172.0 81.0 A34.0 34.0 0.0 0 1 153.0 109.0 L116.0 109.0 A25.0 25.0 0.0 0 1 100.0 82.0 L100.0 82.0 Z"></path>
<path fill="#ffccaa" fill-opacity="1.0"  filling="0" d="M100.0 82.0 A9.0 9.0 0.0 0 1 94.0 71.0 L106.0 57.0 A34.0 34.0 0.0 0 1 132.0 47.0 L134.0 47.0 A34.0 34.0 0.0 0 1 172.0 81.0 L172.0 81.0 A34.0 34.0 0.0 0 1 153.0 109.0 L116.0 109.0 A25.0 25.0 0.0 0 1 100.0 82.0 L100.0 82.0 Z"></path>
<path fill="#ffccaa" fill-opacity="1.0"  filling="0" d="M100.0 82.0 A9.0 9.0 0.0 0 1 94.0 71.0 L106.0 57.0 A34.0 34.0 0.0 0 1 132.0 47.0 L134.0 47.0 A34.0 34.0 0.0 0 1 172.0 81.0 L172.0 81.0 A34.0 34.0 0.0 0 1 153.0 109.0 L116.0 109.0 A25.0 25.0 0.0 0 1 100.0 82.0 L100.0 82.0 Z"></path>
<path fill="#000000" fill-opacity="1.0"  filling="0" d="M100.0 82.0 A9.0 9.0 0.0 0 1 94.0 71.0 L106.0 57.0 A34.0 34.0 0.0 0 1 132.0 47.0 L134.0 47.0 A34.0 34.0 0.0 0 1 172.0 81.0 L172.0 81.0 A34.0 34.0 0.0 0 1 153.0 109.0 L116.0 109.0 A25.0 25.0 0.0 0 1 100.0 82.0 L100.0 82.0 Z"></path></svg>