<svg xmlns="http://www.w3.org/2000/svg" viewBox="0.0 0.0 200.0 200.0" height="200px" width="200px"><path fill="#ffccaa" fill-opacity="1.0"  filling="0" d="M178.0 147.0 L66.0 147.0 L70.0 129.0 A28.0 28.0 0.0 0 1 94.0 106.0 L156.0 106.0 A28.0 28.0 0.0 0 1 174.0 129.0 L178.0 147.0 L178.0 147.0 Z"></path>
<path fill="#ffcc99" fill-opacity="1.0"  filling="0" d="M178.0 147.0 L134.0 147.0 L130.0 129.0 A28.0 28.0 0.0 0 0 106.0 106.0 L156.0 106.0 A28.0 28.0 0.0 0 1 174.0 129.0 L178.0 147.0 L178.0 147.0 Z"></path>
<path fill="#ffcc99" fill-opacity="1.0"  filling="0" d="M166.0 147.0 L66.0 147.0 L70.0 129.0 A28.0 28.0 0.0 0 1 94.0 106.0 L144.0 106.0 A28.0 28.0 0.0 0 1 166.0 129.0 L166.0 147.0 L166.0 147.0 Z"></path>
<path fill="#ffccaa" fill-opacity="1.0"  filling="0" d="M166.0 147.0 L134.0 147.0 L130.0 129.0 A28.0 28.0 0.0 0 0 106.0 106.0 L144.0 106.0 A28.0 28.0 0.0 0 1 166.0 129.0 L166.0 147.0 L166.0 147.0 Z"></path>
<path fill="#99aaaa" fill-opacity="1.0"  filling="0" d="M41.0 147.0 L22.0 147.0 L28.0 109.0 L47.0 109.0 L41.0 147.0 L41.0 147.0 Z"></path>
<path fill="#99aaaa" fill-opacity="1.0"  filling="0" d="M53.0 147.0 L22.0 147.0 L28.0 109.0 L47.0 109.0 L53.0 147.0 L53.0 147.0 Z"></path>
<path fill="#778888" fill-opacity="1.0"  filling="0" d="M53.0 147.0 L34.0 147.0 L41.0 109.0 L47.0 109.0 L53.0 147.0 L53.0 147.0 Z"></path>
<path fill="#663322" fill-opacity="1.0"  filling="0" d="M184.0 53.0 A25.0 25.0 0.0 1 1 134.0 53.0 A25.0 25.0 0.0 1 1 184.0 53.0 L184.0 53.0 Z"></path>
<path fill="#774433" fill-opacity="1.0"  filling="0" d="M175.0 88.0 A40.0 40.0 0.0 0 1 130.0 127.0 A28.0 28.0 0.0 0 1 106.0 106.0 L106.0 66.0 A28.0 28.0 0.0 0 1 130.0 47.0 A40.0 40.0 0.0 0 1 175.0 88.0 L175.0 88.0 Z"></path>
<path fill="#774433" fill-opacity="1.0"  filling="0" d="M175.0 88.0 A40.0 40.0 0.0 0 1 130.0 127.0 A28.0 28.0 0.0 0 1 106.0 106.0 L106.0 66.0 A28.0 28.0 0.0 0 1 130.0 47.0 A40.0 40.0 0.0 0 1 175.0 88.0 L175.0 88.0 Z"></path>
<path fill="#774433" fill-opacity="1.0"  filling="0" d="M175.0 88.0 A40.0 40.0 0.0 0 1 130.0 127.0 A28.0 28.0 0.0 0 1 106.0 106.0 L106.0 66.0 A28.0 28.0 0.0 0 1 130.0 47.0 A40.0 40.0 0.0 0 1 175.0 88.0 L175.0 88.0 Z"></path>
<path fill="#663322" fill-opacity="1.0"  filling="0" d="M52.0 52.0 A3.0 3.0 0.0 0 1 51.0 50.0 L-2.0 -2.0 M94.0 94.0 A3.0 3.0 0.0 0 1 92.0 92.0 L-5.0 -5.0 M-8.0 -8.0 L57.0 57.0 A3.0 3.0 0.0 0 1 57.0 55.0 L57.0 54.0 A3.0 3.0 0.0 0 1 62.0 52.0 L96.0 85.0 A16.0 16.0 0.0 0 0 106.0 94.0 A3.0 3.0 0.0 0 1 109.0 97.0 L109.0 97.0 A3.0 3.0 0.0 0 1 106.0 100.0 A22.0 22.0 0.0 0 1 94.0 94.0 L94.0 94.0 Z"></path>
<path fill="#663322" fill-opacity="1.0"  filling="0" d="M106.0 94.0 A3.0 3.0 0.0 0 1 104.0 92.0 L106.0 85.0 A16.0 16.0 0.0 0 0 97.0 69.0 L57.0 46.0 A3.0 3.0 0.0 0 1 56.0 43.0 L56.0 42.0 A3.0 3.0 0.0 0 1 61.0 39.0 L101.0 64.0 A22.0 22.0 0.0 0 1 112.0 89.0 L110.0 92.0 A3.0 3.0 0.0 0 1 106.0 94.0 L106.0 94.0 Z"></path>
<path fill="#663322" fill-opacity="1.0"  filling="0" d="M106.0 94.0 A3.0 3.0 0.0 0 1 104.0 92.0 L106.0 85.0 A16.0 16.0 0.0 0 0 97.0 69.0 L57.0 46.0 A3.0 3.0 0.0 0 1 56.0 43.0 L56.0 42.0 A3.0 3.0 0.0 0 1 61.0 39.0 L101.0 64.0 A22.0 22.0 0.0 0 1 112.0 89.0 L110.0 92.0 A3.0 3.0 0.0 0 1 106.0 94.0 L106.0 94.0 Z"></path>
<path fill="#ffccaa" fill-opacity="1.0"  filling="0" d="M106.0 81.0 A9.0 9.0 0.0 0 1 95.0 69.0 A22.0 22.0 0.0 0 1 97.0 69.0 L106.0 65.0 A9.0 9.0 0.0 0 1 112.0 69.0 A9.0 9.0 0.0 0 1 106.0 81.0 L106.0 81.0 Z"></path>
<path fill="#ffccaa" fill-opacity="1.0"  filling="0" d="M175.0 88.0 A40.0 40.0 0.0 0 1 130.0 127.0 A28.0 28.0 0.0 0 1 106.0 106.0 L106.0 66.0 A28.0 28.0 0.0 0 1 130.0 47.0 A40.0 40.0 0.0 0 1 175.0 88.0 L175.0 88.0 Z"></path>
<path fill="#ffcc99" fill-opacity="1.0"  filling="0" d="M156.0 88.0 A16.0 16.0 0.0 1 1 125.0 88.0 A16.0 16.0 0.0 1 1 156.0 88.0 L156.0 88.0 Z"></path>
<path fill="#ffcc99" fill-opacity="1.0"  filling="0" d="M153.0 109.0 A3.0 3.0 0.0 0 1 151.0 108.0 A3.0 3.0 0.0 0 1 151.0 104.0 A12.0 12.0 0.0 0 0 153.0 91.0 A3.0 3.0 0.0 0 1 159.0 91.0 A19.0 19.0 0.0 0 1 155.0 108.0 A3.0 3.0 0.0 0 1 153.0 109.0 L153.0 109.0 Z"></path>
<path fill="#663322" fill-opacity="1.0"  filling="0" d="M135.0 111.0 A3.0 3.0 0.0 0 1 133.0 110.0 L128.0 106.0 A3.0 3.0 0.0 0 1 133.0 101.0 L137.0 106.0 A3.0 3.0 0.0 0 1 135.0 111.0 L135.0 111.0 Z"></path>
<path fill="#663322" fill-opacity="1.0"  filling="0" d="M117.0 93.0 A3.0 3.0 0.0 0 1 115.0 92.0 L111.0 88.0 A3.0 3.0 0.0 0 1 115.0 84.0 L120.0 88.0 A3.0 3.0 0.0 0 1 117.0 93.0 L117.0 93.0 Z"></path>
<path fill="#663322" fill-opacity="1.0"  filling="0" d="M122.0 118.0 A19.0 19.0 0.0 0 1 114.0 113.0 A18.0 18.0 0.0 0 1 103.0 97.0 A3.0 3.0 0.0 0 1 106.0 94.0 A3.0 3.0 0.0 0 1 109.0 97.0 A12.0 12.0 0.0 0 0 117.0 108.0 A12.0 12.0 0.0 0 0 123.0 111.0 A3.0 3.0 0.0 0 1 122.0 118.0 L122.0 118.0 Z"></path>
<path fill="#bb1133" fill-opacity="1.0"  filling="0" d="M153.0 147.0 L91.0 147.0 A9.0 9.0 0.0 0 1 81.0 138.0 L81.0 138.0 A9.0 9.0 0.0 0 1 91.0 128.0 L153.0 128.0 A9.0 9.0 0.0 0 1 162.0 138.0 L162.0 138.0 A9.0 9.0 0.0 0 1 153.0 147.0 L153.0 147.0 Z"></path>
<path fill="#aa6644" fill-opacity="1.0"  filling="0" d="M9.0 166.0 L191.0 166.0 L191.0 147.0 L9.0 147.0 L9.0 166.0 L9.0 166.0 Z"></path>
<path fill="#dddddd" fill-opacity="1.0"  filling="0" d="M30.0 100.0 A3.0 3.0 0.0 0 1 27.0 97.0 L27.0 96.0 A9.0 9.0 0.0 0 0 28.0 90.0 A16.0 16.0 0.0 0 1 28.0 77.0 A9.0 9.0 0.0 0 0 29.0 71.0 A3.0 3.0 0.0 0 1 36.0 73.0 A16.0 16.0 0.0 0 1 34.0 79.0 A9.0 9.0 0.0 0 0 34.0 87.0 A16.0 16.0 0.0 0 1 33.0 96.0 L33.0 97.0 A3.0 3.0 0.0 0 1 30.0 100.0 L30.0 100.0 Z"></path>
<path fill="#dddddd" fill-opacity="1.0"  filling="0" d="M43.0 94.0 A3.0 3.0 0.0 0 1 39.0 91.0 L39.0 90.0 A9.0 9.0 0.0 0 0 40.0 84.0 A16.0 16.0 0.0 0 1 40.0 71.0 A9.0 9.0 0.0 0 0 42.0 65.0 A3.0 3.0 0.0 0 1 48.0 67.0 A16.0 16.0 0.0 0 1 46.0 73.0 A9.0 9.0 0.0 0 0 46.0 81.0 A16.0 16.0 0.0 0 1 46.0 90.0 L46.0 91.0 A3.0 3.0 0.0 0 1 43.0 94.0 L43.0 94.0 Z"></path></svg>