<svg xmlns="http://www.w3.org/2000/svg" viewBox="0.0 0.0 200.0 200.0" height="200px" width="200px"><path fill="#445555" fill-opacity="1.0"  filling="0" d="M173.0 132.0 C165.0 132.0 159.0 126.0 159.0 119.0 L159.0 83.0 C159.0 81.0 159.0 79.0 159.0 77.0 C157.0 63.0 151.0 50.0 142.0 41.0 C139.0 38.0 136.0 36.0 133.0 34.0 C124.0 27.0 112.0 24.0 100.0 24.0 C88.0 24.0 76.0 27.0 67.0 34.0 C53.0 43.0 44.0 58.0 42.0 75.0 C41.0 78.0 41.0 80.0 41.0 83.0 L41.0 119.0 C41.0 126.0 35.0 132.0 27.0 132.0 L27.0 132.0 C27.0 149.0 40.0 162.0 56.0 162.0 L144.0 162.0 C160.0 162.0 173.0 149.0 173.0 132.0 L173.0 132.0 Z"></path>
<path fill="#ffeeee" fill-opacity="1.0"  filling="0" d="M123.0 177.0 L77.0 177.0 L62.0 163.0 C66.0 145.0 78.0 137.0 78.0 137.0 L122.0 137.0 C122.0 137.0 134.0 145.0 138.0 163.0 L123.0 177.0 L123.0 177.0 Z"></path>
<path fill="#ffeeee" fill-opacity="1.0"  filling="0" d="M77.0 162.0 L77.0 177.0 L60.0 177.0 C60.0 172.0 61.0 166.0 62.0 162.0 L77.0 162.0 L77.0 162.0 Z"></path>
<path fill="#ffeeee" fill-opacity="1.0"  filling="0" d="M140.0 177.0 L123.0 177.0 L123.0 162.0 L138.0 162.0 C139.0 166.0 140.0 172.0 140.0 177.0 L140.0 177.0 Z"></path>
<path fill="#ffffff" fill-opacity="1.0"  filling="0" d="M123.0 135.0 L123.0 177.0 L77.0 177.0 L77.0 135.0 L85.0 135.0 L85.0 146.0 C85.0 151.0 89.0 155.0 94.0 155.0 L106.0 155.0 C111.0 155.0 115.0 151.0 115.0 146.0 L115.0 135.0 L123.0 135.0 L123.0 135.0 Z"></path>
<path fill="#ffdddd" fill-opacity="1.0"  filling="0" d="M34.0 92.0 A15.0 15.0 0.0 1 0 64.0 92.0 A15.0 15.0 0.0 1 0 34.0 92.0 L34.0 92.0 Z"></path>
<path fill="#ffdddd" fill-opacity="1.0"  filling="0" d="M136.0 92.0 A15.0 15.0 0.0 1 0 166.0 92.0 A15.0 15.0 0.0 1 0 136.0 92.0 L136.0 92.0 Z"></path>
<path fill="#ffeeee" fill-opacity="1.0"  filling="0" d="M47.0 90.0 A53.0 53.0 0.0 1 0 153.0 90.0 A53.0 53.0 0.0 1 0 47.0 90.0 L47.0 90.0 Z"></path>
<path fill="#ffdddd" fill-opacity="1.0"  filling="0" d="M64.0 109.0 A10.0 8.0 0.0 1 0 83.0 109.0 A10.0 8.0 0.0 1 0 64.0 109.0 L64.0 109.0 Z"></path>
<path fill="#ffdddd" fill-opacity="1.0"  filling="0" d="M117.0 109.0 A10.0 8.0 0.0 1 0 136.0 109.0 A10.0 8.0 0.0 1 0 117.0 109.0 L117.0 109.0 Z"></path>
<path fill="#440066" fill-opacity="1.0"  filling="0" d="M85.0 103.0 C84.0 103.0 83.0 102.0 83.0 100.0 L83.0 98.0 C83.0 97.0 84.0 96.0 85.0 96.0 C87.0 96.0 88.0 97.0 88.0 98.0 L88.0 100.0 C88.0 102.0 87.0 103.0 85.0 103.0 L85.0 103.0 Z"></path>
<path fill="#440066" fill-opacity="1.0"  filling="0" d="M115.0 103.0 C113.0 103.0 112.0 102.0 112.0 100.0 L112.0 98.0 C112.0 97.0 113.0 96.0 115.0 96.0 C116.0 96.0 117.0 97.0 117.0 98.0 L117.0 100.0 C117.0 102.0 116.0 103.0 115.0 103.0 L115.0 103.0 Z"></path>
<path fill="#440066" fill-opacity="1.0"  filling="0" d="M100.0 117.0 C97.0 117.0 94.0 115.0 92.0 113.0 C91.0 112.0 91.0 110.0 92.0 109.0 C93.0 109.0 94.0 109.0 95.0 110.0 C97.0 111.0 98.0 112.0 100.0 112.0 C102.0 112.0 103.0 111.0 105.0 110.0 C106.0 109.0 107.0 109.0 108.0 109.0 C109.0 110.0 109.0 112.0 108.0 113.0 C106.0 115.0 103.0 117.0 100.0 117.0 L100.0 117.0 Z"></path>
<path fill="#556677" fill-opacity="1.0"  filling="0" d="M159.0 77.0 C158.0 77.0 157.0 77.0 156.0 77.0 C140.0 77.0 125.0 72.0 112.0 65.0 C98.0 73.0 82.0 78.0 65.0 78.0 C57.0 78.0 49.0 77.0 41.0 75.0 C44.0 58.0 53.0 43.0 67.0 34.0 C76.0 27.0 88.0 24.0 100.0 24.0 C112.0 24.0 124.0 27.0 133.0 34.0 C136.0 36.0 139.0 38.0 142.0 41.0 C151.0 50.0 157.0 63.0 159.0 77.0 L159.0 77.0 Z"></path>
<path fill="#ff8877" fill-opacity="1.0"  filling="0" d="M77.0 160.0 L123.0 160.0 L123.0 177.0 L77.0 177.0 L77.0 160.0 L77.0 160.0 Z"></path>
<path fill="#ee6666" fill-opacity="1.0"  filling="0" d="M47.0 64.0 C47.0 64.0 47.0 0.0 160.0 37.0 C160.0 37.0 149.0 41.0 152.0 64.0 L47.0 64.0 L47.0 64.0 Z"></path>
<path fill="#ffffff" fill-opacity="1.0"  filling="0" d="M152.0 34.0 A12.0 12.0 0.0 1 0 176.0 34.0 A12.0 12.0 0.0 1 0 152.0 34.0 L152.0 34.0 Z"></path>
<path fill="#ffffff" fill-opacity="1.0"  filling="0" d="M156.0 69.0 L44.0 69.0 C39.0 69.0 36.0 66.0 36.0 62.0 C36.0 58.0 39.0 54.0 44.0 54.0 L156.0 54.0 C161.0 54.0 164.0 58.0 164.0 62.0 C164.0 66.0 161.0 69.0 156.0 69.0 L156.0 69.0 Z"></path></svg>