<svg xmlns="http://www.w3.org/2000/svg" viewBox="0.0 0.0 200.0 200.0" height="200px" width="200px"><path fill="#ee2222" fill-opacity="1.0"  filling="0" d="M181.0 53.0 L181.0 35.0 L164.0 35.0 L164.0 16.0 L125.0 16.0 L125.0 35.0 L108.0 35.0 L108.0 53.0 L92.0 53.0 L92.0 35.0 L75.0 35.0 L75.0 16.0 L36.0 16.0 L36.0 35.0 L19.0 35.0 L19.0 53.0 L3.0 53.0 L3.0 91.0 L19.0 91.0 L19.0 109.0 L33.0 109.0 L33.0 128.0 L48.0 128.0 L48.0 147.0 L65.0 147.0 L65.0 165.0 L85.0 165.0 L85.0 184.0 L115.0 184.0 L115.0 165.0 L135.0 165.0 L135.0 147.0 L152.0 147.0 L152.0 128.0 L166.0 128.0 L166.0 109.0 L181.0 109.0 L181.0 91.0 L196.0 91.0 L196.0 53.0 L181.0 53.0 L181.0 53.0 Z"></path></svg>