<svg xmlns="http://www.w3.org/2000/svg" viewBox="0.0 0.0 200.0 200.0" height="200px" width="200px"><path fill="#002255" fill-opacity="1.0"  filling="0" d="M105.0 173.0 C103.0 173.0 101.0 172.0 100.0 170.0 L90.0 153.0 C88.0 150.0 89.0 146.0 92.0 144.0 C95.0 142.0 99.0 143.0 101.0 146.0 L107.0 159.0 L136.0 140.0 L126.0 128.0 C124.0 125.0 125.0 121.0 128.0 119.0 C131.0 117.0 135.0 118.0 137.0 121.0 L149.0 139.0 C150.0 141.0 150.0 143.0 150.0 145.0 C149.0 146.0 148.0 147.0 147.0 148.0 L108.0 172.0 C108.0 173.0 106.0 173.0 105.0 173.0 L105.0 173.0 Z"></path>
<path fill="#eeffff" fill-opacity="1.0"  filling="0" d="M45.0 173.0 C44.0 173.0 43.0 172.0 42.0 172.0 L20.0 157.0 C18.0 156.0 17.0 154.0 17.0 152.0 C16.0 150.0 17.0 148.0 18.0 147.0 L113.0 4.0 C115.0 2.0 118.0 1.0 120.0 3.0 L147.0 28.0 C148.0 29.0 150.0 31.0 150.0 33.0 C150.0 35.0 150.0 37.0 148.0 38.0 L51.0 170.0 C50.0 172.0 48.0 173.0 45.0 173.0 L45.0 173.0 Z"></path>
<path fill="#002255" fill-opacity="1.0"  filling="0" d="M147.0 28.0 L120.0 3.0 C118.0 1.0 115.0 2.0 113.0 4.0 L100.0 22.0 L139.0 62.0 L148.0 38.0 C150.0 37.0 150.0 35.0 150.0 33.0 C150.0 31.0 148.0 29.0 147.0 28.0 L147.0 28.0 Z"></path>
<path fill="#003377" fill-opacity="1.0"  filling="0" d="M177.0 100.0 L100.0 23.0 L113.0 4.0 C115.0 2.0 118.0 1.0 120.0 3.0 L197.0 78.0 C199.0 80.0 199.0 85.0 196.0 87.0 L177.0 100.0 L177.0 100.0 Z"></path>
<path fill="#002255" fill-opacity="1.0"  filling="0" d="M197.0 78.0 L163.0 37.0 L138.0 62.0 L177.0 100.0 L196.0 87.0 C199.0 85.0 199.0 80.0 197.0 78.0 L197.0 78.0 Z"></path>
<path fill="#dd5533" fill-opacity="1.0"  filling="0" d="M41.0 199.0 C38.0 199.0 36.0 199.0 35.0 198.0 L2.0 165.0 C1.0 164.0 0.0 162.0 0.0 159.0 C0.0 158.0 1.0 156.0 2.0 155.0 L18.0 140.0 C20.0 138.0 24.0 138.0 26.0 140.0 L60.0 174.0 C62.0 176.0 62.0 180.0 60.0 182.0 L45.0 198.0 C44.0 199.0 42.0 199.0 41.0 199.0 L41.0 199.0 Z"></path>
<path fill="#eeffff" fill-opacity="1.0"  filling="0" d="M140.0 26.0 L16.0 16.0 L2.0 140.0 L18.0 140.0 L43.0 157.0 L113.0 87.0 L159.0 41.0 L140.0 26.0 L140.0 26.0 Z"></path>
<path fill="#bbeeff" fill-opacity="1.0"  filling="0" d="M184.0 16.0 L140.0 26.0 L159.0 41.0 L113.0 87.0 L43.0 157.0 L60.0 182.0 L60.0 198.0 L184.0 16.0 L184.0 16.0 Z"></path>
<path fill="#002255" fill-opacity="1.0"  filling="0" d="M158.0 33.0 L112.0 87.0 L113.0 87.0 L159.0 41.0 L162.0 38.0 L158.0 33.0 L158.0 33.0 Z"></path>
<path fill="#ffcc55" fill-opacity="1.0"  filling="0" d="M158.0 17.0 L164.0 9.0 C165.0 6.0 164.0 3.0 161.0 1.0 C158.0 0.0 155.0 0.0 153.0 3.0 L148.0 13.0 C146.0 16.0 147.0 19.0 150.0 21.0 C153.0 22.0 156.0 21.0 158.0 18.0 C158.0 18.0 158.0 17.0 158.0 17.0 L158.0 17.0 Z"></path>
<path fill="#ffaa44" fill-opacity="1.0"  filling="0" d="M187.0 52.0 L197.0 47.0 C199.0 45.0 199.0 42.0 199.0 39.0 C197.0 36.0 194.0 35.0 191.0 36.0 L183.0 42.0 C179.0 44.0 178.0 47.0 179.0 50.0 C181.0 53.0 184.0 54.0 187.0 52.0 L187.0 52.0 Z"></path>
<path fill="#ffcc55" fill-opacity="1.0"  filling="0" d="M167.0 33.0 C165.0 30.0 165.0 27.0 167.0 24.0 L184.0 8.0 C187.0 6.0 190.0 6.0 192.0 8.0 C194.0 10.0 194.0 13.0 192.0 16.0 L176.0 33.0 C173.0 35.0 170.0 35.0 167.0 33.0 L167.0 33.0 Z"></path>
<path fill="#ffaa44" fill-opacity="1.0"  filling="0" d="M167.0 33.0 L192.0 8.0 C194.0 10.0 194.0 13.0 192.0 16.0 L176.0 33.0 C173.0 35.0 170.0 35.0 167.0 33.0 L167.0 33.0 Z"></path></svg>