<svg xmlns="http://www.w3.org/2000/svg" viewBox="0.0 0.0 200.0 200.0" height="200px" width="200px"><path fill="#002255" fill-opacity="1.0"  filling="0" d="M105.0 173.0 C103.0 173.0 101.0 172.0 100.0 170.0 L87.0 147.0 C85.0 144.0 86.0 140.0 89.0 138.0 C92.0 137.0 96.0 138.0 97.0 141.0 L107.0 159.0 L136.0 140.0 L125.0 125.0 C123.0 122.0 124.0 118.0 127.0 116.0 C130.0 114.0 134.0 115.0 136.0 118.0 L149.0 139.0 C150.0 141.0 150.0 143.0 150.0 145.0 C149.0 146.0 148.0 147.0 147.0 148.0 L108.0 172.0 C108.0 173.0 106.0 173.0 105.0 173.0 L105.0 173.0 Z"></path>
<path fill="#eeffff" fill-opacity="1.0"  filling="0" d="M45.0 173.0 C44.0 173.0 43.0 172.0 42.0 172.0 L16.0 148.0 C14.0 147.0 13.0 146.0 13.0 145.0 C12.0 143.0 12.0 141.0 13.0 139.0 L100.0 23.0 C103.0 21.0 107.0 20.0 110.0 22.0 L147.0 45.0 C149.0 46.0 150.0 48.0 150.0 50.0 C150.0 52.0 149.0 54.0 147.0 55.0 L51.0 170.0 C49.0 172.0 47.0 173.0 45.0 173.0 L45.0 173.0 Z"></path>
<path fill="#bbeeff" fill-opacity="1.0"  filling="0" d="M147.0 45.0 L110.0 22.0 C107.0 20.0 103.0 21.0 100.0 23.0 L100.0 22.0 L100.0 55.0 L147.0 55.0 C149.0 54.0 150.0 52.0 150.0 50.0 C150.0 48.0 149.0 46.0 147.0 45.0 L147.0 45.0 Z"></path>
<path fill="#eeffff" fill-opacity="1.0"  filling="0" d="M155.0 173.0 L45.0 173.0 C42.0 173.0 40.0 170.0 40.0 167.0 L40.0 50.0 C40.0 47.0 42.0 44.0 45.0 44.0 L155.0 44.0 C158.0 44.0 161.0 47.0 161.0 50.0 L161.0 167.0 C161.0 170.0 158.0 173.0 155.0 173.0 L155.0 173.0 Z"></path>
<path fill="#bbeeff" fill-opacity="1.0"  filling="0" d="M155.0 44.0 L100.0 44.0 L100.0 173.0 L155.0 173.0 C158.0 173.0 161.0 170.0 161.0 167.0 L161.0 50.0 C161.0 47.0 158.0 44.0 155.0 44.0 L155.0 44.0 Z"></path>
<path fill="#eeffff" fill-opacity="1.0"  filling="0" d="M155.0 44.0 L45.0 44.0 C42.0 44.0 40.0 47.0 40.0 50.0 L40.0 167.0 C40.0 170.0 42.0 173.0 45.0 173.0 L155.0 173.0 C158.0 173.0 161.0 170.0 161.0 167.0 L161.0 50.0 C161.0 47.0 158.0 44.0 155.0 44.0 L155.0 44.0 Z M100.0 160.0 L51.0 160.0 L51.0 56.0 L149.0 56.0 L149.0 160.0 L100.0 160.0 L100.0 160.0 Z"></path>
<path fill="#bbeeff" fill-opacity="1.0"  filling="0" d="M155.0 44.0 L100.0 44.0 L100.0 56.0 L149.0 56.0 L149.0 160.0 L100.0 160.0 L100.0 173.0 L155.0 173.0 C158.0 173.0 161.0 170.0 161.0 167.0 L161.0 50.0 C161.0 47.0 158.0 44.0 155.0 44.0 L155.0 44.0 Z"></path>
<path fill="#003377" fill-opacity="1.0"  filling="0" d="M24.0 106.0 C22.0 106.0 21.0 105.0 20.0 104.0 C18.0 102.0 18.0 98.0 20.0 96.0 L113.0 4.0 C115.0 2.0 119.0 2.0 122.0 4.0 L159.0 38.0 L184.0 8.0 C186.0 6.0 190.0 6.0 192.0 8.0 C195.0 10.0 195.0 14.0 192.0 16.0 L166.0 46.0 L196.0 78.0 C198.0 81.0 198.0 85.0 196.0 87.0 L179.0 104.0 C177.0 106.0 173.0 107.0 171.0 104.0 C168.0 102.0 168.0 98.0 171.0 96.0 L184.0 83.0 L151.0 49.0 L117.0 16.0 L29.0 104.0 C28.0 105.0 26.0 106.0 24.0 106.0 L24.0 106.0 Z"></path>
<path fill="#002255" fill-opacity="1.0"  filling="0" d="M192.0 192.0 C190.0 194.0 186.0 194.0 184.0 192.0 L159.0 162.0 L122.0 196.0 C120.0 198.0 115.0 198.0 113.0 196.0 L95.0 179.0 C93.0 177.0 93.0 173.0 95.0 171.0 C97.0 169.0 101.0 168.0 104.0 171.0 L117.0 184.0 L151.0 151.0 L184.0 117.0 L171.0 104.0 C168.0 102.0 168.0 98.0 171.0 96.0 C173.0 93.0 177.0 93.0 179.0 96.0 L196.0 113.0 C198.0 115.0 198.0 119.0 196.0 122.0 L166.0 154.0 L192.0 184.0 C195.0 186.0 195.0 190.0 192.0 192.0 L192.0 192.0 Z"></path>
<path fill="#dd5533" fill-opacity="1.0"  filling="0" d="M41.0 199.0 C38.0 199.0 36.0 199.0 35.0 198.0 L2.0 165.0 C0.0 163.0 0.0 160.0 0.0 158.0 C1.0 156.0 2.0 155.0 4.0 154.0 L18.0 140.0 C20.0 138.0 24.0 138.0 26.0 140.0 L60.0 174.0 C62.0 176.0 62.0 180.0 60.0 182.0 L46.0 196.0 C45.0 198.0 43.0 199.0 41.0 199.0 L41.0 199.0 Z"></path>
<path fill="#bb2211" fill-opacity="1.0"  filling="0" d="M60.0 174.0 L43.0 157.0 L18.0 182.0 L35.0 198.0 C36.0 199.0 38.0 199.0 41.0 199.0 C43.0 199.0 45.0 198.0 46.0 196.0 L60.0 182.0 C62.0 180.0 62.0 176.0 60.0 174.0 L60.0 174.0 Z"></path>
<path fill="#ffbb44" fill-opacity="1.0"  filling="0" d="M179.0 53.0 C178.0 50.0 178.0 45.0 181.0 43.0 L191.0 36.0 C194.0 35.0 198.0 36.0 199.0 39.0 C199.0 42.0 199.0 46.0 197.0 47.0 L188.0 52.0 C185.0 54.0 181.0 54.0 179.0 53.0 L179.0 53.0 Z"></path>
<path fill="#ffbb44" fill-opacity="1.0"  filling="0" d="M166.0 34.0 C164.0 31.0 164.0 28.0 167.0 25.0 L184.0 8.0 C186.0 6.0 190.0 6.0 192.0 8.0 C195.0 10.0 195.0 14.0 192.0 16.0 L175.0 33.0 C172.0 36.0 169.0 36.0 166.0 34.0 L166.0 34.0 Z"></path>
<path fill="#ffdd66" fill-opacity="1.0"  filling="0" d="M147.0 21.0 C146.0 19.0 146.0 15.0 148.0 12.0 L153.0 3.0 C154.0 0.0 158.0 0.0 161.0 1.0 C164.0 2.0 165.0 6.0 164.0 9.0 L157.0 19.0 C155.0 22.0 150.0 22.0 147.0 21.0 L147.0 21.0 Z"></path></svg>