<svg xmlns="http://www.w3.org/2000/svg" viewBox="0.0 0.0 200.0 200.0" height="200px" width="200px"><path fill="#002255" fill-opacity="1.0"  filling="0" d="M105.0 173.0 C103.0 173.0 101.0 172.0 100.0 170.0 L87.0 147.0 C85.0 144.0 86.0 140.0 89.0 138.0 C92.0 137.0 96.0 138.0 97.0 141.0 L107.0 159.0 L136.0 141.0 L124.0 127.0 C122.0 124.0 123.0 120.0 126.0 118.0 C129.0 116.0 133.0 117.0 135.0 120.0 L149.0 139.0 C150.0 141.0 150.0 143.0 150.0 145.0 C149.0 146.0 148.0 147.0 147.0 148.0 L108.0 172.0 C108.0 173.0 106.0 173.0 105.0 173.0 L105.0 173.0 Z"></path>
<path fill="#002255" fill-opacity="1.0"  filling="0" d="M55.0 173.0 C53.0 173.0 52.0 173.0 51.0 171.0 C49.0 169.0 49.0 165.0 51.0 163.0 L72.0 143.0 C75.0 140.0 79.0 140.0 81.0 143.0 C83.0 145.0 83.0 149.0 81.0 151.0 L60.0 171.0 C58.0 173.0 57.0 173.0 55.0 173.0 L55.0 173.0 Z"></path>
<path fill="#003377" fill-opacity="1.0"  filling="0" d="M55.0 173.0 C53.0 173.0 52.0 173.0 51.0 171.0 L36.0 149.0 C34.0 147.0 34.0 143.0 36.0 140.0 C39.0 138.0 43.0 138.0 45.0 140.0 L60.0 163.0 C62.0 165.0 62.0 169.0 60.0 171.0 C58.0 173.0 57.0 173.0 55.0 173.0 L55.0 173.0 Z"></path>
<path fill="#dd5533" fill-opacity="1.0"  filling="0" d="M39.0 199.0 C37.0 199.0 36.0 199.0 35.0 198.0 L2.0 165.0 C0.0 164.0 0.0 162.0 0.0 161.0 C0.0 159.0 0.0 158.0 2.0 157.0 L18.0 140.0 C20.0 138.0 24.0 138.0 26.0 140.0 L60.0 174.0 C61.0 176.0 62.0 177.0 62.0 179.0 C62.0 180.0 61.0 182.0 60.0 183.0 L43.0 198.0 C42.0 199.0 41.0 199.0 39.0 199.0 L39.0 199.0 Z"></path>
<path fill="#bb2211" fill-opacity="1.0"  filling="0" d="M39.0 199.0 C37.0 199.0 36.0 199.0 35.0 198.0 L18.0 182.0 L43.0 157.0 L60.0 174.0 C61.0 176.0 62.0 177.0 62.0 179.0 C62.0 180.0 61.0 182.0 60.0 183.0 L43.0 198.0 C42.0 199.0 41.0 199.0 39.0 199.0 L39.0 199.0 Z"></path>
<path fill="#eeffff" fill-opacity="1.0"  filling="0" d="M100.0 23.0 L23.0 142.0 L58.0 177.0 L177.0 100.0 L100.0 23.0 L100.0 23.0 Z"></path>
<path fill="#bbeeff" fill-opacity="1.0"  filling="0" d="M177.0 100.0 L58.0 177.0 L40.0 160.0 L156.0 44.0 L177.0 100.0 L177.0 100.0 Z"></path>
<path fill="#eeffff" fill-opacity="1.0"  filling="0" d="M177.0 100.0 L58.0 177.0 L23.0 142.0 L100.0 23.0 L177.0 100.0 L177.0 100.0 Z"></path>
<path fill="#bbeeff" fill-opacity="1.0"  filling="0" d="M177.0 100.0 L58.0 177.0 L40.0 160.0 L156.0 44.0 L177.0 100.0 L177.0 100.0 Z"></path>
<path fill="#eeffff" fill-opacity="1.0"  filling="0" d="M171.0 29.0 C168.0 27.0 165.0 27.0 162.0 29.0 L159.0 41.0 L1.0 1.0 L0.0 199.0 L109.0 109.0 L171.0 112.0 C173.0 113.0 174.0 113.0 176.0 113.0 C177.0 113.0 179.0 113.0 180.0 112.0 C182.0 110.0 183.0 106.0 182.0 103.0 L171.0 29.0 L171.0 29.0 Z"></path>
<path fill="#bbeeff" fill-opacity="1.0"  filling="0" d="M180.0 112.0 C179.0 113.0 177.0 113.0 176.0 113.0 C174.0 113.0 173.0 113.0 171.0 112.0 L109.0 109.0 L0.0 199.0 L1.0 1.0 L159.0 41.0 L182.0 103.0 C183.0 106.0 182.0 110.0 180.0 112.0 L180.0 112.0 Z"></path>
<path fill="#ffdd44" fill-opacity="1.0"  filling="0" d="M46.0 46.0 C44.0 49.0 40.0 51.0 37.0 49.0 L2.0 43.0 C0.0 42.0 0.0 41.0 0.0 39.0 C0.0 38.0 0.0 36.0 2.0 35.0 L35.0 2.0 C36.0 0.0 38.0 0.0 39.0 0.0 C41.0 0.0 42.0 0.0 43.0 2.0 L49.0 37.0 C50.0 40.0 49.0 44.0 46.0 46.0 L46.0 46.0 Z"></path>
<path fill="#ffbb44" fill-opacity="1.0"  filling="0" d="M46.0 46.0 C44.0 49.0 40.0 51.0 37.0 49.0 L2.0 43.0 C0.0 42.0 0.0 41.0 0.0 39.0 C0.0 38.0 0.0 36.0 2.0 35.0 L12.0 12.0 L44.0 44.0 C45.0 45.0 45.0 45.0 46.0 46.0 L46.0 46.0 Z"></path>
<path fill="#ffdd44" fill-opacity="1.0"  filling="0" d="M158.0 33.0 L148.0 14.0 C146.0 11.0 148.0 7.0 152.0 6.0 C155.0 5.0 158.0 6.0 160.0 9.0 L170.0 26.0 C171.0 29.0 170.0 33.0 167.0 34.0 C164.0 36.0 160.0 35.0 158.0 33.0 L158.0 33.0 Z"></path>
<path fill="#ffbb44" fill-opacity="1.0"  filling="0" d="M177.0 52.0 L167.0 42.0 C165.0 40.0 164.0 36.0 166.0 34.0 C167.0 32.0 171.0 31.0 174.0 33.0 L191.0 40.0 C194.0 42.0 195.0 45.0 193.0 48.0 C192.0 52.0 189.0 54.0 186.0 52.0 L177.0 52.0 L177.0 52.0 Z"></path>
<path fill="#ffdd44" fill-opacity="1.0"  filling="0" d="M167.0 33.0 C165.0 30.0 165.0 27.0 167.0 24.0 L184.0 8.0 C187.0 6.0 191.0 6.0 193.0 8.0 C195.0 10.0 195.0 14.0 193.0 16.0 L176.0 33.0 C173.0 35.0 170.0 35.0 167.0 33.0 L167.0 33.0 Z"></path>
<path fill="#ffbb44" fill-opacity="1.0"  filling="0" d="M167.0 33.0 C165.0 30.0 165.0 27.0 167.0 24.0 L184.0 8.0 C187.0 6.0 191.0 6.0 193.0 8.0 L167.0 33.0 L167.0 33.0 Z"></path>
<path fill="#ff4433" fill-opacity="1.0"  filling="0" d="M25.0 158.0 L27.0 173.0 L42.0 175.0 L46.0 154.0 L25.0 158.0 L25.0 158.0 Z"></path>
<path fill="#dd3322" fill-opacity="1.0"  filling="0" d="M46.0 154.0 L42.0 175.0 L27.0 173.0 L46.0 154.0 L46.0 154.0 Z"></path>
<path fill="#ffbb44" fill-opacity="1.0"  filling="0" d="M196.0 4.0 C192.0 0.0 185.0 0.0 182.0 4.0 L162.0 19.0 C159.0 21.0 158.0 25.0 160.0 28.0 L172.0 40.0 C174.0 41.0 175.0 42.0 177.0 42.0 C178.0 42.0 180.0 41.0 181.0 40.0 L196.0 18.0 C199.0 15.0 199.0 8.0 196.0 4.0 L196.0 4.0 Z M188.0 21.0 L177.0 31.0 L169.0 23.0 L179.0 12.0 L188.0 21.0 L188.0 21.0 Z"></path>
<path fill="#ff9944" fill-opacity="1.0"  filling="0" d="M196.0 18.0 L181.0 40.0 C180.0 41.0 178.0 42.0 177.0 42.0 C175.0 42.0 174.0 41.0 172.0 40.0 L167.0 33.0 L188.0 12.0 L199.0 22.0 L196.0 18.0 L196.0 18.0 Z"></path>
<path fill="#003366" fill-opacity="1.0"  filling="0" d="M196.0 78.0 L122.0 4.0 C119.0 1.0 115.0 1.0 113.0 4.0 L100.0 23.0 L177.0 100.0 L196.0 87.0 C199.0 85.0 199.0 81.0 196.0 78.0 L196.0 78.0 Z"></path>
<path fill="#001144" fill-opacity="1.0"  filling="0" d="M179.0 87.0 L177.0 100.0 L138.0 62.0 L159.0 41.0 L196.0 78.0 C199.0 81.0 199.0 85.0 196.0 87.0 L179.0 87.0 L179.0 87.0 Z"></path></svg>