<svg xmlns="http://www.w3.org/2000/svg" viewBox="0.0 0.0 200.0 200.0" height="200px" width="200px"><path fill="#002255" fill-opacity="1.0"  filling="0" d="M105.0 173.0 C103.0 173.0 101.0 172.0 100.0 170.0 L88.0 150.0 C86.0 147.0 87.0 143.0 90.0 142.0 C93.0 140.0 97.0 141.0 98.0 144.0 L107.0 159.0 L136.0 140.0 L125.0 125.0 C123.0 122.0 124.0 118.0 127.0 116.0 C130.0 114.0 134.0 115.0 136.0 118.0 L149.0 139.0 C150.0 141.0 150.0 143.0 150.0 145.0 C149.0 146.0 148.0 147.0 147.0 148.0 L108.0 172.0 C108.0 173.0 106.0 173.0 105.0 173.0 L105.0 173.0 Z"></path>
<path fill="#eeffff" fill-opacity="1.0"  filling="0" d="M55.0 173.0 C53.0 173.0 52.0 173.0 51.0 171.0 L29.0 149.0 C27.0 147.0 27.0 146.0 27.0 145.0 C26.0 143.0 26.0 141.0 27.0 139.0 L101.0 23.0 C103.0 22.0 104.0 21.0 106.0 21.0 L106.0 21.0 C107.0 21.0 109.0 22.0 110.0 23.0 L177.0 90.0 C178.0 91.0 179.0 93.0 179.0 94.0 C179.0 96.0 178.0 97.0 177.0 99.0 L61.0 173.0 C59.0 173.0 58.0 173.0 55.0 173.0 L55.0 173.0 Z"></path>
<path fill="#bbeeff" fill-opacity="1.0"  filling="0" d="M177.0 90.0 L110.0 23.0 C109.0 22.0 107.0 21.0 106.0 21.0 L106.0 21.0 C104.0 21.0 103.0 22.0 101.0 23.0 L100.0 23.0 L100.0 101.0 L100.0 101.0 L177.0 100.0 C178.0 97.0 179.0 96.0 179.0 94.0 C179.0 93.0 178.0 91.0 177.0 90.0 L177.0 90.0 Z"></path>
<path fill="#dd5533" fill-opacity="1.0"  filling="0" d="M45.0 151.0 L26.0 139.0 C24.0 138.0 21.0 138.0 19.0 139.0 L2.0 157.0 C0.0 159.0 0.0 163.0 2.0 165.0 L18.0 182.0 L35.0 198.0 C36.0 199.0 38.0 199.0 39.0 199.0 C41.0 199.0 42.0 199.0 43.0 198.0 L60.0 181.0 C62.0 179.0 62.0 176.0 60.0 174.0 L49.0 155.0 C48.0 154.0 46.0 152.0 45.0 151.0 L45.0 151.0 Z"></path>
<path fill="#dd5533" fill-opacity="1.0"  filling="0" d="M45.0 151.0 L26.0 139.0 C24.0 138.0 21.0 138.0 19.0 139.0 L2.0 157.0 C0.0 159.0 0.0 163.0 2.0 165.0 L18.0 182.0 L45.0 155.0 C46.0 154.0 45.0 152.0 45.0 151.0 L45.0 151.0 Z"></path>
<path fill="#bbeeff" fill-opacity="1.0"  filling="0" d="M114.0 77.0 L110.0 86.0 L86.0 90.0 L86.0 86.0 L86.0 82.0 L114.0 77.0 L114.0 77.0 Z"></path>
<path fill="#99ccee" fill-opacity="1.0"  filling="0" d="M114.0 77.0 L110.0 86.0 L86.0 90.0 L86.0 86.0 L114.0 82.0 L114.0 77.0 L114.0 77.0 Z"></path>
<path fill="#99ccee" fill-opacity="1.0"  filling="0" d="M114.0 77.0 L114.0 82.0 L86.0 86.0 L86.0 82.0 L114.0 77.0 L114.0 77.0 Z"></path>
<path fill="#99ccee" fill-opacity="1.0"  filling="0" d="M114.0 77.0 L114.0 77.0 L100.0 80.0 L100.0 93.0 L110.0 86.0 L114.0 77.0 L114.0 77.0 Z"></path>
<path fill="#003377" fill-opacity="1.0"  filling="0" d="M176.0 100.0 L100.0 24.0 L113.0 4.0 C115.0 2.0 119.0 2.0 122.0 4.0 L196.0 78.0 C198.0 81.0 198.0 85.0 196.0 87.0 L176.0 100.0 L176.0 100.0 Z"></path>
<path fill="#002255" fill-opacity="1.0"  filling="0" d="M196.0 78.0 L159.0 41.0 L138.0 62.0 L176.0 100.0 L196.0 87.0 C198.0 85.0 198.0 81.0 196.0 78.0 L196.0 78.0 Z"></path>
<path fill="#ffcc55" fill-opacity="1.0"  filling="0" d="M153.0 21.0 C152.0 21.0 151.0 21.0 150.0 20.0 C147.0 18.0 146.0 15.0 148.0 12.0 L153.0 3.0 C154.0 0.0 158.0 0.0 161.0 1.0 C164.0 2.0 165.0 6.0 164.0 9.0 L158.0 17.0 C157.0 20.0 155.0 21.0 153.0 21.0 L153.0 21.0 Z"></path>
<path fill="#ffaa44" fill-opacity="1.0"  filling="0" d="M184.0 53.0 C183.0 53.0 182.0 53.0 180.0 52.0 C178.0 50.0 178.0 46.0 180.0 43.0 L191.0 37.0 C194.0 35.0 198.0 36.0 199.0 39.0 C199.0 42.0 199.0 46.0 197.0 47.0 L188.0 52.0 C187.0 53.0 186.0 53.0 184.0 53.0 L184.0 53.0 Z"></path>
<path fill="#ffcc55" fill-opacity="1.0"  filling="0" d="M171.0 35.0 C169.0 35.0 168.0 35.0 167.0 33.0 C165.0 31.0 165.0 27.0 167.0 25.0 L184.0 8.0 C186.0 6.0 190.0 6.0 192.0 8.0 C194.0 10.0 194.0 14.0 192.0 16.0 L175.0 33.0 C174.0 35.0 172.0 35.0 171.0 35.0 L171.0 35.0 Z"></path>
<path fill="#ffaa44" fill-opacity="1.0"  filling="0" d="M167.0 33.0 C168.0 33.0 169.0 34.0 171.0 35.0 C172.0 35.0 174.0 35.0 175.0 33.0 L192.0 16.0 C194.0 14.0 194.0 10.0 192.0 8.0 L167.0 33.0 L167.0 33.0 Z"></path></svg>