<svg xmlns="http://www.w3.org/2000/svg" viewBox="0.0 0.0 200.0 200.0" height="200px" width="200px"><path fill="#bb5522" fill-opacity="1.0"  filling="0" d="M107.0 69.0 L107.0 176.0 C107.0 177.0 106.0 178.0 105.0 178.0 L95.0 178.0 C94.0 178.0 93.0 177.0 93.0 176.0 L93.0 69.0 C93.0 68.0 94.0 67.0 95.0 67.0 L105.0 67.0 C106.0 67.0 107.0 68.0 107.0 69.0 L107.0 69.0 Z"></path>
<path fill="#884411" fill-opacity="1.0"  filling="0" d="M107.0 69.0 L107.0 176.0 C107.0 177.0 106.0 178.0 105.0 178.0 L100.0 178.0 L100.0 67.0 L105.0 67.0 C106.0 67.0 107.0 68.0 107.0 69.0 L107.0 69.0 Z"></path>
<path fill="#bb5522" fill-opacity="1.0"  filling="0" d="M107.0 176.0 L107.0 199.0 L93.0 199.0 L93.0 176.0 C93.0 176.0 94.0 176.0 94.0 176.0 L105.0 176.0 C106.0 176.0 107.0 176.0 107.0 176.0 L107.0 176.0 Z"></path>
<path fill="#884411" fill-opacity="1.0"  filling="0" d="M107.0 176.0 L107.0 199.0 L100.0 199.0 L100.0 176.0 L105.0 176.0 C106.0 176.0 107.0 176.0 107.0 176.0 L107.0 176.0 Z"></path>
<path fill="#884411" fill-opacity="1.0"  filling="0" d="M107.0 69.0 L107.0 85.0 L93.0 85.0 L93.0 69.0 C93.0 68.0 94.0 67.0 95.0 67.0 L105.0 67.0 C106.0 67.0 107.0 68.0 107.0 69.0 L107.0 69.0 Z"></path>
<path fill="#884411" fill-opacity="1.0"  filling="0" d="M107.0 69.0 L107.0 85.0 L100.0 85.0 L100.0 67.0 L105.0 67.0 C106.0 67.0 107.0 68.0 107.0 69.0 L107.0 69.0 Z"></path>
<path fill="#884411" fill-opacity="1.0"  filling="0" d="M107.0 176.0 L107.0 199.0 L93.0 199.0 L93.0 176.0 C93.0 176.0 94.0 176.0 94.0 176.0 L105.0 176.0 C106.0 176.0 107.0 176.0 107.0 176.0 L107.0 176.0 Z"></path>
<path fill="#884411" fill-opacity="1.0"  filling="0" d="M107.0 176.0 L107.0 199.0 L100.0 199.0 L100.0 176.0 L105.0 176.0 C106.0 176.0 107.0 176.0 107.0 176.0 L107.0 176.0 Z"></path>
<path fill="#ffffff" fill-opacity="1.0"  filling="0" d="M10.0 10.0 L190.0 10.0 L190.0 138.0 L10.0 138.0 L10.0 10.0 L10.0 10.0 Z"></path>
<path fill="#eeeeff" fill-opacity="1.0"  filling="0" d="M100.0 10.0 L190.0 10.0 L190.0 138.0 L100.0 138.0 L100.0 10.0 L100.0 10.0 Z"></path>
<path fill="#eeeeff" fill-opacity="1.0"  filling="0" d="M60.0 43.0 L48.0 43.0 C47.0 43.0 45.0 42.0 45.0 40.0 C45.0 39.0 47.0 37.0 48.0 37.0 L60.0 37.0 C62.0 37.0 63.0 39.0 63.0 40.0 C63.0 42.0 62.0 43.0 60.0 43.0 L60.0 43.0 Z"></path>
<path fill="#eeeeff" fill-opacity="1.0"  filling="0" d="M60.0 43.0 L48.0 43.0 C47.0 43.0 45.0 42.0 45.0 40.0 C45.0 39.0 47.0 37.0 48.0 37.0 L60.0 37.0 C62.0 37.0 63.0 39.0 63.0 40.0 C63.0 42.0 62.0 43.0 60.0 43.0 L60.0 43.0 Z"></path>
<path fill="#eeeeff" fill-opacity="1.0"  filling="0" d="M60.0 43.0 L48.0 43.0 C47.0 43.0 45.0 42.0 45.0 40.0 C45.0 39.0 47.0 37.0 48.0 37.0 L60.0 37.0 C62.0 37.0 63.0 39.0 63.0 40.0 C63.0 42.0 62.0 43.0 60.0 43.0 L60.0 43.0 Z"></path>
<path fill="#ccddee" fill-opacity="1.0"  filling="0" d="M140.0 43.0 L152.0 43.0 C153.0 43.0 155.0 42.0 155.0 40.0 C155.0 39.0 153.0 37.0 152.0 37.0 L140.0 37.0 C138.0 37.0 137.0 39.0 137.0 40.0 C137.0 42.0 138.0 43.0 140.0 43.0 L140.0 43.0 Z"></path>
<path fill="#ccddee" fill-opacity="1.0"  filling="0" d="M140.0 43.0 L152.0 43.0 C153.0 43.0 155.0 42.0 155.0 40.0 C155.0 39.0 153.0 37.0 152.0 37.0 L140.0 37.0 C138.0 37.0 137.0 39.0 137.0 40.0 C137.0 42.0 138.0 43.0 140.0 43.0 L140.0 43.0 Z"></path>
<path fill="#eeeeff" fill-opacity="1.0"  filling="0" d="M60.0 43.0 L48.0 43.0 C47.0 43.0 45.0 42.0 45.0 40.0 C45.0 39.0 47.0 37.0 48.0 37.0 L60.0 37.0 C62.0 37.0 63.0 39.0 63.0 40.0 C63.0 42.0 62.0 43.0 60.0 43.0 L60.0 43.0 Z"></path>
<path fill="#eeeeff" fill-opacity="1.0"  filling="0" d="M60.0 43.0 L48.0 43.0 C47.0 43.0 45.0 42.0 45.0 40.0 C45.0 39.0 47.0 37.0 48.0 37.0 L60.0 37.0 C62.0 37.0 63.0 39.0 63.0 40.0 C63.0 42.0 62.0 43.0 60.0 43.0 L60.0 43.0 Z"></path>
<path fill="#ccddee" fill-opacity="1.0"  filling="0" d="M140.0 43.0 L152.0 43.0 C153.0 43.0 155.0 42.0 155.0 40.0 C155.0 39.0 153.0 37.0 152.0 37.0 L140.0 37.0 C138.0 37.0 137.0 39.0 137.0 40.0 C137.0 42.0 138.0 43.0 140.0 43.0 L140.0 43.0 Z"></path>
<path fill="#ccddee" fill-opacity="1.0"  filling="0" d="M140.0 43.0 L152.0 43.0 C153.0 43.0 155.0 42.0 155.0 40.0 C155.0 39.0 153.0 37.0 152.0 37.0 L140.0 37.0 C138.0 37.0 137.0 39.0 137.0 40.0 C137.0 42.0 138.0 43.0 140.0 43.0 L140.0 43.0 Z"></path>
<path fill="#eeeeff" fill-opacity="1.0"  filling="0" d="M60.0 43.0 L48.0 43.0 C47.0 43.0 45.0 42.0 45.0 40.0 C45.0 39.0 47.0 37.0 48.0 37.0 L60.0 37.0 C62.0 37.0 63.0 39.0 63.0 40.0 C63.0 42.0 62.0 43.0 60.0 43.0 L60.0 43.0 Z"></path>
<path fill="#eeeeff" fill-opacity="1.0"  filling="0" d="M60.0 43.0 L48.0 43.0 C47.0 43.0 45.0 42.0 45.0 40.0 C45.0 39.0 47.0 37.0 48.0 37.0 L60.0 37.0 C62.0 37.0 63.0 39.0 63.0 40.0 C63.0 42.0 62.0 43.0 60.0 43.0 L60.0 43.0 Z"></path>
<path fill="#ccddee" fill-opacity="1.0"  filling="0" d="M140.0 43.0 L152.0 43.0 C153.0 43.0 155.0 42.0 155.0 40.0 C155.0 39.0 153.0 37.0 152.0 37.0 L140.0 37.0 C138.0 37.0 137.0 39.0 137.0 40.0 C137.0 42.0 138.0 43.0 140.0 43.0 L140.0 43.0 Z"></path>
<path fill="#ccddee" fill-opacity="1.0"  filling="0" d="M140.0 43.0 L152.0 43.0 C153.0 43.0 155.0 42.0 155.0 40.0 C155.0 39.0 153.0 37.0 152.0 37.0 L140.0 37.0 C138.0 37.0 137.0 39.0 137.0 40.0 C137.0 42.0 138.0 43.0 140.0 43.0 L140.0 43.0 Z"></path>
<path fill="#eeeeff" fill-opacity="1.0"  filling="0" d="M60.0 43.0 L48.0 43.0 C47.0 43.0 45.0 42.0 45.0 40.0 C45.0 39.0 47.0 37.0 48.0 37.0 L60.0 37.0 C62.0 37.0 63.0 39.0 63.0 40.0 C63.0 42.0 62.0 43.0 60.0 43.0 L60.0 43.0 Z"></path>
<path fill="#eeeeff" fill-opacity="1.0"  filling="0" d="M60.0 43.0 L48.0 43.0 C47.0 43.0 45.0 42.0 45.0 40.0 C45.0 39.0 47.0 37.0 48.0 37.0 L60.0 37.0 C62.0 37.0 63.0 39.0 63.0 40.0 C63.0 42.0 62.0 43.0 60.0 43.0 L60.0 43.0 Z"></path>
<path fill="#ccddee" fill-opacity="1.0"  filling="0" d="M140.0 43.0 L152.0 43.0 C153.0 43.0 155.0 42.0 155.0 40.0 C155.0 39.0 153.0 37.0 152.0 37.0 L140.0 37.0 C138.0 37.0 137.0 39.0 137.0 40.0 C137.0 42.0 138.0 43.0 140.0 43.0 L140.0 43.0 Z"></path>
<path fill="#ccddee" fill-opacity="1.0"  filling="0" d="M140.0 43.0 L152.0 43.0 C153.0 43.0 155.0 42.0 155.0 40.0 C155.0 39.0 153.0 37.0 152.0 37.0 L140.0 37.0 C138.0 37.0 137.0 39.0 137.0 40.0 C137.0 42.0 138.0 43.0 140.0 43.0 L140.0 43.0 Z"></path>
<path fill="#eeeeff" fill-opacity="1.0"  filling="0" d="M60.0 43.0 L48.0 43.0 C47.0 43.0 45.0 42.0 45.0 40.0 C45.0 39.0 47.0 37.0 48.0 37.0 L60.0 37.0 C62.0 37.0 63.0 39.0 63.0 40.0 C63.0 42.0 62.0 43.0 60.0 43.0 L60.0 43.0 Z"></path>
<path fill="#eeeeff" fill-opacity="1.0"  filling="0" d="M60.0 43.0 L48.0 43.0 C47.0 43.0 45.0 42.0 45.0 40.0 C45.0 39.0 47.0 37.0 48.0 37.0 L60.0 37.0 C62.0 37.0 63.0 39.0 63.0 40.0 C63.0 42.0 62.0 43.0 60.0 43.0 L60.0 43.0 Z"></path>
<path fill="#ccddee" fill-opacity="1.0"  filling="0" d="M140.0 43.0 L152.0 43.0 C153.0 43.0 155.0 42.0 155.0 40.0 C155.0 39.0 153.0 37.0 152.0 37.0 L140.0 37.0 C138.0 37.0 137.0 39.0 137.0 40.0 C137.0 42.0 138.0 43.0 140.0 43.0 L140.0 43.0 Z"></path>
<path fill="#ccddee" fill-opacity="1.0"  filling="0" d="M140.0 43.0 L152.0 43.0 C153.0 43.0 155.0 42.0 155.0 40.0 C155.0 39.0 153.0 37.0 152.0 37.0 L140.0 37.0 C138.0 37.0 137.0 39.0 137.0 40.0 C137.0 42.0 138.0 43.0 140.0 43.0 L140.0 43.0 Z"></path>
<path fill="#eeeeff" fill-opacity="1.0"  filling="0" d="M60.0 43.0 L48.0 43.0 C47.0 43.0 45.0 42.0 45.0 40.0 C45.0 39.0 47.0 37.0 48.0 37.0 L60.0 37.0 C62.0 37.0 63.0 39.0 63.0 40.0 C63.0 42.0 62.0 43.0 60.0 43.0 L60.0 43.0 Z"></path>
<path fill="#eeeeff" fill-opacity="1.0"  filling="0" d="M60.0 43.0 L48.0 43.0 C47.0 43.0 45.0 42.0 45.0 40.0 C45.0 39.0 47.0 37.0 48.0 37.0 L60.0 37.0 C62.0 37.0 63.0 39.0 63.0 40.0 C63.0 42.0 62.0 43.0 60.0 43.0 L60.0 43.0 Z"></path>
<path fill="#ccddee" fill-opacity="1.0"  filling="0" d="M140.0 43.0 L152.0 43.0 C153.0 43.0 155.0 42.0 155.0 40.0 C155.0 39.0 153.0 37.0 152.0 37.0 L140.0 37.0 C138.0 37.0 137.0 39.0 137.0 40.0 C137.0 42.0 138.0 43.0 140.0 43.0 L140.0 43.0 Z"></path>
<path fill="#ccddee" fill-opacity="1.0"  filling="0" d="M140.0 43.0 L152.0 43.0 C153.0 43.0 155.0 42.0 155.0 40.0 C155.0 39.0 153.0 37.0 152.0 37.0 L140.0 37.0 C138.0 37.0 137.0 39.0 137.0 40.0 C137.0 42.0 138.0 43.0 140.0 43.0 L140.0 43.0 Z"></path>
<path fill="#eeeeff" fill-opacity="1.0"  filling="0" d="M60.0 43.0 L48.0 43.0 C47.0 43.0 45.0 42.0 45.0 40.0 C45.0 39.0 47.0 37.0 48.0 37.0 L60.0 37.0 C62.0 37.0 63.0 39.0 63.0 40.0 C63.0 42.0 62.0 43.0 60.0 43.0 L60.0 43.0 Z"></path>
<path fill="#eeeeff" fill-opacity="1.0"  filling="0" d="M60.0 43.0 L48.0 43.0 C47.0 43.0 45.0 42.0 45.0 40.0 C45.0 39.0 47.0 37.0 48.0 37.0 L60.0 37.0 C62.0 37.0 63.0 39.0 63.0 40.0 C63.0 42.0 62.0 43.0 60.0 43.0 L60.0 43.0 Z"></path>
<path fill="#ccddee" fill-opacity="1.0"  filling="0" d="M140.0 43.0 L152.0 43.0 C153.0 43.0 155.0 42.0 155.0 40.0 C155.0 39.0 153.0 37.0 152.0 37.0 L140.0 37.0 C138.0 37.0 137.0 39.0 137.0 40.0 C137.0 42.0 138.0 43.0 140.0 43.0 L140.0 43.0 Z"></path>
<path fill="#ccddee" fill-opacity="1.0"  filling="0" d="M140.0 43.0 L152.0 43.0 C153.0 43.0 155.0 42.0 155.0 40.0 C155.0 39.0 153.0 37.0 152.0 37.0 L140.0 37.0 C138.0 37.0 137.0 39.0 137.0 40.0 C137.0 42.0 138.0 43.0 140.0 43.0 L140.0 43.0 Z"></path>
<path fill="#eeeeff" fill-opacity="1.0"  filling="0" d="M60.0 43.0 L48.0 43.0 C47.0 43.0 45.0 42.0 45.0 40.0 C45.0 39.0 47.0 37.0 48.0 37.0 L60.0 37.0 C62.0 37.0 63.0 39.0 63.0 40.0 C63.0 42.0 62.0 43.0 60.0 43.0 L60.0 43.0 Z"></path>
<path fill="#eeeeff" fill-opacity="1.0"  filling="0" d="M60.0 43.0 L48.0 43.0 C47.0 43.0 45.0 42.0 45.0 40.0 C45.0 39.0 47.0 37.0 48.0 37.0 L60.0 37.0 C62.0 37.0 63.0 39.0 63.0 40.0 C63.0 42.0 62.0 43.0 60.0 43.0 L60.0 43.0 Z"></path>
<path fill="#ccddee" fill-opacity="1.0"  filling="0" d="M140.0 43.0 L152.0 43.0 C153.0 43.0 155.0 42.0 155.0 40.0 C155.0 39.0 153.0 37.0 152.0 37.0 L140.0 37.0 C138.0 37.0 137.0 39.0 137.0 40.0 C137.0 42.0 138.0 43.0 140.0 43.0 L140.0 43.0 Z"></path>
<path fill="#ccddee" fill-opacity="1.0"  filling="0" d="M140.0 43.0 L152.0 43.0 C153.0 43.0 155.0 42.0 155.0 40.0 C155.0 39.0 153.0 37.0 152.0 37.0 L140.0 37.0 C138.0 37.0 137.0 39.0 137.0 40.0 C137.0 42.0 138.0 43.0 140.0 43.0 L140.0 43.0 Z"></path>
<path fill="#eeeeff" fill-opacity="1.0"  filling="0" d="M60.0 43.0 L48.0 43.0 C47.0 43.0 45.0 42.0 45.0 40.0 C45.0 39.0 47.0 37.0 48.0 37.0 L60.0 37.0 C62.0 37.0 63.0 39.0 63.0 40.0 C63.0 42.0 62.0 43.0 60.0 43.0 L60.0 43.0 Z"></path>
<path fill="#eeeeff" fill-opacity="1.0"  filling="0" d="M60.0 43.0 L48.0 43.0 C47.0 43.0 45.0 42.0 45.0 40.0 C45.0 39.0 47.0 37.0 48.0 37.0 L60.0 37.0 C62.0 37.0 63.0 39.0 63.0 40.0 C63.0 42.0 62.0 43.0 60.0 43.0 L60.0 43.0 Z"></path>
<path fill="#ccddee" fill-opacity="1.0"  filling="0" d="M140.0 43.0 L152.0 43.0 C153.0 43.0 155.0 42.0 155.0 40.0 C155.0 39.0 153.0 37.0 152.0 37.0 L140.0 37.0 C138.0 37.0 137.0 39.0 137.0 40.0 C137.0 42.0 138.0 43.0 140.0 43.0 L140.0 43.0 Z"></path>
<path fill="#ccddee" fill-opacity="1.0"  filling="0" d="M140.0 43.0 L152.0 43.0 C153.0 43.0 155.0 42.0 155.0 40.0 C155.0 39.0 153.0 37.0 152.0 37.0 L140.0 37.0 C138.0 37.0 137.0 39.0 137.0 40.0 C137.0 42.0 138.0 43.0 140.0 43.0 L140.0 43.0 Z"></path>
<path fill="#eeeeff" fill-opacity="1.0"  filling="0" d="M60.0 43.0 L48.0 43.0 C47.0 43.0 45.0 42.0 45.0 40.0 C45.0 39.0 47.0 37.0 48.0 37.0 L60.0 37.0 C62.0 37.0 63.0 39.0 63.0 40.0 C63.0 42.0 62.0 43.0 60.0 43.0 L60.0 43.0 Z"></path>
<path fill="#000000" fill-opacity="1.0"  filling="0" d="M60.0 43.0 L48.0 43.0"></path></svg>