<svg xmlns="http://www.w3.org/2000/svg" viewBox="0.0 0.0 200.0 200.0" height="200px" width="200px"><path fill="#bb5522" fill-opacity="1.0"  filling="0" d="M107.0 69.0 L107.0 176.0 C107.0 177.0 106.0 178.0 105.0 178.0 L95.0 178.0 C94.0 178.0 93.0 177.0 93.0 176.0 L93.0 69.0 C93.0 68.0 94.0 67.0 95.0 67.0 L105.0 67.0 C106.0 67.0 107.0 68.0 107.0 69.0 L107.0 69.0 Z"></path>
<path fill="#884411" fill-opacity="1.0"  filling="0" d="M107.0 69.0 L107.0 176.0 C107.0 177.0 106.0 178.0 105.0 178.0 L100.0 178.0 L100.0 67.0 L105.0 67.0 C106.0 67.0 107.0 68.0 107.0 69.0 L107.0 69.0 Z"></path>
<path fill="#bb5522" fill-opacity="1.0"  filling="0" d="M124.0 58.0 L124.0 142.0 C124.0 143.0 123.0 143.0 122.0 143.0 L113.0 143.0 C112.0 143.0 111.0 143.0 111.0 142.0 L111.0 58.0 C111.0 57.0 112.0 57.0 113.0 57.0 L122.0 57.0 C123.0 57.0 124.0 57.0 124.0 58.0 L124.0 58.0 Z"></path>
<path fill="#884411" fill-opacity="1.0"  filling="0" d="M124.0 58.0 L124.0 142.0 C124.0 143.0 123.0 143.0 122.0 143.0 L118.0 143.0 L118.0 57.0 L122.0 57.0 C123.0 57.0 124.0 57.0 124.0 58.0 L124.0 58.0 Z"></path>
<path fill="#bb5522" fill-opacity="1.0"  filling="0" d="M89.0 58.0 L89.0 142.0 C89.0 143.0 88.0 143.0 87.0 143.0 L78.0 143.0 C77.0 143.0 76.0 143.0 76.0 142.0 L76.0 58.0 C76.0 57.0 77.0 57.0 78.0 57.0 L87.0 57.0 C88.0 57.0 89.0 57.0 89.0 58.0 L89.0 58.0 Z"></path>
<path fill="#884411" fill-opacity="1.0"  filling="0" d="M89.0 58.0 L89.0 142.0 C89.0 143.0 88.0 143.0 87.0 143.0 L82.0 143.0 L82.0 57.0 L87.0 57.0 C88.0 57.0 89.0 57.0 89.0 58.0 L89.0 58.0 Z"></path>
<path fill="#bb5522" fill-opacity="1.0"  filling="0" d="M124.0 77.0 L124.0 123.0 C124.0 124.0 123.0 124.0 122.0 124.0 L113.0 124.0 C112.0 124.0 111.0 124.0 111.0 123.0 L111.0 77.0 C111.0 76.0 112.0 76.0 113.0 76.0 L122.0 76.0 C123.0 76.0 124.0 76.0 124.0 77.0 L124.0 77.0 Z"></path>
<path fill="#884411" fill-opacity="1.0"  filling="0" d="M124.0 77.0 L124.0 123.0 C124.0 124.0 123.0 124.0 122.0 124.0 L118.0 124.0 L118.0 76.0 L122.0 76.0 C123.0 76.0 124.0 76.0 124.0 77.0 L124.0 77.0 Z"></path>
<path fill="#bb5522" fill-opacity="1.0"  filling="0" d="M89.0 77.0 L89.0 123.0 C89.0 124.0 88.0 124.0 87.0 124.0 L78.0 124.0 C77.0 124.0 76.0 124.0 76.0 123.0 L76.0 77.0 C76.0 76.0 77.0 76.0 78.0 76.0 L87.0 76.0 C88.0 76.0 89.0 76.0 89.0 77.0 L89.0 77.0 Z"></path>
<path fill="#884411" fill-opacity="1.0"  filling="0" d="M89.0 77.0 L89.0 123.0 C89.0 124.0 88.0 124.0 87.0 124.0 L82.0 124.0 L82.0 76.0 L87.0 76.0 C88.0 76.0 89.0 76.0 89.0 77.0 L89.0 77.0 Z"></path>
<path fill="#884411" fill-opacity="1.0"  filling="0" d="M76.0 58.0 L76.0 58.0 C76.0 57.0 77.0 57.0 78.0 57.0 L87.0 57.0 C88.0 57.0 89.0 57.0 89.0 58.0 L89.0 58.0 L76.0 58.0 L76.0 58.0 Z"></path>
<path fill="#884411" fill-opacity="1.0"  filling="0" d="M111.0 58.0 L111.0 58.0 C111.0 57.0 112.0 57.0 113.0 57.0 L122.0 57.0 C123.0 57.0 124.0 57.0 124.0 58.0 L124.0 58.0 L111.0 58.0 L111.0 58.0 Z"></path>
<path fill="#884411" fill-opacity="1.0"  filling="0" d="M76.0 123.0 L76.0 123.0 C76.0 124.0 77.0 124.0 78.0 124.0 L87.0 124.0 C88.0 124.0 89.0 124.0 89.0 123.0 L89.0 123.0 L76.0 123.0 L76.0 123.0 Z"></path>
<path fill="#884411" fill-opacity="1.0"  filling="0" d="M111.0 123.0 L111.0 123.0 C111.0 124.0 112.0 124.0 113.0 124.0 L122.0 124.0 C123.0 124.0 124.0 124.0 124.0 123.0 L124.0 123.0 L111.0 123.0 L111.0 123.0 Z"></path>
<path fill="#884411" fill-opacity="1.0"  filling="0" d="M124.0 58.0 L124.0 142.0 C124.0 143.0 123.0 143.0 122.0 143.0 L113.0 143.0 C112.0 143.0 111.0 143.0 111.0 142.0 L111.0 58.0 C111.0 57.0 112.0 57.0 113.0 57.0 L122.0 57.0 C123.0 57.0 124.0 57.0 124.0 58.0 L124.0 58.0 Z"></path>
<path fill="#884411" fill-opacity="1.0"  filling="0" d="M124.0 58.0 L124.0 142.0 C124.0 143.0 123.0 143.0 122.0 143.0 L118.0 143.0 L118.0 57.0 L122.0 57.0 C123.0 57.0 124.0 57.0 124.0 58.0 L124.0 58.0 Z"></path>
<path fill="#884411" fill-opacity="1.0"  filling="0" d="M89.0 77.0 L89.0 123.0 C89.0 124.0 88.0 124.0 87.0 124.0 L82.0 124.0 L82.0 76.0 L87.0 76.0 C88.0 76.0 89.0 76.0 89.0 77.0 L89.0 77.0 Z"></path>
<path fill="#884411" fill-opacity="1.0"  filling="0" d="M124.0 123.0 L124.0 123.0 C124.0 124.0 123.0 124.0 122.0 124.0 L118.0 124.0 L118.0 76.0 L122.0 76.0 C123.0 76.0 124.0 76.0 124.0 77.0 L124.0 77.0 L124.0 123.0 L124.0 123.0 Z"></path>
<path fill="#884411" fill-opacity="1.0"  filling="0" d="M153.0 89.0 L47.0 89.0 C46.0 89.0 45.0 88.0 45.0 87.0 L45.0 79.0 C45.0 78.0 46.0 77.0 47.0 77.0 L153.0 77.0 C154.0 77.0 155.0 78.0 155.0 79.0 L155.0 87.0 C155.0 88.0 154.0 89.0 153.0 89.0 L153.0 89.0 Z"></path>
<path fill="#884411" fill-opacity="1.0"  filling="0" d="M153.0 89.0 L47.0 89.0 C46.0 89.0 45.0 88.0 45.0 87.0 L45.0 83.0 L155.0 83.0 L155.0 87.0 C155.0 88.0 154.0 89.0 153.0 89.0 L153.0 89.0 Z"></path>
<path fill="#884411" fill-opacity="1.0"  filling="0" d="M155.0 83.0 L155.0 83.0 L153.0 83.0 L153.0 83.0 L155.0 83.0 L155.0 83.0 Z"></path>
<path fill="#884411" fill-opacity="1.0"  filling="0" d="M45.0 83.0 L45.0 83.0 L47.0 83.0 L47.0 83.0 L45.0 83.0 L45.0 83.0 Z"></path>
<path fill="#884411" fill-opacity="1.0"  filling="0" d="M155.0 83.0 L155.0 88.0 C155.0 89.0 154.0 89.0 153.0 89.0 L47.0 89.0 C46.0 89.0 45.0 89.0 45.0 88.0 L45.0 83.0 L155.0 83.0 L155.0 83.0 Z"></path>
<path fill="#884411" fill-opacity="1.0"  filling="0" d="M155.0 83.0 L155.0 88.0 C155.0 89.0 154.0 89.0 153.0 89.0 L47.0 89.0 C46.0 89.0 45.0 89.0 45.0 88.0 L45.0 83.0 L155.0 83.0 L155.0 83.0 Z"></path>
<path fill="#00aa99" fill-opacity="1.0"  filling="0" d="M68.0 68.0 L68.0 68.0 C63.0 68.0 59.0 64.0 59.0 59.0 L59.0 45.0 C59.0 40.0 63.0 36.0 68.0 36.0 L68.0 36.0 C74.0 36.0 78.0 40.0 78.0 45.0 L78.0 59.0 C78.0 64.0 74.0 68.0 68.0 68.0 L68.0 68.0 Z"></path>
<path fill="#00aa99" fill-opacity="1.0"  filling="0" d="M68.0 68.0 L68.0 68.0 C63.0 68.0 59.0 64.0 59.0 59.0 L59.0 45.0 C59.0 40.0 63.0 36.0 68.0 36.0 L68.0 36.0 C74.0 36.0 78.0 40.0 78.0 45.0 L78.0 59.0 C78.0 64.0 74.0 68.0 68.0 68.0 L68.0 68.0 Z"></path>
<path fill="#00aa99" fill-opacity="1.0"  filling="0" d="M68.0 68.0 L68.0 68.0 C63.0 68.0 59.0 64.0 59.0 59.0 L59.0 45.0 C59.0 40.0 63.0 36.0 68.0 36.0 L68.0 36.0 C74.0 36.0 78.0 40.0 78.0 45.0 L78.0 59.0 C78.0 64.0 74.0 68.0 68.0 68.0 L68.0 68.0 Z"></path>
<path fill="#00aa99" fill-opacity="1.0"  filling="0" d="M68.0 68.0 L68.0 68.0 C63.0 68.0 59.0 64.0 59.0 59.0 L59.0 45.0 C59.0 40.0 63.0 36.0 68.0 36.0 L68.0 36.0 C74.0 36.0 78.0 40.0 78.0 45.0 L78.0 59.0 C78.0 64.0 74.0 68.0 68.0 68.0 L68.0 68.0 Z"></path>
<path fill="#00aa99" fill-opacity="1.0"  filling="0" d="M68.0 68.0 L68.0 68.0 C63.0 68.0 59.0 64.0 59.0 59.0 L59.0 45.0 C59.0 40.0 63.0 36.0 68.0 36.0 L68.0 36.0 C74.0 36.0 78.0 40.0 78.0 45.0 L78.0 59.0 C78.0 64.0 74.0 68.0 68.0 68.0 L68.0 68.0 Z"></path>
<path fill="#00aa99" fill-opacity="1.0"  filling="0" d="M68.0 68.0 L68.0 68.0 C63.0 68.0 59.0 64.0 59.0 59.0 L59.0 45.0 C59.0 40.0 63.0 36.0 68.0 36.0 L68.0 36.0 C74.0 36.0 78.0 40.0 78.0 45.0 L78.0 59.0 C78.0 64.0 74.0 68.0 68.0 68.0 L68.0 68.0 Z"></path>
<path fill="#00aa99" fill-opacity="1.0"  filling="0" d="M68.0 68.0 L68.0 68.0 C63.0 68.0 59.0 64.0 59.0 59.0 L59.0 45.0 C59.0 40.0 63.0 36.0 68.0 36.0 L68.0 36.0 C74.0 36.0 78.0 40.0 78.0 45.0 L78.0 59.0 C78.0 64.0 74.0 68.0 68.0 68.0 L68.0 68.0 Z"></path>
<path fill="#00aa99" fill-opacity="1.0"  filling="0" d="M68.0 68.0 L68.0 68.0 C63.0 68.0 59.0 64.0 59.0 59.0 L59.0 45.0 C59.0 40.0 63.0 36.0 68.0 36.0 L68.0 36.0 C74.0 36.0 78.0 40.0 78.0 45.0 L78.0 59.0 C78.0 64.0 74.0 68.0 68.0 68.0 L68.0 68.0 Z"></path>
<path fill="#00aa99" fill-opacity="1.0"  filling="0" d="M68.0 68.0 L68.0 68.0 C63.0 68.0 59.0 64.0 59.0 59.0 L59.0 45.0 C59.0 40.0 63.0 36.0 68.0 36.0 L68.0 36.0 C74.0 36.0 78.0 40.0 78.0 45.0 L78.0 59.0 C78.0 64.0 74.0 68.0 68.0 68.0 L68.0 68.0 Z"></path>
<path fill="#00dd66" fill-opacity="1.0"  filling="0" d="M68.0 68.0 L68.0 68.0 C63.0 68.0 59.0 64.0 59.0 59.0 L59.0 45.0 C59.0 40.0 63.0 36.0 68.0 36.0 L68.0 36.0 C74.0 36.0 78.0 40.0 78.0 45.0 L78.0 59.0 C78.0 64.0 74.0 68.0 68.0 68.0 L68.0 68.0 Z"></path>
<path fill="#00dd66" fill-opacity="1.0"  filling="0" d="M68.0 68.0 L68.0 68.0 C63.0 68.0 59.0 64.0 59.0 59.0 L59.0 45.0 C59.0 40.0 63.0 36.0 68.0 36.0 L68.0 36.0 C74.0 36.0 78.0 40.0 78.0 45.0 L78.0 59.0 C78.0 64.0 74.0 68.0 68.0 68.0 L68.0 68.0 Z"></path>
<path fill="#00dd66" fill-opacity="1.0"  filling="0" d="M68.0 68.0 L68.0 68.0 C63.0 68.0 59.0 64.0 59.0 59.0 L59.0 45.0 C59.0 40.0 63.0 36.0 68.0 36.0 L68.0 36.0 C74.0 36.0 78.0 40.0 78.0 45.0 L78.0 59.0 C78.0 64.0 74.0 68.0 68.0 68.0 L68.0 68.0 Z"></path>
<path fill="#00dd66" fill-opacity="1.0"  filling="0" d="M68.0 68.0 L68.0 68.0 C63.0 68.0 59.0 64.0 59.0 59.0 L59.0 45.0 C59.0 40.0 63.0 36.0 68.0 36.0 L68.0 36.0 C74.0 36.0 78.0 40.0 78.0 45.0 L78.0 59.0 C78.0 64.0 74.0 68.0 68.0 68.0 L68.0 68.0 Z"></path>
<path fill="#00dd66" fill-opacity="1.0"  filling="0" d="M68.0 68.0 L68.0 68.0 C63.0 68.0 59.0 64.0 59.0 59.0 L59.0 45.0 C59.0 40.0 63.0 36.0 68.0 36.0 L68.0 36.0 C74.0 36.0 78.0 40.0 78.0 45.0 L78.0 59.0 C78.0 64.0 74.0 68.0 68.0 68.0 L68.0 68.0 Z"></path>
<path fill="#99ee77" fill-opacity="1.0"  filling="0" d="M68.0 68.0 L68.0 68.0 C63.0 68.0 59.0 64.0 59.0 59.0 L59.0 45.0 C59.0 40.0 63.0 36.0 68.0 36.0 L68.0 36.0 C74.0 36.0 78.0 40.0 78.0 45.0 L78.0 59.0 C78.0 64.0 74.0 68.0 68.0 68.0 L68.0 68.0 Z"></path>
<path fill="#99ee77" fill-opacity="1.0"  filling="0" d="M68.0 68.0 L68.0 68.0 C63.0 68.0 59.0 64.0 59.0 59.0 L59.0 45.0 C59.0 40.0 63.0 36.0 68.0 36.0 L68.0 36.0 C74.0 36.0 78.0 40.0 78.0 45.0 L78.0 59.0 C78.0 64.0 74.0 68.0 68.0 68.0 L68.0 68.0 Z"></path>
<path fill="#99ee77" fill-opacity="1.0"  filling="0" d="M68.0 68.0 L68.0 68.0 C63.0 68.0 59.0 64.0 59.0 59.0 L59.0 45.0 C59.0 40.0 63.0 36.0 68.0 36.0 L68.0 36.0 C74.0 36.0 78.0 40.0 78.0 45.0 L78.0 59.0 C78.0 64.0 74.0 68.0 68.0 68.0 L68.0 68.0 Z"></path>
<path fill="#99ee77" fill-opacity="1.0"  filling="0" d="M68.0 68.0 L68.0 68.0 C63.0 68.0 59.0 64.0 59.0 59.0 L59.0 45.0 C59.0 40.0 63.0 36.0 68.0 36.0 L68.0 36.0 C74.0 36.0 78.0 40.0 78.0 45.0 L78.0 59.0 C78.0 64.0 74.0 68.0 68.0 68.0 L68.0 68.0 Z"></path>
<path fill="#99ee77" fill-opacity="1.0"  filling="0" d="M68.0 68.0 L68.0 68.0 C63.0 68.0 59.0 64.0 59.0 59.0 L59.0 45.0 C59.0 40.0 63.0 36.0 68.0 36.0 L68.0 36.0 C74.0 36.0 78.0 40.0 78.0 45.0 L78.0 59.0 C78.0 64.0 74.0 68.0 68.0 68.0 L68.0 68.0 Z"></path>
<path fill="#99ee77" fill-opacity="1.0"  filling="0" d="M68.0 68.0 L68.0 68.0 C63.0 68.0 59.0 64.0 59.0 59.0 L59.0 45.0 C59.0 40.0 63.0 36.0 68.0 36.0 L68.0 36.0 C74.0 36.0 78.0 40.0 78.0 45.0 L78.0 59.0 C78.0 64.0 74.0 68.0 68.0 68.0 L68.0 68.0 Z"></path>
<path fill="#99ee77" fill-opacity="1.0"  filling="0" d="M68.0 68.0 L68.0 68.0 C63.0 68.0 59.0 64.0 59.0 59.0 L59.0 45.0 C59.0 40.0 63.0 36.0 68.0 36.0 L68.0 36.0 C74.0 36.0 78.0 40.0 78.0 45.0 L78.0 59.0 C78.0 64.0 74.0 68.0 68.0 68.0 L68.0 68.0 Z"></path>
<path fill="#000000" fill-opacity="1.0"  filling="0" d="M68.0 68.0 L68.0 68.0 C63.0 68.0 59.0 64.0 59.0 59.0 L59.0 45.0 C59.0 40.0 63.0 36.0 68.0 36.0"></path></svg>