<svg xmlns="http://www.w3.org/2000/svg" viewBox="0.0 0.0 200.0 200.0" height="200px" width="200px"><path fill="#aa5522" fill-opacity="1.0"  filling="0" d="M107.0 69.0 L107.0 176.0 C107.0 177.0 106.0 178.0 105.0 178.0 L95.0 178.0 C94.0 178.0 93.0 177.0 93.0 176.0 L93.0 69.0 C93.0 68.0 94.0 67.0 95.0 67.0 L105.0 67.0 C106.0 67.0 107.0 68.0 107.0 69.0 L107.0 69.0 Z"></path>
<path fill="#994411" fill-opacity="1.0"  filling="0" d="M107.0 69.0 L107.0 176.0 C107.0 177.0 106.0 178.0 105.0 178.0 L100.0 178.0 L100.0 67.0 L105.0 67.0 C106.0 67.0 107.0 68.0 107.0 69.0 L107.0 69.0 Z"></path>
<path fill="#aa5522" fill-opacity="1.0"  filling="0" d="M134.0 140.0 L134.0 176.0 C134.0 177.0 133.0 178.0 132.0 178.0 L124.0 178.0 C123.0 178.0 121.0 177.0 121.0 176.0 L121.0 140.0 C121.0 139.0 123.0 138.0 124.0 138.0 L132.0 138.0 C133.0 138.0 134.0 139.0 134.0 140.0 L134.0 140.0 Z"></path>
<path fill="#994411" fill-opacity="1.0"  filling="0" d="M134.0 140.0 L134.0 176.0 C134.0 177.0 133.0 178.0 132.0 178.0 L126.0 178.0 L126.0 138.0 L132.0 138.0 C133.0 138.0 134.0 139.0 134.0 140.0 L134.0 140.0 Z"></path>
<path fill="#aa5522" fill-opacity="1.0"  filling="0" d="M166.0 140.0 L166.0 176.0 C166.0 177.0 165.0 178.0 164.0 178.0 L156.0 178.0 C155.0 178.0 154.0 177.0 154.0 176.0 L154.0 140.0 C154.0 139.0 155.0 138.0 156.0 138.0 L164.0 138.0 C165.0 138.0 166.0 139.0 166.0 140.0 L166.0 140.0 Z"></path>
<path fill="#994411" fill-opacity="1.0"  filling="0" d="M166.0 140.0 L166.0 176.0 C166.0 177.0 165.0 178.0 164.0 178.0 L158.0 178.0 L158.0 138.0 L164.0 138.0 C165.0 138.0 166.0 139.0 166.0 140.0 L166.0 140.0 Z"></path>
<path fill="#aa5522" fill-opacity="1.0"  filling="0" d="M79.0 140.0 L79.0 176.0 C79.0 177.0 77.0 178.0 76.0 178.0 L68.0 178.0 C67.0 178.0 66.0 177.0 66.0 176.0 L66.0 140.0 C66.0 139.0 67.0 138.0 68.0 138.0 L76.0 138.0 C77.0 138.0 79.0 139.0 79.0 140.0 L79.0 140.0 Z"></path>
<path fill="#994411" fill-opacity="1.0"  filling="0" d="M79.0 140.0 L79.0 176.0 C79.0 177.0 77.0 178.0 76.0 178.0 L70.0 178.0 L70.0 138.0 L76.0 138.0 C77.0 138.0 79.0 139.0 79.0 140.0 L79.0 140.0 Z"></path>
<path fill="#aa5522" fill-opacity="1.0"  filling="0" d="M46.0 140.0 L46.0 176.0 C46.0 177.0 45.0 178.0 44.0 178.0 L36.0 178.0 C35.0 178.0 34.0 177.0 34.0 176.0 L34.0 140.0 C34.0 139.0 35.0 138.0 36.0 138.0 L44.0 138.0 C45.0 138.0 46.0 139.0 46.0 140.0 L46.0 140.0 Z"></path>
<path fill="#994411" fill-opacity="1.0"  filling="0" d="M46.0 140.0 L46.0 176.0 C46.0 177.0 45.0 178.0 44.0 178.0 L39.0 178.0 L39.0 138.0 L44.0 138.0 C45.0 138.0 46.0 139.0 46.0 140.0 L46.0 140.0 Z"></path>
<path fill="#aa5522" fill-opacity="1.0"  filling="0" d="M100.0 87.0 C89.0 87.0 79.0 97.0 79.0 109.0 L79.0 120.0 C79.0 122.0 80.0 123.0 81.0 123.0 L119.0 123.0 C120.0 123.0 121.0 122.0 121.0 120.0 L121.0 109.0 C121.0 97.0 111.0 87.0 100.0 87.0 L100.0 87.0 Z"></path>
<path fill="#994411" fill-opacity="1.0"  filling="0" d="M121.0 109.0 L121.0 120.0 C121.0 122.0 120.0 123.0 119.0 123.0 L100.0 123.0 L100.0 87.0 C111.0 87.0 121.0 97.0 121.0 109.0 L121.0 109.0 Z"></path>
<path fill="#aa5522" fill-opacity="1.0"  filling="0" d="M100.0 87.0 C89.0 87.0 79.0 97.0 79.0 109.0 L79.0 120.0 C79.0 122.0 80.0 123.0 81.0 123.0 L119.0 123.0 C120.0 123.0 121.0 122.0 121.0 120.0 L121.0 109.0 C121.0 97.0 111.0 87.0 100.0 87.0 L100.0 87.0 Z M100.0 113.0 C94.0 113.0 90.0 109.0 90.0 103.0 C90.0 98.0 94.0 93.0 100.0 93.0 C106.0 93.0 110.0 98.0 110.0 103.0 C110.0 109.0 106.0 113.0 100.0 113.0 L100.0 113.0 Z"></path>
<path fill="#994411" fill-opacity="1.0"  filling="0" d="M121.0 109.0 L121.0 120.0 C121.0 122.0 120.0 123.0 119.0 123.0 L100.0 123.0 L100.0 113.0 C106.0 113.0 110.0 109.0 110.0 103.0 C110.0 98.0 106.0 93.0 100.0 93.0 L100.0 87.0 C111.0 87.0 121.0 97.0 121.0 109.0 L121.0 109.0 Z"></path>
<path fill="#aa5522" fill-opacity="1.0"  filling="0" d="M33.0 101.0 L100.0 101.0 C101.0 101.0 102.0 102.0 102.0 103.0 L102.0 112.0 C102.0 113.0 101.0 114.0 100.0 114.0 L33.0 114.0 C32.0 114.0 31.0 113.0 31.0 112.0 L31.0 103.0 C31.0 102.0 32.0 101.0 33.0 101.0 L33.0 101.0 Z"></path>
<path fill="#994411" fill-opacity="1.0"  filling="0" d="M100.0 101.0 L100.0 101.0 L100.0 114.0 L100.0 114.0 C101.0 114.0 102.0 113.0 102.0 112.0 L102.0 103.0 C102.0 102.0 101.0 101.0 100.0 101.0 L100.0 101.0 Z"></path>
<path fill="#ffdd77" fill-opacity="1.0"  filling="0" d="M100.0 101.0 L33.0 101.0 C32.0 101.0 31.0 102.0 31.0 103.0 L31.0 108.0 L102.0 108.0 L102.0 103.0 C102.0 102.0 101.0 101.0 100.0 101.0 L100.0 101.0 Z M100.0 101.0 L33.0 101.0 C32.0 101.0 31.0 102.0 31.0 103.0 L31.0 104.0 L102.0 104.0 L102.0 103.0 C102.0 102.0 101.0 101.0 100.0 101.0 L100.0 101.0 Z"></path>
<path fill="#ffbb33" fill-opacity="1.0"  filling="0" d="M100.0 101.0 L33.0 101.0 C32.0 101.0 31.0 102.0 31.0 103.0 L31.0 104.0 L102.0 104.0 L102.0 103.0 C102.0 102.0 101.0 101.0 100.0 101.0 L100.0 101.0 Z"></path>
<path fill="#ffcc66" fill-opacity="1.0"  filling="0" d="M100.0 101.0 L33.0 101.0 C32.0 101.0 31.0 102.0 31.0 103.0 L31.0 104.0 L102.0 104.0 L102.0 103.0 C102.0 102.0 101.0 101.0 100.0 101.0 L100.0 101.0 Z"></path>
<path fill="#ffbb33" fill-opacity="1.0"  filling="0" d="M100.0 101.0 L33.0 101.0 C32.0 101.0 31.0 102.0 31.0 103.0 L31.0 104.0 L102.0 104.0 L102.0 103.0 C102.0 102.0 101.0 101.0 100.0 101.0 L100.0 101.0 Z"></path>
<path fill="#ffcc66" fill-opacity="1.0"  filling="0" d="M100.0 101.0 L33.0 101.0 C32.0 101.0 31.0 102.0 31.0 103.0 L31.0 104.0 L102.0 104.0 L102.0 103.0 C102.0 102.0 101.0 101.0 100.0 101.0 L100.0 101.0 Z"></path>
<path fill="#ffbb33" fill-opacity="1.0"  filling="0" d="M100.0 101.0 L33.0 101.0 C32.0 101.0 31.0 102.0 31.0 103.0 L31.0 104.0 L102.0 104.0 L102.0 103.0 C102.0 102.0 101.0 101.0 100.0 101.0 L100.0 101.0 Z"></path>
<path fill="#ffcc66" fill-opacity="1.0"  filling="0" d="M100.0 101.0 L33.0 101.0 C32.0 101.0 31.0 102.0 31.0 103.0 L31.0 104.0 L102.0 104.0 L102.0 103.0 C102.0 102.0 101.0 101.0 100.0 101.0 L100.0 101.0 Z"></path>
<path fill="#ffbb33" fill-opacity="1.0"  filling="0" d="M100.0 101.0 L33.0 101.0 C32.0 101.0 31.0 102.0 31.0 103.0 L31.0 104.0 L102.0 104.0 L102.0 103.0 C102.0 102.0 101.0 101.0 100.0 101.0 L100.0 101.0 Z"></path>
<path fill="#ffcc66" fill-opacity="1.0"  filling="0" d="M100.0 101.0 L33.0 101.0 C32.0 101.0 31.0 102.0 31.0 103.0 L31.0 104.0 L102.0 104.0 L102.0 103.0 C102.0 102.0 101.0 101.0 100.0 101.0 L100.0 101.0 Z"></path>
<path fill="#ffbb33" fill-opacity="1.0"  filling="0" d="M100.0 101.0 L33.0 101.0 C32.0 101.0 31.0 102.0 31.0 103.0 L31.0 104.0 L102.0 104.0 L102.0 103.0 C102.0 102.0 101.0 101.0 100.0 101.0 L100.0 101.0 Z"></path>
<path fill="#ffcc66" fill-opacity="1.0"  filling="0" d="M100.0 101.0 L33.0 101.0 C32.0 101.0 31.0 102.0 31.0 103.0 L31.0 104.0 L102.0 104.0 L102.0 103.0 C102.0 102.0 101.0 101.0 100.0 101.0 L100.0 101.0 Z"></path>
<path fill="#ffbb33" fill-opacity="1.0"  filling="0" d="M100.0 101.0 L33.0 101.0 C32.0 101.0 31.0 102.0 31.0 103.0 L31.0 104.0 L102.0 104.0 L102.0 103.0 C102.0 102.0 101.0 101.0 100.0 101.0 L100.0 101.0 Z"></path>
<path fill="#ffcc66" fill-opacity="1.0"  filling="0" d="M100.0 101.0 L33.0 101.0 C32.0 101.0 31.0 102.0 31.0 103.0 L31.0 104.0 L102.0 104.0 L102.0 103.0 C102.0 102.0 101.0 101.0 100.0 101.0 L100.0 101.0 Z"></path>
<path fill="#ffbb33" fill-opacity="1.0"  filling="0" d="M100.0 101.0 L33.0 101.0 C32.0 101.0 31.0 102.0 31.0 103.0 L31.0 104.0 L102.0 104.0 L102.0 103.0 C102.0 102.0 101.0 101.0 100.0 101.0 L100.0 101.0 Z"></path>
<path fill="#ffcc66" fill-opacity="1.0"  filling="0" d="M100.0 101.0 L33.0 101.0 C32.0 101.0 31.0 102.0 31.0 103.0 L31.0 104.0 L102.0 104.0 L102.0 103.0 C102.0 102.0 101.0 101.0 100.0 101.0 L100.0 101.0 Z"></path>
<path fill="#ffbb33" fill-opacity="1.0"  filling="0" d="M100.0 101.0 L33.0 101.0 C32.0 101.0 31.0 102.0 31.0 103.0 L31.0 104.0 L102.0 104.0 L102.0 103.0 C102.0 102.0 101.0 101.0 100.0 101.0 L100.0 101.0 Z"></path>
<path fill="#ffcc66" fill-opacity="1.0"  filling="0" d="M100.0 101.0 L33.0 101.0 C32.0 101.0 31.0 102.0 31.0 103.0 L31.0 104.0 L102.0 104.0 L102.0 103.0 C102.0 102.0 101.0 101.0 100.0 101.0 L100.0 101.0 Z"></path>
<path fill="#ffbb33" fill-opacity="1.0"  filling="0" d="M100.0 101.0 L33.0 101.0 C32.0 101.0 31.0 102.0 31.0 103.0 L31.0 104.0 L102.0 104.0 L102.0 103.0 C102.0 102.0 101.0 101.0 100.0 101.0 L100.0 101.0 Z"></path>
<path fill="#ffcc66" fill-opacity="1.0"  filling="0" d="M100.0 101.0 L33.0 101.0 C32.0 101.0 31.0 102.0 31.0 103.0 L31.0 104.0 L102.0 104.0 L102.0 103.0 C102.0 102.0 101.0 101.0 100.0 101.0 L100.0 101.0 Z"></path>
<path fill="#ffbb33" fill-opacity="1.0"  filling="0" d="M100.0 101.0 L33.0 101.0 C32.0 101.0 31.0 102.0 31.0 103.0 L31.0 104.0 L102.0 104.0 L102.0 103.0 C102.0 102.0 101.0 101.0 100.0 101.0 L100.0 101.0 Z"></path>
<path fill="#ffcc66" fill-opacity="1.0"  filling="0" d="M100.0 101.0 L33.0 101.0 C32.0 101.0 31.0 102.0 31.0 103.0 L31.0 104.0 L102.0 104.0 L102.0 103.0 C102.0 102.0 101.0 101.0 100.0 101.0 L100.0 101.0 Z"></path>
<path fill="#ffbb33" fill-opacity="1.0"  filling="0" d="M100.0 101.0 L33.0 101.0 C32.0 101.0 31.0 102.0 31.0 103.0 L31.0 104.0 L102.0 104.0 L102.0 103.0 C102.0 102.0 101.0 101.0 100.0 101.0 L100.0 101.0 Z"></path>
<path fill="#ffcc66" fill-opacity="1.0"  filling="0" d="M100.0 101.0 L33.0 101.0 C32.0 101.0 31.0 102.0 31.0 103.0 L31.0 104.0 L102.0 104.0 L102.0 103.0 C102.0 102.0 101.0 101.0 100.0 101.0 L100.0 101.0 Z"></path>
<path fill="#ffbb33" fill-opacity="1.0"  filling="0" d="M100.0 101.0 L33.0 101.0 C32.0 101.0 31.0 102.0 31.0 103.0 L31.0 104.0 L102.0 104.0 L102.0 103.0 C102.0 102.0 101.0 101.0 100.0 101.0 L100.0 101.0 Z"></path>
<path fill="#ffcc66" fill-opacity="1.0"  filling="0" d="M100.0 101.0 L33.0 101.0 C32.0 101.0 31.0 102.0 31.0 103.0 L31.0 104.0 L102.0 104.0 L102.0 103.0 C102.0 102.0 101.0 101.0 100.0 101.0 L100.0 101.0 Z"></path>
<path fill="#ffbb33" fill-opacity="1.0"  filling="0" d="M100.0 101.0 L33.0 101.0 C32.0 101.0 31.0 102.0 31.0 103.0 L31.0 104.0 L102.0 104.0 L102.0 103.0 C102.0 102.0 101.0 101.0 100.0 101.0 L100.0 101.0 Z"></path>
<path fill="#ffcc66" fill-opacity="1.0"  filling="0" d="M100.0 101.0 L33.0 101.0 C32.0 101.0 31.0 102.0 31.0 103.0 L31.0 104.0 L102.0 104.0 L102.0 103.0 C102.0 102.0 101.0 101.0 100.0 101.0 L100.0 101.0 Z"></path>
<path fill="#ffbb33" fill-opacity="1.0"  filling="0" d="M100.0 101.0 L33.0 101.0 C32.0 101.0 31.0 102.0 31.0 103.0 L31.0 104.0 L102.0 104.0 L102.0 103.0 C102.0 102.0 101.0 101.0 100.0 101.0 L100.0 101.0 Z"></path>
<path fill="#ffcc66" fill-opacity="1.0"  filling="0" d="M100.0 101.0 L33.0 101.0 C32.0 101.0 31.0 102.0 31.0 103.0 L31.0 104.0 L102.0 104.0 L102.0 103.0 C102.0 102.0 101.0 101.0 100.0 101.0 L100.0 101.0 Z"></path>
<path fill="#ffbb33" fill-opacity="1.0"  filling="0" d="M100.0 101.0 L33.0 101.0 C32.0 101.0 31.0 102.0 31.0 103.0 L31.0 104.0 L102.0 104.0 L102.0 103.0 C102.0 102.0 101.0 101.0 100.0 101.0 L100.0 101.0 Z"></path>
<path fill="#ffcc66" fill-opacity="1.0"  filling="0" d="M100.0 101.0 L33.0 101.0 C32.0 101.0 31.0 102.0 31.0 103.0 L31.0 104.0 L102.0 104.0 L102.0 103.0 C102.0 102.0 101.0 101.0 100.0 101.0 L100.0 101.0 Z"></path>
<path fill="#ffbb33" fill-opacity="1.0"  filling="0" d="M100.0 101.0 L33.0 101.0 C32.0 101.0 31.0 102.0 31.0 103.0 L31.0 104.0 L102.0 104.0 L102.0 103.0 C102.0 102.0 101.0 101.0 100.0 101.0 L100.0 101.0 Z"></path>
<path fill="#000000" fill-opacity="1.0"  filling="0" d="M100.0 101.0 L33.0 101.0 C32.0 101.0 31.0 102.0 31.0 103.0 L31.0 104.0 L102.0 104.0 L102.0 103.0"></path></svg>