<svg xmlns="http://www.w3.org/2000/svg" viewBox="0.0 0.0 200.0 200.0" height="200px" width="200px"><path fill="#bb5522" fill-opacity="1.0"  filling="0" d="M107.0 69.0 L107.0 176.0 C107.0 177.0 106.0 178.0 105.0 178.0 L95.0 178.0 C94.0 178.0 93.0 177.0 93.0 176.0 L93.0 69.0 C93.0 68.0 94.0 67.0 95.0 67.0 L105.0 67.0 C106.0 67.0 107.0 68.0 107.0 69.0 L107.0 69.0 Z"></path>
<path fill="#884411" fill-opacity="1.0"  filling="0" d="M107.0 69.0 L107.0 176.0 C107.0 177.0 106.0 178.0 105.0 178.0 L100.0 178.0 L100.0 67.0 L105.0 67.0 C106.0 67.0 107.0 68.0 107.0 69.0 L107.0 69.0 Z"></path>
<path fill="#884411" fill-opacity="1.0"  filling="0" d="M107.0 176.0 L107.0 187.0 C107.0 188.0 106.0 189.0 105.0 189.0 L95.0 189.0 C94.0 189.0 93.0 188.0 93.0 187.0 L93.0 176.0 C93.0 175.0 94.0 174.0 95.0 174.0 L105.0 174.0 C106.0 174.0 107.0 175.0 107.0 176.0 L107.0 176.0 Z"></path>
<path fill="#884411" fill-opacity="1.0"  filling="0" d="M107.0 176.0 L107.0 187.0 C107.0 188.0 106.0 189.0 105.0 189.0 L100.0 189.0 L100.0 174.0 L105.0 174.0 C106.0 174.0 107.0 175.0 107.0 176.0 L107.0 176.0 Z"></path>
<path fill="#000000" fill-opacity="1.0"  filling="0" d="M93.0 69.0 L93.0 86.0 C92.0 86.0 91.0 85.0 91.0 84.0 L91.0 84.0 C91.0 83.0 90.0 82.0 89.0 82.0 C87.0 82.0 86.0 81.0 86.0 80.0 C86.0 78.0 87.0 77.0 89.0 77.0 C90.0 77.0 91.0 76.0 91.0 75.0 L91.0 75.0 C91.0 74.0 90.0 73.0 89.0 73.0 L80.0 73.0 C79.0 73.0 78.0 74.0 78.0 75.0 L78.0 75.0 C78.0 76.0 77.0 77.0 76.0 77.0 C74.0 77.0 73.0 78.0 73.0 80.0 C73.0 81.0 74.0 82.0 76.0 82.0 C77.0 82.0 78.0 83.0 78.0 84.0 L78.0 84.0 C78.0 85.0 77.0 86.0 76.0 86.0 L59.0 86.0 C58.0 86.0 57.0 85.0 57.0 84.0 L57.0 84.0 C57.0 83.0 56.0 82.0 55.0 82.0 C53.0 82.0 52.0 81.0 52.0 80.0 C52.0 78.0 53.0 77.0 55.0 77.0 C56.0 77.0 57.0 76.0 57.0 75.0 L57.0 75.0 C57.0 74.0 58.0 73.0 59.0 73.0 L65.0 73.0 C67.0 73.0 68.0 74.0 68.0 75.0 L68.0 75.0 C68.0 76.0 69.0 77.0 70.0 77.0 C72.0 77.0 73.0 78.0 73.0 80.0 C73.0 81.0 72.0 82.0 70.0 82.0 C69.0 82.0 68.0 83.0 68.0 84.0 L68.0 84.0 C68.0 85.0 67.0 86.0 65.0 86.0 L59.0 86.0 C58.0 86.0 57.0 85.0 57.0 84.0 L57.0 84.0 C57.0 83.0 56.0 82.0 55.0 82.0 C53.0 82.0 52.0 81.0 52.0 80.0 C52.0 78.0 53.0 77.0 55.0 77.0 C56.0 77.0 57.0 76.0 57.0 75.0 L57.0 75.0 C57.0 74.0 58.0 73.0 59.0 73.0 L65.0 73.0 C67.0 73.0 68.0 74.0 68.0 75.0 L68.0 75.0 C68.0 76.0 69.0 77.0 70.0 77.0 C72.0 77.0 73.0 78.0 73.0 80.0 C73.0 81.0 72.0 82.0 70.0 82.0 C69.0 82.0 68.0 83.0 68.0 84.0 L68.0 84.0 C68.0 85.0 67.0 86.0 65.0 86.0 L59.0 86.0 C58.0 86.0 57.0 85.0 57.0 84.0 L57.0 84.0 C57.0 83.0 56.0 82.0 55.0 82.0 C53.0 82.0 52.0 81.0 52.0 80.0 C52.0 78.0 53.0 77.0 55.0 77.0 C56.0 77.0 57.0 76.0 57.0 75.0 L57.0 75.0 C57.0 74.0 58.0 73.0 59.0 73.0 L65.0 73.0 C67.0 73.0 68.0 74.0 68.0 75.0 L68.0 75.0 C68.0 76.0 69.0 77.0 70.0 77.0 C72.0 77.0 73.0 78.0 73.0 80.0 C73.0 81.0 72.0 82.0 70.0 82.0 C69.0 82.0 68.0 83.0 68.0 84.0 L68.0 84.0 C68.0 85.0 67.0 86.0 65.0 86.0 L59.0 86.0 C58.0 86.0 57.0 85.0 57.0 84.0 L57.0 84.0 C57.0 83.0 56.0 82.0 55.0 82.0 C53.0 82.0 52.0 81.0 52.0 80.0 C52.0 78.0 53.0 77.0 55.0 77.0 C56.0 77.0 57.0 76.0 57.0 75.0 L57.0 75.0 C57.0 74.0 58.0 73.0 59.0 73.0 L65.0 73.0 C67.0 73.0 68.0 74.0 68.0 75.0 L68.0 75.0 C68.0 76.0 69.0 77.0 70.0 77.0 C72.0 77.0 73.0 78.0 73.0 80.0 C73.0 81.0 72.0 82.0 70.0 82.0 C69.0 82.0 68.0 83.0 68.0 84.0 L68.0 84.0 C68.0 85.0 67.0 86.0 65.0 86.0 L59.0 86.0 C58.0 86.0 57.0 85.0 57.0 84.0 L57.0 84.0 C57.0 83.0 56.0 82.0 55.0 82.0 C53.0 82.0 52.0 81.0 52.0 80.0 C52.0 78.0 53.0 77.0 55.0 77.0 C56.0 77.0 57.0 76.0 57.0 75.0 L57.0 75.0 C57.0 74.0 58.0 73.0 59.0 73.0 L65.0 73.0 C67.0 73.0 68.0 74.0 68.0 75.0 L68.0 75.0 C68.0 76.0 69.0 77.0 70.0 77.0 C72.0 77.0 73.0 78.0 73.0 80.0 C73.0 81.0 72.0 82.0 70.0 82.0 C69.0 82.0 68.0 83.0 68.0 84.0 L68.0 84.0 C68.0 85.0 67.0 86.0 65.0 86.0 L59.0 86.0 C58.0 86.0 57.0 85.0 57.0 84.0 L57.0 84.0 C57.0 83.0 56.0 82.0 55.0 82.0 C53.0 82.0 52.0 81.0 52.0 80.0 C52.0 78.0 53.0 77.0 55.0 77.0 C56.0 77.0 57.0 76.0 57.0 75.0 L57.0 75.0 C57.0 74.0 58.0 73.0 59.0 73.0 L65.0 73.0 C67.0 73.0 68.0 74.0 68.0 75.0 L68.0 75.0 C68.0 76.0 69.0 77.0 70.0 77.0 C72.0 77.0 73.0 78.0 73.0 80.0 C73.0 81.0 72.0 82.0 70.0 82.0 C69.0 82.0 68.0 83.0 68.0 84.0 L68.0 84.0 C68.0 85.0 67.0 86.0 65.0 86.0 L59.0 86.0 C58.0 86.0 57.0 85.0 57.0 84.0 L57.0 84.0 C57.0 83.0 56.0 82.0 55.0 82.0 C53.0 82.0 52.0 81.0 52.0 80.0 C52.0 78.0 53.0 77.0 55.0 77.0 C56.0 77.0 57.0 76.0 57.0 75.0 L57.0 75.0 C57.0 74.0 58.0 73.0 59.0 73.0 L65.0 73.0 C67.0 73.0 68.0 74.0 68.0 75.0 L68.0 75.0 C68.0 76.0 69.0 77.0 70.0 77.0 C72.0 77.0 73.0 78.0 73.0 80.0 C73.0 81.0 72.0 82.0 70.0 82.0 C69.0 82.0 68.0 83.0 68.0 84.0 L68.0 84.0 C68.0 85.0 67.0 86.0 65.0 86.0 L59.0 86.0 C58.0 86.0 57.0 85.0 57.0 84.0 L57.0 84.0 C57.0 83.0 56.0 82.0 55.0 82.0 C53.0 82.0 52.0 81.0 52.0 80.0 C52.0 78.0 53.0 77.0 55.0 77.0 C56.0 77.0 57.0 76.0 57.0 75.0 L57.0 75.0 C57.0 74.0 58.0 73.0 59.0 73.0 L65.0 73.0 C67.0 73.0 68.0 74.0 68.0 75.0 L68.0 75.0 C68.0 76.0 69.0 77.0 70.0 77.0 C72.0 77.0 73.0 78.0 73.0 80.0 C73.0 81.0 72.0 82.0 70.0 82.0 C69.0 82.0 68.0 83.0 68.0 84.0 L68.0 84.0 C68.0 85.0 67.0 86.0 65.0 86.0 L59.0 86.0 C58.0 86.0 57.0 85.0 57.0 84.0 L57.0 84.0 C57.0 83.0 56.0 82.0 55.0 82.0 C53.0 82.0 52.0 81.0 52.0 80.0 C52.0 78.0 53.0 77.0 55.0 77.0 C56.0 77.0 57.0 76.0 57.0 75.0 L57.0 75.0 C57.0 74.0 58.0 73.0 59.0 73.0 L65.0 73.0 C67.0 73.0 68.0 74.0 68.0 75.0 L68.0 75.0 C68.0 76.0 69.0 77.0 70.0 77.0 C72.0 77.0 73.0 78.0 73.0 80.0 C73.0 81.0 72.0 82.0 70.0 82.0 C69.0 82.0 68.0 83.0 68.0 84.0 L68.0 84.0 C68.0 85.0 67.0 86.0 65.0 86.0 L59.0 86.0 C58.0 86.0 57.0 85.0 57.0 84.0 L57.0 84.0 C57.0 83.0 56.0 82.0 55.0 82.0 C53.0 82.0 52.0 81.0 52.0 80.0 C52.0 78.0 53.0 77.0 55.0 77.0 C56.0 77.0 57.0 76.0 57.0 75.0 L57.0 75.0 C57.0 74.0 58.0 73.0 59.0 73.0 L65.0 73.0 C67.0 73.0 68.0 74.0 68.0 75.0 L68.0 75.0 C68.0 76.0 69.0 77.0 70.0 77.0 C72.0 77.0 73.0 78.0 73.0 80.0 C73.0 81.0 72.0 82.0 70.0 82.0 C69.0 82.0 68.0 83.0 68.0 84.0 L68.0 84.0 C68.0 85.0 67.0 86.0 65.0 86.0 L59.0 86.0 C58.0 86.0 57.0 85.0 57.0 84.0 L57.0 84.0 C57.0 83.0 56.0 82.0 55.0 82.0 C53.0 82.0 52.0 81.0 52.0 80.0 C52.0 78.0 53.0 77.0 55.0 77.0 C56.0 77.0 57.0 76.0 57.0 75.0 L57.0 75.0 C57.0 74.0 58.0 73.0 59.0 73.0 L65.0 73.0 C67.0 73.0 68.0 74.0 68.0 75.0 L68.0 75.0 C68.0 76.0 69.0 77.0 70.0 77.0 C72.0 77.0 73.0 78.0 73.0 80.0 C73.0 81.0 72.0 82.0 70.0 82.0 C69.0 82.0 68.0 83.0 68.0 84.0 L68.0 84.0 C68.0 85.0 67.0 86.0 65.0 86.0 L59.0 86.0 C58.0 86.0 57.0 85.0 57.0 84.0 L57.0 84.0 C57.0 83.0 56.0 82.0 55.0 82.0 C53.0 82.0 52.0 81.0 52.0 80.0 C52.0 78.0 53.0 77.0 55.0 77.0 C56.0 77.0 57.0 76.0 57.0 75.0 L57.0 75.0 C57.0 74.0 58.0 73.0 59.0 73.0 L65.0 73.0 C67.0 73.0 68.0 74.0 68.0 75.0 L68.0 75.0 C68.0 76.0 69.0 77.0 70.0 77.0 C72.0 77.0 73.0 78.0 73.0 80.0 C73.0 81.0 72.0 82.0 70.0 82.0 C69.0 82.0 68.0 83.0 68.0 84.0 L68.0 84.0 C68.0 85.0 67.0 86.0 65.0 86.0 L59.0 86.0 C58.0 86.0 57.0 85.0 57.0 84.0 L57.0 84.0 C57.0 83.0 56.0 82.0 55.0 82.0 C53.0 82.0 52.0 81.0 52.0 80.0 C52.0 78.0 53.0 77.0 55.0 77.0 C56.0 77.0 57.0 76.0 57.0 75.0 L57.0 75.0 C57.0 74.0 58.0 73.0 59.0 73.0 L65.0 73.0 C67.0 73.0 68.0 74.0 68.0 75.0 L68.0 75.0 C68.0 76.0 69.0 77.0 70.0 77.0 C72.0 77.0 73.0 78.0 73.0 80.0 C73.0 81.0 72.0 82.0 70.0 82.0 C69.0 82.0 68.0 83.0 68.0 84.0 L68.0 84.0 C68.0 85.0 67.0 86.0 65.0 86.0 L59.0 86.0 C58.0 86.0 57.0 85.0 57.0 84.0 L57.0 84.0 C57.0 83.0 56.0 82.0 55.0 82.0 C53.0 82.0 52.0 81.0 52.0 80.0 C52.0 78.0 53.0 77.0 55.0 77.0 C56.0 77.0 57.0 76.0 57.0 75.0 L57.0 75.0 C57.0 74.0 58.0 73.0 59.0 73.0 L65.0 73.0 C67.0 73.0 68.0 74.0 68.0 75.0 L68.0 75.0 C68.0 76.0 69.0 77.0 70.0 77.0 C72.0 77.0 73.0 78.0 73.0 80.0 C73.0 81.0 72.0 82.0 70.0 82.0 C69.0 82.0 68.0 83.0 68.0 84.0 L68.0 84.0 C68.0 85.0 67.0 86.0 65.0 86.0 L59.0 86.0 C58.0 86.0 57.0 85.0 57.0 84.0 L57.0 84.0 C57.0 83.0 56.0 82.0 55.0 82.0 C53.0 82.0 52.0 81.0 52.0 80.0 C52.0 78.0 53.0 77.0 55.0 77.0 C56.0 77.0 57.0 76.0 57.0 75.0 L57.0 75.0 C57.0 74.0 58.0 73.0 59.0 73.0 L65.0 73.0 C67.0 73.0 68.0 74.0 68.0 75.0 L68.0 75.0 C68.0 76.0 69.0 77.0 70.0 77.0 C72.0 77.0 73.0 78.0 73.0 80.0 C73.0 81.0 72.0 82.0 70.0 82.0 C69.0 82.0 68.0 83.0 68.0 84.0 L68.0 84.0 C68.0 85.0 67.0 86.0 65.0 86.0 L59.0 86.0 C58.0 86.0 57.0 85.0 57.0 84.0 L57.0 84.0 C57.0 83.0 56.0 82.0 55.0 82.0 C53.0 82.0 52.0 81.0 52.0 80.0 C52.0 78.0 53.0 77.0 55.0 77.0 C56.0 77.0 57.0 76.0 57.0 75.0 L57.0 75.0 C57.0 74.0 58.0 73.0 59.0 73.0 L65.0 73.0 C67.0 73.0 68.0 74.0 68.0 75.0 L68.0 75.0 C68.0 76.0 69.0 77.0 70.0 77.0 C72.0 77.0 73.0 78.0 73.0 80.0 C73.0 81.0 72.0 82.0 70.0 82.0 C69.0 82.0 68.0 83.0 68.0 84.0 L68.0 84.0 C68.0 85.0 67.0 86.0 65.0 86.0 L59.0 86.0 C58.0 86.0 57.0 85.0 57.0 84.0 L57.0 84.0 C57.0 83.0 56.0 82.0 55.0 82.0 C53.0 82.0 52.0 81.0 52.0 80.0 C52.0 78.0 53.0 77.0 55.0 77.0 C56.0 77.0 57.0 76.0 57.0 75.0 L57.0 75.0 C57.0 74.0 58.0 73.0 59.0 73.0 L65.0 73.0 C67.0 73.0 68.0 74.0 68.0 75.0 L68.0 75.0 C68.0 76.0 69.0 77.0 70.0 77.0 C72.0 77.0 73.0 78.0 73.0 80.0 C73.0 81.0 72.0 82.0 70.0 82.0 C69.0 82.0 68.0 83.0 68.0 84.0 L68.0 84.0 C68.0 85.0 67.0 86.0 65.0 86.0 L59.0 86.0 C58.0 86.0 57.0 85.0 57.0 84.0 L57.0 84.0 C57.0 83.0 56.0 82.0 55.0 82.0 C53.0 82.0 52.0 81.0 52.0 80.0 C52.0 78.0 53.0 77.0 55.0 77.0 C56.0 77.0 57.0 76.0 57.0 75.0 L57.0 75.0 C57.0 74.0 58.0 73.0 59.0 73.0 L65.0 73.0 C67.0 73.0 68.0 74.0 68.0 75.0 L68.0 75.0 C68.0 76.0 69.0 77.0 70.0 77.0 C72.0 77.0 73.0 78.0 73.0 80.0 C73.0 81.0 72.0 82.0 70.0 82.0 C69.0 82.0 68.0 83.0 68.0 84.0 L68.0 84.0 C68.0 85.0 67.0 86.0 65.0 86.0 L59.0 86.0 C58.0 86.0 57.0 85.0 57.0 84.0 L57.0 84.0 C57.0 83.0 56.0 82.0 55.0 82.0 C53.0 82.0 52.0 81.0 52.0 80.0 C52.0 78.0 53.0 77.0 55.0 77.0 C56.0 77.0 57.0 76.0 57.0 75.0 L57.0 75.0 C57.0 74.0 58.0 73.0 59.0 73.0 L65.0 73.0 C67.0 73.0 68.0 74.0 68.0 75.0 L68.0 75.0 C68.0 76.0 69.0 77.0 70.0 77.0 C72.0 77.0 73.0 78.0 73.0 80.0 C73.0 81.0 72.0 82.0 70.0 82.0 C69.0 82.0 68.0 83.0 68.0 84.0 L68.0 84.0 C68.0 85.0 67.0 86.0 65.0 86.0 L59.0 86.0 C58.0 86.0 57.0 85.0 57.0 84.0 L57.0 84.0 C57.0 83.0 56.0 82.0 55.0 82.0 C53.0 82.0 52.0 81.0 52.0 80.0 C52.0 78.0 53.0 77.0 55.0 77.0 C56.0 77.0 57.0 76.0 57.0 75.0 L57.0 75.0 C57.0 74.0 58.0 73.0 59.0 73.0 L65.0 73.0 C67.0 73.0 68.0 74.0 68.0 75.0 L68.0 75.0 C68.0 76.0 69.0 77.0 70.0 77.0 C72.0 77.0 73.0 78.0 73.0 80.0 C73.0 81.0 72.0 82.0 70.0 82.0 C69.0 82.0 68.0 83.0 68.0 84.0 L68.0 84.0 C68.0 85.0 67.0 86.0 65.0 86.0 L59.0 86.0 C58.0 86.0 57.0 85.0 57.0 84.0 L57.0 84.0 C57.0 83.0 56.0 82.0 55.0 82.0 C53.0 82.0 52.0 81.0 52.0 80.0 C52.0 78.0 53.0 77.0 55.0 77.0 C56.0 77.0 57.0 76.0 57.0 75.0 L57.0 75.0 C57.0 74.0 58.0 73.0 59.0 73.0 L65.0 73.0 C67.0 73.0 68.0 74.0 68.0 75.0 L68.0 75.0 C68.0 76.0 69.0 77.0 70.0 77.0 C72.0 77.0 73.0 78.0 73.0 80.0 C73.0 81.0 72.0 82.0 70.0 82.0 C69.0 82.0 68.0 83.0 68.0 84.0 L68.0 84.0 C68.0 85.0 67.0 86.0 65.0 86.0 L59.0 86.0 C58.0 86.0 57.0 85.0 57.0 84.0 L57.0 84.0 C57.0 83.0 56.0 82.0 55.0 82.0 C53.0 82.0 52.0 81.0 52.0 80.0 C52.0 78.0 53.0 77.0 55.0 77.0 C56.0 77.0 57.0 76.0 57.0 75.0 L57.0 75.0 C57.0 74.0 58.0 73.0 59.0 73.0 L65.0 73.0 C67.0 73.0 68.0 74.0 68.0 75.0 L68.0 75.0 C68.0 76.0 69.0 77.0 70.0 77.0 C72.0 77.0 73.0 78.0 73.0 80.0 C73.0 81.0 72.0 82.0 70.0 82.0 C69.0 82.0 68.0 83.0 68.0 84.0 L68.0 84.0 C68.0 85.0 67.0 86.0 65.0 86.0 L59.0 86.0 C58.0 86.0 57.0 85.0 57.0 84.0 L57.0 84.0 C57.0 83.0 56.0 82.0 55.0 82.0 C53.0 82.0 52.0 81.0 52.0 80.0"></path></svg>