<svg xmlns="http://www.w3.org/2000/svg" viewBox="0.0 0.0 200.0 200.0" height="200px" width="200px"><path fill="#ffcc11" fill-opacity="1.0"  filling="0" d="M23.0 80.0 L177.0 80.0 C180.0 80.0 183.0 77.0 183.0 74.0 L183.0 69.0 C183.0 51.0 168.0 36.0 150.0 36.0 L50.0 36.0 C32.0 36.0 17.0 51.0 17.0 69.0 L17.0 74.0 C17.0 77.0 20.0 80.0 23.0 80.0 L23.0 80.0 Z"></path>
<path fill="#ffffff" fill-opacity="1.0"  filling="0" d="M62.0 62.0 C60.0 62.0 59.0 62.0 58.0 61.0 L54.0 56.0 C52.0 54.0 52.0 51.0 54.0 49.0 C56.0 47.0 59.0 47.0 61.0 49.0 L66.0 53.0 C68.0 55.0 68.0 58.0 66.0 61.0 C65.0 62.0 63.0 62.0 62.0 62.0 L62.0 62.0 Z M47.0 62.0 C46.0 62.0 44.0 62.0 43.0 61.0 C41.0 58.0 41.0 55.0 43.0 53.0 L47.0 49.0 C49.0 47.0 52.0 47.0 54.0 49.0 C56.0 51.0 56.0 54.0 54.0 56.0 L51.0 61.0 C50.0 62.0 49.0 62.0 47.0 62.0 L47.0 62.0 Z"></path>
<path fill="#ffffff" fill-opacity="1.0"  filling="0" d="M62.0 62.0 C60.0 62.0 59.0 62.0 58.0 61.0 C56.0 59.0 56.0 55.0 58.0 53.0 L61.0 49.0 C63.0 47.0 66.0 47.0 68.0 49.0 C70.0 51.0 70.0 54.0 68.0 56.0 L66.0 61.0 C65.0 62.0 63.0 62.0 62.0 62.0 L62.0 62.0 Z"></path>
<path fill="#ffffff" fill-opacity="1.0"  filling="0" d="M62.0 62.0 C60.0 62.0 59.0 62.0 58.0 61.0 C56.0 59.0 56.0 55.0 58.0 53.0 L61.0 49.0 C63.0 47.0 66.0 47.0 68.0 49.0 C70.0 51.0 70.0 54.0 68.0 56.0 L66.0 61.0 C65.0 62.0 63.0 62.0 62.0 62.0 L62.0 62.0 Z"></path>
<path fill="#ffffff" fill-opacity="1.0"  filling="0" d="M48.0 62.0 C46.0 62.0 45.0 62.0 44.0 61.0 C42.0 59.0 42.0 55.0 44.0 53.0 L47.0 49.0 C49.0 47.0 53.0 47.0 55.0 49.0 C57.0 51.0 57.0 54.0 55.0 56.0 L52.0 61.0 C51.0 62.0 49.0 62.0 48.0 62.0 L48.0 62.0 Z"></path>
<path fill="#ffffff" fill-opacity="1.0"  filling="0" d="M48.0 62.0 C46.0 62.0 45.0 62.0 44.0 61.0 C42.0 59.0 42.0 55.0 44.0 53.0 L47.0 49.0 C49.0 47.0 53.0 47.0 55.0 49.0 C57.0 51.0 57.0 54.0 55.0 56.0 L52.0 61.0 C51.0 62.0 49.0 62.0 48.0 62.0 L48.0 62.0 Z"></path>
<path fill="#ffcc11" fill-opacity="1.0"  filling="0" d="M177.0 88.0 L23.0 88.0 C20.0 88.0 17.0 91.0 17.0 94.0 L17.0 99.0 C17.0 116.0 32.0 132.0 50.0 132.0 L150.0 132.0 C168.0 132.0 183.0 116.0 183.0 99.0 L183.0 94.0 C183.0 91.0 180.0 88.0 177.0 88.0 L177.0 88.0 Z"></path>
<path fill="#ffffff" fill-opacity="1.0"  filling="0" d="M62.0 99.0 C60.0 99.0 59.0 98.0 58.0 97.0 L54.0 93.0 C52.0 91.0 52.0 88.0 54.0 86.0 C56.0 84.0 59.0 84.0 61.0 86.0 L66.0 90.0 C68.0 92.0 68.0 95.0 66.0 97.0 C65.0 98.0 63.0 99.0 62.0 99.0 L62.0 99.0 Z M47.0 99.0 C46.0 99.0 44.0 98.0 43.0 97.0 C41.0 95.0 41.0 92.0 43.0 90.0 L47.0 86.0 C49.0 84.0 52.0 84.0 54.0 86.0 C56.0 88.0 56.0 91.0 54.0 93.0 L51.0 97.0 C50.0 98.0 49.0 99.0 47.0 99.0 L47.0 99.0 Z"></path>
<path fill="#ffffff" fill-opacity="1.0"  filling="0" d="M62.0 99.0 C60.0 99.0 59.0 98.0 58.0 97.0 C56.0 95.0 56.0 92.0 58.0 90.0 L61.0 86.0 C63.0 84.0 66.0 84.0 68.0 86.0 C70.0 88.0 70.0 91.0 68.0 93.0 L66.0 97.0 C65.0 98.0 63.0 99.0 62.0 99.0 L62.0 99.0 Z"></path>
<path fill="#ffffff" fill-opacity="1.0"  filling="0" d="M62.0 99.0 C60.0 99.0 59.0 98.0 58.0 97.0 C56.0 95.0 56.0 92.0 58.0 90.0 L61.0 86.0 C63.0 84.0 66.0 84.0 68.0 86.0 C70.0 88.0 70.0 91.0 68.0 93.0 L66.0 97.0 C65.0 98.0 63.0 99.0 62.0 99.0 L62.0 99.0 Z"></path>
<path fill="#ffffff" fill-opacity="1.0"  filling="0" d="M48.0 99.0 C46.0 99.0 45.0 98.0 44.0 97.0 C42.0 95.0 42.0 92.0 44.0 90.0 L47.0 86.0 C49.0 84.0 52.0 84.0 54.0 86.0 C56.0 88.0 56.0 91.0 54.0 93.0 L52.0 97.0 C51.0 98.0 49.0 99.0 48.0 99.0 L48.0 99.0 Z"></path>
<path fill="#ffffff" fill-opacity="1.0"  filling="0" d="M48.0 99.0 C46.0 99.0 45.0 98.0 44.0 97.0 C42.0 95.0 42.0 92.0 44.0 90.0 L47.0 86.0 C49.0 84.0 52.0 84.0 54.0 86.0 C56.0 88.0 56.0 91.0 54.0 93.0 L52.0 97.0 C51.0 98.0 49.0 99.0 48.0 99.0 L48.0 99.0 Z"></path>
<path fill="#ffcc11" fill-opacity="1.0"  filling="0" d="M177.0 125.0 L23.0 125.0 C20.0 125.0 17.0 128.0 17.0 131.0 L17.0 136.0 C17.0 155.0 32.0 171.0 50.0 171.0 L150.0 171.0 C168.0 171.0 183.0 155.0 183.0 136.0 L183.0 131.0 C183.0 128.0 180.0 125.0 177.0 125.0 L177.0 125.0 Z"></path>
<path fill="#ffffff" fill-opacity="1.0"  filling="0" d="M62.0 152.0 C60.0 152.0 59.0 151.0 58.0 150.0 L54.0 146.0 C52.0 144.0 52.0 141.0 54.0 139.0 C56.0 137.0 59.0 137.0 61.0 139.0 L66.0 143.0 C68.0 145.0 68.0 148.0 66.0 150.0 C65.0 151.0 63.0 152.0 62.0 152.0 L62.0 152.0 Z M47.0 152.0 C46.0 152.0 45.0 151.0 43.0 150.0 C41.0 148.0 41.0 145.0 43.0 143.0 L47.0 139.0 C49.0 137.0 52.0 137.0 54.0 139.0 C56.0 141.0 56.0 144.0 54.0 146.0 L51.0 150.0 C50.0 151.0 49.0 152.0 47.0 152.0 L47.0 152.0 Z"></path>
<path fill="#ffffff" fill-opacity="1.0"  filling="0" d="M62.0 152.0 C60.0 152.0 59.0 151.0 58.0 150.0 C56.0 148.0 56.0 145.0 58.0 143.0 L61.0 139.0 C63.0 137.0 66.0 137.0 68.0 139.0 C70.0 141.0 70.0 145.0 68.0 146.0 L66.0 150.0 C65.0 151.0 63.0 152.0 62.0 152.0 L62.0 152.0 Z"></path>
<path fill="#ffffff" fill-opacity="1.0"  filling="0" d="M62.0 152.0 C60.0 152.0 59.0 151.0 58.0 150.0 C56.0 148.0 56.0 145.0 58.0 143.0 L61.0 139.0 C63.0 137.0 66.0 137.0 68.0 139.0 C70.0 141.0 70.0 145.0 68.0 146.0 L66.0 150.0 C65.0 151.0 63.0 152.0 62.0 152.0 L62.0 152.0 Z"></path>
<path fill="#ffffff" fill-opacity="1.0"  filling="0" d="M48.0 152.0 C46.0 152.0 45.0 151.0 44.0 150.0 C42.0 148.0 42.0 145.0 44.0 143.0 L47.0 139.0 C49.0 137.0 53.0 137.0 55.0 139.0 C56.0 141.0 56.0 145.0 55.0 146.0 L52.0 150.0 C51.0 151.0 49.0 152.0 48.0 152.0 L48.0 152.0 Z"></path>
<path fill="#ffffff" fill-opacity="1.0"  filling="0" d="M48.0 152.0 C46.0 152.0 45.0 151.0 44.0 150.0 C42.0 148.0 42.0 145.0 44.0 143.0 L47.0 139.0 C49.0 137.0 53.0 137.0 55.0 139.0 C56.0 141.0 56.0 145.0 55.0 146.0 L52.0 150.0 C51.0 151.0 49.0 152.0 48.0 152.0 L48.0 152.0 Z"></path>
<path fill="#ffffff" fill-opacity="1.0"  filling="0" d="M52.0 157.0 C49.0 157.0 47.0 156.0 46.0 154.0 C45.0 152.0 46.0 149.0 48.0 148.0 L52.0 145.0 C54.0 143.0 57.0 144.0 58.0 146.0 C60.0 148.0 59.0 151.0 57.0 152.0 L54.0 156.0 C53.0 156.0 52.0 157.0 52.0 157.0 L52.0 157.0 Z"></path>
<path fill="#ffffff" fill-opacity="1.0"  filling="0" d="M52.0 157.0 C49.0 157.0 47.0 156.0 46.0 154.0 C45.0 152.0 46.0 149.0 48.0 148.0 L52.0 145.0 C54.0 143.0 57.0 144.0 58.0 146.0 C60.0 148.0 59.0 151.0 57.0 152.0 L54.0 156.0 C53.0 156.0 52.0 157.0 52.0 157.0 L52.0 157.0 Z"></path>
<path fill="#ffffff" fill-opacity="1.0"  filling="0" d="M52.0 157.0 C49.0 157.0 47.0 156.0 46.0 154.0 C45.0 152.0 46.0 149.0 48.0 148.0 L52.0 145.0 C54.0 143.0 57.0 144.0 58.0 146.0 C60.0 148.0 59.0 151.0 57.0 152.0 L54.0 156.0 C53.0 156.0 52.0 157.0 52.0 157.0 L52.0 157.0 Z"></path>
<path fill="#ffffff" fill-opacity="1.0"  filling="0" d="M52.0 157.0 C49.0 157.0 47.0 156.0 46.0 154.0 C45.0 152.0 46.0 149.0 48.0 148.0 L52.0 145.0 C54.0 143.0 57.0 144.0 58.0 146.0 C60.0 148.0 59.0 151.0 57.0 152.0 L54.0 156.0 C53.0 156.0 52.0 157.0 52.0 157.0 L52.0 157.0 Z"></path>
<path fill="#ffffff" fill-opacity="1.0"  filling="0" d="M167.0 152.0 C165.0 152.0 164.0 151.0 163.0 150.0 L159.0 146.0 C157.0 145.0 157.0 141.0 159.0 139.0 C161.0 137.0 164.0 137.0 166.0 139.0 L170.0 143.0 C173.0 145.0 173.0 148.0 170.0 150.0 C169.0 151.0 168.0 152.0 167.0 152.0 L167.0 152.0 Z"></path>
<path fill="#ffffff" fill-opacity="1.0"  filling="0" d="M152.0 152.0 C151.0 152.0 150.0 151.0 149.0 150.0 C147.0 148.0 147.0 145.0 149.0 143.0 L153.0 139.0 C155.0 137.0 158.0 137.0 160.0 139.0 C162.0 141.0 162.0 145.0 160.0 146.0 L156.0 150.0 C155.0 151.0 154.0 152.0 152.0 152.0 L152.0 152.0 Z"></path>
<path fill="#ffffff" fill-opacity="1.0"  filling="0" d="M152.0 152.0 C151.0 152.0 150.0 151.0 149.0 150.0 C147.0 148.0 147.0 145.0 149.0 143.0 L153.0 139.0 C155.0 137.0 158.0 137.0 160.0 139.0 C162.0 141.0 162.0 145.0 160.0 146.0 L156.0 150.0 C155.0 151.0 154.0 152.0 152.0 152.0 L152.0 152.0 Z"></path>
<path fill="#ffffff" fill-opacity="1.0"  filling="0" d="M152.0 152.0 C151.0 152.0 150.0 151.0 149.0 150.0 C147.0 148.0 147.0 145.0 149.0 143.0 L153.0 139.0 C155.0 137.0 158.0 137.0 160.0 139.0 C162.0 141.0 162.0 145.0 160.0 146.0 L156.0 150.0 C155.0 151.0 154.0 152.0 152.0 152.0 L152.0 152.0 Z"></path>
<path fill="#ffffff" fill-opacity="1.0"  filling="0" d="M152.0 152.0 C151.0 152.0 150.0 151.0 149.0 150.0 C147.0 148.0 147.0 145.0 149.0 143.0 L153.0 139.0 C155.0 137.0 158.0 137.0 160.0 139.0 C162.0 141.0 162.0 145.0 160.0 146.0 L156.0 150.0 C155.0 151.0 154.0 152.0 152.0 152.0 L152.0 152.0 Z"></path>
<path fill="#ffffff" fill-opacity="1.0"  filling="0" d="M158.0 157.0 C156.0 157.0 154.0 156.0 153.0 154.0 C152.0 152.0 153.0 149.0 155.0 148.0 L159.0 145.0 C161.0 143.0 164.0 144.0 165.0 146.0 C167.0 148.0 166.0 151.0 164.0 152.0 L161.0 156.0 C160.0 156.0 159.0 157.0 158.0 157.0 L158.0 157.0 Z"></path>
<path fill="#ffffff" fill-opacity="1.0"  filling="0" d="M158.0 157.0 C156.0 157.0 154.0 156.0 153.0 154.0 C152.0 152.0 153.0 149.0 155.0 148.0 L159.0 145.0 C161.0 143.0 164.0 144.0 165.0 146.0 C167.0 148.0 166.0 151.0 164.0 152.0 L161.0 156.0 C160.0 156.0 159.0 157.0 158.0 157.0 L158.0 157.0 Z"></path>
<path fill="#ffffff" fill-opacity="1.0"  filling="0" d="M158.0 157.0 C156.0 157.0 154.0 156.0 153.0 154.0 C152.0 152.0 153.0 149.0 155.0 148.0 L159.0 145.0 C161.0 143.0 164.0 144.0 165.0 146.0 C167.0 148.0 166.0 151.0 164.0 152.0 L161.0 156.0 C160.0 156.0 159.0 157.0 158.0 157.0 L158.0 157.0 Z"></path>
<path fill="#ffffff" fill-opacity="1.0"  filling="0" d="M158.0 157.0 C156.0 157.0 154.0 156.0 153.0 154.0 C152.0 152.0 153.0 149.0 155.0 148.0 L159.0 145.0 C161.0 143.0 164.0 144.0 165.0 146.0 C167.0 148.0 166.0 151.0 164.0 152.0 L161.0 156.0 C160.0 156.0 159.0 157.0 158.0 157.0 L158.0 157.0 Z"></path>
<path fill="#223344" fill-opacity="1.0"  filling="0" d="M74.0 38.0 L141.0 38.0 C151.0 38.0 160.0 42.0 166.0 49.0 C168.0 50.0 170.0 51.0 172.0 51.0 C173.0 51.0 174.0 50.0 175.0 50.0 C175.0 49.0 175.0 48.0 175.0 47.0 C166.0 36.0 154.0 29.0 141.0 29.0 L74.0 29.0 C71.0 29.0 69.0 31.0 69.0 34.0 C69.0 36.0 71.0 38.0 74.0 38.0 L74.0 38.0 Z M31.0 31.0 C25.0 37.0 21.0 43.0 18.0 50.0 C18.0 50.0 18.0 51.0 18.0 51.0 C18.0 53.0 19.0 55.0 21.0 56.0 C22.0 56.0 22.0 56.0 22.0 56.0 C24.0 56.0 26.0 55.0 26.0 53.0 C26.0 53.0 26.0 52.0 26.0 52.0 C29.0 47.0 32.0 42.0 37.0 38.0 C39.0 37.0 40.0 36.0 42.0 35.0 C44.0 34.0 45.0 31.0 44.0 29.0 C43.0 28.0 42.0 27.0 40.0 27.0 C38.0 28.0 35.0 29.0 31.0 31.0 L31.0 31.0 Z"></path>
<path fill="#223344" fill-opacity="1.0"  filling="0" d="M54.0 41.0 L58.0 41.0 C60.0 41.0 62.0 39.0 62.0 37.0 C62.0 34.0 60.0 33.0 58.0 33.0 L54.0 33.0 C52.0 33.0 50.0 34.0 50.0 37.0 C50.0 39.0 52.0 41.0 54.0 41.0 L54.0 41.0 Z"></path>
<path fill="#000000" fill-opacity="1.0"  filling="0" d="M181.0 159.0 L165.0 159.0 C173.0 153.0 178.0 143.0 178.0 131.0 L178.0 128.0 C178.0 123.0 174.0 119.0 169.0 119.0 L161.0 119.0 L161.0 115.0 C161.0 114.0 162.0 112.0 164.0 112.0 L169.0 112.0 C175.0 112.0 180.0 107.0 180.0 101.0 L180.0 99.0 C180.0 92.0 175.0 86.0 168.0 86.0 L28.0 86.0 C21.0 86.0 15.0 92.0 15.0 99.0 L15.0 101.0 C15.0 107.0 21.0 112.0 28.0 112.0 L65.0 112.0 C67.0 112.0 68.0 114.0 68.0 115.0 L68.0 130.0 C68.0 137.0 74.0 143.0 81.0 143.0 C88.0 143.0 94.0 137.0 94.0 130.0 L94.0 115.0 C94.0 114.0 96.0 112.0 98.0 112.0 C100.0 112.0 101.0 114.0 101.0 115.0 L101.0 120.0 C101.0 127.0 107.0 133.0 114.0 134.0 C122.0 134.0 128.0 128.0 128.0 121.0 L128.0 115.0 C128.0 114.0 129.0 112.0 131.0 112.0 C133.0 112.0 134.0 114.0 134.0 115.0 L134.0 124.0 C134.0 126.0 136.0 128.0 138.0 128.0 C140.0 128.0 142.0 126.0 142.0 124.0 L142.0 115.0 C142.0 109.0 137.0 104.0 131.0 104.0 C125.0 104.0 120.0 109.0 120.0 115.0 L120.0 121.0 C120.0 123.0 118.0 126.0 115.0 126.0 C112.0 126.0 109.0 123.0 109.0 120.0 L109.0 115.0 C109.0 109.0 104.0 104.0 98.0 104.0 C92.0 104.0 87.0 109.0 87.0 115.0 L87.0 130.0 C87.0 133.0 85.0 135.0 82.0 135.0 C79.0 135.0 76.0 133.0 76.0 130.0"></path></svg>