<svg xmlns="http://www.w3.org/2000/svg" viewBox="0.0 0.0 200.0 200.0" height="200px" width="200px"><path fill="#ffcc11" fill-opacity="1.0"  filling="0" d="M23.0 80.0 L177.0 80.0 C180.0 80.0 183.0 77.0 183.0 74.0 L183.0 69.0 C183.0 51.0 168.0 36.0 150.0 36.0 L51.0 36.0 C32.0 36.0 17.0 51.0 17.0 69.0 L17.0 74.0 C17.0 77.0 20.0 80.0 23.0 80.0 L23.0 80.0 Z"></path>
<path fill="#ffcc11" fill-opacity="1.0"  filling="0" d="M23.0 80.0 L177.0 80.0 C180.0 80.0 183.0 77.0 183.0 74.0 L183.0 69.0 C183.0 51.0 168.0 36.0 150.0 36.0 L51.0 36.0 C32.0 36.0 17.0 51.0 17.0 69.0 L17.0 74.0 C17.0 77.0 20.0 80.0 23.0 80.0 L23.0 80.0 Z"></path>
<path fill="#ff8800" fill-opacity="1.0"  filling="0" d="M135.0 30.0 L51.0 30.0 C28.0 30.0 8.0 47.0 8.0 69.0 L8.0 74.0 C8.0 82.0 15.0 89.0 23.0 89.0 L65.0 89.0 C70.0 89.0 73.0 86.0 73.0 82.0 C73.0 77.0 76.0 74.0 81.0 74.0 C85.0 74.0 88.0 77.0 88.0 82.0 C88.0 86.0 92.0 89.0 96.0 89.0 L110.0 89.0 C114.0 89.0 117.0 86.0 117.0 82.0 C117.0 77.0 120.0 74.0 125.0 74.0 C129.0 74.0 133.0 77.0 133.0 82.0 C133.0 86.0 136.0 89.0 140.0 89.0 L148.0 89.0 C152.0 89.0 156.0 86.0 156.0 82.0 C156.0 77.0 159.0 74.0 164.0 74.0 C168.0 74.0 172.0 77.0 172.0 82.0 C172.0 86.0 175.0 89.0 179.0 89.0 C183.0 89.0 187.0 86.0 187.0 82.0 L187.0 69.0 C187.0 47.0 168.0 30.0 148.0 30.0 L135.0 30.0 L135.0 30.0 Z M183.0 69.0 L183.0 74.0 C183.0 77.0 180.0 80.0 177.0 80.0 L23.0 80.0 C20.0 80.0 17.0 77.0 17.0 74.0 L17.0 69.0 C17.0 51.0 32.0 36.0 51.0 36.0 L150.0 36.0 C168.0 36.0 183.0 51.0 183.0 69.0 L183.0 69.0 Z"></path>
<path fill="#ffbb22" fill-opacity="1.0"  filling="0" d="M50.0 30.0 C29.0 30.0 9.0 47.0 9.0 69.0 L9.0 74.0 C9.0 77.0 12.0 80.0 16.0 80.0 L43.0 80.0 C47.0 80.0 50.0 77.0 50.0 74.0 C50.0 70.0 53.0 67.0 57.0 67.0 C61.0 67.0 64.0 70.0 64.0 74.0 C64.0 77.0 67.0 80.0 71.0 80.0 L76.0 80.0 C80.0 80.0 83.0 77.0 83.0 74.0 C83.0 70.0 86.0 67.0 90.0 67.0 C94.0 67.0 97.0 70.0 97.0 74.0 C97.0 77.0 100.0 80.0 104.0 80.0 L114.0 80.0 C118.0 80.0 121.0 77.0 121.0 74.0 C121.0 70.0 124.0 67.0 128.0 67.0 C132.0 67.0 135.0 70.0 135.0 74.0 C135.0 77.0 138.0 80.0 142.0 80.0 L146.0 80.0 C150.0 80.0 153.0 77.0 153.0 74.0 C153.0 70.0 156.0 67.0 160.0 67.0 C164.0 67.0 167.0 70.0 167.0 74.0 C167.0 77.0 170.0 80.0 174.0 80.0 L178.0 80.0 C182.0 80.0 185.0 77.0 185.0 74.0 L185.0 69.0 C185.0 47.0 168.0 30.0 147.0 30.0 L50.0 30.0 L50.0 30.0 Z M183.0 69.0 L183.0 74.0 C183.0 77.0 180.0 80.0 177.0 80.0 L23.0 80.0 C20.0 80.0 17.0 77.0 17.0 74.0 L17.0 69.0 C17.0 51.0 32.0 36.0 51.0 36.0 L150.0 36.0 C168.0 36.0 183.0 51.0 183.0 69.0 L183.0 69.0 Z"></path>
<path fill="#ffbb22" fill-opacity="1.0"  filling="0" d="M51.0 30.0 C29.0 30.0 9.0 47.0 9.0 69.0 L9.0 74.0 C9.0 77.0 12.0 80.0 16.0 80.0 L43.0 80.0 C47.0 80.0 50.0 77.0 50.0 74.0 C50.0 70.0 53.0 67.0 57.0 67.0 C61.0 67.0 64.0 70.0 64.0 74.0 C64.0 77.0 67.0 80.0 71.0 80.0 L76.0 80.0 C80.0 80.0 83.0 77.0 83.0 74.0 C83.0 70.0 86.0 67.0 90.0 67.0 C94.0 67.0 97.0 70.0 97.0 74.0 C97.0 77.0 100.0 80.0 104.0 80.0 L114.0 80.0 C118.0 80.0 121.0 77.0 121.0 74.0 C121.0 70.0 124.0 67.0 128.0 67.0 C132.0 67.0 135.0 70.0 135.0 74.0 C135.0 77.0 138.0 80.0 142.0 80.0 L146.0 80.0 C150.0 80.0 153.0 77.0 153.0 74.0 C153.0 70.0 156.0 67.0 160.0 67.0 C164.0 67.0 167.0 70.0 167.0 74.0 C167.0 77.0 170.0 80.0 174.0 80.0 L178.0 80.0 C182.0 80.0 185.0 77.0 185.0 74.0 L185.0 69.0 C185.0 47.0 168.0 30.0 147.0 30.0 L51.0 30.0 L51.0 30.0 Z M183.0 69.0 L183.0 74.0 C183.0 77.0 180.0 80.0 177.0 80.0 L23.0 80.0 C20.0 80.0 17.0 77.0 17.0 74.0 L17.0 69.0 C17.0 51.0 32.0 36.0 51.0 36.0 L150.0 36.0 C168.0 36.0 183.0 51.0 183.0 69.0 L183.0 69.0 Z"></path>
<path fill="#ffbb22" fill-opacity="1.0"  filling="0" d="M149.0 30.0 L149.0 30.0 L149.0 30.0 L149.0 30.0 L149.0 30.0 Z M51.0 30.0 C29.0 30.0 9.0 47.0 9.0 69.0 L9.0 74.0 C9.0 77.0 12.0 80.0 16.0 80.0 L43.0 80.0 C47.0 80.0 50.0 77.0 50.0 74.0 C50.0 70.0 53.0 67.0 57.0 67.0 C61.0 67.0 64.0 70.0 64.0 74.0 C64.0 77.0 67.0 80.0 71.0 80.0 L76.0 80.0 C80.0 80.0 83.0 77.0 83.0 74.0 C83.0 70.0 86.0 67.0 90.0 67.0 C94.0 67.0 97.0 70.0 97.0 74.0 C97.0 77.0 100.0 80.0 104.0 80.0 L114.0 80.0 C118.0 80.0 121.0 77.0 121.0 74.0 C121.0 70.0 124.0 67.0 128.0 67.0 C132.0 67.0 135.0 70.0 135.0 74.0 C135.0 77.0 138.0 80.0 142.0 80.0 L146.0 80.0 C150.0 80.0 153.0 77.0 153.0 74.0 C153.0 70.0 156.0 67.0 160.0 67.0 C164.0 67.0 167.0 70.0 167.0 74.0 C167.0 77.0 170.0 80.0 174.0 80.0 L178.0 80.0 C182.0 80.0 185.0 77.0 185.0 74.0 L185.0 69.0 C185.0 47.0 168.0 30.0 149.0 30.0 L149.0 30.0 Z M183.0 69.0 L183.0 74.0 C183.0 77.0 180.0 80.0 177.0 80.0 L23.0 80.0 C20.0 80.0 17.0 77.0 17.0 74.0 L17.0 69.0 C17.0 51.0 32.0 36.0 51.0 36.0 L150.0 36.0 C168.0 36.0 183.0 51.0 183.0 69.0 L183.0 69.0 Z"></path>
<path fill="#ffbb22" fill-opacity="1.0"  filling="0" d="M149.0 30.0 L149.0 30.0 L149.0 30.0 L149.0 30.0 L149.0 30.0 Z M51.0 30.0 C29.0 30.0 9.0 47.0 9.0 69.0 L9.0 74.0 C9.0 77.0 12.0 80.0 16.0 80.0 L43.0 80.0 C47.0 80.0 50.0 77.0 50.0 74.0 C50.0 70.0 53.0 67.0 57.0 67.0 C61.0 67.0 64.0 70.0 64.0 74.0 C64.0 77.0 67.0 80.0 71.0 80.0 L76.0 80.0 C80.0 80.0 83.0 77.0 83.0 74.0 C83.0 70.0 86.0 67.0 90.0 67.0 C94.0 67.0 97.0 70.0 97.0 74.0 C97.0 77.0 100.0 80.0 104.0 80.0 L114.0 80.0 C118.0 80.0 121.0 77.0 121.0 74.0 C121.0 70.0 124.0 67.0 128.0 67.0 C132.0 67.0 135.0 70.0 135.0 74.0 C135.0 77.0 138.0 80.0 142.0 80.0 L146.0 80.0 C150.0 80.0 153.0 77.0 153.0 74.0 C153.0 70.0 156.0 67.0 160.0 67.0 C164.0 67.0 167.0 70.0 167.0 74.0 C167.0 77.0 170.0 80.0 174.0 80.0 L178.0 80.0 C182.0 80.0 185.0 77.0 185.0 74.0 L185.0 69.0 C185.0 47.0 168.0 30.0 149.0 30.0 L149.0 30.0 Z M183.0 69.0 L183.0 74.0 C183.0 77.0 180.0 80.0 177.0 80.0 L23.0 80.0 C20.0 80.0 17.0 77.0 17.0 74.0 L17.0 69.0 C17.0 51.0 32.0 36.0 51.0 36.0 L150.0 36.0 C168.0 36.0 183.0 51.0 183.0 69.0 L183.0 69.0 Z"></path>
<path fill="#ffeedd" fill-opacity="1.0"  filling="0" d="M106.0 85.0 L169.0 85.0 C177.0 85.0 183.0 91.0 183.0 99.0 L183.0 103.0 C183.0 109.0 179.0 113.0 173.0 113.0 L164.0 113.0 C160.0 113.0 157.0 116.0 157.0 120.0 L157.0 135.0 C157.0 140.0 154.0 143.0 150.0 143.0 C146.0 143.0 143.0 140.0 143.0 135.0 L143.0 119.0 C143.0 115.0 140.0 112.0 136.0 112.0 C133.0 112.0 129.0 115.0 129.0 119.0 L129.0 129.0 C129.0 133.0 126.0 136.0 122.0 136.0 C118.0 136.0 115.0 133.0 115.0 129.0 L115.0 120.0 C115.0 116.0 112.0 113.0 108.0 113.0 C104.0 113.0 100.0 116.0 100.0 120.0 L100.0 135.0 C100.0 140.0 96.0 144.0 91.0 144.0 C86.0 144.0 82.0 140.0 82.0 135.0 L82.0 120.0 C82.0 116.0 79.0 113.0 75.0 113.0 C71.0 113.0 67.0 116.0 67.0 120.0 L67.0 129.0 C67.0 133.0 64.0 136.0 60.0 136.0 C56.0 136.0 52.0 133.0 52.0 129.0 L52.0 120.0 C52.0 116.0 49.0 113.0 45.0 113.0 C41.0 113.0 37.0 116.0 37.0 120.0 L37.0 131.0 C37.0 148.0 50.0 161.0 67.0 161.0 L150.0 161.0 C165.0 161.0 178.0 150.0 178.0 137.0 L178.0 126.0 C178.0 123.0 181.0 120.0 184.0 120.0 C188.0 120.0 191.0 123.0 191.0 126.0 L191.0 137.0 C191.0 157.0 173.0 174.0 150.0 174.0 L50.0 174.0 C27.0 174.0 9.0 157.0 9.0 137.0 L9.0 131.0 C9.0 122.0 16.0 115.0 25.0 115.0 L65.0 115.0 C68.0 115.0 71.0 112.0 71.0 108.0 C71.0 104.0 74.0 101.0 78.0 101.0 C82.0 101.0 85.0 104.0 85.0 108.0 C85.0 112.0 88.0 115.0 92.0 115.0 L94.0 115.0 C98.0 115.0 101.0 112.0 101.0 108.0 C101.0 104.0 104.0 101.0 108.0 101.0 C112.0 101.0 115.0 104.0 115.0 108.0 C115.0 112.0 118.0 115.0 122.0 115.0 L125.0 115.0 C129.0 115.0 132.0 112.0 132.0 108.0 C132.0 104.0 135.0 101.0 139.0 101.0 C143.0 101.0 146.0 104.0 146.0 108.0 L146.0 120.0 C146.0 124.0 149.0 127.0 153.0 127.0 C157.0 127.0 160.0 124.0 160.0 120.0 L160.0 113.0 C160.0 109.0 163.0 106.0 167.0 106.0 C171.0 106.0 174.0 103.0 174.0 99.0 C174.0 96.0 171.0 93.0 167.0 93.0 L26.0 93.0 C20.0 93.0 17.0 96.0 17.0 101.0 C17.0 106.0 20.0 109.0 25.0 109.0 L65.0 109.0 C68.0 109.0 71.0 112.0 71.0 115.0 C71.0 119.0 74.0 122.0 78.0 122.0 C82.0 122.0 85.0 119.0 85.0 115.0 C85.0 112.0 88.0 109.0 92.0 109.0 L94.0 109.0 C98.0 109.0 101.0 112.0 101.0 115.0 C101.0 119.0 104.0 122.0 108.0 122.0 C112.0 122.0 115.0 119.0 115.0 115.0 C115.0 112.0 118.0 109.0 122.0 109.0 L125.0 109.0 C129.0 109.0 132.0 112.0 132.0 115.0 C132.0 119.0 135.0 122.0 139.0 122.0 C143.0 122.0 146.0 119.0 146.0 115.0 C146.0 112.0 149.0 109.0 153.0 109.0 L175.0 109.0 C183.0 109.0 191.0 102.0 191.0 93.0 C191.0 84.0 183.0 76.0 175.0 76.0 L106.0 76.0 C102.0 76.0 99.0 73.0 99.0 69.0 C99.0 65.0 103.0 62.0 107.0 62.0 C111.0 62.0 114.0 65.0 114.0 69.0 C114.0 73.0 117.0 76.0 121.0 76.0 L137.0 76.0 C141.0 76.0 144.0 73.0 144.0 69.0 C144.0 65.0 147.0 62.0 151.0 62.0 C155.0 62.0 158.0 65.0 158.0 69.0 C158.0 73.0 161.0 76.0 165.0 76.0 L167.0 76.0 C174.0 76.0 179.0 70.0 179.0 63.0 C179.0 54.0 174.0 48.0 167.0 48.0 L57.0 48.0 C43.0 48.0 31.0 59.0 31.0 74.0 L31.0 85.0 L106.0 85.0 L106.0 85.0 Z"></path>
<path fill="#ffeedd" fill-opacity="1.0"  filling="0" d="M106.0 85.0 L169.0 85.0 C177.0 85.0 183.0 91.0 183.0 99.0 L183.0 103.0 C183.0 109.0 179.0 113.0 173.0 113.0 L164.0 113.0 C160.0 113.0 157.0 116.0 157.0 120.0 L157.0 135.0 C157.0 140.0 154.0 143.0 150.0 143.0 C146.0 143.0 143.0 140.0 143.0 135.0 L143.0 119.0 C143.0 115.0 140.0 112.0 136.0 112.0 C133.0 112.0 129.0 115.0 129.0 119.0 L129.0 129.0 C129.0 133.0 126.0 136.0 122.0 136.0 C118.0 136.0 115.0 133.0 115.0 129.0 L115.0 120.0 C115.0 116.0 112.0 113.0 108.0 113.0 C104.0 113.0 100.0 116.0 100.0 120.0 L100.0 135.0 C100.0 140.0 96.0 144.0 91.0 144.0 C86.0 144.0 82.0 140.0 82.0 135.0 L82.0 120.0 C82.0 116.0 79.0 113.0 75.0 113.0 C71.0 113.0 67.0 116.0 67.0 120.0 L67.0 129.0 C67.0 133.0 64.0 136.0 60.0 136.0 C56.0 136.0 52.0 133.0 52.0 129.0 L52.0 120.0 C52.0 116.0 49.0 113.0 45.0 113.0 C41.0 113.0 37.0 116.0 37.0 120.0 L37.0 131.0 C37.0 148.0 50.0 161.0 67.0 161.0 L150.0 161.0 C165.0 161.0 178.0 150.0 178.0 137.0 L178.0 126.0 C178.0 123.0 181.0 120.0 184.0 120.0 C188.0 120.0 191.0 123.0 191.0 126.0 L191.0 137.0 C191.0 157.0 173.0 174.0 150.0 174.0 L50.0 174.0 C27.0 174.0 9.0 157.0 9.0 137.0 L9.0 131.0 C9.0 122.0 16.0 115.0 25.0 115.0 L65.0 115.0 C68.0 115.0 71.0 112.0 71.0 108.0 C71.0 104.0 74.0 101.0 78.0 101.0 C82.0 101.0 85.0 104.0 85.0 108.0 C85.0 112.0 88.0 115.0 92.0 115.0 L94.0 115.0 C98.0 115.0 101.0 112.0 101.0 108.0 C101.0 104.0 104.0 101.0 108.0 101.0 C112.0 101.0 115.0 104.0 115.0 108.0 C115.0 112.0 118.0 115.0 122.0 115.0 L125.0 115.0 C129.0 115.0 132.0 112.0 132.0 108.0 C132.0 104.0 135.0 101.0 139.0 101.0 C143.0 101.0 146.0 104.0 146.0 108.0 L146.0 120.0 C146.0 124.0 149.0 127.0 153.0 127.0 C157.0 127.0 160.0 124.0 160.0 120.0 L160.0 113.0 C160.0 109.0 163.0 106.0 167.0 106.0 C171.0 106.0 174.0 103.0 174.0 99.0 C174.0 96.0 171.0 93.0 167.0 93.0 L26.0 93.0 C20.0 93.0 17.0 96.0 17.0 101.0 C17.0 106.0 20.0 109.0 25.0 109.0 L65.0 109.0 C68.0 109.0 71.0 112.0 71.0 115.0 C71.0 119.0 74.0 122.0 78.0 122.0 C82.0 122.0 85.0 119.0 85.0 115.0 C85.0 112.0 88.0 109.0 92.0 109.0 L94.0 109.0 C98.0 109.0 101.0 112.0 101.0 115.0 C101.0 119.0 104.0 122.0 108.0 122.0 C112.0 122.0 115.0 119.0 115.0 115.0 C115.0 112.0 118.0 109.0 122.0 109.0 L125.0 109.0 C129.0 109.0 132.0 112.0 132.0 115.0 C132.0 119.0 135.0 122.0 139.0 122.0 C143.0 122.0 146.0 119.0 146.0 115.0 C146.0 112.0 149.0 109.0 153.0 109.0 L175.0 109.0 C183.0 109.0 191.0 102.0 191.0 93.0 C191.0 84.0 183.0 76.0 175.0 76.0 L106.0 76.0 C102.0 76.0 99.0 73.0 99.0 69.0 C99.0 65.0 103.0 62.0 107.0 62.0 C111.0 62.0 114.0 65.0 114.0 69.0 C114.0 73.0 117.0 76.0 121.0 76.0 L137.0 76.0 C141.0 76.0 144.0 73.0 144.0 69.0 C144.0 65.0 147.0 62.0 151.0 62.0 C155.0 62.0 158.0 65.0 158.0 69.0 C158.0 73.0 161.0 76.0 165.0 76.0 L167.0 76.0 C174.0 76.0 179.0 70.0 179.0 63.0 C179.0 54.0 174.0 48.0 167.0 48.0 L57.0 48.0 C43.0 48.0 31.0 59.0 31.0 74.0 L31.0 85.0 L106.0 85.0 L106.0 85.0 Z"></path>
<path fill="#000000" fill-opacity="1.0"  filling="0" d="M106.0 85.0 L169.0 85.0 C177.0 85.0 183.0 91.0 183.0 99.0"></path></svg>