<svg xmlns="http://www.w3.org/2000/svg" viewBox="0.0 0.0 200.0 200.0" height="200px" width="200px"><path fill="#ffcc11" fill-opacity="1.0"  filling="0" d="M23.0 80.0 L177.0 80.0 C180.0 80.0 183.0 77.0 183.0 74.0 L183.0 69.0 C183.0 51.0 168.0 36.0 150.0 36.0 L50.0 36.0 C32.0 36.0 17.0 51.0 17.0 69.0 L17.0 74.0 C17.0 77.0 20.0 80.0 23.0 80.0 L23.0 80.0 Z"></path>
<path fill="#000000" fill-opacity="1.0"  filling="0" d="M62.0 62.0 C60.0 62.0 58.0 61.0 57.0 59.0 C56.0 57.0 57.0 54.0 59.0 53.0 C64.0 51.0 69.0 50.0 127.0 50.0 C126.0 50.0 126.0 50.0 126.0 50.0 C123.0 50.0 121.0 52.0 121.0 55.0 C121.0 57.0 123.0 59.0 126.0 59.0 C126.0 59.0 126.0 59.0 127.0 59.0 C130.0 59.0 135.0 60.0 138.0 62.0 C140.0 63.0 142.0 64.0 143.0 65.0 C144.0 67.0 146.0 69.0 148.0 71.0 C149.0 73.0 150.0 76.0 148.0 78.0 C146.0 79.0 143.0 80.0 142.0 78.0 C140.0 77.0 139.0 76.0 138.0 74.0 C137.0 73.0 136.0 72.0 134.0 71.0 C131.0 69.0 127.0 68.0 126.0 68.0 C124.0 68.0 122.0 67.0 120.0 66.0 C117.0 64.0 114.0 60.0 114.0 55.0 C114.0 49.0 119.0 43.0 126.0 43.0 C126.0 43.0 126.0 43.0 127.0 43.0 C133.0 43.0 139.0 44.0 145.0 47.0 C147.0 48.0 148.0 50.0 148.0 52.0 C147.0 54.0 145.0 55.0 143.0 54.0 C138.0 52.0 133.0 51.0 127.0 51.0 C126.0 51.0 126.0 51.0 126.0 51.0 C124.0 51.0 123.0 53.0 123.0 55.0 C123.0 56.0 124.0 58.0 126.0 58.0 C126.0 58.0 126.0 58.0 127.0 58.0 C131.0 58.0 136.0 59.0 139.0 61.0 C141.0 62.0 143.0 63.0 144.0 64.0 C146.0 66.0 147.0 68.0 149.0 70.0 C150.0 73.0 151.0 76.0 149.0 77.0 C147.0 79.0 144.0 79.0 143.0 77.0 C141.0 76.0 140.0 75.0 139.0 74.0 C138.0 73.0 137.0 72.0 135.0 71.0 C132.0 69.0 128.0 68.0 126.0 68.0 C124.0 68.0 122.0 68.0 121.0 67.0 C117.0 64.0 115.0 60.0 115.0 55.0 C115.0 50.0 119.0 44.0 126.0 44.0 C126.0 44.0 126.0 44.0 127.0 44.0 C133.0 44.0 140.0 45.0 145.0 47.0 C148.0 48.0 149.0 50.0 148.0 52.0 C148.0 53.0 146.0 54.0 145.0 54.0 C144.0 55.0 143.0 55.0 142.0 54.0 C138.0 52.0 133.0 51.0 127.0 51.0 C126.0 51.0 126.0 51.0 126.0 51.0 C124.0 51.0 122.0 53.0 122.0 55.0 C122.0 57.0 124.0 59.0 126.0 59.0 C126.0 59.0 126.0 59.0 127.0 59.0 C131.0 59.0 135.0 60.0 138.0 62.0 C140.0 63.0 142.0 64.0 143.0 65.0 C145.0 67.0 146.0 69.0 147.0 71.0 C148.0 73.0 149.0 76.0 148.0 77.0 C147.0 79.0 144.0 79.0 142.0 77.0 C141.0 76.0 139.0 75.0 138.0 74.0 C137.0 73.0 136.0 72.0 134.0 71.0 C131.0 69.0 128.0 68.0 126.0 68.0 C124.0 68.0 122.0 67.0 120.0 66.0 C117.0 64.0 115.0 60.0 115.0 55.0 C115.0 49.0 120.0 43.0 126.0 43.0 C126.0 43.0 126.0 43.0 127.0 43.0 C133.0 43.0 139.0 44.0 145.0 46.0 C147.0 47.0 149.0 50.0 148.0 52.0 C148.0 53.0 146.0 54.0 145.0 55.0 C144.0 55.0 143.0 55.0 142.0 55.0 C138.0 52.0 133.0 51.0 127.0 51.0 C126.0 51.0 126.0 51.0 126.0 51.0 C124.0 51.0 122.0 53.0 122.0 55.0 C122.0 57.0 124.0 58.0 126.0 58.0 C126.0 58.0 126.0 58.0 127.0 58.0 C131.0 58.0 136.0 59.0 139.0 61.0 C141.0 62.0 143.0 63.0 144.0 64.0 C146.0 66.0 147.0 68.0 149.0 70.0 C150.0 73.0 151.0 76.0 149.0 77.0 C147.0 79.0 144.0 79.0 143.0 77.0 C141.0 76.0 140.0 75.0 139.0 74.0 C138.0 73.0 136.0 72.0 135.0 71.0 C132.0 69.0 128.0 68.0 126.0 68.0 C124.0 68.0 122.0 68.0 121.0 67.0 C117.0 64.0 115.0 60.0 115.0 55.0 C115.0 50.0 119.0 44.0 126.0 44.0 C126.0 44.0 126.0 44.0 127.0 44.0 C133.0 44.0 140.0 45.0 145.0 47.0 C147.0 48.0 148.0 50.0 148.0 52.0 C148.0 53.0 146.0 54.0 145.0 54.0 C144.0 55.0 143.0 55.0 142.0 54.0 C138.0 52.0 133.0 51.0 127.0 51.0 C126.0 51.0 126.0 51.0 126.0 51.0 C124.0 51.0 122.0 53.0 122.0 55.0 C122.0 57.0 124.0 58.0 126.0 58.0 C126.0 58.0 126.0 58.0 127.0 58.0 C131.0 58.0 136.0 59.0 139.0 61.0 C141.0 62.0 142.0 63.0 143.0 65.0 C145.0 67.0 146.0 69.0 147.0 71.0 C148.0 73.0 149.0 76.0 148.0 77.0 C147.0 79.0 144.0 79.0 142.0 77.0 C141.0 76.0 139.0 75.0 138.0 74.0 C137.0 73.0 136.0 72.0 134.0 71.0 C131.0 69.0 128.0 68.0 126.0 68.0 C124.0 68.0 122.0 67.0 120.0 66.0 C117.0 64.0 115.0 60.0 115.0 55.0 C115.0 49.0 120.0 43.0 126.0 43.0 C126.0 43.0 126.0 43.0 127.0 43.0 C133.0 43.0 139.0 44.0 145.0 47.0 C147.0 48.0 148.0 50.0 148.0 52.0 C148.0 53.0 146.0 54.0 145.0 55.0 C144.0 55.0 143.0 55.0 142.0 55.0 C138.0 52.0 133.0 51.0 127.0 51.0 C126.0 51.0 126.0 51.0 126.0 51.0 C124.0 51.0 122.0 53.0 122.0 55.0 C122.0 57.0 124.0 58.0 126.0 58.0 C126.0 58.0 126.0 58.0 127.0 58.0 C131.0 58.0 136.0 59.0 139.0 61.0 C141.0 62.0 142.0 63.0 143.0 65.0 C145.0 67.0 146.0 69.0 147.0 71.0 C148.0 73.0 149.0 76.0 148.0 77.0 C147.0 79.0 144.0 79.0 142.0 77.0 C141.0 76.0 140.0 75.0 139.0 74.0 C138.0 73.0 136.0 72.0 135.0 71.0 C132.0 69.0 128.0 68.0 126.0 68.0 C124.0 68.0 122.0 68.0 121.0 67.0 C117.0 64.0 115.0 60.0 115.0 55.0 C115.0 50.0 119.0 44.0 126.0 44.0 C126.0 44.0 126.0 44.0 127.0 44.0 C133.0 44.0 140.0 45.0 145.0 47.0 C147.0 48.0 148.0 50.0 148.0 52.0 C148.0 53.0 146.0 54.0 145.0 54.0 C144.0 55.0 143.0 55.0 142.0 54.0 C138.0 52.0 133.0 51.0 127.0 51.0 C126.0 51.0 126.0 51.0 126.0 51.0 C124.0 51.0 122.0 53.0 122.0 55.0 C122.0 57.0 124.0 58.0 126.0 58.0 C126.0 58.0 126.0 58.0 127.0 58.0 C131.0 58.0 136.0 59.0 139.0 61.0 C141.0 62.0 142.0 63.0 143.0 65.0 C145.0 67.0 146.0 69.0 147.0 71.0 C148.0 73.0 149.0 76.0 148.0 77.0 C147.0 79.0 144.0 79.0 142.0 77.0 C141.0 76.0 140.0 75.0 139.0 74.0 C138.0 73.0 136.0 72.0 135.0 71.0 C132.0 69.0 128.0 68.0 126.0 68.0 C124.0 68.0 122.0 68.0 121.0 67.0 C117.0 64.0 115.0 60.0 115.0 55.0 C115.0 50.0 119.0 43.0 126.0 43.0 C126.0 43.0 126.0 43.0 127.0 43.0 C133.0 43.0 139.0 44.0 145.0 46.0 C147.0 47.0 148.0 50.0 148.0 52.0 C148.0 53.0 146.0 54.0 145.0 54.0 C144.0 55.0 143.0 55.0 142.0 54.0 C138.0 52.0 133.0 51.0 127.0 51.0 C126.0 51.0 126.0 51.0 126.0 51.0 C124.0 51.0 122.0 53.0 122.0 55.0 C122.0 57.0 124.0 58.0 126.0 58.0 C126.0 58.0 126.0 58.0 127.0 58.0 C131.0 58.0 136.0 59.0 139.0 61.0 C141.0 62.0 142.0 63.0 143.0 65.0 C145.0 67.0 146.0 69.0 147.0 71.0 C148.0 73.0 149.0 76.0 148.0 77.0 C147.0 79.0 144.0 79.0 142.0 77.0 C141.0 76.0 140.0 75.0 139.0 74.0 C138.0 73.0 136.0 72.0 135.0 71.0 C132.0 69.0 128.0 68.0 126.0 68.0 C124.0 68.0 122.0 67.0 120.0 66.0 C117.0 64.0 115.0 60.0 115.0 55.0 C115.0 50.0 119.0 44.0 126.0 44.0 C126.0 44.0 126.0 44.0 127.0 44.0 C133.0 44.0 140.0 45.0 145.0 47.0 C147.0 48.0 148.0 50.0 148.0 52.0 C148.0 53.0 146.0 54.0 145.0 54.0 C144.0 55.0 143.0 55.0 142.0 54.0 C138.0 52.0 133.0 51.0 127.0 51.0 C126.0 51.0 126.0 51.0 126.0 51.0 C124.0 51.0 122.0 53.0 122.0 55.0 C122.0 57.0 124.0 58.0 126.0 58.0 C126.0 58.0 126.0 58.0 127.0 58.0 C131.0 58.0 136.0 59.0 139.0 61.0 C141.0 62.0 142.0 63.0 143.0 65.0 C145.0 67.0 146.0 69.0 147.0 71.0 C148.0 73.0 149.0 76.0 148.0 77.0 C147.0 79.0 144.0 79.0 142.0 77.0 C141.0 76.0 140.0 75.0 139.0 74.0 C138.0 73.0 136.0 72.0 135.0 71.0 C132.0 69.0 128.0 68.0 126.0 68.0 C124.0 68.0 122.0 68.0 121.0 67.0 C117.0 64.0 115.0 60.0 115.0 55.0 C115.0 50.0 119.0 43.0 126.0 43.0 C126.0 43.0 126.0 43.0 127.0 43.0 C133.0 43.0 139.0 44.0 145.0 46.0 C147.0 47.0 148.0 50.0 148.0 52.0 C148.0 53.0 146.0 54.0 145.0 54.0 C144.0 55.0 143.0 55.0 142.0 54.0 C138.0 52.0 133.0 51.0 127.0 51.0 C126.0 51.0 126.0 51.0 126.0 51.0 C124.0 51.0 122.0 53.0 122.0 55.0 C122.0 57.0 124.0 58.0 126.0 58.0 C126.0 58.0 126.0 58.0 127.0 58.0 C131.0 58.0 136.0 59.0 139.0 61.0 C141.0 62.0 142.0 63.0 143.0 65.0 C145.0 67.0 146.0 69.0 147.0 71.0 C148.0 73.0 149.0 76.0 148.0 77.0 C147.0 79.0 144.0 79.0 142.0 77.0 C141.0 76.0 140.0 75.0 139.0 74.0 C138.0 73.0 136.0 72.0 135.0 71.0 C132.0 69.0 128.0 68.0 126.0 68.0 C124.0 68.0 122.0 67.0 121.0 66.0 C117.0 64.0 115.0 60.0 115.0 55.0 C115.0 50.0 119.0 43.0 126.0 43.0 C126.0 43.0 126.0 43.0 127.0 43.0 C133.0 43.0 139.0 44.0 145.0 46.0 C147.0 47.0 148.0 50.0 148.0 52.0 C148.0 53.0 146.0 54.0 145.0 54.0 C144.0 55.0 143.0 55.0 142.0 54.0 C138.0 52.0 133.0 51.0 127.0 51.0 C126.0 51.0 126.0 51.0 126.0 51.0 C124.0 51.0 122.0 53.0 122.0 55.0 C122.0 57.0 124.0 58.0 126.0 58.0 C126.0 58.0 126.0 58.0 127.0 58.0 C131.0 58.0 136.0 59.0 139.0 61.0 C141.0 62.0 142.0 63.0 143.0 65.0 C145.0 67.0 146.0 69.0 147.0 71.0 C148.0 73.0 149.0 76.0 148.0 77.0 C147.0 79.0 144.0 79.0 142.0 77.0 C141.0 76.0 140.0 75.0 139.0 74.0 C138.0 73.0 136.0 72.0 135.0 71.0 C132.0 69.0 128.0 68.0 126.0 68.0 C124.0 68.0 122.0 68.0 121.0 67.0 C117.0 64.0 115.0 60.0 115.0 55.0 C115.0 50.0 119.0 43.0 126.0 43.0 C126.0 43.0 126.0 43.0 127.0 43.0 C133.0 43.0 139.0 44.0 145.0 46.0 C147.0 47.0 148.0 50.0 148.0 52.0 C148.0 53.0 146.0 54.0 145.0 54.0 C144.0 55.0 143.0 55.0 142.0 54.0 C138.0 52.0 133.0 51.0 127.0 51.0 C126.0 51.0 126.0 51.0 126.0 51.0 C124.0 51.0 122.0 53.0 122.0 55.0 C122.0 57.0 124.0 58.0 126.0 58.0 C126.0 58.0 126.0 58.0 127.0 58.0 C131.0 58.0 136.0 59.0 139.0 61.0 C141.0 62.0 142.0 63.0 143.0 65.0 C145.0 67.0 146.0 69.0 147.0 71.0 C148.0 73.0 149.0 76.0 148.0 77.0 C147.0 79.0 144.0 79.0 142.0 77.0 C141.0 76.0 140.0 75.0 139.0 74.0 C138.0 73.0 136.0 72.0 135.0 71.0 C132.0 69.0 128.0 68.0 126.0 68.0 C124.0 68.0 122.0 68.0 121.0 67.0 C117.0 64.0 115.0 60.0 115.0 55.0 C115.0 50.0 119.0 43.0 126.0 43.0 C126.0 43.0 126.0 43.0 127.0 43.0 C133.0 43.0 139.0 44.0 145.0 46.0 C147.0 47.0 148.0 50.0 148.0 52.0 C148.0 53.0 146.0 54.0 145.0 55.0 C144.0 55.0 143.0 55.0 142.0 54.0 C138.0 52.0 133.0 51.0 127.0 51.0 C126.0 51.0 126.0 51.0 126.0 51.0 C124.0 51.0 122.0 53.0 122.0 55.0 C122.0 57.0 124.0 58.0 126.0 58.0 C126.0 58.0 126.0 58.0 127.0 58.0 C131.0 58.0 136.0 59.0 139.0 61.0 C141.0 62.0 142.0 63.0 143.0 65.0 C145.0 67.0 146.0 69.0 147.0 71.0 C148.0 73.0 149.0 76.0 148.0 77.0 C147.0 79.0 144.0 79.0 142.0 77.0 C141.0 76.0 140.0 75.0 139.0 74.0 C138.0 73.0 136.0 72.0 135.0 71.0 C132.0 69.0 128.0 68.0 126.0 68.0 C124.0 68.0 122.0 68.0 121.0 67.0 C117.0 64.0 115.0 60.0 115.0 55.0 C115.0 50.0 119.0 43.0 126.0 43.0 C126.0 43.0 126.0 43.0 127.0 43.0 C133.0 43.0 139.0 44.0 145.0 46.0 C147.0 47.0 148.0 50.0 148.0 52.0 C148.0 53.0 146.0 54.0 145.0 55.0 C144.0 55.0 143.0 55.0 142.0 54.0 C138.0 52.0 133.0 51.0 127.0 51.0 C126.0 51.0 126.0 51.0 126.0 51.0 C124.0 51.0 122.0 53.0 122.0 55.0 C122.0 57.0 124.0 58.0 126.0 58.0 C126.0 58.0 126.0 58.0 127.0 58.0 C131.0 58.0 136.0 59.0 139.0 61.0 C141.0 62.0 142.0 63.0 143.0 65.0 C145.0 67.0 146.0 69.0 147.0 71.0 C148.0 73.0 149.0 76.0 148.0 77.0 C147.0 79.0 144.0 79.0 142.0 77.0 C141.0 76.0 140.0 75.0 139.0 74.0 C138.0 73.0 136.0 72.0 135.0 71.0 C132.0 69.0 128.0 68.0 126.0 68.0 C124.0 68.0 122.0 68.0 121.0 67.0 C117.0 64.0 115.0 60.0 115.0 55.0 C115.0 50.0 119.0 43.0 126.0 43.0 C126.0 43.0 126.0 43.0 127.0 43.0 C133.0 43.0 139.0 44.0 145.0 46.0 C147.0 47.0 148.0 50.0 148.0 52.0 C148.0 53.0 146.0 54.0 145.0 55.0 C144.0 55.0 143.0 55.0 142.0 54.0 C138.0 52.0 133.0 51.0 127.0 51.0 C126.0 51.0 126.0 51.0 126.0 51.0 C124.0 51.0 122.0 53.0 122.0 55.0 C122.0 57.0 124.0 58.0 126.0 58.0 C126.0 58.0 126.0 58.0 127.0 58.0 C131.0 58.0 136.0 59.0 139.0 61.0 C141.0 62.0 142.0 63.0 143.0 65.0 C145.0 67.0 146.0 69.0 147.0 71.0 C148.0 73.0 149.0 76.0 148.0 77.0 C147.0 79.0 144.0 79.0 142.0 77.0 C141.0 76.0 140.0 75.0 139.0 74.0 C138.0 73.0 136.0 72.0 135.0 71.0 C132.0 69.0 128.0 68.0 126.0 68.0 C124.0 68.0 122.0 68.0 121.0 67.0 C117.0 64.0 115.0 60.0 115.0 55.0 C115.0 50.0 119.0 43.0 126.0 43.0 C126.0 43.0 126.0 43.0 127.0 43.0 C133.0 43.0 139.0 44.0 145.0 46.0 C147.0 47.0 148.0 50.0 148.0 52.0 C148.0 53.0 146.0 54.0 145.0 55.0 C144.0 55.0 143.0 55.0 142.0 54.0 C138.0 52.0 133.0 51.0 127.0 51.0 C126.0 51.0 126.0 51.0 126.0 51.0 C124.0 51.0 122.0 53.0 122.0 55.0 C122.0 57.0 124.0 58.0 126.0 58.0 C126.0 58.0 126.0 58.0 127.0 58.0 C131.0 58.0 136.0 59.0 139.0 61.0 C141.0 62.0 142.0 63.0 143.0 65.0 C145.0 67.0 146.0 69.0 147.0 71.0 C148.0 73.0 149.0 76.0 148.0 77.0 C147.0 79.0 144.0 79.0 142.0 77.0 C141.0 76.0 140.0 75.0 139.0 74.0 C138.0 73.0 136.0 72.0 135.0 71.0 C132.0 69.0 128.0 68.0 126.0 68.0 C124.0 68.0 122.0 68.0 121.0 67.0 C117.0 64.0 115.0 60.0 115.0 55.0 C115.0 50.0 119.0 43.0 126.0 43.0 C126.0 43.0 126.0 43.0 127.0 43.0 C133.0 43.0 139.0 44.0 145.0 46.0 C147.0 47.0 148.0 50.0 148.0 52.0 C148.0 53.0 146.0 54.0 145.0 54.0 C144.0 55.0 143.0 55.0 142.0 54.0 C138.0 52.0 133.0 51.0 127.0 51.0 C126.0 51.0 126.0 51.0 126.0 51.0 C124.0 51.0 122.0 53.0 122.0 55.0 C122.0 57.0 124.0 58.0 126.0 58.0 C126.0 58.0 126.0 58.0 127.0 58.0 C131.0 58.0 136.0 59.0 139.0 61.0 C141.0 62.0 142.0 63.0 143.0 65.0 C145.0 67.0 146.0 69.0 147.0 71.0 C148.0 73.0 149.0 76.0 148.0 77.0 C147.0 79.0 144.0 79.0 142.0 77.0 C141.0 76.0 140.0 75.0 139.0 74.0 C138.0 73.0 136.0 72.0 135.0 71.0 C132.0 69.0 128.0 68.0 126.0 68.0 C124.0 68.0 122.0 68.0 121.0 67.0 C117.0 64.0 115.0 60.0 115.0 55.0 C115.0 50.0 119.0 43.0 126.0 43.0 C126.0 43.0 126.0 43.0 127.0 43.0 C133.0 43.0 139.0 44.0 145.0 46.0 C147.0 47.0 148.0 50.0 148.0 52.0 C148.0 53.0 146.0 54.0 145.0 54.0 C144.0 55.0 143.0 55.0 142.0 54.0 C138.0 52.0 133.0 51.0 127.0 51.0 C126.0 51.0 126.0 51.0 126.0 51.0 C124.0 51.0 122.0 53.0 122.0 55.0 C122.0 57.0 124.0 58.0 126.0 58.0 C126.0 58.0 126.0 58.0 127.0 58.0 C131.0 58.0 136.0 59.0 139.0 61.0 C141.0 62.0 142.0 63.0 143.0 65.0 C145.0 67.0 146.0 69.0 147.0 71.0 C148.0 73.0 149.0 76.0 148.0 77.0 C147.0 79.0 144.0 79.0 142.0 77.0 C141.0 76.0 140.0 75.0 139.0 74.0 C138.0 73.0 136.0 72.0 135.0 71.0 C132.0 69.0 128.0 68.0 126.0 68.0 C124.0 68.0 122.0 68.0 121.0 67.0 C117.0 64.0 115.0 60.0 115.0 55.0"></path></svg>