<svg xmlns="http://www.w3.org/2000/svg" viewBox="0.0 0.0 200.0 200.0" height="200px" width="200px"><path fill="#ffcc11" fill-opacity="1.0"  filling="0" d="M23.0 80.0 L177.0 80.0 C180.0 80.0 183.0 77.0 183.0 74.0 L183.0 69.0 C183.0 51.0 168.0 36.0 150.0 36.0 L50.0 36.0 C32.0 36.0 17.0 51.0 17.0 69.0 L17.0 74.0 C17.0 77.0 20.0 80.0 23.0 80.0 L23.0 80.0 Z"></path>
<path fill="#ffeedd" fill-opacity="1.0"  filling="0" d="M91.0 100.0 L27.0 100.0 C20.0 100.0 15.0 105.0 15.0 112.0 L15.0 118.0 C15.0 124.0 20.0 130.0 27.0 130.0 L30.0 130.0 L30.0 135.0 C30.0 142.0 35.0 148.0 42.0 148.0 C49.0 148.0 55.0 142.0 55.0 135.0 L55.0 130.0 L80.0 130.0 L80.0 135.0 C80.0 142.0 85.0 148.0 92.0 148.0 C98.0 148.0 103.0 142.0 103.0 135.0 L103.0 130.0 L108.0 130.0 C115.0 130.0 120.0 124.0 120.0 118.0 L120.0 112.0 C120.0 105.0 115.0 100.0 108.0 100.0 L91.0 100.0 L91.0 100.0 Z"></path>
<path fill="#ffeedd" fill-opacity="1.0"  filling="0" d="M90.0 100.0 L109.0 100.0 C115.0 100.0 120.0 105.0 120.0 111.0 L120.0 117.0 C120.0 124.0 115.0 130.0 109.0 130.0 L100.0 130.0 L100.0 135.0 C100.0 142.0 96.0 148.0 89.0 148.0 C83.0 148.0 77.0 142.0 77.0 135.0 L77.0 130.0 L54.0 130.0 L54.0 135.0 C54.0 142.0 49.0 148.0 42.0 148.0 C36.0 148.0 30.0 142.0 30.0 135.0 L30.0 130.0 L28.0 130.0 C20.0 130.0 15.0 124.0 15.0 117.0 L15.0 111.0 C15.0 105.0 20.0 100.0 28.0 100.0 L90.0 100.0"></path>
<path fill="#eeaa88" fill-opacity="1.0"  filling="0" d="M80.0 130.0 L80.0 135.0 C80.0 142.0 85.0 148.0 92.0 148.0 C98.0 148.0 103.0 142.0 103.0 135.0 L103.0 130.0 L92.0 130.0 L80.0 130.0 L80.0 130.0 Z M170.0 130.0 L170.0 135.0 C170.0 142.0 176.0 148.0 182.0 148.0 C188.0 148.0 193.0 142.0 193.0 135.0 L193.0 130.0 L180.0 130.0 L170.0 130.0 L170.0 130.0 Z M80.0 130.0 L80.0 130.0 L79.0 130.0 L80.0 130.0 L80.0 130.0 Z"></path>
<path fill="#eeaa88" fill-opacity="1.0"  filling="0" d="M170.0 130.0 L180.0 130.0 L180.0 130.0 L170.0 130.0 L170.0 130.0 Z"></path>
<path fill="#eeaa88" fill-opacity="1.0"  filling="0" d="M30.0 130.0 L30.0 130.0 L29.0 130.0 L30.0 130.0 L30.0 130.0 Z"></path>
<path fill="#eeaa88" fill-opacity="1.0"  filling="0" d="M80.0 130.0 L79.0 130.0 L80.0 130.0 L80.0 130.0 L80.0 130.0 Z"></path>
<path fill="#ffeedd" fill-opacity="1.0"  filling="0" d="M106.0 150.0 A10.0 10.0 0.0 1 0 126.0 150.0 A10.0 10.0 0.0 1 0 106.0 150.0 L106.0 150.0 Z"></path>
<path fill="#ffeedd" fill-opacity="1.0"  filling="0" d="M139.0 150.0 A10.0 10.0 0.0 1 0 159.0 150.0 A10.0 10.0 0.0 1 0 139.0 150.0 L139.0 150.0 Z"></path>
<path fill="#ffeedd" fill-opacity="1.0"  filling="0" d="M177.0 150.0 A10.0 10.0 0.0 1 0 197.0 150.0 A10.0 10.0 0.0 1 0 177.0 150.0 L177.0 150.0 Z"></path>
<path fill="#ffeedd" fill-opacity="1.0"  filling="0" d="M30.0 150.0 A10.0 10.0 0.0 1 0 50.0 150.0 A10.0 10.0 0.0 1 0 30.0 150.0 L30.0 150.0 Z"></path>
<path fill="#ffeedd" fill-opacity="1.0"  filling="0" d="M64.0 150.0 A10.0 10.0 0.0 1 0 84.0 150.0 A10.0 10.0 0.0 1 0 64.0 150.0 L64.0 150.0 Z"></path>
<path fill="#ffcc11" fill-opacity="1.0"  filling="0" d="M138.0 80.0 L33.0 80.0 C30.0 80.0 27.0 77.0 27.0 74.0 L27.0 69.0 C27.0 51.0 42.0 36.0 60.0 36.0 L119.0 36.0 C137.0 36.0 150.0 51.0 150.0 69.0 L150.0 74.0 C150.0 77.0 146.0 80.0 142.0 80.0 L138.0 80.0 L138.0 80.0 Z"></path>
<path fill="#223344" fill-opacity="1.0"  filling="0" d="M14.0 14.0 C12.0 14.0 11.0 16.0 11.0 18.0 L11.0 22.0 C11.0 24.0 12.0 26.0 14.0 26.0 C16.0 26.0 17.0 24.0 17.0 22.0 L17.0 18.0 C17.0 16.0 16.0 14.0 14.0 14.0 L14.0 14.0 Z M14.0 32.0 C12.0 32.0 11.0 34.0 11.0 36.0 L11.0 42.0 C11.0 43.0 12.0 45.0 14.0 45.0 C16.0 45.0 17.0 43.0 17.0 42.0 L17.0 36.0 C17.0 34.0 16.0 32.0 14.0 32.0 L14.0 32.0 Z M14.0 51.0 C12.0 51.0 11.0 53.0 11.0 55.0 L11.0 60.0 C11.0 62.0 12.0 63.0 14.0 63.0 C16.0 63.0 17.0 62.0 17.0 60.0 L17.0 55.0 C17.0 53.0 16.0 51.0 14.0 51.0 L14.0 51.0 Z"></path>
<path fill="#223344" fill-opacity="1.0"  filling="0" d="M180.0 159.0 L165.0 159.0 C173.0 154.0 178.0 145.0 178.0 135.0 L178.0 130.0 C178.0 126.0 174.0 122.0 170.0 122.0 L161.0 122.0 L161.0 115.0 C161.0 114.0 162.0 112.0 164.0 112.0 L168.0 112.0 C175.0 112.0 181.0 106.0 181.0 99.0 C181.0 92.0 175.0 86.0 168.0 86.0 L28.0 86.0 C21.0 86.0 15.0 92.0 15.0 99.0 C15.0 106.0 21.0 112.0 28.0 112.0 L65.0 112.0 C67.0 112.0 68.0 114.0 68.0 115.0 L68.0 130.0 C68.0 137.0 74.0 143.0 81.0 143.0 C89.0 143.0 95.0 137.0 95.0 130.0 L95.0 115.0 C95.0 114.0 97.0 112.0 98.0 112.0 C100.0 112.0 101.0 114.0 101.0 115.0 L101.0 120.0 C101.0 127.0 107.0 134.0 115.0 134.0 C123.0 134.0 128.0 127.0 128.0 120.0 L128.0 115.0 C128.0 114.0 130.0 112.0 131.0 112.0 C133.0 112.0 134.0 114.0 134.0 115.0 L134.0 124.0 C134.0 131.0 140.0 138.0 148.0 138.0 C155.0 138.0 161.0 131.0 161.0 124.0 L161.0 127.0 L170.0 127.0 C170.0 127.0 170.0 128.0 170.0 130.0 L170.0 135.0 C170.0 146.0 161.0 156.0 150.0 158.0 C149.0 159.0 148.0 159.0 148.0 159.0 C147.0 159.0 146.0 159.0 145.0 158.0 C136.0 156.0 128.0 146.0 128.0 135.0 L128.0 130.0 C128.0 128.0 127.0 127.0 125.0 127.0 C123.0 127.0 122.0 128.0 122.0 130.0 L122.0 135.0 C122.0 145.0 127.0 154.0 134.0 159.0 L54.0 159.0 C42.0 159.0 32.0 150.0 31.0 139.0 C31.0 138.0 30.0 137.0 30.0 136.0 L30.0 130.0 C30.0 128.0 30.0 127.0 30.0 127.0 L55.0 127.0 C57.0 127.0 59.0 125.0 59.0 123.0 C59.0 121.0 57.0 119.0 55.0 119.0 L27.0 119.0 C22.0 119.0 18.0 123.0 18.0 128.0 L18.0 133.0 C18.0 134.0 18.0 135.0 18.0 136.0 C19.0 138.0 19.0 140.0 19.0 141.0 C22.0 156.0 35.0 167.0 50.0 167.0 L180.0 167.0 C183.0 167.0 185.0 165.0 185.0 163.0 C185.0 161.0 183.0 159.0 180.0 159.0 L180.0 159.0 Z M148.0 130.0 C145.0 130.0 142.0 127.0 142.0 124.0 L142.0 115.0 C142.0 109.0 137.0 104.0 131.0 104.0 C125.0 104.0 120.0 109.0 120.0 115.0 L120.0 120.0 C120.0 123.0 118.0 126.0 115.0 126.0 C112.0 126.0 109.0 123.0 109.0 120.0 L109.0 115.0 C109.0 109.0 104.0 104.0 98.0 104.0 C92.0 104.0 87.0 109.0 87.0 115.0 L87.0 130.0 C87.0 133.0 85.0 135.0 81.0 135.0 C78.0 135.0 75.0 133.0 75.0 130.0 L75.0 115.0 C75.0 109.0 70.0 104.0 65.0 104.0 L28.0 104.0 C25.0 104.0 23.0 102.0 23.0 99.0 C23.0 96.0 25.0 94.0 28.0 94.0 L168.0 94.0 C171.0 94.0 173.0 96.0 173.0 99.0 C173.0 102.0 171.0 104.0 168.0 104.0 L164.0 104.0 C158.0 104.0 153.0 109.0 153.0 115.0 L153.0 124.0 C153.0 127.0 151.0 130.0 148.0 130.0 L148.0 130.0 Z"></path>
<path fill="#223344" fill-opacity="1.0"  filling="0" d="M27.0 80.0 L167.0 80.0 C174.0 80.0 178.0 76.0 178.0 70.0 C178.0 67.0 178.0 64.0 177.0 61.0 C176.0 59.0 174.0 58.0 172.0 59.0 C170.0 60.0 169.0 62.0 170.0 64.0 C170.0 66.0 170.0 67.0 170.0 70.0 C170.0 72.0 170.0 72.0 167.0 72.0 L27.0 72.0 C25.0 72.0 25.0 72.0 25.0 70.0 C25.0 54.0 37.0 41.0 53.0 41.0 L58.0 41.0 C60.0 41.0 62.0 39.0 62.0 37.0 C62.0 35.0 60.0 33.0 58.0 33.0 L53.0 33.0 C33.0 33.0 18.0 50.0 18.0 70.0 C18.0 76.0 22.0 80.0 27.0 80.0 L27.0 80.0 Z"></path>
<path fill="#223344" fill-opacity="1.0"  filling="0" d="M72.0 41.0 L141.0 41.0 C149.0 41.0 157.0 45.0 162.0 50.0 C163.0 52.0 166.0 52.0 168.0 50.0 C170.0 49.0 170.0 46.0 168.0 45.0 C162.0 37.0 152.0 33.0 141.0 33.0 L72.0 33.0 C71.0 33.0 69.0 35.0 69.0 37.0 C69.0 39.0 71.0 41.0 72.0 41.0 L72.0 41.0 Z"></path>
<path fill="#223344" fill-opacity="1.0"  filling="0" d="M54.0 41.0 L58.0 41.0 C60.0 41.0 62.0 39.0 62.0 37.0 C62.0 35.0 60.0 33.0 58.0 33.0 L54.0 33.0 C52.0 33.0 50.0 35.0 50.0 37.0 C50.0 39.0 52.0 41.0 54.0 41.0 L54.0 41.0 Z"></path>
<path fill="#ffffff" fill-opacity="1.0"  filling="0" d="M28.0 58.0 C27.0 58.0 26.0 58.0 26.0 59.0 C24.0 61.0 24.0 63.0 26.0 65.0 C27.0 66.0 28.0 66.0 29.0 66.0 C30.0 66.0 31.0 66.0 32.0 65.0 C33.0 63.0 33.0 61.0 32.0 59.0 C31.0 58.0 30.0 58.0 28.0 58.0 L28.0 58.0 Z"></path>
<path fill="#ffffff" fill-opacity="1.0"  filling="0" d="M39.0 58.0 C38.0 58.0 37.0 58.0 36.0 59.0 C35.0 61.0 35.0 63.0 36.0 65.0 C37.0 66.0 38.0 66.0 39.0 66.0 C40.0 66.0 41.0 66.0 42.0 65.0 C43.0 63.0 43.0 61.0 42.0 59.0 C41.0 58.0 40.0 58.0 39.0 58.0 L39.0 58.0 Z"></path>
<path fill="#ffffff" fill-opacity="1.0"  filling="0" d="M72.0 46.0 C66.0 46.0 60.0 47.0 55.0 50.0 C53.0 51.0 52.0 54.0 53.0 56.0 C54.0 57.0 55.0 58.0 57.0 58.0 C57.0 58.0 58.0 58.0 58.0 57.0 C63.0 55.0 67.0 54.0 72.0 54.0 C74.0 54.0 76.0 52.0 76.0 50.0 C76.0 48.0 74.0 46.0 72.0 46.0 L72.0 46.0 Z"></path>
<path fill="#ffffff" fill-opacity="1.0"  filling="0" d="M48.0 67.0 C46.0 67.0 45.0 67.0 44.0 68.0 C42.0 70.0 42.0 72.0 44.0 74.0 C45.0 75.0 46.0 75.0 47.0 75.0 C48.0 75.0 49.0 75.0 50.0 74.0 C52.0 72.0 52.0 70.0 50.0 68.0 C50.0 67.0 49.0 67.0 48.0 67.0 L48.0 67.0 Z"></path>
<path fill="#223344" fill-opacity="1.0"  filling="0" d="M23.0 159.0 L15.0 159.0 C13.0 159.0 11.0 161.0 11.0 163.0 C11.0 165.0 13.0 167.0 15.0 167.0 L23.0 167.0 C25.0 167.0 27.0 165.0 27.0 163.0 C27.0 161.0 25.0 159.0 23.0 159.0 L23.0 159.0 Z"></path>
<path fill="#223344" fill-opacity="1.0"  filling="0" d="M148.0 154.0 C141.0 154.0 134.0 148.0 134.0 140.0 L134.0 137.0 C134.0 136.0 136.0 134.0 138.0 134.0 C140.0 134.0 142.0 136.0 142.0 137.0 L142.0 140.0 C142.0 143.0 145.0 146.0 148.0 146.0 C151.0 146.0 153.0 143.0 153.0 140.0 L153.0 128.0 C153.0 125.0 155.0 123.0 157.0 123.0 C159.0 123.0 161.0 125.0 161.0 128.0 L161.0 140.0 C161.0 148.0 155.0 154.0 148.0 154.0 L148.0 154.0 Z"></path></svg>