<svg xmlns="http://www.w3.org/2000/svg" viewBox="0.0 0.0 200.0 200.0" height="200px" width="200px"><path fill="#ffee77" fill-opacity="1.0"  filling="0" d="M100.0 97.0 C96.0 97.0 92.0 95.0 90.0 92.0 L85.0 84.0 C83.0 80.0 78.0 78.0 74.0 78.0 L30.0 78.0 C22.0 78.0 16.0 84.0 16.0 91.0 L16.0 187.0 C16.0 194.0 22.0 199.0 30.0 199.0 L170.0 199.0 C178.0 199.0 184.0 194.0 184.0 187.0 L184.0 110.0 C184.0 102.0 178.0 97.0 170.0 97.0 L100.0 97.0 L100.0 97.0 Z"></path>
<path fill="#ffdd66" fill-opacity="1.0"  filling="0" d="M100.0 97.0 C96.0 97.0 92.0 95.0 90.0 92.0 L85.0 84.0 C83.0 80.0 78.0 78.0 74.0 78.0 L41.0 78.0 C34.0 78.0 28.0 84.0 28.0 91.0 L28.0 187.0 C28.0 194.0 34.0 199.0 41.0 199.0 L170.0 199.0 C178.0 199.0 184.0 194.0 184.0 187.0 L184.0 110.0 C184.0 102.0 178.0 97.0 170.0 97.0 L100.0 97.0 L100.0 97.0 Z"></path>
<path fill="#ee9999" fill-opacity="1.0"  filling="0" d="M136.0 148.0 A36.0 36.0 0.0 1 1 64.0 148.0 A36.0 36.0 0.0 1 1 136.0 148.0 L136.0 148.0 Z"></path>
<path fill="#ee7788" fill-opacity="1.0"  filling="0" d="M100.0 112.0 C97.0 112.0 95.0 112.0 92.0 113.0 C111.0 116.0 124.0 131.0 124.0 148.0 C124.0 166.0 111.0 181.0 92.0 184.0 C95.0 184.0 97.0 184.0 100.0 184.0 C120.0 184.0 136.0 168.0 136.0 148.0 C136.0 129.0 120.0 112.0 100.0 112.0 L100.0 112.0 Z"></path>
<path fill="#ffffff" fill-opacity="1.0"  filling="0" d="M121.0 142.0 L107.0 142.0 C107.0 142.0 106.0 142.0 106.0 141.0 L106.0 127.0 C106.0 126.0 105.0 124.0 103.0 124.0 L97.0 124.0 C95.0 124.0 94.0 126.0 94.0 127.0 L94.0 141.0 C94.0 142.0 93.0 142.0 93.0 142.0 L79.0 142.0 C77.0 142.0 76.0 143.0 76.0 145.0 L76.0 152.0 C76.0 153.0 77.0 154.0 79.0 154.0 L93.0 154.0 C93.0 154.0 94.0 155.0 94.0 156.0 L94.0 170.0 C94.0 171.0 95.0 172.0 97.0 172.0 L103.0 172.0 C105.0 172.0 106.0 171.0 106.0 170.0 L106.0 156.0 C106.0 155.0 107.0 154.0 107.0 154.0 L121.0 154.0 C123.0 154.0 124.0 153.0 124.0 152.0 L124.0 145.0 C124.0 143.0 123.0 142.0 121.0 142.0 L121.0 142.0 Z"></path>
<path fill="#cccccc" fill-opacity="1.0"  filling="0" d="M138.0 34.0 L62.0 34.0 C60.0 34.0 58.0 32.0 58.0 29.0 L58.0 23.0 C58.0 20.0 60.0 18.0 62.0 18.0 L138.0 18.0 C140.0 18.0 142.0 20.0 142.0 23.0 L142.0 29.0 C142.0 32.0 140.0 34.0 138.0 34.0 L138.0 34.0 Z"></path>
<path fill="#cccccc" fill-opacity="1.0"  filling="0" d="M142.0 55.0 L58.0 55.0 C57.0 55.0 55.0 53.0 55.0 52.0 C55.0 50.0 57.0 48.0 58.0 48.0 L142.0 48.0 C143.0 48.0 145.0 50.0 145.0 52.0 C145.0 53.0 143.0 55.0 142.0 55.0 L142.0 55.0 Z"></path>
<path fill="#cccccc" fill-opacity="1.0"  filling="0" d="M142.0 67.0 L58.0 67.0 C57.0 67.0 55.0 65.0 55.0 64.0 C55.0 62.0 57.0 60.0 58.0 60.0 L142.0 60.0 C143.0 60.0 145.0 62.0 145.0 64.0 C145.0 65.0 143.0 67.0 142.0 67.0 L142.0 67.0 Z"></path>
<path fill="#eeddee" fill-opacity="1.0"  filling="0" d="M157.0 0.0 L143.0 0.0 C148.0 0.0 153.0 4.0 153.0 10.0 L153.0 97.0 L165.0 97.0 L165.0 10.0 C165.0 4.0 161.0 0.0 157.0 0.0 L157.0 0.0 Z"></path>
<path fill="#ddccdd" fill-opacity="1.0"  filling="0" d="M157.0 0.0 L144.0 0.0 C148.0 0.0 153.0 4.0 153.0 10.0 L153.0 97.0 L165.0 97.0 L165.0 10.0 C165.0 4.0 161.0 0.0 157.0 0.0 L157.0 0.0 Z"></path></svg>