<svg xmlns="http://www.w3.org/2000/svg" viewBox="0.0 0.0 200.0 200.0" height="200px" width="200px"><path fill="#ffee77" fill-opacity="1.0"  filling="0" d="M100.0 97.0 C96.0 97.0 92.0 95.0 90.0 91.0 L85.0 84.0 C83.0 80.0 79.0 78.0 74.0 78.0 L30.0 78.0 C22.0 78.0 16.0 84.0 16.0 91.0 L16.0 187.0 C16.0 194.0 22.0 199.0 30.0 199.0 L170.0 199.0 C178.0 199.0 184.0 194.0 184.0 187.0 L184.0 110.0 C184.0 102.0 178.0 97.0 170.0 97.0 L100.0 97.0 L100.0 97.0 Z"></path>
<path fill="#ffdd66" fill-opacity="1.0"  filling="0" d="M100.0 97.0 C96.0 97.0 92.0 95.0 90.0 91.0 L85.0 84.0 C83.0 80.0 79.0 78.0 74.0 78.0 L41.0 78.0 C34.0 78.0 28.0 84.0 28.0 91.0 L28.0 187.0 C28.0 194.0 34.0 199.0 41.0 199.0 L170.0 199.0 C178.0 199.0 184.0 194.0 184.0 187.0 L184.0 110.0 C184.0 102.0 178.0 97.0 170.0 97.0 L100.0 97.0 L100.0 97.0 Z"></path>
<path fill="#ee9999" fill-opacity="1.0"  filling="0" d="M136.0 148.0 A36.0 36.0 0.0 1 1 64.0 148.0 A36.0 36.0 0.0 1 1 136.0 148.0 L136.0 148.0 Z"></path>
<path fill="#ee7788" fill-opacity="1.0"  filling="0" d="M100.0 112.0 C97.0 112.0 95.0 112.0 92.0 113.0 C111.0 116.0 124.0 131.0 124.0 148.0 C124.0 166.0 111.0 181.0 92.0 184.0 C95.0 184.0 97.0 184.0 100.0 184.0 C120.0 184.0 136.0 168.0 136.0 148.0 C136.0 129.0 120.0 112.0 100.0 112.0 L100.0 112.0 Z"></path>
<path fill="#ffffff" fill-opacity="1.0"  filling="0" d="M121.0 142.0 L107.0 142.0 C107.0 142.0 106.0 142.0 106.0 141.0 L106.0 127.0 C106.0 125.0 105.0 124.0 103.0 124.0 L97.0 124.0 C95.0 124.0 94.0 125.0 94.0 127.0 L94.0 141.0 C94.0 142.0 93.0 142.0 93.0 142.0 L79.0 142.0 C77.0 142.0 76.0 143.0 76.0 145.0 L76.0 152.0 C76.0 153.0 77.0 154.0 79.0 154.0 L93.0 154.0 C93.0 154.0 94.0 155.0 94.0 156.0 L94.0 169.0 C94.0 171.0 95.0 172.0 97.0 172.0 L103.0 172.0 C105.0 172.0 106.0 171.0 106.0 169.0 L106.0 156.0 C106.0 155.0 107.0 154.0 107.0 154.0 L121.0 154.0 C123.0 154.0 124.0 153.0 124.0 152.0 L124.0 145.0 C124.0 143.0 123.0 142.0 121.0 142.0 L121.0 142.0 Z"></path>
<path fill="#cccccc" fill-opacity="1.0"  filling="0" d="M138.0 34.0 L62.0 34.0 C60.0 34.0 58.0 32.0 58.0 29.0 L58.0 22.0 C58.0 20.0 60.0 18.0 62.0 18.0 L138.0 18.0 C140.0 18.0 142.0 20.0 142.0 22.0 L142.0 29.0 C142.0 32.0 140.0 34.0 138.0 34.0 L138.0 34.0 Z"></path>
<path fill="#cccccc" fill-opacity="1.0"  filling="0" d="M142.0 55.0 L58.0 55.0 C57.0 55.0 55.0 53.0 55.0 52.0 C55.0 50.0 57.0 48.0 58.0 48.0 L142.0 48.0 C143.0 48.0 145.0 50.0 145.0 52.0 C145.0 53.0 143.0 55.0 142.0 55.0 L142.0 55.0 Z"></path>
<path fill="#cccccc" fill-opacity="1.0"  filling="0" d="M142.0 67.0 L58.0 67.0 C57.0 67.0 55.0 65.0 55.0 64.0 C55.0 62.0 57.0 60.0 58.0 60.0 L142.0 60.0 C143.0 60.0 145.0 62.0 145.0 64.0 C145.0 65.0 143.0 67.0 142.0 67.0 L142.0 67.0 Z"></path>
<path fill="#000000" fill-opacity="1.0"  filling="0" d="M110.0 111.0 C108.0 111.0 107.0 113.0 107.0 114.0 C108.0 116.0 109.0 117.0 111.0 117.0 C125.0 115.0 135.0 128.0 135.0 142.0 C135.0 144.0 136.0 145.0 138.0 145.0 C140.0 145.0 141.0 144.0 141.0 142.0 C141.0 125.0 129.0 109.0 110.0 111.0 L110.0 111.0 Z"></path>
<path fill="#000000" fill-opacity="1.0"  filling="0" d="M138.0 151.0 C136.0 151.0 135.0 152.0 135.0 154.0 C133.0 169.0 119.0 181.0 103.0 181.0 C102.0 181.0 100.0 183.0 100.0 184.0 C100.0 186.0 102.0 187.0 103.0 187.0 C122.0 187.0 139.0 172.0 141.0 154.0 C141.0 152.0 140.0 151.0 138.0 151.0 L138.0 151.0 Z"></path>
<path fill="#000000" fill-opacity="1.0"  filling="0" d="M110.0 89.0 C108.0 90.0 107.0 91.0 107.0 93.0 C108.0 94.0 109.0 95.0 111.0 95.0 C125.0 91.0 135.0 81.0 135.0 67.0 C135.0 65.0 136.0 64.0 138.0 64.0 C140.0 64.0 141.0 65.0 141.0 67.0 C141.0 84.0 129.0 97.0 110.0 89.0 L110.0 89.0 Z"></path>
<path fill="#000000" fill-opacity="1.0"  filling="0" d="M126.0 75.0 C126.0 77.0 127.0 78.0 129.0 78.0 C131.0 78.0 132.0 77.0 132.0 75.0 C132.0 73.0 131.0 72.0 129.0 72.0 C127.0 72.0 126.0 73.0 126.0 75.0 L126.0 75.0 Z"></path>
<path fill="#000000" fill-opacity="1.0"  filling="0" d="M90.0 111.0 C71.0 109.0 59.0 125.0 59.0 142.0 C59.0 144.0 60.0 145.0 62.0 145.0 C64.0 145.0 65.0 144.0 65.0 142.0 C65.0 128.0 75.0 115.0 89.0 117.0 C91.0 117.0 92.0 116.0 93.0 114.0 C93.0 113.0 92.0 111.0 90.0 111.0 L90.0 111.0 Z"></path>
<path fill="#000000" fill-opacity="1.0"  filling="0" d="M62.0 151.0 C60.0 151.0 59.0 152.0 59.0 154.0 C61.0 172.0 78.0 187.0 97.0 187.0 C98.0 187.0 100.0 186.0 100.0 184.0 C100.0 183.0 98.0 181.0 97.0 181.0 C81.0 181.0 67.0 169.0 65.0 154.0 C65.0 152.0 64.0 151.0 62.0 151.0 L62.0 151.0 Z"></path>
<path fill="#000000" fill-opacity="1.0"  filling="0" d="M90.0 89.0 C71.0 97.0 59.0 84.0 59.0 67.0 C59.0 65.0 60.0 64.0 62.0 64.0 C64.0 64.0 65.0 65.0 65.0 67.0 C65.0 81.0 75.0 91.0 89.0 95.0 C91.0 95.0 92.0 94.0 93.0 93.0 C93.0 91.0 92.0 90.0 90.0 89.0 L90.0 89.0 Z"></path>
<path fill="#000000" fill-opacity="1.0"  filling="0" d="M74.0 75.0 C74.0 73.0 73.0 72.0 71.0 72.0 C69.0 72.0 68.0 73.0 68.0 75.0 C68.0 77.0 69.0 78.0 71.0 78.0 C73.0 78.0 74.0 77.0 74.0 75.0 L74.0 75.0 Z"></path>
<path fill="#000000" fill-opacity="1.0"  filling="0" d="M100.0 112.0 C98.0 112.0 97.0 113.0 97.0 115.0 L97.0 121.0 L97.0 121.0 C94.0 121.0 91.0 123.0 91.0 127.0 L91.0 139.0 L79.0 139.0 C76.0 139.0 73.0 141.0 73.0 145.0 L73.0 152.0 C73.0 155.0 76.0 157.0 79.0 157.0 L91.0 157.0 L91.0 169.0 C91.0 172.0 94.0 175.0 97.0 175.0 L103.0 175.0 L103.0 175.0 C106.0 175.0 109.0 172.0 109.0 169.0 L109.0 157.0 L121.0 157.0 C124.0 157.0 127.0 155.0 127.0 152.0 L127.0 145.0 C127.0 141.0 124.0 139.0 121.0 139.0 L109.0 139.0 L109.0 127.0 C109.0 123.0 106.0 121.0 103.0 121.0 L103.0 121.0 L103.0 115.0 C103.0 113.0 102.0 112.0 100.0 112.0 L100.0 112.0 Z M121.0 145.0 L121.0 152.0 L107.0 152.0 C105.0 152.0 103.0 154.0 103.0 156.0 L103.0 169.0 L97.0 169.0 L97.0 156.0 C97.0 154.0 95.0 152.0 93.0 152.0 L79.0 152.0 L79.0 145.0 L93.0 145.0 C95.0 145.0 97.0 143.0 97.0 141.0 L97.0 127.0 L103.0 127.0 L103.0 141.0 C103.0 143.0 105.0 145.0 107.0 145.0 L121.0 145.0 L121.0 145.0 Z"></path>
<path fill="#000000" fill-opacity="1.0"  filling="0" d="M170.0 93.0 L169.0 93.0 L169.0 13.0 C169.0 6.0 163.0 0.0 156.0 0.0 L44.0 0.0 C37.0 0.0 31.0 6.0 31.0 13.0 L31.0 93.0 L30.0 93.0 C21.0 93.0 13.0 100.0 13.0 110.0 L13.0 187.0 C13.0 194.0 21.0 199.0 30.0 199.0 L170.0 199.0 C179.0 199.0 187.0 194.0 187.0 187.0 L187.0 110.0 C187.0 100.0 179.0 93.0 170.0 93.0 L170.0 93.0 Z M37.0 13.0 C37.0 9.0 40.0 6.0 44.0 6.0 L156.0 6.0 C160.0 6.0 163.0 9.0 163.0 13.0 L163.0 93.0 L153.0 93.0 L153.0 22.0 C153.0 17.0 149.0 12.0 143.0 12.0 L57.0 12.0 C51.0 12.0 47.0 17.0 47.0 22.0 L47.0 93.0 L37.0 93.0 L37.0 13.0 L37.0 13.0 Z M147.0 93.0 L103.0 93.0 L103.0 90.0 C103.0 88.0 102.0 87.0 100.0 87.0 C98.0 87.0 97.0 88.0 97.0 90.0 L97.0 93.0 L53.0 93.0 L53.0 22.0 C53.0 20.0 55.0 18.0 57.0 18.0 L143.0 18.0 C145.0 18.0 147.0 20.0 147.0 22.0 L147.0 93.0 L147.0 93.0 Z M181.0 187.0 C181.0 191.0 177.0 194.0 170.0 194.0 L30.0 194.0 C23.0 194.0 19.0 191.0 19.0 187.0 L19.0 110.0 C19.0 103.0 23.0 99.0 30.0 99.0 L170.0 99.0 C177.0 99.0 181.0 103.0 181.0 110.0 L181.0 187.0 L181.0 187.0 Z"></path></svg>