<svg xmlns="http://www.w3.org/2000/svg" viewBox="0.0 0.0 200.0 200.0" height="200px" width="200px"><path fill="#ffee77" fill-opacity="1.0"  filling="0" d="M100.0 97.0 C96.0 97.0 92.0 95.0 90.0 92.0 L85.0 84.0 C83.0 80.0 79.0 78.0 75.0 78.0 L31.0 78.0 C22.0 78.0 16.0 84.0 16.0 91.0 L16.0 187.0 C16.0 194.0 22.0 199.0 29.0 199.0 L171.0 199.0 C178.0 199.0 184.0 194.0 184.0 187.0 L184.0 110.0 C184.0 102.0 178.0 97.0 171.0 97.0 L100.0 97.0 L100.0 97.0 Z"></path>
<path fill="#ffdd66" fill-opacity="1.0"  filling="0" d="M171.0 97.0 L159.0 97.0 C166.0 97.0 171.0 102.0 171.0 110.0 L171.0 187.0 C171.0 194.0 166.0 199.0 159.0 199.0 L171.0 199.0 C178.0 199.0 184.0 194.0 184.0 187.0 L184.0 110.0 C184.0 102.0 178.0 97.0 171.0 97.0 L171.0 97.0 Z"></path>
<path fill="#ee9999" fill-opacity="1.0"  filling="0" d="M136.0 148.0 A36.0 36.0 0.0 1 1 64.0 148.0 A36.0 36.0 0.0 1 1 136.0 148.0 L136.0 148.0 Z"></path>
<path fill="#ee7788" fill-opacity="1.0"  filling="0" d="M100.0 112.0 C98.0 112.0 96.0 112.0 94.0 113.0 C111.0 116.0 124.0 131.0 124.0 148.0 C124.0 166.0 111.0 181.0 94.0 183.0 C96.0 184.0 98.0 184.0 100.0 184.0 C120.0 184.0 136.0 168.0 136.0 148.0 C136.0 129.0 120.0 112.0 100.0 112.0 L100.0 112.0 Z"></path>
<path fill="#ffffff" fill-opacity="1.0"  filling="0" d="M121.0 142.0 L107.0 142.0 C107.0 142.0 106.0 142.0 106.0 141.0 L106.0 127.0 C106.0 126.0 105.0 124.0 103.0 124.0 L97.0 124.0 C95.0 124.0 94.0 126.0 94.0 127.0 L94.0 141.0 C94.0 142.0 93.0 142.0 93.0 142.0 L79.0 142.0 C77.0 142.0 76.0 143.0 76.0 145.0 L76.0 152.0 C76.0 153.0 77.0 154.0 79.0 154.0 L93.0 154.0 C93.0 154.0 94.0 155.0 94.0 156.0 L94.0 169.0 C94.0 171.0 95.0 172.0 97.0 172.0 L103.0 172.0 C105.0 172.0 106.0 171.0 106.0 169.0 L106.0 156.0 C106.0 155.0 107.0 154.0 107.0 154.0 L121.0 154.0 C123.0 154.0 124.0 153.0 124.0 152.0 L124.0 145.0 C124.0 143.0 123.0 142.0 121.0 142.0 L121.0 142.0 Z"></path>
<path fill="#cccccc" fill-opacity="1.0"  filling="0" d="M138.0 34.0 L62.0 34.0 C60.0 34.0 58.0 32.0 58.0 29.0 L58.0 23.0 C58.0 20.0 60.0 18.0 62.0 18.0 L138.0 18.0 C140.0 18.0 142.0 20.0 142.0 23.0 L142.0 29.0 C142.0 32.0 140.0 34.0 138.0 34.0 L138.0 34.0 Z"></path>
<path fill="#cccccc" fill-opacity="1.0"  filling="0" d="M142.0 55.0 L58.0 55.0 C57.0 55.0 55.0 53.0 55.0 52.0 C55.0 50.0 57.0 48.0 58.0 48.0 L142.0 48.0 C143.0 48.0 145.0 50.0 145.0 52.0 C145.0 53.0 143.0 55.0 142.0 55.0 L142.0 55.0 Z"></path>
<path fill="#cccccc" fill-opacity="1.0"  filling="0" d="M142.0 67.0 L58.0 67.0 C57.0 67.0 55.0 65.0 55.0 64.0 C55.0 62.0 57.0 60.0 58.0 60.0 L142.0 60.0 C143.0 60.0 145.0 62.0 145.0 64.0 C145.0 65.0 143.0 67.0 142.0 67.0 L142.0 67.0 Z"></path>
<path fill="#cccccc" fill-opacity="1.0"  filling="0" d="M158.0 1.0 L158.0 1.0 C159.0 1.0 160.0 2.0 160.0 3.0 L160.0 23.0 C160.0 24.0 159.0 25.0 158.0 25.0 L158.0 25.0 C156.0 25.0 155.0 24.0 155.0 23.0 L155.0 3.0 C155.0 2.0 156.0 1.0 158.0 1.0 L158.0 1.0 Z"></path>
<path fill="#cccccc" fill-opacity="1.0"  filling="0" d="M158.0 1.0 L158.0 1.0 C159.0 1.0 160.0 2.0 160.0 3.0 L160.0 23.0 C160.0 24.0 159.0 25.0 158.0 25.0 L158.0 25.0 C156.0 25.0 155.0 24.0 155.0 23.0 L155.0 3.0 C155.0 2.0 156.0 1.0 158.0 1.0 L158.0 1.0 Z"></path>
<path fill="#cccccc" fill-opacity="1.0"  filling="0" d="M158.0 1.0 L158.0 1.0 C159.0 1.0 160.0 2.0 160.0 3.0 L160.0 23.0 C160.0 24.0 159.0 25.0 158.0 25.0 L158.0 25.0 C156.0 25.0 155.0 24.0 155.0 23.0 L155.0 3.0 C155.0 2.0 156.0 1.0 158.0 1.0 L158.0 1.0 Z"></path>
<path fill="#cccccc" fill-opacity="1.0"  filling="0" d="M158.0 1.0 L158.0 1.0 C159.0 1.0 160.0 2.0 160.0 3.0 L160.0 23.0 C160.0 24.0 159.0 25.0 158.0 25.0 L158.0 25.0 C156.0 25.0 155.0 24.0 155.0 23.0 L155.0 3.0 C155.0 2.0 156.0 1.0 158.0 1.0 L158.0 1.0 Z"></path>
<path fill="#000000" fill-opacity="1.0"  filling="0" d="M158.0 199.0 L42.0 199.0 C41.0 199.0 39.0 198.0 39.0 197.0 C39.0 195.0 41.0 193.0 42.0 193.0 L158.0 193.0 C159.0 193.0 161.0 195.0 161.0 197.0 C161.0 198.0 159.0 199.0 158.0 199.0 L158.0 199.0 Z"></path>
<path fill="#000000" fill-opacity="1.0"  filling="0" d="M171.0 94.0 L169.0 94.0 L169.0 37.0 C169.0 35.0 167.0 34.0 166.0 34.0 C164.0 34.0 163.0 35.0 163.0 37.0 L163.0 94.0 L100.0 94.0 C97.0 94.0 94.0 93.0 92.0 90.0 L87.0 82.0 C84.0 77.0 80.0 75.0 75.0 75.0 L33.0 75.0 L33.0 35.0 C33.0 33.0 35.0 32.0 36.0 32.0 L61.0 32.0 C63.0 32.0 64.0 33.0 64.0 35.0 C64.0 36.0 63.0 38.0 61.0 38.0 L39.0 38.0 L39.0 75.0 L75.0 75.0 C79.0 75.0 84.0 77.0 86.0 81.0 L92.0 90.0 C94.0 93.0 97.0 96.0 100.0 96.0 L171.0 96.0 C177.0 96.0 183.0 102.0 183.0 110.0 L183.0 187.0 C183.0 193.0 177.0 199.0 171.0 199.0 L29.0 199.0 C23.0 199.0 17.0 193.0 17.0 187.0 L17.0 91.0 C17.0 85.0 23.0 81.0 29.0 81.0 L31.0 81.0 C32.0 81.0 33.0 80.0 33.0 78.0 C33.0 77.0 32.0 75.0 31.0 75.0 L29.0 75.0 C20.0 75.0 13.0 83.0 13.0 91.0 L13.0 187.0 C13.0 195.0 20.0 199.0 29.0 199.0 L171.0 199.0 C180.0 199.0 187.0 195.0 187.0 187.0 L187.0 110.0 C187.0 100.0 180.0 94.0 171.0 94.0 L171.0 94.0 Z"></path>
<path fill="#000000" fill-opacity="1.0"  filling="0" d="M100.0 186.0 C122.0 186.0 139.0 170.0 139.0 148.0 C139.0 127.0 122.0 110.0 100.0 110.0 C78.0 110.0 61.0 127.0 61.0 148.0 C61.0 170.0 78.0 186.0 100.0 186.0 L100.0 186.0 Z M100.0 114.0 C119.0 114.0 134.0 129.0 134.0 148.0 C134.0 167.0 119.0 182.0 100.0 182.0 C81.0 182.0 66.0 167.0 66.0 148.0 C66.0 129.0 81.0 114.0 100.0 114.0 L100.0 114.0 Z"></path>
<path fill="#000000" fill-opacity="1.0"  filling="0" d="M97.0 174.0 L103.0 174.0 C106.0 174.0 109.0 172.0 109.0 169.0 L109.0 157.0 L121.0 157.0 C124.0 157.0 127.0 155.0 127.0 152.0 L127.0 145.0 C127.0 142.0 124.0 139.0 121.0 139.0 L109.0 139.0 L109.0 127.0 C109.0 124.0 106.0 122.0 103.0 122.0 L97.0 122.0 C94.0 122.0 91.0 124.0 91.0 127.0 L91.0 139.0 L79.0 139.0 C76.0 139.0 73.0 142.0 73.0 145.0 L73.0 152.0 C73.0 155.0 76.0 157.0 79.0 157.0 L91.0 157.0 L91.0 169.0 C91.0 172.0 94.0 174.0 97.0 174.0 L97.0 174.0 Z M79.0 152.0 C79.0 152.0 79.0 152.0 79.0 152.0 L79.0 145.0 C79.0 145.0 79.0 145.0 79.0 145.0 L93.0 145.0 C95.0 145.0 97.0 143.0 97.0 141.0 L97.0 127.0 C97.0 127.0 97.0 127.0 97.0 127.0 L103.0 127.0 C103.0 127.0 103.0 127.0 103.0 127.0 L103.0 141.0 C103.0 143.0 105.0 145.0 107.0 145.0 L121.0 145.0 C121.0 145.0 121.0 145.0 121.0 145.0 L121.0 152.0 C121.0 152.0 121.0 152.0 121.0 152.0 L107.0 152.0 C105.0 152.0 103.0 154.0 103.0 156.0 L103.0 169.0 C103.0 169.0 103.0 169.0 103.0 169.0 L97.0 169.0 C97.0 169.0 97.0 169.0 97.0 169.0 L97.0 156.0 C97.0 154.0 95.0 152.0 93.0 152.0 L79.0 152.0 L79.0 152.0 Z"></path>
<path fill="#000000" fill-opacity="1.0"  filling="0" d="M62.0 37.0 L138.0 37.0 C142.0 37.0 145.0 33.0 145.0 29.0 L145.0 23.0 C145.0 19.0 142.0 16.0 138.0 16.0 L62.0 16.0 C58.0 16.0 55.0 19.0 55.0 23.0 L55.0 29.0 C55.0 33.0 58.0 37.0 62.0 37.0 L62.0 37.0 Z M60.0 23.0 C60.0 21.0 61.0 20.0 62.0 20.0 L138.0 20.0 C139.0 20.0 140.0 21.0 140.0 23.0 L140.0 29.0 C140.0 30.0 139.0 31.0 138.0 31.0 L62.0 31.0 C61.0 31.0 60.0 30.0 60.0 29.0 L60.0 23.0 L60.0 23.0 Z"></path>
<path fill="#000000" fill-opacity="1.0"  filling="0" d="M58.0 58.0 L142.0 58.0 C145.0 58.0 147.0 55.0 147.0 52.0 C147.0 49.0 145.0 46.0 142.0 46.0 L58.0 46.0 C55.0 46.0 53.0 49.0 53.0 52.0 C53.0 55.0 55.0 58.0 58.0 58.0 L58.0 58.0 Z M58.0 51.0 L142.0 51.0 C142.0 51.0 142.0 51.0 142.0 52.0 C142.0 52.0 142.0 52.0 142.0 52.0 L58.0 52.0 C58.0 52.0 58.0 52.0 58.0 52.0 C58.0 51.0 58.0 51.0 58.0 51.0 L58.0 51.0 Z"></path>
<path fill="#000000" fill-opacity="1.0"  filling="0" d="M58.0 69.0 L142.0 69.0 C145.0 69.0 147.0 67.0 147.0 64.0 C147.0 61.0 145.0 58.0 142.0 58.0 L58.0 58.0 C55.0 58.0 53.0 61.0 53.0 64.0 C53.0 67.0 55.0 69.0 58.0 69.0 L58.0 69.0 Z M58.0 63.0 L142.0 63.0 C142.0 63.0 142.0 63.0 142.0 64.0 C142.0 64.0 142.0 64.0 142.0 64.0 L58.0 64.0 C58.0 64.0 58.0 64.0 58.0 64.0 C58.0 63.0 58.0 63.0 58.0 63.0 L58.0 63.0 Z"></path>
<path fill="#000000" fill-opacity="1.0"  filling="0" d="M158.0 28.0 C161.0 28.0 163.0 26.0 163.0 23.0 L163.0 3.0 C163.0 1.0 161.0 0.0 158.0 0.0 C155.0 0.0 153.0 1.0 153.0 3.0 L153.0 23.0 C153.0 26.0 155.0 28.0 158.0 28.0 L158.0 28.0 Z M157.0 3.0 C157.0 3.0 158.0 3.0 158.0 3.0 C158.0 3.0 158.0 3.0 158.0 3.0 C158.0 3.0 158.0 3.0 158.0 3.0 C158.0 3.0 157.0 3.0 157.0 3.0 L157.0 3.0 Z"></path></svg>