<svg xmlns="http://www.w3.org/2000/svg" viewBox="0.0 0.0 200.0 200.0" height="200px" width="200px"><path fill="#eeffff" fill-opacity="1.0"  filling="0" d="M103.0 67.0 L100.0 76.0 L97.0 67.0 C97.0 42.0 85.0 16.0 74.0 2.0 C73.0 0.0 72.0 0.0 70.0 0.0 L24.0 0.0 C22.0 0.0 21.0 3.0 21.0 5.0 L21.0 195.0 C21.0 197.0 22.0 199.0 24.0 199.0 L70.0 199.0 C72.0 199.0 73.0 199.0 74.0 198.0 C85.0 184.0 97.0 158.0 97.0 133.0 L100.0 124.0 L103.0 133.0 C103.0 158.0 115.0 184.0 126.0 198.0 C127.0 199.0 128.0 199.0 130.0 199.0 L176.0 199.0 C178.0 199.0 179.0 197.0 179.0 195.0 L179.0 5.0 C179.0 3.0 178.0 0.0 176.0 0.0 L130.0 0.0 C128.0 0.0 127.0 0.0 126.0 2.0 C115.0 16.0 103.0 42.0 103.0 67.0"></path>
<path fill="#ddeeee" fill-opacity="1.0"  filling="0" d="M176.0 5.0 L176.0 195.0 L155.0 195.0 L155.0 5.0 L176.0 5.0 L176.0 5.0 Z"></path>
<path fill="#ccddee" fill-opacity="1.0"  filling="0" d="M176.0 5.0 L176.0 195.0 L165.0 195.0 L165.0 5.0 L176.0 5.0 L176.0 5.0 Z"></path>
<path fill="#ddeeee" fill-opacity="1.0"  filling="0" d="M45.0 5.0 L45.0 195.0 L24.0 195.0 L24.0 5.0 L45.0 5.0 L45.0 5.0 Z"></path>
<path fill="#ccddee" fill-opacity="1.0"  filling="0" d="M36.0 5.0 L45.0 195.0 L24.0 195.0 L24.0 5.0 L36.0 5.0 L36.0 5.0 Z"></path>
<path fill="#000000" fill-opacity="1.0"  filling="0" d="M150.0 145.0 C150.0 143.0 149.0 142.0 147.0 142.0 L147.0 142.0 C145.0 142.0 144.0 143.0 144.0 145.0 C144.0 146.0 145.0 148.0 147.0 148.0 C149.0 148.0 150.0 146.0 150.0 145.0"></path>
<path fill="#000000" fill-opacity="1.0"  filling="0" d="M96.0 92.0 L104.0 92.0 L104.0 108.0 L96.0 108.0 L96.0 92.0 L96.0 92.0 Z"></path>
<path fill="#000000" fill-opacity="1.0"  filling="0" d="M135.0 140.0 L133.0 127.0 L133.0 126.0 C133.0 126.0 133.0 126.0 133.0 126.0 C133.0 126.0 133.0 126.0 133.0 126.0 C133.0 126.0 133.0 126.0 133.0 126.0 C133.0 126.0 133.0 126.0 133.0 126.0 C133.0 126.0 133.0 126.0 133.0 126.0 C133.0 126.0 133.0 126.0 133.0 126.0 C133.0 126.0 133.0 126.0 133.0 126.0 C133.0 126.0 133.0 126.0 133.0 126.0 C133.0 126.0 133.0 126.0 133.0 126.0 C133.0 126.0 133.0 126.0 133.0 126.0 C133.0 126.0 133.0 126.0 133.0 126.0 C133.0 126.0 133.0 126.0 133.0 126.0 C133.0 126.0 133.0 126.0 133.0 126.0 C133.0 126.0 133.0 126.0 133.0 126.0 C133.0 126.0 133.0 126.0 133.0 126.0 C133.0 126.0 133.0 126.0 133.0 126.0 C133.0 126.0 133.0 126.0 133.0 126.0 C133.0 126.0 133.0 126.0 133.0 126.0 C133.0 126.0 133.0 126.0 133.0 126.0 C133.0 126.0 133.0 126.0 133.0 126.0 C133.0 126.0 133.0 126.0 133.0 126.0 C133.0 126.0 133.0 126.0 133.0 126.0 C133.0 126.0 133.0 126.0 133.0 126.0 C133.0 126.0 133.0 126.0 133.0 126.0 C133.0 126.0 133.0 126.0 133.0 126.0 C133.0 126.0 133.0 126.0 133.0 126.0 C133.0 126.0 133.0 126.0 133.0 126.0 C133.0 126.0 133.0 126.0 133.0 126.0 C133.0 126.0 133.0 126.0 133.0 126.0 C133.0 126.0 133.0 126.0 133.0 126.0 C133.0 126.0 133.0 126.0 133.0 126.0 C133.0 126.0 133.0 126.0 133.0 126.0 C133.0 126.0 133.0 126.0 133.0 126.0 C133.0 126.0 133.0 126.0 133.0 126.0 C133.0 126.0 133.0 126.0 133.0 126.0 C133.0 126.0 133.0 126.0 133.0 126.0 C133.0 126.0 133.0 126.0 133.0 126.0 C133.0 126.0 133.0 126.0 133.0 126.0 C133.0 126.0 133.0 126.0 133.0 126.0 C133.0 126.0 133.0 126.0 133.0 126.0 C133.0 126.0 133.0 126.0 133.0 126.0 C133.0 126.0 133.0 126.0 133.0 126.0 C133.0 126.0 133.0 126.0 133.0 126.0 C133.0 126.0 133.0 126.0 133.0 126.0 C133.0 126.0 133.0 126.0 133.0 126.0 C133.0 126.0 133.0 126.0 133.0 126.0 C133.0 126.0 133.0 126.0 133.0 126.0 C133.0 126.0 133.0 126.0 133.0 126.0 C133.0 126.0 133.0 126.0 133.0 126.0 C133.0 126.0 133.0 126.0 133.0 126.0 C133.0 126.0 133.0 126.0 133.0 126.0 C133.0 126.0 133.0 126.0 133.0 126.0 C133.0 126.0 133.0 126.0 133.0 126.0 C133.0 126.0 133.0 126.0 133.0 126.0 C133.0 126.0 133.0 126.0 133.0 126.0 C133.0 126.0 133.0 126.0 133.0 126.0 C133.0 126.0 133.0 126.0 133.0 126.0 C133.0 126.0 133.0 126.0 133.0 126.0 C133.0 126.0 133.0 126.0 133.0 126.0 C133.0 126.0 133.0 126.0 133.0 126.0 C133.0 126.0 133.0 126.0 133.0 126.0 C133.0 126.0 133.0 126.0 133.0 126.0 C133.0 126.0 133.0 126.0 133.0 126.0 C133.0 126.0 133.0 126.0 133.0 126.0 C133.0 126.0 133.0 126.0 133.0 126.0 C133.0 126.0 133.0 126.0 133.0 126.0 C133.0 126.0 133.0 126.0 133.0 126.0 C133.0 126.0 133.0 126.0 133.0 126.0 C133.0 126.0 133.0 126.0 133.0 126.0 C133.0 126.0 133.0 126.0 133.0 126.0 C133.0 126.0 133.0 126.0 133.0 126.0 C133.0 126.0 133.0 126.0 133.0 126.0 C133.0 126.0 133.0 126.0 133.0 126.0 C133.0 126.0 133.0 126.0 133.0 126.0 C133.0 126.0 133.0 126.0 133.0 126.0 C133.0 126.0 133.0 126.0 133.0 126.0 C133.0 126.0 133.0 126.0 133.0 126.0 C133.0 126.0 133.0 126.0 133.0 126.0 C133.0 126.0 133.0 126.0 133.0 126.0 C133.0 126.0 133.0 126.0 133.0 126.0 C133.0 126.0 133.0 126.0 133.0 126.0 C133.0 126.0 133.0 126.0 133.0 126.0 C133.0 126.0 133.0 126.0 133.0 126.0 C133.0 126.0 133.0 126.0 133.0 126.0 C133.0 126.0 133.0 126.0 133.0 126.0 C133.0 126.0 133.0 126.0 133.0 126.0 C133.0 126.0 133.0 126.0 133.0 126.0 C133.0 126.0 133.0 126.0 133.0 126.0 C133.0 126.0 133.0 126.0 133.0 126.0 C133.0 126.0 133.0 126.0 133.0 126.0 C133.0 126.0 133.0 126.0 133.0 126.0 C133.0 126.0 133.0 126.0 133.0 126.0 C133.0 126.0 133.0 126.0 133.0 126.0 C133.0 126.0 133.0 126.0 133.0 126.0 C133.0 126.0 133.0 126.0 133.0 126.0 C133.0 126.0 133.0 126.0 133.0 126.0 C133.0 126.0 133.0 126.0 133.0 126.0 C133.0 126.0 133.0 126.0 133.0 126.0 C133.0 126.0 133.0 126.0 133.0 126.0 C133.0 126.0 133.0 126.0 133.0 126.0 C133.0 126.0 133.0 126.0 133.0 126.0 C133.0 126.0 133.0 126.0 133.0 126.0 C133.0 126.0 133.0 126.0 133.0 126.0 C133.0 126.0 133.0 126.0 133.0 126.0 C133.0 126.0 133.0 126.0 133.0 126.0 C133.0 126.0 133.0 126.0 133.0 126.0 C133.0 126.0 133.0 126.0 133.0 126.0 C133.0 126.0 133.0 126.0 133.0 126.0 C133.0 126.0 133.0 126.0 133.0 126.0 C133.0 126.0 133.0 126.0 133.0 126.0 C133.0 126.0 133.0 126.0 133.0 126.0 C133.0 126.0 133.0 126.0 133.0 126.0 C133.0 126.0 133.0 126.0 133.0 126.0 C133.0 126.0 133.0 126.0 133.0 126.0 C133.0 126.0 133.0 126.0 133.0 126.0 C133.0 126.0 133.0 126.0 133.0 126.0 C133.0 126.0 133.0 126.0 133.0 126.0 C133.0 126.0 133.0 126.0 133.0 126.0 C133.0 126.0 133.0 126.0 133.0 126.0 C133.0 126.0 133.0 126.0 133.0 126.0 C133.0 126.0 133.0 126.0 133.0 126.0 C133.0 126.0 133.0 126.0 133.0 126.0 C133.0 126.0 133.0 126.0 133.0 126.0 C133.0 126.0 133.0 126.0 133.0 126.0 C133.0 126.0 133.0 126.0 133.0 126.0 C133.0 126.0 133.0 126.0 133.0 126.0 C133.0 126.0 133.0 126.0 133.0 126.0 C133.0 126.0 133.0 126.0 133.0 126.0 C133.0 126.0 133.0 126.0 133.0 126.0 C133.0 126.0 133.0 126.0 133.0 126.0 C133.0 126.0 133.0 126.0 133.0 126.0 C133.0 126.0 133.0 126.0 133.0 126.0 C133.0 126.0 133.0 126.0 133.0 126.0 C133.0 126.0 133.0 126.0 133.0 126.0 C133.0 126.0 133.0 126.0 133.0 126.0 C133.0 126.0 133.0 126.0 133.0 126.0 C133.0 126.0 133.0 126.0 133.0 126.0 C133.0 126.0 133.0 126.0 133.0 126.0 C133.0 126.0 133.0 126.0 133.0 126.0 C133.0 126.0 133.0 126.0 133.0 126.0 C133.0 126.0 133.0 126.0 133.0 126.0 C133.0 126.0 133.0 126.0 133.0 126.0 C133.0 126.0 133.0 126.0 133.0 126.0 C133.0 126.0 133.0 126.0 133.0 126.0 C133.0 126.0 133.0 126.0 133.0 126.0 C133.0 126.0 133.0 126.0 133.0 126.0 C133.0 126.0 133.0 126.0 133.0 126.0 C133.0 126.0 133.0 126.0 133.0 126.0 C133.0 126.0 133.0 126.0 133.0 126.0 C133.0 126.0 133.0 126.0 133.0 126.0 C133.0 126.0 133.0 126.0 133.0 126.0 C133.0 126.0 133.0 126.0 133.0 126.0 C133.0 126.0 133.0 126.0 133.0 126.0 C133.0 126.0 133.0 126.0 133.0 126.0 C133.0 126.0 133.0 126.0 133.0 126.0 C133.0 126.0 133.0 126.0 133.0 126.0 C133.0 126.0 133.0 126.0 133.0 126.0 C133.0 126.0 133.0 126.0 133.0 126.0 C133.0 126.0 133.0 126.0 133.0 126.0 C133.0 126.0 133.0 126.0 133.0 126.0 C133.0 126.0 133.0 126.0 133.0 126.0 C133.0 126.0 133.0 126.0 133.0 126.0 C133.0 126.0 133.0 126.0 133.0 126.0 C133.0 126.0 133.0 126.0 133.0 126.0 C133.0 126.0 133.0 126.0 133.0 126.0 C133.0 126.0 133.0 126.0 133.0 126.0 C133.0 126.0 133.0 126.0 133.0 126.0 C133.0 126.0 133.0 126.0 133.0 126.0 C133.0 126.0 133.0 126.0 133.0 126.0 C133.0 126.0 133.0 126.0 133.0 126.0 C133.0 126.0 133.0 126.0 133.0 126.0 C133.0 126.0 133.0 126.0 133.0 126.0 C133.0 126.0 133.0 126.0 133.0 126.0 C133.0 126.0 133.0 126.0 133.0 126.0 C133.0 126.0 133.0 126.0 133.0 126.0 C133.0 126.0 133.0 126.0 133.0 126.0 C133.0 126.0 133.0 126.0 133.0 126.0 C133.0 126.0 133.0 126.0 133.0 126.0 C133.0 126.0 133.0 126.0 133.0 126.0 C133.0 126.0 133.0 126.0 133.0 126.0 C133.0 126.0 133.0 126.0 133.0 126.0 C133.0 126.0 133.0 126.0 133.0 126.0 C133.0 126.0 133.0 126.0 133.0 126.0 C133.0 126.0 133.0 126.0 133.0 126.0 C133.0 126.0 133.0 126.0 133.0 126.0 C133.0 126.0 133.0 126.0 133.0 126.0 C133.0 126.0 133.0 126.0 133.0 126.0 C133.0 126.0 133.0 126.0 133.0 126.0 C133.0 126.0 133.0 126.0 133.0 126.0 C133.0 126.0 133.0 126.0 133.0 126.0 C133.0 126.0 133.0 126.0 133.0 126.0 C133.0 126.0 133.0 126.0 133.0 126.0 C133.0 126.0 133.0 126.0 133.0 126.0 C133.0 126.0 133.0 126.0 133.0 126.0 C133.0 126.0 133.0 126.0 133.0 126.0 C133.0 126.0 133.0 126.0 133.0 126.0 C133.0 126.0 133.0 126.0 133.0 126.0 C133.0 126.0 133.0 126.0 133.0 126.0 C133.0 126.0 133.0 126.0 133.0 126.0 C133.0 126.0 133.0 126.0 133.0 126.0 C133.0 126.0 133.0 126.0 133.0 126.0 C133.0 126.0 133.0 126.0 133.0 126.0 C133.0 126.0 133.0 126.0 133.0 126.0 C133.0 126.0 133.0 126.0 133.0 126.0 C133.0 126.0 133.0 126.0 133.0 126.0 C133.0 126.0 133.0 126.0 133.0 126.0 C133.0 126.0 133.0 126.0 133.0 126.0 C133.0 126.0 133.0 126.0 133.0 126.0 C133.0 126.0 133.0 126.0 133.0 126.0 C133.0 126.0 133.0 126.0 133.0 126.0 C133.0 126.0 133.0 126.0 133.0 126.0 C133.0 126.0 133.0 126.0 133.0 126.0 C133.0 126.0 133.0 126.0 133.0 126.0 C133.0 126.0 133.0 126.0 133.0 126.0 C133.0 126.0 133.0 126.0 133.0 126.0 C133.0 126.0 133.0 126.0 133.0 126.0 C133.0 126.0 133.0 126.0 133.0 126.0 C133.0 126.0 133.0 126.0 133.0 126.0 C133.0 126.0 133.0 126.0 133.0 126.0 C133.0 126.0 133.0 126.0 133.0 126.0 C133.0 126.0 133.0 126.0 133.0 126.0 C133.0 126.0 133.0 126.0 133.0 126.0 C133.0 126.0 133.0 126.0 133.0 126.0 C133.0 126.0 133.0 126.0 133.0 126.0 C133.0 126.0 133.0 126.0 133.0 126.0 C133.0 126.0 133.0 126.0 133.0 126.0 C133.0 126.0 133.0 126.0 133.0 126.0 C133.0 126.0 133.0 126.0 133.0 126.0 C133.0 126.0 133.0 126.0 133.0 126.0 C133.0 126.0 133.0 126.0 133.0 126.0 C133.0 126.0 133.0 126.0 133.0 126.0 C133.0 126.0 133.0 126.0 133.0 126.0 C133.0 126.0 133.0 126.0 133.0 126.0 C133.0 126.0 133.0 126.0 133.0 126.0 C133.0 126.0 133.0 126.0 133.0 126.0 C133.0 126.0 133.0 126.0 133.0 126.0 C133.0 126.0 133.0 126.0 133.0 126.0 C133.0 126.0 133.0 126.0 133.0 126.0 C133.0 126.0 133.0 126.0 133.0 126.0 C133.0 126.0 133.0 126.0 133.0 126.0 C133.0 126.0 133.0 126.0 133.0 126.0 C133.0 126.0 133.0 126.0 133.0 126.0 C133.0 126.0 133.0 126.0 133.0 126.0 C133.0 126.0 133.0 126.0 133.0 126.0 C133.0 126.0 133.0 126.0 133.0 126.0 C133.0 126.0 133.0 126.0 133.0 126.0 C133.0 126.0 133.0 126.0 133.0 126.0 C133.0 126.0 133.0 126.0 133.0 126.0 C133.0 126.0 133.0 126.0 133.0 126.0 C133.0 126.0 133.0 126.0 133.0 126.0 C133.0 126.0 133.0 126.0 133.0 126.0 C133.0 126.0 133.0 126.0 133.0 126.0 C133.0 126.0 133.0 126.0 133.0 126.0 C133.0 126.0 133.0 126.0 133.0 126.0 C133.0 126.0 133.0 126.0 133.0 126.0 C133.0 126.0 133.0 126.0 133.0 126.0 C133.0 126.0 133.0 126.0 133.0 126.0 C133.0 126.0 133.0 126.0 133.0 126.0 C133.0 126.0 133.0 126.0 133.0 126.0 C133.0 126.0 133.0 126.0 133.0 126.0 C133.0 126.0 133.0 126.0 133.0 126.0 C133.0 126.0 133.0 126.0 133.0 126.0 C133.0 126.0 133.0 126.0 133.0 126.0 C133.0 126.0 133.0 126.0 133.0 126.0 C133.0 126.0 133.0 126.0 133.0 126.0 C133.0 126.0 133.0 126.0 133.0 126.0 C133.0 126.0 133.0 126.0 133.0 126.0 C133.0 126.0 133.0 126.0 133.0 126.0 C133.0 126.0 133.0 126.0 133.0 126.0 C133.0 126.0 133.0 126.0 133.0 126.0 C133.0 126.0 133.0 126.0 133.0 126.0 C133.0 126.0 133.0 126.0 133.0 126.0 C133.0 126.0 133.0 126.0 133.0 126.0 C133.0 126.0 133.0 126.0 133.0 126.0 C133.0 126.0 133.0 126.0 133.0 126.0 C133.0 126.0 133.0 126.0 133.0 126.0 C133.0 126.0 133.0 126.0 133.0 126.0 C133.0 126.0 133.0 126.0 133.0 126.0 C133.0 126.0 133.0 126.0 133.0 126.0 C133.0 126.0 133.0 126.0 133.0 126.0 C133.0 126.0 133.0 126.0 133.0 126.0 C133.0 126.0 133.0 126.0 133.0 126.0 C133.0 126.0 133.0 126.0 133.0 126.0 C133.0 126.0 133.0 126.0 133.0 126.0 C133.0 126.0 133.0 126.0 133.0 126.0 C133.0 126.0 133.0 126.0 133.0 126.0 C133.0 126.0 133.0 126.0 133.0 126.0 C133.0 126.0 133.0 126.0 133.0 126.0 C133.0 126.0 133.0 126.0 133.0 126.0 C133.0 126.0 133.0 126.0 133.0 126.0 C133.0 126.0 133.0 126.0 133.0 126.0 C133.0 126.0 133.0 126.0 133.0 126.0 C133.0 126.0 133.0 126.0 133.0 126.0 C133.0 126.0 133.0 126.0 133.0 126.0 C133.0 126.0 133.0 126.0 133.0 126.0 C133.0 126.0 133.0 126.0 133.0 126.0 C133.0 126.0 133.0 126.0 133.0 126.0 C133.0 126.0 133.0 126.0 133.0 126.0 C133.0 126.0 133.0 126.0 133.0 126.0 C133.0 126.0 133.0 126.0 133.0 126.0 C133.0 126.0 133.0 126.0 133.0 126.0 C133.0 126.0 133.0 126.0 133.0 126.0 C133.0 126.0 133.0 126.0 133.0 126.0 C133.0 126.0 133.0 126.0 133.0 126.0 C133.0 126.0 133.0 126.0 133.0 126.0 C133.0 126.0 133.0 126.0 133.0 126.0 C133.0 126.0 133.0 126.0 133.0 126.0 C133.0 126.0 133.0 126.0 133.0 126.0 C133.0 126.0 133.0 126.0 133.0 126.0 C133.0 126.0 133.0 126.0 133.0 126.0 C133.0 126.0 133.0 126.0 133.0 126.0 C133.0 126.0 133.0 126.0 133.0 126.0 C133.0 126.0 133.0 126.0 133.0 126.0 C133.0 126.0 133.0 126.0 133.0 126.0 C133.0 126.0 133.0 126.0 133.0 126.0 C133.0 126.0 133.0 126.0 133.0 126.0 C133.0 126.0 133.0 126.0 133.0 126.0 C133.0 126.0 133.0 126.0 133.0 126.0 C133.0 126.0 133.0 126.0 133.0 126.0 C133.0 126.0 133.0 126.0 133.0 126.0 C133.0 126.0 133.0 126.0 133.0 126.0 C133.0 126.0 133.0 126.0 133.0 126.0 C133.0 126.0 133.0 126.0 133.0 126.0 C133.0 126.0 133.0 126.0 133.0 126.0 C133.0 126.0 133.0 126.0 133.0 126.0 C133.0 126.0 133.0 126.0 133.0 126.0 C133.0 126.0 133.0 126.0 133.0 126.0 C133.0 126.0 133.0 126.0 133.0 126.0 C133.0 126.0 133.0 126.0 133.0 126.0 C133.0 126.0 133.0 126.0 133.0 126.0"></path></svg>