<svg xmlns="http://www.w3.org/2000/svg" viewBox="0.0 0.0 200.0 200.0" height="200px" width="200px"><path fill="#eeffff" fill-opacity="1.0"  filling="0" d="M176.0 3.0 C176.0 2.0 176.0 2.0 176.0 2.0 C175.0 1.0 173.0 1.0 172.0 1.0 C172.0 0.0 171.0 0.0 170.0 0.0 C152.0 0.0 127.0 0.0 128.0 0.0 C127.0 0.0 126.0 1.0 126.0 2.0 C126.0 2.0 126.0 2.0 126.0 3.0 C125.0 3.0 124.0 4.0 124.0 5.0 C124.0 5.0 123.0 31.0 122.0 70.0 L78.0 70.0 C77.0 31.0 76.0 5.0 76.0 5.0 C76.0 4.0 75.0 3.0 74.0 3.0 C74.0 2.0 74.0 2.0 74.0 2.0 C74.0 1.0 73.0 0.0 72.0 0.0 C73.0 0.0 48.0 0.0 30.0 0.0 C29.0 0.0 28.0 0.0 28.0 1.0 C27.0 1.0 25.0 1.0 24.0 2.0 C24.0 2.0 24.0 2.0 24.0 3.0 C23.0 3.0 21.0 4.0 21.0 5.0 C21.0 5.0 21.0 31.0 22.0 70.0 C22.0 110.0 21.0 194.0 21.0 195.0 C21.0 196.0 22.0 197.0 24.0 197.0 C24.0 198.0 24.0 198.0 24.0 198.0 C25.0 199.0 27.0 199.0 28.0 199.0 C28.0 199.0 29.0 199.0 30.0 199.0 C48.0 199.0 73.0 199.0 72.0 199.0 C73.0 199.0 74.0 199.0 74.0 198.0 C74.0 198.0 74.0 198.0 74.0 197.0 C75.0 197.0 76.0 196.0 76.0 195.0 C76.0 195.0 77.0 169.0 78.0 130.0 L122.0 130.0 C123.0 169.0 124.0 195.0 124.0 195.0 C124.0 196.0 125.0 197.0 126.0 197.0 C126.0 198.0 126.0 198.0 126.0 198.0 C126.0 199.0 127.0 199.0 128.0 199.0 C127.0 199.0 152.0 199.0 170.0 199.0 C171.0 199.0 172.0 199.0 172.0 199.0 C173.0 199.0 175.0 199.0 176.0 198.0 C176.0 198.0 176.0 198.0 176.0 197.0 C178.0 197.0 179.0 196.0 179.0 195.0 C179.0 194.0 178.0 110.0 178.0 70.0 C179.0 31.0 179.0 5.0 179.0 5.0 C179.0 4.0 178.0 3.0 176.0 3.0 L176.0 3.0 Z"></path>
<path fill="#ddeeee" fill-opacity="1.0"  filling="0" d="M176.0 3.0 C176.0 2.0 176.0 2.0 176.0 2.0 C175.0 1.0 173.0 1.0 172.0 1.0 C172.0 0.0 171.0 0.0 170.0 0.0 C168.0 0.0 167.0 0.0 165.0 0.0 C165.0 1.0 165.0 1.0 165.0 1.0 C166.0 1.0 167.0 1.0 168.0 2.0 C168.0 2.0 168.0 2.0 168.0 3.0 C169.0 3.0 169.0 4.0 169.0 5.0 C169.0 5.0 167.0 31.0 166.0 70.0 C165.0 110.0 169.0 194.0 169.0 195.0 C169.0 196.0 169.0 197.0 168.0 198.0 C168.0 198.0 168.0 198.0 168.0 198.0 C167.0 199.0 166.0 199.0 165.0 199.0 C165.0 199.0 165.0 199.0 165.0 199.0 C167.0 199.0 168.0 199.0 170.0 199.0 C171.0 199.0 172.0 199.0 172.0 199.0 C173.0 199.0 175.0 199.0 176.0 198.0 C176.0 198.0 176.0 198.0 176.0 197.0 C178.0 197.0 179.0 196.0 179.0 195.0 C179.0 194.0 178.0 110.0 178.0 70.0 C179.0 31.0 179.0 5.0 179.0 5.0 C179.0 4.0 178.0 3.0 176.0 3.0 L176.0 3.0 Z"></path>
<path fill="#bbccdd" fill-opacity="1.0"  filling="0" d="M164.0 13.0 C163.0 13.0 162.0 12.0 161.0 12.0 C155.0 12.0 147.0 12.0 140.0 12.0 C139.0 12.0 138.0 13.0 137.0 13.0 C137.0 14.0 136.0 15.0 136.0 16.0 C136.0 16.0 135.0 30.0 134.0 47.0 C134.0 60.0 134.0 73.0 134.0 83.0 C134.0 85.0 134.0 87.0 134.0 90.0 C134.0 90.0 134.0 90.0 133.0 90.0 C132.0 90.0 131.0 90.0 129.0 90.0 C124.0 89.0 118.0 89.0 112.0 89.0 C106.0 88.0 101.0 88.0 97.0 88.0 C90.0 88.0 83.0 89.0 76.0 89.0 C73.0 89.0 70.0 90.0 67.0 90.0 C66.0 90.0 66.0 90.0 66.0 90.0 C66.0 87.0 66.0 85.0 66.0 83.0 C66.0 73.0 66.0 60.0 66.0 47.0 C65.0 30.0 64.0 16.0 64.0 16.0 C64.0 15.0 63.0 14.0 63.0 13.0 C62.0 13.0 61.0 12.0 60.0 12.0 C53.0 12.0 45.0 12.0 39.0 12.0 C38.0 12.0 37.0 13.0 36.0 13.0 C34.0 14.0 33.0 15.0 33.0 16.0 C33.0 19.0 33.0 47.0 34.0 70.0 C34.0 93.0 33.0 125.0 33.0 153.0 C33.0 169.0 33.0 181.0 33.0 184.0 C33.0 185.0 34.0 186.0 36.0 187.0 C37.0 187.0 38.0 188.0 39.0 188.0 C45.0 188.0 53.0 188.0 60.0 188.0 C61.0 188.0 62.0 187.0 63.0 187.0 C63.0 186.0 64.0 185.0 64.0 184.0 C64.0 184.0 65.0 170.0 66.0 153.0 C66.0 140.0 66.0 127.0 66.0 117.0 C66.0 115.0 66.0 113.0 66.0 110.0 C66.0 110.0 66.0 110.0 67.0 110.0 C68.0 110.0 69.0 110.0 71.0 110.0 C76.0 111.0 82.0 111.0 88.0 111.0 C94.0 112.0 99.0 112.0 103.0 112.0 C110.0 112.0 117.0 111.0 124.0 111.0 C127.0 111.0 130.0 110.0 133.0 110.0 C134.0 110.0 134.0 110.0 134.0 110.0 C134.0 113.0 134.0 115.0 134.0 117.0 C134.0 127.0 134.0 140.0 134.0 153.0 C135.0 170.0 136.0 184.0 136.0 184.0 C136.0 185.0 137.0 186.0 137.0 187.0 C138.0 187.0 139.0 188.0 140.0 188.0 C147.0 188.0 155.0 188.0 161.0 188.0 C162.0 188.0 163.0 187.0 164.0 187.0 C166.0 186.0 167.0 185.0 167.0 184.0 C167.0 181.0 167.0 169.0 167.0 153.0 C167.0 125.0 166.0 93.0 166.0 70.0 C167.0 47.0 167.0 19.0 167.0 16.0 C167.0 15.0 166.0 14.0 164.0 13.0 L164.0 13.0 Z"></path>
<path fill="#99aabb" fill-opacity="1.0"  filling="0" d="M166.0 70.0 C167.0 47.0 167.0 19.0 167.0 16.0 C167.0 15.0 166.0 14.0 164.0 13.0 C163.0 13.0 162.0 12.0 161.0 12.0 C159.0 12.0 157.0 12.0 155.0 12.0 C156.0 13.0 156.0 14.0 156.0 16.0 C156.0 19.0 155.0 47.0 154.0 70.0 C154.0 93.0 154.0 125.0 154.0 153.0 C155.0 169.0 156.0 181.0 156.0 184.0 C156.0 185.0 156.0 186.0 155.0 187.0 C157.0 188.0 159.0 188.0 161.0 188.0 C162.0 188.0 163.0 187.0 164.0 187.0 C166.0 186.0 167.0 185.0 167.0 184.0 C167.0 181.0 167.0 169.0 167.0 153.0 C167.0 125.0 166.0 93.0 166.0 70.0 L166.0 70.0 Z"></path></svg>