<svg xmlns="http://www.w3.org/2000/svg" viewBox="0.0 0.0 200.0 200.0" height="200px" width="200px"><path fill="#eeffff" fill-opacity="1.0"  filling="0" d="M176.0 3.0 C176.0 3.0 151.0 0.0 129.0 0.0 C128.0 0.0 127.0 1.0 126.0 2.0 C126.0 3.0 123.0 29.0 122.0 77.0 C111.0 76.0 100.0 76.0 100.0 76.0 C100.0 76.0 89.0 76.0 78.0 77.0 C77.0 29.0 74.0 3.0 74.0 2.0 C73.0 1.0 72.0 0.0 71.0 0.0 C49.0 0.0 24.0 3.0 24.0 3.0 C22.0 3.0 21.0 4.0 21.0 6.0 L21.0 194.0 C21.0 196.0 22.0 197.0 24.0 197.0 C24.0 197.0 49.0 199.0 71.0 199.0 C72.0 199.0 73.0 199.0 74.0 198.0 C74.0 197.0 77.0 171.0 78.0 123.0 C89.0 124.0 100.0 124.0 100.0 124.0 C100.0 124.0 111.0 124.0 122.0 123.0 C123.0 171.0 126.0 197.0 126.0 198.0 C127.0 199.0 128.0 199.0 129.0 199.0 C151.0 199.0 176.0 197.0 176.0 197.0 C178.0 197.0 179.0 196.0 179.0 194.0 L179.0 6.0 C179.0 4.0 178.0 3.0 176.0 3.0 L176.0 3.0 Z"></path>
<path fill="#ddeeee" fill-opacity="1.0"  filling="0" d="M176.0 3.0 C176.0 3.0 172.0 1.0 165.0 1.0 L165.0 198.0 C172.0 199.0 176.0 197.0 176.0 197.0 C178.0 197.0 179.0 196.0 179.0 194.0 L179.0 6.0 C179.0 4.0 178.0 3.0 176.0 3.0 L176.0 3.0 Z"></path>
<path fill="#bbccdd" fill-opacity="1.0"  filling="0" d="M164.0 13.0 C163.0 13.0 151.0 12.0 139.0 12.0 C138.0 12.0 137.0 13.0 136.0 15.0 C136.0 15.0 134.0 33.0 133.0 65.0 C133.0 65.0 133.0 65.0 133.0 65.0 C133.0 72.0 133.0 80.0 134.0 88.0 C134.0 89.0 133.0 90.0 132.0 90.0 C124.0 89.0 114.0 88.0 100.0 88.0 C86.0 88.0 76.0 89.0 68.0 90.0 C67.0 90.0 66.0 89.0 66.0 88.0 C67.0 80.0 67.0 72.0 67.0 65.0 C67.0 65.0 67.0 65.0 67.0 65.0 C66.0 33.0 64.0 15.0 64.0 15.0 C63.0 13.0 62.0 12.0 61.0 12.0 C49.0 12.0 37.0 13.0 36.0 13.0 C34.0 14.0 33.0 15.0 33.0 17.0 L33.0 183.0 C33.0 185.0 34.0 186.0 36.0 187.0 C37.0 187.0 49.0 188.0 61.0 188.0 C62.0 188.0 63.0 187.0 64.0 185.0 C64.0 185.0 66.0 167.0 67.0 135.0 C67.0 135.0 67.0 135.0 67.0 135.0 C67.0 128.0 67.0 120.0 66.0 112.0 C66.0 111.0 67.0 110.0 68.0 110.0 C76.0 111.0 86.0 112.0 100.0 112.0 C114.0 112.0 124.0 111.0 132.0 110.0 C133.0 110.0 134.0 111.0 134.0 112.0 C133.0 120.0 133.0 128.0 133.0 135.0 C133.0 135.0 133.0 135.0 133.0 135.0 C134.0 167.0 136.0 185.0 136.0 185.0 C137.0 187.0 138.0 188.0 139.0 188.0 C151.0 188.0 163.0 187.0 164.0 187.0 C166.0 186.0 167.0 185.0 167.0 183.0 L167.0 17.0 C167.0 15.0 166.0 14.0 164.0 13.0 L164.0 13.0 Z"></path>
<path fill="#99aabb" fill-opacity="1.0"  filling="0" d="M164.0 13.0 C163.0 13.0 159.0 12.0 155.0 12.0 L155.0 188.0 C159.0 188.0 163.0 187.0 164.0 187.0 C166.0 186.0 167.0 185.0 167.0 183.0 L167.0 17.0 C167.0 15.0 166.0 14.0 164.0 13.0 L164.0 13.0 Z"></path></svg>