<svg xmlns="http://www.w3.org/2000/svg" viewBox="0.0 0.0 200.0 200.0" height="200px" width="200px"><path fill="#eeffff" fill-opacity="1.0"  filling="0" d="M176.0 3.0 C176.0 3.0 151.0 0.0 129.0 0.0 C128.0 0.0 127.0 1.0 126.0 2.0 C126.0 3.0 123.0 29.0 122.0 77.0 C111.0 76.0 99.0 76.0 85.0 77.0 C83.0 77.0 81.0 77.0 78.0 77.0 C77.0 29.0 74.0 3.0 74.0 2.0 C73.0 1.0 72.0 0.0 71.0 0.0 C62.0 0.0 50.0 1.0 41.0 2.0 C32.0 2.0 24.0 3.0 24.0 3.0 C22.0 3.0 21.0 5.0 21.0 6.0 C21.0 7.0 22.0 57.0 21.0 194.0 C21.0 196.0 22.0 197.0 24.0 197.0 C24.0 197.0 32.0 198.0 41.0 198.0 C50.0 199.0 62.0 199.0 71.0 199.0 C72.0 199.0 73.0 199.0 74.0 198.0 C74.0 197.0 77.0 171.0 78.0 123.0 C83.0 124.0 93.0 124.0 100.0 124.0 C107.0 124.0 117.0 124.0 122.0 123.0 C123.0 171.0 126.0 197.0 126.0 198.0 C127.0 199.0 128.0 199.0 129.0 199.0 C135.0 199.0 144.0 199.0 151.0 199.0 C167.0 199.0 176.0 197.0 176.0 197.0 C178.0 197.0 179.0 196.0 179.0 194.0 C179.0 143.0 179.0 7.0 179.0 6.0 C179.0 5.0 178.0 3.0 176.0 3.0 L176.0 3.0 Z"></path>
<path fill="#ddeeee" fill-opacity="1.0"  filling="0" d="M178.0 194.0 C179.0 196.0 178.0 197.0 176.0 197.0 C176.0 197.0 167.0 199.0 151.0 199.0 C144.0 199.0 135.0 199.0 129.0 199.0 C128.0 199.0 127.0 199.0 126.0 198.0 C126.0 197.0 123.0 171.0 122.0 123.0 C117.0 124.0 107.0 124.0 100.0 124.0 C93.0 124.0 83.0 124.0 78.0 123.0 C77.0 171.0 74.0 197.0 74.0 198.0 C73.0 199.0 72.0 199.0 71.0 199.0 C62.0 199.0 50.0 199.0 41.0 198.0 C32.0 198.0 24.0 197.0 24.0 197.0 C22.0 197.0 21.0 196.0 21.0 194.0 C22.0 57.0 21.0 7.0 21.0 6.0 C21.0 5.0 22.0 3.0 24.0 3.0 C24.0 3.0 32.0 2.0 41.0 2.0 C50.0 1.0 62.0 0.0 71.0 0.0 C72.0 0.0 73.0 1.0 74.0 2.0 C74.0 3.0 77.0 29.0 78.0 77.0 C81.0 77.0 83.0 77.0 85.0 77.0 C93.0 76.0 101.0 76.0 109.0 76.0 C112.0 76.0 117.0 76.0 122.0 77.0 C123.0 29.0 126.0 3.0 126.0 2.0 C127.0 1.0 128.0 0.0 129.0 0.0 C135.0 0.0 144.0 0.0 151.0 0.0 C158.0 1.0 163.0 1.0 165.0 2.0 C167.0 2.0 168.0 3.0 168.0 6.0 C168.0 7.0 168.0 57.0 168.0 194.0 C168.0 196.0 167.0 197.0 165.0 197.0 C163.0 197.0 158.0 198.0 151.0 199.0 C167.0 199.0 176.0 197.0 176.0 197.0 C178.0 197.0 179.0 196.0 178.0 194.0 L178.0 194.0 Z"></path>
<path fill="#bbccdd" fill-opacity="1.0"  filling="0" d="M99.0 106.0 C99.0 106.0 99.0 106.0 99.0 106.0 C90.0 106.0 81.0 106.0 72.0 107.0 C70.0 107.0 69.0 106.0 68.0 105.0 C68.0 103.0 68.0 102.0 68.0 101.0 C68.0 98.0 68.0 95.0 68.0 92.0 C68.0 90.0 70.0 89.0 72.0 89.0 C81.0 89.0 90.0 88.0 99.0 88.0 C99.0 88.0 99.0 88.0 99.0 88.0 C107.0 88.0 116.0 89.0 124.0 89.0 C126.0 89.0 127.0 90.0 127.0 92.0 C127.0 95.0 127.0 98.0 127.0 101.0 C127.0 102.0 127.0 103.0 127.0 105.0 C127.0 106.0 126.0 107.0 124.0 107.0 C116.0 106.0 107.0 106.0 99.0 106.0 L99.0 106.0 Z"></path>
<path fill="#000000" fill-opacity="1.0"  filling="0" d="M105.0 90.0 C105.0 90.0 105.0 90.0 105.0 90.0 C105.0 90.0 105.0 90.0 105.0 90.0 C105.0 90.0 105.0 90.0 105.0 90.0 C105.0 90.0 105.0 90.0 105.0 90.0 C105.0 90.0 105.0 90.0 105.0 90.0 C105.0 90.0 105.0 90.0 105.0 90.0 C105.0 90.0 105.0 90.0 105.0 90.0 C105.0 90.0 105.0 90.0 105.0 90.0 C105.0 90.0 105.0 90.0 105.0 90.0 C105.0 90.0 105.0 90.0 105.0 90.0 C105.0 90.0 105.0 90.0 105.0 90.0 C105.0 90.0 105.0 90.0 105.0 90.0 C105.0 90.0 105.0 90.0 105.0 90.0 C105.0 90.0 105.0 90.0 105.0 90.0 C105.0 90.0 105.0 90.0 105.0 90.0 C105.0 90.0 105.0 90.0 105.0 90.0 C105.0 90.0 105.0 90.0 105.0 90.0 C105.0 90.0 105.0 90.0 105.0 90.0 C105.0 90.0 105.0 90.0 105.0 90.0 C105.0 90.0 105.0 90.0 105.0 90.0 C105.0 90.0 105.0 90.0 105.0 90.0 C105.0 90.0 105.0 90.0 105.0 90.0 C105.0 90.0 105.0 90.0 105.0 90.0 C105.0 90.0 105.0 90.0 105.0 90.0 C105.0 90.0 105.0 90.0 105.0 90.0 C105.0 90.0 105.0 90.0 105.0 90.0 C105.0 90.0 105.0 90.0 105.0 90.0 C105.0 90.0 105.0 90.0 105.0 90.0 C105.0 90.0 105.0 90.0 105.0 90.0 C105.0 90.0 105.0 90.0 105.0 90.0 C105.0 90.0 105.0 90.0 105.0 90.0 C105.0 90.0 105.0 90.0 105.0 90.0 C105.0 90.0 105.0 90.0 105.0 90.0 C105.0 90.0 105.0 90.0 105.0 90.0 C105.0 90.0 105.0 90.0 105.0 90.0 C105.0 90.0 105.0 90.0 105.0 90.0 C105.0 90.0 105.0 90.0 105.0 90.0 C105.0 90.0 105.0 90.0 105.0 90.0 C105.0 90.0 105.0 90.0 105.0 90.0 C105.0 90.0 105.0 90.0 105.0 90.0 C105.0 90.0 105.0 90.0 105.0 90.0 C105.0 90.0 105.0 90.0 105.0 90.0 C105.0 90.0 105.0 90.0 105.0 90.0 C105.0 90.0 105.0 90.0 105.0 90.0 C105.0 90.0 105.0 90.0 105.0 90.0 C105.0 90.0 105.0 90.0 105.0 90.0 C105.0 90.0 105.0 90.0 105.0 90.0 C105.0 90.0 105.0 90.0 105.0 90.0 C105.0 90.0 105.0 90.0 105.0 90.0 C105.0 90.0 105.0 90.0 105.0 90.0 C105.0 90.0 105.0 90.0 105.0 90.0 C105.0 90.0 105.0 90.0 105.0 90.0 C105.0 90.0 105.0 90.0 105.0 90.0 C105.0 90.0 105.0 90.0 105.0 90.0 C105.0 90.0 105.0 90.0 105.0 90.0 C105.0 90.0 105.0 90.0 105.0 90.0 C105.0 90.0 105.0 90.0 105.0 90.0 C105.0 90.0 105.0 90.0 105.0 90.0 C105.0 90.0 105.0 90.0 105.0 90.0 C105.0 90.0 105.0 90.0 105.0 90.0 C105.0 90.0 105.0 90.0 105.0 90.0 C105.0 90.0 105.0 90.0 105.0 90.0 C105.0 90.0 105.0 90.0 105.0 90.0 C105.0 90.0 105.0 90.0 105.0 90.0 C105.0 90.0 105.0 90.0 105.0 90.0 C105.0 90.0 105.0 90.0 105.0 90.0 C105.0 90.0 105.0 90.0 105.0 90.0 C105.0 90.0 105.0 90.0 105.0 90.0 C105.0 90.0 105.0 90.0 105.0 90.0 C105.0 90.0 105.0 90.0 105.0 90.0 C105.0 90.0 105.0 90.0 105.0 90.0 C105.0 90.0 105.0 90.0 105.0 90.0 C105.0 90.0 105.0 90.0 105.0 90.0 C105.0 90.0 105.0 90.0 105.0 90.0 C105.0 90.0 105.0 90.0 105.0 90.0 C105.0 90.0 105.0 90.0 105.0 90.0 C105.0 90.0 105.0 90.0 105.0 90.0 C105.0 90.0 105.0 90.0 105.0 90.0 C105.0 90.0 105.0 90.0 105.0 90.0 C105.0 90.0 105.0 90.0 105.0 90.0 C105.0 90.0 105.0 90.0 105.0 90.0 C105.0 90.0 105.0 90.0 105.0 90.0 C105.0 90.0 105.0 90.0 105.0 90.0 C105.0 90.0 105.0 90.0 105.0 90.0 C105.0 90.0 105.0 90.0 105.0 90.0 C105.0 90.0 105.0 90.0 105.0 90.0 C105.0 90.0 105.0 90.0 105.0 90.0 C105.0 90.0 105.0 90.0 105.0 90.0 C105.0 90.0 105.0 90.0 105.0 90.0 C105.0 90.0 105.0 90.0 105.0 90.0 C105.0 90.0 105.0 90.0 105.0 90.0 C105.0 90.0 105.0 90.0 105.0 90.0 C105.0 90.0 105.0 90.0 105.0 90.0 C105.0 90.0 105.0 90.0 105.0 90.0 C105.0 90.0 105.0 90.0 105.0 90.0 C105.0 90.0 105.0 90.0 105.0 90.0 C105.0 90.0 105.0 90.0 105.0 90.0 C105.0 90.0 105.0 90.0 105.0 90.0 C105.0 90.0 105.0 90.0 105.0 90.0 C105.0 90.0 105.0 90.0 105.0 90.0 C105.0 90.0 105.0 90.0 105.0 90.0 C105.0 90.0 105.0 90.0 105.0 90.0 C105.0 90.0 105.0 90.0 105.0 90.0 C105.0 90.0 105.0 90.0 105.0 90.0 C105.0 90.0 105.0 90.0 105.0 90.0 C105.0 90.0 105.0 90.0 105.0 90.0 C105.0 90.0 105.0 90.0 105.0 90.0 C105.0 90.0 105.0 90.0 105.0 90.0 C105.0 90.0 105.0 90.0 105.0 90.0 C105.0 90.0 105.0 90.0 105.0 90.0 C105.0 90.0 105.0 90.0 105.0 90.0 C105.0 90.0 105.0 90.0 105.0 90.0 C105.0 90.0 105.0 90.0 105.0 90.0 C105.0 90.0 105.0 90.0 105.0 90.0 C105.0 90.0 105.0 90.0 105.0 90.0 C105.0 90.0 105.0 90.0 105.0 90.0 C105.0 90.0 105.0 90.0 105.0 90.0 C105.0 90.0 105.0 90.0 105.0 90.0 C105.0 90.0 105.0 90.0 105.0 90.0 C105.0 90.0 105.0 90.0 105.0 90.0 C105.0 90.0 105.0 90.0 105.0 90.0 C105.0 90.0 105.0 90.0 105.0 90.0 C105.0 90.0 105.0 90.0 105.0 90.0 C105.0 90.0 105.0 90.0 105.0 90.0 C105.0 90.0 105.0 90.0 105.0 90.0 C105.0 90.0 105.0 90.0 105.0 90.0 C105.0 90.0 105.0 90.0 105.0 90.0 C105.0 90.0 105.0 90.0 105.0 90.0 C105.0 90.0 105.0 90.0 105.0 90.0 C105.0 90.0 105.0 90.0 105.0 90.0 C105.0 90.0 105.0 90.0 105.0 90.0 C105.0 90.0 105.0 90.0 105.0 90.0 C105.0 90.0 105.0 90.0 105.0 90.0 C105.0 90.0 105.0 90.0 105.0 90.0 C105.0 90.0 105.0 90.0 105.0 90.0 C105.0 90.0 105.0 90.0 105.0 90.0 C105.0 90.0 105.0 90.0 105.0 90.0 C105.0 90.0 105.0 90.0 105.0 90.0 C105.0 90.0 105.0 90.0 105.0 90.0 C105.0 90.0 105.0 90.0 105.0 90.0 C105.0 90.0 105.0 90.0 105.0 90.0 C105.0 90.0 105.0 90.0 105.0 90.0 C105.0 90.0 105.0 90.0 105.0 90.0 C105.0 90.0 105.0 90.0 105.0 90.0 C105.0 90.0 105.0 90.0 105.0 90.0 C105.0 90.0 105.0 90.0 105.0 90.0 C105.0 90.0 105.0 90.0 105.0 90.0 C105.0 90.0 105.0 90.0 105.0 90.0 C105.0 90.0 105.0 90.0 105.0 90.0 C105.0 90.0 105.0 90.0 105.0 90.0 C105.0 90.0 105.0 90.0 105.0 90.0 C105.0 90.0 105.0 90.0 105.0 90.0 C105.0 90.0 105.0 90.0 105.0 90.0 C105.0 90.0 105.0 90.0 105.0 90.0 C105.0 90.0 105.0 90.0 105.0 90.0 C105.0 90.0 105.0 90.0 105.0 90.0 C105.0 90.0 105.0 90.0 105.0 90.0 C105.0 90.0 105.0 90.0 105.0 90.0 C105.0 90.0 105.0 90.0 105.0 90.0 C105.0 90.0 105.0 90.0 105.0 90.0 C105.0 90.0 105.0 90.0 105.0 90.0 C105.0 90.0 105.0 90.0 105.0 90.0 C105.0 90.0 105.0 90.0 105.0 90.0 C105.0 90.0 105.0 90.0 105.0 90.0 C105.0 90.0 105.0 90.0 105.0 90.0 C105.0 90.0 105.0 90.0 105.0 90.0 C105.0 90.0 105.0 90.0 105.0 90.0 C105.0 90.0 105.0 90.0 105.0 90.0 C105.0 90.0 105.0 90.0 105.0 90.0 C105.0 90.0 105.0 90.0 105.0 90.0 C105.0 90.0 105.0 90.0 105.0 90.0 C105.0 90.0 105.0 90.0 105.0 90.0 C105.0 90.0 105.0 90.0 105.0 90.0 C105.0 90.0 105.0 90.0 105.0 90.0 C105.0 90.0 105.0 90.0 105.0 90.0 C105.0 90.0 105.0 90.0 105.0 90.0 C105.0 90.0 105.0 90.0 105.0 90.0 C105.0 90.0 105.0 90.0 105.0 90.0 C105.0 90.0 105.0 90.0 105.0 90.0 C105.0 90.0 105.0 90.0 105.0 90.0 C105.0 90.0 105.0 90.0 105.0 90.0 C105.0 90.0 105.0 90.0 105.0 90.0 C105.0 90.0 105.0 90.0 105.0 90.0 C105.0 90.0 105.0 90.0 105.0 90.0 C105.0 90.0 105.0 90.0 105.0 90.0 C105.0 90.0 105.0 90.0 105.0 90.0 C105.0 90.0 105.0 90.0 105.0 90.0 C105.0 90.0 105.0 90.0 105.0 90.0 C105.0 90.0 105.0 90.0 105.0 90.0 C105.0 90.0 105.0 90.0 105.0 90.0 C105.0 90.0 105.0 90.0 105.0 90.0 C105.0 90.0 105.0 90.0 105.0 90.0 C105.0 90.0 105.0 90.0 105.0 90.0 C105.0 90.0 105.0 90.0 105.0 90.0 C105.0 90.0 105.0 90.0 105.0 90.0 C105.0 90.0 105.0 90.0 105.0 90.0 C105.0 90.0 105.0 90.0 105.0 90.0 C105.0 90.0 105.0 90.0 105.0 90.0 C105.0 90.0 105.0 90.0 105.0 90.0 C105.0 90.0 105.0 90.0 105.0 90.0 C105.0 90.0 105.0 90.0 105.0 90.0 C105.0 90.0 105.0 90.0 105.0 90.0 C105.0 90.0 105.0 90.0 105.0 90.0 C105.0 90.0 105.0 90.0 105.0 90.0 C105.0 90.0 105.0 90.0 105.0 90.0 C105.0 90.0 105.0 90.0 105.0 90.0 C105.0 90.0 105.0 90.0 105.0 90.0 C105.0 90.0 105.0 90.0 105.0 90.0 C105.0 90.0 105.0 90.0 105.0 90.0 C105.0 90.0 105.0 90.0 105.0 90.0 C105.0 90.0 105.0 90.0 105.0 90.0 C105.0 90.0 105.0 90.0 105.0 90.0 C105.0 90.0 105.0 90.0 105.0 90.0 C105.0 90.0 105.0 90.0 105.0 90.0 C105.0 90.0 105.0 90.0 105.0 90.0 C105.0 90.0 105.0 90.0 105.0 90.0 C105.0 90.0 105.0 90.0 105.0 90.0 C105.0 90.0 105.0 90.0 105.0 90.0 C105.0 90.0 105.0 90.0 105.0 90.0 C105.0 90.0 105.0 90.0 105.0 90.0 C105.0 90.0 105.0 90.0 105.0 90.0 C105.0 90.0 105.0 90.0 105.0 90.0 C105.0 90.0 105.0 90.0 105.0 90.0 C105.0 90.0 105.0 90.0 105.0 90.0 C105.0 90.0 105.0 90.0 105.0 90.0 C105.0 90.0 105.0 90.0 105.0 90.0 C105.0 90.0 105.0 90.0 105.0 90.0 C105.0 90.0 105.0 90.0 105.0 90.0 C105.0 90.0 105.0 90.0 105.0 90.0 C105.0 90.0 105.0 90.0 105.0 90.0 C105.0 90.0 105.0 90.0 105.0 90.0 C105.0 90.0 105.0 90.0 105.0 90.0 C105.0 90.0 105.0 90.0 105.0 90.0 C105.0 90.0 105.0 90.0 105.0 90.0 C105.0 90.0 105.0 90.0 105.0 90.0 C105.0 90.0 105.0 90.0 105.0 90.0 C105.0 90.0 105.0 90.0 105.0 90.0 C105.0 90.0 105.0 90.0 105.0 90.0 C105.0 90.0 105.0 90.0 105.0 90.0 C105.0 90.0 105.0 90.0 105.0 90.0 C105.0 90.0 105.0 90.0 105.0 90.0 C105.0 90.0 105.0 90.0 105.0 90.0 C105.0 90.0 105.0 90.0 105.0 90.0 C105.0 90.0 105.0 90.0 105.0 90.0 C105.0 90.0 105.0 90.0 105.0 90.0 C105.0 90.0 105.0 90.0 105.0 90.0 C105.0 90.0 105.0 90.0 105.0 90.0 C105.0 90.0 105.0 90.0 105.0 90.0 C105.0 90.0 105.0 90.0 105.0 90.0 C105.0 90.0 105.0 90.0 105.0 90.0 C105.0 90.0 105.0 90.0 105.0 90.0 C105.0 90.0 105.0 90.0 105.0 90.0 C105.0 90.0 105.0 90.0 105.0 90.0 C105.0 90.0 105.0 90.0 105.0 90.0 C105.0 90.0 105.0 90.0 105.0 90.0 C105.0 90.0 105.0 90.0 105.0 90.0 C105.0 90.0 105.0 90.0 105.0 90.0 C105.0 90.0 105.0 90.0 105.0 90.0 C105.0 90.0 105.0 90.0 105.0 90.0 C105.0 90.0 105.0 90.0 105.0 90.0 C105.0 90.0 105.0 90.0 105.0 90.0 C105.0 90.0 105.0 90.0 105.0 90.0 C105.0 90.0 105.0 90.0 105.0 90.0 C105.0 90.0 105.0 90.0 105.0 90.0 C105.0 90.0 105.0 90.0 105.0 90.0 C105.0 90.0 105.0 90.0 105.0 90.0 C105.0 90.0 105.0 90.0 105.0 90.0 C105.0 90.0 105.0 90.0 105.0 90.0 C105.0 90.0 105.0 90.0 105.0 90.0 C105.0 90.0 105.0 90.0 105.0 90.0 C105.0 90.0 105.0 90.0 105.0 90.0 C105.0 90.0 105.0 90.0 105.0 90.0 C105.0 90.0 105.0 90.0 105.0 90.0 C105.0 90.0 105.0 90.0 105.0 90.0 C105.0 90.0 105.0 90.0 105.0 90.0 C105.0 90.0 105.0 90.0 105.0 90.0 C105.0 90.0 105.0 90.0 105.0 90.0 C105.0 90.0 105.0 90.0 105.0 90.0 C105.0 90.0 105.0 90.0 105.0 90.0 C105.0 90.0 105.0 90.0 105.0 90.0 C105.0 90.0 105.0 90.0 105.0 90.0 C105.0 90.0 105.0 90.0 105.0 90.0 C105.0 90.0 105.0 90.0 105.0 90.0 C105.0 90.0 105.0 90.0 105.0 90.0 C105.0 90.0 105.0 90.0 105.0 90.0 C105.0 90.0 105.0 90.0 105.0 90.0 C105.0 90.0 105.0 90.0 105.0 90.0 C105.0 90.0 105.0 90.0 105.0 90.0 C105.0 90.0 105.0 90.0 105.0 90.0 C105.0 90.0 105.0 90.0 105.0 90.0 C105.0 90.0 105.0 90.0 105.0 90.0 C105.0 90.0 105.0 90.0 105.0 90.0 C105.0 90.0 105.0 90.0 105.0 90.0 C105.0 90.0 105.0 90.0 105.0 90.0 C105.0 90.0 105.0 90.0 105.0 90.0 C105.0 90.0 105.0 90.0 105.0 90.0 C105.0 90.0 105.0 90.0 105.0 90.0 C105.0 90.0 105.0 90.0 105.0 90.0 C105.0 90.0 105.0 90.0 105.0 90.0 C105.0 90.0 105.0 90.0 105.0 90.0 C105.0 90.0 105.0 90.0 105.0 90.0 C105.0 90.0 105.0 90.0 105.0 90.0"></path></svg>