<svg xmlns="http://www.w3.org/2000/svg" viewBox="0.0 0.0 200.0 200.0" height="200px" width="200px"><path fill="#778899" fill-opacity="1.0"  filling="0" d="M100.0 4.0 C76.0 4.0 54.0 27.0 54.0 50.0 L54.0 110.0 L146.0 110.0 L146.0 50.0 C146.0 27.0 124.0 4.0 100.0 4.0 L100.0 4.0 Z"></path>
<path fill="#223344" fill-opacity="1.0"  filling="0" d="M100.0 0.0 C121.0 0.0 121.0 0.0 137.0 17.0 C154.0 31.0 154.0 31.0 154.0 50.0 L154.0 110.0 C154.0 112.0 154.0 112.0 153.0 114.0 C151.0 115.0 151.0 115.0 148.0 115.0 L52.0 115.0 C49.0 115.0 49.0 115.0 47.0 114.0 C46.0 112.0 46.0 112.0 46.0 110.0 L46.0 50.0 C46.0 31.0 46.0 31.0 63.0 17.0 C79.0 0.0 79.0 0.0 100.0 0.0 L100.0 0.0 Z M100.0 8.0 C82.0 8.0 82.0 8.0 69.0 23.0 C54.0 35.0 54.0 35.0 54.0 50.0 L54.0 106.0 L146.0 106.0 L146.0 50.0 C146.0 35.0 146.0 35.0 131.0 23.0 C118.0 8.0 118.0 8.0 100.0 8.0 L100.0 8.0 Z"></path>
<path fill="#ffffff" fill-opacity="1.0"  filling="0" d="M22.0 22.0 L178.0 22.0 L178.0 196.0 L22.0 196.0 L22.0 22.0 L22.0 22.0 Z"></path>
<path fill="#223344" fill-opacity="1.0"  filling="0" d="M22.0 21.0 L178.0 21.0 C180.0 21.0 180.0 21.0 180.0 23.0 L180.0 196.0 C180.0 198.0 180.0 198.0 178.0 198.0 L22.0 198.0 C20.0 198.0 20.0 198.0 20.0 196.0 L20.0 23.0 C20.0 21.0 20.0 21.0 22.0 21.0 L22.0 21.0 Z M24.0 25.0 L24.0 194.0 L176.0 194.0 L176.0 25.0 L24.0 25.0 L24.0 25.0 Z"></path>
<path fill="#bb99ff" fill-opacity="1.0"  filling="0" d="M28.0 172.0 L172.0 172.0 L172.0 196.0 L28.0 196.0 L28.0 172.0 L28.0 172.0 Z"></path>
<path fill="#223344" fill-opacity="1.0"  filling="0" d="M28.0 169.0 L172.0 169.0 C174.0 169.0 174.0 169.0 174.0 171.0 L174.0 196.0 C174.0 198.0 174.0 198.0 172.0 198.0 L28.0 198.0 C26.0 198.0 26.0 198.0 26.0 196.0 L26.0 171.0 C26.0 169.0 26.0 169.0 28.0 169.0 L28.0 169.0 Z M30.0 174.0 L30.0 194.0 L170.0 194.0 L170.0 174.0 L30.0 174.0 L30.0 174.0 Z"></path>
<path fill="#bb99ff" fill-opacity="1.0"  filling="0" d="M43.0 157.0 L157.0 157.0 L157.0 196.0 L43.0 196.0 L43.0 157.0 L43.0 157.0 Z"></path>
<path fill="#223344" fill-opacity="1.0"  filling="0" d="M43.0 154.0 L157.0 154.0 C159.0 154.0 159.0 154.0 159.0 157.0 L159.0 196.0 C159.0 198.0 159.0 198.0 157.0 198.0 L43.0 198.0 C41.0 198.0 41.0 198.0 41.0 196.0 L41.0 157.0 C41.0 154.0 41.0 154.0 43.0 154.0 L43.0 154.0 Z M46.0 159.0 L46.0 194.0 L154.0 194.0 L154.0 159.0 L46.0 159.0 L46.0 159.0 Z"></path>
<path fill="#bb99ff" fill-opacity="1.0"  filling="0" d="M43.0 157.0 L157.0 157.0 L157.0 196.0 L43.0 196.0 L43.0 157.0 L43.0 157.0 Z"></path>
<path fill="#223344" fill-opacity="1.0"  filling="0" d="M43.0 154.0 L157.0 154.0 C159.0 154.0 159.0 154.0 159.0 157.0 L159.0 196.0 C159.0 198.0 159.0 198.0 157.0 198.0 L43.0 198.0 C41.0 198.0 41.0 198.0 41.0 196.0 L41.0 157.0 C41.0 154.0 41.0 154.0 43.0 154.0 L43.0 154.0 Z M46.0 159.0 L46.0 194.0 L154.0 194.0 L154.0 159.0 L46.0 159.0 L46.0 159.0 Z"></path>
<path fill="#223344" fill-opacity="1.0"  filling="0" d="M43.0 157.0 L43.0 157.0 C43.0 143.0 55.0 129.0 71.0 129.0 L79.0 129.0 C81.0 129.0 83.0 128.0 84.0 126.0 L87.0 120.0 C88.0 116.0 86.0 112.0 82.0 112.0 L63.0 112.0 C62.0 112.0 60.0 112.0 59.0 112.0 L52.0 104.0 L52.0 104.0 L52.0 104.0 C48.0 101.0 43.0 101.0 40.0 104.0 C37.0 107.0 37.0 113.0 40.0 116.0 L40.0 116.0 L40.0 116.0 L48.0 127.0 C50.0 131.0 50.0 135.0 48.0 138.0 L48.0 138.0 L48.0 138.0 C43.0 143.0 39.0 149.0 39.0 157.0 L39.0 157.0 L43.0 157.0 L43.0 157.0 Z"></path>
<path fill="#223344" fill-opacity="1.0"  filling="0" d="M161.0 157.0 L161.0 157.0 C161.0 149.0 157.0 143.0 152.0 138.0 L152.0 138.0 L152.0 138.0 C150.0 135.0 150.0 131.0 152.0 127.0 L160.0 116.0 L160.0 116.0 L160.0 116.0 C163.0 113.0 163.0 107.0 160.0 104.0 C157.0 101.0 152.0 101.0 148.0 104.0 L148.0 104.0 L148.0 104.0 L141.0 112.0 C140.0 112.0 138.0 112.0 137.0 112.0 L118.0 112.0 C114.0 112.0 112.0 116.0 113.0 120.0 L116.0 126.0 C117.0 128.0 119.0 129.0 121.0 129.0 L129.0 129.0 C145.0 129.0 157.0 143.0 157.0 157.0 L157.0 157.0 L161.0 157.0 L161.0 157.0 Z"></path>
<path fill="#778899" fill-opacity="1.0"  filling="0" d="M43.0 43.0 L157.0 43.0 L157.0 112.0 L43.0 112.0 L43.0 43.0 L43.0 43.0 Z"></path>
<path fill="#223344" fill-opacity="1.0"  filling="0" d="M43.0 40.0 L157.0 40.0 C159.0 40.0 159.0 40.0 159.0 43.0 L159.0 112.0 C159.0 114.0 159.0 114.0 157.0 114.0 L43.0 114.0 C41.0 114.0 41.0 114.0 41.0 112.0 L41.0 43.0 C41.0 40.0 41.0 40.0 43.0 40.0 L43.0 40.0 Z M46.0 46.0 L46.0 109.0 L154.0 109.0 L154.0 46.0 L46.0 46.0 L46.0 46.0 Z"></path>
<path fill="#778899" fill-opacity="1.0"  filling="0" d="M43.0 43.0 L157.0 43.0 L157.0 112.0 L43.0 112.0 L43.0 43.0 L43.0 43.0 Z"></path>
<path fill="#223344" fill-opacity="1.0"  filling="0" d="M43.0 40.0 L157.0 40.0 C159.0 40.0 159.0 40.0 159.0 43.0 L159.0 112.0 C159.0 114.0 159.0 114.0 157.0 114.0 L43.0 114.0 C41.0 114.0 41.0 114.0 41.0 112.0 L41.0 43.0 C41.0 40.0 41.0 40.0 43.0 40.0 L43.0 40.0 Z M46.0 46.0 L46.0 109.0 L154.0 109.0 L154.0 46.0 L46.0 46.0 L46.0 46.0 Z"></path>
<path fill="#778899" fill-opacity="1.0"  filling="0" d="M43.0 43.0 L157.0 43.0 L157.0 112.0 L43.0 112.0 L43.0 43.0 L43.0 43.0 Z"></path>
<path fill="#223344" fill-opacity="1.0"  filling="0" d="M43.0 40.0 L157.0 40.0 C159.0 40.0 159.0 40.0 159.0 43.0 L159.0 112.0 C159.0 114.0 159.0 114.0 157.0 114.0 L43.0 114.0 C41.0 114.0 41.0 114.0 41.0 112.0 L41.0 43.0 C41.0 40.0 41.0 40.0 43.0 40.0 L43.0 40.0 Z M46.0 46.0 L46.0 109.0 L154.0 109.0 L154.0 46.0 L46.0 46.0 L46.0 46.0 Z"></path>
<path fill="#778899" fill-opacity="1.0"  filling="0" d="M43.0 43.0 L157.0 43.0 L157.0 112.0 L43.0 112.0 L43.0 43.0 L43.0 43.0 Z"></path>
<path fill="#223344" fill-opacity="1.0"  filling="0" d="M43.0 40.0 L157.0 40.0 C159.0 40.0 159.0 40.0 159.0 43.0 L159.0 112.0 C159.0 114.0 159.0 114.0 157.0 114.0 L43.0 114.0 C41.0 114.0 41.0 114.0 41.0 112.0 L41.0 43.0 C41.0 40.0 41.0 40.0 43.0 40.0 L43.0 40.0 Z M46.0 46.0 L46.0 109.0 L154.0 109.0 L154.0 46.0 L46.0 46.0 L46.0 46.0 Z"></path>
<path fill="#778899" fill-opacity="1.0"  filling="0" d="M43.0 43.0 L157.0 43.0 L157.0 112.0 L43.0 112.0 L43.0 43.0 L43.0 43.0 Z"></path>
<path fill="#223344" fill-opacity="1.0"  filling="0" d="M43.0 40.0 L157.0 40.0 C159.0 40.0 159.0 40.0 159.0 43.0 L159.0 112.0 C159.0 114.0 159.0 114.0 157.0 114.0 L43.0 114.0 C41.0 114.0 41.0 114.0 41.0 112.0 L41.0 43.0 C41.0 40.0 41.0 40.0 43.0 40.0 L43.0 40.0 Z M46.0 46.0 L46.0 109.0 L154.0 109.0 L154.0 46.0 L46.0 46.0 L46.0 46.0 Z"></path>
<path fill="#778899" fill-opacity="1.0"  filling="0" d="M43.0 43.0 L157.0 43.0 L157.0 112.0 L43.0 112.0 L43.0 43.0 L43.0 43.0 Z"></path>
<path fill="#223344" fill-opacity="1.0"  filling="0" d="M43.0 40.0 L157.0 40.0 C159.0 40.0 159.0 40.0 159.0 43.0 L159.0 112.0 C159.0 114.0 159.0 114.0 157.0 114.0 L43.0 114.0 C41.0 114.0 41.0 114.0 41.0 112.0 L41.0 43.0 C41.0 40.0 41.0 40.0 43.0 40.0 L43.0 40.0 Z M46.0 46.0 L46.0 109.0 L154.0 109.0 L154.0 46.0 L46.0 46.0 L46.0 46.0 Z"></path>
<path fill="#778899" fill-opacity="1.0"  filling="0" d="M43.0 43.0 L157.0 43.0 L157.0 112.0 L43.0 112.0 L43.0 43.0 L43.0 43.0 Z"></path>
<path fill="#223344" fill-opacity="1.0"  filling="0" d="M43.0 40.0 L157.0 40.0 C159.0 40.0 159.0 40.0 159.0 43.0 L159.0 112.0 C159.0 114.0 159.0 114.0 157.0 114.0 L43.0 114.0 C41.0 114.0 41.0 114.0 41.0 112.0 L41.0 43.0 C41.0 40.0 41.0 40.0 43.0 40.0 L43.0 40.0 Z M46.0 46.0 L46.0 109.0 L154.0 109.0 L154.0 46.0 L46.0 46.0 L46.0 46.0 Z"></path>
<path fill="#778899" fill-opacity="1.0"  filling="0" d="M43.0 43.0 L157.0 43.0 L157.0 112.0 L43.0 112.0 L43.0 43.0 L43.0 43.0 Z"></path>
<path fill="#223344" fill-opacity="1.0"  filling="0" d="M43.0 40.0 L157.0 40.0 C159.0 40.0 159.0 40.0 159.0 43.0 L159.0 112.0 C159.0 114.0 159.0 114.0 157.0 114.0 L43.0 114.0 C41.0 114.0 41.0 114.0 41.0 112.0 L41.0 43.0 C41.0 40.0 41.0 40.0 43.0 40.0 L43.0 40.0 Z M46.0 46.0 L46.0 109.0 L154.0 109.0 L154.0 46.0 L46.0 46.0 L46.0 46.0 Z"></path>
<path fill="#778899" fill-opacity="1.0"  filling="0" d="M43.0 43.0 L157.0 43.0 L157.0 112.0 L43.0 112.0 L43.0 43.0 L43.0 43.0 Z"></path>
<path fill="#223344" fill-opacity="1.0"  filling="0" d="M43.0 40.0 L157.0 40.0 C159.0 40.0 159.0 40.0 159.0 43.0 L159.0 112.0 C159.0 114.0 159.0 114.0 157.0 114.0 L43.0 114.0 C41.0 114.0 41.0 114.0 41.0 112.0 L41.0 43.0 C41.0 40.0 41.0 40.0 43.0 40.0 L43.0 40.0 Z M46.0 46.0 L46.0 109.0 L154.0 109.0 L154.0 46.0 L46.0 46.0 L46.0 46.0 Z"></path>
<path fill="#778899" fill-opacity="1.0"  filling="0" d="M43.0 43.0 L157.0 43.0 L157.0 112.0 L43.0 112.0 L43.0 43.0 L43.0 43.0 Z"></path>
<path fill="#223344" fill-opacity="1.0"  filling="0" d="M43.0 40.0 L157.0 40.0 C159.0 40.0 159.0 40.0 159.0 43.0 L159.0 112.0 C159.0 114.0 159.0 114.0 157.0 114.0 L43.0 114.0 C41.0 114.0 41.0 114.0 41.0 112.0 L41.0 43.0 C41.0 40.0 41.0 40.0 43.0 40.0 L43.0 40.0 Z M46.0 46.0 L46.0 109.0 L154.0 109.0 L154.0 46.0 L46.0 46.0 L46.0 46.0 Z"></path>
<path fill="#778899" fill-opacity="1.0"  filling="0" d="M43.0 43.0 L157.0 43.0 L157.0 112.0 L43.0 112.0 L43.0 43.0 L43.0 43.0 Z"></path>
<path fill="#223344" fill-opacity="1.0"  filling="0" d="M43.0 40.0 L157.0 40.0 C159.0 40.0 159.0 40.0 159.0 43.0 L159.0 112.0 C159.0 114.0 159.0 114.0 157.0 114.0 L43.0 114.0 C41.0 114.0 41.0 114.0 41.0 112.0 L41.0 43.0 C41.0 40.0 41.0 40.0 43.0 40.0 L43.0 40.0 Z M46.0 46.0 L46.0 109.0 L154.0 109.0 L154.0 46.0 L46.0 46.0 L46.0 46.0 Z"></path>
<path fill="#778899" fill-opacity="1.0"  filling="0" d="M43.0 43.0 L157.0 43.0 L157.0 112.0 L43.0 112.0 L43.0 43.0 L43.0 43.0 Z"></path>
<path fill="#223344" fill-opacity="1.0"  filling="0" d="M43.0 40.0 L157.0 40.0 C159.0 40.0 159.0 40.0 159.0 43.0 L159.0 112.0 C159.0 114.0 159.0 114.0 157.0 114.0 L43.0 114.0 C41.0 114.0 41.0 114.0 41.0 112.0 L41.0 43.0 C41.0 40.0 41.0 40.0 43.0 40.0 L43.0 40.0 Z M46.0 46.0 L46.0 109.0 L154.0 109.0 L154.0 46.0 L46.0 46.0 L46.0 46.0 Z"></path>
<path fill="#778899" fill-opacity="1.0"  filling="0" d="M43.0 43.0 L157.0 43.0 L157.0 112.0 L43.0 112.0 L43.0 43.0 L43.0 43.0 Z"></path>
<path fill="#000000" fill-opacity="1.0"  filling="0" d="M43.0 40.0 L157.0 40.0"></path></svg>