<svg xmlns="http://www.w3.org/2000/svg" viewBox="0.0 0.0 200.0 200.0" height="200px" width="200px"><path fill="#778899" fill-opacity="1.0"  filling="0" d="M100.0 4.0 A50.0 50.0 0.0 0 1 150.0 54.0 L150.0 108.0 L141.0 115.0 L59.0 115.0 L50.0 108.0 L50.0 54.0 A50.0 50.0 0.0 0 1 100.0 4.0 L100.0 4.0 Z"></path>
<path fill="#223344" fill-opacity="1.0"  filling="0" d="M100.0 0.0 C121.0 0.0 121.0 0.0 138.0 16.0 C154.0 31.0 154.0 31.0 154.0 54.0 L154.0 110.0 L143.0 119.0 L57.0 119.0 L46.0 110.0 L46.0 54.0 C46.0 31.0 46.0 31.0 62.0 16.0 C79.0 0.0 79.0 0.0 100.0 0.0 L100.0 0.0 Z M100.0 8.0 C82.0 8.0 82.0 8.0 68.0 22.0 C54.0 35.0 54.0 35.0 54.0 54.0 L54.0 106.0 L60.0 111.0 L140.0 111.0 L146.0 106.0 L146.0 54.0 C146.0 35.0 146.0 35.0 132.0 22.0 C118.0 8.0 118.0 8.0 100.0 8.0 L100.0 8.0 Z"></path>
<path fill="#bb99ff" fill-opacity="1.0"  filling="0" d="M75.0 133.0 L125.0 133.0 A33.0 33.0 0.0 0 1 158.0 167.0 L158.0 192.0 L42.0 192.0 L42.0 167.0 A33.0 33.0 0.0 0 1 75.0 133.0 L75.0 133.0 Z"></path>
<path fill="#223344" fill-opacity="1.0"  filling="0" d="M125.0 129.0 C143.0 129.0 143.0 129.0 154.0 141.0 C167.0 153.0 167.0 153.0 167.0 167.0 L167.0 196.0 L33.0 196.0 L33.0 167.0 C33.0 153.0 33.0 153.0 46.0 141.0 C57.0 129.0 57.0 129.0 75.0 129.0 L125.0 129.0 L125.0 129.0 Z M75.0 138.0 C62.0 138.0 62.0 138.0 52.0 147.0 C42.0 156.0 42.0 156.0 42.0 167.0 L42.0 188.0 L158.0 188.0 L158.0 167.0 C158.0 156.0 158.0 156.0 148.0 147.0 C138.0 138.0 138.0 138.0 125.0 138.0 L75.0 138.0 L75.0 138.0 Z"></path>
<path fill="#ffddaa" fill-opacity="1.0"  filling="0" d="M149.0 89.0 C149.0 116.0 127.0 138.0 100.0 138.0 C73.0 138.0 51.0 116.0 51.0 89.0 L51.0 74.0 C51.0 72.0 53.0 71.0 54.0 71.0 L146.0 71.0 C147.0 71.0 149.0 72.0 149.0 74.0 L149.0 89.0 L149.0 89.0 Z"></path>
<path fill="#223344" fill-opacity="1.0"  filling="0" d="M154.0 89.0 C154.0 120.0 154.0 120.0 129.0 144.0 C100.0 153.0 100.0 153.0 71.0 144.0 C46.0 120.0 46.0 120.0 46.0 89.0 L46.0 74.0 C46.0 70.0 46.0 70.0 50.0 68.0 C52.0 66.0 52.0 66.0 54.0 66.0 L146.0 66.0 C148.0 66.0 148.0 66.0 150.0 68.0 C154.0 70.0 154.0 70.0 154.0 74.0 L154.0 89.0 L154.0 89.0 Z M146.0 89.0 L146.0 74.0 L54.0 74.0 L54.0 89.0 C54.0 115.0 54.0 115.0 75.0 136.0 C100.0 146.0 100.0 146.0 125.0 136.0 C146.0 115.0 146.0 115.0 146.0 89.0 L146.0 89.0 Z"></path>
<path fill="#ffddaa" fill-opacity="1.0"  filling="0" d="M100.0 50.0 C91.0 50.0 80.0 48.0 71.0 43.0 L67.0 58.0 C67.0 58.0 81.0 68.0 100.0 68.0 C119.0 68.0 133.0 58.0 133.0 58.0 L129.0 43.0 C120.0 48.0 109.0 50.0 100.0 50.0 L100.0 50.0 Z"></path>
<path fill="#223344" fill-opacity="1.0"  filling="0" d="M100.0 47.0 C114.0 47.0 114.0 47.0 127.0 40.0 L131.0 38.0 L137.0 58.0 L134.0 60.0 C119.0 71.0 119.0 71.0 100.0 71.0 C81.0 71.0 81.0 71.0 66.0 60.0 L63.0 58.0 L69.0 38.0 L73.0 40.0 C86.0 47.0 86.0 47.0 100.0 47.0 L100.0 47.0 Z M100.0 53.0 C88.0 53.0 88.0 53.0 75.0 48.0 L72.0 56.0 C84.0 65.0 84.0 65.0 100.0 65.0 C116.0 65.0 116.0 65.0 128.0 56.0 L125.0 48.0 C112.0 53.0 112.0 53.0 100.0 53.0 L100.0 53.0 Z"></path>
<path fill="#000000" fill-opacity="1.0"  filling="0" d="M4.0 4.0 L196.0 4.0 L196.0 196.0 L4.0 196.0 L4.0 4.0 L4.0 4.0 Z"></path>
<path fill="#223344" fill-opacity="1.0"  filling="0" d="M0.0 0.0 L199.0 0.0 L199.0 199.0 L0.0 199.0 L0.0 0.0 L0.0 0.0 Z M8.0 8.0 L8.0 192.0 L192.0 192.0 L192.0 8.0 L8.0 8.0 L8.0 8.0 Z"></path>
<path fill="#223344" fill-opacity="1.0"  filling="0" d="M54.0 165.0 L62.0 165.0 L62.0 173.0 L54.0 173.0 L54.0 165.0 L54.0 165.0 Z"></path>
<path fill="#223344" fill-opacity="1.0"  filling="0" d="M138.0 165.0 L146.0 165.0 L146.0 173.0 L138.0 173.0 L138.0 165.0 L138.0 165.0 Z"></path>
<path fill="#223344" fill-opacity="1.0"  filling="0" d="M72.0 173.0 L79.0 173.0 L79.0 181.0 L72.0 181.0 L72.0 173.0 L72.0 173.0 Z"></path>
<path fill="#223344" fill-opacity="1.0"  filling="0" d="M122.0 173.0 L129.0 173.0 L129.0 181.0 L122.0 181.0 L122.0 173.0 L122.0 173.0 Z"></path>
<path fill="#ffddaa" fill-opacity="1.0"  filling="0" d="M89.0 111.0 L111.0 111.0 L111.0 119.0 C111.0 126.0 116.0 129.0 125.0 129.0 L125.0 133.0 L75.0 133.0 L75.0 129.0 C84.0 129.0 89.0 126.0 89.0 119.0 L89.0 111.0 L89.0 111.0 Z"></path>
<path fill="#223344" fill-opacity="1.0"  filling="0" d="M86.0 106.0 L115.0 106.0 L115.0 119.0 C115.0 124.0 115.0 124.0 125.0 124.0 L129.0 124.0 L129.0 138.0 L71.0 138.0 L71.0 124.0 L75.0 124.0 C85.0 124.0 85.0 124.0 85.0 119.0 L85.0 106.0 L86.0 106.0 L86.0 106.0 Z M92.0 114.0 L92.0 119.0 C92.0 127.0 92.0 127.0 79.0 131.0 L121.0 131.0 C108.0 127.0 108.0 127.0 108.0 119.0 L108.0 114.0 L92.0 114.0 L92.0 114.0 Z"></path></svg>