<svg xmlns="http://www.w3.org/2000/svg" viewBox="0.0 0.0 200.0 200.0" height="200px" width="200px"><path fill="#778899" fill-opacity="1.0"  filling="0" d="M100.0 4.0 A50.0 50.0 0.0 0 1 150.0 54.0 L150.0 108.0 L141.0 115.0 L59.0 115.0 L50.0 108.0 L50.0 54.0 A50.0 50.0 0.0 0 1 100.0 4.0 L100.0 4.0 Z"></path>
<path fill="#223344" fill-opacity="1.0"  filling="0" d="M100.0 0.0 C122.0 0.0 122.0 0.0 138.0 16.0 C154.0 31.0 154.0 31.0 154.0 54.0 L154.0 108.0 C154.0 110.0 154.0 110.0 153.0 111.0 L144.0 118.0 C143.0 119.0 143.0 119.0 141.0 119.0 L59.0 119.0 C57.0 119.0 57.0 119.0 56.0 118.0 L47.0 111.0 C46.0 110.0 46.0 110.0 46.0 108.0 L46.0 54.0 C46.0 31.0 46.0 31.0 62.0 16.0 C78.0 0.0 78.0 0.0 100.0 0.0 L100.0 0.0 Z M100.0 8.0 C82.0 8.0 82.0 8.0 68.0 22.0 C54.0 35.0 54.0 35.0 54.0 54.0 L54.0 106.0 L60.0 111.0 L140.0 111.0 L146.0 106.0 L146.0 54.0 C146.0 35.0 146.0 35.0 132.0 22.0 C118.0 8.0 118.0 8.0 100.0 8.0 L100.0 8.0 Z"></path>
<path fill="#bb99ff" fill-opacity="1.0"  filling="0" d="M22.0 22.0 L178.0 22.0 L178.0 196.0 L22.0 196.0 L22.0 22.0 L22.0 22.0 Z"></path>
<path fill="#223344" fill-opacity="1.0"  filling="0" d="M20.0 20.0 L180.0 20.0 L180.0 199.0 L20.0 199.0 L20.0 20.0 L20.0 20.0 Z M26.0 26.0 L26.0 192.0 L174.0 192.0 L174.0 26.0 L26.0 26.0 L26.0 26.0 Z"></path>
<path fill="#bb99ff" fill-opacity="1.0"  filling="0" d="M22.0 22.0 L178.0 22.0 L178.0 157.0 L22.0 157.0 L22.0 22.0 L22.0 22.0 Z"></path>
<path fill="#223344" fill-opacity="1.0"  filling="0" d="M20.0 20.0 L180.0 20.0 L180.0 161.0 L20.0 161.0 L20.0 20.0 L20.0 20.0 Z M26.0 26.0 L26.0 153.0 L174.0 153.0 L174.0 26.0 L26.0 26.0 L26.0 26.0 Z"></path>
<path fill="#ffddaa" fill-opacity="1.0"  filling="0" d="M34.0 120.0 L166.0 120.0 L166.0 157.0 L34.0 157.0 L34.0 120.0 L34.0 120.0 Z"></path>
<path fill="#223344" fill-opacity="1.0"  filling="0" d="M30.0 117.0 L170.0 117.0 L170.0 161.0 L30.0 161.0 L30.0 117.0 L30.0 117.0 Z M38.0 124.0 L38.0 153.0 L162.0 153.0 L162.0 124.0 L38.0 124.0 L38.0 124.0 Z"></path>
<path fill="#ffddaa" fill-opacity="1.0"  filling="0" d="M34.0 120.0 L166.0 120.0 L166.0 139.0 L34.0 139.0 L34.0 120.0 L34.0 120.0 Z"></path>
<path fill="#223344" fill-opacity="1.0"  filling="0" d="M30.0 117.0 L170.0 117.0 L170.0 143.0 L30.0 143.0 L30.0 117.0 L30.0 117.0 Z M38.0 124.0 L38.0 135.0 L162.0 135.0 L162.0 124.0 L38.0 124.0 L38.0 124.0 Z"></path>
<path fill="#ffddaa" fill-opacity="1.0"  filling="0" d="M49.0 139.0 C49.0 139.0 61.0 124.0 75.0 124.0 C88.0 124.0 88.0 121.0 88.0 117.0 C88.0 113.0 88.0 111.0 100.0 111.0 C112.0 111.0 112.0 113.0 112.0 117.0 C112.0 121.0 112.0 124.0 125.0 124.0 C139.0 124.0 151.0 139.0 151.0 139.0 L151.0 139.0 C139.0 157.0 121.0 166.0 100.0 166.0 C79.0 166.0 61.0 157.0 49.0 139.0 L49.0 139.0 L49.0 139.0 Z"></path>
<path fill="#223344" fill-opacity="1.0"  filling="0" d="M46.0 137.0 C49.0 131.0 49.0 131.0 55.0 128.0 C64.0 120.0 64.0 120.0 75.0 120.0 C82.0 120.0 82.0 120.0 84.0 119.0 C84.0 118.0 84.0 118.0 84.0 117.0 C84.0 114.0 84.0 114.0 86.0 112.0 C89.0 106.0 89.0 106.0 100.0 106.0 C111.0 106.0 111.0 106.0 114.0 112.0 C116.0 114.0 116.0 114.0 116.0 117.0 C116.0 118.0 116.0 118.0 116.0 119.0 C118.0 120.0 118.0 120.0 125.0 120.0 C136.0 120.0 136.0 120.0 145.0 128.0 C151.0 131.0 151.0 131.0 154.0 137.0 C155.0 139.0 155.0 139.0 153.0 141.0 L153.0 141.0 C131.0 169.0 131.0 169.0 100.0 169.0 C69.0 169.0 69.0 169.0 47.0 141.0 C45.0 139.0 45.0 139.0 46.0 137.0 L46.0 137.0 Z M53.0 139.0 C73.0 161.0 73.0 161.0 100.0 161.0 C127.0 161.0 127.0 161.0 147.0 139.0 C145.0 135.0 145.0 135.0 141.0 133.0 C134.0 127.0 134.0 127.0 125.0 127.0 C116.0 127.0 116.0 127.0 112.0 125.0 C107.0 122.0 107.0 122.0 107.0 117.0 C107.0 114.0 107.0 114.0 107.0 114.0 C105.0 114.0 105.0 114.0 100.0 114.0 C95.0 114.0 95.0 114.0 93.0 114.0 C93.0 114.0 93.0 114.0 93.0 117.0 C93.0 122.0 93.0 122.0 88.0 125.0 C84.0 127.0 84.0 127.0 75.0 127.0 C66.0 127.0 66.0 127.0 59.0 133.0 C55.0 135.0 55.0 135.0 53.0 139.0 L53.0 139.0 Z"></path>
<path fill="#ffddaa" fill-opacity="1.0"  filling="0" d="M49.0 139.0 L47.0 139.0 C47.0 139.0 61.0 124.0 75.0 124.0 C88.0 124.0 88.0 121.0 88.0 117.0 C88.0 113.0 88.0 111.0 100.0 111.0 C112.0 111.0 112.0 113.0 112.0 117.0 C112.0 121.0 112.0 124.0 125.0 124.0 C139.0 124.0 153.0 139.0 153.0 139.0 L151.0 139.0 C139.0 157.0 121.0 166.0 100.0 166.0 C79.0 166.0 61.0 157.0 49.0 139.0 L49.0 139.0 Z"></path>
<path fill="#223344" fill-opacity="1.0"  filling="0" d="M47.0 136.0 L51.0 136.0 L51.0 137.0 C70.0 161.0 70.0 161.0 100.0 161.0 C130.0 161.0 130.0 161.0 149.0 137.0 L149.0 136.0 L153.0 136.0 C155.0 136.0 155.0 136.0 156.0 139.0 C157.0 141.0 157.0 141.0 155.0 142.0 L154.0 142.0 L153.0 142.0 C131.0 169.0 131.0 169.0 100.0 169.0 C69.0 169.0 69.0 169.0 47.0 142.0 L46.0 142.0 L45.0 142.0 C43.0 141.0 43.0 141.0 44.0 139.0 C45.0 136.0 45.0 136.0 47.0 136.0 L47.0 136.0 Z M53.0 142.0 C73.0 161.0 73.0 161.0 100.0 161.0 C127.0 161.0 127.0 161.0 147.0 142.0 C127.0 157.0 127.0 157.0 100.0 157.0 C73.0 157.0 73.0 157.0 53.0 142.0 L53.0 142.0 Z"></path>
<path fill="#ffddaa" fill-opacity="1.0"  filling="0" d="M67.0 62.0 C67.0 62.0 92.0 62.0 119.0 54.0 C119.0 54.0 127.0 67.0 133.0 83.0 C133.0 83.0 133.0 112.0 100.0 111.0 C67.0 112.0 67.0 62.0 67.0 62.0 L67.0 62.0 Z"></path>
<path fill="#223344" fill-opacity="1.0"  filling="0" d="M67.0 58.0 C69.0 58.0 69.0 58.0 73.0 58.0 C90.0 58.0 90.0 58.0 118.0 50.0 C119.0 50.0 119.0 50.0 120.0 50.0 C121.0 51.0 121.0 51.0 122.0 52.0 C132.0 69.0 132.0 69.0 136.0 82.0 C137.0 83.0 137.0 83.0 137.0 83.0 C137.0 93.0 137.0 93.0 130.0 101.0 C120.0 114.0 120.0 114.0 100.0 114.0 C80.0 114.0 80.0 114.0 70.0 101.0 C63.0 93.0 63.0 93.0 63.0 83.0 C63.0 67.0 63.0 67.0 63.0 62.0 C63.0 62.0 63.0 62.0 63.0 61.0 C64.0 58.0 64.0 58.0 67.0 58.0 L67.0 58.0 Z M71.0 66.0 C71.0 72.0 71.0 72.0 71.0 83.0 C71.0 91.0 71.0 91.0 76.0 97.0 C84.0 107.0 84.0 107.0 100.0 107.0 C116.0 107.0 116.0 107.0 124.0 97.0 C129.0 91.0 129.0 91.0 129.0 84.0 C125.0 72.0 125.0 72.0 118.0 58.0 C91.0 66.0 91.0 66.0 73.0 66.0 C72.0 66.0 72.0 66.0 71.0 66.0 L71.0 66.0 Z"></path>
<path fill="#bb99ff" fill-opacity="1.0"  filling="0" d="M42.0 166.0 L158.0 166.0 L158.0 196.0 L42.0 196.0 L42.0 166.0 L42.0 166.0 Z"></path>
<path fill="#223344" fill-opacity="1.0"  filling="0" d="M38.0 161.0 L162.0 161.0 L162.0 199.0 L38.0 199.0 L38.0 161.0 L38.0 161.0 Z M46.0 170.0 L46.0 192.0 L154.0 192.0 L154.0 170.0 L46.0 170.0 L46.0 170.0 Z"></path>
<path fill="#223344" fill-opacity="1.0"  filling="0" d="M54.0 165.0 L62.0 165.0 L62.0 173.0 L54.0 173.0 L54.0 165.0 L54.0 165.0 Z"></path>
<path fill="#223344" fill-opacity="1.0"  filling="0" d="M72.0 165.0 L79.0 165.0 L79.0 173.0 L72.0 173.0 L72.0 165.0 L72.0 165.0 Z"></path>
<path fill="#223344" fill-opacity="1.0"  filling="0" d="M91.0 165.0 L98.0 165.0 L98.0 173.0 L91.0 173.0 L91.0 165.0 L91.0 165.0 Z"></path>
<path fill="#223344" fill-opacity="1.0"  filling="0" d="M107.0 165.0 L114.0 165.0 L114.0 173.0 L107.0 173.0 L107.0 165.0 L107.0 165.0 Z"></path>
<path fill="#223344" fill-opacity="1.0"  filling="0" d="M122.0 165.0 L129.0 165.0 L129.0 173.0 L122.0 173.0 L122.0 165.0 L122.0 165.0 Z"></path>
<path fill="#223344" fill-opacity="1.0"  filling="0" d="M138.0 165.0 L146.0 165.0 L146.0 173.0 L138.0 173.0 L138.0 165.0 L138.0 165.0 Z"></path>
<path fill="#223344" fill-opacity="1.0"  filling="0" d="M100.0 181.0 L129.0 181.0 L129.0 188.0 L100.0 188.0 L100.0 181.0 L100.0 181.0 Z"></path>
<path fill="#223344" fill-opacity="1.0"  filling="0" d="M72.0 181.0 L80.0 181.0 L80.0 188.0 L72.0 188.0 L72.0 181.0 L72.0 181.0 Z"></path></svg>