<svg xmlns="http://www.w3.org/2000/svg" viewBox="0.0 0.0 200.0 200.0" height="200px" width="200px"><path fill="#778899" fill-opacity="1.0"  filling="0" d="M100.0 4.0 A50.0 50.0 0.0 0 1 150.0 54.0 L150.0 108.0 L141.0 115.0 L59.0 115.0 L50.0 108.0 L50.0 54.0 A50.0 50.0 0.0 0 1 100.0 4.0 L100.0 4.0 Z"></path>
<path fill="#223344" fill-opacity="1.0"  filling="0" d="M100.0 0.0 C121.0 0.0 121.0 0.0 138.0 16.0 C154.0 31.0 154.0 31.0 154.0 54.0 L154.0 108.0 C154.0 110.0 154.0 110.0 153.0 111.0 L144.0 118.0 C143.0 119.0 143.0 119.0 141.0 119.0 L59.0 119.0 C57.0 119.0 57.0 119.0 56.0 118.0 L47.0 111.0 C46.0 110.0 46.0 110.0 46.0 108.0 L46.0 54.0 C46.0 31.0 46.0 31.0 62.0 16.0 C79.0 0.0 79.0 0.0 100.0 0.0 L100.0 0.0 Z M100.0 8.0 C82.0 8.0 82.0 8.0 68.0 22.0 C54.0 35.0 54.0 35.0 54.0 54.0 L54.0 106.0 L60.0 111.0 L140.0 111.0 L146.0 106.0 L146.0 54.0 C146.0 35.0 146.0 35.0 132.0 22.0 C118.0 8.0 118.0 8.0 100.0 8.0 L100.0 8.0 Z"></path>
<path fill="#ffddaa" fill-opacity="1.0"  filling="0" d="M120.0 141.0 L120.0 141.0 A12.0 12.0 0.0 0 1 132.0 153.0 L132.0 154.0 A12.0 12.0 0.0 0 1 120.0 166.0 L80.0 166.0 A12.0 12.0 0.0 0 1 68.0 154.0 L68.0 153.0 A12.0 12.0 0.0 0 1 80.0 141.0 L120.0 141.0 L120.0 141.0 Z"></path>
<path fill="#223344" fill-opacity="1.0"  filling="0" d="M120.0 137.0 C125.0 137.0 125.0 137.0 129.0 141.0 C134.0 145.0 134.0 145.0 134.0 151.0 C134.0 151.0 134.0 151.0 134.0 152.0 C134.0 152.0 134.0 152.0 134.0 153.0 C134.0 159.0 134.0 159.0 129.0 164.0 C125.0 169.0 125.0 169.0 120.0 169.0 L80.0 169.0 C71.0 169.0 71.0 169.0 66.0 160.0 C66.0 159.0 66.0 159.0 66.0 158.0 C66.0 157.0 66.0 157.0 66.0 156.0 C66.0 156.0 66.0 156.0 66.0 155.0 C66.0 155.0 66.0 155.0 66.0 154.0 C66.0 146.0 66.0 146.0 71.0 141.0 C75.0 137.0 75.0 137.0 80.0 137.0 L120.0 137.0 L120.0 137.0 L120.0 137.0 Z M120.0 144.0 L80.0 144.0 C78.0 144.0 78.0 144.0 76.0 146.0 C73.0 149.0 73.0 149.0 73.0 154.0 C73.0 154.0 73.0 154.0 73.0 154.0 C73.0 155.0 73.0 155.0 73.0 155.0 C73.0 156.0 73.0 156.0 73.0 156.0 C73.0 156.0 73.0 156.0 73.0 157.0 C75.0 161.0 75.0 161.0 80.0 161.0 L120.0 161.0 C124.0 161.0 124.0 161.0 126.0 158.0 C128.0 156.0 128.0 156.0 127.0 154.0 C127.0 150.0 127.0 150.0 124.0 147.0 C122.0 144.0 122.0 144.0 120.0 144.0 C120.0 144.0 120.0 144.0 120.0 144.0 L120.0 144.0 Z"></path>
<path fill="#223344" fill-opacity="1.0"  filling="0" d="M100.0 160.0 A4.0 4.0 0.0 0 1 104.0 164.0 L104.0 196.0 A4.0 4.0 0.0 0 1 96.0 196.0 L96.0 164.0 A4.0 4.0 0.0 0 1 100.0 160.0 L100.0 160.0 Z"></path>
<path fill="#ffddaa" fill-opacity="1.0"  filling="0" d="M84.0 68.0 L84.0 68.0 A11.0 11.0 0.0 0 1 96.0 80.0 L96.0 115.0 A11.0 11.0 0.0 0 1 84.0 125.0 L84.0 125.0 A11.0 11.0 0.0 0 1 72.0 115.0 L72.0 80.0 A11.0 11.0 0.0 0 1 84.0 68.0 L84.0 68.0 Z"></path>
<path fill="#223344" fill-opacity="1.0"  filling="0" d="M84.0 64.0 C88.0 64.0 88.0 64.0 92.0 67.0 C96.0 71.0 96.0 71.0 96.0 76.0 L96.0 115.0 C96.0 120.0 96.0 120.0 92.0 124.0 C88.0 128.0 88.0 128.0 84.0 128.0 C78.0 128.0 78.0 128.0 74.0 124.0 C69.0 120.0 69.0 120.0 69.0 115.0 L69.0 80.0 C69.0 75.0 69.0 75.0 74.0 71.0 C78.0 66.0 78.0 66.0 84.0 66.0 L84.0 64.0 L84.0 64.0 Z M84.0 71.0 C83.0 71.0 83.0 71.0 82.0 72.0 C80.0 73.0 80.0 73.0 78.0 75.0 C76.0 77.0 76.0 77.0 76.0 80.0 L76.0 115.0 C76.0 117.0 76.0 117.0 78.0 119.0 C80.0 121.0 80.0 121.0 82.0 121.0 C83.0 122.0 83.0 122.0 84.0 122.0 C86.0 122.0 86.0 122.0 87.0 119.0 C90.0 117.0 90.0 117.0 90.0 115.0 L90.0 80.0 C90.0 75.0 90.0 75.0 87.0 73.0 C86.0 71.0 86.0 71.0 84.0 71.0 L84.0 71.0 Z"></path>
<path fill="#ffddaa" fill-opacity="1.0"  filling="0" d="M116.0 68.0 L116.0 68.0 A11.0 11.0 0.0 0 1 128.0 80.0 L128.0 115.0 A11.0 11.0 0.0 0 1 116.0 125.0 L116.0 125.0 A11.0 11.0 0.0 0 1 104.0 115.0 L104.0 80.0 A11.0 11.0 0.0 0 1 116.0 68.0 L116.0 68.0 Z"></path>
<path fill="#223344" fill-opacity="1.0"  filling="0" d="M116.0 64.0 C123.0 64.0 123.0 64.0 128.0 71.0 C132.0 75.0 132.0 75.0 132.0 80.0 L132.0 115.0 C132.0 120.0 132.0 120.0 128.0 124.0 C123.0 128.0 123.0 128.0 116.0 128.0 C111.0 128.0 111.0 128.0 107.0 124.0 C102.0 120.0 102.0 120.0 102.0 115.0 L102.0 80.0 C102.0 75.0 102.0 75.0 107.0 71.0 C111.0 66.0 111.0 66.0 116.0 66.0 L116.0 64.0 L116.0 64.0 Z M116.0 71.0 C115.0 71.0 115.0 71.0 114.0 73.0 C113.0 73.0 113.0 73.0 111.0 75.0 C109.0 77.0 109.0 77.0 109.0 80.0 L109.0 115.0 C109.0 117.0 109.0 117.0 111.0 119.0 C113.0 121.0 113.0 121.0 115.0 121.0 C115.0 122.0 115.0 122.0 116.0 122.0 C119.0 122.0 119.0 122.0 121.0 119.0 C123.0 117.0 123.0 117.0 123.0 115.0 L123.0 80.0 C123.0 75.0 123.0 75.0 121.0 73.0 C119.0 71.0 119.0 71.0 116.0 71.0 L116.0 71.0 Z"></path>
<path fill="#ffddaa" fill-opacity="1.0"  filling="0" d="M84.0 68.0 L84.0 68.0 A11.0 11.0 0.0 0 1 96.0 80.0 L96.0 115.0 A11.0 11.0 0.0 0 1 84.0 125.0 L84.0 125.0 A11.0 11.0 0.0 0 1 72.0 115.0 L72.0 80.0 A11.0 11.0 0.0 0 1 84.0 68.0 L84.0 68.0 Z"></path>
<path fill="#223344" fill-opacity="1.0"  filling="0" d="M84.0 64.0 C88.0 64.0 88.0 64.0 92.0 67.0 C96.0 71.0 96.0 71.0 96.0 76.0 L96.0 115.0 C96.0 120.0 96.0 120.0 92.0 124.0 C88.0 128.0 88.0 128.0 84.0 128.0 C78.0 128.0 78.0 128.0 74.0 124.0 C69.0 120.0 69.0 120.0 69.0 115.0 L69.0 80.0 C69.0 75.0 69.0 75.0 74.0 71.0 C78.0 66.0 78.0 66.0 84.0 66.0 L84.0 64.0 L84.0 64.0 Z M84.0 71.0 C83.0 71.0 83.0 71.0 82.0 72.0 C80.0 73.0 80.0 73.0 78.0 75.0 C76.0 77.0 76.0 77.0 76.0 80.0 L76.0 115.0 C76.0 117.0 76.0 117.0 78.0 119.0 C80.0 121.0 80.0 121.0 82.0 121.0 C83.0 122.0 83.0 122.0 84.0 122.0 C86.0 122.0 86.0 122.0 87.0 119.0 C90.0 117.0 90.0 117.0 90.0 115.0 L90.0 80.0 C90.0 75.0 90.0 75.0 87.0 73.0 C86.0 71.0 86.0 71.0 84.0 71.0 L84.0 71.0 Z"></path>
<path fill="#ffddaa" fill-opacity="1.0"  filling="0" d="M116.0 68.0 L116.0 68.0 A11.0 11.0 0.0 0 1 128.0 80.0 L128.0 115.0 A11.0 11.0 0.0 0 1 116.0 125.0 L116.0 125.0 A11.0 11.0 0.0 0 1 104.0 115.0 L104.0 80.0 A11.0 11.0 0.0 0 1 116.0 68.0 L116.0 68.0 Z"></path>
<path fill="#223344" fill-opacity="1.0"  filling="0" d="M116.0 64.0 C123.0 64.0 123.0 64.0 128.0 71.0 C132.0 75.0 132.0 75.0 132.0 80.0 L132.0 115.0 C132.0 120.0 132.0 120.0 128.0 124.0 C123.0 128.0 123.0 128.0 116.0 128.0 C111.0 128.0 111.0 128.0 107.0 124.0 C102.0 120.0 102.0 120.0 102.0 115.0 L102.0 80.0 C102.0 75.0 102.0 75.0 107.0 71.0 C111.0 66.0 111.0 66.0 116.0 66.0 L116.0 64.0 L116.0 64.0 Z M116.0 71.0 C115.0 71.0 115.0 71.0 114.0 73.0 C113.0 73.0 113.0 73.0 111.0 75.0 C109.0 77.0 109.0 77.0 109.0 80.0 L109.0 115.0 C109.0 117.0 109.0 117.0 111.0 119.0 C113.0 121.0 113.0 121.0 115.0 121.0 C115.0 122.0 115.0 122.0 116.0 122.0 C119.0 122.0 119.0 122.0 121.0 119.0 C123.0 117.0 123.0 117.0 123.0 115.0 L123.0 80.0 C123.0 75.0 123.0 75.0 121.0 73.0 C119.0 71.0 119.0 71.0 116.0 71.0 L116.0 71.0 Z"></path>
<path fill="#ffddaa" fill-opacity="1.0"  filling="0" d="M84.0 68.0 L84.0 68.0 A11.0 11.0 0.0 0 1 96.0 80.0 L96.0 115.0 A11.0 11.0 0.0 0 1 84.0 125.0 L84.0 125.0 A11.0 11.0 0.0 0 1 72.0 115.0 L72.0 80.0 A11.0 11.0 0.0 0 1 84.0 68.0 L84.0 68.0 Z"></path>
<path fill="#223344" fill-opacity="1.0"  filling="0" d="M84.0 64.0 C88.0 64.0 88.0 64.0 92.0 67.0 C96.0 71.0 96.0 71.0 96.0 76.0 L96.0 115.0 C96.0 120.0 96.0 120.0 92.0 124.0 C88.0 128.0 88.0 128.0 84.0 128.0 C78.0 128.0 78.0 128.0 74.0 124.0 C69.0 120.0 69.0 120.0 69.0 115.0 L69.0 80.0 C69.0 75.0 69.0 75.0 74.0 71.0 C78.0 66.0 78.0 66.0 84.0 66.0 L84.0 64.0 L84.0 64.0 Z M84.0 71.0 C83.0 71.0 83.0 71.0 82.0 72.0 C80.0 73.0 80.0 73.0 78.0 75.0 C76.0 77.0 76.0 77.0 76.0 80.0 L76.0 115.0 C76.0 117.0 76.0 117.0 78.0 119.0 C80.0 121.0 80.0 121.0 82.0 121.0 C83.0 122.0 83.0 122.0 84.0 122.0 C86.0 122.0 86.0 122.0 87.0 119.0 C90.0 117.0 90.0 117.0 90.0 115.0 L90.0 80.0 C90.0 75.0 90.0 75.0 87.0 73.0 C86.0 71.0 86.0 71.0 84.0 71.0 L84.0 71.0 Z"></path>
<path fill="#ffddaa" fill-opacity="1.0"  filling="0" d="M116.0 68.0 L116.0 68.0 A11.0 11.0 0.0 0 1 128.0 80.0 L128.0 115.0 A11.0 11.0 0.0 0 1 116.0 125.0 L116.0 125.0 A11.0 11.0 0.0 0 1 104.0 115.0 L104.0 80.0 A11.0 11.0 0.0 0 1 116.0 68.0 L116.0 68.0 Z"></path>
<path fill="#223344" fill-opacity="1.0"  filling="0" d="M116.0 64.0 C123.0 64.0 123.0 64.0 128.0 71.0 C132.0 75.0 132.0 75.0 132.0 80.0 L132.0 115.0 C132.0 120.0 132.0 120.0 128.0 124.0 C123.0 128.0 123.0 128.0 116.0 128.0 C111.0 128.0 111.0 128.0 107.0 124.0 C102.0 120.0 102.0 120.0 102.0 115.0 L102.0 80.0 C102.0 75.0 102.0 75.0 107.0 71.0 C111.0 66.0 111.0 66.0 116.0 66.0 L116.0 64.0 L116.0 64.0 Z M116.0 71.0 C115.0 71.0 115.0 71.0 114.0 73.0 C113.0 73.0 113.0 73.0 111.0 75.0 C109.0 77.0 109.0 77.0 109.0 80.0 L109.0 115.0 C109.0 117.0 109.0 117.0 111.0 119.0 C113.0 121.0 113.0 121.0 115.0 121.0 C115.0 122.0 115.0 122.0 116.0 122.0 C119.0 122.0 119.0 122.0 121.0 119.0 C123.0 117.0 123.0 117.0 123.0 115.0 L123.0 80.0 C123.0 75.0 123.0 75.0 121.0 73.0 C119.0 71.0 119.0 71.0 116.0 71.0 L116.0 71.0 Z"></path>
<path fill="#ffddaa" fill-opacity="1.0"  filling="0" d="M122.0 72.0 A22.0 22.0 0.0 1 1 78.0 72.0 A22.0 22.0 0.0 1 1 122.0 72.0 L122.0 72.0 Z"></path>
<path fill="#223344" fill-opacity="1.0"  filling="0" d="M125.0 72.0 C125.0 83.0 125.0 83.0 117.0 91.0 C109.0 99.0 109.0 99.0 100.0 99.0 C90.0 99.0 90.0 99.0 83.0 91.0 C75.0 83.0 75.0 83.0 75.0 72.0 C75.0 61.0 75.0 61.0 83.0 54.0 C90.0 46.0 90.0 46.0 100.0 46.0 C109.0 46.0 109.0 46.0 117.0 54.0 C125.0 61.0 125.0 61.0 125.0 72.0 L125.0 72.0 Z M119.0 72.0 C119.0 64.0 119.0 64.0 113.0 59.0 C107.0 53.0 107.0 53.0 100.0 53.0 C92.0 53.0 92.0 53.0 87.0 59.0 C81.0 64.0 81.0 64.0 81.0 72.0 C81.0 80.0 81.0 80.0 87.0 86.0 C92.0 92.0 92.0 92.0 100.0 92.0 C107.0 92.0 107.0 92.0 113.0 86.0 C119.0 80.0 119.0 80.0 119.0 72.0 L119.0 72.0 Z"></path>
<path fill="#223344" fill-opacity="1.0"  filling="0" d="M137.0 46.0 L137.0 79.0 C137.0 93.0 137.0 93.0 128.0 103.0 C117.0 113.0 117.0 113.0 104.0 113.0 L100.0 113.0 L100.0 106.0 L104.0 106.0 C114.0 106.0 114.0 106.0 122.0 98.0 C129.0 90.0 129.0 90.0 129.0 79.0 L129.0 52.0 C105.0 65.0 105.0 65.0 71.0 66.0 L71.0 79.0 C71.0 90.0 71.0 90.0 78.0 98.0 C86.0 106.0 86.0 106.0 96.0 106.0 L100.0 106.0 L100.0 113.0 L96.0 113.0 C83.0 113.0 83.0 113.0 72.0 103.0 C63.0 93.0 63.0 93.0 63.0 79.0 L63.0 63.0 C63.0 61.0 63.0 61.0 64.0 60.0 C65.0 58.0 65.0 58.0 67.0 58.0 C107.0 58.0 107.0 58.0 130.0 43.0 C132.0 41.0 132.0 41.0 134.0 42.0 C137.0 44.0 137.0 44.0 137.0 46.0 L137.0 46.0 Z"></path>
<path fill="#bb99ff" fill-opacity="1.0"  filling="0" d="M69.0 125.0 L131.0 125.0 A19.0 19.0 0.0 0 1 150.0 144.0 L150.0 192.0 L50.0 192.0 L50.0 144.0 A19.0 19.0 0.0 0 1 69.0 125.0 L69.0 125.0 Z"></path>
<path fill="#000000" fill-opacity="1.0"  filling="0" d="M69.0 120.0 L131.0 120.0 C143.0 120.0 143.0 120.0 151.0 129.0 C160.0 137.0 160.0 137.0 160.0 148.0 L160.0 192.0 C160.0 195.0 160.0 195.0 158.0 196.0 C156.0 198.0 156.0 198.0 154.0 198.0 L46.0 198.0 C43.0 198.0 43.0 198.0 42.0 196.0 C40.0 195.0 40.0 195.0 40.0 192.0 L40.0 148.0 C40.0 137.0 40.0 137.0 49.0 129.0"></path></svg>