<svg xmlns="http://www.w3.org/2000/svg" viewBox="0.0 0.0 200.0 200.0" height="200px" width="200px"><path fill="#dd3344" fill-opacity="1.0"  filling="0" d="M120.0 60.0 C114.0 60.0 108.0 66.0 105.0 71.0 C101.0 66.0 95.0 60.0 89.0 60.0 C78.0 60.0 69.0 69.0 69.0 80.0 C69.0 86.0 72.0 90.0 75.0 94.0 C82.0 104.0 101.0 117.0 102.0 118.0 C103.0 118.0 104.0 119.0 105.0 119.0 C106.0 119.0 106.0 118.0 107.0 118.0 C108.0 117.0 127.0 104.0 134.0 94.0 C137.0 90.0 140.0 86.0 140.0 80.0 C140.0 69.0 131.0 60.0 120.0 60.0 L120.0 60.0 Z"></path></svg>