<svg xmlns="http://www.w3.org/2000/svg" viewBox="0.0 0.0 200.0 200.0" height="200px" width="200px"><path fill="#ff8800" fill-opacity="1.0"  filling="0" d="M105.0 126.0 L105.0 55.0 C105.0 52.0 103.0 50.0 100.0 50.0 C97.0 50.0 95.0 52.0 95.0 55.0 L95.0 126.0 C91.0 128.0 88.0 132.0 88.0 138.0 C88.0 144.0 93.0 150.0 100.0 150.0 C107.0 150.0 112.0 144.0 112.0 138.0 C112.0 132.0 109.0 128.0 105.0 126.0 L105.0 126.0 Z M100.0 140.0 C99.0 140.0 98.0 139.0 98.0 138.0 C98.0 136.0 99.0 135.0 100.0 135.0 C101.0 135.0 102.0 136.0 102.0 138.0 C102.0 139.0 101.0 140.0 100.0 140.0 L100.0 140.0 Z"></path>
<path fill="#ff8800" fill-opacity="1.0"  filling="0" d="M120.0 119.0 L120.0 55.0 C120.0 44.0 111.0 35.0 100.0 35.0 C89.0 35.0 80.0 44.0 80.0 55.0 L80.0 119.0 A28.0 28.0 0.0 0 0 72.0 138.0 C72.0 153.0 85.0 165.0 100.0 165.0 C115.0 165.0 128.0 153.0 128.0 138.0 C128.0 130.0 125.0 124.0 120.0 119.0 L120.0 119.0 Z M100.0 155.0 C90.0 155.0 82.0 147.0 82.0 138.0 C82.0 133.0 85.0 128.0 88.0 124.0 C89.0 124.0 90.0 122.0 90.0 121.0 L90.0 55.0 C90.0 49.0 94.0 45.0 100.0 45.0 C106.0 45.0 110.0 49.0 110.0 55.0 L110.0 121.0 C110.0 122.0 111.0 124.0 112.0 124.0 A18.0 18.0 0.0 0 1 118.0 138.0 C118.0 147.0 110.0 155.0 100.0 155.0 L100.0 155.0 Z"></path></svg>