<svg xmlns="http://www.w3.org/2000/svg" viewBox="0.0 0.0 200.0 200.0" height="200px" width="200px"><path fill="#777777" fill-opacity="1.0"  filling="0" d="M21.0 21.0 L31.0 21.0 L31.0 67.0 L21.0 67.0 L21.0 21.0 L21.0 21.0 Z M21.0 21.0 L67.0 21.0 L67.0 31.0 L21.0 31.0 L21.0 21.0 L21.0 21.0 Z M21.0 169.0 L67.0 169.0 L67.0 179.0 L21.0 179.0 L21.0 169.0 L21.0 169.0 Z M21.0 133.0 L31.0 133.0 L31.0 179.0 L21.0 179.0 L21.0 133.0 L21.0 133.0 Z M133.0 21.0 L179.0 21.0 L179.0 31.0 L133.0 31.0 L133.0 21.0 L133.0 21.0 Z"></path>
<path fill="#777777" fill-opacity="1.0"  filling="0" d="M169.0 21.0 L179.0 21.0 L179.0 67.0 L169.0 67.0 L169.0 21.0 L169.0 21.0 Z M169.0 133.0 L179.0 133.0 L179.0 179.0 L169.0 179.0 L169.0 133.0 L169.0 133.0 Z"></path>
<path fill="#777777" fill-opacity="1.0"  filling="0" d="M133.0 169.0 L179.0 169.0 L179.0 179.0 L133.0 179.0 L133.0 169.0 L133.0 169.0 Z M93.0 55.0 L107.0 55.0 L107.0 147.0 L93.0 147.0 L93.0 55.0 L93.0 55.0 Z M120.0 74.0 L133.0 74.0 L133.0 127.0 L120.0 127.0 L120.0 74.0 L120.0 74.0 Z M67.0 74.0 L80.0 74.0 L80.0 127.0 L67.0 127.0 L67.0 74.0 L67.0 74.0 Z M41.0 91.0 L54.0 91.0 L54.0 110.0 L41.0 110.0 L41.0 91.0 L41.0 91.0 Z M146.0 91.0 L160.0 91.0 L160.0 110.0 L146.0 110.0 L146.0 91.0 L146.0 91.0 Z"></path></svg>