<svg xmlns="http://www.w3.org/2000/svg" viewBox="0.0 0.0 200.0 200.0" height="200px" width="200px"><path fill="#555577" fill-opacity="1.0"  filling="0" d="M177.0 29.0 L177.0 29.0 C174.0 13.0 137.0 0.0 91.0 0.0 C45.0 0.0 8.0 13.0 6.0 29.0 L6.0 29.0 L5.0 29.0 L5.0 30.0 L5.0 71.0 L5.0 73.0 L5.0 75.0 L5.0 114.0 L5.0 116.0 L5.0 118.0 L5.0 161.0 L6.0 161.0 C8.0 177.0 45.0 189.0 91.0 189.0 C137.0 189.0 174.0 177.0 177.0 161.0 L177.0 161.0 L177.0 118.0 L177.0 116.0 L177.0 114.0 L177.0 75.0 L177.0 73.0 L177.0 71.0 L177.0 30.0 L177.0 29.0 L177.0 29.0 L177.0 29.0 Z"></path>
<path fill="#334444" fill-opacity="1.0"  filling="0" d="M91.0 146.0 C44.0 146.0 5.0 133.0 5.0 116.0 L5.0 161.0 L6.0 161.0 C8.0 177.0 45.0 189.0 91.0 189.0 C137.0 189.0 174.0 177.0 177.0 161.0 L177.0 161.0 L177.0 116.0 C177.0 133.0 138.0 146.0 91.0 146.0 L91.0 146.0 Z"></path>
<path fill="#334444" fill-opacity="1.0"  filling="0" d="M5.0 114.0 L5.0 116.0 C5.0 115.0 5.0 115.0 6.0 114.0 L5.0 114.0 L5.0 114.0 Z"></path>
<path fill="#334444" fill-opacity="1.0"  filling="0" d="M177.0 114.0 C177.0 115.0 177.0 115.0 177.0 116.0 L177.0 114.0 L177.0 114.0 L177.0 114.0 Z"></path>
<path fill="#556688" fill-opacity="1.0"  filling="0" d="M91.0 104.0 C44.0 104.0 5.0 90.0 5.0 73.0 L5.0 118.0 L6.0 118.0 C8.0 134.0 45.0 146.0 91.0 146.0 C137.0 146.0 174.0 134.0 177.0 118.0 L177.0 118.0 L177.0 73.0 C177.0 90.0 138.0 104.0 91.0 104.0 L91.0 104.0 Z"></path>
<path fill="#556688" fill-opacity="1.0"  filling="0" d="M5.0 71.0 L5.0 73.0 C5.0 73.0 5.0 72.0 6.0 71.0 L5.0 71.0 L5.0 71.0 Z"></path>
<path fill="#556688" fill-opacity="1.0"  filling="0" d="M177.0 71.0 C177.0 72.0 177.0 73.0 177.0 73.0 L177.0 71.0 L177.0 71.0 L177.0 71.0 Z"></path>
<path fill="#99bbee" fill-opacity="1.0"  filling="0" d="M177.0 30.0 A86.0 30.0 0.0 1 1 5.0 30.0 A86.0 30.0 0.0 1 1 177.0 30.0 L177.0 30.0 Z"></path>
<path fill="#8899cc" fill-opacity="1.0"  filling="0" d="M91.0 61.0 C44.0 61.0 5.0 47.0 5.0 30.0 L5.0 75.0 L6.0 75.0 C8.0 91.0 45.0 104.0 91.0 104.0 C137.0 104.0 174.0 91.0 177.0 75.0 L177.0 75.0 L177.0 30.0 C177.0 47.0 138.0 61.0 91.0 61.0 L91.0 61.0 Z"></path>
<path fill="#8899cc" fill-opacity="1.0"  filling="0" d="M5.0 29.0 L5.0 30.0 C5.0 30.0 5.0 29.0 6.0 29.0 L5.0 29.0 L5.0 29.0 Z"></path>
<path fill="#8899cc" fill-opacity="1.0"  filling="0" d="M177.0 29.0 C177.0 29.0 177.0 30.0 177.0 30.0 L177.0 29.0 L177.0 29.0 L177.0 29.0 Z"></path>
<path fill="#44aadd" fill-opacity="1.0"  filling="0" d="M177.0 161.0 C177.0 177.0 138.0 189.0 91.0 189.0 C44.0 189.0 5.0 177.0 5.0 161.0 L162.0 87.0 L177.0 161.0 L177.0 161.0 Z"></path>
<path fill="#ffdd55" fill-opacity="1.0"  filling="0" d="M104.0 75.0 L69.0 101.0 L100.0 90.0 L118.0 126.0 L133.0 66.0 L104.0 75.0 L104.0 75.0 Z"></path>
<path fill="#eebb44" fill-opacity="1.0"  filling="0" d="M133.0 66.0 L100.0 90.0 L118.0 126.0 L133.0 66.0 L133.0 66.0 Z"></path>
<path fill="#ffdd55" fill-opacity="1.0"  filling="0" d="M199.0 101.0 L144.0 101.0 L133.0 66.0 L118.0 126.0 L162.0 87.0 L199.0 101.0 L199.0 101.0 Z"></path>
<path fill="#eebb44" fill-opacity="1.0"  filling="0" d="M199.0 101.0 L162.0 87.0 L118.0 126.0 L199.0 101.0 L199.0 101.0 Z"></path>
<path fill="#ffdd55" fill-opacity="1.0"  filling="0" d="M199.0 156.0 L162.0 156.0 L156.0 113.0 L132.0 156.0 L100.0 156.0 L132.0 199.0 L156.0 174.0 L181.0 199.0 L199.0 156.0 L199.0 156.0 Z"></path></svg>