<svg xmlns="http://www.w3.org/2000/svg" viewBox="0.0 0.0 200.0 200.0" height="200px" width="200px"><path fill="#3366ff" fill-opacity="1.0"  filling="0" d="M196.0 0.0 L4.0 0.0 C2.0 0.0 0.0 2.0 0.0 4.0 L0.0 160.0 C0.0 162.0 2.0 164.0 4.0 164.0 L196.0 164.0 C198.0 164.0 199.0 162.0 199.0 160.0 L199.0 4.0 C199.0 2.0 198.0 0.0 196.0 0.0 L196.0 0.0 Z"></path>
<path fill="#ffee00" fill-opacity="1.0"  filling="0" d="M12.0 12.0 L188.0 12.0 L188.0 140.0 L12.0 140.0 L12.0 12.0 L12.0 12.0 Z"></path>
<path fill="#3366ff" fill-opacity="1.0"  filling="0" d="M156.0 184.0 L44.0 184.0 C42.0 184.0 40.0 186.0 40.0 188.0 L40.0 196.0 C40.0 198.0 42.0 199.0 44.0 199.0 L156.0 199.0 C158.0 199.0 160.0 198.0 160.0 196.0 L160.0 188.0 C160.0 186.0 158.0 184.0 156.0 184.0 L156.0 184.0 Z"></path>
<path fill="#ffee00" fill-opacity="1.0"  filling="0" d="M172.0 152.0 L180.0 152.0 L180.0 164.0 L172.0 164.0 L172.0 152.0 L172.0 152.0 Z"></path>
<path fill="#3366ff" fill-opacity="1.0"  filling="0" d="M80.0 164.0 L120.0 164.0 L120.0 184.0 L80.0 184.0 L80.0 164.0 L80.0 164.0 Z"></path>
<path fill="#333333" fill-opacity="1.0"  filling="0" d="M12.0 128.0 L188.0 128.0 L188.0 140.0 L12.0 140.0 L12.0 128.0 L12.0 128.0 Z M12.0 12.0 L188.0 12.0 L188.0 24.0 L12.0 24.0 L12.0 12.0 L12.0 12.0 Z"></path>
<path fill="#ffee00" fill-opacity="1.0"  filling="0" d="M16.0 132.0 L24.0 132.0 L24.0 136.0 L16.0 136.0 L16.0 132.0 L16.0 132.0 Z"></path>
<path fill="#3366ff" fill-opacity="1.0"  filling="0" d="M180.0 12.0 L184.0 12.0 L184.0 16.0 L180.0 16.0 L180.0 12.0 L180.0 12.0 Z"></path>
<path fill="#333333" fill-opacity="1.0"  filling="0" d="M12.0 28.0 L16.0 28.0 L16.0 128.0 L12.0 128.0 L12.0 28.0 L12.0 28.0 Z M184.0 28.0 L188.0 28.0 L188.0 128.0 L184.0 128.0 L184.0 28.0 L184.0 28.0 Z"></path>
<path fill="#3366ff" fill-opacity="1.0"  filling="0" d="M16.0 16.0 L20.0 16.0 L20.0 20.0 L16.0 20.0 L16.0 16.0 L16.0 16.0 Z M20.0 16.0 L24.0 16.0 L24.0 20.0 L20.0 20.0 L20.0 16.0 L20.0 16.0 Z"></path>
<path fill="#3366ff" fill-opacity="1.0"  filling="0" d="M176.0 16.0 L180.0 16.0 L180.0 20.0 L176.0 20.0 L176.0 16.0 L176.0 16.0 Z M180.0 16.0 L184.0 16.0 L184.0 20.0 L180.0 20.0 L180.0 16.0 L180.0 16.0 Z"></path>
<path fill="#333333" fill-opacity="1.0"  filling="0" d="M16.0 16.0 L20.0 16.0 L20.0 20.0 L16.0 20.0 L16.0 16.0 L16.0 16.0 Z M24.0 16.0 L24.0 16.0 L24.0 20.0 L24.0 20.0 L24.0 16.0 L24.0 16.0 Z M180.0 16.0 L184.0 16.0 L184.0 20.0 L180.0 20.0 L180.0 16.0 L180.0 16.0 Z"></path>
<path fill="#333333" fill-opacity="1.0"  filling="0" d="M16.0 16.0 L16.0 16.0 L16.0 180.0 L16.0 180.0 L16.0 16.0 L16.0 16.0 Z M180.0 16.0 L184.0 16.0 L184.0 180.0 L180.0 180.0 L180.0 16.0 L180.0 16.0 Z"></path>
<path fill="#333333" fill-opacity="1.0"  filling="0" d="M16.0 16.0 L36.0 16.0 L36.0 20.0 L16.0 20.0 L16.0 16.0 L16.0 16.0 Z M36.0 16.0 L44.0 16.0 L44.0 20.0 L36.0 20.0 L36.0 16.0 L36.0 16.0 Z M44.0 16.0 L44.0 16.0 L44.0 20.0 L44.0 20.0 L44.0 16.0 L44.0 16.0 Z M16.0 16.0 L16.0 16.0 L16.0 20.0 L16.0 20.0 L16.0 16.0 L16.0 16.0 Z M24.0 16.0 L24.0 16.0 L24.0 20.0 L24.0 20.0 L24.0 16.0 L24.0 16.0 Z M24.0 16.0 L24.0 16.0 L24.0 20.0 L24.0 20.0 L24.0 16.0 L24.0 16.0 Z M16.0 16.0 L18.0 16.0 L18.0 20.0 L16.0 20.0 L16.0 16.0 L16.0 16.0 Z M18.0 16.0 L18.0 16.0 L18.0 20.0 L18.0 20.0 L18.0 16.0 L18.0 16.0 Z M183.0 106.0 L12.0 106.0 L12.0 128.0 L188.0 128.0 L188.0 114.0 L183.0 114.0 L183.0 106.0 L183.0 106.0 Z M117.0 86.0 L123.0 86.0 L123.0 119.0 L117.0 119.0 L117.0 86.0 L117.0 86.0 Z"></path>
<path fill="#ffee00" fill-opacity="1.0"  filling="0" d="M123.0 86.0 L130.0 86.0 L130.0 122.0 L123.0 122.0 L123.0 86.0 L123.0 86.0 Z"></path>
<path fill="#333333" fill-opacity="1.0"  filling="0" d="M130.0 86.0 L137.0 86.0 L137.0 122.0 L130.0 122.0 L130.0 86.0 L130.0 86.0 Z M63.0 86.0 L70.0 86.0 L70.0 122.0 L63.0 122.0 L63.0 86.0 L63.0 86.0 Z"></path>
<path fill="#ffee00" fill-opacity="1.0"  filling="0" d="M70.0 86.0 L77.0 86.0 L77.0 122.0 L70.0 122.0 L70.0 86.0 L70.0 86.0 Z"></path>
<path fill="#333333" fill-opacity="1.0"  filling="0" d="M77.0 86.0 L83.0 86.0 L83.0 119.0 L77.0 119.0 L77.0 86.0 L77.0 86.0 Z M100.0 62.0 L107.0 62.0 L107.0 119.0 L100.0 119.0 L100.0 62.0 L100.0 62.0 Z"></path>
<path fill="#ffee00" fill-opacity="1.0"  filling="0" d="M107.0 62.0 L114.0 62.0 L114.0 119.0 L107.0 119.0 L107.0 62.0 L107.0 62.0 Z"></path>
<path fill="#333333" fill-opacity="1.0"  filling="0" d="M114.0 62.0 L120.0 62.0 L120.0 119.0 L114.0 119.0 L114.0 62.0 L114.0 62.0 Z M80.0 62.0 L86.0 62.0 L86.0 119.0 L80.0 119.0 L80.0 62.0 L80.0 62.0 Z"></path>
<path fill="#ffee00" fill-opacity="1.0"  filling="0" d="M86.0 62.0 L93.0 62.0 L93.0 119.0 L86.0 119.0 L86.0 62.0 L86.0 62.0 Z"></path></svg>