<svg xmlns="http://www.w3.org/2000/svg" viewBox="0.0 0.0 200.0 200.0" height="200px" width="200px"><path fill="#555588" fill-opacity="1.0"  filling="0" d="M156.0 19.0 L44.0 19.0 C35.0 19.0 28.0 26.0 28.0 35.0 L28.0 172.0 C28.0 181.0 37.0 187.0 45.0 183.0 L93.0 163.0 C98.0 161.0 102.0 161.0 107.0 163.0 L155.0 183.0 C163.0 187.0 172.0 181.0 172.0 172.0 L172.0 35.0 C172.0 26.0 165.0 19.0 156.0 19.0 L156.0 19.0 Z M130.0 100.0 L106.0 100.0 L106.0 123.0 C106.0 127.0 104.0 129.0 100.0 129.0 C97.0 129.0 94.0 127.0 94.0 123.0 L94.0 100.0 L71.0 100.0 C68.0 100.0 65.0 97.0 65.0 94.0 C65.0 91.0 68.0 88.0 71.0 88.0 L94.0 88.0 L94.0 64.0 C94.0 61.0 97.0 58.0 100.0 58.0 C104.0 58.0 106.0 61.0 106.0 64.0 L106.0 88.0 L130.0 88.0 C133.0 88.0 136.0 91.0 136.0 94.0 C136.0 97.0 133.0 100.0 130.0 100.0 L130.0 100.0 Z"></path></svg>