<svg xmlns="http://www.w3.org/2000/svg" viewBox="0.0 0.0 200.0 200.0" height="200px" width="200px"><path fill="#cceeff" fill-opacity="1.0"  filling="0" d="M185.0 100.0 A85.0 85.0 0.0 1 1 15.0 100.0 A85.0 85.0 0.0 1 1 185.0 100.0 L185.0 100.0 Z"></path>
<path fill="#ffeeee" fill-opacity="1.0"  filling="0" d="M122.0 144.0 C122.0 144.0 122.0 154.0 122.0 154.0 A5.0 5.0 0.0 0 1 118.0 158.0 L82.0 158.0 A5.0 5.0 0.0 0 1 78.0 154.0 C78.0 154.0 78.0 144.0 78.0 144.0 A19.0 19.0 0.0 0 1 83.0 124.0 L83.0 124.0 L116.0 124.0 L116.0 124.0 A19.0 19.0 0.0 0 1 122.0 144.0 L122.0 144.0 Z"></path>
<path fill="#ffddcc" fill-opacity="1.0"  filling="0" d="M122.0 144.0 C122.0 144.0 122.0 154.0 122.0 154.0 A5.0 5.0 0.0 0 1 118.0 158.0 L118.0 158.0 C118.0 152.0 116.0 146.0 113.0 142.0 L113.0 142.0 C111.0 140.0 109.0 139.0 107.0 138.0 A14.0 14.0 0.0 0 0 107.0 138.0 C106.0 138.0 106.0 138.0 106.0 138.0 C105.0 138.0 105.0 138.0 105.0 138.0 C105.0 138.0 105.0 138.0 105.0 138.0 C105.0 138.0 105.0 138.0 104.0 138.0 C104.0 138.0 104.0 138.0 104.0 138.0 C104.0 138.0 104.0 138.0 104.0 138.0 C104.0 138.0 103.0 138.0 103.0 138.0 C103.0 138.0 103.0 138.0 103.0 138.0 C102.0 138.0 102.0 138.0 102.0 138.0 C102.0 138.0 102.0 138.0 102.0 138.0 C102.0 138.0 102.0 138.0 102.0 138.0 C102.0 138.0 102.0 138.0 102.0 138.0 C101.0 138.0 101.0 138.0 101.0 138.0 C101.0 138.0 101.0 138.0 101.0 138.0 C101.0 138.0 101.0 138.0 100.0 138.0 C100.0 138.0 100.0 138.0 100.0 138.0 C100.0 138.0 100.0 138.0 100.0 138.0 C100.0 138.0 100.0 138.0 100.0 138.0 C100.0 138.0 99.0 138.0 99.0 138.0 C99.0 138.0 99.0 138.0 99.0 138.0 C99.0 138.0 99.0 138.0 99.0 138.0 C99.0 138.0 99.0 138.0 98.0 138.0 C98.0 138.0 98.0 138.0 98.0 138.0 C98.0 138.0 98.0 138.0 98.0 138.0 C98.0 138.0 98.0 138.0 98.0 138.0 C98.0 138.0 98.0 138.0 97.0 138.0 C97.0 138.0 97.0 138.0 97.0 138.0 C97.0 138.0 97.0 138.0 97.0 138.0 C97.0 138.0 97.0 138.0 97.0 138.0 C97.0 138.0 97.0 138.0 96.0 138.0 C96.0 138.0 96.0 138.0 96.0 138.0 C96.0 138.0 96.0 138.0 96.0 138.0 C96.0 138.0 96.0 138.0 96.0 138.0 C96.0 138.0 96.0 138.0 95.0 138.0 C95.0 138.0 95.0 138.0 95.0 138.0 C95.0 138.0 95.0 138.0 95.0 138.0 C95.0 138.0 95.0 138.0 95.0 138.0 C95.0 138.0 94.0 138.0 94.0 138.0 C94.0 138.0 94.0 138.0 94.0 138.0 C94.0 138.0 94.0 138.0 93.0 138.0 C93.0 138.0 93.0 138.0 93.0 138.0 C93.0 138.0 93.0 138.0 93.0 138.0 C91.0 139.0 89.0 140.0 87.0 142.0 L87.0 142.0 C84.0 146.0 82.0 152.0 82.0 158.0 L82.0 158.0 A5.0 5.0 0.0 0 1 78.0 154.0 C78.0 154.0 78.0 144.0 78.0 144.0 A19.0 19.0 0.0 0 1 83.0 124.0 L83.0 124.0 L116.0 124.0 L116.0 124.0 A19.0 19.0 0.0 0 1 122.0 144.0 L122.0 144.0 Z"></path>
<path fill="#ffffff" fill-opacity="1.0"  filling="0" d="M17.0 17.0 L183.0 17.0 L183.0 183.0 L17.0 183.0 L17.0 17.0 L17.0 17.0 Z"></path>
<path fill="#ffffff" fill-opacity="1.0"  filling="0" d="M17.0 17.0 L183.0 17.0 L183.0 183.0 L17.0 183.0 L17.0 17.0 L17.0 17.0 Z"></path>
<path fill="#ffffff" fill-opacity="1.0"  filling="0" d="M38.0 38.0 A15.0 15.0 0.0 1 1 10.0 38.0 A15.0 15.0 0.0 1 1 38.0 38.0 L38.0 38.0 Z"></path>
<path fill="#ffffff" fill-opacity="1.0"  filling="0" d="M190.0 38.0 A15.0 15.0 0.0 1 1 162.0 38.0 A15.0 15.0 0.0 1 1 190.0 38.0 L190.0 38.0 Z"></path>
<path fill="#cceeff" fill-opacity="1.0"  filling="0" d="M17.0 17.0 L183.0 17.0 L183.0 183.0 L17.0 183.0 L17.0 17.0 L17.0 17.0 Z"></path>
<path fill="#cceeff" fill-opacity="1.0"  filling="0" d="M17.0 17.0 L183.0 17.0 L183.0 183.0 L17.0 183.0 L17.0 17.0 L17.0 17.0 Z"></path>
<path fill="#ffeeee" fill-opacity="1.0"  filling="0" d="M100.0 20.0 C71.0 20.0 48.0 45.0 48.0 76.0 C48.0 107.0 71.0 133.0 100.0 133.0 C128.0 133.0 152.0 107.0 152.0 76.0 C152.0 45.0 128.0 20.0 100.0 20.0 L100.0 20.0 Z"></path>
<path fill="#000000" fill-opacity="1.0"  filling="0" d="M100.0 109.0 A9.0 9.0 0.0 0 1 93.0 107.0 A2.0 2.0 0.0 1 1 95.0 104.0 C98.0 106.0 102.0 106.0 104.0 104.0 A2.0 2.0 0.0 1 1 107.0 107.0 A9.0 9.0 0.0 0 1 100.0 109.0 L100.0 109.0 Z"></path>
<path fill="#ffddcc" fill-opacity="1.0"  filling="0" d="M86.0 66.0 A15.0 15.0 0.0 1 1 56.0 66.0 A15.0 15.0 0.0 1 1 86.0 66.0 L86.0 66.0 Z"></path>
<path fill="#ffddcc" fill-opacity="1.0"  filling="0" d="M144.0 66.0 A15.0 15.0 0.0 1 1 114.0 66.0 A15.0 15.0 0.0 1 1 144.0 66.0 L144.0 66.0 Z"></path>
<path fill="#333344" fill-opacity="1.0"  filling="0" d="M81.0 66.0 A9.0 9.0 0.0 1 1 63.0 66.0 A9.0 9.0 0.0 1 1 81.0 66.0 L81.0 66.0 Z"></path>
<path fill="#333344" fill-opacity="1.0"  filling="0" d="M138.0 66.0 A9.0 9.0 0.0 1 1 120.0 66.0 A9.0 9.0 0.0 1 1 138.0 66.0 L138.0 66.0 Z"></path>
<path fill="#333344" fill-opacity="1.0"  filling="0" d="M103.0 83.0 L97.0 83.0 A2.0 2.0 0.0 0 1 97.0 79.0 L103.0 79.0 A2.0 2.0 0.0 0 1 103.0 83.0 L103.0 83.0 L103.0 83.0 Z"></path>
<path fill="#333344" fill-opacity="1.0"  filling="0" d="M127.0 81.0 A2.0 2.0 0.0 0 1 126.0 79.0 C126.0 74.0 130.0 71.0 132.0 71.0 A2.0 2.0 0.0 0 1 133.0 74.0 C132.0 74.0 129.0 76.0 129.0 79.0 A2.0 2.0 0.0 0 1 127.0 81.0 L127.0 81.0 Z"></path>
<path fill="#333344" fill-opacity="1.0"  filling="0" d="M72.0 81.0 A2.0 2.0 0.0 0 1 70.0 79.0 C70.0 76.0 67.0 74.0 67.0 74.0 A2.0 2.0 0.0 0 1 69.0 71.0 C69.0 71.0 73.0 74.0 73.0 79.0 A2.0 2.0 0.0 0 1 72.0 81.0 L72.0 81.0 Z"></path>
<path fill="#333344" fill-opacity="1.0"  filling="0" d="M127.0 81.0 A2.0 2.0 0.0 0 1 126.0 79.0 C126.0 74.0 130.0 71.0 132.0 71.0 A2.0 2.0 0.0 0 1 133.0 74.0 C132.0 74.0 129.0 76.0 129.0 79.0 A2.0 2.0 0.0 0 1 127.0 81.0 L127.0 81.0 Z"></path>
<path fill="#333344" fill-opacity="1.0"  filling="0" d="M72.0 81.0 A2.0 2.0 0.0 0 1 70.0 79.0 C70.0 76.0 67.0 74.0 67.0 74.0 A2.0 2.0 0.0 0 1 69.0 71.0 C69.0 71.0 73.0 74.0 73.0 79.0 A2.0 2.0 0.0 0 1 72.0 81.0 L72.0 81.0 Z"></path>
<path fill="#cceeff" fill-opacity="1.0"  filling="0" d="M18.0 18.0 L182.0 18.0 L182.0 182.0 L18.0 182.0 L18.0 18.0 L18.0 18.0 Z"></path>
<path fill="#cceeff" fill-opacity="1.0"  filling="0" d="M18.0 18.0 L182.0 18.0 L182.0 182.0 L18.0 182.0 L18.0 18.0 L18.0 18.0 Z"></path>
<path fill="#ffffff" fill-opacity="1.0"  filling="0" d="M38.0 38.0 A15.0 15.0 0.0 1 1 10.0 38.0 A15.0 15.0 0.0 1 1 38.0 38.0 L38.0 38.0 Z"></path>
<path fill="#ffffff" fill-opacity="1.0"  filling="0" d="M190.0 38.0 A15.0 15.0 0.0 1 1 162.0 38.0 A15.0 15.0 0.0 1 1 190.0 38.0 L190.0 38.0 Z"></path>
<path fill="#ffffff" fill-opacity="1.0"  filling="0" d="M17.0 17.0 L183.0 17.0 L183.0 183.0 L17.0 183.0 L17.0 17.0 L17.0 17.0 Z"></path>
<path fill="#cceeff" fill-opacity="1.0"  filling="0" d="M17.0 17.0 L183.0 17.0 L183.0 183.0 L17.0 183.0 L17.0 17.0 L17.0 17.0 Z"></path>
<path fill="#ffcc77" fill-opacity="1.0"  filling="0" d="M47.0 47.0 A18.0 18.0 0.0 0 0 38.0 38.0 A18.0 18.0 0.0 0 0 -5.0 -5.0 M47.0 47.0 A18.0 18.0 0.0 0 1 38.0 38.0 A18.0 18.0 0.0 0 1 93.0 98.0 A18.0 18.0 0.0 0 0 47.0 47.0 L47.0 47.0 Z"></path>
<path fill="#ffcc77" fill-opacity="1.0"  filling="0" d="M153.0 47.0 A18.0 18.0 0.0 0 1 162.0 38.0 A18.0 18.0 0.0 0 1 105.0 151.0 A18.0 18.0 0.0 0 0 153.0 47.0 L153.0 47.0 Z"></path>
<path fill="#ffcc77" fill-opacity="1.0"  filling="0" d="M153.0 47.0 A18.0 18.0 0.0 0 0 162.0 38.0 A18.0 18.0 0.0 0 0 107.0 98.0 A18.0 18.0 0.0 0 1 153.0 47.0 L153.0 47.0 Z"></path>
<path fill="#cceeff" fill-opacity="1.0"  filling="0" d="M17.0 17.0 L183.0 17.0 L183.0 183.0 L17.0 183.0 L17.0 17.0 L17.0 17.0 Z"></path>
<path fill="#cceeff" fill-opacity="1.0"  filling="0" d="M17.0 17.0 L183.0 17.0 L183.0 183.0 L17.0 183.0 L17.0 17.0 L17.0 17.0 Z"></path>
<path fill="#cceeff" fill-opacity="1.0"  filling="0" d="M17.0 17.0 L183.0 17.0 L183.0 183.0 L17.0 183.0 L17.0 17.0 L17.0 17.0 Z"></path>
<path fill="#cceeff" fill-opacity="1.0"  filling="0" d="M17.0 17.0 L183.0 17.0 L183.0 183.0 L17.0 183.0 L17.0 17.0 L17.0 17.0 Z"></path>
<path fill="#333344" fill-opacity="1.0"  filling="0" d="M99.0 164.0 A2.0 2.0 0.0 0 1 97.0 162.0 C97.0 159.0 98.0 157.0 99.0 156.0 C100.0 154.0 101.0 154.0 102.0 154.0 A2.0 2.0 0.0 0 1 103.0 158.0 C103.0 158.0 102.0 159.0 102.0 159.0 C101.0 160.0 101.0 161.0 101.0 162.0 A2.0 2.0 0.0 0 1 99.0 164.0 L99.0 164.0 Z"></path></svg>