<svg xmlns="http://www.w3.org/2000/svg" viewBox="0.0 0.0 200.0 200.0" height="200px" width="200px"><path fill="#ffffff" fill-opacity="1.0"  filling="0" d="M0.0 0.0 L199.0 0.0 L199.0 199.0 L0.0 199.0 L0.0 0.0 L0.0 0.0 Z"></path>
<path fill="#ffffff" fill-opacity="1.0"  filling="0" d="M0.0 0.0 L199.0 0.0 L199.0 199.0 L0.0 199.0 L0.0 0.0 L0.0 0.0 Z"></path>
<path fill="#ffffff" fill-opacity="1.0"  filling="0" d="M0.0 0.0 L199.0 0.0 L199.0 199.0 L0.0 199.0 L0.0 0.0 L0.0 0.0 Z"></path>
<path fill="#ffffff" fill-opacity="1.0"  filling="0" d="M199.0 13.0 L198.0 11.0 L10.0 199.0 L18.0 199.0 L199.0 18.0 L199.0 13.0 L199.0 13.0 Z M160.0 0.0 L0.0 161.0 L0.0 168.0 L168.0 0.0 L160.0 0.0 L160.0 0.0 Z M105.0 0.0 L0.0 105.0 L0.0 113.0 L113.0 0.0 L105.0 0.0 L105.0 0.0 Z M55.0 0.0 L0.0 55.0 L0.0 63.0 L63.0 0.0 L55.0 0.0 L55.0 0.0 Z M13.0 0.0 L0.0 13.0 L0.0 21.0 L21.0 0.0 L13.0 0.0 L13.0 0.0 Z M199.0 61.0 L61.0 199.0 L68.0 199.0 L199.0 69.0 L199.0 61.0 L199.0 61.0 Z M199.0 111.0 L110.0 199.0 L118.0 199.0 L199.0 118.0 L199.0 111.0 L199.0 111.0 Z M199.0 168.0 L167.0 199.0 L175.0 199.0 L199.0 176.0 L199.0 168.0 L199.0 168.0 Z"></path>
<path fill="#ffbb66" fill-opacity="1.0"  filling="0" d="M163.0 78.0 C156.0 78.0 150.0 82.0 146.0 88.0 C145.0 82.0 139.0 77.0 133.0 77.0 C126.0 77.0 120.0 82.0 119.0 88.0 C116.0 82.0 111.0 78.0 104.0 78.0 C97.0 78.0 92.0 82.0 90.0 88.0 C88.0 82.0 82.0 77.0 75.0 77.0 C68.0 77.0 62.0 82.0 60.0 88.0 C57.0 82.0 51.0 78.0 44.0 78.0 C33.0 78.0 24.0 87.0 24.0 97.0 C24.0 107.0 33.0 115.0 44.0 115.0 C51.0 115.0 57.0 111.0 60.0 105.0 C62.0 111.0 68.0 115.0 75.0 115.0 C82.0 115.0 88.0 111.0 90.0 105.0 C92.0 111.0 97.0 115.0 104.0 115.0 C111.0 115.0 116.0 111.0 119.0 105.0 C120.0 111.0 126.0 115.0 133.0 115.0 C139.0 115.0 145.0 111.0 146.0 105.0 C150.0 111.0 156.0 115.0 163.0 115.0 C174.0 115.0 183.0 107.0 183.0 97.0 C183.0 87.0 174.0 78.0 163.0 78.0 L163.0 78.0 Z"></path>
<path fill="#000000" fill-opacity="1.0"  filling="0" d="M163.0 78.0 C159.0 78.0 154.0 79.0 151.0 82.0 C151.0 82.0 150.0 83.0 150.0 83.0 C152.0 86.0 153.0 90.0 153.0 94.0 C153.0 98.0 152.0 102.0 150.0 105.0 C150.0 105.0 151.0 105.0 151.0 106.0 C154.0 109.0 159.0 110.0 163.0 110.0 C174.0 110.0 183.0 103.0 183.0 94.0 C183.0 85.0 174.0 78.0 163.0 78.0 L163.0 78.0 Z"></path>
<path fill="#000000" fill-opacity="1.0"  filling="0" d="M67.0 78.0 C63.0 78.0 59.0 79.0 56.0 82.0 C56.0 82.0 56.0 83.0 56.0 83.0 C58.0 86.0 59.0 90.0 59.0 94.0 C59.0 98.0 58.0 102.0 56.0 105.0 C56.0 105.0 56.0 105.0 56.0 106.0 C59.0 109.0 63.0 110.0 67.0 110.0 C77.0 110.0 85.0 103.0 85.0 94.0 C85.0 85.0 77.0 78.0 67.0 78.0 L67.0 78.0 Z"></path>
<path fill="#000000" fill-opacity="1.0"  filling="0" d="M104.0 78.0 C100.0 78.0 96.0 79.0 93.0 82.0 C93.0 82.0 93.0 83.0 93.0 83.0 C95.0 86.0 97.0 90.0 97.0 94.0 C97.0 98.0 95.0 102.0 93.0 105.0 C93.0 105.0 93.0 105.0 93.0 106.0 C96.0 109.0 100.0 110.0 104.0 110.0 C113.0 110.0 121.0 103.0 121.0 94.0 C121.0 85.0 113.0 78.0 104.0 78.0 L104.0 78.0 Z"></path>
<path fill="#ffffff" fill-opacity="1.0"  filling="0" d="M108.0 103.0 C108.0 106.0 106.0 108.0 104.0 108.0 C102.0 108.0 100.0 106.0 100.0 103.0 C100.0 101.0 102.0 99.0 104.0 99.0 C106.0 99.0 108.0 101.0 108.0 103.0 L108.0 103.0 Z"></path>
<path fill="#ffffff" fill-opacity="1.0"  filling="0" d="M36.0 103.0 C36.0 106.0 34.0 108.0 32.0 108.0 C30.0 108.0 28.0 106.0 28.0 103.0 C28.0 101.0 30.0 99.0 32.0 99.0 C34.0 99.0 36.0 101.0 36.0 103.0 L36.0 103.0 Z"></path>
<path fill="#ffffff" fill-opacity="1.0"  filling="0" d="M69.0 90.0 C66.0 92.0 65.0 96.0 66.0 99.0 C68.0 102.0 72.0 103.0 75.0 101.0 C78.0 99.0 79.0 95.0 77.0 92.0 C75.0 89.0 72.0 88.0 69.0 90.0 L69.0 90.0 Z"></path>
<path fill="#ffffff" fill-opacity="1.0"  filling="0" d="M168.0 90.0 C165.0 92.0 164.0 96.0 166.0 99.0 C168.0 102.0 172.0 103.0 175.0 101.0 C178.0 99.0 179.0 95.0 177.0 92.0 C175.0 89.0 171.0 88.0 168.0 90.0 L168.0 90.0 Z"></path>
<path fill="#ffffff" fill-opacity="1.0"  filling="0" d="M152.0 90.0 C151.0 92.0 150.0 94.0 149.0 96.0 C147.0 98.0 145.0 98.0 143.0 97.0 C141.0 95.0 141.0 92.0 142.0 90.0 C144.0 88.0 147.0 88.0 150.0 90.0 C150.0 89.0 151.0 89.0 152.0 90.0 L152.0 90.0 Z"></path>
<path fill="#ffffff" fill-opacity="1.0"  filling="0" d="M86.0 90.0 C85.0 92.0 84.0 94.0 83.0 96.0 C81.0 98.0 78.0 98.0 76.0 97.0 C74.0 95.0 74.0 92.0 75.0 90.0 C76.0 88.0 79.0 88.0 82.0 90.0 C83.0 89.0 85.0 89.0 86.0 90.0 L86.0 90.0 Z"></path>
<path fill="#ffffff" fill-opacity="1.0"  filling="0" d="M117.0 78.0 C115.0 78.0 113.0 79.0 111.0 80.0 C110.0 81.0 109.0 82.0 109.0 83.0 C108.0 84.0 109.0 85.0 110.0 86.0 C111.0 87.0 112.0 87.0 113.0 86.0 C116.0 85.0 118.0 83.0 118.0 81.0 C119.0 80.0 118.0 78.0 117.0 78.0 L117.0 78.0 Z"></path>
<path fill="#ffffff" fill-opacity="1.0"  filling="0" d="M51.0 78.0 C49.0 78.0 47.0 79.0 45.0 80.0 C44.0 81.0 43.0 82.0 43.0 83.0 C42.0 84.0 43.0 85.0 44.0 86.0 C45.0 87.0 46.0 87.0 47.0 86.0 C49.0 85.0 52.0 83.0 52.0 81.0 C53.0 80.0 52.0 78.0 51.0 78.0 L51.0 78.0 Z"></path>
<path fill="#ffbb66" fill-opacity="1.0"  filling="0" d="M24.0 24.0 L176.0 24.0 L176.0 199.0 L24.0 199.0 L24.0 24.0 L24.0 24.0 Z"></path>
<path fill="#ffdd55" fill-opacity="1.0"  filling="0" d="M125.0 112.0 C112.0 112.0 101.0 122.0 101.0 135.0 C101.0 148.0 112.0 159.0 125.0 159.0 L162.0 159.0 C174.0 159.0 184.0 148.0 184.0 135.0 C184.0 122.0 174.0 112.0 162.0 112.0 L125.0 112.0 L125.0 112.0 Z"></path>
<path fill="#000000" fill-opacity="1.0"  filling="0" d="M162.0 112.0 L151.0 112.0 C164.0 112.0 174.0 122.0 174.0 135.0 C174.0 148.0 164.0 159.0 151.0 159.0 L162.0 159.0 C174.0 159.0 184.0 148.0 184.0 135.0 C184.0 122.0 174.0 112.0 162.0 112.0 L162.0 112.0 Z"></path>
<path fill="#000000" fill-opacity="1.0"  filling="0" d="M125.0 112.0 L115.0 112.0 C115.0 112.0 115.0 112.0 115.0 112.0 C127.0 112.0 137.0 122.0 137.0 135.0 C137.0 148.0 127.0 159.0 115.0 159.0 C115.0 159.0 115.0 159.0 115.0 159.0 L125.0 159.0 C138.0 159.0 148.0 148.0 148.0 135.0 C148.0 122.0 138.0 112.0 125.0 112.0 L125.0 112.0 Z"></path>
<path fill="#000000" fill-opacity="1.0"  filling="0" d="M128.0 116.0 C129.0 113.0 131.0 110.0 133.0 107.0 C134.0 106.0 133.0 104.0 132.0 104.0 C129.0 104.0 126.0 104.0 123.0 104.0 C123.0 104.0 122.0 104.0 122.0 105.0 C120.0 108.0 118.0 111.0 116.0 115.0 L128.0 116.0 L128.0 116.0 Z"></path>
<path fill="#000000" fill-opacity="1.0"  filling="0" d="M105.0 116.0 C102.0 113.0 99.0 110.0 96.0 107.0 C96.0 106.0 96.0 104.0 97.0 104.0 C100.0 104.0 103.0 104.0 106.0 104.0 C106.0 104.0 107.0 104.0 107.0 105.0 C109.0 108.0 111.0 111.0 113.0 115.0 L105.0 116.0 L105.0 116.0 Z"></path>
<path fill="#000000" fill-opacity="1.0"  filling="0" d="M113.0 115.0 C106.0 124.0 112.0 139.0 112.0 140.0 C113.0 141.0 114.0 141.0 115.0 141.0 C115.0 141.0 115.0 141.0 116.0 141.0 C117.0 140.0 117.0 139.0 117.0 138.0 C117.0 137.0 111.0 124.0 117.0 117.0 L113.0 115.0 L113.0 115.0 Z"></path>
<path fill="#000000" fill-opacity="1.0"  filling="0" d="M116.0 115.0 C123.0 124.0 118.0 139.0 118.0 140.0 C118.0 141.0 119.0 141.0 120.0 141.0 C120.0 141.0 121.0 141.0 121.0 141.0 C122.0 140.0 123.0 139.0 123.0 138.0 C123.0 137.0 120.0 124.0 124.0 117.0 L116.0 115.0 L116.0 115.0 Z"></path>
<path fill="#000000" fill-opacity="1.0"  filling="0" d="M128.0 115.0 C120.0 124.0 125.0 137.0 125.0 138.0 C125.0 139.0 126.0 140.0 127.0 141.0 C127.0 141.0 128.0 141.0 128.0 141.0 C129.0 141.0 130.0 140.0 130.0 140.0 C130.0 139.0 125.0 124.0 132.0 115.0 L128.0 115.0 L128.0 115.0 Z"></path>
<path fill="#000000" fill-opacity="1.0"  filling="0" d="M116.0 115.0 C115.0 114.0 115.0 114.0 115.0 114.0 C114.0 114.0 114.0 114.0 113.0 115.0 L110.0 117.0 C103.0 124.0 108.0 139.0 109.0 140.0 C109.0 141.0 110.0 141.0 111.0 141.0 C111.0 141.0 111.0 141.0 112.0 141.0 C112.0 140.0 113.0 139.0 113.0 138.0 C113.0 137.0 108.0 124.0 115.0 117.0 L116.0 115.0 L116.0 115.0 Z"></path>
<path fill="#000000" fill-opacity="1.0"  filling="0" d="M112.0 117.0 C105.0 124.0 112.0 139.0 112.0 140.0 C113.0 141.0 114.0 141.0 115.0 141.0 C115.0 141.0 115.0 141.0 116.0 141.0 L116.0 141.0 C117.0 140.0 117.0 139.0 117.0 138.0 C117.0 137.0 111.0 124.0 117.0 117.0 L112.0 117.0 L112.0 117.0 Z"></path>
<path fill="#000000" fill-opacity="1.0"  filling="0" d="M117.0 117.0 C120.0 124.0 125.0 137.0 125.0 138.0 C125.0 139.0 126.0 140.0 127.0 141.0 C127.0 141.0 128.0 141.0 128.0 141.0 C129.0 141.0 130.0 140.0 130.0 140.0 C130.0 139.0 125.0 124.0 132.0 115.0 L127.0 115.0 C122.0 124.0 125.0 137.0 125.0 138.0 C125.0 139.0 126.0 140.0 127.0 141.0 C127.0 141.0 128.0 141.0 128.0 141.0 C129.0 141.0 130.0 140.0 130.0 140.0 C130.0 139.0 125.0 124.0 132.0 115.0 L133.0 115.0 C122.0 124.0 125.0 137.0 125.0 138.0 C125.0 139.0 126.0 140.0 127.0 141.0 C127.0 141.0 128.0 141.0 128.0 141.0 C129.0 141.0 130.0 140.0 130.0 140.0 C130.0 139.0 125.0 124.0 132.0 115.0 L133.0 115.0 C122.0 124.0 125.0 137.0 125.0 138.0 C125.0 139.0 126.0 140.0 127.0 141.0 C127.0 141.0 128.0 141.0 128.0 141.0 C129.0 141.0 130.0 140.0 130.0 140.0 C130.0 139.0 125.0 124.0 132.0 115.0 L133.0 115.0 C122.0 124.0 125.0 137.0 125.0 138.0 C125.0 139.0 126.0 140.0 127.0 141.0 C127.0 141.0 128.0 141.0 128.0 141.0 C129.0 141.0 130.0 140.0 130.0 140.0 C130.0 139.0 125.0 124.0 132.0 115.0 L133.0 115.0 C122.0 124.0 125.0 137.0 125.0 138.0 C125.0 139.0 126.0 140.0 127.0 141.0 C127.0 141.0 128.0 141.0 128.0 141.0 C129.0 141.0 130.0 140.0 130.0 140.0 C130.0 139.0 125.0 124.0 132.0 115.0 L133.0 115.0 C122.0 124.0 125.0 137.0 125.0 138.0 C125.0 139.0 126.0 140.0 127.0 141.0 C127.0 141.0 128.0 141.0 128.0 141.0 C129.0 141.0 130.0 140.0 130.0 140.0 C130.0 139.0 125.0 124.0 132.0 115.0 L133.0 115.0 C122.0 124.0 125.0 137.0 125.0 138.0 C125.0 139.0 126.0 140.0 127.0 141.0 C127.0 141.0 128.0 141.0 128.0 141.0 C129.0 141.0 130.0 140.0 130.0 140.0 C130.0 139.0 125.0 124.0 132.0 115.0 L133.0 115.0 C122.0 124.0 125.0 137.0 125.0 138.0 C125.0 139.0 126.0 140.0 127.0 141.0 C127.0 141.0 128.0 141.0 128.0 141.0 C129.0 141.0 130.0 140.0 130.0 140.0 C130.0 139.0 125.0 124.0 132.0 115.0 L133.0 115.0 C122.0 124.0 125.0 137.0 125.0 138.0 C125.0 139.0 126.0 140.0 127.0 141.0 C127.0 141.0 128.0 141.0 128.0 141.0 C129.0 141.0 130.0 140.0 130.0 140.0 C130.0 139.0 125.0 124.0 132.0 115.0 L133.0 115.0 C122.0 124.0 125.0 137.0 125.0 138.0 C125.0 139.0 126.0 140.0 127.0 141.0 C127.0 141.0 128.0 141.0 128.0 141.0 C129.0 141.0 130.0 140.0 130.0 140.0 C130.0 139.0 125.0 124.0 132.0 115.0 L133.0 115.0 C122.0 124.0 125.0 137.0 125.0 138.0 C125.0 139.0 126.0 140.0 127.0 141.0 C127.0 141.0 128.0 141.0 128.0 141.0 C129.0 141.0 130.0 140.0 130.0 140.0 C130.0 139.0 125.0 124.0 132.0 115.0 L133.0 115.0 C122.0 124.0 125.0 137.0 125.0 138.0 C125.0 139.0 126.0 140.0 127.0 141.0 C127.0 141.0 128.0 141.0 128.0 141.0 C129.0 141.0 130.0 140.0 130.0 140.0 C130.0 139.0 125.0 124.0 132.0 115.0 L133.0 115.0 C122.0 124.0 125.0 137.0 125.0 138.0 C125.0 139.0 126.0 140.0 127.0 141.0 C127.0 141.0 128.0 141.0 128.0 141.0 C129.0 141.0 130.0 140.0 130.0 140.0 C130.0 139.0 125.0 124.0 132.0 115.0 L133.0 115.0 C122.0 124.0 125.0 137.0 125.0 138.0 C125.0 139.0 126.0 140.0 127.0 141.0 C127.0 141.0 128.0 141.0 128.0 141.0 C129.0 141.0 130.0 140.0 130.0 140.0 C130.0 139.0 125.0 124.0 132.0 115.0 L133.0 115.0 C122.0 124.0 125.0 137.0 125.0 138.0 C125.0 139.0 126.0 140.0 127.0 141.0 C127.0 141.0 128.0 141.0 128.0 141.0 C129.0 141.0 130.0 140.0 130.0 140.0 C130.0 139.0 125.0 124.0 132.0 115.0 L133.0 115.0 C122.0 124.0 125.0 137.0 125.0 138.0 C125.0 139.0 126.0 140.0 127.0 141.0 C127.0 141.0 128.0 141.0 128.0 141.0 C129.0 141.0 130.0 140.0 130.0 140.0 C130.0 139.0 125.0 124.0 132.0 115.0 L133.0 115.0 C122.0 124.0 125.0 137.0 125.0 138.0 C125.0 139.0 126.0 140.0 127.0 141.0 C127.0 141.0 128.0 141.0 128.0 141.0 C129.0 141.0 130.0 140.0 130.0 140.0 C130.0 139.0 125.0 124.0 132.0 115.0 L133.0 115.0 C122.0 124.0 125.0 137.0 125.0 138.0 C125.0 139.0 126.0 140.0 127.0 141.0 C127.0 141.0 128.0 141.0 128.0 141.0 C129.0 141.0 130.0 140.0 130.0 140.0 C130.0 139.0 125.0 124.0 132.0 115.0 L133.0 115.0 C122.0 124.0 125.0 137.0 125.0 138.0 C125.0 139.0 126.0 140.0 127.0 141.0 C127.0 141.0 128.0 141.0 128.0 141.0 C129.0 141.0 130.0 140.0 130.0 140.0"></path></svg>