<svg xmlns="http://www.w3.org/2000/svg" viewBox="0.0 0.0 200.0 200.0" height="200px" width="200px"><path fill="#77ddee" fill-opacity="1.0"  filling="0" d="M112.0 155.0 L43.0 155.0 L43.0 126.0 C43.0 115.0 51.0 107.0 62.0 107.0 L93.0 107.0 C103.0 107.0 112.0 115.0 112.0 126.0 L112.0 155.0 L112.0 155.0 Z"></path>
<path fill="#bbeeff" fill-opacity="1.0"  filling="0" d="M68.0 107.0 L62.0 107.0 C51.0 107.0 43.0 115.0 43.0 126.0 L43.0 155.0 L49.0 155.0 L49.0 126.0 C49.0 115.0 57.0 107.0 68.0 107.0 L68.0 107.0 Z"></path>
<path fill="#44ccdd" fill-opacity="1.0"  filling="0" d="M87.0 107.0 L93.0 107.0 C103.0 107.0 112.0 115.0 112.0 126.0 L112.0 155.0 L106.0 155.0 L106.0 126.0 C106.0 115.0 97.0 107.0 87.0 107.0 L87.0 107.0 Z"></path>
<path fill="#cceeff" fill-opacity="1.0"  filling="0" d="M70.0 107.0 L70.0 97.0 L85.0 97.0 L85.0 107.0 C81.0 112.0 73.0 112.0 70.0 107.0 L70.0 107.0 Z"></path>
<path fill="#cceeff" fill-opacity="1.0"  filling="0" d="M81.0 102.0 L74.0 102.0 C63.0 102.0 54.0 93.0 54.0 83.0 L54.0 75.0 C54.0 65.0 63.0 56.0 73.0 56.0 L81.0 56.0 C92.0 56.0 100.0 65.0 100.0 75.0 L100.0 83.0 C100.0 93.0 92.0 102.0 81.0 102.0 L81.0 102.0 Z"></path>
<path fill="#bbeeee" fill-opacity="1.0"  filling="0" d="M100.0 75.0 C100.0 65.0 92.0 56.0 81.0 56.0 L76.0 56.0 C86.0 56.0 94.0 65.0 94.0 75.0 L94.0 83.0 C95.0 93.0 86.0 102.0 75.0 102.0 L73.0 102.0 C73.0 102.0 73.0 102.0 74.0 102.0 L81.0 102.0 C92.0 102.0 100.0 93.0 100.0 83.0 L100.0 75.0 L100.0 75.0 Z"></path>
<path fill="#115566" fill-opacity="1.0"  filling="0" d="M65.0 78.0 A3.0 3.0 0.0 1 0 71.0 78.0 A3.0 3.0 0.0 1 0 65.0 78.0 L65.0 78.0 Z"></path>
<path fill="#115566" fill-opacity="1.0"  filling="0" d="M84.0 78.0 A3.0 3.0 0.0 1 0 90.0 78.0 A3.0 3.0 0.0 1 0 84.0 78.0 L84.0 78.0 Z"></path>
<path fill="#115566" fill-opacity="1.0"  filling="0" d="M77.0 93.0 C75.0 93.0 73.0 92.0 72.0 91.0 C72.0 90.0 72.0 90.0 72.0 89.0 C72.0 89.0 73.0 89.0 73.0 89.0 C74.0 90.0 76.0 91.0 77.0 91.0 L77.0 91.0 C79.0 91.0 80.0 90.0 81.0 89.0 C82.0 89.0 82.0 89.0 83.0 89.0 C83.0 90.0 83.0 90.0 83.0 91.0 C81.0 92.0 79.0 93.0 77.0 93.0 L77.0 93.0 Z"></path>
<path fill="#ffffff" fill-opacity="1.0"  filling="0" d="M60.0 83.0 L60.0 75.0 C60.0 65.0 69.0 56.0 79.0 56.0 L81.0 56.0 C81.0 56.0 81.0 56.0 81.0 56.0 L73.0 56.0 C63.0 56.0 54.0 65.0 54.0 75.0 L54.0 83.0 C54.0 94.0 63.0 102.0 74.0 102.0 L79.0 102.0 C69.0 102.0 60.0 93.0 60.0 83.0 L60.0 83.0 Z"></path>
<path fill="#115566" fill-opacity="1.0"  filling="0" d="M102.0 72.0 L102.0 65.0 C102.0 58.0 97.0 53.0 91.0 53.0 L91.0 61.0 C91.0 67.0 96.0 72.0 102.0 72.0 L102.0 72.0 Z"></path>
<path fill="#115566" fill-opacity="1.0"  filling="0" d="M93.0 58.0 C89.0 53.0 82.0 49.0 75.0 49.0 C64.0 49.0 54.0 58.0 53.0 70.0 L52.0 72.0 L62.0 72.0 C70.0 72.0 79.0 69.0 86.0 63.0 L93.0 58.0 L93.0 58.0 Z"></path>
<path fill="#006688" fill-opacity="1.0"  filling="0" d="M78.0 49.0 C77.0 49.0 76.0 49.0 75.0 49.0 C64.0 49.0 54.0 58.0 53.0 70.0 L52.0 72.0 L58.0 72.0 L58.0 70.0 C60.0 59.0 68.0 51.0 78.0 49.0 L78.0 49.0 Z"></path>
<path fill="#11aabb" fill-opacity="1.0"  filling="0" d="M62.0 107.0 L58.0 116.0 L64.0 116.0 L62.0 122.0 L73.0 136.0 L66.0 107.0 L62.0 107.0 L62.0 107.0 Z M93.0 107.0 L96.0 116.0 L91.0 116.0 L93.0 122.0 L81.0 136.0 L89.0 107.0 L93.0 107.0 L93.0 107.0 Z"></path>
<path fill="#44ccdd" fill-opacity="1.0"  filling="0" d="M73.0 155.0 L73.0 136.0 L66.0 107.0 L70.0 107.0 C73.0 112.0 81.0 112.0 85.0 107.0 L89.0 107.0 L81.0 136.0 L81.0 155.0 L73.0 155.0 L73.0 155.0 Z"></path>
<path fill="#115566" fill-opacity="1.0"  filling="0" d="M68.0 87.0 C63.0 87.0 59.0 83.0 59.0 78.0 C59.0 74.0 63.0 70.0 68.0 70.0 C73.0 70.0 76.0 74.0 76.0 78.0 C76.0 83.0 73.0 87.0 68.0 87.0 L68.0 87.0 Z M68.0 72.0 C64.0 72.0 61.0 75.0 61.0 78.0 C61.0 82.0 64.0 85.0 68.0 85.0 C71.0 85.0 74.0 82.0 74.0 78.0 C74.0 75.0 71.0 72.0 68.0 72.0 L68.0 72.0 Z M87.0 87.0 C82.0 87.0 78.0 83.0 78.0 78.0 C78.0 74.0 82.0 70.0 87.0 70.0 C92.0 70.0 95.0 74.0 95.0 78.0 C95.0 83.0 92.0 87.0 87.0 87.0 L87.0 87.0 Z M87.0 72.0 C83.0 72.0 80.0 75.0 80.0 78.0 C80.0 82.0 83.0 85.0 87.0 85.0 C90.0 85.0 93.0 82.0 93.0 78.0 C94.0 75.0 91.0 72.0 87.0 72.0 L87.0 72.0 Z"></path>
<path fill="#115566" fill-opacity="1.0"  filling="0" d="M77.0 117.0 C63.0 117.0 52.0 106.0 52.0 91.0 L52.0 82.0 C52.0 81.0 52.0 81.0 52.0 81.0 C53.0 81.0 53.0 81.0 53.0 82.0 L53.0 91.0 C53.0 105.0 64.0 115.0 77.0 115.0 C91.0 115.0 101.0 105.0 101.0 91.0 L101.0 82.0 C101.0 81.0 102.0 81.0 102.0 81.0 C103.0 81.0 103.0 81.0 103.0 82.0 L103.0 91.0 C103.0 106.0 92.0 117.0 77.0 117.0 L77.0 117.0 Z"></path>
<path fill="#11aabb" fill-opacity="1.0"  filling="0" d="M101.0 88.0 L103.0 88.0 C104.0 88.0 105.0 87.0 105.0 86.0 L105.0 80.0 C105.0 79.0 104.0 78.0 103.0 78.0 L101.0 78.0 C100.0 78.0 99.0 79.0 99.0 80.0 L99.0 86.0 C99.0 87.0 100.0 88.0 101.0 88.0 L101.0 88.0 Z M52.0 88.0 L53.0 88.0 C54.0 88.0 55.0 87.0 55.0 86.0 L55.0 80.0 C55.0 79.0 54.0 78.0 53.0 78.0 L52.0 78.0 C50.0 78.0 50.0 79.0 50.0 80.0 L50.0 86.0 C50.0 87.0 50.0 88.0 52.0 88.0 L52.0 88.0 Z"></path>
<path fill="#115566" fill-opacity="1.0"  filling="0" d="M123.0 145.0 L104.0 145.0 C89.0 145.0 76.0 132.0 76.0 116.0 C76.0 116.0 76.0 115.0 77.0 115.0 C77.0 115.0 78.0 116.0 78.0 116.0 C78.0 131.0 90.0 143.0 104.0 143.0 L123.0 143.0 C124.0 143.0 124.0 144.0 124.0 144.0 C124.0 145.0 124.0 145.0 123.0 145.0 L123.0 145.0 Z"></path>
<path fill="#115566" fill-opacity="1.0"  filling="0" d="M123.0 144.0 A8.0 8.0 90.0 1 0 139.0 144.0 A8.0 8.0 90.0 1 0 123.0 144.0 L123.0 144.0 Z"></path>
<path fill="#44ccdd" fill-opacity="1.0"  filling="0" d="M127.0 144.0 A4.0 4.0 0.0 1 0 135.0 144.0 A4.0 4.0 0.0 1 0 127.0 144.0 L127.0 144.0 Z"></path>
<path fill="#44ccdd" fill-opacity="1.0"  filling="0" d="M112.0 81.0 A23.0 23.0 90.0 1 0 158.0 81.0 A23.0 23.0 90.0 1 0 112.0 81.0 L112.0 81.0 Z"></path>
<path fill="#ffffff" fill-opacity="1.0"  filling="0" d="M139.0 81.0 L145.0 74.0 C147.0 73.0 147.0 71.0 145.0 70.0 C144.0 69.0 142.0 69.0 141.0 70.0 L135.0 77.0 L128.0 70.0 C127.0 69.0 125.0 69.0 124.0 70.0 C123.0 71.0 123.0 73.0 124.0 74.0 L131.0 81.0 L124.0 87.0 C123.0 89.0 123.0 90.0 124.0 92.0 C125.0 93.0 127.0 93.0 128.0 92.0 L135.0 85.0 L141.0 92.0 C142.0 93.0 144.0 93.0 145.0 92.0 C147.0 90.0 147.0 89.0 145.0 87.0 L139.0 81.0 L139.0 81.0 Z"></path></svg>