<svg xmlns="http://www.w3.org/2000/svg" viewBox="0.0 0.0 200.0 200.0" height="200px" width="200px"><path fill="currentColor" fill-opacity="1.0"  filling="0" d="M64.0 50.0 C64.0 50.0 86.0 44.0 93.0 57.0 C100.0 69.0 92.0 75.0 90.0 84.0 C88.0 92.0 86.0 116.0 106.0 122.0 C127.0 129.0 139.0 122.0 144.0 132.0 C150.0 145.0 187.0 132.0 185.0 111.0 C183.0 90.0 186.0 39.0 173.0 25.0 C159.0 10.0 128.0 0.0 103.0 0.0 C83.0 2.0 53.0 12.0 49.0 34.0 C45.0 55.0 37.0 62.0 28.0 67.0 C19.0 72.0 18.0 92.0 15.0 100.0 C11.0 114.0 15.0 132.0 28.0 135.0 C40.0 138.0 55.0 162.0 55.0 171.0 C56.0 180.0 53.0 195.0 73.0 199.0 C92.0 199.0 111.0 193.0 113.0 181.0 C115.0 169.0 110.0 152.0 110.0 152.0 C110.0 152.0 80.0 163.0 64.0 154.0 C64.0 154.0 55.0 151.0 58.0 134.0 C58.0 134.0 50.0 130.0 58.0 126.0 C58.0 126.0 51.0 120.0 56.0 117.0 C56.0 117.0 58.0 114.0 54.0 112.0 C49.0 110.0 38.0 112.0 43.0 104.0 C46.0 100.0 57.0 90.0 60.0 81.0 C63.0 72.0 65.0 61.0 64.0 50.0 L64.0 50.0 Z"></path></svg>