<svg xmlns="http://www.w3.org/2000/svg" viewBox="0.0 0.0 200.0 200.0" height="200px" width="200px"><path fill="currentColor" fill-opacity="1.0"  filling="0" d="M125.0 33.0 A17.0 17.0 0.0 1 1 142.0 50.0 A17.0 17.0 0.0 0 1 125.0 33.0 L125.0 33.0 Z M172.0 90.0 L156.0 86.0 A8.0 8.0 0.0 0 1 151.0 83.0 L132.0 62.0 A33.0 33.0 0.0 0 0 107.0 50.0 L81.0 50.0 A17.0 17.0 0.0 0 0 68.0 57.0 L54.0 76.0 A4.0 4.0 0.0 0 0 55.0 82.0 L62.0 87.0 A4.0 4.0 0.0 0 0 68.0 86.0 L80.0 69.0 A6.0 6.0 0.0 0 1 85.0 67.0 L98.0 67.0 L77.0 93.0 L76.0 95.0 A8.0 8.0 0.0 0 0 78.0 107.0 L114.0 131.0 A6.0 6.0 0.0 0 1 117.0 136.0 L117.0 179.0 A4.0 4.0 0.0 0 0 121.0 183.0 L129.0 183.0 A4.0 4.0 0.0 0 0 133.0 179.0 L133.0 133.0 A17.0 17.0 0.0 0 0 126.0 119.0 L108.0 107.0 L128.0 82.0 L138.0 94.0 A25.0 25.0 0.0 0 0 152.0 103.0 L170.0 106.0 A4.0 4.0 0.0 0 0 175.0 102.0 L175.0 94.0 A4.0 4.0 0.0 0 0 172.0 90.0 L172.0 90.0 Z M70.0 131.0 A6.0 6.0 0.0 0 1 65.0 133.0 L38.0 133.0 A4.0 4.0 0.0 0 0 33.0 138.0 L33.0 146.0 A4.0 4.0 0.0 0 0 38.0 150.0 L68.0 150.0 A17.0 17.0 0.0 0 0 81.0 143.0 L90.0 132.0 L76.0 123.0 L70.0 131.0 L70.0 131.0 Z"></path></svg>