<svg xmlns="http://www.w3.org/2000/svg" viewBox="0.0 0.0 200.0 200.0" height="200px" width="200px"><path fill="#00dddd" fill-opacity="1.0"  filling="0" d="M112.0 143.0 L100.0 143.0 L88.0 143.0 C66.0 143.0 49.0 161.0 49.0 182.0 L49.0 199.0 L100.0 199.0 L151.0 199.0 L151.0 182.0 C151.0 161.0 134.0 143.0 112.0 143.0 L112.0 143.0 Z"></path>
<path fill="#00aaaa" fill-opacity="1.0"  filling="0" d="M100.0 143.0 L88.0 143.0 C66.0 143.0 49.0 161.0 49.0 182.0 L49.0 199.0 L100.0 199.0 L100.0 143.0 L100.0 143.0 Z"></path>
<path fill="#ffcc77" fill-opacity="1.0"  filling="0" d="M117.0 143.0 C117.0 152.0 109.0 160.0 100.0 160.0 L100.0 160.0 C91.0 160.0 83.0 152.0 83.0 143.0 L83.0 126.0 C83.0 116.0 91.0 109.0 100.0 109.0 L100.0 109.0 C109.0 109.0 117.0 116.0 117.0 126.0 L117.0 143.0 L117.0 143.0 Z"></path>
<path fill="#ffcc77" fill-opacity="1.0"  filling="0" d="M157.0 83.0 A57.0 60.0 0.0 1 1 43.0 83.0 A57.0 60.0 0.0 1 1 157.0 83.0 L157.0 83.0 Z"></path>
<path fill="#ee6677" fill-opacity="1.0"  filling="0" d="M100.0 123.0 C90.0 123.0 81.0 118.0 76.0 109.0 C76.0 109.0 76.0 108.0 76.0 107.0 C77.0 107.0 78.0 107.0 78.0 108.0 C83.0 116.0 91.0 120.0 100.0 120.0 C109.0 120.0 117.0 116.0 122.0 108.0 C122.0 107.0 123.0 107.0 124.0 107.0 C124.0 108.0 124.0 109.0 124.0 109.0 C119.0 118.0 110.0 123.0 100.0 123.0 L100.0 123.0 Z"></path>
<path fill="#ffaa44" fill-opacity="1.0"  filling="0" d="M89.0 97.0 A9.0 6.0 0.0 1 1 71.0 97.0 A9.0 6.0 0.0 1 1 89.0 97.0 L89.0 97.0 Z"></path>
<path fill="#554422" fill-opacity="1.0"  filling="0" d="M84.0 84.0 A4.0 4.0 0.0 1 1 76.0 84.0 A4.0 4.0 0.0 1 1 84.0 84.0 L84.0 84.0 Z"></path>
<path fill="#ffaa44" fill-opacity="1.0"  filling="0" d="M129.0 97.0 A9.0 6.0 0.0 1 1 111.0 97.0 A9.0 6.0 0.0 1 1 129.0 97.0 L129.0 97.0 Z"></path>
<path fill="#554422" fill-opacity="1.0"  filling="0" d="M124.0 84.0 A4.0 4.0 0.0 1 1 116.0 84.0 A4.0 4.0 0.0 1 1 124.0 84.0 L124.0 84.0 Z"></path>
<path fill="#ffaa44" fill-opacity="1.0"  filling="0" d="M100.0 136.0 C87.0 136.0 75.0 134.0 63.0 129.0 C73.0 138.0 86.0 143.0 100.0 143.0 C114.0 143.0 127.0 138.0 137.0 129.0 C125.0 134.0 113.0 136.0 100.0 136.0 L100.0 136.0 Z"></path>
<path fill="#ffcc77" fill-opacity="1.0"  filling="0" d="M54.0 91.0 A11.0 11.0 0.0 1 1 31.0 91.0 A11.0 11.0 0.0 1 1 54.0 91.0 L54.0 91.0 Z"></path>
<path fill="#ffcc77" fill-opacity="1.0"  filling="0" d="M169.0 91.0 A11.0 11.0 0.0 1 1 146.0 91.0 A11.0 11.0 0.0 1 1 169.0 91.0 L169.0 91.0 Z"></path>
<path fill="#ffddaa" fill-opacity="1.0"  filling="0" d="M100.0 23.0 C71.0 23.0 47.0 46.0 47.0 75.0 L47.0 92.0 C47.0 92.0 47.0 92.0 47.0 92.0 C47.0 92.0 47.0 93.0 47.0 93.0 C47.0 103.0 53.0 113.0 62.0 120.0 C62.0 120.0 62.0 120.0 62.0 120.0 C70.0 130.0 84.0 136.0 100.0 136.0 C131.0 136.0 156.0 114.0 156.0 83.0 L156.0 75.0 C156.0 46.0 131.0 23.0 100.0 23.0 L100.0 23.0 Z"></path>
<path fill="#ffcc77" fill-opacity="1.0"  filling="0" d="M100.0 23.0 C71.0 23.0 47.0 46.0 47.0 75.0 L47.0 92.0 C47.0 92.0 47.0 92.0 47.0 92.0 C47.0 92.0 47.0 93.0 47.0 93.0 C47.0 103.0 53.0 113.0 62.0 120.0 C62.0 120.0 62.0 120.0 62.0 120.0 C70.0 130.0 84.0 136.0 100.0 136.0 L100.0 23.0 L100.0 23.0 Z"></path>
<path fill="#ffcc77" fill-opacity="1.0"  filling="0" d="M54.0 91.0 A11.0 11.0 0.0 1 1 31.0 91.0 A11.0 11.0 0.0 1 1 54.0 91.0 L54.0 91.0 Z"></path>
<path fill="#ffcc77" fill-opacity="1.0"  filling="0" d="M169.0 91.0 A11.0 11.0 0.0 1 1 146.0 91.0 A11.0 11.0 0.0 1 1 169.0 91.0 L169.0 91.0 Z"></path>
<path fill="#333344" fill-opacity="1.0"  filling="0" d="M100.0 23.0 C71.0 23.0 47.0 46.0 47.0 75.0 C47.0 75.0 47.0 76.0 47.0 76.0 C47.0 76.0 47.0 76.0 47.0 76.0 L49.0 76.0 C49.0 76.0 49.0 76.0 49.0 76.0 C49.0 76.0 49.0 75.0 49.0 75.0 C49.0 75.0 49.0 74.0 49.0 74.0 C49.0 74.0 49.0 74.0 49.0 74.0 C49.0 73.0 49.0 73.0 49.0 73.0 C49.0 73.0 49.0 73.0 49.0 73.0 C49.0 72.0 49.0 72.0 49.0 71.0 C49.0 71.0 49.0 71.0 49.0 71.0 C49.0 71.0 49.0 70.0 49.0 70.0 C49.0 70.0 49.0 70.0 49.0 70.0 C49.0 70.0 49.0 69.0 49.0 69.0 C49.0 69.0 49.0 69.0 49.0 69.0 C50.0 68.0 50.0 68.0 50.0 68.0 C50.0 68.0 50.0 68.0 50.0 68.0 C50.0 67.0 50.0 67.0 50.0 66.0 C50.0 66.0 50.0 66.0 50.0 66.0 C50.0 66.0 50.0 65.0 50.0 65.0 C50.0 65.0 50.0 65.0 51.0 65.0 C51.0 64.0 51.0 64.0 51.0 64.0 C51.0 64.0 51.0 64.0 51.0 63.0 C51.0 63.0 51.0 63.0 51.0 62.0 C51.0 62.0 51.0 62.0 51.0 62.0 C51.0 62.0 51.0 61.0 51.0 61.0 C51.0 61.0 51.0 61.0 51.0 61.0 C51.0 60.0 51.0 60.0 52.0 60.0 C52.0 60.0 52.0 60.0 52.0 60.0 C52.0 59.0 52.0 59.0 52.0 59.0 C52.0 59.0 52.0 59.0 52.0 58.0 C52.0 58.0 52.0 58.0 52.0 58.0 C52.0 58.0 52.0 58.0 52.0 57.0 C52.0 57.0 52.0 57.0 52.0 57.0 C53.0 57.0 53.0 57.0 53.0 56.0 C53.0 56.0 53.0 56.0 53.0 56.0 C53.0 56.0 53.0 56.0 53.0 55.0 C53.0 55.0 53.0 55.0 53.0 55.0 C53.0 55.0 53.0 55.0 53.0 54.0 C53.0 54.0 53.0 54.0 53.0 54.0 C53.0 54.0 53.0 54.0 53.0 53.0 C54.0 53.0 54.0 53.0 54.0 53.0 C54.0 53.0 54.0 53.0 54.0 52.0 C54.0 52.0 54.0 52.0 54.0 52.0 C54.0 52.0 54.0 52.0 54.0 51.0 C54.0 51.0 54.0 51.0 54.0 51.0 C54.0 51.0 54.0 51.0 54.0 50.0 C54.0 50.0 54.0 50.0 54.0 50.0 C55.0 50.0 55.0 50.0 55.0 49.0 C55.0 49.0 55.0 49.0 55.0 49.0 C55.0 49.0 55.0 49.0 55.0 48.0 C55.0 48.0 55.0 48.0 55.0 48.0 C55.0 48.0 56.0 48.0 56.0 47.0 C56.0 47.0 56.0 47.0 56.0 47.0 C56.0 47.0 56.0 47.0 56.0 46.0 C56.0 46.0 56.0 46.0 56.0 46.0 C56.0 46.0 57.0 46.0 57.0 45.0 C57.0 45.0 57.0 45.0 57.0 45.0 C57.0 45.0 57.0 45.0 57.0 44.0 C57.0 44.0 57.0 44.0 57.0 44.0 C58.0 44.0 58.0 44.0 58.0 44.0 C58.0 44.0 58.0 43.0 58.0 43.0 C58.0 43.0 58.0 43.0 59.0 43.0 C59.0 43.0 59.0 43.0 59.0 43.0 C59.0 42.0 59.0 42.0 59.0 42.0 C60.0 42.0 60.0 42.0 60.0 42.0 C60.0 42.0 60.0 42.0 60.0 41.0 C60.0 41.0 60.0 41.0 61.0 41.0 C61.0 41.0 61.0 41.0 61.0 41.0 C61.0 40.0 61.0 40.0 61.0 40.0 C62.0 40.0 62.0 40.0 62.0 40.0 C62.0 40.0 62.0 40.0 62.0 39.0 C62.0 39.0 63.0 39.0 63.0 39.0 C63.0 39.0 63.0 39.0 63.0 38.0 C63.0 38.0 64.0 38.0 64.0 38.0 C64.0 38.0 64.0 38.0 64.0 38.0 C64.0 37.0 64.0 37.0 65.0 37.0 C65.0 37.0 65.0 37.0 65.0 37.0 C65.0 36.0 65.0 36.0 66.0 36.0 C66.0 36.0 66.0 36.0 66.0 36.0 C66.0 36.0 67.0 35.0 67.0 35.0 C67.0 35.0 67.0 35.0 67.0 35.0 C68.0 35.0 68.0 35.0 68.0 34.0 C68.0 34.0 68.0 34.0 69.0 34.0 C69.0 34.0 69.0 34.0 69.0 34.0 C69.0 34.0 70.0 34.0 70.0 34.0 C70.0 34.0 70.0 33.0 70.0 33.0 C70.0 33.0 71.0 33.0 71.0 33.0 C71.0 33.0 71.0 33.0 71.0 33.0 C72.0 33.0 72.0 33.0 72.0 33.0 C72.0 33.0 72.0 32.0 73.0 32.0 C73.0 32.0 73.0 32.0 73.0 32.0 C73.0 32.0 74.0 32.0 74.0 32.0 C74.0 32.0 74.0 32.0 74.0 32.0 C75.0 32.0 75.0 32.0 75.0 31.0 C75.0 31.0 76.0 31.0 76.0 31.0 C76.0 31.0 76.0 31.0 77.0 31.0 C77.0 31.0 77.0 31.0 77.0 31.0 C77.0 31.0 78.0 31.0 78.0 31.0 C78.0 31.0 78.0 30.0 79.0 30.0 C79.0 30.0 79.0 30.0 79.0 30.0 C79.0 30.0 80.0 30.0 80.0 30.0 C80.0 30.0 80.0 30.0 80.0 30.0 C81.0 30.0 81.0 30.0 81.0 30.0 C81.0 30.0 81.0 30.0 82.0 30.0 C82.0 30.0 82.0 30.0 82.0 29.0 C83.0 29.0 83.0 29.0 83.0 29.0 C83.0 29.0 84.0 29.0 84.0 29.0 C84.0 29.0 84.0 29.0 84.0 29.0 C85.0 29.0 85.0 29.0 85.0 29.0 C85.0 29.0 86.0 29.0 86.0 29.0 C86.0 29.0 86.0 29.0 87.0 29.0 C87.0 29.0 87.0 29.0 87.0 29.0 C87.0 29.0 88.0 29.0 88.0 29.0 C88.0 29.0 88.0 29.0 88.0 29.0 C89.0 28.0 89.0 28.0 89.0 28.0 C89.0 28.0 90.0 28.0 90.0 28.0 C90.0 28.0 90.0 28.0 91.0 28.0 C91.0 28.0 91.0 28.0 91.0 28.0 C92.0 28.0 92.0 28.0 92.0 28.0 C92.0 28.0 93.0 28.0 93.0 28.0 C93.0 28.0 94.0 28.0 94.0 28.0 C94.0 28.0 94.0 28.0 95.0 28.0 C95.0 28.0 95.0 28.0 95.0 28.0 C96.0 28.0 96.0 28.0 96.0 27.0 C96.0 27.0 97.0 27.0 97.0 27.0 C97.0 27.0 97.0 27.0 98.0 27.0 C98.0 27.0 98.0 27.0 99.0 27.0 C99.0 27.0 99.0 27.0 100.0 27.0 C101.0 27.0 101.0 27.0 101.0 27.0 C102.0 27.0 102.0 27.0 102.0 27.0 C103.0 27.0 103.0 27.0 103.0 27.0 C103.0 27.0 104.0 27.0 104.0 27.0 C104.0 28.0 104.0 28.0 105.0 28.0 C105.0 28.0 105.0 28.0 105.0 28.0 C106.0 28.0 106.0 28.0 106.0 28.0 C106.0 28.0 107.0 28.0 107.0 28.0 C107.0 28.0 108.0 28.0 108.0 28.0 C108.0 28.0 108.0 28.0 109.0 28.0 C109.0 28.0 109.0 28.0 109.0 28.0 C110.0 28.0 110.0 28.0 110.0 28.0 C110.0 28.0 111.0 28.0 111.0 28.0 C111.0 28.0 111.0 28.0 112.0 29.0 C112.0 29.0 112.0 29.0 112.0 29.0 C112.0 29.0 113.0 29.0 113.0 29.0 C113.0 29.0 113.0 29.0 113.0 29.0 C114.0 29.0 114.0 29.0 114.0 29.0 C114.0 29.0 115.0 29.0 115.0 29.0 C115.0 29.0 115.0 29.0 116.0 29.0 C116.0 29.0 116.0 29.0 116.0 29.0 C116.0 29.0 117.0 29.0 117.0 29.0 C117.0 29.0 117.0 29.0 118.0 29.0 C118.0 29.0 118.0 29.0 118.0 29.0 C119.0 30.0 119.0 30.0 119.0 30.0 C119.0 30.0 119.0 30.0 120.0 30.0 C120.0 30.0 120.0 30.0 120.0 30.0 C120.0 30.0 121.0 30.0 121.0 30.0 C121.0 30.0 121.0 30.0 121.0 30.0 C122.0 30.0 122.0 31.0 122.0 31.0 C122.0 31.0 123.0 31.0 123.0 31.0 C123.0 31.0 123.0 31.0 123.0 31.0 C124.0 31.0 124.0 31.0 124.0 31.0 C124.0 31.0 125.0 31.0 125.0 31.0 C125.0 32.0 125.0 32.0 125.0 32.0 C126.0 32.0 126.0 32.0 126.0 32.0 C126.0 32.0 127.0 32.0 127.0 32.0 C127.0 32.0 127.0 32.0 127.0 32.0 C128.0 32.0 128.0 33.0 128.0 33.0 C128.0 33.0 128.0 33.0 129.0 33.0 C129.0 33.0 129.0 33.0 129.0 33.0 C129.0 33.0 130.0 33.0 130.0 33.0 C130.0 33.0 130.0 34.0 130.0 34.0 C130.0 34.0 131.0 34.0 131.0 34.0 C131.0 34.0 131.0 34.0 131.0 34.0 C132.0 34.0 132.0 34.0 132.0 34.0 C132.0 35.0 132.0 35.0 133.0 35.0 C133.0 35.0 133.0 35.0 133.0 35.0 C133.0 35.0 134.0 36.0 134.0 36.0 C134.0 36.0 134.0 36.0 134.0 36.0 C135.0 36.0 135.0 36.0 135.0 37.0 C135.0 37.0 135.0 37.0 135.0 37.0 C136.0 37.0 136.0 37.0 136.0 38.0 C136.0 38.0 136.0 38.0 136.0 38.0 C136.0 38.0 137.0 38.0 137.0 38.0 C137.0 39.0 137.0 39.0 137.0 39.0 C137.0 39.0 138.0 39.0 138.0 39.0 C138.0 40.0 138.0 40.0 138.0 40.0 C138.0 40.0 138.0 40.0 139.0 40.0 C139.0 40.0 139.0 40.0 139.0 41.0 C139.0 41.0 139.0 41.0 139.0 41.0 C140.0 42.0 140.0 42.0 140.0 42.0 C140.0 42.0 140.0 42.0 141.0 42.0 C141.0 42.0 141.0 42.0 141.0 43.0 C141.0 43.0 141.0 43.0 141.0 43.0 C142.0 43.0 142.0 43.0 142.0 43.0 C142.0 43.0 142.0 44.0 142.0 44.0 C142.0 44.0 142.0 44.0 143.0 44.0 C143.0 44.0 143.0 44.0 143.0 44.0 C143.0 45.0 143.0 45.0 143.0 45.0 C143.0 45.0 143.0 45.0 143.0 45.0 C144.0 46.0 144.0 46.0 144.0 46.0 C144.0 46.0 144.0 46.0 144.0 46.0 C144.0 47.0 144.0 47.0 144.0 47.0 C144.0 47.0 145.0 47.0 145.0 47.0 C145.0 48.0 145.0 48.0 145.0 48.0 C145.0 48.0 145.0 48.0 145.0 48.0 C145.0 49.0 145.0 49.0 145.0 49.0 C145.0 49.0 145.0 49.0 145.0 49.0 C146.0 50.0 146.0 50.0 146.0 50.0 C146.0 50.0 146.0 50.0 146.0 50.0 C146.0 51.0 146.0 51.0 146.0 51.0 C146.0 51.0 146.0 51.0 146.0 51.0 C146.0 52.0 146.0 52.0 146.0 52.0 C146.0 52.0 146.0 52.0 146.0 52.0 C146.0 53.0 146.0 53.0 146.0 53.0 C146.0 53.0 147.0 53.0 147.0 53.0 C147.0 54.0 147.0 54.0 147.0 54.0 C147.0 54.0 147.0 54.0 147.0 54.0 C147.0 55.0 147.0 55.0 147.0 55.0 C147.0 55.0 147.0 55.0 147.0 55.0 C147.0 56.0 147.0 56.0 147.0 56.0 C147.0 56.0 147.0 56.0 147.0 56.0 C147.0 57.0 147.0 57.0 148.0 57.0 C148.0 57.0 148.0 57.0 148.0 57.0 C148.0 58.0 148.0 58.0 148.0 58.0 C148.0 58.0 148.0 58.0 148.0 58.0 C148.0 59.0 148.0 59.0 148.0 59.0 C148.0 59.0 148.0 59.0 148.0 60.0 C149.0 60.0 149.0 60.0 149.0 61.0 C149.0 61.0 149.0 61.0 149.0 61.0 C149.0 61.0 149.0 62.0 149.0 62.0 C149.0 62.0 149.0 62.0 149.0 62.0 C149.0 63.0 149.0 63.0 149.0 63.0 C150.0 64.0 150.0 64.0 150.0 65.0 C150.0 65.0 150.0 65.0 150.0 66.0 C150.0 66.0 150.0 66.0 150.0 66.0 C150.0 67.0 150.0 67.0 150.0 68.0 C150.0 68.0 150.0 68.0 150.0 68.0 C150.0 68.0 151.0 68.0 151.0 69.0 C151.0 69.0 151.0 69.0 151.0 69.0 C151.0 69.0 151.0 70.0 151.0 70.0 C151.0 70.0 151.0 70.0 151.0 70.0 C151.0 70.0 151.0 71.0 151.0 71.0 C151.0 71.0 151.0 71.0 151.0 71.0 C151.0 72.0 151.0 72.0 151.0 73.0 C151.0 73.0 151.0 73.0 151.0 73.0 C151.0 73.0 151.0 73.0 151.0 74.0 C151.0 74.0 151.0 74.0 151.0 74.0 C151.0 74.0 151.0 75.0 151.0 75.0 C151.0 75.0 151.0 76.0 151.0 76.0 C151.0 76.0 151.0 76.0 151.0 76.0 C151.0 76.0 151.0 76.0 151.0 76.0 L153.0 76.0 C153.0 76.0 153.0 76.0 153.0 76.0 C153.0 76.0 153.0 75.0 153.0 75.0 C153.0 46.0 129.0 23.0 100.0 23.0 L100.0 23.0 Z"></path>
<path fill="#000000" fill-opacity="1.0"  filling="0" d="M54.0 91.0 A11.0 11.0 0.0 1 1 31.0 91.0"></path></svg>