<svg xmlns="http://www.w3.org/2000/svg" viewBox="0.0 0.0 200.0 200.0" height="200px" width="200px"><path fill="#ffcc77" fill-opacity="1.0"  filling="0" d="M0.0 30.0 L199.0 30.0 L199.0 170.0 L0.0 170.0 L0.0 30.0 L0.0 30.0 Z"></path>
<path fill="#000000" fill-opacity="1.0"  filling="0" d="M101.0 46.0 C100.0 46.0 100.0 47.0 100.0 47.0 C100.0 49.0 100.0 51.0 99.0 53.0 C98.0 56.0 97.0 58.0 96.0 60.0 C95.0 62.0 94.0 64.0 93.0 65.0 C92.0 67.0 91.0 68.0 91.0 69.0 C91.0 70.0 91.0 70.0 91.0 70.0 C91.0 70.0 91.0 70.0 91.0 70.0 C91.0 70.0 91.0 70.0 91.0 70.0 C91.0 70.0 91.0 70.0 91.0 70.0 C91.0 70.0 91.0 70.0 91.0 70.0 C91.0 70.0 91.0 70.0 91.0 70.0 C91.0 70.0 91.0 70.0 91.0 70.0 C91.0 70.0 91.0 70.0 91.0 70.0 C91.0 70.0 91.0 70.0 91.0 70.0 C91.0 70.0 91.0 70.0 91.0 70.0 C91.0 70.0 91.0 70.0 91.0 70.0 C91.0 70.0 91.0 70.0 91.0 70.0 C91.0 70.0 91.0 70.0 91.0 70.0 C91.0 70.0 91.0 70.0 91.0 70.0 C91.0 70.0 91.0 70.0 91.0 70.0 C91.0 70.0 91.0 70.0 91.0 70.0 C91.0 70.0 91.0 70.0 91.0 70.0 C91.0 70.0 91.0 70.0 91.0 70.0 C91.0 70.0 91.0 70.0 91.0 70.0 C91.0 70.0 91.0 70.0 91.0 70.0 C91.0 70.0 91.0 70.0 91.0 70.0 C91.0 70.0 91.0 70.0 91.0 70.0 C91.0 70.0 91.0 70.0 91.0 70.0 C91.0 70.0 91.0 70.0 91.0 70.0 C91.0 70.0 91.0 70.0 91.0 70.0 C91.0 70.0 91.0 70.0 91.0 70.0 C91.0 70.0 91.0 70.0 91.0 70.0 C91.0 70.0 91.0 70.0 91.0 70.0 C91.0 70.0 91.0 70.0 91.0 70.0 C91.0 70.0 91.0 70.0 91.0 70.0 C91.0 70.0 91.0 70.0 91.0 70.0 C91.0 70.0 91.0 70.0 91.0 70.0 C91.0 70.0 91.0 70.0 91.0 70.0 C91.0 70.0 91.0 70.0 91.0 70.0 C91.0 70.0 91.0 70.0 91.0 70.0 C91.0 70.0 91.0 70.0 91.0 70.0 C91.0 70.0 91.0 70.0 91.0 70.0 C91.0 70.0 91.0 70.0 91.0 70.0 C91.0 70.0 91.0 70.0 91.0 70.0 C91.0 70.0 91.0 70.0 91.0 70.0 C91.0 70.0 91.0 70.0 91.0 70.0 C91.0 70.0 91.0 70.0 91.0 70.0 C91.0 70.0 91.0 70.0 91.0 70.0 C91.0 70.0 91.0 70.0 91.0 70.0 C91.0 70.0 91.0 70.0 91.0 70.0 C91.0 70.0 91.0 70.0 91.0 70.0 C91.0 70.0 91.0 70.0 91.0 70.0 C91.0 70.0 91.0 70.0 91.0 70.0 C91.0 70.0 91.0 70.0 91.0 70.0 C91.0 70.0 91.0 70.0 91.0 70.0 C91.0 70.0 91.0 70.0 91.0 70.0 C91.0 70.0 91.0 70.0 91.0 70.0 C91.0 70.0 91.0 70.0 91.0 70.0 C91.0 70.0 91.0 70.0 91.0 70.0 C91.0 70.0 91.0 70.0 91.0 70.0 C91.0 70.0 91.0 70.0 91.0 70.0 C91.0 70.0 91.0 70.0 91.0 70.0 C91.0 70.0 91.0 70.0 91.0 70.0 C91.0 70.0 91.0 70.0 91.0 70.0 C91.0 70.0 91.0 70.0 91.0 70.0 C91.0 70.0 91.0 70.0 91.0 70.0 C91.0 70.0 91.0 70.0 91.0 70.0 C91.0 70.0 91.0 70.0 91.0 70.0 C91.0 70.0 91.0 70.0 91.0 70.0 C91.0 70.0 91.0 70.0 91.0 70.0 C91.0 70.0 91.0 70.0 91.0 70.0 C91.0 70.0 91.0 70.0 91.0 70.0 C91.0 70.0 91.0 70.0 91.0 70.0 C91.0 70.0 91.0 70.0 91.0 70.0 C91.0 70.0 91.0 70.0 91.0 70.0 C91.0 70.0 91.0 70.0 91.0 70.0 C91.0 70.0 91.0 70.0 91.0 70.0 C91.0 70.0 91.0 70.0 91.0 70.0 C91.0 70.0 91.0 70.0 91.0 70.0 C91.0 70.0 91.0 70.0 91.0 70.0 C91.0 70.0 91.0 70.0 91.0 70.0 C91.0 70.0 91.0 70.0 91.0 70.0 C91.0 70.0 91.0 70.0 91.0 70.0 C91.0 70.0 91.0 70.0 91.0 70.0 C91.0 70.0 91.0 70.0 91.0 70.0 C91.0 70.0 91.0 70.0 91.0 70.0 C91.0 70.0 91.0 70.0 91.0 70.0 C91.0 70.0 91.0 70.0 91.0 70.0 C91.0 70.0 91.0 70.0 91.0 70.0 C91.0 70.0 91.0 70.0 91.0 70.0 C91.0 70.0 91.0 70.0 91.0 70.0 C91.0 70.0 91.0 70.0 91.0 70.0 C91.0 70.0 91.0 70.0 91.0 70.0 C91.0 70.0 91.0 70.0 91.0 70.0 C91.0 70.0 91.0 70.0 91.0 70.0 C91.0 70.0 91.0 70.0 91.0 70.0 C91.0 70.0 91.0 70.0 91.0 70.0 C91.0 70.0 91.0 70.0 91.0 70.0 C91.0 70.0 91.0 70.0 91.0 70.0 C91.0 70.0 91.0 70.0 91.0 70.0 C91.0 70.0 91.0 70.0 91.0 70.0 C91.0 70.0 91.0 70.0 91.0 70.0 C91.0 70.0 91.0 70.0 91.0 70.0 C91.0 70.0 91.0 70.0 91.0 70.0 C91.0 70.0 91.0 70.0 91.0 70.0 C91.0 70.0 91.0 70.0 91.0 70.0 C91.0 70.0 91.0 70.0 91.0 70.0 C91.0 70.0 91.0 70.0 91.0 70.0 C91.0 70.0 91.0 70.0 91.0 70.0 C91.0 70.0 91.0 70.0 91.0 70.0 C91.0 70.0 91.0 70.0 91.0 70.0 C91.0 70.0 91.0 70.0 91.0 70.0 C91.0 70.0 91.0 70.0 91.0 70.0 C91.0 70.0 91.0 70.0 91.0 70.0 C91.0 70.0 91.0 70.0 91.0 70.0 C91.0 70.0 91.0 70.0 91.0 70.0 C91.0 70.0 91.0 70.0 91.0 70.0 C91.0 70.0 91.0 70.0 91.0 70.0 C91.0 70.0 91.0 70.0 91.0 70.0 C91.0 70.0 91.0 70.0 91.0 70.0 C91.0 70.0 91.0 70.0 91.0 70.0 C91.0 70.0 91.0 70.0 91.0 70.0 C91.0 70.0 91.0 70.0 91.0 70.0 C91.0 70.0 91.0 70.0 91.0 70.0 C91.0 70.0 91.0 70.0 91.0 70.0 C91.0 70.0 91.0 70.0 91.0 70.0 C91.0 70.0 91.0 70.0 91.0 70.0 C91.0 70.0 91.0 70.0 91.0 70.0 C91.0 70.0 91.0 70.0 91.0 70.0 C91.0 70.0 91.0 70.0 91.0 70.0 C91.0 70.0 91.0 70.0 91.0 70.0 C91.0 70.0 91.0 70.0 91.0 70.0 C91.0 70.0 91.0 70.0 91.0 70.0 C91.0 70.0 91.0 70.0 91.0 70.0 C91.0 70.0 91.0 70.0 91.0 70.0 C91.0 70.0 91.0 70.0 91.0 70.0 C91.0 70.0 91.0 70.0 91.0 70.0 C91.0 70.0 91.0 70.0 91.0 70.0 C91.0 70.0 91.0 70.0 91.0 70.0 C91.0 70.0 91.0 70.0 91.0 70.0 C91.0 70.0 91.0 70.0 91.0 70.0 C91.0 70.0 91.0 70.0 91.0 70.0 C91.0 70.0 91.0 70.0 91.0 70.0 C91.0 70.0 91.0 70.0 91.0 70.0 C91.0 70.0 91.0 70.0 91.0 70.0 C91.0 70.0 91.0 70.0 91.0 70.0 C91.0 70.0 91.0 70.0 91.0 70.0 C91.0 70.0 91.0 70.0 91.0 70.0 C91.0 70.0 91.0 70.0 91.0 70.0 C91.0 70.0 91.0 70.0 91.0 70.0 C91.0 70.0 91.0 70.0 91.0 70.0 C91.0 70.0 91.0 70.0 91.0 70.0 C91.0 70.0 91.0 70.0 91.0 70.0 C91.0 70.0 91.0 70.0 91.0 70.0 C91.0 70.0 91.0 70.0 91.0 70.0 C91.0 70.0 91.0 70.0 91.0 70.0 C91.0 70.0 91.0 70.0 91.0 70.0 C91.0 70.0 91.0 70.0 91.0 70.0 C91.0 70.0 91.0 70.0 91.0 70.0 C91.0 70.0 91.0 70.0 91.0 70.0 C91.0 70.0 91.0 70.0 91.0 70.0 C91.0 70.0 91.0 70.0 91.0 70.0 C91.0 70.0 91.0 70.0 91.0 70.0 C91.0 70.0 91.0 70.0 91.0 70.0 C91.0 70.0 91.0 70.0 91.0 70.0 C91.0 70.0 91.0 70.0 91.0 70.0 C91.0 70.0 91.0 70.0 91.0 70.0 C91.0 70.0 91.0 70.0 91.0 70.0 C91.0 70.0 91.0 70.0 91.0 70.0 C91.0 70.0 91.0 70.0 91.0 70.0 C91.0 70.0 91.0 70.0 91.0 70.0 C91.0 70.0 91.0 70.0 91.0 70.0 C91.0 70.0 91.0 70.0 91.0 70.0 C91.0 70.0 91.0 70.0 91.0 70.0 C91.0 70.0 91.0 70.0 91.0 70.0 C91.0 70.0 91.0 70.0 91.0 70.0 C91.0 70.0 91.0 70.0 91.0 70.0 C91.0 70.0 91.0 70.0 91.0 70.0 C91.0 70.0 91.0 70.0 91.0 70.0 C91.0 70.0 91.0 70.0 91.0 70.0 C91.0 70.0 91.0 70.0 91.0 70.0 C91.0 70.0 91.0 70.0 91.0 70.0 C91.0 70.0 91.0 70.0 91.0 70.0 C91.0 70.0 91.0 70.0 91.0 70.0 C91.0 70.0 91.0 70.0 91.0 70.0 C91.0 70.0 91.0 70.0 91.0 70.0 C91.0 70.0 91.0 70.0 91.0 70.0 C91.0 70.0 91.0 70.0 91.0 70.0 C91.0 70.0 91.0 70.0 91.0 70.0 C91.0 70.0 91.0 70.0 91.0 70.0 C91.0 70.0 91.0 70.0 91.0 70.0 C91.0 70.0 91.0 70.0 91.0 70.0 C91.0 70.0 91.0 70.0 91.0 70.0 C91.0 70.0 91.0 70.0 91.0 70.0 C91.0 70.0 91.0 70.0 91.0 70.0 C91.0 70.0 91.0 70.0 91.0 70.0 C91.0 70.0 91.0 70.0 91.0 70.0 C91.0 70.0 91.0 70.0 91.0 70.0 C91.0 70.0 91.0 70.0 91.0 70.0 C91.0 70.0 91.0 70.0 91.0 70.0 C91.0 70.0 91.0 70.0 91.0 70.0 C91.0 70.0 91.0 70.0 91.0 70.0 C91.0 70.0 91.0 70.0 91.0 70.0 C91.0 70.0 91.0 70.0 91.0 70.0 C91.0 70.0 91.0 70.0 91.0 70.0 C91.0 70.0 91.0 70.0 91.0 70.0 C91.0 70.0 91.0 70.0 91.0 70.0 C91.0 70.0 91.0 70.0 91.0 70.0 C91.0 70.0 91.0 70.0 91.0 70.0 C91.0 70.0 91.0 70.0 91.0 70.0 C91.0 70.0 91.0 70.0 91.0 70.0 C91.0 70.0 91.0 70.0 91.0 70.0 C91.0 70.0 91.0 70.0 91.0 70.0 C91.0 70.0 91.0 70.0 91.0 70.0 C91.0 70.0 91.0 70.0 91.0 70.0 C91.0 70.0 91.0 70.0 91.0 70.0 C91.0 70.0 91.0 70.0 91.0 70.0 C91.0 70.0 91.0 70.0 91.0 70.0 C91.0 70.0 91.0 70.0 91.0 70.0 C91.0 70.0 91.0 70.0 91.0 70.0 C91.0 70.0 91.0 70.0 91.0 70.0 C91.0 70.0 91.0 70.0 91.0 70.0 C91.0 70.0 91.0 70.0 91.0 70.0 C91.0 70.0 91.0 70.0 91.0 70.0 C91.0 70.0 91.0 70.0 91.0 70.0 C91.0 70.0 91.0 70.0 91.0 70.0 C91.0 70.0 91.0 70.0 91.0 70.0 C91.0 70.0 91.0 70.0 91.0 70.0 C91.0 70.0 91.0 70.0 91.0 70.0 C91.0 70.0 91.0 70.0 91.0 70.0 C91.0 70.0 91.0 70.0 91.0 70.0 C91.0 70.0 91.0 70.0 91.0 70.0 C91.0 70.0 91.0 70.0 91.0 70.0 C91.0 70.0 91.0 70.0 91.0 70.0 C91.0 70.0 91.0 70.0 91.0 70.0 C91.0 70.0 91.0 70.0 91.0 70.0 C91.0 70.0 91.0 70.0 91.0 70.0 C91.0 70.0 91.0 70.0 91.0 70.0 C91.0 70.0 91.0 70.0 91.0 70.0 C91.0 70.0 91.0 70.0 91.0 70.0 C91.0 70.0 91.0 70.0 91.0 70.0 C91.0 70.0 91.0 70.0 91.0 70.0 C91.0 70.0 91.0 70.0 91.0 70.0 C91.0 70.0 91.0 70.0 91.0 70.0 C91.0 70.0 91.0 70.0 91.0 70.0 C91.0 70.0 91.0 70.0 91.0 70.0 C91.0 70.0 91.0 70.0 91.0 70.0 C91.0 70.0 91.0 70.0 91.0 70.0 C91.0 70.0 91.0 70.0 91.0 70.0 C91.0 70.0 91.0 70.0 91.0 70.0 C91.0 70.0 91.0 70.0 91.0 70.0 C91.0 70.0 91.0 70.0 91.0 70.0 C91.0 70.0 91.0 70.0 91.0 70.0 C91.0 70.0 91.0 70.0 91.0 70.0 C91.0 70.0 91.0 70.0 91.0 70.0 C91.0 70.0 91.0 70.0 91.0 70.0 C91.0 70.0 91.0 70.0 91.0 70.0 C91.0 70.0 91.0 70.0 91.0 70.0 C91.0 70.0 91.0 70.0 91.0 70.0 C91.0 70.0 91.0 70.0 91.0 70.0 C91.0 70.0 91.0 70.0 91.0 70.0 C91.0 70.0 91.0 70.0 91.0 70.0 C91.0 70.0 91.0 70.0 91.0 70.0 C91.0 70.0 91.0 70.0 91.0 70.0 C91.0 70.0 91.0 70.0 91.0 70.0 C91.0 70.0 91.0 70.0 91.0 70.0 C91.0 70.0 91.0 70.0 91.0 70.0 C91.0 70.0 91.0 70.0 91.0 70.0 C91.0 70.0 91.0 70.0 91.0 70.0 C91.0 70.0 91.0 70.0 91.0 70.0 C91.0 70.0 91.0 70.0 91.0 70.0 C91.0 70.0 91.0 70.0 91.0 70.0 C91.0 70.0 91.0 70.0 91.0 70.0 C91.0 70.0 91.0 70.0 91.0 70.0 C91.0 70.0 91.0 70.0 91.0 70.0 C91.0 70.0 91.0 70.0 91.0 70.0 C91.0 70.0 91.0 70.0 91.0 70.0 C91.0 70.0 91.0 70.0 91.0 70.0 C91.0 70.0 91.0 70.0 91.0 70.0 C91.0 70.0 91.0 70.0 91.0 70.0 C91.0 70.0 91.0 70.0 91.0 70.0 C91.0 70.0 91.0 70.0 91.0 70.0 C91.0 70.0 91.0 70.0 91.0 70.0 C91.0 70.0 91.0 70.0 91.0 70.0 C91.0 70.0 91.0 70.0 91.0 70.0 C91.0 70.0 91.0 70.0 91.0 70.0 C91.0 70.0 91.0 70.0 91.0 70.0 C91.0 70.0 91.0 70.0 91.0 70.0 C91.0 70.0 91.0 70.0 91.0 70.0 C91.0 70.0 91.0 70.0 91.0 70.0 C91.0 70.0 91.0 70.0 91.0 70.0 C91.0 70.0 91.0 70.0 91.0 70.0 C91.0 70.0 91.0 70.0 91.0 70.0 C91.0 70.0 91.0 70.0 91.0 70.0 C91.0 70.0 91.0 70.0 91.0 70.0 C91.0 70.0 91.0 70.0 91.0 70.0 C91.0 70.0 91.0 70.0 91.0 70.0 C91.0 70.0 91.0 70.0 91.0 70.0 C91.0 70.0 91.0 70.0 91.0 70.0 C91.0 70.0 91.0 70.0 91.0 70.0 C91.0 70.0 91.0 70.0 91.0 70.0 C91.0 70.0 91.0 70.0 91.0 70.0 C91.0 70.0 91.0 70.0 91.0 70.0 C91.0 70.0 91.0 70.0 91.0 70.0 C91.0 70.0 91.0 70.0 91.0 70.0 C91.0 70.0 91.0 70.0 91.0 70.0 C91.0 70.0 91.0 70.0 91.0 70.0 C91.0 70.0 91.0 70.0 91.0 70.0 C91.0 70.0 91.0 70.0 91.0 70.0 C91.0 70.0 91.0 70.0 91.0 70.0 C91.0 70.0 91.0 70.0 91.0 70.0 C91.0 70.0 91.0 70.0 91.0 70.0 C91.0 70.0 91.0 70.0 91.0 70.0 C91.0 70.0 91.0 70.0 91.0 70.0 C91.0 70.0 91.0 70.0 91.0 70.0 C91.0 70.0 91.0 70.0 91.0 70.0 C91.0 70.0 91.0 70.0 91.0 70.0 C91.0 70.0 91.0 70.0 91.0 70.0 C91.0 70.0 91.0 70.0 91.0 70.0 C91.0 70.0 91.0 70.0 91.0 70.0 C91.0 70.0 91.0 70.0 91.0 70.0 C91.0 70.0 91.0 70.0 91.0 70.0 C91.0 70.0 91.0 70.0 91.0 70.0 C91.0 70.0 91.0 70.0 91.0 70.0 C91.0 70.0 91.0 70.0 91.0 70.0 C91.0 70.0 91.0 70.0 91.0 70.0 C91.0 70.0 91.0 70.0 91.0 70.0 C91.0 70.0 91.0 70.0 91.0 70.0 C91.0 70.0 91.0 70.0 91.0 70.0 C91.0 70.0 91.0 70.0 91.0 70.0 C91.0 70.0 91.0 70.0 91.0 70.0 C91.0 70.0 91.0 70.0 91.0 70.0 C91.0 70.0 91.0 70.0 91.0 70.0 C91.0 70.0 91.0 70.0 91.0 70.0 C91.0 70.0 91.0 70.0 91.0 70.0 C91.0 70.0 91.0 70.0 91.0 70.0 C91.0 70.0 91.0 70.0 91.0 70.0 C91.0 70.0 91.0 70.0 91.0 70.0 C91.0 70.0 91.0 70.0 91.0 70.0 C91.0 70.0 91.0 70.0 91.0 70.0 C91.0 70.0 91.0 70.0 91.0 70.0 C91.0 70.0 91.0 70.0 91.0 70.0 C91.0 70.0 91.0 70.0 91.0 70.0 C91.0 70.0 91.0 70.0 91.0 70.0 C91.0 70.0 91.0 70.0 91.0 70.0 C91.0 70.0 91.0 70.0 91.0 70.0 C91.0 70.0 91.0 70.0 91.0 70.0 C91.0 70.0 91.0 70.0 91.0 70.0 C91.0 70.0 91.0 70.0 91.0 70.0 C91.0 70.0 91.0 70.0 91.0 70.0 C91.0 70.0 91.0 70.0 91.0 70.0 C91.0 70.0 91.0 70.0 91.0 70.0 C91.0 70.0 91.0 70.0 91.0 70.0 C91.0 70.0 91.0 70.0 91.0 70.0 C91.0 70.0 91.0 70.0 91.0 70.0 C91.0 70.0 91.0 70.0 91.0 70.0 C91.0 70.0 91.0 70.0 91.0 70.0 C91.0 70.0 91.0 70.0 91.0 70.0 C91.0 70.0 91.0 70.0 91.0 70.0 C91.0 70.0 91.0 70.0 91.0 70.0 C91.0 70.0 91.0 70.0 91.0 70.0 C91.0 70.0 91.0 70.0 91.0 70.0 C91.0 70.0 91.0 70.0 91.0 70.0 C91.0 70.0 91.0 70.0 91.0 70.0 C91.0 70.0 91.0 70.0 91.0 70.0 C91.0 70.0 91.0 70.0 91.0 70.0 C91.0 70.0 91.0 70.0 91.0 70.0 C91.0 70.0 91.0 70.0 91.0 70.0 C91.0 70.0 91.0 70.0 91.0 70.0 C91.0 70.0 91.0 70.0 91.0 70.0 C91.0 70.0 91.0 70.0 91.0 70.0 C91.0 70.0 91.0 70.0 91.0 70.0 C91.0 70.0 91.0 70.0 91.0 70.0 C91.0 70.0 91.0 70.0 91.0 70.0 C91.0 70.0 91.0 70.0 91.0 70.0 C91.0 70.0 91.0 70.0 91.0 70.0 C91.0 70.0 91.0 70.0 91.0 70.0"></path></svg>