<svg xmlns="http://www.w3.org/2000/svg" viewBox="0.0 0.0 200.0 200.0" height="200px" width="200px"><path fill="#ddeeff" fill-opacity="1.0"  filling="0" d="M64.0 60.0 C64.0 60.0 59.0 63.0 59.0 69.0 C59.0 76.0 65.0 90.0 65.0 90.0 L65.0 88.0 C65.0 88.0 61.0 75.0 61.0 69.0 C61.0 63.0 64.0 60.0 64.0 60.0 L64.0 60.0 Z"></path>
<path fill="#ddeeff" fill-opacity="1.0"  filling="0" d="M136.0 59.0 C136.0 59.0 141.0 62.0 141.0 68.0 C141.0 75.0 135.0 89.0 135.0 89.0 L135.0 87.0 C135.0 87.0 139.0 74.0 139.0 68.0 C139.0 62.0 136.0 59.0 136.0 59.0 L136.0 59.0 Z"></path>
<path fill="#ddeeff" fill-opacity="1.0"  filling="0" d="M102.0 49.0 C102.0 49.0 111.0 49.0 113.0 52.0 C115.0 55.0 114.0 64.0 114.0 64.0 L112.0 64.0 C112.0 64.0 112.0 55.0 111.0 53.0 C111.0 51.0 102.0 50.0 102.0 50.0 L102.0 49.0 L102.0 49.0 Z"></path>
<path fill="#4499ff" fill-opacity="1.0"  filling="0" d="M136.0 62.0 C136.0 62.0 137.0 67.0 136.0 72.0 C135.0 77.0 129.0 88.0 129.0 88.0 L108.0 78.0 C108.0 78.0 106.0 72.0 107.0 69.0 C107.0 66.0 112.0 63.0 112.0 63.0 L108.0 78.0 L129.0 88.0 L136.0 62.0 L136.0 62.0 Z"></path>
<path fill="#4499ff" fill-opacity="1.0"  filling="0" d="M64.0 62.0 C136.0 62.0 137.0 67.0 136.0 72.0 C135.0 77.0 129.0 88.0 129.0 88.0 L108.0 78.0 C108.0 78.0 106.0 72.0 107.0 69.0 C107.0 66.0 112.0 63.0 112.0 63.0 L108.0 78.0 L129.0 88.0 L136.0 62.0 L136.0 62.0 Z"></path>
<path fill="#4499ff" fill-opacity="1.0"  filling="0" d="M108.0 78.0 L108.0 78.0 L129.0 88.0 L129.0 88.0 L108.0 78.0 L108.0 78.0 Z"></path>
<path fill="#4499ff" fill-opacity="1.0"  filling="0" d="M92.0 78.0 L71.0 88.0 L64.0 62.0 L136.0 62.0 L129.0 88.0 L108.0 78.0 L108.0 78.0 Z"></path>
<path fill="#4499ff" fill-opacity="1.0"  filling="0" d="M108.0 78.0 C108.0 78.0 106.0 72.0 107.0 69.0 C107.0 66.0 112.0 63.0 112.0 63.0 C112.0 63.0 107.0 66.0 107.0 69.0 C107.0 72.0 108.0 78.0 108.0 78.0 L108.0 78.0 Z"></path>
<path fill="#4499ff" fill-opacity="1.0"  filling="0" d="M108.0 78.0 C108.0 78.0 106.0 72.0 107.0 69.0 C107.0 66.0 112.0 63.0 112.0 63.0 C112.0 63.0 107.0 66.0 107.0 69.0 C107.0 72.0 108.0 78.0 108.0 78.0 L108.0 78.0 Z"></path>
<path fill="#4499ff" fill-opacity="1.0"  filling="0" d="M64.0 62.0 L129.0 88.0 L108.0 78.0 L108.0 78.0 L129.0 88.0 L136.0 62.0 L136.0 62.0 L136.0 62.0 Z"></path>
<path fill="#4499ff" fill-opacity="1.0"  filling="0" d="M92.0 78.0 L71.0 88.0 L64.0 62.0 L136.0 62.0 L129.0 88.0 L92.0 78.0 L92.0 78.0 Z"></path>
<path fill="#4499ff" fill-opacity="1.0"  filling="0" d="M92.0 78.0 C92.0 78.0 94.0 72.0 93.0 69.0 C93.0 66.0 88.0 63.0 88.0 63.0 L92.0 78.0 L92.0 78.0 Z"></path>
<path fill="#4499ff" fill-opacity="1.0"  filling="0" d="M92.0 78.0 L71.0 88.0 L64.0 62.0 L136.0 62.0 L71.0 88.0 L92.0 78.0 L92.0 78.0 L92.0 78.0 Z"></path>
<path fill="#4499ff" fill-opacity="1.0"  filling="0" d="M108.0 78.0 L92.0 78.0 L88.0 63.0 L88.0 63.0 L92.0 78.0 L108.0 78.0 L108.0 78.0 L108.0 78.0 Z"></path>
<path fill="#4499ff" fill-opacity="1.0"  filling="0" d="M92.0 78.0 L71.0 88.0 L64.0 62.0 L136.0 62.0 L71.0 88.0 L92.0 78.0 L92.0 78.0 L92.0 78.0 Z"></path>
<path fill="#000000" fill-opacity="1.0"  filling="0" d="M85.0 43.0 A9.0 9.0 0.0 1 1 67.0 43.0 A9.0 9.0 0.0 1 1 85.0 43.0 L85.0 43.0 Z"></path>
<path fill="#4499ff" fill-opacity="1.0"  filling="0" d="M85.0 43.0 C85.0 47.0 85.0 47.0 81.0 50.0 C78.0 53.0 78.0 53.0 74.0 53.0 C70.0 53.0 70.0 53.0 67.0 50.0 C64.0 47.0 64.0 47.0 64.0 43.0 C64.0 39.0 64.0 39.0 67.0 36.0 C70.0 33.0 70.0 33.0 74.0 33.0 C78.0 33.0 78.0 33.0 81.0 36.0 C85.0 39.0 85.0 39.0 85.0 43.0 L85.0 43.0 Z M84.0 43.0 C84.0 39.0 84.0 39.0 81.0 37.0 C78.0 34.0 78.0 34.0 74.0 34.0 C70.0 34.0 70.0 34.0 68.0 37.0 C65.0 39.0 65.0 39.0 65.0 43.0 C65.0 46.0 65.0 46.0 68.0 49.0 C70.0 52.0 70.0 52.0 74.0 52.0 C78.0 52.0 78.0 52.0 81.0 49.0 C84.0 46.0 84.0 46.0 84.0 43.0 L84.0 43.0 Z"></path>
<path fill="#000000" fill-opacity="1.0"  filling="0" d="M67.0 43.0 L67.0 43.0 C67.0 42.0 67.0 41.0 67.0 41.0 C68.0 38.0 70.0 35.0 73.0 34.0 C77.0 33.0 82.0 35.0 83.0 39.0 C83.0 40.0 84.0 41.0 84.0 42.0 C84.0 42.0 84.0 42.0 84.0 43.0 C84.0 43.0 84.0 43.0 84.0 43.0 C84.0 43.0 84.0 43.0 84.0 43.0 C84.0 43.0 84.0 43.0 84.0 43.0 C84.0 43.0 84.0 43.0 84.0 43.0 C84.0 43.0 84.0 43.0 84.0 43.0 C84.0 43.0 84.0 43.0 84.0 43.0 C84.0 43.0 84.0 43.0 84.0 43.0 C84.0 43.0 84.0 43.0 84.0 43.0 C84.0 43.0 84.0 43.0 84.0 43.0 C84.0 43.0 84.0 43.0 84.0 43.0 C84.0 43.0 84.0 43.0 84.0 43.0 C84.0 43.0 84.0 43.0 84.0 43.0 C84.0 43.0 84.0 43.0 84.0 43.0 C84.0 43.0 84.0 43.0 84.0 43.0 C84.0 43.0 84.0 43.0 84.0 43.0 C84.0 43.0 84.0 43.0 84.0 43.0 C84.0 43.0 84.0 43.0 84.0 43.0 C84.0 43.0 84.0 43.0 84.0 43.0 C84.0 43.0 84.0 43.0 84.0 43.0 C84.0 43.0 84.0 43.0 84.0 43.0 C84.0 43.0 84.0 43.0 84.0 43.0 C84.0 43.0 84.0 43.0 84.0 43.0 C84.0 43.0 84.0 43.0 84.0 43.0 C84.0 43.0 84.0 43.0 84.0 43.0 C84.0 43.0 84.0 43.0 84.0 43.0 C84.0 43.0 84.0 43.0 84.0 43.0 C84.0 43.0 84.0 43.0 84.0 43.0 C84.0 43.0 84.0 43.0 84.0 43.0 C84.0 43.0 84.0 43.0 84.0 43.0 C84.0 43.0 84.0 43.0 84.0 43.0 C84.0 43.0 84.0 43.0 84.0 43.0 C84.0 43.0 84.0 43.0 84.0 43.0 C84.0 43.0 84.0 43.0 84.0 43.0 C84.0 43.0 84.0 43.0 84.0 43.0 C84.0 43.0 84.0 43.0 84.0 43.0 C84.0 43.0 84.0 43.0 84.0 43.0 C84.0 43.0 84.0 43.0 84.0 43.0 C84.0 43.0 84.0 43.0 84.0 43.0 C84.0 43.0 84.0 43.0 84.0 43.0 C84.0 43.0 84.0 43.0 84.0 43.0 C84.0 43.0 84.0 43.0 84.0 43.0 C84.0 43.0 84.0 43.0 84.0 43.0 C84.0 43.0 84.0 43.0 84.0 43.0 C84.0 43.0 84.0 43.0 84.0 43.0 C84.0 43.0 84.0 43.0 84.0 43.0 C84.0 43.0 84.0 43.0 84.0 43.0 C84.0 43.0 84.0 43.0 84.0 43.0 C84.0 43.0 84.0 43.0 84.0 43.0 C84.0 43.0 84.0 43.0 84.0 43.0 C84.0 43.0 84.0 43.0 84.0 43.0 C84.0 43.0 84.0 43.0 84.0 43.0 C84.0 43.0 84.0 43.0 84.0 43.0 C84.0 43.0 84.0 43.0 84.0 43.0 C84.0 43.0 84.0 43.0 84.0 43.0 C84.0 43.0 84.0 43.0 84.0 43.0 C84.0 43.0 84.0 43.0 84.0 43.0 C84.0 43.0 84.0 43.0 84.0 43.0 C84.0 43.0 84.0 43.0 84.0 43.0 C84.0 43.0 84.0 43.0 84.0 43.0 C84.0 43.0 84.0 43.0 84.0 43.0 C84.0 43.0 84.0 43.0 84.0 43.0 C84.0 43.0 84.0 43.0 84.0 43.0 C84.0 43.0 84.0 43.0 84.0 43.0 C84.0 43.0 84.0 43.0 84.0 43.0 C84.0 43.0 84.0 43.0 84.0 43.0 C84.0 43.0 84.0 43.0 84.0 43.0 C84.0 43.0 84.0 43.0 84.0 43.0 C84.0 43.0 84.0 43.0 84.0 43.0 C84.0 43.0 84.0 43.0 84.0 43.0 C84.0 43.0 84.0 43.0 84.0 43.0 C84.0 43.0 84.0 43.0 84.0 43.0 C84.0 43.0 84.0 43.0 84.0 43.0 C84.0 43.0 84.0 43.0 84.0 43.0 C84.0 43.0 84.0 43.0 84.0 43.0 C84.0 43.0 84.0 43.0 84.0 43.0 C84.0 43.0 84.0 43.0 84.0 43.0 C84.0 43.0 84.0 43.0 84.0 43.0 C84.0 43.0 84.0 43.0 84.0 43.0 C84.0 43.0 84.0 43.0 84.0 43.0 C84.0 43.0 84.0 43.0 84.0 43.0 C84.0 43.0 84.0 43.0 84.0 43.0 C84.0 43.0 84.0 43.0 84.0 43.0 C84.0 43.0 84.0 43.0 84.0 43.0 C84.0 43.0 84.0 43.0 84.0 43.0 C84.0 43.0 84.0 43.0 84.0 43.0 C84.0 43.0 84.0 43.0 84.0 43.0 C84.0 43.0 84.0 43.0 84.0 43.0 C84.0 43.0 84.0 43.0 84.0 43.0 C84.0 43.0 84.0 43.0 84.0 43.0 C84.0 43.0 84.0 43.0 84.0 43.0 C84.0 43.0 84.0 43.0 84.0 43.0 C84.0 43.0 84.0 43.0 84.0 43.0 C84.0 43.0 84.0 43.0 84.0 43.0 C84.0 43.0 84.0 43.0 84.0 43.0 C84.0 43.0 84.0 43.0 84.0 43.0 C84.0 43.0 84.0 43.0 84.0 43.0 C84.0 43.0 84.0 43.0 84.0 43.0 C84.0 43.0 84.0 43.0 84.0 43.0 C84.0 43.0 84.0 43.0 84.0 43.0 C84.0 43.0 84.0 43.0 84.0 43.0 C84.0 43.0 84.0 43.0 84.0 43.0 C84.0 43.0 84.0 43.0 84.0 43.0 C84.0 43.0 84.0 43.0 84.0 43.0 C84.0 43.0 84.0 43.0 84.0 43.0 C84.0 43.0 84.0 43.0 84.0 43.0 C84.0 43.0 84.0 43.0 84.0 43.0 C84.0 43.0 84.0 43.0 84.0 43.0 C84.0 43.0 84.0 43.0 84.0 43.0 C84.0 43.0 84.0 43.0 84.0 43.0 C84.0 43.0 84.0 43.0 84.0 43.0 C84.0 43.0 84.0 43.0 84.0 43.0 C84.0 43.0 84.0 43.0 84.0 43.0 C84.0 43.0 84.0 43.0 84.0 43.0 C84.0 43.0 84.0 43.0 84.0 43.0 C84.0 43.0 84.0 43.0 84.0 43.0 C84.0 43.0 84.0 43.0 84.0 43.0 C84.0 43.0 84.0 43.0 84.0 43.0 C84.0 43.0 84.0 43.0 84.0 43.0 C84.0 43.0 84.0 43.0 84.0 43.0 C84.0 43.0 84.0 43.0 84.0 43.0 C84.0 43.0 84.0 43.0 84.0 43.0 C84.0 43.0 84.0 43.0 84.0 43.0 C84.0 43.0 84.0 43.0 84.0 43.0 C84.0 43.0 84.0 43.0 84.0 43.0 C84.0 43.0 84.0 43.0 84.0 43.0 C84.0 43.0 84.0 43.0 84.0 43.0 C84.0 43.0 84.0 43.0 84.0 43.0 C84.0 43.0 84.0 43.0 84.0 43.0 C84.0 43.0 84.0 43.0 84.0 43.0 C84.0 43.0 84.0 43.0 84.0 43.0 C84.0 43.0 84.0 43.0 84.0 43.0 C84.0 43.0 84.0 43.0 84.0 43.0 C84.0 43.0 84.0 43.0 84.0 43.0 C84.0 43.0 84.0 43.0 84.0 43.0 C84.0 43.0 84.0 43.0 84.0 43.0 C84.0 43.0 84.0 43.0 84.0 43.0 C84.0 43.0 84.0 43.0 84.0 43.0 C84.0 43.0 84.0 43.0 84.0 43.0 C84.0 43.0 84.0 43.0 84.0 43.0 C84.0 43.0 84.0 43.0 84.0 43.0 C84.0 43.0 84.0 43.0 84.0 43.0 C84.0 43.0 84.0 43.0 84.0 43.0 C84.0 43.0 84.0 43.0 84.0 43.0 C84.0 43.0 84.0 43.0 84.0 43.0 C84.0 43.0 84.0 43.0 84.0 43.0 C84.0 43.0 84.0 43.0 84.0 43.0 C84.0 43.0 84.0 43.0 84.0 43.0 C84.0 43.0 84.0 43.0 84.0 43.0 C84.0 43.0 84.0 43.0 84.0 43.0 C84.0 43.0 84.0 43.0 84.0 43.0 C84.0 43.0 84.0 43.0 84.0 43.0 C84.0 43.0 84.0 43.0 84.0 43.0 C84.0 43.0 84.0 43.0 84.0 43.0 C84.0 43.0 84.0 43.0 84.0 43.0 C84.0 43.0 84.0 43.0 84.0 43.0 C84.0 43.0 84.0 43.0 84.0 43.0 C84.0 43.0 84.0 43.0 84.0 43.0 C84.0 43.0 84.0 43.0 84.0 43.0 C84.0 43.0 84.0 43.0 84.0 43.0 C84.0 43.0 84.0 43.0 84.0 43.0 C84.0 43.0 84.0 43.0 84.0 43.0 C84.0 43.0 84.0 43.0 84.0 43.0 C84.0 43.0 84.0 43.0 84.0 43.0 C84.0 43.0 84.0 43.0 84.0 43.0 C84.0 43.0 84.0 43.0 84.0 43.0 C84.0 43.0 84.0 43.0 84.0 43.0 C84.0 43.0 84.0 43.0 84.0 43.0 C84.0 43.0 84.0 43.0 84.0 43.0 C84.0 43.0 84.0 43.0 84.0 43.0 C84.0 43.0 84.0 43.0 84.0 43.0 C84.0 43.0 84.0 43.0 84.0 43.0 C84.0 43.0 84.0 43.0 84.0 43.0 C84.0 43.0 84.0 43.0 84.0 43.0 C84.0 43.0 84.0 43.0 84.0 43.0 C84.0 43.0 84.0 43.0 84.0 43.0 C84.0 43.0 84.0 43.0 84.0 43.0 C84.0 43.0 84.0 43.0 84.0 43.0 C84.0 43.0 84.0 43.0 84.0 43.0 C84.0 43.0 84.0 43.0 84.0 43.0 C84.0 43.0 84.0 43.0 84.0 43.0 C84.0 43.0 84.0 43.0 84.0 43.0 C84.0 43.0 84.0 43.0 84.0 43.0 C84.0 43.0 84.0 43.0 84.0 43.0 C84.0 43.0 84.0 43.0 84.0 43.0 C84.0 43.0 84.0 43.0 84.0 43.0 C84.0 43.0 84.0 43.0 84.0 43.0 C84.0 43.0 84.0 43.0 84.0 43.0 C84.0 43.0 84.0 43.0 84.0 43.0 C84.0 43.0 84.0 43.0 84.0 43.0 C84.0 43.0 84.0 43.0 84.0 43.0 C84.0 43.0 84.0 43.0 84.0 43.0 C84.0 43.0 84.0 43.0 84.0 43.0 C84.0 43.0 84.0 43.0 84.0 43.0 C84.0 43.0 84.0 43.0 84.0 43.0 C84.0 43.0 84.0 43.0 84.0 43.0 C84.0 43.0 84.0 43.0 84.0 43.0 C84.0 43.0 84.0 43.0 84.0 43.0 C84.0 43.0 84.0 43.0 84.0 43.0 C84.0 43.0 84.0 43.0 84.0 43.0 C84.0 43.0 84.0 43.0 84.0 43.0 C84.0 43.0 84.0 43.0 84.0 43.0 C84.0 43.0 84.0 43.0 84.0 43.0 C84.0 43.0 84.0 43.0 84.0 43.0 C84.0 43.0 84.0 43.0 84.0 43.0 C84.0 43.0 84.0 43.0 84.0 43.0 C84.0 43.0 84.0 43.0 84.0 43.0 C84.0 43.0 84.0 43.0 84.0 43.0 C84.0 43.0 84.0 43.0 84.0 43.0 C84.0 43.0 84.0 43.0 84.0 43.0 C84.0 43.0 84.0 43.0 84.0 43.0 C84.0 43.0 84.0 43.0 84.0 43.0 C84.0 43.0 84.0 43.0 84.0 43.0 C84.0 43.0 84.0 43.0 84.0 43.0 C84.0 43.0 84.0 43.0 84.0 43.0 C84.0 43.0 84.0 43.0 84.0 43.0 C84.0 43.0 84.0 43.0 84.0 43.0 C84.0 43.0 84.0 43.0 84.0 43.0 C84.0 43.0 84.0 43.0 84.0 43.0 C84.0 43.0 84.0 43.0 84.0 43.0 C84.0 43.0 84.0 43.0 84.0 43.0 C84.0 43.0 84.0 43.0 84.0 43.0 C84.0 43.0 84.0 43.0 84.0 43.0 C84.0 43.0 84.0 43.0 84.0 43.0 C84.0 43.0 84.0 43.0 84.0 43.0 C84.0 43.0 84.0 43.0 84.0 43.0 C84.0 43.0 84.0 43.0 84.0 43.0 C84.0 43.0 84.0 43.0 84.0 43.0 C84.0 43.0 84.0 43.0 84.0 43.0 C84.0 43.0 84.0 43.0 84.0 43.0 C84.0 43.0 84.0 43.0 84.0 43.0 C84.0 43.0 84.0 43.0 84.0 43.0 C84.0 43.0 84.0 43.0 84.0 43.0 C84.0 43.0 84.0 43.0 84.0 43.0 C84.0 43.0 84.0 43.0 84.0 43.0 C84.0 43.0 84.0 43.0 84.0 43.0 C84.0 43.0 84.0 43.0 84.0 43.0 C84.0 43.0 84.0 43.0 84.0 43.0 C84.0 43.0 84.0 43.0 84.0 43.0 C84.0 43.0 84.0 43.0 84.0 43.0 C84.0 43.0 84.0 43.0 84.0 43.0 C84.0 43.0 84.0 43.0 84.0 43.0 C84.0 43.0 84.0 43.0 84.0 43.0 C84.0 43.0 84.0 43.0 84.0 43.0 C84.0 43.0 84.0 43.0 84.0 43.0"></path></svg>