<svg xmlns="http://www.w3.org/2000/svg" viewBox="0.0 0.0 200.0 200.0" height="200px" width="200px"><path fill="#ff8800" fill-opacity="1.0"  filling="0" d="M100.0 165.0 C85.0 165.0 72.0 153.0 72.0 138.0 C72.0 130.0 75.0 124.0 80.0 119.0 L80.0 55.0 C80.0 44.0 89.0 35.0 100.0 35.0 C111.0 35.0 120.0 44.0 120.0 55.0 L120.0 119.0 C125.0 124.0 128.0 130.0 128.0 138.0 C128.0 153.0 115.0 165.0 100.0 165.0 L100.0 165.0 Z M100.0 45.0 C95.0 45.0 90.0 49.0 90.0 55.0 L90.0 121.0 C90.0 122.0 89.0 124.0 88.0 124.0 A18.0 18.0 0.0 0 0 82.0 138.0 C82.0 146.0 90.0 153.0 100.0 153.0 C109.0 153.0 117.0 146.0 117.0 138.0 C117.0 132.0 115.0 127.0 111.0 124.0 C110.0 124.0 110.0 122.0 110.0 121.0 L110.0 55.0 C110.0 49.0 106.0 45.0 100.0 45.0 L100.0 45.0 Z"></path></svg>