<svg xmlns="http://www.w3.org/2000/svg" viewBox="0.0 0.0 200.0 200.0" height="200px" width="200px"><path fill="#222222" fill-opacity="1.0"  filling="0" d="M31.0 31.0 L44.0 31.0 L44.0 44.0 L31.0 44.0 L31.0 31.0 L31.0 31.0 Z M94.0 31.0 L106.0 31.0 L106.0 44.0 L94.0 44.0 L94.0 31.0 L94.0 31.0 Z M156.0 31.0 L169.0 31.0 L169.0 44.0 L156.0 44.0 L156.0 31.0 L156.0 31.0 Z M44.0 94.0 L56.0 94.0 L56.0 106.0 L44.0 106.0 L44.0 94.0 L44.0 94.0 Z M94.0 94.0 L106.0 94.0 L106.0 106.0 L94.0 106.0 L94.0 94.0 L94.0 94.0 Z M144.0 94.0 L156.0 94.0 L156.0 106.0 L144.0 106.0 L144.0 94.0 L144.0 94.0 Z M31.0 156.0 L44.0 156.0 L44.0 169.0 L31.0 169.0 L31.0 156.0 L31.0 156.0 Z M94.0 156.0 L106.0 156.0 L106.0 169.0 L94.0 169.0 L94.0 156.0 L94.0 156.0 Z M156.0 156.0 L169.0 156.0 L169.0 169.0 L156.0 169.0 L156.0 156.0 L156.0 156.0 Z"></path></svg>