<svg xmlns="http://www.w3.org/2000/svg" viewBox="0.0 0.0 200.0 200.0" height="200px" width="200px"><path fill="#333344" fill-opacity="1.0"  filling="0" d="M92.0 0.0 C46.0 0.0 0.0 10.0 0.0 29.0 L0.0 154.0 C0.0 173.0 46.0 183.0 92.0 183.0 C137.0 183.0 183.0 173.0 183.0 154.0 L183.0 29.0 C183.0 10.0 137.0 0.0 92.0 0.0 L92.0 0.0 Z"></path>
<path fill="#556677" fill-opacity="1.0"  filling="0" d="M92.0 8.0 C143.0 8.0 175.0 21.0 175.0 29.0 C175.0 38.0 143.0 50.0 92.0 50.0 C41.0 50.0 8.0 38.0 8.0 29.0 C8.0 21.0 41.0 8.0 92.0 8.0 L92.0 8.0 Z"></path>
<path fill="#556677" fill-opacity="1.0"  filling="0" d="M92.0 175.0 C41.0 175.0 8.0 166.0 8.0 154.0 L8.0 125.0 C24.0 136.0 58.0 142.0 92.0 142.0 C126.0 142.0 160.0 136.0 175.0 125.0 L175.0 154.0 C175.0 166.0 136.0 175.0 92.0 175.0 L92.0 175.0 Z"></path>
<path fill="#556677" fill-opacity="1.0"  filling="0" d="M92.0 133.0 C41.0 133.0 8.0 121.0 8.0 112.0 L8.0 84.0 C24.0 94.0 58.0 100.0 92.0 100.0 C126.0 100.0 160.0 94.0 175.0 84.0 L175.0 112.0 C175.0 121.0 143.0 133.0 92.0 133.0 L92.0 133.0 Z"></path>
<path fill="#556677" fill-opacity="1.0"  filling="0" d="M92.0 92.0 C41.0 92.0 8.0 79.0 8.0 71.0 L8.0 42.0 C24.0 53.0 58.0 58.0 92.0 58.0 C126.0 58.0 160.0 53.0 175.0 42.0 L175.0 71.0 C175.0 79.0 143.0 92.0 92.0 92.0 L92.0 92.0 Z"></path>
<path fill="#333344" fill-opacity="1.0"  filling="0" d="M199.0 154.0 A46.0 46.0 0.0 1 1 108.0 154.0 A46.0 46.0 0.0 1 1 199.0 154.0 L199.0 154.0 Z"></path>
<path fill="#ffcc22" fill-opacity="1.0"  filling="0" d="M192.0 154.0 A38.0 38.0 0.0 1 1 117.0 154.0 A38.0 38.0 0.0 1 1 192.0 154.0 L192.0 154.0 Z"></path>
<path fill="#333344" fill-opacity="1.0"  filling="0" d="M165.0 150.0 L154.0 150.0 L151.0 140.0 C151.0 138.0 149.0 137.0 148.0 137.0 C148.0 137.0 148.0 137.0 148.0 137.0 C146.0 137.0 144.0 138.0 144.0 140.0 L140.0 150.0 L129.0 150.0 C127.0 150.0 126.0 152.0 126.0 154.0 C125.0 155.0 126.0 157.0 127.0 158.0 L136.0 165.0 L133.0 176.0 C133.0 177.0 134.0 179.0 136.0 180.0 C136.0 180.0 137.0 180.0 137.0 180.0 C138.0 180.0 139.0 180.0 140.0 179.0 L148.0 173.0 L156.0 179.0 C157.0 180.0 159.0 180.0 160.0 180.0 C161.0 179.0 162.0 177.0 162.0 176.0 L160.0 165.0 L167.0 158.0 C168.0 157.0 168.0 155.0 168.0 154.0 C168.0 152.0 167.0 150.0 165.0 150.0 L165.0 150.0 Z"></path></svg>