<svg xmlns="http://www.w3.org/2000/svg" viewBox="0.0 0.0 200.0 200.0" height="200px" width="200px"><path fill="#334455" fill-opacity="1.0"  filling="0" d="M199.0 115.0 L199.0 129.0 C199.0 141.0 191.0 150.0 180.0 150.0 L20.0 150.0 C9.0 150.0 0.0 141.0 0.0 129.0 L0.0 115.0 L199.0 115.0 L199.0 115.0 Z"></path>
<path fill="#334455" fill-opacity="1.0"  filling="0" d="M199.0 31.0 L199.0 115.0 L0.0 115.0 L0.0 31.0 C0.0 19.0 9.0 10.0 20.0 10.0 L180.0 10.0 C191.0 10.0 199.0 19.0 199.0 31.0 L199.0 31.0 Z"></path>
<path fill="#bbcccc" fill-opacity="1.0"  filling="0" d="M43932.0 43932.0 L80.0 129.0 L80.0 150.0 L120.0 150.0 L120.0 129.0 L43932.0 43932.0 L43932.0 43932.0 Z"></path>
<path fill="#334455" fill-opacity="1.0"  filling="0" d="M67.0 192.0 L67.0 192.0 C67.0 185.0 73.0 179.0 80.0 179.0 L120.0 179.0 C127.0 179.0 133.0 185.0 133.0 192.0 L133.0 192.0 L67.0 192.0 L67.0 192.0 Z"></path>
<path fill="#bbcccc" fill-opacity="1.0"  filling="0" d="M100.0 155.0 C95.0 155.0 91.0 159.0 91.0 164.0 C91.0 169.0 95.0 173.0 100.0 173.0 C105.0 173.0 109.0 169.0 109.0 164.0 C109.0 159.0 105.0 155.0 100.0 155.0 L100.0 155.0 Z"></path>
<path fill="#ff9911" fill-opacity="1.0"  filling="0" d="M34.0 34.0 L56.0 34.0 L56.0 85.0 L34.0 85.0 L34.0 34.0 L34.0 34.0 Z"></path>
<path fill="#77cc88" fill-opacity="1.0"  filling="0" d="M66.0 48.0 L86.0 48.0 L86.0 85.0 L66.0 85.0 L66.0 48.0 L66.0 48.0 Z"></path>
<path fill="#77cc88" fill-opacity="1.0"  filling="0" d="M96.0 71.0 L115.0 71.0 L115.0 85.0 L96.0 85.0 L96.0 71.0 L96.0 71.0 Z"></path>
<path fill="#77cc88" fill-opacity="1.0"  filling="0" d="M124.0 98.0 L143.0 98.0 L143.0 115.0 L124.0 115.0 L124.0 98.0 L124.0 98.0 Z"></path></svg>