<svg xmlns="http://www.w3.org/2000/svg" viewBox="0.0 0.0 200.0 200.0" height="200px" width="200px"><path fill="#99ffff" fill-opacity="1.0"  filling="0" d="M199.0 100.0 C199.0 122.0 193.0 142.0 181.0 159.0 C163.0 184.0 133.0 199.0 100.0 199.0 C67.0 199.0 37.0 184.0 19.0 159.0 C7.0 142.0 0.0 122.0 0.0 100.0 C0.0 78.0 7.0 58.0 19.0 41.0 C34.0 18.0 61.0 0.0 94.0 0.0 L94.0 0.0 L106.0 0.0 L106.0 0.0 C139.0 0.0 166.0 18.0 181.0 41.0 C193.0 58.0 199.0 78.0 199.0 100.0 L199.0 100.0 Z"></path>
<path fill="#ffffff" fill-opacity="1.0"  filling="0" d="M199.0 37.0 L199.0 100.0 C199.0 122.0 193.0 142.0 181.0 159.0 L181.0 159.0 L138.0 77.0 L143.0 42.0 L145.0 37.0 L199.0 37.0 L199.0 37.0 Z"></path>
<path fill="#334455" fill-opacity="1.0"  filling="0" d="M170.0 43.0 L170.0 47.0 L159.0 47.0 L159.0 43.0 L170.0 43.0 L170.0 43.0 Z"></path>
<path fill="#334455" fill-opacity="1.0"  filling="0" d="M159.0 30.0 L170.0 30.0 L170.0 36.0 L159.0 36.0 L159.0 30.0 L159.0 30.0 Z"></path>
<path fill="#334455" fill-opacity="1.0"  filling="0" d="M170.0 47.0 L170.0 47.0 L159.0 47.0 L159.0 47.0 L170.0 47.0 L170.0 47.0 Z"></path>
<path fill="#334455" fill-opacity="1.0"  filling="0" d="M170.0 36.0 L170.0 36.0 L159.0 36.0 L159.0 36.0 L170.0 36.0 L170.0 36.0 Z"></path>
<path fill="#ffffff" fill-opacity="1.0"  filling="0" d="M40552.0 40552.0 C50.0 0.0 44.0 0.0 35.0 6.0 L35.0 6.0 C96.0 3.0 69.0 3.0 71.0 6.0 L71.0 6.0 C76.0 0.0 83.0 0.0 92.0 0.0 L92.0 0.0 L93.0 0.0 C93.0 0.0 94.0 0.0 94.0 0.0 L94.0 0.0 L100.0 0.0 L100.0 0.0 C100.0 0.0 101.0 0.0 101.0 0.0 L102.0 0.0 L103.0 0.0 C103.0 0.0 103.0 0.0 104.0 0.0 L104.0 0.0 L104.0 0.0 C106.0 0.0 108.0 0.0 111.0 0.0 L112.0 0.0 L112.0 0.0 C112.0 0.0 113.0 0.0 113.0 0.0 L114.0 0.0 L114.0 0.0 C114.0 0.0 115.0 0.0 115.0 0.0 L116.0 0.0 L116.0 1.0 C117.0 1.0 117.0 1.0 117.0 1.0 L117.0 1.0 L118.0 1.0 C123.0 1.0 127.0 2.0 130.0 6.0 L130.0 6.0 C131.0 3.0 150.0 0.0 169.0 0.0 L170.0 0.0 L151.0 0.0 C139.0 0.0 130.0 3.0 130.0 6.0 L130.0 6.0 C129.0 3.0 122.0 0.0 112.0 0.0 L112.0 0.0 L111.0 0.0 C109.0 0.0 107.0 0.0 104.0 0.0 L104.0 0.0 L103.0 0.0 C103.0 0.0 103.0 0.0 102.0 0.0 L102.0 0.0 L101.0 0.0 C101.0 0.0 100.0 0.0 100.0 0.0 L100.0 0.0 L94.0 0.0 L94.0 0.0 C94.0 0.0 93.0 0.0 93.0 0.0 L92.0 0.0 L92.0 0.0 C84.0 0.0 76.0 3.0 71.0 6.0 L71.0 6.0 C71.0 3.0 62.0 0.0 47.0 0.0 L40552.0 40552.0 L40552.0 40552.0 L0.0 0.0 Z"></path>
<path fill="#000000" fill-opacity="1.0"  filling="0" d="M162.0 25.0 C162.0 26.0 161.0 26.0 161.0 26.0 C161.0 26.0 160.0 26.0 160.0 26.0 C159.0 26.0 157.0 26.0 156.0 26.0 C153.0 26.0 149.0 26.0 145.0 26.0 C139.0 26.0 133.0 26.0 129.0 26.0 C128.0 26.0 128.0 26.0 128.0 26.0 C128.0 26.0 127.0 26.0 127.0 26.0 C126.0 26.0 125.0 26.0 124.0 25.0 C124.0 25.0 123.0 24.0 123.0 24.0 C123.0 24.0 123.0 24.0 123.0 24.0 C123.0 24.0 123.0 24.0 123.0 24.0 C123.0 24.0 123.0 24.0 123.0 24.0 C123.0 24.0 123.0 24.0 123.0 24.0 C123.0 24.0 123.0 24.0 123.0 24.0 C123.0 24.0 123.0 24.0 123.0 24.0 C123.0 24.0 123.0 24.0 123.0 24.0 C123.0 24.0 123.0 24.0 123.0 24.0 C123.0 24.0 123.0 24.0 123.0 24.0 C123.0 24.0 123.0 24.0 123.0 24.0 C123.0 24.0 123.0 24.0 123.0 24.0 C123.0 24.0 123.0 24.0 123.0 24.0 C123.0 24.0 123.0 24.0 123.0 24.0 C123.0 24.0 123.0 24.0 123.0 24.0 C123.0 24.0 123.0 24.0 123.0 24.0 C123.0 24.0 123.0 24.0 123.0 24.0 C123.0 24.0 123.0 24.0 123.0 24.0 C123.0 24.0 123.0 24.0 123.0 24.0 C123.0 24.0 123.0 24.0 123.0 24.0 C123.0 24.0 123.0 24.0 123.0 24.0 C123.0 24.0 123.0 24.0 123.0 24.0 C123.0 24.0 123.0 24.0 123.0 24.0 C123.0 24.0 123.0 24.0 123.0 24.0 C123.0 24.0 123.0 24.0 123.0 24.0 C123.0 24.0 123.0 24.0 123.0 24.0 C123.0 24.0 123.0 24.0 123.0 24.0 C123.0 24.0 123.0 24.0 123.0 24.0 C123.0 24.0 123.0 24.0 123.0 24.0 C123.0 24.0 123.0 24.0 123.0 24.0 C123.0 24.0 123.0 24.0 123.0 24.0 C123.0 24.0 123.0 24.0 123.0 24.0 C123.0 24.0 123.0 24.0 123.0 24.0 C123.0 24.0 123.0 24.0 123.0 24.0 C123.0 24.0 123.0 24.0 123.0 24.0 C123.0 24.0 123.0 24.0 123.0 24.0 C123.0 24.0 123.0 24.0 123.0 24.0 C123.0 24.0 123.0 24.0 123.0 24.0 C123.0 24.0 123.0 24.0 123.0 24.0 C123.0 24.0 123.0 24.0 123.0 24.0 C123.0 24.0 123.0 24.0 123.0 24.0 C123.0 24.0 123.0 24.0 123.0 24.0 C123.0 24.0 123.0 24.0 123.0 24.0 C123.0 24.0 123.0 24.0 123.0 24.0 C123.0 24.0 123.0 24.0 123.0 24.0 C123.0 24.0 123.0 24.0 123.0 24.0 C123.0 24.0 123.0 24.0 123.0 24.0 C123.0 24.0 123.0 24.0 123.0 24.0 C123.0 24.0 123.0 24.0 123.0 24.0 C123.0 24.0 123.0 24.0 123.0 24.0 C123.0 24.0 123.0 24.0 123.0 24.0 C123.0 24.0 123.0 24.0 123.0 24.0 C123.0 24.0 123.0 24.0 123.0 24.0 C123.0 24.0 123.0 24.0 123.0 24.0 C123.0 24.0 123.0 24.0 123.0 24.0 C123.0 24.0 123.0 24.0 123.0 24.0 C123.0 24.0 123.0 24.0 123.0 24.0 C123.0 24.0 123.0 24.0 123.0 24.0 C123.0 24.0 123.0 24.0 123.0 24.0 C123.0 24.0 123.0 24.0 123.0 24.0 C123.0 24.0 123.0 24.0 123.0 24.0 C123.0 24.0 123.0 24.0 123.0 24.0 C123.0 24.0 123.0 24.0 123.0 24.0 C123.0 24.0 123.0 24.0 123.0 24.0 C123.0 24.0 123.0 24.0 123.0 24.0 C123.0 24.0 123.0 24.0 123.0 24.0 C123.0 24.0 123.0 24.0 123.0 24.0 C123.0 24.0 123.0 24.0 123.0 24.0 C123.0 24.0 123.0 24.0 123.0 24.0 C123.0 24.0 123.0 24.0 123.0 24.0 C123.0 24.0 123.0 24.0 123.0 24.0 C123.0 24.0 123.0 24.0 123.0 24.0 C123.0 24.0 123.0 24.0 123.0 24.0 C123.0 24.0 123.0 24.0 123.0 24.0 C123.0 24.0 123.0 24.0 123.0 24.0 C123.0 24.0 123.0 24.0 123.0 24.0 C123.0 24.0 123.0 24.0 123.0 24.0 C123.0 24.0 123.0 24.0 123.0 24.0 C123.0 24.0 123.0 24.0 123.0 24.0 C123.0 24.0 123.0 24.0 123.0 24.0 C123.0 24.0 123.0 24.0 123.0 24.0 C123.0 24.0 123.0 24.0 123.0 24.0 C123.0 24.0 123.0 24.0 123.0 24.0 C123.0 24.0 123.0 24.0 123.0 24.0 C123.0 24.0 123.0 24.0 123.0 24.0 C123.0 24.0 123.0 24.0 123.0 24.0 C123.0 24.0 123.0 24.0 123.0 24.0 C123.0 24.0 123.0 24.0 123.0 24.0 C123.0 24.0 123.0 24.0 123.0 24.0 C123.0 24.0 123.0 24.0 123.0 24.0 C123.0 24.0 123.0 24.0 123.0 24.0 C123.0 24.0 123.0 24.0 123.0 24.0 C123.0 24.0 123.0 24.0 123.0 24.0 C123.0 24.0 123.0 24.0 123.0 24.0 C123.0 24.0 123.0 24.0 123.0 24.0 C123.0 24.0 123.0 24.0 123.0 24.0 C123.0 24.0 123.0 24.0 123.0 24.0 C123.0 24.0 123.0 24.0 123.0 24.0 C123.0 24.0 123.0 24.0 123.0 24.0 C123.0 24.0 123.0 24.0 123.0 24.0 C123.0 24.0 123.0 24.0 123.0 24.0 C123.0 24.0 123.0 24.0 123.0 24.0 C123.0 24.0 123.0 24.0 123.0 24.0 C123.0 24.0 123.0 24.0 123.0 24.0 C123.0 24.0 123.0 24.0 123.0 24.0 C123.0 24.0 123.0 24.0 123.0 24.0 C123.0 24.0 123.0 24.0 123.0 24.0 C123.0 24.0 123.0 24.0 123.0 24.0 C123.0 24.0 123.0 24.0 123.0 24.0 C123.0 24.0 123.0 24.0 123.0 24.0 C123.0 24.0 123.0 24.0 123.0 24.0 C123.0 24.0 123.0 24.0 123.0 24.0 C123.0 24.0 123.0 24.0 123.0 24.0 C123.0 24.0 123.0 24.0 123.0 24.0 C123.0 24.0 123.0 24.0 123.0 24.0 C123.0 24.0 123.0 24.0 123.0 24.0 C123.0 24.0 123.0 24.0 123.0 24.0 C123.0 24.0 123.0 24.0 123.0 24.0 C123.0 24.0 123.0 24.0 123.0 24.0 C123.0 24.0 123.0 24.0 123.0 24.0 C123.0 24.0 123.0 24.0 123.0 24.0 C123.0 24.0 123.0 24.0 123.0 24.0 C123.0 24.0 123.0 24.0 123.0 24.0 C123.0 24.0 123.0 24.0 123.0 24.0 C123.0 24.0 123.0 24.0 123.0 24.0 C123.0 24.0 123.0 24.0 123.0 24.0 C123.0 24.0 123.0 24.0 123.0 24.0 C123.0 24.0 123.0 24.0 123.0 24.0 C123.0 24.0 123.0 24.0 123.0 24.0 C123.0 24.0 123.0 24.0 123.0 24.0 C123.0 24.0 123.0 24.0 123.0 24.0 C123.0 24.0 123.0 24.0 123.0 24.0 C123.0 24.0 123.0 24.0 123.0 24.0 C123.0 24.0 123.0 24.0 123.0 24.0 C123.0 24.0 123.0 24.0 123.0 24.0 C123.0 24.0 123.0 24.0 123.0 24.0 C123.0 24.0 123.0 24.0 123.0 24.0 C123.0 24.0 123.0 24.0 123.0 24.0 C123.0 24.0 123.0 24.0 123.0 24.0 C123.0 24.0 123.0 24.0 123.0 24.0 C123.0 24.0 123.0 24.0 123.0 24.0 C123.0 24.0 123.0 24.0 123.0 24.0 C123.0 24.0 123.0 24.0 123.0 24.0 C123.0 24.0 123.0 24.0 123.0 24.0 C123.0 24.0 123.0 24.0 123.0 24.0 C123.0 24.0 123.0 24.0 123.0 24.0 C123.0 24.0 123.0 24.0 123.0 24.0 C123.0 24.0 123.0 24.0 123.0 24.0 C123.0 24.0 123.0 24.0 123.0 24.0 C123.0 24.0 123.0 24.0 102.0 24.0 C102.0 24.0 102.0 24.0 102.0 24.0 C102.0 24.0 102.0 24.0 102.0 24.0 C102.0 24.0 102.0 24.0 102.0 24.0 C102.0 24.0 102.0 24.0 102.0 24.0 C102.0 24.0 102.0 24.0 102.0 24.0 C102.0 24.0 102.0 24.0 102.0 24.0 C102.0 24.0 102.0 24.0 102.0 24.0 C102.0 24.0 102.0 24.0 102.0 24.0 C102.0 24.0 102.0 24.0 102.0 24.0 C102.0 24.0 102.0 24.0 102.0 24.0 C102.0 24.0 102.0 24.0 102.0 24.0 C102.0 24.0 102.0 24.0 102.0 24.0 C102.0 24.0 102.0 24.0 102.0 24.0 C102.0 24.0 102.0 24.0 102.0 24.0 C102.0 24.0 102.0 24.0 102.0 24.0 C102.0 24.0 102.0 24.0 102.0 24.0 C102.0 24.0 102.0 24.0 102.0 24.0 C102.0 24.0 102.0 24.0 102.0 24.0 C102.0 24.0 102.0 24.0 102.0 24.0 C102.0 24.0 102.0 24.0 102.0 24.0 C102.0 24.0 102.0 24.0 102.0 24.0 C102.0 24.0 102.0 24.0 102.0 24.0 C102.0 24.0 102.0 24.0 102.0 24.0 C102.0 24.0 102.0 24.0 102.0 24.0 C102.0 24.0 102.0 24.0 102.0 24.0 C102.0 24.0 102.0 24.0 102.0 24.0 C102.0 24.0 102.0 24.0 102.0 24.0 C102.0 24.0 102.0 24.0 102.0 24.0 C102.0 24.0 102.0 24.0 102.0 24.0 C102.0 24.0 102.0 24.0 102.0 24.0 C102.0 24.0 102.0 24.0 102.0 24.0 C102.0 24.0 102.0 24.0 102.0 24.0 C102.0 24.0 102.0 24.0 102.0 24.0 C102.0 24.0 102.0 24.0 102.0 24.0 C102.0 24.0 102.0 24.0 102.0 24.0 C102.0 24.0 102.0 24.0 102.0 24.0 C102.0 24.0 102.0 24.0 102.0 24.0 C102.0 24.0 102.0 24.0 102.0 24.0 C102.0 24.0 102.0 24.0 102.0 24.0 C102.0 24.0 102.0 24.0 102.0 24.0 C102.0 24.0 102.0 24.0 102.0 24.0 C102.0 24.0 102.0 24.0 102.0 24.0 C102.0 24.0 102.0 24.0 102.0 24.0 C102.0 24.0 102.0 24.0 102.0 24.0 C102.0 24.0 102.0 24.0 102.0 24.0 C102.0 24.0 102.0 24.0 102.0 24.0 C102.0 24.0 102.0 24.0 102.0 24.0 C102.0 24.0 102.0 24.0 102.0 24.0 C102.0 24.0 102.0 24.0 102.0 24.0 C102.0 24.0 102.0 24.0 102.0 24.0 C102.0 24.0 102.0 24.0 102.0 24.0 C102.0 24.0 102.0 24.0 102.0 24.0 C102.0 24.0 102.0 24.0 102.0 24.0 C102.0 24.0 102.0 24.0 102.0 24.0 C102.0 24.0 102.0 24.0 102.0 24.0 C102.0 24.0 102.0 24.0 102.0 24.0 C102.0 24.0 102.0 24.0 102.0 24.0 C102.0 24.0 102.0 24.0 102.0 24.0 C102.0 24.0 102.0 24.0 102.0 24.0 C102.0 24.0 102.0 24.0 102.0 24.0 C102.0 24.0 102.0 24.0 102.0 24.0 C102.0 24.0 102.0 24.0 102.0 24.0 C102.0 24.0 102.0 24.0 102.0 24.0 C102.0 24.0 102.0 24.0 102.0 24.0 C102.0 24.0 102.0 24.0 102.0 24.0 C102.0 24.0 142.0 99.0 142.0 99.0 C142.0 100.0 142.0 101.0 142.0 102.0 C142.0 102.0 142.0 103.0 142.0 103.0 C142.0 103.0 142.0 103.0 142.0 103.0 C142.0 103.0 142.0 103.0 142.0 103.0 C142.0 103.0 142.0 103.0 142.0 103.0 C142.0 103.0 142.0 103.0 142.0 103.0 C142.0 103.0 142.0 103.0 142.0 103.0 C142.0 103.0 142.0 103.0 142.0 103.0 C142.0 103.0 142.0 103.0 142.0 103.0 C142.0 103.0 142.0 103.0 142.0 103.0 C142.0 103.0 142.0 103.0 142.0 103.0 C142.0 103.0 142.0 103.0 142.0 103.0 C142.0 103.0 142.0 103.0 142.0 103.0 C142.0 103.0 142.0 103.0 142.0 103.0 C142.0 103.0 142.0 103.0 142.0 103.0 C142.0 103.0 142.0 103.0 142.0 103.0 C142.0 103.0 142.0 103.0 142.0 103.0 C142.0 103.0 142.0 103.0 142.0 103.0 C142.0 103.0 142.0 103.0 142.0 103.0 C142.0 103.0 142.0 103.0 142.0 103.0 C142.0 103.0 142.0 103.0 142.0 103.0 C142.0 103.0 142.0 103.0 142.0 103.0 C142.0 103.0 142.0 103.0 142.0 103.0 C142.0 103.0 142.0 103.0 142.0 103.0 C142.0 103.0 142.0 103.0 142.0 103.0 C142.0 103.0 142.0 103.0 142.0 103.0 C142.0 103.0 142.0 103.0 142.0 103.0 C142.0 103.0 142.0 103.0 142.0 103.0 C142.0 103.0 142.0 103.0 142.0 103.0 C142.0 103.0 142.0 103.0 142.0 103.0 C142.0 103.0 142.0 103.0 142.0 103.0 C142.0 103.0 142.0 103.0 142.0 103.0 C142.0 103.0 142.0 103.0 142.0 103.0 C142.0 103.0 142.0 103.0 142.0 103.0 C142.0 103.0 142.0 103.0 142.0 103.0 C142.0 103.0 142.0 103.0 142.0 103.0 C142.0 103.0 142.0 103.0 142.0 103.0 C142.0 103.0 142.0 103.0 142.0 103.0 C142.0 103.0 142.0 103.0 142.0 103.0 C142.0 103.0 142.0 103.0 142.0 103.0 C142.0 103.0 142.0 103.0 142.0 103.0 C142.0 103.0 142.0 103.0 142.0 103.0 C142.0 103.0 142.0 103.0 142.0 103.0 C142.0 103.0 142.0 103.0 142.0 103.0 C142.0 103.0 142.0 103.0 142.0 103.0 C142.0 103.0 142.0 103.0 142.0 103.0 C142.0 103.0 142.0 103.0 142.0 103.0 C142.0 103.0 142.0 103.0 142.0 103.0 C142.0 103.0 142.0 103.0 142.0 103.0 C142.0 103.0 142.0 103.0 142.0 103.0 C142.0 103.0 142.0 103.0 142.0 103.0 C142.0 103.0 142.0 103.0 142.0 103.0 C142.0 103.0 142.0 103.0 142.0 103.0 C142.0 103.0 142.0 103.0 142.0 103.0 C142.0 103.0 142.0 103.0 142.0 103.0 C142.0 103.0 142.0 103.0 142.0 103.0 C142.0 103.0 142.0 103.0 142.0 103.0 C142.0 103.0 142.0 103.0 142.0 103.0 C142.0 103.0 142.0 103.0 142.0 103.0 C142.0 103.0 142.0 103.0 142.0 103.0 C142.0 103.0 142.0 103.0 142.0 103.0 C142.0 103.0 142.0 103.0 142.0 103.0 C142.0 103.0 142.0 103.0 142.0 103.0 C142.0 103.0 142.0 103.0 142.0 103.0 C142.0 103.0 142.0 103.0 142.0 103.0 C142.0 103.0 142.0 103.0 142.0 103.0 C142.0 103.0 142.0 103.0 142.0 103.0 C142.0 103.0 142.0 103.0 142.0 103.0 C142.0 103.0 142.0 103.0 142.0 103.0 C142.0 103.0 142.0 103.0 142.0 103.0 C142.0 103.0 142.0 103.0 142.0 103.0 C142.0 103.0 142.0 103.0 142.0 103.0 C142.0 103.0 142.0 103.0 142.0 103.0 C142.0 103.0 142.0 103.0 142.0 103.0 C142.0 103.0 142.0 103.0 142.0 103.0 C142.0 103.0 142.0 103.0 142.0 103.0"></path></svg>