<svg xmlns="http://www.w3.org/2000/svg" viewBox="0.0 0.0 200.0 200.0" height="200px" width="200px"><path fill="#bbeeff" fill-opacity="1.0"  filling="0" d="M199.0 100.0 C199.0 155.0 155.0 199.0 100.0 199.0 C45.0 199.0 0.0 155.0 0.0 100.0 C0.0 45.0 45.0 0.0 100.0 0.0 C155.0 0.0 199.0 45.0 199.0 100.0 L199.0 100.0 Z"></path>
<path fill="#66ddff" fill-opacity="1.0"  filling="0" d="M199.0 88.0 C198.0 95.0 197.0 102.0 195.0 109.0 C192.0 118.0 187.0 126.0 182.0 134.0 C164.0 160.0 134.0 177.0 100.0 177.0 C66.0 177.0 36.0 160.0 18.0 134.0 C13.0 126.0 8.0 118.0 5.0 109.0 C3.0 102.0 2.0 95.0 1.0 88.0 C6.0 39.0 49.0 0.0 100.0 0.0 C151.0 0.0 194.0 39.0 199.0 88.0 L199.0 88.0 Z"></path>
<path fill="#66ddff" fill-opacity="1.0"  filling="0" d="M194.0 134.0 C188.0 151.0 177.0 166.0 163.0 178.0 C121.0 173.0 79.0 173.0 37.0 178.0 C23.0 166.0 12.0 151.0 6.0 134.0 C68.0 123.0 132.0 123.0 194.0 134.0 L194.0 134.0 Z"></path>
<path fill="#ffffff" fill-opacity="1.0"  filling="0" d="M175.0 160.0 C173.0 163.0 170.0 167.0 168.0 170.0 C148.0 170.0 124.0 171.0 100.0 171.0 C76.0 171.0 52.0 170.0 32.0 170.0 C30.0 167.0 27.0 163.0 25.0 160.0 C51.0 158.0 76.0 158.0 100.0 158.0 C124.0 158.0 149.0 158.0 175.0 160.0 L175.0 160.0 Z M194.0 134.0 C188.0 151.0 177.0 166.0 163.0 178.0 C111.0 119.0 67.0 88.0 29.0 92.0 C23.0 93.0 18.0 93.0 13.0 94.0 C12.0 94.0 10.0 94.0 8.0 94.0 C7.0 94.0 7.0 94.0 6.0 94.0 C5.0 93.0 4.0 93.0 3.0 93.0 C3.0 93.0 3.0 93.0 3.0 93.0 C3.0 93.0 3.0 93.0 3.0 93.0 C0.0 95.0 0.0 102.0 1.0 109.0 C3.0 115.0 5.0 123.0 6.0 134.0 L194.0 134.0 L194.0 134.0 Z"></path>
<path fill="#ffffff" fill-opacity="1.0"  filling="0" d="M194.0 134.0 C188.0 151.0 177.0 166.0 163.0 178.0 C111.0 119.0 67.0 88.0 29.0 92.0 C23.0 93.0 18.0 93.0 13.0 94.0 C12.0 94.0 10.0 94.0 8.0 94.0 C7.0 94.0 7.0 94.0 6.0 94.0 C5.0 93.0 4.0 93.0 3.0 93.0 C3.0 93.0 3.0 93.0 3.0 93.0 C3.0 93.0 3.0 93.0 3.0 93.0 C0.0 95.0 0.0 102.0 1.0 109.0 C3.0 115.0 5.0 123.0 6.0 134.0 L194.0 134.0 L194.0 134.0 Z"></path>
<path fill="#000000" fill-opacity="1.0"  filling="0" d="M-8.0 -8.0 C169.0 20.0 176.0 51.0 167.0 73.0 C161.0 97.0 140.0 113.0 115.0 121.0 C93.0 131.0 68.0 130.0 46.0 121.0 C23.0 113.0 6.0 97.0 2.0 73.0 C0.0 51.0 4.0 20.0 17.0 9.0 C36.0 0.0 64.0 0.0 83.0 9.0 C104.0 20.0 125.0 51.0 119.0 73.0 C115.0 97.0 93.0 113.0 71.0 121.0 C53.0 131.0 30.0 130.0 12.0 121.0 C10.0 120.0 8.0 120.0 7.0 121.0 C6.0 122.0 7.0 124.0 8.0 125.0 C28.0 137.0 53.0 137.0 73.0 125.0 C95.0 118.0 117.0 98.0 123.0 73.0 C130.0 51.0 110.0 20.0 86.0 5.0 C62.0 0.0 34.0 0.0 14.0 5.0 C0.0 20.0 0.0 51.0 0.0 73.0 C3.0 98.0 22.0 118.0 44.0 125.0 C67.0 137.0 95.0 137.0 117.0 125.0 C143.0 118.0 166.0 98.0 171.0 73.0 C180.0 51.0 173.0 18.0 155.0 2.0 C154.0 0.0 153.0 0.0 152.0 2.0 C151.0 3.0 151.0 4.0 152.0 5.0 C168.0 17.0 176.0 51.0 168.0 73.0 C161.0 97.0 140.0 113.0 115.0 121.0 C93.0 131.0 68.0 130.0 46.0 121.0 C23.0 113.0 6.0 97.0 2.0 73.0 C0.0 51.0 4.0 20.0 17.0 9.0 C36.0 0.0 64.0 0.0 83.0 9.0 C104.0 20.0 125.0 51.0 119.0 73.0 C115.0 97.0 93.0 113.0 71.0 121.0 C53.0 131.0 30.0 130.0 12.0 121.0 C10.0 120.0 8.0 120.0 7.0 121.0 C6.0 122.0 7.0 124.0 8.0 125.0 C28.0 137.0 53.0 137.0 73.0 125.0 C95.0 118.0 117.0 98.0 123.0 73.0 C130.0 51.0 110.0 20.0 86.0 5.0 C62.0 0.0 34.0 0.0 14.0 5.0 C0.0 20.0 0.0 51.0 0.0 73.0 C3.0 98.0 22.0 118.0 44.0 125.0 C67.0 137.0 95.0 137.0 117.0 125.0 C143.0 118.0 166.0 98.0 171.0 73.0 C180.0 51.0 173.0 18.0 155.0 2.0 C154.0 0.0 153.0 0.0 152.0 2.0 C151.0 3.0 151.0 4.0 152.0 5.0 C168.0 17.0 176.0 51.0 168.0 73.0 C161.0 97.0 140.0 113.0 115.0 121.0 C93.0 131.0 68.0 130.0 46.0 121.0 C23.0 113.0 6.0 97.0 2.0 73.0 C0.0 51.0 4.0 20.0 17.0 9.0 C36.0 0.0 64.0 0.0 83.0 9.0 C104.0 20.0 125.0 51.0 119.0 73.0 C115.0 97.0 93.0 113.0 71.0 121.0 C53.0 131.0 30.0 130.0 12.0 121.0 C10.0 120.0 8.0 120.0 7.0 121.0 C6.0 122.0 7.0 124.0 8.0 125.0 C28.0 137.0 53.0 137.0 73.0 125.0 C95.0 118.0 117.0 98.0 123.0 73.0 C130.0 51.0 110.0 20.0 86.0 5.0 C62.0 0.0 34.0 0.0 14.0 5.0 C0.0 20.0 0.0 51.0 0.0 73.0 C3.0 98.0 22.0 118.0 44.0 125.0 C67.0 137.0 95.0 137.0 117.0 125.0 C143.0 118.0 166.0 98.0 171.0 73.0 C180.0 51.0 173.0 18.0 155.0 2.0 C154.0 0.0 153.0 0.0 152.0 2.0 C151.0 3.0 151.0 4.0 152.0 5.0 C168.0 17.0 176.0 51.0 168.0 73.0 C161.0 97.0 140.0 113.0 115.0 121.0 C93.0 131.0 68.0 130.0 46.0 121.0 C23.0 113.0 6.0 97.0 2.0 73.0 C0.0 51.0 4.0 20.0 17.0 9.0 C36.0 0.0 64.0 0.0 83.0 9.0 C104.0 20.0 125.0 51.0 119.0 73.0 C115.0 97.0 93.0 113.0 71.0 121.0 C53.0 131.0 30.0 130.0 12.0 121.0 C10.0 120.0 8.0 120.0 7.0 121.0 C6.0 122.0 7.0 124.0 8.0 125.0 C28.0 137.0 53.0 137.0 73.0 125.0 C95.0 118.0 117.0 98.0 123.0 73.0 C130.0 51.0 110.0 20.0 86.0 5.0 C62.0 0.0 34.0 0.0 14.0 5.0 C0.0 20.0 0.0 51.0 0.0 73.0 C3.0 98.0 22.0 118.0 44.0 125.0 C67.0 137.0 95.0 137.0 117.0 125.0 C143.0 118.0 166.0 98.0 171.0 73.0 C180.0 51.0 173.0 18.0 155.0 2.0 C154.0 0.0 153.0 0.0 152.0 2.0 C151.0 3.0 151.0 4.0 152.0 5.0 C168.0 17.0 176.0 51.0 168.0 73.0 C161.0 97.0 140.0 113.0 115.0 121.0 C93.0 131.0 68.0 130.0 46.0 121.0 C23.0 113.0 6.0 97.0 2.0 73.0 C0.0 51.0 4.0 20.0 17.0 9.0 C36.0 0.0 64.0 0.0 83.0 9.0 C104.0 20.0 125.0 51.0 119.0 73.0 C115.0 97.0 93.0 113.0 71.0 121.0 C53.0 131.0 30.0 130.0 12.0 121.0 C10.0 120.0 8.0 120.0 7.0 121.0 C6.0 122.0 7.0 124.0 8.0 125.0 C28.0 137.0 53.0 137.0 73.0 125.0 C95.0 132.0 117.0 126.0 136.0 119.0 C136.0 119.0 136.0 119.0 136.0 119.0 C136.0 119.0 136.0 119.0 136.0 119.0 C137.0 119.0 137.0 119.0 137.0 119.0 C137.0 119.0 137.0 119.0 137.0 119.0 C137.0 119.0 137.0 119.0 137.0 119.0 C137.0 119.0 137.0 119.0 137.0 119.0 C137.0 119.0 137.0 119.0 137.0 119.0 C137.0 119.0 137.0 119.0 137.0 119.0 C137.0 119.0 137.0 119.0 137.0 119.0 C137.0 119.0 137.0 119.0 137.0 119.0 C137.0 119.0 137.0 119.0 137.0 119.0 C137.0 119.0 137.0 119.0 137.0 119.0 C137.0 119.0 137.0 119.0 137.0 119.0 C137.0 119.0 137.0 119.0 137.0 119.0 C137.0 119.0 137.0 119.0 137.0 119.0 C137.0 119.0 137.0 119.0 137.0 119.0 C137.0 119.0 137.0 119.0 137.0 119.0 C137.0 119.0 137.0 119.0 137.0 119.0 C137.0 119.0 137.0 119.0 137.0 119.0 C137.0 119.0 137.0 119.0 137.0 119.0 C137.0 119.0 137.0 119.0 137.0 119.0 C137.0 119.0 137.0 119.0 137.0 119.0 C137.0 119.0 137.0 119.0 137.0 119.0 C137.0 119.0 137.0 119.0 137.0 119.0 C137.0 119.0 137.0 119.0 137.0 119.0 C137.0 119.0 137.0 119.0 137.0 119.0 C137.0 119.0 137.0 119.0 137.0 119.0 C137.0 119.0 137.0 119.0 137.0 119.0 C137.0 119.0 137.0 119.0 137.0 119.0 C137.0 119.0 137.0 119.0 137.0 119.0 C137.0 119.0 137.0 119.0 137.0 119.0 C137.0 119.0 137.0 119.0 137.0 119.0 C137.0 119.0 137.0 119.0 137.0 119.0 C137.0 119.0 137.0 119.0 137.0 119.0 C137.0 119.0 137.0 119.0 137.0 119.0 C137.0 119.0 137.0 119.0 137.0 119.0 C137.0 119.0 137.0 119.0 137.0 119.0 C137.0 119.0 137.0 119.0 137.0 119.0 C137.0 119.0 137.0 119.0 137.0 119.0 C137.0 119.0 137.0 119.0 137.0 119.0 C137.0 119.0 137.0 119.0 137.0 119.0 C137.0 119.0 137.0 119.0 137.0 119.0 C137.0 119.0 137.0 119.0 137.0 119.0 C137.0 119.0 137.0 119.0 137.0 119.0 C137.0 119.0 137.0 119.0 137.0 119.0 C137.0 119.0 137.0 119.0 137.0 119.0 C137.0 119.0 137.0 119.0 137.0 119.0 C137.0 119.0 137.0 119.0 137.0 119.0 C137.0 119.0 137.0 119.0 137.0 119.0 C137.0 119.0 137.0 119.0 137.0 119.0 C137.0 119.0 137.0 119.0 137.0 119.0 C137.0 119.0 137.0 119.0 137.0 119.0 C137.0 119.0 137.0 119.0 137.0 119.0 C137.0 119.0 137.0 119.0 137.0 119.0 C137.0 119.0 137.0 119.0 137.0 119.0 C137.0 119.0 137.0 119.0 137.0 119.0 C137.0 119.0 137.0 119.0 137.0 119.0 C137.0 119.0 137.0 119.0 137.0 119.0 C137.0 119.0 137.0 119.0 137.0 119.0 C137.0 119.0 137.0 119.0 137.0 119.0 C137.0 119.0 137.0 119.0 137.0 119.0 C137.0 119.0 137.0 119.0 137.0 119.0 C137.0 119.0 137.0 119.0 137.0 119.0 C137.0 119.0 137.0 119.0 137.0 119.0 C137.0 119.0 137.0 119.0 137.0 119.0 C137.0 119.0 137.0 119.0 137.0 119.0 C137.0 119.0 137.0 119.0 137.0 119.0 C137.0 119.0 137.0 119.0 137.0 119.0 C137.0 119.0 137.0 119.0 137.0 119.0 C137.0 119.0 137.0 119.0 137.0 119.0 C137.0 119.0 137.0 119.0 137.0 119.0 C137.0 119.0 137.0 119.0 137.0 119.0 C137.0 119.0 137.0 119.0 137.0 119.0 C137.0 119.0 137.0 119.0 137.0 119.0 C137.0 119.0 137.0 119.0 137.0 119.0 C137.0 119.0 137.0 119.0 137.0 119.0 C137.0 119.0 137.0 119.0 137.0 119.0 C137.0 119.0 137.0 119.0 137.0 119.0 C137.0 119.0 137.0 119.0 137.0 119.0 C137.0 119.0 137.0 119.0 137.0 119.0 C137.0 119.0 137.0 119.0 137.0 119.0 C137.0 119.0 137.0 119.0 137.0 119.0 C137.0 119.0 137.0 119.0 137.0 119.0 C137.0 119.0 137.0 119.0 137.0 119.0 C137.0 119.0 137.0 119.0 137.0 119.0 C137.0 119.0 137.0 119.0 137.0 119.0 C137.0 119.0 137.0 119.0 137.0 119.0 C137.0 119.0 137.0 119.0 137.0 119.0 C137.0 119.0 137.0 119.0 137.0 119.0 C137.0 119.0 137.0 119.0 137.0 119.0 C137.0 119.0 137.0 119.0 137.0 119.0 C137.0 119.0 137.0 119.0 137.0 119.0 C137.0 119.0 137.0 119.0 137.0 119.0 C137.0 119.0 137.0 119.0 137.0 119.0 C137.0 119.0 137.0 119.0 137.0 119.0 C137.0 119.0 137.0 119.0 137.0 119.0 C137.0 119.0 137.0 119.0 137.0 119.0 C137.0 119.0 137.0 119.0 137.0 119.0 C137.0 119.0 137.0 119.0 137.0 119.0 C137.0 119.0 137.0 119.0 137.0 119.0 C137.0 119.0 137.0 119.0 137.0 119.0 C137.0 119.0 137.0 119.0 137.0 119.0 C137.0 119.0 137.0 119.0 137.0 119.0 C137.0 119.0 137.0 119.0 137.0 119.0 C137.0 119.0 137.0 119.0 137.0 119.0 C137.0 119.0 137.0 119.0 137.0 119.0 C137.0 119.0 137.0 119.0 137.0 119.0 C137.0 119.0 137.0 119.0 137.0 119.0 C137.0 119.0 137.0 119.0 137.0 119.0 C137.0 119.0 137.0 119.0 137.0 119.0 C137.0 119.0 137.0 119.0 137.0 119.0 C137.0 119.0 137.0 119.0 137.0 119.0 C137.0 119.0 137.0 119.0 137.0 119.0 C137.0 119.0 137.0 119.0 137.0 119.0 C137.0 119.0 137.0 119.0 137.0 119.0 C137.0 119.0 137.0 119.0 137.0 119.0 C137.0 119.0 137.0 119.0 137.0 119.0 C137.0 119.0 137.0 119.0 137.0 119.0 C137.0 119.0 137.0 119.0 137.0 119.0 C137.0 119.0 137.0 119.0 137.0 119.0 C137.0 119.0 137.0 119.0 137.0 119.0 C137.0 119.0 137.0 119.0 137.0 119.0 C137.0 119.0 137.0 119.0 137.0 119.0 C137.0 119.0 137.0 119.0 137.0 119.0 C137.0 119.0 137.0 119.0 137.0 119.0 C137.0 119.0 137.0 119.0 137.0 119.0 C137.0 119.0 137.0 119.0 137.0 119.0 C137.0 119.0 137.0 119.0 137.0 119.0 C137.0 119.0 137.0 119.0 137.0 119.0 C137.0 119.0 137.0 119.0 137.0 119.0 C137.0 119.0 137.0 119.0 137.0 119.0 C137.0 119.0 137.0 119.0 137.0 119.0 C137.0 119.0 137.0 119.0 137.0 119.0 C137.0 119.0 137.0 119.0 137.0 119.0 C137.0 119.0 137.0 119.0 137.0 119.0 C137.0 119.0 137.0 119.0 137.0 119.0 C137.0 119.0 137.0 119.0 137.0 119.0 C137.0 119.0 137.0 119.0 137.0 119.0 C137.0 119.0 137.0 119.0 137.0 119.0 C137.0 119.0 137.0 119.0 137.0 119.0 C137.0 119.0 137.0 119.0 137.0 119.0 C137.0 119.0 137.0 119.0 137.0 119.0 C137.0 119.0 137.0 119.0 137.0 119.0 C137.0 119.0 137.0 119.0 137.0 119.0 C137.0 119.0 137.0 119.0 137.0 119.0 C137.0 119.0 137.0 119.0 137.0 119.0 C137.0 119.0 137.0 119.0 137.0 119.0 C137.0 119.0 137.0 119.0 137.0 119.0 C137.0 119.0 137.0 119.0 137.0 119.0 C137.0 119.0 137.0 119.0 137.0 119.0 C137.0 119.0 137.0 119.0 137.0 119.0 C137.0 119.0 137.0 119.0 137.0 119.0 C137.0 119.0 137.0 119.0 137.0 119.0 C137.0 119.0 137.0 119.0 137.0 119.0 C137.0 119.0 137.0 119.0 137.0 119.0 C137.0 119.0 137.0 119.0 137.0 119.0 C137.0 119.0 137.0 119.0 137.0 119.0 C137.0 119.0 137.0 119.0 137.0 119.0 C137.0 119.0 137.0 119.0 137.0 119.0 C137.0 119.0 137.0 119.0 137.0 119.0 C137.0 119.0 137.0 119.0 137.0 119.0 C187.0 119.0 187.0 119.0 187.0 119.0 C187.0 119.0 187.0 119.0 187.0 119.0 C187.0 119.0 187.0 119.0 187.0 119.0 C187.0 119.0 187.0 119.0 187.0 119.0 C187.0 119.0 187.0 119.0 187.0 119.0 C187.0 119.0 187.0 119.0 187.0 119.0 C187.0 119.0 187.0 119.0 187.0 119.0 C187.0 119.0 187.0 119.0 187.0 119.0 C187.0 119.0 187.0 119.0 187.0 119.0 C187.0 119.0 187.0 119.0 187.0 119.0 C187.0 119.0 187.0 119.0 187.0 119.0 C187.0 119.0 187.0 119.0 187.0 119.0 C187.0 119.0 187.0 119.0 187.0 119.0 C187.0 119.0 187.0 119.0 187.0 119.0 C187.0 119.0 187.0 119.0 187.0 119.0 C187.0 119.0 187.0 119.0 187.0 119.0 C187.0 119.0 187.0 119.0 187.0 119.0 C187.0 119.0 187.0 119.0 187.0 119.0 C187.0 119.0 187.0 119.0 187.0 119.0 C187.0 119.0 187.0 119.0 187.0 119.0 C187.0 119.0 187.0 119.0 187.0 119.0 C187.0 119.0 187.0 119.0 187.0 119.0 C187.0 119.0 187.0 119.0 187.0 119.0 C187.0 119.0 187.0 119.0 187.0 119.0 C187.0 119.0 187.0 119.0 187.0 119.0 C187.0 119.0 187.0 119.0 187.0 119.0 C187.0 119.0 187.0 119.0 187.0 119.0 C187.0 119.0 187.0 119.0 187.0 119.0 C187.0 119.0 187.0 119.0 187.0 119.0 C187.0 119.0 187.0 119.0 187.0 119.0 C187.0 119.0 187.0 119.0 187.0 119.0 C187.0 119.0 187.0 119.0 187.0 119.0 C187.0 119.0 187.0 119.0 187.0 119.0 C187.0 119.0 187.0 119.0 187.0 119.0 C187.0 119.0 187.0 119.0 187.0 119.0 C187.0 119.0 187.0 119.0 187.0 119.0 C187.0 119.0 187.0 119.0 187.0 119.0 C187.0 119.0 187.0 119.0 187.0 119.0 C187.0 119.0 187.0 119.0 187.0 119.0 C187.0 119.0 187.0 119.0 187.0 119.0 C187.0 119.0 187.0 119.0 187.0 119.0 C187.0 119.0 187.0 119.0 187.0 119.0 C187.0 119.0 187.0 119.0 187.0 119.0 C187.0 119.0 187.0 119.0 187.0 119.0 C187.0 119.0 187.0 119.0 187.0 119.0 C187.0 119.0 187.0 119.0 187.0 119.0 C187.0 119.0 187.0 119.0 187.0 119.0 C187.0 119.0 187.0 119.0 187.0 119.0 C187.0 119.0 187.0 119.0 187.0 119.0 C187.0 119.0 187.0 119.0 187.0 119.0 C187.0 119.0 187.0 119.0 187.0 119.0 C187.0 119.0 187.0 119.0 187.0 119.0 C187.0 119.0 187.0 119.0 187.0 119.0 C187.0 119.0 187.0 119.0 187.0 119.0 C187.0 119.0 187.0 119.0 187.0 119.0 C187.0 119.0 187.0 119.0 187.0 119.0 C187.0 119.0 187.0 119.0 187.0 119.0"></path></svg>