<svg xmlns="http://www.w3.org/2000/svg" viewBox="0.0 0.0 200.0 200.0" height="200px" width="200px"><path fill="#ffee88" fill-opacity="1.0"  filling="0" d="M91.0 119.0 L80.0 119.0 C73.0 119.0 66.0 123.0 63.0 129.0 L58.0 142.0 L57.0 142.0 C52.0 142.0 49.0 146.0 49.0 150.0 L49.0 167.0 L126.0 167.0 L126.0 104.0 L100.0 104.0 C96.0 111.0 94.0 116.0 91.0 119.0 L91.0 119.0 Z"></path>
<path fill="#ffdd88" fill-opacity="1.0"  filling="0" d="M81.0 138.0 L80.0 119.0 L80.0 119.0 C73.0 119.0 66.0 123.0 63.0 129.0 L58.0 142.0 L57.0 142.0 C52.0 142.0 49.0 146.0 49.0 150.0 L49.0 167.0 L74.0 167.0 C74.0 158.0 75.0 148.0 81.0 138.0 L81.0 138.0 Z"></path>
<path fill="#ffbb99" fill-opacity="1.0"  filling="0" d="M51.0 121.0 L51.0 121.0 C41.0 121.0 33.0 114.0 33.0 104.0 L33.0 91.0 L97.0 91.0 L97.0 104.0 C97.0 114.0 89.0 121.0 79.0 121.0 L79.0 121.0 L51.0 121.0 L51.0 121.0 Z"></path>
<path fill="#ffbb99" fill-opacity="1.0"  filling="0" d="M75.0 100.0 L59.0 100.0 C51.0 100.0 44.0 93.0 44.0 85.0 L44.0 69.0 L97.0 69.0 L97.0 85.0 C97.0 93.0 89.0 100.0 81.0 100.0 L75.0 100.0 L75.0 100.0 Z"></path>
<path fill="#ee9966" fill-opacity="1.0"  filling="0" d="M69.0 69.0 L44.0 69.0 L44.0 85.0 C44.0 93.0 51.0 100.0 59.0 100.0 L69.0 100.0 L69.0 69.0 L69.0 69.0 Z"></path>
<path fill="#ee9966" fill-opacity="1.0"  filling="0" d="M81.0 69.0 L97.0 69.0 L97.0 85.0 C97.0 93.0 89.0 100.0 81.0 100.0 L81.0 100.0 L81.0 69.0 L81.0 69.0 Z"></path>
<path fill="#ffaa88" fill-opacity="1.0"  filling="0" d="M56.0 69.0 L44.0 69.0 L44.0 85.0 C44.0 93.0 51.0 100.0 59.0 100.0 L69.0 100.0 L69.0 69.0 L56.0 69.0 L56.0 69.0 Z"></path>
<path fill="#ffaa88" fill-opacity="1.0"  filling="0" d="M81.0 69.0 L94.0 69.0 L94.0 85.0 C94.0 93.0 88.0 100.0 81.0 100.0 L81.0 100.0 L81.0 69.0 L81.0 69.0 Z"></path>
<path fill="#ffdd88" fill-opacity="1.0"  filling="0" d="M81.0 69.0 L44.0 69.0 C44.0 56.0 47.0 47.0 49.0 41.0 C51.0 38.0 54.0 36.0 57.0 36.0 L76.0 36.0 C80.0 36.0 83.0 38.0 84.0 41.0 C86.0 47.0 89.0 56.0 89.0 69.0 L81.0 69.0 L81.0 69.0 Z"></path>
<path fill="#ff8899" fill-opacity="1.0"  filling="0" d="M41370.0 41370.0 A33.0 33.0 0.0 1 1 192.0 129.0 L192.0 129.0 Z"></path>
<path fill="#ffee88" fill-opacity="1.0"  filling="0" d="M139.0 105.0 C132.0 105.0 125.0 107.0 120.0 111.0 L120.0 159.0 C125.0 164.0 132.0 167.0 139.0 167.0 C153.0 167.0 165.0 156.0 165.0 142.0 C165.0 125.0 153.0 111.0 139.0 105.0 L139.0 105.0 Z"></path>
<path fill="#ffdd88" fill-opacity="1.0"  filling="0" d="M150.0 150.0 C148.0 150.0 147.0 149.0 146.0 148.0 L136.0 136.0 C134.0 134.0 134.0 131.0 136.0 129.0 C138.0 127.0 141.0 127.0 143.0 129.0 L154.0 141.0 C156.0 143.0 156.0 146.0 154.0 148.0 C153.0 149.0 151.0 150.0 150.0 150.0 L150.0 150.0 Z"></path>
<path fill="#ffdd88" fill-opacity="1.0"  filling="0" d="M139.0 150.0 C138.0 150.0 137.0 149.0 136.0 148.0 C134.0 146.0 134.0 143.0 136.0 141.0 L146.0 129.0 C148.0 127.0 152.0 127.0 154.0 129.0 C156.0 131.0 156.0 134.0 154.0 136.0 L143.0 148.0 C142.0 149.0 141.0 150.0 139.0 150.0 L139.0 150.0 Z"></path>
<path fill="#000000" fill-opacity="1.0"  filling="0" d="M199.0 104.0 C199.0 104.0 199.0 104.0 199.0 104.0 C199.0 102.0 197.0 101.0 195.0 101.0 C193.0 101.0 192.0 102.0 192.0 104.0 C192.0 104.0 192.0 104.0 192.0 104.0 C192.0 106.0 194.0 107.0 196.0 107.0 C198.0 107.0 199.0 106.0 199.0 104.0 C199.0 104.0 199.0 104.0 199.0 104.0 L199.0 104.0 Z"></path>
<path fill="#000000" fill-opacity="1.0"  filling="0" d="M199.0 97.0 C199.0 97.0 199.0 97.0 199.0 97.0 C199.0 97.0 199.0 97.0 199.0 97.0 C199.0 97.0 199.0 97.0 199.0 97.0 C199.0 97.0 199.0 97.0 199.0 97.0 C199.0 97.0 199.0 97.0 199.0 97.0 C199.0 97.0 199.0 97.0 199.0 97.0 C199.0 97.0 199.0 97.0 199.0 97.0 C199.0 97.0 199.0 97.0 199.0 97.0 C199.0 97.0 199.0 97.0 199.0 97.0 C199.0 97.0 199.0 97.0 199.0 97.0 C199.0 97.0 199.0 97.0 199.0 97.0 C199.0 97.0 199.0 97.0 199.0 97.0 C199.0 97.0 199.0 97.0 199.0 97.0 C199.0 97.0 199.0 97.0 199.0 97.0 C199.0 97.0 199.0 97.0 199.0 97.0 C199.0 97.0 199.0 97.0 199.0 97.0 C199.0 97.0 199.0 97.0 199.0 97.0 C199.0 97.0 199.0 97.0 199.0 97.0 C199.0 97.0 199.0 97.0 199.0 97.0 C199.0 97.0 199.0 97.0 199.0 97.0 C199.0 97.0 199.0 97.0 199.0 97.0 C199.0 97.0 199.0 97.0 199.0 97.0 C199.0 97.0 199.0 97.0 199.0 97.0 C199.0 97.0 199.0 97.0 199.0 97.0 C199.0 97.0 199.0 97.0 199.0 97.0 C199.0 97.0 199.0 97.0 199.0 97.0 C199.0 97.0 199.0 97.0 199.0 97.0 C199.0 97.0 199.0 97.0 199.0 97.0 C199.0 97.0 199.0 97.0 199.0 97.0 C199.0 97.0 199.0 97.0 199.0 97.0 C199.0 97.0 199.0 97.0 199.0 97.0 C199.0 97.0 199.0 97.0 199.0 97.0 C199.0 97.0 199.0 97.0 199.0 97.0 C199.0 97.0 199.0 97.0 199.0 97.0 C199.0 97.0 199.0 97.0 199.0 97.0 C199.0 97.0 199.0 97.0 199.0 97.0 C199.0 97.0 199.0 97.0 199.0 97.0 C199.0 97.0 199.0 97.0 199.0 97.0 C199.0 97.0 199.0 97.0 199.0 97.0 C199.0 97.0 199.0 97.0 199.0 97.0 C199.0 97.0 199.0 97.0 199.0 97.0 C199.0 97.0 199.0 97.0 199.0 97.0 C199.0 97.0 199.0 97.0 199.0 97.0 C199.0 97.0 199.0 97.0 199.0 97.0 C199.0 97.0 199.0 97.0 199.0 97.0 C199.0 97.0 199.0 97.0 199.0 97.0 C199.0 97.0 199.0 97.0 199.0 97.0 C199.0 97.0 199.0 97.0 199.0 97.0 C199.0 97.0 199.0 97.0 199.0 97.0 C199.0 97.0 199.0 97.0 199.0 97.0 C199.0 97.0 199.0 97.0 199.0 97.0 C199.0 97.0 199.0 97.0 199.0 97.0 C199.0 97.0 199.0 97.0 199.0 97.0 C199.0 97.0 199.0 97.0 199.0 97.0 C199.0 97.0 199.0 97.0 199.0 97.0 C199.0 97.0 199.0 97.0 199.0 97.0 C199.0 97.0 199.0 97.0 199.0 97.0 C199.0 97.0 199.0 97.0 199.0 97.0 C199.0 97.0 199.0 97.0 199.0 97.0 C199.0 97.0 199.0 97.0 199.0 97.0 C199.0 97.0 199.0 97.0 199.0 97.0 C199.0 97.0 199.0 97.0 199.0 97.0 C199.0 97.0 199.0 97.0 199.0 97.0 C199.0 97.0 199.0 97.0 199.0 97.0 C199.0 97.0 199.0 97.0 199.0 97.0 C199.0 97.0 199.0 97.0 199.0 97.0 C199.0 97.0 199.0 97.0 199.0 97.0 C199.0 97.0 199.0 97.0 199.0 97.0 C199.0 97.0 199.0 97.0 199.0 97.0 C199.0 97.0 199.0 97.0 199.0 97.0 C199.0 97.0 199.0 97.0 199.0 97.0 C199.0 97.0 199.0 97.0 199.0 97.0 C199.0 97.0 199.0 97.0 199.0 97.0 C199.0 97.0 199.0 97.0 199.0 97.0 C199.0 97.0 199.0 97.0 199.0 97.0 C199.0 97.0 199.0 97.0 199.0 97.0 C199.0 97.0 199.0 97.0 199.0 97.0 C199.0 97.0 199.0 97.0 199.0 97.0 C199.0 97.0 199.0 97.0 199.0 97.0 C199.0 97.0 199.0 97.0 199.0 97.0 C199.0 97.0 199.0 97.0 199.0 97.0 C199.0 97.0 199.0 97.0 199.0 97.0 C199.0 97.0 199.0 97.0 199.0 97.0 C199.0 97.0 199.0 97.0 199.0 97.0 C199.0 97.0 199.0 97.0 199.0 97.0 C199.0 97.0 199.0 97.0 199.0 97.0 C199.0 97.0 199.0 97.0 199.0 97.0 C199.0 97.0 199.0 97.0 199.0 97.0 C199.0 97.0 199.0 97.0 199.0 97.0 C199.0 97.0 199.0 97.0 199.0 97.0 C199.0 97.0 199.0 97.0 199.0 97.0 C199.0 97.0 199.0 97.0 199.0 97.0 C199.0 97.0 199.0 97.0 199.0 97.0 C199.0 97.0 199.0 97.0 199.0 97.0 C199.0 97.0 199.0 97.0 199.0 97.0 C199.0 97.0 199.0 97.0 199.0 97.0 C199.0 97.0 199.0 97.0 199.0 97.0 C199.0 97.0 199.0 97.0 199.0 97.0 C199.0 97.0 199.0 97.0 199.0 97.0 C199.0 97.0 199.0 97.0 199.0 97.0 C199.0 97.0 199.0 97.0 199.0 97.0 C199.0 97.0 199.0 97.0 199.0 97.0 C199.0 97.0 199.0 97.0 199.0 97.0 C199.0 97.0 199.0 97.0 199.0 97.0 C199.0 97.0 199.0 97.0 199.0 97.0 C199.0 97.0 199.0 97.0 199.0 97.0 C199.0 97.0 199.0 97.0 199.0 97.0 C199.0 97.0 199.0 97.0 199.0 97.0 C199.0 97.0 199.0 97.0 199.0 97.0 C199.0 97.0 199.0 97.0 199.0 97.0 C199.0 97.0 199.0 97.0 199.0 97.0 C199.0 97.0 199.0 97.0 199.0 97.0 C199.0 97.0 199.0 97.0 199.0 97.0 C199.0 97.0 199.0 97.0 199.0 97.0 C199.0 97.0 199.0 97.0 199.0 97.0 C199.0 97.0 199.0 97.0 199.0 97.0 C199.0 97.0 199.0 97.0 199.0 97.0 C199.0 97.0 199.0 97.0 199.0 97.0 C199.0 97.0 199.0 97.0 199.0 97.0 C199.0 97.0 199.0 97.0 199.0 97.0 C199.0 97.0 199.0 97.0 199.0 97.0 C199.0 97.0 199.0 97.0 199.0 97.0 C199.0 97.0 199.0 97.0 199.0 97.0 C199.0 97.0 199.0 97.0 199.0 97.0 C199.0 97.0 199.0 97.0 199.0 97.0 C199.0 97.0 199.0 97.0 199.0 97.0 C199.0 97.0 199.0 97.0 199.0 97.0 C199.0 97.0 199.0 97.0 199.0 97.0 C199.0 97.0 199.0 97.0 199.0 97.0 C199.0 97.0 199.0 97.0 199.0 97.0 C199.0 97.0 199.0 97.0 199.0 97.0 C199.0 97.0 199.0 97.0 199.0 97.0 C199.0 97.0 199.0 97.0 199.0 97.0 C199.0 97.0 199.0 97.0 199.0 97.0 C199.0 97.0 199.0 97.0 199.0 97.0 C199.0 97.0 199.0 97.0 199.0 97.0 C199.0 97.0 199.0 97.0 199.0 97.0 C199.0 97.0 199.0 97.0 199.0 97.0 C199.0 97.0 199.0 97.0 199.0 97.0 C199.0 97.0 199.0 97.0 199.0 97.0 C199.0 97.0 199.0 97.0 199.0 97.0 C199.0 97.0 199.0 97.0 199.0 97.0 C199.0 97.0 199.0 97.0 199.0 97.0 C199.0 97.0 199.0 97.0 199.0 97.0 C199.0 97.0 199.0 97.0 199.0 97.0 C199.0 97.0 199.0 97.0 199.0 97.0 C199.0 97.0 199.0 97.0 199.0 97.0 C199.0 97.0 199.0 97.0 199.0 97.0 C199.0 97.0 199.0 97.0 199.0 97.0 C199.0 97.0 199.0 97.0 199.0 97.0 C199.0 97.0 199.0 97.0 199.0 97.0 C199.0 97.0 199.0 97.0 199.0 97.0 C199.0 97.0 199.0 97.0 199.0 97.0 C199.0 97.0 199.0 97.0 199.0 97.0 C199.0 97.0 199.0 97.0 199.0 97.0 C199.0 97.0 199.0 97.0 199.0 97.0 C199.0 97.0 199.0 97.0 199.0 97.0 C199.0 97.0 199.0 97.0 199.0 97.0 C199.0 97.0 199.0 97.0 199.0 97.0 C199.0 97.0 199.0 97.0 199.0 97.0 C199.0 97.0 199.0 97.0 199.0 97.0 C199.0 97.0 199.0 97.0 199.0 97.0 C199.0 97.0 199.0 97.0 199.0 97.0 C199.0 97.0 199.0 97.0 199.0 97.0 C199.0 97.0 199.0 97.0 199.0 97.0 C199.0 97.0 199.0 97.0 199.0 97.0 C199.0 97.0 199.0 97.0 199.0 97.0 C199.0 97.0 199.0 97.0 199.0 97.0 C199.0 97.0 199.0 97.0 199.0 97.0 C199.0 97.0 199.0 97.0 199.0 97.0 C199.0 97.0 199.0 97.0 199.0 97.0 C199.0 97.0 199.0 97.0 199.0 97.0 C199.0 97.0 199.0 97.0 199.0 97.0 C199.0 97.0 199.0 97.0 199.0 97.0 C199.0 97.0 199.0 97.0 199.0 97.0 C199.0 97.0 199.0 97.0 199.0 97.0 C199.0 97.0 199.0 97.0 199.0 97.0 C199.0 97.0 199.0 97.0 199.0 97.0 C199.0 97.0 199.0 97.0 199.0 97.0 C199.0 97.0 199.0 97.0 199.0 97.0 C199.0 97.0 199.0 97.0 199.0 97.0 C199.0 97.0 199.0 97.0 199.0 97.0 C199.0 97.0 199.0 97.0 199.0 97.0 C199.0 97.0 199.0 97.0 199.0 97.0 C199.0 97.0 199.0 97.0 199.0 97.0 C199.0 97.0 199.0 97.0 199.0 97.0 C199.0 97.0 199.0 97.0 199.0 97.0 C199.0 97.0 199.0 97.0 199.0 97.0 C199.0 97.0 199.0 97.0 199.0 97.0 C199.0 97.0 199.0 97.0 199.0 97.0 C199.0 97.0 199.0 97.0 199.0 97.0 C199.0 97.0 199.0 97.0 199.0 97.0 C199.0 97.0 199.0 97.0 199.0 97.0 C199.0 97.0 199.0 97.0 199.0 97.0 C199.0 97.0 199.0 97.0 199.0 97.0 C199.0 97.0 199.0 97.0 199.0 97.0 C199.0 97.0 199.0 97.0 199.0 97.0 C199.0 97.0 199.0 97.0 199.0 97.0 C199.0 97.0 199.0 97.0 199.0 97.0 C199.0 97.0 199.0 97.0 199.0 97.0 C199.0 97.0 199.0 97.0 199.0 97.0 C199.0 97.0 199.0 97.0 199.0 97.0 C199.0 97.0 199.0 97.0 199.0 97.0 C199.0 97.0 199.0 97.0 199.0 97.0 C199.0 97.0 199.0 97.0 199.0 97.0 C199.0 97.0 100.0 100.0 100.0 100.0 C99.0 100.0 98.0 101.0 98.0 102.0 L98.0 104.0 C98.0 108.0 96.0 106.0 95.0 106.0 C94.0 106.0 92.0 108.0 92.0 110.0 C92.0 114.0 87.0 117.0 81.0 117.0 L79.0 117.0 C73.0 117.0 67.0 120.0 64.0 125.0 L56.0 138.0 C49.0 139.0 45.0 144.0 45.0 150.0 L45.0 166.0 C45.0 168.0 46.0 170.0 49.0 170.0 L126.0 170.0 C127.0 170.0 129.0 169.0 129.0 167.0 C129.0 165.0 127.0 164.0 126.0 164.0 L52.0 164.0 L52.0 150.0 C52.0 147.0 54.0 145.0 57.0 145.0 L58.0 145.0 C59.0 145.0 60.0 144.0 61.0 143.0 L67.0 131.0 C69.0 126.0 74.0 123.0 79.0 123.0 L81.0 123.0 C88.0 123.0 94.0 120.0 97.0 115.0 C101.0 113.0 103.0 109.0 103.0 104.0 L103.0 103.0 C103.0 101.0 102.0 100.0 101.0 100.0 L101.0 97.0 C103.0 93.0 106.0 89.0 106.0 85.0 L106.0 69.0 C106.0 68.0 104.0 66.0 103.0 66.0 L92.0 66.0 C92.0 54.0 89.0 46.0 87.0 40.0 C85.0 35.0 81.0 33.0 76.0 33.0 L57.0 33.0 C53.0 33.0 49.0 35.0 47.0 40.0 C45.0 46.0 42.0 54.0 41.0 66.0 L33.0 66.0 C31.0 66.0 30.0 68.0 30.0 69.0 L30.0 85.0 C30.0 89.0 30.0 93.0 30.0 96.0 L30.0 104.0 C30.0 115.0 38.0 123.0 48.0 124.0 C48.0 125.0 49.0 127.0 50.0 128.0 C51.0 129.0 52.0 129.0 53.0 129.0 C54.0 129.0 54.0 129.0 55.0 128.0 C56.0 127.0 56.0 125.0 55.0 124.0 C55.0 124.0 54.0 123.0 54.0 123.0 L59.0 123.0 C62.0 118.0 67.0 115.0 73.0 114.0 C75.0 113.0 76.0 112.0 76.0 110.0 C76.0 108.0 74.0 106.0 72.0 106.0 L59.0 106.0 C50.0 106.0 42.0 98.0 40.0 88.0 L39.0 88.0 C37.0 88.0 36.0 87.0 36.0 85.0 C36.0 83.0 37.0 82.0 39.0 82.0 L40.0 82.0 L40.0 72.0 L99.0 72.0 L99.0 85.0 C99.0 90.0 96.0 95.0 92.0 98.0 C89.0 97.0 86.0 96.0 82.0 96.0 L59.0 96.0 C53.0 96.0 48.0 91.0 48.0 85.0 L48.0 82.0 L53.0 82.0 C55.0 82.0 56.0 80.0 56.0 79.0 C56.0 77.0 55.0 76.0 53.0 76.0 L48.0 76.0 L48.0 72.0 L99.0 72.0 L99.0 68.0 L94.0 68.0 L94.0 68.0 C94.0 67.0 94.0 66.0 92.0 66.0 L40.0 66.0 C39.0 66.0 38.0 67.0 38.0 68.0 L38.0 68.0 C38.0 70.0 37.0 72.0 35.0 72.0 C34.0 72.0 32.0 70.0 32.0 68.0 C32.0 68.0 32.0 68.0 32.0 68.0 C32.0 66.0 34.0 66.0 35.0 66.0"></path></svg>