<svg xmlns="http://www.w3.org/2000/svg" viewBox="0.0 0.0 200.0 200.0" height="200px" width="200px"><path fill="currentColor" fill-opacity="1.0"  filling="0" d="M167.0 155.0 C164.0 153.0 161.0 150.0 161.0 149.0 C159.0 148.0 158.0 146.0 157.0 145.0 C155.0 143.0 154.0 142.0 152.0 140.0 C149.0 138.0 146.0 138.0 144.0 138.0 C141.0 138.0 138.0 140.0 135.0 142.0 C133.0 143.0 131.0 145.0 131.0 145.0 C131.0 145.0 130.0 144.0 129.0 142.0 C129.0 142.0 127.0 139.0 126.0 138.0 C124.0 136.0 123.0 135.0 121.0 134.0 C119.0 133.0 116.0 132.0 116.0 132.0 C116.0 132.0 115.0 130.0 114.0 127.0 C113.0 124.0 112.0 122.0 112.0 122.0 C112.0 122.0 111.0 120.0 111.0 118.0 C111.0 116.0 110.0 113.0 110.0 113.0 C110.0 113.0 110.0 110.0 110.0 107.0 C110.0 105.0 110.0 102.0 110.0 102.0 C110.0 102.0 111.0 101.0 112.0 98.0 C113.0 96.0 113.0 94.0 113.0 94.0 C113.0 94.0 113.0 93.0 112.0 91.0 C112.0 89.0 110.0 87.0 110.0 87.0 C110.0 87.0 110.0 85.0 111.0 82.0 C112.0 80.0 112.0 78.0 112.0 78.0 C112.0 78.0 112.0 76.0 112.0 74.0 C112.0 72.0 112.0 70.0 112.0 70.0 C112.0 70.0 111.0 68.0 111.0 66.0 C111.0 64.0 109.0 62.0 109.0 62.0 C109.0 62.0 108.0 60.0 107.0 58.0 C107.0 55.0 105.0 53.0 105.0 53.0 C105.0 53.0 104.0 51.0 103.0 49.0 C102.0 47.0 100.0 46.0 100.0 46.0 C100.0 46.0 98.0 47.0 97.0 49.0 C96.0 51.0 95.0 53.0 95.0 53.0 C95.0 53.0 93.0 55.0 93.0 58.0 C92.0 60.0 91.0 62.0 91.0 62.0 C91.0 62.0 89.0 64.0 89.0 66.0 C88.0 68.0 88.0 70.0 88.0 70.0 C88.0 70.0 88.0 72.0 88.0 74.0 C88.0 76.0 88.0 78.0 88.0 78.0 C88.0 78.0 88.0 80.0 89.0 82.0 C90.0 85.0 90.0 87.0 90.0 87.0 C90.0 87.0 88.0 89.0 88.0 91.0 C87.0 93.0 87.0 94.0 87.0 94.0 C87.0 94.0 87.0 96.0 88.0 98.0 C89.0 101.0 90.0 102.0 90.0 102.0 C90.0 102.0 90.0 105.0 90.0 107.0 C90.0 110.0 90.0 113.0 90.0 113.0 C90.0 113.0 89.0 116.0 89.0 118.0 C89.0 120.0 88.0 122.0 88.0 122.0 C88.0 122.0 87.0 124.0 86.0 127.0 C85.0 130.0 84.0 132.0 84.0 132.0 C84.0 132.0 81.0 133.0 79.0 134.0 C77.0 135.0 76.0 136.0 74.0 138.0 C73.0 139.0 71.0 142.0 71.0 142.0 C70.0 144.0 69.0 145.0 69.0 145.0 C69.0 145.0 67.0 143.0 65.0 142.0 C62.0 140.0 59.0 138.0 56.0 138.0 C54.0 138.0 51.0 138.0 48.0 140.0 C46.0 142.0 45.0 143.0 43.0 145.0 C42.0 146.0 41.0 148.0 39.0 149.0 C39.0 150.0 36.0 153.0 33.0 155.0 C31.0 157.0 29.0 158.0 27.0 158.0 C25.0 159.0 21.0 160.0 20.0 161.0 C18.0 162.0 17.0 163.0 15.0 165.0 C14.0 166.0 13.0 168.0 13.0 169.0 C13.0 171.0 14.0 172.0 14.0 174.0 C15.0 176.0 16.0 177.0 18.0 178.0 C18.0 178.0 21.0 179.0 24.0 180.0 C26.0 181.0 29.0 182.0 32.0 183.0 C36.0 184.0 40.0 185.0 45.0 186.0 C49.0 186.0 52.0 187.0 56.0 188.0 C60.0 188.0 64.0 189.0 68.0 190.0 C72.0 190.0 75.0 191.0 79.0 191.0 C81.0 191.0 83.0 191.0 85.0 191.0 C86.0 191.0 88.0 191.0 90.0 191.0 C91.0 191.0 93.0 190.0 95.0 190.0 C97.0 190.0 98.0 190.0 100.0 190.0 L102.0 190.0 C102.0 190.0 103.0 190.0 105.0 190.0 C107.0 190.0 109.0 191.0 111.0 191.0 C112.0 191.0 114.0 191.0 115.0 191.0 C117.0 191.0 119.0 191.0 121.0 191.0 C125.0 191.0 128.0 190.0 132.0 190.0 C136.0 189.0 140.0 188.0 144.0 188.0 C148.0 187.0 151.0 186.0 155.0 186.0 C160.0 185.0 164.0 184.0 168.0 183.0 C171.0 182.0 174.0 181.0 176.0 181.0 C179.0 179.0 182.0 178.0 182.0 178.0 C184.0 177.0 185.0 176.0 186.0 174.0 C186.0 172.0 187.0 171.0 187.0 169.0 C187.0 168.0 186.0 166.0 185.0 165.0 C183.0 163.0 182.0 162.0 180.0 161.0 C179.0 160.0 175.0 159.0 173.0 158.0 C171.0 158.0 169.0 157.0 167.0 155.0 L167.0 155.0 Z"></path></svg>