<svg xmlns="http://www.w3.org/2000/svg" viewBox="0.0 0.0 200.0 200.0" height="200px" width="200px"><path fill="#000000" fill-opacity="1.0"  filling="0" d="M115.0 164.0 C111.0 159.0 107.0 152.0 106.0 145.0 C106.0 144.0 106.0 144.0 106.0 144.0 C105.0 136.0 106.0 129.0 108.0 122.0 C109.0 120.0 109.0 118.0 110.0 116.0 C112.0 115.0 114.0 114.0 116.0 112.0 C117.0 111.0 118.0 110.0 119.0 109.0 C120.0 108.0 120.0 108.0 120.0 107.0 C124.0 104.0 127.0 100.0 130.0 96.0 C130.0 96.0 130.0 96.0 130.0 96.0 C131.0 95.0 132.0 94.0 132.0 93.0 C133.0 92.0 133.0 92.0 134.0 91.0 C137.0 88.0 140.0 85.0 142.0 82.0 C143.0 81.0 143.0 80.0 144.0 79.0 C145.0 78.0 145.0 77.0 146.0 76.0 L146.0 75.0 L147.0 75.0 C147.0 74.0 147.0 74.0 147.0 74.0 C148.0 74.0 148.0 73.0 149.0 73.0 C149.0 73.0 150.0 73.0 150.0 73.0 C151.0 72.0 151.0 72.0 152.0 72.0 C154.0 72.0 155.0 72.0 157.0 73.0 C158.0 73.0 160.0 73.0 161.0 74.0 C162.0 74.0 163.0 74.0 164.0 75.0 C164.0 75.0 164.0 75.0 164.0 75.0 C164.0 75.0 164.0 75.0 164.0 75.0 C164.0 75.0 164.0 75.0 164.0 75.0 C164.0 75.0 164.0 75.0 164.0 75.0 C164.0 75.0 164.0 75.0 164.0 75.0 C164.0 75.0 164.0 75.0 164.0 75.0 C164.0 75.0 164.0 75.0 164.0 75.0 C164.0 75.0 164.0 75.0 164.0 75.0 C164.0 75.0 164.0 75.0 164.0 75.0 C164.0 75.0 164.0 75.0 164.0 75.0 C164.0 75.0 164.0 75.0 164.0 75.0 C164.0 75.0 164.0 75.0 164.0 75.0 C164.0 75.0 164.0 75.0 164.0 75.0 C164.0 75.0 164.0 75.0 164.0 75.0 C164.0 75.0 164.0 75.0 164.0 75.0 C164.0 75.0 164.0 75.0 164.0 75.0 C164.0 75.0 164.0 75.0 164.0 75.0 C164.0 75.0 164.0 75.0 164.0 75.0 C164.0 75.0 164.0 75.0 164.0 75.0 C164.0 75.0 164.0 75.0 164.0 75.0 C164.0 75.0 164.0 75.0 164.0 75.0 C164.0 75.0 164.0 75.0 164.0 75.0 C164.0 75.0 164.0 75.0 164.0 75.0 C164.0 75.0 164.0 75.0 164.0 75.0 C164.0 75.0 164.0 75.0 164.0 75.0 C164.0 75.0 164.0 75.0 164.0 75.0 C164.0 75.0 164.0 75.0 164.0 75.0 C164.0 75.0 164.0 75.0 164.0 75.0 C164.0 75.0 164.0 75.0 164.0 75.0 C164.0 75.0 164.0 75.0 164.0 75.0 C164.0 75.0 164.0 75.0 164.0 75.0 C164.0 75.0 164.0 75.0 164.0 75.0 C164.0 75.0 164.0 75.0 164.0 75.0 C164.0 75.0 164.0 75.0 164.0 75.0 C164.0 75.0 164.0 75.0 164.0 75.0 C164.0 75.0 164.0 75.0 164.0 75.0 C164.0 75.0 164.0 75.0 164.0 75.0 C164.0 75.0 164.0 75.0 164.0 75.0 C164.0 75.0 164.0 75.0 164.0 75.0 C164.0 75.0 164.0 75.0 164.0 75.0 C164.0 75.0 164.0 75.0 164.0 75.0 C164.0 75.0 164.0 75.0 164.0 75.0 C164.0 75.0 164.0 75.0 164.0 75.0 C164.0 75.0 164.0 75.0 164.0 75.0 C164.0 75.0 164.0 75.0 164.0 75.0 C164.0 75.0 164.0 75.0 164.0 75.0 C164.0 75.0 164.0 75.0 164.0 75.0 C164.0 75.0 164.0 75.0 164.0 75.0 C164.0 75.0 164.0 75.0 164.0 75.0 C164.0 75.0 164.0 75.0 164.0 75.0 C164.0 75.0 164.0 75.0 164.0 75.0 C164.0 75.0 164.0 75.0 164.0 75.0 C164.0 75.0 164.0 75.0 164.0 75.0 C164.0 75.0 164.0 75.0 164.0 75.0 C164.0 75.0 164.0 75.0 164.0 75.0 C164.0 75.0 164.0 75.0 164.0 75.0 C164.0 75.0 164.0 75.0 164.0 75.0 C164.0 75.0 164.0 75.0 164.0 75.0 C164.0 75.0 164.0 75.0 164.0 75.0 C164.0 75.0 164.0 75.0 164.0 75.0 C164.0 75.0 164.0 75.0 164.0 75.0 C164.0 75.0 164.0 75.0 164.0 75.0 C164.0 75.0 164.0 75.0 164.0 75.0 C164.0 75.0 164.0 75.0 164.0 75.0 C164.0 75.0 164.0 75.0 164.0 75.0 C164.0 75.0 164.0 75.0 164.0 75.0 C164.0 75.0 164.0 75.0 164.0 75.0 C164.0 75.0 164.0 75.0 164.0 75.0 C164.0 75.0 164.0 75.0 164.0 75.0 C164.0 75.0 164.0 75.0 164.0 75.0 C164.0 75.0 164.0 75.0 164.0 75.0 C164.0 75.0 164.0 75.0 164.0 75.0 C164.0 75.0 164.0 75.0 164.0 75.0 C164.0 75.0 164.0 75.0 164.0 75.0 C164.0 75.0 164.0 75.0 164.0 75.0 C164.0 75.0 164.0 75.0 164.0 75.0 C164.0 75.0 164.0 75.0 164.0 75.0 C164.0 75.0 164.0 75.0 164.0 75.0 C164.0 75.0 164.0 75.0 164.0 75.0 C164.0 75.0 164.0 75.0 164.0 75.0 C164.0 75.0 164.0 75.0 164.0 75.0 C164.0 75.0 164.0 75.0 164.0 75.0 C164.0 75.0 164.0 75.0 164.0 75.0 C164.0 75.0 164.0 75.0 164.0 75.0 C164.0 75.0 164.0 75.0 164.0 75.0 C164.0 75.0 164.0 75.0 164.0 75.0 C164.0 75.0 164.0 75.0 164.0 75.0 C164.0 75.0 164.0 75.0 164.0 75.0 C164.0 75.0 164.0 75.0 164.0 75.0 C164.0 75.0 164.0 75.0 164.0 75.0 C164.0 75.0 164.0 75.0 164.0 75.0 C164.0 75.0 164.0 75.0 164.0 75.0 C164.0 75.0 164.0 75.0 164.0 75.0 C164.0 75.0 164.0 75.0 164.0 75.0 C164.0 75.0 164.0 75.0 164.0 75.0 C164.0 75.0 164.0 75.0 164.0 75.0 C164.0 75.0 164.0 75.0 164.0 75.0 C164.0 75.0 164.0 75.0 164.0 75.0 C164.0 75.0 164.0 75.0 164.0 75.0 C164.0 75.0 164.0 75.0 164.0 75.0 C164.0 75.0 164.0 75.0 164.0 75.0 C164.0 75.0 164.0 75.0 164.0 75.0 C164.0 75.0 164.0 75.0 164.0 75.0 C164.0 75.0 164.0 75.0 164.0 75.0 C164.0 75.0 164.0 75.0 164.0 75.0 C164.0 75.0 164.0 75.0 164.0 75.0 C164.0 75.0 164.0 75.0 164.0 75.0 C164.0 75.0 164.0 75.0 164.0 75.0 C164.0 75.0 164.0 75.0 164.0 75.0 C164.0 75.0 164.0 75.0 164.0 75.0 C164.0 75.0 164.0 75.0 164.0 75.0 C164.0 75.0 164.0 75.0 164.0 75.0 C164.0 75.0 164.0 75.0 164.0 75.0 C164.0 75.0 164.0 75.0 164.0 75.0 C164.0 75.0 164.0 75.0 164.0 75.0 C164.0 75.0 164.0 75.0 164.0 75.0 C164.0 75.0 164.0 75.0 164.0 75.0 C164.0 75.0 164.0 75.0 164.0 75.0 C164.0 75.0 164.0 75.0 164.0 75.0 C164.0 75.0 164.0 75.0 164.0 75.0 C164.0 75.0 164.0 75.0 164.0 75.0 C164.0 75.0 164.0 75.0 164.0 75.0 C164.0 75.0 164.0 75.0 164.0 75.0 C164.0 75.0 164.0 75.0 164.0 75.0 C164.0 75.0 164.0 75.0 164.0 75.0 C164.0 75.0 164.0 75.0 164.0 75.0 C164.0 75.0 164.0 75.0 164.0 75.0 C164.0 75.0 164.0 75.0 164.0 75.0 C164.0 75.0 164.0 75.0 164.0 75.0 C164.0 75.0 164.0 75.0 164.0 75.0 C164.0 75.0 164.0 75.0 164.0 75.0 C164.0 75.0 164.0 75.0 164.0 75.0 C164.0 75.0 164.0 75.0 164.0 75.0 C164.0 75.0 164.0 75.0 164.0 75.0 C164.0 75.0 164.0 75.0 164.0 75.0 C164.0 75.0 164.0 75.0 164.0 75.0 C164.0 75.0 164.0 75.0 164.0 75.0 C164.0 75.0 164.0 75.0 164.0 75.0 C164.0 75.0 164.0 75.0 164.0 75.0 C164.0 75.0 164.0 75.0 164.0 75.0 C164.0 75.0 164.0 75.0 164.0 75.0 C164.0 75.0 165.0 75.0 165.0 75.0 C165.0 75.0 165.0 75.0 165.0 75.0 C165.0 75.0 165.0 75.0 165.0 75.0 C165.0 75.0 165.0 75.0 165.0 75.0 C165.0 75.0 165.0 75.0 165.0 75.0 C165.0 75.0 165.0 75.0 165.0 75.0 C165.0 75.0 165.0 75.0 165.0 75.0 C165.0 75.0 165.0 75.0 165.0 75.0 C165.0 75.0 165.0 75.0 165.0 75.0 C165.0 75.0 165.0 75.0 165.0 75.0 C165.0 75.0 165.0 75.0 165.0 75.0 C165.0 75.0 165.0 75.0 165.0 75.0 C165.0 75.0 165.0 75.0 165.0 75.0 C165.0 75.0 165.0 75.0 165.0 75.0 C165.0 75.0 165.0 75.0 165.0 75.0 C165.0 75.0 165.0 75.0 165.0 75.0 C165.0 75.0 165.0 75.0 165.0 75.0 C165.0 75.0 165.0 75.0 165.0 75.0 C165.0 75.0 165.0 75.0 165.0 75.0 C165.0 75.0 165.0 75.0 165.0 75.0 C165.0 75.0 165.0 75.0 165.0 75.0 C165.0 75.0 165.0 75.0 165.0 75.0 C165.0 75.0 165.0 75.0 165.0 75.0 C165.0 75.0 165.0 75.0 165.0 75.0 C165.0 75.0 165.0 75.0 165.0 75.0 C165.0 75.0 165.0 75.0 165.0 75.0 C165.0 75.0 165.0 75.0 165.0 75.0 C165.0 75.0 165.0 75.0 165.0 75.0 C165.0 75.0 165.0 75.0 165.0 75.0 C165.0 75.0 165.0 75.0 165.0 75.0 C165.0 75.0 165.0 75.0 165.0 75.0 C165.0 75.0 165.0 75.0 165.0 75.0 C165.0 75.0 165.0 75.0 165.0 75.0 C165.0 75.0 165.0 75.0 165.0 75.0 C165.0 75.0 165.0 75.0 165.0 75.0 C165.0 75.0 165.0 75.0 165.0 75.0 C165.0 75.0 165.0 75.0 165.0 75.0 C165.0 75.0 165.0 75.0 165.0 75.0 C165.0 75.0 165.0 75.0 165.0 75.0 C165.0 75.0 165.0 75.0 165.0 75.0 C165.0 75.0 165.0 75.0 165.0 75.0 C165.0 75.0 165.0 75.0 165.0 75.0 C165.0 75.0 165.0 75.0 165.0 75.0 C165.0 75.0 165.0 75.0 165.0 75.0 C165.0 75.0 165.0 75.0 165.0 75.0 C165.0 75.0 165.0 75.0 165.0 75.0 C165.0 75.0 165.0 75.0 165.0 75.0 C165.0 75.0 165.0 75.0 165.0 75.0 C165.0 75.0 165.0 75.0 165.0 75.0 C165.0 75.0 165.0 75.0 165.0 75.0 C165.0 75.0 165.0 75.0 165.0 75.0 C165.0 75.0 165.0 75.0 165.0 75.0 C165.0 75.0 165.0 75.0 165.0 75.0 C165.0 75.0 165.0 75.0 165.0 75.0 C165.0 75.0 165.0 75.0 165.0 75.0 C165.0 75.0 165.0 75.0 165.0 75.0 C165.0 75.0 165.0 75.0 165.0 75.0 C165.0 75.0 165.0 75.0 165.0 75.0 C165.0 75.0 165.0 75.0 165.0 75.0 C165.0 75.0 165.0 75.0 165.0 75.0 C165.0 75.0 165.0 75.0 165.0 75.0 C165.0 75.0 165.0 75.0 165.0 75.0 C165.0 75.0 165.0 75.0 165.0 75.0 C165.0 75.0 165.0 75.0 165.0 75.0 C165.0 75.0 165.0 75.0 165.0 75.0 C165.0 75.0 165.0 75.0 165.0 75.0 C165.0 75.0 165.0 75.0 165.0 75.0 C165.0 75.0 165.0 75.0 165.0 75.0 C165.0 75.0 165.0 75.0 165.0 75.0 C165.0 75.0 165.0 75.0 165.0 75.0 C165.0 75.0 165.0 75.0 165.0 75.0 C165.0 75.0 165.0 75.0 165.0 75.0 C165.0 75.0 165.0 75.0 165.0 75.0 C165.0 75.0 165.0 75.0 165.0 75.0 C165.0 75.0 165.0 75.0 165.0 75.0 C165.0 75.0 165.0 75.0 165.0 75.0 C165.0 75.0 165.0 75.0 165.0 75.0 C165.0 75.0 165.0 75.0 165.0 75.0 C165.0 75.0 165.0 75.0 165.0 75.0 C165.0 75.0 165.0 75.0 165.0 75.0 C165.0 75.0 165.0 75.0 165.0 75.0 C165.0 75.0 165.0 75.0 165.0 75.0 C165.0 75.0 165.0 75.0 165.0 75.0 C165.0 75.0 165.0 75.0 165.0 75.0 C165.0 75.0 165.0 75.0 165.0 75.0 C165.0 75.0 165.0 75.0 165.0 75.0 C165.0 75.0 165.0 75.0 165.0 75.0 C165.0 75.0 165.0 75.0 165.0 75.0 C165.0 75.0 165.0 75.0 165.0 75.0 C165.0 75.0 165.0 75.0 165.0 75.0 C165.0 75.0 165.0 75.0 165.0 75.0 C165.0 75.0 165.0 75.0 165.0 75.0 C165.0 75.0 165.0 75.0 165.0 75.0 C165.0 75.0 165.0 75.0 165.0 75.0 C165.0 75.0 165.0 75.0 165.0 75.0 C165.0 75.0 165.0 75.0 165.0 75.0 C165.0 75.0 165.0 75.0 165.0 75.0 C165.0 75.0 165.0 75.0 165.0 75.0 C165.0 75.0 165.0 75.0 165.0 75.0 C165.0 75.0 165.0 75.0 165.0 75.0 C165.0 75.0 165.0 75.0 165.0 75.0 C165.0 75.0 165.0 75.0 165.0 75.0 C165.0 75.0 165.0 75.0 165.0 75.0 C165.0 75.0 165.0 75.0 165.0 75.0 C165.0 75.0 165.0 75.0 165.0 75.0 C165.0 75.0 165.0 75.0 165.0 75.0 C165.0 75.0 165.0 75.0 165.0 75.0 C165.0 75.0 165.0 75.0 165.0 75.0 C165.0 75.0 165.0 75.0 165.0 75.0 C165.0 75.0 165.0 75.0 165.0 75.0 C165.0 75.0 165.0 75.0 165.0 75.0 C165.0 75.0 165.0 75.0 165.0 75.0 C165.0 75.0 165.0 75.0 165.0 75.0 C165.0 75.0 165.0 75.0 165.0 75.0 C165.0 75.0 165.0 75.0 165.0 75.0 C165.0 75.0 165.0 75.0 165.0 75.0 C165.0 75.0 165.0 75.0 165.0 75.0 C165.0 75.0 165.0 75.0 165.0 75.0 C165.0 75.0 165.0 75.0 165.0 75.0 C165.0 75.0 165.0 75.0 165.0 75.0 C165.0 75.0 165.0 75.0 165.0 75.0 C165.0 75.0 165.0 75.0 165.0 75.0 C165.0 75.0 165.0 75.0 165.0 75.0 C165.0 75.0 165.0 75.0 165.0 75.0 C165.0 75.0 165.0 75.0 165.0 75.0 C165.0 75.0 165.0 75.0 165.0 75.0 C165.0 75.0 165.0 75.0 165.0 75.0 C165.0 75.0 165.0 75.0 165.0 75.0 C165.0 75.0 165.0 75.0 165.0 75.0 C165.0 75.0 165.0 75.0 165.0 75.0 C165.0 75.0 165.0 75.0 165.0 75.0 C165.0 75.0 165.0 75.0 165.0 75.0 C165.0 75.0 165.0 75.0 165.0 75.0 C165.0 75.0 165.0 75.0 165.0 75.0 C165.0 75.0 165.0 75.0 165.0 75.0 C165.0 75.0 165.0 75.0 165.0 75.0 C165.0 75.0 165.0 75.0 165.0 75.0 C165.0 75.0 165.0 75.0 165.0 75.0 C165.0 75.0 165.0 75.0 165.0 75.0 C165.0 75.0 165.0 75.0 165.0 75.0 C165.0 75.0 165.0 75.0 165.0 75.0 C165.0 75.0 165.0 75.0 165.0 75.0 C165.0 75.0 165.0 75.0 165.0 75.0 C165.0 75.0 165.0 75.0 165.0 75.0 C165.0 75.0 165.0 75.0 165.0 75.0 C165.0 75.0 165.0 75.0 165.0 75.0 C165.0 75.0 165.0 75.0 165.0 75.0 C165.0 75.0 165.0 75.0 165.0 75.0 C165.0 75.0 165.0 75.0 165.0 75.0 C165.0 75.0 165.0 75.0 165.0 75.0 C165.0 75.0 165.0 75.0 165.0 75.0 C165.0 75.0 165.0 75.0 165.0 75.0 C165.0 75.0 165.0 75.0 165.0 75.0 C165.0 75.0 165.0 75.0 165.0 75.0 C165.0 75.0 165.0 75.0 165.0 75.0 C165.0 75.0 165.0 75.0 165.0 75.0 C165.0 75.0 165.0 75.0 165.0 75.0 C165.0 75.0 165.0 75.0 165.0 75.0 C165.0 75.0 165.0 75.0 165.0 75.0 C165.0 75.0 165.0 75.0 165.0 75.0 C165.0 75.0 165.0 75.0 165.0 75.0 C165.0 75.0 165.0 75.0 165.0 75.0 C165.0 75.0 165.0 75.0 165.0 75.0 C165.0 75.0 165.0 75.0 165.0 75.0 C165.0 75.0 165.0 75.0 165.0 75.0 C165.0 75.0 165.0 75.0 165.0 75.0 C165.0 75.0 165.0 75.0 165.0 75.0 C165.0 75.0 165.0 75.0 165.0 75.0 C165.0 75.0 165.0 75.0 165.0 75.0 C165.0 75.0 165.0 75.0 165.0 75.0 C165.0 75.0 165.0 75.0 165.0 75.0 C165.0 75.0 165.0 75.0 165.0 75.0 C165.0 75.0 165.0 75.0 165.0 75.0 C165.0 75.0 165.0 75.0 165.0 75.0 C165.0 75.0 165.0 75.0 165.0 75.0 C165.0 75.0 165.0 75.0 165.0 75.0 C165.0 75.0 165.0 75.0 165.0 75.0 C165.0 75.0 165.0 75.0 165.0 75.0 C165.0 75.0 165.0 75.0 165.0 75.0 C165.0 75.0 165.0 75.0 165.0 75.0 C165.0 75.0 165.0 75.0 165.0 75.0 C165.0 75.0 165.0 75.0 165.0 75.0 C165.0 75.0 165.0 75.0 165.0 75.0 C165.0 75.0 165.0 75.0 165.0 75.0 C165.0 75.0 165.0 75.0 165.0 75.0 C165.0 75.0 165.0 75.0 165.0 75.0 C165.0 75.0 165.0 75.0 165.0 75.0 C165.0 75.0 165.0 75.0 165.0 75.0 C165.0 75.0 165.0 75.0 165.0 75.0 C165.0 75.0 165.0 75.0 165.0 75.0 C165.0 75.0 165.0 75.0 165.0 75.0 C165.0 75.0 165.0 75.0 165.0 75.0 C165.0 75.0 165.0 75.0 165.0 75.0 C165.0 75.0 165.0 75.0 165.0 75.0 C165.0 75.0 165.0 75.0 165.0 75.0 C165.0 75.0 165.0 75.0 165.0 75.0 C165.0 75.0 165.0 75.0 165.0 75.0 C165.0 75.0 165.0 75.0 165.0 75.0 C165.0 75.0 165.0 75.0 165.0 75.0 C165.0 75.0 165.0 75.0 165.0 75.0 C165.0 75.0 165.0 75.0 165.0 75.0 C165.0 75.0 165.0 75.0 165.0 75.0 C165.0 75.0 165.0 75.0 165.0 75.0 C165.0 75.0 165.0 75.0 165.0 75.0 C165.0 75.0 165.0 75.0 165.0 75.0 C165.0 75.0 165.0 75.0 165.0 75.0 C165.0 75.0 165.0 75.0 165.0 75.0 C165.0 75.0 165.0 75.0 165.0 75.0 C165.0 75.0 165.0 75.0 165.0 75.0 C165.0 75.0 165.0 75.0 165.0 75.0 C165.0 75.0 165.0 75.0 165.0 75.0 C165.0 75.0 165.0 75.0 165.0 75.0 C165.0 75.0 165.0 75.0 165.0 75.0 C165.0 75.0 165.0 75.0 165.0 75.0 C165.0 75.0 165.0 75.0 165.0 75.0 C165.0 75.0 165.0 75.0 165.0 75.0 C165.0 75.0 165.0 75.0 165.0 75.0 C165.0 75.0 165.0 75.0 165.0 75.0 C165.0 75.0 165.0 75.0 165.0 75.0"></path></svg>