<svg xmlns="http://www.w3.org/2000/svg" viewBox="0.0 0.0 200.0 200.0" height="200px" width="200px"><path fill="currentColor" fill-opacity="1.0"  filling="0" d="M159.0 83.0 C159.0 104.0 146.0 122.0 127.0 130.0 L73.0 130.0 C54.0 122.0 41.0 104.0 41.0 83.0 C41.0 50.0 68.0 23.0 100.0 23.0 C132.0 23.0 159.0 50.0 159.0 83.0 L159.0 83.0 Z"></path>
<path fill="#ffddbb" fill-opacity="1.0"  filling="0" d="M114.0 116.0 C114.0 116.0 114.0 117.0 114.0 117.0 A33.0 33.0 0.0 0 1 100.0 130.0 A33.0 33.0 0.0 0 1 86.0 117.0 C86.0 117.0 86.0 116.0 86.0 116.0 A30.0 30.0 0.0 0 1 77.0 110.0 L77.0 110.0 C77.0 110.0 77.0 109.0 76.0 109.0 A58.0 58.0 0.0 0 1 73.0 102.0 A66.0 66.0 0.0 0 1 69.0 86.0 A70.0 70.0 0.0 0 1 68.0 73.0 C68.0 70.0 68.0 68.0 69.0 65.0 C71.0 46.0 84.0 31.0 100.0 31.0 C116.0 31.0 129.0 46.0 131.0 65.0 C132.0 68.0 132.0 70.0 132.0 73.0 A70.0 70.0 0.0 0 1 131.0 86.0 A66.0 66.0 0.0 0 1 127.0 102.0 A58.0 58.0 0.0 0 1 124.0 109.0 C123.0 109.0 123.0 110.0 123.0 110.0 L123.0 110.0 C121.0 112.0 118.0 114.0 114.0 116.0 L114.0 116.0 Z"></path>
<path fill="#ffffff" fill-opacity="1.0"  filling="0" d="M127.0 130.0 L127.0 130.0 C126.0 143.0 114.0 153.0 100.0 153.0 C86.0 153.0 74.0 143.0 73.0 130.0 L73.0 130.0 A58.0 58.0 0.0 0 1 86.0 117.0 L86.0 117.0 C86.0 117.0 86.0 118.0 86.0 119.0 C86.0 126.0 92.0 131.0 100.0 131.0 C108.0 131.0 114.0 126.0 114.0 119.0 C114.0 118.0 114.0 117.0 114.0 117.0 L114.0 117.0 A58.0 58.0 0.0 0 1 127.0 130.0 L127.0 130.0 Z"></path>
<path fill="#ffffee" fill-opacity="1.0"  filling="0" d="M100.0 162.0 C114.0 162.0 126.0 152.0 127.0 139.0 C127.0 138.0 127.0 137.0 127.0 136.0 C127.0 136.0 127.0 135.0 127.0 135.0 A31.0 31.0 0.0 0 1 127.0 132.0 C127.0 131.0 127.0 131.0 127.0 130.0 L127.0 130.0 C126.0 143.0 114.0 153.0 100.0 153.0 C86.0 153.0 74.0 143.0 73.0 130.0 L73.0 130.0 C73.0 131.0 73.0 131.0 73.0 132.0 C73.0 133.0 73.0 134.0 73.0 135.0 C73.0 135.0 73.0 136.0 73.0 136.0 C73.0 137.0 73.0 138.0 73.0 139.0 C74.0 152.0 86.0 162.0 100.0 162.0 L100.0 162.0 Z M114.0 116.0 C114.0 116.0 114.0 117.0 114.0 117.0 A33.0 33.0 0.0 0 1 100.0 130.0 A33.0 33.0 0.0 0 1 86.0 117.0 C86.0 117.0 86.0 116.0 86.0 116.0 A30.0 30.0 0.0 0 1 77.0 110.0 L77.0 110.0 C77.0 111.0 77.0 111.0 77.0 112.0 C77.0 123.0 87.0 132.0 100.0 132.0 C113.0 132.0 123.0 123.0 123.0 112.0 C123.0 111.0 123.0 111.0 123.0 110.0 L123.0 110.0 A30.0 30.0 0.0 0 1 114.0 116.0 L114.0 116.0 Z"></path>
<path fill="#ffeecc" fill-opacity="1.0"  filling="0" d="M110.0 111.0 A20.0 20.0 0.0 0 1 100.0 117.0 A20.0 20.0 0.0 0 1 90.0 111.0 A33.0 33.0 0.0 0 1 86.0 109.0 A29.0 29.0 0.0 0 1 82.0 107.0 A33.0 33.0 0.0 0 1 75.0 100.0 A48.0 48.0 0.0 0 1 70.0 86.0 A70.0 70.0 0.0 0 1 68.0 73.0 C68.0 70.0 68.0 68.0 69.0 65.0 C71.0 46.0 84.0 31.0 100.0 31.0 C116.0 31.0 129.0 46.0 131.0 65.0 C132.0 68.0 132.0 70.0 132.0 73.0 A70.0 70.0 0.0 0 1 130.0 86.0 A48.0 48.0 0.0 0 1 125.0 100.0 A33.0 33.0 0.0 0 1 118.0 107.0 A29.0 29.0 0.0 0 1 114.0 109.0 A33.0 33.0 0.0 0 1 110.0 111.0 L110.0 111.0 Z"></path>
<path fill="#ffffff" fill-opacity="1.0"  filling="0" d="M77.0 77.0 A3.0 3.0 0.0 1 0 83.0 77.0 A3.0 3.0 0.0 1 0 77.0 77.0 L77.0 77.0 Z"></path>
<path fill="#ffffff" fill-opacity="1.0"  filling="0" d="M117.0 77.0 A3.0 3.0 0.0 1 0 123.0 77.0 A3.0 3.0 0.0 1 0 117.0 77.0 L117.0 77.0 Z"></path>
<path fill="#ffffff" fill-opacity="1.0"  filling="0" d="M123.0 92.0 C123.0 98.0 120.0 103.0 114.0 103.0 C109.0 103.0 105.0 98.0 105.0 92.0 C105.0 86.0 109.0 81.0 114.0 81.0 C120.0 81.0 123.0 86.0 123.0 92.0 L123.0 92.0 Z"></path>
<path fill="#334444" fill-opacity="1.0"  filling="0" d="M108.0 92.0 A5.0 5.0 0.0 1 0 118.0 92.0 A5.0 5.0 0.0 1 0 108.0 92.0 L108.0 92.0 Z"></path>
<path fill="#ffffff" fill-opacity="1.0"  filling="0" d="M114.0 91.0 A2.0 2.0 0.0 1 1 115.0 91.0 A2.0 2.0 0.0 0 1 114.0 91.0 L114.0 91.0 Z"></path>
<path fill="#ffffff" fill-opacity="1.0"  filling="0" d="M95.0 92.0 C95.0 98.0 91.0 103.0 86.0 103.0 C80.0 103.0 77.0 98.0 77.0 92.0 C77.0 86.0 80.0 81.0 86.0 81.0 C91.0 81.0 95.0 86.0 95.0 92.0 L95.0 92.0 Z"></path>
<path fill="#334444" fill-opacity="1.0"  filling="0" d="M82.0 92.0 A5.0 5.0 0.0 1 0 92.0 92.0 A5.0 5.0 0.0 1 0 82.0 92.0 L82.0 92.0 Z"></path>
<path fill="#ffffff" fill-opacity="1.0"  filling="0" d="M88.0 91.0 A2.0 2.0 0.0 1 1 90.0 91.0 A2.0 2.0 0.0 0 1 88.0 91.0 L88.0 91.0 Z"></path>
<path fill="currentColor" fill-opacity="1.0"  filling="0" d="M104.0 65.0 C104.0 65.0 99.0 65.0 95.0 65.0 C90.0 65.0 87.0 65.0 87.0 65.0 C87.0 65.0 90.0 68.0 95.0 68.0 C101.0 68.0 104.0 65.0 104.0 65.0 L104.0 65.0 Z M113.0 65.0 C113.0 65.0 110.0 65.0 106.0 65.0 C102.0 65.0 99.0 65.0 99.0 65.0 C99.0 65.0 102.0 68.0 106.0 68.0 C110.0 68.0 113.0 65.0 113.0 65.0 L113.0 65.0 Z"></path></svg>