<svg xmlns="http://www.w3.org/2000/svg" viewBox="0.0 0.0 200.0 200.0" height="200px" width="200px"><path fill="#ffffff" fill-opacity="1.0"  filling="0" d="M0.0 28.0 C0.0 28.0 0.0 28.0 0.0 28.0 C0.0 28.0 0.0 28.0 0.0 29.0 L0.0 171.0 C0.0 172.0 0.0 172.0 0.0 172.0 L199.0 172.0 C199.0 172.0 199.0 172.0 199.0 172.0 C199.0 172.0 199.0 172.0 199.0 171.0 L199.0 29.0 C199.0 28.0 199.0 28.0 199.0 28.0 L0.0 28.0 L0.0 28.0 Z"></path>
<path fill="#ffcc55" fill-opacity="1.0"  filling="0" d="M0.0 29.0 L199.0 29.0 L199.0 171.0 L0.0 171.0 L0.0 29.0 L0.0 29.0 Z"></path>
<path fill="#000000" fill-opacity="1.0"  filling="0" d="M0.0 29.0 L199.0 29.0 L199.0 171.0 L0.0 171.0 L0.0 29.0 L0.0 29.0 Z M0.0 29.0 L0.0 171.0 L199.0 171.0 L199.0 29.0 L0.0 29.0 L0.0 29.0 Z"></path>
<path fill="#000000" fill-opacity="1.0"  filling="0" d="M0.0 29.0 C0.0 29.0 0.0 29.0 0.0 29.0 C0.0 29.0 0.0 29.0 0.0 29.0 L0.0 171.0 C0.0 172.0 0.0 172.0 0.0 172.0 L199.0 172.0 C199.0 172.0 199.0 172.0 199.0 172.0 C199.0 172.0 199.0 172.0 199.0 171.0 L199.0 29.0 C199.0 29.0 199.0 29.0 199.0 29.0 L0.0 29.0 L0.0 29.0 Z M0.0 29.0 L199.0 29.0 L199.0 171.0 L0.0 171.0 L0.0 29.0 L0.0 29.0 Z"></path>
<path fill="#000000" fill-opacity="1.0"  filling="0" d="M0.0 29.0 C0.0 29.0 0.0 29.0 0.0 29.0 C0.0 29.0 0.0 29.0 0.0 29.0 L0.0 171.0 C0.0 172.0 0.0 172.0 0.0 172.0 L199.0 172.0 C199.0 172.0 199.0 172.0 199.0 172.0 C199.0 172.0 199.0 172.0 199.0 171.0 L199.0 29.0 C199.0 29.0 199.0 29.0 199.0 29.0 L0.0 29.0 L0.0 29.0 Z M0.0 29.0 L199.0 29.0 L199.0 171.0 L0.0 171.0 L0.0 29.0 L0.0 29.0 Z"></path>
<path fill="#000000" fill-opacity="1.0"  filling="0" d="M0.0 29.0 C0.0 29.0 0.0 29.0 0.0 29.0 C0.0 29.0 0.0 29.0 0.0 29.0 L0.0 171.0 C0.0 172.0 0.0 172.0 0.0 172.0 L199.0 172.0 C199.0 172.0 199.0 172.0 199.0 172.0 C199.0 172.0 199.0 172.0 199.0 171.0 L199.0 29.0 C199.0 29.0 199.0 29.0 199.0 29.0 L0.0 29.0 L0.0 29.0 Z M0.0 29.0 L199.0 29.0 L199.0 171.0 L0.0 171.0 L0.0 29.0 L0.0 29.0 Z"></path>
<path fill="#ffffff" fill-opacity="1.0"  filling="0" d="M100.0 98.0 C98.0 98.0 97.0 100.0 97.0 102.0 C97.0 104.0 98.0 105.0 100.0 105.0 C101.0 105.0 103.0 104.0 103.0 102.0 C103.0 100.0 101.0 98.0 100.0 98.0 L100.0 98.0 Z M100.0 99.0 C101.0 99.0 102.0 100.0 102.0 102.0 C102.0 103.0 101.0 104.0 100.0 104.0 C99.0 104.0 98.0 103.0 98.0 102.0 C98.0 100.0 99.0 99.0 100.0 99.0 L100.0 99.0 Z"></path>
<path fill="#ffffff" fill-opacity="1.0"  filling="0" d="M99.0 98.0 C97.0 98.0 96.0 100.0 96.0 102.0 C96.0 104.0 97.0 105.0 99.0 105.0 C101.0 105.0 102.0 104.0 102.0 102.0 C102.0 100.0 101.0 98.0 99.0 98.0 L99.0 98.0 Z M99.0 100.0 C100.0 100.0 101.0 101.0 101.0 102.0 C101.0 103.0 100.0 103.0 99.0 103.0 C98.0 103.0 97.0 103.0 97.0 102.0 C97.0 101.0 98.0 100.0 99.0 100.0 L99.0 100.0 Z"></path>
<path fill="#ffffff" fill-opacity="1.0"  filling="0" d="M100.0 95.0 C98.0 95.0 97.0 96.0 97.0 97.0 C97.0 99.0 98.0 101.0 100.0 101.0 C102.0 101.0 103.0 99.0 103.0 97.0 C103.0 96.0 102.0 95.0 100.0 95.0 L100.0 95.0 Z M100.0 96.0 C102.0 96.0 102.0 97.0 102.0 98.0 C102.0 99.0 102.0 100.0 100.0 100.0 C99.0 100.0 98.0 99.0 98.0 98.0 C98.0 97.0 99.0 96.0 100.0 96.0 L100.0 96.0 Z"></path>
<path fill="#ffffff" fill-opacity="1.0"  filling="0" d="M99.0 94.0 C97.0 94.0 96.0 96.0 96.0 98.0 C96.0 99.0 97.0 101.0 99.0 101.0 C101.0 101.0 102.0 99.0 102.0 98.0 C102.0 96.0 101.0 94.0 99.0 94.0 L99.0 94.0 Z M99.0 95.0 C100.0 95.0 101.0 96.0 101.0 97.0 C101.0 98.0 100.0 99.0 99.0 99.0 C98.0 99.0 97.0 98.0 97.0 97.0 C97.0 96.0 98.0 95.0 99.0 95.0 L99.0 95.0 Z"></path>
<path fill="#ffffff" fill-opacity="1.0"  filling="0" d="M100.0 94.0 C98.0 94.0 97.0 95.0 97.0 97.0 C97.0 98.0 98.0 100.0 100.0 100.0 C101.0 100.0 103.0 98.0 103.0 97.0 C103.0 95.0 101.0 94.0 100.0 94.0 L100.0 94.0 Z M100.0 95.0 C101.0 95.0 102.0 96.0 102.0 97.0 C102.0 98.0 101.0 99.0 100.0 99.0 C99.0 99.0 98.0 98.0 98.0 97.0 C98.0 96.0 99.0 95.0 100.0 95.0 L100.0 95.0 Z"></path>
<path fill="#ffffff" fill-opacity="1.0"  filling="0" d="M99.0 82.0 C98.0 82.0 97.0 83.0 97.0 84.0 C97.0 86.0 98.0 87.0 99.0 87.0 C101.0 87.0 102.0 86.0 102.0 84.0 C102.0 83.0 101.0 82.0 99.0 82.0 L99.0 82.0 Z M99.0 83.0 C100.0 83.0 101.0 83.0 101.0 85.0 C101.0 86.0 100.0 87.0 99.0 87.0 C98.0 87.0 97.0 86.0 97.0 85.0 C97.0 83.0 98.0 83.0 99.0 83.0 L99.0 83.0 Z"></path>
<path fill="#ffffff" fill-opacity="1.0"  filling="0" d="M100.0 82.0 C98.0 82.0 97.0 83.0 97.0 85.0 C97.0 86.0 98.0 87.0 100.0 87.0 C102.0 87.0 103.0 86.0 103.0 85.0 C103.0 83.0 102.0 82.0 100.0 82.0 L100.0 82.0 Z M100.0 83.0 C101.0 83.0 102.0 84.0 102.0 85.0 C102.0 86.0 101.0 87.0 100.0 87.0 C99.0 87.0 98.0 86.0 98.0 85.0 C98.0 84.0 99.0 83.0 100.0 83.0 L100.0 83.0 Z"></path>
<path fill="#ffffff" fill-opacity="1.0"  filling="0" d="M100.0 81.0 C98.0 81.0 97.0 82.0 97.0 84.0 C97.0 86.0 98.0 87.0 100.0 87.0 C101.0 87.0 103.0 86.0 103.0 84.0 C103.0 82.0 101.0 81.0 100.0 81.0 L100.0 81.0 Z M100.0 82.0 C101.0 82.0 102.0 83.0 102.0 84.0 C102.0 85.0 101.0 86.0 100.0 86.0 C99.0 86.0 98.0 85.0 98.0 84.0 C98.0 83.0 99.0 82.0 100.0 82.0 L100.0 82.0 Z"></path>
<path fill="#ffffff" fill-opacity="1.0"  filling="0" d="M99.0 77.0 C98.0 77.0 97.0 78.0 97.0 79.0 C97.0 80.0 98.0 82.0 99.0 82.0 C101.0 82.0 102.0 80.0 102.0 79.0 C102.0 78.0 101.0 77.0 99.0 77.0 L99.0 77.0 Z M99.0 78.0 C100.0 78.0 101.0 78.0 101.0 79.0 C101.0 80.0 100.0 81.0 99.0 81.0 C98.0 81.0 97.0 80.0 97.0 79.0 C97.0 78.0 98.0 78.0 99.0 78.0 L99.0 78.0 Z"></path>
<path fill="#ffffff" fill-opacity="1.0"  filling="0" d="M100.0 77.0 C98.0 77.0 97.0 78.0 97.0 79.0 C97.0 80.0 98.0 82.0 100.0 82.0 C101.0 82.0 103.0 80.0 103.0 79.0 C103.0 78.0 101.0 77.0 100.0 77.0 L100.0 77.0 Z M100.0 76.0 C101.0 76.0 102.0 77.0 102.0 79.0 C102.0 80.0 101.0 81.0 100.0 81.0 C98.0 81.0 97.0 80.0 97.0 79.0 C97.0 77.0 98.0 76.0 100.0 76.0 L100.0 76.0 Z"></path>
<path fill="#ffffff" fill-opacity="1.0"  filling="0" d="M96.0 76.0 C95.0 77.0 94.0 78.0 94.0 79.0 C94.0 80.0 95.0 81.0 96.0 81.0 C97.0 81.0 99.0 80.0 99.0 79.0 C99.0 78.0 97.0 77.0 96.0 76.0 L96.0 76.0 Z M96.0 77.0 C97.0 77.0 98.0 78.0 98.0 79.0 C98.0 80.0 97.0 80.0 96.0 80.0 C95.0 80.0 94.0 80.0 94.0 79.0 C94.0 78.0 95.0 77.0 96.0 77.0 L96.0 77.0 Z"></path>
<path fill="#ffffff" fill-opacity="1.0"  filling="0" d="M99.0 76.0 C98.0 76.0 97.0 77.0 97.0 78.0 C97.0 79.0 98.0 81.0 99.0 81.0 C100.0 81.0 102.0 79.0 102.0 78.0 C102.0 77.0 100.0 76.0 99.0 76.0 L99.0 76.0 Z M99.0 77.0 C100.0 77.0 101.0 78.0 101.0 78.0 C101.0 79.0 100.0 80.0 99.0 80.0 C99.0 80.0 98.0 79.0 98.0 78.0 C98.0 78.0 99.0 77.0 99.0 77.0 L99.0 77.0 Z"></path>
<path fill="#ffffff" fill-opacity="1.0"  filling="0" d="M100.0 74.0 C98.0 74.0 97.0 75.0 97.0 76.0 C97.0 78.0 98.0 79.0 100.0 79.0 C101.0 79.0 103.0 78.0 103.0 76.0 C103.0 75.0 101.0 74.0 100.0 74.0 L100.0 74.0 Z M100.0 75.0 C101.0 75.0 102.0 76.0 102.0 76.0 C102.0 77.0 101.0 78.0 100.0 78.0 C99.0 78.0 98.0 77.0 98.0 76.0 C98.0 76.0 99.0 75.0 100.0 75.0 L100.0 75.0 Z"></path></svg>