<svg xmlns="http://www.w3.org/2000/svg" viewBox="0.0 0.0 200.0 200.0" height="200px" width="200px"><path fill="#ffbb55" fill-opacity="1.0"  filling="0" d="M102.0 190.0 L102.0 198.0 C102.0 198.0 104.0 199.0 107.0 199.0 C111.0 199.0 123.0 192.0 123.0 190.0 C120.0 185.0 115.0 188.0 108.0 189.0 C104.0 189.0 102.0 190.0 102.0 190.0 L102.0 190.0 Z M82.0 179.0 L82.0 187.0 C82.0 187.0 84.0 190.0 88.0 189.0 C91.0 188.0 104.0 181.0 103.0 179.0 C100.0 174.0 95.0 178.0 88.0 178.0 C84.0 178.0 82.0 179.0 82.0 179.0 L82.0 179.0 Z M80.0 97.0 L80.0 104.0 C80.0 104.0 83.0 105.0 83.0 106.0 C83.0 106.0 89.0 104.0 89.0 103.0 C89.0 102.0 88.0 98.0 88.0 98.0 C88.0 97.0 87.0 94.0 87.0 94.0 L80.0 97.0 L80.0 97.0 Z"></path>
<path fill="#ffbb55" fill-opacity="1.0"  filling="0" d="M90.0 35.0 C88.0 35.0 80.0 34.0 79.0 49.0 C78.0 56.0 78.0 66.0 78.0 74.0 C79.0 86.0 80.0 97.0 80.0 97.0 C80.0 97.0 82.0 100.0 88.0 95.0 C88.0 95.0 88.0 71.0 88.0 62.0 C90.0 48.0 95.0 36.0 90.0 35.0 L90.0 35.0 Z"></path>
<path fill="#ffaa33" fill-opacity="1.0"  filling="0" d="M81.0 48.0 C81.0 48.0 78.0 70.0 80.0 94.0 C81.0 95.0 81.0 97.0 81.0 98.0 C81.0 107.0 85.0 105.0 88.0 104.0 L81.0 48.0 L81.0 48.0 Z"></path>
<path fill="#ff9911" fill-opacity="1.0"  filling="0" d="M90.0 35.0 C87.0 35.0 79.0 34.0 78.0 51.0 C77.0 51.0 77.0 52.0 77.0 52.0 C78.0 55.0 80.0 56.0 84.0 57.0 C86.0 45.0 94.0 36.0 90.0 35.0 L90.0 35.0 Z"></path>
<path fill="#ffbb55" fill-opacity="1.0"  filling="0" d="M82.0 91.0 L82.0 179.0 C82.0 179.0 82.0 182.0 87.0 182.0 C92.0 182.0 92.0 179.0 92.0 179.0 L96.0 114.0 L99.0 115.0 L102.0 191.0 C102.0 191.0 103.0 193.0 107.0 193.0 C110.0 193.0 111.0 190.0 111.0 190.0 L114.0 97.0 L82.0 91.0 L82.0 91.0 Z"></path>
<path fill="#eeeeee" fill-opacity="1.0"  filling="0" d="M82.0 175.0 L82.0 179.0 C82.0 179.0 82.0 182.0 87.0 182.0 C92.0 182.0 92.0 179.0 92.0 179.0 L92.0 175.0 C88.0 176.0 84.0 176.0 82.0 175.0 L82.0 175.0 Z"></path>
<path fill="#eeeeee" fill-opacity="1.0"  filling="0" d="M101.0 186.0 L102.0 191.0 C102.0 191.0 103.0 193.0 107.0 193.0 C110.0 193.0 111.0 190.0 111.0 190.0 L111.0 186.0 C108.0 187.0 105.0 187.0 101.0 186.0 L101.0 186.0 Z"></path>
<path fill="#003388" fill-opacity="1.0"  filling="0" d="M114.0 140.0 L115.0 97.0 L81.0 91.0 L81.0 134.0 C84.0 137.0 90.0 138.0 94.0 138.0 L96.0 115.0 L99.0 117.0 L100.0 138.0 C104.0 141.0 109.0 141.0 114.0 140.0 L114.0 140.0 Z"></path>
<path fill="#ff9911" fill-opacity="1.0"  filling="0" d="M81.0 94.0 C81.0 94.0 80.0 81.0 80.0 69.0 C81.0 59.0 81.0 55.0 81.0 50.0 C81.0 38.0 86.0 35.0 90.0 35.0 C90.0 35.0 105.0 40.0 117.0 50.0 L115.0 99.0 C111.0 104.0 89.0 103.0 81.0 94.0 L81.0 94.0 Z"></path>
<path fill="#ffbb55" fill-opacity="1.0"  filling="0" d="M112.0 17.0 C112.0 17.0 112.0 30.0 109.0 32.0 C106.0 34.0 91.0 33.0 87.0 25.0 C83.0 17.0 85.0 3.0 95.0 1.0 C106.0 0.0 112.0 5.0 112.0 17.0 L112.0 17.0 Z"></path>
<path fill="#ffbb55" fill-opacity="1.0"  filling="0" d="M95.0 29.0 L93.0 42.0 C93.0 42.0 97.0 46.0 105.0 43.0 C105.0 43.0 106.0 33.0 106.0 31.0 C107.0 30.0 95.0 29.0 95.0 29.0 L95.0 29.0 Z"></path>
<path fill="#eeeeee" fill-opacity="1.0"  filling="0" d="M92.0 41.0 C92.0 41.0 93.0 38.0 93.0 38.0 C93.0 38.0 93.0 41.0 105.0 40.0 L106.0 42.0 C106.0 42.0 102.0 45.0 99.0 45.0 C96.0 45.0 93.0 43.0 92.0 41.0 L92.0 41.0 Z"></path>
<path fill="#ffbb55" fill-opacity="1.0"  filling="0" d="M112.0 113.0 C112.0 113.0 112.0 120.0 112.0 120.0 C112.0 121.0 111.0 122.0 112.0 123.0 C112.0 124.0 114.0 125.0 115.0 125.0 C115.0 125.0 120.0 122.0 120.0 122.0 C121.0 121.0 121.0 117.0 120.0 117.0 C120.0 116.0 120.0 112.0 120.0 111.0 C119.0 111.0 112.0 113.0 112.0 113.0 L112.0 113.0 Z"></path>
<path fill="#ffbb55" fill-opacity="1.0"  filling="0" d="M118.0 52.0 C117.0 50.0 112.0 45.0 109.0 54.0 C107.0 62.0 112.0 115.0 112.0 115.0 C112.0 115.0 116.0 119.0 120.0 112.0 C120.0 112.0 119.0 93.0 119.0 81.0 C119.0 68.0 120.0 56.0 118.0 52.0 L118.0 52.0 Z"></path>
<path fill="#ff9911" fill-opacity="1.0"  filling="0" d="M120.0 70.0 C120.0 61.0 120.0 54.0 118.0 51.0 C117.0 49.0 111.0 45.0 108.0 55.0 C107.0 57.0 107.0 63.0 107.0 70.0 C112.0 71.0 115.0 72.0 120.0 70.0 L120.0 70.0 Z"></path></svg>