<svg xmlns="http://www.w3.org/2000/svg" viewBox="0.0 0.0 200.0 200.0" height="200px" width="200px"><path fill="#ffffee" fill-opacity="1.0"  filling="0" d="M140.0 163.0 L50.0 163.0 C47.0 163.0 44.0 160.0 44.0 156.0 L44.0 47.0 C44.0 43.0 47.0 39.0 50.0 39.0 L140.0 39.0 C143.0 39.0 147.0 43.0 147.0 47.0 L147.0 156.0 C147.0 160.0 143.0 163.0 140.0 163.0 L140.0 163.0 Z"></path>
<path fill="#222222" fill-opacity="1.0"  filling="0" d="M140.0 165.0 L50.0 165.0 C46.0 165.0 42.0 161.0 42.0 156.0 L42.0 47.0 C42.0 42.0 46.0 38.0 50.0 38.0 L140.0 38.0 C144.0 38.0 148.0 42.0 148.0 47.0 L148.0 156.0 C148.0 161.0 144.0 165.0 140.0 165.0 L140.0 165.0 Z M50.0 41.0 C48.0 41.0 46.0 43.0 46.0 47.0 L46.0 156.0 C46.0 159.0 48.0 162.0 50.0 162.0 L140.0 162.0 C143.0 162.0 145.0 159.0 145.0 156.0 L145.0 47.0 C145.0 43.0 143.0 41.0 140.0 41.0 L50.0 41.0 L50.0 41.0 Z"></path>
<path fill="#000000" fill-opacity="1.0"  filling="0" d="M81.0 81.0 C81.0 81.0 81.0 81.0 81.0 81.0 C81.0 81.0 81.0 81.0 81.0 81.0 C81.0 81.0 81.0 81.0 81.0 81.0 C81.0 81.0 81.0 81.0 81.0 81.0 C81.0 81.0 81.0 81.0 81.0 81.0 C81.0 81.0 81.0 81.0 81.0 81.0 C81.0 81.0 81.0 81.0 81.0 81.0 C81.0 81.0 81.0 81.0 81.0 81.0 C81.0 81.0 81.0 81.0 81.0 81.0 C81.0 81.0 81.0 81.0 81.0 81.0 C81.0 81.0 81.0 81.0 81.0 81.0 C81.0 81.0 81.0 81.0 81.0 81.0 C81.0 81.0 81.0 81.0 81.0 81.0 C81.0 81.0 81.0 81.0 81.0 81.0 C81.0 81.0 81.0 81.0 81.0 81.0 C81.0 81.0 81.0 81.0 81.0 81.0 C81.0 81.0 81.0 81.0 81.0 81.0 C81.0 81.0 81.0 81.0 81.0 81.0 C81.0 81.0 81.0 81.0 81.0 81.0 C81.0 81.0 81.0 81.0 81.0 81.0 C81.0 81.0 81.0 81.0 81.0 81.0 C81.0 81.0 81.0 81.0 81.0 81.0 C81.0 81.0 81.0 81.0 81.0 81.0 C81.0 81.0 81.0 81.0 81.0 81.0 C81.0 81.0 81.0 81.0 81.0 81.0 C81.0 81.0 81.0 81.0 81.0 81.0 C81.0 81.0 81.0 81.0 81.0 81.0 C81.0 81.0 81.0 81.0 81.0 81.0 C81.0 81.0 81.0 81.0 81.0 81.0 C81.0 81.0 81.0 81.0 81.0 81.0 C81.0 81.0 81.0 81.0 81.0 81.0 C81.0 81.0 81.0 81.0 81.0 81.0 C81.0 81.0 81.0 81.0 81.0 81.0 C81.0 81.0 81.0 81.0 81.0 81.0 C81.0 81.0 81.0 81.0 81.0 81.0 C81.0 81.0 81.0 81.0 81.0 81.0 C81.0 81.0 81.0 81.0 81.0 81.0 C81.0 81.0 81.0 81.0 81.0 81.0 C81.0 81.0 81.0 81.0 81.0 81.0 C81.0 81.0 81.0 81.0 81.0 81.0 C81.0 81.0 81.0 81.0 81.0 81.0 C81.0 81.0 81.0 81.0 81.0 81.0 C81.0 81.0 81.0 81.0 81.0 81.0 C81.0 81.0 81.0 81.0 81.0 81.0 C81.0 81.0 81.0 81.0 81.0 81.0 C81.0 81.0 81.0 81.0 81.0 81.0 C81.0 81.0 81.0 81.0 81.0 81.0 C81.0 81.0 81.0 81.0 81.0 81.0 C81.0 81.0 81.0 81.0 81.0 81.0 C81.0 81.0 81.0 81.0 81.0 81.0 C81.0 81.0 81.0 81.0 81.0 81.0 C81.0 81.0 81.0 81.0 81.0 81.0 C81.0 81.0 81.0 81.0 81.0 81.0 C81.0 81.0 81.0 81.0 81.0 81.0 C81.0 81.0 81.0 81.0 81.0 81.0 C81.0 81.0 81.0 81.0 81.0 81.0 C81.0 81.0 81.0 81.0 81.0 81.0 C81.0 81.0 81.0 81.0 81.0 81.0 C81.0 81.0 81.0 81.0 81.0 81.0 C81.0 81.0 81.0 81.0 81.0 81.0 C81.0 81.0 81.0 81.0 81.0 81.0 C81.0 81.0 81.0 81.0 81.0 81.0 C81.0 81.0 81.0 81.0 81.0 81.0 C81.0 81.0 81.0 81.0 81.0 81.0 C81.0 81.0 81.0 81.0 81.0 81.0 C81.0 81.0 81.0 81.0 81.0 81.0 C81.0 81.0 81.0 81.0 81.0 81.0 C81.0 81.0 81.0 81.0 81.0 81.0 C81.0 81.0 81.0 81.0 81.0 81.0 C81.0 81.0 81.0 81.0 81.0 81.0 C81.0 81.0 81.0 81.0 81.0 81.0 C81.0 81.0 81.0 81.0 81.0 81.0 C81.0 81.0 81.0 81.0 81.0 81.0 C81.0 81.0 81.0 81.0 81.0 81.0 C81.0 81.0 81.0 81.0 81.0 81.0 C81.0 81.0 81.0 81.0 81.0 81.0 C81.0 81.0 81.0 81.0 81.0 81.0 C81.0 81.0 81.0 81.0 81.0 81.0 C81.0 81.0 81.0 81.0 81.0 81.0 C81.0 81.0 81.0 81.0 81.0 81.0 C81.0 81.0 81.0 81.0 81.0 81.0 C81.0 81.0 81.0 81.0 81.0 81.0 C81.0 81.0 81.0 81.0 81.0 81.0 C81.0 81.0 81.0 81.0 81.0 81.0 C81.0 81.0 81.0 81.0 81.0 81.0 C81.0 81.0 81.0 81.0 81.0 81.0 C81.0 81.0 81.0 81.0 81.0 81.0 C81.0 81.0 81.0 81.0 81.0 81.0 C81.0 81.0 81.0 81.0 81.0 81.0 C81.0 81.0 81.0 81.0 81.0 81.0 C81.0 81.0 81.0 81.0 81.0 81.0 C81.0 81.0 81.0 81.0 81.0 81.0 C81.0 81.0 81.0 81.0 81.0 81.0 C81.0 81.0 81.0 81.0 81.0 81.0 C81.0 81.0 81.0 81.0 81.0 81.0 C81.0 81.0 81.0 81.0 81.0 81.0 C81.0 81.0 81.0 81.0 81.0 81.0 C81.0 81.0 81.0 81.0 81.0 81.0 C81.0 81.0 81.0 81.0 81.0 81.0 C81.0 81.0 81.0 81.0 81.0 81.0 C81.0 81.0 81.0 81.0 81.0 81.0 C81.0 81.0 81.0 81.0 81.0 81.0 C81.0 81.0 81.0 81.0 81.0 81.0 C81.0 81.0 81.0 81.0 81.0 81.0 C81.0 81.0 81.0 81.0 81.0 81.0 C81.0 81.0 81.0 81.0 81.0 81.0 C81.0 81.0 81.0 81.0 81.0 81.0 C81.0 81.0 81.0 81.0 81.0 81.0 C81.0 81.0 81.0 81.0 81.0 81.0 C81.0 81.0 81.0 81.0 81.0 81.0 C81.0 81.0 81.0 81.0 81.0 81.0 C81.0 81.0 81.0 81.0 81.0 81.0 C81.0 81.0 81.0 81.0 81.0 81.0 C81.0 81.0 81.0 81.0 81.0 81.0 C81.0 81.0 81.0 81.0 81.0 81.0 C81.0 81.0 81.0 81.0 81.0 81.0 C81.0 81.0 81.0 81.0 81.0 81.0 C81.0 81.0 81.0 81.0 81.0 81.0 C81.0 81.0 81.0 81.0 81.0 81.0 C81.0 81.0 81.0 81.0 81.0 81.0 C81.0 81.0 81.0 81.0 81.0 81.0 C81.0 81.0 81.0 81.0 81.0 81.0 C81.0 81.0 81.0 81.0 81.0 81.0 C81.0 81.0 81.0 81.0 81.0 81.0 C81.0 81.0 81.0 81.0 81.0 81.0 C81.0 81.0 81.0 81.0 81.0 81.0 C81.0 81.0 81.0 81.0 81.0 81.0 C81.0 81.0 81.0 81.0 81.0 81.0 C81.0 81.0 81.0 81.0 81.0 81.0 C81.0 81.0 81.0 81.0 81.0 81.0 C81.0 81.0 81.0 81.0 81.0 81.0 C81.0 81.0 81.0 81.0 81.0 81.0 C81.0 81.0 81.0 81.0 81.0 81.0 C81.0 81.0 81.0 81.0 81.0 81.0 C81.0 81.0 81.0 81.0 81.0 81.0 C81.0 81.0 81.0 81.0 81.0 81.0 C81.0 81.0 81.0 81.0 81.0 81.0 C81.0 81.0 81.0 81.0 81.0 81.0 C81.0 81.0 81.0 81.0 81.0 81.0 C81.0 81.0 81.0 81.0 81.0 81.0 C81.0 81.0 81.0 81.0 81.0 81.0 C81.0 81.0 81.0 81.0 81.0 81.0 C81.0 81.0 81.0 81.0 81.0 81.0 C81.0 81.0 81.0 81.0 81.0 81.0 C81.0 81.0 81.0 81.0 81.0 81.0 C81.0 81.0 81.0 81.0 81.0 81.0 C81.0 81.0 81.0 81.0 81.0 81.0 C81.0 81.0 81.0 81.0 81.0 81.0 C81.0 81.0 81.0 81.0 81.0 81.0 C81.0 81.0 81.0 81.0 81.0 81.0 C81.0 81.0 81.0 81.0 81.0 81.0 C81.0 81.0 81.0 81.0 81.0 81.0 C81.0 81.0 81.0 81.0 81.0 81.0 C81.0 81.0 81.0 81.0 81.0 81.0 C81.0 81.0 81.0 81.0 81.0 81.0 C81.0 81.0 81.0 81.0 81.0 81.0 C81.0 81.0 81.0 81.0 81.0 81.0 C81.0 81.0 81.0 81.0 81.0 81.0 C81.0 81.0 81.0 81.0 81.0 81.0 C81.0 81.0 81.0 81.0 81.0 81.0 C81.0 81.0 81.0 81.0 81.0 81.0 C81.0 81.0 81.0 81.0 81.0 81.0 C81.0 81.0 81.0 81.0 81.0 81.0 C81.0 81.0 81.0 81.0 81.0 81.0 C81.0 81.0 81.0 81.0 81.0 81.0 C81.0 81.0 81.0 81.0 81.0 81.0 C81.0 81.0 81.0 81.0 81.0 81.0 C81.0 81.0 81.0 81.0 81.0 81.0 C81.0 81.0 81.0 81.0 81.0 81.0 C81.0 81.0 81.0 81.0 81.0 81.0 C81.0 81.0 81.0 81.0 81.0 81.0 C81.0 81.0 81.0 81.0 81.0 81.0 C81.0 81.0 81.0 81.0 81.0 81.0 C81.0 81.0 81.0 81.0 81.0 81.0 C81.0 81.0 81.0 81.0 81.0 81.0 C81.0 81.0 81.0 81.0 81.0 81.0 C81.0 81.0 81.0 81.0 81.0 81.0 C81.0 81.0 81.0 81.0 81.0 81.0 C81.0 81.0 81.0 81.0 81.0 81.0 C81.0 81.0 81.0 81.0 81.0 81.0 C81.0 81.0 81.0 81.0 81.0 81.0 C81.0 81.0 81.0 81.0 81.0 81.0 C81.0 81.0 81.0 81.0 81.0 81.0 C81.0 81.0 81.0 81.0 81.0 81.0 C81.0 81.0 81.0 81.0 81.0 81.0 C81.0 81.0 81.0 81.0 81.0 81.0 C81.0 81.0 81.0 81.0 81.0 81.0 C81.0 81.0 81.0 81.0 81.0 81.0 C81.0 81.0 81.0 81.0 81.0 81.0 C81.0 81.0 81.0 81.0 81.0 81.0 C81.0 81.0 81.0 81.0 81.0 81.0 C81.0 81.0 81.0 81.0 81.0 81.0 C81.0 81.0 81.0 81.0 81.0 81.0 C81.0 81.0 81.0 81.0 81.0 81.0 C81.0 81.0 81.0 81.0 81.0 81.0 C81.0 81.0 81.0 81.0 81.0 81.0 C81.0 81.0 81.0 81.0 81.0 81.0 C81.0 81.0 81.0 81.0 81.0 81.0 C81.0 81.0 81.0 81.0 81.0 81.0 C81.0 81.0 81.0 81.0 81.0 81.0 C81.0 81.0 81.0 81.0 81.0 81.0 C81.0 81.0 81.0 81.0 81.0 81.0 C81.0 81.0 81.0 81.0 81.0 81.0 C81.0 81.0 81.0 81.0 81.0 81.0 C81.0 81.0 81.0 81.0 81.0 81.0 C81.0 81.0 81.0 81.0 81.0 81.0 C81.0 81.0 81.0 81.0 81.0 81.0 C81.0 81.0 81.0 81.0 81.0 81.0 C81.0 81.0 81.0 81.0 81.0 81.0 C81.0 81.0 81.0 81.0 81.0 81.0 C81.0 81.0 81.0 81.0 81.0 81.0 C81.0 81.0 81.0 81.0 81.0 81.0 C81.0 81.0 81.0 81.0 81.0 81.0 C81.0 81.0 81.0 81.0 81.0 81.0 C81.0 81.0 81.0 81.0 81.0 81.0 C81.0 81.0 81.0 81.0 81.0 81.0 C81.0 81.0 81.0 81.0 81.0 81.0 C81.0 81.0 81.0 81.0 81.0 81.0 C81.0 81.0 81.0 81.0 81.0 81.0 C81.0 81.0 81.0 81.0 81.0 81.0 C81.0 81.0 81.0 81.0 81.0 81.0 C81.0 81.0 81.0 81.0 81.0 81.0 C81.0 81.0 81.0 81.0 81.0 81.0 C81.0 81.0 81.0 81.0 81.0 81.0 C81.0 81.0 81.0 81.0 81.0 81.0 C81.0 81.0 81.0 81.0 81.0 81.0 C81.0 81.0 81.0 81.0 81.0 81.0 C81.0 81.0 81.0 81.0 81.0 81.0 C81.0 81.0 81.0 81.0 81.0 81.0 C81.0 81.0 81.0 81.0 81.0 81.0 C81.0 81.0 81.0 81.0 81.0 81.0 C81.0 81.0 81.0 81.0 81.0 81.0 C81.0 81.0 100.0 19.0 100.0 19.0 C100.0 19.0 100.0 19.0 100.0 19.0 C100.0 19.0 100.0 19.0 100.0 19.0 C100.0 19.0 100.0 19.0 100.0 19.0 C100.0 19.0 100.0 19.0 100.0 19.0 C100.0 19.0 100.0 19.0 100.0 19.0 C100.0 19.0 100.0 19.0 100.0 19.0 C100.0 19.0 100.0 19.0 100.0 19.0 C100.0 19.0 100.0 19.0 100.0 19.0 C100.0 19.0 100.0 19.0 100.0 19.0 C100.0 19.0 100.0 19.0 100.0 19.0 C100.0 19.0 100.0 19.0 100.0 19.0 C100.0 19.0 100.0 19.0 100.0 19.0 C100.0 19.0 100.0 19.0 100.0 19.0 C100.0 19.0 100.0 19.0 100.0 19.0 C100.0 19.0 100.0 19.0 100.0 19.0 C100.0 19.0 100.0 19.0 100.0 19.0 C100.0 19.0 100.0 19.0 100.0 19.0 C100.0 19.0 100.0 19.0 100.0 19.0 C100.0 19.0 100.0 19.0 100.0 19.0 C100.0 19.0 100.0 19.0 100.0 19.0 C100.0 19.0 100.0 19.0 100.0 19.0 C100.0 19.0 100.0 19.0 100.0 19.0 C100.0 19.0 100.0 19.0 100.0 19.0 C100.0 19.0 100.0 19.0 100.0 19.0 C100.0 19.0 100.0 19.0 100.0 19.0 C100.0 19.0 100.0 19.0 100.0 19.0 C100.0 19.0 100.0 19.0 100.0 19.0 C100.0 19.0 100.0 19.0 100.0 19.0 C100.0 19.0 100.0 19.0 100.0 19.0 C100.0 19.0 100.0 19.0 100.0 19.0 C100.0 19.0 100.0 19.0 100.0 19.0 C100.0 19.0 100.0 19.0 100.0 19.0 C100.0 19.0 100.0 19.0 100.0 19.0 C100.0 19.0 100.0 19.0 100.0 19.0 C100.0 19.0 100.0 19.0 100.0 19.0 C100.0 19.0 100.0 19.0 100.0 19.0 C100.0 19.0 100.0 19.0 100.0 19.0 C100.0 19.0 100.0 19.0 100.0 19.0 C100.0 19.0 100.0 19.0 100.0 19.0 C100.0 19.0 100.0 19.0 100.0 19.0 C100.0 19.0 100.0 19.0 100.0 19.0 C100.0 19.0 100.0 19.0 100.0 19.0 C100.0 19.0 100.0 19.0 100.0 19.0 C100.0 19.0 100.0 19.0 100.0 19.0 C100.0 19.0 100.0 19.0 100.0 19.0 C100.0 19.0 100.0 19.0 100.0 19.0 C100.0 19.0 100.0 19.0 100.0 19.0 C100.0 19.0 100.0 19.0 100.0 19.0 C100.0 19.0 100.0 19.0 100.0 19.0 C100.0 19.0 100.0 19.0 100.0 19.0 C100.0 19.0 100.0 19.0 100.0 19.0 C100.0 19.0 100.0 19.0 100.0 19.0 C100.0 19.0 100.0 19.0 100.0 19.0 C100.0 19.0 100.0 19.0 100.0 19.0 C100.0 19.0 100.0 19.0 100.0 19.0 C100.0 19.0 100.0 19.0 100.0 19.0 C100.0 19.0 100.0 19.0 100.0 19.0 C100.0 19.0 100.0 19.0 100.0 19.0 C100.0 19.0 100.0 19.0 100.0 19.0 C100.0 19.0 100.0 19.0 100.0 19.0 C100.0 19.0 100.0 19.0 100.0 19.0 C100.0 19.0 100.0 19.0 100.0 19.0 C100.0 19.0 100.0 19.0 100.0 19.0 C100.0 19.0 100.0 19.0 100.0 19.0 C100.0 19.0 100.0 19.0 100.0 19.0 C100.0 19.0 100.0 19.0 100.0 19.0 C100.0 19.0 100.0 19.0 100.0 19.0 C100.0 19.0 100.0 19.0 100.0 19.0 C100.0 19.0 100.0 19.0 100.0 19.0 C100.0 19.0 100.0 19.0 100.0 19.0 C100.0 19.0 100.0 19.0 100.0 19.0 C100.0 19.0 100.0 19.0 100.0 19.0 C100.0 19.0 100.0 19.0 100.0 19.0 C100.0 19.0 100.0 19.0 100.0 19.0 C100.0 19.0 100.0 19.0 100.0 19.0 C100.0 19.0 100.0 19.0 100.0 19.0 C100.0 19.0 100.0 19.0 100.0 19.0 C100.0 19.0 100.0 19.0 100.0 19.0 C100.0 19.0 100.0 19.0 100.0 19.0 C100.0 19.0 100.0 19.0 100.0 19.0 C100.0 19.0 100.0 19.0 100.0 19.0 C100.0 19.0 100.0 19.0 100.0 19.0 C100.0 19.0 100.0 19.0 100.0 19.0 C100.0 19.0 100.0 19.0 100.0 19.0 C100.0 19.0 100.0 19.0 100.0 19.0 C100.0 19.0 100.0 19.0 100.0 19.0 C100.0 19.0 100.0 19.0 100.0 19.0 C100.0 19.0 100.0 19.0 100.0 19.0 C100.0 19.0 100.0 19.0 100.0 19.0 C100.0 19.0 100.0 19.0 100.0 19.0 C100.0 19.0 100.0 19.0 100.0 19.0 C100.0 19.0 100.0 19.0 100.0 19.0 C100.0 19.0 100.0 19.0 100.0 19.0 C100.0 19.0 100.0 19.0 100.0 19.0 C100.0 19.0 100.0 19.0 100.0 19.0 C100.0 19.0 100.0 19.0 100.0 19.0 C100.0 19.0 100.0 19.0 100.0 19.0 C100.0 19.0 100.0 19.0 100.0 19.0 C100.0 19.0 100.0 19.0 100.0 19.0 C100.0 19.0 100.0 19.0 100.0 19.0 C100.0 19.0 100.0 19.0 100.0 19.0 C100.0 19.0 100.0 19.0 100.0 19.0 C100.0 19.0 100.0 19.0 100.0 19.0 C100.0 19.0 100.0 19.0 100.0 19.0 C100.0 19.0 100.0 19.0 100.0 19.0 C100.0 19.0 100.0 19.0 100.0 19.0 C100.0 19.0 100.0 19.0 100.0 19.0 C100.0 19.0 100.0 19.0 100.0 19.0 C100.0 19.0 100.0 19.0 100.0 19.0 C100.0 19.0 100.0 19.0 100.0 19.0 C100.0 19.0 100.0 19.0 100.0 19.0 C100.0 19.0 100.0 19.0 100.0 19.0 C100.0 19.0 100.0 19.0 100.0 19.0 C100.0 19.0 100.0 19.0 100.0 19.0 C100.0 19.0 100.0 19.0 100.0 19.0 C100.0 19.0 100.0 19.0 100.0 19.0 C100.0 19.0 100.0 19.0 100.0 19.0 C100.0 19.0 100.0 19.0 100.0 19.0 C100.0 19.0 100.0 19.0 100.0 19.0 C100.0 19.0 100.0 19.0 100.0 19.0 C100.0 19.0 100.0 19.0 100.0 19.0"></path></svg>