<svg xmlns="http://www.w3.org/2000/svg" viewBox="0.0 0.0 200.0 200.0" height="200px" width="200px"><path fill="#ffffee" fill-opacity="1.0"  filling="0" d="M140.0 163.0 L50.0 163.0 C47.0 163.0 44.0 160.0 44.0 156.0 L44.0 47.0 C44.0 43.0 47.0 39.0 50.0 39.0 L140.0 39.0 C143.0 39.0 146.0 43.0 146.0 47.0 L146.0 156.0 C146.0 160.0 143.0 163.0 140.0 163.0 L140.0 163.0 Z"></path>
<path fill="#222222" fill-opacity="1.0"  filling="0" d="M140.0 165.0 L50.0 165.0 C46.0 165.0 42.0 161.0 42.0 156.0 L42.0 47.0 C42.0 42.0 46.0 38.0 50.0 38.0 L140.0 38.0 C144.0 38.0 148.0 42.0 148.0 47.0 L148.0 156.0 C148.0 161.0 144.0 165.0 140.0 165.0 L140.0 165.0 Z M50.0 41.0 C48.0 41.0 46.0 43.0 46.0 47.0 L46.0 156.0 C46.0 159.0 48.0 162.0 50.0 162.0 L140.0 162.0 C143.0 162.0 145.0 159.0 145.0 156.0 L145.0 47.0 C145.0 43.0 143.0 41.0 140.0 41.0 L50.0 41.0 L50.0 41.0 Z"></path>
<path fill="#ffffff" fill-opacity="1.0"  filling="0" d="M80.0 85.0 C79.0 85.0 78.0 84.0 78.0 83.0 L78.0 54.0 C78.0 53.0 79.0 52.0 80.0 52.0 C94.0 52.0 106.0 65.0 106.0 82.0 C106.0 83.0 105.0 84.0 104.0 84.0 L80.0 85.0 L80.0 85.0 Z"></path>
<path fill="#222222" fill-opacity="1.0"  filling="0" d="M80.0 86.0 C78.0 86.0 76.0 85.0 76.0 83.0 L76.0 54.0 C76.0 52.0 78.0 51.0 80.0 51.0 C94.0 51.0 107.0 64.0 107.0 82.0 C107.0 84.0 106.0 86.0 104.0 86.0 L80.0 86.0 L80.0 86.0 Z M80.0 54.0 C79.0 54.0 79.0 54.0 79.0 54.0 L79.0 83.0 C79.0 83.0 80.0 83.0 80.0 83.0 L104.0 83.0 C104.0 83.0 104.0 83.0 104.0 82.0 C104.0 65.0 94.0 54.0 80.0 54.0 L80.0 54.0 Z"></path>
<path fill="#ffbb44" fill-opacity="1.0"  filling="0" d="M74.0 85.0 C75.0 84.0 76.0 83.0 77.0 83.0 L103.0 84.0 C104.0 97.0 94.0 109.0 82.0 112.0 C68.0 115.0 54.0 108.0 49.0 95.0 C44.0 80.0 51.0 64.0 65.0 59.0 C68.0 58.0 71.0 58.0 74.0 58.0 L74.0 83.0 C74.0 84.0 75.0 85.0 74.0 85.0 L74.0 85.0 Z"></path>
<path fill="#000000" fill-opacity="1.0"  filling="0" d="M74.0 115.0 C63.0 115.0 53.0 108.0 48.0 96.0 C42.0 80.0 50.0 63.0 64.0 57.0 C68.0 56.0 71.0 56.0 74.0 56.0 C75.0 56.0 75.0 57.0 75.0 58.0 L75.0 83.0 C75.0 84.0 76.0 85.0 77.0 85.0 L103.0 86.0 C105.0 86.0 106.0 85.0 107.0 83.0 C107.0 83.0 107.0 83.0 107.0 82.0 C107.0 65.0 94.0 50.0 79.0 50.0 C78.0 50.0 76.0 50.0 75.0 52.0 C75.0 53.0 74.0 54.0 74.0 55.0 C71.0 55.0 67.0 55.0 63.0 57.0 C50.0 64.0 41.0 80.0 48.0 95.0 C53.0 109.0 66.0 117.0 80.0 114.0 C93.0 112.0 104.0 100.0 103.0 85.0 L77.0 83.0 C76.0 83.0 75.0 84.0 75.0 85.0 C75.0 85.0 75.0 86.0 74.0 86.0 C74.0 85.0 73.0 85.0 73.0 83.0 L73.0 58.0 C72.0 58.0 72.0 58.0 72.0 58.0 C70.0 58.0 67.0 58.0 65.0 59.0 C51.0 64.0 44.0 80.0 49.0 95.0 C54.0 107.0 64.0 114.0 75.0 113.0 C76.0 113.0 76.0 113.0 77.0 113.0 C77.0 113.0 78.0 113.0 79.0 113.0 C80.0 113.0 81.0 113.0 82.0 113.0 C83.0 112.0 85.0 112.0 86.0 111.0 C87.0 111.0 88.0 111.0 89.0 111.0 C90.0 110.0 91.0 110.0 92.0 109.0 C93.0 109.0 94.0 108.0 95.0 108.0 C96.0 107.0 97.0 107.0 97.0 106.0 C98.0 105.0 99.0 105.0 99.0 104.0 C100.0 103.0 101.0 103.0 101.0 102.0 C102.0 101.0 102.0 100.0 103.0 100.0 C103.0 99.0 103.0 98.0 103.0 97.0 C104.0 96.0 104.0 95.0 104.0 94.0 C104.0 93.0 104.0 92.0 104.0 91.0 C104.0 90.0 104.0 89.0 103.0 88.0 C103.0 87.0 103.0 86.0 103.0 85.0 C103.0 85.0 103.0 85.0 103.0 85.0 C103.0 85.0 103.0 85.0 103.0 85.0 C103.0 85.0 103.0 85.0 103.0 85.0 C103.0 85.0 103.0 85.0 103.0 85.0 C103.0 85.0 103.0 85.0 103.0 85.0 C103.0 85.0 103.0 85.0 103.0 85.0 C103.0 85.0 103.0 85.0 103.0 85.0 C103.0 85.0 103.0 85.0 103.0 85.0 C103.0 85.0 103.0 85.0 103.0 85.0 C103.0 85.0 103.0 85.0 103.0 85.0 C103.0 85.0 103.0 85.0 103.0 85.0 C103.0 85.0 103.0 85.0 103.0 85.0 C103.0 85.0 103.0 85.0 103.0 85.0 C103.0 85.0 103.0 85.0 103.0 85.0 C103.0 85.0 103.0 85.0 103.0 85.0 C103.0 85.0 103.0 85.0 103.0 85.0 C103.0 85.0 103.0 85.0 103.0 85.0 C103.0 85.0 103.0 85.0 103.0 85.0 C103.0 85.0 103.0 85.0 103.0 85.0 C103.0 85.0 103.0 85.0 103.0 85.0 C103.0 85.0 103.0 85.0 103.0 85.0 C103.0 85.0 103.0 85.0 103.0 85.0 C103.0 85.0 103.0 85.0 103.0 85.0 C103.0 85.0 103.0 85.0 103.0 85.0 C103.0 85.0 103.0 85.0 103.0 85.0 C103.0 85.0 103.0 85.0 103.0 85.0 C103.0 85.0 103.0 85.0 103.0 85.0 C103.0 85.0 103.0 85.0 103.0 85.0 C103.0 85.0 103.0 85.0 103.0 85.0 C103.0 85.0 103.0 85.0 103.0 85.0 C103.0 85.0 103.0 85.0 103.0 85.0 C103.0 85.0 103.0 85.0 103.0 85.0 C103.0 85.0 103.0 85.0 103.0 85.0 C103.0 85.0 103.0 85.0 103.0 85.0 C103.0 85.0 103.0 85.0 103.0 85.0 C103.0 85.0 103.0 85.0 103.0 85.0 C103.0 85.0 103.0 85.0 103.0 85.0 C103.0 85.0 103.0 85.0 103.0 85.0 C103.0 85.0 103.0 85.0 103.0 85.0 C103.0 85.0 103.0 85.0 103.0 85.0 C103.0 85.0 103.0 85.0 103.0 85.0 C103.0 85.0 103.0 85.0 103.0 85.0 C103.0 85.0 103.0 85.0 103.0 85.0 C103.0 85.0 103.0 85.0 103.0 85.0 C103.0 85.0 103.0 85.0 103.0 85.0 C103.0 85.0 103.0 85.0 103.0 85.0 C103.0 85.0 103.0 85.0 103.0 85.0 C103.0 85.0 103.0 85.0 103.0 85.0 C103.0 85.0 103.0 85.0 103.0 85.0 C103.0 85.0 103.0 85.0 103.0 85.0 C103.0 85.0 103.0 85.0 103.0 85.0 C103.0 85.0 103.0 85.0 103.0 85.0 C103.0 85.0 103.0 85.0 103.0 85.0 C103.0 85.0 103.0 85.0 103.0 85.0 C103.0 85.0 103.0 85.0 103.0 85.0 C103.0 85.0 103.0 85.0 103.0 85.0 C103.0 85.0 103.0 85.0 103.0 85.0 C103.0 85.0 103.0 85.0 103.0 85.0 C103.0 85.0 103.0 85.0 103.0 85.0 C103.0 85.0 103.0 85.0 103.0 85.0 C103.0 85.0 103.0 85.0 103.0 85.0 C103.0 85.0 103.0 85.0 103.0 85.0 C103.0 85.0 103.0 85.0 103.0 85.0 C103.0 85.0 103.0 85.0 103.0 85.0 C103.0 85.0 103.0 85.0 103.0 85.0 C103.0 85.0 103.0 85.0 103.0 85.0 C103.0 85.0 103.0 85.0 103.0 85.0 C103.0 85.0 103.0 85.0 103.0 85.0 C103.0 85.0 103.0 85.0 103.0 85.0 C103.0 85.0 103.0 85.0 103.0 85.0 C103.0 85.0 103.0 85.0 103.0 85.0 C103.0 85.0 103.0 85.0 103.0 85.0 C103.0 85.0 103.0 85.0 103.0 85.0 C103.0 85.0 103.0 85.0 103.0 85.0 C103.0 85.0 103.0 85.0 103.0 85.0 C103.0 85.0 103.0 85.0 103.0 85.0 C103.0 85.0 103.0 85.0 103.0 85.0 C103.0 85.0 103.0 85.0 103.0 85.0 C103.0 85.0 103.0 85.0 103.0 85.0 C103.0 85.0 103.0 85.0 103.0 85.0 C103.0 85.0 103.0 85.0 103.0 85.0 C103.0 85.0 103.0 85.0 103.0 85.0 C103.0 85.0 103.0 85.0 103.0 85.0 C103.0 85.0 103.0 85.0 103.0 85.0 C103.0 85.0 103.0 85.0 103.0 85.0 C103.0 85.0 103.0 85.0 103.0 85.0 C103.0 85.0 103.0 85.0 103.0 85.0 C103.0 85.0 103.0 85.0 103.0 85.0 C103.0 85.0 103.0 85.0 103.0 85.0 C103.0 85.0 103.0 85.0 103.0 85.0 C103.0 85.0 103.0 85.0 103.0 85.0 C103.0 85.0 103.0 85.0 103.0 85.0 C103.0 85.0 103.0 85.0 103.0 85.0 C103.0 85.0 103.0 85.0 103.0 85.0 C103.0 85.0 103.0 85.0 103.0 85.0 C103.0 85.0 103.0 85.0 103.0 85.0 C103.0 85.0 103.0 85.0 103.0 85.0 C103.0 85.0 103.0 85.0 103.0 85.0 C103.0 85.0 103.0 85.0 103.0 85.0 C103.0 85.0 103.0 85.0 103.0 85.0 C103.0 85.0 103.0 85.0 103.0 85.0 C103.0 85.0 103.0 85.0 103.0 85.0 C103.0 85.0 103.0 85.0 103.0 85.0 C103.0 85.0 103.0 85.0 103.0 85.0 C103.0 85.0 103.0 85.0 103.0 85.0 C103.0 85.0 103.0 85.0 103.0 85.0 C103.0 85.0 103.0 85.0 103.0 85.0 C103.0 85.0 103.0 85.0 103.0 85.0 C103.0 85.0 103.0 85.0 103.0 85.0 C103.0 85.0 103.0 85.0 103.0 85.0 C103.0 85.0 103.0 85.0 103.0 85.0 C103.0 85.0 103.0 85.0 103.0 85.0 C103.0 85.0 103.0 85.0 103.0 85.0 C103.0 85.0 103.0 85.0 103.0 85.0 C103.0 85.0 103.0 85.0 103.0 85.0 C103.0 85.0 103.0 85.0 103.0 85.0 C103.0 85.0 103.0 85.0 103.0 85.0 C103.0 85.0 103.0 85.0 103.0 85.0 C103.0 85.0 103.0 85.0 103.0 85.0 C103.0 85.0 103.0 85.0 103.0 85.0 C103.0 85.0 103.0 85.0 103.0 85.0 C103.0 85.0 103.0 85.0 103.0 85.0 C103.0 85.0 103.0 85.0 103.0 85.0 C103.0 85.0 103.0 85.0 103.0 85.0 C103.0 85.0 103.0 85.0 103.0 85.0 C103.0 85.0 103.0 85.0 103.0 85.0 C103.0 85.0 103.0 85.0 103.0 85.0 C103.0 85.0 103.0 85.0 103.0 85.0 C103.0 85.0 103.0 85.0 103.0 85.0 C103.0 85.0 103.0 85.0 103.0 85.0 C103.0 85.0 103.0 85.0 103.0 85.0 C103.0 85.0 103.0 85.0 103.0 85.0 C103.0 85.0 103.0 85.0 103.0 85.0 C103.0 85.0 103.0 85.0 103.0 85.0 C103.0 85.0 103.0 85.0 103.0 85.0 C103.0 85.0 103.0 85.0 103.0 85.0 C103.0 85.0 103.0 85.0 103.0 85.0 C103.0 85.0 103.0 85.0 103.0 85.0 C103.0 85.0 103.0 85.0 103.0 85.0 C103.0 85.0 103.0 85.0 103.0 85.0 C103.0 85.0 103.0 85.0 103.0 85.0 C103.0 85.0 103.0 85.0 103.0 85.0 C103.0 85.0 103.0 85.0 103.0 85.0 C103.0 85.0 103.0 85.0 103.0 85.0 C103.0 85.0 103.0 85.0 103.0 85.0 C103.0 85.0 103.0 85.0 103.0 85.0 C103.0 85.0 103.0 85.0 103.0 85.0 C103.0 85.0 103.0 85.0 103.0 85.0 C103.0 85.0 103.0 85.0 103.0 85.0 C103.0 85.0 103.0 85.0 103.0 85.0 C103.0 85.0 103.0 85.0 103.0 85.0 C103.0 85.0 103.0 85.0 103.0 85.0 C103.0 85.0 103.0 85.0 103.0 85.0 C103.0 85.0 103.0 85.0 103.0 85.0 C103.0 85.0 103.0 85.0 103.0 85.0 C103.0 85.0 103.0 85.0 103.0 85.0 C103.0 85.0 103.0 85.0 103.0 85.0 C103.0 85.0 103.0 85.0 103.0 85.0 C103.0 85.0 103.0 85.0 103.0 85.0 C103.0 85.0 103.0 85.0 103.0 85.0 C103.0 85.0 103.0 85.0 103.0 85.0 C103.0 85.0 103.0 85.0 103.0 85.0 C103.0 85.0 103.0 85.0 103.0 85.0 C103.0 85.0 103.0 85.0 103.0 85.0 C103.0 85.0 103.0 85.0 103.0 85.0 C103.0 85.0 103.0 85.0 103.0 85.0 C103.0 85.0 103.0 85.0 103.0 85.0 C103.0 85.0 103.0 85.0 103.0 85.0 C103.0 85.0 103.0 85.0 103.0 85.0 C103.0 85.0 103.0 85.0 103.0 85.0 C103.0 85.0 103.0 85.0 103.0 85.0 C103.0 85.0 103.0 85.0 103.0 85.0 C103.0 85.0 103.0 85.0 103.0 85.0 C103.0 85.0 103.0 85.0 103.0 85.0 C103.0 85.0 103.0 85.0 103.0 85.0 C103.0 85.0 103.0 85.0 103.0 85.0 C103.0 85.0 103.0 85.0 103.0 85.0 C103.0 85.0 103.0 85.0 103.0 85.0 C103.0 85.0 103.0 85.0 103.0 85.0 C103.0 85.0 103.0 85.0 103.0 85.0 C103.0 85.0 103.0 85.0 103.0 85.0 C103.0 85.0 103.0 85.0 97.0 85.0 C97.0 85.0 97.0 85.0 97.0 85.0 C97.0 85.0 97.0 85.0 97.0 85.0 C97.0 85.0 97.0 85.0 97.0 85.0 C97.0 85.0 97.0 85.0 97.0 85.0 C97.0 85.0 97.0 85.0 97.0 85.0 C97.0 85.0 97.0 85.0 97.0 85.0 C97.0 85.0 97.0 85.0 97.0 85.0 C97.0 85.0 97.0 85.0 97.0 85.0 C97.0 85.0 97.0 85.0 97.0 85.0 C97.0 85.0 97.0 85.0 97.0 85.0 C97.0 85.0 97.0 85.0 97.0 85.0 C97.0 85.0 97.0 85.0 97.0 85.0 C97.0 85.0 97.0 85.0 97.0 85.0 C97.0 85.0 97.0 85.0 97.0 85.0 C97.0 85.0 97.0 85.0 97.0 85.0 C97.0 85.0 97.0 85.0 97.0 85.0 C97.0 85.0 97.0 85.0 97.0 85.0 C97.0 85.0 97.0 85.0 97.0 85.0 C97.0 85.0 97.0 85.0 97.0 85.0 C97.0 85.0 97.0 85.0 97.0 85.0 C97.0 85.0 97.0 85.0 97.0 85.0 C97.0 85.0 97.0 85.0 97.0 85.0 C97.0 85.0 97.0 85.0 97.0 85.0 C97.0 85.0 97.0 85.0 97.0 85.0 C97.0 85.0 97.0 85.0 97.0 85.0 C97.0 85.0 97.0 85.0 97.0 85.0 C97.0 85.0 97.0 85.0 97.0 85.0 C97.0 85.0 97.0 85.0 97.0 85.0 C97.0 85.0 97.0 85.0 97.0 85.0 C97.0 85.0 97.0 85.0 97.0 85.0 C97.0 85.0 97.0 85.0 97.0 85.0 C97.0 85.0 97.0 85.0 97.0 85.0 C97.0 85.0 97.0 85.0 97.0 85.0 C97.0 85.0 97.0 85.0 97.0 85.0 C97.0 85.0 97.0 85.0 97.0 85.0 C97.0 85.0 97.0 85.0 97.0 85.0 C97.0 85.0 97.0 85.0 97.0 85.0 C97.0 85.0 97.0 85.0 97.0 85.0 C97.0 85.0 97.0 85.0 97.0 85.0 C97.0 85.0 97.0 85.0 97.0 85.0 C97.0 85.0 97.0 85.0 97.0 85.0 C97.0 85.0 97.0 85.0 97.0 85.0 C97.0 85.0 97.0 85.0 97.0 85.0 C97.0 85.0 97.0 85.0 97.0 85.0 C97.0 85.0 97.0 85.0 97.0 85.0 C82.0 87.0 82.0 87.0 82.0 87.0 C76.0 87.0 75.0 86.0 74.0 85.0 C74.0 85.0 74.0 85.0 74.0 85.0 C74.0 85.0 74.0 85.0 74.0 85.0 C74.0 85.0 74.0 85.0 74.0 85.0 C74.0 85.0 74.0 85.0 74.0 85.0 C74.0 85.0 74.0 85.0 74.0 85.0 C74.0 85.0 74.0 85.0 74.0 85.0 C74.0 85.0 74.0 85.0 74.0 85.0 C74.0 85.0 74.0 85.0 74.0 85.0 C74.0 85.0 74.0 85.0 74.0 85.0 C74.0 85.0 74.0 85.0 74.0 85.0 C74.0 85.0 74.0 85.0 74.0 85.0 C74.0 85.0 74.0 85.0 74.0 85.0 C74.0 85.0 74.0 85.0 74.0 85.0 C74.0 85.0 74.0 85.0 74.0 85.0 C74.0 85.0 74.0 85.0 74.0 85.0 C74.0 85.0 74.0 85.0 74.0 85.0 C74.0 85.0 74.0 85.0 74.0 85.0 C74.0 85.0 74.0 85.0 74.0 85.0 C74.0 85.0 74.0 85.0 74.0 85.0 C74.0 85.0 74.0 85.0 74.0 85.0 C74.0 85.0 74.0 85.0 74.0 85.0 C74.0 85.0 74.0 85.0 74.0 85.0 C74.0 85.0 74.0 85.0 74.0 85.0 C74.0 85.0 74.0 85.0 74.0 85.0 C74.0 85.0 74.0 85.0 74.0 85.0 C74.0 85.0 74.0 85.0 74.0 85.0 C74.0 85.0 74.0 85.0 74.0 85.0 C74.0 85.0 74.0 85.0 74.0 85.0 C74.0 85.0 74.0 85.0 74.0 85.0 C74.0 85.0 74.0 85.0 74.0 85.0 C74.0 85.0 74.0 85.0 74.0 85.0 C74.0 85.0 74.0 85.0 74.0 85.0 C74.0 85.0 74.0 85.0 74.0 85.0 C74.0 85.0 74.0 85.0 74.0 85.0 C74.0 85.0 74.0 85.0 74.0 85.0 C74.0 85.0 74.0 85.0 74.0 85.0 C74.0 85.0 74.0 85.0 74.0 85.0 C74.0 85.0 74.0 85.0 74.0 85.0 C74.0 85.0 74.0 85.0 74.0 85.0 C74.0 85.0 74.0 85.0 74.0 85.0 C74.0 85.0 74.0 85.0 74.0 85.0 C74.0 85.0 74.0 85.0 74.0 85.0 C74.0 85.0 74.0 85.0 74.0 85.0 C74.0 85.0 74.0 85.0 74.0 85.0 C74.0 85.0 74.0 85.0 74.0 85.0 C74.0 85.0 74.0 85.0 74.0 85.0 C74.0 85.0 74.0 85.0 74.0 85.0 C74.0 85.0 74.0 85.0 74.0 85.0 C74.0 85.0 74.0 85.0 74.0 85.0 C74.0 85.0 74.0 85.0 74.0 85.0 C74.0 85.0 74.0 85.0 74.0 85.0 C74.0 85.0 74.0 85.0 74.0 85.0"></path></svg>