<svg xmlns="http://www.w3.org/2000/svg" viewBox="0.0 0.0 200.0 200.0" height="200px" width="200px"><path fill="#ffffff" fill-opacity="1.0"  filling="0" d="M148.0 163.0 L49.0 163.0 C48.0 163.0 47.0 162.0 47.0 161.0 L47.0 39.0 C47.0 38.0 48.0 37.0 49.0 37.0 L148.0 37.0 C149.0 37.0 150.0 38.0 150.0 39.0 L150.0 161.0 C150.0 162.0 149.0 163.0 148.0 163.0 L148.0 163.0 Z"></path>
<path fill="#222222" fill-opacity="1.0"  filling="0" d="M148.0 165.0 L51.0 165.0 C46.0 165.0 42.0 161.0 42.0 156.0 L42.0 46.0 C42.0 42.0 46.0 38.0 51.0 38.0 L139.0 38.0 C144.0 38.0 148.0 42.0 148.0 46.0 L148.0 156.0 C148.0 161.0 144.0 165.0 139.0 165.0 L140.0 165.0 L140.0 165.0 L148.0 165.0 L148.0 165.0 Z M51.0 41.0 C48.0 41.0 46.0 43.0 46.0 46.0 L46.0 156.0 C46.0 159.0 48.0 162.0 51.0 162.0 L139.0 162.0 C143.0 162.0 145.0 159.0 145.0 156.0 L145.0 46.0 C145.0 43.0 143.0 41.0 139.0 41.0 L51.0 41.0 L51.0 41.0 Z"></path>
<path fill="#ffcc44" fill-opacity="1.0"  filling="0" d="M44.0 85.0 A29.0 29.0 0.0 1 0 102.0 85.0 A29.0 29.0 0.0 1 0 44.0 85.0 L44.0 85.0 Z"></path>
<path fill="#222222" fill-opacity="1.0"  filling="0" d="M74.0 115.0 C56.0 115.0 42.0 101.0 42.0 85.0 C42.0 69.0 56.0 55.0 73.0 55.0 C89.0 55.0 103.0 69.0 103.0 85.0 C103.0 101.0 89.0 115.0 74.0 115.0 L74.0 115.0 Z M74.0 58.0 C58.0 58.0 46.0 70.0 46.0 85.0 C46.0 99.0 58.0 112.0 74.0 112.0 C88.0 112.0 100.0 99.0 100.0 85.0 C100.0 70.0 88.0 58.0 74.0 58.0 L74.0 58.0 Z"></path>
<path fill="#ffffff" fill-opacity="1.0"  filling="0" d="M81.0 81.0 L104.0 81.0 C104.0 81.0 105.0 81.0 105.0 82.0 C105.0 82.0 104.0 83.0 104.0 83.0 L81.0 83.0 C80.0 83.0 80.0 82.0 80.0 82.0 C80.0 81.0 80.0 81.0 81.0 81.0 L81.0 81.0 Z"></path>
<path fill="#222222" fill-opacity="1.0"  filling="0" d="M103.0 86.0 L81.0 86.0 C79.0 86.0 78.0 84.0 78.0 82.0 C78.0 80.0 79.0 79.0 81.0 79.0 L104.0 79.0 C105.0 79.0 107.0 80.0 107.0 82.0 C107.0 84.0 105.0 86.0 103.0 86.0 L103.0 86.0 Z"></path>
<path fill="#222222" fill-opacity="1.0"  filling="0" d="M77.0 86.0 C76.0 86.0 76.0 85.0 76.0 85.0 C75.0 84.0 75.0 84.0 76.0 83.0 L102.0 73.0 C102.0 72.0 103.0 73.0 104.0 73.0 C104.0 74.0 104.0 75.0 103.0 75.0 L78.0 86.0 C77.0 86.0 77.0 86.0 77.0 86.0 L77.0 86.0 Z"></path>
<path fill="#222222" fill-opacity="1.0"  filling="0" d="M103.0 98.0 C102.0 98.0 102.0 98.0 102.0 97.0 L76.0 82.0 C75.0 82.0 75.0 81.0 75.0 80.0 C76.0 79.0 77.0 79.0 78.0 80.0 L104.0 95.0 C104.0 96.0 104.0 97.0 104.0 97.0 C103.0 97.0 103.0 98.0 103.0 98.0 L103.0 98.0 Z"></path>
<path fill="#222222" fill-opacity="1.0"  filling="0" d="M76.0 98.0 C75.0 98.0 75.0 97.0 75.0 97.0 C74.0 97.0 74.0 96.0 75.0 95.0 L102.0 80.0 C102.0 79.0 103.0 79.0 104.0 80.0 C104.0 81.0 104.0 82.0 103.0 82.0 L77.0 97.0 C77.0 98.0 76.0 98.0 76.0 98.0 L76.0 98.0 Z"></path>
<path fill="#222222" fill-opacity="1.0"  filling="0" d="M74.0 98.0 C73.0 98.0 73.0 97.0 72.0 97.0 C72.0 96.0 72.0 96.0 72.0 95.0 L103.0 80.0 C104.0 79.0 105.0 79.0 105.0 80.0 C106.0 81.0 106.0 82.0 105.0 82.0 L75.0 97.0 C74.0 98.0 74.0 98.0 74.0 98.0 L74.0 98.0 Z"></path>
<path fill="#222222" fill-opacity="1.0"  filling="0" d="M76.0 84.0 C75.0 84.0 74.0 83.0 74.0 82.0 L74.0 54.0 C74.0 52.0 76.0 50.0 78.0 50.0 C93.0 50.0 107.0 64.0 107.0 82.0 C107.0 83.0 106.0 84.0 105.0 84.0 C104.0 84.0 104.0 83.0 104.0 82.0 C104.0 65.0 93.0 53.0 78.0 53.0 C78.0 53.0 77.0 53.0 77.0 54.0 L77.0 82.0 C77.0 83.0 77.0 84.0 76.0 84.0 L76.0 84.0 Z"></path>
<path fill="#222222" fill-opacity="1.0"  filling="0" d="M59.0 154.0 C58.0 154.0 57.0 154.0 57.0 152.0 L57.0 121.0 C57.0 120.0 58.0 120.0 59.0 120.0 C59.0 120.0 60.0 120.0 60.0 121.0 L60.0 152.0 C60.0 154.0 59.0 154.0 59.0 154.0 L59.0 154.0 Z"></path>
<path fill="#222222" fill-opacity="1.0"  filling="0" d="M66.0 154.0 C66.0 154.0 66.0 154.0 66.0 154.0 L56.0 145.0 C56.0 145.0 56.0 145.0 56.0 145.0 C56.0 145.0 56.0 145.0 56.0 145.0 L66.0 138.0 C66.0 138.0 67.0 138.0 67.0 139.0 C67.0 139.0 67.0 139.0 67.0 139.0 L57.0 145.0 L67.0 153.0 C67.0 153.0 67.0 154.0 67.0 154.0 C67.0 154.0 66.0 154.0 66.0 154.0 L66.0 154.0 Z"></path>
<path fill="#222222" fill-opacity="1.0"  filling="0" d="M66.0 154.0 C66.0 154.0 66.0 154.0 66.0 154.0 C66.0 154.0 66.0 153.0 66.0 153.0 L74.0 145.0 L66.0 139.0 C66.0 139.0 66.0 139.0 66.0 138.0 C66.0 138.0 66.0 138.0 67.0 138.0 L77.0 145.0 C78.0 145.0 78.0 145.0 78.0 145.0 C78.0 146.0 78.0 146.0 77.0 146.0 L67.0 154.0 C67.0 154.0 66.0 154.0 66.0 154.0 L66.0 154.0 Z"></path>
<path fill="#222222" fill-opacity="1.0"  filling="0" d="M66.0 154.0 C66.0 154.0 66.0 154.0 66.0 154.0 C66.0 154.0 66.0 153.0 66.0 153.0 L74.0 145.0 C74.0 145.0 75.0 145.0 75.0 145.0 C76.0 146.0 75.0 146.0 75.0 147.0 L67.0 154.0 C67.0 154.0 66.0 154.0 66.0 154.0 L66.0 154.0 Z"></path>
<path fill="#222222" fill-opacity="1.0"  filling="0" d="M66.0 154.0 C66.0 154.0 66.0 154.0 66.0 154.0 C66.0 154.0 66.0 153.0 66.0 153.0 L75.0 147.0 C76.0 147.0 76.0 147.0 77.0 147.0 C77.0 148.0 77.0 148.0 76.0 149.0 L67.0 154.0 C67.0 154.0 66.0 154.0 66.0 154.0 L66.0 154.0 Z"></path>
<path fill="#222222" fill-opacity="1.0"  filling="0" d="M66.0 154.0 C66.0 154.0 66.0 154.0 66.0 154.0 C66.0 154.0 66.0 153.0 66.0 153.0 L76.0 149.0 C76.0 149.0 77.0 149.0 77.0 149.0 C77.0 150.0 77.0 150.0 76.0 150.0 L67.0 154.0 C67.0 154.0 66.0 154.0 66.0 154.0 L66.0 154.0 Z"></path>
<path fill="#222222" fill-opacity="1.0"  filling="0" d="M66.0 154.0 C66.0 154.0 66.0 154.0 66.0 154.0 C66.0 154.0 66.0 153.0 66.0 153.0 L76.0 150.0 C76.0 150.0 77.0 150.0 77.0 150.0 C77.0 151.0 77.0 151.0 76.0 151.0 L67.0 154.0 C66.0 154.0 66.0 154.0 66.0 154.0 L66.0 154.0 Z"></path>
<path fill="#222222" fill-opacity="1.0"  filling="0" d="M66.0 154.0 C66.0 154.0 66.0 154.0 66.0 154.0 C66.0 154.0 66.0 153.0 66.0 153.0 L76.0 151.0 C76.0 151.0 77.0 151.0 77.0 151.0 C77.0 152.0 76.0 152.0 76.0 152.0 L67.0 154.0 C66.0 154.0 66.0 154.0 66.0 154.0 L66.0 154.0 Z"></path>
<path fill="#222222" fill-opacity="1.0"  filling="0" d="M66.0 154.0 C66.0 154.0 66.0 154.0 66.0 154.0 C66.0 154.0 66.0 153.0 66.0 153.0 L76.0 152.0 C76.0 152.0 77.0 152.0 77.0 152.0 C77.0 153.0 76.0 153.0 76.0 153.0 L66.0 154.0 C66.0 154.0 66.0 154.0 66.0 154.0 L66.0 154.0 Z"></path>
<path fill="#222222" fill-opacity="1.0"  filling="0" d="M66.0 154.0 C66.0 154.0 66.0 154.0 66.0 154.0 C66.0 154.0 66.0 153.0 66.0 153.0 L76.0 153.0 C77.0 153.0 77.0 153.0 77.0 153.0 C77.0 154.0 77.0 154.0 76.0 154.0 L66.0 154.0 C66.0 154.0 66.0 154.0 66.0 154.0 L66.0 154.0 Z"></path>
<path fill="#222222" fill-opacity="1.0"  filling="0" d="M66.0 154.0 C66.0 154.0 66.0 154.0 66.0 154.0 C66.0 154.0 66.0 153.0 66.0 153.0 L76.0 153.0 C77.0 153.0 77.0 153.0 77.0 153.0 C77.0 154.0 77.0 154.0 76.0 154.0 L66.0 154.0 C66.0 154.0 66.0 154.0 66.0 154.0 L66.0 154.0 Z"></path>
<path fill="#222222" fill-opacity="1.0"  filling="0" d="M66.0 154.0 C66.0 154.0 66.0 154.0 66.0 154.0 C66.0 154.0 66.0 153.0 66.0 153.0 L76.0 153.0 C77.0 153.0 77.0 153.0 77.0 153.0 C77.0 154.0 77.0 154.0 76.0 154.0 L66.0 154.0 C66.0 154.0 66.0 154.0 66.0 154.0 L66.0 154.0 Z"></path>
<path fill="#222222" fill-opacity="1.0"  filling="0" d="M66.0 154.0 C66.0 154.0 66.0 154.0 66.0 154.0 C66.0 154.0 66.0 153.0 66.0 153.0 L76.0 153.0 C77.0 153.0 77.0 153.0 77.0 153.0 C77.0 154.0 77.0 154.0 76.0 154.0 L66.0 154.0 C66.0 154.0 66.0 154.0 66.0 154.0 L66.0 154.0 Z"></path>
<path fill="#222222" fill-opacity="1.0"  filling="0" d="M66.0 154.0 C66.0 154.0 66.0 154.0 66.0 154.0 C66.0 154.0 66.0 153.0 66.0 153.0 L76.0 153.0 C77.0 153.0 77.0 153.0 77.0 153.0 C77.0 154.0 77.0 154.0 76.0 154.0 L66.0 154.0 C66.0 154.0 66.0 154.0 66.0 154.0 L66.0 154.0 Z"></path>
<path fill="#222222" fill-opacity="1.0"  filling="0" d="M66.0 154.0 C66.0 154.0 66.0 154.0 66.0 154.0 C66.0 154.0 66.0 153.0 66.0 153.0 L76.0 153.0 C77.0 153.0 77.0 153.0 77.0 153.0 C77.0 154.0 77.0 154.0 76.0 154.0 L66.0 154.0 C66.0 154.0 66.0 154.0 66.0 154.0 L66.0 154.0 Z"></path>
<path fill="#222222" fill-opacity="1.0"  filling="0" d="M66.0 154.0 C66.0 154.0 66.0 154.0 66.0 154.0 C66.0 154.0 66.0 153.0 66.0 153.0 L76.0 153.0 C77.0 153.0 77.0 153.0 77.0 153.0 C77.0 154.0 77.0 154.0 76.0 154.0 L66.0 154.0 C66.0 154.0 66.0 154.0 66.0 154.0 L66.0 154.0 Z"></path>
<path fill="#222222" fill-opacity="1.0"  filling="0" d="M66.0 154.0 C66.0 154.0 66.0 154.0 66.0 154.0 C66.0 154.0 66.0 153.0 66.0 153.0 L76.0 153.0 C77.0 153.0 77.0 153.0 77.0 153.0 C77.0 154.0 77.0 154.0 76.0 154.0 L66.0 154.0 C66.0 154.0 66.0 154.0 66.0 154.0 L66.0 154.0 Z"></path>
<path fill="#222222" fill-opacity="1.0"  filling="0" d="M66.0 154.0 C66.0 154.0 66.0 154.0 66.0 154.0 C66.0 154.0 66.0 153.0 66.0 153.0 L76.0 153.0 C77.0 153.0 77.0 153.0 77.0 153.0 C77.0 154.0 77.0 154.0 76.0 154.0 L66.0 154.0 C66.0 154.0 66.0 154.0 66.0 154.0 L66.0 154.0 Z"></path>
<path fill="#222222" fill-opacity="1.0"  filling="0" d="M66.0 154.0 C66.0 154.0 66.0 154.0 66.0 154.0 C66.0 154.0 66.0 153.0 66.0 153.0 L76.0 153.0 C77.0 153.0 77.0 153.0 77.0 153.0 C77.0 154.0 77.0 154.0 76.0 154.0 L66.0 154.0 C66.0 154.0 66.0 154.0 66.0 154.0 L66.0 154.0 Z"></path>
<path fill="#222222" fill-opacity="1.0"  filling="0" d="M66.0 154.0 C66.0 154.0 66.0 154.0 66.0 154.0 C66.0 154.0 66.0 153.0 66.0 153.0 L76.0 153.0 C77.0 153.0 77.0 153.0 77.0 153.0 C77.0 154.0 77.0 154.0 76.0 154.0 L66.0 154.0 C66.0 154.0 66.0 154.0 66.0 154.0 L66.0 154.0 Z"></path>
<path fill="#222222" fill-opacity="1.0"  filling="0" d="M66.0 154.0 C66.0 154.0 66.0 154.0 66.0 154.0 C66.0 154.0 66.0 153.0 66.0 153.0 L76.0 153.0 C77.0 153.0 77.0 153.0 77.0 153.0 C77.0 154.0 77.0 154.0 76.0 154.0 L66.0 154.0 C66.0 154.0 66.0 154.0 66.0 154.0 L66.0 154.0 Z"></path>
<path fill="#222222" fill-opacity="1.0"  filling="0" d="M66.0 154.0 C66.0 154.0 66.0 154.0 66.0 154.0 C66.0 154.0 66.0 153.0 66.0 153.0 L76.0 153.0 C77.0 153.0 77.0 153.0 77.0 153.0 C77.0 154.0 77.0 154.0 76.0 154.0 L66.0 154.0 C66.0 154.0 66.0 154.0 66.0 154.0 L66.0 154.0 Z"></path>
<path fill="#222222" fill-opacity="1.0"  filling="0" d="M66.0 154.0 C66.0 154.0 66.0 154.0 66.0 154.0 C66.0 154.0 66.0 153.0 66.0 153.0 L76.0 153.0 C77.0 153.0 77.0 153.0 77.0 153.0 C77.0 154.0 77.0 154.0 76.0 154.0 L66.0 154.0 C66.0 154.0 66.0 154.0 66.0 154.0 L66.0 154.0 Z"></path>
<path fill="#222222" fill-opacity="1.0"  filling="0" d="M66.0 154.0 C66.0 154.0 66.0 154.0 66.0 154.0 C66.0 154.0 66.0 153.0 66.0 153.0 L76.0 153.0 C77.0 153.0 77.0 153.0 77.0 153.0 C77.0 154.0 77.0 154.0 76.0 154.0 L66.0 154.0 C66.0 154.0 66.0 154.0 66.0 154.0 L66.0 154.0 Z"></path>
<path fill="#222222" fill-opacity="1.0"  filling="0" d="M66.0 154.0 C66.0 154.0 66.0 154.0 66.0 154.0 C66.0 154.0 66.0 153.0 66.0 153.0 L76.0 153.0 C77.0 153.0 77.0 153.0 77.0 153.0 C77.0 154.0 77.0 154.0 76.0 154.0 L66.0 154.0 C66.0 154.0 66.0 154.0 66.0 154.0 L66.0 154.0 Z"></path>
<path fill="#222222" fill-opacity="1.0"  filling="0" d="M66.0 154.0 C66.0 154.0 66.0 154.0 66.0 154.0 C66.0 154.0 66.0 153.0 66.0 153.0 L76.0 153.0 C77.0 153.0 77.0 153.0 77.0 153.0 C77.0 154.0 77.0 154.0 76.0 154.0 L66.0 154.0 C66.0 154.0 66.0 154.0 66.0 154.0 L66.0 154.0 Z"></path>
<path fill="#222222" fill-opacity="1.0"  filling="0" d="M66.0 154.0 C66.0 154.0 66.0 154.0 66.0 154.0 C66.0 154.0 66.0 153.0 66.0 153.0 L76.0 153.0 C77.0 153.0 77.0 153.0 77.0 153.0 C77.0 154.0 77.0 154.0 76.0 154.0 L66.0 154.0 C66.0 154.0 66.0 154.0 66.0 154.0 L66.0 154.0 Z"></path>
<path fill="#222222" fill-opacity="1.0"  filling="0" d="M66.0 154.0 C66.0 154.0 66.0 154.0 66.0 154.0 C66.0 154.0 66.0 153.0 66.0 153.0 L76.0 153.0 C77.0 153.0 77.0 153.0 77.0 153.0 C77.0 154.0 77.0 154.0 76.0 154.0 L66.0 154.0 C66.0 154.0 66.0 154.0 66.0 154.0 L66.0 154.0 Z"></path>
<path fill="#000000" fill-opacity="1.0"  filling="0" d="M66.0 154.0 C66.0 154.0 66.0 154.0 66.0 154.0 C66.0 154.0 66.0 153.0 66.0 153.0 L76.0 153.0"></path></svg>