<svg xmlns="http://www.w3.org/2000/svg" viewBox="0.0 0.0 200.0 200.0" height="200px" width="200px"><path fill="#ffffee" fill-opacity="1.0"  filling="0" d="M139.0 163.0 L51.0 163.0 C48.0 163.0 44.0 160.0 44.0 156.0 L44.0 47.0 C44.0 43.0 48.0 39.0 51.0 39.0 L139.0 39.0 C143.0 39.0 146.0 43.0 146.0 47.0 L146.0 156.0 C146.0 160.0 143.0 163.0 139.0 163.0 L139.0 163.0 Z"></path>
<path fill="#222222" fill-opacity="1.0"  filling="0" d="M139.0 165.0 L51.0 165.0 C46.0 165.0 42.0 161.0 42.0 156.0 L42.0 47.0 C42.0 42.0 46.0 38.0 51.0 38.0 L139.0 38.0 C144.0 38.0 148.0 42.0 148.0 47.0 L148.0 156.0 C148.0 161.0 144.0 165.0 139.0 165.0 L139.0 165.0 Z M51.0 41.0 C48.0 41.0 46.0 43.0 46.0 47.0 L46.0 156.0 C46.0 159.0 48.0 162.0 51.0 162.0 L139.0 162.0 C142.0 162.0 145.0 159.0 145.0 156.0 L145.0 47.0 C145.0 43.0 142.0 41.0 139.0 41.0 L51.0 41.0 L51.0 41.0 Z"></path>
<path fill="#ffffff" fill-opacity="1.0"  filling="0" d="M73.0 85.0 A29.0 29.0 0.0 1 0 122.0 85.0 A29.0 29.0 0.0 1 0 73.0 85.0 L73.0 85.0 Z"></path>
<path fill="#222222" fill-opacity="1.0"  filling="0" d="M95.0 120.0 C81.0 120.0 70.0 107.0 70.0 92.0 C70.0 77.0 81.0 65.0 95.0 65.0 C109.0 65.0 120.0 77.0 120.0 92.0 C120.0 107.0 109.0 120.0 95.0 120.0 L95.0 120.0 Z M95.0 68.0 C83.0 68.0 73.0 79.0 73.0 92.0 C73.0 105.0 83.0 115.0 95.0 115.0 C107.0 115.0 118.0 105.0 118.0 92.0 C118.0 79.0 107.0 68.0 95.0 68.0 L95.0 68.0 Z"></path>
<path fill="#ffbb44" fill-opacity="1.0"  filling="0" d="M81.0 81.0 L101.0 81.0 C102.0 81.0 103.0 82.0 103.0 83.0 C103.0 97.0 91.0 110.0 76.0 110.0 C60.0 110.0 48.0 97.0 48.0 83.0 C48.0 69.0 60.0 57.0 76.0 57.0 L76.0 57.0 L76.0 83.0 C76.0 82.0 78.0 81.0 81.0 81.0 L81.0 81.0 Z"></path>
<path fill="#222222" fill-opacity="1.0"  filling="0" d="M76.0 112.0 C59.0 112.0 46.0 98.0 46.0 83.0 C46.0 68.0 59.0 55.0 76.0 55.0 C77.0 55.0 78.0 56.0 78.0 57.0 L78.0 82.0 C79.0 82.0 80.0 82.0 81.0 82.0 L101.0 82.0 C101.0 82.0 102.0 82.0 102.0 82.0 L102.0 83.0 C102.0 98.0 90.0 112.0 76.0 112.0 L76.0 112.0 Z M74.0 58.0 C60.0 59.0 50.0 70.0 50.0 83.0 C50.0 96.0 61.0 108.0 76.0 108.0 C89.0 108.0 100.0 96.0 100.0 83.0 L100.0 82.0 L81.0 82.0 C79.0 82.0 77.0 82.0 75.0 82.0 L75.0 58.0 L74.0 58.0 L74.0 58.0 Z"></path>
<path fill="#ffffff" fill-opacity="1.0"  filling="0" d="M76.0 84.0 L76.0 55.0 C76.0 54.0 77.0 52.0 78.0 52.0 C93.0 52.0 106.0 65.0 106.0 82.0 C106.0 82.0 105.0 83.0 104.0 83.0 L76.0 83.0 L76.0 84.0 L76.0 84.0 Z"></path>
<path fill="#222222" fill-opacity="1.0"  filling="0" d="M103.0 85.0 L76.0 85.0 C75.0 85.0 75.0 84.0 75.0 84.0 L75.0 55.0 C75.0 53.0 76.0 50.0 78.0 50.0 C94.0 50.0 107.0 64.0 107.0 82.0 C107.0 83.0 106.0 85.0 104.0 85.0 L103.0 85.0 L103.0 85.0 Z M77.0 82.0 L104.0 82.0 C104.0 65.0 93.0 53.0 78.0 53.0 C78.0 53.0 77.0 54.0 77.0 55.0 L77.0 82.0 L77.0 82.0 Z"></path>
<path fill="#222222" fill-opacity="1.0"  filling="0" d="M74.0 83.0 L74.0 56.0 C74.0 55.0 75.0 54.0 76.0 54.0 C77.0 54.0 77.0 55.0 77.0 56.0 L77.0 83.0 C77.0 84.0 77.0 85.0 76.0 85.0 C75.0 85.0 74.0 84.0 74.0 83.0 L74.0 83.0 Z"></path>
<path fill="#222222" fill-opacity="1.0"  filling="0" d="M82.0 83.0 L82.0 55.0 C82.0 54.0 83.0 53.0 84.0 53.0 C85.0 53.0 86.0 54.0 86.0 55.0 L86.0 83.0 C86.0 84.0 85.0 85.0 84.0 85.0 C83.0 85.0 82.0 84.0 82.0 83.0 L82.0 83.0 Z"></path>
<path fill="#222222" fill-opacity="1.0"  filling="0" d="M90.0 83.0 L90.0 55.0 C90.0 54.0 91.0 53.0 92.0 53.0 C93.0 53.0 94.0 54.0 94.0 55.0 L94.0 83.0 C94.0 84.0 93.0 85.0 92.0 85.0 C91.0 85.0 90.0 84.0 90.0 83.0 L90.0 83.0 Z"></path>
<path fill="#222222" fill-opacity="1.0"  filling="0" d="M97.0 83.0 L97.0 54.0 C97.0 53.0 98.0 52.0 99.0 52.0 C100.0 52.0 101.0 53.0 101.0 54.0 L101.0 83.0 C101.0 84.0 100.0 85.0 99.0 85.0 C98.0 85.0 97.0 84.0 97.0 83.0 L97.0 83.0 Z"></path>
<path fill="#222222" fill-opacity="1.0"  filling="0" d="M100.0 152.0 L58.0 152.0 C57.0 152.0 56.0 152.0 56.0 151.0 C56.0 150.0 57.0 150.0 58.0 150.0 L100.0 150.0 C101.0 150.0 102.0 150.0 102.0 151.0 C102.0 152.0 101.0 152.0 100.0 152.0 L100.0 152.0 Z"></path>
<path fill="#222222" fill-opacity="1.0"  filling="0" d="M141.0 155.0 L57.0 155.0 C57.0 155.0 56.0 154.0 56.0 153.0 L56.0 121.0 C56.0 120.0 57.0 120.0 58.0 120.0 C59.0 120.0 60.0 120.0 60.0 121.0 L60.0 151.0 L141.0 151.0 C142.0 151.0 143.0 151.0 143.0 152.0 C143.0 154.0 142.0 155.0 141.0 155.0 L141.0 155.0 Z"></path>
<path fill="#222222" fill-opacity="1.0"  filling="0" d="M89.0 132.0 C88.0 132.0 87.0 131.0 87.0 130.0 L87.0 126.0 C87.0 124.0 89.0 122.0 91.0 122.0 C93.0 122.0 95.0 124.0 95.0 126.0 L95.0 127.0 C95.0 128.0 94.0 128.0 94.0 128.0 C93.0 128.0 92.0 128.0 92.0 127.0 L92.0 126.0 C92.0 125.0 92.0 125.0 91.0 125.0 C90.0 125.0 90.0 125.0 90.0 126.0 L90.0 130.0 C90.0 131.0 90.0 132.0 89.0 132.0 L89.0 132.0 Z"></path>
<path fill="#222222" fill-opacity="1.0"  filling="0" d="M103.0 137.0 C101.0 137.0 98.0 135.0 98.0 132.0 L98.0 131.0 C98.0 130.0 99.0 130.0 100.0 130.0 C101.0 130.0 101.0 130.0 101.0 131.0 L101.0 132.0 C101.0 133.0 102.0 134.0 103.0 134.0 C104.0 134.0 105.0 133.0 105.0 132.0 L105.0 131.0 C105.0 130.0 106.0 130.0 107.0 130.0 C108.0 130.0 108.0 130.0 108.0 131.0 L108.0 132.0 C108.0 135.0 106.0 137.0 103.0 137.0 L103.0 137.0 Z"></path>
<path fill="#222222" fill-opacity="1.0"  filling="0" d="M89.0 132.0 C88.0 132.0 87.0 131.0 87.0 130.0 L87.0 127.0 C87.0 125.0 89.0 123.0 91.0 123.0 C94.0 123.0 96.0 125.0 96.0 127.0 L96.0 127.0 C96.0 128.0 95.0 129.0 94.0 129.0 C93.0 129.0 93.0 128.0 93.0 127.0 L93.0 127.0 C93.0 126.0 92.0 125.0 91.0 125.0 C90.0 125.0 90.0 126.0 90.0 127.0 L90.0 130.0 C90.0 131.0 90.0 132.0 89.0 132.0 L89.0 132.0 Z"></path>
<path fill="#222222" fill-opacity="1.0"  filling="0" d="M103.0 132.0 C101.0 132.0 99.0 130.0 99.0 128.0 L99.0 127.0 C99.0 126.0 99.0 126.0 100.0 126.0 C101.0 126.0 102.0 126.0 102.0 127.0 L102.0 128.0 C102.0 129.0 102.0 129.0 103.0 129.0 C104.0 129.0 105.0 129.0 105.0 128.0 L105.0 127.0 C105.0 126.0 106.0 126.0 107.0 126.0 C108.0 126.0 108.0 126.0 108.0 127.0 L108.0 128.0 C108.0 130.0 106.0 132.0 103.0 132.0 L103.0 132.0 Z"></path>
<path fill="#222222" fill-opacity="1.0"  filling="0" d="M87.0 123.0 C87.0 123.0 87.0 123.0 87.0 123.0 L87.0 123.0 C87.0 123.0 87.0 123.0 87.0 123.0 L87.0 123.0 Z"></path>
<path fill="#222222" fill-opacity="1.0"  filling="0" d="M87.0 123.0 C87.0 123.0 87.0 123.0 87.0 123.0 L87.0 123.0 C87.0 123.0 87.0 123.0 87.0 123.0 L87.0 123.0 Z"></path>
<path fill="#222222" fill-opacity="1.0"  filling="0" d="M87.0 123.0 C87.0 123.0 87.0 123.0 87.0 123.0 L87.0 123.0 C87.0 123.0 87.0 123.0 87.0 123.0 L87.0 123.0 Z"></path>
<path fill="#222222" fill-opacity="1.0"  filling="0" d="M87.0 123.0 C87.0 123.0 87.0 123.0 87.0 123.0 L87.0 123.0 C87.0 123.0 87.0 123.0 87.0 123.0 L87.0 123.0 Z"></path>
<path fill="#222222" fill-opacity="1.0"  filling="0" d="M87.0 123.0 C87.0 123.0 87.0 123.0 87.0 123.0 L87.0 123.0 C87.0 123.0 87.0 123.0 87.0 123.0 L87.0 123.0 Z"></path>
<path fill="#222222" fill-opacity="1.0"  filling="0" d="M87.0 123.0 C87.0 123.0 87.0 123.0 87.0 123.0 L87.0 123.0 C87.0 123.0 87.0 123.0 87.0 123.0 L87.0 123.0 Z"></path>
<path fill="#222222" fill-opacity="1.0"  filling="0" d="M87.0 123.0 C87.0 123.0 87.0 123.0 87.0 123.0 L87.0 123.0 C87.0 123.0 87.0 123.0 87.0 123.0 L87.0 123.0 Z"></path>
<path fill="#222222" fill-opacity="1.0"  filling="0" d="M87.0 123.0 C87.0 123.0 87.0 123.0 87.0 123.0 L87.0 123.0 C87.0 123.0 87.0 123.0 87.0 123.0 L87.0 123.0 Z"></path>
<path fill="#222222" fill-opacity="1.0"  filling="0" d="M113.0 123.0 C113.0 123.0 113.0 123.0 113.0 123.0 L113.0 123.0 C113.0 123.0 113.0 123.0 113.0 123.0 L113.0 123.0 Z"></path>
<path fill="#222222" fill-opacity="1.0"  filling="0" d="M113.0 123.0 C113.0 123.0 113.0 123.0 113.0 123.0 L113.0 123.0 C113.0 123.0 113.0 123.0 113.0 123.0 L113.0 123.0 Z"></path>
<path fill="#222222" fill-opacity="1.0"  filling="0" d="M113.0 123.0 C113.0 123.0 113.0 123.0 113.0 123.0 L113.0 123.0 C113.0 123.0 113.0 123.0 113.0 123.0 L113.0 123.0 Z"></path>
<path fill="#222222" fill-opacity="1.0"  filling="0" d="M113.0 123.0 C113.0 123.0 113.0 123.0 113.0 123.0 L113.0 123.0 C113.0 123.0 113.0 123.0 113.0 123.0 L113.0 123.0 Z"></path>
<path fill="#222222" fill-opacity="1.0"  filling="0" d="M113.0 123.0 C113.0 123.0 113.0 123.0 113.0 123.0 L113.0 123.0 C113.0 123.0 113.0 123.0 113.0 123.0 L113.0 123.0 Z"></path>
<path fill="#222222" fill-opacity="1.0"  filling="0" d="M113.0 123.0 C113.0 123.0 113.0 123.0 113.0 123.0 L113.0 123.0 C113.0 123.0 113.0 123.0 113.0 123.0 L113.0 123.0 Z"></path>
<path fill="#222222" fill-opacity="1.0"  filling="0" d="M113.0 123.0 C113.0 123.0 113.0 123.0 113.0 123.0 L113.0 123.0 C113.0 123.0 113.0 123.0 113.0 123.0 L113.0 123.0 Z"></path>
<path fill="#222222" fill-opacity="1.0"  filling="0" d="M113.0 123.0 C113.0 123.0 113.0 123.0 113.0 123.0 L113.0 123.0 C113.0 123.0 113.0 123.0 113.0 123.0 L113.0 123.0 Z"></path>
<path fill="#222222" fill-opacity="1.0"  filling="0" d="M113.0 123.0 C113.0 123.0 113.0 123.0 113.0 123.0 L113.0 123.0 C113.0 123.0 113.0 123.0 113.0 123.0 L113.0 123.0 Z"></path>
<path fill="#222222" fill-opacity="1.0"  filling="0" d="M113.0 123.0 C113.0 123.0 113.0 123.0 113.0 123.0 L113.0 123.0 C113.0 123.0 113.0 123.0 113.0 123.0 L113.0 123.0 Z"></path>
<path fill="#222222" fill-opacity="1.0"  filling="0" d="M113.0 123.0 C113.0 123.0 113.0 123.0 113.0 123.0 L113.0 123.0 C113.0 123.0 113.0 123.0 113.0 123.0 L113.0 123.0 Z"></path>
<path fill="#222222" fill-opacity="1.0"  filling="0" d="M113.0 123.0 C113.0 123.0 113.0 123.0 113.0 123.0 L113.0 123.0 C113.0 123.0 113.0 123.0 113.0 123.0 L113.0 123.0 Z"></path>
<path fill="#222222" fill-opacity="1.0"  filling="0" d="M113.0 123.0 C113.0 123.0 113.0 123.0 113.0 123.0 L113.0 123.0 C113.0 123.0 113.0 123.0 113.0 123.0 L113.0 123.0 Z"></path>
<path fill="#222222" fill-opacity="1.0"  filling="0" d="M113.0 123.0 C113.0 123.0 113.0 123.0 113.0 123.0 L113.0 123.0 C113.0 123.0 113.0 123.0 113.0 123.0 L113.0 123.0 Z"></path>
<path fill="#222222" fill-opacity="1.0"  filling="0" d="M113.0 123.0 C113.0 123.0 113.0 123.0 113.0 123.0 L113.0 123.0 C113.0 123.0 113.0 123.0 113.0 123.0 L113.0 123.0 Z"></path>
<path fill="#222222" fill-opacity="1.0"  filling="0" d="M113.0 123.0 C113.0 123.0 113.0 123.0 113.0 123.0 L113.0 123.0 C113.0 123.0 113.0 123.0 113.0 123.0 L113.0 123.0 Z"></path>
<path fill="#222222" fill-opacity="1.0"  filling="0" d="M113.0 123.0 C113.0 123.0 113.0 123.0 113.0 123.0 L113.0 123.0 C113.0 123.0 113.0 123.0 113.0 123.0 L113.0 123.0 Z"></path>
<path fill="#222222" fill-opacity="1.0"  filling="0" d="M113.0 123.0 C113.0 123.0 113.0 123.0 113.0 123.0 L113.0 123.0 C113.0 123.0 113.0 123.0 113.0 123.0 L113.0 123.0 Z"></path>
<path fill="#222222" fill-opacity="1.0"  filling="0" d="M113.0 123.0 C113.0 123.0 113.0 123.0 113.0 123.0 L113.0 123.0 C113.0 123.0 113.0 123.0 113.0 123.0 L113.0 123.0 Z"></path>
<path fill="#222222" fill-opacity="1.0"  filling="0" d="M113.0 123.0 C113.0 123.0 113.0 123.0 113.0 123.0 L113.0 123.0 C113.0 123.0 113.0 123.0 113.0 123.0 L113.0 123.0 Z"></path>
<path fill="#222222" fill-opacity="1.0"  filling="0" d="M113.0 123.0 C113.0 123.0 113.0 123.0 113.0 123.0 L113.0 123.0 C113.0 123.0 113.0 123.0 113.0 123.0 L113.0 123.0 Z"></path>
<path fill="#222222" fill-opacity="1.0"  filling="0" d="M113.0 123.0 C113.0 123.0 113.0 123.0 113.0 123.0 L113.0 123.0 C113.0 123.0 113.0 123.0 113.0 123.0 L113.0 123.0 Z"></path>
<path fill="#222222" fill-opacity="1.0"  filling="0" d="M113.0 123.0 C113.0 123.0 113.0 123.0 113.0 123.0 L113.0 123.0 C113.0 123.0 113.0 123.0 113.0 123.0 L113.0 123.0 Z"></path>
<path fill="none" fill-opacity="1.0" filling="0" d="M0.0 M.0 Z"></path></svg>