<svg xmlns="http://www.w3.org/2000/svg" viewBox="0.0 0.0 200.0 200.0" height="200px" width="200px"><path fill="#ffffee" fill-opacity="1.0"  filling="0" d="M139.0 163.0 L51.0 163.0 C48.0 163.0 44.0 160.0 44.0 156.0 L44.0 47.0 C44.0 43.0 48.0 39.0 51.0 39.0 L139.0 39.0 C143.0 39.0 147.0 43.0 147.0 47.0 L147.0 156.0 C147.0 160.0 143.0 163.0 139.0 163.0 L139.0 163.0 Z"></path>
<path fill="#222222" fill-opacity="1.0"  filling="0" d="M139.0 165.0 L51.0 165.0 C46.0 165.0 42.0 161.0 42.0 156.0 L42.0 47.0 C42.0 42.0 46.0 38.0 51.0 38.0 L139.0 38.0 C144.0 38.0 148.0 42.0 148.0 47.0 L148.0 156.0 C148.0 161.0 144.0 165.0 139.0 165.0 L139.0 165.0 Z M51.0 41.0 C48.0 41.0 46.0 43.0 46.0 47.0 L46.0 156.0 C46.0 159.0 48.0 162.0 51.0 162.0 L139.0 162.0 C143.0 162.0 145.0 159.0 145.0 156.0 L145.0 47.0 C145.0 43.0 143.0 41.0 139.0 41.0 L51.0 41.0 L51.0 41.0 Z"></path>
<path fill="#222222" fill-opacity="1.0"  filling="0" d="M104.0 85.0 L74.0 85.0 C75.0 85.0 75.0 84.0 75.0 84.0 L75.0 55.0 C75.0 54.0 76.0 53.0 77.0 53.0 L79.0 53.0 C93.0 53.0 105.0 67.0 105.0 82.0 C105.0 83.0 104.0 84.0 103.0 84.0 L76.0 84.0 L76.0 85.0 L103.0 85.0 C105.0 85.0 106.0 85.0 107.0 83.0 L107.0 82.0 C107.0 65.0 94.0 50.0 79.0 50.0 L77.0 50.0 C76.0 50.0 75.0 51.0 75.0 52.0 L75.0 53.0 C75.0 53.0 75.0 53.0 75.0 53.0 C75.0 53.0 75.0 53.0 75.0 53.0 L75.0 84.0 L74.0 84.0 L74.0 54.0 C74.0 54.0 74.0 54.0 74.0 54.0 C74.0 54.0 74.0 54.0 74.0 54.0 L74.0 52.0 C74.0 51.0 75.0 50.0 77.0 50.0 L78.0 50.0 C94.0 50.0 108.0 65.0 108.0 82.0 L108.0 83.0 C108.0 85.0 106.0 86.0 105.0 86.0 L102.0 86.0 C101.0 86.0 100.0 85.0 100.0 84.0 L100.0 84.0 C100.0 83.0 101.0 82.0 102.0 82.0 L104.0 82.0 C104.0 67.0 93.0 54.0 79.0 54.0 L77.0 54.0 C77.0 54.0 77.0 54.0 77.0 54.0 L77.0 84.0 L76.0 84.0 L76.0 52.0 C76.0 52.0 76.0 52.0 76.0 52.0 L77.0 52.0 C77.0 52.0 77.0 52.0 77.0 52.0 L77.0 77.0 L77.0 77.0 L77.0 52.0 C77.0 52.0 77.0 52.0 77.0 52.0 L78.0 52.0 C92.0 52.0 104.0 66.0 104.0 82.0 L104.0 83.0 C104.0 83.0 103.0 83.0 103.0 83.0 L74.0 83.0 L74.0 85.0 L104.0 85.0 L104.0 85.0 Z"></path>
<path fill="#ffbb44" fill-opacity="1.0"  filling="0" d="M47.0 85.0 A29.0 29.0 0.0 1 0 104.0 85.0 A29.0 29.0 0.0 1 0 47.0 85.0 L47.0 85.0 Z"></path>
<path fill="#222222" fill-opacity="1.0"  filling="0" d="M74.0 115.0 C57.0 115.0 45.0 102.0 45.0 85.0 C45.0 69.0 57.0 56.0 74.0 56.0 C89.0 56.0 103.0 69.0 103.0 85.0 C103.0 102.0 89.0 115.0 74.0 115.0 L74.0 115.0 Z M74.0 58.0 C59.0 58.0 47.0 70.0 47.0 85.0 C47.0 100.0 59.0 112.0 74.0 112.0 C89.0 112.0 101.0 100.0 101.0 85.0 C101.0 70.0 89.0 58.0 74.0 58.0 L74.0 58.0 Z"></path>
<path fill="#ffffff" fill-opacity="1.0"  filling="0" d="M82.0 83.0 L76.0 83.0 L76.0 55.0 C76.0 54.0 77.0 52.0 78.0 52.0 L79.0 52.0 C80.0 52.0 82.0 54.0 82.0 55.0 L82.0 83.0 L82.0 83.0 Z"></path>
<path fill="#222222" fill-opacity="1.0"  filling="0" d="M83.0 85.0 L75.0 85.0 L75.0 55.0 C75.0 53.0 76.0 51.0 78.0 51.0 L79.0 51.0 C81.0 51.0 83.0 53.0 83.0 55.0 L83.0 85.0 L83.0 85.0 Z M77.0 82.0 L81.0 82.0 L81.0 55.0 C81.0 54.0 80.0 53.0 79.0 53.0 L78.0 53.0 C77.0 53.0 77.0 54.0 77.0 55.0 L77.0 82.0 L77.0 82.0 Z"></path>
<path fill="#ffffff" fill-opacity="1.0"  filling="0" d="M78.0 86.0 C77.0 86.0 76.0 85.0 76.0 85.0 L76.0 83.0 C76.0 82.0 77.0 82.0 78.0 82.0 L106.0 82.0 C106.0 82.0 107.0 82.0 107.0 83.0 L107.0 85.0 C107.0 85.0 106.0 86.0 106.0 86.0 L78.0 86.0 L78.0 86.0 Z"></path>
<path fill="#222222" fill-opacity="1.0"  filling="0" d="M106.0 85.0 L78.0 85.0 C76.0 85.0 75.0 84.0 75.0 83.0 L75.0 82.0 C75.0 81.0 76.0 80.0 78.0 80.0 L106.0 80.0 C107.0 80.0 108.0 81.0 108.0 82.0 L108.0 83.0 C108.0 84.0 107.0 85.0 106.0 85.0 L106.0 85.0 Z M78.0 83.0 C77.0 83.0 77.0 83.0 77.0 83.0 L77.0 83.0 C77.0 84.0 77.0 84.0 78.0 84.0 L106.0 84.0 C106.0 84.0 107.0 84.0 107.0 83.0 L107.0 83.0 C107.0 83.0 106.0 83.0 106.0 83.0 L78.0 83.0 L78.0 83.0 Z"></path>
<path fill="#ffffff" fill-opacity="1.0"  filling="0" d="M95.0 103.0 C94.0 103.0 93.0 103.0 93.0 102.0 L75.0 84.0 C74.0 83.0 74.0 82.0 75.0 82.0 L76.0 81.0 C77.0 80.0 78.0 80.0 78.0 81.0 L97.0 100.0 C97.0 101.0 97.0 102.0 96.0 102.0 L96.0 103.0 C95.0 103.0 95.0 103.0 95.0 103.0 L95.0 103.0 Z"></path>
<path fill="#222222" fill-opacity="1.0"  filling="0" d="M95.0 104.0 C94.0 104.0 93.0 104.0 93.0 103.0 L75.0 85.0 C74.0 84.0 74.0 83.0 74.0 83.0 C74.0 82.0 74.0 81.0 75.0 81.0 L75.0 80.0 C76.0 79.0 78.0 79.0 79.0 80.0 L98.0 99.0 C98.0 100.0 98.0 101.0 98.0 102.0 C98.0 102.0 98.0 103.0 97.0 103.0 L97.0 104.0 C96.0 104.0 96.0 104.0 95.0 104.0 L95.0 104.0 Z M77.0 81.0 C77.0 81.0 77.0 81.0 77.0 81.0 L76.0 82.0 C76.0 82.0 76.0 82.0 76.0 83.0 C76.0 83.0 76.0 83.0 76.0 83.0 L94.0 102.0 C95.0 102.0 95.0 102.0 96.0 102.0 L96.0 101.0 C97.0 101.0 97.0 101.0 97.0 101.0 C97.0 101.0 97.0 101.0 96.0 100.0 L78.0 81.0 C78.0 81.0 78.0 81.0 77.0 81.0 L77.0 81.0 Z"></path>
<path fill="#000000" fill-opacity="1.0"  filling="0" d="M82.0 141.0 C80.0 141.0 79.0 140.0 79.0 139.0 L79.0 139.0 C79.0 138.0 80.0 137.0 82.0 137.0 L82.0 137.0 C83.0 137.0 84.0 138.0 84.0 139.0 L84.0 139.0 C84.0 140.0 83.0 141.0 82.0 141.0 L82.0 141.0 Z M93.0 131.0 C91.0 131.0 90.0 130.0 90.0 129.0 L90.0 128.0 C90.0 127.0 91.0 126.0 93.0 126.0 L93.0 126.0 C94.0 126.0 95.0 127.0 95.0 128.0 L95.0 129.0 C95.0 130.0 94.0 131.0 93.0 131.0 L93.0 131.0 Z M102.0 137.0 C101.0 137.0 99.0 136.0 99.0 134.0 L99.0 133.0 C99.0 132.0 101.0 131.0 102.0 131.0 L103.0 131.0 C104.0 131.0 105.0 132.0 105.0 133.0 L105.0 134.0 C105.0 136.0 104.0 137.0 103.0 137.0 L102.0 137.0 L102.0 137.0 Z M89.0 132.0 C88.0 132.0 87.0 131.0 87.0 130.0 L87.0 127.0 C87.0 125.0 89.0 123.0 91.0 123.0 L92.0 123.0 C94.0 123.0 96.0 125.0 96.0 127.0 L96.0 130.0 C96.0 131.0 95.0 132.0 94.0 132.0 L93.0 132.0 C93.0 132.0 93.0 132.0 93.0 132.0 C93.0 132.0 93.0 132.0 93.0 132.0 L91.0 132.0 C90.0 132.0 90.0 132.0 90.0 132.0 C89.0 132.0 89.0 132.0 89.0 132.0 L89.0 132.0 Z M91.0 125.0 C90.0 125.0 89.0 126.0 89.0 127.0 L89.0 130.0 C89.0 130.0 89.0 130.0 89.0 130.0 C89.0 130.0 89.0 130.0 89.0 130.0 L93.0 130.0 C93.0 130.0 93.0 130.0 93.0 130.0 C93.0 130.0 93.0 130.0 93.0 130.0 L93.0 127.0 C93.0 126.0 93.0 125.0 92.0 125.0 L91.0 125.0 L91.0 125.0 L91.0 125.0 Z M100.0 137.0 C99.0 137.0 98.0 136.0 98.0 134.0 L98.0 133.0 C98.0 131.0 100.0 130.0 101.0 130.0 L102.0 130.0 C104.0 130.0 106.0 131.0 106.0 133.0 L106.0 134.0 C106.0 136.0 105.0 137.0 103.0 137.0 L102.0 137.0 C101.0 137.0 101.0 137.0 100.0 137.0 L100.0 137.0 Z M102.0 132.0 C101.0 132.0 100.0 132.0 100.0 133.0 L100.0 134.0 C100.0 135.0 101.0 136.0 102.0 136.0 L103.0 136.0 C104.0 136.0 105.0 135.0 105.0 134.0 L105.0 133.0 C105.0 132.0 104.0 132.0 103.0 132.0 L102.0 132.0 L102.0 132.0 L102.0 132.0 Z M87.0 145.0 C86.0 145.0 85.0 144.0 85.0 143.0 L85.0 141.0 C85.0 139.0 86.0 138.0 87.0 138.0 L88.0 138.0 C90.0 138.0 91.0 139.0 91.0 141.0 L91.0 143.0 C91.0 144.0 90.0 145.0 88.0 145.0 L87.0 145.0 L87.0 145.0 Z M87.0 140.0 C86.0 140.0 86.0 140.0 86.0 141.0 L86.0 143.0 C86.0 144.0 86.0 144.0 87.0 144.0 L88.0 144.0 C89.0 144.0 90.0 144.0 90.0 143.0 L90.0 141.0 C90.0 140.0 89.0 140.0 88.0 140.0 L87.0 140.0 L87.0 140.0 L87.0 140.0 Z M94.0 145.0 C93.0 145.0 92.0 144.0 92.0 143.0 L92.0 141.0 C92.0 140.0 93.0 139.0 94.0 139.0 L95.0 139.0 C96.0 139.0 97.0 140.0 97.0 141.0 L97.0 143.0 C97.0 144.0 96.0 145.0 95.0 145.0 L94.0 145.0 L94.0 145.0 Z M94.0 140.0 C93.0 140.0 93.0 141.0 93.0 141.0 L93.0 143.0 C93.0 143.0 93.0 144.0 94.0 144.0 L95.0 144.0 C96.0 144.0 96.0 143.0 96.0 143.0 L96.0 141.0 C96.0 141.0 96.0 140.0 95.0 140.0 L94.0 140.0 L94.0 140.0 Z M104.0 145.0 C103.0 145.0 102.0 144.0 102.0 143.0 L102.0 141.0 C102.0 140.0 103.0 139.0 104.0 139.0 L105.0 139.0 C106.0 139.0 107.0 140.0 107.0 141.0 L107.0 143.0 C107.0 144.0 106.0 145.0 105.0 145.0 L104.0 145.0 L104.0 145.0 Z M104.0 140.0 C103.0 140.0 103.0 141.0 103.0 141.0 L103.0 143.0 C103.0 143.0 103.0 144.0 104.0 144.0 L105.0 144.0 C106.0 144.0 106.0 143.0 106.0 143.0 L106.0 141.0 C106.0 141.0 106.0 140.0 105.0 140.0 L104.0 140.0 L104.0 140.0 Z M84.0 145.0 C83.0 145.0 82.0 144.0 82.0 143.0 L82.0 142.0 C82.0 141.0 83.0 140.0 84.0 140.0 L85.0 140.0 C86.0 140.0 87.0 141.0 87.0 142.0 L87.0 143.0 C87.0 144.0 87.0 145.0 85.0 145.0 L84.0 145.0 L84.0 145.0 Z M84.0 141.0 C83.0 141.0 83.0 142.0 83.0 142.0 L83.0 143.0 C83.0 144.0 84.0 144.0 84.0 144.0 L85.0 144.0 C86.0 144.0 86.0 144.0 86.0 143.0 L86.0 142.0 C86.0 142.0 86.0 141.0 85.0 141.0 L84.0 141.0 L84.0 141.0 Z M91.0 145.0 C89.0 145.0 89.0 144.0 89.0 143.0 L89.0 141.0 C89.0 140.0 89.0 139.0 91.0 139.0 L92.0 139.0 C93.0 139.0 94.0 140.0 94.0 141.0 L94.0 143.0 C94.0 144.0 93.0 145.0 92.0 145.0 L91.0 145.0 L91.0 145.0 Z M91.0 140.0 C90.0 140.0 90.0 140.0 90.0 141.0 L90.0 143.0 C90.0 143.0 90.0 144.0 91.0 144.0 L92.0 144.0 C93.0 144.0 93.0 143.0 93.0 143.0 L93.0 141.0 C93.0 140.0 93.0 140.0 92.0 140.0 L91.0 140.0 L91.0 140.0 Z M99.0 145.0 C98.0 145.0 97.0 144.0 97.0 143.0 L97.0 141.0 C97.0 140.0 98.0 139.0 99.0 139.0 L100.0 139.0 C101.0 139.0 102.0 140.0 102.0 141.0 L102.0 143.0 C102.0 144.0 101.0 145.0 100.0 145.0 L99.0 145.0 L99.0 145.0 Z M99.0 140.0 C98.0 140.0 98.0 141.0 98.0 141.0 L98.0 143.0 C98.0 143.0 98.0 144.0 99.0 144.0 L100.0 144.0 C101.0 144.0 101.0 143.0 101.0 143.0 L101.0 141.0 C101.0 141.0 101.0 140.0 100.0 140.0 L99.0 140.0 L99.0 140.0 Z M102.0 145.0 C101.0 145.0 100.0 144.0 100.0 143.0 L100.0 141.0 C100.0 140.0 101.0 139.0 102.0 139.0 L103.0 139.0 C104.0 139.0 105.0 140.0 105.0 141.0 L105.0 143.0 C105.0 144.0 104.0 145.0 103.0 145.0 L102.0 145.0 L102.0 145.0 Z M102.0 140.0 C102.0 140.0 101.0 141.0 101.0 141.0 L101.0 143.0 C101.0 143.0 102.0 144.0 102.0 144.0 L103.0 144.0 C104.0 144.0 104.0 143.0 104.0 143.0 L104.0 141.0 C104.0 141.0 104.0 140.0 103.0 140.0 L102.0 140.0 L102.0 140.0 Z M97.0 145.0 C96.0 145.0 95.0 144.0 95.0 143.0 L95.0 141.0 C95.0 140.0 96.0 139.0 97.0 139.0 L98.0 139.0 C99.0 139.0 100.0 140.0 100.0 141.0 L100.0 143.0 C100.0 144.0 99.0 145.0 98.0 145.0 L97.0 145.0 L97.0 145.0 Z M97.0 140.0 C96.0 140.0 96.0 141.0 96.0 141.0 L96.0 143.0 C96.0 143.0 96.0 144.0 97.0 144.0 L98.0 144.0"></path></svg>