<svg xmlns="http://www.w3.org/2000/svg" viewBox="0.0 0.0 200.0 200.0" height="200px" width="200px"><path fill="#777777" fill-opacity="1.0"  filling="0" d="M52.0 125.0 L37.0 157.0 C35.0 161.0 30.0 163.0 26.0 161.0 L25.0 161.0 C21.0 159.0 19.0 154.0 21.0 149.0 L36.0 118.0 A4.0 4.0 0.0 0 1 40.0 115.0 L53.0 114.0 A4.0 4.0 0.0 0 1 57.0 118.0 L56.0 120.0 C56.0 122.0 55.0 124.0 52.0 125.0 L52.0 125.0 Z"></path>
<path fill="#333333" fill-opacity="1.0"  filling="0" d="M30.0 165.0 C28.0 165.0 26.0 164.0 24.0 163.0 L24.0 163.0 C18.0 160.0 16.0 154.0 19.0 148.0 L34.0 117.0 C35.0 115.0 37.0 113.0 40.0 113.0 L53.0 112.0 C56.0 112.0 59.0 114.0 59.0 117.0 L59.0 119.0 C59.0 122.0 57.0 125.0 54.0 126.0 L40.0 159.0 C38.0 162.0 35.0 164.0 31.0 165.0 C31.0 165.0 30.0 165.0 30.0 165.0 L30.0 165.0 Z M52.0 117.0 L40.0 118.0 A2.0 2.0 0.0 0 0 39.0 119.0 L23.0 150.0 C22.0 153.0 23.0 157.0 26.0 158.0 L27.0 159.0 C28.0 160.0 30.0 160.0 32.0 160.0 C33.0 159.0 34.0 158.0 35.0 156.0 L50.0 124.0 A2.0 2.0 0.0 0 0 51.0 123.0 C52.0 122.0 53.0 121.0 53.0 120.0 L53.0 118.0 C53.0 117.0 53.0 117.0 52.0 117.0 L52.0 117.0 Z"></path>
<path fill="#ffeecc" fill-opacity="1.0"  filling="0" d="M177.0 67.0 L162.0 78.0 C162.0 78.0 162.0 78.0 162.0 78.0 L162.0 78.0 L162.0 78.0 C162.0 78.0 162.0 78.0 162.0 78.0 L146.0 95.0 L146.0 95.0 L146.0 95.0 L146.0 95.0 L146.0 95.0 L146.0 130.0 L146.0 130.0 L146.0 130.0 L146.0 130.0 L146.0 130.0 L178.0 149.0 L178.0 67.0 L177.0 67.0 L177.0 67.0 Z"></path>
<path fill="#333333" fill-opacity="1.0"  filling="0" d="M178.0 151.0 C178.0 151.0 177.0 151.0 177.0 151.0 L146.0 133.0 A3.0 3.0 0.0 0 1 144.0 130.0 L144.0 95.0 C144.0 94.0 144.0 93.0 145.0 93.0 L160.0 76.0 C160.0 76.0 161.0 76.0 161.0 76.0 L176.0 65.0 C177.0 65.0 178.0 65.0 179.0 65.0 C180.0 66.0 181.0 67.0 181.0 68.0 L181.0 149.0 C181.0 150.0 180.0 151.0 179.0 151.0 C179.0 151.0 178.0 151.0 178.0 151.0 L178.0 151.0 Z M149.0 129.0 L175.0 146.0 L175.0 72.0 L164.0 81.0 L149.0 97.0 L149.0 129.0 L149.0 129.0 Z"></path>
<path fill="#99bbaa" fill-opacity="1.0"  filling="0" d="M146.0 45.0 C133.0 45.0 123.0 53.0 123.0 65.0 C123.0 69.0 125.0 73.0 128.0 76.0 L127.0 76.0 L109.0 67.0 C108.0 67.0 107.0 67.0 106.0 67.0 C105.0 67.0 104.0 68.0 104.0 69.0 L104.0 148.0 L132.0 163.0 L145.0 163.0 L145.0 87.0 C154.0 82.0 162.0 72.0 162.0 60.0 C162.0 52.0 155.0 45.0 146.0 45.0 L146.0 45.0 Z"></path>
<path fill="#333333" fill-opacity="1.0"  filling="0" d="M145.0 166.0 L132.0 166.0 C131.0 166.0 131.0 165.0 131.0 165.0 L102.0 150.0 C101.0 150.0 101.0 149.0 101.0 148.0 L101.0 69.0 C101.0 68.0 102.0 66.0 104.0 65.0 C105.0 64.0 107.0 64.0 109.0 65.0 L125.0 71.0 C124.0 69.0 123.0 67.0 123.0 65.0 C123.0 52.0 134.0 42.0 146.0 42.0 C157.0 42.0 165.0 51.0 165.0 60.0 C165.0 72.0 158.0 82.0 148.0 88.0 L148.0 163.0 C148.0 165.0 147.0 166.0 145.0 166.0 L145.0 166.0 Z M133.0 161.0 L143.0 161.0 L143.0 87.0 C143.0 86.0 143.0 85.0 144.0 85.0 C154.0 80.0 160.0 71.0 160.0 60.0 C160.0 54.0 154.0 47.0 146.0 47.0 C136.0 47.0 127.0 55.0 127.0 65.0 C127.0 68.0 128.0 71.0 130.0 74.0 C131.0 75.0 131.0 76.0 130.0 76.0 C130.0 77.0 130.0 78.0 129.0 78.0 L109.0 70.0 C108.0 70.0 107.0 70.0 106.0 70.0 L106.0 146.0 L133.0 161.0 L133.0 161.0 Z"></path>
<path fill="#333333" fill-opacity="1.0"  filling="0" d="M145.0 113.0 C144.0 113.0 144.0 112.0 143.0 112.0 C142.0 111.0 142.0 109.0 143.0 108.0 L161.0 76.0 C162.0 75.0 164.0 75.0 165.0 76.0 C166.0 76.0 166.0 78.0 166.0 79.0 L147.0 111.0 C146.0 112.0 145.0 113.0 145.0 113.0 L145.0 113.0 Z"></path>
<path fill="#333333" fill-opacity="1.0"  filling="0" d="M145.0 130.0 C144.0 130.0 143.0 130.0 143.0 129.0 C142.0 128.0 142.0 126.0 143.0 126.0 L177.0 111.0 C178.0 110.0 180.0 110.0 181.0 111.0 C181.0 113.0 181.0 114.0 180.0 115.0 L146.0 130.0 C145.0 130.0 145.0 130.0 145.0 130.0 L145.0 130.0 Z"></path>
<path fill="#333333" fill-opacity="1.0"  filling="0" d="M145.0 166.0 C144.0 166.0 143.0 165.0 143.0 163.0 L143.0 94.0 C143.0 93.0 144.0 92.0 145.0 92.0 C147.0 92.0 148.0 93.0 148.0 94.0 L148.0 163.0 C148.0 165.0 147.0 166.0 145.0 166.0 L145.0 166.0 Z"></path>
<path fill="#000000" fill-opacity="1.0"  filling="0" d="M125.0 41.0 C118.0 52.0 119.0 68.0 129.0 77.0 C134.0 83.0 139.0 90.0 145.0 96.0 C145.0 96.0 145.0 96.0 145.0 96.0 C145.0 96.0 145.0 96.0 145.0 96.0 C145.0 96.0 145.0 96.0 145.0 96.0 C145.0 96.0 145.0 96.0 145.0 96.0 C145.0 96.0 145.0 96.0 145.0 96.0 C145.0 96.0 145.0 96.0 145.0 96.0 C145.0 96.0 145.0 96.0 145.0 96.0 C145.0 96.0 145.0 96.0 145.0 96.0 C145.0 96.0 145.0 96.0 145.0 96.0 C145.0 96.0 145.0 96.0 145.0 96.0 C145.0 96.0 145.0 96.0 145.0 96.0 C145.0 96.0 145.0 96.0 145.0 96.0 C145.0 96.0 145.0 96.0 145.0 96.0 C145.0 96.0 145.0 96.0 145.0 96.0 C145.0 96.0 145.0 96.0 145.0 96.0 C145.0 96.0 145.0 96.0 145.0 96.0 C145.0 96.0 145.0 96.0 145.0 96.0 C145.0 96.0 145.0 96.0 145.0 96.0 C145.0 96.0 145.0 96.0 145.0 96.0 C145.0 96.0 145.0 96.0 145.0 96.0 C145.0 96.0 145.0 96.0 145.0 96.0 C145.0 96.0 145.0 96.0 145.0 96.0 C145.0 96.0 145.0 96.0 145.0 96.0 C145.0 96.0 145.0 96.0 145.0 96.0 C145.0 96.0 145.0 96.0 145.0 96.0 C145.0 96.0 145.0 96.0 145.0 96.0 C145.0 96.0 145.0 96.0 145.0 96.0 C145.0 96.0 145.0 96.0 145.0 96.0 C145.0 96.0 145.0 96.0 145.0 96.0 C145.0 96.0 145.0 96.0 145.0 96.0 C145.0 96.0 145.0 96.0 145.0 96.0 C145.0 96.0 145.0 96.0 145.0 96.0 C145.0 96.0 145.0 96.0 145.0 96.0 C145.0 96.0 145.0 96.0 145.0 96.0 C145.0 96.0 145.0 96.0 145.0 96.0 C145.0 96.0 145.0 96.0 145.0 96.0 C145.0 96.0 145.0 96.0 145.0 96.0 C145.0 96.0 145.0 96.0 145.0 96.0 C145.0 96.0 145.0 96.0 145.0 96.0 C145.0 96.0 145.0 96.0 145.0 96.0 C145.0 96.0 145.0 96.0 145.0 96.0 C145.0 96.0 145.0 96.0 145.0 96.0 C145.0 96.0 145.0 96.0 145.0 96.0 C145.0 96.0 145.0 96.0 145.0 96.0 C145.0 96.0 145.0 96.0 145.0 96.0 C145.0 96.0 145.0 96.0 145.0 96.0 C145.0 96.0 145.0 96.0 145.0 96.0 C145.0 96.0 145.0 96.0 145.0 96.0 C145.0 96.0 145.0 96.0 145.0 96.0 C145.0 96.0 145.0 96.0 145.0 96.0 C145.0 96.0 145.0 96.0 145.0 96.0 C145.0 96.0 145.0 96.0 145.0 96.0 C145.0 96.0 145.0 96.0 145.0 96.0 C145.0 96.0 145.0 96.0 145.0 96.0 C145.0 96.0 145.0 96.0 145.0 96.0 C145.0 96.0 145.0 96.0 145.0 96.0 C145.0 96.0 145.0 96.0 145.0 96.0 C145.0 96.0 145.0 96.0 145.0 96.0 C145.0 96.0 145.0 96.0 145.0 96.0 C145.0 96.0 145.0 96.0 145.0 96.0 C145.0 96.0 145.0 96.0 145.0 96.0 C145.0 96.0 145.0 96.0 145.0 96.0 C145.0 96.0 145.0 96.0 145.0 96.0 C145.0 96.0 145.0 96.0 145.0 96.0 C145.0 96.0 145.0 96.0 145.0 96.0 C145.0 96.0 145.0 96.0 145.0 96.0 C145.0 96.0 145.0 96.0 145.0 96.0 C145.0 96.0 145.0 96.0 145.0 96.0 C145.0 96.0 145.0 96.0 145.0 96.0 C145.0 96.0 145.0 96.0 145.0 96.0 C145.0 96.0 145.0 96.0 145.0 96.0 C145.0 96.0 145.0 96.0 145.0 96.0 C145.0 96.0 145.0 96.0 145.0 96.0 C145.0 96.0 145.0 96.0 145.0 96.0 C145.0 96.0 145.0 96.0 145.0 96.0 C145.0 96.0 145.0 96.0 145.0 96.0 C145.0 96.0 145.0 96.0 145.0 96.0 C145.0 96.0 145.0 96.0 145.0 96.0 C145.0 96.0 145.0 96.0 145.0 96.0 C145.0 96.0 145.0 96.0 145.0 96.0 C145.0 96.0 145.0 96.0 145.0 96.0 C145.0 96.0 145.0 96.0 145.0 96.0 C145.0 96.0 145.0 96.0 145.0 96.0 C145.0 96.0 145.0 96.0 145.0 96.0 C145.0 96.0 145.0 96.0 145.0 96.0 C145.0 96.0 145.0 96.0 145.0 96.0 C145.0 96.0 145.0 96.0 145.0 96.0 C145.0 96.0 145.0 96.0 145.0 96.0 C145.0 96.0 145.0 96.0 145.0 96.0 C145.0 96.0 145.0 96.0 145.0 96.0 C145.0 96.0 145.0 96.0 145.0 96.0 C145.0 96.0 145.0 96.0 145.0 96.0 C145.0 96.0 145.0 96.0 145.0 96.0 C145.0 96.0 145.0 96.0 145.0 96.0 C145.0 96.0 145.0 96.0 145.0 96.0 C145.0 96.0 145.0 96.0 145.0 96.0 C145.0 96.0 145.0 96.0 145.0 96.0 C145.0 96.0 145.0 96.0 145.0 96.0 C145.0 96.0 145.0 96.0 145.0 96.0 C145.0 96.0 145.0 96.0 145.0 96.0 C145.0 96.0 145.0 96.0 145.0 96.0 C145.0 96.0 145.0 96.0 145.0 96.0 C145.0 96.0 145.0 96.0 145.0 96.0 C145.0 96.0 145.0 96.0 145.0 96.0 C145.0 96.0 145.0 96.0 145.0 96.0 C145.0 96.0 145.0 96.0 145.0 96.0 C145.0 96.0 145.0 96.0 145.0 96.0 C145.0 96.0 145.0 96.0 145.0 96.0 C145.0 96.0 145.0 96.0 145.0 96.0 C145.0 96.0 145.0 96.0 145.0 96.0 C145.0 96.0 145.0 96.0 145.0 96.0 C145.0 96.0 145.0 96.0 145.0 96.0 C145.0 96.0 145.0 96.0 145.0 96.0 C145.0 96.0 145.0 96.0 145.0 96.0 C145.0 96.0 145.0 96.0 145.0 96.0 C145.0 96.0 145.0 96.0 145.0 96.0 C145.0 96.0 145.0 96.0 145.0 96.0 C145.0 96.0 145.0 96.0 145.0 96.0 C145.0 96.0 145.0 96.0 145.0 96.0 C145.0 96.0 145.0 96.0 145.0 96.0 C145.0 96.0 145.0 96.0 145.0 96.0 C145.0 96.0 145.0 96.0 145.0 96.0 C145.0 96.0 145.0 96.0 145.0 96.0 C145.0 96.0 145.0 96.0 145.0 96.0 C145.0 96.0 145.0 96.0 145.0 96.0 C145.0 96.0 145.0 96.0 145.0 96.0 C145.0 96.0 145.0 96.0 145.0 96.0 C145.0 96.0 145.0 96.0 145.0 96.0 C145.0 96.0 145.0 96.0 145.0 96.0 C145.0 96.0 145.0 96.0 145.0 96.0 C145.0 96.0 145.0 96.0 145.0 96.0 C145.0 96.0 145.0 96.0 145.0 96.0 C145.0 96.0 145.0 96.0 145.0 96.0 C145.0 96.0 145.0 96.0 145.0 96.0 C145.0 96.0 145.0 96.0 145.0 96.0 C145.0 96.0 145.0 96.0 145.0 96.0 C145.0 96.0 145.0 96.0 145.0 96.0 C145.0 96.0 145.0 96.0 145.0 96.0 C145.0 96.0 145.0 96.0 145.0 96.0 C145.0 96.0 145.0 96.0 145.0 96.0 C145.0 96.0 145.0 96.0 145.0 96.0 C145.0 96.0 145.0 96.0 145.0 96.0 C145.0 96.0 145.0 96.0 145.0 96.0 C145.0 96.0 145.0 96.0 145.0 96.0 C145.0 96.0 145.0 96.0 145.0 96.0 C145.0 96.0 145.0 96.0 145.0 96.0 C145.0 96.0 145.0 96.0 145.0 96.0 C145.0 96.0 145.0 96.0 145.0 96.0 C145.0 96.0 145.0 96.0 145.0 96.0 C145.0 96.0 145.0 96.0 145.0 96.0 C145.0 96.0 145.0 96.0 145.0 96.0 C145.0 96.0 145.0 96.0 145.0 96.0 C145.0 96.0 145.0 96.0 145.0 96.0 C145.0 96.0 145.0 96.0 145.0 96.0 C145.0 96.0 145.0 96.0 145.0 96.0 C145.0 96.0 145.0 96.0 145.0 96.0 C145.0 96.0 145.0 96.0 145.0 96.0 C145.0 96.0 145.0 96.0 145.0 96.0 C145.0 96.0 145.0 96.0 145.0 96.0 C145.0 96.0 145.0 96.0 145.0 96.0 C145.0 96.0 145.0 96.0 145.0 96.0 C145.0 96.0 145.0 96.0 145.0 96.0 C145.0 96.0 145.0 96.0 145.0 96.0 C145.0 96.0 145.0 96.0 145.0 96.0 C145.0 96.0 145.0 96.0 145.0 96.0 C145.0 96.0 145.0 96.0 145.0 96.0 C145.0 96.0 145.0 96.0 145.0 96.0 C145.0 96.0 145.0 96.0 145.0 96.0 C145.0 96.0 145.0 96.0 145.0 96.0 C145.0 96.0 145.0 96.0 145.0 96.0 C145.0 96.0 145.0 96.0 145.0 96.0 C145.0 96.0 145.0 96.0 145.0 96.0 C145.0 96.0 145.0 96.0 145.0 96.0 C145.0 96.0 145.0 96.0 145.0 96.0 C145.0 96.0 145.0 96.0 145.0 96.0 C145.0 96.0 145.0 96.0 145.0 96.0 C145.0 96.0 145.0 96.0 145.0 96.0 C145.0 96.0 145.0 96.0 145.0 96.0 C145.0 96.0 145.0 96.0 145.0 96.0 C145.0 96.0 145.0 96.0 145.0 96.0 C145.0 96.0 145.0 96.0 145.0 96.0 C145.0 96.0 145.0 96.0 145.0 96.0 C145.0 96.0 145.0 96.0 145.0 96.0 C145.0 96.0 145.0 96.0 145.0 96.0 C145.0 96.0 145.0 96.0 145.0 96.0 C145.0 96.0 145.0 96.0 145.0 96.0 C145.0 96.0 145.0 96.0 145.0 96.0 C145.0 96.0 145.0 96.0 145.0 96.0 C145.0 96.0 145.0 96.0 145.0 96.0 C145.0 96.0 145.0 96.0 145.0 96.0 C145.0 96.0 145.0 96.0 145.0 96.0 C145.0 96.0 145.0 96.0 145.0 96.0 C145.0 96.0 145.0 96.0 145.0 96.0 C145.0 96.0 145.0 96.0 145.0 96.0 C145.0 96.0 145.0 96.0 145.0 96.0 C145.0 96.0 145.0 96.0 145.0 96.0 C145.0 96.0 145.0 96.0 145.0 96.0 C145.0 96.0 145.0 96.0 145.0 96.0 C145.0 96.0 145.0 96.0 145.0 96.0 C145.0 96.0 145.0 96.0 145.0 96.0 C145.0 96.0 145.0 96.0 145.0 96.0 C145.0 96.0 145.0 96.0 145.0 96.0 C145.0 96.0 145.0 96.0 145.0 96.0 C145.0 96.0 145.0 96.0 145.0 96.0 C145.0 96.0 145.0 96.0 145.0 96.0 C145.0 96.0 145.0 96.0 145.0 96.0 C145.0 96.0 145.0 96.0 145.0 96.0 C145.0 96.0 145.0 96.0 145.0 96.0 C145.0 96.0 145.0 96.0 145.0 96.0 C145.0 96.0 145.0 96.0 145.0 96.0 C145.0 96.0 145.0 96.0 145.0 96.0 C145.0 96.0 145.0 96.0 145.0 96.0 C145.0 96.0 145.0 96.0 145.0 96.0 C145.0 96.0 145.0 96.0 145.0 96.0 C145.0 96.0 145.0 96.0 145.0 96.0 C145.0 96.0 145.0 96.0 145.0 96.0 C145.0 96.0 145.0 96.0 145.0 96.0 C145.0 96.0 145.0 96.0 145.0 96.0 C145.0 96.0 145.0 96.0 145.0 96.0 C145.0 96.0 145.0 96.0 145.0 96.0 C145.0 96.0 145.0 96.0 145.0 96.0 C145.0 96.0 145.0 96.0 145.0 96.0 C145.0 96.0 145.0 96.0 145.0 96.0 C145.0 96.0 145.0 96.0 145.0 96.0 C145.0 96.0 145.0 96.0 145.0 96.0 C145.0 96.0 145.0 96.0 145.0 96.0 C145.0 96.0 145.0 96.0 145.0 96.0 C145.0 96.0 145.0 96.0 145.0 96.0 C145.0 96.0 145.0 96.0 145.0 96.0 C145.0 96.0 145.0 96.0 145.0 96.0 C145.0 96.0 145.0 96.0 145.0 96.0 C145.0 96.0 145.0 96.0 145.0 96.0 C145.0 96.0 145.0 96.0 145.0 96.0 C145.0 96.0 145.0 96.0 145.0 96.0 C145.0 96.0 145.0 96.0 145.0 96.0 C145.0 96.0 145.0 96.0 145.0 96.0 C145.0 96.0 145.0 96.0 145.0 96.0 C145.0 96.0 145.0 96.0 145.0 96.0 C145.0 96.0 145.0 96.0 145.0 96.0 C145.0 96.0 145.0 96.0 145.0 96.0 C145.0 96.0 145.0 96.0 145.0 96.0 C145.0 96.0 145.0 96.0 145.0 96.0"></path></svg>