<svg xmlns="http://www.w3.org/2000/svg" viewBox="0.0 0.0 200.0 200.0" height="200px" width="200px"><path fill="#99bbaa" fill-opacity="1.0"  filling="0" d="M138.0 115.0 L110.0 112.0 C108.0 112.0 107.0 111.0 107.0 109.0 L107.0 67.0 C107.0 66.0 108.0 65.0 110.0 65.0 L138.0 70.0 C139.0 70.0 140.0 71.0 140.0 72.0 L140.0 113.0 C140.0 114.0 139.0 115.0 138.0 115.0 L138.0 115.0 Z"></path>
<path fill="#333333" fill-opacity="1.0"  filling="0" d="M138.0 117.0 L138.0 117.0 L110.0 115.0 A5.0 5.0 0.0 0 1 105.0 110.0 L105.0 67.0 C105.0 64.0 108.0 62.0 110.0 62.0 L138.0 67.0 C140.0 67.0 143.0 69.0 143.0 72.0 L143.0 113.0 C143.0 116.0 141.0 117.0 138.0 117.0 L138.0 117.0 Z M111.0 111.0 L138.0 112.0 L138.0 73.0 L110.0 68.0 L110.0 110.0 L111.0 111.0 L111.0 111.0 Z"></path>
<path fill="#99bbaa" fill-opacity="1.0"  filling="0" d="M144.0 128.0 L110.0 114.0 A2.0 2.0 0.0 0 1 109.0 112.0 L109.0 67.0 C109.0 66.0 110.0 65.0 111.0 65.0 L144.0 75.0 C145.0 75.0 146.0 75.0 146.0 76.0 L146.0 126.0 C146.0 127.0 145.0 128.0 144.0 128.0 L144.0 128.0 Z"></path>
<path fill="#333333" fill-opacity="1.0"  filling="0" d="M144.0 130.0 L144.0 130.0 L110.0 117.0 A5.0 5.0 0.0 0 1 107.0 112.0 L107.0 67.0 C107.0 64.0 109.0 62.0 112.0 62.0 L145.0 72.0 C147.0 72.0 149.0 74.0 149.0 76.0 L149.0 126.0 C149.0 129.0 147.0 130.0 144.0 130.0 L144.0 130.0 Z M112.0 111.0 L144.0 125.0 L144.0 77.0 L112.0 68.0 L112.0 112.0 L112.0 111.0 L112.0 111.0 Z"></path>
<path fill="#99bbaa" fill-opacity="1.0"  filling="0" d="M144.0 128.0 L109.0 113.0 A2.0 2.0 0.0 0 1 108.0 111.0 L108.0 67.0 C108.0 66.0 109.0 65.0 110.0 65.0 L144.0 75.0 C145.0 75.0 146.0 75.0 146.0 76.0 L146.0 126.0 C146.0 127.0 145.0 128.0 144.0 128.0 L144.0 128.0 Z"></path>
<path fill="#333333" fill-opacity="1.0"  filling="0" d="M144.0 130.0 L144.0 130.0 L110.0 117.0 A5.0 5.0 0.0 0 1 107.0 112.0 L107.0 67.0 C107.0 64.0 109.0 62.0 112.0 62.0 L145.0 72.0 C147.0 72.0 149.0 74.0 149.0 76.0 L149.0 126.0 C149.0 129.0 147.0 130.0 144.0 130.0 L144.0 130.0 Z M112.0 111.0 L144.0 125.0 L144.0 77.0 L112.0 68.0 L112.0 112.0 L112.0 111.0 L112.0 111.0 Z"></path>
<path fill="#99bbaa" fill-opacity="1.0"  filling="0" d="M144.0 128.0 L110.0 113.0 A2.0 2.0 0.0 0 1 109.0 111.0 L109.0 67.0 C109.0 66.0 110.0 65.0 111.0 65.0 L144.0 75.0 C145.0 75.0 146.0 75.0 146.0 76.0 L146.0 126.0 C146.0 127.0 145.0 128.0 144.0 128.0 L144.0 128.0 Z"></path>
<path fill="#333333" fill-opacity="1.0"  filling="0" d="M144.0 130.0 L144.0 130.0 L110.0 117.0 A5.0 5.0 0.0 0 1 107.0 112.0 L107.0 67.0 C107.0 64.0 109.0 62.0 112.0 62.0 L145.0 72.0 C147.0 72.0 149.0 74.0 149.0 76.0 L149.0 126.0 C149.0 129.0 147.0 130.0 144.0 130.0 L144.0 130.0 Z M112.0 111.0 L144.0 125.0 L144.0 77.0 L112.0 68.0 L112.0 112.0 L112.0 111.0 L112.0 111.0 Z"></path>
<path fill="#99bbaa" fill-opacity="1.0"  filling="0" d="M144.0 128.0 L109.0 113.0 A2.0 2.0 0.0 0 1 109.0 111.0 L109.0 67.0 C109.0 66.0 110.0 65.0 111.0 65.0 L144.0 75.0 C145.0 75.0 146.0 75.0 146.0 76.0 L146.0 126.0 C146.0 127.0 145.0 128.0 144.0 128.0 L144.0 128.0 Z"></path>
<path fill="#333333" fill-opacity="1.0"  filling="0" d="M144.0 130.0 L144.0 130.0 L110.0 117.0 A5.0 5.0 0.0 0 1 107.0 112.0 L107.0 67.0 C107.0 64.0 109.0 62.0 112.0 62.0 L145.0 72.0 C147.0 72.0 149.0 74.0 149.0 76.0 L149.0 126.0 C149.0 129.0 147.0 130.0 144.0 130.0 L144.0 130.0 Z M112.0 111.0 L144.0 125.0 L144.0 77.0 L112.0 68.0 L112.0 112.0 L112.0 111.0 L112.0 111.0 Z"></path>
<path fill="#99bbaa" fill-opacity="1.0"  filling="0" d="M144.0 128.0 L109.0 113.0 A2.0 2.0 0.0 0 1 109.0 111.0 L109.0 67.0 C109.0 66.0 110.0 65.0 111.0 65.0 L144.0 75.0 C145.0 75.0 146.0 75.0 146.0 76.0 L146.0 126.0 C146.0 127.0 145.0 128.0 144.0 128.0 L144.0 128.0 Z"></path>
<path fill="#333333" fill-opacity="1.0"  filling="0" d="M144.0 130.0 L144.0 130.0 L110.0 117.0 A5.0 5.0 0.0 0 1 107.0 112.0 L107.0 67.0 C107.0 64.0 109.0 62.0 112.0 62.0 L145.0 72.0 C147.0 72.0 149.0 74.0 149.0 76.0 L149.0 126.0 C149.0 129.0 147.0 130.0 144.0 130.0 L144.0 130.0 Z M112.0 111.0 L144.0 125.0 L144.0 77.0 L112.0 68.0 L112.0 112.0 L112.0 111.0 L112.0 111.0 Z"></path>
<path fill="#99bbaa" fill-opacity="1.0"  filling="0" d="M144.0 128.0 L109.0 113.0 A2.0 2.0 0.0 0 1 109.0 111.0 L109.0 67.0 C109.0 66.0 110.0 65.0 111.0 65.0 L144.0 75.0 C145.0 75.0 146.0 75.0 146.0 76.0 L146.0 126.0 C146.0 127.0 145.0 128.0 144.0 128.0 L144.0 128.0 Z"></path>
<path fill="#333333" fill-opacity="1.0"  filling="0" d="M144.0 130.0 L144.0 130.0 L110.0 117.0 A5.0 5.0 0.0 0 1 107.0 112.0 L107.0 67.0 C107.0 64.0 109.0 62.0 112.0 62.0 L145.0 72.0 C147.0 72.0 149.0 74.0 149.0 76.0 L149.0 126.0 C149.0 129.0 147.0 130.0 144.0 130.0 L144.0 130.0 Z M112.0 111.0 L144.0 125.0 L144.0 77.0 L112.0 68.0 L112.0 112.0 L112.0 111.0 L112.0 111.0 Z"></path>
<path fill="#99bbaa" fill-opacity="1.0"  filling="0" d="M144.0 128.0 L109.0 113.0 A2.0 2.0 0.0 0 1 109.0 111.0 L109.0 67.0 C109.0 66.0 110.0 65.0 111.0 65.0 L144.0 75.0 C145.0 75.0 146.0 75.0 146.0 76.0 L146.0 126.0 C146.0 127.0 145.0 128.0 144.0 128.0 L144.0 128.0 Z"></path>
<path fill="#333333" fill-opacity="1.0"  filling="0" d="M144.0 130.0 L144.0 130.0 L110.0 117.0 A5.0 5.0 0.0 0 1 107.0 112.0 L107.0 67.0 C107.0 64.0 109.0 62.0 112.0 62.0 L145.0 72.0 C147.0 72.0 149.0 74.0 149.0 76.0 L149.0 126.0 C149.0 129.0 147.0 130.0 144.0 130.0 L144.0 130.0 Z M112.0 111.0 L144.0 125.0 L144.0 77.0 L112.0 68.0 L112.0 112.0 L112.0 111.0 L112.0 111.0 Z"></path>
<path fill="#99bbaa" fill-opacity="1.0"  filling="0" d="M144.0 128.0 L109.0 113.0 A2.0 2.0 0.0 0 1 109.0 111.0 L109.0 67.0 C109.0 66.0 110.0 65.0 111.0 65.0 L144.0 75.0 C145.0 75.0 146.0 75.0 146.0 76.0 L146.0 126.0 C146.0 127.0 145.0 128.0 144.0 128.0 L144.0 128.0 Z"></path>
<path fill="#333333" fill-opacity="1.0"  filling="0" d="M144.0 130.0 L144.0 130.0 L110.0 117.0 A5.0 5.0 0.0 0 1 107.0 112.0 L107.0 67.0 C107.0 64.0 109.0 62.0 112.0 62.0 L145.0 72.0 C147.0 72.0 149.0 74.0 149.0 76.0 L149.0 126.0 C149.0 129.0 147.0 130.0 144.0 130.0 L144.0 130.0 Z M112.0 111.0 L144.0 125.0 L144.0 77.0 L112.0 68.0 L112.0 112.0 L112.0 111.0 L112.0 111.0 Z"></path>
<path fill="#667777" fill-opacity="1.0"  filling="0" d="M56.0 128.0 L40.0 158.0 C38.0 164.0 30.0 167.0 24.0 163.0 C18.0 160.0 16.0 153.0 20.0 147.0 L34.0 118.0 C35.0 116.0 38.0 115.0 40.0 115.0 L52.0 121.0 C54.0 122.0 56.0 125.0 56.0 128.0 L56.0 128.0 Z"></path>
<path fill="#333333" fill-opacity="1.0"  filling="0" d="M29.0 165.0 C28.0 165.0 26.0 164.0 24.0 164.0 C19.0 162.0 16.0 154.0 19.0 147.0 L33.0 117.0 C34.0 115.0 37.0 113.0 40.0 114.0 L53.0 119.0 C56.0 120.0 58.0 124.0 57.0 128.0 L42.0 159.0 C40.0 164.0 35.0 165.0 29.0 165.0 L29.0 165.0 Z M39.0 118.0 C38.0 118.0 37.0 119.0 37.0 119.0 L23.0 148.0 C21.0 153.0 23.0 158.0 26.0 160.0 C30.0 163.0 36.0 161.0 38.0 157.0 L53.0 126.0 C53.0 125.0 52.0 124.0 52.0 123.0 L39.0 118.0 L39.0 118.0 Z"></path>
<path fill="#667777" fill-opacity="1.0"  filling="0" d="M56.0 116.0 L52.0 121.0 C52.0 122.0 51.0 122.0 50.0 122.0 L41.0 117.0 C41.0 117.0 41.0 117.0 41.0 117.0 L44.0 110.0 C44.0 110.0 44.0 110.0 45.0 110.0 L55.0 114.0 C56.0 114.0 56.0 115.0 56.0 116.0 L56.0 116.0 Z"></path>
<path fill="#333333" fill-opacity="1.0"  filling="0" d="M50.0 124.0 C50.0 124.0 50.0 124.0 50.0 124.0 L40.0 120.0 C39.0 120.0 38.0 119.0 38.0 118.0 C38.0 117.0 38.0 116.0 39.0 115.0 L42.0 109.0 C42.0 108.0 44.0 108.0 45.0 108.0 C46.0 108.0 46.0 108.0 47.0 108.0 L56.0 112.0 C57.0 112.0 57.0 113.0 58.0 114.0 C58.0 115.0 58.0 116.0 58.0 117.0 L54.0 122.0 C53.0 123.0 52.0 124.0 50.0 124.0 L50.0 124.0 Z M43.0 116.0 L50.0 119.0 L52.0 116.0 L46.0 113.0 L43.0 116.0 L43.0 116.0 Z"></path>
<path fill="#667777" fill-opacity="1.0"  filling="0" d="M100.0 75.0 A35.0 35.0 0.0 1 1 28.0 75.0 A35.0 35.0 0.0 1 1 100.0 75.0 L100.0 75.0 Z"></path>
<path fill="#333333" fill-opacity="1.0"  filling="0" d="M66.0 116.0 C44.0 116.0 25.0 97.0 25.0 75.0 C25.0 52.0 44.0 34.0 66.0 34.0 C88.0 34.0 105.0 52.0 105.0 75.0 C105.0 97.0 88.0 116.0 66.0 116.0 L66.0 116.0 Z M66.0 38.0 C47.0 38.0 30.0 54.0 30.0 75.0 C30.0 95.0 47.0 112.0 66.0 112.0 C85.0 112.0 99.0 95.0 99.0 75.0 C99.0 54.0 85.0 38.0 66.0 38.0 L66.0 38.0 Z"></path>
<path fill="#ffeecc" fill-opacity="1.0"  filling="0" d="M95.0 75.0 A29.0 29.0 0.0 1 1 37.0 75.0 A29.0 29.0 0.0 1 1 95.0 75.0 L95.0 75.0 Z"></path>
<path fill="#333333" fill-opacity="1.0"  filling="0" d="M66.0 108.0 C50.0 108.0 35.0 93.0 35.0 75.0 C35.0 57.0 50.0 43.0 66.0 43.0 C83.0 43.0 97.0 57.0 97.0 75.0 C97.0 93.0 83.0 108.0 66.0 108.0 L66.0 108.0 Z M66.0 48.0 C52.0 48.0 40.0 60.0 40.0 75.0 C40.0 90.0 52.0 102.0 66.0 102.0 C80.0 102.0 92.0 90.0 92.0 75.0 C92.0 60.0 80.0 48.0 66.0 48.0 L66.0 48.0 Z"></path>
<path fill="#ffffff" fill-opacity="1.0"  filling="0" d="M154.0 60.0 A8.0 8.0 0.0 1 1 137.0 60.0 A8.0 8.0 0.0 1 1 154.0 60.0 L154.0 60.0 Z"></path>
<path fill="#333333" fill-opacity="1.0"  filling="0" d="M145.0 69.0 C140.0 69.0 136.0 65.0 136.0 60.0 C136.0 54.0 140.0 50.0 145.0 50.0 C151.0 50.0 155.0 54.0 155.0 60.0 C155.0 65.0 151.0 69.0 145.0 69.0 L145.0 69.0 Z M145.0 54.0 C142.0 54.0 140.0 56.0 140.0 60.0 C140.0 62.0 142.0 65.0 145.0 65.0 C148.0 65.0 151.0 62.0 151.0 60.0 C151.0 56.0 148.0 54.0 145.0 54.0 L145.0 54.0 Z"></path>
<path fill="#ffeecc" fill-opacity="1.0"  filling="0" d="M177.0 67.0 L144.0 74.0 C143.0 74.0 143.0 75.0 143.0 76.0 L143.0 128.0 C143.0 129.0 143.0 130.0 144.0 130.0 L177.0 149.0 C178.0 149.0 179.0 149.0 179.0 148.0 L179.0 68.0 C179.0 67.0 178.0 67.0 177.0 67.0 L177.0 67.0 Z"></path>
<path fill="#333333" fill-opacity="1.0"  filling="0" d="M177.0 152.0 C176.0 152.0 175.0 152.0 174.0 152.0 L143.0 133.0 C142.0 132.0 141.0 130.0 141.0 128.0 L141.0 76.0 C141.0 73.0 142.0 71.0 144.0 71.0 L174.0 65.0 C176.0 65.0 178.0 65.0 180.0 65.0 C181.0 66.0 181.0 67.0 181.0 68.0 L181.0 148.0 C181.0 149.0 181.0 151.0 179.0 152.0 C178.0 152.0 177.0 152.0 177.0 152.0 L177.0 152.0 Z M146.0 128.0 L177.0 147.0 L177.0 70.0 L146.0 77.0 L146.0 128.0 L146.0 128.0 Z"></path>
<path fill="#667777" fill-opacity="1.0"  filling="0" d="M145.0 101.0 L146.0 112.0 L179.0 114.0 L179.0 102.0 L145.0 101.0 L145.0 101.0 Z"></path>
<path fill="#000000" fill-opacity="1.0"  filling="0" d="M179.0 116.0 L179.0 116.0 L146.0 114.0 C145.0 114.0 144.0 113.0 144.0 112.0 L143.0 101.0 C143.0 100.0 143.0 99.0 144.0 99.0 C144.0 98.0 145.0 98.0 146.0 98.0 L179.0 100.0"></path></svg>