<svg xmlns="http://www.w3.org/2000/svg" viewBox="0.0 0.0 200.0 200.0" height="200px" width="200px"><path fill="#ffeecc" fill-opacity="1.0"  filling="0" d="M66.0 112.0 L68.0 162.0 L106.0 147.0 L106.0 67.0 C106.0 67.0 96.0 89.0 80.0 103.0 C66.0 110.0 66.0 112.0 66.0 112.0 L66.0 112.0 Z"></path>
<path fill="#333333" fill-opacity="1.0"  filling="0" d="M68.0 165.0 A3.0 3.0 0.0 0 1 65.0 162.0 L65.0 112.0 C65.0 111.0 65.0 109.0 79.0 101.0 C95.0 90.0 104.0 66.0 104.0 66.0 A3.0 3.0 0.0 0 1 108.0 64.0 A3.0 3.0 0.0 0 1 110.0 67.0 L110.0 147.0 A3.0 3.0 0.0 0 1 107.0 150.0 L69.0 165.0 A3.0 3.0 0.0 0 1 68.0 165.0 L68.0 165.0 Z M69.0 116.0 L69.0 161.0 L104.0 146.0 L104.0 89.0 C99.0 96.0 91.0 105.0 81.0 106.0 C74.0 110.0 71.0 113.0 69.0 115.0 L69.0 116.0 L69.0 116.0 Z"></path>
<path fill="#99bbaa" fill-opacity="1.0"  filling="0" d="M106.0 67.0 L106.0 111.0 L146.0 128.0 L146.0 81.0 L106.0 67.0 L106.0 67.0 Z"></path>
<path fill="#333333" fill-opacity="1.0"  filling="0" d="M146.0 130.0 A3.0 3.0 0.0 0 1 145.0 130.0 L105.0 113.0 A3.0 3.0 0.0 0 1 104.0 111.0 L104.0 67.0 A3.0 3.0 0.0 0 1 108.0 65.0 L147.0 78.0 A3.0 3.0 0.0 0 1 148.0 81.0 L148.0 128.0 A3.0 3.0 0.0 0 1 146.0 130.0 L146.0 130.0 Z M108.0 110.0 L144.0 125.0 L144.0 82.0 L108.0 72.0 L108.0 110.0 L108.0 110.0 Z"></path>
<path fill="#ffeecc" fill-opacity="1.0"  filling="0" d="M146.0 128.0 L146.0 163.0 L179.0 149.0 L179.0 68.0 L146.0 81.0 L146.0 128.0 L146.0 128.0 Z"></path>
<path fill="#333333" fill-opacity="1.0"  filling="0" d="M146.0 166.0 A3.0 3.0 0.0 0 1 143.0 163.0 L143.0 81.0 A3.0 3.0 0.0 0 1 145.0 78.0 L177.0 65.0 A3.0 3.0 0.0 0 1 181.0 68.0 L181.0 149.0 A3.0 3.0 0.0 0 1 179.0 151.0 L147.0 166.0 A3.0 3.0 0.0 0 1 146.0 166.0 L146.0 166.0 Z M148.0 83.0 L148.0 161.0 L176.0 148.0 L176.0 70.0 L148.0 83.0 L148.0 83.0 Z"></path>
<path fill="#ffeecc" fill-opacity="1.0"  filling="0" d="M146.0 107.0 L146.0 128.0 L179.0 113.0 L179.0 68.0 L146.0 81.0 L146.0 107.0 L146.0 107.0 Z"></path>
<path fill="#333333" fill-opacity="1.0"  filling="0" d="M146.0 130.0 A3.0 3.0 0.0 0 1 143.0 128.0 L143.0 81.0 A3.0 3.0 0.0 0 1 145.0 78.0 L177.0 65.0 A3.0 3.0 0.0 0 1 181.0 68.0 L181.0 113.0 A3.0 3.0 0.0 0 1 180.0 116.0 L147.0 130.0 A3.0 3.0 0.0 0 1 146.0 130.0 L146.0 130.0 Z M148.0 83.0 L148.0 125.0 L176.0 111.0 L176.0 70.0 L148.0 83.0 L148.0 83.0 Z"></path>
<path fill="#666666" fill-opacity="1.0"  filling="0" d="M91.0 109.0 C109.0 109.0 125.0 93.0 125.0 75.0 C125.0 57.0 109.0 42.0 91.0 42.0 C72.0 42.0 57.0 57.0 57.0 75.0 C57.0 93.0 72.0 109.0 91.0 109.0 L91.0 109.0 Z"></path>
<path fill="#333333" fill-opacity="1.0"  filling="0" d="M91.0 112.0 C70.0 112.0 54.0 95.0 54.0 75.0 C54.0 56.0 70.0 39.0 91.0 39.0 C111.0 39.0 127.0 56.0 127.0 75.0 C127.0 95.0 111.0 112.0 91.0 112.0 L91.0 112.0 Z M91.0 44.0 C73.0 44.0 59.0 58.0 59.0 75.0 C59.0 92.0 73.0 106.0 91.0 106.0 C108.0 106.0 122.0 92.0 122.0 75.0 C122.0 58.0 108.0 44.0 91.0 44.0 L91.0 44.0 Z"></path>
<path fill="#666666" fill-opacity="1.0"  filling="0" d="M66.0 108.0 C86.0 108.0 102.0 93.0 102.0 75.0 C102.0 57.0 86.0 42.0 66.0 42.0 C47.0 42.0 31.0 57.0 31.0 75.0 C31.0 93.0 47.0 108.0 66.0 108.0 L66.0 108.0 Z"></path>
<path fill="#333333" fill-opacity="1.0"  filling="0" d="M66.0 111.0 C45.0 111.0 28.0 95.0 28.0 75.0 C28.0 56.0 45.0 39.0 66.0 39.0 C87.0 39.0 105.0 56.0 105.0 75.0 C105.0 95.0 87.0 111.0 66.0 111.0 L66.0 111.0 Z M66.0 44.0 C48.0 44.0 34.0 58.0 34.0 75.0 C34.0 92.0 48.0 106.0 66.0 106.0 C85.0 106.0 100.0 92.0 100.0 75.0 C100.0 58.0 85.0 44.0 66.0 44.0 L66.0 44.0 Z"></path>
<path fill="#ffeecc" fill-opacity="1.0"  filling="0" d="M66.0 103.0 C82.0 103.0 94.0 90.0 94.0 75.0 C94.0 60.0 82.0 47.0 66.0 47.0 C50.0 47.0 38.0 60.0 38.0 75.0 C38.0 90.0 50.0 103.0 66.0 103.0 L66.0 103.0 Z"></path>
<path fill="#333333" fill-opacity="1.0"  filling="0" d="M66.0 105.0 C49.0 105.0 35.0 91.0 35.0 75.0 C35.0 59.0 49.0 45.0 66.0 45.0 C83.0 45.0 97.0 59.0 97.0 75.0 C97.0 91.0 83.0 105.0 66.0 105.0 L66.0 105.0 Z M66.0 49.0 C51.0 49.0 40.0 61.0 40.0 75.0 C40.0 89.0 51.0 101.0 66.0 101.0 C80.0 101.0 92.0 89.0 92.0 75.0 C92.0 61.0 80.0 49.0 66.0 49.0 L66.0 49.0 Z"></path>
<path fill="#ffffff" fill-opacity="1.0"  filling="0" d="M145.0 68.0 C150.0 68.0 153.0 64.0 153.0 59.0 C153.0 55.0 150.0 52.0 145.0 52.0 C141.0 52.0 137.0 55.0 137.0 59.0 C137.0 64.0 141.0 68.0 145.0 68.0 L145.0 68.0 Z"></path>
<path fill="#333333" fill-opacity="1.0"  filling="0" d="M145.0 69.0 C140.0 69.0 135.0 65.0 135.0 59.0 C135.0 54.0 140.0 50.0 145.0 50.0 C151.0 50.0 155.0 54.0 155.0 59.0 C155.0 65.0 151.0 69.0 145.0 69.0 L145.0 69.0 Z M145.0 54.0 C142.0 54.0 140.0 56.0 140.0 59.0 C140.0 62.0 142.0 65.0 145.0 65.0 C148.0 65.0 151.0 62.0 151.0 59.0 C151.0 56.0 148.0 54.0 145.0 54.0 L145.0 54.0 Z"></path>
<path fill="#666666" fill-opacity="1.0"  filling="0" d="M30.0 163.0 C34.0 163.0 37.0 161.0 38.0 158.0 L53.0 126.0 A2.0 2.0 0.0 0 0 53.0 124.0 L38.0 117.0 C37.0 117.0 36.0 117.0 35.0 118.0 L21.0 148.0 C20.0 152.0 20.0 156.0 23.0 159.0 C25.0 161.0 27.0 163.0 30.0 163.0 L30.0 163.0 Z"></path>
<path fill="#333333" fill-opacity="1.0"  filling="0" d="M30.0 165.0 C27.0 165.0 23.0 163.0 21.0 160.0 C17.0 157.0 17.0 151.0 19.0 147.0 L34.0 117.0 A5.0 5.0 0.0 0 1 40.0 115.0 L54.0 122.0 A5.0 5.0 0.0 0 1 55.0 127.0 L40.0 159.0 C38.0 162.0 35.0 165.0 30.0 165.0 L30.0 165.0 Z M38.0 119.0 C38.0 119.0 38.0 119.0 37.0 120.0 L23.0 150.0 C22.0 153.0 22.0 155.0 24.0 157.0 C26.0 159.0 28.0 160.0 30.0 160.0 C32.0 160.0 35.0 159.0 36.0 157.0 L51.0 126.0 L38.0 119.0 L38.0 119.0 Z"></path></svg>