<svg xmlns="http://www.w3.org/2000/svg" viewBox="0.0 0.0 200.0 200.0" height="200px" width="200px"><path fill="#777777" fill-opacity="1.0"  filling="0" d="M52.0 125.0 L37.0 157.0 C35.0 161.0 30.0 163.0 26.0 161.0 C22.0 159.0 20.0 154.0 22.0 150.0 L36.0 119.0 A4.0 4.0 0.0 0 1 38.0 117.0 L51.0 109.0 L52.0 125.0 L52.0 125.0 Z"></path>
<path fill="#333333" fill-opacity="1.0"  filling="0" d="M30.0 165.0 C28.0 165.0 26.0 164.0 24.0 163.0 C18.0 160.0 16.0 154.0 19.0 148.0 L34.0 118.0 C34.0 116.0 36.0 115.0 38.0 115.0 L50.0 108.0 C51.0 107.0 52.0 107.0 52.0 108.0 C53.0 108.0 53.0 109.0 53.0 109.0 L54.0 124.0 L40.0 158.0 C38.0 162.0 34.0 165.0 30.0 165.0 L30.0 165.0 Z M50.0 112.0 L39.0 119.0 C38.0 119.0 38.0 120.0 38.0 120.0 L23.0 150.0 C22.0 154.0 23.0 158.0 26.0 159.0 C30.0 161.0 34.0 160.0 36.0 156.0 L50.0 125.0 L50.0 112.0 L50.0 112.0 Z"></path>
<path fill="#ffeecc" fill-opacity="1.0"  filling="0" d="M66.0 112.0 L67.0 162.0 L105.0 147.0 L105.0 67.0 L66.0 112.0 L66.0 112.0 Z"></path>
<path fill="#333333" fill-opacity="1.0"  filling="0" d="M67.0 165.0 C67.0 165.0 66.0 165.0 66.0 165.0 C65.0 164.0 65.0 164.0 65.0 163.0 L64.0 112.0 C64.0 111.0 64.0 110.0 65.0 110.0 L103.0 65.0 C104.0 65.0 105.0 64.0 106.0 65.0 C106.0 65.0 107.0 66.0 107.0 67.0 L107.0 147.0 C107.0 148.0 106.0 149.0 105.0 149.0 L68.0 165.0 C68.0 165.0 68.0 165.0 67.0 165.0 L67.0 165.0 Z M69.0 112.0 L69.0 160.0 L102.0 146.0 L102.0 73.0 L69.0 112.0 L69.0 112.0 Z"></path>
<path fill="#ffeecc" fill-opacity="1.0"  filling="0" d="M145.0 112.0 L145.0 163.0 L179.0 149.0 L179.0 67.0 L145.0 112.0 L145.0 112.0 Z"></path>
<path fill="#333333" fill-opacity="1.0"  filling="0" d="M145.0 166.0 C144.0 166.0 144.0 165.0 143.0 165.0 C142.0 164.0 142.0 164.0 142.0 163.0 L142.0 112.0 C142.0 111.0 142.0 111.0 143.0 110.0 L177.0 65.0 C177.0 65.0 178.0 65.0 179.0 65.0 C180.0 65.0 181.0 66.0 181.0 67.0 L181.0 149.0 C181.0 150.0 180.0 151.0 179.0 151.0 L146.0 166.0 C146.0 166.0 145.0 166.0 145.0 166.0 L145.0 166.0 Z M147.0 112.0 L147.0 161.0 L176.0 148.0 L176.0 73.0 L147.0 112.0 L147.0 112.0 Z"></path>
<path fill="#99bbaa" fill-opacity="1.0"  filling="0" d="M105.0 112.0 L105.0 148.0 L145.0 163.0 L145.0 131.0 L105.0 112.0 L105.0 112.0 Z"></path>
<path fill="#333333" fill-opacity="1.0"  filling="0" d="M145.0 166.0 C145.0 166.0 144.0 166.0 144.0 166.0 L104.0 150.0 C103.0 150.0 102.0 149.0 102.0 148.0 L102.0 112.0 C102.0 111.0 103.0 111.0 104.0 110.0 C105.0 109.0 106.0 109.0 106.0 110.0 L146.0 129.0 C147.0 130.0 147.0 130.0 147.0 131.0 L147.0 163.0 C147.0 164.0 147.0 165.0 146.0 165.0 C146.0 166.0 145.0 166.0 145.0 166.0 L145.0 166.0 Z M107.0 146.0 L143.0 160.0 L143.0 132.0 L107.0 115.0 L107.0 146.0 L107.0 146.0 Z"></path>
<path fill="#ffeecc" fill-opacity="1.0"  filling="0" d="M145.0 131.0 L145.0 163.0 L179.0 149.0 L179.0 113.0 L145.0 131.0 L145.0 131.0 Z"></path>
<path fill="#333333" fill-opacity="1.0"  filling="0" d="M145.0 166.0 C145.0 166.0 144.0 166.0 143.0 165.0 C143.0 165.0 142.0 164.0 142.0 163.0 L142.0 131.0 C142.0 130.0 143.0 129.0 144.0 129.0 L177.0 111.0 C178.0 110.0 179.0 110.0 179.0 111.0 C180.0 111.0 181.0 112.0 181.0 113.0 L181.0 149.0 C181.0 149.0 180.0 150.0 179.0 151.0 L146.0 166.0 C146.0 166.0 145.0 166.0 145.0 166.0 L145.0 166.0 Z M147.0 133.0 L147.0 161.0 L176.0 148.0 L176.0 116.0 L147.0 133.0 L147.0 133.0 Z"></path>
<path fill="#667777" fill-opacity="1.0"  filling="0" d="M25.0 75.0 A40.0 40.0 0.0 1 0 106.0 75.0 A40.0 40.0 0.0 1 0 25.0 75.0 L25.0 75.0 Z"></path>
<path fill="#333333" fill-opacity="1.0"  filling="0" d="M66.0 116.0 C43.0 116.0 25.0 97.0 25.0 75.0 C25.0 53.0 43.0 34.0 66.0 34.0 C88.0 34.0 105.0 53.0 105.0 75.0 C105.0 97.0 88.0 116.0 66.0 116.0 L66.0 116.0 Z M66.0 38.0 C46.0 38.0 29.0 55.0 29.0 75.0 C29.0 95.0 46.0 112.0 66.0 112.0 C85.0 112.0 102.0 95.0 102.0 75.0 C102.0 55.0 85.0 38.0 66.0 38.0 L66.0 38.0 Z"></path>
<path fill="#ffeecc" fill-opacity="1.0"  filling="0" d="M37.0 75.0 A29.0 29.0 0.0 1 0 94.0 75.0 A29.0 29.0 0.0 1 0 37.0 75.0 L37.0 75.0 Z"></path>
<path fill="#333333" fill-opacity="1.0"  filling="0" d="M66.0 106.0 C48.0 106.0 35.0 92.0 35.0 75.0 C35.0 57.0 48.0 43.0 66.0 43.0 C83.0 43.0 97.0 57.0 97.0 75.0 C97.0 92.0 83.0 106.0 66.0 106.0 L66.0 106.0 Z M66.0 48.0 C51.0 48.0 39.0 60.0 39.0 75.0 C39.0 90.0 51.0 101.0 66.0 101.0 C80.0 101.0 92.0 90.0 92.0 75.0 C92.0 60.0 80.0 48.0 66.0 48.0 L66.0 48.0 Z"></path>
<path fill="#ee7755" fill-opacity="1.0"  filling="0" d="M124.0 60.0 A21.0 21.0 0.0 1 0 166.0 60.0 A21.0 21.0 0.0 1 0 124.0 60.0 L124.0 60.0 Z"></path>
<path fill="#333333" fill-opacity="1.0"  filling="0" d="M145.0 85.0 C132.0 85.0 122.0 73.0 122.0 60.0 C122.0 47.0 132.0 37.0 145.0 37.0 C158.0 37.0 168.0 47.0 168.0 60.0 C168.0 73.0 158.0 85.0 145.0 85.0 L145.0 85.0 Z M145.0 41.0 C135.0 41.0 127.0 49.0 127.0 60.0 C127.0 71.0 135.0 80.0 145.0 80.0 C155.0 80.0 164.0 71.0 164.0 60.0 C164.0 49.0 155.0 41.0 145.0 41.0 L145.0 41.0 Z"></path>
<path fill="#ffffff" fill-opacity="1.0"  filling="0" d="M138.0 60.0 A7.0 7.0 0.0 1 0 152.0 60.0 A7.0 7.0 0.0 1 0 138.0 60.0 L138.0 60.0 Z"></path>
<path fill="#333333" fill-opacity="1.0"  filling="0" d="M145.0 69.0 C140.0 69.0 136.0 65.0 136.0 60.0 C136.0 54.0 140.0 50.0 145.0 50.0 C151.0 50.0 155.0 54.0 155.0 60.0 C155.0 65.0 151.0 69.0 145.0 69.0 L145.0 69.0 Z M145.0 54.0 C142.0 54.0 140.0 56.0 140.0 60.0 C140.0 62.0 142.0 65.0 145.0 65.0 C148.0 65.0 151.0 62.0 151.0 60.0 C151.0 56.0 148.0 54.0 145.0 54.0 L145.0 54.0 Z"></path></svg>