<svg xmlns="http://www.w3.org/2000/svg" viewBox="0.0 0.0 200.0 200.0" height="200px" width="200px"><path fill="#ffeecc" fill-opacity="1.0"  filling="0" d="M53.0 108.0 L42.0 118.0 C40.0 120.0 40.0 123.0 41.0 125.0 L59.0 161.0 C60.0 164.0 63.0 165.0 66.0 164.0 L105.0 148.0 L100.0 150.0 L150.0 162.0 L180.0 149.0 L180.0 67.0 L160.0 83.0 L136.0 65.0 L125.0 75.0 L111.0 67.0 L100.0 63.0 L97.0 108.0 L84.0 111.0 L66.0 108.0 L54.0 108.0 L53.0 108.0 L53.0 108.0 Z"></path>
<path fill="#333333" fill-opacity="1.0"  filling="0" d="M66.0 166.0 C64.0 166.0 63.0 166.0 62.0 165.0 C60.0 165.0 59.0 164.0 58.0 162.0 L39.0 126.0 C38.0 123.0 38.0 119.0 41.0 117.0 L52.0 107.0 C52.0 106.0 53.0 106.0 54.0 106.0 L66.0 106.0 L84.0 109.0 L96.0 106.0 L99.0 62.0 L111.0 64.0 L125.0 73.0 L136.0 62.0 L160.0 81.0 L181.0 66.0 L181.0 149.0 L151.0 164.0 L100.0 152.0 L106.0 151.0 L67.0 165.0 C67.0 165.0 66.0 166.0 66.0 166.0 L66.0 166.0 Z M54.0 110.0 L43.0 120.0 C42.0 120.0 42.0 122.0 43.0 124.0 L61.0 160.0 C61.0 161.0 62.0 162.0 63.0 162.0 C64.0 162.0 65.0 162.0 66.0 162.0 L105.0 147.0 L100.0 149.0 L150.0 160.0 L178.0 147.0 L178.0 72.0 L160.0 85.0 L136.0 67.0 L125.0 77.0 L110.0 68.0 L102.0 66.0 L99.0 109.0 L85.0 112.0 L66.0 110.0 L54.0 110.0 L54.0 110.0 Z"></path>
<path fill="#666666" fill-opacity="1.0"  filling="0" d="M91.0 58.0 A32.0 32.0 0.0 1 0 54.0 92.0 A32.0 32.0 0.0 0 0 91.0 58.0 L91.0 58.0 Z M73.0 87.0 A21.0 21.0 0.0 1 1 91.0 58.0 A21.0 21.0 0.0 0 1 73.0 87.0 L73.0 87.0 Z"></path>
<path fill="#333333" fill-opacity="1.0"  filling="0" d="M66.0 112.0 C43.0 112.0 25.0 96.0 25.0 75.0 C25.0 53.0 43.0 34.0 66.0 34.0 C88.0 34.0 105.0 53.0 105.0 75.0 C105.0 96.0 88.0 112.0 66.0 112.0 L66.0 112.0 Z M66.0 38.0 C45.0 38.0 29.0 54.0 29.0 75.0 C29.0 94.0 45.0 108.0 66.0 108.0 C86.0 108.0 102.0 94.0 102.0 75.0 C102.0 54.0 86.0 38.0 66.0 38.0 L66.0 38.0 Z"></path>
<path fill="#333333" fill-opacity="1.0"  filling="0" d="M66.0 102.0 C49.0 102.0 35.0 90.0 35.0 75.0 C35.0 59.0 49.0 45.0 66.0 45.0 C82.0 45.0 95.0 59.0 95.0 75.0 C95.0 90.0 82.0 102.0 66.0 102.0 L66.0 102.0 Z M66.0 48.0 C51.0 48.0 39.0 60.0 39.0 75.0 C39.0 88.0 51.0 99.0 66.0 99.0 C80.0 99.0 92.0 88.0 92.0 75.0 C92.0 60.0 80.0 48.0 66.0 48.0 L66.0 48.0 Z"></path>
<path fill="#333333" fill-opacity="1.0"  filling="0" d="M145.0 69.0 A10.0 10.0 0.0 1 0 145.0 50.0 A10.0 10.0 0.0 0 0 145.0 69.0 L145.0 69.0 Z M145.0 54.0 A6.0 6.0 0.0 1 1 145.0 65.0 A6.0 6.0 0.0 0 1 145.0 54.0 L145.0 54.0 Z"></path>
<path fill="#ffeecc" fill-opacity="1.0"  filling="0" d="M145.0 97.0 L145.0 130.0 L180.0 113.0 L180.0 68.0 L145.0 97.0 L145.0 97.0 Z"></path>
<path fill="#333333" fill-opacity="1.0"  filling="0" d="M144.0 132.0 L144.0 95.0 L181.0 63.0 L181.0 114.0 L144.0 132.0 L144.0 132.0 Z M148.0 96.0 L148.0 125.0 L177.0 112.0 L177.0 70.0 L148.0 96.0 L148.0 96.0 Z"></path>
<path fill="#ffeecc" fill-opacity="1.0"  filling="0" d="M150.0 138.0 L150.0 129.0 L179.0 113.0 L179.0 148.0 L150.0 162.0 L150.0 138.0 L150.0 138.0 Z"></path>
<path fill="#333333" fill-opacity="1.0"  filling="0" d="M148.0 166.0 L148.0 130.0 L181.0 110.0 L181.0 149.0 L148.0 166.0 L148.0 166.0 Z M152.0 129.0 L152.0 160.0 L177.0 147.0 L177.0 116.0 L152.0 129.0 L152.0 129.0 Z"></path>
<path fill="#ffeecc" fill-opacity="1.0"  filling="0" d="M105.0 138.0 L105.0 113.0 L145.0 130.0 L145.0 162.0 L105.0 148.0 L105.0 138.0 L105.0 138.0 Z"></path>
<path fill="#333333" fill-opacity="1.0"  filling="0" d="M146.0 166.0 L103.0 150.0 L103.0 136.0 L103.0 110.0 L146.0 128.0 L146.0 166.0 L146.0 166.0 Z M107.0 147.0 L143.0 160.0 L143.0 131.0 L108.0 115.0 L107.0 147.0 L107.0 147.0 Z"></path>
<path fill="#ffeecc" fill-opacity="1.0"  filling="0" d="M95.0 112.0 L105.0 138.0 L69.0 162.0 L69.0 114.0 L95.0 112.0 L95.0 112.0 Z"></path>
<path fill="#333333" fill-opacity="1.0"  filling="0" d="M70.0 166.0 L68.0 113.0 L97.0 110.0 L106.0 140.0 L70.0 166.0 L70.0 166.0 Z M72.0 116.0 L72.0 161.0 L102.0 138.0 L94.0 114.0 L72.0 116.0 L72.0 116.0 Z"></path>
<path fill="#777777" fill-opacity="1.0"  filling="0" d="M52.0 125.0 L38.0 120.0 C36.0 119.0 35.0 118.0 34.0 117.0 L21.0 149.0 C20.0 153.0 20.0 158.0 24.0 160.0 C28.0 162.0 33.0 162.0 35.0 158.0 L53.0 126.0 C53.0 126.0 53.0 125.0 52.0 125.0 L52.0 125.0 Z"></path>
<path fill="#333333" fill-opacity="1.0"  filling="0" d="M30.0 165.0 C29.0 165.0 28.0 165.0 27.0 164.0 C25.0 164.0 24.0 163.0 23.0 161.0 C19.0 159.0 17.0 153.0 19.0 148.0 L33.0 117.0 C34.0 116.0 35.0 115.0 36.0 115.0 C37.0 115.0 38.0 115.0 39.0 116.0 L53.0 123.0 C54.0 124.0 55.0 125.0 55.0 127.0 L38.0 158.0 C37.0 162.0 33.0 165.0 30.0 165.0 L30.0 165.0 Z M37.0 119.0 C37.0 119.0 37.0 119.0 37.0 119.0 C37.0 119.0 36.0 119.0 36.0 119.0 L23.0 150.0 C21.0 153.0 22.0 157.0 25.0 159.0 C26.0 160.0 27.0 160.0 28.0 161.0 C31.0 161.0 34.0 160.0 35.0 157.0 L51.0 126.0 L37.0 119.0 C37.0 119.0 37.0 119.0 37.0 119.0 L37.0 119.0 Z"></path></svg>