<svg xmlns="http://www.w3.org/2000/svg" viewBox="0.0 0.0 200.0 200.0" height="200px" width="200px"><path fill="#ffaa22" fill-opacity="1.0"  filling="0" d="M13.0 99.0 A85.0 85.0 0.0 1 0 183.0 99.0 A85.0 85.0 0.0 1 0 13.0 99.0 L13.0 99.0 Z"></path>
<path fill="#ffcc88" fill-opacity="1.0"  filling="0" d="M101.0 42.0 C68.0 42.0 41.0 67.0 41.0 100.0 C41.0 134.0 68.0 160.0 101.0 160.0 C134.0 160.0 161.0 134.0 161.0 100.0 C161.0 67.0 134.0 42.0 101.0 42.0 L101.0 42.0 Z M127.0 102.0 L102.0 110.0 L102.0 119.0 L127.0 119.0 L127.0 124.0 L102.0 124.0 L102.0 141.0 L96.0 141.0 L96.0 124.0 L71.0 124.0 L71.0 119.0 L96.0 119.0 L96.0 110.0 L71.0 102.0 L71.0 97.0 L94.0 107.0 L67.0 63.0 L80.0 63.0 L97.0 89.0 L114.0 63.0 L130.0 63.0 L103.0 107.0 L127.0 97.0 L127.0 102.0 L127.0 102.0 L127.0 102.0 Z"></path>
<path fill="#ffdd22" fill-opacity="1.0"  filling="0" d="M101.0 42.0 C68.0 42.0 41.0 67.0 41.0 100.0 C41.0 108.0 43.0 116.0 46.0 124.0 C47.0 124.0 47.0 124.0 48.0 124.0 C55.0 124.0 62.0 122.0 68.0 120.0 L71.0 119.0 L73.0 119.0 C76.0 116.0 79.0 113.0 82.0 110.0 L71.0 103.0 L71.0 97.0 L87.0 105.0 C89.0 104.0 90.0 103.0 92.0 102.0 L67.0 63.0 L80.0 63.0 L97.0 89.0 L114.0 63.0 L130.0 63.0 L103.0 102.0 C105.0 103.0 107.0 104.0 108.0 105.0 L127.0 97.0 L127.0 103.0 L111.0 109.0 C114.0 112.0 118.0 115.0 121.0 119.0 L127.0 119.0 L127.0 120.0 C136.0 120.0 144.0 119.0 151.0 118.0 C151.0 118.0 152.0 118.0 153.0 118.0 C156.0 112.0 157.0 106.0 157.0 100.0 C158.0 67.0 133.0 42.0 101.0 42.0 L101.0 42.0 Z"></path>
<path fill="#ffdd44" fill-opacity="1.0"  filling="0" d="M101.0 42.0 C68.0 42.0 41.0 67.0 41.0 100.0 C41.0 101.0 41.0 101.0 41.0 102.0 C50.0 102.0 59.0 101.0 68.0 100.0 L71.0 97.0 L72.0 98.0 C78.0 92.0 84.0 86.0 89.0 80.0 L83.0 63.0 L80.0 63.0 L97.0 89.0 L114.0 63.0 L114.0 63.0 L130.0 63.0 L103.0 102.0 C105.0 101.0 107.0 101.0 108.0 101.0 L127.0 97.0 L127.0 98.0 C133.0 97.0 138.0 96.0 144.0 95.0 C147.0 95.0 149.0 95.0 152.0 94.0 C154.0 94.0 155.0 94.0 157.0 94.0 C155.0 63.0 131.0 42.0 101.0 42.0 L101.0 42.0 Z"></path>
<path fill="#ffee66" fill-opacity="1.0"  filling="0" d="M101.0 42.0 C71.0 42.0 47.0 65.0 43.0 92.0 C56.0 91.0 67.0 90.0 78.0 88.0 C82.0 85.0 86.0 82.0 89.0 80.0 L83.0 63.0 L80.0 63.0 L91.0 76.0 C94.0 73.0 97.0 69.0 100.0 65.0 L114.0 63.0 L114.0 63.0 L104.0 63.0 C114.0 58.0 123.0 53.0 131.0 48.0 C122.0 44.0 112.0 42.0 101.0 42.0 L101.0 42.0 Z"></path></svg>