<svg xmlns="http://www.w3.org/2000/svg" viewBox="0.0 0.0 200.0 200.0" height="200px" width="200px"><path fill="#ffbb11" fill-opacity="1.0"  filling="0" d="M13.0 99.0 A85.0 85.0 0.0 1 0 183.0 99.0 A85.0 85.0 0.0 1 0 13.0 99.0 L13.0 99.0 Z"></path>
<path fill="currentColor" fill-opacity="1.0"  filling="0" d="M101.0 42.0 C68.0 42.0 41.0 69.0 41.0 103.0 C41.0 136.0 68.0 162.0 101.0 162.0 C134.0 162.0 160.0 136.0 160.0 103.0 C160.0 69.0 134.0 42.0 101.0 42.0 L101.0 42.0 Z M127.0 102.0 L102.0 103.0 L102.0 110.0 L127.0 110.0 L127.0 117.0 L102.0 117.0 L102.0 141.0 L92.0 141.0 L92.0 125.0 L68.0 125.0 L68.0 117.0 L92.0 117.0 L92.0 110.0 L68.0 110.0 L68.0 102.0 L89.0 102.0 L66.0 63.0 L80.0 63.0 L97.0 89.0 L114.0 63.0 L130.0 63.0 L104.0 102.0 L102.0 102.0 L102.0 101.0 L102.0 101.0 L102.0 102.0 L102.0 102.0 L127.0 102.0 L127.0 102.0 Z"></path></svg>