<svg xmlns="http://www.w3.org/2000/svg" viewBox="0.0 0.0 200.0 200.0" height="200px" width="200px"><path fill="#ffbb11" fill-opacity="1.0"  filling="0" d="M13.0 99.0 A85.0 85.0 0.0 1 0 183.0 99.0 A85.0 85.0 0.0 1 0 13.0 99.0 L13.0 99.0 Z"></path>
<path fill="#ff9911" fill-opacity="1.0"  filling="0" d="M101.0 42.0 C68.0 42.0 41.0 68.0 41.0 100.0 C41.0 134.0 68.0 160.0 101.0 160.0 C134.0 160.0 161.0 134.0 161.0 100.0 C161.0 68.0 134.0 42.0 101.0 42.0 L101.0 42.0 Z M127.0 102.0 L102.0 103.0 L102.0 110.0 L127.0 110.0 L127.0 117.0 L102.0 117.0 L102.0 141.0 L92.0 141.0 L92.0 125.0 L68.0 125.0 L68.0 117.0 L92.0 117.0 L92.0 110.0 L68.0 110.0 L68.0 102.0 L89.0 102.0 L66.0 63.0 L80.0 63.0 C90.0 76.0 95.0 86.0 97.0 89.0 L98.0 89.0 C98.0 84.0 101.0 78.0 109.0 68.0 L114.0 63.0 L130.0 63.0 L106.0 101.0 L127.0 102.0 L127.0 102.0 Z"></path>
<path fill="#ffdd22" fill-opacity="1.0"  filling="0" d="M101.0 42.0 C68.0 42.0 41.0 68.0 41.0 100.0 C41.0 120.0 52.0 138.0 68.0 148.0 C69.0 150.0 71.0 150.0 73.0 150.0 C75.0 150.0 77.0 150.0 79.0 150.0 C92.0 150.0 104.0 146.0 114.0 141.0 C127.0 136.0 137.0 127.0 143.0 114.0 C147.0 105.0 148.0 95.0 147.0 85.0 C146.0 79.0 144.0 73.0 141.0 68.0 C133.0 54.0 118.0 46.0 101.0 42.0 L101.0 42.0 Z M127.0 102.0 L102.0 103.0 L102.0 110.0 L127.0 110.0 L127.0 117.0 L102.0 117.0 L102.0 141.0 L92.0 141.0 L92.0 125.0 L68.0 125.0 L68.0 117.0 L92.0 117.0 L92.0 110.0 L68.0 110.0 L68.0 102.0 L89.0 102.0 L66.0 63.0 L80.0 63.0 C90.0 76.0 95.0 86.0 97.0 88.0 C97.0 89.0 97.0 89.0 97.0 89.0 L98.0 89.0 C98.0 83.0 101.0 78.0 109.0 68.0 L114.0 63.0 L130.0 63.0 L106.0 101.0 L127.0 102.0 L127.0 102.0 Z"></path>
<path fill="#000000" fill-opacity="1.0"  filling="0" d="M101.0 42.0 C75.0 42.0 53.0 59.0 46.0 82.0 C50.0 85.0 55.0 87.0 61.0 88.0 C75.0 89.0 87.0 87.0 97.0 83.0 C98.0 81.0 99.0 79.0 100.0 77.0 C102.0 73.0 105.0 69.0 109.0 65.0 L114.0 63.0 L130.0 63.0 L115.0 100.0 L127.0 102.0 L102.0 103.0 L102.0 106.0 C108.0 105.0 113.0 104.0 118.0 103.0 C120.0 103.0 123.0 102.0 125.0 102.0 L127.0 102.0 L131.0 101.0 C135.0 96.0 139.0 90.0 142.0 85.0 C143.0 81.0 144.0 78.0 145.0 75.0 C144.0 70.0 142.0 65.0 138.0 60.0 C129.0 51.0 115.0 45.0 101.0 42.0 L101.0 42.0 Z M66.0 69.0 C67.0 68.0 68.0 67.0 69.0 65.0 C69.0 65.0 69.0 65.0 69.0 65.0 C69.0 65.0 69.0 65.0 69.0 65.0 C69.0 65.0 69.0 65.0 69.0 65.0 C69.0 65.0 69.0 65.0 69.0 65.0 C69.0 65.0 69.0 65.0 69.0 65.0 C69.0 65.0 69.0 65.0 69.0 65.0 C69.0 65.0 69.0 65.0 69.0 65.0 C69.0 65.0 69.0 65.0 69.0 65.0 C69.0 65.0 69.0 65.0 69.0 65.0 C69.0 65.0 69.0 65.0 69.0 65.0 C69.0 65.0 69.0 65.0 69.0 65.0 C69.0 65.0 69.0 65.0 69.0 65.0 C69.0 65.0 69.0 65.0 69.0 65.0 C69.0 65.0 69.0 65.0 69.0 65.0 C69.0 65.0 69.0 65.0 69.0 65.0 C69.0 65.0 69.0 65.0 69.0 65.0 C69.0 65.0 69.0 65.0 69.0 65.0 C69.0 65.0 69.0 65.0 69.0 65.0 C69.0 65.0 69.0 65.0 69.0 65.0 C69.0 65.0 69.0 65.0 69.0 65.0 C69.0 65.0 69.0 65.0 69.0 65.0 C69.0 65.0 69.0 65.0 69.0 65.0 C69.0 65.0 69.0 65.0 69.0 65.0 C69.0 65.0 69.0 65.0 69.0 65.0 C69.0 65.0 69.0 65.0 69.0 65.0 C69.0 65.0 69.0 65.0 69.0 65.0 C69.0 65.0 69.0 65.0 69.0 65.0 C69.0 65.0 69.0 65.0 69.0 65.0 C69.0 65.0 69.0 65.0 69.0 65.0 C69.0 65.0 69.0 65.0 69.0 65.0 C69.0 65.0 69.0 65.0 69.0 65.0 C69.0 65.0 69.0 65.0 69.0 65.0 C69.0 65.0 69.0 65.0 69.0 65.0 C69.0 65.0 69.0 65.0 69.0 65.0 C69.0 65.0 69.0 65.0 69.0 65.0 C69.0 65.0 69.0 65.0 69.0 65.0 C69.0 65.0 69.0 65.0 69.0 65.0 C69.0 65.0 69.0 65.0 69.0 65.0 C69.0 65.0 69.0 65.0 69.0 65.0 C69.0 65.0 69.0 65.0 69.0 65.0 C69.0 65.0 69.0 65.0 69.0 65.0 C69.0 65.0 69.0 65.0 69.0 65.0 C69.0 65.0 69.0 65.0 69.0 65.0 C69.0 65.0 69.0 65.0 69.0 65.0 C69.0 65.0 69.0 65.0 69.0 65.0 C69.0 65.0 69.0 65.0 69.0 65.0 C69.0 65.0 69.0 65.0 69.0 65.0 C69.0 65.0 69.0 65.0 69.0 65.0 C69.0 65.0 69.0 65.0 69.0 65.0 C69.0 65.0 69.0 65.0 69.0 65.0 C69.0 65.0 69.0 65.0 69.0 65.0 C69.0 65.0 69.0 65.0 69.0 65.0 C69.0 65.0 69.0 65.0 69.0 65.0 C69.0 65.0 69.0 65.0 69.0 65.0 C69.0 65.0 69.0 65.0 69.0 65.0 C69.0 65.0 69.0 65.0 69.0 65.0 C69.0 65.0 69.0 65.0 69.0 65.0 C69.0 65.0 69.0 65.0 69.0 65.0 C69.0 65.0 69.0 65.0 69.0 65.0 C69.0 65.0 69.0 65.0 69.0 65.0 C69.0 65.0 69.0 65.0 69.0 65.0 C69.0 65.0 69.0 65.0 69.0 65.0 C69.0 65.0 69.0 65.0 69.0 65.0 C69.0 65.0 69.0 65.0 69.0 65.0 C69.0 65.0 69.0 65.0 69.0 65.0 C69.0 65.0 69.0 65.0 69.0 65.0 C69.0 65.0 69.0 65.0 69.0 65.0 C69.0 65.0 69.0 65.0 69.0 65.0 C69.0 65.0 69.0 65.0 69.0 65.0 C69.0 65.0 69.0 65.0 69.0 65.0 C69.0 65.0 69.0 65.0 69.0 65.0 C69.0 65.0 69.0 65.0 69.0 65.0 C69.0 65.0 69.0 65.0 69.0 65.0 C69.0 65.0 69.0 65.0 69.0 65.0 C69.0 65.0 69.0 65.0 69.0 65.0 C69.0 65.0 69.0 65.0 69.0 65.0 C69.0 65.0 69.0 65.0 69.0 65.0 C69.0 65.0 69.0 65.0 69.0 65.0 C69.0 65.0 69.0 65.0 69.0 65.0 C69.0 65.0 69.0 65.0 69.0 65.0 C69.0 65.0 69.0 65.0 69.0 65.0 C69.0 65.0 69.0 65.0 69.0 65.0 C69.0 65.0 69.0 65.0 69.0 65.0 C69.0 65.0 69.0 65.0 69.0 65.0 C69.0 65.0 69.0 65.0 69.0 65.0 C69.0 65.0 69.0 65.0 69.0 65.0 C69.0 65.0 69.0 65.0 69.0 65.0 C69.0 65.0 69.0 65.0 69.0 65.0 C69.0 65.0 69.0 65.0 69.0 65.0 C69.0 65.0 69.0 65.0 69.0 65.0 C69.0 65.0 69.0 65.0 69.0 65.0 C69.0 65.0 69.0 65.0 69.0 65.0 C69.0 65.0 69.0 65.0 69.0 65.0 C69.0 65.0 69.0 65.0 69.0 65.0 C69.0 65.0 69.0 65.0 69.0 65.0 C69.0 65.0 69.0 65.0 69.0 65.0 C69.0 65.0 69.0 65.0 69.0 65.0 C69.0 65.0 69.0 65.0 69.0 65.0 C69.0 65.0 69.0 65.0 69.0 65.0 C69.0 65.0 69.0 65.0 69.0 65.0 C69.0 65.0 69.0 65.0 69.0 65.0 C69.0 65.0 69.0 65.0 69.0 65.0 C69.0 65.0 69.0 65.0 69.0 65.0 C69.0 65.0 69.0 65.0 69.0 65.0 C69.0 65.0 69.0 65.0 69.0 65.0 C69.0 65.0 69.0 65.0 69.0 65.0 C69.0 65.0 69.0 65.0 69.0 65.0 C69.0 65.0 69.0 65.0 69.0 65.0 C69.0 65.0 69.0 65.0 69.0 65.0 C69.0 65.0 69.0 65.0 69.0 65.0 C69.0 65.0 69.0 65.0 69.0 65.0 C69.0 65.0 69.0 65.0 69.0 65.0 C69.0 65.0 69.0 65.0 69.0 65.0 C69.0 65.0 69.0 65.0 69.0 65.0 C69.0 65.0 69.0 65.0 69.0 65.0 C69.0 65.0 69.0 65.0 69.0 65.0 C69.0 65.0 69.0 65.0 69.0 65.0 C69.0 65.0 69.0 65.0 69.0 65.0 C69.0 65.0 69.0 65.0 69.0 65.0 C69.0 65.0 69.0 65.0 69.0 65.0 C69.0 65.0 69.0 65.0 69.0 65.0 C69.0 65.0 69.0 65.0 69.0 65.0 C69.0 65.0 69.0 65.0 69.0 65.0 C69.0 65.0 69.0 65.0 69.0 65.0 C69.0 65.0 69.0 65.0 69.0 65.0 C69.0 65.0 69.0 65.0 69.0 65.0 C69.0 65.0 69.0 65.0 69.0 65.0 C69.0 65.0 69.0 65.0 69.0 65.0 C69.0 65.0 69.0 65.0 69.0 65.0 C69.0 65.0 69.0 65.0 69.0 65.0 C69.0 65.0 69.0 65.0 69.0 65.0 C69.0 65.0 69.0 65.0 69.0 65.0 C69.0 65.0 69.0 65.0 69.0 65.0 C69.0 65.0 69.0 65.0 69.0 65.0 C69.0 65.0 69.0 65.0 69.0 65.0 C69.0 65.0 69.0 65.0 69.0 65.0 C69.0 65.0 69.0 65.0 69.0 65.0 C69.0 65.0 69.0 65.0 69.0 65.0 C69.0 65.0 69.0 65.0 69.0 65.0 C69.0 65.0 69.0 65.0 69.0 65.0 C69.0 65.0 69.0 65.0 69.0 65.0 C69.0 65.0 69.0 65.0 69.0 65.0 C69.0 65.0 69.0 65.0 131.0 65.0 C131.0 65.0 131.0 65.0 131.0 65.0 C131.0 65.0 131.0 65.0 131.0 65.0 C131.0 65.0 131.0 65.0 131.0 65.0 C131.0 65.0 131.0 65.0 131.0 65.0 C131.0 65.0 131.0 65.0 131.0 65.0 C131.0 65.0 131.0 65.0 131.0 65.0 C131.0 65.0 131.0 65.0 131.0 65.0 C131.0 65.0 131.0 65.0 131.0 65.0 C131.0 65.0 131.0 65.0 131.0 65.0 C131.0 65.0 131.0 65.0 131.0 65.0 C131.0 65.0 131.0 65.0 131.0 65.0 C131.0 65.0 131.0 65.0 131.0 65.0 C131.0 65.0 131.0 65.0 131.0 65.0 C131.0 65.0 131.0 65.0 131.0 65.0 C131.0 65.0 131.0 65.0 131.0 65.0 C131.0 65.0 131.0 65.0 131.0 65.0 C131.0 65.0 131.0 65.0 131.0 65.0 C131.0 65.0 131.0 65.0 131.0 65.0 C131.0 65.0 131.0 65.0 131.0 65.0 C131.0 65.0 131.0 65.0 131.0 65.0 C131.0 65.0 131.0 65.0 131.0 65.0 C131.0 65.0 131.0 65.0 131.0 65.0 C131.0 65.0 131.0 65.0 131.0 65.0 C131.0 65.0 131.0 65.0 131.0 65.0 C131.0 65.0 131.0 65.0 131.0 65.0 C131.0 65.0 131.0 65.0 131.0 65.0 C131.0 65.0 131.0 65.0 131.0 65.0 C131.0 65.0 131.0 65.0 131.0 65.0 C131.0 65.0 131.0 65.0 131.0 65.0 C131.0 65.0 131.0 65.0 131.0 65.0 C131.0 65.0 131.0 65.0 131.0 65.0 C131.0 65.0 131.0 65.0 131.0 65.0 C131.0 65.0 131.0 65.0 131.0 65.0 C131.0 65.0 131.0 65.0 131.0 65.0 C131.0 65.0 131.0 65.0 131.0 65.0 C131.0 65.0 131.0 65.0 131.0 65.0 C131.0 65.0 131.0 65.0 131.0 65.0 C131.0 65.0 131.0 65.0 131.0 65.0 C131.0 65.0 131.0 65.0 131.0 65.0 C131.0 65.0 131.0 65.0 131.0 65.0 C131.0 65.0 131.0 65.0 131.0 65.0 C131.0 65.0 131.0 65.0 131.0 65.0 C131.0 65.0 131.0 65.0 131.0 65.0 C131.0 65.0 131.0 65.0 131.0 65.0 C131.0 65.0 131.0 65.0 131.0 65.0 C131.0 65.0 131.0 65.0 131.0 65.0 C131.0 65.0 131.0 65.0 131.0 65.0 C131.0 65.0 131.0 65.0 131.0 65.0 C131.0 65.0 131.0 65.0 131.0 65.0 C131.0 65.0 131.0 65.0 131.0 65.0 C131.0 65.0 131.0 65.0 131.0 65.0 C131.0 65.0 131.0 65.0 131.0 65.0 C131.0 65.0 131.0 65.0 131.0 65.0 C131.0 65.0 131.0 65.0 131.0 65.0 C131.0 65.0 131.0 65.0 131.0 65.0 C131.0 65.0 131.0 65.0 131.0 65.0 C131.0 65.0 131.0 65.0 131.0 65.0 C131.0 65.0 131.0 65.0 131.0 65.0 C131.0 65.0 131.0 65.0 131.0 65.0 C131.0 65.0 131.0 65.0 131.0 65.0 C131.0 65.0 131.0 65.0 131.0 65.0 C131.0 65.0 131.0 65.0 131.0 65.0 C131.0 65.0 131.0 65.0 131.0 65.0 C131.0 65.0 131.0 65.0 131.0 65.0 C131.0 65.0 131.0 65.0 131.0 65.0 C131.0 65.0 131.0 65.0 131.0 65.0 C131.0 65.0 131.0 65.0 131.0 65.0 C131.0 65.0 131.0 65.0 131.0 65.0 C131.0 65.0 131.0 65.0 131.0 65.0 C131.0 65.0 131.0 65.0 131.0 65.0 C131.0 65.0 131.0 65.0 131.0 65.0 C131.0 65.0 131.0 65.0 131.0 65.0 C131.0 65.0 131.0 65.0 131.0 65.0 C131.0 65.0 131.0 65.0 131.0 65.0 C131.0 65.0 131.0 65.0 131.0 65.0 C131.0 65.0 131.0 65.0 131.0 65.0 C131.0 65.0 131.0 65.0 131.0 65.0 C131.0 65.0 131.0 65.0 131.0 65.0 C131.0 65.0 131.0 65.0 131.0 65.0 C131.0 65.0 131.0 65.0 131.0 65.0 C131.0 65.0 131.0 65.0 131.0 65.0 C131.0 65.0 131.0 65.0 131.0 65.0 C131.0 65.0 131.0 65.0 131.0 65.0 C131.0 65.0 131.0 65.0 131.0 65.0 C131.0 65.0 131.0 65.0 131.0 65.0 C131.0 65.0 131.0 65.0 131.0 65.0 C131.0 65.0 131.0 65.0 131.0 65.0 C131.0 65.0 131.0 65.0 123.0 96.0 C122.0 96.0 121.0 96.0 120.0 96.0 C119.0 96.0 118.0 96.0 117.0 96.0 C114.0 96.0 111.0 96.0 108.0 96.0 C107.0 96.0 106.0 96.0 105.0 96.0 C104.0 96.0 103.0 96.0 102.0 96.0 C101.0 96.0 100.0 96.0 99.0 96.0 C97.0 96.0 95.0 96.0 92.0 96.0 C87.0 96.0 82.0 96.0 76.0 96.0 C75.0 96.0 74.0 96.0 73.0 96.0 C71.0 96.0 69.0 96.0 67.0 96.0 C66.0 96.0 65.0 96.0 64.0 96.0 C62.0 96.0 60.0 96.0 59.0 96.0 C56.0 96.0 53.0 96.0 50.0 96.0 C49.0 96.0 48.0 96.0 47.0 96.0 C45.0 96.0 43.0 96.0 41.0 96.0 C41.0 96.0 41.0 96.0 41.0 96.0 C41.0 98.0 41.0 98.0 41.0 100.0 C41.0 108.0 43.0 116.0 46.0 123.0 C48.0 123.0 49.0 123.0 50.0 123.0 C60.0 123.0 69.0 122.0 77.0 121.0 C91.0 120.0 103.0 118.0 114.0 116.0 C116.0 115.0 118.0 115.0 120.0 115.0 C121.0 115.0 123.0 114.0 124.0 114.0 C125.0 114.0 126.0 114.0 127.0 114.0 C128.0 114.0 130.0 114.0 132.0 114.0 C133.0 114.0 135.0 114.0 136.0 114.0 C137.0 114.0 138.0 114.0 139.0 114.0 C140.0 114.0 141.0 114.0 142.0 114.0 C142.0 114.0 142.0 113.0 142.0 113.0 C142.0 113.0 142.0 113.0 142.0 113.0 C142.0 113.0 142.0 113.0 142.0 113.0 C142.0 113.0 142.0 113.0 142.0 113.0 C142.0 113.0 142.0 113.0 142.0 113.0 C142.0 113.0 142.0 113.0 142.0 113.0 C142.0 113.0 142.0 113.0 142.0 113.0 C142.0 113.0 142.0 113.0 142.0 113.0 C142.0 113.0 142.0 113.0 142.0 113.0 C142.0 113.0 142.0 113.0 142.0 113.0 C142.0 113.0 142.0 113.0 142.0 113.0 C142.0 113.0 142.0 113.0 142.0 113.0 C142.0 113.0 142.0 113.0 142.0 113.0 C142.0 113.0 142.0 113.0 142.0 113.0 C142.0 113.0 142.0 113.0 142.0 113.0 C142.0 113.0 142.0 113.0 142.0 113.0 C142.0 113.0 142.0 113.0 142.0 113.0 C142.0 113.0 142.0 113.0 142.0 113.0 C142.0 113.0 142.0 113.0 142.0 113.0 C142.0 113.0 142.0 113.0 142.0 113.0 C142.0 113.0 142.0 113.0 142.0 113.0 C142.0 113.0 142.0 113.0 142.0 113.0 C142.0 113.0 142.0 113.0 142.0 113.0 C142.0 113.0 142.0 113.0 142.0 113.0 C142.0 113.0 142.0 113.0 142.0 113.0 C142.0 113.0 142.0 113.0 142.0 113.0 C142.0 113.0 142.0 113.0 142.0 113.0 C142.0 113.0 142.0 113.0 142.0 113.0 C142.0 113.0 142.0 113.0 142.0 113.0 C142.0 113.0 142.0 113.0 142.0 113.0 C142.0 113.0 142.0 113.0 142.0 113.0 C142.0 113.0 142.0 113.0 142.0 113.0 C142.0 113.0 142.0 113.0 142.0 113.0 C142.0 113.0 142.0 113.0 142.0 113.0 C142.0 113.0 142.0 113.0 142.0 113.0 C142.0 113.0 142.0 113.0 142.0 113.0 C142.0 113.0 142.0 113.0 142.0 113.0 C142.0 113.0 142.0 113.0 142.0 113.0 C142.0 113.0 142.0 113.0 142.0 113.0 C142.0 113.0 142.0 113.0 142.0 113.0 C142.0 113.0 142.0 113.0 142.0 113.0 C142.0 113.0 142.0 113.0 142.0 113.0 C142.0 113.0 142.0 113.0 142.0 113.0 C142.0 113.0 142.0 113.0 142.0 113.0 C142.0 113.0 142.0 113.0 142.0 113.0"></path></svg>