<svg xmlns="http://www.w3.org/2000/svg" viewBox="0.0 0.0 200.0 200.0" height="200px" width="200px"><path fill="#ffffff" fill-opacity="1.0"  filling="0" d="M100.0 75.0 C98.0 75.0 96.0 73.0 96.0 71.0 C96.0 57.0 92.0 40.0 86.0 29.0 C85.0 28.0 85.0 27.0 85.0 26.0 C85.0 15.0 98.0 4.0 100.0 4.0 C103.0 4.0 115.0 15.0 115.0 26.0 C115.0 27.0 115.0 28.0 114.0 29.0 C108.0 40.0 104.0 57.0 104.0 71.0 C104.0 73.0 102.0 75.0 100.0 75.0 L100.0 75.0 Z"></path>
<path fill="#ffffff" fill-opacity="1.0"  filling="0" d="M100.0 75.0 C98.0 75.0 96.0 73.0 96.0 71.0 C96.0 57.0 92.0 40.0 86.0 29.0 C85.0 28.0 85.0 27.0 85.0 26.0 C85.0 15.0 98.0 4.0 100.0 4.0 C103.0 4.0 115.0 15.0 115.0 26.0 C115.0 27.0 115.0 28.0 114.0 29.0 C108.0 40.0 104.0 57.0 104.0 71.0 C104.0 73.0 102.0 75.0 100.0 75.0 L100.0 75.0 Z"></path>
<path fill="#ffffff" fill-opacity="1.0"  filling="0" d="M100.0 75.0 C98.0 75.0 96.0 73.0 96.0 71.0 C96.0 57.0 92.0 40.0 86.0 29.0 C85.0 28.0 85.0 27.0 85.0 26.0 C85.0 15.0 98.0 4.0 100.0 4.0 C103.0 4.0 115.0 15.0 115.0 26.0 C115.0 27.0 115.0 28.0 114.0 29.0 C108.0 40.0 104.0 57.0 104.0 71.0 C104.0 73.0 102.0 75.0 100.0 75.0 L100.0 75.0 Z"></path>
<path fill="#225544" fill-opacity="1.0"  filling="0" d="M100.0 71.0 C100.0 71.0 90.0 45.0 60.0 45.0 C52.0 45.0 51.0 45.0 51.0 46.0 C50.0 47.0 52.0 48.0 57.0 51.0 C74.0 58.0 87.0 75.0 87.0 88.0 L100.0 71.0 L100.0 71.0 Z"></path>
<path fill="#225544" fill-opacity="1.0"  filling="0" d="M100.0 71.0 C100.0 71.0 90.0 45.0 60.0 45.0 C52.0 45.0 51.0 45.0 51.0 46.0 C50.0 47.0 52.0 48.0 57.0 51.0 C74.0 58.0 87.0 75.0 87.0 88.0 L100.0 71.0 L100.0 71.0 Z"></path>
<path fill="#225544" fill-opacity="1.0"  filling="0" d="M100.0 71.0 C100.0 71.0 110.0 45.0 143.0 45.0 C148.0 45.0 149.0 45.0 149.0 46.0 C150.0 47.0 148.0 48.0 143.0 51.0 C126.0 58.0 113.0 75.0 113.0 88.0 L100.0 71.0 L100.0 71.0 Z"></path>
<path fill="#225544" fill-opacity="1.0"  filling="0" d="M100.0 71.0 C100.0 71.0 110.0 45.0 143.0 45.0 C148.0 45.0 149.0 45.0 149.0 46.0 C150.0 47.0 148.0 48.0 143.0 51.0 C126.0 58.0 113.0 75.0 113.0 88.0 L100.0 71.0 L100.0 71.0 Z"></path>
<path fill="#ffbb44" fill-opacity="1.0"  filling="0" d="M100.0 72.0 C112.0 72.0 124.0 75.0 132.0 83.0 C142.0 92.0 148.0 106.0 148.0 123.0 C148.0 141.0 142.0 157.0 132.0 168.0 C124.0 177.0 112.0 181.0 100.0 181.0 C88.0 181.0 76.0 177.0 68.0 168.0 C58.0 157.0 52.0 141.0 52.0 123.0 C52.0 106.0 58.0 92.0 68.0 83.0 C76.0 75.0 88.0 72.0 100.0 72.0 L100.0 72.0 Z"></path>
<path fill="#ffcc55" fill-opacity="1.0"  filling="0" d="M100.0 85.0 C109.0 85.0 117.0 89.0 124.0 95.0 C131.0 102.0 135.0 112.0 135.0 123.0 C135.0 133.0 131.0 143.0 124.0 149.0 C117.0 157.0 109.0 161.0 100.0 161.0 C91.0 161.0 83.0 157.0 76.0 149.0 C69.0 143.0 65.0 133.0 65.0 123.0 C65.0 112.0 69.0 102.0 76.0 95.0 C83.0 89.0 91.0 85.0 100.0 85.0 L100.0 85.0 Z"></path>
<path fill="#dd8822" fill-opacity="1.0"  filling="0" d="M100.0 114.0 L114.0 127.0 L128.0 115.0 L148.0 132.0 L148.0 141.0 L128.0 125.0 L114.0 137.0 L100.0 125.0 L86.0 137.0 L72.0 125.0 L52.0 141.0 L52.0 132.0 L72.0 115.0 L86.0 127.0 L100.0 114.0 L100.0 114.0 Z"></path>
<path fill="#dd8822" fill-opacity="1.0"  filling="0" d="M100.0 98.0 L114.0 111.0 L128.0 98.0 L148.0 113.0 L148.0 121.0 L128.0 103.0 L114.0 117.0 L100.0 103.0 L86.0 117.0 L72.0 103.0 L52.0 121.0 L52.0 113.0 L72.0 98.0 L86.0 111.0 L100.0 98.0 L100.0 98.0 Z"></path>
<path fill="#dd8822" fill-opacity="1.0"  filling="0" d="M100.0 142.0 L114.0 154.0 L128.0 142.0 L148.0 156.0 L148.0 163.0 L128.0 148.0 L114.0 164.0 L100.0 152.0 L86.0 164.0 L72.0 148.0 L52.0 163.0 L52.0 156.0 L72.0 142.0 L86.0 154.0 L100.0 142.0 L100.0 142.0 Z"></path></svg>