<svg xmlns="http://www.w3.org/2000/svg" viewBox="0.0 0.0 200.0 200.0" height="200px" width="200px"><path fill="#33bb88" fill-opacity="1.0"  filling="0" d="M100.0 75.0 C100.0 75.0 94.0 19.0 100.0 13.0 C106.0 6.0 112.0 75.0 100.0 75.0 L100.0 75.0 Z M95.0 78.0 C95.0 78.0 65.0 46.0 51.0 45.0 C39.0 44.0 82.0 78.0 95.0 78.0 L95.0 78.0 Z M102.0 82.0 C102.0 82.0 127.0 58.0 147.0 48.0 C161.0 43.0 118.0 82.0 102.0 82.0 L102.0 82.0 Z M100.0 88.0 C100.0 88.0 89.0 128.0 86.0 133.0 C82.0 138.0 59.0 144.0 56.0 148.0 C52.0 152.0 60.0 172.0 75.0 178.0 C88.0 184.0 100.0 184.0 100.0 184.0 L100.0 88.0 L100.0 88.0 Z"></path>
<path fill="#33bb88" fill-opacity="1.0"  filling="0" d="M100.0 87.0 C100.0 87.0 111.0 129.0 114.0 133.0 C118.0 138.0 141.0 144.0 144.0 148.0 C148.0 152.0 140.0 172.0 125.0 178.0 C112.0 184.0 100.0 184.0 100.0 184.0 L100.0 87.0 L100.0 87.0 Z"></path>
<path fill="#ffbb44" fill-opacity="1.0"  filling="0" d="M148.0 121.0 C148.0 96.0 127.0 71.0 100.0 71.0 C73.0 71.0 52.0 96.0 52.0 121.0 C52.0 147.0 60.0 186.0 100.0 186.0 C140.0 186.0 148.0 147.0 148.0 121.0 L148.0 121.0 Z"></path>
<path fill="#dd7711" fill-opacity="1.0"  filling="0" d="M100.0 142.0 L86.0 154.0 L72.0 142.0 L55.0 156.0 C56.0 159.0 57.0 161.0 58.0 163.0 L72.0 152.0 L86.0 164.0 L100.0 152.0 L114.0 164.0 L128.0 152.0 L142.0 163.0 C143.0 161.0 144.0 159.0 145.0 156.0 L128.0 142.0 L114.0 154.0 L100.0 142.0 L100.0 142.0 Z M100.0 125.0 L86.0 137.0 L72.0 125.0 L52.0 141.0 C52.0 143.0 53.0 145.0 53.0 147.0 L72.0 142.0 L86.0 129.0 L100.0 115.0 L114.0 129.0 L128.0 142.0 L147.0 147.0 C147.0 145.0 148.0 143.0 148.0 141.0 L128.0 125.0 L114.0 137.0 L100.0 125.0 L100.0 125.0 Z M100.0 98.0 L86.0 111.0 L72.0 98.0 L53.0 114.0 A48.0 48.0 0.0 0 0 52.0 121.0 C52.0 121.0 52.0 121.0 52.0 121.0 L72.0 115.0 L86.0 100.0 L100.0 86.0 L114.0 100.0 L128.0 115.0 L148.0 121.0 C148.0 121.0 148.0 121.0 148.0 121.0 C148.0 118.0 148.0 116.0 147.0 114.0 L128.0 98.0 L114.0 111.0 L100.0 98.0 L100.0 98.0 Z"></path></svg>