<svg xmlns="http://www.w3.org/2000/svg" viewBox="0.0 0.0 200.0 200.0" height="200px" width="200px"><path fill="#000000" fill-opacity="1.0"  filling="0" d="M100.0 75.0 C100.0 75.0 100.0 0.0 64.0 26.0 C64.0 26.0 57.0 57.0 100.0 72.0 L100.0 75.0 L100.0 75.0 Z M100.0 128.0 C100.0 128.0 100.0 199.0 136.0 174.0 C136.0 174.0 143.0 143.0 100.0 128.0 L100.0 128.0 Z M100.0 128.0 C100.0 128.0 100.0 0.0 136.0 26.0 C136.0 26.0 143.0 57.0 100.0 72.0 L100.0 128.0 L100.0 128.0 Z M100.0 128.0 C100.0 128.0 100.0 0.0 136.0 26.0 C136.0 26.0 143.0 57.0 100.0 72.0 L100.0 128.0 L100.0 128.0 Z M100.0 128.0 C100.0 128.0 100.0 0.0 136.0 26.0 C136.0 26.0 143.0 57.0 100.0 72.0 L100.0 128.0 L100.0 128.0 Z M100.0 128.0 C100.0 128.0 100.0 0.0 136.0 26.0 C136.0 26.0 143.0 57.0 100.0 72.0 L100.0 128.0 L100.0 128.0 Z M100.0 72.0 L100.0 75.0 C100.0 75.0 100.0 0.0 136.0 26.0 C136.0 26.0 143.0 57.0 100.0 72.0 L100.0 72.0 Z M100.0 128.0 C100.0 128.0 100.0 0.0 136.0 26.0 C136.0 26.0 143.0 57.0 100.0 72.0 L100.0 128.0 L100.0 128.0 Z M100.0 72.0 L100.0 75.0 C100.0 75.0 100.0 0.0 136.0 26.0 C136.0 26.0 143.0 57.0 100.0 72.0 L100.0 72.0 Z M100.0 72.0 L100.0 75.0 C100.0 75.0 100.0 0.0 136.0 26.0 C136.0 26.0 143.0 57.0 100.0 72.0 L100.0 72.0 Z M100.0 72.0 L100.0 75.0 C100.0 75.0 100.0 0.0 136.0 26.0 C136.0 26.0 143.0 57.0 100.0 72.0 L100.0 72.0 Z M100.0 72.0 L100.0 75.0 C100.0 75.0 100.0 0.0 136.0 26.0 C136.0 26.0 143.0 57.0 100.0 72.0 L100.0 72.0 Z M100.0 72.0 L100.0 75.0 C100.0 75.0 100.0 0.0 136.0 26.0 C136.0 26.0 143.0 57.0 100.0 72.0 L100.0 72.0 Z M100.0 72.0 L100.0 75.0 C100.0 75.0 100.0 0.0 136.0 26.0 C136.0 26.0 143.0 57.0 100.0 72.0 L100.0 72.0 Z M100.0 72.0 L100.0 75.0 C100.0 75.0 100.0 0.0 136.0 26.0 C136.0 26.0 143.0 57.0 100.0 72.0 L100.0 72.0 Z M100.0 72.0 L100.0 75.0 C100.0 75.0 100.0 0.0 136.0 26.0 C136.0 26.0 143.0 57.0 100.0 72.0 L100.0 72.0 Z M100.0 72.0 L100.0 75.0 C100.0 75.0 100.0 0.0 136.0 26.0 C136.0 26.0 143.0 57.0 100.0 72.0 L100.0 72.0 Z M100.0 72.0 L100.0 75.0 C100.0 75.0 100.0 0.0 136.0 26.0 C136.0 26.0 143.0 57.0 100.0 72.0 L100.0 72.0 Z M100.0 72.0 L100.0 75.0 C100.0 75.0 100.0 0.0 136.0 26.0 C136.0 26.0 143.0 57.0 100.0 72.0 L100.0 72.0 Z M100.0 72.0 L100.0 75.0 C100.0 75.0 100.0 0.0 136.0 26.0 C136.0 26.0 143.0 57.0 100.0 72.0 L100.0 72.0 Z M100.0 72.0 L100.0 75.0 C100.0 75.0 100.0 0.0 136.0 26.0 C136.0 26.0 143.0 57.0 100.0 72.0 L100.0 72.0 Z M100.0 72.0 L100.0 75.0 C100.0 75.0 100.0 0.0 136.0 26.0 C136.0 26.0 143.0 57.0 100.0 72.0 L100.0 72.0 Z M101.0 72.0 L101.0 75.0 C101.0 75.0 100.0 0.0 136.0 26.0 C136.0 26.0 143.0 57.0 101.0 72.0 L101.0 72.0 Z M101.0 72.0 L101.0 75.0 C101.0 75.0 100.0 0.0 136.0 26.0 C136.0 26.0 143.0 57.0 101.0 72.0 L101.0 72.0 Z M101.0 72.0 L101.0 75.0 C101.0 75.0 100.0 0.0 136.0 26.0 C136.0 26.0 143.0 57.0 101.0 72.0 L101.0 72.0 Z M101.0 72.0 L101.0 75.0 C101.0 75.0 100.0 0.0 136.0 26.0 C136.0 26.0 143.0 57.0 101.0 72.0 L101.0 72.0 Z M101.0 72.0 L101.0 75.0 C101.0 75.0 100.0 0.0 136.0 26.0 C136.0 26.0 143.0 57.0 101.0 72.0 L101.0 72.0 Z M101.0 72.0 L101.0 75.0 C101.0 75.0 100.0 0.0 136.0 26.0 C136.0 26.0 143.0 57.0 101.0 72.0 L101.0 72.0 Z M101.0 72.0 L101.0 75.0 C101.0 75.0 100.0 0.0 136.0 26.0 C136.0 26.0 143.0 57.0 101.0 72.0 L101.0 72.0 Z M101.0 72.0 L101.0 75.0 C101.0 75.0 100.0 0.0 136.0 26.0 C136.0 26.0 143.0 57.0 101.0 72.0 L101.0 72.0 Z M101.0 72.0 L101.0 75.0 C101.0 75.0 100.0 0.0 136.0 26.0 C136.0 26.0 143.0 57.0 101.0 72.0 L101.0 72.0 Z M101.0 72.0 L101.0 75.0 C101.0 75.0 100.0 0.0 136.0 26.0 C136.0 26.0 143.0 57.0 101.0 72.0 L101.0 72.0 Z M101.0 72.0 L101.0 75.0 C101.0 75.0 100.0 0.0 136.0 26.0 C136.0 26.0 143.0 57.0 101.0 72.0 L101.0 72.0 Z M101.0 72.0 L101.0 75.0 C101.0 75.0 100.0 0.0 136.0 26.0 C136.0 26.0 143.0 57.0 101.0 72.0 L101.0 72.0 Z M101.0 72.0 L101.0 75.0 C101.0 75.0 100.0 0.0 136.0 26.0 C136.0 26.0 143.0 57.0 101.0 72.0 L101.0 72.0 Z M101.0 72.0 L101.0 75.0 C101.0 75.0 100.0 0.0 136.0 26.0 C136.0 26.0 143.0 57.0 101.0 72.0 L101.0 72.0 Z M101.0 72.0 L101.0 75.0 C101.0 75.0 100.0 0.0 136.0 26.0 C136.0 26.0 143.0 57.0 101.0 72.0 L101.0 72.0 Z M101.0 72.0 L101.0 75.0 C101.0 75.0 100.0 0.0 136.0 26.0 C136.0 26.0 143.0 57.0 101.0 72.0 L101.0 72.0 Z M101.0 72.0 L101.0 75.0 C101.0 75.0 100.0 0.0 136.0 26.0 C136.0 26.0 143.0 57.0 101.0 72.0 L101.0 72.0 Z M101.0 72.0 L101.0 75.0 C101.0 75.0 100.0 0.0 136.0 26.0 C136.0 26.0 143.0 57.0 101.0 72.0 L101.0 72.0 Z M101.0 72.0 L101.0 75.0 C101.0 75.0 100.0 0.0 136.0 26.0 C136.0 26.0 143.0 57.0 101.0 72.0 L101.0 72.0 Z M101.0 72.0 L101.0 75.0 C101.0 75.0 100.0 0.0 136.0 26.0 C136.0 26.0 143.0 57.0 101.0 72.0 L101.0 72.0 Z M101.0 72.0 L101.0 75.0 C101.0 75.0 100.0 0.0 136.0 26.0 C136.0 26.0 143.0 57.0 101.0 72.0 L101.0 72.0 Z M101.0 72.0 L101.0 75.0 C101.0 75.0 100.0 0.0 136.0 26.0 C136.0 26.0 143.0 57.0 101.0 72.0 L101.0 72.0 Z M101.0 72.0 L101.0 75.0 C101.0 75.0 100.0 0.0 136.0 26.0 C136.0 26.0 143.0 57.0 101.0 72.0 L101.0 72.0 Z M101.0 72.0 L101.0 75.0 C101.0 75.0 100.0 0.0 136.0 26.0 C136.0 26.0 143.0 57.0 101.0 72.0 L101.0 72.0 Z M101.0 72.0 L101.0 75.0 C101.0 75.0 100.0 0.0 136.0 26.0 C136.0 26.0 143.0 57.0 101.0 72.0 L101.0 72.0 Z M101.0 72.0 L101.0 75.0 C101.0 75.0 100.0 0.0 136.0 26.0 C136.0 26.0 143.0 57.0 101.0 72.0 L101.0 72.0 Z M101.0 72.0 L101.0 75.0 C101.0 75.0 100.0 0.0 136.0 26.0 C136.0 26.0 143.0 57.0 101.0 72.0 L101.0 72.0 Z M101.0 72.0 L101.0 75.0 C101.0 75.0 100.0 0.0 136.0 26.0 C136.0 26.0 143.0 57.0 101.0 72.0 L101.0 72.0 Z M101.0 72.0 L101.0 75.0 C101.0 75.0 100.0 0.0 136.0 26.0 C136.0 26.0 143.0 57.0 101.0 72.0 L101.0 72.0 Z M101.0 72.0 L101.0 75.0 C101.0 75.0 100.0 0.0 136.0 26.0 C136.0 26.0 143.0 57.0 101.0 72.0 L101.0 72.0 Z M101.0 72.0 L101.0 75.0 C101.0 75.0 100.0 0.0 136.0 26.0 C136.0 26.0 143.0 57.0 101.0 72.0 L101.0 72.0 Z M101.0 72.0 L101.0 75.0 C101.0 75.0 100.0 0.0 136.0 26.0 C136.0 26.0 143.0 57.0 101.0 72.0 L101.0 72.0 Z M101.0 72.0 L101.0 75.0 C101.0 75.0 100.0 0.0 136.0 26.0 C136.0 26.0 143.0 57.0 101.0 72.0 L101.0 72.0 Z M101.0 72.0 L101.0 75.0 C101.0 75.0 100.0 0.0 136.0 26.0 C136.0 26.0 143.0 57.0 101.0 72.0 L101.0 72.0 Z M101.0 72.0 L101.0 75.0 C101.0 75.0 100.0 0.0 136.0 26.0 C136.0 26.0 143.0 57.0 101.0 72.0 L101.0 72.0 Z M101.0 72.0 L101.0 75.0 C101.0 75.0 100.0 0.0 136.0 26.0 C136.0 26.0 143.0 57.0 101.0 72.0 L101.0 72.0 Z M101.0 72.0 L101.0 75.0 C101.0 75.0 100.0 0.0 136.0 26.0 C136.0 26.0 143.0 57.0 101.0 72.0 L101.0 72.0 Z M101.0 72.0 L101.0 75.0 C101.0 75.0 100.0 0.0 136.0 26.0 C136.0 26.0 143.0 57.0 101.0 72.0 L101.0 72.0 Z M101.0 72.0 L101.0 75.0 C101.0 75.0 100.0 0.0 136.0 26.0 C136.0 26.0 143.0 57.0 101.0 72.0 L101.0 72.0 Z M101.0 72.0 L101.0 75.0 C101.0 75.0 100.0 0.0 136.0 26.0 C136.0 26.0 143.0 57.0 101.0 72.0 L101.0 72.0 Z M101.0 72.0 L101.0 75.0 C101.0 75.0 100.0 0.0 136.0 26.0 C136.0 26.0 143.0 57.0 101.0 72.0 L101.0 72.0 Z M101.0 72.0 L101.0 75.0 C101.0 75.0 100.0 0.0 136.0 26.0 C136.0 26.0 143.0 57.0 101.0 72.0 L101.0 72.0 Z M101.0 72.0 L101.0 75.0 C101.0 75.0 100.0 0.0 136.0 26.0 C136.0 26.0 143.0 57.0 101.0 72.0 L101.0 72.0 Z M101.0 72.0 L101.0 75.0 C101.0 75.0 100.0 0.0 136.0 26.0 C136.0 26.0 143.0 57.0 101.0 72.0 L101.0 72.0 Z M101.0 72.0 L101.0 75.0 C101.0 75.0 100.0 0.0 136.0 26.0 C136.0 26.0 143.0 57.0 101.0 72.0 L101.0 72.0 Z M101.0 72.0 L101.0 75.0 C101.0 75.0 100.0 0.0 136.0 26.0 C136.0 26.0 143.0 57.0 101.0 72.0 L101.0 72.0 Z M101.0 72.0 L101.0 75.0 C101.0 75.0 100.0 0.0 136.0 26.0 C136.0 26.0 143.0 57.0 101.0 72.0 L101.0 72.0 Z M101.0 72.0 L101.0 75.0 C101.0 75.0 100.0 0.0 136.0 26.0 C136.0 26.0 143.0 57.0 101.0 72.0 L101.0 72.0 Z"></path></svg>