<svg xmlns="http://www.w3.org/2000/svg" viewBox="0.0 0.0 200.0 200.0" height="200px" width="200px"><path fill="#33bb88" fill-opacity="1.0"  filling="0" d="M100.0 75.0 C100.0 75.0 94.0 19.0 100.0 13.0 C106.0 6.0 112.0 75.0 100.0 75.0 L100.0 75.0 Z M95.0 78.0 C95.0 78.0 65.0 46.0 51.0 45.0 C39.0 44.0 82.0 78.0 95.0 78.0 L95.0 78.0 Z M105.0 78.0 C105.0 78.0 135.0 46.0 149.0 45.0 C161.0 44.0 118.0 78.0 105.0 78.0 L105.0 78.0 Z M100.0 81.0 C100.0 81.0 88.0 29.0 65.0 25.0 C47.0 22.0 89.0 75.0 100.0 75.0 C111.0 75.0 153.0 22.0 135.0 25.0 C112.0 29.0 100.0 81.0 100.0 81.0 L100.0 81.0 Z"></path>
<path fill="#ffbb44" fill-opacity="1.0"  filling="0" d="M100.0 73.0 C128.0 73.0 150.0 94.0 148.0 125.0 C147.0 156.0 134.0 186.0 100.0 186.0 C66.0 186.0 53.0 156.0 52.0 125.0 C50.0 94.0 72.0 73.0 100.0 73.0 L100.0 73.0 Z"></path>
<path fill="#dd7711" fill-opacity="1.0"  filling="0" d="M100.0 88.0 L114.0 101.0 L128.0 88.0 L145.0 102.0 A47.0 47.0 0.0 0 1 147.0 113.0 L128.0 98.0 L114.0 111.0 L100.0 98.0 L86.0 111.0 L72.0 98.0 L53.0 113.0 A47.0 47.0 0.0 0 1 55.0 102.0 L72.0 88.0 L86.0 101.0 L100.0 88.0 L100.0 88.0 Z M100.0 144.0 L114.0 154.0 L128.0 142.0 L145.0 156.0 A47.0 47.0 0.0 0 0 148.0 147.0 L128.0 125.0 L114.0 137.0 L100.0 125.0 L86.0 137.0 L72.0 125.0 L52.0 147.0 C53.0 149.0 54.0 153.0 55.0 156.0 L72.0 142.0 L86.0 154.0 L100.0 144.0 L100.0 144.0 Z"></path></svg>