<svg xmlns="http://www.w3.org/2000/svg" viewBox="0.0 0.0 200.0 200.0" height="200px" width="200px"><path fill="#000000" fill-opacity="1.0"  filling="0" d="M63.0 128.0 C63.0 128.0 62.0 128.0 62.0 128.0 A61.0 61.0 0.0 0 1 27.0 83.0 C27.0 53.0 47.0 27.0 74.0 21.0 C80.0 20.0 86.0 20.0 92.0 20.0 L92.0 20.0 C93.0 20.0 94.0 20.0 94.0 21.0 C94.0 22.0 94.0 23.0 94.0 24.0 C87.0 35.0 78.0 43.0 72.0 53.0 C65.0 65.0 61.0 79.0 66.0 94.0 C66.0 95.0 65.0 96.0 64.0 96.0 C63.0 96.0 62.0 95.0 62.0 94.0 C57.0 80.0 61.0 64.0 69.0 51.0 C74.0 42.0 81.0 33.0 88.0 24.0 C84.0 24.0 79.0 24.0 75.0 25.0 C49.0 30.0 30.0 55.0 30.0 83.0 C30.0 102.0 38.0 122.0 58.0 137.0 C59.0 138.0 59.0 139.0 58.0 140.0 C58.0 140.0 57.0 141.0 57.0 141.0 C56.0 141.0 56.0 140.0 56.0 140.0 C35.0 126.0 27.0 104.0 27.0 83.0 C27.0 59.0 40.0 38.0 61.0 28.0 C46.0 39.0 36.0 58.0 36.0 81.0 C36.0 102.0 46.0 122.0 63.0 137.0 C64.0 137.0 64.0 138.0 64.0 139.0 C64.0 139.0 63.0 140.0 62.0 140.0 C62.0 140.0 61.0 140.0 61.0 139.0 C60.0 139.0 60.0 138.0 60.0 138.0 C60.0 137.0 60.0 137.0 61.0 137.0 C61.0 136.0 62.0 136.0 63.0 136.0 C63.0 136.0 64.0 136.0 64.0 137.0 C64.0 137.0 65.0 138.0 65.0 138.0 C65.0 139.0 64.0 139.0 64.0 140.0 C63.0 140.0 63.0 140.0 62.0 140.0 C62.0 140.0 61.0 140.0 61.0 139.0 C60.0 139.0 60.0 138.0 60.0 138.0 C60.0 137.0 60.0 137.0 61.0 137.0 C61.0 136.0 62.0 135.0 63.0 135.0 C63.0 135.0 64.0 136.0 64.0 136.0 C65.0 136.0 65.0 137.0 65.0 138.0 C65.0 138.0 65.0 139.0 64.0 139.0 C64.0 139.0 63.0 140.0 63.0 140.0 C62.0 141.0 61.0 141.0 60.0 140.0 C59.0 140.0 58.0 139.0 57.0 138.0 C57.0 137.0 56.0 136.0 56.0 135.0 C56.0 134.0 56.0 133.0 57.0 133.0 C58.0 133.0 59.0 134.0 59.0 135.0 C59.0 136.0 59.0 136.0 59.0 136.0 C58.0 136.0 58.0 136.0 58.0 136.0 C58.0 136.0 58.0 136.0 58.0 136.0 C58.0 136.0 58.0 136.0 58.0 136.0 C58.0 136.0 58.0 136.0 58.0 136.0 C58.0 136.0 58.0 136.0 58.0 136.0 C58.0 136.0 58.0 136.0 58.0 136.0 C58.0 136.0 58.0 136.0 58.0 136.0 C58.0 136.0 58.0 136.0 58.0 136.0 C58.0 136.0 58.0 136.0 58.0 136.0 C58.0 136.0 58.0 136.0 58.0 136.0 C58.0 136.0 58.0 136.0 58.0 136.0 C58.0 136.0 58.0 136.0 58.0 136.0 C58.0 136.0 58.0 136.0 58.0 136.0 C58.0 136.0 58.0 136.0 58.0 136.0 C58.0 136.0 58.0 136.0 58.0 136.0 C58.0 136.0 58.0 136.0 58.0 136.0 C58.0 136.0 58.0 136.0 58.0 136.0 C58.0 136.0 58.0 136.0 58.0 136.0 C58.0 136.0 58.0 136.0 58.0 136.0 C58.0 136.0 58.0 136.0 58.0 136.0 C58.0 136.0 58.0 136.0 58.0 136.0 C58.0 136.0 58.0 136.0 58.0 136.0 C58.0 136.0 58.0 136.0 58.0 136.0 C58.0 136.0 58.0 136.0 58.0 136.0 C58.0 136.0 58.0 136.0 58.0 136.0 C58.0 136.0 58.0 136.0 58.0 136.0 C58.0 136.0 58.0 136.0 58.0 136.0 C58.0 136.0 58.0 136.0 58.0 136.0 C58.0 136.0 58.0 136.0 58.0 136.0 C58.0 136.0 58.0 136.0 58.0 136.0 C58.0 136.0 58.0 136.0 58.0 136.0 C58.0 136.0 58.0 136.0 58.0 136.0 C58.0 136.0 58.0 136.0 58.0 136.0 C58.0 136.0 58.0 136.0 58.0 136.0 C58.0 136.0 58.0 136.0 58.0 136.0 C58.0 136.0 58.0 136.0 58.0 136.0 C58.0 136.0 58.0 136.0 58.0 136.0 C58.0 136.0 58.0 136.0 58.0 136.0 C58.0 136.0 58.0 136.0 58.0 136.0 C58.0 136.0 58.0 136.0 58.0 136.0 C58.0 136.0 58.0 136.0 58.0 136.0 C58.0 136.0 58.0 136.0 58.0 136.0 C58.0 136.0 58.0 136.0 58.0 136.0 C58.0 136.0 58.0 136.0 58.0 136.0 C58.0 136.0 58.0 136.0 58.0 136.0 C58.0 136.0 58.0 136.0 58.0 136.0 C58.0 136.0 58.0 136.0 58.0 136.0 C58.0 136.0 58.0 136.0 58.0 136.0 C58.0 136.0 58.0 136.0 58.0 136.0 C58.0 136.0 58.0 136.0 58.0 136.0 C58.0 136.0 58.0 136.0 58.0 136.0 C58.0 136.0 58.0 136.0 58.0 136.0 C58.0 136.0 58.0 136.0 58.0 136.0 C58.0 136.0 58.0 136.0 58.0 136.0 C58.0 136.0 58.0 136.0 58.0 136.0 C58.0 136.0 58.0 136.0 58.0 136.0 C58.0 136.0 58.0 136.0 58.0 136.0 C58.0 136.0 58.0 136.0 58.0 136.0 C58.0 136.0 58.0 136.0 58.0 136.0 C58.0 136.0 58.0 136.0 58.0 136.0 C58.0 136.0 58.0 136.0 58.0 136.0 C58.0 136.0 58.0 136.0 58.0 136.0 C58.0 136.0 58.0 136.0 58.0 136.0 C58.0 136.0 58.0 136.0 58.0 136.0 C58.0 136.0 58.0 136.0 58.0 136.0 C58.0 136.0 58.0 136.0 58.0 136.0 C58.0 136.0 58.0 136.0 58.0 136.0 C58.0 136.0 58.0 136.0 58.0 136.0 C58.0 136.0 58.0 136.0 58.0 136.0 C58.0 136.0 58.0 136.0 58.0 136.0 C58.0 136.0 58.0 136.0 58.0 136.0 C58.0 136.0 58.0 136.0 58.0 136.0 C58.0 136.0 58.0 136.0 58.0 136.0 C58.0 136.0 58.0 136.0 58.0 136.0 C58.0 136.0 58.0 136.0 58.0 136.0 C58.0 136.0 58.0 136.0 58.0 136.0 C58.0 136.0 58.0 136.0 58.0 136.0 C58.0 136.0 58.0 136.0 58.0 136.0 C58.0 136.0 58.0 136.0 58.0 136.0 C58.0 136.0 58.0 136.0 58.0 136.0 C58.0 136.0 58.0 136.0 58.0 136.0 C58.0 136.0 58.0 136.0 58.0 136.0 C58.0 136.0 58.0 136.0 58.0 136.0 C58.0 136.0 58.0 136.0 58.0 136.0 C58.0 136.0 58.0 136.0 58.0 136.0 C58.0 136.0 58.0 136.0 58.0 136.0 C58.0 136.0 58.0 136.0 58.0 136.0 C58.0 136.0 58.0 136.0 58.0 136.0 C58.0 136.0 58.0 136.0 58.0 136.0 C58.0 136.0 58.0 136.0 58.0 136.0 C58.0 136.0 58.0 136.0 58.0 136.0 C58.0 136.0 58.0 136.0 58.0 136.0 C58.0 136.0 58.0 136.0 58.0 136.0 C58.0 136.0 58.0 136.0 58.0 136.0 C58.0 136.0 58.0 136.0 58.0 136.0 C58.0 136.0 58.0 136.0 58.0 136.0 C58.0 136.0 58.0 136.0 58.0 136.0 C58.0 136.0 58.0 136.0 58.0 136.0 C58.0 136.0 58.0 136.0 58.0 136.0 C58.0 136.0 58.0 136.0 58.0 136.0 C58.0 136.0 58.0 136.0 58.0 136.0 C58.0 136.0 58.0 136.0 58.0 136.0 C58.0 136.0 58.0 136.0 58.0 136.0 C58.0 136.0 58.0 136.0 58.0 136.0 C58.0 136.0 58.0 136.0 58.0 136.0 C58.0 136.0 58.0 136.0 58.0 136.0 C58.0 136.0 58.0 136.0 58.0 136.0 C58.0 136.0 58.0 136.0 58.0 136.0 C58.0 136.0 58.0 136.0 58.0 136.0 C58.0 136.0 58.0 136.0 58.0 136.0 C58.0 136.0 58.0 136.0 58.0 136.0 C58.0 136.0 58.0 136.0 58.0 136.0 C58.0 136.0 58.0 136.0 58.0 136.0 C58.0 136.0 58.0 136.0 58.0 136.0 C58.0 136.0 58.0 136.0 58.0 136.0 C58.0 136.0 58.0 136.0 58.0 136.0 C58.0 136.0 58.0 136.0 58.0 136.0 C58.0 136.0 58.0 136.0 58.0 136.0 C58.0 136.0 58.0 136.0 58.0 136.0 C58.0 136.0 58.0 136.0 58.0 136.0 C58.0 136.0 58.0 136.0 58.0 136.0 C58.0 136.0 58.0 136.0 58.0 136.0 C58.0 136.0 58.0 136.0 58.0 136.0 C58.0 136.0 58.0 136.0 58.0 136.0 C58.0 136.0 58.0 136.0 58.0 136.0 C58.0 136.0 58.0 136.0 58.0 136.0 C58.0 136.0 58.0 136.0 58.0 136.0 C58.0 136.0 58.0 136.0 58.0 136.0 C58.0 136.0 58.0 136.0 58.0 136.0 C58.0 136.0 58.0 136.0 58.0 136.0 C58.0 136.0 58.0 136.0 58.0 136.0 C58.0 136.0 58.0 136.0 58.0 136.0 C58.0 136.0 58.0 136.0 58.0 136.0 C58.0 136.0 58.0 136.0 58.0 136.0 C58.0 136.0 58.0 136.0 58.0 136.0 C58.0 136.0 58.0 136.0 58.0 136.0 C58.0 136.0 58.0 136.0 58.0 136.0 C58.0 136.0 58.0 136.0 58.0 136.0 C58.0 136.0 58.0 136.0 58.0 136.0 C58.0 136.0 58.0 136.0 58.0 136.0 C58.0 136.0 58.0 136.0 58.0 136.0 C58.0 136.0 58.0 136.0 58.0 136.0 C58.0 136.0 58.0 136.0 58.0 136.0 C58.0 136.0 58.0 136.0 58.0 136.0 C58.0 136.0 58.0 136.0 58.0 136.0 C58.0 136.0 58.0 136.0 58.0 136.0 C58.0 136.0 58.0 136.0 58.0 136.0 C58.0 136.0 58.0 136.0 58.0 136.0 C58.0 136.0 58.0 136.0 58.0 136.0 C58.0 136.0 58.0 136.0 58.0 136.0 C58.0 136.0 58.0 136.0 58.0 136.0 C58.0 136.0 58.0 136.0 58.0 136.0 C58.0 136.0 58.0 136.0 58.0 136.0 C58.0 136.0 58.0 136.0 58.0 136.0 C58.0 136.0 58.0 136.0 58.0 136.0 C58.0 136.0 58.0 136.0 58.0 136.0 C58.0 136.0 58.0 136.0 58.0 136.0 C58.0 136.0 58.0 136.0 58.0 136.0 C58.0 136.0 58.0 136.0 58.0 136.0 C58.0 136.0 58.0 136.0 58.0 136.0 C58.0 136.0 58.0 136.0 58.0 136.0 C58.0 136.0 58.0 136.0 58.0 136.0 C58.0 136.0 58.0 136.0 58.0 136.0 C58.0 136.0 58.0 136.0 58.0 136.0 C58.0 136.0 58.0 136.0 58.0 136.0 C58.0 136.0 58.0 136.0 58.0 136.0 C58.0 136.0 58.0 136.0 58.0 136.0 C58.0 136.0 58.0 136.0 58.0 136.0 C58.0 136.0 58.0 136.0 58.0 136.0 C58.0 136.0 58.0 136.0 58.0 136.0 C58.0 136.0 58.0 136.0 58.0 136.0 C58.0 136.0 58.0 136.0 58.0 136.0 C58.0 136.0 58.0 136.0 58.0 136.0 C58.0 136.0 58.0 136.0 58.0 136.0 C58.0 136.0 58.0 136.0 58.0 136.0 C58.0 136.0 58.0 136.0 58.0 136.0 C58.0 136.0 58.0 136.0 58.0 136.0 C58.0 136.0 58.0 136.0 58.0 136.0 C58.0 136.0 64.0 142.0 64.0 143.0 C64.0 145.0 63.0 146.0 63.0 148.0 C63.0 150.0 63.0 153.0 63.0 156.0 C63.0 162.0 63.0 167.0 63.0 173.0 C63.0 173.0 63.0 173.0 63.0 173.0 C63.0 173.0 63.0 173.0 63.0 173.0 C63.0 173.0 63.0 173.0 63.0 173.0 C63.0 173.0 63.0 173.0 63.0 173.0 C63.0 173.0 63.0 173.0 63.0 173.0 C63.0 173.0 63.0 173.0 63.0 173.0 C63.0 173.0 63.0 173.0 63.0 173.0 C63.0 173.0 63.0 173.0 63.0 173.0 C63.0 173.0 63.0 173.0 63.0 173.0 C63.0 173.0 63.0 173.0 63.0 173.0 C63.0 173.0 63.0 173.0 63.0 173.0 C63.0 173.0 63.0 173.0 63.0 173.0 C63.0 173.0 63.0 173.0 63.0 173.0 C63.0 173.0 63.0 173.0 63.0 173.0 C63.0 173.0 63.0 173.0 63.0 173.0 C63.0 173.0 63.0 173.0 63.0 173.0 C63.0 173.0 63.0 173.0 63.0 173.0 C63.0 173.0 63.0 173.0 63.0 173.0 C63.0 173.0 63.0 173.0 63.0 173.0 C63.0 173.0 63.0 173.0 63.0 173.0 C63.0 173.0 63.0 173.0 63.0 173.0 C63.0 173.0 63.0 173.0 63.0 173.0 C63.0 173.0 63.0 173.0 63.0 173.0 C63.0 173.0 63.0 173.0 63.0 173.0 C63.0 173.0 63.0 173.0 63.0 173.0 C63.0 173.0 63.0 173.0 63.0 173.0 C63.0 173.0 63.0 173.0 63.0 173.0 C63.0 173.0 63.0 173.0 63.0 173.0 C63.0 173.0 63.0 173.0 63.0 173.0 C63.0 173.0 63.0 173.0 63.0 173.0 C63.0 173.0 63.0 173.0 63.0 173.0 C63.0 173.0 63.0 173.0 63.0 173.0 C63.0 173.0 63.0 173.0 63.0 173.0 C63.0 173.0 63.0 173.0 63.0 173.0 C63.0 173.0 63.0 173.0 63.0 173.0 C63.0 173.0 63.0 173.0 63.0 173.0 C63.0 173.0 63.0 173.0 63.0 173.0 C63.0 173.0 63.0 173.0 63.0 173.0 C63.0 173.0 63.0 173.0 63.0 173.0 C63.0 173.0 63.0 173.0 63.0 173.0 C63.0 173.0 63.0 173.0 63.0 173.0 C63.0 173.0 63.0 173.0 63.0 173.0 C63.0 173.0 63.0 173.0 63.0 173.0 C63.0 173.0 63.0 173.0 63.0 173.0 C63.0 173.0 63.0 173.0 63.0 173.0 C63.0 173.0 63.0 173.0 63.0 173.0 C63.0 173.0 63.0 173.0 63.0 173.0 C63.0 173.0 63.0 173.0 63.0 173.0 C63.0 173.0 63.0 173.0 63.0 173.0 C63.0 173.0 63.0 173.0 63.0 173.0 C63.0 173.0 63.0 173.0 63.0 173.0 C63.0 173.0 63.0 173.0 63.0 173.0 C63.0 173.0 63.0 173.0 63.0 173.0 C63.0 173.0 63.0 173.0 63.0 173.0 C63.0 173.0 63.0 173.0 63.0 173.0 C63.0 173.0 63.0 173.0 63.0 173.0 C63.0 173.0 63.0 173.0 63.0 173.0 C63.0 173.0 63.0 173.0 63.0 173.0 C63.0 173.0 63.0 173.0 63.0 173.0 C63.0 173.0 63.0 173.0 63.0 173.0 C63.0 173.0 63.0 173.0 63.0 173.0 C63.0 173.0 63.0 173.0 63.0 173.0 C63.0 173.0 63.0 173.0 63.0 173.0 C63.0 173.0 63.0 173.0 63.0 173.0 C63.0 173.0 63.0 173.0 63.0 173.0 C63.0 173.0 63.0 173.0 63.0 173.0 C63.0 173.0 63.0 173.0 63.0 173.0 C63.0 173.0 63.0 173.0 63.0 173.0 C63.0 173.0 63.0 173.0 63.0 173.0 C63.0 173.0 63.0 173.0 63.0 173.0 C63.0 173.0 63.0 173.0 63.0 173.0 C63.0 173.0 63.0 173.0 63.0 173.0 C63.0 173.0 63.0 173.0 63.0 173.0 C63.0 173.0 63.0 173.0 63.0 173.0 C63.0 173.0 63.0 173.0 63.0 173.0 C63.0 173.0 63.0 173.0 63.0 173.0 C63.0 173.0 63.0 173.0 63.0 173.0 C63.0 173.0 63.0 173.0 63.0 173.0 C63.0 173.0 63.0 173.0 63.0 173.0 C63.0 173.0 63.0 173.0 63.0 173.0 C63.0 173.0 63.0 173.0 63.0 173.0 C63.0 173.0 63.0 173.0 63.0 173.0 C63.0 173.0 63.0 173.0 63.0 173.0 C63.0 173.0 63.0 173.0 63.0 173.0 C63.0 173.0 63.0 173.0 63.0 173.0 C63.0 173.0 63.0 173.0 63.0 173.0 C63.0 173.0 63.0 173.0 63.0 173.0 C63.0 173.0 63.0 173.0 63.0 173.0 C63.0 173.0 63.0 173.0 63.0 173.0 C63.0 173.0 63.0 173.0 63.0 173.0 C63.0 173.0 63.0 173.0 63.0 173.0 C63.0 173.0 63.0 173.0 63.0 173.0 C63.0 173.0 63.0 173.0 63.0 173.0 C63.0 173.0 63.0 173.0 63.0 173.0 C63.0 173.0 63.0 173.0 63.0 173.0 C63.0 173.0 63.0 173.0 63.0 173.0 C63.0 173.0 63.0 173.0 63.0 173.0 C63.0 173.0 63.0 173.0 63.0 173.0 C63.0 173.0 63.0 173.0 63.0 173.0 C63.0 173.0 63.0 173.0 63.0 173.0 C63.0 173.0 63.0 173.0 63.0 173.0 C63.0 173.0 63.0 173.0 63.0 173.0 C63.0 173.0 63.0 173.0 63.0 173.0 C63.0 173.0 63.0 173.0 63.0 173.0 C63.0 173.0 63.0 173.0 63.0 173.0 C63.0 173.0 63.0 173.0 63.0 173.0 C63.0 173.0 63.0 173.0 63.0 173.0 C63.0 173.0 63.0 173.0 63.0 173.0 C63.0 173.0 63.0 173.0 63.0 173.0 C63.0 173.0 63.0 173.0 63.0 173.0 C63.0 173.0 63.0 173.0 63.0 173.0 C63.0 173.0 63.0 173.0 63.0 173.0 C63.0 173.0 63.0 173.0 63.0 173.0 C63.0 173.0 63.0 173.0 63.0 173.0 C63.0 173.0 63.0 173.0 63.0 173.0 C63.0 173.0 63.0 173.0 63.0 173.0 C63.0 173.0 63.0 173.0 63.0 173.0 C63.0 173.0 63.0 173.0 63.0 173.0 C63.0 173.0 63.0 173.0 63.0 173.0 C63.0 173.0 63.0 173.0 63.0 173.0 C63.0 173.0 63.0 173.0 63.0 173.0 C63.0 173.0 63.0 173.0 63.0 173.0 C63.0 177.0 63.0 177.0 63.0 177.0 C63.0 177.0 63.0 177.0 63.0 177.0 C63.0 177.0 63.0 177.0 63.0 177.0 C63.0 177.0 63.0 177.0 63.0 177.0 C63.0 177.0 63.0 177.0 63.0 177.0 C63.0 177.0 63.0 177.0 63.0 177.0 C63.0 177.0 63.0 177.0 63.0 177.0 C63.0 177.0 63.0 177.0 63.0 177.0 C63.0 177.0 63.0 177.0 63.0 177.0 C63.0 177.0 63.0 177.0 63.0 177.0 C63.0 177.0 63.0 177.0 63.0 177.0 C63.0 177.0 63.0 177.0 63.0 177.0 C63.0 177.0 63.0 177.0 63.0 177.0 C63.0 177.0 63.0 177.0 63.0 177.0 C63.0 177.0 63.0 177.0 63.0 177.0 C63.0 177.0 63.0 177.0 63.0 177.0 C63.0 177.0 63.0 177.0 63.0 177.0 C63.0 177.0 63.0 177.0 63.0 177.0 C63.0 177.0 63.0 177.0 63.0 177.0 C63.0 177.0 63.0 177.0 63.0 177.0 C63.0 177.0 63.0 177.0 63.0 177.0 C63.0 177.0 63.0 177.0 63.0 177.0 C63.0 177.0 63.0 177.0 63.0 177.0 C63.0 177.0 63.0 177.0 63.0 177.0 C63.0 177.0 63.0 177.0 63.0 177.0 C63.0 177.0 63.0 177.0 63.0 177.0 C63.0 177.0 63.0 177.0 63.0 177.0 C63.0 177.0 63.0 177.0 63.0 177.0 C63.0 177.0 63.0 177.0 63.0 177.0 C63.0 177.0 63.0 177.0 63.0 177.0 C63.0 177.0 63.0 177.0 63.0 177.0"></path></svg>