<svg xmlns="http://www.w3.org/2000/svg" viewBox="0.0 0.0 200.0 200.0" height="200px" width="200px"><path fill="#000000" fill-opacity="1.0"  filling="0" d="M63.0 178.0 C62.0 178.0 62.0 178.0 61.0 178.0 A2.0 2.0 0.0 0 1 61.0 176.0 C61.0 173.0 61.0 170.0 61.0 166.0 C61.0 164.0 61.0 162.0 61.0 160.0 C61.0 155.0 60.0 149.0 62.0 142.0 C64.0 136.0 69.0 131.0 75.0 125.0 A2.0 2.0 0.0 0 1 78.0 128.0 C72.0 134.0 67.0 138.0 65.0 144.0 C63.0 149.0 64.0 154.0 64.0 160.0 C64.0 162.0 65.0 164.0 65.0 166.0 C65.0 169.0 65.0 172.0 64.0 175.0 C68.0 174.0 72.0 171.0 76.0 168.0 C80.0 166.0 84.0 164.0 87.0 162.0 C90.0 160.0 93.0 157.0 95.0 154.0 C97.0 151.0 98.0 147.0 100.0 143.0 A2.0 2.0 0.0 0 1 104.0 144.0 C102.0 148.0 100.0 152.0 98.0 156.0 C96.0 160.0 93.0 163.0 90.0 165.0 C86.0 167.0 83.0 170.0 79.0 172.0 C74.0 175.0 69.0 178.0 63.0 178.0 L63.0 178.0 Z M76.0 159.0 A2.0 2.0 0.0 0 1 75.0 158.0 C69.0 151.0 72.0 140.0 82.0 132.0 A2.0 2.0 0.0 0 1 85.0 135.0 C77.0 142.0 74.0 151.0 77.0 155.0 C80.0 154.0 87.0 152.0 93.0 143.0 A43.0 43.0 0.0 0 0 95.0 140.0 A2.0 2.0 0.0 0 1 98.0 141.0 A46.0 46.0 0.0 0 1 96.0 145.0 C89.0 155.0 77.0 159.0 77.0 159.0 A2.0 2.0 0.0 0 1 76.0 159.0 L76.0 159.0 Z M57.0 140.0 A2.0 2.0 0.0 0 1 56.0 140.0 C37.0 130.0 26.0 108.0 26.0 84.0 C26.0 53.0 47.0 27.0 76.0 20.0 C80.0 19.0 84.0 19.0 88.0 19.0 C90.0 19.0 91.0 19.0 92.0 19.0 A2.0 2.0 0.0 0 1 93.0 22.0 C91.0 24.0 88.0 26.0 86.0 29.0 C75.0 36.0 67.0 47.0 64.0 61.0 C61.0 71.0 62.0 83.0 66.0 94.0 A2.0 2.0 0.0 0 1 62.0 95.0 C58.0 84.0 57.0 71.0 60.0 60.0 C63.0 46.0 71.0 34.0 82.0 25.0 C83.0 25.0 84.0 24.0 85.0 23.0 C83.0 23.0 80.0 24.0 77.0 24.0 C50.0 31.0 30.0 55.0 30.0 84.0 C30.0 106.0 40.0 127.0 58.0 137.0 A2.0 2.0 0.0 0 1 57.0 140.0 L57.0 140.0 Z M124.0 153.0 A3.0 3.0 0.0 0 1 121.0 152.0 C120.0 151.0 119.0 149.0 117.0 145.0 C115.0 144.0 114.0 141.0 113.0 138.0 C112.0 137.0 112.0 136.0 111.0 135.0 A199.0 199.0 0.0 0 1 99.0 126.0 C96.0 123.0 93.0 120.0 90.0 118.0 C87.0 117.0 85.0 115.0 84.0 114.0 C83.0 114.0 83.0 113.0 82.0 112.0 C82.0 112.0 82.0 112.0 82.0 112.0 C82.0 112.0 82.0 112.0 82.0 112.0 C82.0 112.0 82.0 112.0 82.0 112.0 C82.0 112.0 82.0 112.0 82.0 112.0 C82.0 112.0 82.0 112.0 82.0 112.0 C82.0 111.0 82.0 111.0 82.0 111.0 C82.0 111.0 82.0 111.0 82.0 111.0 C82.0 111.0 82.0 111.0 82.0 111.0 C82.0 111.0 82.0 111.0 82.0 111.0 C82.0 111.0 82.0 111.0 82.0 111.0 C82.0 111.0 82.0 111.0 82.0 111.0 C82.0 111.0 82.0 111.0 82.0 110.0 C82.0 110.0 82.0 110.0 82.0 110.0 C82.0 110.0 82.0 110.0 82.0 110.0 C82.0 110.0 82.0 110.0 82.0 110.0 C82.0 110.0 82.0 110.0 82.0 110.0 C82.0 110.0 82.0 110.0 82.0 110.0 C82.0 110.0 82.0 110.0 82.0 110.0 C82.0 110.0 82.0 110.0 82.0 110.0 C82.0 110.0 82.0 110.0 82.0 110.0 C82.0 109.0 82.0 109.0 82.0 109.0 C82.0 109.0 82.0 109.0 82.0 109.0 C82.0 109.0 82.0 109.0 82.0 109.0 C82.0 109.0 82.0 109.0 82.0 109.0 C82.0 109.0 83.0 109.0 83.0 109.0 C83.0 108.0 83.0 107.0 83.0 106.0 C85.0 102.0 86.0 99.0 87.0 95.0 C90.0 91.0 92.0 87.0 94.0 83.0 C95.0 82.0 96.0 81.0 96.0 80.0 C97.0 79.0 97.0 78.0 98.0 77.0 C99.0 76.0 99.0 75.0 100.0 74.0 C101.0 73.0 101.0 71.0 102.0 70.0 C103.0 69.0 103.0 67.0 104.0 66.0 C105.0 64.0 106.0 63.0 107.0 62.0 C108.0 60.0 109.0 59.0 110.0 57.0 C112.0 55.0 114.0 53.0 116.0 51.0 C117.0 50.0 118.0 49.0 119.0 48.0 C120.0 47.0 121.0 46.0 122.0 46.0 C123.0 45.0 124.0 44.0 126.0 43.0 C126.0 43.0 126.0 43.0 126.0 43.0 C126.0 43.0 126.0 43.0 126.0 43.0 C126.0 43.0 126.0 43.0 126.0 43.0 C126.0 43.0 126.0 43.0 126.0 43.0 C126.0 43.0 126.0 43.0 126.0 43.0 C126.0 43.0 126.0 43.0 126.0 43.0 C126.0 43.0 126.0 43.0 126.0 43.0 C126.0 43.0 126.0 43.0 126.0 43.0 C126.0 43.0 126.0 43.0 126.0 43.0 C126.0 43.0 126.0 43.0 126.0 43.0 C126.0 43.0 126.0 43.0 126.0 43.0 C126.0 43.0 126.0 43.0 126.0 43.0 C126.0 43.0 126.0 43.0 126.0 43.0 C126.0 43.0 126.0 43.0 126.0 43.0 C126.0 43.0 126.0 43.0 126.0 43.0 C126.0 43.0 126.0 43.0 126.0 43.0 C126.0 43.0 126.0 43.0 126.0 43.0 C126.0 43.0 126.0 43.0 126.0 43.0 C126.0 43.0 126.0 43.0 126.0 43.0 C126.0 43.0 126.0 43.0 126.0 43.0 C126.0 43.0 126.0 43.0 126.0 43.0 C126.0 43.0 126.0 43.0 126.0 43.0 C126.0 43.0 126.0 43.0 126.0 43.0 C126.0 43.0 126.0 43.0 126.0 43.0 C126.0 43.0 126.0 43.0 126.0 43.0 C126.0 43.0 126.0 43.0 126.0 43.0 C126.0 43.0 126.0 43.0 126.0 43.0 C126.0 43.0 126.0 43.0 126.0 43.0 C126.0 43.0 126.0 43.0 126.0 43.0 C126.0 43.0 126.0 43.0 126.0 43.0 C126.0 43.0 126.0 43.0 126.0 43.0 C126.0 43.0 126.0 43.0 126.0 43.0 C126.0 43.0 126.0 43.0 126.0 43.0 C126.0 43.0 126.0 43.0 126.0 43.0 C126.0 43.0 126.0 43.0 126.0 43.0 C126.0 43.0 126.0 43.0 126.0 43.0 C126.0 43.0 126.0 43.0 126.0 43.0 C126.0 43.0 126.0 43.0 126.0 43.0 C126.0 43.0 126.0 43.0 126.0 43.0 C126.0 43.0 126.0 43.0 126.0 43.0 C126.0 43.0 126.0 43.0 126.0 43.0 C126.0 43.0 126.0 43.0 126.0 43.0 C126.0 43.0 126.0 43.0 126.0 43.0 C126.0 43.0 126.0 43.0 126.0 43.0 C126.0 43.0 126.0 43.0 126.0 43.0 C126.0 43.0 126.0 43.0 126.0 43.0 C126.0 43.0 126.0 43.0 126.0 43.0 C126.0 43.0 126.0 43.0 126.0 43.0 C126.0 43.0 126.0 43.0 126.0 43.0 C126.0 43.0 126.0 43.0 126.0 43.0 C126.0 43.0 126.0 43.0 126.0 43.0 C126.0 43.0 126.0 43.0 126.0 43.0 C126.0 43.0 126.0 43.0 126.0 43.0 C126.0 43.0 126.0 43.0 126.0 43.0 C126.0 43.0 126.0 43.0 126.0 43.0 C126.0 43.0 126.0 43.0 126.0 43.0 C126.0 43.0 126.0 43.0 126.0 43.0 C126.0 43.0 126.0 43.0 126.0 43.0 C126.0 43.0 126.0 43.0 126.0 43.0 C126.0 43.0 126.0 43.0 126.0 43.0 C126.0 43.0 126.0 43.0 126.0 43.0 C126.0 43.0 126.0 43.0 126.0 43.0 C126.0 43.0 126.0 43.0 126.0 43.0 C126.0 43.0 126.0 43.0 126.0 43.0 C126.0 43.0 126.0 43.0 126.0 43.0 C126.0 43.0 126.0 43.0 126.0 43.0 C126.0 43.0 126.0 43.0 126.0 43.0 C126.0 43.0 126.0 43.0 126.0 43.0 C126.0 43.0 126.0 43.0 126.0 43.0 C126.0 43.0 126.0 43.0 126.0 43.0 C126.0 43.0 126.0 43.0 126.0 43.0 C126.0 43.0 126.0 43.0 126.0 43.0 C126.0 43.0 126.0 43.0 126.0 43.0 C126.0 43.0 126.0 43.0 126.0 43.0 C126.0 43.0 126.0 43.0 126.0 43.0 C126.0 43.0 126.0 43.0 126.0 43.0 C126.0 43.0 126.0 43.0 126.0 43.0 C126.0 43.0 126.0 43.0 126.0 43.0 C126.0 43.0 126.0 43.0 126.0 43.0 C126.0 43.0 126.0 43.0 126.0 43.0 C126.0 43.0 126.0 43.0 126.0 43.0 C126.0 43.0 126.0 43.0 126.0 43.0 C126.0 43.0 126.0 43.0 126.0 43.0 C126.0 43.0 126.0 43.0 126.0 43.0 C126.0 43.0 126.0 43.0 126.0 43.0 C126.0 43.0 126.0 43.0 126.0 43.0 C126.0 43.0 126.0 43.0 126.0 43.0 C126.0 43.0 126.0 43.0 126.0 43.0 C126.0 43.0 126.0 43.0 126.0 43.0 C126.0 43.0 126.0 43.0 126.0 43.0 C126.0 43.0 126.0 43.0 126.0 43.0 C126.0 43.0 126.0 43.0 126.0 43.0 C126.0 43.0 126.0 43.0 126.0 43.0 C126.0 43.0 126.0 43.0 126.0 43.0 C126.0 43.0 126.0 43.0 126.0 43.0 C126.0 43.0 126.0 43.0 126.0 43.0 C126.0 43.0 126.0 43.0 126.0 43.0 C126.0 43.0 126.0 43.0 126.0 43.0 C126.0 43.0 126.0 43.0 126.0 43.0 C126.0 43.0 126.0 43.0 126.0 43.0 C126.0 43.0 126.0 43.0 126.0 43.0 C126.0 43.0 126.0 43.0 126.0 43.0 C126.0 43.0 126.0 43.0 126.0 43.0 C126.0 43.0 126.0 43.0 126.0 43.0 C126.0 43.0 126.0 43.0 126.0 43.0 C126.0 43.0 126.0 43.0 126.0 43.0 C126.0 43.0 126.0 43.0 126.0 43.0 C126.0 43.0 126.0 43.0 126.0 43.0 C126.0 43.0 126.0 43.0 126.0 43.0 C126.0 43.0 126.0 43.0 126.0 43.0 C126.0 43.0 126.0 43.0 126.0 43.0 C126.0 43.0 126.0 43.0 126.0 43.0 C126.0 43.0 126.0 43.0 126.0 43.0 C126.0 43.0 126.0 43.0 126.0 43.0 C126.0 43.0 126.0 43.0 126.0 43.0 C126.0 43.0 126.0 43.0 126.0 43.0 C126.0 43.0 126.0 43.0 126.0 43.0 C126.0 43.0 126.0 43.0 126.0 43.0 C126.0 43.0 126.0 43.0 126.0 43.0 C126.0 43.0 126.0 43.0 126.0 43.0 C126.0 43.0 126.0 43.0 126.0 43.0 C126.0 43.0 126.0 43.0 126.0 43.0 C126.0 43.0 126.0 43.0 126.0 43.0 C126.0 43.0 126.0 43.0 126.0 43.0 C126.0 43.0 126.0 43.0 126.0 43.0 C126.0 43.0 126.0 43.0 126.0 43.0 C126.0 43.0 126.0 43.0 126.0 43.0 C126.0 43.0 126.0 43.0 126.0 43.0 C126.0 43.0 126.0 43.0 126.0 43.0 C126.0 43.0 126.0 43.0 126.0 43.0 C126.0 43.0 126.0 43.0 126.0 43.0 C126.0 43.0 126.0 43.0 126.0 43.0 C126.0 43.0 126.0 43.0 126.0 43.0 C126.0 43.0 126.0 43.0 126.0 43.0 C126.0 43.0 126.0 43.0 126.0 43.0 C126.0 43.0 126.0 43.0 126.0 43.0 C126.0 43.0 126.0 43.0 126.0 43.0 C126.0 43.0 126.0 43.0 126.0 43.0 C126.0 43.0 126.0 43.0 126.0 43.0 C126.0 43.0 126.0 43.0 126.0 43.0 C126.0 43.0 126.0 43.0 126.0 43.0 C126.0 43.0 126.0 43.0 126.0 43.0 C126.0 43.0 126.0 43.0 126.0 43.0 C126.0 43.0 126.0 43.0 126.0 43.0 C126.0 43.0 126.0 43.0 126.0 43.0 C126.0 43.0 126.0 43.0 126.0 43.0 C126.0 43.0 126.0 43.0 126.0 43.0 C126.0 43.0 126.0 43.0 126.0 43.0 C126.0 43.0 126.0 43.0 126.0 43.0 C126.0 43.0 126.0 43.0 126.0 43.0 C126.0 43.0 126.0 43.0 126.0 43.0 C126.0 43.0 126.0 43.0 126.0 43.0 C126.0 43.0 126.0 43.0 126.0 43.0 C126.0 43.0 126.0 43.0 126.0 43.0 C126.0 43.0 126.0 43.0 126.0 43.0 C126.0 43.0 126.0 43.0 126.0 43.0 C126.0 43.0 126.0 43.0 126.0 43.0 C126.0 43.0 126.0 43.0 126.0 43.0 C126.0 43.0 126.0 43.0 126.0 43.0 C126.0 43.0 126.0 43.0 126.0 43.0 C126.0 43.0 126.0 43.0 126.0 43.0 C126.0 43.0 126.0 43.0 126.0 43.0 C126.0 43.0 126.0 43.0 126.0 43.0 C126.0 43.0 126.0 43.0 126.0 43.0 C126.0 43.0 126.0 43.0 126.0 43.0 C126.0 43.0 126.0 43.0 126.0 43.0 C126.0 43.0 126.0 43.0 126.0 43.0 C126.0 43.0 126.0 43.0 126.0 43.0 C126.0 43.0 126.0 43.0 126.0 43.0 C126.0 43.0 126.0 43.0 126.0 43.0 C126.0 43.0 74.0 143.0 74.0 143.0 C74.0 143.0 74.0 143.0 74.0 143.0 C74.0 143.0 74.0 143.0 126.0 43.0 C126.0 43.0 126.0 43.0 126.0 43.0 C126.0 43.0 126.0 43.0 126.0 43.0 C126.0 43.0 126.0 43.0 126.0 43.0 C126.0 43.0 126.0 43.0 126.0 43.0 C126.0 43.0 74.0 143.0 74.0 143.0 C74.0 143.0 74.0 143.0 74.0 143.0 C74.0 143.0 74.0 143.0 74.0 143.0 C74.0 143.0 74.0 143.0 74.0 143.0 C74.0 143.0 74.0 143.0 74.0 143.0 C74.0 143.0 74.0 143.0 74.0 143.0 C74.0 143.0 74.0 143.0 74.0 143.0 C74.0 143.0 74.0 143.0 74.0 143.0 C74.0 143.0 74.0 143.0 74.0 143.0 C74.0 143.0 74.0 143.0 74.0 143.0 C74.0 143.0 74.0 143.0 74.0 143.0 C74.0 143.0 74.0 143.0 74.0 143.0 C74.0 143.0 74.0 143.0 74.0 143.0 C74.0 143.0 74.0 143.0 74.0 143.0 C74.0 143.0 74.0 143.0 74.0 143.0 C74.0 143.0 74.0 143.0 74.0 143.0 C74.0 143.0 74.0 143.0 74.0 143.0 C74.0 143.0 74.0 143.0 74.0 143.0 C74.0 143.0 74.0 143.0 74.0 143.0 C74.0 143.0 74.0 143.0 74.0 143.0 C74.0 143.0 74.0 143.0 74.0 143.0 C74.0 143.0 74.0 143.0 74.0 143.0 C74.0 143.0 74.0 143.0 74.0 143.0 C74.0 143.0 74.0 143.0 74.0 143.0 C74.0 143.0 74.0 143.0 74.0 143.0 C74.0 143.0 74.0 143.0 74.0 143.0 C74.0 143.0 74.0 143.0 74.0 143.0 C74.0 143.0 74.0 143.0 74.0 143.0 C74.0 143.0 74.0 143.0 74.0 143.0 C74.0 143.0 74.0 143.0 74.0 143.0 C74.0 143.0 74.0 143.0 74.0 143.0 C74.0 143.0 74.0 143.0 74.0 143.0 C74.0 143.0 74.0 143.0 74.0 143.0 C74.0 143.0 74.0 143.0 74.0 143.0 C74.0 143.0 74.0 143.0 74.0 143.0 C74.0 143.0 74.0 143.0 74.0 143.0 C74.0 143.0 74.0 143.0 74.0 143.0 C74.0 143.0 74.0 143.0 74.0 143.0 C74.0 143.0 74.0 143.0 74.0 143.0 C74.0 143.0 74.0 143.0 74.0 143.0 C74.0 143.0 74.0 143.0 74.0 143.0 C74.0 143.0 74.0 143.0 74.0 143.0 C74.0 143.0 74.0 143.0 74.0 143.0 C74.0 143.0 74.0 143.0 74.0 143.0 C74.0 143.0 74.0 143.0 74.0 143.0 C74.0 143.0 74.0 143.0 74.0 143.0 C74.0 143.0 74.0 143.0 74.0 143.0 C74.0 143.0 74.0 143.0 74.0 143.0 C74.0 143.0 74.0 143.0 74.0 143.0 C74.0 143.0 74.0 143.0 74.0 143.0 C74.0 143.0 74.0 143.0 74.0 143.0 C74.0 143.0 74.0 143.0 74.0 143.0 C74.0 143.0 74.0 143.0 74.0 143.0 C74.0 143.0 74.0 143.0 74.0 143.0 C74.0 143.0 74.0 143.0 74.0 143.0 C74.0 143.0 74.0 143.0 74.0 143.0 C74.0 143.0 74.0 143.0 74.0 143.0 C74.0 143.0 74.0 143.0 74.0 143.0 C74.0 143.0 74.0 143.0 74.0 143.0 C74.0 143.0 74.0 143.0 74.0 143.0 C74.0 143.0 74.0 143.0 74.0 143.0 C74.0 143.0 74.0 143.0 74.0 143.0 C74.0 143.0 74.0 143.0 74.0 143.0 C74.0 143.0 74.0 143.0 74.0 143.0 C74.0 143.0 74.0 143.0 74.0 143.0 C74.0 143.0 74.0 143.0 74.0 143.0 C74.0 143.0 74.0 143.0 74.0 143.0 C74.0 143.0 74.0 143.0 74.0 143.0 C74.0 143.0 74.0 143.0 74.0 143.0 C74.0 143.0 74.0 143.0 74.0 143.0 C74.0 143.0 74.0 143.0 74.0 143.0 C74.0 143.0 74.0 143.0 74.0 143.0 C74.0 143.0 74.0 143.0 74.0 143.0 C74.0 138.0 77.0 135.0 80.0 131.0 A2.0 2.0 0.0 0 1 84.0 134.0 C81.0 138.0 78.0 142.0 77.0 147.0 C76.0 149.0 76.0 152.0 77.0 155.0 C80.0 154.0 87.0 152.0 93.0 143.0 A43.0 43.0 0.0 0 0 96.0 140.0 A2.0 2.0 0.0 0 1 100.0 141.0 C99.0 142.0 98.0 144.0 97.0 145.0 C89.0 155.0 77.0 159.0 77.0 159.0 A2.0 2.0 0.0 0 1 75.0 158.0 C69.0 151.0 72.0 140.0 82.0 131.0 A2.0 2.0 0.0 0 1 85.0 135.0 C77.0 142.0 74.0 151.0 77.0 155.0 C80.0 154.0 87.0 152.0 93.0 143.0 A43.0 43.0 0.0 0 0 96.0 140.0 A2.0 2.0 0.0 0 1 100.0 141.0 C99.0 142.0 98.0 144.0 97.0 145.0 C89.0 155.0 77.0 159.0 77.0 159.0"></path></svg>