<svg xmlns="http://www.w3.org/2000/svg" viewBox="0.0 0.0 200.0 200.0" height="200px" width="200px"><path fill="#000000" fill-opacity="1.0"  filling="0" d="M63.0 178.0 C62.0 178.0 62.0 178.0 61.0 178.0 A2.0 2.0 0.0 0 1 61.0 176.0 C61.0 171.0 61.0 166.0 61.0 162.0 L61.0 161.0 C61.0 157.0 60.0 153.0 61.0 149.0 C61.0 143.0 63.0 137.0 66.0 132.0 C68.0 130.0 71.0 128.0 74.0 126.0 C75.0 125.0 76.0 125.0 76.0 125.0 C77.0 125.0 78.0 126.0 78.0 126.0 C78.0 127.0 78.0 128.0 77.0 128.0 C76.0 128.0 76.0 128.0 76.0 129.0 C74.0 130.0 72.0 132.0 70.0 134.0 C67.0 138.0 65.0 144.0 64.0 149.0 C64.0 153.0 64.0 157.0 64.0 161.0 L64.0 162.0 C64.0 167.0 64.0 171.0 64.0 175.0 C68.0 174.0 72.0 171.0 76.0 168.0 C80.0 166.0 84.0 164.0 87.0 162.0 C90.0 160.0 93.0 157.0 95.0 154.0 C98.0 150.0 100.0 146.0 101.0 142.0 C101.0 141.0 102.0 141.0 103.0 141.0 C104.0 142.0 104.0 143.0 104.0 144.0 C103.0 147.0 101.0 151.0 98.0 155.0 C96.0 159.0 93.0 162.0 90.0 165.0 C86.0 167.0 83.0 170.0 79.0 172.0 C74.0 175.0 69.0 178.0 63.0 178.0 C63.0 178.0 63.0 178.0 63.0 178.0 L63.0 178.0 Z M76.0 159.0 C76.0 159.0 76.0 159.0 76.0 159.0 A2.0 2.0 0.0 0 1 75.0 158.0 C72.0 151.0 73.0 144.0 76.0 137.0 C78.0 135.0 79.0 133.0 82.0 131.0 C82.0 131.0 83.0 131.0 84.0 131.0 C84.0 132.0 85.0 133.0 84.0 134.0 C82.0 135.0 80.0 137.0 79.0 139.0 C76.0 145.0 75.0 150.0 77.0 155.0 C80.0 154.0 85.0 152.0 89.0 149.0 C91.0 146.0 93.0 143.0 95.0 140.0 C95.0 140.0 96.0 139.0 97.0 139.0 C97.0 140.0 98.0 140.0 97.0 141.0 C96.0 144.0 94.0 148.0 91.0 151.0 C86.0 155.0 81.0 158.0 77.0 159.0 C77.0 159.0 77.0 159.0 76.0 159.0 L76.0 159.0 Z M57.0 140.0 C57.0 140.0 56.0 140.0 56.0 140.0 C46.0 134.0 39.0 125.0 34.0 115.0 C29.0 104.0 26.0 93.0 26.0 82.0 C27.0 68.0 32.0 54.0 40.0 44.0 C48.0 34.0 58.0 27.0 68.0 23.0 C78.0 19.0 88.0 18.0 93.0 20.0 C94.0 20.0 94.0 21.0 94.0 22.0 C94.0 22.0 94.0 23.0 94.0 24.0 C85.0 32.0 77.0 39.0 72.0 48.0 C68.0 56.0 65.0 65.0 65.0 75.0 C64.0 81.0 65.0 87.0 66.0 93.0 C66.0 94.0 66.0 95.0 65.0 95.0 C64.0 96.0 63.0 95.0 62.0 94.0 C60.0 88.0 59.0 82.0 59.0 75.0 C59.0 65.0 62.0 55.0 67.0 46.0 C72.0 38.0 79.0 30.0 88.0 23.0 C83.0 24.0 77.0 24.0 70.0 26.0 C60.0 30.0 51.0 37.0 43.0 47.0 C35.0 57.0 31.0 70.0 30.0 82.0 C30.0 93.0 32.0 103.0 37.0 113.0 C42.0 123.0 49.0 131.0 58.0 137.0 C59.0 138.0 59.0 139.0 59.0 140.0 C58.0 140.0 58.0 140.0 57.0 140.0 L57.0 140.0 Z M124.0 153.0 C123.0 153.0 122.0 153.0 122.0 152.0 C120.0 151.0 119.0 144.0 115.0 137.0 C114.0 136.0 114.0 135.0 115.0 135.0 C116.0 134.0 117.0 134.0 117.0 135.0 C120.0 140.0 122.0 144.0 124.0 149.0 C126.0 143.0 130.0 137.0 135.0 131.0 C135.0 128.0 135.0 124.0 135.0 120.0 C135.0 118.0 135.0 116.0 135.0 114.0 C135.0 113.0 135.0 112.0 136.0 112.0 C137.0 112.0 138.0 112.0 138.0 113.0 C139.0 115.0 139.0 118.0 139.0 120.0 C139.0 124.0 139.0 128.0 140.0 131.0 C140.0 132.0 140.0 133.0 140.0 133.0 C133.0 140.0 129.0 146.0 126.0 152.0 C125.0 153.0 125.0 153.0 124.0 153.0 C124.0 153.0 124.0 153.0 124.0 153.0 L124.0 153.0 Z M114.0 113.0 C113.0 113.0 113.0 112.0 112.0 112.0 C112.0 111.0 112.0 110.0 113.0 109.0 C114.0 109.0 115.0 109.0 116.0 110.0 C116.0 110.0 116.0 112.0 115.0 112.0 C115.0 112.0 114.0 113.0 114.0 113.0 L114.0 113.0 Z M106.0 118.0 C105.0 118.0 105.0 117.0 104.0 117.0 C104.0 116.0 104.0 115.0 105.0 114.0 C106.0 114.0 107.0 114.0 108.0 115.0 C108.0 116.0 108.0 117.0 107.0 118.0 C107.0 118.0 106.0 118.0 106.0 118.0 L106.0 118.0 Z M96.0 123.0 C95.0 123.0 95.0 122.0 94.0 122.0 C93.0 121.0 94.0 120.0 94.0 119.0 C95.0 119.0 96.0 119.0 97.0 120.0 C98.0 120.0 97.0 122.0 97.0 122.0 C96.0 122.0 96.0 123.0 96.0 123.0 L96.0 123.0 Z M87.0 129.0 C86.0 129.0 86.0 128.0 85.0 128.0 C85.0 127.0 85.0 126.0 86.0 125.0 C87.0 125.0 88.0 125.0 89.0 126.0 C89.0 127.0 89.0 128.0 88.0 129.0 C88.0 129.0 87.0 129.0 87.0 129.0 L87.0 129.0 Z M118.0 134.0 C118.0 134.0 118.0 134.0 118.0 134.0 C117.0 133.0 116.0 132.0 117.0 131.0 C117.0 129.0 118.0 127.0 119.0 125.0 C119.0 124.0 120.0 124.0 121.0 124.0 C122.0 124.0 122.0 125.0 122.0 126.0 C121.0 128.0 120.0 130.0 120.0 133.0 C120.0 133.0 119.0 134.0 118.0 134.0 L118.0 134.0 Z M127.0 120.0 C127.0 120.0 126.0 120.0 126.0 119.0 C125.0 119.0 125.0 117.0 126.0 117.0 C127.0 116.0 128.0 116.0 129.0 117.0 C129.0 118.0 129.0 119.0 128.0 120.0 C128.0 120.0 127.0 120.0 127.0 120.0 L127.0 120.0 Z M64.0 110.0 C63.0 110.0 62.0 110.0 61.0 109.0 C61.0 108.0 60.0 107.0 61.0 106.0 C62.0 104.0 64.0 102.0 66.0 100.0 C67.0 100.0 68.0 100.0 69.0 101.0 C69.0 102.0 69.0 103.0 68.0 104.0 C67.0 105.0 66.0 106.0 65.0 107.0 C66.0 107.0 68.0 107.0 70.0 107.0 C73.0 107.0 77.0 108.0 80.0 108.0 C82.0 106.0 83.0 103.0 84.0 100.0 C85.0 98.0 86.0 96.0 87.0 94.0 C88.0 92.0 89.0 90.0 90.0 88.0 C91.0 87.0 91.0 86.0 92.0 86.0 C88.0 86.0 85.0 87.0 82.0 88.0 C80.0 88.0 78.0 89.0 76.0 90.0 C75.0 90.0 75.0 90.0 75.0 90.0 C75.0 93.0 74.0 96.0 74.0 98.0 C74.0 99.0 73.0 100.0 72.0 100.0 C71.0 100.0 70.0 99.0 70.0 98.0 C71.0 96.0 71.0 93.0 71.0 90.0 C71.0 89.0 72.0 88.0 73.0 87.0 C74.0 87.0 74.0 86.0 75.0 86.0 C78.0 85.0 80.0 84.0 82.0 84.0 C88.0 83.0 94.0 82.0 100.0 82.0 C101.0 82.0 101.0 83.0 102.0 84.0 C102.0 85.0 101.0 86.0 100.0 86.0 C98.0 86.0 96.0 86.0 95.0 87.0 C94.0 88.0 94.0 89.0 93.0 90.0 C92.0 92.0 91.0 94.0 90.0 96.0 C89.0 98.0 88.0 100.0 87.0 102.0 C86.0 105.0 84.0 107.0 83.0 110.0 C83.0 111.0 83.0 112.0 84.0 112.0 C94.0 116.0 103.0 123.0 112.0 130.0 C113.0 130.0 114.0 131.0 114.0 132.0 C114.0 133.0 113.0 134.0 112.0 134.0 C112.0 134.0 111.0 134.0 111.0 133.0 C105.0 133.0 101.0 130.0 96.0 127.0 C92.0 125.0 88.0 122.0 84.0 120.0 C83.0 120.0 82.0 120.0 82.0 121.0 C81.0 122.0 82.0 123.0 83.0 124.0 C87.0 125.0 90.0 128.0 93.0 130.0 C98.0 133.0 102.0 136.0 108.0 137.0 C108.0 137.0 108.0 137.0 109.0 137.0 C109.0 137.0 109.0 137.0 109.0 137.0 C111.0 137.0 112.0 137.0 113.0 137.0 C114.0 137.0 115.0 137.0 115.0 136.0 C116.0 135.0 116.0 134.0 116.0 133.0 C116.0 132.0 115.0 130.0 114.0 129.0 C114.0 129.0 114.0 129.0 114.0 129.0 C105.0 121.0 95.0 114.0 85.0 109.0 C86.0 109.0 86.0 108.0 87.0 108.0 C87.0 105.0 88.0 104.0 90.0 102.0 C91.0 101.0 92.0 100.0 93.0 98.0 C94.0 96.0 95.0 94.0 96.0 93.0 C97.0 91.0 98.0 90.0 99.0 89.0 C99.0 88.0 100.0 88.0 101.0 88.0 C102.0 88.0 103.0 89.0 103.0 90.0 C103.0 92.0 102.0 93.0 101.0 94.0 C100.0 95.0 99.0 96.0 98.0 97.0 C97.0 98.0 96.0 100.0 95.0 101.0 C94.0 102.0 93.0 103.0 92.0 104.0 C91.0 106.0 90.0 107.0 90.0 109.0 C90.0 108.0 91.0 108.0 92.0 108.0 C95.0 108.0 97.0 108.0 100.0 108.0 C101.0 108.0 102.0 108.0 102.0 109.0 C102.0 110.0 101.0 111.0 100.0 111.0 C97.0 111.0 95.0 111.0 92.0 111.0 C91.0 112.0 90.0 112.0 89.0 112.0 C88.0 113.0 87.0 114.0 86.0 115.0 C86.0 114.0 87.0 113.0 87.0 113.0 C87.0 112.0 87.0 111.0 86.0 111.0 C84.0 111.0 83.0 111.0 82.0 111.0 C82.0 111.0 81.0 111.0 81.0 112.0 C80.0 112.0 80.0 113.0 80.0 113.0 C80.0 113.0 80.0 113.0 80.0 113.0 C80.0 113.0 80.0 113.0 79.0 113.0 C79.0 112.0 79.0 112.0 79.0 112.0 C77.0 112.0 75.0 112.0 73.0 112.0 C69.0 112.0 66.0 111.0 63.0 110.0 C63.0 110.0 63.0 110.0 64.0 110.0 L64.0 110.0 Z M78.0 115.0 C78.0 115.0 78.0 115.0 78.0 115.0 C78.0 115.0 78.0 115.0 78.0 115.0 L78.0 115.0 Z M116.0 113.0 C115.0 113.0 115.0 112.0 114.0 112.0 C114.0 111.0 114.0 110.0 115.0 109.0 C116.0 109.0 117.0 109.0 117.0 110.0 C118.0 111.0 118.0 112.0 117.0 112.0 C117.0 113.0 116.0 113.0 116.0 113.0 L116.0 113.0 Z M109.0 118.0 C109.0 118.0 109.0 117.0 108.0 117.0 C107.0 116.0 107.0 115.0 108.0 114.0 C109.0 113.0 110.0 114.0 111.0 114.0 C112.0 115.0 111.0 116.0 111.0 117.0 C110.0 117.0 110.0 118.0 109.0 118.0 L109.0 118.0 Z M100.0 122.0 C100.0 122.0 99.0 122.0 99.0 121.0 C98.0 121.0 98.0 119.0 99.0 119.0 C100.0 118.0 101.0 118.0 102.0 119.0 C102.0 120.0 102.0 121.0 101.0 122.0 C101.0 122.0 101.0 122.0 100.0 122.0 L100.0 122.0 Z M92.0 128.0 C91.0 128.0 91.0 127.0 90.0 127.0 C90.0 126.0 90.0 125.0 91.0 124.0 C92.0 124.0 93.0 124.0 94.0 125.0 C94.0 126.0 94.0 127.0 93.0 127.0 C93.0 128.0 92.0 128.0 92.0 128.0 L92.0 128.0 Z M86.0 127.0 C86.0 127.0 86.0 127.0 86.0 127.0 C85.0 127.0 85.0 126.0 85.0 125.0 C85.0 124.0 86.0 124.0 87.0 124.0 C88.0 124.0 89.0 125.0 88.0 126.0 C88.0 127.0 87.0 127.0 86.0 127.0 L86.0 127.0 Z M115.0 133.0 C115.0 133.0 115.0 133.0 115.0 133.0 C115.0 133.0 115.0 133.0 115.0 133.0 L115.0 133.0 Z M125.0 134.0 C124.0 134.0 124.0 133.0 123.0 132.0 C123.0 131.0 124.0 130.0 125.0 130.0 C126.0 130.0 127.0 131.0 127.0 132.0 C127.0 133.0 126.0 134.0 125.0 134.0 L125.0 134.0 Z M130.0 127.0 C129.0 127.0 128.0 126.0 128.0 125.0 C128.0 124.0 129.0 123.0 130.0 123.0 C131.0 123.0 132.0 124.0 132.0 125.0 C132.0 126.0 131.0 127.0 130.0 127.0 L130.0 127.0 Z M136.0 122.0 C136.0 122.0 136.0 122.0 136.0 122.0 C135.0 122.0 134.0 121.0 134.0 120.0 C134.0 119.0 135.0 118.0 136.0 118.0 C137.0 118.0 138.0 119.0 138.0 120.0 C138.0 121.0 137.0 122.0 136.0 122.0 L136.0 122.0 Z M126.0 110.0 C125.0 110.0 124.0 109.0 124.0 108.0 C124.0 107.0 125.0 106.0 126.0 106.0 C127.0 106.0 128.0 107.0 128.0 108.0 C128.0 109.0 127.0 110.0 126.0 110.0 L126.0 110.0 Z M120.0 116.0 C119.0 116.0 118.0 115.0 118.0 114.0 C118.0 113.0 119.0 112.0 120.0 112.0 C121.0 112.0 122.0 113.0 122.0 114.0 C122.0 115.0 121.0 116.0 120.0 116.0 L120.0 116.0 Z M111.0 122.0 C110.0 122.0 109.0 122.0 109.0 121.0 C109.0 120.0 110.0 119.0 111.0 119.0 C112.0 119.0 113.0 120.0 113.0 121.0 C113.0 122.0 112.0 122.0 111.0 122.0 L111.0 122.0 Z M104.0 128.0 C103.0 128.0 102.0 127.0 102.0 126.0 C102.0 125.0 103.0 124.0 104.0 124.0 C105.0 124.0 106.0 125.0 106.0 126.0 C106.0 127.0 105.0 128.0 104.0 128.0 L104.0 128.0 Z M96.0 132.0 C95.0 132.0 94.0 131.0 94.0 130.0 C94.0 129.0 95.0 128.0 96.0 128.0 C97.0 128.0 98.0 129.0 98.0 130.0 C98.0 131.0 97.0 132.0 96.0 132.0 L96.0 132.0 Z M88.0 137.0 C87.0 137.0 86.0 136.0 86.0 135.0 C86.0 134.0 87.0 133.0 88.0 133.0 C89.0 133.0 90.0 134.0 90.0 135.0 C90.0 136.0 89.0 137.0 88.0 137.0 L88.0 137.0 Z M82.0 143.0 C81.0 143.0 80.0 142.0 80.0 141.0 C80.0 140.0 81.0 139.0 82.0 139.0 C83.0 139.0 84.0 140.0 84.0 141.0 C84.0 142.0 83.0 143.0 82.0 143.0 L82.0 143.0 Z M76.0 150.0 C75.0 150.0 74.0 149.0 74.0 148.0 C74.0 147.0 75.0 146.0 76.0 146.0 C77.0 146.0 78.0 147.0 78.0 148.0 C78.0 149.0 77.0 150.0 76.0 150.0 L76.0 150.0 Z M70.0 158.0 C69.0 158.0 68.0 157.0 68.0 156.0 C68.0 155.0 69.0 154.0 70.0 154.0 C71.0 154.0 72.0 155.0 72.0 156.0 C72.0 157.0 71.0 158.0 70.0 158.0 L70.0 158.0 Z M66.0 166.0 C65.0 166.0 64.0 165.0 64.0 164.0 C64.0 163.0 65.0 162.0 66.0 162.0 C67.0 162.0 68.0 163.0 68.0 164.0 C68.0 165.0 67.0 166.0 66.0 166.0 L66.0 166.0 Z M75.0 170.0 C74.0 170.0 73.0 169.0 73.0 168.0 C73.0 167.0 74.0 166.0 75.0 166.0 C76.0 166.0 77.0 167.0 77.0 168.0 C77.0 169.0 76.0 170.0 75.0 170.0 L75.0 170.0 Z M83.0 166.0 C82.0 166.0 81.0 165.0 81.0 164.0 C81.0 163.0 82.0 162.0 83.0 162.0 C84.0 162.0 85.0 163.0 85.0 164.0 C85.0 165.0 84.0 166.0 83.0 166.0 L83.0 166.0 Z M93.0 159.0 C92.0 159.0 91.0 158.0 91.0 157.0"></path></svg>