<svg xmlns="http://www.w3.org/2000/svg" viewBox="0.0 0.0 200.0 200.0" height="200px" width="200px"><path fill="#000000" fill-opacity="1.0"  filling="0" d="M63.0 178.0 C62.0 178.0 62.0 178.0 61.0 178.0 C61.0 178.0 60.0 177.0 60.0 176.0 C61.0 171.0 61.0 166.0 61.0 162.0 L61.0 161.0 C61.0 157.0 61.0 152.0 61.0 148.0 C61.0 143.0 62.0 139.0 63.0 136.0 C66.0 132.0 70.0 129.0 74.0 126.0 C75.0 125.0 76.0 125.0 77.0 125.0 C78.0 126.0 78.0 127.0 77.0 128.0 C76.0 128.0 76.0 128.0 76.0 128.0 C76.0 128.0 76.0 128.0 76.0 128.0 C76.0 128.0 76.0 128.0 76.0 128.0 C76.0 128.0 76.0 128.0 76.0 128.0 C76.0 128.0 76.0 128.0 76.0 128.0 C76.0 128.0 76.0 128.0 76.0 128.0 C76.0 128.0 76.0 128.0 76.0 128.0 C76.0 128.0 76.0 128.0 76.0 128.0 C76.0 128.0 76.0 128.0 76.0 128.0 C76.0 128.0 76.0 128.0 76.0 128.0 C76.0 128.0 76.0 128.0 76.0 128.0 C76.0 128.0 76.0 128.0 76.0 128.0 C76.0 128.0 76.0 128.0 76.0 128.0 C76.0 128.0 76.0 128.0 76.0 128.0 C76.0 128.0 76.0 128.0 76.0 128.0 C76.0 128.0 76.0 128.0 76.0 128.0 C76.0 128.0 76.0 128.0 76.0 128.0 C76.0 128.0 76.0 128.0 76.0 128.0 C76.0 128.0 76.0 128.0 76.0 128.0 C76.0 128.0 76.0 128.0 76.0 128.0 C76.0 128.0 76.0 128.0 76.0 128.0 C76.0 128.0 76.0 128.0 76.0 128.0 C76.0 128.0 76.0 128.0 76.0 128.0 C76.0 128.0 76.0 128.0 76.0 128.0 C76.0 128.0 76.0 128.0 76.0 128.0 C76.0 128.0 76.0 128.0 76.0 128.0 C76.0 128.0 76.0 128.0 76.0 128.0 C76.0 128.0 76.0 128.0 76.0 128.0 C76.0 128.0 76.0 128.0 76.0 128.0 C76.0 128.0 76.0 128.0 76.0 128.0 C76.0 128.0 76.0 128.0 76.0 128.0 C76.0 128.0 76.0 128.0 76.0 128.0 C76.0 128.0 76.0 128.0 76.0 128.0 C76.0 128.0 76.0 128.0 76.0 128.0 C76.0 128.0 76.0 128.0 76.0 128.0 C76.0 128.0 76.0 128.0 76.0 128.0 C76.0 128.0 76.0 128.0 76.0 128.0 C76.0 128.0 76.0 128.0 76.0 128.0 C76.0 128.0 76.0 128.0 76.0 128.0 C76.0 128.0 76.0 128.0 76.0 128.0 C76.0 128.0 76.0 128.0 76.0 128.0 C76.0 128.0 76.0 128.0 76.0 128.0 C76.0 128.0 76.0 128.0 76.0 128.0 C76.0 128.0 76.0 128.0 76.0 128.0 C76.0 128.0 76.0 128.0 76.0 128.0 C76.0 128.0 76.0 128.0 76.0 128.0 C76.0 128.0 76.0 128.0 76.0 128.0 C76.0 128.0 76.0 128.0 76.0 128.0 C76.0 128.0 76.0 128.0 76.0 128.0 C76.0 128.0 76.0 128.0 76.0 128.0 C76.0 128.0 76.0 128.0 76.0 128.0 C76.0 128.0 76.0 128.0 76.0 128.0 C76.0 128.0 76.0 128.0 76.0 128.0 C76.0 128.0 76.0 128.0 76.0 128.0 C76.0 128.0 76.0 128.0 76.0 128.0 C76.0 128.0 76.0 128.0 76.0 128.0 C76.0 128.0 76.0 128.0 76.0 128.0 C76.0 128.0 76.0 128.0 76.0 128.0 C76.0 128.0 76.0 128.0 76.0 128.0 C76.0 128.0 76.0 128.0 76.0 128.0 C76.0 128.0 76.0 128.0 76.0 128.0 C76.0 128.0 76.0 128.0 76.0 128.0 C76.0 128.0 76.0 128.0 76.0 128.0 C76.0 128.0 76.0 128.0 76.0 128.0 C76.0 128.0 76.0 128.0 76.0 128.0 C76.0 128.0 76.0 128.0 76.0 128.0 C76.0 128.0 76.0 128.0 76.0 128.0 C76.0 128.0 76.0 128.0 76.0 128.0 C76.0 128.0 76.0 128.0 76.0 128.0 C76.0 128.0 76.0 128.0 76.0 128.0 C76.0 128.0 76.0 128.0 76.0 128.0 C76.0 128.0 76.0 128.0 76.0 128.0 C76.0 128.0 76.0 128.0 76.0 128.0 C76.0 128.0 76.0 128.0 76.0 128.0 C76.0 128.0 76.0 128.0 76.0 128.0 C76.0 128.0 76.0 128.0 76.0 128.0 C76.0 128.0 76.0 128.0 76.0 128.0 C76.0 128.0 76.0 128.0 76.0 128.0 C76.0 128.0 76.0 128.0 76.0 128.0 C76.0 128.0 76.0 128.0 76.0 128.0 C76.0 128.0 76.0 128.0 76.0 128.0 C76.0 128.0 76.0 128.0 76.0 128.0 C76.0 128.0 76.0 128.0 76.0 128.0 C76.0 128.0 76.0 128.0 76.0 128.0 C76.0 128.0 76.0 128.0 76.0 128.0 C76.0 128.0 76.0 128.0 76.0 128.0 C76.0 128.0 76.0 128.0 76.0 128.0 C76.0 128.0 76.0 128.0 76.0 128.0 C76.0 128.0 76.0 128.0 76.0 128.0 C76.0 128.0 76.0 128.0 76.0 128.0 C76.0 128.0 76.0 128.0 76.0 128.0 C76.0 128.0 76.0 128.0 76.0 128.0 C76.0 128.0 76.0 128.0 76.0 128.0 C76.0 128.0 76.0 128.0 76.0 128.0 C76.0 128.0 76.0 128.0 76.0 128.0 C76.0 128.0 76.0 128.0 76.0 128.0 C76.0 128.0 76.0 128.0 76.0 128.0 C76.0 128.0 76.0 128.0 76.0 128.0 C76.0 128.0 76.0 128.0 76.0 128.0 C76.0 128.0 76.0 128.0 76.0 128.0 C76.0 128.0 76.0 128.0 76.0 128.0 C76.0 128.0 76.0 128.0 76.0 128.0 C76.0 128.0 76.0 128.0 76.0 128.0 C76.0 128.0 76.0 128.0 76.0 128.0 C76.0 128.0 76.0 128.0 76.0 128.0 C76.0 128.0 76.0 128.0 76.0 128.0 C76.0 128.0 76.0 128.0 76.0 128.0 C76.0 128.0 76.0 128.0 76.0 128.0 C76.0 128.0 76.0 128.0 76.0 128.0 C76.0 128.0 76.0 128.0 76.0 128.0 C76.0 128.0 76.0 128.0 76.0 128.0 C76.0 128.0 76.0 128.0 76.0 128.0 C76.0 128.0 76.0 128.0 76.0 128.0 C76.0 128.0 76.0 128.0 76.0 128.0 C76.0 128.0 76.0 128.0 76.0 128.0 C76.0 128.0 76.0 128.0 76.0 128.0 C76.0 128.0 76.0 128.0 76.0 128.0 C76.0 128.0 76.0 128.0 76.0 128.0 C76.0 128.0 76.0 128.0 76.0 128.0 C76.0 128.0 76.0 128.0 76.0 128.0 C76.0 128.0 76.0 128.0 76.0 128.0 C76.0 128.0 76.0 128.0 76.0 128.0 C76.0 128.0 76.0 128.0 76.0 128.0 C76.0 128.0 76.0 128.0 76.0 128.0 C76.0 128.0 76.0 128.0 76.0 128.0 C76.0 128.0 76.0 128.0 76.0 128.0 C76.0 128.0 76.0 128.0 76.0 128.0 C76.0 128.0 76.0 128.0 76.0 128.0 C76.0 128.0 76.0 128.0 76.0 128.0 C76.0 128.0 76.0 128.0 76.0 128.0 C76.0 128.0 76.0 128.0 76.0 128.0 C76.0 128.0 76.0 128.0 76.0 128.0 C76.0 128.0 76.0 128.0 76.0 128.0 C76.0 128.0 76.0 128.0 76.0 128.0 C76.0 128.0 76.0 128.0 76.0 128.0 C76.0 128.0 76.0 128.0 76.0 128.0 C76.0 128.0 76.0 128.0 76.0 128.0 C76.0 128.0 76.0 128.0 76.0 128.0 C76.0 128.0 76.0 128.0 76.0 128.0 C76.0 128.0 76.0 128.0 76.0 128.0 C76.0 128.0 76.0 128.0 76.0 128.0 C76.0 128.0 76.0 128.0 76.0 128.0 C76.0 128.0 76.0 128.0 76.0 128.0 C76.0 128.0 76.0 128.0 76.0 128.0 C76.0 128.0 76.0 128.0 76.0 128.0 C76.0 128.0 76.0 128.0 76.0 128.0 C76.0 128.0 76.0 128.0 76.0 128.0 C76.0 128.0 76.0 128.0 76.0 128.0 C76.0 128.0 76.0 128.0 76.0 128.0 C76.0 128.0 76.0 128.0 76.0 128.0 C76.0 128.0 76.0 128.0 76.0 128.0 C76.0 128.0 76.0 128.0 76.0 128.0 C76.0 128.0 76.0 128.0 76.0 128.0 C76.0 128.0 76.0 128.0 76.0 128.0 C76.0 128.0 76.0 128.0 76.0 128.0 C76.0 128.0 76.0 128.0 76.0 128.0 C76.0 128.0 76.0 128.0 76.0 128.0 C76.0 128.0 76.0 128.0 76.0 128.0 C76.0 128.0 76.0 128.0 76.0 128.0 C76.0 128.0 76.0 128.0 76.0 128.0 C76.0 128.0 76.0 128.0 76.0 128.0 C76.0 128.0 76.0 128.0 76.0 128.0 C76.0 128.0 76.0 128.0 76.0 128.0 C76.0 128.0 76.0 128.0 76.0 128.0 C76.0 128.0 76.0 128.0 76.0 128.0 C76.0 128.0 76.0 128.0 76.0 128.0 C76.0 128.0 76.0 128.0 76.0 128.0 C76.0 128.0 76.0 128.0 76.0 128.0 C76.0 128.0 76.0 128.0 76.0 128.0 C76.0 128.0 76.0 128.0 76.0 128.0 C76.0 128.0 76.0 128.0 76.0 128.0 C76.0 128.0 76.0 128.0 76.0 128.0 C76.0 128.0 76.0 128.0 76.0 128.0 C76.0 128.0 76.0 128.0 76.0 128.0 C76.0 128.0 76.0 128.0 76.0 128.0 C124.0 134.0 124.0 134.0 124.0 134.0 C124.0 134.0 124.0 134.0 124.0 134.0 C124.0 134.0 124.0 134.0 124.0 134.0 C124.0 134.0 124.0 134.0 124.0 134.0 C124.0 134.0 124.0 134.0 124.0 134.0 C124.0 134.0 124.0 134.0 124.0 134.0 C124.0 134.0 124.0 134.0 124.0 134.0 C124.0 134.0 124.0 134.0 124.0 134.0 C124.0 134.0 124.0 134.0 124.0 134.0 C124.0 134.0 124.0 134.0 124.0 134.0 C124.0 134.0 124.0 134.0 124.0 134.0 C124.0 134.0 124.0 134.0 124.0 134.0 C124.0 134.0 124.0 134.0 124.0 134.0 C124.0 134.0 124.0 134.0 124.0 134.0 C124.0 134.0 124.0 134.0 124.0 134.0 C124.0 134.0 124.0 134.0 124.0 134.0 C124.0 134.0 124.0 134.0 124.0 134.0 C124.0 134.0 124.0 134.0 124.0 134.0 C124.0 134.0 124.0 134.0 124.0 134.0 C124.0 134.0 124.0 134.0 124.0 134.0 C124.0 134.0 124.0 134.0 124.0 134.0 C124.0 134.0 124.0 134.0 124.0 134.0 C124.0 134.0 124.0 134.0 124.0 134.0 C124.0 134.0 124.0 134.0 124.0 134.0 C124.0 134.0 124.0 134.0 124.0 134.0 C124.0 134.0 124.0 134.0 124.0 134.0 C124.0 134.0 124.0 134.0 124.0 134.0 C124.0 134.0 124.0 134.0 124.0 134.0 C124.0 134.0 124.0 134.0 124.0 134.0 C124.0 134.0 124.0 134.0 124.0 134.0 C124.0 134.0 124.0 134.0 124.0 134.0 C124.0 134.0 124.0 134.0 124.0 134.0 C124.0 134.0 124.0 134.0 124.0 134.0 C124.0 134.0 124.0 134.0 124.0 134.0 C124.0 134.0 124.0 134.0 124.0 134.0 C124.0 134.0 124.0 134.0 124.0 134.0 C124.0 134.0 124.0 134.0 124.0 134.0 C124.0 134.0 124.0 134.0 124.0 134.0 C124.0 134.0 124.0 134.0 124.0 134.0 C124.0 134.0 124.0 134.0 124.0 134.0 C124.0 134.0 124.0 134.0 124.0 134.0 C124.0 134.0 124.0 134.0 124.0 134.0 C124.0 134.0 124.0 134.0 124.0 134.0 C124.0 134.0 124.0 134.0 124.0 134.0 C124.0 134.0 124.0 134.0 124.0 134.0 C124.0 134.0 124.0 134.0 124.0 134.0 C124.0 134.0 124.0 134.0 124.0 134.0 C124.0 134.0 124.0 134.0 124.0 134.0 C124.0 134.0 124.0 134.0 124.0 134.0 C124.0 134.0 124.0 134.0 124.0 134.0 C124.0 134.0 124.0 134.0 124.0 134.0 C124.0 134.0 124.0 134.0 124.0 134.0 C124.0 134.0 124.0 134.0 124.0 134.0 C124.0 134.0 124.0 134.0 124.0 134.0 C124.0 134.0 124.0 134.0 124.0 134.0 C124.0 134.0 124.0 134.0 124.0 134.0 C124.0 134.0 124.0 134.0 124.0 134.0 C124.0 134.0 124.0 134.0 124.0 134.0 C124.0 134.0 124.0 134.0 124.0 134.0 C124.0 134.0 124.0 134.0 124.0 134.0 C124.0 134.0 124.0 134.0 124.0 134.0 C124.0 134.0 124.0 134.0 124.0 134.0 C124.0 134.0 124.0 134.0 124.0 134.0 C124.0 134.0 124.0 134.0 124.0 134.0 C124.0 134.0 124.0 134.0 124.0 134.0 C124.0 134.0 124.0 134.0 124.0 134.0 C124.0 134.0 124.0 134.0 124.0 134.0 C124.0 134.0 124.0 134.0 124.0 134.0 C124.0 134.0 124.0 134.0 124.0 134.0 C124.0 134.0 124.0 134.0 124.0 134.0 C124.0 134.0 124.0 134.0 124.0 134.0 C124.0 134.0 124.0 134.0 124.0 134.0 C124.0 134.0 124.0 134.0 124.0 134.0 C124.0 134.0 124.0 134.0 124.0 134.0 C124.0 134.0 124.0 134.0 124.0 134.0 C124.0 134.0 124.0 134.0 124.0 134.0 C124.0 134.0 124.0 134.0 124.0 134.0 C124.0 134.0 124.0 134.0 124.0 134.0 C124.0 134.0 124.0 134.0 124.0 134.0 C124.0 134.0 124.0 134.0 124.0 134.0 C124.0 134.0 124.0 134.0 124.0 134.0 C124.0 134.0 124.0 134.0 124.0 134.0 C124.0 134.0 124.0 134.0 124.0 134.0 C124.0 134.0 124.0 134.0 124.0 134.0 C124.0 134.0 124.0 134.0 124.0 134.0 C124.0 134.0 124.0 134.0 124.0 134.0 C124.0 134.0 124.0 134.0 124.0 134.0 C124.0 134.0 124.0 134.0 124.0 134.0 C124.0 134.0 124.0 134.0 124.0 134.0 C124.0 134.0 124.0 134.0 124.0 134.0 C124.0 134.0 124.0 134.0 124.0 134.0 C124.0 134.0 124.0 134.0 124.0 134.0 C124.0 134.0 124.0 134.0 124.0 134.0 C124.0 134.0 124.0 134.0 124.0 134.0 C124.0 134.0 124.0 134.0 124.0 134.0 C124.0 134.0 124.0 134.0 124.0 134.0 C124.0 134.0 124.0 134.0 124.0 134.0 C124.0 134.0 124.0 134.0 124.0 134.0 C124.0 134.0 124.0 134.0 124.0 134.0 C124.0 134.0 124.0 134.0 124.0 134.0 C124.0 134.0 124.0 134.0 124.0 134.0 C124.0 134.0 124.0 134.0 124.0 134.0 C124.0 134.0 124.0 134.0 124.0 134.0 C124.0 134.0 124.0 134.0 124.0 134.0 C124.0 134.0 124.0 134.0 124.0 134.0 C124.0 134.0 124.0 134.0 124.0 134.0 C124.0 134.0 124.0 134.0 124.0 134.0 C124.0 134.0 124.0 134.0 124.0 134.0 C124.0 134.0 124.0 134.0 124.0 134.0 C124.0 134.0 124.0 134.0 124.0 134.0 C124.0 134.0 124.0 134.0 124.0 134.0 C124.0 134.0 124.0 134.0 124.0 134.0 C124.0 134.0 124.0 134.0 124.0 134.0 C124.0 134.0 124.0 134.0 124.0 134.0 C124.0 134.0 124.0 134.0 124.0 134.0 C124.0 134.0 124.0 134.0 124.0 134.0 C124.0 134.0 124.0 134.0 124.0 134.0 C124.0 134.0 124.0 134.0 124.0 134.0 C124.0 134.0 124.0 134.0 124.0 134.0 C124.0 134.0 124.0 134.0 124.0 134.0 C124.0 134.0 124.0 134.0 124.0 134.0 C124.0 134.0 124.0 134.0 124.0 134.0 C124.0 134.0 124.0 134.0 124.0 134.0 C124.0 134.0 124.0 134.0 124.0 134.0 C124.0 134.0 124.0 134.0 124.0 134.0 C124.0 134.0 124.0 134.0 124.0 134.0 C124.0 134.0 124.0 134.0 124.0 134.0 C124.0 134.0 124.0 134.0 124.0 134.0 C124.0 134.0 124.0 134.0 124.0 134.0 C124.0 134.0 124.0 134.0 124.0 134.0 C124.0 134.0 124.0 134.0 124.0 134.0 C124.0 134.0 124.0 134.0 124.0 134.0 C124.0 134.0 124.0 134.0 124.0 134.0 C124.0 134.0 124.0 134.0 124.0 134.0 C124.0 134.0 124.0 134.0 124.0 134.0 C124.0 134.0 124.0 134.0 124.0 134.0 C124.0 134.0 124.0 134.0 124.0 134.0 C124.0 134.0 124.0 134.0 124.0 134.0 C124.0 134.0 124.0 134.0 124.0 134.0 C124.0 134.0 124.0 134.0 124.0 134.0 C124.0 134.0 124.0 134.0 124.0 134.0 C124.0 134.0 124.0 134.0 124.0 134.0 C124.0 134.0 124.0 134.0 124.0 134.0 C124.0 134.0 124.0 134.0 124.0 134.0 C124.0 134.0 124.0 134.0 124.0 134.0 C124.0 134.0 124.0 134.0 124.0 134.0 C124.0 134.0 124.0 134.0 124.0 134.0 C124.0 134.0 124.0 134.0 124.0 134.0 C124.0 134.0 124.0 134.0 124.0 134.0 C124.0 134.0 124.0 134.0 124.0 134.0 C124.0 134.0 124.0 134.0 124.0 134.0 C124.0 134.0 124.0 134.0 124.0 134.0 C124.0 134.0 124.0 134.0 124.0 134.0 C124.0 134.0 124.0 134.0 124.0 134.0 C124.0 134.0 124.0 134.0 124.0 134.0 C124.0 134.0 124.0 134.0 124.0 134.0 C124.0 134.0 124.0 134.0 124.0 134.0 C124.0 134.0 124.0 134.0 124.0 134.0 C124.0 134.0 124.0 134.0 124.0 134.0 C124.0 134.0 124.0 134.0 124.0 134.0 C124.0 134.0 124.0 134.0 124.0 134.0 C124.0 134.0 124.0 134.0 124.0 134.0 C124.0 134.0 124.0 134.0 124.0 134.0 C124.0 134.0 124.0 134.0 124.0 134.0 C124.0 134.0 124.0 134.0 124.0 134.0 C124.0 134.0 124.0 134.0 124.0 134.0 C124.0 134.0 124.0 134.0 124.0 134.0 C124.0 134.0 124.0 134.0 124.0 134.0 C124.0 134.0 124.0 134.0 124.0 134.0 C124.0 134.0 124.0 134.0 124.0 134.0 C124.0 134.0 124.0 134.0 124.0 134.0 C124.0 134.0 124.0 134.0 124.0 134.0 C124.0 134.0 124.0 134.0 124.0 134.0 C124.0 134.0 124.0 134.0 124.0 134.0 C124.0 134.0 124.0 134.0 124.0 134.0 C124.0 134.0 124.0 134.0 124.0 134.0 C124.0 134.0 124.0 134.0 124.0 134.0 C124.0 134.0 124.0 134.0 124.0 134.0 C124.0 134.0 124.0 134.0 124.0 134.0 C124.0 134.0 124.0 134.0 124.0 134.0 C124.0 134.0 124.0 134.0 124.0 134.0 C124.0 134.0 124.0 134.0 124.0 134.0 C124.0 134.0 124.0 134.0 124.0 134.0 C124.0 134.0 124.0 134.0 124.0 134.0 C124.0 134.0 124.0 134.0 124.0 134.0 C124.0 134.0 124.0 134.0 124.0 134.0 C124.0 134.0 124.0 134.0 124.0 134.0 C124.0 134.0 124.0 134.0 124.0 134.0 C124.0 134.0 124.0 134.0 124.0 134.0 C124.0 134.0 124.0 134.0 124.0 134.0 C124.0 134.0 124.0 134.0 124.0 134.0 C124.0 134.0 124.0 134.0 124.0 134.0 C124.0 134.0 124.0 134.0 124.0 134.0 C124.0 134.0 124.0 134.0 124.0 134.0 C124.0 134.0 124.0 134.0 124.0 134.0 C124.0 134.0 124.0 134.0 124.0 134.0 C124.0 134.0 124.0 134.0 124.0 134.0 C124.0 134.0 124.0 134.0 124.0 134.0"></path></svg>