<svg xmlns="http://www.w3.org/2000/svg" viewBox="0.0 0.0 200.0 200.0" height="200px" width="200px"><path fill="#ee5566" fill-opacity="1.0"  filling="0" d="M74.0 58.0 L74.0 58.0 C74.0 58.0 74.0 58.0 74.0 58.0 L74.0 58.0 Z"></path>
<path fill="#ee5566" fill-opacity="1.0"  filling="0" d="M134.0 58.0 A8.0 8.0 0.0 0 0 129.0 53.0 L94.0 43.0 A7.0 7.0 0.0 0 0 90.0 47.0 L100.0 75.0 A4.0 4.0 0.0 0 0 104.0 78.0 L134.0 67.0 A8.0 8.0 0.0 0 0 134.0 58.0 L134.0 58.0 Z"></path>
<path fill="#ee5566" fill-opacity="1.0"  filling="0" d="M134.0 57.0 A8.0 8.0 0.0 0 1 134.0 63.0 L105.0 75.0 A4.0 4.0 0.0 0 1 101.0 73.0 L90.0 47.0 A7.0 7.0 0.0 0 0 89.0 48.0 L87.0 50.0 A7.0 7.0 0.0 0 0 84.0 53.0 L87.0 76.0 A7.0 7.0 0.0 0 0 91.0 81.0 L121.0 93.0 A7.0 7.0 0.0 0 0 128.0 91.0 L134.0 62.0 A7.0 7.0 0.0 0 0 134.0 57.0 L134.0 57.0 Z M99.0 85.0 L95.0 85.0 L95.0 94.0 L99.0 94.0 L99.0 85.0 L99.0 85.0 Z M101.0 85.0 L101.0 94.0 L105.0 94.0 L105.0 85.0 L101.0 85.0 L101.0 85.0 Z M107.0 85.0 L107.0 94.0 L110.0 94.0 L110.0 85.0 L107.0 85.0 L107.0 85.0 Z M113.0 85.0 L113.0 94.0 L116.0 94.0 L116.0 85.0 L113.0 85.0 L113.0 85.0 Z M118.0 85.0 L118.0 94.0 L121.0 94.0 L121.0 85.0 L118.0 85.0 L118.0 85.0 Z M122.0 85.0 L122.0 94.0 L125.0 94.0 L125.0 85.0 L122.0 85.0 L122.0 85.0 Z M128.0 85.0 L126.0 85.0 L126.0 94.0 L128.0 94.0 L128.0 85.0 L128.0 85.0 Z M130.0 94.0 L133.0 94.0 L133.0 85.0 L130.0 85.0 L130.0 94.0 L130.0 94.0 Z M135.0 85.0 L135.0 94.0 L138.0 94.0 L138.0 85.0 L135.0 85.0 L135.0 85.0 Z M140.0 85.0 L140.0 94.0 L143.0 94.0 L143.0 85.0 L140.0 85.0 L140.0 85.0 Z M145.0 85.0 L145.0 94.0 L148.0 94.0 L148.0 85.0 L145.0 85.0 L145.0 85.0 Z M150.0 85.0 L150.0 94.0 L153.0 94.0 L153.0 85.0 L150.0 85.0 L150.0 85.0 Z M155.0 85.0 L155.0 94.0 L158.0 94.0 L158.0 85.0 L155.0 85.0 L155.0 85.0 Z M160.0 85.0 L160.0 94.0 L163.0 94.0 L163.0 85.0 L160.0 85.0 L160.0 85.0 Z M165.0 85.0 L165.0 94.0 L168.0 94.0 L168.0 85.0 L165.0 85.0 L165.0 85.0 Z M170.0 85.0 L170.0 94.0 L173.0 94.0 L173.0 85.0 L170.0 85.0 L170.0 85.0 Z M175.0 85.0 L175.0 94.0 L178.0 94.0 L178.0 85.0 L175.0 85.0 L175.0 85.0 Z M180.0 85.0 L180.0 94.0 L183.0 94.0 L183.0 85.0 L180.0 85.0 L180.0 85.0 Z M185.0 85.0 L185.0 94.0 L187.0 94.0 L187.0 85.0 L185.0 85.0 L185.0 85.0 Z M190.0 85.0 L190.0 94.0 L193.0 94.0 L193.0 85.0 L190.0 85.0 L190.0 85.0 Z M195.0 85.0 L195.0 94.0 L198.0 94.0 L198.0 85.0 L195.0 85.0 L195.0 85.0 Z"></path>
<path fill="#ee5566" fill-opacity="1.0"  filling="0" d="M117.0 52.0 L117.0 52.0 C118.0 52.0 118.0 52.0 118.0 52.0 L117.0 52.0 C117.0 52.0 117.0 52.0 117.0 52.0 L117.0 52.0 Z"></path>
<path fill="#ee5566" fill-opacity="1.0"  filling="0" d="M118.0 56.0 L118.0 56.0 C118.0 56.0 118.0 56.0 118.0 56.0 L118.0 56.0 C118.0 56.0 118.0 56.0 118.0 56.0 L118.0 56.0 Z"></path>
<path fill="#ee5566" fill-opacity="1.0"  filling="0" d="M118.0 58.0 L118.0 58.0 C118.0 58.0 118.0 58.0 118.0 58.0 L118.0 58.0 C118.0 58.0 118.0 58.0 118.0 58.0 L118.0 58.0 Z"></path>
<path fill="#ee5566" fill-opacity="1.0"  filling="0" d="M118.0 55.0 L118.0 55.0 C118.0 55.0 118.0 55.0 118.0 55.0 L118.0 55.0 C118.0 55.0 118.0 55.0 118.0 55.0 L118.0 55.0 Z"></path>
<path fill="#ee5566" fill-opacity="1.0"  filling="0" d="M118.0 53.0 L118.0 53.0 C118.0 53.0 118.0 53.0 118.0 53.0 L118.0 53.0 C118.0 53.0 118.0 53.0 118.0 53.0 L118.0 53.0 Z"></path>
<path fill="#ee5566" fill-opacity="1.0"  filling="0" d="M118.0 51.0 L118.0 51.0 C118.0 51.0 118.0 51.0 118.0 51.0 L118.0 51.0 C118.0 51.0 118.0 51.0 118.0 51.0 L118.0 51.0 Z"></path>
<path fill="#ee5566" fill-opacity="1.0"  filling="0" d="M118.0 49.0 L118.0 49.0 C118.0 49.0 118.0 49.0 118.0 49.0 L118.0 49.0 C118.0 49.0 118.0 49.0 118.0 49.0 L118.0 49.0 Z"></path>
<path fill="#ee5566" fill-opacity="1.0"  filling="0" d="M118.0 47.0 L118.0 47.0 C118.0 47.0 118.0 47.0 118.0 47.0 L118.0 47.0 C118.0 47.0 118.0 47.0 118.0 47.0 L118.0 47.0 Z"></path>
<path fill="#ee5566" fill-opacity="1.0"  filling="0" d="M118.0 44.0 L118.0 44.0 C118.0 44.0 118.0 44.0 118.0 44.0 L118.0 44.0 C118.0 44.0 118.0 44.0 118.0 44.0 L118.0 44.0 Z"></path>
<path fill="#ee5566" fill-opacity="1.0"  filling="0" d="M118.0 41.0 L118.0 41.0 C118.0 41.0 118.0 41.0 118.0 41.0 L118.0 41.0 C118.0 41.0 118.0 41.0 118.0 41.0 L118.0 41.0 Z"></path>
<path fill="#ee5566" fill-opacity="1.0"  filling="0" d="M118.0 40.0 L118.0 40.0 C118.0 40.0 118.0 40.0 118.0 40.0 L118.0 40.0 C118.0 40.0 118.0 40.0 118.0 40.0 L118.0 40.0 Z"></path>
<path fill="#ee5566" fill-opacity="1.0"  filling="0" d="M118.0 37.0 L118.0 37.0 C118.0 37.0 118.0 37.0 118.0 37.0 L118.0 37.0 C118.0 37.0 118.0 37.0 118.0 37.0 L118.0 37.0 Z"></path>
<path fill="#ee5566" fill-opacity="1.0"  filling="0" d="M118.0 35.0 L118.0 35.0 C118.0 35.0 118.0 35.0 118.0 35.0 L118.0 35.0 C118.0 35.0 118.0 35.0 118.0 35.0 L118.0 35.0 Z"></path>
<path fill="#ee5566" fill-opacity="1.0"  filling="0" d="M118.0 32.0 L118.0 32.0 C118.0 32.0 118.0 32.0 118.0 32.0 L118.0 32.0 C118.0 32.0 118.0 32.0 118.0 32.0 L118.0 32.0 Z"></path>
<path fill="#ee5566" fill-opacity="1.0"  filling="0" d="M118.0 30.0 L118.0 30.0 C118.0 30.0 118.0 30.0 118.0 30.0 L118.0 30.0 C118.0 30.0 118.0 30.0 118.0 30.0 L118.0 30.0 Z"></path>
<path fill="#ee5566" fill-opacity="1.0"  filling="0" d="M118.0 28.0 L118.0 28.0 C118.0 28.0 118.0 28.0 118.0 28.0 L118.0 28.0 C118.0 28.0 118.0 28.0 118.0 28.0 L118.0 28.0 Z"></path>
<path fill="#ee5566" fill-opacity="1.0"  filling="0" d="M118.0 26.0 L118.0 26.0 C118.0 26.0 118.0 26.0 118.0 26.0 L118.0 26.0 C118.0 26.0 118.0 26.0 118.0 26.0 L118.0 26.0 Z"></path>
<path fill="#ee5566" fill-opacity="1.0"  filling="0" d="M118.0 23.0 L118.0 23.0 C118.0 23.0 118.0 23.0 118.0 23.0 L118.0 23.0 C118.0 23.0 118.0 23.0 118.0 23.0 L118.0 23.0 Z"></path>
<path fill="#ee5566" fill-opacity="1.0"  filling="0" d="M118.0 21.0 L118.0 21.0 C118.0 21.0 118.0 21.0 118.0 21.0 L118.0 21.0 C118.0 21.0 118.0 21.0 118.0 21.0 L118.0 21.0 Z"></path>
<path fill="#ee5566" fill-opacity="1.0"  filling="0" d="M118.0 18.0 L118.0 18.0 C118.0 18.0 118.0 18.0 118.0 18.0 L118.0 18.0 C118.0 18.0 118.0 18.0 118.0 18.0 L118.0 18.0 Z"></path>
<path fill="#ee5566" fill-opacity="1.0"  filling="0" d="M118.0 16.0 L118.0 16.0 C118.0 16.0 118.0 16.0 118.0 16.0 L118.0 16.0 C118.0 16.0 118.0 16.0 118.0 16.0 L118.0 16.0 Z"></path>
<path fill="#ee5566" fill-opacity="1.0"  filling="0" d="M118.0 14.0 L118.0 14.0 C118.0 14.0 118.0 14.0 118.0 14.0 L118.0 14.0 C118.0 14.0 118.0 14.0 118.0 14.0 L118.0 14.0 Z"></path>
<path fill="#ee5566" fill-opacity="1.0"  filling="0" d="M118.0 12.0 L118.0 12.0 C118.0 12.0 118.0 12.0 118.0 12.0 L118.0 12.0 C118.0 12.0 118.0 12.0 118.0 12.0 L118.0 12.0 Z"></path>
<path fill="#ee5566" fill-opacity="1.0"  filling="0" d="M118.0 10.0 L118.0 10.0 C118.0 10.0 118.0 10.0 118.0 10.0 L118.0 10.0 C118.0 10.0 118.0 10.0 118.0 10.0 L118.0 10.0 Z"></path>
<path fill="#ee5566" fill-opacity="1.0"  filling="0" d="M118.0 7.0 L118.0 7.0 C118.0 7.0 118.0 7.0 118.0 7.0 L118.0 7.0 C118.0 7.0 118.0 7.0 118.0 7.0 L118.0 7.0 Z"></path>
<path fill="#ee5566" fill-opacity="1.0"  filling="0" d="M118.0 5.0 L118.0 5.0 C118.0 5.0 118.0 5.0 118.0 5.0 L118.0 5.0 C118.0 5.0 118.0 5.0 118.0 5.0 L118.0 5.0 Z"></path>
<path fill="#ee5566" fill-opacity="1.0"  filling="0" d="M118.0 3.0 L118.0 3.0 C118.0 3.0 118.0 3.0 118.0 3.0 L118.0 3.0 C118.0 3.0 118.0 3.0 118.0 3.0 L118.0 3.0 Z"></path>
<path fill="#ee5566" fill-opacity="1.0"  filling="0" d="M118.0 0.0 L118.0 0.0 C118.0 0.0 118.0 0.0 118.0 0.0 L118.0 0.0 C118.0 0.0 118.0 0.0 118.0 0.0 L118.0 0.0 Z"></path>
<path fill="#ee5566" fill-opacity="1.0"  filling="0" d="M118.0 2.0 L118.0 2.0 C118.0 2.0 118.0 2.0 118.0 2.0 L118.0 2.0 C118.0 2.0 118.0 2.0 118.0 2.0 L118.0 2.0 Z"></path>
<path fill="#ee5566" fill-opacity="1.0"  filling="0" d="M118.0 4.0 L118.0 4.0 C118.0 4.0 118.0 4.0 118.0 4.0 L118.0 4.0 C118.0 4.0 118.0 4.0 118.0 4.0 L118.0 4.0 Z"></path>
<path fill="#ee5566" fill-opacity="1.0"  filling="0" d="M118.0 6.0 L118.0 6.0 C118.0 6.0 118.0 6.0 118.0 6.0 L118.0 6.0 C118.0 6.0 118.0 6.0 118.0 6.0 L118.0 6.0 Z"></path>
<path fill="#ee5566" fill-opacity="1.0"  filling="0" d="M118.0 8.0 L118.0 8.0 C118.0 8.0 118.0 8.0 118.0 8.0 L118.0 8.0 C118.0 8.0 118.0 8.0 118.0 8.0 L118.0 8.0 Z"></path>
<path fill="#ee5566" fill-opacity="1.0"  filling="0" d="M118.0 10.0 L118.0 10.0 C118.0 10.0 118.0 10.0 118.0 10.0 L118.0 10.0 C118.0 10.0 118.0 10.0 118.0 10.0 L118.0 10.0 Z"></path>
<path fill="#ee5566" fill-opacity="1.0"  filling="0" d="M118.0 12.0 L118.0 12.0 C118.0 12.0 118.0 12.0 118.0 12.0 L118.0 12.0 C118.0 12.0 118.0 12.0 118.0 12.0 L118.0 12.0 Z"></path>
<path fill="#ee5566" fill-opacity="1.0"  filling="0" d="M118.0 14.0 L118.0 14.0 C118.0 14.0 118.0 14.0 118.0 14.0 L118.0 14.0 C118.0 14.0 118.0 14.0 118.0 14.0 L118.0 14.0 Z"></path>
<path fill="#ee5566" fill-opacity="1.0"  filling="0" d="M118.0 16.0 L118.0 16.0 C118.0 16.0 118.0 16.0 118.0 16.0 L118.0 16.0 C118.0 16.0 118.0 16.0 118.0 16.0 L118.0 16.0 Z"></path>
<path fill="#ee5566" fill-opacity="1.0"  filling="0" d="M118.0 18.0 L118.0 18.0 C118.0 18.0 118.0 18.0 118.0 18.0 L118.0 18.0 C118.0 18.0 118.0 18.0 118.0 18.0 L118.0 18.0 Z"></path>
<path fill="#ee5566" fill-opacity="1.0"  filling="0" d="M118.0 21.0 L118.0 21.0 C118.0 21.0 118.0 21.0 118.0 21.0 L118.0 21.0 C118.0 21.0 118.0 21.0 118.0 21.0 L118.0 21.0 Z"></path>
<path fill="#ee5566" fill-opacity="1.0"  filling="0" d="M118.0 23.0 L118.0 23.0 C118.0 23.0 118.0 23.0 118.0 23.0 L118.0 23.0 C118.0 23.0 118.0 23.0 118.0 23.0 L118.0 23.0 Z"></path>
<path fill="#000000" fill-opacity="1.0"  filling="0" d="M118.0 26.0 L118.0 26.0"></path></svg>