<svg xmlns="http://www.w3.org/2000/svg" viewBox="0.0 0.0 200.0 200.0" height="200px" width="200px"><path fill="#000000" fill-opacity="1.0"  filling="0" d="M82.0 57.0 L78.0 74.0 C78.0 75.0 77.0 76.0 77.0 77.0 L77.0 77.0 C77.0 78.0 76.0 79.0 76.0 80.0 L75.0 92.0 C75.0 93.0 74.0 94.0 74.0 96.0 L74.0 96.0 C74.0 97.0 74.0 98.0 74.0 99.0 L69.0 108.0 C69.0 109.0 68.0 110.0 68.0 111.0 L68.0 111.0 C67.0 112.0 67.0 113.0 67.0 114.0 L66.0 117.0 C65.0 118.0 65.0 119.0 65.0 120.0 L65.0 120.0 C64.0 122.0 64.0 123.0 64.0 124.0 L63.0 126.0 C63.0 126.0 63.0 126.0 63.0 126.0 C63.0 128.0 64.0 130.0 67.0 131.0 L67.0 131.0 L67.0 132.0 L67.0 132.0 L67.0 132.0 L67.0 132.0 L67.0 132.0 L67.0 132.0 L68.0 132.0 L68.0 132.0 L68.0 132.0 L68.0 132.0 L68.0 132.0 L68.0 132.0 L68.0 132.0 L68.0 132.0 L68.0 132.0 L68.0 132.0 L68.0 132.0 L69.0 132.0 L69.0 132.0 L69.0 132.0 L69.0 132.0 L69.0 132.0 L69.0 132.0 L70.0 132.0 L70.0 132.0 L70.0 132.0 L70.0 132.0 L70.0 132.0 L70.0 132.0 L70.0 132.0 L70.0 132.0 L70.0 132.0 L70.0 132.0 L70.0 132.0 L70.0 132.0 L70.0 132.0 L70.0 132.0 L71.0 132.0 L71.0 132.0 L71.0 132.0 L71.0 132.0 L71.0 132.0 L71.0 132.0 L71.0 132.0 L71.0 132.0 L71.0 132.0 L71.0 132.0 L71.0 132.0 L72.0 132.0 L72.0 132.0 L72.0 132.0 L72.0 132.0 L72.0 132.0 L72.0 132.0 L72.0 132.0 L72.0 132.0 L72.0 132.0 L72.0 132.0 L72.0 132.0 L73.0 132.0 L73.0 132.0 L73.0 132.0 L73.0 132.0 L73.0 132.0 L73.0 132.0 L73.0 132.0 L73.0 132.0 L73.0 132.0 L73.0 132.0 L73.0 132.0 L74.0 132.0 L74.0 132.0 L74.0 132.0 L74.0 132.0 L74.0 132.0 L74.0 132.0 L74.0 132.0 L74.0 132.0 L74.0 132.0 L74.0 132.0 L74.0 132.0 L75.0 132.0 L75.0 132.0 L75.0 132.0 L75.0 132.0 L75.0 132.0 L75.0 132.0 L75.0 132.0 L75.0 132.0 L75.0 132.0 L75.0 132.0 L75.0 132.0 L75.0 132.0 L76.0 132.0 L76.0 132.0 L76.0 132.0 L76.0 132.0 L76.0 132.0 L76.0 132.0 L76.0 132.0 L76.0 132.0 L76.0 132.0 L76.0 132.0 L77.0 132.0 L77.0 132.0 L77.0 132.0 L77.0 132.0 L77.0 132.0 L77.0 132.0 L77.0 132.0 L77.0 132.0 L77.0 132.0 L77.0 132.0 L78.0 132.0 L78.0 132.0 L78.0 132.0 L78.0 132.0 L78.0 132.0 L78.0 132.0 L78.0 132.0 L78.0 132.0 L78.0 132.0 L78.0 132.0 L78.0 132.0 L78.0 132.0 L79.0 132.0 L79.0 132.0 L79.0 132.0 L79.0 132.0 L79.0 132.0 L79.0 132.0 L79.0 132.0 L79.0 132.0 L79.0 132.0 L79.0 132.0 L79.0 132.0 L80.0 132.0 L80.0 132.0 L80.0 132.0 L80.0 132.0 L80.0 132.0 L80.0 132.0 L80.0 132.0 L80.0 132.0 L81.0 132.0 L81.0 132.0 L82.0 132.0 L82.0 132.0 L82.0 132.0 L82.0 132.0 L82.0 132.0 L82.0 132.0 L82.0 132.0 L82.0 132.0 L82.0 132.0 L82.0 132.0 L82.0 132.0 L82.0 132.0 L82.0 132.0 L83.0 132.0 L83.0 132.0 L83.0 132.0 L83.0 132.0 L83.0 132.0 L83.0 132.0 L83.0 132.0 L83.0 132.0 L84.0 132.0 L84.0 132.0 L84.0 132.0 L84.0 132.0 L84.0 132.0 L84.0 132.0 L84.0 132.0 L84.0 132.0 L85.0 132.0 L85.0 132.0 L85.0 132.0 L85.0 132.0 L85.0 132.0 L85.0 132.0 L85.0 132.0 L86.0 132.0 L86.0 132.0 L86.0 132.0 L86.0 132.0 L86.0 132.0 L86.0 132.0 L87.0 132.0 L87.0 132.0 L87.0 132.0 L87.0 132.0 L87.0 132.0 L87.0 132.0 L88.0 132.0 L88.0 132.0 L88.0 132.0 L88.0 132.0 L88.0 132.0 L88.0 132.0 L89.0 132.0 L89.0 132.0 L89.0 132.0 L89.0 132.0 L89.0 132.0 L90.0 132.0 L90.0 132.0 L90.0 132.0 L90.0 132.0 L90.0 132.0 L91.0 132.0 L91.0 132.0 L91.0 132.0 L91.0 132.0 L91.0 132.0 L91.0 132.0 L92.0 132.0 L92.0 132.0 L92.0 132.0 L92.0 132.0 L92.0 132.0 L93.0 132.0 L93.0 132.0 L93.0 132.0 L93.0 132.0 L93.0 132.0 L94.0 132.0 L94.0 132.0 L94.0 132.0 L94.0 132.0 L94.0 132.0 L94.0 132.0 L94.0 132.0 L95.0 132.0 L95.0 132.0 L95.0 132.0 L95.0 132.0 L95.0 132.0 L95.0 132.0 L96.0 132.0 L96.0 132.0 L96.0 132.0 L96.0 132.0 L96.0 132.0 L96.0 132.0 L96.0 132.0 L97.0 132.0 L97.0 132.0 L97.0 132.0 L97.0 132.0 L97.0 132.0 L97.0 132.0 L97.0 132.0 L97.0 132.0 L97.0 132.0 L97.0 132.0 L97.0 132.0 L97.0 132.0 L98.0 132.0 L98.0 132.0 L98.0 132.0 L98.0 132.0 L98.0 132.0 L98.0 132.0 L98.0 132.0 L98.0 132.0 L98.0 132.0 L98.0 132.0 L99.0 132.0 L99.0 132.0 L99.0 132.0 L99.0 132.0 L99.0 132.0 L99.0 132.0 L99.0 132.0 L99.0 132.0 L99.0 132.0 L99.0 132.0 L100.0 132.0 L100.0 132.0 L100.0 132.0 L100.0 132.0 L100.0 132.0 L100.0 132.0 L100.0 132.0 L100.0 132.0 L100.0 132.0 L100.0 132.0 L101.0 132.0 L101.0 132.0 L101.0 132.0 L101.0 132.0 L101.0 132.0 L101.0 132.0 L101.0 132.0 L101.0 132.0 L101.0 132.0 L101.0 132.0 L102.0 132.0 L102.0 132.0 L102.0 132.0 L102.0 132.0 L102.0 132.0 L102.0 132.0 L102.0 132.0 L102.0 132.0 L102.0 132.0 L102.0 132.0 L103.0 132.0 L103.0 132.0 L103.0 132.0 L103.0 132.0 L103.0 132.0 L103.0 132.0 L103.0 132.0 L103.0 132.0 L103.0 132.0 L103.0 132.0 L104.0 132.0 L104.0 132.0 L104.0 132.0 L104.0 132.0 L104.0 132.0 L104.0 132.0 L104.0 132.0 L104.0 132.0 L104.0 132.0 L104.0 132.0 L104.0 132.0 L105.0 132.0 L105.0 132.0 L105.0 132.0 L105.0 132.0 L105.0 132.0 L105.0 132.0 L106.0 132.0 L106.0 132.0 L106.0 132.0 L106.0 132.0 L106.0 132.0 L106.0 132.0 L106.0 132.0 L107.0 132.0 L107.0 132.0 L107.0 132.0 L107.0 132.0 L107.0 132.0 L107.0 132.0 L107.0 132.0 L107.0 132.0 L108.0 132.0 L108.0 132.0 L108.0 132.0 L108.0 132.0 L108.0 132.0 L108.0 132.0 L108.0 132.0 L109.0 132.0 L109.0 132.0 L109.0 132.0 L109.0 132.0 L109.0 132.0 L109.0 132.0 L109.0 132.0 L109.0 132.0 L109.0 132.0 L109.0 132.0 L109.0 132.0 L109.0 132.0 L109.0 132.0 L109.0 132.0 L109.0 132.0 L109.0 132.0 L109.0 132.0 L109.0 132.0 L109.0 132.0 L109.0 132.0 L109.0 132.0 L109.0 132.0 L109.0 132.0 L109.0 132.0 L109.0 132.0 L109.0 132.0 L109.0 132.0 L109.0 132.0 L109.0 132.0 L109.0 132.0 L109.0 132.0 L109.0 132.0 L109.0 132.0 L109.0 132.0 L109.0 132.0 L109.0 132.0 L109.0 132.0 L109.0 132.0 L109.0 132.0 L109.0 132.0 L109.0 132.0 L109.0 132.0 L109.0 132.0 L109.0 132.0 L109.0 132.0 L109.0 132.0 L109.0 132.0 L109.0 132.0 L109.0 132.0 L109.0 132.0 L109.0 132.0 L109.0 132.0 L109.0 132.0 L109.0 132.0 L109.0 132.0 L109.0 132.0 L109.0 132.0 L109.0 132.0 L109.0 132.0 L109.0 132.0 L109.0 132.0 L109.0 132.0 L109.0 132.0 L109.0 132.0 L109.0 132.0 L109.0 132.0 L109.0 132.0 L109.0 132.0 L109.0 132.0 L109.0 132.0 L109.0 132.0 L109.0 132.0 L109.0 132.0 L109.0 132.0 L109.0 132.0 L109.0 132.0 L109.0 132.0 L109.0 132.0 L109.0 132.0 L109.0 132.0 L109.0 132.0 L109.0 132.0 L109.0 132.0 L109.0 132.0 L109.0 132.0 L109.0 132.0 L109.0 132.0 L109.0 132.0 L109.0 132.0 L109.0 132.0 L109.0 132.0 L109.0 132.0 L109.0 132.0 L109.0 132.0 L109.0 132.0 L109.0 132.0 L109.0 132.0 L109.0 132.0 L109.0 132.0 L109.0 132.0 L109.0 132.0 L109.0 132.0 L109.0 132.0 L109.0 132.0 L109.0 132.0 L109.0 132.0 L109.0 132.0 L109.0 132.0 L109.0 132.0 L109.0 132.0 L109.0 132.0 L109.0 132.0 L109.0 132.0 L109.0 132.0 L109.0 132.0 L109.0 132.0 L109.0 132.0 L109.0 132.0 L109.0 132.0 L109.0 132.0 L109.0 132.0 L109.0 132.0 L109.0 132.0 L109.0 132.0 L109.0 132.0 L109.0 132.0 L109.0 132.0 L109.0 132.0 L109.0 132.0 L109.0 132.0 L109.0 132.0 L109.0 132.0 L109.0 132.0 L109.0 132.0 L109.0 132.0 L109.0 132.0 L109.0 132.0 L109.0 132.0 L109.0 132.0 L109.0 132.0 L109.0 132.0 L109.0 132.0 L109.0 132.0 L109.0 132.0 L109.0 132.0 L109.0 132.0 L109.0 132.0 L109.0 132.0 L109.0 132.0 L109.0 132.0 L109.0 132.0 L109.0 132.0 L109.0 132.0 L109.0 132.0 L109.0 132.0 L109.0 132.0 L109.0 132.0 L109.0 132.0 L109.0 132.0 L109.0 132.0 L109.0 132.0 L109.0 132.0 L109.0 132.0 L109.0 132.0 L109.0 132.0 L109.0 132.0 L109.0 132.0 L109.0 132.0 L109.0 132.0 L109.0 132.0 L109.0 132.0 L109.0 132.0 L109.0 132.0 L109.0 132.0 L109.0 132.0 L109.0 132.0 L109.0 132.0 L109.0 132.0 L109.0 132.0 L109.0 132.0 L109.0 132.0 L109.0 132.0 L109.0 132.0 L109.0 132.0 L109.0 132.0 L109.0 132.0 L109.0 132.0 L109.0 132.0 L109.0 132.0 L109.0 132.0 L109.0 132.0 L109.0 132.0 L109.0 132.0 L109.0 132.0 L109.0 132.0 L109.0 132.0 L109.0 132.0 L109.0 132.0 L109.0 132.0 L109.0 132.0 L109.0 132.0 L109.0 132.0 L109.0 132.0 L109.0 132.0 L109.0 132.0 L109.0 132.0 L109.0 132.0 L109.0 132.0 L109.0 132.0 L109.0 132.0 L109.0 132.0 L109.0 132.0 L109.0 132.0 L109.0 132.0 L109.0 132.0 L109.0 132.0 L109.0 132.0 L109.0 132.0 L109.0 132.0 L109.0 132.0 L109.0 132.0 L109.0 132.0 L109.0 132.0 L109.0 132.0 L109.0 132.0 L109.0 132.0 L109.0 132.0 L109.0 132.0 L109.0 132.0 L109.0 132.0 L109.0 132.0 L109.0 132.0 L109.0 132.0 L109.0 132.0 L109.0 132.0 L109.0 132.0 L109.0 132.0 L109.0 132.0 L109.0 132.0 L109.0 132.0 L109.0 132.0 L109.0 132.0 L109.0 132.0 L109.0 132.0 L109.0 132.0 L109.0 132.0 L109.0 132.0 L109.0 132.0 L109.0 132.0 L109.0 132.0 L109.0 132.0 L109.0 132.0 L109.0 132.0 L109.0 132.0 L109.0 132.0 L109.0 132.0 L109.0 132.0 L109.0 132.0 L109.0 132.0 L109.0 132.0 L109.0 132.0 L109.0 132.0 L109.0 132.0 L109.0 132.0 L109.0 132.0 L109.0 132.0 L109.0 132.0 L109.0 132.0 L109.0 132.0 L109.0 132.0 L109.0 132.0 L109.0 132.0 L109.0 132.0 L109.0 132.0 L109.0 132.0 L109.0 132.0 L109.0 132.0 L109.0 132.0 L109.0 132.0 L109.0 132.0 L109.0 132.0 L109.0 132.0 L109.0 132.0 L109.0 132.0 L109.0 132.0 L109.0 132.0 L109.0 132.0 L109.0 132.0 L109.0 132.0 L109.0 132.0 L109.0 132.0 L109.0 132.0 L109.0 132.0 L109.0 132.0 L109.0 132.0 L109.0 132.0 L109.0 132.0 L109.0 132.0 L109.0 132.0 L109.0 132.0 L109.0 132.0 L109.0 132.0 L109.0 132.0 L109.0 132.0 L109.0 132.0 L109.0 132.0 L109.0 132.0 L109.0 132.0 L109.0 132.0 L109.0 132.0 L109.0 132.0 L109.0 132.0 L109.0 132.0 L109.0 132.0 L109.0 132.0 L109.0 132.0 L109.0 132.0 L109.0 132.0 L109.0 132.0 L109.0 132.0 L109.0 132.0 L109.0 132.0 L109.0 132.0 L109.0 132.0 L109.0 132.0 L109.0 132.0 L109.0 132.0 L109.0 132.0 L109.0 132.0 L109.0 132.0 L109.0 132.0 L109.0 132.0 L109.0 132.0 L109.0 132.0 L109.0 132.0 L109.0 132.0 L109.0 132.0 L109.0 132.0 L109.0 132.0 L109.0 132.0 L109.0 132.0 L109.0 132.0 L109.0 132.0 L109.0 132.0 L109.0 132.0 L109.0 132.0 L109.0 132.0 L109.0 132.0 L109.0 132.0 L109.0 132.0 L109.0 132.0 L109.0 132.0 L109.0 132.0 L109.0 132.0 L109.0 132.0 L109.0 132.0 L109.0 132.0 L109.0 132.0 L109.0 132.0 L109.0 132.0 L109.0 132.0 L109.0 132.0 L109.0 132.0 L109.0 132.0 L109.0 132.0 L109.0 132.0 L109.0 132.0 L109.0 132.0 L109.0 132.0 L109.0 132.0 L109.0 132.0 L109.0 132.0 L109.0 132.0 L109.0 132.0 L109.0 132.0 L109.0 132.0 L109.0 132.0"></path></svg>