<svg xmlns="http://www.w3.org/2000/svg" viewBox="0.0 0.0 200.0 200.0" height="200px" width="200px"><path fill="#ffaabb" fill-opacity="1.0"  filling="0" d="M71.0 65.0 L52.0 57.0 C52.0 57.0 52.0 57.0 53.0 56.0 L63.0 43.0 C63.0 42.0 63.0 42.0 64.0 42.0 L71.0 64.0 C71.0 64.0 71.0 65.0 71.0 65.0 L71.0 65.0 Z"></path>
<path fill="#ffaabb" fill-opacity="1.0"  filling="0" d="M59.0 68.0 L54.0 67.0 C54.0 67.0 54.0 67.0 54.0 67.0 L54.0 64.0 C54.0 64.0 54.0 64.0 54.0 64.0 L59.0 65.0 C59.0 65.0 59.0 65.0 59.0 65.0 L59.0 67.0 C59.0 67.0 59.0 68.0 59.0 68.0 L59.0 68.0 Z"></path>
<path fill="#ffaabb" fill-opacity="1.0"  filling="0" d="M64.0 71.0 L57.0 73.0 C56.0 73.0 56.0 73.0 56.0 73.0 L56.0 74.0 C56.0 74.0 56.0 74.0 56.0 74.0 L64.0 72.0 C64.0 72.0 64.0 72.0 64.0 72.0 L64.0 71.0 C64.0 71.0 64.0 71.0 64.0 71.0 L64.0 71.0 Z"></path>
<path fill="#ffaabb" fill-opacity="1.0"  filling="0" d="M69.0 71.0 L63.0 75.0 C63.0 75.0 63.0 75.0 63.0 75.0 L64.0 78.0 C64.0 79.0 64.0 79.0 64.0 78.0 L70.0 73.0 C70.0 72.0 70.0 72.0 70.0 72.0 L69.0 71.0 C69.0 71.0 69.0 71.0 69.0 71.0 L69.0 71.0 Z"></path>
<path fill="#ffaabb" fill-opacity="1.0"  filling="0" d="M77.0 68.0 L73.0 67.0 C73.0 67.0 73.0 67.0 73.0 67.0 L73.0 65.0 C73.0 65.0 73.0 65.0 74.0 65.0 L77.0 66.0 C78.0 66.0 78.0 66.0 78.0 66.0 L78.0 68.0 C78.0 68.0 77.0 68.0 77.0 68.0 L77.0 68.0 Z"></path>
<path fill="#ffaabb" fill-opacity="1.0"  filling="0" d="M78.0 72.0 L78.0 73.0 C78.0 73.0 78.0 73.0 78.0 73.0 L84.0 70.0 C84.0 70.0 84.0 70.0 84.0 69.0 L84.0 68.0 C84.0 68.0 84.0 68.0 83.0 68.0 L78.0 71.0 C78.0 71.0 78.0 71.0 78.0 72.0 L78.0 72.0 Z"></path>
<path fill="#ffaabb" fill-opacity="1.0"  filling="0" d="M77.0 78.0 L77.0 78.0 C77.0 78.0 77.0 78.0 77.0 78.0 L84.0 75.0 C85.0 75.0 85.0 75.0 85.0 75.0 L85.0 73.0 C85.0 73.0 85.0 73.0 84.0 73.0 L77.0 77.0 C77.0 77.0 77.0 77.0 77.0 78.0 L77.0 78.0 Z"></path>
<path fill="#ffaabb" fill-opacity="1.0"  filling="0" d="M73.0 92.0 L73.0 91.0 C73.0 91.0 73.0 91.0 73.0 91.0 L80.0 88.0 C80.0 88.0 80.0 88.0 80.0 88.0 L80.0 89.0 C80.0 89.0 80.0 89.0 80.0 89.0 L74.0 92.0 C74.0 92.0 74.0 92.0 73.0 92.0 L73.0 92.0 Z"></path>
<path fill="#ffaabb" fill-opacity="1.0"  filling="0" d="M71.0 96.0 L71.0 95.0 C71.0 95.0 71.0 95.0 72.0 95.0 L78.0 92.0 C78.0 92.0 78.0 92.0 78.0 93.0 L78.0 94.0 C79.0 94.0 78.0 94.0 78.0 94.0 L72.0 96.0 C72.0 97.0 71.0 97.0 71.0 96.0 L71.0 96.0 Z"></path>
<path fill="#ffaabb" fill-opacity="1.0"  filling="0" d="M69.0 103.0 L69.0 102.0 C69.0 102.0 69.0 102.0 70.0 102.0 L76.0 98.0 C77.0 98.0 77.0 98.0 77.0 99.0 L77.0 100.0 C77.0 100.0 77.0 100.0 77.0 100.0 L70.0 103.0 C70.0 103.0 69.0 103.0 69.0 103.0 L69.0 103.0 Z"></path>
<path fill="#ffaabb" fill-opacity="1.0"  filling="0" d="M67.0 110.0 L67.0 110.0 C67.0 110.0 67.0 109.0 68.0 110.0 L75.0 107.0 C75.0 107.0 75.0 107.0 75.0 107.0 L75.0 108.0 C75.0 108.0 75.0 109.0 75.0 109.0 L68.0 111.0 C67.0 111.0 67.0 110.0 67.0 110.0 L67.0 110.0 Z"></path>
<path fill="#ffaabb" fill-opacity="1.0"  filling="0" d="M65.0 116.0 L65.0 115.0 C65.0 115.0 66.0 115.0 66.0 115.0 L73.0 112.0 C73.0 112.0 74.0 112.0 74.0 112.0 L74.0 113.0 C74.0 114.0 74.0 114.0 73.0 114.0 L66.0 117.0 C65.0 117.0 65.0 116.0 65.0 116.0 L65.0 116.0 Z"></path>
<path fill="#ffaabb" fill-opacity="1.0"  filling="0" d="M63.0 124.0 L63.0 124.0 C63.0 124.0 63.0 124.0 63.0 124.0 L70.0 121.0 C70.0 120.0 71.0 121.0 71.0 121.0 L71.0 122.0 C71.0 123.0 71.0 123.0 70.0 123.0 L64.0 125.0 C63.0 125.0 63.0 125.0 63.0 124.0 L63.0 124.0 Z"></path>
<path fill="#ffaabb" fill-opacity="1.0"  filling="0" d="M67.0 131.0 L67.0 130.0 C67.0 130.0 67.0 130.0 67.0 130.0 L73.0 127.0 C73.0 127.0 74.0 127.0 74.0 128.0 L74.0 129.0 C74.0 129.0 74.0 129.0 73.0 129.0 L68.0 132.0 C67.0 132.0 67.0 132.0 67.0 131.0 L67.0 131.0 Z"></path>
<path fill="#ffaabb" fill-opacity="1.0"  filling="0" d="M73.0 133.0 L73.0 132.0 C73.0 132.0 73.0 132.0 74.0 132.0 L80.0 130.0 C80.0 130.0 80.0 130.0 80.0 130.0 L80.0 131.0 C80.0 131.0 80.0 132.0 79.0 132.0 L74.0 133.0 C73.0 134.0 73.0 133.0 73.0 133.0 L73.0 133.0 Z"></path>
<path fill="#ffaabb" fill-opacity="1.0"  filling="0" d="M82.0 136.0 L82.0 135.0 C82.0 135.0 82.0 135.0 83.0 135.0 L88.0 132.0 C89.0 132.0 89.0 132.0 89.0 132.0 L89.0 133.0 C90.0 133.0 89.0 134.0 89.0 134.0 L83.0 136.0 C82.0 137.0 82.0 136.0 82.0 136.0 L82.0 136.0 Z"></path>
<path fill="#ffaabb" fill-opacity="1.0"  filling="0" d="M90.0 138.0 L90.0 137.0 C90.0 137.0 90.0 136.0 91.0 136.0 L97.0 134.0 C97.0 134.0 98.0 134.0 98.0 135.0 L98.0 136.0 C98.0 136.0 98.0 136.0 97.0 137.0 L91.0 139.0 C90.0 139.0 90.0 138.0 90.0 138.0 L90.0 138.0 Z"></path>
<path fill="#ffaabb" fill-opacity="1.0"  filling="0" d="M96.0 140.0 L96.0 139.0 C96.0 138.0 96.0 138.0 96.0 138.0 L102.0 135.0 C103.0 135.0 103.0 135.0 103.0 135.0 L103.0 136.0 C103.0 137.0 103.0 137.0 103.0 137.0 L97.0 140.0 C96.0 140.0 96.0 140.0 96.0 140.0 L96.0 140.0 Z"></path>
<path fill="#ffaabb" fill-opacity="1.0"  filling="0" d="M105.0 141.0 L105.0 140.0 C105.0 140.0 105.0 140.0 106.0 140.0 L112.0 137.0 C112.0 137.0 112.0 137.0 112.0 137.0 L112.0 138.0 C113.0 138.0 112.0 139.0 112.0 139.0 L106.0 141.0 C105.0 141.0 105.0 141.0 105.0 141.0 L105.0 141.0 Z"></path>
<path fill="#ee5566" fill-opacity="1.0"  filling="0" d="M128.0 55.0 L95.0 44.0 C91.0 43.0 87.0 45.0 86.0 48.0 L64.0 124.0 C63.0 127.0 64.0 130.0 68.0 131.0 L101.0 141.0 C104.0 142.0 108.0 141.0 109.0 138.0 L134.0 62.0 C135.0 59.0 133.0 56.0 128.0 55.0 L128.0 55.0 Z"></path>
<path fill="#ffaabb" fill-opacity="1.0"  filling="0" d="M129.0 59.0 L95.0 48.0 C91.0 46.0 88.0 48.0 86.0 50.0 L64.0 122.0 C63.0 126.0 65.0 129.0 68.0 130.0 L100.0 140.0 C103.0 141.0 106.0 139.0 107.0 136.0 L131.0 65.0 C132.0 63.0 131.0 60.0 129.0 59.0 L129.0 59.0 Z"></path>
<path fill="#ee5566" fill-opacity="1.0"  filling="0" d="M102.0 78.0 L86.0 74.0 C83.0 73.0 82.0 71.0 83.0 69.0 L87.0 50.0 C88.0 48.0 90.0 46.0 93.0 47.0 L118.0 52.0 C121.0 52.0 122.0 55.0 121.0 58.0 L107.0 76.0 C106.0 78.0 104.0 79.0 102.0 78.0 L102.0 78.0 Z"></path>
<path fill="#ffaabb" fill-opacity="1.0"  filling="0" d="M101.0 78.0 L87.0 74.0 C84.0 73.0 83.0 71.0 83.0 69.0 L87.0 50.0 C88.0 48.0 90.0 47.0 93.0 48.0 L118.0 52.0 C121.0 52.0 123.0 55.0 122.0 58.0 L108.0 76.0 C107.0 78.0 104.0 79.0 101.0 78.0 L101.0 78.0 Z"></path>
<path fill="#ee5566" fill-opacity="1.0"  filling="0" d="M101.0 74.0 L88.0 72.0 C86.0 71.0 85.0 70.0 85.0 68.0 L89.0 51.0 C90.0 49.0 91.0 48.0 93.0 49.0 L106.0 52.0 C108.0 52.0 109.0 54.0 109.0 56.0 L104.0 73.0 C104.0 74.0 102.0 75.0 101.0 74.0 L101.0 74.0 Z"></path>
<path fill="#ffaabb" fill-opacity="1.0"  filling="0" d="M100.0 74.0 L89.0 71.0 C87.0 71.0 86.0 69.0 86.0 68.0 L89.0 51.0 C90.0 50.0 92.0 49.0 93.0 49.0 L105.0 52.0 C107.0 52.0 108.0 54.0 108.0 55.0 L103.0 73.0 C103.0 74.0 101.0 75.0 100.0 74.0 L100.0 74.0 Z"></path>
<path fill="#ee5566" fill-opacity="1.0"  filling="0" d="M101.0 68.0 A3.0 3.0 0.0 1 1 95.0 68.0 A3.0 3.0 0.0 1 1 101.0 68.0 L101.0 68.0 Z"></path>
<path fill="#ee5566" fill-opacity="1.0"  filling="0" d="M95.0 66.0 A3.0 3.0 0.0 1 1 88.0 66.0 A3.0 3.0 0.0 1 1 95.0 66.0 L95.0 66.0 Z"></path>
<path fill="#ee5566" fill-opacity="1.0"  filling="0" d="M108.0 60.0 A3.0 3.0 0.0 1 1 102.0 60.0 A3.0 3.0 0.0 1 1 108.0 60.0 L108.0 60.0 Z"></path>
<path fill="#ee5566" fill-opacity="1.0"  filling="0" d="M88.0 60.0 A3.0 3.0 0.0 1 1 82.0 60.0 A3.0 3.0 0.0 1 1 88.0 60.0 L88.0 60.0 Z"></path>
<path fill="#ee5566" fill-opacity="1.0"  filling="0" d="M98.0 60.0 A3.0 3.0 0.0 1 1 92.0 60.0 A3.0 3.0 0.0 1 1 98.0 60.0 L98.0 60.0 Z"></path></svg>