<svg xmlns="http://www.w3.org/2000/svg" viewBox="0.0 0.0 200.0 200.0" height="200px" width="200px"><path fill="#000000" fill-opacity="1.0"  filling="0" d="M138.0 81.0 C137.0 81.0 137.0 80.0 136.0 80.0 C136.0 79.0 135.0 78.0 134.0 78.0 C132.0 77.0 130.0 76.0 127.0 76.0 C122.0 76.0 117.0 76.0 112.0 78.0 C111.0 78.0 110.0 78.0 109.0 77.0 L108.0 76.0 C107.0 75.0 106.0 74.0 105.0 74.0 C104.0 72.0 103.0 71.0 101.0 70.0 C99.0 69.0 98.0 68.0 96.0 68.0 C94.0 68.0 94.0 70.0 93.0 72.0 C93.0 73.0 93.0 74.0 93.0 75.0 L93.0 90.0 C93.0 91.0 93.0 92.0 93.0 93.0 C93.0 94.0 93.0 95.0 92.0 96.0 C91.0 96.0 91.0 97.0 91.0 98.0 C91.0 99.0 90.0 100.0 90.0 101.0 C90.0 102.0 90.0 103.0 89.0 104.0 C89.0 105.0 89.0 107.0 89.0 108.0 C89.0 110.0 89.0 112.0 90.0 114.0 C90.0 115.0 90.0 116.0 91.0 117.0 C91.0 118.0 91.0 119.0 92.0 120.0 C92.0 121.0 92.0 122.0 92.0 123.0 C93.0 124.0 93.0 125.0 94.0 126.0 C94.0 127.0 95.0 127.0 96.0 127.0 C96.0 127.0 96.0 127.0 96.0 127.0 C96.0 127.0 96.0 127.0 96.0 127.0 C96.0 127.0 96.0 127.0 96.0 127.0 C96.0 127.0 96.0 127.0 96.0 127.0 C96.0 127.0 96.0 127.0 96.0 127.0 C96.0 127.0 96.0 127.0 96.0 127.0 C96.0 127.0 96.0 127.0 96.0 127.0 C96.0 127.0 96.0 127.0 96.0 127.0 C96.0 127.0 96.0 127.0 96.0 127.0 C96.0 127.0 96.0 127.0 96.0 127.0 C96.0 127.0 96.0 127.0 96.0 127.0 C96.0 127.0 96.0 127.0 96.0 127.0 C96.0 127.0 96.0 127.0 96.0 127.0 C96.0 127.0 96.0 127.0 96.0 127.0 C96.0 127.0 96.0 127.0 96.0 127.0 C96.0 127.0 96.0 127.0 96.0 127.0 C96.0 127.0 96.0 127.0 96.0 127.0 C96.0 127.0 96.0 127.0 96.0 127.0 C96.0 127.0 96.0 127.0 96.0 127.0 C96.0 127.0 96.0 127.0 96.0 127.0 C96.0 127.0 96.0 127.0 96.0 127.0 C96.0 127.0 96.0 127.0 96.0 127.0 C96.0 127.0 96.0 127.0 96.0 127.0 C96.0 127.0 96.0 127.0 96.0 127.0 C96.0 127.0 96.0 127.0 96.0 127.0 C96.0 127.0 96.0 127.0 96.0 127.0 C96.0 127.0 96.0 127.0 96.0 127.0 C96.0 127.0 96.0 127.0 96.0 127.0 C96.0 127.0 96.0 127.0 96.0 127.0 C96.0 127.0 96.0 127.0 96.0 127.0 C96.0 127.0 96.0 127.0 96.0 127.0 C96.0 127.0 96.0 127.0 96.0 127.0 C96.0 127.0 96.0 127.0 96.0 127.0 C96.0 127.0 96.0 127.0 96.0 127.0 C96.0 127.0 96.0 127.0 96.0 127.0 C96.0 127.0 96.0 127.0 96.0 127.0 C96.0 127.0 96.0 127.0 96.0 127.0 C96.0 127.0 96.0 127.0 96.0 127.0 C96.0 127.0 96.0 127.0 96.0 127.0 C96.0 127.0 96.0 127.0 96.0 127.0 C96.0 127.0 96.0 127.0 96.0 127.0 C96.0 127.0 96.0 127.0 96.0 127.0 C96.0 127.0 96.0 127.0 96.0 127.0 C96.0 127.0 96.0 127.0 96.0 127.0 C96.0 127.0 96.0 127.0 96.0 127.0 C96.0 127.0 96.0 127.0 96.0 127.0 C96.0 127.0 96.0 127.0 96.0 127.0 C96.0 127.0 96.0 127.0 96.0 127.0 C96.0 127.0 96.0 127.0 96.0 127.0 C96.0 127.0 96.0 127.0 96.0 127.0 C96.0 127.0 96.0 127.0 96.0 127.0 C96.0 127.0 96.0 127.0 96.0 127.0 C96.0 127.0 96.0 127.0 96.0 127.0 C96.0 127.0 96.0 127.0 96.0 127.0 C96.0 127.0 96.0 127.0 96.0 127.0 C96.0 127.0 96.0 127.0 96.0 127.0 C96.0 127.0 96.0 127.0 96.0 127.0 C96.0 127.0 96.0 127.0 96.0 127.0 C96.0 127.0 96.0 127.0 96.0 127.0 C96.0 127.0 96.0 127.0 96.0 127.0 C96.0 127.0 96.0 127.0 96.0 127.0 C96.0 127.0 96.0 127.0 96.0 127.0 C96.0 127.0 96.0 127.0 96.0 127.0 C96.0 127.0 96.0 127.0 96.0 127.0 C96.0 127.0 96.0 127.0 96.0 127.0 C96.0 127.0 96.0 127.0 96.0 127.0 C96.0 127.0 96.0 127.0 96.0 127.0 C96.0 127.0 96.0 127.0 96.0 127.0 C96.0 127.0 96.0 127.0 96.0 127.0 C96.0 127.0 96.0 127.0 96.0 127.0 C96.0 127.0 96.0 127.0 96.0 127.0 C96.0 127.0 96.0 127.0 96.0 127.0 C96.0 127.0 96.0 127.0 96.0 127.0 C96.0 127.0 96.0 127.0 96.0 127.0 C96.0 127.0 96.0 127.0 96.0 127.0 C96.0 127.0 96.0 127.0 96.0 127.0 C96.0 127.0 96.0 127.0 96.0 127.0 C96.0 127.0 96.0 127.0 96.0 127.0 C96.0 127.0 96.0 127.0 96.0 127.0 C96.0 127.0 96.0 127.0 96.0 127.0 C96.0 127.0 96.0 127.0 96.0 127.0 C96.0 127.0 96.0 127.0 96.0 127.0 C96.0 127.0 96.0 127.0 96.0 127.0 C96.0 127.0 96.0 127.0 96.0 127.0 C96.0 127.0 96.0 127.0 96.0 127.0 C96.0 127.0 96.0 127.0 96.0 127.0 C96.0 127.0 96.0 127.0 96.0 127.0 C96.0 127.0 96.0 127.0 96.0 127.0 C96.0 127.0 96.0 127.0 96.0 127.0 C96.0 127.0 96.0 127.0 96.0 127.0 C96.0 127.0 96.0 127.0 96.0 127.0 C96.0 127.0 96.0 127.0 96.0 127.0 C96.0 127.0 96.0 127.0 96.0 127.0 C96.0 127.0 96.0 127.0 96.0 127.0 C96.0 127.0 96.0 127.0 96.0 127.0 C96.0 127.0 96.0 127.0 96.0 127.0 C96.0 127.0 96.0 127.0 96.0 127.0 C96.0 127.0 96.0 127.0 96.0 127.0 C96.0 127.0 96.0 127.0 96.0 127.0 C96.0 127.0 96.0 127.0 96.0 127.0 C96.0 127.0 96.0 127.0 96.0 127.0 C96.0 127.0 96.0 127.0 96.0 127.0 C96.0 127.0 96.0 127.0 96.0 127.0 C96.0 127.0 96.0 127.0 96.0 127.0 C96.0 127.0 96.0 127.0 96.0 127.0 C96.0 127.0 96.0 127.0 96.0 127.0 C96.0 127.0 96.0 127.0 96.0 127.0 C96.0 127.0 96.0 127.0 96.0 127.0 C96.0 127.0 96.0 127.0 96.0 127.0 C96.0 127.0 96.0 127.0 96.0 127.0 C96.0 127.0 96.0 127.0 96.0 127.0 C96.0 127.0 96.0 127.0 96.0 127.0 C96.0 127.0 96.0 127.0 96.0 127.0 C96.0 127.0 96.0 127.0 96.0 127.0 C96.0 127.0 96.0 127.0 96.0 127.0 C96.0 127.0 96.0 127.0 96.0 127.0 C96.0 127.0 96.0 127.0 96.0 127.0 C96.0 127.0 96.0 127.0 96.0 127.0 C96.0 127.0 96.0 127.0 96.0 127.0 C96.0 127.0 96.0 127.0 96.0 127.0 C96.0 127.0 96.0 127.0 96.0 127.0 C96.0 127.0 96.0 127.0 96.0 127.0 C96.0 127.0 96.0 127.0 96.0 127.0 C96.0 127.0 96.0 127.0 96.0 127.0 C96.0 127.0 96.0 127.0 96.0 127.0 C96.0 127.0 96.0 127.0 96.0 127.0 C96.0 127.0 96.0 127.0 96.0 127.0 C96.0 127.0 96.0 127.0 96.0 127.0 C96.0 127.0 96.0 127.0 96.0 127.0 C96.0 127.0 96.0 127.0 96.0 127.0 C96.0 127.0 96.0 127.0 96.0 127.0 C96.0 127.0 96.0 127.0 96.0 127.0 C96.0 127.0 96.0 127.0 96.0 127.0 C96.0 127.0 96.0 127.0 96.0 127.0 C96.0 127.0 96.0 127.0 96.0 127.0 C96.0 127.0 96.0 127.0 96.0 127.0 C96.0 127.0 96.0 127.0 96.0 127.0 C96.0 127.0 96.0 127.0 96.0 127.0 C96.0 127.0 96.0 127.0 96.0 127.0 C96.0 127.0 96.0 127.0 96.0 127.0 C96.0 127.0 96.0 127.0 96.0 127.0 C96.0 127.0 96.0 127.0 96.0 127.0 C96.0 127.0 96.0 127.0 96.0 127.0 C96.0 127.0 96.0 127.0 96.0 127.0 C96.0 127.0 96.0 127.0 96.0 127.0 C96.0 127.0 96.0 127.0 96.0 127.0 C96.0 127.0 96.0 127.0 96.0 127.0 C96.0 127.0 96.0 127.0 96.0 127.0 C96.0 127.0 96.0 127.0 96.0 127.0 C96.0 127.0 96.0 127.0 96.0 127.0 C96.0 127.0 96.0 127.0 96.0 127.0 C96.0 127.0 96.0 127.0 96.0 127.0 C96.0 127.0 96.0 127.0 96.0 127.0 C96.0 127.0 96.0 127.0 96.0 127.0 C96.0 127.0 96.0 127.0 96.0 127.0 C96.0 127.0 96.0 127.0 96.0 127.0 C96.0 127.0 96.0 127.0 96.0 127.0 C96.0 127.0 96.0 127.0 96.0 127.0 C96.0 127.0 96.0 127.0 96.0 127.0 C96.0 127.0 96.0 127.0 96.0 127.0 C96.0 127.0 96.0 127.0 96.0 127.0 C96.0 127.0 96.0 127.0 96.0 127.0 C96.0 127.0 96.0 127.0 96.0 127.0 C96.0 127.0 96.0 127.0 96.0 127.0 C96.0 127.0 96.0 127.0 96.0 127.0 C96.0 127.0 96.0 127.0 96.0 127.0 C96.0 127.0 96.0 127.0 96.0 127.0 C96.0 127.0 96.0 127.0 96.0 127.0 C96.0 127.0 96.0 127.0 96.0 127.0 C96.0 127.0 96.0 127.0 96.0 127.0 C96.0 127.0 96.0 127.0 96.0 127.0 C96.0 127.0 96.0 127.0 96.0 127.0 C96.0 127.0 96.0 127.0 96.0 127.0 C96.0 127.0 96.0 127.0 96.0 127.0 C96.0 127.0 96.0 127.0 96.0 127.0 C96.0 127.0 96.0 127.0 96.0 127.0 C96.0 127.0 96.0 127.0 96.0 127.0 C96.0 127.0 96.0 127.0 96.0 127.0 C96.0 127.0 96.0 127.0 96.0 127.0 C96.0 127.0 96.0 127.0 96.0 127.0 C96.0 127.0 96.0 127.0 96.0 127.0 C96.0 127.0 96.0 127.0 96.0 127.0 C96.0 127.0 96.0 127.0 96.0 127.0 C96.0 127.0 96.0 127.0 96.0 127.0 C96.0 127.0 96.0 127.0 96.0 127.0 C96.0 127.0 96.0 127.0 96.0 127.0 C96.0 127.0 96.0 127.0 96.0 127.0 C96.0 127.0 96.0 127.0 96.0 127.0 C96.0 127.0 96.0 127.0 96.0 127.0 C96.0 127.0 96.0 127.0 96.0 127.0 C96.0 127.0 96.0 127.0 96.0 127.0 C96.0 127.0 96.0 127.0 96.0 127.0 C96.0 127.0 96.0 127.0 96.0 127.0 C96.0 127.0 96.0 127.0 96.0 127.0 C96.0 127.0 96.0 127.0 96.0 127.0 C96.0 127.0 96.0 127.0 96.0 127.0 C96.0 127.0 96.0 127.0 96.0 127.0 C96.0 127.0 96.0 127.0 96.0 127.0 C96.0 127.0 96.0 127.0 96.0 127.0 C96.0 127.0 96.0 127.0 96.0 127.0 C96.0 127.0 96.0 127.0 96.0 127.0 C96.0 127.0 96.0 127.0 96.0 127.0 C96.0 127.0 96.0 127.0 96.0 127.0 C96.0 127.0 96.0 127.0 96.0 127.0 C96.0 127.0 96.0 127.0 96.0 127.0 C96.0 127.0 96.0 127.0 96.0 127.0 C96.0 127.0 96.0 127.0 96.0 127.0 C96.0 127.0 96.0 127.0 96.0 127.0 C96.0 127.0 96.0 127.0 96.0 127.0 C96.0 127.0 96.0 127.0 96.0 127.0 C96.0 127.0 96.0 127.0 96.0 127.0 C96.0 127.0 96.0 127.0 96.0 127.0 C96.0 127.0 96.0 127.0 96.0 127.0 C96.0 127.0 96.0 127.0 96.0 127.0 C96.0 127.0 96.0 127.0 96.0 127.0 C96.0 127.0 96.0 127.0 96.0 127.0 C96.0 127.0 96.0 127.0 96.0 127.0 C96.0 127.0 96.0 127.0 96.0 127.0 C96.0 127.0 96.0 127.0 96.0 127.0 C96.0 127.0 96.0 127.0 96.0 127.0 C96.0 127.0 96.0 127.0 96.0 127.0 C96.0 127.0 96.0 127.0 96.0 127.0 C96.0 127.0 96.0 127.0 96.0 127.0 C96.0 127.0 96.0 127.0 96.0 127.0 C96.0 127.0 96.0 127.0 96.0 127.0 C96.0 127.0 96.0 127.0 96.0 127.0 C96.0 127.0 96.0 127.0 96.0 127.0 C96.0 127.0 96.0 127.0 96.0 127.0 C96.0 127.0 96.0 127.0 96.0 127.0 C96.0 127.0 96.0 127.0 96.0 127.0 C96.0 127.0 96.0 127.0 96.0 127.0 C96.0 127.0 96.0 127.0 96.0 127.0 C96.0 127.0 96.0 127.0 96.0 127.0 C96.0 127.0 96.0 127.0 96.0 127.0 C96.0 127.0 96.0 127.0 96.0 127.0 C96.0 127.0 96.0 127.0 96.0 127.0 C96.0 127.0 96.0 127.0 96.0 127.0 C96.0 127.0 96.0 127.0 96.0 127.0 C96.0 127.0 96.0 127.0 96.0 127.0 C96.0 127.0 96.0 127.0 96.0 127.0 C96.0 127.0 96.0 127.0 96.0 127.0 C96.0 127.0 96.0 127.0 96.0 127.0 C96.0 127.0 96.0 127.0 96.0 127.0 C96.0 127.0 96.0 127.0 96.0 127.0 C96.0 127.0 96.0 127.0 96.0 127.0 C96.0 127.0 96.0 127.0 96.0 127.0 C96.0 127.0 96.0 127.0 96.0 127.0 C96.0 127.0 96.0 127.0 96.0 127.0 C96.0 127.0 96.0 127.0 96.0 127.0 C96.0 127.0 96.0 127.0 96.0 127.0 C96.0 127.0 96.0 127.0 96.0 127.0 C96.0 127.0 96.0 127.0 96.0 127.0 C96.0 127.0 96.0 127.0 96.0 127.0 C96.0 127.0 96.0 127.0 96.0 127.0 C96.0 127.0 96.0 127.0 96.0 127.0 C96.0 127.0 96.0 127.0 96.0 127.0 C96.0 127.0 96.0 127.0 96.0 127.0 C96.0 127.0 96.0 127.0 96.0 127.0 C96.0 127.0 96.0 127.0 96.0 127.0 C96.0 127.0 96.0 127.0 96.0 127.0 C96.0 127.0 96.0 127.0 96.0 127.0 C96.0 127.0 96.0 127.0 96.0 127.0 C96.0 127.0 96.0 127.0 96.0 127.0 C96.0 127.0 96.0 127.0 96.0 127.0 C96.0 127.0 96.0 127.0 96.0 127.0 C96.0 127.0 96.0 127.0 96.0 127.0 C96.0 127.0 96.0 127.0 96.0 127.0 C96.0 127.0 96.0 127.0 96.0 127.0 C96.0 127.0 96.0 127.0 96.0 127.0 C96.0 127.0 96.0 127.0 96.0 127.0 C96.0 127.0 96.0 127.0 96.0 127.0 C96.0 127.0 96.0 127.0 96.0 127.0 C96.0 127.0 96.0 127.0 96.0 127.0 C96.0 127.0 96.0 127.0 96.0 127.0 C96.0 127.0 96.0 127.0 96.0 127.0 C96.0 127.0 96.0 127.0 96.0 127.0 C96.0 127.0 96.0 127.0 96.0 127.0 C96.0 127.0 96.0 127.0 96.0 127.0 C96.0 127.0 98.0 127.0 98.0 127.0 C98.0 127.0 98.0 127.0 98.0 127.0 C98.0 127.0 98.0 127.0 98.0 127.0 C98.0 127.0 98.0 127.0 98.0 127.0 C98.0 127.0 98.0 127.0 98.0 127.0 C98.0 127.0 98.0 127.0 98.0 127.0 C98.0 127.0 98.0 127.0 98.0 127.0 C98.0 127.0 98.0 127.0 98.0 127.0 C98.0 127.0 98.0 127.0 98.0 127.0 C98.0 127.0 98.0 127.0 98.0 127.0 C98.0 127.0 98.0 127.0 98.0 127.0 C98.0 127.0 98.0 127.0 98.0 127.0 C98.0 127.0 98.0 127.0 98.0 127.0 C98.0 127.0 98.0 127.0 98.0 127.0 C98.0 127.0 98.0 127.0 98.0 127.0 C98.0 127.0 98.0 127.0 98.0 127.0 C98.0 127.0 98.0 127.0 98.0 127.0 C98.0 127.0 98.0 127.0 98.0 127.0 C98.0 127.0 98.0 127.0 98.0 127.0 C98.0 127.0 98.0 127.0 98.0 127.0 C98.0 127.0 98.0 127.0 98.0 127.0 C98.0 127.0 98.0 127.0 98.0 127.0 C98.0 127.0 98.0 127.0 98.0 127.0 C98.0 127.0 98.0 127.0 98.0 127.0 C98.0 127.0 98.0 127.0 98.0 127.0 C98.0 127.0 98.0 127.0 98.0 127.0 C98.0 127.0 98.0 127.0 98.0 127.0 C98.0 127.0 98.0 127.0 98.0 127.0 C98.0 127.0 98.0 127.0 98.0 127.0 C98.0 127.0 98.0 127.0 98.0 127.0 C98.0 127.0 98.0 127.0 98.0 127.0 C98.0 127.0 98.0 127.0 98.0 127.0 C98.0 127.0 98.0 127.0 98.0 127.0 C98.0 127.0 98.0 127.0 98.0 127.0 C98.0 127.0 98.0 127.0 98.0 127.0 C98.0 127.0 98.0 127.0 98.0 127.0 C98.0 127.0 98.0 127.0 98.0 127.0 C98.0 127.0 98.0 127.0 98.0 127.0 C98.0 127.0 98.0 127.0 98.0 127.0 C98.0 127.0 98.0 127.0 98.0 127.0 C98.0 127.0 98.0 127.0 98.0 127.0 C98.0 127.0 98.0 127.0 98.0 127.0 C98.0 127.0 98.0 127.0 98.0 127.0 C98.0 127.0 98.0 127.0 98.0 127.0 C98.0 127.0 98.0 127.0 98.0 127.0 C98.0 127.0 98.0 127.0 98.0 127.0 C98.0 127.0 98.0 127.0 98.0 127.0 C98.0 127.0 98.0 127.0 98.0 127.0 C98.0 127.0 98.0 127.0 98.0 127.0 C98.0 127.0 98.0 127.0 98.0 127.0 C98.0 127.0 98.0 127.0 98.0 127.0 C98.0 127.0 98.0 127.0 98.0 127.0 C98.0 127.0 98.0 127.0 98.0 127.0 C98.0 127.0 98.0 127.0 98.0 127.0 C98.0 127.0 98.0 127.0 98.0 127.0 C98.0 127.0 98.0 127.0 98.0 127.0 C98.0 127.0 98.0 127.0 98.0 127.0 C98.0 127.0 98.0 127.0 98.0 127.0 C98.0 127.0 98.0 127.0 98.0 127.0 C98.0 127.0 98.0 127.0 98.0 127.0 C98.0 127.0 98.0 127.0 98.0 127.0 C98.0 127.0 98.0 127.0 98.0 127.0 C98.0 127.0 98.0 127.0 98.0 127.0 C98.0 127.0 98.0 127.0 98.0 127.0 C98.0 127.0 98.0 127.0 98.0 127.0 C98.0 127.0 98.0 127.0 98.0 127.0 C98.0 127.0 98.0 127.0 98.0 127.0 C98.0 127.0 98.0 127.0 98.0 127.0 C98.0 127.0 98.0 127.0 98.0 127.0 C98.0 127.0 98.0 127.0 98.0 127.0 C98.0 127.0 98.0 127.0 98.0 127.0 C98.0 127.0 98.0 127.0 98.0 127.0 C98.0 127.0 98.0 127.0 98.0 127.0 C98.0 127.0 98.0 127.0 98.0 127.0 C98.0 127.0 98.0 127.0 98.0 127.0 C98.0 127.0 98.0 127.0 98.0 127.0 C98.0 127.0 98.0 127.0 98.0 127.0 C98.0 127.0 98.0 127.0 98.0 127.0 C98.0 127.0 98.0 127.0 98.0 127.0 C98.0 127.0 98.0 127.0 98.0 127.0 C98.0 127.0 98.0 127.0 98.0 127.0"></path></svg>