<svg xmlns="http://www.w3.org/2000/svg" viewBox="0.0 0.0 200.0 200.0" height="200px" width="200px"><path fill="#000000" fill-opacity="1.0"  filling="0" d="M138.0 81.0 C137.0 81.0 137.0 80.0 136.0 80.0 C135.0 80.0 134.0 79.0 133.0 79.0 C132.0 78.0 130.0 78.0 128.0 78.0 C127.0 78.0 126.0 77.0 124.0 77.0 C123.0 77.0 121.0 77.0 119.0 77.0 C118.0 77.0 116.0 78.0 114.0 78.0 C113.0 78.0 112.0 78.0 111.0 78.0 C110.0 78.0 109.0 77.0 108.0 76.0 C106.0 74.0 104.0 72.0 102.0 70.0 C101.0 69.0 100.0 68.0 99.0 68.0 C98.0 67.0 97.0 67.0 96.0 67.0 C95.0 67.0 94.0 67.0 93.0 68.0 C92.0 69.0 92.0 70.0 91.0 71.0 L91.0 95.0 C91.0 96.0 91.0 97.0 92.0 98.0 C92.0 99.0 92.0 100.0 92.0 101.0 C92.0 102.0 92.0 103.0 92.0 104.0 C92.0 106.0 92.0 108.0 92.0 110.0 C92.0 112.0 92.0 114.0 92.0 116.0 C93.0 117.0 93.0 118.0 94.0 119.0 C94.0 120.0 95.0 121.0 96.0 122.0 C96.0 123.0 97.0 124.0 98.0 124.0 C99.0 125.0 100.0 126.0 101.0 127.0 C102.0 127.0 103.0 128.0 104.0 128.0 C105.0 129.0 107.0 129.0 108.0 129.0 C110.0 130.0 112.0 130.0 114.0 131.0 C115.0 131.0 116.0 131.0 117.0 131.0 C119.0 131.0 120.0 131.0 121.0 131.0 C122.0 131.0 124.0 131.0 125.0 131.0 C127.0 131.0 129.0 130.0 131.0 130.0 C132.0 129.0 133.0 129.0 134.0 128.0 C135.0 127.0 136.0 126.0 137.0 125.0 C138.0 124.0 138.0 123.0 139.0 122.0 C139.0 121.0 140.0 120.0 140.0 119.0 C140.0 118.0 141.0 117.0 141.0 116.0 C141.0 114.0 141.0 113.0 141.0 111.0 C141.0 110.0 141.0 108.0 141.0 107.0 C141.0 105.0 141.0 104.0 141.0 102.0 C141.0 101.0 141.0 99.0 141.0 98.0 C141.0 97.0 141.0 96.0 141.0 95.0 C141.0 94.0 141.0 93.0 141.0 91.0 C141.0 89.0 141.0 87.0 140.0 85.0 C140.0 84.0 139.0 82.0 138.0 81.0 L138.0 81.0 Z M130.0 94.0 C130.0 95.0 130.0 96.0 130.0 97.0 C130.0 98.0 130.0 99.0 130.0 100.0 C130.0 101.0 130.0 102.0 130.0 103.0 C130.0 104.0 130.0 105.0 130.0 106.0 C130.0 107.0 130.0 108.0 130.0 109.0 C130.0 110.0 130.0 111.0 130.0 112.0 C130.0 113.0 130.0 114.0 130.0 115.0 C130.0 116.0 130.0 117.0 130.0 118.0 C130.0 119.0 129.0 120.0 129.0 121.0 C129.0 122.0 128.0 123.0 128.0 124.0 C127.0 125.0 127.0 126.0 126.0 127.0 C125.0 127.0 125.0 128.0 124.0 129.0 C123.0 129.0 122.0 130.0 122.0 130.0 C121.0 131.0 120.0 131.0 119.0 132.0 C118.0 132.0 117.0 132.0 116.0 132.0 C115.0 133.0 114.0 133.0 113.0 133.0 C112.0 133.0 111.0 133.0 110.0 133.0 C109.0 133.0 108.0 133.0 107.0 133.0 C106.0 133.0 105.0 133.0 104.0 133.0 C103.0 133.0 102.0 133.0 101.0 133.0 C100.0 132.0 99.0 132.0 98.0 132.0 C97.0 131.0 96.0 131.0 95.0 130.0 C94.0 130.0 93.0 129.0 92.0 129.0 C92.0 128.0 91.0 127.0 90.0 127.0 C90.0 126.0 89.0 125.0 89.0 124.0 C88.0 123.0 88.0 122.0 88.0 121.0 C87.0 120.0 87.0 119.0 87.0 118.0 C87.0 117.0 86.0 116.0 86.0 115.0 C86.0 114.0 86.0 113.0 86.0 112.0 C86.0 111.0 86.0 110.0 86.0 109.0 C86.0 108.0 86.0 107.0 86.0 106.0 C86.0 105.0 86.0 104.0 86.0 103.0 C86.0 102.0 86.0 101.0 86.0 100.0 C86.0 99.0 86.0 98.0 86.0 97.0 C86.0 96.0 86.0 95.0 86.0 94.0 C86.0 93.0 86.0 92.0 86.0 91.0 C86.0 89.0 86.0 87.0 86.0 85.0 C86.0 84.0 86.0 83.0 86.0 82.0 C86.0 81.0 86.0 80.0 86.0 79.0 C86.0 78.0 86.0 77.0 86.0 76.0 C86.0 75.0 86.0 74.0 86.0 73.0 C86.0 72.0 86.0 71.0 87.0 70.0 C87.0 69.0 88.0 68.0 88.0 67.0 C89.0 66.0 90.0 65.0 90.0 64.0 C91.0 63.0 92.0 62.0 92.0 61.0 C93.0 60.0 94.0 59.0 95.0 58.0 C96.0 57.0 97.0 57.0 98.0 56.0 C99.0 55.0 100.0 55.0 101.0 54.0 C102.0 54.0 103.0 54.0 104.0 53.0 C105.0 53.0 106.0 53.0 107.0 52.0 C108.0 52.0 109.0 52.0 110.0 52.0 C111.0 51.0 112.0 51.0 113.0 51.0 C114.0 51.0 115.0 51.0 116.0 51.0 C117.0 51.0 118.0 51.0 119.0 51.0 C120.0 51.0 121.0 51.0 122.0 51.0 C123.0 51.0 124.0 51.0 125.0 51.0 C126.0 51.0 127.0 52.0 128.0 52.0 C129.0 52.0 130.0 52.0 131.0 52.0 C132.0 53.0 133.0 53.0 134.0 53.0 C135.0 54.0 136.0 54.0 137.0 54.0 C138.0 55.0 139.0 55.0 140.0 56.0 C141.0 57.0 142.0 57.0 143.0 58.0 C144.0 59.0 145.0 60.0 145.0 61.0 C146.0 62.0 147.0 63.0 147.0 64.0 C148.0 65.0 148.0 66.0 149.0 67.0 C149.0 68.0 150.0 69.0 150.0 70.0 C151.0 71.0 151.0 72.0 151.0 73.0 C152.0 74.0 152.0 75.0 152.0 76.0 C152.0 77.0 152.0 78.0 152.0 79.0 C152.0 80.0 152.0 81.0 152.0 82.0 C152.0 83.0 152.0 84.0 152.0 85.0 C152.0 87.0 152.0 89.0 152.0 91.0 C152.0 92.0 152.0 93.0 152.0 94.0 C152.0 96.0 152.0 97.0 152.0 98.0 C152.0 99.0 152.0 101.0 152.0 102.0 C152.0 104.0 152.0 105.0 152.0 106.0 C152.0 108.0 152.0 109.0 152.0 110.0 C152.0 111.0 152.0 112.0 152.0 113.0 C152.0 114.0 152.0 115.0 152.0 116.0 C152.0 117.0 151.0 118.0 151.0 119.0 C150.0 120.0 150.0 121.0 149.0 122.0 C148.0 123.0 148.0 124.0 147.0 125.0 C147.0 126.0 146.0 127.0 145.0 128.0 C145.0 129.0 144.0 130.0 143.0 131.0 C142.0 131.0 142.0 132.0 141.0 133.0 C140.0 133.0 139.0 134.0 138.0 134.0 C137.0 135.0 136.0 135.0 135.0 136.0 C134.0 136.0 133.0 137.0 132.0 137.0 C130.0 137.0 129.0 137.0 128.0 137.0 C127.0 138.0 126.0 138.0 125.0 138.0 C124.0 138.0 123.0 138.0 122.0 138.0 C121.0 138.0 120.0 138.0 119.0 138.0 C118.0 138.0 117.0 138.0 116.0 138.0 C115.0 138.0 114.0 138.0 113.0 138.0 C112.0 138.0 111.0 138.0 110.0 138.0 C109.0 138.0 108.0 138.0 107.0 138.0 C106.0 138.0 105.0 138.0 104.0 137.0 C103.0 137.0 102.0 137.0 101.0 137.0 C100.0 137.0 99.0 136.0 98.0 136.0 C97.0 135.0 96.0 135.0 95.0 134.0 C94.0 134.0 93.0 133.0 92.0 133.0 C92.0 132.0 91.0 131.0 90.0 131.0 C89.0 130.0 89.0 129.0 88.0 129.0 C88.0 128.0 87.0 127.0 87.0 126.0 C86.0 125.0 86.0 124.0 85.0 123.0 C85.0 122.0 84.0 121.0 84.0 120.0 C84.0 119.0 83.0 118.0 83.0 117.0 C83.0 116.0 83.0 115.0 82.0 114.0 C82.0 113.0 82.0 112.0 82.0 111.0 C82.0 110.0 82.0 109.0 82.0 108.0 C82.0 107.0 82.0 106.0 82.0 105.0 C82.0 104.0 82.0 103.0 82.0 102.0 C82.0 101.0 82.0 100.0 82.0 99.0 C82.0 98.0 82.0 97.0 82.0 96.0 C82.0 95.0 82.0 94.0 82.0 93.0 C82.0 92.0 82.0 91.0 82.0 90.0 C82.0 89.0 82.0 88.0 82.0 87.0 C82.0 86.0 82.0 85.0 82.0 84.0 C82.0 83.0 82.0 82.0 82.0 81.0 C82.0 80.0 82.0 79.0 82.0 78.0 C82.0 77.0 82.0 76.0 82.0 75.0 C82.0 74.0 82.0 73.0 82.0 72.0 C82.0 71.0 83.0 70.0 83.0 69.0 C83.0 68.0 84.0 67.0 84.0 66.0 C84.0 65.0 85.0 64.0 85.0 63.0 C86.0 62.0 86.0 61.0 87.0 60.0 C87.0 59.0 88.0 58.0 88.0 57.0 C89.0 56.0 90.0 55.0 90.0 54.0 C91.0 53.0 92.0 52.0 92.0 51.0 C93.0 50.0 93.0 49.0 94.0 48.0 C94.0 47.0 95.0 46.0 95.0 45.0 C96.0 44.0 97.0 43.0 98.0 42.0 C99.0 41.0 100.0 40.0 101.0 39.0 C102.0 39.0 103.0 38.0 104.0 37.0 C105.0 37.0 106.0 36.0 107.0 36.0 C108.0 35.0 109.0 35.0 110.0 34.0 C111.0 34.0 112.0 34.0 113.0 33.0 C114.0 33.0 115.0 33.0 116.0 33.0 C117.0 33.0 118.0 32.0 119.0 32.0 C120.0 32.0 121.0 32.0 122.0 32.0 C123.0 32.0 124.0 32.0 125.0 32.0 C126.0 32.0 127.0 33.0 128.0 33.0 C129.0 33.0 130.0 33.0 131.0 33.0 C133.0 34.0 134.0 34.0 135.0 34.0 C136.0 35.0 137.0 35.0 138.0 36.0 C139.0 36.0 140.0 37.0 141.0 37.0 C142.0 38.0 142.0 39.0 143.0 39.0 C144.0 40.0 145.0 41.0 145.0 42.0 C146.0 43.0 147.0 44.0 147.0 45.0 C148.0 46.0 148.0 47.0 149.0 48.0 C150.0 49.0 150.0 50.0 151.0 51.0 C151.0 52.0 152.0 53.0 152.0 54.0 C153.0 55.0 153.0 56.0 153.0 57.0 C154.0 58.0 154.0 59.0 154.0 60.0 C155.0 61.0 155.0 62.0 155.0 63.0 C156.0 64.0 156.0 65.0 156.0 66.0 C157.0 67.0 157.0 68.0 157.0 69.0 C157.0 70.0 157.0 71.0 157.0 72.0 C158.0 73.0 158.0 74.0 158.0 75.0 C158.0 76.0 158.0 77.0 158.0 78.0 C158.0 79.0 158.0 80.0 158.0 81.0 C158.0 83.0 158.0 84.0 158.0 85.0 C158.0 87.0 158.0 89.0 158.0 90.0 C158.0 91.0 158.0 92.0 158.0 93.0 C158.0 95.0 158.0 96.0 158.0 97.0 C158.0 98.0 158.0 99.0 158.0 100.0 C158.0 101.0 158.0 102.0 158.0 103.0 C158.0 104.0 158.0 105.0 158.0 106.0 C158.0 107.0 158.0 108.0 158.0 109.0 C158.0 110.0 158.0 111.0 158.0 113.0 C158.0 114.0 158.0 115.0 158.0 116.0 C158.0 117.0 157.0 118.0 157.0 119.0 C157.0 120.0 156.0 121.0 156.0 122.0 C155.0 123.0 155.0 124.0 154.0 125.0 C154.0 126.0 153.0 127.0 153.0 128.0 C152.0 129.0 152.0 130.0 151.0 131.0 C150.0 132.0 150.0 133.0 149.0 134.0 C148.0 135.0 148.0 136.0 147.0 137.0 C146.0 138.0 145.0 139.0 145.0 140.0 C144.0 141.0 143.0 142.0 143.0 143.0 C142.0 143.0 141.0 144.0 141.0 145.0 C140.0 146.0 139.0 146.0 138.0 147.0 C137.0 148.0 136.0 148.0 135.0 149.0 C134.0 149.0 133.0 149.0 132.0 150.0 C130.0 150.0 129.0 150.0 128.0 150.0 C127.0 150.0 126.0 150.0 125.0 150.0 C124.0 150.0 123.0 150.0 122.0 150.0 C121.0 150.0 120.0 150.0 119.0 150.0 C118.0 150.0 117.0 150.0 116.0 150.0 C115.0 150.0 114.0 150.0 113.0 150.0 C112.0 150.0 111.0 150.0 110.0 150.0 C109.0 150.0 108.0 150.0 107.0 150.0 C106.0 150.0 105.0 150.0 100.0 150.0 C95.0 150.0 123.0 49.0 188.0 52.0 C-8.0 -8.0 -7.0 -7.0 -8.0 -8.0"></path></svg>