<svg xmlns="http://www.w3.org/2000/svg" viewBox="0.0 0.0 200.0 200.0" height="200px" width="200px"><path fill="#000000" fill-opacity="1.0"  filling="0" d="M138.0 81.0 C137.0 81.0 137.0 80.0 136.0 80.0 C135.0 80.0 134.0 79.0 133.0 79.0 C130.0 78.0 127.0 77.0 124.0 77.0 C119.0 77.0 114.0 78.0 111.0 80.0 L110.0 80.0 C109.0 80.0 108.0 81.0 107.0 81.0 C106.0 82.0 105.0 82.0 104.0 83.0 C103.0 84.0 101.0 85.0 100.0 86.0 C97.0 88.0 95.0 91.0 93.0 94.0 C93.0 95.0 92.0 96.0 92.0 98.0 C91.0 99.0 91.0 101.0 91.0 102.0 C90.0 103.0 90.0 104.0 90.0 106.0 C90.0 108.0 90.0 110.0 91.0 112.0 C91.0 115.0 92.0 118.0 93.0 122.0 C94.0 123.0 94.0 124.0 95.0 125.0 C95.0 127.0 96.0 128.0 97.0 130.0 C97.0 131.0 98.0 133.0 99.0 134.0 C99.0 136.0 101.0 137.0 102.0 138.0 C102.0 140.0 103.0 141.0 104.0 142.0 C104.0 144.0 105.0 145.0 106.0 146.0 C107.0 148.0 109.0 149.0 110.0 150.0 C111.0 151.0 113.0 152.0 115.0 152.0 C116.0 153.0 118.0 154.0 120.0 154.0 C123.0 154.0 126.0 154.0 130.0 153.0 C132.0 153.0 135.0 152.0 137.0 151.0 C139.0 151.0 141.0 150.0 143.0 149.0 C145.0 148.0 147.0 146.0 149.0 144.0 C151.0 142.0 152.0 140.0 153.0 137.0 C154.0 136.0 154.0 135.0 155.0 134.0 C155.0 133.0 155.0 132.0 156.0 130.0 C156.0 129.0 156.0 128.0 157.0 127.0 C157.0 126.0 158.0 125.0 158.0 124.0 C159.0 122.0 160.0 120.0 161.0 118.0 C162.0 117.0 163.0 116.0 164.0 115.0 C164.0 114.0 165.0 113.0 165.0 112.0 C166.0 110.0 167.0 108.0 167.0 105.0 C167.0 102.0 167.0 99.0 166.0 96.0 C166.0 94.0 166.0 92.0 165.0 91.0 C165.0 89.0 164.0 87.0 163.0 86.0 C163.0 85.0 162.0 84.0 161.0 83.0 C161.0 82.0 160.0 81.0 160.0 80.0 C160.0 79.0 160.0 78.0 159.0 77.0 C159.0 76.0 159.0 75.0 159.0 74.0 C158.0 73.0 158.0 72.0 158.0 71.0 C158.0 70.0 158.0 70.0 158.0 69.0 C158.0 68.0 157.0 68.0 157.0 67.0 C156.0 67.0 155.0 67.0 154.0 67.0 C153.0 67.0 151.0 67.0 150.0 67.0 C149.0 67.0 148.0 68.0 147.0 68.0 C146.0 69.0 145.0 70.0 144.0 71.0 C143.0 72.0 142.0 73.0 141.0 74.0 C141.0 75.0 140.0 76.0 139.0 77.0 C139.0 78.0 138.0 78.0 138.0 79.0 C138.0 79.0 138.0 80.0 138.0 80.0 C138.0 80.0 138.0 80.0 138.0 80.0 C138.0 80.0 138.0 80.0 138.0 80.0 C138.0 80.0 138.0 80.0 138.0 80.0 C138.0 80.0 138.0 80.0 138.0 80.0 C138.0 80.0 138.0 80.0 138.0 80.0 C138.0 80.0 138.0 80.0 138.0 80.0 C138.0 80.0 138.0 80.0 138.0 80.0 C138.0 80.0 138.0 80.0 138.0 80.0 C138.0 80.0 138.0 80.0 138.0 80.0 C138.0 80.0 138.0 80.0 138.0 80.0 C138.0 80.0 138.0 80.0 138.0 80.0 C138.0 80.0 138.0 80.0 138.0 80.0 C138.0 80.0 138.0 80.0 138.0 80.0 C138.0 80.0 138.0 80.0 138.0 80.0 C138.0 80.0 138.0 80.0 138.0 80.0 C138.0 80.0 138.0 80.0 138.0 80.0 C138.0 80.0 138.0 80.0 138.0 80.0 C138.0 80.0 138.0 80.0 138.0 80.0 C138.0 80.0 138.0 80.0 138.0 80.0 C138.0 80.0 138.0 80.0 138.0 80.0 C138.0 80.0 138.0 80.0 138.0 80.0 C138.0 80.0 138.0 80.0 138.0 80.0 C138.0 80.0 138.0 80.0 138.0 80.0 C138.0 80.0 138.0 80.0 138.0 80.0 C138.0 80.0 138.0 80.0 138.0 80.0 C138.0 80.0 138.0 80.0 138.0 80.0 C138.0 80.0 138.0 80.0 138.0 80.0 C138.0 80.0 138.0 80.0 138.0 80.0 C138.0 80.0 138.0 80.0 138.0 80.0 C138.0 80.0 138.0 80.0 138.0 80.0 C138.0 80.0 138.0 80.0 138.0 80.0 C138.0 80.0 138.0 80.0 138.0 80.0 C138.0 80.0 138.0 80.0 138.0 80.0 C138.0 80.0 138.0 80.0 138.0 80.0 C138.0 80.0 138.0 80.0 138.0 80.0 C138.0 80.0 138.0 80.0 138.0 80.0 C138.0 80.0 138.0 80.0 138.0 80.0 C138.0 80.0 138.0 80.0 138.0 80.0 C138.0 80.0 138.0 80.0 138.0 80.0 C138.0 80.0 138.0 80.0 138.0 80.0 C138.0 80.0 138.0 80.0 138.0 80.0 C138.0 80.0 138.0 80.0 138.0 80.0 C138.0 80.0 138.0 80.0 138.0 80.0 C138.0 80.0 138.0 80.0 138.0 80.0 C138.0 80.0 138.0 80.0 138.0 80.0 C138.0 80.0 138.0 80.0 138.0 80.0 C138.0 80.0 138.0 80.0 138.0 80.0 C138.0 80.0 138.0 80.0 138.0 80.0 C138.0 80.0 138.0 80.0 138.0 80.0 C138.0 80.0 138.0 80.0 138.0 80.0 C138.0 80.0 138.0 80.0 138.0 80.0 C138.0 80.0 138.0 80.0 138.0 80.0 C138.0 80.0 138.0 80.0 138.0 80.0 C138.0 80.0 138.0 80.0 138.0 80.0 C138.0 80.0 138.0 80.0 138.0 80.0 C138.0 80.0 138.0 80.0 138.0 80.0 C138.0 80.0 138.0 80.0 138.0 80.0 C138.0 80.0 138.0 80.0 138.0 80.0 C138.0 80.0 138.0 80.0 138.0 80.0 C138.0 80.0 138.0 80.0 138.0 80.0 C138.0 80.0 138.0 80.0 138.0 80.0 C138.0 80.0 138.0 80.0 138.0 80.0 C138.0 80.0 138.0 80.0 138.0 80.0 C138.0 80.0 138.0 80.0 138.0 80.0 C138.0 80.0 138.0 80.0 138.0 80.0 C138.0 80.0 138.0 80.0 138.0 80.0 C138.0 80.0 138.0 80.0 138.0 80.0 C138.0 80.0 138.0 80.0 138.0 80.0 C138.0 80.0 138.0 80.0 138.0 80.0 C138.0 80.0 138.0 80.0 138.0 80.0 C138.0 80.0 138.0 80.0 138.0 80.0 C138.0 80.0 138.0 80.0 138.0 80.0 C138.0 80.0 138.0 80.0 138.0 80.0 C138.0 80.0 138.0 80.0 138.0 80.0 C138.0 80.0 138.0 80.0 138.0 80.0 C138.0 80.0 138.0 80.0 138.0 80.0 C138.0 80.0 138.0 80.0 138.0 80.0 C138.0 80.0 138.0 80.0 138.0 80.0 C138.0 80.0 138.0 80.0 138.0 80.0 C138.0 80.0 138.0 80.0 138.0 80.0 C138.0 80.0 138.0 80.0 138.0 80.0 C138.0 80.0 138.0 80.0 138.0 80.0 C138.0 80.0 138.0 80.0 138.0 80.0 C138.0 80.0 138.0 80.0 138.0 80.0 C138.0 80.0 138.0 80.0 138.0 80.0 C138.0 80.0 138.0 80.0 138.0 80.0 C138.0 80.0 138.0 80.0 138.0 80.0 C138.0 80.0 138.0 80.0 138.0 80.0 C138.0 80.0 138.0 80.0 138.0 80.0 C138.0 80.0 138.0 80.0 138.0 80.0 C138.0 80.0 138.0 80.0 138.0 80.0 C138.0 80.0 138.0 80.0 138.0 80.0 C138.0 80.0 138.0 80.0 138.0 80.0 C138.0 80.0 138.0 80.0 138.0 80.0 C138.0 80.0 138.0 80.0 138.0 80.0 C138.0 80.0 138.0 80.0 138.0 80.0 C138.0 80.0 138.0 80.0 138.0 80.0 C138.0 80.0 138.0 80.0 138.0 80.0 C138.0 80.0 138.0 80.0 138.0 80.0 C138.0 80.0 138.0 80.0 138.0 80.0 C138.0 80.0 138.0 80.0 138.0 80.0 C138.0 80.0 138.0 80.0 138.0 80.0 C138.0 80.0 138.0 80.0 138.0 80.0 C138.0 80.0 138.0 80.0 138.0 80.0 C138.0 80.0 138.0 80.0 138.0 80.0 C138.0 80.0 138.0 80.0 138.0 80.0 C138.0 80.0 138.0 80.0 138.0 80.0 C138.0 80.0 138.0 80.0 138.0 80.0 C138.0 80.0 138.0 80.0 138.0 80.0 C138.0 80.0 138.0 80.0 138.0 80.0 C138.0 80.0 138.0 80.0 138.0 80.0 C138.0 80.0 138.0 80.0 138.0 80.0 C138.0 80.0 138.0 80.0 138.0 80.0 C138.0 80.0 138.0 80.0 138.0 80.0 C138.0 80.0 138.0 80.0 138.0 80.0 C138.0 80.0 138.0 80.0 138.0 80.0 C138.0 80.0 138.0 80.0 138.0 80.0 C138.0 80.0 138.0 80.0 138.0 80.0 C138.0 80.0 138.0 80.0 138.0 80.0 C138.0 80.0 138.0 80.0 138.0 80.0 C138.0 80.0 138.0 80.0 138.0 80.0 C138.0 80.0 138.0 80.0 138.0 80.0 C138.0 80.0 138.0 80.0 138.0 80.0 C138.0 80.0 138.0 80.0 138.0 80.0 C138.0 80.0 138.0 80.0 138.0 80.0 C138.0 80.0 138.0 80.0 138.0 80.0 C138.0 80.0 138.0 80.0 138.0 80.0 C138.0 80.0 138.0 80.0 138.0 80.0 C138.0 80.0 138.0 80.0 138.0 80.0 C138.0 80.0 138.0 80.0 138.0 80.0 C138.0 80.0 138.0 80.0 138.0 80.0 C138.0 80.0 138.0 80.0 138.0 80.0 C138.0 80.0 138.0 80.0 138.0 80.0 C138.0 80.0 138.0 80.0 138.0 80.0 C138.0 80.0 138.0 80.0 138.0 80.0 C138.0 80.0 138.0 80.0 138.0 80.0 C138.0 80.0 138.0 80.0 138.0 80.0 C138.0 80.0 138.0 80.0 138.0 80.0 C138.0 80.0 138.0 80.0 138.0 80.0 C138.0 80.0 138.0 80.0 138.0 80.0 C138.0 80.0 138.0 80.0 138.0 80.0 C138.0 80.0 138.0 80.0 138.0 80.0 C138.0 80.0 138.0 80.0 136.0 84.0 C136.0 84.0 136.0 84.0 136.0 84.0 C136.0 84.0 136.0 84.0 136.0 84.0 C136.0 84.0 136.0 84.0 136.0 84.0 C136.0 84.0 136.0 84.0 136.0 84.0 C136.0 84.0 136.0 84.0 136.0 84.0 C136.0 84.0 136.0 84.0 136.0 84.0 C136.0 84.0 136.0 84.0 136.0 84.0 C136.0 84.0 136.0 84.0 136.0 84.0 C136.0 84.0 136.0 84.0 136.0 84.0 C136.0 84.0 136.0 84.0 136.0 84.0 C136.0 84.0 136.0 84.0 136.0 84.0 C136.0 84.0 136.0 84.0 136.0 84.0 C136.0 84.0 136.0 84.0 136.0 84.0 C136.0 84.0 136.0 84.0 136.0 84.0 C136.0 84.0 136.0 84.0 136.0 84.0 C136.0 84.0 136.0 84.0 136.0 84.0 C136.0 84.0 136.0 84.0 136.0 84.0 C136.0 84.0 136.0 84.0 136.0 84.0 C136.0 84.0 136.0 84.0 136.0 84.0 C136.0 84.0 136.0 84.0 136.0 84.0 C136.0 84.0 136.0 84.0 136.0 84.0 C136.0 84.0 136.0 84.0 136.0 84.0 C136.0 84.0 136.0 84.0 136.0 84.0 C136.0 84.0 136.0 84.0 136.0 84.0 C136.0 84.0 136.0 84.0 136.0 84.0 C136.0 84.0 136.0 84.0 136.0 84.0 C136.0 84.0 136.0 84.0 136.0 84.0 C136.0 84.0 136.0 84.0 136.0 84.0 C136.0 84.0 136.0 84.0 136.0 84.0 C136.0 84.0 136.0 84.0 136.0 84.0 C136.0 84.0 136.0 84.0 136.0 84.0 C136.0 84.0 136.0 84.0 136.0 84.0 C136.0 84.0 136.0 84.0 136.0 84.0 C136.0 84.0 136.0 84.0 136.0 84.0 C136.0 84.0 136.0 84.0 136.0 84.0 C136.0 84.0 136.0 84.0 136.0 84.0 C136.0 84.0 136.0 84.0 136.0 84.0 C136.0 84.0 136.0 84.0 136.0 84.0 C136.0 84.0 136.0 84.0 136.0 84.0 C136.0 84.0 136.0 84.0 136.0 84.0 C136.0 84.0 136.0 84.0 136.0 84.0 C136.0 84.0 136.0 84.0 136.0 84.0 C136.0 84.0 136.0 84.0 136.0 84.0 C136.0 84.0 136.0 84.0 136.0 84.0 C136.0 84.0 136.0 84.0 136.0 84.0 C136.0 84.0 136.0 84.0 136.0 84.0 C136.0 84.0 136.0 84.0 136.0 84.0 C136.0 84.0 136.0 84.0 136.0 84.0 C136.0 84.0 136.0 84.0 136.0 84.0 C136.0 84.0 136.0 84.0 136.0 84.0 C136.0 84.0 136.0 84.0 136.0 84.0 C136.0 84.0 136.0 84.0 136.0 84.0 C136.0 84.0 136.0 84.0 136.0 84.0 C136.0 84.0 136.0 84.0 136.0 84.0 C136.0 84.0 136.0 84.0 136.0 84.0 C136.0 84.0 136.0 84.0 136.0 84.0 C136.0 84.0 136.0 84.0 136.0 84.0 C136.0 84.0 136.0 84.0 136.0 84.0 C136.0 84.0 136.0 84.0 136.0 84.0 C136.0 84.0 136.0 84.0 136.0 84.0 C136.0 84.0 136.0 84.0 136.0 84.0 C136.0 84.0 136.0 84.0 136.0 84.0 C136.0 84.0 136.0 84.0 136.0 84.0 C136.0 84.0 136.0 84.0 136.0 84.0 C136.0 84.0 136.0 84.0 136.0 84.0 C136.0 84.0 136.0 84.0 136.0 84.0 C136.0 84.0 136.0 84.0 136.0 84.0 C136.0 84.0 136.0 84.0 136.0 84.0 C136.0 84.0 136.0 84.0 136.0 84.0 C136.0 84.0 136.0 84.0 136.0 84.0 C136.0 84.0 136.0 84.0 136.0 84.0 C136.0 84.0 136.0 84.0 136.0 84.0 C136.0 84.0 136.0 84.0 136.0 84.0 C136.0 84.0 136.0 84.0 136.0 84.0 C136.0 84.0 136.0 84.0 136.0 84.0 C136.0 84.0 136.0 84.0 136.0 84.0 C136.0 84.0 136.0 84.0 136.0 84.0 C136.0 84.0 136.0 84.0 136.0 84.0 C136.0 84.0 136.0 84.0 136.0 84.0 C136.0 84.0 136.0 84.0 136.0 84.0 C136.0 84.0 136.0 84.0 136.0 84.0 C136.0 84.0 136.0 84.0 136.0 84.0 C136.0 84.0 136.0 84.0 136.0 84.0 C136.0 84.0 136.0 84.0 136.0 84.0 C136.0 84.0 136.0 84.0 136.0 84.0 C136.0 84.0 136.0 84.0 136.0 84.0 C136.0 84.0 136.0 84.0 136.0 84.0 C136.0 84.0 136.0 84.0 136.0 84.0 C136.0 84.0 136.0 84.0 136.0 84.0 C136.0 84.0 136.0 84.0 136.0 84.0 C136.0 84.0 136.0 84.0 136.0 84.0 C136.0 84.0 136.0 84.0 136.0 84.0 C136.0 84.0 136.0 84.0 136.0 84.0 C136.0 84.0 136.0 84.0 136.0 84.0 C136.0 84.0 136.0 84.0 136.0 84.0 C136.0 84.0 136.0 84.0 136.0 84.0 C136.0 84.0 136.0 84.0 136.0 84.0 C136.0 84.0 136.0 84.0 136.0 84.0 C136.0 84.0 136.0 84.0 136.0 84.0 C136.0 84.0 136.0 84.0 136.0 84.0 C136.0 84.0 136.0 84.0 136.0 84.0 C136.0 84.0 136.0 84.0 136.0 84.0 C136.0 84.0 136.0 84.0 136.0 84.0 C136.0 84.0 136.0 84.0 136.0 84.0 C136.0 84.0 136.0 84.0 136.0 84.0 C136.0 84.0 136.0 84.0 136.0 84.0 C136.0 84.0 136.0 84.0 136.0 84.0 C136.0 84.0 136.0 84.0 136.0 84.0 C136.0 84.0 136.0 84.0 136.0 84.0 C136.0 84.0 136.0 84.0 136.0 84.0 C136.0 84.0 136.0 84.0 136.0 84.0 C136.0 84.0 136.0 84.0 136.0 84.0 C136.0 84.0 136.0 84.0 136.0 84.0 C136.0 84.0 136.0 84.0 136.0 84.0 C136.0 84.0 136.0 84.0 136.0 84.0 C136.0 84.0 136.0 84.0 136.0 84.0 C136.0 84.0 136.0 84.0 136.0 84.0 C136.0 84.0 136.0 84.0 136.0 84.0 C136.0 84.0 136.0 84.0 136.0 84.0 C136.0 84.0 136.0 84.0 136.0 84.0 C136.0 84.0 136.0 84.0 136.0 84.0 C136.0 84.0 136.0 84.0 136.0 84.0 C136.0 84.0 136.0 84.0 136.0 84.0 C136.0 84.0 136.0 84.0 136.0 84.0 C136.0 84.0 136.0 84.0 136.0 84.0 C136.0 84.0 136.0 84.0 136.0 84.0 C136.0 84.0 136.0 84.0 136.0 84.0 C136.0 84.0 136.0 84.0 136.0 84.0 C136.0 84.0 136.0 84.0 136.0 84.0 C136.0 84.0 136.0 84.0 136.0 84.0 C136.0 84.0 136.0 84.0 136.0 84.0 C136.0 84.0 136.0 84.0 136.0 84.0 C64.0 84.0 64.0 84.0 136.0 84.0 C136.0 84.0 136.0 84.0 136.0 84.0 C136.0 84.0 136.0 84.0 136.0 84.0 C136.0 84.0 136.0 84.0 136.0 84.0 C136.0 84.0 136.0 84.0 136.0 84.0 C136.0 84.0 136.0 84.0 136.0 84.0 C136.0 84.0 136.0 84.0 136.0 84.0 C136.0 84.0 136.0 84.0 136.0 84.0 C136.0 84.0 136.0 84.0 136.0 84.0 C136.0 84.0 136.0 84.0 136.0 84.0 C136.0 84.0 136.0 84.0 136.0 84.0 C136.0 84.0 136.0 84.0 136.0 84.0 C136.0 84.0 136.0 84.0 136.0 84.0 C136.0 84.0 136.0 84.0 136.0 84.0 C136.0 84.0 136.0 84.0 136.0 84.0 C136.0 84.0 136.0 84.0 136.0 84.0 C136.0 84.0 136.0 84.0 136.0 84.0 C136.0 84.0 136.0 84.0 136.0 84.0 C136.0 84.0 136.0 84.0 136.0 84.0 C136.0 84.0 136.0 84.0 136.0 84.0 C136.0 84.0 136.0 84.0 136.0 84.0 C136.0 84.0 136.0 84.0 136.0 84.0 C136.0 84.0 136.0 84.0 136.0 84.0 C136.0 84.0 136.0 84.0 136.0 84.0 C136.0 84.0 136.0 84.0 136.0 84.0 C136.0 84.0 136.0 84.0 136.0 84.0 C136.0 84.0 136.0 84.0 136.0 84.0 C136.0 84.0 136.0 84.0 136.0 84.0 C136.0 84.0 136.0 84.0 136.0 84.0 C136.0 84.0 136.0 84.0 136.0 84.0 C136.0 84.0 136.0 84.0 136.0 84.0 C136.0 84.0 136.0 84.0 136.0 84.0 C136.0 84.0 136.0 84.0 136.0 84.0 C136.0 84.0 136.0 84.0 136.0 84.0 C136.0 84.0 136.0 84.0 136.0 84.0 C136.0 84.0 136.0 84.0 136.0 84.0 C136.0 84.0 136.0 84.0 136.0 84.0 C136.0 84.0 136.0 84.0 136.0 84.0 C136.0 84.0 136.0 84.0 136.0 84.0 C136.0 84.0 136.0 84.0 136.0 84.0 C136.0 84.0 136.0 84.0 136.0 84.0 C136.0 84.0 136.0 84.0 136.0 84.0 C136.0 84.0 136.0 84.0 136.0 84.0 C136.0 84.0 136.0 84.0 136.0 84.0 C136.0 84.0 136.0 84.0 136.0 84.0 C136.0 84.0 136.0 84.0 136.0 84.0 C136.0 84.0 136.0 84.0 136.0 84.0 C136.0 84.0 136.0 84.0 136.0 84.0 C136.0 84.0 136.0 84.0 136.0 84.0 C136.0 84.0 136.0 84.0 136.0 84.0 C136.0 84.0 136.0 84.0 136.0 84.0 C136.0 84.0 136.0 84.0 136.0 84.0 C136.0 84.0 136.0 84.0 136.0 84.0"></path></svg>