<svg xmlns="http://www.w3.org/2000/svg" viewBox="0.0 0.0 200.0 200.0" height="200px" width="200px"><path fill="#000000" fill-opacity="1.0"  filling="0" d="M138.0 81.0 C137.0 81.0 137.0 80.0 136.0 80.0 C135.0 80.0 134.0 79.0 133.0 79.0 C130.0 78.0 127.0 78.0 124.0 78.0 C122.0 78.0 119.0 78.0 116.0 78.0 C115.0 78.0 114.0 78.0 112.0 78.0 C112.0 78.0 111.0 78.0 110.0 78.0 C109.0 78.0 108.0 77.0 107.0 76.0 C106.0 74.0 104.0 72.0 102.0 70.0 C101.0 69.0 100.0 68.0 98.0 68.0 C97.0 67.0 95.0 67.0 94.0 68.0 C93.0 69.0 92.0 70.0 92.0 71.0 C91.0 72.0 91.0 73.0 91.0 74.0 L91.0 87.0 C91.0 88.0 91.0 90.0 91.0 91.0 C91.0 92.0 91.0 93.0 91.0 94.0 C91.0 95.0 91.0 96.0 91.0 97.0 C91.0 99.0 91.0 101.0 91.0 103.0 C91.0 105.0 91.0 107.0 91.0 109.0 C91.0 110.0 91.0 112.0 92.0 114.0 C92.0 116.0 92.0 118.0 93.0 120.0 C93.0 122.0 94.0 124.0 95.0 126.0 C95.0 127.0 96.0 128.0 96.0 129.0 C97.0 130.0 97.0 131.0 98.0 132.0 C98.0 133.0 99.0 134.0 100.0 135.0 C101.0 136.0 102.0 137.0 103.0 137.0 C104.0 138.0 105.0 138.0 106.0 138.0 C107.0 139.0 108.0 139.0 109.0 139.0 C110.0 139.0 111.0 139.0 112.0 139.0 C113.0 139.0 114.0 139.0 115.0 139.0 C115.0 139.0 115.0 139.0 115.0 139.0 C115.0 139.0 115.0 139.0 115.0 139.0 C115.0 139.0 115.0 139.0 115.0 139.0 C115.0 139.0 115.0 139.0 115.0 139.0 C115.0 139.0 115.0 139.0 115.0 139.0 C115.0 139.0 115.0 139.0 115.0 139.0 C115.0 139.0 115.0 139.0 115.0 139.0 C115.0 139.0 115.0 139.0 115.0 139.0 C115.0 139.0 115.0 139.0 115.0 139.0 C115.0 139.0 115.0 139.0 115.0 139.0 C115.0 139.0 115.0 139.0 115.0 139.0 C115.0 139.0 115.0 139.0 115.0 139.0 C115.0 139.0 115.0 139.0 115.0 139.0 C115.0 139.0 115.0 139.0 115.0 139.0 C115.0 139.0 115.0 139.0 115.0 139.0 C115.0 139.0 115.0 139.0 115.0 139.0 C115.0 139.0 115.0 139.0 115.0 139.0 C115.0 139.0 115.0 139.0 115.0 139.0 C115.0 139.0 115.0 139.0 115.0 139.0 C115.0 139.0 115.0 139.0 115.0 139.0 C115.0 139.0 115.0 139.0 115.0 139.0 C115.0 139.0 115.0 139.0 115.0 139.0 C115.0 139.0 115.0 139.0 115.0 139.0 C115.0 139.0 115.0 139.0 115.0 139.0 C115.0 139.0 115.0 139.0 115.0 139.0 C115.0 139.0 115.0 139.0 115.0 139.0 C115.0 139.0 115.0 139.0 115.0 139.0 C115.0 139.0 115.0 139.0 115.0 139.0 C115.0 139.0 115.0 139.0 115.0 139.0 C115.0 139.0 115.0 139.0 115.0 139.0 C115.0 139.0 115.0 139.0 115.0 139.0 C115.0 139.0 115.0 139.0 115.0 139.0 C115.0 139.0 115.0 139.0 115.0 139.0 C115.0 139.0 115.0 139.0 115.0 139.0 C115.0 139.0 115.0 139.0 115.0 139.0 C115.0 139.0 115.0 139.0 115.0 139.0 C115.0 139.0 115.0 139.0 115.0 139.0 C115.0 139.0 115.0 139.0 115.0 139.0 C115.0 139.0 115.0 139.0 115.0 139.0 C115.0 139.0 115.0 139.0 115.0 139.0 C115.0 139.0 115.0 139.0 115.0 139.0 C115.0 139.0 115.0 139.0 115.0 139.0 C115.0 139.0 115.0 139.0 115.0 139.0 C115.0 139.0 115.0 139.0 115.0 139.0 C115.0 139.0 115.0 139.0 115.0 139.0 C115.0 139.0 115.0 139.0 115.0 139.0 C115.0 139.0 115.0 139.0 115.0 139.0 C115.0 139.0 115.0 139.0 115.0 139.0 C115.0 139.0 115.0 139.0 115.0 139.0 C115.0 139.0 115.0 139.0 115.0 139.0 C115.0 139.0 115.0 139.0 115.0 139.0 C115.0 139.0 115.0 139.0 115.0 139.0 C115.0 139.0 115.0 139.0 115.0 139.0 C115.0 139.0 115.0 139.0 115.0 139.0 C115.0 139.0 115.0 139.0 115.0 139.0 C115.0 139.0 115.0 139.0 115.0 139.0 C115.0 139.0 115.0 139.0 115.0 139.0 C115.0 139.0 115.0 139.0 115.0 139.0 C115.0 139.0 115.0 139.0 115.0 139.0 C115.0 139.0 115.0 139.0 115.0 139.0 C115.0 139.0 115.0 139.0 115.0 139.0 C115.0 139.0 115.0 139.0 115.0 139.0 C115.0 139.0 115.0 139.0 115.0 139.0 C115.0 139.0 115.0 139.0 115.0 139.0 C115.0 139.0 115.0 139.0 115.0 139.0 C115.0 139.0 115.0 139.0 115.0 139.0 C115.0 139.0 115.0 139.0 115.0 139.0 C115.0 139.0 115.0 139.0 115.0 139.0 C115.0 139.0 115.0 139.0 115.0 139.0 C115.0 139.0 115.0 139.0 115.0 139.0 C115.0 139.0 115.0 139.0 115.0 139.0 C115.0 139.0 115.0 139.0 115.0 139.0 C115.0 139.0 115.0 139.0 115.0 139.0 C115.0 139.0 115.0 139.0 115.0 139.0 C115.0 139.0 115.0 139.0 115.0 139.0 C115.0 139.0 115.0 139.0 115.0 139.0 C115.0 139.0 115.0 139.0 115.0 139.0 C115.0 139.0 115.0 139.0 115.0 139.0 C115.0 139.0 115.0 139.0 115.0 139.0 C115.0 139.0 115.0 139.0 115.0 139.0 C115.0 139.0 115.0 139.0 115.0 139.0 C115.0 139.0 115.0 139.0 115.0 139.0 C115.0 139.0 115.0 139.0 115.0 139.0 C115.0 139.0 115.0 139.0 115.0 139.0 C115.0 139.0 115.0 139.0 115.0 139.0 C115.0 139.0 115.0 139.0 115.0 139.0 C115.0 139.0 115.0 139.0 115.0 139.0 C115.0 139.0 115.0 139.0 115.0 139.0 C115.0 139.0 115.0 139.0 115.0 139.0 C115.0 139.0 115.0 139.0 115.0 139.0 C115.0 139.0 115.0 139.0 115.0 139.0 C115.0 139.0 115.0 139.0 115.0 139.0 C115.0 139.0 115.0 139.0 115.0 139.0 C115.0 139.0 115.0 139.0 115.0 139.0 C115.0 139.0 115.0 139.0 115.0 139.0 C115.0 139.0 115.0 139.0 115.0 139.0 C115.0 139.0 115.0 139.0 115.0 139.0 C115.0 139.0 115.0 139.0 115.0 139.0 C115.0 139.0 115.0 139.0 115.0 139.0 C115.0 139.0 115.0 139.0 115.0 139.0 C115.0 139.0 115.0 139.0 115.0 139.0 C115.0 139.0 115.0 139.0 115.0 139.0 C115.0 139.0 115.0 139.0 115.0 139.0 C115.0 139.0 115.0 139.0 115.0 139.0 C115.0 139.0 115.0 139.0 115.0 139.0 C115.0 139.0 115.0 139.0 115.0 139.0 C115.0 139.0 115.0 139.0 115.0 139.0 C115.0 139.0 115.0 139.0 115.0 139.0 C115.0 139.0 115.0 139.0 115.0 139.0 C115.0 139.0 115.0 139.0 115.0 139.0 C115.0 139.0 115.0 139.0 115.0 139.0 C115.0 139.0 115.0 139.0 115.0 139.0 C115.0 139.0 115.0 139.0 115.0 139.0 C115.0 139.0 115.0 139.0 115.0 139.0 C115.0 139.0 115.0 139.0 115.0 139.0 C115.0 139.0 115.0 139.0 115.0 139.0 C115.0 139.0 115.0 139.0 115.0 139.0 C115.0 139.0 115.0 139.0 115.0 139.0 C115.0 139.0 115.0 139.0 115.0 139.0 C115.0 139.0 115.0 139.0 115.0 139.0 C115.0 139.0 115.0 139.0 115.0 139.0 C115.0 139.0 115.0 139.0 115.0 139.0 C115.0 139.0 115.0 139.0 115.0 139.0 C115.0 139.0 115.0 139.0 115.0 139.0 C115.0 139.0 115.0 139.0 115.0 139.0 C115.0 139.0 115.0 139.0 115.0 139.0 C115.0 139.0 115.0 139.0 115.0 139.0 C115.0 139.0 115.0 139.0 115.0 139.0 C115.0 139.0 115.0 139.0 115.0 139.0 C115.0 139.0 115.0 139.0 115.0 139.0 C115.0 139.0 115.0 139.0 115.0 139.0 C115.0 139.0 115.0 139.0 115.0 139.0 C115.0 139.0 115.0 139.0 115.0 139.0 C115.0 139.0 115.0 139.0 115.0 139.0 C115.0 139.0 115.0 139.0 115.0 139.0 C115.0 139.0 115.0 139.0 115.0 139.0 C115.0 139.0 115.0 139.0 115.0 139.0 C115.0 139.0 115.0 139.0 115.0 139.0 C115.0 139.0 115.0 139.0 115.0 139.0 C115.0 139.0 115.0 139.0 115.0 139.0 C115.0 139.0 115.0 139.0 115.0 139.0 C115.0 139.0 115.0 139.0 115.0 139.0 C115.0 139.0 115.0 139.0 115.0 139.0 C115.0 139.0 115.0 139.0 115.0 139.0 C115.0 139.0 115.0 139.0 115.0 139.0 C115.0 139.0 115.0 139.0 115.0 139.0 C115.0 139.0 115.0 139.0 115.0 139.0 C115.0 139.0 115.0 139.0 115.0 139.0 C115.0 139.0 115.0 139.0 115.0 139.0 C115.0 139.0 115.0 139.0 115.0 139.0 C85.0 139.0 85.0 139.0 85.0 139.0 C85.0 139.0 85.0 139.0 85.0 139.0 C85.0 139.0 85.0 139.0 85.0 139.0 C85.0 139.0 85.0 139.0 85.0 139.0 C85.0 139.0 85.0 139.0 85.0 139.0 C85.0 139.0 85.0 139.0 85.0 139.0 C85.0 139.0 85.0 139.0 85.0 139.0 C85.0 139.0 85.0 139.0 85.0 139.0 C85.0 139.0 85.0 139.0 85.0 139.0 C85.0 139.0 85.0 139.0 85.0 139.0 C85.0 139.0 85.0 139.0 85.0 139.0 C85.0 139.0 85.0 139.0 85.0 139.0 C85.0 139.0 85.0 139.0 85.0 139.0 C85.0 139.0 85.0 139.0 85.0 139.0 C115.0 139.0 115.0 139.0 115.0 139.0 C115.0 139.0 115.0 139.0 115.0 139.0 C115.0 139.0 115.0 139.0 115.0 139.0 C115.0 139.0 115.0 139.0 115.0 139.0 C115.0 139.0 115.0 139.0 115.0 139.0 C115.0 139.0 115.0 139.0 115.0 139.0 C115.0 139.0 115.0 139.0 115.0 139.0 C115.0 139.0 115.0 139.0 115.0 139.0 C115.0 139.0 115.0 139.0 115.0 139.0 C115.0 139.0 115.0 139.0 115.0 139.0 C115.0 139.0 115.0 139.0 115.0 139.0 C115.0 139.0 115.0 139.0 115.0 139.0 C115.0 139.0 115.0 139.0 115.0 139.0 C115.0 139.0 115.0 139.0 115.0 139.0 C115.0 139.0 115.0 139.0 115.0 139.0 C115.0 139.0 115.0 139.0 115.0 139.0 C115.0 139.0 115.0 139.0 115.0 139.0 C115.0 139.0 115.0 139.0 115.0 139.0 C115.0 139.0 115.0 139.0 115.0 139.0 C115.0 139.0 115.0 139.0 115.0 139.0 C115.0 139.0 115.0 139.0 115.0 139.0 C115.0 139.0 115.0 139.0 115.0 139.0 C115.0 139.0 115.0 139.0 115.0 139.0 C115.0 139.0 115.0 139.0 115.0 139.0 C115.0 139.0 115.0 139.0 115.0 139.0 C115.0 139.0 115.0 139.0 115.0 139.0 C115.0 139.0 115.0 139.0 115.0 139.0 C115.0 139.0 115.0 139.0 115.0 139.0 C115.0 139.0 115.0 139.0 115.0 139.0 C115.0 139.0 115.0 139.0 115.0 139.0 C115.0 139.0 115.0 139.0 115.0 139.0 C115.0 139.0 115.0 139.0 115.0 139.0 C115.0 139.0 115.0 139.0 115.0 139.0 C115.0 139.0 115.0 139.0 115.0 139.0 C115.0 139.0 115.0 139.0 115.0 139.0 C85.0 139.0 115.0 139.0 115.0 139.0 C115.0 139.0 115.0 139.0 115.0 139.0 C115.0 139.0 115.0 139.0 115.0 139.0 C115.0 139.0 115.0 139.0 115.0 139.0 C115.0 139.0 115.0 139.0 115.0 139.0 C115.0 139.0 115.0 139.0 115.0 139.0 C115.0 139.0 115.0 139.0 115.0 139.0 C115.0 139.0 115.0 139.0 115.0 139.0 C115.0 139.0 115.0 139.0 115.0 139.0 C115.0 139.0 115.0 139.0 115.0 139.0 C115.0 139.0 115.0 139.0 115.0 139.0 C115.0 139.0 115.0 139.0 115.0 139.0 C115.0 139.0 115.0 139.0 115.0 139.0 C115.0 139.0 115.0 139.0 115.0 139.0 C115.0 139.0 115.0 139.0 115.0 139.0 C115.0 139.0 115.0 139.0 115.0 139.0 C115.0 139.0 115.0 139.0 115.0 139.0 C115.0 139.0 115.0 139.0 115.0 139.0 C115.0 139.0 115.0 139.0 115.0 139.0 C115.0 139.0 115.0 139.0 115.0 139.0 C115.0 139.0 115.0 139.0 115.0 139.0 C115.0 139.0 115.0 139.0 115.0 139.0 C85.0 139.0 115.0 139.0 115.0 139.0 C115.0 139.0 115.0 139.0 115.0 139.0 C115.0 139.0 115.0 139.0 115.0 139.0 C115.0 139.0 115.0 139.0 115.0 139.0 C115.0 139.0 115.0 139.0 115.0 139.0 C115.0 139.0 115.0 139.0 115.0 139.0 C115.0 139.0 115.0 139.0 115.0 139.0 C115.0 139.0 115.0 139.0 115.0 139.0 C115.0 139.0 115.0 139.0 115.0 139.0 C115.0 139.0 115.0 139.0 115.0 139.0 C115.0 139.0 115.0 139.0 115.0 139.0 C115.0 139.0 115.0 139.0 115.0 139.0 C115.0 139.0 115.0 139.0 115.0 139.0 C115.0 139.0 115.0 139.0 115.0 139.0 C115.0 139.0 115.0 139.0 115.0 139.0 C115.0 139.0 115.0 139.0 115.0 139.0 C115.0 139.0 115.0 139.0 115.0 139.0 C115.0 139.0 115.0 139.0 115.0 139.0 C115.0 139.0 115.0 139.0 115.0 139.0 C115.0 139.0 115.0 139.0 115.0 139.0 C115.0 139.0 115.0 139.0 115.0 139.0 C115.0 139.0 115.0 139.0 115.0 139.0 C115.0 139.0 115.0 139.0 115.0 139.0 C115.0 139.0 115.0 139.0 115.0 139.0 C115.0 139.0 115.0 139.0 115.0 139.0 C115.0 139.0 115.0 139.0 115.0 139.0 C115.0 139.0 115.0 139.0 115.0 139.0 C115.0 139.0 115.0 139.0 115.0 139.0 C115.0 139.0 115.0 139.0 115.0 139.0 C115.0 139.0 115.0 139.0 115.0 139.0 C115.0 139.0 115.0 139.0 115.0 139.0 C115.0 139.0 115.0 139.0 115.0 139.0 C115.0 139.0 115.0 139.0 115.0 139.0 C115.0 139.0 115.0 139.0 115.0 139.0 C115.0 139.0 115.0 139.0 115.0 139.0 C115.0 139.0 115.0 139.0 115.0 139.0 C115.0 139.0 115.0 139.0 115.0 139.0 C115.0 139.0 115.0 139.0 115.0 139.0 C115.0 139.0 115.0 139.0 115.0 139.0 C115.0 139.0 115.0 139.0 115.0 139.0 C115.0 139.0 115.0 139.0 115.0 139.0 C115.0 139.0 115.0 139.0 115.0 139.0 C115.0 139.0 115.0 139.0 115.0 139.0 C115.0 139.0 115.0 139.0 115.0 139.0 C115.0 139.0 115.0 139.0 115.0 139.0 C127.0 139.0 133.0 138.0 138.0 135.0 C140.0 133.0 143.0 131.0 144.0 128.0 C144.0 128.0 144.0 128.0 144.0 128.0 C144.0 128.0 144.0 128.0 144.0 128.0 C144.0 128.0 144.0 128.0 144.0 128.0 C144.0 128.0 144.0 128.0 144.0 128.0 C144.0 128.0 144.0 128.0 144.0 128.0 C144.0 128.0 144.0 128.0 144.0 128.0 C144.0 128.0 144.0 128.0 144.0 128.0 C144.0 128.0 144.0 128.0 144.0 128.0 C144.0 128.0 144.0 128.0 144.0 128.0 C144.0 128.0 144.0 128.0 144.0 128.0 C144.0 128.0 144.0 128.0 144.0 128.0 C144.0 128.0 144.0 128.0 144.0 128.0 C144.0 128.0 144.0 128.0 144.0 128.0 C144.0 128.0 144.0 128.0 144.0 128.0 C144.0 128.0 144.0 128.0 144.0 128.0 C144.0 128.0 144.0 128.0 144.0 128.0 C144.0 128.0 144.0 128.0 144.0 128.0 C144.0 128.0 144.0 128.0 144.0 128.0 C144.0 128.0 144.0 128.0 144.0 128.0 C144.0 128.0 144.0 128.0 144.0 128.0 C144.0 128.0 144.0 128.0 144.0 128.0 C144.0 128.0 144.0 128.0 144.0 128.0 C144.0 128.0 144.0 128.0 144.0 128.0 C144.0 128.0 144.0 128.0 144.0 128.0 C144.0 128.0 144.0 128.0 144.0 128.0 C144.0 128.0 144.0 128.0 144.0 128.0 C144.0 128.0 144.0 128.0 144.0 128.0 C144.0 128.0 144.0 128.0 144.0 128.0 C144.0 128.0 144.0 128.0 144.0 128.0 C144.0 128.0 144.0 128.0 144.0 128.0 C144.0 128.0 144.0 128.0 144.0 128.0 C144.0 128.0 144.0 128.0 144.0 128.0 C144.0 128.0 144.0 128.0 144.0 128.0 C144.0 128.0 144.0 128.0 144.0 128.0 C144.0 128.0 144.0 128.0 144.0 128.0 C144.0 128.0 144.0 128.0 144.0 128.0 C144.0 128.0 144.0 128.0 144.0 128.0 C144.0 128.0 144.0 128.0 144.0 128.0 C144.0 128.0 144.0 128.0 144.0 128.0 C144.0 128.0 144.0 128.0 144.0 128.0 C144.0 128.0 144.0 128.0 144.0 128.0 C144.0 128.0 144.0 128.0 144.0 128.0 C144.0 128.0 144.0 128.0 144.0 128.0 C144.0 128.0 144.0 128.0 144.0 128.0 C144.0 128.0 144.0 128.0 144.0 128.0 C144.0 128.0 144.0 128.0 144.0 128.0 C144.0 128.0 144.0 128.0 144.0 128.0 C144.0 128.0 144.0 128.0 144.0 128.0 C144.0 128.0 144.0 128.0 144.0 128.0 C144.0 128.0 144.0 128.0 144.0 128.0 C144.0 128.0 144.0 128.0 144.0 128.0 C144.0 128.0 144.0 128.0 144.0 128.0 C144.0 128.0 144.0 128.0 144.0 128.0 C144.0 128.0 144.0 128.0 144.0 128.0 C144.0 128.0 144.0 128.0 144.0 128.0 C144.0 128.0 144.0 128.0 144.0 128.0 C144.0 128.0 144.0 128.0 144.0 128.0 C144.0 128.0 144.0 128.0 144.0 128.0 C144.0 128.0 144.0 128.0 144.0 128.0 C144.0 128.0 144.0 128.0 144.0 128.0 C144.0 128.0 144.0 128.0 144.0 128.0 C144.0 128.0 144.0 128.0 144.0 128.0 C144.0 128.0 144.0 128.0 144.0 128.0 C144.0 128.0 144.0 128.0 144.0 128.0 C144.0 128.0 144.0 128.0 144.0 128.0 C144.0 128.0 144.0 128.0 144.0 128.0 C144.0 128.0 144.0 128.0 144.0 128.0 C144.0 128.0 144.0 128.0 144.0 128.0 C144.0 128.0 144.0 128.0 144.0 128.0 C144.0 128.0 144.0 128.0 144.0 128.0 C144.0 128.0 144.0 128.0 144.0 128.0 C144.0 128.0 144.0 128.0 144.0 128.0 C144.0 128.0 144.0 128.0 144.0 128.0 C144.0 128.0 144.0 128.0 144.0 128.0 C144.0 128.0 144.0 128.0 144.0 128.0 C144.0 128.0 144.0 128.0 144.0 128.0 C144.0 128.0 144.0 128.0 144.0 128.0 C144.0 128.0 144.0 128.0 144.0 128.0 C144.0 128.0 144.0 128.0 144.0 128.0 C144.0 128.0 144.0 128.0 144.0 128.0 C144.0 128.0 144.0 128.0 144.0 128.0 C144.0 128.0 144.0 128.0 144.0 128.0 C144.0 128.0 144.0 128.0 144.0 128.0 C144.0 128.0 144.0 128.0 144.0 128.0 C144.0 128.0 144.0 128.0 144.0 128.0"></path></svg>