<svg xmlns="http://www.w3.org/2000/svg" viewBox="0.0 0.0 200.0 200.0" height="200px" width="200px"><path fill="#ffeecc" fill-opacity="1.0"  filling="0" d="M29.0 104.0 A64.0 64.0 0.0 1 0 155.0 108.0 A64.0 64.0 0.0 1 0 29.0 104.0 L29.0 104.0 Z"></path>
<path fill="#222222" fill-opacity="1.0"  filling="0" d="M93.0 171.0 C80.0 171.0 67.0 167.0 56.0 160.0 C44.0 152.0 36.0 142.0 31.0 130.0 C26.0 118.0 25.0 104.0 29.0 92.0 C31.0 80.0 37.0 69.0 45.0 59.0 C54.0 50.0 65.0 43.0 77.0 39.0 C90.0 35.0 103.0 35.0 115.0 39.0 C127.0 43.0 137.0 51.0 143.0 63.0 C151.0 74.0 155.0 87.0 156.0 100.0 C157.0 113.0 155.0 126.0 149.0 138.0 C143.0 150.0 133.0 159.0 121.0 165.0 C111.0 169.0 102.0 171.0 93.0 171.0 L93.0 171.0 Z M94.0 40.0 C75.0 40.0 59.0 48.0 48.0 62.0 C31.0 78.0 24.0 104.0 35.0 129.0 C45.0 153.0 69.0 167.0 93.0 167.0 C108.0 167.0 124.0 162.0 137.0 150.0 C149.0 136.0 154.0 118.0 152.0 101.0 C150.0 73.0 129.0 49.0 103.0 41.0 C100.0 40.0 97.0 40.0 94.0 40.0 L94.0 40.0 Z"></path>
<path fill="#bb7755" fill-opacity="1.0"  filling="0" d="M92.0 125.0 C92.0 125.0 92.0 124.0 91.0 124.0 C90.0 123.0 90.0 122.0 91.0 121.0 C91.0 121.0 102.0 101.0 113.0 84.0 C126.0 67.0 145.0 48.0 176.0 27.0 C177.0 27.0 178.0 27.0 179.0 27.0 C179.0 28.0 179.0 29.0 179.0 30.0 C153.0 52.0 132.0 74.0 119.0 93.0 C107.0 108.0 95.0 123.0 95.0 123.0 C94.0 124.0 93.0 124.0 92.0 125.0 L92.0 125.0 Z"></path>
<path fill="#000000" fill-opacity="1.0"  filling="0" d="M93.0 125.0 C92.0 125.0 92.0 125.0 91.0 125.0 C90.0 124.0 90.0 123.0 91.0 122.0 C91.0 121.0 102.0 102.0 113.0 84.0 C124.0 67.0 144.0 49.0 176.0 25.0 C176.0 25.0 177.0 25.0 178.0 25.0 C178.0 25.0 179.0 26.0 179.0 26.0 C180.0 27.0 180.0 29.0 179.0 30.0 C154.0 53.0 133.0 74.0 120.0 93.0 C108.0 108.0 96.0 123.0 95.0 123.0 C95.0 124.0 94.0 125.0 93.0 125.0 L93.0 125.0 Z M177.0 27.0 C177.0 27.0 177.0 27.0 177.0 27.0 C173.0 41.0 167.0 53.0 160.0 64.0 C152.0 77.0 143.0 88.0 134.0 99.0 C125.0 111.0 115.0 121.0 106.0 125.0 C106.0 126.0 105.0 126.0 104.0 125.0 C104.0 125.0 104.0 125.0 104.0 124.0 C103.0 124.0 103.0 123.0 104.0 122.0 C104.0 122.0 122.0 109.0 132.0 97.0 C141.0 86.0 150.0 75.0 157.0 63.0 C164.0 53.0 169.0 42.0 174.0 31.0 C149.0 45.0 129.0 65.0 117.0 86.0 C107.0 100.0 99.0 115.0 96.0 123.0 C96.0 123.0 96.0 123.0 96.0 123.0 C96.0 123.0 96.0 123.0 96.0 123.0 C96.0 123.0 96.0 123.0 96.0 123.0 C96.0 123.0 96.0 123.0 96.0 123.0 C96.0 123.0 96.0 123.0 96.0 123.0 C96.0 123.0 96.0 123.0 96.0 123.0 C96.0 123.0 96.0 123.0 96.0 123.0 C96.0 123.0 96.0 123.0 96.0 123.0 C96.0 123.0 96.0 123.0 96.0 123.0 C96.0 123.0 96.0 123.0 96.0 123.0 C96.0 123.0 96.0 123.0 96.0 123.0 C96.0 123.0 96.0 123.0 96.0 123.0 C96.0 123.0 96.0 123.0 96.0 123.0 C96.0 123.0 96.0 123.0 96.0 123.0 C96.0 123.0 96.0 123.0 96.0 123.0 C96.0 123.0 96.0 123.0 96.0 123.0 C96.0 123.0 96.0 123.0 96.0 123.0 C96.0 123.0 96.0 123.0 96.0 123.0 C96.0 123.0 96.0 123.0 96.0 123.0 C96.0 123.0 96.0 123.0 96.0 123.0 C96.0 123.0 96.0 123.0 96.0 123.0 C96.0 123.0 96.0 123.0 96.0 123.0 C96.0 123.0 96.0 123.0 96.0 123.0 C96.0 123.0 96.0 123.0 96.0 123.0 C96.0 123.0 96.0 123.0 96.0 123.0 C96.0 123.0 96.0 123.0 96.0 123.0 C96.0 123.0 96.0 123.0 96.0 123.0 C96.0 123.0 96.0 123.0 96.0 123.0 C96.0 123.0 96.0 123.0 96.0 123.0 C96.0 123.0 96.0 123.0 96.0 123.0 C96.0 123.0 96.0 123.0 96.0 123.0 C96.0 123.0 96.0 123.0 96.0 123.0 C96.0 123.0 96.0 123.0 96.0 123.0 C96.0 123.0 96.0 123.0 96.0 123.0 C96.0 123.0 96.0 123.0 96.0 123.0 C96.0 123.0 96.0 123.0 96.0 123.0 C96.0 123.0 96.0 123.0 96.0 123.0 C96.0 123.0 96.0 123.0 96.0 123.0 C96.0 123.0 96.0 123.0 96.0 123.0 C96.0 123.0 96.0 123.0 96.0 123.0 C96.0 123.0 96.0 123.0 96.0 123.0 C96.0 123.0 96.0 123.0 96.0 123.0 C96.0 123.0 96.0 123.0 96.0 123.0 C96.0 123.0 96.0 123.0 96.0 123.0 C96.0 123.0 96.0 123.0 96.0 123.0 C96.0 123.0 96.0 123.0 96.0 123.0 C96.0 123.0 96.0 123.0 96.0 123.0 C96.0 123.0 96.0 123.0 96.0 123.0 C96.0 123.0 96.0 123.0 96.0 123.0 C96.0 123.0 96.0 123.0 96.0 123.0 C96.0 123.0 96.0 123.0 96.0 123.0 C96.0 123.0 96.0 123.0 96.0 123.0 C96.0 123.0 96.0 123.0 96.0 123.0 C96.0 123.0 96.0 123.0 96.0 123.0 C96.0 123.0 96.0 123.0 96.0 123.0 C96.0 123.0 96.0 123.0 96.0 123.0 C96.0 123.0 96.0 123.0 96.0 123.0 C96.0 123.0 96.0 123.0 96.0 123.0 C96.0 123.0 96.0 123.0 96.0 123.0 C96.0 123.0 96.0 123.0 96.0 123.0 C96.0 123.0 96.0 123.0 96.0 123.0 C96.0 123.0 96.0 123.0 96.0 123.0 C96.0 123.0 96.0 123.0 96.0 123.0 C96.0 123.0 96.0 123.0 96.0 123.0 C96.0 123.0 96.0 123.0 96.0 123.0 C96.0 123.0 96.0 123.0 96.0 123.0 C96.0 123.0 96.0 123.0 96.0 123.0 C96.0 123.0 96.0 123.0 96.0 123.0 C96.0 123.0 96.0 123.0 96.0 123.0 C96.0 123.0 96.0 123.0 96.0 123.0 C96.0 123.0 96.0 123.0 96.0 123.0 C96.0 123.0 96.0 123.0 96.0 123.0 C96.0 123.0 96.0 123.0 96.0 123.0 C96.0 123.0 96.0 123.0 96.0 123.0 C96.0 123.0 96.0 123.0 96.0 123.0 C96.0 123.0 96.0 123.0 96.0 123.0 C96.0 123.0 96.0 123.0 96.0 123.0 C96.0 123.0 96.0 123.0 96.0 123.0 C96.0 123.0 96.0 123.0 96.0 123.0 C96.0 123.0 96.0 123.0 96.0 123.0 C96.0 123.0 96.0 123.0 96.0 123.0 C96.0 123.0 96.0 123.0 96.0 123.0 C96.0 123.0 96.0 123.0 96.0 123.0 C96.0 123.0 96.0 123.0 96.0 123.0 C96.0 123.0 96.0 123.0 96.0 123.0 C96.0 123.0 96.0 123.0 96.0 123.0 C96.0 123.0 96.0 123.0 96.0 123.0 C96.0 123.0 96.0 123.0 96.0 123.0 C96.0 123.0 96.0 123.0 96.0 123.0 C96.0 123.0 96.0 123.0 96.0 123.0 C96.0 123.0 96.0 123.0 96.0 123.0 C96.0 123.0 96.0 123.0 96.0 123.0 C96.0 123.0 96.0 123.0 96.0 123.0 C96.0 123.0 96.0 123.0 96.0 123.0 C96.0 123.0 96.0 123.0 96.0 123.0 C96.0 123.0 96.0 123.0 96.0 123.0 C96.0 123.0 96.0 123.0 96.0 123.0 C96.0 123.0 96.0 123.0 96.0 123.0 C96.0 123.0 96.0 123.0 96.0 123.0 C96.0 123.0 96.0 123.0 96.0 123.0 C96.0 123.0 96.0 123.0 96.0 123.0 C96.0 123.0 96.0 123.0 96.0 123.0 C96.0 123.0 96.0 123.0 96.0 123.0 C96.0 123.0 96.0 123.0 96.0 123.0 C96.0 123.0 96.0 123.0 96.0 123.0 C96.0 123.0 96.0 123.0 96.0 123.0 C96.0 123.0 96.0 123.0 96.0 123.0 C96.0 123.0 96.0 123.0 96.0 123.0 C96.0 123.0 96.0 123.0 96.0 123.0 C96.0 123.0 96.0 123.0 96.0 123.0 C96.0 123.0 96.0 123.0 96.0 123.0 C96.0 123.0 96.0 123.0 96.0 123.0 C96.0 123.0 96.0 123.0 96.0 123.0 C96.0 123.0 96.0 123.0 96.0 123.0 C96.0 123.0 96.0 123.0 96.0 123.0 C96.0 123.0 96.0 123.0 96.0 123.0 C96.0 123.0 96.0 123.0 96.0 123.0 C96.0 123.0 96.0 123.0 96.0 123.0 C96.0 123.0 96.0 123.0 96.0 123.0 C96.0 123.0 96.0 123.0 96.0 123.0 C96.0 123.0 96.0 123.0 96.0 123.0 C96.0 123.0 96.0 123.0 96.0 123.0 C96.0 123.0 96.0 123.0 96.0 123.0 C96.0 123.0 96.0 123.0 96.0 123.0 C96.0 123.0 96.0 123.0 96.0 123.0 C96.0 123.0 96.0 123.0 96.0 123.0 C96.0 123.0 96.0 123.0 96.0 123.0 C96.0 123.0 96.0 123.0 96.0 123.0 C96.0 123.0 96.0 123.0 96.0 123.0 C96.0 123.0 96.0 123.0 96.0 123.0 C96.0 123.0 96.0 123.0 96.0 123.0 C96.0 123.0 96.0 123.0 96.0 123.0 C96.0 123.0 96.0 123.0 96.0 123.0 C96.0 123.0 96.0 123.0 96.0 123.0 C96.0 123.0 96.0 123.0 96.0 167.0 C96.0 167.0 96.0 167.0 96.0 167.0 C96.0 167.0 96.0 167.0 96.0 167.0 C96.0 167.0 96.0 167.0 96.0 167.0 C96.0 167.0 96.0 167.0 96.0 167.0 C96.0 167.0 96.0 167.0 96.0 167.0 C96.0 167.0 96.0 167.0 96.0 167.0 C96.0 167.0 96.0 167.0 96.0 167.0 C96.0 167.0 96.0 167.0 96.0 167.0 C96.0 167.0 96.0 167.0 96.0 167.0 C96.0 167.0 96.0 167.0 96.0 167.0 C96.0 167.0 96.0 167.0 96.0 167.0 C96.0 167.0 96.0 167.0 96.0 167.0 C96.0 167.0 96.0 167.0 96.0 167.0 C96.0 167.0 96.0 167.0 96.0 167.0 C96.0 167.0 96.0 167.0 96.0 167.0 C96.0 167.0 96.0 167.0 96.0 167.0 C96.0 167.0 96.0 167.0 96.0 167.0 C96.0 167.0 96.0 167.0 96.0 167.0 C96.0 167.0 96.0 167.0 96.0 167.0 C96.0 167.0 96.0 167.0 96.0 167.0 C96.0 167.0 96.0 167.0 96.0 167.0 C96.0 167.0 96.0 167.0 96.0 167.0 C96.0 167.0 96.0 167.0 96.0 167.0 C96.0 167.0 96.0 167.0 96.0 167.0 C96.0 167.0 96.0 167.0 96.0 167.0 C96.0 167.0 96.0 167.0 96.0 167.0 C96.0 167.0 96.0 167.0 96.0 167.0 C96.0 167.0 96.0 167.0 96.0 167.0 C96.0 167.0 96.0 167.0 96.0 167.0 C96.0 167.0 96.0 167.0 96.0 167.0 C96.0 167.0 96.0 167.0 96.0 167.0 C96.0 167.0 96.0 167.0 96.0 167.0 C96.0 167.0 96.0 167.0 96.0 167.0 C96.0 167.0 96.0 167.0 96.0 167.0 C96.0 167.0 96.0 167.0 96.0 167.0 C96.0 167.0 96.0 167.0 96.0 167.0 C96.0 167.0 96.0 167.0 96.0 167.0 C96.0 167.0 96.0 167.0 96.0 167.0 C96.0 167.0 96.0 167.0 96.0 167.0 C96.0 167.0 96.0 167.0 96.0 167.0 C96.0 167.0 96.0 167.0 96.0 167.0 C96.0 167.0 96.0 167.0 96.0 167.0 C96.0 167.0 96.0 167.0 96.0 167.0 C96.0 167.0 96.0 167.0 96.0 167.0 C96.0 167.0 96.0 167.0 96.0 167.0 C96.0 167.0 96.0 167.0 96.0 167.0 C96.0 167.0 96.0 167.0 96.0 167.0 C96.0 167.0 96.0 167.0 96.0 167.0 C96.0 167.0 96.0 167.0 96.0 167.0 C96.0 167.0 96.0 167.0 96.0 167.0 C96.0 167.0 96.0 167.0 96.0 167.0 C96.0 167.0 96.0 167.0 96.0 167.0 C96.0 167.0 96.0 167.0 96.0 167.0 C96.0 167.0 96.0 167.0 96.0 167.0 C96.0 167.0 96.0 167.0 96.0 167.0 C96.0 167.0 96.0 167.0 96.0 167.0 C96.0 167.0 96.0 167.0 96.0 167.0 C96.0 167.0 96.0 167.0 96.0 167.0 C96.0 167.0 96.0 167.0 96.0 167.0 C96.0 167.0 96.0 167.0 96.0 167.0 C96.0 167.0 96.0 167.0 96.0 167.0 C96.0 167.0 96.0 167.0 96.0 167.0 C96.0 167.0 96.0 167.0 96.0 167.0 C96.0 167.0 96.0 167.0 96.0 167.0 C96.0 167.0 96.0 167.0 96.0 167.0 C96.0 167.0 96.0 167.0 96.0 167.0 C96.0 167.0 96.0 167.0 96.0 167.0 C96.0 167.0 96.0 167.0 96.0 167.0 C96.0 167.0 96.0 167.0 96.0 167.0 C96.0 167.0 96.0 167.0 96.0 167.0 C96.0 167.0 96.0 167.0 96.0 167.0 C96.0 167.0 96.0 167.0 96.0 167.0 C96.0 167.0 96.0 167.0 96.0 167.0 C96.0 167.0 96.0 167.0 96.0 167.0 C96.0 167.0 96.0 167.0 96.0 167.0 C96.0 167.0 96.0 167.0 96.0 167.0 C96.0 167.0 96.0 167.0 96.0 167.0 C96.0 167.0 96.0 167.0 96.0 167.0 C96.0 167.0 96.0 167.0 96.0 167.0 C96.0 167.0 96.0 167.0 96.0 167.0 C96.0 167.0 96.0 167.0 96.0 167.0 C96.0 167.0 96.0 167.0 96.0 167.0 C96.0 167.0 96.0 167.0 96.0 167.0 C96.0 167.0 96.0 167.0 96.0 167.0 C96.0 167.0 96.0 167.0 96.0 167.0 C96.0 167.0 96.0 167.0 96.0 167.0 C96.0 167.0 96.0 167.0 96.0 167.0 C96.0 167.0 96.0 167.0 96.0 167.0 C96.0 167.0 96.0 167.0 96.0 167.0 C96.0 167.0 96.0 167.0 96.0 167.0 C96.0 167.0 96.0 167.0 96.0 167.0 C96.0 167.0 96.0 167.0 96.0 167.0 C96.0 167.0 96.0 167.0 96.0 167.0 C96.0 167.0 96.0 167.0 96.0 167.0 C96.0 167.0 96.0 167.0 96.0 167.0 C96.0 167.0 96.0 167.0 96.0 167.0 C96.0 167.0 96.0 167.0 96.0 167.0 C96.0 167.0 96.0 167.0 96.0 167.0 C96.0 167.0 96.0 167.0 96.0 167.0 C96.0 167.0 96.0 167.0 96.0 167.0 C96.0 167.0 96.0 167.0 96.0 167.0 C96.0 167.0 96.0 167.0 96.0 167.0 C96.0 167.0 96.0 167.0 96.0 167.0 C96.0 167.0 96.0 167.0 96.0 167.0 C96.0 167.0 96.0 167.0 96.0 167.0 C96.0 167.0 96.0 167.0 96.0 167.0 C96.0 167.0 96.0 167.0 96.0 167.0 C96.0 167.0 96.0 167.0 96.0 167.0 C96.0 167.0 96.0 167.0 96.0 167.0 C96.0 167.0 96.0 167.0 96.0 167.0 C96.0 167.0 96.0 167.0 96.0 167.0 C96.0 167.0 96.0 167.0 96.0 167.0 C96.0 167.0 96.0 167.0 96.0 167.0 C96.0 167.0 96.0 167.0 96.0 167.0 C96.0 167.0 96.0 167.0 96.0 167.0 C96.0 167.0 96.0 167.0 96.0 167.0 C96.0 167.0 96.0 167.0 96.0 167.0 C96.0 167.0 96.0 167.0 96.0 167.0 C96.0 167.0 96.0 167.0 96.0 167.0 C96.0 167.0 96.0 167.0 96.0 167.0 C96.0 167.0 96.0 167.0 96.0 167.0 C96.0 167.0 96.0 167.0 96.0 167.0 C96.0 167.0 96.0 167.0 96.0 167.0 C96.0 167.0 96.0 167.0 96.0 167.0 C96.0 167.0 96.0 167.0 96.0 167.0 C96.0 167.0 96.0 167.0 96.0 167.0 C96.0 167.0 96.0 167.0 96.0 167.0 C96.0 167.0 96.0 167.0 96.0 167.0 C96.0 167.0 96.0 167.0 96.0 167.0 C96.0 167.0 96.0 167.0 96.0 167.0 C96.0 167.0 96.0 167.0 96.0 167.0 C96.0 167.0 96.0 167.0 96.0 167.0 C96.0 167.0 96.0 167.0 96.0 167.0 C96.0 167.0 96.0 167.0 96.0 167.0 C96.0 167.0 96.0 167.0 96.0 167.0 C96.0 167.0 96.0 167.0 96.0 167.0 C96.0 167.0 96.0 167.0 96.0 167.0 C96.0 167.0 96.0 167.0 96.0 167.0 C96.0 167.0 96.0 167.0 96.0 167.0 C96.0 167.0 96.0 167.0 96.0 167.0 C96.0 167.0 96.0 167.0 96.0 167.0 C96.0 167.0 96.0 167.0 96.0 167.0 C96.0 167.0 96.0 167.0 96.0 167.0 C96.0 167.0 96.0 167.0 96.0 167.0 C96.0 167.0 96.0 167.0 96.0 167.0 C96.0 167.0 96.0 167.0 96.0 167.0 C96.0 167.0 96.0 167.0 96.0 167.0 C96.0 167.0 96.0 167.0 96.0 167.0 C96.0 167.0 96.0 167.0 96.0 167.0 C96.0 167.0 96.0 167.0 96.0 167.0 C96.0 167.0 96.0 167.0 96.0 167.0 C96.0 167.0 96.0 167.0 96.0 167.0 C96.0 167.0 96.0 167.0 96.0 167.0 C96.0 167.0 96.0 167.0 96.0 167.0 C96.0 167.0 96.0 167.0 96.0 167.0 C96.0 167.0 96.0 167.0 96.0 167.0 C96.0 167.0 96.0 167.0 96.0 167.0 C96.0 167.0 96.0 167.0 96.0 167.0 C96.0 167.0 96.0 167.0 96.0 167.0 C96.0 167.0 96.0 167.0 96.0 167.0 C96.0 167.0 96.0 167.0 96.0 167.0 C96.0 167.0 125.0 13.0 124.0 63.0 C124.0 63.0 124.0 63.0 124.0 63.0 C124.0 63.0 124.0 63.0 124.0 63.0 C124.0 63.0 124.0 63.0 124.0 63.0 C124.0 63.0 124.0 63.0 124.0 63.0 C124.0 63.0 124.0 63.0 124.0 63.0 C124.0 63.0 124.0 63.0 124.0 63.0 C124.0 63.0 124.0 63.0 124.0 63.0 C124.0 63.0 124.0 63.0 124.0 63.0 C124.0 63.0 124.0 63.0 124.0 63.0 C124.0 63.0 124.0 63.0 124.0 63.0 C124.0 63.0 124.0 63.0 124.0 63.0 C124.0 63.0 124.0 63.0 124.0 63.0 C124.0 63.0 124.0 63.0 124.0 63.0 C124.0 63.0 124.0 63.0 124.0 63.0 C124.0 63.0 124.0 63.0 124.0 63.0 C124.0 63.0 124.0 63.0 124.0 63.0 C124.0 63.0 124.0 63.0 124.0 63.0"></path></svg>