<svg xmlns="http://www.w3.org/2000/svg" viewBox="0.0 0.0 200.0 200.0" height="200px" width="200px"><path fill="#ffeecc" fill-opacity="1.0"  filling="0" d="M29.0 104.0 A64.0 64.0 0.0 1 0 155.0 108.0 A64.0 64.0 0.0 1 0 29.0 104.0 L29.0 104.0 Z"></path>
<path fill="#000000" fill-opacity="1.0"  filling="0" d="M93.0 171.0 C80.0 171.0 67.0 167.0 56.0 160.0 C44.0 152.0 36.0 141.0 31.0 129.0 C26.0 116.0 25.0 102.0 29.0 89.0 C32.0 76.0 39.0 64.0 49.0 55.0 C59.0 46.0 71.0 40.0 85.0 37.0 C98.0 34.0 112.0 36.0 123.0 42.0 C135.0 48.0 136.0 56.0 132.0 63.0 C132.0 63.0 132.0 64.0 131.0 64.0 C135.0 63.0 138.0 61.0 141.0 58.0 C148.0 49.0 158.0 40.0 169.0 31.0 C170.0 30.0 171.0 29.0 173.0 28.0 C174.0 27.0 175.0 27.0 176.0 27.0 C176.0 27.0 176.0 27.0 176.0 27.0 C176.0 27.0 176.0 27.0 176.0 27.0 C176.0 27.0 176.0 27.0 176.0 27.0 C176.0 27.0 176.0 27.0 176.0 27.0 C176.0 27.0 176.0 27.0 176.0 27.0 C176.0 27.0 176.0 27.0 176.0 27.0 C176.0 27.0 176.0 27.0 176.0 27.0 C176.0 27.0 176.0 27.0 176.0 27.0 C176.0 27.0 176.0 27.0 176.0 27.0 C176.0 27.0 176.0 27.0 176.0 27.0 C176.0 27.0 176.0 27.0 176.0 27.0 C176.0 27.0 176.0 27.0 176.0 27.0 C176.0 27.0 176.0 27.0 176.0 27.0 C176.0 27.0 176.0 27.0 176.0 27.0 C176.0 27.0 176.0 27.0 176.0 27.0 C176.0 27.0 176.0 27.0 176.0 27.0 C176.0 27.0 176.0 27.0 176.0 27.0 C176.0 27.0 176.0 27.0 176.0 27.0 C176.0 27.0 176.0 27.0 176.0 27.0 C176.0 27.0 176.0 27.0 176.0 27.0 C176.0 27.0 176.0 27.0 176.0 27.0 C176.0 27.0 176.0 27.0 176.0 27.0 C176.0 27.0 176.0 27.0 176.0 27.0 C176.0 27.0 176.0 27.0 176.0 27.0 C176.0 27.0 176.0 27.0 176.0 27.0 C176.0 27.0 176.0 27.0 176.0 27.0 C176.0 27.0 176.0 27.0 176.0 27.0 C176.0 27.0 176.0 27.0 176.0 27.0 C176.0 27.0 176.0 27.0 176.0 27.0 C176.0 27.0 176.0 27.0 176.0 27.0 C176.0 27.0 176.0 27.0 176.0 27.0 C176.0 27.0 176.0 27.0 176.0 27.0 C176.0 27.0 176.0 27.0 176.0 27.0 C176.0 27.0 176.0 27.0 176.0 27.0 C176.0 27.0 176.0 27.0 176.0 27.0 C176.0 27.0 176.0 27.0 176.0 27.0 C176.0 27.0 176.0 27.0 176.0 27.0 C176.0 27.0 176.0 27.0 176.0 27.0 C176.0 27.0 176.0 27.0 176.0 27.0 C176.0 27.0 176.0 27.0 176.0 27.0 C176.0 27.0 176.0 27.0 176.0 27.0 C176.0 27.0 176.0 27.0 176.0 27.0 C176.0 27.0 176.0 27.0 176.0 27.0 C176.0 27.0 176.0 27.0 176.0 27.0 C176.0 27.0 176.0 27.0 176.0 27.0 C176.0 27.0 176.0 27.0 176.0 27.0 C176.0 27.0 176.0 27.0 176.0 27.0 C176.0 27.0 176.0 27.0 176.0 27.0 C176.0 27.0 176.0 27.0 176.0 27.0 C176.0 27.0 176.0 27.0 176.0 27.0 C176.0 27.0 176.0 27.0 176.0 27.0 C176.0 27.0 176.0 27.0 176.0 27.0 C176.0 27.0 176.0 27.0 176.0 27.0 C176.0 27.0 176.0 27.0 176.0 27.0 C176.0 27.0 176.0 27.0 176.0 27.0 C176.0 27.0 176.0 27.0 176.0 27.0 C176.0 27.0 176.0 27.0 176.0 27.0 C176.0 27.0 176.0 27.0 176.0 27.0 C176.0 27.0 176.0 27.0 176.0 27.0 C176.0 27.0 176.0 27.0 176.0 27.0 C176.0 27.0 176.0 27.0 176.0 27.0 C176.0 27.0 176.0 27.0 176.0 27.0 C176.0 27.0 176.0 27.0 176.0 27.0 C176.0 27.0 176.0 27.0 176.0 27.0 C176.0 27.0 176.0 27.0 176.0 27.0 C176.0 27.0 176.0 27.0 176.0 27.0 C176.0 27.0 176.0 27.0 176.0 27.0 C176.0 27.0 176.0 27.0 176.0 27.0 C176.0 27.0 176.0 27.0 176.0 27.0 C176.0 27.0 176.0 27.0 176.0 27.0 C176.0 27.0 176.0 27.0 176.0 27.0 C176.0 27.0 176.0 27.0 176.0 27.0 C176.0 27.0 176.0 27.0 176.0 27.0 C176.0 27.0 176.0 27.0 176.0 27.0 C176.0 27.0 176.0 27.0 176.0 27.0 C176.0 27.0 176.0 27.0 176.0 27.0 C176.0 27.0 176.0 27.0 176.0 27.0 C176.0 27.0 176.0 27.0 176.0 27.0 C176.0 27.0 176.0 27.0 176.0 27.0 C176.0 27.0 176.0 27.0 176.0 27.0 C176.0 27.0 176.0 27.0 176.0 27.0 C176.0 27.0 176.0 27.0 176.0 27.0 C176.0 27.0 176.0 27.0 176.0 27.0 C176.0 27.0 176.0 27.0 176.0 27.0 C176.0 27.0 176.0 27.0 176.0 27.0 C176.0 27.0 176.0 27.0 176.0 27.0 C176.0 27.0 176.0 27.0 176.0 27.0 C176.0 27.0 176.0 27.0 176.0 27.0 C176.0 27.0 176.0 27.0 176.0 27.0 C176.0 27.0 176.0 27.0 176.0 27.0 C176.0 27.0 176.0 27.0 176.0 27.0 C176.0 27.0 176.0 27.0 176.0 27.0 C176.0 27.0 176.0 27.0 176.0 27.0 C176.0 27.0 176.0 27.0 176.0 27.0 C176.0 27.0 176.0 27.0 176.0 27.0 C176.0 27.0 176.0 27.0 176.0 27.0 C176.0 27.0 176.0 27.0 176.0 27.0 C176.0 27.0 176.0 27.0 176.0 27.0 C176.0 27.0 176.0 27.0 176.0 27.0 C176.0 27.0 176.0 27.0 176.0 27.0 C176.0 27.0 176.0 27.0 176.0 27.0 C176.0 27.0 176.0 27.0 176.0 27.0 C176.0 27.0 176.0 27.0 176.0 27.0 C176.0 27.0 176.0 27.0 176.0 27.0 C176.0 27.0 176.0 27.0 176.0 27.0 C176.0 27.0 176.0 27.0 176.0 27.0 C176.0 27.0 176.0 27.0 176.0 27.0 C176.0 27.0 176.0 27.0 176.0 27.0 C176.0 27.0 176.0 27.0 176.0 27.0 C176.0 27.0 176.0 27.0 176.0 27.0 C176.0 27.0 176.0 27.0 176.0 27.0 C176.0 27.0 176.0 27.0 176.0 27.0 C176.0 27.0 176.0 27.0 176.0 27.0 C176.0 27.0 176.0 27.0 176.0 27.0 C176.0 27.0 176.0 27.0 176.0 27.0 C176.0 27.0 176.0 27.0 176.0 27.0 C176.0 27.0 176.0 27.0 176.0 27.0 C176.0 27.0 176.0 27.0 176.0 27.0 C176.0 27.0 176.0 27.0 176.0 27.0 C176.0 27.0 176.0 27.0 176.0 27.0 C176.0 27.0 176.0 27.0 176.0 27.0 C176.0 27.0 176.0 27.0 176.0 27.0 C176.0 27.0 176.0 27.0 176.0 27.0 C176.0 27.0 176.0 27.0 176.0 27.0 C176.0 27.0 176.0 27.0 176.0 27.0 C176.0 27.0 176.0 27.0 176.0 27.0 C176.0 27.0 176.0 27.0 176.0 27.0 C176.0 27.0 176.0 27.0 176.0 27.0 C176.0 27.0 176.0 27.0 176.0 27.0 C176.0 27.0 176.0 27.0 176.0 27.0 C176.0 27.0 176.0 27.0 176.0 27.0 C176.0 27.0 176.0 27.0 176.0 27.0 C176.0 27.0 176.0 27.0 176.0 27.0 C176.0 27.0 176.0 27.0 176.0 27.0 C176.0 27.0 176.0 27.0 176.0 27.0 C176.0 27.0 176.0 27.0 176.0 27.0 C176.0 27.0 176.0 27.0 176.0 27.0 C176.0 27.0 176.0 27.0 176.0 27.0 C176.0 27.0 176.0 27.0 176.0 27.0 C176.0 27.0 176.0 27.0 176.0 27.0 C176.0 27.0 176.0 27.0 176.0 27.0 C176.0 27.0 176.0 27.0 176.0 27.0 C176.0 27.0 176.0 27.0 176.0 27.0 C176.0 27.0 176.0 27.0 176.0 27.0 C176.0 27.0 176.0 27.0 176.0 27.0 C176.0 27.0 176.0 27.0 176.0 27.0 C176.0 27.0 176.0 27.0 176.0 27.0 C176.0 27.0 176.0 27.0 176.0 27.0 C176.0 27.0 176.0 27.0 176.0 27.0 C176.0 27.0 176.0 27.0 176.0 27.0 C176.0 27.0 176.0 27.0 176.0 27.0 C176.0 27.0 176.0 27.0 176.0 27.0 C176.0 27.0 176.0 27.0 176.0 27.0 C176.0 27.0 176.0 27.0 176.0 27.0 C176.0 27.0 176.0 27.0 176.0 27.0 C176.0 27.0 176.0 27.0 176.0 27.0 C176.0 27.0 176.0 27.0 176.0 27.0 C176.0 27.0 176.0 27.0 176.0 27.0 C176.0 27.0 176.0 27.0 176.0 27.0 C176.0 27.0 176.0 27.0 176.0 27.0 C176.0 27.0 176.0 27.0 176.0 27.0 C176.0 27.0 176.0 27.0 176.0 27.0 C176.0 27.0 176.0 27.0 176.0 27.0 C176.0 27.0 176.0 27.0 176.0 27.0 C176.0 27.0 176.0 27.0 176.0 27.0 C176.0 27.0 176.0 27.0 176.0 27.0 C176.0 27.0 176.0 27.0 176.0 27.0 C176.0 27.0 176.0 27.0 176.0 27.0 C176.0 27.0 176.0 27.0 176.0 27.0 C176.0 27.0 176.0 27.0 176.0 27.0 C176.0 27.0 176.0 27.0 176.0 27.0 C176.0 27.0 176.0 27.0 176.0 27.0 C176.0 27.0 176.0 27.0 176.0 27.0 C176.0 27.0 176.0 27.0 176.0 27.0 C176.0 27.0 176.0 27.0 176.0 27.0 C176.0 27.0 176.0 27.0 176.0 27.0 C176.0 27.0 176.0 27.0 176.0 27.0 C176.0 27.0 176.0 27.0 176.0 27.0 C176.0 27.0 176.0 27.0 176.0 27.0 C176.0 27.0 176.0 27.0 176.0 27.0 C176.0 27.0 176.0 27.0 176.0 27.0 C176.0 27.0 176.0 27.0 176.0 27.0 C176.0 27.0 176.0 27.0 176.0 27.0 C176.0 27.0 176.0 27.0 176.0 27.0 C176.0 27.0 176.0 27.0 176.0 27.0 C176.0 27.0 176.0 27.0 176.0 27.0 C176.0 27.0 176.0 27.0 176.0 27.0 C176.0 27.0 176.0 27.0 176.0 27.0 C176.0 27.0 176.0 27.0 176.0 27.0 C176.0 27.0 176.0 27.0 176.0 27.0 C176.0 27.0 176.0 27.0 176.0 27.0 C176.0 27.0 176.0 27.0 176.0 27.0 C176.0 27.0 176.0 27.0 176.0 27.0 C176.0 27.0 176.0 27.0 176.0 27.0 C176.0 27.0 176.0 27.0 176.0 27.0 C176.0 27.0 176.0 27.0 176.0 27.0 C176.0 27.0 176.0 27.0 176.0 27.0 C176.0 27.0 176.0 27.0 176.0 27.0 C176.0 27.0 176.0 27.0 176.0 27.0 C176.0 27.0 176.0 27.0 176.0 27.0 C176.0 27.0 176.0 27.0 176.0 27.0 C176.0 27.0 176.0 27.0 176.0 27.0 C176.0 27.0 176.0 27.0 176.0 27.0 C176.0 27.0 176.0 27.0 176.0 27.0 C176.0 27.0 176.0 27.0 176.0 27.0 C176.0 27.0 176.0 27.0 176.0 27.0 C176.0 27.0 176.0 27.0 176.0 27.0 C176.0 27.0 176.0 27.0 176.0 27.0 C176.0 27.0 176.0 27.0 176.0 27.0 C176.0 27.0 176.0 27.0 176.0 27.0 C176.0 27.0 176.0 27.0 176.0 27.0 C176.0 27.0 176.0 27.0 176.0 27.0 C176.0 27.0 176.0 27.0 176.0 27.0 C176.0 27.0 176.0 27.0 176.0 27.0 C176.0 27.0 176.0 27.0 176.0 27.0 C176.0 27.0 176.0 27.0 176.0 27.0 C176.0 27.0 176.0 27.0 176.0 27.0 C176.0 27.0 176.0 27.0 176.0 27.0 C176.0 27.0 176.0 27.0 176.0 27.0 C176.0 27.0 176.0 27.0 176.0 27.0 C176.0 27.0 176.0 27.0 176.0 27.0 C176.0 27.0 176.0 27.0 176.0 27.0 C176.0 27.0 176.0 27.0 176.0 27.0 C176.0 27.0 176.0 27.0 176.0 27.0 C176.0 27.0 176.0 27.0 176.0 27.0 C176.0 27.0 176.0 27.0 176.0 27.0 C176.0 27.0 176.0 27.0 176.0 27.0 C176.0 27.0 176.0 27.0 176.0 27.0 C176.0 27.0 176.0 27.0 176.0 27.0 C176.0 27.0 176.0 27.0 176.0 27.0 C176.0 27.0 176.0 27.0 176.0 27.0 C176.0 27.0 176.0 27.0 176.0 27.0 C176.0 27.0 176.0 27.0 176.0 27.0 C176.0 27.0 176.0 27.0 176.0 27.0 C176.0 27.0 176.0 27.0 176.0 27.0 C176.0 27.0 176.0 27.0 176.0 27.0 C176.0 27.0 176.0 27.0 176.0 27.0 C176.0 27.0 176.0 27.0 176.0 27.0 C176.0 27.0 176.0 27.0 176.0 27.0 C176.0 27.0 176.0 27.0 176.0 27.0 C176.0 27.0 176.0 27.0 176.0 27.0 C176.0 27.0 176.0 27.0 176.0 27.0 C176.0 27.0 176.0 27.0 176.0 27.0 C176.0 27.0 176.0 27.0 176.0 27.0 C176.0 27.0 176.0 27.0 176.0 27.0 C176.0 27.0 176.0 27.0 176.0 27.0 C176.0 27.0 176.0 27.0 176.0 27.0 C176.0 27.0 176.0 27.0 176.0 27.0 C176.0 27.0 176.0 27.0 176.0 27.0 C176.0 27.0 176.0 27.0 176.0 27.0 C176.0 27.0 176.0 27.0 176.0 27.0 C176.0 27.0 176.0 27.0 176.0 27.0 C176.0 27.0 176.0 27.0 176.0 27.0 C176.0 27.0 176.0 27.0 176.0 27.0 C176.0 27.0 176.0 27.0 176.0 27.0 C176.0 27.0 176.0 27.0 176.0 27.0 C176.0 27.0 176.0 27.0 176.0 27.0 C176.0 27.0 176.0 27.0 176.0 27.0 C176.0 27.0 176.0 27.0 176.0 27.0 C176.0 27.0 176.0 27.0 176.0 27.0 C176.0 27.0 176.0 27.0 176.0 27.0 C176.0 27.0 176.0 27.0 176.0 27.0 C176.0 27.0 176.0 27.0 176.0 27.0 C176.0 27.0 176.0 27.0 176.0 27.0 C176.0 27.0 176.0 27.0 176.0 27.0 C176.0 27.0 176.0 27.0 176.0 27.0 C176.0 27.0 176.0 27.0 176.0 27.0 C176.0 27.0 176.0 27.0 176.0 27.0 C176.0 27.0 176.0 27.0 176.0 27.0 C176.0 27.0 176.0 27.0 176.0 27.0 C176.0 27.0 176.0 27.0 176.0 27.0 C176.0 27.0 176.0 27.0 176.0 27.0 C176.0 27.0 176.0 27.0 176.0 27.0 C176.0 27.0 176.0 27.0 176.0 27.0 C176.0 27.0 176.0 27.0 176.0 27.0 C176.0 27.0 176.0 27.0 176.0 27.0 C176.0 27.0 176.0 27.0 176.0 27.0 C176.0 27.0 176.0 27.0 176.0 27.0 C176.0 27.0 176.0 27.0 176.0 27.0 C176.0 27.0 176.0 27.0 176.0 27.0 C176.0 27.0 176.0 27.0 176.0 27.0 C176.0 27.0 176.0 27.0 176.0 27.0 C176.0 27.0 176.0 27.0 176.0 27.0 C176.0 27.0 176.0 27.0 176.0 27.0 C176.0 27.0 176.0 27.0 176.0 27.0 C176.0 27.0 176.0 27.0 176.0 27.0 C176.0 27.0 176.0 27.0 176.0 27.0 C176.0 27.0 176.0 27.0 176.0 27.0 C176.0 27.0 176.0 27.0 176.0 27.0 C176.0 27.0 176.0 27.0 176.0 27.0 C176.0 27.0 176.0 27.0 176.0 27.0 C176.0 27.0 176.0 27.0 176.0 27.0 C176.0 27.0 176.0 27.0 176.0 27.0 C176.0 27.0 176.0 27.0 176.0 27.0 C176.0 27.0 176.0 27.0 176.0 27.0 C176.0 27.0 176.0 27.0 176.0 27.0 C176.0 27.0 176.0 27.0 176.0 27.0 C176.0 27.0 176.0 27.0 176.0 27.0 C176.0 27.0 176.0 27.0 176.0 27.0 C176.0 27.0 176.0 27.0 176.0 27.0 C176.0 27.0 176.0 27.0 176.0 27.0 C176.0 27.0 176.0 27.0 176.0 27.0 C176.0 27.0 176.0 27.0 176.0 27.0 C176.0 27.0 176.0 27.0 176.0 27.0 C176.0 27.0 176.0 27.0 176.0 27.0 C176.0 27.0 176.0 27.0 176.0 27.0 C176.0 27.0 176.0 27.0 176.0 27.0 C176.0 27.0 176.0 27.0 176.0 27.0 C176.0 27.0 176.0 27.0 176.0 27.0 C176.0 27.0 176.0 27.0 176.0 27.0 C176.0 27.0 176.0 27.0 176.0 27.0 C176.0 27.0 176.0 27.0 176.0 27.0 C176.0 27.0 176.0 27.0 176.0 27.0 C176.0 27.0 176.0 27.0 176.0 27.0 C176.0 27.0 176.0 27.0 176.0 27.0 C176.0 27.0 176.0 27.0 176.0 27.0 C176.0 27.0 176.0 27.0 176.0 27.0 C176.0 27.0 176.0 27.0 176.0 27.0 C176.0 27.0 176.0 27.0 176.0 27.0 C176.0 27.0 176.0 27.0 176.0 27.0 C176.0 27.0 176.0 27.0 176.0 27.0 C176.0 27.0 176.0 27.0 176.0 27.0 C176.0 27.0 176.0 27.0 176.0 27.0 C176.0 27.0 176.0 27.0 176.0 27.0 C176.0 27.0 176.0 27.0 176.0 27.0 C176.0 27.0 176.0 27.0 176.0 27.0 C176.0 27.0 176.0 27.0 176.0 27.0 C176.0 27.0 176.0 27.0 176.0 27.0 C176.0 27.0 176.0 27.0 176.0 27.0 C176.0 27.0 176.0 27.0 176.0 27.0 C176.0 27.0 176.0 27.0 176.0 27.0 C176.0 27.0 176.0 27.0 176.0 27.0 C176.0 27.0 176.0 27.0 176.0 27.0 C176.0 27.0 176.0 27.0 176.0 27.0 C176.0 27.0 176.0 27.0 176.0 27.0 C176.0 27.0 176.0 27.0 176.0 27.0 C176.0 27.0 176.0 27.0 176.0 27.0 C176.0 27.0 176.0 27.0 176.0 27.0 C176.0 27.0 176.0 27.0 176.0 27.0 C176.0 27.0 176.0 27.0 176.0 27.0 C176.0 27.0 176.0 27.0 176.0 27.0 C176.0 27.0 176.0 27.0 176.0 27.0 C176.0 27.0 176.0 27.0 176.0 27.0 C176.0 27.0 176.0 27.0 176.0 27.0 C176.0 27.0 176.0 27.0 176.0 27.0 C176.0 27.0 176.0 27.0 176.0 27.0 C176.0 27.0 176.0 27.0 176.0 27.0 C176.0 27.0 176.0 27.0 176.0 27.0 C176.0 27.0 176.0 27.0 176.0 27.0 C176.0 27.0 176.0 27.0 176.0 27.0 C176.0 27.0 176.0 27.0 176.0 27.0 C176.0 27.0 176.0 27.0 176.0 27.0 C176.0 27.0 176.0 27.0 176.0 27.0 C176.0 27.0 176.0 27.0 176.0 27.0 C176.0 27.0 176.0 27.0 176.0 27.0 C176.0 27.0 176.0 27.0 176.0 27.0 C176.0 27.0 176.0 27.0 176.0 27.0 C176.0 27.0 176.0 27.0 176.0 27.0 C176.0 27.0 176.0 27.0 176.0 27.0 C176.0 27.0 176.0 27.0 176.0 27.0 C176.0 27.0 176.0 27.0 176.0 27.0 C176.0 27.0 176.0 27.0 176.0 27.0 C176.0 27.0 176.0 27.0 176.0 27.0 C176.0 27.0 176.0 27.0 176.0 27.0"></path></svg>