<svg xmlns="http://www.w3.org/2000/svg" viewBox="0.0 0.0 200.0 200.0" height="200px" width="200px"><path fill="#ffeecc" fill-opacity="1.0"  filling="0" d="M29.0 104.0 A64.0 64.0 0.0 1 0 155.0 108.0 A64.0 64.0 0.0 1 0 29.0 104.0 L29.0 104.0 Z"></path>
<path fill="#222222" fill-opacity="1.0"  filling="0" d="M93.0 171.0 C80.0 171.0 68.0 167.0 58.0 160.0 C48.0 152.0 41.0 143.0 36.0 132.0 C31.0 122.0 28.0 111.0 28.0 100.0 C29.0 88.0 31.0 77.0 37.0 67.0 C43.0 57.0 51.0 49.0 61.0 43.0 C72.0 38.0 84.0 36.0 96.0 36.0 C108.0 36.0 120.0 39.0 130.0 47.0 C140.0 56.0 147.0 68.0 152.0 81.0 C157.0 93.0 158.0 106.0 156.0 118.0 C154.0 131.0 148.0 143.0 139.0 153.0 C130.0 162.0 119.0 168.0 106.0 170.0 C102.0 170.0 98.0 171.0 93.0 171.0 L93.0 171.0 Z M94.0 40.0 C72.0 40.0 51.0 52.0 40.0 70.0 C29.0 89.0 28.0 111.0 39.0 130.0 C49.0 152.0 70.0 166.0 93.0 166.0 C102.0 166.0 114.0 165.0 122.0 159.0 C132.0 153.0 141.0 144.0 146.0 133.0 C152.0 122.0 154.0 108.0 151.0 96.0 C148.0 83.0 141.0 71.0 133.0 61.0 C124.0 51.0 112.0 43.0 100.0 41.0 C98.0 41.0 96.0 40.0 94.0 40.0 L94.0 40.0 Z"></path>
<path fill="#ffeecc" fill-opacity="1.0"  filling="0" d="M79.0 68.0 L176.0 27.0 C176.0 27.0 156.0 83.0 118.0 107.0 C78.0 126.0 79.0 132.0 79.0 132.0"></path>
<path fill="#222222" fill-opacity="1.0"  filling="0" d="M79.0 135.0 C78.0 135.0 77.0 135.0 76.0 134.0 C76.0 133.0 76.0 131.0 77.0 130.0 C77.0 130.0 77.0 130.0 77.0 130.0 C79.0 130.0 81.0 129.0 83.0 128.0 C88.0 126.0 96.0 123.0 106.0 118.0 C112.0 113.0 118.0 110.0 121.0 105.0 C125.0 100.0 130.0 96.0 134.0 91.0 C138.0 85.0 143.0 80.0 147.0 74.0 C157.0 57.0 164.0 42.0 168.0 34.0 C170.0 32.0 171.0 30.0 171.0 29.0 L176.0 31.0 C176.0 31.0 176.0 43.0 168.0 56.0 C164.0 64.0 158.0 73.0 151.0 83.0 C145.0 90.0 138.0 99.0 130.0 108.0 C127.0 111.0 123.0 114.0 120.0 117.0 C116.0 120.0 112.0 122.0 108.0 124.0 C98.0 129.0 91.0 132.0 86.0 134.0 C84.0 136.0 82.0 136.0 80.0 136.0 C80.0 136.0 79.0 136.0 79.0 136.0 C79.0 135.0 79.0 135.0 79.0 135.0 L79.0 135.0 Z"></path>
<path fill="#222222" fill-opacity="1.0"  filling="0" d="M112.0 91.0 C111.0 91.0 110.0 91.0 110.0 90.0 C109.0 89.0 109.0 87.0 110.0 86.0 L119.0 77.0 C120.0 76.0 122.0 76.0 123.0 77.0 C124.0 78.0 124.0 80.0 123.0 81.0 L114.0 90.0 C113.0 91.0 113.0 91.0 112.0 91.0 L112.0 91.0 Z"></path>
<path fill="#222222" fill-opacity="1.0"  filling="0" d="M124.0 98.0 C123.0 98.0 123.0 97.0 122.0 97.0 L112.0 88.0 C111.0 87.0 111.0 85.0 112.0 84.0 C113.0 83.0 115.0 83.0 116.0 84.0 L126.0 93.0 C127.0 94.0 127.0 96.0 126.0 97.0 C125.0 97.0 125.0 98.0 124.0 98.0 L124.0 98.0 Z"></path>
<path fill="#4477aa" fill-opacity="1.0"  filling="0" d="M42.0 94.0 A12.0 12.0 0.0 1 0 67.0 94.0 A12.0 12.0 0.0 1 0 42.0 94.0 L42.0 94.0 Z"></path>
<path fill="#222222" fill-opacity="1.0"  filling="0" d="M54.0 109.0 C46.0 109.0 40.0 102.0 40.0 94.0 C40.0 86.0 46.0 80.0 54.0 80.0 C62.0 80.0 69.0 86.0 69.0 94.0 C69.0 102.0 62.0 109.0 54.0 109.0 L54.0 109.0 Z M54.0 84.0 C49.0 84.0 44.0 89.0 44.0 94.0 C44.0 100.0 49.0 105.0 54.0 105.0 C60.0 105.0 65.0 100.0 65.0 94.0 C65.0 89.0 60.0 84.0 54.0 84.0 L54.0 84.0 Z"></path>
<path fill="#ff7733" fill-opacity="1.0"  filling="0" d="M67.0 66.0 A12.0 12.0 0.0 1 0 91.0 66.0 A12.0 12.0 0.0 1 0 67.0 66.0 L67.0 66.0 Z"></path>
<path fill="#222222" fill-opacity="1.0"  filling="0" d="M79.0 80.0 C71.0 80.0 64.0 74.0 64.0 66.0 C64.0 58.0 71.0 51.0 79.0 51.0 C87.0 51.0 93.0 58.0 93.0 66.0 C93.0 74.0 87.0 80.0 79.0 80.0 L79.0 80.0 Z M79.0 55.0 C73.0 55.0 69.0 60.0 69.0 66.0 C69.0 72.0 73.0 76.0 79.0 76.0 C85.0 76.0 89.0 72.0 89.0 66.0 C89.0 60.0 85.0 55.0 79.0 55.0 L79.0 55.0 Z"></path>
<path fill="#447777" fill-opacity="1.0"  filling="0" d="M49.0 130.0 A12.0 12.0 0.0 1 0 74.0 130.0 A12.0 12.0 0.0 1 0 49.0 130.0 L49.0 130.0 Z"></path>
<path fill="#222222" fill-opacity="1.0"  filling="0" d="M61.0 144.0 C53.0 144.0 47.0 138.0 47.0 130.0 C47.0 122.0 53.0 115.0 61.0 115.0 C69.0 115.0 76.0 122.0 76.0 130.0 C76.0 138.0 69.0 144.0 61.0 144.0 L61.0 144.0 Z M61.0 119.0 C56.0 119.0 51.0 124.0 51.0 130.0 C51.0 135.0 56.0 140.0 61.0 140.0 C67.0 140.0 71.0 135.0 71.0 130.0 C71.0 124.0 67.0 119.0 61.0 119.0 L61.0 119.0 Z"></path>
<path fill="#222222" fill-opacity="1.0"  filling="0" d="M86.0 130.0 C86.0 120.0 90.0 116.0 97.0 116.0 C104.0 116.0 107.0 120.0 107.0 126.0 C107.0 135.0 95.0 144.0 84.0 145.0 C83.0 145.0 81.0 145.0 79.0 145.0 C82.0 143.0 84.0 138.0 86.0 130.0 L86.0 130.0 Z M79.0 147.0 C78.0 147.0 77.0 147.0 76.0 146.0 C76.0 145.0 76.0 144.0 77.0 144.0 C80.0 140.0 82.0 135.0 84.0 130.0 C84.0 119.0 88.0 114.0 97.0 114.0 C106.0 114.0 108.0 119.0 108.0 126.0 C108.0 133.0 102.0 140.0 96.0 144.0 C91.0 146.0 87.0 147.0 84.0 147.0 C82.0 147.0 81.0 147.0 79.0 147.0 C79.0 147.0 79.0 147.0 79.0 147.0 L79.0 147.0 Z M96.0 118.0 C93.0 118.0 91.0 119.0 89.0 122.0 C88.0 123.0 88.0 126.0 88.0 130.0 C87.0 134.0 85.0 138.0 82.0 142.0 C83.0 143.0 83.0 143.0 84.0 143.0 C87.0 143.0 90.0 142.0 93.0 140.0 C99.0 136.0 104.0 131.0 104.0 126.0 C104.0 118.0 100.0 118.0 96.0 118.0 L96.0 118.0 Z"></path>
<path fill="#ffffff" fill-opacity="1.0"  filling="0" d="M119.0 130.0 A8.0 8.0 0.0 1 0 136.0 130.0 A8.0 8.0 0.0 1 0 119.0 130.0 L119.0 130.0 Z"></path>
<path fill="#222222" fill-opacity="1.0"  filling="0" d="M127.0 140.0 C121.0 140.0 116.0 136.0 116.0 130.0 C116.0 124.0 121.0 119.0 127.0 119.0 C133.0 119.0 138.0 124.0 138.0 130.0 C138.0 136.0 133.0 140.0 127.0 140.0 L127.0 140.0 Z M127.0 123.0 C123.0 123.0 121.0 126.0 121.0 130.0 C121.0 134.0 123.0 136.0 127.0 136.0 C130.0 136.0 133.0 134.0 133.0 130.0 C133.0 126.0 130.0 123.0 127.0 123.0 L127.0 123.0 Z"></path></svg>