<svg xmlns="http://www.w3.org/2000/svg" viewBox="0.0 0.0 200.0 200.0" height="200px" width="200px"><path fill="#ffeecc" fill-opacity="1.0"  filling="0" d="M29.0 104.0 A64.0 64.0 0.0 1 0 155.0 108.0 A64.0 64.0 0.0 1 0 29.0 104.0 L29.0 104.0 Z"></path>
<path fill="#222222" fill-opacity="1.0"  filling="0" d="M93.0 171.0 C80.0 171.0 67.0 167.0 56.0 160.0 C44.0 152.0 36.0 141.0 31.0 129.0 C26.0 116.0 26.0 102.0 29.0 89.0 C32.0 76.0 39.0 65.0 49.0 56.0 C59.0 46.0 71.0 40.0 85.0 37.0 C98.0 35.0 112.0 37.0 124.0 43.0 C136.0 49.0 143.0 60.0 148.0 73.0 C155.0 87.0 157.0 102.0 156.0 115.0 C154.0 130.0 147.0 144.0 136.0 154.0 C125.0 164.0 111.0 170.0 97.0 171.0 C95.0 171.0 94.0 171.0 93.0 171.0 L93.0 171.0 Z M94.0 40.0 C67.0 40.0 40.0 61.0 33.0 90.0 C27.0 116.0 39.0 144.0 59.0 157.0 C75.0 165.0 90.0 168.0 105.0 165.0 C121.0 162.0 135.0 152.0 144.0 138.0 C154.0 122.0 155.0 104.0 151.0 86.0 C145.0 67.0 135.0 53.0 120.0 46.0 C111.0 42.0 102.0 40.0 94.0 40.0 L94.0 40.0 Z"></path>
<path fill="#222222" fill-opacity="1.0"  filling="0" d="M124.0 89.0 C123.0 89.0 122.0 89.0 122.0 88.0 C121.0 87.0 121.0 85.0 122.0 84.0 C124.0 83.0 125.0 82.0 127.0 81.0 C128.0 81.0 130.0 81.0 130.0 82.0 C131.0 83.0 131.0 85.0 130.0 86.0 C128.0 87.0 127.0 88.0 126.0 89.0 C125.0 89.0 125.0 89.0 124.0 89.0 L124.0 89.0 Z"></path>
<path fill="#222222" fill-opacity="1.0"  filling="0" d="M106.0 120.0 C105.0 120.0 104.0 119.0 103.0 118.0 C103.0 117.0 103.0 115.0 105.0 114.0 C105.0 113.0 107.0 113.0 108.0 112.0 C109.0 112.0 111.0 113.0 111.0 114.0 C112.0 115.0 111.0 117.0 109.0 118.0 C109.0 118.0 108.0 119.0 107.0 119.0 C107.0 120.0 106.0 120.0 106.0 120.0 L106.0 120.0 Z"></path>
<path fill="#222222" fill-opacity="1.0"  filling="0" d="M79.0 147.0 C78.0 147.0 77.0 147.0 76.0 146.0 C76.0 145.0 76.0 144.0 77.0 143.0 C78.0 142.0 79.0 141.0 79.0 140.0 C79.0 139.0 79.0 138.0 79.0 137.0 C79.0 135.0 80.0 134.0 82.0 134.0 C83.0 134.0 84.0 135.0 84.0 137.0 C84.0 138.0 84.0 140.0 83.0 141.0 C83.0 143.0 82.0 144.0 81.0 146.0 C80.0 147.0 80.0 147.0 79.0 147.0 L79.0 147.0 Z"></path>
<path fill="#000000" fill-opacity="1.0"  filling="0" d="M79.0 68.0 C79.0 68.0 122.0 68.0 122.0 68.0 C124.0 67.0 125.0 65.0 124.0 63.0 C124.0 63.0 124.0 63.0 124.0 63.0 C124.0 63.0 124.0 63.0 124.0 63.0 C124.0 63.0 124.0 63.0 124.0 63.0 C124.0 63.0 124.0 63.0 124.0 63.0 C124.0 63.0 124.0 63.0 124.0 63.0 C124.0 63.0 124.0 63.0 124.0 63.0 C124.0 63.0 124.0 63.0 124.0 63.0 C124.0 63.0 124.0 63.0 124.0 63.0 C124.0 63.0 124.0 63.0 124.0 63.0 C124.0 63.0 124.0 63.0 124.0 63.0 C124.0 63.0 124.0 63.0 124.0 63.0 C124.0 63.0 124.0 63.0 124.0 63.0 C124.0 63.0 124.0 63.0 124.0 63.0 C124.0 63.0 124.0 63.0 124.0 63.0 C124.0 63.0 124.0 63.0 124.0 63.0 C124.0 63.0 124.0 63.0 124.0 63.0 C124.0 63.0 124.0 63.0 124.0 63.0 C124.0 63.0 124.0 63.0 124.0 63.0 C124.0 63.0 124.0 63.0 124.0 63.0 C124.0 63.0 124.0 63.0 124.0 63.0 C124.0 63.0 124.0 63.0 124.0 63.0 C124.0 63.0 124.0 63.0 124.0 63.0 C124.0 63.0 124.0 63.0 124.0 63.0 C124.0 63.0 124.0 63.0 124.0 63.0 C124.0 63.0 124.0 63.0 124.0 63.0 C124.0 63.0 124.0 63.0 124.0 63.0 C124.0 63.0 124.0 63.0 124.0 63.0 C124.0 63.0 124.0 63.0 124.0 63.0 C124.0 63.0 124.0 63.0 124.0 63.0 C124.0 63.0 124.0 63.0 124.0 63.0 C124.0 63.0 124.0 63.0 124.0 63.0 C124.0 63.0 124.0 63.0 124.0 63.0 C124.0 63.0 124.0 63.0 124.0 63.0 C124.0 63.0 124.0 63.0 124.0 63.0 C124.0 63.0 124.0 63.0 124.0 63.0 C124.0 63.0 124.0 63.0 124.0 63.0 C124.0 63.0 124.0 63.0 124.0 63.0 C124.0 63.0 124.0 63.0 124.0 63.0 C124.0 63.0 124.0 63.0 124.0 63.0 C124.0 63.0 124.0 63.0 124.0 63.0 C124.0 63.0 124.0 63.0 124.0 63.0 C124.0 63.0 124.0 63.0 124.0 63.0 C124.0 63.0 124.0 63.0 124.0 63.0 C124.0 63.0 124.0 63.0 124.0 63.0 C124.0 63.0 124.0 63.0 124.0 63.0 C124.0 63.0 124.0 63.0 124.0 63.0 C124.0 63.0 124.0 63.0 124.0 63.0 C124.0 63.0 124.0 63.0 124.0 63.0 C124.0 63.0 124.0 63.0 124.0 63.0 C124.0 63.0 124.0 63.0 124.0 63.0 C124.0 63.0 124.0 63.0 124.0 63.0 C124.0 63.0 124.0 63.0 124.0 63.0 C124.0 63.0 124.0 63.0 124.0 63.0 C124.0 63.0 124.0 63.0 124.0 63.0 C124.0 63.0 124.0 63.0 124.0 63.0 C124.0 63.0 124.0 63.0 124.0 63.0 C124.0 63.0 124.0 63.0 124.0 63.0 C124.0 63.0 124.0 63.0 124.0 63.0 C124.0 63.0 124.0 63.0 124.0 63.0 C124.0 63.0 124.0 63.0 124.0 63.0 C124.0 63.0 124.0 63.0 124.0 63.0 C124.0 63.0 124.0 63.0 124.0 63.0 C124.0 63.0 124.0 63.0 124.0 63.0 C124.0 63.0 124.0 63.0 124.0 63.0 C124.0 63.0 124.0 63.0 124.0 63.0 C124.0 63.0 124.0 63.0 124.0 63.0 C124.0 63.0 124.0 63.0 124.0 63.0 C124.0 63.0 124.0 63.0 124.0 63.0 C124.0 63.0 124.0 63.0 124.0 63.0 C124.0 63.0 124.0 63.0 124.0 63.0 C124.0 63.0 124.0 63.0 124.0 63.0 C124.0 63.0 124.0 63.0 124.0 63.0 C124.0 63.0 124.0 63.0 124.0 63.0 C124.0 63.0 124.0 63.0 124.0 63.0 C124.0 63.0 124.0 63.0 124.0 63.0 C124.0 63.0 124.0 63.0 124.0 63.0 C124.0 63.0 124.0 63.0 124.0 63.0 C124.0 63.0 124.0 63.0 124.0 63.0 C124.0 63.0 124.0 63.0 124.0 63.0 C124.0 63.0 124.0 63.0 124.0 63.0 C124.0 63.0 124.0 63.0 124.0 63.0 C124.0 63.0 124.0 63.0 124.0 63.0 C124.0 63.0 124.0 63.0 124.0 63.0 C124.0 63.0 124.0 63.0 124.0 63.0 C124.0 63.0 124.0 63.0 124.0 63.0 C124.0 63.0 124.0 63.0 124.0 63.0 C124.0 63.0 124.0 63.0 124.0 63.0 C124.0 63.0 124.0 63.0 124.0 63.0 C124.0 63.0 124.0 63.0 124.0 63.0 C124.0 63.0 124.0 63.0 124.0 63.0 C124.0 63.0 124.0 63.0 124.0 63.0 C124.0 63.0 124.0 63.0 124.0 63.0 C124.0 63.0 124.0 63.0 124.0 63.0 C124.0 63.0 124.0 63.0 124.0 63.0 C124.0 63.0 124.0 63.0 124.0 63.0 C124.0 63.0 124.0 63.0 124.0 63.0 C124.0 63.0 124.0 63.0 124.0 63.0 C124.0 63.0 124.0 63.0 124.0 63.0 C124.0 63.0 124.0 63.0 124.0 63.0 C124.0 63.0 124.0 63.0 124.0 63.0 C124.0 63.0 124.0 63.0 124.0 63.0 C124.0 63.0 124.0 63.0 124.0 63.0 C124.0 63.0 124.0 63.0 124.0 63.0 C124.0 63.0 124.0 63.0 124.0 63.0 C124.0 63.0 124.0 63.0 124.0 63.0 C124.0 63.0 124.0 63.0 124.0 63.0 C124.0 63.0 124.0 63.0 124.0 63.0 C124.0 63.0 124.0 63.0 124.0 63.0 C124.0 63.0 124.0 63.0 124.0 63.0 C124.0 63.0 124.0 63.0 124.0 63.0 C124.0 63.0 124.0 63.0 124.0 63.0 C124.0 63.0 124.0 63.0 124.0 63.0 C124.0 63.0 124.0 63.0 124.0 63.0 C124.0 63.0 124.0 63.0 124.0 63.0 C124.0 63.0 124.0 63.0 124.0 63.0 C124.0 63.0 124.0 63.0 124.0 63.0 C124.0 63.0 124.0 63.0 124.0 63.0 C124.0 63.0 124.0 63.0 124.0 63.0 C124.0 63.0 124.0 63.0 124.0 63.0 C124.0 63.0 124.0 63.0 124.0 63.0 C124.0 63.0 124.0 63.0 124.0 63.0 C124.0 63.0 124.0 63.0 124.0 63.0 C124.0 63.0 124.0 63.0 124.0 63.0 C124.0 63.0 124.0 63.0 124.0 63.0 C124.0 63.0 124.0 63.0 124.0 63.0 C124.0 63.0 124.0 63.0 124.0 63.0 C124.0 63.0 124.0 63.0 124.0 63.0 C124.0 63.0 124.0 63.0 124.0 63.0 C124.0 63.0 124.0 63.0 124.0 63.0 C124.0 63.0 124.0 63.0 124.0 63.0 C124.0 63.0 124.0 63.0 124.0 63.0 C124.0 63.0 124.0 63.0 124.0 63.0 C124.0 63.0 124.0 63.0 124.0 63.0 C124.0 63.0 124.0 63.0 124.0 63.0 C124.0 63.0 124.0 63.0 124.0 63.0 C124.0 63.0 124.0 63.0 124.0 63.0 C124.0 63.0 124.0 63.0 124.0 63.0 C124.0 63.0 124.0 63.0 124.0 63.0 C124.0 63.0 124.0 63.0 124.0 63.0 C124.0 63.0 124.0 63.0 124.0 63.0 C124.0 63.0 124.0 63.0 124.0 63.0 C124.0 63.0 124.0 63.0 124.0 63.0 C124.0 63.0 124.0 63.0 124.0 63.0 C124.0 63.0 124.0 134.0 124.0 134.0 C124.0 134.0 124.0 134.0 124.0 134.0 C124.0 134.0 124.0 134.0 124.0 134.0 C124.0 134.0 124.0 134.0 124.0 134.0 C124.0 134.0 124.0 134.0 124.0 134.0 C124.0 134.0 124.0 134.0 124.0 134.0 C124.0 134.0 124.0 134.0 124.0 134.0 C124.0 134.0 124.0 134.0 124.0 134.0 C124.0 134.0 124.0 134.0 124.0 134.0 C124.0 134.0 124.0 134.0 124.0 134.0 C124.0 134.0 124.0 134.0 124.0 134.0 C124.0 134.0 124.0 134.0 124.0 134.0 C124.0 134.0 124.0 134.0 124.0 134.0 C124.0 134.0 124.0 134.0 124.0 134.0 C124.0 134.0 124.0 134.0 124.0 134.0 C124.0 134.0 124.0 134.0 124.0 134.0 C124.0 134.0 124.0 134.0 124.0 134.0 C124.0 134.0 124.0 134.0 124.0 134.0 C124.0 134.0 124.0 134.0 124.0 134.0 C124.0 134.0 124.0 134.0 124.0 134.0 C124.0 134.0 124.0 134.0 124.0 134.0 C124.0 134.0 124.0 134.0 124.0 134.0 C124.0 134.0 124.0 134.0 124.0 134.0 C124.0 134.0 124.0 134.0 124.0 134.0 C124.0 134.0 124.0 134.0 124.0 134.0 C124.0 134.0 124.0 134.0 124.0 134.0 C124.0 134.0 124.0 134.0 124.0 134.0 C124.0 134.0 124.0 134.0 124.0 134.0 C124.0 134.0 124.0 134.0 124.0 134.0 C124.0 134.0 124.0 134.0 124.0 134.0 C124.0 134.0 124.0 134.0 124.0 134.0 C124.0 134.0 124.0 134.0 124.0 134.0 C124.0 134.0 124.0 134.0 124.0 134.0 C124.0 134.0 124.0 134.0 124.0 134.0 C124.0 134.0 124.0 134.0 124.0 134.0 C124.0 134.0 124.0 134.0 124.0 134.0 C124.0 134.0 124.0 134.0 124.0 134.0 C124.0 134.0 124.0 134.0 124.0 134.0 C124.0 134.0 124.0 134.0 124.0 134.0 C124.0 134.0 124.0 134.0 124.0 134.0 C124.0 134.0 124.0 134.0 124.0 134.0 C124.0 134.0 124.0 134.0 124.0 134.0 C124.0 134.0 124.0 134.0 124.0 134.0 C124.0 134.0 124.0 134.0 124.0 134.0 C124.0 134.0 124.0 134.0 124.0 134.0 C124.0 134.0 124.0 134.0 124.0 134.0 C124.0 134.0 124.0 134.0 124.0 134.0 C124.0 134.0 124.0 134.0 124.0 134.0 C124.0 134.0 124.0 134.0 124.0 134.0 C124.0 134.0 124.0 134.0 124.0 134.0 C124.0 134.0 124.0 134.0 124.0 134.0 C124.0 134.0 124.0 134.0 124.0 134.0 C124.0 134.0 124.0 134.0 124.0 134.0 C124.0 134.0 124.0 134.0 124.0 134.0 C124.0 134.0 124.0 134.0 124.0 134.0 C124.0 134.0 124.0 134.0 124.0 134.0 C124.0 134.0 124.0 134.0 124.0 134.0 C124.0 134.0 124.0 134.0 124.0 134.0 C124.0 134.0 124.0 134.0 124.0 134.0 C124.0 134.0 124.0 134.0 124.0 134.0 C124.0 134.0 124.0 134.0 124.0 134.0 C124.0 134.0 124.0 134.0 124.0 134.0 C124.0 134.0 124.0 134.0 124.0 134.0 C124.0 134.0 124.0 134.0 124.0 134.0 C124.0 134.0 124.0 134.0 124.0 134.0 C124.0 134.0 124.0 134.0 124.0 134.0 C124.0 134.0 124.0 134.0 124.0 134.0 C124.0 134.0 124.0 134.0 124.0 134.0 C124.0 134.0 124.0 134.0 124.0 134.0 C124.0 134.0 124.0 134.0 124.0 134.0 C124.0 134.0 124.0 134.0 124.0 134.0 C124.0 134.0 124.0 134.0 124.0 134.0 C124.0 134.0 124.0 134.0 124.0 134.0 C124.0 134.0 124.0 134.0 124.0 134.0 C124.0 134.0 124.0 134.0 124.0 134.0 C124.0 134.0 124.0 134.0 124.0 134.0 C124.0 134.0 124.0 134.0 124.0 134.0 C124.0 134.0 124.0 134.0 124.0 134.0 C124.0 134.0 124.0 134.0 124.0 134.0 C124.0 134.0 124.0 134.0 124.0 134.0 C124.0 134.0 124.0 134.0 124.0 134.0 C124.0 134.0 124.0 134.0 124.0 134.0 C124.0 134.0 124.0 134.0 124.0 134.0 C124.0 134.0 124.0 134.0 124.0 134.0 C124.0 134.0 124.0 134.0 124.0 134.0 C124.0 134.0 124.0 134.0 76.0 134.0 C76.0 134.0 76.0 134.0 76.0 134.0 C76.0 134.0 76.0 134.0 76.0 134.0 C76.0 134.0 76.0 134.0 76.0 134.0 C76.0 134.0 76.0 134.0 76.0 134.0 C76.0 134.0 76.0 134.0 76.0 134.0 C76.0 134.0 76.0 134.0 76.0 134.0 C76.0 134.0 76.0 134.0 76.0 134.0 C76.0 134.0 76.0 134.0 76.0 134.0 C76.0 134.0 76.0 134.0 76.0 134.0 C76.0 134.0 76.0 134.0 76.0 134.0 C76.0 134.0 76.0 134.0 76.0 134.0 C76.0 134.0 76.0 134.0 76.0 134.0 C76.0 134.0 76.0 134.0 76.0 134.0 C76.0 134.0 76.0 134.0 76.0 134.0 C76.0 134.0 76.0 134.0 76.0 134.0 C76.0 134.0 76.0 134.0 76.0 134.0 C76.0 134.0 76.0 134.0 76.0 134.0 C76.0 134.0 76.0 134.0 76.0 134.0 C76.0 134.0 76.0 134.0 76.0 134.0 C76.0 134.0 76.0 134.0 76.0 134.0 C76.0 134.0 76.0 134.0 76.0 134.0 C76.0 134.0 76.0 134.0 76.0 134.0 C76.0 134.0 76.0 134.0 76.0 134.0 C76.0 134.0 76.0 134.0 76.0 134.0 C76.0 134.0 76.0 134.0 76.0 134.0 C76.0 134.0 76.0 134.0 76.0 134.0 C76.0 134.0 76.0 134.0 76.0 134.0 C76.0 134.0 76.0 134.0 76.0 134.0 C76.0 134.0 76.0 134.0 76.0 134.0 C76.0 134.0 76.0 134.0 76.0 134.0 C76.0 134.0 76.0 134.0 76.0 134.0 C76.0 134.0 76.0 134.0 76.0 134.0 C76.0 134.0 76.0 134.0 76.0 134.0 C76.0 134.0 76.0 134.0 76.0 134.0 C76.0 134.0 76.0 134.0 76.0 134.0 C76.0 134.0 76.0 134.0 76.0 134.0 C76.0 134.0 76.0 134.0 76.0 134.0 C76.0 134.0 76.0 134.0 76.0 134.0 C76.0 134.0 76.0 134.0 76.0 134.0 C76.0 134.0 76.0 134.0 76.0 134.0 C76.0 134.0 76.0 134.0 76.0 134.0 C76.0 134.0 76.0 134.0 76.0 134.0 C76.0 134.0 76.0 134.0 76.0 134.0 C76.0 134.0 76.0 134.0 76.0 134.0 C76.0 134.0 76.0 134.0 76.0 134.0 C76.0 134.0 76.0 134.0 76.0 134.0 C76.0 134.0 76.0 134.0 76.0 134.0 C76.0 134.0 76.0 134.0 76.0 134.0 C76.0 134.0 76.0 134.0 76.0 134.0 C76.0 134.0 76.0 134.0 76.0 134.0 C76.0 134.0 76.0 134.0 76.0 134.0 C76.0 134.0 76.0 134.0 76.0 134.0 C76.0 134.0 76.0 134.0 76.0 134.0 C76.0 134.0 76.0 134.0 76.0 134.0 C76.0 134.0 76.0 134.0 76.0 134.0 C76.0 134.0 76.0 134.0 76.0 134.0 C76.0 134.0 76.0 134.0 76.0 134.0 C76.0 134.0 76.0 134.0 76.0 134.0 C76.0 134.0 76.0 134.0 76.0 134.0 C76.0 134.0 76.0 134.0 76.0 134.0 C76.0 134.0 76.0 134.0 76.0 134.0 C76.0 134.0 76.0 134.0 76.0 134.0 C76.0 134.0 76.0 134.0 76.0 134.0 C76.0 134.0 76.0 134.0 76.0 134.0 C76.0 134.0 76.0 134.0 76.0 134.0 C76.0 134.0 76.0 134.0 76.0 134.0 C76.0 134.0 76.0 134.0 76.0 134.0 C76.0 134.0 76.0 134.0 76.0 134.0 C76.0 134.0 76.0 134.0 76.0 134.0 C76.0 134.0 76.0 134.0 76.0 134.0 C76.0 134.0 76.0 134.0 76.0 134.0 C76.0 134.0 76.0 134.0 76.0 134.0 C76.0 134.0 76.0 134.0 76.0 134.0 C76.0 134.0 76.0 134.0 76.0 134.0 C76.0 134.0 76.0 134.0 76.0 134.0 C76.0 134.0 76.0 134.0 76.0 134.0 C76.0 134.0 76.0 134.0 76.0 134.0 C76.0 134.0 76.0 134.0 76.0 134.0 C76.0 134.0 76.0 134.0 76.0 134.0 C76.0 134.0 76.0 134.0 76.0 134.0 C76.0 134.0 76.0 134.0 76.0 134.0 C76.0 134.0 76.0 134.0 76.0 134.0 C76.0 134.0 76.0 134.0 76.0 134.0 C76.0 134.0 76.0 134.0 76.0 134.0 C76.0 134.0 76.0 134.0 76.0 134.0 C76.0 134.0 76.0 134.0 76.0 134.0 C76.0 134.0 76.0 134.0 76.0 134.0 C76.0 134.0 76.0 134.0 76.0 134.0"></path></svg>