<svg xmlns="http://www.w3.org/2000/svg" viewBox="0.0 0.0 200.0 200.0" height="200px" width="200px"><path fill="#ffaa00" fill-opacity="1.0"  filling="0" d="M92.0 108.0 C90.0 116.0 95.0 126.0 101.0 131.0 C108.0 137.0 115.0 139.0 123.0 139.0 C130.0 139.0 137.0 137.0 143.0 133.0 C148.0 130.0 152.0 125.0 155.0 119.0 C157.0 116.0 158.0 113.0 157.0 111.0 C156.0 111.0 155.0 112.0 154.0 113.0 C152.0 114.0 151.0 116.0 149.0 117.0 C146.0 118.0 143.0 119.0 140.0 120.0 C137.0 120.0 134.0 120.0 131.0 118.0 C128.0 116.0 126.0 113.0 124.0 110.0 C123.0 107.0 121.0 104.0 121.0 100.0 C120.0 97.0 120.0 94.0 120.0 91.0 C120.0 86.0 121.0 81.0 123.0 77.0 C125.0 72.0 128.0 68.0 131.0 64.0 L133.0 61.0 L129.0 60.0 C129.0 60.0 129.0 60.0 129.0 60.0 C128.0 60.0 128.0 60.0 127.0 60.0 C126.0 60.0 125.0 60.0 124.0 60.0 C119.0 61.0 114.0 63.0 110.0 66.0 A46.0 46.0 0.0 0 0 101.0 78.0 C98.0 83.0 96.0 89.0 94.0 94.0 C93.0 98.0 92.0 102.0 92.0 106.0 C92.0 107.0 92.0 108.0 92.0 108.0 L92.0 108.0 Z"></path>
<path fill="currentColor" fill-opacity="1.0"  filling="0" d="M122.0 143.0 C114.0 143.0 106.0 140.0 99.0 134.0 C92.0 128.0 87.0 117.0 87.0 108.0 C87.0 107.0 87.0 106.0 87.0 105.0 C87.0 101.0 88.0 97.0 89.0 93.0 C91.0 87.0 93.0 81.0 96.0 76.0 C99.0 71.0 103.0 67.0 107.0 63.0 C111.0 59.0 116.0 57.0 122.0 56.0 C123.0 56.0 124.0 56.0 125.0 56.0 C126.0 56.0 127.0 56.0 128.0 55.0 C128.0 55.0 129.0 55.0 130.0 55.0 C130.0 55.0 131.0 55.0 132.0 55.0 C133.0 55.0 133.0 55.0 134.0 55.0 C135.0 55.0 135.0 56.0 136.0 57.0 C137.0 57.0 137.0 58.0 137.0 60.0 C136.0 60.0 136.0 61.0 135.0 62.0 C135.0 63.0 135.0 63.0 135.0 63.0 C132.0 66.0 129.0 70.0 127.0 74.0 C125.0 79.0 124.0 84.0 124.0 89.0 C123.0 93.0 123.0 96.0 124.0 99.0 C124.0 102.0 125.0 105.0 126.0 108.0 C127.0 111.0 129.0 113.0 131.0 115.0 C134.0 118.0 137.0 118.0 140.0 118.0 C142.0 117.0 145.0 117.0 147.0 116.0 C149.0 115.0 151.0 114.0 152.0 112.0 C153.0 112.0 153.0 111.0 154.0 111.0 C154.0 110.0 155.0 110.0 155.0 109.0 C156.0 109.0 157.0 108.0 158.0 109.0 C159.0 110.0 159.0 112.0 159.0 113.0 C159.0 115.0 158.0 117.0 157.0 120.0 C154.0 127.0 149.0 132.0 145.0 136.0 C139.0 140.0 131.0 142.0 124.0 143.0 C123.0 143.0 123.0 143.0 122.0 143.0 L122.0 143.0 Z M128.0 61.0 C127.0 61.0 126.0 61.0 125.0 61.0 C124.0 61.0 123.0 61.0 122.0 61.0 C118.0 62.0 114.0 64.0 111.0 67.0 C107.0 70.0 104.0 74.0 102.0 79.0 C99.0 84.0 97.0 89.0 96.0 95.0 C95.0 98.0 94.0 102.0 93.0 105.0 C93.0 106.0 93.0 107.0 93.0 108.0 C93.0 116.0 97.0 124.0 103.0 130.0 C109.0 135.0 115.0 138.0 123.0 137.0 C130.0 137.0 137.0 135.0 142.0 131.0 C146.0 129.0 150.0 124.0 153.0 118.0 C153.0 118.0 153.0 118.0 153.0 118.0 C152.0 119.0 150.0 120.0 149.0 120.0 C146.0 122.0 143.0 123.0 140.0 123.0 C136.0 124.0 132.0 123.0 129.0 120.0 C126.0 118.0 123.0 114.0 122.0 110.0 C120.0 107.0 119.0 103.0 119.0 100.0 C118.0 96.0 118.0 92.0 119.0 89.0 C119.0 83.0 120.0 78.0 122.0 73.0 C124.0 69.0 126.0 65.0 129.0 62.0 C129.0 62.0 129.0 62.0 129.0 61.0 C128.0 61.0 128.0 61.0 128.0 61.0 L128.0 61.0 Z"></path>
<path fill="#000000" fill-opacity="1.0"  filling="0" d="M54.0 141.0 C53.0 142.0 53.0 143.0 53.0 143.0 C52.0 145.0 52.0 147.0 52.0 149.0 C51.0 152.0 51.0 154.0 51.0 157.0 C51.0 160.0 51.0 163.0 52.0 165.0 C52.0 165.0 52.0 165.0 52.0 165.0 C52.0 165.0 52.0 165.0 52.0 165.0 C52.0 165.0 52.0 165.0 52.0 165.0 C52.0 165.0 52.0 165.0 52.0 165.0 C52.0 165.0 52.0 165.0 52.0 165.0 C52.0 165.0 52.0 165.0 52.0 165.0 C52.0 165.0 52.0 165.0 52.0 165.0 C52.0 165.0 52.0 165.0 52.0 165.0 C52.0 165.0 52.0 165.0 52.0 165.0 C52.0 165.0 52.0 165.0 52.0 165.0 C52.0 165.0 52.0 165.0 52.0 165.0 C52.0 165.0 52.0 165.0 52.0 165.0 C52.0 165.0 52.0 165.0 52.0 165.0 C52.0 165.0 52.0 165.0 52.0 165.0 C52.0 165.0 52.0 165.0 52.0 165.0 C52.0 165.0 52.0 165.0 52.0 165.0 C52.0 165.0 52.0 165.0 52.0 165.0 C52.0 165.0 52.0 165.0 52.0 165.0 C52.0 165.0 52.0 165.0 52.0 165.0 C52.0 165.0 52.0 165.0 52.0 165.0 C52.0 165.0 52.0 165.0 52.0 165.0 C52.0 165.0 52.0 165.0 52.0 165.0 C52.0 165.0 52.0 165.0 52.0 165.0 C52.0 165.0 52.0 165.0 52.0 165.0 C52.0 165.0 52.0 165.0 52.0 165.0 C52.0 165.0 52.0 165.0 52.0 165.0 C52.0 165.0 52.0 165.0 52.0 165.0 C52.0 165.0 52.0 165.0 52.0 165.0 C52.0 165.0 52.0 165.0 52.0 165.0 C52.0 165.0 52.0 165.0 52.0 165.0 C52.0 165.0 52.0 165.0 52.0 165.0 C52.0 165.0 52.0 165.0 52.0 165.0 C52.0 165.0 52.0 165.0 52.0 165.0 C52.0 165.0 52.0 165.0 52.0 165.0 C52.0 165.0 52.0 165.0 52.0 165.0 C52.0 165.0 52.0 165.0 52.0 165.0 C52.0 165.0 52.0 165.0 52.0 165.0 C52.0 165.0 52.0 165.0 52.0 165.0 C52.0 165.0 52.0 165.0 52.0 165.0 C52.0 165.0 52.0 165.0 52.0 165.0 C52.0 165.0 52.0 165.0 52.0 165.0 C52.0 165.0 52.0 165.0 52.0 165.0 C52.0 165.0 52.0 165.0 52.0 165.0 C52.0 165.0 52.0 165.0 52.0 165.0 C52.0 165.0 52.0 165.0 52.0 165.0 C52.0 165.0 52.0 165.0 52.0 165.0 C52.0 165.0 52.0 165.0 52.0 165.0 C52.0 165.0 52.0 165.0 52.0 165.0 C52.0 165.0 52.0 165.0 52.0 165.0 C52.0 165.0 52.0 165.0 52.0 165.0 C52.0 165.0 52.0 165.0 52.0 165.0 C52.0 165.0 52.0 165.0 52.0 165.0 C52.0 165.0 52.0 165.0 52.0 165.0 C52.0 165.0 52.0 165.0 52.0 165.0 C52.0 165.0 52.0 165.0 52.0 165.0 C52.0 165.0 52.0 165.0 52.0 165.0 C52.0 165.0 52.0 165.0 52.0 165.0 C52.0 165.0 52.0 165.0 52.0 165.0 C52.0 165.0 52.0 165.0 52.0 165.0 C52.0 165.0 52.0 165.0 52.0 165.0 C52.0 165.0 52.0 165.0 52.0 165.0 C52.0 165.0 52.0 165.0 52.0 165.0 C52.0 165.0 52.0 165.0 52.0 165.0 C52.0 165.0 52.0 165.0 52.0 165.0 C52.0 165.0 52.0 165.0 52.0 165.0 C52.0 165.0 52.0 165.0 52.0 165.0 C52.0 165.0 52.0 165.0 52.0 165.0 C52.0 165.0 52.0 165.0 52.0 165.0 C52.0 165.0 52.0 165.0 52.0 165.0 C52.0 165.0 52.0 165.0 52.0 165.0 C52.0 165.0 52.0 165.0 52.0 165.0 C52.0 165.0 52.0 165.0 52.0 165.0 C52.0 165.0 52.0 165.0 52.0 165.0 C52.0 165.0 52.0 165.0 52.0 165.0 C52.0 165.0 52.0 165.0 52.0 165.0 C52.0 165.0 52.0 165.0 52.0 165.0 C52.0 165.0 52.0 165.0 52.0 165.0 C52.0 165.0 52.0 165.0 52.0 165.0 C52.0 165.0 52.0 165.0 52.0 165.0 C52.0 165.0 52.0 165.0 52.0 165.0 C52.0 165.0 52.0 165.0 52.0 165.0 C52.0 165.0 52.0 165.0 52.0 165.0 C52.0 165.0 52.0 165.0 52.0 165.0 C52.0 165.0 52.0 165.0 52.0 165.0 C52.0 165.0 52.0 165.0 52.0 165.0 C52.0 165.0 52.0 165.0 52.0 165.0 C52.0 165.0 52.0 165.0 52.0 165.0 C52.0 165.0 52.0 165.0 52.0 165.0 C52.0 165.0 52.0 165.0 52.0 165.0 C52.0 165.0 52.0 165.0 52.0 165.0 C52.0 165.0 52.0 165.0 52.0 165.0 C52.0 165.0 52.0 165.0 52.0 165.0 C52.0 165.0 52.0 165.0 52.0 165.0 C52.0 165.0 52.0 165.0 52.0 165.0 C52.0 165.0 52.0 165.0 52.0 165.0 C52.0 165.0 52.0 165.0 52.0 165.0 C52.0 165.0 52.0 165.0 52.0 165.0 C52.0 165.0 52.0 165.0 52.0 165.0 C52.0 165.0 52.0 165.0 52.0 165.0 C52.0 165.0 52.0 165.0 52.0 165.0 C52.0 165.0 52.0 165.0 52.0 165.0 C52.0 165.0 52.0 165.0 52.0 165.0 C52.0 165.0 52.0 165.0 52.0 165.0 C52.0 165.0 52.0 165.0 52.0 165.0 C52.0 165.0 52.0 165.0 52.0 165.0 C52.0 165.0 52.0 165.0 52.0 165.0 C52.0 165.0 52.0 165.0 52.0 165.0 C52.0 165.0 52.0 165.0 52.0 165.0 C52.0 165.0 52.0 165.0 52.0 165.0 C52.0 165.0 52.0 165.0 52.0 165.0 C52.0 165.0 52.0 165.0 52.0 165.0 C52.0 165.0 52.0 165.0 52.0 165.0 C52.0 165.0 52.0 165.0 52.0 165.0 C52.0 165.0 52.0 165.0 52.0 165.0 C52.0 165.0 52.0 165.0 52.0 165.0 C52.0 165.0 52.0 165.0 52.0 165.0 C52.0 165.0 52.0 165.0 52.0 165.0 C52.0 165.0 52.0 165.0 52.0 165.0 C52.0 165.0 52.0 165.0 52.0 165.0 C52.0 165.0 52.0 165.0 52.0 165.0 C52.0 165.0 52.0 165.0 52.0 165.0 C52.0 165.0 52.0 165.0 52.0 165.0 C52.0 165.0 52.0 165.0 52.0 165.0 C52.0 165.0 52.0 165.0 52.0 165.0 C52.0 165.0 52.0 165.0 52.0 165.0 C52.0 165.0 52.0 165.0 52.0 165.0 C52.0 165.0 52.0 165.0 52.0 165.0 C52.0 165.0 52.0 165.0 52.0 165.0 C52.0 165.0 52.0 165.0 52.0 165.0 C52.0 165.0 52.0 165.0 52.0 165.0 C52.0 165.0 52.0 165.0 52.0 165.0 C52.0 165.0 52.0 165.0 52.0 165.0 C52.0 165.0 52.0 165.0 52.0 165.0 C52.0 165.0 52.0 165.0 52.0 165.0 C52.0 165.0 52.0 165.0 52.0 165.0 C52.0 165.0 52.0 165.0 52.0 165.0 C52.0 165.0 52.0 165.0 52.0 165.0 C52.0 165.0 52.0 165.0 52.0 165.0 C52.0 165.0 52.0 165.0 52.0 165.0 C52.0 165.0 52.0 165.0 52.0 165.0 C52.0 165.0 52.0 165.0 52.0 165.0 C52.0 165.0 52.0 165.0 52.0 165.0 C52.0 165.0 52.0 165.0 52.0 165.0 C52.0 165.0 52.0 165.0 52.0 165.0 C52.0 165.0 52.0 165.0 52.0 165.0 C52.0 165.0 52.0 165.0 52.0 165.0 C52.0 165.0 52.0 165.0 52.0 165.0 C52.0 165.0 52.0 165.0 52.0 165.0 C52.0 165.0 52.0 165.0 52.0 165.0 C52.0 165.0 52.0 165.0 52.0 165.0 C52.0 165.0 52.0 165.0 52.0 165.0 C52.0 165.0 52.0 165.0 52.0 165.0 C52.0 165.0 52.0 165.0 52.0 165.0 C52.0 165.0 52.0 165.0 52.0 165.0 C52.0 165.0 52.0 165.0 52.0 165.0 C52.0 165.0 52.0 165.0 52.0 165.0 C52.0 165.0 52.0 165.0 52.0 165.0 C52.0 165.0 52.0 165.0 52.0 165.0 C52.0 165.0 52.0 165.0 52.0 165.0 C52.0 165.0 52.0 165.0 52.0 165.0 C52.0 165.0 52.0 165.0 52.0 165.0 C52.0 165.0 52.0 165.0 52.0 165.0 C52.0 165.0 52.0 165.0 52.0 165.0 C52.0 165.0 52.0 165.0 52.0 165.0 C52.0 165.0 52.0 165.0 52.0 165.0 C52.0 165.0 52.0 165.0 52.0 165.0 C52.0 165.0 52.0 165.0 52.0 165.0 C52.0 165.0 52.0 165.0 52.0 165.0 C52.0 165.0 52.0 165.0 52.0 165.0 C52.0 165.0 52.0 165.0 52.0 165.0 C52.0 165.0 52.0 165.0 52.0 165.0 C52.0 165.0 52.0 165.0 52.0 165.0 C52.0 165.0 52.0 165.0 52.0 165.0 C52.0 165.0 52.0 165.0 52.0 165.0 C52.0 165.0 52.0 165.0 52.0 165.0 C52.0 165.0 52.0 165.0 52.0 165.0 C52.0 165.0 52.0 165.0 52.0 165.0 C52.0 165.0 52.0 165.0 52.0 165.0 C52.0 165.0 52.0 165.0 52.0 165.0 C52.0 165.0 52.0 165.0 52.0 165.0 C52.0 165.0 52.0 165.0 52.0 165.0 C52.0 165.0 52.0 165.0 52.0 165.0 C52.0 165.0 52.0 165.0 52.0 165.0 C52.0 165.0 52.0 165.0 52.0 165.0 C52.0 165.0 52.0 165.0 52.0 165.0 C52.0 165.0 52.0 165.0 52.0 165.0 C52.0 165.0 52.0 165.0 52.0 165.0 C52.0 165.0 52.0 165.0 52.0 165.0 C52.0 165.0 52.0 165.0 52.0 165.0 C52.0 165.0 52.0 165.0 52.0 165.0 C52.0 165.0 52.0 165.0 52.0 165.0 C52.0 165.0 52.0 165.0 52.0 165.0 C52.0 165.0 52.0 165.0 52.0 165.0 C52.0 165.0 52.0 165.0 52.0 165.0 C52.0 165.0 52.0 165.0 52.0 165.0 C52.0 165.0 52.0 165.0 52.0 165.0 C52.0 165.0 52.0 165.0 52.0 165.0 C52.0 165.0 52.0 165.0 52.0 165.0 C52.0 165.0 52.0 165.0 52.0 165.0 C52.0 165.0 52.0 165.0 52.0 165.0 C52.0 165.0 52.0 165.0 52.0 165.0 C52.0 165.0 52.0 165.0 52.0 165.0 C52.0 165.0 52.0 165.0 52.0 165.0 C52.0 165.0 52.0 165.0 52.0 165.0 C52.0 165.0 52.0 165.0 52.0 165.0 C52.0 165.0 52.0 165.0 52.0 165.0 C52.0 165.0 52.0 165.0 52.0 165.0 C52.0 165.0 52.0 165.0 52.0 165.0 C52.0 165.0 52.0 165.0 52.0 165.0 C52.0 165.0 52.0 165.0 52.0 165.0 C52.0 165.0 52.0 165.0 52.0 165.0 C52.0 165.0 52.0 165.0 52.0 165.0 C52.0 165.0 52.0 165.0 52.0 165.0 C52.0 165.0 52.0 165.0 52.0 165.0 C52.0 165.0 52.0 165.0 52.0 165.0 C52.0 165.0 52.0 165.0 52.0 165.0 C52.0 165.0 52.0 165.0 52.0 165.0 C52.0 165.0 52.0 165.0 52.0 165.0 C52.0 165.0 52.0 165.0 52.0 165.0 C52.0 165.0 52.0 165.0 52.0 165.0 C52.0 165.0 52.0 165.0 52.0 165.0 C52.0 165.0 148.0 165.0 148.0 165.0 C148.0 165.0 148.0 165.0 148.0 165.0 C148.0 165.0 148.0 165.0 148.0 165.0 C148.0 165.0 148.0 165.0 148.0 165.0 C148.0 165.0 148.0 165.0 148.0 165.0 C148.0 165.0 148.0 165.0 148.0 165.0 C148.0 165.0 148.0 165.0 148.0 165.0 C148.0 165.0 148.0 165.0 148.0 165.0 C148.0 165.0 148.0 165.0 148.0 165.0 C148.0 165.0 148.0 165.0 148.0 165.0 C148.0 165.0 148.0 165.0 148.0 165.0 C148.0 165.0 148.0 165.0 148.0 165.0 C148.0 165.0 148.0 165.0 148.0 165.0 C148.0 165.0 148.0 165.0 148.0 165.0 C148.0 165.0 148.0 165.0 148.0 165.0 C148.0 165.0 148.0 165.0 148.0 165.0 C148.0 165.0 148.0 165.0 148.0 165.0 C148.0 165.0 148.0 165.0 148.0 165.0 C148.0 165.0 148.0 165.0 148.0 165.0 C148.0 165.0 148.0 165.0 148.0 165.0 C148.0 165.0 148.0 165.0 148.0 165.0 C148.0 165.0 148.0 165.0 148.0 165.0 C148.0 165.0 148.0 165.0 148.0 165.0 C148.0 165.0 148.0 165.0 148.0 165.0 C148.0 165.0 148.0 165.0 148.0 165.0 C148.0 165.0 148.0 165.0 148.0 165.0 C148.0 165.0 148.0 165.0 148.0 165.0 C148.0 165.0 148.0 165.0 148.0 165.0 C148.0 165.0 148.0 165.0 148.0 165.0 C148.0 165.0 148.0 165.0 148.0 165.0 C148.0 165.0 148.0 165.0 148.0 165.0 C148.0 165.0 148.0 165.0 148.0 165.0 C148.0 165.0 148.0 165.0 148.0 165.0 C148.0 165.0 148.0 165.0 148.0 165.0 C148.0 165.0 148.0 165.0 148.0 165.0 C148.0 165.0 148.0 165.0 148.0 165.0 C148.0 165.0 148.0 165.0 148.0 165.0 C148.0 165.0 148.0 165.0 148.0 165.0 C148.0 165.0 148.0 165.0 148.0 165.0 C148.0 165.0 148.0 165.0 148.0 165.0 C148.0 165.0 148.0 165.0 148.0 165.0 C148.0 165.0 148.0 165.0 148.0 165.0 C148.0 165.0 148.0 165.0 148.0 165.0 C148.0 165.0 148.0 165.0 148.0 165.0 C148.0 165.0 148.0 165.0 148.0 165.0 C148.0 165.0 148.0 165.0 148.0 165.0 C148.0 165.0 148.0 165.0 148.0 165.0 C148.0 165.0 148.0 165.0 148.0 165.0 C148.0 165.0 148.0 165.0 148.0 165.0 C148.0 165.0 148.0 165.0 148.0 165.0 C148.0 165.0 148.0 165.0 148.0 165.0 C148.0 165.0 148.0 165.0 148.0 165.0 C148.0 165.0 148.0 165.0 148.0 165.0 C148.0 165.0 148.0 165.0 148.0 165.0 C148.0 165.0 148.0 165.0 148.0 165.0 C148.0 165.0 148.0 165.0 148.0 165.0 C148.0 165.0 148.0 165.0 148.0 165.0 C148.0 165.0 148.0 165.0 148.0 165.0 C148.0 165.0 148.0 165.0 148.0 165.0 C148.0 165.0 148.0 165.0 148.0 165.0 C148.0 165.0 148.0 165.0 148.0 165.0 C148.0 165.0 148.0 165.0 148.0 165.0 C148.0 165.0 148.0 165.0 148.0 165.0 C148.0 165.0 148.0 165.0 148.0 165.0 C148.0 165.0 148.0 165.0 148.0 165.0 C148.0 165.0 148.0 165.0 148.0 165.0 C148.0 165.0 148.0 165.0 148.0 165.0 C148.0 165.0 148.0 165.0 148.0 165.0 C148.0 165.0 148.0 165.0 148.0 165.0 C148.0 165.0 148.0 165.0 148.0 165.0"></path></svg>