<svg xmlns="http://www.w3.org/2000/svg" viewBox="0.0 0.0 200.0 200.0" height="200px" width="200px"><path fill="#000000" fill-opacity="1.0"  filling="0" d="M138.0 115.0 C130.0 115.0 125.0 105.0 125.0 95.0 C125.0 86.0 130.0 78.0 138.0 78.0 L137.0 78.0 A10.0 10.0 0.0 0 1 146.0 88.0 L146.0 91.0 A10.0 10.0 0.0 0 1 137.0 100.0 L136.0 100.0 A10.0 10.0 0.0 0 1 134.0 102.0 C133.0 105.0 134.0 107.0 136.0 109.0 C139.0 110.0 141.0 109.0 143.0 107.0 A10.0 10.0 0.0 0 1 145.0 106.0 A10.0 10.0 0.0 0 1 153.0 105.0 C159.0 105.0 164.0 111.0 164.0 118.0 C164.0 125.0 159.0 130.0 153.0 130.0 A10.0 10.0 0.0 0 1 146.0 128.0 A10.0 10.0 0.0 0 1 144.0 128.0 A10.0 10.0 0.0 0 1 138.0 129.0 C138.0 129.0 138.0 129.0 138.0 129.0 C138.0 129.0 138.0 129.0 138.0 129.0 C138.0 129.0 138.0 129.0 138.0 129.0 C138.0 129.0 138.0 129.0 138.0 129.0 C138.0 129.0 138.0 129.0 138.0 129.0 C138.0 129.0 138.0 129.0 138.0 129.0 C138.0 129.0 138.0 129.0 138.0 129.0 C138.0 129.0 138.0 129.0 138.0 129.0 C138.0 129.0 138.0 129.0 138.0 129.0 C138.0 129.0 138.0 129.0 138.0 129.0 C138.0 129.0 138.0 129.0 138.0 129.0 C138.0 129.0 138.0 129.0 138.0 129.0 C138.0 129.0 138.0 129.0 138.0 129.0 C138.0 129.0 138.0 129.0 138.0 129.0 C138.0 129.0 138.0 129.0 138.0 129.0 C138.0 129.0 138.0 129.0 138.0 129.0 C138.0 129.0 138.0 129.0 138.0 129.0 C138.0 129.0 138.0 129.0 138.0 129.0 C138.0 129.0 138.0 129.0 138.0 129.0 C138.0 129.0 138.0 129.0 138.0 129.0 C138.0 129.0 138.0 129.0 138.0 129.0 C138.0 129.0 138.0 129.0 138.0 129.0 C138.0 129.0 138.0 129.0 138.0 129.0 C138.0 129.0 138.0 129.0 138.0 129.0 C138.0 129.0 138.0 129.0 138.0 129.0 C138.0 129.0 138.0 129.0 138.0 129.0 C138.0 129.0 138.0 129.0 138.0 129.0 C138.0 129.0 138.0 129.0 138.0 129.0 C138.0 129.0 138.0 129.0 138.0 129.0 C138.0 129.0 138.0 129.0 138.0 129.0 C138.0 129.0 138.0 129.0 138.0 129.0 C138.0 129.0 138.0 129.0 138.0 129.0 C138.0 129.0 138.0 129.0 138.0 129.0 C138.0 129.0 138.0 129.0 138.0 129.0 C138.0 129.0 138.0 129.0 138.0 129.0 C138.0 129.0 138.0 129.0 138.0 129.0 C138.0 129.0 138.0 129.0 138.0 129.0 C138.0 129.0 138.0 129.0 138.0 129.0 C138.0 129.0 138.0 129.0 138.0 129.0 C138.0 129.0 138.0 129.0 138.0 129.0 C138.0 129.0 138.0 129.0 138.0 129.0 C138.0 129.0 138.0 129.0 138.0 129.0 C138.0 129.0 138.0 129.0 138.0 129.0 C138.0 129.0 138.0 129.0 138.0 129.0 C138.0 129.0 138.0 129.0 138.0 129.0 C138.0 129.0 138.0 129.0 138.0 129.0 C138.0 129.0 138.0 129.0 138.0 129.0 C138.0 129.0 138.0 129.0 138.0 129.0 C138.0 129.0 138.0 129.0 138.0 129.0 C138.0 129.0 138.0 129.0 138.0 129.0 C138.0 129.0 138.0 129.0 138.0 129.0 C138.0 129.0 138.0 129.0 138.0 129.0 C138.0 129.0 138.0 129.0 138.0 129.0 C138.0 129.0 138.0 129.0 138.0 129.0 C138.0 129.0 138.0 129.0 138.0 129.0 C138.0 129.0 138.0 129.0 138.0 129.0 C138.0 129.0 138.0 129.0 138.0 129.0 C138.0 129.0 138.0 129.0 138.0 129.0 C138.0 129.0 138.0 129.0 138.0 129.0 C138.0 129.0 138.0 129.0 138.0 129.0 C138.0 129.0 138.0 129.0 138.0 129.0 C138.0 129.0 138.0 129.0 138.0 129.0 C138.0 129.0 138.0 129.0 138.0 129.0 C138.0 129.0 138.0 129.0 138.0 129.0 C138.0 129.0 138.0 129.0 138.0 129.0 C138.0 129.0 138.0 129.0 138.0 129.0 C138.0 129.0 138.0 129.0 138.0 129.0 C138.0 129.0 138.0 129.0 138.0 129.0 C138.0 129.0 138.0 129.0 138.0 129.0 C138.0 129.0 138.0 129.0 138.0 129.0 C138.0 129.0 138.0 129.0 138.0 129.0 C138.0 129.0 138.0 129.0 138.0 129.0 C138.0 129.0 138.0 129.0 138.0 129.0 C138.0 129.0 138.0 129.0 138.0 129.0 C138.0 129.0 138.0 129.0 138.0 129.0 C138.0 129.0 138.0 129.0 138.0 129.0 C138.0 129.0 138.0 129.0 138.0 129.0 C138.0 129.0 138.0 129.0 138.0 129.0 C138.0 129.0 138.0 129.0 138.0 129.0 C138.0 129.0 138.0 129.0 138.0 129.0 C138.0 129.0 138.0 129.0 138.0 129.0 C138.0 129.0 138.0 129.0 138.0 129.0 C138.0 129.0 138.0 129.0 138.0 129.0 C138.0 129.0 138.0 129.0 138.0 129.0 C138.0 129.0 138.0 129.0 138.0 129.0 C138.0 129.0 138.0 129.0 138.0 129.0 C138.0 129.0 138.0 129.0 138.0 129.0 C138.0 129.0 138.0 129.0 138.0 129.0 C138.0 129.0 138.0 129.0 138.0 129.0 C138.0 129.0 138.0 129.0 138.0 129.0 C138.0 129.0 138.0 129.0 138.0 129.0 C138.0 129.0 138.0 129.0 138.0 129.0 C138.0 129.0 138.0 129.0 138.0 129.0 C138.0 129.0 138.0 129.0 138.0 129.0 C138.0 129.0 138.0 129.0 138.0 129.0 C138.0 129.0 138.0 129.0 138.0 129.0 C138.0 129.0 138.0 129.0 138.0 129.0 C138.0 129.0 138.0 129.0 138.0 129.0 C138.0 129.0 138.0 129.0 138.0 129.0 C138.0 129.0 138.0 129.0 138.0 129.0 C138.0 129.0 138.0 129.0 138.0 129.0 C138.0 129.0 138.0 129.0 138.0 129.0 C138.0 129.0 138.0 129.0 138.0 129.0 C138.0 129.0 138.0 129.0 138.0 129.0 C138.0 129.0 138.0 129.0 138.0 129.0 C138.0 129.0 138.0 129.0 138.0 129.0 C138.0 129.0 138.0 129.0 138.0 129.0 C138.0 129.0 138.0 129.0 138.0 129.0 C138.0 129.0 138.0 129.0 138.0 129.0 C138.0 129.0 138.0 129.0 138.0 129.0 C138.0 129.0 138.0 129.0 138.0 129.0 C138.0 129.0 138.0 129.0 138.0 129.0 C138.0 129.0 138.0 129.0 138.0 129.0 C138.0 129.0 138.0 129.0 138.0 129.0 C138.0 129.0 138.0 129.0 138.0 129.0 C138.0 129.0 138.0 129.0 138.0 129.0 C138.0 129.0 138.0 129.0 138.0 129.0 C138.0 129.0 138.0 129.0 138.0 129.0 C138.0 129.0 138.0 129.0 138.0 129.0 C138.0 129.0 138.0 129.0 138.0 129.0 C138.0 129.0 138.0 129.0 138.0 129.0 C138.0 129.0 138.0 129.0 138.0 129.0 C138.0 129.0 138.0 129.0 138.0 129.0 C138.0 129.0 138.0 129.0 138.0 129.0 C138.0 129.0 138.0 129.0 138.0 129.0 C138.0 129.0 138.0 129.0 138.0 129.0 C138.0 129.0 138.0 129.0 138.0 129.0 C138.0 129.0 138.0 129.0 138.0 129.0 C138.0 129.0 138.0 129.0 138.0 129.0 C138.0 129.0 138.0 129.0 138.0 129.0 C138.0 129.0 138.0 129.0 138.0 129.0 C138.0 129.0 138.0 129.0 138.0 129.0 C138.0 129.0 138.0 129.0 138.0 129.0 C138.0 129.0 138.0 129.0 138.0 129.0 C138.0 129.0 138.0 129.0 138.0 129.0 C138.0 129.0 138.0 129.0 138.0 129.0 C138.0 129.0 138.0 129.0 138.0 129.0 C138.0 129.0 138.0 129.0 138.0 129.0 C138.0 129.0 138.0 129.0 138.0 129.0 C138.0 129.0 138.0 129.0 138.0 129.0 C138.0 129.0 138.0 129.0 138.0 129.0 C138.0 129.0 138.0 129.0 138.0 129.0 C138.0 129.0 138.0 129.0 138.0 129.0 C138.0 129.0 138.0 129.0 138.0 129.0 C138.0 129.0 138.0 129.0 138.0 129.0 C138.0 129.0 138.0 129.0 138.0 129.0 C138.0 129.0 138.0 129.0 138.0 129.0 C138.0 129.0 138.0 129.0 138.0 129.0 C138.0 129.0 138.0 129.0 138.0 129.0 C138.0 129.0 138.0 129.0 138.0 129.0 C138.0 129.0 138.0 129.0 138.0 129.0 C138.0 129.0 138.0 129.0 138.0 129.0 C138.0 129.0 138.0 129.0 138.0 129.0 C138.0 129.0 138.0 129.0 138.0 129.0 C138.0 129.0 138.0 129.0 138.0 129.0 C138.0 129.0 138.0 129.0 138.0 129.0 C138.0 129.0 138.0 129.0 138.0 129.0 C138.0 129.0 138.0 129.0 138.0 129.0 C138.0 129.0 138.0 129.0 138.0 129.0 C138.0 129.0 138.0 129.0 138.0 129.0 C138.0 129.0 138.0 129.0 138.0 129.0 C138.0 129.0 138.0 129.0 138.0 129.0 C138.0 129.0 138.0 129.0 138.0 129.0 C138.0 129.0 138.0 129.0 138.0 129.0 C138.0 129.0 138.0 129.0 138.0 129.0 C138.0 129.0 138.0 129.0 138.0 129.0 C138.0 129.0 138.0 129.0 138.0 129.0 C138.0 129.0 138.0 129.0 138.0 129.0 C138.0 129.0 138.0 129.0 138.0 129.0 C138.0 129.0 138.0 129.0 138.0 129.0 C138.0 129.0 138.0 129.0 138.0 129.0 C138.0 129.0 138.0 129.0 138.0 129.0 C138.0 129.0 138.0 129.0 138.0 129.0 C138.0 129.0 138.0 129.0 138.0 129.0 C138.0 129.0 138.0 129.0 138.0 129.0 C138.0 129.0 138.0 129.0 138.0 129.0 C138.0 129.0 138.0 129.0 138.0 129.0 C138.0 129.0 138.0 129.0 138.0 129.0 C138.0 129.0 138.0 129.0 138.0 129.0 C138.0 129.0 138.0 129.0 138.0 129.0 C138.0 129.0 138.0 129.0 138.0 129.0 C138.0 129.0 138.0 129.0 138.0 129.0 C138.0 129.0 138.0 129.0 138.0 129.0 C138.0 129.0 138.0 129.0 138.0 129.0 C138.0 129.0 138.0 129.0 138.0 129.0 C138.0 129.0 138.0 129.0 138.0 129.0 C138.0 129.0 138.0 129.0 138.0 129.0 C138.0 129.0 138.0 129.0 138.0 129.0 C138.0 129.0 138.0 129.0 138.0 129.0 C138.0 129.0 138.0 129.0 138.0 129.0 C138.0 129.0 138.0 129.0 138.0 129.0 C138.0 129.0 138.0 129.0 138.0 129.0 C138.0 129.0 138.0 129.0 138.0 129.0 C138.0 129.0 138.0 129.0 138.0 129.0 C138.0 129.0 138.0 129.0 138.0 129.0 C138.0 129.0 138.0 129.0 138.0 129.0 C138.0 129.0 138.0 129.0 138.0 129.0 C138.0 129.0 138.0 129.0 138.0 129.0 C138.0 129.0 138.0 129.0 138.0 129.0 C138.0 129.0 138.0 129.0 138.0 129.0 C138.0 129.0 138.0 129.0 138.0 129.0 C138.0 129.0 138.0 129.0 138.0 129.0 C138.0 129.0 138.0 129.0 138.0 129.0 C138.0 129.0 138.0 129.0 138.0 129.0 C138.0 129.0 68.0 132.0 67.0 132.0 C66.0 132.0 66.0 132.0 66.0 132.0 C65.0 132.0 65.0 132.0 65.0 132.0 C65.0 132.0 65.0 132.0 65.0 132.0 C65.0 132.0 65.0 132.0 65.0 132.0 C65.0 132.0 65.0 132.0 65.0 132.0 C65.0 132.0 65.0 132.0 65.0 132.0 C65.0 132.0 65.0 132.0 65.0 132.0 C65.0 132.0 65.0 132.0 65.0 132.0 C65.0 132.0 65.0 132.0 65.0 132.0 C65.0 132.0 65.0 132.0 65.0 132.0 C65.0 132.0 65.0 132.0 65.0 132.0 C65.0 132.0 65.0 132.0 65.0 132.0 C65.0 132.0 65.0 132.0 65.0 132.0 C65.0 132.0 65.0 132.0 65.0 132.0 C65.0 132.0 65.0 132.0 65.0 132.0 C65.0 132.0 65.0 132.0 65.0 132.0 C65.0 132.0 65.0 132.0 65.0 132.0 C65.0 132.0 65.0 132.0 65.0 132.0 C65.0 132.0 65.0 132.0 65.0 132.0 C65.0 132.0 65.0 132.0 65.0 132.0 C65.0 132.0 65.0 132.0 65.0 132.0 C65.0 132.0 65.0 132.0 65.0 132.0 C65.0 132.0 65.0 132.0 65.0 132.0 C65.0 132.0 65.0 132.0 65.0 132.0 C65.0 132.0 65.0 132.0 65.0 132.0 C65.0 132.0 65.0 132.0 65.0 132.0 C65.0 132.0 65.0 132.0 65.0 132.0 C65.0 132.0 65.0 132.0 65.0 132.0 C65.0 132.0 65.0 132.0 65.0 132.0 C65.0 132.0 65.0 132.0 65.0 132.0 C65.0 132.0 65.0 132.0 65.0 132.0 C65.0 132.0 65.0 132.0 65.0 132.0 C65.0 132.0 65.0 132.0 65.0 132.0 C65.0 132.0 65.0 132.0 65.0 132.0 C65.0 132.0 65.0 132.0 65.0 132.0 C65.0 132.0 65.0 132.0 65.0 132.0 C65.0 132.0 65.0 132.0 65.0 132.0 C65.0 132.0 65.0 132.0 65.0 132.0 C65.0 132.0 65.0 132.0 65.0 132.0 C65.0 132.0 65.0 132.0 65.0 132.0 C65.0 132.0 65.0 132.0 65.0 132.0 C65.0 132.0 65.0 132.0 65.0 132.0 C65.0 132.0 65.0 132.0 65.0 132.0 C65.0 132.0 65.0 132.0 65.0 132.0 C65.0 132.0 65.0 132.0 65.0 132.0 C65.0 132.0 65.0 132.0 65.0 132.0 C65.0 132.0 65.0 132.0 65.0 132.0 C65.0 132.0 65.0 132.0 65.0 132.0 C65.0 132.0 65.0 132.0 65.0 132.0 C65.0 132.0 65.0 132.0 65.0 132.0 C65.0 132.0 65.0 132.0 65.0 132.0 C65.0 132.0 65.0 132.0 65.0 132.0 C65.0 132.0 65.0 132.0 65.0 132.0 C65.0 132.0 65.0 132.0 65.0 132.0 C65.0 132.0 65.0 132.0 65.0 132.0 C65.0 132.0 65.0 132.0 65.0 132.0 C65.0 132.0 65.0 132.0 65.0 132.0 C65.0 132.0 65.0 132.0 65.0 132.0 C65.0 132.0 65.0 132.0 65.0 132.0 C65.0 132.0 65.0 132.0 65.0 132.0 C65.0 132.0 65.0 132.0 65.0 132.0 C65.0 132.0 65.0 132.0 65.0 132.0 C65.0 132.0 65.0 132.0 65.0 132.0 C65.0 132.0 65.0 132.0 65.0 132.0 C65.0 132.0 65.0 132.0 65.0 132.0 C65.0 132.0 65.0 132.0 65.0 132.0 C65.0 132.0 65.0 132.0 65.0 132.0 C65.0 132.0 65.0 132.0 65.0 132.0 C65.0 132.0 65.0 132.0 65.0 132.0 C65.0 132.0 65.0 132.0 65.0 132.0 C65.0 132.0 65.0 132.0 65.0 132.0 C65.0 132.0 65.0 132.0 65.0 132.0 C65.0 132.0 65.0 132.0 65.0 132.0 C65.0 132.0 65.0 132.0 65.0 132.0 C65.0 132.0 65.0 132.0 65.0 132.0 C65.0 132.0 65.0 132.0 65.0 132.0 C65.0 132.0 65.0 132.0 65.0 132.0 C65.0 132.0 65.0 132.0 65.0 132.0 C65.0 132.0 65.0 132.0 65.0 132.0 C65.0 132.0 65.0 132.0 65.0 132.0 C65.0 132.0 65.0 132.0 65.0 132.0 C65.0 132.0 65.0 132.0 65.0 132.0 C65.0 132.0 65.0 132.0 65.0 132.0 C65.0 132.0 65.0 132.0 65.0 132.0 C65.0 132.0 65.0 132.0 65.0 132.0 C65.0 132.0 65.0 132.0 65.0 132.0 C65.0 132.0 65.0 132.0 65.0 132.0 C65.0 132.0 65.0 132.0 65.0 132.0 C65.0 132.0 65.0 132.0 65.0 132.0 C65.0 132.0 65.0 132.0 65.0 132.0 C65.0 132.0 65.0 132.0 65.0 132.0 C65.0 132.0 65.0 132.0 65.0 132.0 C65.0 132.0 65.0 132.0 65.0 132.0 C65.0 132.0 65.0 132.0 65.0 132.0 C65.0 132.0 65.0 132.0 65.0 132.0 C65.0 132.0 65.0 132.0 65.0 132.0 C65.0 132.0 65.0 132.0 65.0 132.0 C65.0 132.0 65.0 132.0 65.0 132.0 C65.0 132.0 65.0 132.0 65.0 132.0 C65.0 132.0 65.0 132.0 65.0 132.0 C65.0 132.0 65.0 132.0 65.0 132.0 C65.0 132.0 65.0 132.0 65.0 132.0 C65.0 132.0 65.0 132.0 65.0 132.0 C65.0 132.0 65.0 132.0 65.0 132.0 C65.0 132.0 65.0 132.0 65.0 132.0 C65.0 132.0 65.0 132.0 65.0 132.0 C65.0 132.0 65.0 132.0 65.0 132.0 C65.0 132.0 65.0 132.0 65.0 132.0 C65.0 132.0 65.0 132.0 65.0 132.0 C65.0 132.0 65.0 132.0 65.0 132.0 C65.0 132.0 65.0 132.0 65.0 132.0 C65.0 132.0 65.0 132.0 65.0 132.0 C65.0 132.0 65.0 132.0 65.0 132.0 C65.0 132.0 65.0 132.0 65.0 132.0 C65.0 132.0 65.0 132.0 65.0 132.0 C65.0 132.0 65.0 132.0 65.0 132.0 C65.0 132.0 65.0 132.0 65.0 132.0 C65.0 132.0 65.0 132.0 65.0 132.0 C65.0 132.0 65.0 132.0 65.0 132.0 C65.0 132.0 65.0 132.0 65.0 132.0 C65.0 132.0 65.0 132.0 65.0 132.0 C65.0 132.0 65.0 132.0 65.0 132.0 C65.0 132.0 65.0 132.0 65.0 132.0 C65.0 132.0 65.0 132.0 65.0 132.0 C65.0 132.0 65.0 132.0 65.0 132.0 C65.0 132.0 65.0 132.0 65.0 132.0 C65.0 132.0 65.0 132.0 65.0 132.0 C65.0 132.0 65.0 132.0 65.0 132.0 C65.0 132.0 65.0 132.0 65.0 132.0 C65.0 132.0 65.0 132.0 65.0 132.0 C65.0 132.0 65.0 132.0 65.0 132.0 C65.0 132.0 65.0 132.0 65.0 132.0 C65.0 132.0 65.0 132.0 65.0 132.0 C65.0 132.0 65.0 132.0 65.0 132.0 C65.0 132.0 65.0 132.0 65.0 132.0 C65.0 132.0 65.0 132.0 65.0 132.0 C65.0 132.0 65.0 132.0 65.0 132.0 C65.0 132.0 65.0 132.0 65.0 132.0 C65.0 132.0 65.0 132.0 65.0 132.0 C65.0 132.0 65.0 132.0 65.0 132.0 C65.0 132.0 65.0 132.0 65.0 132.0 C65.0 132.0 65.0 132.0 65.0 132.0 C65.0 132.0 65.0 132.0 65.0 132.0 C65.0 132.0 65.0 132.0 65.0 132.0 C65.0 132.0 65.0 132.0 65.0 132.0 C65.0 132.0 65.0 132.0 65.0 132.0 C65.0 132.0 65.0 132.0 65.0 132.0 C65.0 132.0 65.0 132.0 65.0 132.0 C65.0 132.0 65.0 132.0 65.0 132.0 C65.0 132.0 65.0 132.0 65.0 132.0 C65.0 132.0 65.0 132.0 65.0 132.0 C65.0 132.0 65.0 132.0 65.0 132.0 C65.0 132.0 65.0 132.0 65.0 132.0 C65.0 132.0 65.0 132.0 65.0 132.0 C65.0 132.0 65.0 132.0 65.0 132.0 C65.0 132.0 65.0 132.0 65.0 132.0 C65.0 132.0 65.0 132.0 65.0 132.0"></path></svg>