<svg xmlns="http://www.w3.org/2000/svg" viewBox="0.0 0.0 200.0 200.0" height="200px" width="200px"><path fill="#000000" fill-opacity="1.0"  filling="0" d="M138.0 104.0 C137.0 104.0 136.0 104.0 135.0 104.0 L133.0 104.0 L133.0 105.0 C132.0 106.0 132.0 108.0 132.0 109.0 C132.0 110.0 133.0 111.0 133.0 112.0 C134.0 113.0 135.0 113.0 136.0 113.0 C137.0 113.0 138.0 112.0 139.0 111.0 C140.0 110.0 140.0 108.0 140.0 107.0 C140.0 106.0 140.0 105.0 139.0 104.0 C138.0 104.0 138.0 103.0 138.0 104.0 L138.0 104.0 Z"></path>
<path fill="#000000" fill-opacity="1.0"  filling="0" d="M140.0 124.0 C138.0 124.0 136.0 124.0 134.0 124.0 C132.0 124.0 129.0 123.0 127.0 121.0 C126.0 120.0 124.0 119.0 123.0 117.0 C121.0 115.0 119.0 113.0 118.0 110.0 C116.0 106.0 115.0 102.0 115.0 98.0 C114.0 96.0 114.0 94.0 114.0 92.0 C114.0 89.0 115.0 86.0 115.0 83.0 C116.0 81.0 117.0 79.0 118.0 77.0 C119.0 75.0 120.0 73.0 121.0 71.0 C123.0 69.0 124.0 67.0 126.0 65.0 C127.0 63.0 128.0 62.0 129.0 60.0 C130.0 59.0 130.0 58.0 131.0 57.0 C130.0 57.0 129.0 57.0 129.0 57.0 C129.0 57.0 129.0 57.0 129.0 57.0 C129.0 57.0 129.0 57.0 129.0 57.0 C129.0 57.0 129.0 57.0 129.0 57.0 C129.0 57.0 129.0 57.0 129.0 57.0 C129.0 57.0 129.0 57.0 129.0 57.0 C129.0 57.0 129.0 57.0 129.0 57.0 C129.0 57.0 129.0 57.0 129.0 57.0 C129.0 57.0 129.0 57.0 129.0 57.0 C129.0 57.0 129.0 57.0 129.0 57.0 C129.0 57.0 129.0 57.0 129.0 57.0 C129.0 57.0 129.0 57.0 129.0 57.0 C129.0 57.0 129.0 57.0 129.0 57.0 C129.0 57.0 129.0 57.0 129.0 57.0 C129.0 57.0 129.0 57.0 129.0 57.0 C129.0 57.0 129.0 57.0 129.0 57.0 C129.0 57.0 129.0 57.0 129.0 57.0 C129.0 57.0 129.0 57.0 129.0 57.0 C129.0 57.0 129.0 57.0 129.0 57.0 C129.0 57.0 129.0 57.0 129.0 57.0 C129.0 57.0 129.0 57.0 129.0 57.0 C129.0 57.0 129.0 57.0 129.0 57.0 C129.0 57.0 129.0 57.0 129.0 57.0 C129.0 57.0 129.0 57.0 129.0 57.0 C129.0 57.0 129.0 57.0 129.0 57.0 C129.0 57.0 129.0 57.0 129.0 57.0 C129.0 57.0 129.0 57.0 129.0 57.0 C129.0 57.0 129.0 57.0 129.0 57.0 C129.0 57.0 129.0 57.0 129.0 57.0 C129.0 57.0 129.0 57.0 129.0 57.0 C129.0 57.0 129.0 57.0 129.0 57.0 C129.0 57.0 129.0 57.0 129.0 57.0 C129.0 57.0 129.0 57.0 129.0 57.0 C129.0 57.0 129.0 57.0 129.0 57.0 C129.0 57.0 129.0 57.0 129.0 57.0 C129.0 57.0 129.0 57.0 129.0 57.0 C129.0 57.0 129.0 57.0 129.0 57.0 C129.0 57.0 129.0 57.0 129.0 57.0 C129.0 57.0 129.0 57.0 129.0 57.0 C129.0 57.0 129.0 57.0 129.0 57.0 C129.0 57.0 129.0 57.0 129.0 57.0 C129.0 57.0 129.0 57.0 129.0 57.0 C129.0 57.0 129.0 57.0 129.0 57.0 C129.0 57.0 129.0 57.0 129.0 57.0 C129.0 57.0 129.0 57.0 129.0 57.0 C129.0 57.0 129.0 57.0 129.0 57.0 C129.0 57.0 129.0 57.0 129.0 57.0 C129.0 57.0 129.0 57.0 129.0 57.0 C129.0 57.0 129.0 57.0 129.0 57.0 C129.0 57.0 129.0 57.0 129.0 57.0 C129.0 57.0 129.0 57.0 129.0 57.0 C129.0 57.0 129.0 57.0 129.0 57.0 C129.0 57.0 129.0 57.0 129.0 57.0 C129.0 57.0 129.0 57.0 129.0 57.0 C129.0 57.0 129.0 57.0 129.0 57.0 C129.0 57.0 129.0 57.0 129.0 57.0 C129.0 57.0 129.0 57.0 129.0 57.0 C129.0 57.0 129.0 57.0 129.0 57.0 C129.0 57.0 129.0 57.0 129.0 57.0 C129.0 57.0 129.0 57.0 129.0 57.0 C129.0 57.0 129.0 57.0 129.0 57.0 C129.0 57.0 129.0 57.0 129.0 57.0 C129.0 57.0 129.0 57.0 129.0 57.0 C129.0 57.0 129.0 57.0 129.0 57.0 C129.0 57.0 129.0 57.0 129.0 57.0 C129.0 57.0 129.0 57.0 129.0 57.0 C129.0 57.0 129.0 57.0 129.0 57.0 C129.0 57.0 129.0 57.0 129.0 57.0 C129.0 57.0 129.0 57.0 129.0 57.0 C129.0 57.0 129.0 57.0 129.0 57.0 C129.0 57.0 129.0 57.0 129.0 57.0 C129.0 57.0 129.0 57.0 129.0 57.0 C129.0 57.0 129.0 57.0 129.0 57.0 C129.0 57.0 129.0 57.0 129.0 57.0 C129.0 57.0 129.0 57.0 129.0 57.0 C129.0 57.0 129.0 57.0 129.0 57.0 C129.0 57.0 129.0 57.0 129.0 57.0 C129.0 57.0 129.0 57.0 129.0 57.0 C129.0 57.0 129.0 57.0 129.0 57.0 C129.0 57.0 129.0 57.0 129.0 57.0 C129.0 57.0 129.0 57.0 129.0 57.0 C129.0 57.0 129.0 57.0 129.0 57.0 C129.0 57.0 129.0 57.0 129.0 57.0 C129.0 57.0 129.0 57.0 129.0 57.0 C129.0 57.0 129.0 57.0 129.0 57.0 C129.0 57.0 129.0 57.0 129.0 57.0 C129.0 57.0 129.0 57.0 129.0 57.0 C129.0 57.0 129.0 57.0 129.0 57.0 C129.0 57.0 129.0 57.0 129.0 57.0 C129.0 57.0 129.0 57.0 129.0 57.0 C129.0 57.0 129.0 57.0 129.0 57.0 C129.0 57.0 129.0 57.0 129.0 57.0 C129.0 57.0 129.0 57.0 129.0 57.0 C129.0 57.0 129.0 57.0 129.0 57.0 C129.0 57.0 129.0 57.0 129.0 57.0 C129.0 57.0 129.0 57.0 129.0 57.0 C129.0 57.0 129.0 57.0 129.0 57.0 C129.0 57.0 129.0 57.0 129.0 57.0 C129.0 57.0 129.0 57.0 129.0 57.0 C129.0 57.0 129.0 57.0 129.0 57.0 C129.0 57.0 129.0 57.0 129.0 57.0 C129.0 57.0 129.0 57.0 129.0 57.0 C129.0 57.0 129.0 57.0 129.0 57.0 C129.0 57.0 129.0 57.0 129.0 57.0 C129.0 57.0 129.0 57.0 129.0 57.0 C129.0 57.0 129.0 57.0 129.0 57.0 C129.0 57.0 129.0 57.0 129.0 57.0 C129.0 57.0 129.0 57.0 129.0 57.0 C129.0 57.0 129.0 57.0 129.0 57.0 C129.0 57.0 129.0 57.0 129.0 57.0 C129.0 57.0 129.0 57.0 129.0 57.0 C129.0 57.0 129.0 57.0 129.0 57.0 C129.0 57.0 129.0 57.0 129.0 57.0 C129.0 57.0 129.0 57.0 129.0 57.0 C129.0 57.0 129.0 57.0 129.0 57.0 C129.0 57.0 129.0 57.0 129.0 57.0 C129.0 57.0 129.0 57.0 129.0 57.0 C129.0 57.0 129.0 57.0 129.0 57.0 C129.0 57.0 129.0 57.0 129.0 57.0 C129.0 57.0 129.0 57.0 129.0 57.0 C129.0 57.0 129.0 57.0 129.0 57.0 C129.0 57.0 129.0 57.0 129.0 57.0 C129.0 57.0 129.0 57.0 129.0 57.0 C129.0 57.0 129.0 57.0 129.0 57.0 C129.0 57.0 129.0 57.0 129.0 57.0 C129.0 57.0 129.0 57.0 129.0 57.0 C129.0 57.0 129.0 57.0 129.0 57.0 C129.0 57.0 129.0 57.0 129.0 57.0 C129.0 57.0 129.0 57.0 129.0 57.0 C129.0 57.0 129.0 57.0 129.0 57.0 C129.0 57.0 129.0 57.0 129.0 57.0 C129.0 57.0 129.0 57.0 129.0 57.0 C129.0 57.0 129.0 57.0 129.0 57.0 C129.0 57.0 129.0 57.0 129.0 57.0 C129.0 57.0 129.0 57.0 129.0 57.0 C129.0 57.0 129.0 57.0 129.0 57.0 C129.0 57.0 129.0 57.0 129.0 57.0 C129.0 57.0 129.0 57.0 129.0 57.0 C129.0 57.0 129.0 57.0 129.0 57.0 C129.0 57.0 129.0 57.0 129.0 57.0 C129.0 57.0 129.0 57.0 129.0 57.0 C129.0 57.0 129.0 57.0 129.0 57.0 C129.0 57.0 129.0 57.0 129.0 57.0 C129.0 57.0 129.0 57.0 129.0 57.0 C129.0 57.0 129.0 57.0 129.0 57.0 C129.0 57.0 129.0 57.0 129.0 57.0 C129.0 57.0 129.0 57.0 129.0 57.0 C129.0 57.0 129.0 57.0 129.0 57.0 C129.0 57.0 129.0 57.0 129.0 57.0 C129.0 57.0 129.0 57.0 129.0 57.0 C129.0 57.0 129.0 57.0 129.0 57.0 C129.0 57.0 129.0 57.0 129.0 57.0 C129.0 57.0 129.0 57.0 129.0 57.0 C129.0 57.0 129.0 57.0 129.0 57.0 C129.0 57.0 129.0 57.0 129.0 57.0 C129.0 57.0 129.0 57.0 129.0 57.0 C129.0 57.0 129.0 57.0 129.0 57.0 C129.0 57.0 129.0 57.0 129.0 57.0 C129.0 57.0 129.0 57.0 129.0 57.0 C129.0 57.0 129.0 57.0 129.0 57.0 C129.0 57.0 129.0 57.0 129.0 57.0 C129.0 57.0 129.0 57.0 129.0 57.0 C129.0 57.0 129.0 57.0 129.0 57.0 C129.0 57.0 129.0 57.0 129.0 57.0 C129.0 57.0 129.0 57.0 129.0 57.0 C129.0 57.0 129.0 57.0 129.0 57.0 C129.0 57.0 129.0 57.0 129.0 57.0 C129.0 57.0 129.0 57.0 129.0 57.0 C129.0 57.0 129.0 57.0 129.0 57.0 C129.0 57.0 129.0 57.0 129.0 57.0 C129.0 57.0 129.0 57.0 129.0 57.0 C129.0 57.0 129.0 57.0 129.0 57.0 C129.0 57.0 129.0 57.0 129.0 57.0 C129.0 57.0 129.0 57.0 129.0 57.0 C129.0 57.0 129.0 57.0 129.0 57.0 C129.0 57.0 129.0 57.0 129.0 57.0 C129.0 57.0 129.0 57.0 129.0 57.0 C129.0 57.0 129.0 57.0 129.0 57.0 C129.0 57.0 129.0 57.0 129.0 57.0 C129.0 57.0 129.0 57.0 129.0 57.0 C129.0 57.0 129.0 57.0 129.0 57.0 C129.0 57.0 129.0 57.0 129.0 57.0 C129.0 57.0 129.0 57.0 129.0 57.0 C129.0 57.0 129.0 57.0 129.0 57.0 C129.0 57.0 129.0 57.0 129.0 57.0 C129.0 57.0 129.0 57.0 129.0 57.0 C129.0 57.0 129.0 57.0 129.0 57.0 C129.0 57.0 129.0 57.0 129.0 57.0 C129.0 57.0 129.0 57.0 129.0 57.0 C129.0 57.0 129.0 57.0 129.0 57.0 C129.0 57.0 129.0 57.0 129.0 57.0 C129.0 57.0 129.0 57.0 129.0 57.0 C129.0 57.0 129.0 57.0 129.0 57.0 C129.0 57.0 129.0 57.0 129.0 57.0 C129.0 57.0 129.0 57.0 129.0 57.0 C129.0 57.0 129.0 57.0 129.0 57.0 C129.0 57.0 129.0 57.0 129.0 57.0 C129.0 57.0 129.0 57.0 129.0 57.0 C129.0 57.0 129.0 57.0 129.0 57.0 C129.0 57.0 129.0 57.0 129.0 57.0 C129.0 57.0 129.0 57.0 129.0 57.0 C129.0 57.0 129.0 57.0 129.0 57.0 C129.0 57.0 129.0 57.0 129.0 57.0 C129.0 57.0 129.0 57.0 129.0 57.0 C129.0 57.0 129.0 57.0 129.0 57.0 C129.0 57.0 129.0 57.0 129.0 57.0 C129.0 57.0 129.0 57.0 129.0 57.0 C129.0 57.0 129.0 57.0 129.0 57.0 C129.0 57.0 129.0 57.0 129.0 57.0 C129.0 57.0 129.0 57.0 129.0 57.0 C129.0 57.0 129.0 57.0 129.0 57.0 C129.0 57.0 129.0 57.0 129.0 57.0 C129.0 57.0 129.0 57.0 129.0 57.0 C129.0 57.0 129.0 57.0 129.0 57.0 C129.0 57.0 129.0 57.0 129.0 57.0 C129.0 57.0 129.0 57.0 129.0 57.0 C129.0 57.0 129.0 57.0 129.0 57.0 C129.0 57.0 129.0 57.0 129.0 57.0 C129.0 57.0 129.0 57.0 129.0 57.0 C129.0 57.0 129.0 57.0 129.0 57.0 C129.0 57.0 129.0 57.0 129.0 57.0 C129.0 57.0 129.0 57.0 129.0 57.0 C129.0 57.0 129.0 57.0 129.0 57.0 C129.0 57.0 129.0 57.0 129.0 57.0 C129.0 57.0 129.0 57.0 129.0 57.0 C129.0 57.0 129.0 57.0 129.0 57.0 C129.0 57.0 129.0 57.0 129.0 57.0 C129.0 57.0 129.0 57.0 129.0 57.0 C129.0 57.0 129.0 57.0 129.0 57.0 C129.0 57.0 129.0 57.0 129.0 57.0 C129.0 57.0 129.0 57.0 129.0 57.0 C129.0 57.0 129.0 57.0 129.0 57.0 C129.0 57.0 129.0 57.0 129.0 57.0 C129.0 57.0 129.0 57.0 129.0 57.0 C129.0 57.0 129.0 57.0 129.0 57.0 C129.0 57.0 129.0 57.0 129.0 57.0 C129.0 57.0 129.0 57.0 129.0 57.0 C129.0 57.0 129.0 57.0 129.0 57.0 C129.0 57.0 129.0 57.0 129.0 57.0 C129.0 57.0 129.0 57.0 129.0 57.0 C129.0 57.0 129.0 57.0 129.0 57.0 C129.0 57.0 129.0 57.0 129.0 57.0 C129.0 57.0 129.0 57.0 129.0 57.0 C129.0 57.0 129.0 57.0 129.0 57.0 C129.0 57.0 129.0 57.0 129.0 57.0 C129.0 57.0 129.0 57.0 129.0 57.0 C129.0 57.0 129.0 57.0 129.0 57.0 C129.0 57.0 129.0 57.0 129.0 57.0 C129.0 57.0 129.0 57.0 129.0 57.0 C129.0 57.0 129.0 57.0 129.0 57.0 C129.0 57.0 129.0 57.0 129.0 57.0 C129.0 57.0 129.0 57.0 129.0 57.0 C129.0 57.0 129.0 57.0 129.0 57.0 C129.0 57.0 129.0 57.0 129.0 57.0 C129.0 57.0 129.0 57.0 129.0 57.0 C129.0 57.0 129.0 57.0 129.0 57.0 C129.0 57.0 129.0 57.0 129.0 57.0 C129.0 57.0 129.0 57.0 129.0 57.0 C129.0 57.0 129.0 57.0 129.0 57.0 C129.0 57.0 129.0 57.0 129.0 57.0 C129.0 57.0 129.0 57.0 129.0 57.0 C129.0 57.0 129.0 57.0 129.0 57.0 C129.0 57.0 129.0 57.0 129.0 57.0 C129.0 57.0 129.0 57.0 129.0 57.0 C129.0 57.0 129.0 57.0 129.0 57.0 C129.0 57.0 129.0 57.0 129.0 57.0 C129.0 57.0 129.0 57.0 129.0 57.0 C136.0 64.0 135.0 67.0 134.0 70.0 C133.0 71.0 133.0 73.0 132.0 74.0 C132.0 76.0 131.0 77.0 131.0 78.0 C129.0 80.0 129.0 81.0 129.0 83.0 C129.0 84.0 129.0 85.0 129.0 86.0 C129.0 88.0 129.0 89.0 129.0 90.0 C129.0 91.0 129.0 92.0 129.0 93.0 C129.0 94.0 129.0 95.0 129.0 96.0 C129.0 98.0 129.0 100.0 130.0 102.0 C131.0 103.0 132.0 104.0 133.0 105.0 C134.0 105.0 134.0 106.0 135.0 106.0 C136.0 107.0 137.0 107.0 138.0 107.0 C139.0 107.0 140.0 106.0 141.0 105.0 C142.0 104.0 142.0 102.0 143.0 100.0 C143.0 99.0 143.0 98.0 143.0 97.0 C143.0 95.0 143.0 94.0 143.0 92.0 C143.0 91.0 143.0 90.0 143.0 89.0 C143.0 87.0 143.0 86.0 143.0 85.0 C143.0 84.0 144.0 82.0 144.0 81.0 C144.0 80.0 144.0 78.0 144.0 77.0 C144.0 76.0 144.0 75.0 144.0 74.0 C144.0 73.0 144.0 71.0 144.0 70.0 C144.0 69.0 144.0 68.0 145.0 67.0 C145.0 66.0 145.0 65.0 145.0 64.0 C145.0 63.0 145.0 62.0 145.0 61.0 C145.0 60.0 145.0 59.0 145.0 57.0 C145.0 57.0 144.0 56.0 144.0 55.0 C144.0 55.0 143.0 54.0 143.0 53.0 C142.0 53.0 142.0 52.0 142.0 51.0 C141.0 51.0 141.0 50.0 140.0 49.0 C140.0 49.0 139.0 48.0 139.0 47.0 C139.0 47.0 138.0 46.0 138.0 45.0 C137.0 44.0 136.0 43.0 136.0 43.0 C136.0 42.0 135.0 41.0 134.0 41.0 C134.0 40.0 133.0 39.0 133.0 39.0 C132.0 38.0 132.0 37.0 131.0 37.0 C130.0 36.0 130.0 35.0 129.0 34.0 C128.0 34.0 128.0 33.0 127.0 32.0 C127.0 31.0 126.0 31.0 126.0 30.0 C125.0 29.0 124.0 29.0 124.0 28.0 C123.0 27.0 123.0 27.0 122.0 26.0 C121.0 26.0 121.0 25.0 120.0 24.0 C120.0 24.0 119.0 23.0 118.0 23.0 C118.0 23.0 117.0 22.0 116.0 22.0 C116.0 21.0 115.0 21.0 114.0 21.0 C114.0 20.0 113.0 20.0 112.0 19.0 C112.0 19.0 111.0 19.0 110.0 19.0 C109.0 18.0 108.0 18.0 107.0 18.0 C107.0 17.0 106.0 17.0 105.0 17.0 C104.0 17.0 103.0 17.0 102.0 16.0 C101.0 16.0 101.0 16.0 100.0 16.0 C99.0 16.0 98.0 16.0 97.0 16.0 C97.0 16.0 96.0 16.0 95.0 16.0 C94.0 16.0 93.0 16.0 92.0 16.0 C92.0 17.0 91.0 17.0 90.0 17.0 C89.0 17.0 88.0 17.0 87.0 18.0 C87.0 18.0 86.0 18.0 85.0 18.0 C84.0 19.0 83.0 19.0 82.0 19.0 C82.0 20.0 81.0 20.0 80.0 20.0 C79.0 21.0 79.0 21.0 78.0 22.0 C77.0 22.0 76.0 22.0 76.0 23.0 C75.0 23.0 74.0 24.0 73.0 24.0 C73.0 25.0 72.0 26.0 71.0 26.0 C71.0 27.0 70.0 28.0 70.0 28.0 C69.0 29.0 69.0 30.0 68.0 30.0 C68.0 31.0 67.0 32.0 67.0 33.0 C66.0 33.0 66.0 34.0 65.0 35.0 C64.0 36.0 64.0 36.0 63.0 37.0 C63.0 37.0 62.0 38.0 62.0 39.0 C61.0 40.0 61.0 40.0 60.0 41.0 C60.0 42.0 59.0 43.0 59.0 44.0 C58.0 44.0 58.0 45.0 58.0 46.0 C57.0 47.0 57.0 48.0 57.0 49.0 C57.0 50.0 57.0 51.0 56.0 52.0 C56.0 53.0 56.0 54.0 56.0 55.0 C56.0 56.0 56.0 57.0 56.0 58.0 C56.0 60.0 56.0 61.0 56.0 62.0 C56.0 63.0 56.0 64.0 56.0 65.0 C56.0 66.0 57.0 67.0 57.0 68.0 C57.0 69.0 57.0 70.0 57.0 71.0 C57.0 72.0 57.0 73.0 57.0 74.0 C57.0 75.0 57.0 76.0 57.0 77.0 C57.0 78.0 57.0 79.0 57.0 80.0 C57.0 81.0 57.0 83.0 57.0 84.0 C57.0 85.0 57.0 86.0 57.0 87.0 C57.0 88.0 57.0 89.0 57.0 90.0 C57.0 92.0 57.0 93.0 57.0 94.0 C57.0 95.0 57.0 96.0 57.0 97.0 C57.0 98.0 57.0 99.0 57.0 100.0 C57.0 101.0 57.0 102.0 57.0 103.0 C57.0 104.0 57.0 105.0 57.0 106.0"></path></svg>