<svg xmlns="http://www.w3.org/2000/svg" viewBox="0.0 0.0 200.0 200.0" height="200px" width="200px"><path fill="currentColor" fill-opacity="1.0"  filling="0" d="M122.0 143.0 C108.0 143.0 96.0 134.0 91.0 121.0 C84.0 109.0 86.0 94.0 93.0 81.0 C101.0 68.0 113.0 58.0 128.0 55.0 L128.0 55.0 L128.0 55.0 C130.0 55.0 131.0 55.0 133.0 55.0 C134.0 55.0 135.0 55.0 136.0 56.0 C137.0 57.0 137.0 59.0 136.0 60.0 C136.0 61.0 135.0 61.0 135.0 62.0 C127.0 70.0 123.0 81.0 121.0 93.0 C121.0 104.0 126.0 115.0 136.0 119.0 C141.0 120.0 147.0 118.0 152.0 113.0 C153.0 112.0 154.0 111.0 155.0 110.0 C155.0 109.0 156.0 109.0 157.0 109.0 C158.0 109.0 159.0 110.0 159.0 111.0 C159.0 112.0 159.0 113.0 159.0 114.0 C157.0 126.0 147.0 136.0 135.0 140.0 C130.0 141.0 126.0 143.0 122.0 143.0 L122.0 143.0 Z"></path>
<path fill="#ffaa00" fill-opacity="1.0"  filling="0" d="M128.0 61.0 C115.0 65.0 104.0 73.0 98.0 84.0 C92.0 95.0 91.0 108.0 95.0 119.0 C101.0 130.0 111.0 137.0 122.0 137.0 C125.0 137.0 129.0 136.0 133.0 135.0 C142.0 132.0 150.0 125.0 153.0 116.0 C148.0 121.0 142.0 124.0 135.0 123.0 C123.0 122.0 115.0 108.0 116.0 93.0 C117.0 80.0 121.0 69.0 129.0 61.0 C129.0 61.0 128.0 61.0 128.0 61.0 L128.0 61.0 Z"></path>
<path fill="currentColor" fill-opacity="1.0"  filling="0" d="M53.0 168.0 C52.0 168.0 51.0 168.0 50.0 168.0 C48.0 166.0 48.0 162.0 48.0 158.0 C48.0 153.0 47.0 148.0 46.0 144.0 C46.0 142.0 46.0 140.0 45.0 140.0 C44.0 139.0 42.0 139.0 40.0 138.0 C35.0 138.0 29.0 136.0 26.0 131.0 C25.0 130.0 25.0 128.0 25.0 127.0 C26.0 125.0 28.0 125.0 31.0 125.0 C35.0 124.0 38.0 124.0 40.0 124.0 C42.0 124.0 43.0 124.0 43.0 122.0 C44.0 120.0 44.0 118.0 45.0 115.0 C45.0 114.0 45.0 112.0 46.0 111.0 C46.0 111.0 46.0 110.0 46.0 109.0 C47.0 108.0 47.0 107.0 47.0 106.0 C48.0 102.0 49.0 98.0 50.0 97.0 C51.0 96.0 52.0 96.0 53.0 96.0 C55.0 96.0 56.0 98.0 57.0 100.0 C58.0 104.0 58.0 108.0 58.0 112.0 C59.0 115.0 59.0 118.0 59.0 120.0 C59.0 121.0 60.0 121.0 60.0 122.0 C62.0 122.0 63.0 124.0 64.0 125.0 C65.0 126.0 66.0 127.0 67.0 127.0 C68.0 128.0 69.0 129.0 71.0 129.0 C72.0 129.0 73.0 130.0 74.0 130.0 C74.0 131.0 74.0 132.0 74.0 133.0 C73.0 134.0 72.0 135.0 71.0 136.0 C69.0 136.0 68.0 137.0 66.0 137.0 C64.0 137.0 63.0 137.0 62.0 138.0 C62.0 139.0 62.0 141.0 62.0 143.0 C62.0 145.0 62.0 147.0 61.0 149.0 C61.0 151.0 61.0 152.0 60.0 154.0 C60.0 158.0 58.0 162.0 56.0 165.0 C56.0 168.0 55.0 168.0 53.0 168.0 L53.0 168.0 Z"></path>
<path fill="#ffaa00" fill-opacity="1.0"  filling="0" d="M52.0 109.0 C52.0 110.0 52.0 112.0 52.0 114.0 C51.0 115.0 51.0 116.0 51.0 117.0 C50.0 119.0 50.0 122.0 48.0 124.0 C48.0 127.0 47.0 128.0 44.0 128.0 C42.0 129.0 39.0 129.0 36.0 129.0 C36.0 129.0 35.0 129.0 35.0 129.0 C36.0 130.0 36.0 130.0 36.0 130.0 C38.0 131.0 40.0 132.0 42.0 132.0 C44.0 133.0 46.0 134.0 47.0 135.0 C51.0 136.0 52.0 141.0 52.0 145.0 C53.0 147.0 53.0 150.0 53.0 153.0 C53.0 154.0 53.0 154.0 54.0 154.0 C55.0 154.0 55.0 153.0 55.0 152.0 C56.0 150.0 56.0 147.0 56.0 145.0 C57.0 142.0 57.0 138.0 58.0 135.0 C58.0 133.0 60.0 132.0 62.0 132.0 C63.0 132.0 65.0 132.0 66.0 132.0 C66.0 132.0 66.0 132.0 66.0 132.0 C66.0 131.0 66.0 131.0 65.0 131.0 C64.0 130.0 63.0 130.0 62.0 129.0 C61.0 128.0 60.0 127.0 59.0 127.0 C58.0 127.0 56.0 127.0 55.0 127.0 C55.0 127.0 54.0 126.0 54.0 125.0 C54.0 122.0 53.0 120.0 53.0 117.0 C53.0 114.0 53.0 112.0 53.0 110.0 C53.0 109.0 53.0 109.0 52.0 109.0 L52.0 109.0 Z"></path></svg>