<svg xmlns="http://www.w3.org/2000/svg" viewBox="0.0 0.0 200.0 200.0" height="200px" width="200px"><path fill="#000000" fill-opacity="1.0"  filling="0" d="M58.0 58.0 C58.0 59.0 59.0 60.0 59.0 60.0 L59.0 60.0 C59.0 60.0 59.0 60.0 59.0 60.0 C59.0 60.0 59.0 60.0 59.0 60.0 C59.0 60.0 59.0 60.0 59.0 60.0 C59.0 60.0 59.0 60.0 59.0 60.0 C59.0 60.0 59.0 60.0 59.0 60.0 C59.0 60.0 59.0 60.0 59.0 60.0 C59.0 60.0 59.0 60.0 59.0 60.0 C59.0 60.0 59.0 60.0 59.0 60.0 C59.0 60.0 59.0 60.0 59.0 60.0 C59.0 60.0 59.0 60.0 59.0 60.0 C59.0 60.0 59.0 60.0 59.0 60.0 C59.0 60.0 59.0 60.0 59.0 60.0 C59.0 60.0 59.0 60.0 59.0 60.0 C59.0 60.0 59.0 60.0 59.0 60.0 C59.0 60.0 59.0 60.0 59.0 60.0 C59.0 60.0 59.0 60.0 59.0 60.0 C59.0 60.0 59.0 60.0 59.0 60.0 C59.0 60.0 59.0 60.0 59.0 60.0 C59.0 60.0 59.0 60.0 59.0 60.0 C59.0 60.0 59.0 60.0 59.0 60.0 C59.0 60.0 59.0 60.0 59.0 60.0 C59.0 60.0 59.0 60.0 59.0 60.0 C59.0 60.0 59.0 60.0 59.0 60.0 C59.0 60.0 59.0 60.0 59.0 60.0 C59.0 60.0 59.0 60.0 59.0 60.0 C59.0 60.0 59.0 60.0 59.0 60.0 C59.0 60.0 59.0 60.0 59.0 60.0 C59.0 60.0 59.0 60.0 59.0 60.0 C59.0 60.0 59.0 60.0 59.0 60.0 C59.0 60.0 59.0 60.0 59.0 60.0 C59.0 60.0 59.0 60.0 59.0 60.0 C59.0 60.0 59.0 60.0 59.0 60.0 C59.0 60.0 59.0 60.0 59.0 60.0 C59.0 60.0 59.0 60.0 59.0 60.0 C59.0 60.0 59.0 60.0 59.0 60.0 C59.0 60.0 59.0 60.0 59.0 60.0 C59.0 60.0 59.0 60.0 59.0 60.0 C59.0 60.0 59.0 60.0 59.0 60.0 C59.0 60.0 59.0 60.0 59.0 60.0 C59.0 60.0 59.0 60.0 59.0 60.0 C59.0 60.0 59.0 60.0 59.0 60.0 C59.0 60.0 59.0 60.0 59.0 60.0 C59.0 60.0 59.0 60.0 59.0 60.0 C59.0 60.0 59.0 60.0 59.0 60.0 C59.0 60.0 59.0 60.0 59.0 60.0 C59.0 60.0 59.0 60.0 59.0 60.0 C59.0 60.0 59.0 60.0 59.0 60.0 C59.0 60.0 59.0 60.0 59.0 60.0 C59.0 60.0 59.0 60.0 59.0 60.0 C59.0 60.0 59.0 60.0 59.0 60.0 C59.0 60.0 59.0 60.0 59.0 60.0 C59.0 60.0 59.0 60.0 59.0 60.0 C59.0 60.0 59.0 60.0 59.0 60.0 C59.0 60.0 59.0 60.0 59.0 60.0 C59.0 60.0 59.0 60.0 59.0 60.0 C59.0 60.0 59.0 60.0 59.0 60.0 C59.0 60.0 59.0 60.0 59.0 60.0 C59.0 60.0 59.0 60.0 59.0 60.0 C59.0 60.0 59.0 60.0 59.0 60.0 C59.0 60.0 59.0 60.0 59.0 60.0 C59.0 60.0 59.0 60.0 59.0 60.0 C59.0 60.0 59.0 60.0 59.0 60.0 C59.0 60.0 59.0 60.0 59.0 60.0 C59.0 60.0 59.0 60.0 59.0 60.0 C59.0 60.0 59.0 60.0 59.0 60.0 C59.0 60.0 59.0 60.0 59.0 60.0 C59.0 60.0 59.0 60.0 59.0 60.0 C59.0 60.0 59.0 60.0 59.0 60.0 C59.0 60.0 59.0 60.0 59.0 60.0 C59.0 60.0 59.0 60.0 59.0 60.0 C59.0 60.0 59.0 60.0 59.0 60.0 C59.0 60.0 59.0 60.0 59.0 60.0 C59.0 60.0 59.0 60.0 59.0 60.0 C59.0 60.0 59.0 60.0 59.0 60.0 C59.0 60.0 59.0 60.0 59.0 60.0 C59.0 60.0 59.0 60.0 59.0 60.0 C59.0 60.0 59.0 60.0 59.0 60.0 C59.0 60.0 59.0 60.0 59.0 60.0 C59.0 60.0 59.0 60.0 59.0 60.0 C59.0 60.0 59.0 60.0 59.0 60.0 C59.0 60.0 59.0 60.0 59.0 60.0 C59.0 60.0 59.0 60.0 59.0 60.0 C59.0 60.0 59.0 60.0 59.0 60.0 C59.0 60.0 59.0 60.0 59.0 60.0 C59.0 60.0 59.0 60.0 59.0 60.0 C59.0 60.0 59.0 60.0 59.0 60.0 C59.0 60.0 59.0 60.0 59.0 60.0 C59.0 60.0 59.0 60.0 59.0 60.0 C59.0 60.0 59.0 60.0 59.0 60.0 C59.0 60.0 59.0 60.0 59.0 60.0 C59.0 60.0 59.0 60.0 59.0 60.0 C59.0 60.0 59.0 60.0 59.0 60.0 C59.0 60.0 59.0 60.0 59.0 60.0 C59.0 60.0 59.0 60.0 59.0 60.0 C59.0 60.0 59.0 60.0 59.0 60.0 C59.0 60.0 59.0 60.0 59.0 60.0 C59.0 60.0 59.0 60.0 59.0 60.0 C59.0 60.0 59.0 60.0 59.0 60.0 C59.0 60.0 59.0 60.0 59.0 60.0 C59.0 60.0 59.0 60.0 59.0 60.0 C59.0 60.0 59.0 60.0 59.0 60.0 C59.0 60.0 59.0 60.0 59.0 60.0 C59.0 60.0 59.0 60.0 59.0 60.0 C59.0 60.0 59.0 60.0 59.0 60.0 C59.0 60.0 59.0 60.0 59.0 60.0 C59.0 60.0 59.0 60.0 59.0 60.0 C59.0 60.0 59.0 60.0 59.0 60.0 C59.0 60.0 59.0 60.0 59.0 60.0 C59.0 60.0 59.0 60.0 59.0 60.0 C59.0 60.0 59.0 60.0 59.0 60.0 C59.0 60.0 59.0 60.0 59.0 60.0 C59.0 60.0 59.0 60.0 59.0 60.0 C59.0 60.0 59.0 60.0 59.0 60.0 C59.0 60.0 59.0 60.0 59.0 60.0 C59.0 60.0 59.0 60.0 59.0 60.0 C59.0 60.0 59.0 60.0 59.0 60.0 C59.0 60.0 59.0 60.0 59.0 60.0 C59.0 60.0 59.0 60.0 59.0 60.0 C59.0 60.0 59.0 60.0 59.0 60.0 C59.0 60.0 59.0 60.0 59.0 60.0 C59.0 60.0 59.0 60.0 59.0 60.0 C59.0 60.0 59.0 60.0 59.0 60.0 C59.0 60.0 59.0 60.0 59.0 60.0 C59.0 60.0 59.0 60.0 59.0 60.0 C59.0 60.0 59.0 60.0 59.0 60.0 C59.0 60.0 59.0 60.0 59.0 60.0 C59.0 60.0 59.0 60.0 59.0 60.0 C59.0 60.0 59.0 60.0 59.0 60.0 C59.0 60.0 59.0 60.0 59.0 60.0 C59.0 60.0 59.0 60.0 59.0 60.0 C59.0 60.0 59.0 60.0 59.0 60.0 C59.0 60.0 59.0 60.0 59.0 60.0 C59.0 60.0 59.0 60.0 59.0 60.0 C59.0 60.0 59.0 60.0 59.0 60.0 C59.0 60.0 59.0 60.0 59.0 60.0 C59.0 60.0 59.0 60.0 59.0 60.0 C59.0 60.0 59.0 60.0 59.0 60.0 C59.0 60.0 59.0 60.0 59.0 60.0 C59.0 60.0 59.0 60.0 59.0 60.0 C59.0 60.0 59.0 60.0 59.0 60.0 C59.0 60.0 59.0 60.0 59.0 60.0 C59.0 60.0 59.0 60.0 59.0 60.0 C59.0 60.0 59.0 60.0 59.0 60.0 C59.0 60.0 59.0 60.0 59.0 60.0 C59.0 60.0 59.0 60.0 59.0 60.0 C59.0 60.0 59.0 60.0 59.0 60.0 C59.0 60.0 59.0 60.0 59.0 60.0 C59.0 60.0 59.0 60.0 59.0 60.0 C59.0 60.0 59.0 60.0 59.0 60.0 C59.0 60.0 59.0 60.0 59.0 60.0 C59.0 60.0 59.0 60.0 59.0 60.0 C59.0 60.0 59.0 60.0 59.0 60.0 C59.0 60.0 59.0 60.0 59.0 60.0 C59.0 60.0 59.0 60.0 59.0 60.0 C59.0 60.0 59.0 60.0 59.0 60.0 C59.0 60.0 59.0 60.0 59.0 60.0 C59.0 60.0 59.0 60.0 59.0 60.0 C59.0 60.0 59.0 60.0 59.0 60.0 C59.0 60.0 59.0 60.0 59.0 60.0 C59.0 60.0 100.0 58.0 100.0 58.0 C59.0 60.0 59.0 60.0 59.0 60.0 C59.0 60.0 59.0 60.0 59.0 60.0 C59.0 60.0 59.0 60.0 59.0 60.0 C59.0 60.0 59.0 60.0 59.0 60.0 C59.0 60.0 59.0 60.0 59.0 60.0 C59.0 60.0 59.0 60.0 59.0 60.0 C59.0 60.0 59.0 60.0 59.0 60.0 C59.0 60.0 59.0 60.0 59.0 60.0 C59.0 60.0 59.0 60.0 59.0 60.0 C59.0 60.0 59.0 60.0 59.0 60.0 C59.0 60.0 59.0 60.0 59.0 60.0 C59.0 60.0 59.0 60.0 59.0 60.0 C59.0 60.0 59.0 60.0 59.0 60.0 C59.0 60.0 59.0 60.0 59.0 60.0 C59.0 60.0 59.0 60.0 59.0 60.0 C59.0 60.0 59.0 60.0 59.0 60.0 C59.0 60.0 59.0 60.0 59.0 60.0 C50.0 58.0 44.0 48.0 56.0 34.0 C68.0 16.0 92.0 8.0 112.0 13.0 C135.0 18.0 148.0 39.0 151.0 73.0 L48.0 72.0 C48.0 40.0 58.0 17.0 100.0 11.0 C129.0 10.0 152.0 34.0 151.0 73.0 L48.0 72.0 C48.0 42.0 58.0 22.0 100.0 11.0 C129.0 10.0 152.0 34.0 151.0 73.0 L48.0 72.0 C48.0 38.0 58.0 20.0 100.0 11.0 C129.0 10.0 152.0 34.0 151.0 73.0 L48.0 72.0 C48.0 38.0 58.0 20.0 100.0 11.0 C129.0 10.0 152.0 34.0 151.0 73.0 L48.0 72.0 C48.0 38.0 58.0 20.0 100.0 11.0 C129.0 10.0 152.0 34.0 151.0 73.0 L48.0 72.0 C48.0 38.0 58.0 20.0 100.0 11.0 C129.0 10.0 152.0 34.0 151.0 73.0 L48.0 72.0 C48.0 38.0 58.0 20.0 100.0 11.0 C129.0 10.0 152.0 34.0 151.0 73.0 L48.0 72.0 C48.0 38.0 58.0 20.0 100.0 11.0 C129.0 10.0 152.0 34.0 151.0 73.0 L48.0 72.0 C48.0 38.0 58.0 20.0 100.0 11.0 C129.0 10.0 152.0 34.0 151.0 73.0 L48.0 72.0 C48.0 38.0 58.0 20.0 100.0 11.0 C129.0 10.0 152.0 34.0 151.0 73.0 L48.0 72.0 C48.0 38.0 58.0 20.0 100.0 11.0 C129.0 10.0 152.0 34.0 151.0 73.0 L48.0 72.0 C48.0 38.0 58.0 20.0 100.0 11.0 C129.0 10.0 152.0 34.0 151.0 73.0 L48.0 72.0 C48.0 38.0 58.0 20.0 100.0 11.0 C129.0 10.0 152.0 34.0 151.0 73.0 L48.0 72.0 C48.0 38.0 58.0 20.0 100.0 11.0 C129.0 10.0 152.0 34.0 151.0 73.0 L48.0 72.0 C48.0 38.0 58.0 20.0 100.0 11.0 C129.0 10.0 152.0 34.0 151.0 73.0 L48.0 72.0 C48.0 38.0 58.0 20.0 100.0 11.0 C129.0 10.0 152.0 34.0 151.0 73.0 L48.0 72.0 C48.0 38.0 58.0 20.0 100.0 11.0 C129.0 10.0 152.0 34.0 151.0 73.0 L48.0 72.0 C48.0 38.0 58.0 20.0 100.0 11.0 C129.0 10.0 152.0 34.0 151.0 73.0 L48.0 72.0 C48.0 38.0 58.0 20.0 100.0 11.0 C129.0 10.0 152.0 34.0 151.0 73.0 L48.0 72.0 C48.0 38.0 58.0 20.0 100.0 11.0 C129.0 10.0 152.0 34.0 151.0 73.0 L48.0 72.0 C48.0 38.0 58.0 20.0 100.0 11.0 C129.0 10.0 152.0 34.0 151.0 73.0 L48.0 72.0 C48.0 38.0 58.0 20.0 100.0 11.0 C129.0 10.0 152.0 34.0 151.0 73.0 L48.0 72.0 C48.0 38.0 58.0 20.0 100.0 11.0 C129.0 10.0 152.0 34.0 151.0 73.0 L48.0 72.0 C48.0 38.0 58.0 20.0 100.0 11.0 C129.0 10.0 152.0 34.0 151.0 73.0 L48.0 72.0 C48.0 38.0 58.0 20.0 100.0 11.0 C129.0 10.0 152.0 34.0 151.0 73.0 L48.0 72.0 C48.0 38.0 58.0 20.0 100.0 11.0 C129.0 10.0 152.0 34.0 151.0 73.0 L48.0 72.0 C48.0 38.0 58.0 20.0 100.0 11.0 C129.0 10.0 152.0 34.0 151.0 73.0 L48.0 72.0 C48.0 38.0 58.0 20.0 100.0 11.0 C129.0 10.0 152.0 34.0 151.0 73.0 L48.0 72.0 C48.0 38.0 58.0 20.0 100.0 11.0 C129.0 10.0 152.0 34.0 151.0 73.0 L48.0 72.0 C48.0 38.0 58.0 20.0 100.0 11.0 C129.0 10.0 152.0 34.0 151.0 73.0 L48.0 72.0 C48.0 38.0 58.0 20.0 100.0 11.0 C129.0 10.0 152.0 34.0 151.0 73.0 L48.0 72.0 C48.0 38.0 58.0 20.0 100.0 11.0 C129.0 10.0 152.0 34.0 151.0 73.0 L48.0 72.0 C48.0 38.0 58.0 20.0 100.0 11.0 C129.0 10.0 152.0 34.0 151.0 73.0 L48.0 72.0 C48.0 38.0 58.0 20.0 100.0 11.0 C129.0 10.0 152.0 34.0 151.0 73.0 L48.0 72.0 C48.0 38.0 58.0 20.0 100.0 11.0 C129.0 10.0 152.0 34.0 151.0 73.0 L48.0 72.0 C48.0 38.0 58.0 20.0 100.0 11.0 C129.0 10.0 152.0 34.0 151.0 73.0 L48.0 72.0 C48.0 38.0 58.0 20.0 100.0 11.0 C129.0 10.0 152.0 34.0 151.0 73.0 L48.0 72.0 C48.0 38.0 58.0 20.0 100.0 11.0 C129.0 10.0 152.0 34.0 151.0 73.0 L48.0 72.0 C48.0 38.0 58.0 20.0 100.0 11.0 C129.0 10.0 152.0 34.0 151.0 73.0 L48.0 72.0 C48.0 38.0 58.0 20.0 100.0 11.0 C129.0 10.0 152.0 34.0 151.0 73.0 L48.0 72.0 C48.0 38.0 58.0 20.0 100.0 11.0 C129.0 10.0 152.0 34.0 151.0 73.0 L48.0 72.0 C48.0 38.0 58.0 20.0 100.0 11.0 C129.0 10.0 152.0 34.0 151.0 73.0 L48.0 72.0 C48.0 38.0 58.0 20.0 100.0 11.0 C129.0 10.0 152.0 34.0 151.0 73.0 L48.0 72.0 C48.0 38.0 58.0 20.0 100.0 11.0 C129.0 10.0 152.0 34.0 151.0 73.0 L48.0 72.0 C48.0 38.0 58.0 20.0 100.0 11.0 C129.0 10.0 152.0 34.0 151.0 73.0 L48.0 72.0 C48.0 38.0 58.0 20.0 100.0 11.0 C129.0 10.0 152.0 34.0 151.0 73.0 L48.0 72.0 C48.0 38.0 58.0 20.0 100.0 11.0 C129.0 10.0 152.0 34.0 151.0 73.0 L48.0 72.0 C48.0 38.0 58.0 20.0 100.0 11.0 C129.0 10.0 152.0 34.0 151.0 73.0 L48.0 72.0 C48.0 38.0 58.0 20.0 100.0 11.0 C129.0 10.0 152.0 34.0 151.0 73.0 L48.0 72.0 C48.0 38.0 58.0 20.0 100.0 11.0 C129.0 10.0 152.0 34.0 151.0 73.0 L48.0 72.0 C48.0 38.0 58.0 20.0 100.0 11.0 C129.0 10.0 152.0 34.0 151.0 73.0 L48.0 72.0 C48.0 38.0 58.0 20.0 100.0 11.0 C129.0 10.0 152.0 34.0 151.0 73.0 L48.0 72.0 C48.0 38.0 58.0 20.0 100.0 11.0 C129.0 10.0 152.0 34.0 151.0 73.0 L48.0 72.0 C48.0 38.0 58.0 20.0 100.0 11.0 C129.0 10.0 152.0 34.0 151.0 73.0 L48.0 72.0 C48.0 38.0 58.0 20.0 100.0 11.0 C129.0 10.0 152.0 34.0 151.0 73.0 L48.0 72.0 C48.0 38.0 58.0 20.0 100.0 11.0 C129.0 10.0 152.0 34.0 151.0 73.0 L48.0 72.0 C48.0 38.0 58.0 20.0 100.0 11.0 C129.0 10.0 152.0 34.0 151.0 73.0 L48.0 72.0 C48.0 38.0 58.0 20.0 100.0 11.0 C129.0 10.0 152.0 34.0 151.0 73.0 L48.0 72.0 C48.0 38.0 58.0 20.0 100.0 11.0 C129.0 10.0 152.0 34.0 151.0 73.0 L48.0 72.0 C48.0 38.0 58.0 20.0 100.0 11.0 C129.0 10.0 152.0 34.0 151.0 73.0 L48.0 72.0 C48.0 38.0 58.0 20.0 100.0 11.0 C129.0 10.0 152.0 34.0 151.0 73.0 L48.0 72.0 C48.0 38.0 58.0 20.0 100.0 11.0 C129.0 10.0 152.0 34.0 151.0 73.0 L48.0 72.0 C48.0 38.0 58.0 20.0 100.0 11.0 C129.0 10.0 152.0 34.0 151.0 73.0 L48.0 72.0 C48.0 38.0 58.0 20.0 100.0 11.0 C129.0 10.0 152.0 34.0 151.0 73.0 L48.0 72.0 C48.0 38.0 58.0 20.0 100.0 11.0 C129.0 10.0 152.0 34.0 151.0 73.0 L48.0 72.0 C48.0 38.0 58.0 20.0 100.0 11.0 C129.0 10.0 152.0 34.0 151.0 73.0 L48.0 72.0 C48.0 38.0 58.0 20.0 100.0 11.0 C129.0 10.0 152.0 34.0 151.0 73.0 L48.0 72.0 C48.0 38.0 58.0 20.0 100.0 11.0 C129.0 10.0 152.0 34.0 151.0 73.0 L48.0 72.0 C48.0 38.0 58.0 20.0 100.0 11.0 C129.0 10.0 152.0 34.0 151.0 73.0 L48.0 72.0 C48.0 38.0 58.0 20.0 100.0 11.0 C129.0 10.0 152.0 34.0 151.0 73.0 L48.0 72.0 C48.0 38.0 58.0 20.0 100.0 11.0 C129.0 10.0 152.0 34.0 151.0 73.0 L48.0 72.0 C48.0 38.0 58.0 20.0 100.0 11.0 C129.0 10.0 152.0 34.0 151.0 73.0 L48.0 72.0 C48.0 38.0 58.0 20.0 100.0 11.0 C129.0 10.0 152.0 34.0 151.0 73.0 L48.0 72.0 C48.0 38.0 58.0 20.0 100.0 11.0 C129.0 10.0 152.0 34.0 151.0 73.0 L48.0 72.0 C48.0 38.0 58.0 20.0 100.0 11.0 C129.0 10.0 152.0 34.0 151.0 73.0 L48.0 72.0 C48.0 38.0 58.0 20.0 100.0 11.0 C129.0 10.0 152.0 34.0 151.0 73.0 L48.0 72.0 C48.0 38.0 58.0 20.0 100.0 11.0 C129.0 10.0 152.0 34.0 151.0 73.0 L48.0 72.0 C48.0 38.0 58.0 20.0 100.0 11.0 C129.0 10.0 152.0 34.0 151.0 73.0 L48.0 72.0 C48.0 38.0 58.0 20.0 100.0 11.0 C129.0 10.0 152.0 34.0 151.0 73.0 L48.0 72.0 C48.0 38.0 58.0 20.0 100.0 11.0 C129.0 10.0 152.0 34.0 151.0 73.0 L48.0 72.0"></path></svg>