<svg xmlns="http://www.w3.org/2000/svg" viewBox="0.0 0.0 200.0 200.0" height="200px" width="200px"><path fill="#000000" fill-opacity="1.0"  filling="0" d="M58.0 58.0 C58.0 59.0 59.0 60.0 60.0 60.0 L61.0 61.0 C62.0 61.0 63.0 61.0 64.0 61.0 C66.0 61.0 68.0 61.0 70.0 62.0 C73.0 62.0 75.0 62.0 78.0 62.0 C82.0 62.0 86.0 62.0 90.0 62.0 C97.0 62.0 104.0 62.0 112.0 62.0 C115.0 62.0 119.0 61.0 123.0 61.0 C125.0 61.0 127.0 61.0 129.0 60.0 C130.0 59.0 130.0 59.0 130.0 58.0 C131.0 57.0 131.0 56.0 131.0 55.0 C132.0 53.0 132.0 51.0 132.0 49.0 C133.0 47.0 133.0 45.0 132.0 43.0 C132.0 43.0 132.0 42.0 131.0 42.0 C131.0 42.0 131.0 42.0 131.0 42.0 C130.0 42.0 130.0 42.0 130.0 42.0 C130.0 42.0 130.0 42.0 130.0 42.0 C130.0 42.0 130.0 42.0 130.0 42.0 C130.0 42.0 130.0 42.0 130.0 42.0 C130.0 42.0 130.0 42.0 130.0 42.0 C130.0 42.0 130.0 42.0 130.0 42.0 C130.0 42.0 130.0 42.0 130.0 42.0 C130.0 42.0 130.0 42.0 130.0 42.0 C130.0 42.0 130.0 42.0 130.0 42.0 C130.0 42.0 130.0 42.0 130.0 42.0 C130.0 42.0 130.0 42.0 130.0 42.0 C130.0 42.0 130.0 42.0 130.0 42.0 C130.0 42.0 130.0 42.0 130.0 42.0 C130.0 42.0 130.0 42.0 130.0 42.0 C130.0 42.0 130.0 42.0 130.0 42.0 C130.0 42.0 130.0 42.0 130.0 42.0 C130.0 42.0 130.0 42.0 130.0 42.0 C130.0 42.0 130.0 42.0 130.0 42.0 C130.0 42.0 130.0 42.0 130.0 42.0 C130.0 42.0 130.0 42.0 130.0 42.0 C130.0 42.0 130.0 42.0 130.0 42.0 C130.0 42.0 130.0 42.0 130.0 42.0 C130.0 42.0 130.0 42.0 130.0 42.0 C130.0 42.0 130.0 42.0 130.0 42.0 C130.0 42.0 130.0 42.0 130.0 42.0 C130.0 42.0 130.0 42.0 130.0 42.0 C130.0 42.0 130.0 42.0 130.0 42.0 C130.0 42.0 130.0 42.0 130.0 42.0 C130.0 42.0 130.0 42.0 130.0 42.0 C130.0 42.0 130.0 42.0 130.0 42.0 C130.0 42.0 130.0 42.0 130.0 42.0 C130.0 42.0 130.0 42.0 130.0 42.0 C130.0 42.0 130.0 42.0 130.0 42.0 C130.0 42.0 130.0 42.0 130.0 42.0 C130.0 42.0 130.0 42.0 130.0 42.0 C130.0 42.0 130.0 42.0 130.0 42.0 C130.0 42.0 130.0 42.0 130.0 42.0 C130.0 42.0 130.0 42.0 130.0 42.0 C130.0 42.0 130.0 42.0 130.0 42.0 C130.0 42.0 130.0 42.0 130.0 42.0 C130.0 42.0 130.0 42.0 130.0 42.0 C130.0 42.0 130.0 42.0 130.0 42.0 C130.0 42.0 130.0 42.0 130.0 42.0 C130.0 42.0 130.0 42.0 130.0 42.0 C130.0 42.0 130.0 42.0 130.0 42.0 C130.0 42.0 130.0 42.0 130.0 42.0 C130.0 42.0 130.0 42.0 130.0 42.0 C130.0 42.0 130.0 42.0 130.0 42.0 C130.0 42.0 130.0 42.0 130.0 42.0 C130.0 42.0 130.0 42.0 130.0 42.0 C130.0 42.0 130.0 42.0 130.0 42.0 C130.0 42.0 130.0 42.0 130.0 42.0 C130.0 42.0 130.0 42.0 130.0 42.0 C130.0 42.0 130.0 42.0 130.0 42.0 C130.0 42.0 130.0 42.0 130.0 42.0 C130.0 42.0 130.0 42.0 130.0 42.0 C130.0 42.0 130.0 42.0 130.0 42.0 C130.0 42.0 130.0 42.0 130.0 42.0 C130.0 42.0 130.0 42.0 130.0 42.0 C130.0 42.0 130.0 42.0 130.0 42.0 C130.0 42.0 130.0 42.0 130.0 42.0 C130.0 42.0 130.0 42.0 130.0 42.0 C130.0 42.0 130.0 42.0 130.0 42.0 C130.0 42.0 130.0 42.0 130.0 42.0 C130.0 42.0 130.0 42.0 130.0 42.0 C130.0 42.0 130.0 42.0 130.0 42.0 C130.0 42.0 130.0 42.0 130.0 42.0 C130.0 42.0 130.0 42.0 130.0 42.0 C130.0 42.0 130.0 42.0 130.0 42.0 C130.0 42.0 130.0 42.0 130.0 42.0 C130.0 42.0 130.0 42.0 130.0 42.0 C130.0 42.0 130.0 42.0 130.0 42.0 C130.0 42.0 130.0 42.0 130.0 42.0 C130.0 42.0 130.0 42.0 130.0 42.0 C130.0 42.0 130.0 42.0 130.0 42.0 C130.0 42.0 130.0 42.0 130.0 42.0 C130.0 42.0 130.0 42.0 130.0 42.0 C130.0 42.0 130.0 42.0 130.0 42.0 C130.0 42.0 130.0 42.0 130.0 42.0 C130.0 42.0 130.0 42.0 130.0 42.0 C130.0 42.0 130.0 42.0 130.0 42.0 C130.0 42.0 130.0 42.0 130.0 42.0 C130.0 42.0 130.0 42.0 130.0 42.0 C130.0 42.0 130.0 42.0 130.0 42.0 C130.0 42.0 130.0 42.0 130.0 42.0 C130.0 42.0 130.0 42.0 130.0 42.0 C130.0 42.0 130.0 42.0 130.0 42.0 C130.0 42.0 130.0 42.0 130.0 42.0 C130.0 42.0 130.0 42.0 130.0 42.0 C130.0 42.0 130.0 42.0 130.0 42.0 C130.0 42.0 130.0 42.0 130.0 42.0 C130.0 42.0 130.0 42.0 130.0 42.0 C130.0 42.0 130.0 42.0 130.0 42.0 C130.0 42.0 130.0 42.0 130.0 42.0 C130.0 42.0 130.0 42.0 130.0 42.0 C130.0 42.0 130.0 42.0 130.0 42.0 C130.0 42.0 130.0 42.0 130.0 42.0 C130.0 42.0 130.0 42.0 130.0 42.0 C130.0 42.0 130.0 42.0 130.0 42.0 C130.0 42.0 130.0 42.0 130.0 42.0 C130.0 42.0 130.0 42.0 130.0 42.0 C130.0 42.0 130.0 42.0 130.0 42.0 C130.0 42.0 130.0 42.0 130.0 42.0 C130.0 42.0 130.0 42.0 130.0 42.0 C130.0 42.0 130.0 42.0 130.0 42.0 C130.0 42.0 130.0 42.0 130.0 42.0 C130.0 42.0 130.0 42.0 130.0 42.0 C130.0 42.0 130.0 42.0 130.0 42.0 C130.0 42.0 130.0 42.0 130.0 42.0 C130.0 42.0 130.0 42.0 130.0 42.0 C130.0 42.0 130.0 42.0 130.0 42.0 C130.0 42.0 130.0 42.0 130.0 42.0 C130.0 42.0 130.0 42.0 130.0 42.0 C130.0 42.0 130.0 42.0 130.0 42.0 C130.0 42.0 130.0 42.0 130.0 42.0 C130.0 42.0 130.0 42.0 130.0 42.0 C130.0 42.0 130.0 42.0 130.0 42.0 C130.0 42.0 130.0 42.0 130.0 42.0 C130.0 42.0 130.0 42.0 130.0 42.0 C130.0 42.0 130.0 42.0 130.0 42.0 C130.0 42.0 130.0 42.0 130.0 42.0 C130.0 42.0 130.0 42.0 130.0 42.0 C130.0 42.0 130.0 42.0 130.0 42.0 C130.0 42.0 130.0 42.0 130.0 42.0 C130.0 42.0 130.0 42.0 130.0 42.0 C130.0 42.0 130.0 42.0 130.0 42.0 C130.0 42.0 130.0 42.0 130.0 42.0 C130.0 42.0 130.0 42.0 130.0 42.0 C130.0 42.0 130.0 42.0 130.0 42.0 C130.0 42.0 130.0 42.0 130.0 42.0 C130.0 42.0 130.0 42.0 130.0 42.0 C130.0 42.0 130.0 42.0 130.0 42.0 C130.0 42.0 130.0 42.0 130.0 42.0 C130.0 42.0 130.0 42.0 130.0 42.0 C130.0 42.0 130.0 42.0 130.0 42.0 C130.0 42.0 130.0 42.0 130.0 42.0 C130.0 42.0 130.0 42.0 130.0 42.0 C130.0 42.0 130.0 42.0 130.0 42.0 C130.0 42.0 130.0 42.0 130.0 42.0 C130.0 42.0 130.0 42.0 130.0 42.0 C130.0 42.0 130.0 42.0 130.0 42.0 C130.0 42.0 130.0 42.0 130.0 42.0 C130.0 42.0 130.0 42.0 130.0 42.0 C130.0 42.0 130.0 42.0 130.0 42.0 C130.0 42.0 130.0 42.0 130.0 42.0 C130.0 42.0 130.0 42.0 130.0 42.0 C130.0 42.0 130.0 42.0 130.0 42.0 C130.0 42.0 130.0 42.0 130.0 42.0 C130.0 42.0 130.0 42.0 130.0 42.0 C130.0 42.0 130.0 42.0 130.0 42.0 C130.0 42.0 130.0 42.0 130.0 42.0 C130.0 42.0 130.0 42.0 130.0 42.0 C130.0 42.0 130.0 42.0 130.0 42.0 C130.0 42.0 130.0 42.0 130.0 42.0 C130.0 42.0 130.0 42.0 130.0 42.0 C130.0 42.0 130.0 42.0 130.0 42.0 C130.0 42.0 130.0 42.0 130.0 42.0 C130.0 42.0 130.0 42.0 130.0 42.0 C130.0 42.0 130.0 42.0 130.0 42.0 C130.0 42.0 130.0 42.0 130.0 42.0 C130.0 42.0 130.0 42.0 130.0 42.0 C130.0 42.0 130.0 42.0 130.0 42.0 C130.0 42.0 130.0 42.0 130.0 42.0 C130.0 42.0 130.0 42.0 130.0 42.0 C130.0 42.0 130.0 42.0 130.0 42.0 C130.0 42.0 130.0 42.0 130.0 42.0 C130.0 42.0 130.0 42.0 130.0 42.0 C130.0 42.0 130.0 42.0 130.0 42.0 C130.0 42.0 130.0 42.0 130.0 42.0 C130.0 42.0 130.0 42.0 130.0 42.0 C130.0 42.0 130.0 42.0 130.0 42.0 C130.0 42.0 130.0 42.0 130.0 42.0 C130.0 42.0 130.0 42.0 130.0 42.0 C130.0 42.0 130.0 42.0 130.0 42.0 C130.0 42.0 130.0 42.0 130.0 42.0 C130.0 42.0 130.0 42.0 130.0 42.0 C130.0 42.0 130.0 42.0 130.0 42.0 C130.0 42.0 130.0 42.0 130.0 42.0 C130.0 42.0 130.0 42.0 130.0 42.0 C130.0 42.0 130.0 42.0 130.0 42.0 C130.0 42.0 130.0 42.0 130.0 42.0 C130.0 42.0 130.0 42.0 130.0 42.0 C130.0 42.0 130.0 42.0 130.0 42.0 C130.0 42.0 130.0 42.0 130.0 42.0 C130.0 42.0 130.0 42.0 130.0 42.0 C130.0 42.0 130.0 42.0 130.0 42.0 C130.0 42.0 130.0 42.0 130.0 42.0 C130.0 42.0 130.0 42.0 130.0 42.0 C130.0 42.0 130.0 42.0 130.0 42.0 C130.0 42.0 130.0 42.0 130.0 42.0 C130.0 42.0 130.0 42.0 130.0 42.0 C130.0 42.0 130.0 42.0 130.0 42.0 C130.0 42.0 130.0 42.0 130.0 42.0 C130.0 42.0 130.0 42.0 130.0 42.0 C130.0 42.0 130.0 42.0 130.0 42.0 C130.0 42.0 130.0 42.0 130.0 42.0 C130.0 42.0 130.0 42.0 130.0 42.0 C130.0 42.0 130.0 42.0 130.0 42.0 C130.0 42.0 130.0 42.0 130.0 42.0 C130.0 42.0 130.0 42.0 130.0 42.0 C130.0 42.0 130.0 42.0 130.0 42.0 C130.0 42.0 130.0 42.0 130.0 42.0 C130.0 42.0 130.0 42.0 130.0 42.0 C130.0 42.0 130.0 42.0 130.0 42.0 C130.0 42.0 130.0 42.0 130.0 42.0 C130.0 42.0 130.0 42.0 130.0 42.0 C130.0 42.0 130.0 42.0 130.0 42.0 C130.0 42.0 130.0 42.0 130.0 42.0 C130.0 42.0 130.0 42.0 130.0 42.0 C130.0 42.0 130.0 42.0 130.0 42.0 C130.0 42.0 130.0 42.0 130.0 42.0 C130.0 42.0 130.0 42.0 130.0 42.0 C130.0 42.0 130.0 42.0 130.0 42.0 C130.0 42.0 130.0 42.0 130.0 42.0 C130.0 42.0 130.0 42.0 130.0 42.0 C130.0 42.0 130.0 42.0 130.0 42.0 C130.0 42.0 130.0 42.0 130.0 42.0 C130.0 42.0 130.0 42.0 130.0 42.0 C130.0 42.0 130.0 42.0 130.0 42.0 C130.0 42.0 130.0 42.0 130.0 42.0 C130.0 42.0 130.0 42.0 130.0 42.0 C62.0 62.0 61.0 62.0 60.0 62.0 C58.0 62.0 56.0 62.0 54.0 62.0 C52.0 62.0 50.0 62.0 48.0 62.0 C48.0 62.0 48.0 62.0 48.0 62.0 C48.0 62.0 48.0 62.0 48.0 62.0 C48.0 62.0 48.0 62.0 48.0 62.0 C48.0 62.0 48.0 62.0 48.0 62.0 C48.0 62.0 48.0 62.0 48.0 62.0 C48.0 62.0 48.0 62.0 48.0 62.0 C48.0 62.0 48.0 62.0 48.0 62.0 C48.0 62.0 48.0 62.0 48.0 62.0 C48.0 62.0 48.0 62.0 48.0 62.0 C48.0 62.0 48.0 62.0 48.0 62.0 C48.0 62.0 48.0 62.0 48.0 62.0 C48.0 62.0 48.0 62.0 48.0 62.0 C48.0 62.0 48.0 62.0 48.0 62.0 C48.0 62.0 48.0 62.0 48.0 62.0 C48.0 62.0 48.0 62.0 48.0 62.0 C48.0 62.0 48.0 62.0 48.0 62.0 C48.0 62.0 48.0 62.0 48.0 62.0 C48.0 62.0 48.0 62.0 48.0 62.0 C48.0 62.0 48.0 62.0 48.0 62.0 C48.0 62.0 48.0 62.0 48.0 62.0 C48.0 62.0 48.0 62.0 48.0 62.0 C48.0 62.0 48.0 62.0 48.0 62.0 C48.0 62.0 48.0 62.0 48.0 62.0 C48.0 62.0 48.0 62.0 48.0 62.0 C48.0 62.0 48.0 62.0 48.0 62.0 C48.0 62.0 48.0 62.0 48.0 62.0 C48.0 62.0 48.0 62.0 48.0 62.0 C48.0 62.0 48.0 62.0 48.0 62.0 C48.0 62.0 48.0 62.0 48.0 62.0 C48.0 62.0 48.0 62.0 48.0 62.0 C48.0 62.0 48.0 62.0 48.0 62.0 C48.0 62.0 48.0 62.0 48.0 62.0 C48.0 62.0 48.0 62.0 48.0 62.0 C48.0 62.0 48.0 62.0 48.0 62.0 C48.0 62.0 48.0 62.0 48.0 62.0 C48.0 62.0 48.0 62.0 48.0 62.0 C48.0 62.0 48.0 62.0 48.0 62.0 C48.0 62.0 48.0 62.0 48.0 62.0 C48.0 62.0 48.0 62.0 48.0 62.0 C48.0 62.0 48.0 62.0 48.0 62.0 C48.0 62.0 48.0 62.0 48.0 62.0 C48.0 62.0 48.0 62.0 48.0 62.0 C48.0 62.0 48.0 62.0 48.0 62.0 C48.0 62.0 48.0 62.0 48.0 62.0 C48.0 62.0 48.0 62.0 48.0 62.0 C48.0 62.0 48.0 62.0 48.0 62.0 C48.0 62.0 48.0 62.0 48.0 62.0 C48.0 62.0 48.0 62.0 48.0 62.0 C48.0 62.0 48.0 62.0 48.0 62.0 C48.0 62.0 48.0 62.0 48.0 62.0 C48.0 62.0 48.0 62.0 48.0 62.0 C48.0 62.0 48.0 62.0 48.0 62.0 C48.0 62.0 48.0 62.0 48.0 62.0 C48.0 62.0 48.0 62.0 48.0 62.0 C48.0 62.0 48.0 62.0 48.0 62.0 C48.0 62.0 48.0 62.0 48.0 62.0 C48.0 62.0 48.0 62.0 48.0 62.0 C48.0 62.0 48.0 62.0 48.0 62.0 C48.0 62.0 48.0 62.0 48.0 62.0 C48.0 62.0 48.0 62.0 48.0 62.0 C48.0 62.0 48.0 62.0 48.0 62.0 C48.0 62.0 48.0 62.0 48.0 62.0 C48.0 62.0 48.0 62.0 48.0 62.0 C48.0 62.0 48.0 62.0 48.0 62.0 C48.0 62.0 48.0 62.0 48.0 62.0 C48.0 62.0 48.0 62.0 48.0 62.0 C48.0 62.0 48.0 62.0 48.0 62.0 C48.0 62.0 48.0 62.0 48.0 62.0 C48.0 62.0 48.0 62.0 48.0 62.0 C48.0 62.0 48.0 62.0 48.0 62.0 C48.0 62.0 48.0 62.0 48.0 62.0 C48.0 62.0 48.0 62.0 48.0 62.0 C48.0 62.0 48.0 62.0 48.0 62.0 C48.0 62.0 48.0 62.0 48.0 62.0 C48.0 62.0 48.0 62.0 48.0 62.0 C48.0 62.0 48.0 62.0 48.0 62.0 C48.0 62.0 48.0 62.0 48.0 62.0 C48.0 62.0 48.0 62.0 48.0 62.0 C48.0 62.0 48.0 62.0 48.0 62.0 C48.0 62.0 48.0 62.0 48.0 62.0 C48.0 62.0 48.0 62.0 48.0 62.0 C48.0 62.0 48.0 62.0 48.0 62.0 C48.0 62.0 48.0 62.0 48.0 62.0 C48.0 62.0 48.0 62.0 48.0 62.0 C48.0 62.0 48.0 62.0 48.0 62.0 C48.0 62.0 48.0 62.0 48.0 62.0 C48.0 62.0 48.0 62.0 48.0 62.0 C48.0 62.0 48.0 62.0 48.0 62.0 C48.0 62.0 48.0 62.0 48.0 62.0 C48.0 62.0 48.0 62.0 48.0 62.0 C48.0 62.0 48.0 62.0 48.0 62.0 C48.0 62.0 48.0 62.0 48.0 62.0 C48.0 62.0 48.0 62.0 48.0 62.0 C48.0 62.0 48.0 62.0 48.0 62.0 C48.0 62.0 48.0 62.0 48.0 62.0 C48.0 62.0 48.0 62.0 48.0 62.0 C48.0 62.0 48.0 62.0 48.0 62.0 C48.0 62.0 48.0 62.0 48.0 62.0 C48.0 62.0 48.0 62.0 48.0 62.0 C48.0 62.0 48.0 62.0 48.0 62.0 C48.0 62.0 48.0 62.0 48.0 62.0 C48.0 62.0 48.0 62.0 48.0 62.0 C48.0 62.0 48.0 62.0 48.0 62.0 C48.0 62.0 48.0 62.0 48.0 62.0 C48.0 62.0 48.0 62.0 48.0 62.0 C48.0 62.0 48.0 62.0 48.0 62.0 C48.0 62.0 48.0 62.0 48.0 62.0 C48.0 62.0 48.0 62.0 48.0 62.0 C48.0 62.0 48.0 62.0 48.0 62.0 C48.0 62.0 48.0 62.0 48.0 62.0 C48.0 62.0 48.0 62.0 48.0 62.0 C48.0 62.0 48.0 62.0 48.0 62.0 C48.0 62.0 48.0 62.0 48.0 62.0 C48.0 62.0 48.0 62.0 48.0 62.0 C48.0 62.0 48.0 62.0 48.0 62.0 C48.0 62.0 48.0 62.0 48.0 62.0 C48.0 62.0 48.0 62.0 48.0 62.0 C48.0 62.0 48.0 62.0 48.0 62.0 C48.0 62.0 48.0 62.0 48.0 62.0 C48.0 62.0 48.0 62.0 48.0 62.0 C48.0 62.0 48.0 62.0 48.0 62.0 C48.0 62.0 48.0 62.0 48.0 62.0 C48.0 62.0 48.0 62.0 48.0 62.0 C48.0 62.0 48.0 62.0 48.0 62.0 C48.0 62.0 48.0 62.0 48.0 62.0 C48.0 62.0 48.0 62.0 48.0 62.0 C48.0 62.0 48.0 62.0 48.0 62.0 C48.0 62.0 48.0 62.0 48.0 62.0 C48.0 62.0 48.0 62.0 48.0 62.0 C48.0 62.0 48.0 62.0 48.0 62.0 C48.0 62.0 48.0 62.0 48.0 62.0 C48.0 62.0 48.0 62.0 48.0 62.0 C48.0 62.0 48.0 62.0 48.0 62.0 C48.0 62.0 48.0 62.0 48.0 62.0 C48.0 62.0 48.0 62.0 48.0 62.0 C48.0 62.0 48.0 62.0 48.0 62.0 C48.0 62.0 48.0 62.0 48.0 62.0 C48.0 62.0 48.0 62.0 48.0 62.0 C48.0 62.0 48.0 62.0 48.0 62.0 C48.0 62.0 48.0 62.0 48.0 62.0 C48.0 62.0 48.0 62.0 48.0 62.0 C48.0 62.0 48.0 62.0 48.0 62.0 C48.0 62.0 48.0 62.0 48.0 62.0"></path></svg>