<svg xmlns="http://www.w3.org/2000/svg" viewBox="0.0 0.0 200.0 200.0" height="200px" width="200px"><path fill="#6666bb" fill-opacity="1.0"  filling="0" d="M150.0 125.0 L50.0 125.0 C49.0 125.0 48.0 124.0 48.0 123.0 C48.0 122.0 49.0 121.0 50.0 121.0 L150.0 121.0 C151.0 121.0 152.0 122.0 152.0 123.0 C152.0 124.0 151.0 125.0 150.0 125.0 L150.0 125.0 Z M150.0 150.0 L50.0 150.0 C49.0 150.0 48.0 149.0 48.0 148.0 C48.0 147.0 49.0 146.0 50.0 146.0 L150.0 146.0 C151.0 146.0 152.0 147.0 152.0 148.0 C152.0 149.0 151.0 150.0 150.0 150.0 L150.0 150.0 Z"></path>
<path fill="#6666bb" fill-opacity="1.0"  filling="0" d="M150.0 125.0 L150.0 125.0 C149.0 125.0 148.0 124.0 148.0 123.0 C148.0 122.0 149.0 121.0 150.0 121.0 L150.0 121.0 C151.0 121.0 152.0 122.0 152.0 123.0 C152.0 124.0 151.0 125.0 150.0 125.0 L150.0 125.0 Z M150.0 150.0 L150.0 150.0 C149.0 150.0 148.0 149.0 148.0 148.0 C148.0 147.0 149.0 146.0 150.0 146.0 L150.0 146.0 C151.0 146.0 152.0 147.0 152.0 148.0 C152.0 149.0 151.0 150.0 150.0 150.0 L150.0 150.0 Z M50.0 150.0 C49.0 150.0 48.0 149.0 48.0 148.0 C48.0 147.0 49.0 146.0 50.0 146.0 L50.0 146.0 C51.0 146.0 52.0 147.0 52.0 148.0 C52.0 149.0 51.0 150.0 50.0 150.0 L50.0 150.0 L50.0 150.0 Z M50.0 125.0 C49.0 125.0 48.0 124.0 48.0 123.0 C48.0 122.0 49.0 121.0 50.0 121.0 L50.0 121.0 C51.0 121.0 52.0 122.0 52.0 123.0 C52.0 124.0 51.0 125.0 50.0 125.0 L50.0 125.0 L50.0 125.0 Z M100.0 175.0 L80.0 175.0 C79.0 175.0 78.0 174.0 78.0 173.0 C78.0 172.0 79.0 171.0 80.0 171.0 L100.0 171.0 C101.0 171.0 102.0 172.0 102.0 173.0 C102.0 174.0 101.0 175.0 100.0 175.0 L100.0 175.0 Z"></path>
<path fill="#6666bb" fill-opacity="1.0"  filling="0" d="M115.0 173.0 L80.0 173.0 C79.0 173.0 78.0 172.0 78.0 171.0 C78.0 170.0 79.0 169.0 80.0 169.0 L115.0 169.0 C116.0 169.0 117.0 170.0 117.0 171.0 C117.0 172.0 116.0 173.0 115.0 173.0 L115.0 173.0 Z"></path>
<path fill="#6666bb" fill-opacity="1.0"  filling="0" d="M138.0 166.0 L118.0 166.0 C117.0 166.0 117.0 165.0 117.0 164.0 C117.0 163.0 117.0 163.0 118.0 163.0 L138.0 163.0 C139.0 163.0 140.0 163.0 140.0 164.0 C140.0 165.0 139.0 166.0 138.0 166.0 L138.0 166.0 Z M83.0 166.0 L62.0 166.0 C61.0 166.0 61.0 165.0 61.0 164.0 C61.0 163.0 61.0 163.0 62.0 163.0 L83.0 163.0 C84.0 163.0 85.0 163.0 85.0 164.0 C85.0 165.0 84.0 166.0 83.0 166.0 L83.0 166.0 Z"></path>
<path fill="#6688cc" fill-opacity="1.0"  filling="0" d="M57.0 142.0 A15.0 15.0 0.0 1 1 28.0 142.0 A15.0 15.0 0.0 1 1 57.0 142.0 L57.0 142.0 Z"></path>
<path fill="#6666bb" fill-opacity="1.0"  filling="0" d="M43.0 161.0 C34.0 161.0 27.0 154.0 27.0 146.0 C27.0 137.0 34.0 130.0 43.0 130.0 C51.0 130.0 59.0 137.0 59.0 146.0 C59.0 154.0 51.0 161.0 43.0 161.0 L43.0 161.0 Z M43.0 132.0 C36.0 132.0 30.0 138.0 30.0 145.0 C30.0 152.0 36.0 157.0 43.0 157.0 C50.0 157.0 56.0 152.0 56.0 145.0 C56.0 138.0 50.0 132.0 43.0 132.0 L43.0 132.0 Z"></path>
<path fill="#6688cc" fill-opacity="1.0"  filling="0" d="M172.0 142.0 A15.0 15.0 0.0 1 1 143.0 142.0 A15.0 15.0 0.0 1 1 172.0 142.0 L172.0 142.0 Z"></path>
<path fill="#6666bb" fill-opacity="1.0"  filling="0" d="M160.0 161.0 C151.0 161.0 144.0 154.0 144.0 145.0 C144.0 137.0 151.0 130.0 160.0 130.0 C168.0 130.0 175.0 137.0 175.0 145.0 C175.0 154.0 168.0 161.0 160.0 161.0 L160.0 161.0 Z M160.0 132.0 C153.0 132.0 147.0 138.0 147.0 145.0 C147.0 152.0 153.0 157.0 160.0 157.0 C167.0 157.0 172.0 152.0 172.0 145.0 C172.0 138.0 167.0 132.0 160.0 132.0 L160.0 132.0 Z"></path>
<path fill="#ffbb55" fill-opacity="1.0"  filling="0" d="M128.0 133.0 L73.0 133.0 C73.0 133.0 73.0 133.0 73.0 133.0 L73.0 123.0 C73.0 123.0 73.0 123.0 73.0 123.0 L128.0 123.0 C129.0 123.0 129.0 123.0 129.0 123.0 L129.0 133.0 C129.0 133.0 129.0 133.0 128.0 133.0 L128.0 133.0 Z"></path>
<path fill="#6666bb" fill-opacity="1.0"  filling="0" d="M122.0 136.0 L79.0 136.0 C75.0 136.0 73.0 133.0 73.0 129.0 C73.0 126.0 75.0 123.0 79.0 123.0 L122.0 123.0 C125.0 123.0 128.0 126.0 128.0 129.0 C128.0 133.0 125.0 136.0 122.0 136.0 L122.0 136.0 Z M79.0 126.0 C77.0 126.0 75.0 127.0 75.0 129.0 C75.0 131.0 77.0 132.0 79.0 132.0 L122.0 132.0 C124.0 132.0 125.0 131.0 125.0 129.0 C125.0 127.0 124.0 126.0 122.0 126.0 L79.0 126.0 L79.0 126.0 Z"></path>
<path fill="#6688cc" fill-opacity="1.0"  filling="0" d="M72.0 100.0 C73.0 100.0 74.0 100.0 75.0 99.0 C86.0 97.0 99.0 90.0 128.0 88.0 C129.0 88.0 130.0 86.0 131.0 85.0 C134.0 79.0 138.0 67.0 134.0 55.0 C130.0 41.0 117.0 31.0 103.0 30.0 C86.0 29.0 71.0 39.0 67.0 55.0 C66.0 56.0 66.0 56.0 66.0 56.0 C65.0 56.0 65.0 57.0 65.0 59.0 L62.0 75.0 C61.0 78.0 62.0 81.0 65.0 81.0 C65.0 81.0 66.0 81.0 66.0 81.0 C66.0 85.0 66.0 93.0 69.0 98.0 C70.0 99.0 71.0 100.0 72.0 100.0 L72.0 100.0 Z"></path>
<path fill="#000000" fill-opacity="1.0"  filling="0" d="M72.0 101.0 C70.0 101.0 69.0 100.0 68.0 99.0 C64.0 94.0 64.0 85.0 64.0 82.0 C63.0 82.0 62.0 81.0 61.0 80.0 C60.0 79.0 60.0 77.0 60.0 75.0 L63.0 58.0 C63.0 57.0 64.0 56.0 64.0 55.0 C64.0 55.0 64.0 55.0 64.0 55.0 C69.0 38.0 85.0 27.0 103.0 28.0 C118.0 30.0 131.0 40.0 136.0 55.0 C140.0 67.0 135.0 80.0 132.0 85.0 C131.0 87.0 130.0 88.0 128.0 87.0 C100.0 91.0 87.0 98.0 75.0 100.0 C74.0 101.0 73.0 101.0 72.0 101.0 L72.0 101.0 Z M67.0 79.0 C67.0 79.0 67.0 79.0 67.0 79.0 C67.0 79.0 67.0 79.0 67.0 79.0 C67.0 79.0 67.0 79.0 67.0 79.0 C67.0 79.0 67.0 79.0 67.0 79.0 C67.0 79.0 67.0 79.0 67.0 79.0 C67.0 79.0 67.0 79.0 67.0 79.0 C67.0 79.0 67.0 79.0 67.0 79.0 C67.0 79.0 67.0 79.0 67.0 79.0 C67.0 79.0 67.0 79.0 67.0 79.0 C67.0 79.0 67.0 79.0 67.0 79.0 C67.0 79.0 67.0 79.0 67.0 79.0 C67.0 79.0 67.0 79.0 67.0 79.0 C67.0 79.0 67.0 79.0 67.0 79.0 C67.0 79.0 67.0 79.0 67.0 79.0 C67.0 79.0 67.0 79.0 67.0 79.0 C67.0 79.0 67.0 79.0 67.0 79.0 C67.0 79.0 67.0 79.0 67.0 79.0 C67.0 79.0 67.0 79.0 67.0 79.0 C67.0 79.0 67.0 79.0 67.0 79.0 C67.0 79.0 67.0 79.0 67.0 79.0 C67.0 79.0 67.0 79.0 67.0 79.0 C67.0 79.0 67.0 79.0 67.0 79.0 C67.0 79.0 67.0 79.0 67.0 79.0 C67.0 79.0 67.0 79.0 67.0 79.0 C67.0 79.0 67.0 79.0 67.0 79.0 C67.0 79.0 67.0 79.0 67.0 79.0 C67.0 79.0 67.0 79.0 67.0 79.0 C67.0 79.0 67.0 79.0 67.0 79.0 C67.0 79.0 67.0 79.0 67.0 79.0 C67.0 79.0 67.0 79.0 67.0 79.0 C67.0 79.0 67.0 79.0 67.0 79.0 C67.0 79.0 67.0 79.0 67.0 79.0 C67.0 79.0 67.0 79.0 67.0 79.0 C67.0 79.0 67.0 79.0 67.0 79.0 C67.0 79.0 67.0 79.0 67.0 79.0 C67.0 79.0 67.0 79.0 67.0 79.0 C67.0 79.0 67.0 79.0 67.0 79.0 C67.0 79.0 67.0 79.0 67.0 79.0 C67.0 79.0 67.0 79.0 67.0 79.0 C67.0 79.0 67.0 79.0 67.0 79.0 C67.0 79.0 67.0 79.0 67.0 79.0 C67.0 79.0 67.0 79.0 67.0 79.0 C67.0 79.0 67.0 79.0 67.0 79.0 C67.0 79.0 67.0 79.0 67.0 79.0 C67.0 79.0 67.0 79.0 67.0 79.0 C67.0 79.0 67.0 79.0 67.0 79.0 C67.0 79.0 67.0 79.0 67.0 79.0 C67.0 79.0 67.0 79.0 67.0 79.0 C67.0 79.0 67.0 79.0 67.0 79.0 C67.0 79.0 67.0 79.0 67.0 79.0 C67.0 79.0 67.0 79.0 67.0 79.0 C67.0 79.0 67.0 79.0 67.0 79.0 C67.0 79.0 67.0 79.0 67.0 79.0 C67.0 79.0 67.0 79.0 67.0 79.0 C67.0 79.0 67.0 79.0 67.0 79.0 C67.0 79.0 67.0 79.0 67.0 79.0 C67.0 79.0 67.0 79.0 67.0 79.0 C67.0 79.0 67.0 79.0 67.0 79.0 C67.0 79.0 67.0 79.0 67.0 79.0 C67.0 79.0 67.0 79.0 67.0 79.0 C67.0 79.0 67.0 79.0 67.0 79.0 C67.0 79.0 67.0 79.0 67.0 79.0 C67.0 79.0 67.0 79.0 67.0 79.0 C67.0 79.0 67.0 79.0 67.0 79.0 C67.0 79.0 67.0 79.0 67.0 79.0 C67.0 79.0 67.0 79.0 67.0 79.0 C67.0 79.0 67.0 79.0 67.0 79.0 C67.0 79.0 67.0 79.0 67.0 79.0 C67.0 79.0 67.0 79.0 67.0 79.0 C67.0 79.0 67.0 79.0 67.0 79.0 C67.0 79.0 67.0 79.0 67.0 79.0 C67.0 79.0 67.0 79.0 67.0 79.0 C67.0 79.0 67.0 79.0 67.0 79.0 C67.0 79.0 67.0 79.0 67.0 79.0 C67.0 79.0 67.0 79.0 67.0 79.0 C67.0 79.0 67.0 79.0 67.0 79.0 C67.0 79.0 67.0 79.0 67.0 79.0 C67.0 79.0 67.0 79.0 67.0 79.0 C67.0 79.0 67.0 79.0 67.0 79.0 C67.0 79.0 67.0 79.0 67.0 79.0 C67.0 79.0 67.0 79.0 67.0 79.0 C67.0 79.0 67.0 79.0 67.0 79.0 C67.0 79.0 67.0 79.0 67.0 79.0 C67.0 79.0 67.0 79.0 67.0 79.0 C67.0 79.0 67.0 79.0 67.0 79.0 C67.0 79.0 67.0 79.0 67.0 79.0 C67.0 79.0 67.0 79.0 67.0 79.0 C67.0 79.0 67.0 79.0 67.0 79.0 C67.0 79.0 67.0 79.0 67.0 79.0 C67.0 79.0 67.0 79.0 67.0 79.0 C67.0 79.0 67.0 79.0 67.0 79.0 C67.0 79.0 67.0 79.0 67.0 79.0 C67.0 79.0 67.0 79.0 67.0 79.0 C67.0 79.0 67.0 79.0 67.0 79.0 C67.0 79.0 67.0 79.0 133.0 79.0 C133.0 79.0 133.0 79.0 133.0 79.0 C133.0 79.0 133.0 79.0 133.0 79.0 C133.0 79.0 133.0 79.0 133.0 79.0 C133.0 79.0 133.0 79.0 133.0 79.0 C133.0 79.0 133.0 79.0 133.0 79.0 C133.0 79.0 133.0 79.0 133.0 79.0 C133.0 79.0 133.0 79.0 133.0 79.0 C133.0 79.0 133.0 79.0 133.0 79.0 C133.0 79.0 133.0 79.0 133.0 79.0 C133.0 79.0 133.0 79.0 133.0 79.0 C133.0 79.0 133.0 79.0 133.0 79.0 C133.0 79.0 133.0 79.0 133.0 79.0 C133.0 79.0 133.0 79.0 133.0 79.0 C133.0 79.0 133.0 79.0 133.0 79.0 C133.0 79.0 133.0 79.0 133.0 79.0 C133.0 79.0 133.0 79.0 133.0 79.0 C133.0 79.0 133.0 79.0 133.0 79.0 C133.0 79.0 133.0 79.0 133.0 79.0 C133.0 79.0 133.0 79.0 133.0 79.0 C133.0 79.0 133.0 79.0 133.0 79.0 C133.0 79.0 133.0 79.0 133.0 79.0 C133.0 79.0 133.0 79.0 133.0 79.0 C133.0 79.0 133.0 79.0 133.0 79.0 C133.0 79.0 133.0 79.0 133.0 79.0 C133.0 79.0 133.0 79.0 133.0 79.0 C133.0 79.0 133.0 79.0 133.0 79.0 C133.0 79.0 133.0 79.0 133.0 79.0 C133.0 79.0 133.0 79.0 133.0 79.0 C133.0 79.0 133.0 79.0 133.0 79.0 C133.0 79.0 133.0 79.0 133.0 79.0 C133.0 79.0 133.0 79.0 133.0 79.0 C133.0 79.0 133.0 79.0 133.0 79.0 C133.0 79.0 133.0 79.0 133.0 79.0 C133.0 79.0 133.0 79.0 133.0 79.0 C133.0 79.0 133.0 79.0 133.0 79.0 C133.0 79.0 133.0 79.0 133.0 79.0 C133.0 79.0 133.0 79.0 133.0 79.0 C133.0 79.0 133.0 79.0 133.0 79.0 C133.0 79.0 133.0 79.0 133.0 79.0 C133.0 79.0 133.0 79.0 133.0 79.0 C133.0 79.0 133.0 79.0 133.0 79.0 C133.0 79.0 133.0 79.0 133.0 79.0 C133.0 79.0 133.0 79.0 133.0 79.0 C133.0 79.0 133.0 79.0 133.0 79.0 C133.0 79.0 133.0 79.0 133.0 79.0 C133.0 79.0 133.0 79.0 133.0 79.0 C133.0 79.0 133.0 79.0 133.0 79.0 C133.0 79.0 133.0 79.0 133.0 79.0 C133.0 79.0 133.0 79.0 133.0 79.0 C133.0 79.0 133.0 79.0 133.0 79.0 C133.0 79.0 133.0 79.0 133.0 79.0 C133.0 79.0 133.0 79.0 133.0 79.0 C133.0 79.0 133.0 79.0 133.0 79.0 C133.0 79.0 133.0 79.0 133.0 79.0 C133.0 79.0 133.0 79.0 133.0 79.0 C133.0 79.0 133.0 79.0 133.0 79.0 C133.0 79.0 133.0 79.0 133.0 79.0 C133.0 79.0 133.0 79.0 133.0 79.0 C133.0 79.0 133.0 79.0 133.0 79.0 C133.0 79.0 133.0 79.0 133.0 79.0 C133.0 79.0 133.0 79.0 133.0 79.0 C133.0 79.0 133.0 79.0 133.0 79.0 C133.0 79.0 133.0 79.0 133.0 79.0 C133.0 79.0 133.0 79.0 133.0 79.0 C133.0 79.0 133.0 79.0 133.0 79.0 C133.0 79.0 133.0 79.0 133.0 79.0 C133.0 79.0 133.0 79.0 133.0 79.0 C133.0 79.0 133.0 79.0 133.0 79.0 C133.0 79.0 133.0 79.0 133.0 79.0 C133.0 79.0 133.0 79.0 133.0 79.0 C133.0 79.0 133.0 79.0 133.0 79.0 C133.0 79.0 133.0 79.0 133.0 79.0 C133.0 79.0 133.0 79.0 133.0 79.0 C133.0 79.0 133.0 79.0 133.0 79.0 C133.0 79.0 133.0 79.0 133.0 79.0 C133.0 79.0 133.0 79.0 133.0 79.0 C133.0 79.0 133.0 79.0 133.0 79.0 C133.0 79.0 133.0 79.0 133.0 79.0 C133.0 79.0 133.0 79.0 133.0 79.0 C133.0 79.0 133.0 79.0 133.0 79.0 C133.0 79.0 133.0 79.0 133.0 79.0 C133.0 79.0 133.0 79.0 133.0 79.0 C133.0 79.0 133.0 79.0 133.0 79.0 C133.0 79.0 133.0 79.0 133.0 79.0 C133.0 79.0 133.0 79.0 133.0 79.0 C133.0 79.0 133.0 79.0 133.0 79.0 C133.0 79.0 133.0 79.0 133.0 79.0 C133.0 79.0 133.0 79.0 133.0 79.0 C133.0 79.0 133.0 79.0 133.0 79.0 C133.0 79.0 133.0 79.0 133.0 79.0 C133.0 79.0 133.0 79.0 133.0 79.0 C133.0 79.0 133.0 79.0 133.0 79.0 C133.0 79.0 133.0 79.0 133.0 79.0 C133.0 79.0 133.0 79.0 133.0 79.0 C133.0 79.0 133.0 79.0 133.0 79.0 C133.0 79.0 133.0 79.0 133.0 79.0 C133.0 79.0 133.0 79.0 133.0 79.0 C133.0 79.0 133.0 79.0 133.0 79.0 C133.0 79.0 133.0 79.0 133.0 79.0 C133.0 79.0 133.0 79.0 133.0 79.0 C133.0 79.0 133.0 79.0 133.0 79.0 C133.0 79.0 133.0 79.0 133.0 79.0 C133.0 79.0 133.0 79.0 133.0 79.0 C133.0 79.0 133.0 79.0 133.0 79.0 C133.0 79.0 133.0 79.0 133.0 79.0 C133.0 79.0 133.0 79.0 133.0 79.0 C133.0 79.0 133.0 79.0 133.0 79.0 C133.0 79.0 133.0 79.0 133.0 79.0"></path></svg>