<svg xmlns="http://www.w3.org/2000/svg" viewBox="0.0 0.0 200.0 200.0" height="200px" width="200px"><path fill="#6666bb" fill-opacity="1.0"  filling="0" d="M150.0 125.0 L51.0 125.0 C50.0 125.0 49.0 124.0 49.0 123.0 C49.0 122.0 50.0 121.0 51.0 121.0 L150.0 121.0 C151.0 121.0 152.0 122.0 152.0 123.0 C152.0 124.0 151.0 125.0 150.0 125.0 L150.0 125.0 Z M150.0 150.0 L51.0 150.0 C50.0 150.0 49.0 150.0 49.0 148.0 C49.0 147.0 50.0 147.0 51.0 147.0 L150.0 147.0 C151.0 147.0 152.0 147.0 152.0 148.0 C152.0 150.0 151.0 150.0 150.0 150.0 L150.0 150.0 Z"></path>
<path fill="#6666bb" fill-opacity="1.0"  filling="0" d="M150.0 125.0 L149.0 125.0 L149.0 121.0 L150.0 121.0 C151.0 121.0 152.0 122.0 152.0 123.0 C152.0 124.0 151.0 125.0 150.0 125.0 L150.0 125.0 Z M150.0 150.0 L149.0 150.0 L149.0 147.0 L150.0 147.0 C151.0 147.0 152.0 147.0 152.0 148.0 C152.0 150.0 151.0 150.0 150.0 150.0 L150.0 150.0 Z M83.0 166.0 L62.0 166.0 C61.0 166.0 61.0 166.0 61.0 164.0 C61.0 163.0 61.0 163.0 62.0 163.0 L83.0 163.0 C85.0 163.0 85.0 163.0 85.0 164.0 C85.0 166.0 85.0 166.0 83.0 166.0 L83.0 166.0 Z M138.0 166.0 L118.0 166.0 C117.0 166.0 117.0 166.0 117.0 164.0 C117.0 163.0 117.0 163.0 118.0 163.0 L138.0 163.0 C139.0 163.0 140.0 163.0 140.0 164.0 C140.0 166.0 139.0 166.0 138.0 166.0 L138.0 166.0 Z M115.0 172.0 L80.0 172.0 C79.0 172.0 78.0 172.0 78.0 171.0 C78.0 170.0 79.0 169.0 80.0 169.0 L115.0 169.0 C116.0 169.0 117.0 170.0 117.0 171.0 C117.0 172.0 116.0 172.0 115.0 172.0 L115.0 172.0 Z"></path>
<path fill="#5588cc" fill-opacity="1.0"  filling="0" d="M29.0 149.0 A15.0 15.0 0.0 1 0 58.0 139.0 A15.0 15.0 0.0 1 0 29.0 149.0 L29.0 149.0 Z"></path>
<path fill="#6666bb" fill-opacity="1.0"  filling="0" d="M43.0 161.0 C35.0 161.0 27.0 155.0 27.0 146.0 C27.0 137.0 35.0 130.0 43.0 130.0 C52.0 130.0 59.0 137.0 59.0 146.0 C59.0 155.0 52.0 161.0 43.0 161.0 L43.0 161.0 Z M43.0 132.0 C36.0 132.0 30.0 138.0 30.0 145.0 C30.0 153.0 36.0 158.0 43.0 158.0 C50.0 158.0 56.0 153.0 56.0 145.0 C56.0 138.0 50.0 132.0 43.0 132.0 L43.0 132.0 Z"></path>
<path fill="#5588cc" fill-opacity="1.0"  filling="0" d="M148.0 139.0 A15.0 15.0 0.0 1 0 171.0 139.0 A15.0 15.0 0.0 1 0 148.0 139.0 L148.0 139.0 Z"></path>
<path fill="#6666bb" fill-opacity="1.0"  filling="0" d="M160.0 161.0 C152.0 161.0 145.0 154.0 145.0 144.0 C145.0 135.0 152.0 128.0 160.0 128.0 C169.0 128.0 176.0 135.0 176.0 144.0 C176.0 154.0 169.0 161.0 160.0 161.0 L160.0 161.0 Z M160.0 131.0 C154.0 131.0 149.0 137.0 149.0 144.0 C149.0 152.0 154.0 158.0 160.0 158.0 C167.0 158.0 173.0 152.0 173.0 144.0 C173.0 137.0 167.0 131.0 160.0 131.0 L160.0 131.0 Z"></path>
<path fill="#ffbb55" fill-opacity="1.0"  filling="0" d="M75.0 133.0 A4.0 4.0 0.0 0 1 79.0 125.0 L121.0 125.0 C124.0 125.0 127.0 127.0 127.0 129.0 C127.0 131.0 126.0 133.0 125.0 133.0 C124.0 134.0 123.0 135.0 121.0 135.0 L79.0 135.0 C77.0 135.0 75.0 134.0 75.0 133.0 L75.0 133.0 Z"></path>
<path fill="#6666bb" fill-opacity="1.0"  filling="0" d="M121.0 136.0 L79.0 136.0 C76.0 136.0 73.0 134.0 73.0 130.0 C73.0 128.0 73.0 127.0 74.0 126.0 C75.0 125.0 77.0 124.0 79.0 124.0 L121.0 124.0 C125.0 124.0 128.0 126.0 128.0 129.0 C128.0 132.0 126.0 134.0 124.0 135.0 C123.0 136.0 122.0 136.0 121.0 136.0 L121.0 136.0 Z M79.0 126.0 C78.0 126.0 77.0 127.0 76.0 128.0 C76.0 128.0 76.0 129.0 76.0 130.0 C76.0 131.0 77.0 132.0 79.0 132.0 L121.0 132.0 C122.0 132.0 123.0 132.0 123.0 132.0 C124.0 131.0 125.0 130.0 125.0 129.0 C125.0 127.0 123.0 126.0 121.0 126.0 L79.0 126.0 L79.0 126.0 Z"></path>
<path fill="#6666bb" fill-opacity="1.0"  filling="0" d="M55.0 131.0 C54.0 131.0 54.0 131.0 54.0 131.0 C53.0 131.0 53.0 130.0 54.0 129.0 L62.0 124.0 C63.0 124.0 64.0 124.0 64.0 125.0 C65.0 125.0 64.0 126.0 64.0 127.0 L56.0 131.0 C55.0 131.0 55.0 131.0 55.0 131.0 L55.0 131.0 Z"></path>
<path fill="#000000" fill-opacity="1.0"  filling="0" d="M75.0 131.0 C74.0 131.0 74.0 131.0 74.0 130.0 C74.0 130.0 74.0 130.0 74.0 130.0 C74.0 130.0 74.0 130.0 74.0 130.0 C74.0 130.0 74.0 130.0 74.0 130.0 C74.0 130.0 74.0 130.0 74.0 130.0 C74.0 130.0 74.0 130.0 74.0 130.0 C74.0 130.0 74.0 130.0 74.0 130.0 C74.0 130.0 74.0 130.0 74.0 130.0 C74.0 130.0 74.0 130.0 74.0 130.0 C74.0 130.0 74.0 130.0 74.0 130.0 C74.0 130.0 74.0 130.0 74.0 130.0 C74.0 130.0 74.0 130.0 74.0 130.0 C74.0 130.0 74.0 130.0 74.0 130.0 C74.0 130.0 74.0 130.0 74.0 130.0 C74.0 130.0 74.0 130.0 74.0 130.0 C74.0 130.0 74.0 130.0 74.0 130.0 C74.0 130.0 74.0 130.0 74.0 130.0 C74.0 130.0 74.0 130.0 74.0 130.0 C74.0 130.0 74.0 130.0 74.0 130.0 C74.0 130.0 74.0 130.0 74.0 130.0 C74.0 130.0 74.0 130.0 74.0 130.0 C74.0 130.0 74.0 130.0 74.0 130.0 C74.0 130.0 74.0 130.0 74.0 130.0 C74.0 130.0 74.0 130.0 74.0 130.0 C74.0 130.0 74.0 130.0 74.0 130.0 C74.0 130.0 74.0 130.0 74.0 130.0 C74.0 130.0 74.0 130.0 74.0 130.0 C74.0 130.0 74.0 130.0 74.0 130.0 C74.0 130.0 74.0 130.0 74.0 130.0 C74.0 130.0 74.0 130.0 74.0 130.0 C74.0 130.0 74.0 130.0 74.0 130.0 C74.0 130.0 74.0 130.0 74.0 130.0 C74.0 130.0 74.0 130.0 74.0 130.0 C74.0 130.0 74.0 130.0 74.0 130.0 C74.0 130.0 74.0 130.0 74.0 130.0 C74.0 130.0 74.0 130.0 74.0 130.0 C74.0 130.0 74.0 130.0 74.0 130.0 C74.0 130.0 74.0 130.0 74.0 130.0 C74.0 130.0 74.0 130.0 74.0 130.0 C74.0 130.0 74.0 130.0 74.0 130.0 C74.0 130.0 74.0 130.0 74.0 130.0 C74.0 130.0 74.0 130.0 74.0 130.0 C74.0 130.0 74.0 130.0 74.0 130.0 C74.0 130.0 74.0 130.0 74.0 130.0 C74.0 130.0 74.0 130.0 74.0 130.0 C74.0 130.0 74.0 130.0 74.0 130.0 C74.0 130.0 74.0 130.0 74.0 130.0 C74.0 130.0 74.0 130.0 74.0 130.0 C74.0 130.0 74.0 130.0 74.0 130.0 C74.0 130.0 74.0 130.0 74.0 130.0 C74.0 130.0 74.0 130.0 74.0 130.0 C74.0 130.0 74.0 130.0 74.0 130.0 C74.0 130.0 74.0 130.0 74.0 130.0 C74.0 130.0 74.0 130.0 74.0 130.0 C74.0 130.0 74.0 130.0 74.0 130.0 C74.0 130.0 74.0 130.0 74.0 130.0 C74.0 130.0 74.0 130.0 74.0 130.0 C74.0 130.0 74.0 130.0 74.0 130.0 C74.0 130.0 74.0 130.0 74.0 130.0 C74.0 130.0 74.0 130.0 74.0 130.0 C74.0 130.0 74.0 130.0 74.0 130.0 C74.0 130.0 74.0 130.0 74.0 130.0 C74.0 130.0 74.0 130.0 74.0 130.0 C74.0 130.0 74.0 130.0 74.0 130.0 C74.0 130.0 74.0 130.0 74.0 130.0 C74.0 130.0 74.0 130.0 74.0 130.0 C74.0 130.0 74.0 130.0 74.0 130.0 C74.0 130.0 74.0 130.0 74.0 130.0 C74.0 130.0 74.0 130.0 74.0 130.0 C74.0 130.0 74.0 130.0 74.0 130.0 C74.0 130.0 74.0 130.0 74.0 130.0 C74.0 130.0 74.0 130.0 74.0 130.0 C74.0 130.0 74.0 130.0 74.0 130.0 C74.0 130.0 74.0 130.0 74.0 130.0 C74.0 130.0 74.0 130.0 74.0 130.0 C74.0 130.0 74.0 130.0 74.0 130.0 C74.0 130.0 74.0 130.0 74.0 130.0 C74.0 130.0 74.0 130.0 74.0 130.0 C74.0 130.0 74.0 130.0 74.0 130.0 C74.0 130.0 74.0 130.0 74.0 130.0 C74.0 130.0 74.0 130.0 74.0 130.0 C74.0 130.0 74.0 130.0 74.0 130.0 C74.0 130.0 74.0 130.0 74.0 130.0 C74.0 130.0 74.0 130.0 74.0 130.0 C74.0 130.0 74.0 130.0 74.0 130.0 C74.0 130.0 74.0 130.0 74.0 130.0 C74.0 130.0 74.0 130.0 74.0 130.0 C74.0 130.0 74.0 130.0 74.0 130.0 C74.0 130.0 74.0 130.0 74.0 130.0 C74.0 130.0 74.0 130.0 74.0 130.0 C74.0 130.0 74.0 130.0 74.0 130.0 C74.0 130.0 74.0 130.0 74.0 130.0 C74.0 130.0 74.0 130.0 74.0 130.0 C74.0 130.0 74.0 130.0 74.0 130.0 C74.0 130.0 74.0 130.0 74.0 130.0 C74.0 130.0 74.0 130.0 74.0 130.0 C74.0 130.0 74.0 130.0 74.0 130.0 C74.0 130.0 74.0 130.0 74.0 130.0 C74.0 130.0 74.0 130.0 74.0 130.0 C74.0 130.0 74.0 130.0 74.0 130.0 C74.0 130.0 74.0 130.0 74.0 130.0 C74.0 130.0 74.0 130.0 74.0 130.0 C74.0 130.0 74.0 130.0 74.0 130.0 C74.0 130.0 74.0 130.0 74.0 130.0 C74.0 130.0 74.0 130.0 74.0 130.0 C74.0 130.0 74.0 130.0 74.0 130.0 C74.0 130.0 74.0 130.0 74.0 130.0 C74.0 130.0 74.0 130.0 74.0 130.0 C74.0 130.0 74.0 130.0 74.0 130.0 C74.0 130.0 74.0 130.0 74.0 130.0 C74.0 130.0 74.0 130.0 74.0 130.0 C74.0 130.0 74.0 130.0 74.0 130.0 C74.0 130.0 74.0 130.0 74.0 130.0 C74.0 130.0 74.0 130.0 74.0 130.0 C74.0 130.0 74.0 130.0 74.0 130.0 C74.0 130.0 74.0 130.0 74.0 130.0 C74.0 130.0 74.0 130.0 74.0 130.0 C74.0 130.0 74.0 130.0 74.0 130.0 C74.0 130.0 74.0 130.0 74.0 130.0 C74.0 130.0 74.0 130.0 74.0 130.0 C74.0 130.0 74.0 130.0 74.0 130.0 C74.0 130.0 74.0 130.0 74.0 130.0 C74.0 130.0 74.0 130.0 74.0 130.0 C74.0 130.0 74.0 130.0 74.0 130.0 C74.0 130.0 74.0 130.0 74.0 130.0 C74.0 130.0 74.0 130.0 74.0 130.0 C74.0 130.0 74.0 130.0 74.0 130.0 C74.0 130.0 74.0 130.0 74.0 130.0 C74.0 130.0 74.0 130.0 74.0 130.0 C74.0 130.0 74.0 130.0 74.0 130.0 C74.0 130.0 74.0 130.0 74.0 130.0 C74.0 130.0 74.0 130.0 74.0 130.0 C74.0 130.0 74.0 130.0 74.0 130.0 C74.0 130.0 74.0 130.0 74.0 130.0 C74.0 130.0 74.0 130.0 74.0 130.0 C74.0 130.0 74.0 130.0 74.0 130.0 C74.0 130.0 74.0 130.0 74.0 130.0 C74.0 130.0 74.0 130.0 74.0 130.0 C74.0 130.0 74.0 130.0 74.0 130.0 C74.0 130.0 74.0 130.0 74.0 130.0 C74.0 130.0 74.0 130.0 74.0 130.0 C74.0 130.0 74.0 130.0 74.0 130.0 C74.0 130.0 74.0 130.0 74.0 130.0 C74.0 130.0 74.0 130.0 74.0 130.0 C74.0 130.0 74.0 130.0 74.0 130.0 C74.0 130.0 74.0 130.0 74.0 130.0 C74.0 130.0 74.0 130.0 74.0 130.0 C74.0 130.0 74.0 130.0 74.0 130.0 C74.0 130.0 74.0 130.0 74.0 130.0 C74.0 130.0 74.0 130.0 74.0 130.0 C74.0 130.0 74.0 130.0 74.0 130.0 C74.0 130.0 74.0 130.0 74.0 130.0 C74.0 130.0 74.0 130.0 74.0 130.0 C74.0 130.0 74.0 130.0 74.0 130.0 C74.0 130.0 74.0 130.0 74.0 130.0 C74.0 130.0 74.0 130.0 74.0 130.0 C74.0 130.0 74.0 130.0 74.0 130.0 C74.0 130.0 74.0 130.0 74.0 130.0 C74.0 130.0 74.0 130.0 74.0 130.0 C74.0 130.0 74.0 130.0 74.0 130.0 C74.0 130.0 74.0 130.0 74.0 130.0 C74.0 130.0 74.0 130.0 74.0 130.0 C74.0 130.0 74.0 130.0 74.0 130.0 C74.0 130.0 74.0 130.0 74.0 130.0 C74.0 130.0 74.0 130.0 74.0 130.0 C74.0 130.0 74.0 130.0 74.0 130.0 C74.0 130.0 126.0 130.0 126.0 130.0 C126.0 130.0 126.0 130.0 126.0 130.0 C126.0 130.0 126.0 130.0 126.0 130.0 C126.0 130.0 126.0 130.0 126.0 130.0 C126.0 130.0 126.0 130.0 126.0 130.0 C126.0 130.0 126.0 130.0 126.0 130.0 C126.0 130.0 126.0 130.0 126.0 130.0 C126.0 130.0 126.0 130.0 126.0 130.0 C126.0 130.0 126.0 130.0 126.0 130.0 C126.0 130.0 126.0 130.0 126.0 130.0 C126.0 130.0 126.0 130.0 126.0 130.0 C126.0 130.0 126.0 130.0 126.0 130.0 C126.0 130.0 126.0 130.0 126.0 130.0 C126.0 130.0 126.0 130.0 126.0 130.0 C126.0 130.0 126.0 130.0 126.0 130.0 C126.0 130.0 126.0 130.0 126.0 130.0 C126.0 130.0 126.0 130.0 126.0 130.0 C126.0 130.0 126.0 130.0 126.0 130.0 C126.0 130.0 126.0 130.0 126.0 130.0 C126.0 130.0 126.0 130.0 126.0 130.0 C126.0 130.0 126.0 130.0 126.0 130.0 C126.0 130.0 126.0 130.0 126.0 130.0 C126.0 130.0 126.0 130.0 126.0 130.0 C126.0 130.0 126.0 130.0 126.0 130.0 C126.0 130.0 126.0 130.0 126.0 130.0 C126.0 130.0 126.0 130.0 126.0 130.0 C126.0 130.0 126.0 130.0 126.0 130.0 C126.0 130.0 126.0 130.0 126.0 130.0 C126.0 130.0 126.0 130.0 126.0 130.0 C126.0 130.0 126.0 130.0 126.0 130.0 C126.0 130.0 126.0 130.0 126.0 130.0 C126.0 130.0 126.0 130.0 126.0 130.0 C126.0 130.0 126.0 130.0 126.0 130.0 C126.0 130.0 126.0 130.0 126.0 130.0 C126.0 130.0 126.0 130.0 126.0 130.0 C126.0 130.0 126.0 130.0 126.0 130.0 C126.0 130.0 126.0 130.0 126.0 130.0 C126.0 130.0 126.0 130.0 126.0 130.0 C126.0 130.0 126.0 130.0 126.0 130.0 C126.0 130.0 126.0 130.0 126.0 130.0 C126.0 130.0 126.0 130.0 126.0 130.0 C126.0 130.0 126.0 130.0 126.0 130.0 C126.0 130.0 126.0 130.0 126.0 130.0 C126.0 130.0 126.0 130.0 126.0 130.0 C126.0 130.0 126.0 130.0 126.0 130.0 C126.0 130.0 126.0 130.0 126.0 130.0 C126.0 130.0 126.0 130.0 126.0 130.0 C126.0 130.0 126.0 130.0 126.0 130.0 C126.0 130.0 126.0 130.0 126.0 130.0 C126.0 130.0 126.0 130.0 126.0 130.0 C126.0 130.0 126.0 130.0 126.0 130.0 C126.0 130.0 126.0 130.0 126.0 130.0 C126.0 130.0 126.0 130.0 126.0 130.0 C126.0 130.0 126.0 130.0 126.0 130.0 C126.0 130.0 126.0 130.0 126.0 130.0 C126.0 130.0 126.0 130.0 126.0 130.0 C126.0 130.0 126.0 130.0 126.0 130.0 C126.0 130.0 126.0 130.0 126.0 130.0 C126.0 130.0 126.0 130.0 126.0 130.0 C126.0 130.0 126.0 130.0 126.0 130.0 C126.0 130.0 126.0 130.0 126.0 130.0 C126.0 130.0 126.0 130.0 126.0 130.0 C126.0 130.0 126.0 130.0 126.0 130.0 C126.0 130.0 126.0 130.0 126.0 130.0 C126.0 130.0 126.0 130.0 126.0 130.0 C126.0 130.0 126.0 130.0 126.0 130.0 C126.0 130.0 126.0 130.0 126.0 130.0 C126.0 130.0 126.0 130.0 126.0 130.0 C126.0 130.0 126.0 130.0 126.0 130.0 C126.0 130.0 126.0 130.0 126.0 130.0 C126.0 130.0 126.0 130.0 126.0 130.0 C126.0 130.0 126.0 130.0 126.0 130.0 C126.0 130.0 126.0 130.0 126.0 130.0 C126.0 130.0 126.0 130.0 126.0 130.0 C126.0 130.0 126.0 130.0 126.0 130.0 C126.0 130.0 126.0 130.0 126.0 130.0 C126.0 130.0 126.0 130.0 126.0 130.0 C126.0 130.0 126.0 130.0 126.0 130.0 C126.0 130.0 126.0 130.0 126.0 130.0 C126.0 130.0 126.0 130.0 126.0 130.0 C126.0 130.0 126.0 130.0 126.0 130.0 C126.0 130.0 126.0 130.0 126.0 130.0"></path></svg>