<svg xmlns="http://www.w3.org/2000/svg" viewBox="0.0 0.0 200.0 200.0" height="200px" width="200px"><path fill="#6666bb" fill-opacity="1.0"  filling="0" d="M150.0 125.0 L51.0 125.0 C50.0 125.0 49.0 124.0 49.0 123.0 C49.0 122.0 50.0 121.0 51.0 121.0 L150.0 121.0 C151.0 121.0 152.0 122.0 152.0 123.0 C152.0 124.0 151.0 125.0 150.0 125.0 L150.0 125.0 Z M150.0 150.0 L51.0 150.0 C50.0 150.0 49.0 150.0 49.0 148.0 C49.0 147.0 50.0 147.0 51.0 147.0 L150.0 147.0 C151.0 147.0 152.0 147.0 152.0 148.0 C152.0 150.0 151.0 150.0 150.0 150.0 L150.0 150.0 Z"></path>
<path fill="#7799dd" fill-opacity="1.0"  filling="0" d="M52.0 131.0 A12.0 12.0 0.0 1 0 76.0 131.0 A12.0 12.0 0.0 1 0 52.0 131.0 L52.0 131.0 Z"></path>
<path fill="#6666bb" fill-opacity="1.0"  filling="0" d="M64.0 143.0 C57.0 143.0 51.0 138.0 51.0 131.0 C51.0 124.0 57.0 118.0 64.0 118.0 C71.0 118.0 77.0 124.0 77.0 131.0 C77.0 138.0 71.0 143.0 64.0 143.0 L64.0 143.0 Z M64.0 121.0 C59.0 121.0 54.0 126.0 54.0 131.0 C54.0 136.0 59.0 140.0 64.0 140.0 C69.0 140.0 73.0 136.0 73.0 131.0 C73.0 126.0 69.0 121.0 64.0 121.0 L64.0 121.0 Z"></path>
<path fill="#7799dd" fill-opacity="1.0"  filling="0" d="M124.0 131.0 A12.0 12.0 0.0 1 0 148.0 131.0 A12.0 12.0 0.0 1 0 124.0 131.0 L124.0 131.0 Z"></path>
<path fill="#6666bb" fill-opacity="1.0"  filling="0" d="M136.0 143.0 C129.0 143.0 123.0 138.0 123.0 131.0 C123.0 124.0 129.0 118.0 136.0 118.0 C143.0 118.0 149.0 124.0 149.0 131.0 C149.0 138.0 143.0 143.0 136.0 143.0 L136.0 143.0 Z M136.0 121.0 C131.0 121.0 127.0 126.0 127.0 131.0 C127.0 136.0 131.0 140.0 136.0 140.0 C141.0 140.0 145.0 136.0 145.0 131.0 C145.0 126.0 141.0 121.0 136.0 121.0 L136.0 121.0 Z"></path>
<path fill="#6666bb" fill-opacity="1.0"  filling="0" d="M124.0 131.0 C124.0 131.0 124.0 131.0 124.0 131.0 L76.0 131.0 C75.0 131.0 74.0 131.0 74.0 130.0 C74.0 129.0 75.0 128.0 76.0 128.0 L124.0 128.0 C125.0 128.0 126.0 129.0 126.0 130.0 C126.0 131.0 125.0 131.0 124.0 131.0 L124.0 131.0 Z"></path>
<path fill="#7799dd" fill-opacity="1.0"  filling="0" d="M29.0 139.0 A12.0 12.0 0.0 1 0 54.0 139.0 A12.0 12.0 0.0 1 0 29.0 139.0 L29.0 139.0 Z"></path>
<path fill="#6666bb" fill-opacity="1.0"  filling="0" d="M43.0 152.0 C35.0 152.0 28.0 146.0 28.0 139.0 C28.0 132.0 35.0 126.0 43.0 126.0 C51.0 126.0 57.0 132.0 57.0 139.0 C57.0 146.0 51.0 152.0 43.0 152.0 L43.0 152.0 Z M43.0 130.0 C37.0 130.0 31.0 134.0 31.0 139.0 C31.0 145.0 37.0 149.0 43.0 149.0 C49.0 149.0 53.0 145.0 53.0 139.0 C53.0 134.0 49.0 130.0 43.0 130.0 L43.0 130.0 Z"></path>
<path fill="#7799dd" fill-opacity="1.0"  filling="0" d="M146.0 139.0 A12.0 12.0 0.0 1 0 172.0 139.0 A12.0 12.0 0.0 1 0 146.0 139.0 L146.0 139.0 Z"></path>
<path fill="#6666bb" fill-opacity="1.0"  filling="0" d="M160.0 152.0 C152.0 152.0 146.0 146.0 146.0 139.0 C146.0 132.0 152.0 126.0 160.0 126.0 C168.0 126.0 174.0 132.0 174.0 139.0 C174.0 146.0 168.0 152.0 160.0 152.0 L160.0 152.0 Z M160.0 130.0 C154.0 130.0 149.0 134.0 149.0 139.0 C149.0 145.0 154.0 149.0 160.0 149.0 C166.0 149.0 171.0 145.0 171.0 139.0 C171.0 134.0 166.0 130.0 160.0 130.0 L160.0 130.0 Z"></path>
<path fill="#6666bb" fill-opacity="1.0"  filling="0" d="M175.0 150.0 L173.0 150.0 C172.0 150.0 171.0 149.0 171.0 148.0 C171.0 147.0 172.0 146.0 173.0 146.0 L175.0 146.0 C176.0 146.0 177.0 147.0 177.0 148.0 C177.0 149.0 176.0 150.0 175.0 150.0 L175.0 150.0 Z M28.0 150.0 L25.0 150.0 C24.0 150.0 24.0 149.0 24.0 148.0 C24.0 147.0 24.0 146.0 25.0 146.0 L28.0 146.0 C29.0 146.0 30.0 147.0 30.0 148.0 C30.0 149.0 29.0 150.0 28.0 150.0 L28.0 150.0 Z M162.0 166.0 L164.0 166.0 C165.0 166.0 166.0 166.0 166.0 164.0 C166.0 163.0 165.0 163.0 164.0 163.0 L162.0 163.0 C161.0 163.0 160.0 163.0 160.0 164.0 C160.0 166.0 161.0 166.0 162.0 166.0 L162.0 166.0 Z M36.0 166.0 L38.0 166.0 C39.0 166.0 40.0 166.0 40.0 164.0 C40.0 163.0 39.0 163.0 38.0 163.0 L36.0 163.0 C35.0 163.0 34.0 163.0 34.0 164.0 C34.0 166.0 35.0 166.0 36.0 166.0 L36.0 166.0 Z M152.0 166.0 L154.0 166.0 C155.0 166.0 156.0 166.0 156.0 164.0 C156.0 163.0 155.0 163.0 154.0 163.0 L152.0 163.0 C151.0 163.0 151.0 163.0 151.0 164.0 C151.0 166.0 151.0 166.0 152.0 166.0 L152.0 166.0 Z M45.0 166.0 L47.0 166.0 C48.0 166.0 49.0 166.0 49.0 164.0 C49.0 163.0 48.0 163.0 47.0 163.0 L45.0 163.0 C44.0 163.0 43.0 163.0 43.0 164.0 C43.0 166.0 44.0 166.0 45.0 166.0 L45.0 166.0 Z M138.0 166.0 L138.0 166.0 C139.0 166.0 140.0 166.0 140.0 164.0 C140.0 163.0 139.0 163.0 138.0 163.0 L138.0 163.0 C137.0 163.0 136.0 163.0 136.0 164.0 C136.0 166.0 137.0 166.0 138.0 166.0 L138.0 166.0 Z M62.0 166.0 L66.0 166.0 C66.0 166.0 67.0 166.0 67.0 164.0 C67.0 163.0 66.0 163.0 66.0 163.0 L62.0 163.0 C61.0 163.0 61.0 163.0 61.0 164.0 C61.0 166.0 61.0 166.0 62.0 166.0 L62.0 166.0 Z M127.0 166.0 L121.0 166.0 C120.0 166.0 119.0 166.0 119.0 164.0 C119.0 163.0 120.0 163.0 121.0 163.0 L127.0 163.0 C128.0 163.0 128.0 163.0 128.0 164.0 C128.0 166.0 128.0 166.0 127.0 166.0 L127.0 166.0 Z M79.0 166.0 L83.0 166.0 C84.0 166.0 85.0 166.0 85.0 164.0 C85.0 163.0 84.0 163.0 83.0 163.0 L79.0 163.0 C78.0 163.0 78.0 163.0 78.0 164.0 C78.0 166.0 78.0 166.0 79.0 166.0 L79.0 166.0 Z M114.0 166.0 L117.0 166.0 C117.0 166.0 118.0 166.0 118.0 164.0 C118.0 163.0 117.0 163.0 117.0 163.0 L114.0 163.0 C114.0 163.0 113.0 163.0 113.0 164.0 C113.0 166.0 114.0 166.0 114.0 166.0 L114.0 166.0 Z"></path>
<path fill="#6666bb" fill-opacity="1.0"  filling="0" d="M53.0 131.0 C53.0 131.0 53.0 131.0 53.0 131.0 L48.0 131.0 C47.0 131.0 47.0 130.0 47.0 129.0 C47.0 128.0 47.0 128.0 48.0 128.0 L52.0 128.0 C52.0 128.0 52.0 128.0 52.0 128.0 C52.0 128.0 52.0 128.0 52.0 128.0 L58.0 128.0 C59.0 128.0 60.0 128.0 60.0 129.0 C60.0 130.0 59.0 131.0 58.0 131.0 L53.0 131.0 L53.0 131.0 Z"></path>
<path fill="#6666bb" fill-opacity="1.0"  filling="0" d="M150.0 131.0 L142.0 131.0 C141.0 131.0 140.0 130.0 140.0 129.0 C140.0 128.0 141.0 128.0 142.0 128.0 L150.0 128.0 C151.0 128.0 151.0 128.0 151.0 129.0 C151.0 130.0 151.0 131.0 150.0 131.0 L150.0 131.0 Z"></path>
<path fill="#000000" fill-opacity="1.0"  filling="0" d="M72.0 100.0 C68.0 100.0 66.0 94.0 66.0 91.0 C66.0 89.0 65.0 87.0 65.0 86.0 C65.0 84.0 64.0 82.0 64.0 81.0 C64.0 81.0 64.0 81.0 64.0 81.0 C64.0 81.0 64.0 81.0 64.0 81.0 C64.0 81.0 64.0 81.0 64.0 81.0 C64.0 81.0 64.0 81.0 64.0 81.0 C64.0 81.0 64.0 81.0 64.0 81.0 C64.0 81.0 64.0 81.0 64.0 81.0 C64.0 81.0 64.0 81.0 64.0 81.0 C64.0 81.0 64.0 81.0 64.0 81.0 C64.0 81.0 64.0 81.0 64.0 81.0 C64.0 81.0 64.0 81.0 64.0 81.0 C64.0 81.0 64.0 81.0 64.0 81.0 C64.0 81.0 64.0 81.0 64.0 81.0 C64.0 81.0 64.0 81.0 64.0 81.0 C64.0 81.0 64.0 81.0 64.0 81.0 C64.0 81.0 64.0 81.0 64.0 81.0 C64.0 81.0 64.0 81.0 64.0 81.0 C64.0 81.0 64.0 81.0 64.0 81.0 C64.0 81.0 64.0 81.0 64.0 81.0 C64.0 81.0 64.0 81.0 64.0 81.0 C64.0 81.0 64.0 81.0 64.0 81.0 C64.0 81.0 64.0 81.0 64.0 81.0 C64.0 81.0 64.0 81.0 64.0 81.0 C64.0 81.0 64.0 81.0 64.0 81.0 C64.0 81.0 64.0 81.0 64.0 81.0 C64.0 81.0 64.0 81.0 64.0 81.0 C64.0 81.0 64.0 81.0 64.0 81.0 C64.0 81.0 64.0 81.0 64.0 81.0 C64.0 81.0 64.0 81.0 64.0 81.0 C64.0 81.0 64.0 81.0 64.0 81.0 C64.0 81.0 64.0 81.0 64.0 81.0 C64.0 81.0 64.0 81.0 64.0 81.0 C64.0 81.0 64.0 81.0 64.0 81.0 C64.0 81.0 64.0 81.0 64.0 81.0 C64.0 81.0 64.0 81.0 64.0 81.0 C64.0 81.0 64.0 81.0 64.0 81.0 C64.0 81.0 64.0 81.0 64.0 81.0 C64.0 81.0 64.0 81.0 64.0 81.0 C64.0 81.0 64.0 81.0 64.0 81.0 C64.0 81.0 64.0 81.0 64.0 81.0 C64.0 81.0 64.0 81.0 64.0 81.0 C64.0 81.0 64.0 81.0 64.0 81.0 C64.0 81.0 64.0 81.0 64.0 81.0 C64.0 81.0 64.0 81.0 64.0 81.0 C64.0 81.0 64.0 81.0 64.0 81.0 C64.0 81.0 64.0 81.0 64.0 81.0 C64.0 81.0 64.0 81.0 64.0 81.0 C64.0 81.0 64.0 81.0 64.0 81.0 C64.0 81.0 64.0 81.0 64.0 81.0 C64.0 81.0 64.0 81.0 64.0 81.0 C64.0 81.0 64.0 81.0 64.0 81.0 C64.0 81.0 64.0 81.0 64.0 81.0 C64.0 81.0 64.0 81.0 64.0 81.0 C64.0 81.0 64.0 81.0 64.0 81.0 C64.0 81.0 64.0 81.0 64.0 81.0 C64.0 81.0 64.0 81.0 64.0 81.0 C64.0 81.0 64.0 81.0 64.0 81.0 C64.0 81.0 64.0 81.0 64.0 81.0 C64.0 81.0 64.0 81.0 64.0 81.0 C64.0 81.0 64.0 81.0 64.0 81.0 C64.0 81.0 64.0 81.0 64.0 81.0 C64.0 81.0 64.0 81.0 64.0 81.0 C64.0 81.0 64.0 81.0 64.0 81.0 C64.0 81.0 64.0 81.0 64.0 81.0 C64.0 81.0 64.0 81.0 64.0 81.0 C64.0 81.0 64.0 81.0 64.0 81.0 C64.0 81.0 64.0 81.0 64.0 81.0 C64.0 81.0 64.0 81.0 64.0 81.0 C64.0 81.0 64.0 81.0 64.0 81.0 C64.0 81.0 64.0 81.0 64.0 81.0 C64.0 81.0 64.0 81.0 64.0 81.0 C64.0 81.0 64.0 81.0 64.0 81.0 C64.0 81.0 64.0 81.0 64.0 81.0 C64.0 81.0 64.0 81.0 64.0 81.0 C64.0 81.0 64.0 81.0 64.0 81.0 C64.0 81.0 64.0 81.0 64.0 81.0 C64.0 81.0 64.0 81.0 64.0 81.0 C64.0 81.0 64.0 81.0 64.0 81.0 C64.0 81.0 64.0 81.0 64.0 81.0 C64.0 81.0 64.0 81.0 64.0 81.0 C64.0 81.0 64.0 81.0 64.0 81.0 C64.0 81.0 64.0 81.0 64.0 81.0 C64.0 81.0 64.0 81.0 64.0 81.0 C64.0 81.0 64.0 81.0 64.0 81.0 C64.0 81.0 64.0 81.0 64.0 81.0 C64.0 81.0 64.0 81.0 64.0 81.0 C64.0 81.0 64.0 81.0 64.0 81.0 C64.0 81.0 64.0 81.0 64.0 81.0 C64.0 81.0 64.0 81.0 64.0 81.0 C64.0 81.0 64.0 81.0 64.0 81.0 C64.0 81.0 64.0 81.0 64.0 81.0 C64.0 81.0 64.0 81.0 64.0 81.0 C64.0 81.0 64.0 81.0 64.0 81.0 C64.0 81.0 64.0 81.0 64.0 81.0 C64.0 81.0 64.0 81.0 64.0 81.0 C64.0 81.0 64.0 81.0 64.0 81.0 C64.0 81.0 64.0 81.0 64.0 81.0 C64.0 81.0 64.0 81.0 64.0 81.0 C64.0 81.0 64.0 81.0 64.0 81.0 C64.0 81.0 64.0 81.0 64.0 81.0 C64.0 81.0 64.0 81.0 64.0 81.0 C64.0 81.0 64.0 81.0 64.0 81.0 C64.0 81.0 64.0 81.0 64.0 81.0 C64.0 81.0 64.0 81.0 64.0 81.0 C64.0 81.0 64.0 81.0 64.0 81.0 C64.0 81.0 64.0 81.0 64.0 81.0 C64.0 81.0 64.0 81.0 64.0 81.0 C64.0 81.0 64.0 81.0 64.0 81.0 C64.0 81.0 64.0 81.0 64.0 81.0 C64.0 81.0 64.0 81.0 64.0 81.0 C64.0 81.0 64.0 81.0 64.0 81.0 C64.0 81.0 64.0 81.0 64.0 81.0 C64.0 81.0 64.0 81.0 64.0 81.0 C64.0 81.0 64.0 81.0 64.0 81.0 C64.0 81.0 64.0 81.0 64.0 81.0 C64.0 81.0 64.0 81.0 64.0 81.0 C64.0 81.0 64.0 81.0 64.0 81.0 C64.0 81.0 64.0 81.0 64.0 81.0 C64.0 81.0 64.0 81.0 64.0 81.0 C64.0 81.0 64.0 81.0 64.0 81.0 C64.0 81.0 64.0 81.0 64.0 81.0 C64.0 81.0 64.0 81.0 64.0 81.0 C64.0 81.0 64.0 81.0 64.0 81.0 C64.0 81.0 64.0 81.0 64.0 81.0 C64.0 81.0 64.0 81.0 64.0 81.0 C64.0 81.0 64.0 81.0 64.0 81.0 C64.0 81.0 64.0 81.0 64.0 81.0 C64.0 81.0 64.0 81.0 64.0 81.0 C64.0 81.0 64.0 81.0 64.0 81.0 C64.0 81.0 64.0 81.0 64.0 81.0 C64.0 81.0 64.0 81.0 64.0 81.0 C64.0 81.0 64.0 81.0 64.0 81.0 C64.0 81.0 64.0 81.0 64.0 81.0 C64.0 81.0 64.0 81.0 64.0 81.0 C64.0 81.0 64.0 81.0 64.0 81.0 C64.0 81.0 64.0 81.0 64.0 81.0 C64.0 81.0 64.0 81.0 64.0 81.0 C64.0 81.0 64.0 81.0 64.0 81.0 C64.0 81.0 64.0 81.0 64.0 81.0 C64.0 81.0 64.0 81.0 64.0 81.0 C64.0 81.0 64.0 81.0 64.0 81.0 C64.0 81.0 64.0 81.0 64.0 81.0 C64.0 81.0 64.0 81.0 64.0 81.0 C64.0 81.0 64.0 81.0 64.0 81.0 C64.0 81.0 64.0 81.0 64.0 81.0 C64.0 81.0 64.0 81.0 64.0 81.0 C64.0 81.0 64.0 81.0 64.0 81.0 C64.0 81.0 64.0 81.0 64.0 81.0 C64.0 81.0 64.0 119.0 64.0 119.0 C64.0 119.0 64.0 119.0 64.0 119.0 C64.0 119.0 64.0 119.0 64.0 119.0 C64.0 119.0 64.0 119.0 64.0 119.0 C64.0 119.0 64.0 119.0 64.0 119.0 C64.0 119.0 64.0 119.0 64.0 119.0 C64.0 119.0 64.0 119.0 64.0 119.0 C64.0 119.0 64.0 119.0 64.0 119.0 C64.0 119.0 64.0 119.0 64.0 119.0 C64.0 119.0 64.0 119.0 64.0 119.0 C64.0 119.0 64.0 119.0 64.0 119.0 C64.0 119.0 64.0 119.0 64.0 119.0 C64.0 119.0 64.0 119.0 64.0 119.0 C64.0 119.0 64.0 119.0 64.0 119.0 C64.0 119.0 64.0 119.0 64.0 119.0 C64.0 119.0 64.0 119.0 64.0 119.0"></path></svg>