<svg xmlns="http://www.w3.org/2000/svg" viewBox="0.0 0.0 200.0 200.0" height="200px" width="200px"><path fill="#6666bb" fill-opacity="1.0"  filling="0" d="M150.0 125.0 L51.0 125.0 C50.0 125.0 49.0 124.0 49.0 123.0 C49.0 122.0 50.0 121.0 51.0 121.0 L150.0 121.0 C151.0 121.0 152.0 122.0 152.0 123.0 C152.0 124.0 151.0 125.0 150.0 125.0 L150.0 125.0 Z M150.0 150.0 L51.0 150.0 C50.0 150.0 49.0 150.0 49.0 148.0 C49.0 147.0 50.0 147.0 51.0 147.0 L150.0 147.0 C151.0 147.0 152.0 147.0 152.0 148.0 C152.0 150.0 151.0 150.0 150.0 150.0 L150.0 150.0 Z"></path>
<path fill="#6666bb" fill-opacity="1.0"  filling="0" d="M55.0 131.0 L145.0 131.0 C150.0 131.0 154.0 135.0 154.0 140.0 L154.0 148.0 C154.0 153.0 150.0 157.0 145.0 157.0 L55.0 157.0 C50.0 157.0 46.0 153.0 46.0 148.0 L46.0 140.0 C46.0 135.0 50.0 131.0 55.0 131.0 L55.0 131.0 Z M55.0 119.0 L145.0 119.0 C150.0 119.0 154.0 123.0 154.0 128.0 L154.0 139.0 C154.0 144.0 150.0 148.0 145.0 148.0 L55.0 148.0 C50.0 148.0 46.0 144.0 46.0 139.0 L46.0 128.0 C46.0 123.0 50.0 119.0 55.0 119.0 L55.0 119.0 Z M63.0 163.0 L83.0 163.0 C84.0 163.0 85.0 163.0 85.0 164.0 C85.0 166.0 84.0 166.0 83.0 166.0 L63.0 166.0 C61.0 166.0 61.0 166.0 61.0 164.0 C61.0 163.0 61.0 163.0 63.0 163.0 L63.0 163.0 Z M120.0 163.0 L138.0 163.0 C139.0 163.0 140.0 163.0 140.0 164.0 C140.0 166.0 139.0 166.0 138.0 166.0 L120.0 166.0 C118.0 166.0 117.0 166.0 117.0 164.0 C117.0 163.0 118.0 163.0 120.0 163.0 L120.0 163.0 Z"></path>
<path fill="#6688cc" fill-opacity="1.0"  filling="0" d="M30.0 145.0 A15.0 15.0 0.0 1 0 58.0 145.0 A15.0 15.0 0.0 1 0 30.0 145.0 L30.0 145.0 Z"></path>
<path fill="#6666bb" fill-opacity="1.0"  filling="0" d="M43.0 161.0 C34.0 161.0 27.0 154.0 27.0 145.0 C27.0 136.0 34.0 129.0 43.0 129.0 C52.0 129.0 59.0 136.0 59.0 145.0 C59.0 154.0 52.0 161.0 43.0 161.0 L43.0 161.0 Z M43.0 132.0 C36.0 132.0 30.0 138.0 30.0 145.0 C30.0 152.0 36.0 157.0 43.0 157.0 C50.0 157.0 56.0 152.0 56.0 145.0 C56.0 138.0 50.0 132.0 43.0 132.0 L43.0 132.0 Z"></path>
<path fill="#6688cc" fill-opacity="1.0"  filling="0" d="M150.0 144.0 A15.0 15.0 0.0 1 0 171.0 144.0 A15.0 15.0 0.0 1 0 150.0 144.0 L150.0 144.0 Z"></path>
<path fill="#6666bb" fill-opacity="1.0"  filling="0" d="M160.0 161.0 C152.0 161.0 145.0 154.0 145.0 144.0 C145.0 135.0 152.0 128.0 160.0 128.0 C169.0 128.0 175.0 135.0 175.0 144.0 C175.0 154.0 169.0 161.0 160.0 161.0 L160.0 161.0 Z M160.0 131.0 C154.0 131.0 149.0 137.0 149.0 144.0 C149.0 152.0 154.0 157.0 160.0 157.0 C167.0 157.0 172.0 152.0 172.0 144.0 C172.0 137.0 167.0 131.0 160.0 131.0 L160.0 131.0 Z"></path>
<path fill="#ffbb55" fill-opacity="1.0"  filling="0" d="M122.0 131.0 L79.0 131.0 C77.0 131.0 75.0 131.0 75.0 129.0 C75.0 127.0 77.0 125.0 79.0 125.0 L122.0 125.0 C124.0 125.0 126.0 127.0 126.0 129.0 C126.0 131.0 124.0 131.0 122.0 131.0 L122.0 131.0 Z"></path>
<path fill="#6666bb" fill-opacity="1.0"  filling="0" d="M122.0 133.0 L79.0 133.0 C76.0 133.0 73.0 131.0 73.0 129.0 C73.0 126.0 76.0 124.0 79.0 124.0 L122.0 124.0 C125.0 124.0 128.0 126.0 128.0 129.0 C128.0 131.0 125.0 133.0 122.0 133.0 L122.0 133.0 Z M79.0 127.0 C77.0 127.0 76.0 128.0 76.0 129.0 C76.0 130.0 77.0 130.0 79.0 130.0 L122.0 130.0 C124.0 130.0 125.0 130.0 125.0 129.0 C125.0 128.0 124.0 127.0 122.0 127.0 L79.0 127.0 L79.0 127.0 Z"></path>
<path fill="#6666bb" fill-opacity="1.0"  filling="0" d="M52.0 131.0 C51.0 131.0 51.0 130.0 51.0 130.0 C50.0 129.0 50.0 128.0 51.0 128.0 L60.0 124.0 C61.0 124.0 62.0 124.0 63.0 125.0 C63.0 126.0 62.0 127.0 61.0 127.0 L53.0 131.0 C52.0 131.0 52.0 131.0 52.0 131.0 L52.0 131.0 Z"></path>
<path fill="#6666bb" fill-opacity="1.0"  filling="0" d="M148.0 131.0 C147.0 131.0 147.0 131.0 147.0 131.0 L139.0 127.0 C138.0 127.0 138.0 126.0 138.0 125.0 C138.0 124.0 139.0 124.0 140.0 124.0 L148.0 128.0 C149.0 128.0 149.0 129.0 149.0 130.0 C148.0 130.0 148.0 131.0 148.0 131.0 L148.0 131.0 Z"></path>
<path fill="#6666bb" fill-opacity="1.0"  filling="0" d="M72.0 100.0 C73.0 100.0 74.0 100.0 75.0 99.0 C77.0 98.0 78.0 96.0 81.0 95.0 C86.0 94.0 92.0 92.0 99.0 91.0 C105.0 90.0 112.0 89.0 116.0 88.0 C122.0 88.0 126.0 87.0 128.0 86.0 C129.0 86.0 130.0 85.0 130.0 83.0 C132.0 74.0 134.0 67.0 134.0 62.0 C134.0 43.0 118.0 29.0 99.0 29.0 C81.0 29.0 68.0 42.0 65.0 59.0 C64.0 59.0 64.0 60.0 64.0 61.0 L63.0 75.0 C62.0 77.0 63.0 79.0 65.0 80.0 C66.0 80.0 67.0 80.0 68.0 80.0 C69.0 80.0 70.0 80.0 72.0 80.0 C79.0 80.0 88.0 79.0 97.0 78.0 C101.0 78.0 104.0 78.0 107.0 77.0 C112.0 75.0 116.0 69.0 115.0 63.0 C115.0 58.0 111.0 54.0 106.0 54.0 L70.0 54.0 C75.0 41.0 86.0 30.0 99.0 30.0 C117.0 30.0 133.0 45.0 133.0 62.0 C133.0 67.0 131.0 73.0 129.0 82.0 C128.0 83.0 128.0 84.0 127.0 84.0 C125.0 85.0 121.0 85.0 116.0 86.0 C111.0 86.0 105.0 87.0 99.0 89.0 C92.0 90.0 86.0 92.0 81.0 93.0 C78.0 94.0 75.0 96.0 74.0 97.0 C73.0 98.0 72.0 98.0 72.0 98.0 C70.0 98.0 68.0 95.0 67.0 90.0 C66.0 86.0 66.0 83.0 66.0 83.0 C66.0 82.0 65.0 81.0 64.0 81.0 C64.0 81.0 63.0 82.0 63.0 83.0 C63.0 83.0 63.0 86.0 64.0 90.0 C65.0 95.0 67.0 100.0 72.0 100.0 L72.0 100.0 Z M70.0 52.0 L106.0 52.0 C113.0 52.0 117.0 57.0 117.0 63.0 C118.0 70.0 113.0 76.0 108.0 78.0 C105.0 80.0 102.0 80.0 98.0 81.0 C89.0 81.0 79.0 82.0 72.0 82.0 C70.0 82.0 69.0 82.0 68.0 82.0 C68.0 84.0 68.0 86.0 69.0 89.0 C70.0 93.0 71.0 96.0 72.0 96.0 C72.0 96.0 73.0 96.0 73.0 95.0 C75.0 94.0 77.0 92.0 80.0 91.0 C85.0 89.0 91.0 87.0 98.0 86.0 C105.0 85.0 112.0 84.0 116.0 83.0 C121.0 83.0 124.0 82.0 126.0 82.0 C126.0 81.0 127.0 81.0 127.0 80.0 C130.0 72.0 131.0 66.0 131.0 62.0 C131.0 46.0 117.0 31.0 99.0 31.0 C88.0 31.0 77.0 39.0 72.0 52.0 L106.0 52.0 L70.0 52.0 L70.0 52.0 Z"></path>
<path fill="#99ddee" fill-opacity="1.0"  filling="0" d="M66.0 74.0 L68.0 61.0 C68.0 59.0 68.0 57.0 69.0 56.0 L69.0 56.0 C69.0 56.0 69.0 56.0 69.0 56.0 L106.0 56.0 C109.0 56.0 113.0 59.0 113.0 63.0 C113.0 68.0 110.0 73.0 106.0 74.0 C103.0 75.0 100.0 75.0 96.0 76.0 C88.0 77.0 79.0 77.0 72.0 77.0 C70.0 77.0 69.0 77.0 67.0 77.0 C66.0 77.0 65.0 76.0 66.0 74.0 L66.0 74.0 Z"></path>
<path fill="#6666bb" fill-opacity="1.0"  filling="0" d="M72.0 79.0 C70.0 79.0 69.0 79.0 67.0 79.0 C65.0 79.0 64.0 78.0 64.0 77.0 C63.0 76.0 63.0 75.0 63.0 74.0 L66.0 61.0 C66.0 59.0 66.0 57.0 67.0 56.0 C67.0 55.0 68.0 54.0 69.0 54.0 L106.0 54.0 C111.0 54.0 115.0 58.0 115.0 63.0 C116.0 70.0 112.0 76.0 107.0 78.0 C105.0 79.0 102.0 79.0 97.0 79.0 C89.0 78.0 79.0 79.0 72.0 79.0 L72.0 79.0 Z M69.0 76.0 C70.0 76.0 71.0 76.0 72.0 76.0 C79.0 76.0 88.0 75.0 96.0 75.0 C101.0 75.0 104.0 75.0 106.0 75.0 C110.0 74.0 113.0 69.0 113.0 64.0 C112.0 60.0 110.0 57.0 106.0 57.0 L69.0 57.0 C69.0 58.0 69.0 60.0 68.0 61.0 L65.0 75.0 C65.0 76.0 65.0 76.0 65.0 76.0 C65.0 76.0 66.0 76.0 67.0 76.0 C68.0 76.0 68.0 76.0 69.0 76.0 L69.0 76.0 Z"></path>
<path fill="#ddffff" fill-opacity="1.0"  filling="0" d="M78.0 52.0 L88.0 54.0 L68.0 78.0 L64.0 76.0 L78.0 52.0 L78.0 52.0 Z"></path></svg>