<svg xmlns="http://www.w3.org/2000/svg" viewBox="0.0 0.0 200.0 200.0" height="200px" width="200px"><path fill="#334455" fill-opacity="1.0"  filling="0" d="M115.0 174.0 C112.0 174.0 108.0 173.0 106.0 171.0 C104.0 169.0 102.0 169.0 100.0 169.0 L100.0 169.0 C98.0 169.0 96.0 169.0 94.0 171.0 C92.0 173.0 89.0 174.0 85.0 174.0 C80.0 174.0 76.0 172.0 73.0 169.0 C72.0 167.0 69.0 165.0 67.0 165.0 C65.0 165.0 64.0 166.0 63.0 167.0 C60.0 169.0 57.0 170.0 54.0 170.0 C52.0 170.0 50.0 169.0 49.0 169.0 C45.0 167.0 45.0 165.0 44.0 163.0 C43.0 161.0 43.0 158.0 44.0 155.0 C44.0 155.0 44.0 155.0 44.0 155.0 C50.0 132.0 56.0 111.0 58.0 84.0 C58.0 79.0 58.0 74.0 58.0 68.0 C59.0 68.0 59.0 67.0 59.0 67.0 C59.0 55.0 64.0 44.0 73.0 36.0 C81.0 29.0 91.0 27.0 100.0 27.0 C110.0 27.0 119.0 31.0 127.0 38.0 C135.0 45.0 141.0 55.0 141.0 67.0 C141.0 67.0 141.0 68.0 141.0 68.0 C142.0 74.0 142.0 79.0 142.0 84.0 C144.0 111.0 149.0 132.0 156.0 155.0 C156.0 155.0 156.0 155.0 156.0 155.0 C157.0 158.0 157.0 161.0 156.0 163.0 C155.0 165.0 154.0 167.0 152.0 169.0 C150.0 169.0 148.0 170.0 146.0 170.0 C142.0 170.0 140.0 169.0 137.0 167.0 C136.0 166.0 135.0 165.0 133.0 165.0 C131.0 165.0 129.0 167.0 127.0 169.0 C124.0 172.0 120.0 174.0 115.0 174.0 L115.0 174.0 Z"></path>
<path fill="#ffffee" fill-opacity="1.0"  filling="0" d="M100.0 166.0 L100.0 166.0 C104.0 166.0 107.0 167.0 109.0 168.0 C111.0 170.0 113.0 170.0 115.0 170.0 C119.0 170.0 122.0 169.0 124.0 166.0 C126.0 164.0 129.0 162.0 133.0 162.0 C136.0 162.0 138.0 163.0 139.0 164.0 C141.0 166.0 143.0 167.0 146.0 167.0 C148.0 167.0 149.0 166.0 150.0 165.0 C151.0 164.0 152.0 163.0 153.0 161.0 C154.0 160.0 154.0 158.0 153.0 157.0 C153.0 157.0 153.0 156.0 153.0 156.0 C145.0 133.0 140.0 110.0 139.0 84.0 C139.0 79.0 138.0 73.0 138.0 68.0 C138.0 68.0 138.0 67.0 138.0 67.0 C138.0 56.0 133.0 47.0 125.0 40.0 C118.0 34.0 109.0 31.0 100.0 31.0 C91.0 31.0 82.0 34.0 76.0 39.0 C68.0 46.0 62.0 56.0 62.0 67.0 C62.0 67.0 62.0 68.0 62.0 68.0 C62.0 73.0 61.0 79.0 61.0 84.0 C60.0 110.0 55.0 133.0 47.0 156.0 C47.0 156.0 47.0 157.0 47.0 157.0 C46.0 158.0 46.0 160.0 47.0 161.0 C48.0 163.0 49.0 164.0 50.0 165.0 C51.0 166.0 53.0 167.0 54.0 167.0 C57.0 167.0 59.0 166.0 61.0 164.0 C62.0 163.0 64.0 162.0 67.0 162.0 C71.0 162.0 74.0 164.0 76.0 166.0 C78.0 169.0 81.0 170.0 85.0 170.0 C87.0 170.0 89.0 170.0 91.0 168.0 C93.0 167.0 96.0 166.0 100.0 166.0 L100.0 166.0 Z"></path>
<path fill="#334455" fill-opacity="1.0"  filling="0" d="M100.0 161.0 C81.0 161.0 69.0 148.0 69.0 136.0 C69.0 131.0 70.0 126.0 72.0 121.0 C72.0 120.0 73.0 119.0 74.0 119.0 L126.0 119.0 C127.0 119.0 128.0 120.0 128.0 121.0 C130.0 126.0 131.0 131.0 131.0 136.0 C131.0 148.0 119.0 161.0 100.0 161.0 L100.0 161.0 Z"></path>
<path fill="#ff9933" fill-opacity="1.0"  filling="0" d="M75.0 122.0 C74.0 127.0 72.0 131.0 72.0 136.0 C72.0 147.0 83.0 157.0 100.0 157.0 C117.0 157.0 128.0 147.0 128.0 136.0 C128.0 131.0 126.0 127.0 125.0 122.0 L75.0 122.0 L75.0 122.0 Z"></path>
<path fill="#334455" fill-opacity="1.0"  filling="0" d="M75.0 125.0 C75.0 125.0 75.0 125.0 75.0 125.0 C74.0 125.0 73.0 124.0 73.0 123.0 C73.0 122.0 73.0 109.0 74.0 109.0 C74.0 108.0 75.0 108.0 76.0 108.0 C77.0 108.0 78.0 109.0 78.0 110.0 C77.0 112.0 77.0 117.0 77.0 123.0 C77.0 124.0 76.0 125.0 75.0 125.0 L75.0 125.0 Z M125.0 125.0 C124.0 125.0 123.0 124.0 123.0 123.0 C123.0 117.0 123.0 112.0 122.0 110.0 C122.0 109.0 123.0 108.0 124.0 108.0 C125.0 108.0 126.0 108.0 126.0 109.0 C127.0 109.0 127.0 122.0 127.0 123.0 C127.0 124.0 126.0 125.0 125.0 125.0 C125.0 125.0 125.0 125.0 125.0 125.0 L125.0 125.0 Z"></path>
<path fill="#334455" fill-opacity="1.0"  filling="0" d="M126.0 122.0 L74.0 122.0 C73.0 122.0 72.0 121.0 72.0 120.0 C72.0 119.0 73.0 119.0 74.0 119.0 L126.0 119.0 C127.0 119.0 128.0 119.0 128.0 120.0 C128.0 121.0 127.0 122.0 126.0 122.0 L126.0 122.0 Z M122.0 115.0 C115.0 115.0 109.0 112.0 107.0 106.0 C107.0 103.0 107.0 100.0 109.0 97.0 C111.0 94.0 114.0 92.0 118.0 92.0 C122.0 91.0 126.0 91.0 128.0 92.0 C129.0 92.0 129.0 92.0 129.0 93.0 C129.0 94.0 128.0 95.0 127.0 95.0 C123.0 94.0 116.0 94.0 112.0 99.0 C110.0 101.0 110.0 103.0 110.0 105.0 C112.0 110.0 117.0 112.0 122.0 112.0 C123.0 112.0 125.0 112.0 126.0 112.0 C127.0 112.0 127.0 113.0 127.0 114.0 C127.0 115.0 126.0 115.0 125.0 115.0 C124.0 115.0 123.0 115.0 122.0 115.0 L122.0 115.0 Z M78.0 115.0 C77.0 115.0 76.0 115.0 75.0 115.0 C74.0 115.0 73.0 115.0 73.0 114.0 C73.0 113.0 73.0 112.0 74.0 112.0 C75.0 112.0 77.0 112.0 78.0 112.0 C83.0 112.0 88.0 110.0 90.0 105.0 C90.0 103.0 90.0 101.0 88.0 99.0 C84.0 94.0 77.0 94.0 73.0 95.0 C72.0 95.0 71.0 94.0 71.0 93.0 C71.0 92.0 71.0 92.0 72.0 92.0 C74.0 91.0 78.0 91.0 82.0 92.0 C86.0 92.0 89.0 94.0 91.0 97.0 C93.0 100.0 93.0 103.0 93.0 106.0 C91.0 112.0 85.0 115.0 78.0 115.0 L78.0 115.0 Z"></path>
<path fill="#334455" fill-opacity="1.0"  filling="0" d="M106.0 102.0 C106.0 102.0 106.0 102.0 106.0 102.0 C102.0 100.0 98.0 100.0 94.0 102.0 C93.0 102.0 92.0 101.0 92.0 100.0 C92.0 99.0 92.0 98.0 93.0 98.0 C98.0 97.0 102.0 97.0 107.0 98.0 C108.0 98.0 108.0 99.0 108.0 100.0 C108.0 101.0 107.0 102.0 106.0 102.0 L106.0 102.0 Z"></path>
<path fill="#334455" fill-opacity="1.0"  filling="0" d="M100.0 81.0 C96.0 81.0 93.0 79.0 92.0 76.0 C92.0 75.0 92.0 74.0 93.0 74.0 C94.0 74.0 95.0 74.0 95.0 75.0 C96.0 76.0 98.0 77.0 100.0 77.0 C102.0 77.0 104.0 76.0 105.0 75.0 C105.0 74.0 106.0 74.0 107.0 74.0 C108.0 74.0 108.0 75.0 108.0 76.0 C107.0 79.0 104.0 81.0 100.0 81.0 L100.0 81.0 Z"></path>
<path fill="#334455" fill-opacity="1.0"  filling="0" d="M90.0 65.0 A4.0 6.0 0.0 1 0 83.0 65.0 A4.0 6.0 0.0 1 0 90.0 65.0 L90.0 65.0 Z"></path>
<path fill="#ffffff" fill-opacity="1.0"  filling="0" d="M85.0 65.0 A2.0 4.0 0.0 1 0 82.0 65.0 A2.0 4.0 0.0 1 0 85.0 65.0 L85.0 65.0 Z"></path>
<path fill="#334455" fill-opacity="1.0"  filling="0" d="M110.0 65.0 A4.0 6.0 0.0 1 0 117.0 65.0 A4.0 6.0 0.0 1 0 110.0 65.0 L110.0 65.0 Z"></path>
<path fill="#ffffff" fill-opacity="1.0"  filling="0" d="M115.0 65.0 A2.0 4.0 0.0 1 0 113.0 65.0 A2.0 4.0 0.0 1 0 115.0 65.0 L115.0 65.0 Z"></path>
<path fill="#000000" fill-opacity="1.0"  filling="0" d="M100.0 140.0 C100.0 140.0 100.0 140.0 100.0 140.0 C100.0 140.0 100.0 140.0 100.0 140.0 C100.0 140.0 100.0 140.0 100.0 140.0 C100.0 140.0 100.0 140.0 100.0 140.0 C100.0 140.0 100.0 140.0 100.0 140.0 C100.0 140.0 100.0 140.0 100.0 140.0 C100.0 140.0 100.0 140.0 100.0 140.0 C100.0 140.0 100.0 140.0 100.0 140.0 C100.0 140.0 100.0 140.0 100.0 140.0 C100.0 140.0 100.0 140.0 100.0 140.0 C100.0 140.0 100.0 140.0 100.0 140.0 C100.0 140.0 100.0 140.0 100.0 140.0 C100.0 140.0 100.0 140.0 100.0 140.0 C100.0 140.0 100.0 140.0 100.0 140.0 C100.0 140.0 100.0 140.0 100.0 140.0 C100.0 140.0 100.0 140.0 100.0 140.0 C100.0 140.0 100.0 140.0 100.0 140.0 C100.0 140.0 100.0 140.0 100.0 140.0 C100.0 140.0 100.0 140.0 100.0 140.0 C100.0 140.0 100.0 140.0 100.0 140.0 C100.0 140.0 100.0 140.0 100.0 140.0 C100.0 140.0 100.0 140.0 100.0 140.0 C100.0 140.0 100.0 140.0 100.0 140.0 C100.0 140.0 100.0 140.0 100.0 140.0 C100.0 140.0 100.0 140.0 100.0 140.0 C100.0 140.0 100.0 140.0 100.0 140.0 C100.0 140.0 100.0 140.0 100.0 140.0 C100.0 140.0 100.0 140.0 100.0 140.0 C100.0 140.0 100.0 140.0 100.0 140.0 C100.0 140.0 100.0 140.0 100.0 140.0 C100.0 140.0 100.0 140.0 100.0 140.0 C100.0 140.0 100.0 140.0 100.0 140.0 C100.0 140.0 100.0 140.0 100.0 140.0 C100.0 140.0 100.0 140.0 100.0 140.0 C100.0 140.0 100.0 140.0 100.0 140.0 C100.0 140.0 100.0 140.0 100.0 140.0 C100.0 140.0 100.0 140.0 100.0 140.0 C100.0 140.0 100.0 140.0 100.0 140.0 C100.0 140.0 100.0 140.0 100.0 140.0 C100.0 140.0 100.0 140.0 100.0 140.0 C100.0 140.0 100.0 140.0 100.0 140.0 C100.0 140.0 100.0 140.0 100.0 140.0 C100.0 140.0 100.0 140.0 100.0 140.0 C100.0 140.0 100.0 140.0 100.0 140.0 C100.0 140.0 100.0 140.0 100.0 140.0 C100.0 140.0 100.0 140.0 100.0 140.0 C100.0 140.0 100.0 140.0 100.0 140.0 C100.0 140.0 100.0 140.0 100.0 140.0 C100.0 140.0 100.0 140.0 100.0 140.0 C100.0 140.0 100.0 140.0 100.0 140.0 C100.0 140.0 100.0 140.0 100.0 140.0 C100.0 140.0 100.0 140.0 100.0 140.0 C100.0 140.0 100.0 140.0 100.0 140.0 C100.0 140.0 100.0 140.0 100.0 140.0 C100.0 140.0 100.0 140.0 100.0 140.0 C100.0 140.0 100.0 140.0 100.0 140.0 C100.0 140.0 100.0 140.0 100.0 140.0 C100.0 140.0 100.0 140.0 100.0 140.0 C100.0 140.0 100.0 140.0 100.0 140.0 C100.0 140.0 100.0 140.0 100.0 140.0 C100.0 140.0 100.0 140.0 100.0 140.0 C100.0 140.0 100.0 140.0 100.0 140.0 C100.0 140.0 100.0 140.0 100.0 140.0 C100.0 140.0 100.0 140.0 100.0 140.0 C100.0 140.0 100.0 140.0 100.0 140.0 C100.0 140.0 100.0 140.0 100.0 140.0 C100.0 140.0 100.0 140.0 100.0 140.0 C100.0 140.0 100.0 140.0 100.0 140.0 C100.0 140.0 100.0 140.0 100.0 140.0 C100.0 140.0 100.0 140.0 100.0 140.0 C100.0 140.0 100.0 140.0 100.0 140.0 C100.0 140.0 100.0 140.0 100.0 140.0 C100.0 140.0 100.0 140.0 100.0 140.0 C100.0 140.0 100.0 140.0 100.0 140.0 C100.0 140.0 100.0 140.0 100.0 140.0 C100.0 140.0 100.0 140.0 100.0 140.0 C100.0 140.0 100.0 140.0 100.0 140.0 C100.0 140.0 100.0 140.0 100.0 140.0 C100.0 140.0 100.0 140.0 100.0 140.0 C100.0 140.0 100.0 140.0 100.0 140.0 C100.0 140.0 100.0 140.0 100.0 140.0 C100.0 140.0 100.0 140.0 100.0 140.0 C100.0 140.0 100.0 140.0 100.0 140.0 C100.0 140.0 100.0 140.0 100.0 140.0 C100.0 140.0 100.0 140.0 100.0 140.0 C100.0 140.0 100.0 140.0 100.0 140.0 C100.0 140.0 100.0 140.0 100.0 140.0 C100.0 140.0 100.0 140.0 100.0 140.0 C100.0 140.0 100.0 140.0 100.0 140.0 C100.0 140.0 100.0 140.0 100.0 140.0 C100.0 140.0 100.0 140.0 100.0 140.0 C100.0 140.0 100.0 140.0 100.0 140.0 C100.0 140.0 100.0 140.0 100.0 140.0 C100.0 140.0 100.0 140.0 100.0 140.0 C100.0 140.0 100.0 140.0 100.0 140.0 C100.0 140.0 100.0 140.0 100.0 140.0 C100.0 140.0 100.0 140.0 100.0 140.0 C100.0 140.0 100.0 140.0 100.0 140.0 C100.0 140.0 100.0 140.0 100.0 140.0 C100.0 140.0 100.0 140.0 100.0 140.0 C100.0 140.0 100.0 140.0 100.0 140.0 C100.0 140.0 100.0 140.0 100.0 140.0 C100.0 140.0 100.0 140.0 100.0 140.0 C100.0 140.0 100.0 140.0 100.0 140.0 C100.0 140.0 100.0 140.0 100.0 140.0 C100.0 140.0 100.0 140.0 100.0 140.0 C100.0 140.0 100.0 140.0 100.0 140.0 C100.0 140.0 100.0 140.0 100.0 140.0 C100.0 140.0 100.0 140.0 100.0 140.0 C100.0 140.0 100.0 140.0 100.0 140.0 C100.0 140.0 100.0 140.0 100.0 140.0 C100.0 140.0 100.0 140.0 100.0 140.0 C100.0 140.0 100.0 140.0 100.0 140.0 C100.0 140.0 100.0 140.0 100.0 140.0 C100.0 140.0 100.0 140.0 100.0 140.0 C100.0 140.0 100.0 140.0 100.0 140.0 C100.0 140.0 100.0 140.0 100.0 140.0 C100.0 140.0 100.0 140.0 100.0 140.0 C100.0 140.0 100.0 140.0 100.0 140.0 C100.0 140.0 100.0 140.0 100.0 140.0 C100.0 140.0 100.0 140.0 100.0 140.0 C100.0 140.0 100.0 140.0 100.0 140.0 C100.0 140.0 100.0 140.0 100.0 140.0 C100.0 140.0 100.0 140.0 100.0 140.0 C100.0 140.0 100.0 140.0 100.0 140.0 C100.0 140.0 100.0 140.0 100.0 140.0 C100.0 140.0 100.0 140.0 100.0 140.0 C100.0 140.0 100.0 140.0 100.0 140.0 C100.0 140.0 100.0 140.0 100.0 140.0 C100.0 140.0 100.0 140.0 100.0 140.0 C100.0 140.0 100.0 140.0 100.0 140.0 C100.0 140.0 100.0 140.0 100.0 140.0 C100.0 140.0 100.0 140.0 100.0 140.0 C100.0 140.0 100.0 140.0 100.0 140.0 C100.0 140.0 100.0 140.0 100.0 140.0 C100.0 140.0 100.0 140.0 100.0 140.0 C100.0 140.0 100.0 140.0 100.0 140.0 C100.0 140.0 100.0 140.0 100.0 140.0 C100.0 140.0 100.0 140.0 100.0 140.0 C100.0 140.0 100.0 140.0 100.0 140.0 C100.0 140.0 100.0 140.0 100.0 140.0 C100.0 140.0 100.0 140.0 100.0 140.0 C100.0 140.0 100.0 140.0 100.0 140.0 C100.0 140.0 100.0 140.0 100.0 140.0 C100.0 140.0 100.0 140.0 100.0 140.0 C100.0 140.0 100.0 140.0 100.0 140.0 C100.0 140.0 100.0 140.0 100.0 140.0 C100.0 140.0 100.0 140.0 100.0 140.0 C100.0 140.0 100.0 140.0 100.0 140.0 C100.0 140.0 100.0 140.0 100.0 140.0 C100.0 140.0 100.0 140.0 100.0 140.0 C100.0 140.0 100.0 140.0 100.0 140.0 C100.0 140.0 100.0 140.0 100.0 140.0 C100.0 140.0 100.0 140.0 100.0 140.0 C100.0 140.0 100.0 140.0 100.0 140.0 C100.0 140.0 100.0 140.0 100.0 140.0 C100.0 140.0 100.0 140.0 100.0 140.0 C100.0 140.0 100.0 140.0 100.0 140.0 C100.0 140.0 100.0 140.0 100.0 140.0 C100.0 140.0 100.0 140.0 100.0 140.0 C100.0 140.0 100.0 140.0 100.0 140.0 C100.0 140.0 100.0 140.0 100.0 140.0 C100.0 140.0 100.0 140.0 100.0 140.0 C100.0 140.0 100.0 140.0 100.0 140.0 C100.0 140.0 100.0 140.0 100.0 140.0 C100.0 140.0 100.0 140.0 100.0 140.0 C100.0 140.0 100.0 140.0 100.0 140.0 C100.0 140.0 100.0 140.0 100.0 140.0 C100.0 140.0 100.0 140.0 100.0 140.0 C100.0 140.0 100.0 140.0 100.0 140.0 C100.0 140.0 100.0 140.0 100.0 140.0 C100.0 140.0 100.0 140.0 100.0 140.0 C100.0 140.0 100.0 140.0 100.0 140.0 C100.0 140.0 100.0 140.0 100.0 140.0 C100.0 140.0 100.0 140.0 100.0 140.0 C100.0 140.0 100.0 140.0 100.0 140.0 C100.0 140.0 100.0 140.0 100.0 140.0 C100.0 140.0 100.0 140.0 85.0 129.0 C84.0 130.0 84.0 131.0 84.0 132.0 C84.0 133.0 84.0 134.0 85.0 135.0 C86.0 136.0 87.0 137.0 89.0 137.0 C90.0 137.0 91.0 136.0 92.0 136.0 C93.0 135.0 94.0 134.0 94.0 132.0 C94.0 131.0 93.0 130.0 92.0 129.0 C91.0 128.0 90.0 127.0 89.0 127.0 C89.0 128.0 88.0 128.0 88.0 129.0 C87.0 130.0 87.0 131.0 87.0 132.0 C87.0 132.0 87.0 132.0 87.0 132.0 C87.0 132.0 87.0 132.0 87.0 132.0 C87.0 132.0 87.0 132.0 87.0 132.0"></path></svg>