<svg xmlns="http://www.w3.org/2000/svg" viewBox="0.0 0.0 200.0 200.0" height="200px" width="200px"><path fill="#334455" fill-opacity="1.0"  filling="0" d="M115.0 174.0 C112.0 174.0 108.0 173.0 106.0 171.0 C104.0 169.0 102.0 169.0 100.0 169.0 C98.0 169.0 96.0 169.0 94.0 171.0 C92.0 173.0 89.0 174.0 85.0 174.0 L84.0 174.0 C80.0 174.0 76.0 172.0 73.0 169.0 C72.0 169.0 71.0 168.0 71.0 167.0 C70.0 166.0 68.0 165.0 67.0 165.0 C65.0 165.0 64.0 166.0 63.0 167.0 C60.0 169.0 57.0 170.0 54.0 170.0 C52.0 170.0 49.0 169.0 48.0 167.0 C45.0 165.0 43.0 161.0 43.0 156.0 C43.0 156.0 43.0 156.0 43.0 156.0 C51.0 136.0 56.0 114.0 58.0 84.0 C58.0 79.0 58.0 74.0 58.0 67.0 C59.0 67.0 59.0 67.0 59.0 67.0 C59.0 46.0 78.0 27.0 100.0 27.0 C123.0 27.0 141.0 46.0 141.0 67.0 C141.0 67.0 141.0 67.0 141.0 67.0 C142.0 74.0 142.0 79.0 142.0 84.0 C144.0 114.0 149.0 136.0 158.0 156.0 C158.0 156.0 158.0 156.0 158.0 156.0 C158.0 161.0 156.0 165.0 152.0 167.0 C150.0 169.0 148.0 170.0 145.0 170.0 C142.0 170.0 140.0 169.0 138.0 167.0 C136.0 166.0 135.0 165.0 133.0 165.0 C131.0 165.0 130.0 166.0 129.0 167.0 C128.0 168.0 128.0 169.0 127.0 169.0 C124.0 172.0 120.0 174.0 115.0 174.0 L115.0 174.0 Z"></path>
<path fill="#ffffee" fill-opacity="1.0"  filling="0" d="M100.0 166.0 C104.0 166.0 107.0 167.0 109.0 168.0 C111.0 170.0 113.0 170.0 115.0 170.0 C119.0 170.0 122.0 169.0 124.0 166.0 C125.0 166.0 126.0 165.0 126.0 164.0 C128.0 162.0 130.0 162.0 133.0 162.0 C136.0 162.0 138.0 162.0 140.0 164.0 C141.0 166.0 143.0 166.0 145.0 166.0 C147.0 166.0 149.0 166.0 150.0 164.0 C153.0 162.0 154.0 160.0 154.0 157.0 C145.0 136.0 140.0 113.0 139.0 84.0 C138.0 79.0 138.0 73.0 138.0 67.0 C138.0 48.0 121.0 31.0 100.0 31.0 C79.0 31.0 63.0 48.0 62.0 67.0 C62.0 73.0 62.0 79.0 61.0 84.0 C60.0 113.0 55.0 136.0 46.0 157.0 C46.0 160.0 47.0 162.0 50.0 164.0 C51.0 166.0 53.0 166.0 54.0 166.0 C57.0 166.0 59.0 166.0 60.0 164.0 C62.0 162.0 64.0 162.0 67.0 162.0 C69.0 162.0 72.0 162.0 74.0 164.0 C74.0 165.0 75.0 166.0 75.0 166.0 C78.0 169.0 81.0 170.0 84.0 170.0 C87.0 170.0 89.0 170.0 91.0 168.0 C93.0 167.0 96.0 166.0 100.0 166.0 L100.0 166.0 Z"></path>
<path fill="#334455" fill-opacity="1.0"  filling="0" d="M100.0 161.0 C82.0 161.0 69.0 148.0 69.0 136.0 C69.0 131.0 70.0 126.0 72.0 121.0 C72.0 120.0 73.0 119.0 74.0 119.0 L126.0 119.0 C127.0 119.0 128.0 120.0 128.0 121.0 C130.0 126.0 131.0 131.0 131.0 136.0 C131.0 148.0 118.0 161.0 100.0 161.0 L100.0 161.0 Z"></path>
<path fill="#ff9933" fill-opacity="1.0"  filling="0" d="M75.0 122.0 C74.0 127.0 72.0 131.0 72.0 136.0 C72.0 147.0 84.0 157.0 100.0 157.0 C116.0 157.0 128.0 147.0 128.0 136.0 C128.0 131.0 126.0 127.0 125.0 122.0 L75.0 122.0 L75.0 122.0 Z"></path>
<path fill="#334455" fill-opacity="1.0"  filling="0" d="M100.0 144.0 C96.0 144.0 92.0 144.0 88.0 143.0 C87.0 143.0 86.0 142.0 85.0 141.0 C84.0 140.0 84.0 138.0 84.0 137.0 C85.0 133.0 87.0 130.0 89.0 127.0 C91.0 130.0 93.0 134.0 94.0 138.0 C94.0 138.0 94.0 138.0 94.0 138.0 C95.0 138.0 96.0 138.0 97.0 139.0 C97.0 140.0 97.0 141.0 97.0 141.0 C98.0 141.0 99.0 142.0 100.0 142.0 C101.0 142.0 102.0 141.0 103.0 141.0 C103.0 141.0 103.0 140.0 103.0 139.0 C104.0 138.0 105.0 138.0 106.0 138.0 C106.0 138.0 106.0 138.0 106.0 138.0 C107.0 134.0 109.0 130.0 110.0 127.0 C113.0 130.0 115.0 133.0 116.0 137.0 C116.0 138.0 116.0 140.0 115.0 141.0 C114.0 142.0 113.0 143.0 112.0 143.0 C108.0 144.0 104.0 144.0 100.0 144.0 L100.0 144.0 Z"></path>
<path fill="#000000" fill-opacity="1.0"  filling="0" d="M100.0 156.0 C98.0 156.0 97.0 156.0 96.0 156.0 C96.0 155.0 96.0 155.0 96.0 155.0 C96.0 155.0 96.0 155.0 96.0 155.0 C96.0 155.0 96.0 155.0 96.0 155.0 C96.0 155.0 96.0 155.0 96.0 155.0 C96.0 155.0 96.0 155.0 96.0 155.0 C96.0 155.0 96.0 155.0 96.0 155.0 C96.0 155.0 96.0 155.0 96.0 155.0 C96.0 155.0 96.0 155.0 96.0 155.0 C96.0 155.0 96.0 155.0 96.0 155.0 C96.0 155.0 96.0 155.0 96.0 155.0 C96.0 155.0 96.0 155.0 96.0 155.0 C96.0 155.0 96.0 155.0 96.0 155.0 C96.0 155.0 96.0 155.0 96.0 155.0 C96.0 155.0 96.0 155.0 96.0 155.0 C96.0 155.0 96.0 155.0 96.0 155.0 C96.0 155.0 96.0 155.0 96.0 155.0 C96.0 155.0 96.0 155.0 96.0 155.0 C96.0 155.0 96.0 155.0 96.0 155.0 C96.0 155.0 96.0 155.0 96.0 155.0 C96.0 155.0 96.0 155.0 96.0 155.0 C96.0 155.0 96.0 155.0 96.0 155.0 C96.0 155.0 96.0 155.0 96.0 155.0 C96.0 155.0 96.0 155.0 96.0 155.0 C96.0 155.0 96.0 155.0 96.0 155.0 C96.0 155.0 96.0 155.0 96.0 155.0 C96.0 155.0 96.0 155.0 96.0 155.0 C96.0 155.0 96.0 155.0 96.0 155.0 C96.0 155.0 96.0 155.0 96.0 155.0 C96.0 155.0 96.0 155.0 96.0 155.0 C96.0 155.0 96.0 155.0 96.0 155.0 C96.0 155.0 96.0 155.0 96.0 155.0 C96.0 155.0 96.0 155.0 96.0 155.0 C96.0 155.0 96.0 155.0 96.0 155.0 C96.0 155.0 96.0 155.0 96.0 155.0 C96.0 155.0 96.0 155.0 96.0 155.0 C96.0 155.0 96.0 155.0 96.0 155.0 C96.0 155.0 96.0 155.0 96.0 155.0 C96.0 155.0 96.0 155.0 96.0 155.0 C96.0 155.0 96.0 155.0 96.0 155.0 C96.0 155.0 96.0 155.0 96.0 155.0 C96.0 155.0 96.0 155.0 96.0 155.0 C96.0 155.0 96.0 155.0 96.0 155.0 C96.0 155.0 96.0 155.0 96.0 155.0 C96.0 155.0 96.0 155.0 96.0 155.0 C96.0 155.0 96.0 155.0 96.0 155.0 C96.0 155.0 96.0 155.0 96.0 155.0 C96.0 155.0 96.0 155.0 96.0 155.0 C96.0 155.0 96.0 155.0 96.0 155.0 C96.0 155.0 96.0 155.0 96.0 155.0 C96.0 155.0 96.0 155.0 96.0 155.0 C96.0 155.0 96.0 155.0 96.0 155.0 C96.0 155.0 96.0 155.0 96.0 155.0 C96.0 155.0 96.0 155.0 96.0 155.0 C96.0 155.0 96.0 155.0 96.0 155.0 C96.0 155.0 96.0 155.0 96.0 155.0 C96.0 155.0 96.0 155.0 96.0 155.0 C96.0 155.0 96.0 155.0 96.0 155.0 C96.0 155.0 96.0 155.0 96.0 155.0 C96.0 155.0 96.0 155.0 96.0 155.0 C96.0 155.0 96.0 155.0 96.0 155.0 C96.0 155.0 96.0 155.0 96.0 155.0 C96.0 155.0 96.0 155.0 96.0 155.0 C96.0 155.0 96.0 155.0 96.0 155.0 C96.0 155.0 96.0 155.0 96.0 155.0 C96.0 155.0 96.0 155.0 96.0 155.0 C96.0 155.0 96.0 155.0 96.0 155.0 C96.0 155.0 96.0 155.0 96.0 155.0 C96.0 155.0 96.0 155.0 96.0 155.0 C96.0 155.0 96.0 155.0 96.0 155.0 C96.0 155.0 96.0 155.0 96.0 155.0 C96.0 155.0 96.0 155.0 96.0 155.0 C96.0 155.0 96.0 155.0 96.0 155.0 C96.0 155.0 96.0 155.0 96.0 155.0 C96.0 155.0 96.0 155.0 96.0 155.0 C96.0 155.0 96.0 155.0 96.0 155.0 C96.0 155.0 96.0 155.0 96.0 155.0 C96.0 155.0 96.0 155.0 96.0 155.0 C96.0 155.0 96.0 155.0 96.0 155.0 C96.0 155.0 96.0 155.0 96.0 155.0 C96.0 155.0 96.0 155.0 96.0 155.0 C96.0 155.0 96.0 155.0 96.0 155.0 C96.0 155.0 96.0 155.0 96.0 155.0 C96.0 155.0 96.0 155.0 96.0 155.0 C96.0 155.0 96.0 155.0 96.0 155.0 C96.0 155.0 96.0 155.0 96.0 155.0 C96.0 155.0 96.0 155.0 96.0 155.0 C96.0 155.0 96.0 155.0 96.0 155.0 C96.0 155.0 96.0 155.0 96.0 155.0 C96.0 155.0 96.0 155.0 96.0 155.0 C96.0 155.0 96.0 155.0 96.0 155.0 C96.0 155.0 96.0 155.0 96.0 155.0 C96.0 155.0 96.0 155.0 96.0 155.0 C96.0 155.0 96.0 155.0 96.0 155.0 C96.0 155.0 96.0 155.0 96.0 155.0 C96.0 155.0 96.0 155.0 96.0 155.0 C96.0 155.0 96.0 155.0 96.0 155.0 C96.0 155.0 96.0 155.0 96.0 155.0 C96.0 155.0 96.0 155.0 96.0 155.0 C96.0 155.0 96.0 155.0 96.0 155.0 C96.0 155.0 96.0 155.0 96.0 155.0 C96.0 155.0 96.0 155.0 96.0 155.0 C96.0 155.0 96.0 155.0 96.0 155.0 C96.0 155.0 96.0 155.0 96.0 155.0 C96.0 155.0 96.0 155.0 96.0 155.0 C96.0 155.0 96.0 155.0 96.0 155.0 C96.0 155.0 96.0 155.0 96.0 155.0 C96.0 155.0 96.0 155.0 96.0 155.0 C96.0 155.0 96.0 155.0 96.0 155.0 C96.0 155.0 96.0 155.0 96.0 155.0 C96.0 155.0 96.0 155.0 96.0 155.0 C96.0 155.0 96.0 155.0 96.0 155.0 C96.0 155.0 96.0 155.0 96.0 155.0 C96.0 155.0 96.0 155.0 96.0 155.0 C96.0 155.0 96.0 155.0 96.0 155.0 C96.0 155.0 96.0 155.0 96.0 155.0 C96.0 155.0 96.0 155.0 96.0 155.0 C96.0 155.0 96.0 155.0 96.0 155.0 C96.0 155.0 96.0 155.0 96.0 155.0 C96.0 155.0 96.0 155.0 96.0 155.0 C96.0 155.0 96.0 155.0 96.0 155.0 C96.0 155.0 96.0 155.0 96.0 155.0 C96.0 155.0 96.0 155.0 96.0 155.0 C96.0 155.0 96.0 155.0 96.0 155.0 C96.0 155.0 96.0 155.0 96.0 155.0 C96.0 155.0 96.0 155.0 96.0 155.0 C96.0 155.0 96.0 155.0 96.0 155.0 C96.0 155.0 96.0 155.0 96.0 155.0 C96.0 155.0 96.0 155.0 96.0 155.0 C96.0 155.0 96.0 155.0 96.0 155.0 C96.0 155.0 96.0 155.0 96.0 155.0 C96.0 155.0 96.0 155.0 96.0 155.0 C96.0 155.0 96.0 155.0 96.0 155.0 C96.0 155.0 96.0 155.0 96.0 155.0 C96.0 155.0 96.0 155.0 96.0 155.0 C96.0 155.0 96.0 155.0 96.0 155.0 C96.0 155.0 96.0 155.0 96.0 155.0 C96.0 155.0 96.0 155.0 96.0 155.0 C96.0 155.0 96.0 155.0 96.0 155.0 C96.0 155.0 96.0 155.0 96.0 155.0 C96.0 155.0 96.0 155.0 96.0 155.0 C96.0 155.0 96.0 155.0 96.0 155.0 C96.0 155.0 96.0 155.0 96.0 155.0 C96.0 155.0 96.0 155.0 96.0 155.0 C96.0 155.0 96.0 155.0 96.0 155.0 C96.0 155.0 96.0 155.0 96.0 155.0 C96.0 155.0 96.0 155.0 96.0 155.0 C96.0 155.0 96.0 155.0 96.0 155.0 C96.0 155.0 96.0 155.0 96.0 155.0 C96.0 155.0 96.0 155.0 96.0 155.0 C96.0 155.0 96.0 155.0 96.0 155.0 C96.0 155.0 96.0 155.0 96.0 155.0 C96.0 155.0 96.0 155.0 96.0 155.0 C96.0 155.0 96.0 155.0 96.0 155.0 C96.0 155.0 96.0 155.0 96.0 155.0 C96.0 155.0 96.0 155.0 96.0 155.0 C96.0 155.0 96.0 155.0 96.0 155.0 C96.0 155.0 96.0 155.0 96.0 155.0 C96.0 155.0 96.0 155.0 96.0 155.0 C96.0 155.0 96.0 155.0 96.0 155.0 C96.0 155.0 96.0 155.0 96.0 155.0 C96.0 155.0 96.0 155.0 96.0 155.0 C96.0 155.0 96.0 155.0 96.0 155.0 C96.0 155.0 96.0 155.0 96.0 155.0 C96.0 155.0 96.0 155.0 96.0 155.0 C96.0 155.0 96.0 155.0 96.0 155.0 C96.0 155.0 96.0 155.0 96.0 155.0 C96.0 155.0 96.0 155.0 96.0 155.0 C96.0 155.0 96.0 155.0 96.0 155.0 C96.0 155.0 96.0 155.0 96.0 155.0 C96.0 155.0 96.0 155.0 96.0 155.0 C96.0 155.0 96.0 155.0 96.0 155.0 C96.0 155.0 96.0 155.0 96.0 155.0 C96.0 155.0 96.0 155.0 96.0 155.0 C96.0 155.0 96.0 155.0 96.0 155.0 C96.0 155.0 96.0 155.0 96.0 155.0 C96.0 155.0 96.0 155.0 96.0 155.0 C96.0 155.0 96.0 155.0 96.0 155.0 C96.0 155.0 96.0 155.0 96.0 155.0 C96.0 155.0 96.0 155.0 96.0 155.0 C96.0 155.0 96.0 155.0 96.0 155.0 C96.0 155.0 96.0 155.0 96.0 155.0 C96.0 155.0 96.0 155.0 96.0 155.0 C96.0 155.0 96.0 155.0 96.0 155.0 C96.0 155.0 96.0 155.0 96.0 155.0 C96.0 155.0 96.0 155.0 96.0 155.0 C96.0 155.0 96.0 155.0 96.0 155.0 C96.0 155.0 96.0 155.0 96.0 155.0 C96.0 155.0 83.0 155.0 83.0 155.0 C83.0 155.0 83.0 155.0 83.0 155.0 C83.0 155.0 83.0 155.0 83.0 155.0 C83.0 155.0 83.0 155.0 83.0 155.0 C83.0 155.0 83.0 155.0 83.0 155.0 C83.0 155.0 83.0 155.0 83.0 155.0 C83.0 155.0 83.0 155.0 83.0 155.0 C83.0 155.0 83.0 155.0 83.0 155.0 C83.0 155.0 83.0 155.0 83.0 155.0 C83.0 155.0 83.0 155.0 83.0 155.0 C83.0 155.0 83.0 155.0 83.0 155.0 C83.0 155.0 83.0 155.0 83.0 155.0 C83.0 155.0 83.0 155.0 83.0 155.0 C83.0 155.0 83.0 155.0 83.0 155.0 C83.0 155.0 83.0 155.0 83.0 155.0 C83.0 155.0 83.0 155.0 83.0 155.0 C83.0 155.0 83.0 155.0 83.0 155.0 C83.0 155.0 83.0 155.0 83.0 155.0 C83.0 155.0 83.0 155.0 83.0 155.0 C83.0 155.0 83.0 155.0 83.0 155.0 C83.0 155.0 83.0 155.0 83.0 155.0 C83.0 155.0 83.0 155.0 83.0 155.0 C83.0 155.0 83.0 155.0 83.0 155.0 C83.0 155.0 83.0 155.0 83.0 155.0 C83.0 155.0 83.0 155.0 83.0 155.0 C83.0 155.0 83.0 155.0 83.0 155.0 C83.0 155.0 83.0 155.0 83.0 155.0 C83.0 155.0 83.0 155.0 83.0 155.0 C83.0 155.0 83.0 155.0 83.0 155.0 C83.0 155.0 83.0 155.0 83.0 155.0 C83.0 155.0 83.0 155.0 83.0 155.0 C83.0 155.0 83.0 155.0 83.0 155.0 C83.0 155.0 83.0 155.0 83.0 155.0 C83.0 155.0 83.0 155.0 83.0 155.0 C83.0 155.0 83.0 155.0 83.0 155.0 C83.0 155.0 83.0 155.0 83.0 155.0 C83.0 155.0 83.0 155.0 83.0 155.0 C83.0 155.0 83.0 155.0 83.0 155.0 C83.0 155.0 83.0 155.0 83.0 155.0 C83.0 155.0 83.0 155.0 83.0 155.0 C83.0 155.0 83.0 155.0 83.0 155.0 C83.0 155.0 83.0 155.0 83.0 155.0 C83.0 155.0 83.0 155.0 83.0 155.0 C83.0 155.0 83.0 155.0 83.0 155.0 C83.0 155.0 83.0 155.0 83.0 155.0 C83.0 155.0 83.0 155.0 83.0 155.0 C83.0 155.0 83.0 155.0 83.0 155.0 C83.0 155.0 83.0 155.0 83.0 155.0 C83.0 155.0 83.0 155.0 83.0 155.0 C83.0 155.0 83.0 155.0 83.0 155.0 C83.0 155.0 83.0 155.0 83.0 155.0 C83.0 155.0 83.0 155.0 83.0 155.0 C83.0 155.0 83.0 155.0 83.0 155.0 C83.0 155.0 83.0 155.0 83.0 155.0 C83.0 155.0 83.0 155.0 83.0 155.0 C83.0 155.0 83.0 155.0 83.0 155.0 C83.0 155.0 83.0 155.0 83.0 155.0 C83.0 155.0 83.0 155.0 83.0 155.0 C83.0 155.0 83.0 155.0 83.0 155.0 C83.0 155.0 83.0 155.0 83.0 155.0 C83.0 155.0 83.0 155.0 83.0 155.0 C83.0 155.0 83.0 155.0 83.0 155.0 C83.0 155.0 83.0 155.0 83.0 155.0 C83.0 155.0 83.0 155.0 83.0 155.0 C83.0 155.0 83.0 155.0 83.0 155.0 C83.0 155.0 83.0 155.0 83.0 155.0 C83.0 155.0 83.0 155.0 83.0 155.0 C83.0 155.0 83.0 155.0 83.0 155.0 C83.0 155.0 83.0 155.0 83.0 155.0 C83.0 155.0 83.0 155.0 83.0 155.0 C83.0 155.0 83.0 155.0 83.0 155.0 C83.0 155.0 83.0 155.0 83.0 155.0 C83.0 155.0 83.0 155.0 83.0 155.0 C83.0 155.0 83.0 155.0 83.0 155.0 C83.0 155.0 83.0 155.0 83.0 155.0 C83.0 155.0 83.0 155.0 83.0 155.0 C83.0 155.0 83.0 155.0 83.0 155.0 C83.0 155.0 83.0 155.0 83.0 155.0 C83.0 155.0 83.0 155.0 83.0 155.0 C83.0 155.0 83.0 155.0 83.0 155.0 C83.0 155.0 83.0 155.0 83.0 155.0 C83.0 155.0 83.0 155.0 83.0 155.0 C83.0 155.0 83.0 155.0 83.0 155.0 C83.0 155.0 83.0 155.0 83.0 155.0 C83.0 155.0 83.0 155.0 83.0 155.0 C83.0 155.0 83.0 155.0 83.0 155.0 C83.0 155.0 83.0 155.0 83.0 155.0 C83.0 155.0 83.0 155.0 83.0 155.0 C83.0 155.0 83.0 155.0 83.0 155.0 C83.0 155.0 83.0 155.0 83.0 155.0 C83.0 155.0 83.0 155.0 83.0 155.0 C83.0 155.0 83.0 155.0 83.0 155.0 C83.0 155.0 83.0 155.0 83.0 155.0 C83.0 155.0 83.0 155.0 83.0 155.0 C83.0 155.0 83.0 155.0 83.0 155.0 C83.0 155.0 83.0 155.0 83.0 155.0"></path></svg>