<svg xmlns="http://www.w3.org/2000/svg" viewBox="0.0 0.0 200.0 200.0" height="200px" width="200px"><path fill="#334455" fill-opacity="1.0"  filling="0" d="M115.0 174.0 C112.0 174.0 108.0 173.0 106.0 171.0 C104.0 169.0 102.0 169.0 100.0 169.0 L100.0 169.0 C98.0 169.0 96.0 169.0 94.0 171.0 C92.0 173.0 89.0 174.0 85.0 174.0 C80.0 174.0 76.0 172.0 73.0 168.0 C72.0 167.0 70.0 166.0 69.0 165.0 C68.0 165.0 68.0 165.0 67.0 165.0 C65.0 165.0 64.0 166.0 62.0 167.0 C60.0 169.0 57.0 170.0 54.0 170.0 C52.0 170.0 50.0 169.0 48.0 168.0 C45.0 167.0 43.0 164.0 43.0 161.0 C42.0 159.0 43.0 156.0 44.0 155.0 C44.0 155.0 44.0 155.0 44.0 155.0 C54.0 134.0 58.0 112.0 58.0 84.0 C58.0 79.0 58.0 74.0 58.0 68.0 C59.0 68.0 59.0 67.0 59.0 67.0 C59.0 63.0 60.0 59.0 61.0 55.0 C63.0 51.0 65.0 47.0 68.0 44.0 C71.0 40.0 75.0 37.0 79.0 34.0 C85.0 31.0 92.0 30.0 100.0 30.0 C108.0 30.0 115.0 31.0 121.0 34.0 C125.0 37.0 128.0 40.0 132.0 44.0 C134.0 47.0 137.0 51.0 139.0 55.0 C139.0 59.0 141.0 63.0 141.0 67.0 C141.0 67.0 141.0 68.0 141.0 68.0 C142.0 74.0 142.0 79.0 142.0 84.0 C142.0 112.0 146.0 134.0 156.0 155.0 C156.0 155.0 156.0 155.0 156.0 155.0 C156.0 156.0 157.0 159.0 157.0 161.0 C157.0 164.0 155.0 167.0 152.0 168.0 C150.0 169.0 148.0 170.0 146.0 170.0 C142.0 170.0 140.0 169.0 138.0 167.0 C136.0 166.0 135.0 165.0 133.0 165.0 C132.0 165.0 131.0 165.0 131.0 165.0 C129.0 166.0 128.0 167.0 127.0 168.0 C124.0 172.0 120.0 174.0 115.0 174.0 L115.0 174.0 Z"></path>
<path fill="#ffffff" fill-opacity="1.0"  filling="0" d="M100.0 166.0 C104.0 166.0 107.0 167.0 109.0 168.0 C111.0 170.0 113.0 170.0 115.0 170.0 C119.0 170.0 122.0 169.0 124.0 166.0 C126.0 164.0 128.0 163.0 130.0 162.0 C131.0 162.0 132.0 162.0 133.0 162.0 C136.0 162.0 138.0 163.0 140.0 164.0 C141.0 166.0 143.0 167.0 146.0 167.0 C147.0 167.0 149.0 166.0 150.0 165.0 C152.0 164.0 153.0 162.0 154.0 161.0 C154.0 159.0 153.0 157.0 153.0 156.0 C143.0 141.0 139.0 119.0 139.0 84.0 C139.0 79.0 138.0 73.0 138.0 68.0 C138.0 68.0 138.0 67.0 138.0 67.0 C138.0 63.0 137.0 60.0 136.0 56.0 C134.0 53.0 132.0 50.0 129.0 46.0 C126.0 43.0 123.0 40.0 119.0 38.0 C114.0 34.0 108.0 33.0 100.0 33.0 C92.0 33.0 86.0 34.0 81.0 38.0 C77.0 40.0 74.0 43.0 71.0 46.0 C68.0 50.0 66.0 53.0 65.0 56.0 C63.0 59.0 62.0 63.0 62.0 67.0 C62.0 67.0 62.0 68.0 62.0 68.0 C62.0 73.0 62.0 79.0 61.0 84.0 C61.0 119.0 57.0 141.0 47.0 156.0 C47.0 157.0 46.0 159.0 46.0 161.0 C47.0 162.0 48.0 164.0 50.0 165.0 C51.0 166.0 53.0 167.0 54.0 167.0 C57.0 167.0 59.0 166.0 60.0 164.0 C62.0 163.0 64.0 162.0 67.0 162.0 C68.0 162.0 69.0 162.0 70.0 162.0 C72.0 163.0 74.0 164.0 75.0 166.0 C78.0 169.0 81.0 170.0 85.0 170.0 C87.0 170.0 89.0 170.0 91.0 168.0 C93.0 167.0 96.0 166.0 100.0 166.0 C100.0 166.0 100.0 166.0 100.0 166.0 L100.0 166.0 Z"></path>
<path fill="#334455" fill-opacity="1.0"  filling="0" d="M100.0 161.0 C81.0 161.0 69.0 148.0 69.0 136.0 C69.0 131.0 70.0 126.0 72.0 121.0 C72.0 120.0 73.0 119.0 74.0 119.0 L126.0 119.0 C127.0 119.0 128.0 120.0 128.0 121.0 C130.0 126.0 131.0 131.0 131.0 136.0 C131.0 148.0 119.0 161.0 100.0 161.0 L100.0 161.0 Z"></path>
<path fill="#ffaa44" fill-opacity="1.0"  filling="0" d="M75.0 122.0 C73.0 127.0 72.0 131.0 72.0 136.0 C72.0 147.0 83.0 158.0 100.0 158.0 C117.0 158.0 128.0 147.0 128.0 136.0 C128.0 131.0 127.0 127.0 125.0 122.0 L75.0 122.0 L75.0 122.0 Z"></path>
<path fill="#334455" fill-opacity="1.0"  filling="0" d="M100.0 145.0 C95.0 145.0 90.0 144.0 84.0 143.0 C87.0 151.0 93.0 156.0 100.0 156.0 C107.0 156.0 113.0 151.0 116.0 143.0 C111.0 144.0 106.0 145.0 100.0 145.0 L100.0 145.0 Z"></path>
<path fill="#ffffff" fill-opacity="1.0"  filling="0" d="M100.0 152.0 C94.0 152.0 89.0 148.0 87.0 143.0 C89.0 144.0 92.0 144.0 94.0 145.0 C96.0 145.0 98.0 146.0 100.0 146.0 C102.0 146.0 104.0 145.0 106.0 145.0 C108.0 144.0 111.0 144.0 113.0 143.0 C111.0 148.0 106.0 152.0 100.0 152.0 L100.0 152.0 Z"></path>
<path fill="#334455" fill-opacity="1.0"  filling="0" d="M103.0 141.0 C102.0 140.0 101.0 139.0 100.0 138.0 C99.0 139.0 98.0 140.0 97.0 141.0 C98.0 141.0 99.0 141.0 100.0 141.0 C101.0 141.0 102.0 141.0 103.0 141.0 L103.0 141.0 Z M110.0 127.0 C109.0 129.0 108.0 131.0 106.0 133.0 C106.0 134.0 106.0 136.0 106.0 138.0 C109.0 137.0 113.0 137.0 116.0 137.0 C115.0 133.0 113.0 130.0 110.0 127.0 L110.0 127.0 Z M90.0 127.0 C87.0 130.0 85.0 133.0 84.0 137.0 C87.0 137.0 91.0 137.0 94.0 138.0 C94.0 136.0 94.0 134.0 94.0 133.0 C92.0 131.0 91.0 129.0 90.0 127.0 L90.0 127.0 Z"></path>
<path fill="#334455" fill-opacity="1.0"  filling="0" d="M100.0 119.0 L76.0 119.0 C76.0 119.0 75.0 119.0 75.0 118.0 C75.0 117.0 76.0 116.0 76.0 116.0 L100.0 116.0 C101.0 116.0 101.0 117.0 101.0 118.0 C101.0 119.0 101.0 119.0 100.0 119.0 L100.0 119.0 Z M124.0 119.0 L100.0 119.0 C99.0 119.0 98.0 119.0 98.0 118.0 C98.0 117.0 99.0 116.0 100.0 116.0 L124.0 116.0 C125.0 116.0 125.0 117.0 125.0 118.0 C125.0 119.0 125.0 119.0 124.0 119.0 L124.0 119.0 Z"></path>
<path fill="#334455" fill-opacity="1.0"  filling="0" d="M100.0 81.0 C96.0 81.0 92.0 79.0 92.0 76.0 C92.0 75.0 92.0 74.0 94.0 74.0 C95.0 74.0 95.0 75.0 95.0 76.0 C95.0 77.0 97.0 78.0 100.0 78.0 C102.0 78.0 104.0 77.0 104.0 76.0 C104.0 75.0 105.0 74.0 106.0 74.0 C107.0 74.0 108.0 75.0 108.0 76.0 C108.0 79.0 104.0 81.0 100.0 81.0 L100.0 81.0 Z"></path>
<path fill="#334455" fill-opacity="1.0"  filling="0" d="M100.0 69.0 C93.0 69.0 88.0 65.0 88.0 60.0 C88.0 59.0 86.0 58.0 84.0 58.0 C81.0 58.0 79.0 61.0 79.0 65.0 C79.0 69.0 81.0 72.0 84.0 72.0 C88.0 72.0 90.0 69.0 90.0 65.0 C90.0 68.0 95.0 72.0 100.0 72.0 C105.0 72.0 110.0 68.0 110.0 65.0 C110.0 69.0 112.0 72.0 116.0 72.0 C119.0 72.0 121.0 69.0 121.0 65.0 C121.0 61.0 119.0 58.0 116.0 58.0 C114.0 58.0 112.0 59.0 112.0 60.0 C112.0 65.0 107.0 69.0 100.0 69.0 L100.0 69.0 Z"></path>
<path fill="#334455" fill-opacity="1.0"  filling="0" d="M100.0 97.0 C97.0 97.0 94.0 98.0 92.0 99.0 C89.0 94.0 83.0 91.0 76.0 91.0 C74.0 91.0 73.0 91.0 72.0 92.0 C71.0 92.0 71.0 92.0 71.0 93.0 C71.0 94.0 71.0 95.0 72.0 95.0 C73.0 94.0 74.0 94.0 76.0 94.0 C85.0 94.0 90.0 98.0 90.0 103.0 C90.0 109.0 85.0 112.0 76.0 112.0 C76.0 112.0 75.0 112.0 74.0 112.0 C74.0 112.0 73.0 113.0 73.0 114.0 C73.0 114.0 74.0 115.0 75.0 115.0 C75.0 115.0 75.0 115.0 76.0 115.0 C82.0 115.0 86.0 114.0 89.0 112.0 C92.0 110.0 94.0 107.0 94.0 103.0 C94.0 102.0 94.0 101.0 93.0 101.0 C95.0 101.0 98.0 101.0 100.0 101.0 C102.0 101.0 105.0 101.0 106.0 101.0 C106.0 101.0 106.0 102.0 106.0 103.0 C106.0 107.0 108.0 110.0 111.0 112.0 C114.0 114.0 118.0 115.0 124.0 115.0 C125.0 115.0 125.0 115.0 125.0 115.0 C126.0 115.0 127.0 114.0 127.0 114.0 C127.0 113.0 126.0 112.0 125.0 112.0 C125.0 112.0 124.0 112.0 124.0 112.0 C115.0 112.0 110.0 109.0 110.0 103.0 C110.0 98.0 115.0 94.0 124.0 94.0 C125.0 94.0 127.0 94.0 128.0 95.0 C129.0 95.0 129.0 94.0 129.0 93.0 C129.0 92.0 129.0 92.0 128.0 92.0 C127.0 91.0 126.0 91.0 124.0 91.0 C117.0 91.0 111.0 94.0 108.0 99.0 C106.0 98.0 103.0 97.0 100.0 97.0 L100.0 97.0 Z"></path></svg>