<svg xmlns="http://www.w3.org/2000/svg" viewBox="0.0 0.0 200.0 200.0" height="200px" width="200px"><path fill="#334455" fill-opacity="1.0"  filling="0" d="M115.0 174.0 C112.0 174.0 109.0 173.0 107.0 171.0 L105.0 170.0 C102.0 169.0 98.0 169.0 95.0 170.0 L93.0 171.0 C89.0 173.0 84.0 173.0 79.0 171.0 C77.0 171.0 75.0 170.0 73.0 168.0 L72.0 167.0 C70.0 165.0 66.0 164.0 64.0 166.0 L62.0 167.0 C59.0 169.0 55.0 170.0 52.0 169.0 C48.0 169.0 45.0 167.0 44.0 163.0 C43.0 161.0 43.0 158.0 44.0 155.0 L44.0 155.0 C50.0 132.0 55.0 110.0 58.0 84.0 L59.0 67.0 C59.0 67.0 59.0 67.0 59.0 67.0 C59.0 46.0 78.0 27.0 100.0 27.0 C123.0 27.0 141.0 46.0 141.0 67.0 C141.0 67.0 141.0 67.0 141.0 67.0 L142.0 84.0 C144.0 110.0 149.0 132.0 156.0 155.0 L156.0 155.0 C158.0 158.0 158.0 161.0 157.0 163.0 C155.0 167.0 152.0 169.0 149.0 169.0 C145.0 170.0 141.0 169.0 139.0 167.0 L136.0 166.0 C134.0 164.0 131.0 165.0 129.0 167.0 L127.0 168.0 C126.0 170.0 124.0 171.0 122.0 171.0 C120.0 173.0 118.0 174.0 115.0 174.0 L115.0 174.0 Z"></path>
<path fill="#ffffee" fill-opacity="1.0"  filling="0" d="M100.0 166.0 C102.0 166.0 105.0 166.0 107.0 167.0 L109.0 168.0 C112.0 171.0 117.0 171.0 120.0 169.0 C122.0 169.0 124.0 168.0 125.0 166.0 L127.0 165.0 C130.0 162.0 135.0 161.0 138.0 164.0 L140.0 165.0 C142.0 167.0 145.0 167.0 148.0 167.0 C150.0 166.0 152.0 165.0 153.0 162.0 C154.0 160.0 154.0 158.0 153.0 156.0 L153.0 156.0 C145.0 132.0 140.0 110.0 138.0 84.0 L138.0 67.0 C138.0 67.0 138.0 67.0 138.0 67.0 C138.0 48.0 121.0 31.0 100.0 31.0 C79.0 31.0 63.0 48.0 63.0 67.0 C63.0 67.0 63.0 67.0 63.0 67.0 L62.0 84.0 C59.0 110.0 55.0 132.0 47.0 156.0 L47.0 156.0 C46.0 158.0 46.0 160.0 47.0 162.0 C48.0 165.0 50.0 166.0 52.0 167.0 C55.0 167.0 57.0 167.0 60.0 165.0 L62.0 164.0 C65.0 161.0 70.0 162.0 73.0 165.0 L75.0 166.0 C76.0 168.0 78.0 169.0 80.0 169.0 C83.0 171.0 88.0 171.0 91.0 169.0 L93.0 167.0 C95.0 166.0 97.0 166.0 100.0 166.0 L100.0 166.0 Z"></path>
<path fill="#334455" fill-opacity="1.0"  filling="0" d="M100.0 161.0 C82.0 161.0 69.0 148.0 69.0 136.0 C69.0 131.0 70.0 126.0 72.0 121.0 C72.0 120.0 73.0 119.0 74.0 119.0 L126.0 119.0 C127.0 119.0 128.0 120.0 128.0 121.0 C130.0 126.0 131.0 131.0 131.0 136.0 C131.0 148.0 118.0 161.0 100.0 161.0 L100.0 161.0 Z"></path>
<path fill="#ffaa44" fill-opacity="1.0"  filling="0" d="M75.0 122.0 C73.0 127.0 72.0 131.0 72.0 136.0 C72.0 147.0 84.0 157.0 100.0 157.0 C116.0 157.0 128.0 147.0 128.0 136.0 C128.0 131.0 127.0 127.0 125.0 122.0 L75.0 122.0 L75.0 122.0 Z"></path>
<path fill="#334455" fill-opacity="1.0"  filling="0" d="M100.0 144.0 C95.0 144.0 89.0 144.0 84.0 143.0 C87.0 150.0 93.0 155.0 100.0 156.0 L100.0 144.0 L100.0 144.0 Z M100.0 144.0 C105.0 144.0 111.0 144.0 116.0 143.0 C113.0 150.0 107.0 155.0 100.0 156.0 L100.0 144.0 L100.0 144.0 Z M97.0 141.0 C98.0 138.0 99.0 136.0 100.0 133.0 C101.0 136.0 102.0 138.0 103.0 141.0 C102.0 141.0 101.0 141.0 100.0 141.0 C99.0 141.0 98.0 141.0 97.0 141.0 L97.0 141.0 Z M110.0 127.0 C112.0 130.0 114.0 133.0 116.0 137.0 C113.0 137.0 109.0 137.0 106.0 138.0 C107.0 135.0 109.0 132.0 110.0 127.0 L110.0 127.0 Z M90.0 127.0 C91.0 132.0 93.0 135.0 94.0 138.0 C91.0 137.0 87.0 137.0 84.0 137.0 C86.0 133.0 88.0 130.0 90.0 127.0 L90.0 127.0 Z"></path>
<path fill="#000000" fill-opacity="1.0"  filling="0" d="M75.0 125.0 C76.0 125.0 76.0 125.0 77.0 125.0 L123.0 125.0 C124.0 125.0 124.0 125.0 124.0 125.0 C124.0 125.0 124.0 124.0 125.0 124.0 C125.0 124.0 125.0 124.0 125.0 124.0 C125.0 124.0 125.0 124.0 125.0 124.0 C125.0 124.0 125.0 124.0 125.0 124.0 C125.0 124.0 125.0 124.0 125.0 124.0 C125.0 124.0 125.0 124.0 125.0 124.0 C125.0 124.0 125.0 124.0 125.0 124.0 C125.0 124.0 125.0 124.0 125.0 124.0 C125.0 124.0 125.0 124.0 125.0 124.0 C125.0 124.0 125.0 124.0 125.0 124.0 C125.0 124.0 125.0 124.0 125.0 124.0 C125.0 124.0 125.0 124.0 125.0 124.0 C125.0 124.0 125.0 124.0 125.0 124.0 C125.0 124.0 125.0 124.0 125.0 124.0 C125.0 124.0 125.0 124.0 125.0 124.0 C125.0 124.0 125.0 124.0 125.0 124.0 C125.0 124.0 125.0 124.0 125.0 124.0 C125.0 124.0 125.0 124.0 125.0 124.0 C125.0 124.0 125.0 124.0 125.0 124.0 C125.0 124.0 125.0 124.0 125.0 124.0 C125.0 124.0 125.0 124.0 125.0 124.0 C125.0 124.0 125.0 124.0 125.0 124.0 C125.0 124.0 125.0 124.0 125.0 124.0 C125.0 124.0 125.0 124.0 125.0 124.0 C125.0 124.0 125.0 124.0 125.0 124.0 C125.0 124.0 125.0 124.0 125.0 124.0 C125.0 124.0 125.0 124.0 125.0 124.0 C125.0 124.0 125.0 124.0 125.0 124.0 C125.0 124.0 125.0 124.0 125.0 124.0 C125.0 124.0 125.0 124.0 125.0 124.0 C125.0 124.0 125.0 124.0 125.0 124.0 C125.0 124.0 125.0 124.0 125.0 124.0 C125.0 124.0 125.0 124.0 125.0 124.0 C125.0 124.0 125.0 124.0 125.0 124.0 C125.0 124.0 125.0 124.0 125.0 124.0 C125.0 124.0 125.0 124.0 125.0 124.0 C125.0 124.0 125.0 124.0 125.0 124.0 C125.0 124.0 125.0 124.0 125.0 124.0 C125.0 124.0 125.0 124.0 125.0 124.0 C125.0 124.0 125.0 124.0 125.0 124.0 C125.0 124.0 125.0 124.0 125.0 124.0 C125.0 124.0 125.0 124.0 125.0 124.0 C125.0 124.0 125.0 124.0 125.0 124.0 C125.0 124.0 125.0 124.0 125.0 124.0 C125.0 124.0 125.0 124.0 125.0 124.0 C125.0 124.0 125.0 124.0 125.0 124.0 C125.0 124.0 125.0 124.0 125.0 124.0 C125.0 124.0 125.0 124.0 125.0 124.0 C125.0 124.0 125.0 124.0 125.0 124.0 C125.0 124.0 125.0 124.0 125.0 124.0 C125.0 124.0 125.0 124.0 125.0 124.0 C125.0 124.0 125.0 124.0 125.0 124.0 C125.0 124.0 125.0 124.0 125.0 124.0 C125.0 124.0 125.0 124.0 125.0 124.0 C125.0 124.0 125.0 124.0 125.0 124.0 C125.0 124.0 125.0 124.0 125.0 124.0 C125.0 124.0 125.0 124.0 125.0 124.0 C125.0 124.0 125.0 124.0 125.0 124.0 C125.0 124.0 125.0 124.0 125.0 124.0 C125.0 124.0 125.0 124.0 125.0 124.0 C125.0 124.0 125.0 124.0 125.0 124.0 C125.0 124.0 125.0 124.0 125.0 124.0 C125.0 124.0 125.0 124.0 125.0 124.0 C125.0 124.0 125.0 124.0 125.0 124.0 C125.0 124.0 125.0 124.0 125.0 124.0 C125.0 124.0 125.0 124.0 125.0 124.0 C125.0 124.0 125.0 124.0 125.0 124.0 C125.0 124.0 125.0 124.0 125.0 124.0 C125.0 124.0 125.0 124.0 125.0 124.0 C125.0 124.0 125.0 124.0 125.0 124.0 C125.0 124.0 125.0 124.0 125.0 124.0 C125.0 124.0 125.0 124.0 125.0 124.0 C125.0 124.0 125.0 124.0 125.0 124.0 C125.0 124.0 125.0 124.0 125.0 124.0 C125.0 124.0 125.0 124.0 125.0 124.0 C125.0 124.0 125.0 124.0 125.0 124.0 C125.0 124.0 125.0 124.0 125.0 124.0 C125.0 124.0 125.0 124.0 125.0 124.0 C125.0 124.0 125.0 124.0 125.0 124.0 C125.0 124.0 125.0 124.0 125.0 124.0 C125.0 124.0 125.0 124.0 125.0 124.0 C125.0 124.0 125.0 124.0 125.0 124.0 C125.0 124.0 125.0 124.0 125.0 124.0 C125.0 124.0 125.0 124.0 125.0 124.0 C125.0 124.0 125.0 124.0 125.0 124.0 C125.0 124.0 125.0 124.0 125.0 124.0 C125.0 124.0 125.0 124.0 125.0 124.0 C125.0 124.0 125.0 124.0 125.0 124.0 C125.0 124.0 125.0 124.0 125.0 124.0 C125.0 124.0 125.0 124.0 125.0 124.0 C125.0 124.0 125.0 124.0 125.0 124.0 C125.0 124.0 125.0 124.0 125.0 124.0 C125.0 124.0 125.0 124.0 125.0 124.0 C125.0 124.0 125.0 124.0 125.0 124.0 C125.0 124.0 125.0 124.0 125.0 124.0 C125.0 124.0 125.0 124.0 75.0 124.0 C75.0 124.0 75.0 124.0 75.0 124.0 C75.0 124.0 75.0 124.0 75.0 124.0 C75.0 124.0 75.0 124.0 75.0 124.0 C75.0 124.0 75.0 124.0 75.0 124.0 C75.0 124.0 75.0 124.0 75.0 124.0 C75.0 124.0 75.0 124.0 75.0 124.0 C75.0 124.0 75.0 124.0 75.0 124.0 C75.0 124.0 75.0 124.0 75.0 124.0 C75.0 124.0 75.0 124.0 75.0 124.0 C75.0 124.0 75.0 124.0 75.0 124.0 C75.0 124.0 75.0 124.0 75.0 124.0 C75.0 124.0 75.0 124.0 75.0 124.0 C75.0 124.0 75.0 124.0 75.0 124.0 C75.0 124.0 75.0 124.0 75.0 124.0 C75.0 124.0 75.0 124.0 75.0 124.0 C75.0 124.0 75.0 124.0 75.0 124.0 C75.0 124.0 75.0 124.0 75.0 124.0 C75.0 124.0 75.0 124.0 75.0 124.0 C75.0 124.0 75.0 124.0 75.0 124.0 C75.0 124.0 75.0 124.0 75.0 124.0 C75.0 124.0 75.0 124.0 75.0 124.0 C75.0 124.0 75.0 124.0 75.0 124.0 C75.0 124.0 75.0 124.0 75.0 124.0 C75.0 124.0 75.0 124.0 75.0 124.0 C75.0 124.0 75.0 124.0 75.0 124.0 C75.0 124.0 75.0 124.0 75.0 124.0 C75.0 124.0 75.0 124.0 75.0 124.0 C75.0 124.0 75.0 124.0 75.0 124.0 C75.0 124.0 75.0 124.0 75.0 124.0 C75.0 124.0 75.0 124.0 75.0 124.0 C75.0 124.0 75.0 124.0 75.0 124.0 C75.0 124.0 75.0 124.0 75.0 124.0 C75.0 124.0 75.0 124.0 75.0 124.0 C75.0 124.0 75.0 124.0 75.0 124.0 C75.0 124.0 75.0 124.0 75.0 124.0 C75.0 124.0 75.0 124.0 75.0 124.0 C75.0 124.0 75.0 124.0 75.0 124.0 C75.0 124.0 75.0 124.0 75.0 124.0 C75.0 124.0 75.0 124.0 75.0 124.0 C75.0 124.0 75.0 124.0 75.0 124.0 C75.0 124.0 75.0 124.0 75.0 124.0 C75.0 124.0 75.0 124.0 75.0 124.0 C75.0 124.0 75.0 124.0 75.0 124.0 C75.0 124.0 75.0 124.0 75.0 124.0 C75.0 124.0 75.0 124.0 75.0 124.0 C75.0 124.0 75.0 124.0 75.0 124.0 C75.0 124.0 75.0 124.0 75.0 124.0 C75.0 124.0 75.0 124.0 75.0 124.0 C75.0 124.0 75.0 124.0 75.0 124.0 C75.0 124.0 75.0 124.0 75.0 124.0 C75.0 124.0 75.0 124.0 75.0 124.0 C75.0 124.0 75.0 124.0 75.0 124.0 C75.0 124.0 75.0 124.0 75.0 124.0 C75.0 124.0 75.0 124.0 75.0 124.0 C75.0 124.0 75.0 124.0 75.0 124.0 C75.0 124.0 75.0 124.0 75.0 124.0 C75.0 124.0 75.0 124.0 75.0 124.0 C75.0 124.0 75.0 124.0 75.0 124.0 C75.0 124.0 75.0 124.0 75.0 124.0 C75.0 124.0 75.0 124.0 75.0 124.0 C75.0 124.0 75.0 124.0 75.0 124.0 C75.0 124.0 75.0 124.0 75.0 124.0 C75.0 124.0 75.0 124.0 75.0 124.0 C75.0 124.0 75.0 124.0 75.0 124.0 C75.0 124.0 75.0 124.0 75.0 124.0 C75.0 124.0 75.0 124.0 75.0 124.0 C75.0 124.0 75.0 124.0 75.0 124.0 C75.0 124.0 75.0 124.0 75.0 124.0 C75.0 124.0 75.0 124.0 75.0 124.0 C75.0 124.0 75.0 124.0 75.0 124.0 C75.0 124.0 75.0 124.0 75.0 124.0 C75.0 124.0 75.0 124.0 75.0 124.0 C75.0 124.0 75.0 124.0 75.0 124.0 C75.0 124.0 75.0 124.0 75.0 124.0 C75.0 124.0 75.0 124.0 75.0 124.0 C75.0 124.0 75.0 124.0 75.0 124.0 C75.0 124.0 75.0 124.0 75.0 124.0 C75.0 124.0 75.0 124.0 75.0 124.0 C75.0 124.0 75.0 124.0 75.0 124.0 C75.0 124.0 75.0 124.0 75.0 124.0 C75.0 124.0 75.0 124.0 75.0 124.0 C75.0 124.0 75.0 124.0 75.0 124.0 C75.0 124.0 75.0 124.0 75.0 124.0 C75.0 124.0 75.0 124.0 75.0 124.0 C75.0 124.0 75.0 124.0 75.0 124.0 C75.0 124.0 75.0 124.0 75.0 124.0 C75.0 124.0 75.0 124.0 75.0 124.0 C75.0 124.0 75.0 124.0 75.0 124.0 C75.0 124.0 75.0 124.0 75.0 124.0 C75.0 124.0 75.0 124.0 75.0 124.0 C75.0 124.0 75.0 124.0 75.0 124.0 C75.0 124.0 75.0 124.0 75.0 124.0 C75.0 124.0 75.0 124.0 75.0 124.0 C75.0 124.0 75.0 124.0 75.0 124.0 C75.0 124.0 75.0 124.0 75.0 124.0 C75.0 124.0 75.0 124.0 75.0 124.0 C75.0 124.0 75.0 124.0 75.0 124.0 C75.0 124.0 75.0 124.0 75.0 124.0 C75.0 124.0 75.0 124.0 75.0 124.0 C75.0 124.0 75.0 124.0 75.0 124.0 C75.0 124.0 75.0 124.0 75.0 124.0 C75.0 124.0 75.0 124.0 75.0 124.0 C75.0 124.0 75.0 124.0 75.0 124.0 C75.0 124.0 75.0 124.0 75.0 124.0 C75.0 124.0 75.0 124.0 75.0 124.0 C75.0 124.0 75.0 124.0 75.0 124.0 C75.0 124.0 75.0 124.0 75.0 124.0 C75.0 124.0 75.0 124.0 75.0 124.0 C75.0 124.0 75.0 124.0 75.0 124.0 C75.0 124.0 75.0 124.0 75.0 124.0 C75.0 124.0 75.0 124.0 75.0 124.0 C75.0 124.0 75.0 124.0 75.0 124.0 C75.0 124.0 75.0 124.0 75.0 124.0 C75.0 124.0 75.0 124.0 75.0 124.0 C75.0 124.0 75.0 124.0 75.0 124.0 C75.0 124.0 75.0 124.0 75.0 124.0 C75.0 124.0 75.0 124.0 75.0 124.0 C75.0 124.0 75.0 124.0 75.0 124.0 C75.0 124.0 75.0 124.0 75.0 124.0 C75.0 124.0 75.0 124.0 75.0 124.0 C75.0 124.0 75.0 124.0 75.0 124.0 C75.0 124.0 75.0 124.0 75.0 124.0 C75.0 124.0 75.0 124.0 75.0 124.0 C75.0 124.0 75.0 124.0 75.0 124.0 C75.0 124.0 75.0 124.0 75.0 124.0 C75.0 124.0 75.0 124.0 75.0 124.0 C75.0 124.0 75.0 124.0 75.0 124.0 C75.0 124.0 75.0 124.0 75.0 124.0 C75.0 124.0 75.0 124.0 75.0 124.0 C75.0 124.0 75.0 124.0 75.0 124.0 C75.0 124.0 75.0 124.0 75.0 124.0 C75.0 124.0 75.0 124.0 75.0 124.0 C75.0 124.0 75.0 124.0 75.0 124.0 C75.0 124.0 75.0 124.0 75.0 124.0 C75.0 124.0 75.0 124.0 75.0 124.0 C75.0 124.0 75.0 124.0 75.0 124.0 C75.0 124.0 75.0 124.0 75.0 124.0 C75.0 124.0 75.0 124.0 75.0 124.0 C75.0 124.0 75.0 124.0 75.0 124.0 C75.0 124.0 75.0 124.0 75.0 124.0 C75.0 124.0 75.0 124.0 75.0 124.0 C75.0 124.0 75.0 124.0 75.0 124.0 C75.0 124.0 92.0 133.0 94.0 138.0 C91.0 137.0 87.0 137.0 84.0 137.0 C86.0 133.0 88.0 130.0 90.0 127.0 C91.0 131.0 93.0 134.0 94.0 137.0 C95.0 137.0 95.0 137.0 95.0 137.0 C95.0 137.0 95.0 137.0 95.0 137.0 C95.0 137.0 95.0 137.0 95.0 137.0 C95.0 137.0 95.0 137.0 95.0 137.0 C95.0 137.0 95.0 137.0 95.0 137.0 C95.0 137.0 95.0 137.0 95.0 137.0 C95.0 137.0 95.0 137.0 95.0 137.0 C95.0 137.0 95.0 137.0 95.0 137.0 C95.0 137.0 95.0 137.0 95.0 137.0 C95.0 137.0 95.0 137.0 95.0 137.0 C95.0 137.0 95.0 137.0 95.0 137.0 C95.0 137.0 95.0 137.0 95.0 137.0 C95.0 137.0 95.0 137.0 95.0 137.0 C95.0 137.0 95.0 137.0 95.0 137.0 C95.0 137.0 95.0 137.0 95.0 137.0 C95.0 137.0 95.0 137.0 95.0 137.0 C95.0 137.0 95.0 137.0 95.0 137.0 C95.0 137.0 95.0 137.0 95.0 137.0 C95.0 137.0 95.0 137.0 95.0 137.0 C95.0 137.0 95.0 137.0 95.0 137.0 C95.0 137.0 95.0 137.0 95.0 137.0 C95.0 137.0 95.0 137.0 95.0 137.0 C95.0 137.0 95.0 137.0 95.0 137.0 C95.0 137.0 95.0 137.0 95.0 137.0 C95.0 137.0 95.0 137.0 95.0 137.0 C95.0 137.0 95.0 137.0 95.0 137.0 C95.0 137.0 95.0 137.0 95.0 137.0 C95.0 137.0 95.0 137.0 95.0 137.0 C95.0 137.0 95.0 137.0 95.0 137.0 C95.0 137.0 95.0 137.0 95.0 137.0 C95.0 137.0 95.0 137.0 95.0 137.0 C95.0 137.0 95.0 137.0 95.0 137.0 C95.0 137.0 95.0 137.0 95.0 137.0"></path></svg>