<svg xmlns="http://www.w3.org/2000/svg" viewBox="0.0 0.0 200.0 200.0" height="200px" width="200px"><path fill="#dddddd" fill-opacity="1.0"  filling="0" d="M143.0 68.0 L140.0 71.0 C140.0 72.0 141.0 72.0 141.0 71.0 L144.0 68.0 L149.0 69.0 C150.0 70.0 151.0 70.0 151.0 71.0 L150.0 65.0 L155.0 61.0 C156.0 61.0 156.0 60.0 155.0 60.0 L148.0 59.0 L147.0 53.0 C146.0 52.0 145.0 52.0 145.0 53.0 L143.0 58.0 L137.0 59.0 C136.0 60.0 136.0 61.0 137.0 61.0 L142.0 63.0 L140.0 68.0 C140.0 69.0 140.0 71.0 140.0 71.0 L143.0 68.0 L143.0 68.0 Z M90.0 107.0 C86.0 99.0 88.0 89.0 95.0 83.0 C97.0 81.0 99.0 80.0 102.0 79.0 C103.0 78.0 104.0 78.0 103.0 77.0 C94.0 76.0 85.0 77.0 79.0 84.0 C71.0 93.0 71.0 106.0 80.0 115.0 C88.0 123.0 101.0 126.0 111.0 120.0 C119.0 115.0 123.0 107.0 123.0 98.0 C123.0 96.0 123.0 95.0 122.0 94.0 C122.0 93.0 121.0 94.0 121.0 95.0 C121.0 104.0 116.0 110.0 109.0 113.0 C100.0 115.0 92.0 112.0 90.0 107.0 L90.0 107.0 Z M38.0 99.0 L37.0 105.0 C37.0 106.0 37.0 106.0 37.0 105.0 L39.0 99.0 L44.0 98.0 C44.0 98.0 44.0 97.0 44.0 97.0 L39.0 96.0 L37.0 90.0 C37.0 90.0 36.0 90.0 36.0 90.0 L34.0 96.0 L29.0 97.0 C28.0 97.0 28.0 98.0 29.0 98.0 L33.0 99.0 L35.0 105.0 C35.0 106.0 36.0 106.0 36.0 105.0 L38.0 99.0 L38.0 99.0 Z M89.0 155.0 L89.0 149.0 C89.0 148.0 88.0 148.0 88.0 149.0 L86.0 154.0 L82.0 155.0 C81.0 155.0 81.0 156.0 82.0 156.0 L86.0 157.0 L88.0 162.0 C88.0 162.0 89.0 162.0 89.0 161.0 L90.0 157.0 L94.0 156.0 C95.0 155.0 95.0 155.0 94.0 155.0 L89.0 155.0 L89.0 155.0 Z M158.0 122.0 L159.0 127.0 C159.0 128.0 160.0 128.0 160.0 127.0 L161.0 122.0 L167.0 120.0 C167.0 120.0 167.0 119.0 166.0 119.0 L161.0 118.0 L160.0 113.0 C160.0 112.0 159.0 112.0 158.0 113.0 L158.0 118.0 L152.0 119.0 C151.0 119.0 151.0 120.0 152.0 120.0 L158.0 122.0 L158.0 122.0 Z M39.0 97.0 L42.0 95.0 L44.0 96.0 L41.0 95.0 L39.0 91.0 L39.0 95.0 L36.0 96.0 L38.0 96.0 L39.0 99.0 L39.0 97.0 L39.0 97.0 Z M98.0 156.0 L100.0 152.0 L104.0 153.0 L101.0 151.0 L102.0 148.0 C102.0 147.0 101.0 147.0 101.0 148.0 L100.0 151.0 L97.0 151.0 L99.0 152.0 L98.0 155.0 L100.0 154.0 L102.0 156.0 L102.0 154.0 L98.0 156.0 L98.0 156.0 Z M47.0 64.0 L48.0 62.0 L49.0 63.0 L48.0 64.0 L49.0 65.0 L48.0 65.0 L47.0 67.0 L47.0 65.0 L45.0 65.0 L46.0 64.0 L45.0 62.0 L47.0 64.0 L47.0 64.0 Z M133.0 155.0 L135.0 152.0 L137.0 154.0 L135.0 153.0 L136.0 155.0 L134.0 155.0 L134.0 157.0 L134.0 155.0 L131.0 156.0 L133.0 154.0 L131.0 153.0 L133.0 153.0 L133.0 155.0 L133.0 155.0 Z M47.0 59.0 L48.0 57.0 L50.0 59.0 L48.0 58.0 L47.0 61.0 L46.0 58.0 L44.0 59.0 L46.0 57.0 L44.0 56.0 L47.0 57.0 L47.0 59.0 L47.0 59.0 Z M87.0 163.0 L88.0 160.0 L90.0 161.0 L88.0 161.0 L88.0 159.0 L87.0 161.0 L85.0 161.0 L86.0 160.0 L86.0 158.0 L87.0 160.0 L87.0 163.0 L87.0 163.0 Z M153.0 142.0 L154.0 140.0 L155.0 141.0 L154.0 141.0 L154.0 142.0 L153.0 141.0 L152.0 142.0 L152.0 141.0 L152.0 140.0 L153.0 140.0 L153.0 142.0 L153.0 142.0 Z"></path>
<path fill="#000000" fill-opacity="1.0"  filling="0" d="M63.0 35.0 L65.0 41.0 L72.0 42.0 C74.0 42.0 75.0 43.0 73.0 44.0 L68.0 48.0 L69.0 56.0 C70.0 58.0 69.0 58.0 68.0 57.0 L61.0 53.0 L55.0 57.0 C54.0 58.0 53.0 58.0 54.0 56.0 L55.0 48.0 L50.0 44.0 C48.0 43.0 49.0 42.0 51.0 42.0 L58.0 41.0 L60.0 35.0 C61.0 32.0 62.0 32.0 63.0 35.0 L63.0 35.0 Z M127.0 110.0 L130.0 114.0 C138.0 104.0 139.0 86.0 132.0 74.0 C122.0 59.0 103.0 51.0 86.0 53.0 C84.0 53.0 83.0 54.0 82.0 55.0 C81.0 55.0 81.0 55.0 81.0 55.0 C81.0 55.0 81.0 55.0 81.0 55.0 C81.0 55.0 81.0 55.0 81.0 55.0 C81.0 55.0 81.0 55.0 81.0 55.0 C81.0 55.0 81.0 55.0 81.0 55.0 C81.0 55.0 81.0 55.0 81.0 55.0 C81.0 55.0 81.0 55.0 81.0 55.0 C81.0 55.0 81.0 55.0 81.0 55.0 C81.0 55.0 81.0 55.0 81.0 55.0 C81.0 55.0 81.0 55.0 81.0 55.0 C81.0 55.0 81.0 55.0 81.0 55.0 C81.0 55.0 81.0 55.0 81.0 55.0 C81.0 55.0 81.0 55.0 81.0 55.0 C81.0 55.0 81.0 55.0 81.0 55.0 C81.0 55.0 81.0 55.0 81.0 55.0 C81.0 55.0 81.0 55.0 81.0 55.0 C81.0 55.0 81.0 55.0 81.0 55.0 C81.0 55.0 81.0 55.0 81.0 55.0 C81.0 55.0 81.0 55.0 81.0 55.0 C81.0 55.0 81.0 55.0 81.0 55.0 C81.0 55.0 81.0 55.0 81.0 55.0 C81.0 55.0 81.0 55.0 81.0 55.0 C81.0 55.0 81.0 55.0 81.0 55.0 C81.0 55.0 81.0 55.0 81.0 55.0 C81.0 55.0 81.0 55.0 81.0 55.0 C81.0 55.0 81.0 55.0 81.0 55.0 C81.0 55.0 81.0 55.0 81.0 55.0 C81.0 55.0 81.0 55.0 81.0 55.0 C81.0 55.0 81.0 55.0 81.0 55.0 C81.0 55.0 81.0 55.0 81.0 55.0 C81.0 55.0 81.0 55.0 81.0 55.0 C81.0 55.0 81.0 55.0 81.0 55.0 C81.0 55.0 81.0 55.0 81.0 55.0 C81.0 55.0 81.0 55.0 81.0 55.0 C81.0 55.0 81.0 55.0 81.0 55.0 C81.0 55.0 81.0 55.0 81.0 55.0 C81.0 55.0 81.0 55.0 81.0 55.0 C81.0 55.0 81.0 55.0 81.0 55.0 C81.0 55.0 81.0 55.0 81.0 55.0 C81.0 55.0 81.0 55.0 81.0 55.0 C81.0 55.0 81.0 55.0 81.0 55.0 C81.0 55.0 81.0 55.0 81.0 55.0 C81.0 55.0 81.0 55.0 81.0 55.0 C81.0 55.0 81.0 55.0 81.0 55.0 C81.0 55.0 81.0 55.0 81.0 55.0 C81.0 55.0 81.0 55.0 81.0 55.0 C81.0 55.0 81.0 55.0 81.0 55.0 C81.0 55.0 81.0 55.0 81.0 55.0 C81.0 55.0 81.0 55.0 81.0 55.0 C81.0 55.0 81.0 55.0 81.0 55.0 C81.0 55.0 81.0 55.0 81.0 55.0 C81.0 55.0 81.0 55.0 81.0 55.0 C81.0 55.0 81.0 55.0 81.0 55.0 C81.0 55.0 81.0 55.0 81.0 55.0 C81.0 55.0 81.0 55.0 81.0 55.0 C81.0 55.0 81.0 55.0 81.0 55.0 C81.0 55.0 81.0 55.0 81.0 55.0 C81.0 55.0 81.0 55.0 81.0 55.0 C81.0 55.0 81.0 55.0 81.0 55.0 C81.0 55.0 81.0 55.0 81.0 55.0 C81.0 55.0 81.0 55.0 81.0 55.0 C81.0 55.0 81.0 55.0 81.0 55.0 C81.0 55.0 81.0 55.0 81.0 55.0 C81.0 55.0 81.0 55.0 81.0 55.0 C81.0 55.0 81.0 55.0 81.0 55.0 C81.0 55.0 81.0 55.0 81.0 55.0 C81.0 55.0 81.0 55.0 81.0 55.0 C81.0 55.0 81.0 55.0 81.0 55.0 C81.0 55.0 81.0 55.0 81.0 55.0 C81.0 55.0 81.0 55.0 81.0 55.0 C81.0 55.0 81.0 55.0 81.0 55.0 C81.0 55.0 81.0 55.0 81.0 55.0 C81.0 55.0 81.0 55.0 81.0 55.0 C81.0 55.0 81.0 55.0 81.0 55.0 C81.0 55.0 81.0 55.0 81.0 55.0 C81.0 55.0 81.0 55.0 81.0 55.0 C81.0 55.0 81.0 55.0 81.0 55.0 C81.0 55.0 81.0 55.0 81.0 55.0 C81.0 55.0 81.0 55.0 81.0 55.0 C81.0 55.0 81.0 55.0 81.0 55.0 C81.0 55.0 81.0 55.0 81.0 55.0 C81.0 55.0 81.0 55.0 81.0 55.0 C81.0 55.0 81.0 55.0 81.0 55.0 C81.0 55.0 81.0 55.0 81.0 55.0 C81.0 55.0 81.0 55.0 81.0 55.0 C81.0 55.0 81.0 55.0 81.0 55.0 C81.0 55.0 81.0 55.0 81.0 55.0 C81.0 55.0 81.0 55.0 81.0 55.0 C81.0 55.0 81.0 55.0 81.0 55.0 C81.0 55.0 81.0 55.0 81.0 55.0 C81.0 55.0 81.0 55.0 81.0 55.0 C81.0 55.0 81.0 55.0 81.0 55.0 C81.0 55.0 81.0 55.0 81.0 55.0 C81.0 55.0 81.0 55.0 81.0 55.0 C81.0 55.0 81.0 55.0 81.0 55.0 C81.0 55.0 81.0 55.0 81.0 55.0 C81.0 55.0 81.0 55.0 81.0 55.0 C81.0 55.0 81.0 55.0 81.0 55.0 C81.0 55.0 81.0 55.0 81.0 55.0 C81.0 55.0 81.0 55.0 81.0 55.0 C81.0 55.0 81.0 55.0 81.0 55.0 C81.0 55.0 81.0 55.0 81.0 55.0 C81.0 55.0 81.0 55.0 81.0 55.0 C81.0 55.0 81.0 55.0 81.0 55.0 C81.0 55.0 81.0 55.0 81.0 55.0 C81.0 55.0 81.0 55.0 81.0 55.0 C81.0 55.0 81.0 55.0 81.0 55.0 C81.0 55.0 81.0 55.0 81.0 55.0 C81.0 55.0 81.0 55.0 81.0 55.0 C81.0 55.0 81.0 55.0 81.0 55.0 C81.0 55.0 81.0 55.0 81.0 55.0 C81.0 55.0 81.0 55.0 81.0 55.0 C81.0 55.0 81.0 55.0 81.0 55.0 C81.0 55.0 81.0 55.0 81.0 55.0 C81.0 55.0 81.0 55.0 81.0 55.0 C81.0 55.0 81.0 55.0 81.0 55.0 C81.0 55.0 81.0 55.0 81.0 55.0 C81.0 55.0 81.0 55.0 81.0 55.0 C81.0 55.0 81.0 55.0 81.0 55.0 C81.0 55.0 81.0 55.0 81.0 55.0 C81.0 55.0 81.0 55.0 81.0 55.0 C81.0 55.0 81.0 55.0 81.0 55.0 C81.0 55.0 81.0 55.0 81.0 55.0 C81.0 55.0 81.0 55.0 81.0 55.0 C81.0 55.0 81.0 55.0 81.0 55.0 C81.0 55.0 81.0 55.0 81.0 55.0 C81.0 55.0 81.0 55.0 81.0 55.0 C81.0 55.0 81.0 55.0 81.0 55.0 C81.0 55.0 81.0 55.0 81.0 55.0 C81.0 55.0 81.0 55.0 81.0 55.0 C81.0 55.0 81.0 55.0 81.0 55.0 C81.0 55.0 81.0 55.0 81.0 55.0 C81.0 55.0 81.0 55.0 81.0 55.0 C81.0 55.0 81.0 55.0 81.0 55.0 C81.0 55.0 81.0 55.0 81.0 55.0 C81.0 55.0 81.0 55.0 81.0 55.0 C81.0 55.0 81.0 55.0 81.0 55.0 C81.0 55.0 81.0 55.0 81.0 55.0 C81.0 55.0 81.0 55.0 81.0 55.0 C81.0 55.0 81.0 55.0 81.0 55.0 C81.0 55.0 81.0 55.0 81.0 55.0 C81.0 55.0 81.0 55.0 81.0 55.0 C81.0 55.0 81.0 55.0 81.0 55.0 C81.0 55.0 81.0 55.0 81.0 55.0 C81.0 55.0 81.0 55.0 81.0 55.0 C81.0 55.0 81.0 55.0 81.0 55.0 C81.0 55.0 81.0 55.0 81.0 55.0 C81.0 55.0 81.0 55.0 81.0 55.0 C81.0 55.0 81.0 55.0 81.0 55.0 C81.0 55.0 81.0 55.0 81.0 55.0 C81.0 55.0 81.0 55.0 81.0 55.0 C81.0 55.0 81.0 55.0 81.0 55.0 C81.0 55.0 81.0 55.0 81.0 55.0 C81.0 55.0 81.0 55.0 81.0 55.0 C81.0 55.0 81.0 55.0 81.0 55.0 C81.0 55.0 81.0 55.0 81.0 55.0 C81.0 55.0 81.0 55.0 81.0 55.0 C81.0 55.0 81.0 55.0 81.0 55.0 C81.0 55.0 81.0 55.0 81.0 55.0 C81.0 55.0 81.0 55.0 81.0 55.0 C81.0 55.0 81.0 55.0 81.0 55.0 C81.0 55.0 81.0 55.0 81.0 55.0 C81.0 55.0 81.0 55.0 81.0 55.0 C81.0 55.0 81.0 55.0 81.0 55.0 C81.0 55.0 81.0 55.0 81.0 55.0 C81.0 55.0 81.0 55.0 81.0 55.0 C81.0 55.0 81.0 55.0 81.0 55.0 C81.0 55.0 81.0 55.0 81.0 55.0 C81.0 55.0 81.0 55.0 81.0 55.0 C81.0 55.0 81.0 55.0 81.0 55.0 C81.0 55.0 81.0 55.0 81.0 55.0 C81.0 55.0 89.0 134.0 89.0 134.0 C89.0 134.0 89.0 134.0 89.0 134.0 C89.0 134.0 89.0 134.0 89.0 134.0 C89.0 134.0 89.0 134.0 89.0 134.0 C89.0 134.0 89.0 134.0 89.0 134.0 C89.0 134.0 89.0 134.0 89.0 134.0 C89.0 134.0 89.0 134.0 89.0 134.0 C89.0 134.0 89.0 134.0 89.0 134.0 C89.0 134.0 89.0 134.0 89.0 134.0 C89.0 134.0 89.0 134.0 89.0 134.0 C89.0 134.0 89.0 134.0 89.0 134.0 C89.0 134.0 89.0 134.0 89.0 134.0 C89.0 134.0 89.0 134.0 89.0 134.0 C89.0 134.0 89.0 134.0 89.0 134.0 C89.0 134.0 89.0 134.0 89.0 134.0 C89.0 134.0 89.0 134.0 89.0 134.0 C89.0 134.0 89.0 134.0 89.0 134.0 C89.0 134.0 89.0 134.0 89.0 134.0 C89.0 134.0 89.0 134.0 89.0 134.0 C89.0 134.0 89.0 134.0 89.0 134.0 C89.0 134.0 89.0 134.0 89.0 134.0 C89.0 134.0 89.0 134.0 89.0 134.0 C89.0 134.0 89.0 134.0 89.0 134.0 C89.0 134.0 89.0 134.0 89.0 134.0 C89.0 134.0 89.0 134.0 89.0 134.0 C89.0 134.0 89.0 134.0 89.0 134.0 C89.0 134.0 89.0 134.0 89.0 134.0 C89.0 134.0 89.0 134.0 89.0 134.0 C89.0 134.0 89.0 134.0 89.0 134.0 C89.0 134.0 89.0 134.0 89.0 134.0 C89.0 134.0 89.0 134.0 89.0 134.0 C89.0 134.0 89.0 134.0 89.0 134.0 C89.0 134.0 89.0 134.0 89.0 134.0 C89.0 134.0 89.0 134.0 89.0 134.0 C89.0 134.0 89.0 134.0 89.0 134.0 C89.0 134.0 89.0 134.0 89.0 134.0 C89.0 134.0 89.0 134.0 89.0 134.0 C89.0 134.0 89.0 134.0 89.0 134.0 C89.0 134.0 89.0 134.0 89.0 134.0 C89.0 134.0 89.0 134.0 89.0 134.0 C89.0 134.0 89.0 134.0 89.0 134.0 C89.0 134.0 89.0 134.0 89.0 134.0 C89.0 134.0 89.0 134.0 89.0 134.0 C89.0 134.0 89.0 134.0 89.0 134.0 C89.0 134.0 89.0 134.0 89.0 134.0 C89.0 134.0 89.0 134.0 89.0 134.0 C89.0 134.0 89.0 134.0 89.0 134.0 C89.0 134.0 89.0 134.0 89.0 134.0 C89.0 134.0 89.0 134.0 89.0 134.0 C89.0 134.0 89.0 134.0 89.0 134.0 C89.0 134.0 89.0 134.0 89.0 134.0 C89.0 134.0 89.0 134.0 89.0 134.0 C89.0 134.0 89.0 134.0 89.0 134.0 C89.0 134.0 89.0 134.0 89.0 134.0 C89.0 134.0 89.0 134.0 89.0 134.0 C89.0 134.0 89.0 134.0 89.0 134.0 C89.0 134.0 89.0 134.0 89.0 134.0 C89.0 134.0 89.0 134.0 89.0 134.0 C89.0 134.0 89.0 134.0 89.0 134.0 C89.0 134.0 89.0 134.0 89.0 134.0 C89.0 134.0 89.0 134.0 89.0 134.0 C89.0 134.0 89.0 134.0 89.0 134.0 C89.0 134.0 89.0 134.0 89.0 134.0 C89.0 134.0 89.0 134.0 89.0 134.0 C89.0 134.0 89.0 134.0 89.0 134.0 C89.0 134.0 89.0 134.0 89.0 134.0 C89.0 134.0 89.0 134.0 89.0 134.0 C89.0 134.0 89.0 134.0 89.0 134.0 C89.0 134.0 89.0 134.0 89.0 134.0 C89.0 134.0 89.0 134.0 89.0 134.0 C89.0 134.0 89.0 134.0 89.0 134.0"></path></svg>