<svg xmlns="http://www.w3.org/2000/svg" viewBox="0.0 0.0 200.0 200.0" height="200px" width="200px"><path fill="#000000" fill-opacity="1.0"  filling="0" d="M143.0 68.0 L140.0 71.0 C140.0 72.0 141.0 72.0 141.0 71.0 L144.0 68.0 A1.0 1.0 0.0 0 1 145.0 68.0 L151.0 71.0 C151.0 72.0 152.0 71.0 152.0 71.0 L150.0 65.0 A1.0 1.0 0.0 0 1 150.0 64.0 L155.0 60.0 C156.0 60.0 155.0 59.0 155.0 59.0 L149.0 59.0 A1.0 1.0 0.0 0 1 148.0 58.0 L146.0 52.0 C146.0 52.0 145.0 52.0 145.0 52.0 L143.0 58.0 A1.0 1.0 0.0 0 1 143.0 59.0 L137.0 60.0 C136.0 60.0 136.0 61.0 137.0 61.0 L142.0 64.0 A1.0 1.0 0.0 0 1 142.0 65.0 L140.0 71.0 C140.0 71.0 141.0 72.0 141.0 71.0 L143.0 68.0 L143.0 68.0 Z M158.0 116.0 L159.0 113.0 C159.0 112.0 160.0 112.0 160.0 113.0 L161.0 116.0 A1.0 1.0 0.0 0 0 161.0 116.0 L166.0 119.0 C167.0 119.0 167.0 120.0 166.0 120.0 L161.0 122.0 A1.0 1.0 0.0 0 0 161.0 122.0 L160.0 127.0 C159.0 128.0 159.0 128.0 158.0 127.0 L157.0 122.0 A1.0 1.0 0.0 0 0 156.0 122.0 L151.0 120.0 C151.0 120.0 151.0 119.0 152.0 119.0 L156.0 116.0 A1.0 1.0 0.0 0 0 157.0 116.0 L158.0 112.0 C158.0 112.0 159.0 112.0 159.0 113.0 L158.0 116.0 L158.0 116.0 Z M77.0 47.0 L75.0 42.0 A1.0 1.0 0.0 0 0 74.0 42.0 L65.0 41.0 A1.0 1.0 0.0 0 1 65.0 40.0 L62.0 33.0 C62.0 32.0 61.0 32.0 61.0 33.0 L58.0 40.0 A1.0 1.0 0.0 0 1 58.0 41.0 L50.0 42.0 C49.0 42.0 49.0 43.0 49.0 43.0 L55.0 48.0 A1.0 1.0 0.0 0 1 55.0 49.0 L53.0 57.0 C53.0 58.0 54.0 58.0 54.0 58.0 L61.0 53.0 A1.0 1.0 0.0 0 1 62.0 53.0 L68.0 57.0 C69.0 58.0 70.0 57.0 69.0 56.0 L67.0 49.0 A1.0 1.0 0.0 0 1 68.0 48.0 L75.0 43.0 C75.0 43.0 75.0 42.0 75.0 42.0 L77.0 47.0 L77.0 47.0 Z M39.0 96.0 L44.0 97.0 C44.0 97.0 44.0 98.0 44.0 98.0 L39.0 99.0 A1.0 1.0 0.0 0 0 39.0 100.0 L37.0 105.0 C37.0 106.0 36.0 106.0 36.0 105.0 L34.0 100.0 A1.0 1.0 0.0 0 0 34.0 99.0 L29.0 98.0 C29.0 98.0 29.0 97.0 29.0 97.0 L33.0 96.0 A1.0 1.0 0.0 0 0 34.0 95.0 L36.0 90.0 C36.0 90.0 37.0 90.0 37.0 90.0 L39.0 95.0 A1.0 1.0 0.0 0 0 39.0 96.0 L39.0 96.0 Z M119.0 154.0 L118.0 149.0 C118.0 148.0 118.0 148.0 117.0 149.0 L116.0 154.0 A1.0 1.0 0.0 0 0 115.0 154.0 L111.0 155.0 C110.0 155.0 110.0 156.0 111.0 156.0 L115.0 158.0 A1.0 1.0 0.0 0 0 116.0 158.0 L117.0 163.0 C117.0 163.0 118.0 163.0 118.0 163.0 L119.0 158.0 A1.0 1.0 0.0 0 0 120.0 158.0 L124.0 156.0 C125.0 156.0 125.0 155.0 124.0 155.0 L120.0 154.0 A1.0 1.0 0.0 0 0 119.0 154.0 L119.0 154.0 Z M45.0 123.0 L44.0 118.0 C44.0 118.0 43.0 118.0 43.0 118.0 L42.0 123.0 A1.0 1.0 0.0 0 0 42.0 124.0 L36.0 125.0 C35.0 125.0 35.0 126.0 36.0 126.0 L41.0 128.0 A1.0 1.0 0.0 0 0 42.0 129.0 L43.0 133.0 C43.0 134.0 44.0 134.0 44.0 133.0 L46.0 129.0 A1.0 1.0 0.0 0 0 47.0 128.0 L51.0 126.0 C51.0 126.0 51.0 125.0 50.0 125.0 L46.0 124.0 A1.0 1.0 0.0 0 0 45.0 123.0 L45.0 123.0 Z M105.0 40.0 L103.0 38.0 A1.0 1.0 0.0 0 0 102.0 38.0 L99.0 43.0 A1.0 1.0 0.0 0 1 98.0 43.0 L96.0 39.0 A1.0 1.0 0.0 0 0 96.0 38.0 L91.0 37.0 C90.0 37.0 90.0 36.0 91.0 36.0 L95.0 35.0 A1.0 1.0 0.0 0 0 96.0 34.0 L97.0 31.0 C97.0 30.0 98.0 30.0 98.0 31.0 L99.0 34.0 A1.0 1.0 0.0 0 0 100.0 35.0 L104.0 36.0 C104.0 36.0 104.0 37.0 104.0 37.0 L100.0 38.0 A1.0 1.0 0.0 0 0 99.0 38.0 L98.0 43.0 C98.0 44.0 97.0 44.0 97.0 44.0 L96.0 40.0 A1.0 1.0 0.0 0 0 95.0 40.0 L91.0 40.0 C90.0 40.0 90.0 41.0 91.0 41.0 L94.0 42.0 A1.0 1.0 0.0 0 0 95.0 43.0 L96.0 46.0 C97.0 47.0 98.0 47.0 98.0 46.0 L99.0 43.0 A1.0 1.0 0.0 0 0 100.0 42.0 L103.0 41.0 C104.0 41.0 104.0 40.0 104.0 40.0 L100.0 40.0 A1.0 1.0 0.0 0 0 99.0 38.0 L98.0 35.0 C98.0 34.0 97.0 34.0 97.0 35.0 L96.0 38.0 A1.0 1.0 0.0 0 0 95.0 40.0 L99.0 40.0 C99.0 40.0 99.0 40.0 100.0 40.0 L102.0 36.0 C102.0 36.0 102.0 36.0 102.0 36.0 L99.0 38.0 A1.0 1.0 0.0 0 0 99.0 38.0 L98.0 34.0 C98.0 33.0 97.0 33.0 97.0 34.0 L96.0 38.0 A1.0 1.0 0.0 0 0 95.0 38.0 L93.0 37.0 C92.0 37.0 92.0 38.0 93.0 38.0 L95.0 39.0 A1.0 1.0 0.0 0 0 96.0 40.0 L95.0 43.0 C95.0 43.0 96.0 43.0 96.0 43.0 L97.0 40.0 A1.0 1.0 0.0 0 0 98.0 39.0 L100.0 39.0 C101.0 39.0 101.0 39.0 101.0 39.0 L100.0 36.0 A1.0 1.0 0.0 0 0 100.0 36.0 L101.0 38.0 A1.0 1.0 0.0 0 0 102.0 38.0 L104.0 38.0 C105.0 38.0 105.0 37.0 104.0 37.0 L101.0 36.0 A1.0 1.0 0.0 0 0 101.0 35.0 L102.0 33.0 C102.0 32.0 102.0 32.0 102.0 33.0 L101.0 35.0 A1.0 1.0 0.0 0 0 100.0 36.0 L103.0 37.0 C103.0 37.0 103.0 37.0 103.0 37.0 L102.0 34.0 C102.0 33.0 102.0 33.0 102.0 34.0 L103.0 38.0 A1.0 1.0 0.0 0 0 103.0 38.0 L105.0 36.0 C106.0 36.0 106.0 35.0 105.0 35.0 L102.0 36.0 A1.0 1.0 0.0 0 0 102.0 36.0 L103.0 33.0 C103.0 33.0 104.0 33.0 104.0 33.0 L103.0 36.0 A1.0 1.0 0.0 0 0 103.0 36.0 L105.0 34.0 C106.0 33.0 106.0 33.0 106.0 34.0 L104.0 37.0 A1.0 1.0 0.0 0 0 104.0 38.0 L107.0 36.0 C108.0 36.0 108.0 36.0 107.0 36.0 L104.0 38.0 A1.0 1.0 0.0 0 0 104.0 38.0 L106.0 37.0 C106.0 37.0 107.0 38.0 106.0 38.0 L104.0 39.0 A1.0 1.0 0.0 0 0 104.0 40.0 L107.0 40.0 C108.0 40.0 108.0 39.0 107.0 39.0 L104.0 39.0 A1.0 1.0 0.0 0 0 104.0 38.0 L106.0 39.0 C106.0 39.0 106.0 40.0 106.0 40.0 L103.0 39.0 A1.0 1.0 0.0 0 0 103.0 38.0 L105.0 40.0 C105.0 40.0 105.0 40.0 105.0 40.0 L102.0 39.0 A1.0 1.0 0.0 0 0 101.0 39.0 L103.0 41.0 C103.0 41.0 103.0 41.0 103.0 41.0 L101.0 38.0 A1.0 1.0 0.0 0 0 101.0 38.0 L102.0 40.0 C102.0 40.0 102.0 40.0 102.0 40.0 L103.0 40.0 C104.0 40.0 104.0 40.0 104.0 40.0 L103.0 38.0 A1.0 1.0 0.0 0 0 103.0 38.0 L105.0 39.0 C105.0 39.0 105.0 39.0 105.0 39.0 L104.0 37.0 A1.0 1.0 0.0 0 0 104.0 37.0 L106.0 38.0 C106.0 38.0 106.0 38.0 106.0 38.0 L104.0 35.0 A1.0 1.0 0.0 0 0 104.0 35.0 L104.0 38.0 A1.0 1.0 0.0 0 0 104.0 38.0 L106.0 37.0 C106.0 37.0 106.0 37.0 106.0 37.0 L105.0 34.0 A1.0 1.0 0.0 0 0 105.0 34.0 L104.0 38.0 A1.0 1.0 0.0 0 0 104.0 38.0 L106.0 36.0 C106.0 36.0 106.0 36.0 106.0 36.0 L104.0 38.0 A1.0 1.0 0.0 0 0 104.0 38.0 L106.0 37.0 C106.0 37.0 106.0 37.0 106.0 37.0 L105.0 34.0 A1.0 1.0 0.0 0 0 105.0 34.0 L104.0 38.0 A1.0 1.0 0.0 0 0 104.0 38.0 L106.0 37.0 C106.0 37.0 106.0 37.0 106.0 37.0 L105.0 34.0 A1.0 1.0 0.0 0 0 105.0 34.0 L105.0 38.0 A1.0 1.0 0.0 0 0 105.0 38.0 L107.0 35.0 C107.0 35.0 108.0 35.0 107.0 35.0 L105.0 38.0 A1.0 1.0 0.0 0 0 105.0 38.0 L107.0 36.0 C107.0 36.0 108.0 36.0 108.0 36.0 L105.0 39.0 A1.0 1.0 0.0 0 0 105.0 39.0 L108.0 38.0 C109.0 38.0 109.0 37.0 108.0 37.0 L105.0 38.0 A1.0 1.0 0.0 0 0 105.0 38.0 L108.0 36.0 C108.0 36.0 109.0 36.0 108.0 36.0 L105.0 38.0 A1.0 1.0 0.0 0 0 105.0 38.0 L108.0 36.0 C108.0 36.0 108.0 36.0 108.0 36.0 L107.0 34.0 C107.0 33.0 106.0 33.0 106.0 34.0 L105.0 36.0 A1.0 1.0 0.0 0 0 105.0 37.0 L106.0 35.0 C106.0 34.0 105.0 34.0 105.0 34.0 L104.0 37.0 A1.0 1.0 0.0 0 0 104.0 38.0 L105.0 36.0 C105.0 36.0 105.0 36.0 105.0 36.0 L106.0 33.0 C106.0 32.0 105.0 32.0 105.0 33.0 L104.0 36.0 A1.0 1.0 0.0 0 0 104.0 36.0 L105.0 34.0 C106.0 33.0 106.0 33.0 106.0 34.0 L105.0 37.0 A1.0 1.0 0.0 0 0 105.0 37.0 L106.0 35.0 C106.0 35.0 106.0 35.0 106.0 35.0 L105.0 37.0 A1.0 1.0 0.0 0 0 105.0 38.0 L107.0 36.0 C107.0 36.0 108.0 36.0 108.0 36.0 L106.0 33.0 A1.0 1.0 0.0 0 0 106.0 33.0 L106.0 37.0 A1.0 1.0 0.0 0 0 106.0 37.0 L108.0 34.0 C109.0 33.0 109.0 33.0 109.0 34.0 L107.0 38.0 A1.0 1.0 0.0 0 0 107.0 38.0 L110.0 36.0 C110.0 36.0 111.0 35.0 110.0 36.0 L107.0 38.0 A1.0 1.0 0.0 0 0 107.0 38.0 L110.0 37.0 C111.0 37.0 111.0 36.0 110.0 36.0 L107.0 38.0 A1.0 1.0 0.0 0 0 107.0 38.0 L110.0 37.0 C110.0 37.0 110.0 37.0 110.0 37.0 L109.0 35.0 C109.0 34.0 109.0 34.0 109.0 35.0 L110.0 37.0 A1.0 1.0 0.0 0 0 110.0 37.0 L111.0 35.0 C111.0 34.0 110.0 34.0 110.0 35.0 L110.0 37.0 A1.0 1.0 0.0 0 0 110.0 37.0 L112.0 35.0 C112.0 34.0 111.0 34.0 111.0 35.0 L110.0 37.0 A1.0 1.0 0.0 0 0 110.0 37.0 L112.0 36.0 C112.0 35.0 113.0 36.0 113.0 36.0 L110.0 38.0 A1.0 1.0 0.0 0 0 110.0 38.0 L113.0 37.0 C113.0 37.0 113.0 37.0 113.0 37.0 L111.0 35.0 A1.0 1.0 0.0 0 0 111.0 35.0 L112.0 37.0 C113.0 37.0 113.0 37.0 113.0 37.0 L110.0 36.0 A1.0 1.0 0.0 0 0 110.0 36.0 L113.0 37.0 C113.0 37.0 113.0 37.0 113.0 37.0 L112.0 35.0 A1.0 1.0 0.0 0 0 112.0 35.0 L113.0 37.0 C113.0 37.0 113.0 37.0 113.0 37.0 L115.0 35.0 C115.0 34.0 114.0 34.0 114.0 35.0 L113.0 37.0 A1.0 1.0 0.0 0 0 113.0 37.0 L114.0 36.0 C115.0 35.0 116.0 35.0 116.0 36.0 L113.0 38.0 A1.0 1.0 0.0 0 0 113.0 38.0 L115.0 37.0 C116.0 37.0 116.0 36.0 116.0 37.0 L114.0 38.0 A1.0 1.0 0.0 0 0 114.0 38.0 L115.0 38.0 C116.0 38.0 116.0 39.0 115.0 39.0 L114.0 39.0 A1.0 1.0 0.0 0 0 114.0 39.0 L116.0 39.0 C117.0 39.0 117.0 38.0 116.0 38.0 L114.0 39.0 A1.0 1.0 0.0 0 0 114.0 39.0 L116.0 39.0 C116.0 39.0 116.0 39.0 116.0 39.0 L114.0 37.0 A1.0 1.0 0.0 0 0 114.0 37.0 L115.0 38.0 C115.0 38.0 115.0 38.0 115.0 38.0 L117.0 37.0 C117.0 37.0 117.0 36.0 117.0 37.0 L115.0 38.0 A1.0 1.0 0.0 0 0 115.0 38.0 L117.0 37.0 C117.0 37.0 117.0 37.0 117.0 37.0 L116.0 35.0 A1.0 1.0 0.0 0 0 116.0 35.0 L115.0 38.0 A1.0 1.0 0.0 0 0 115.0 38.0 L116.0 36.0 C116.0 35.0 116.0 35.0 116.0 36.0 L115.0 38.0 A1.0 1.0 0.0 0 0 115.0 38.0 L116.0 36.0 C117.0 35.0 117.0 35.0 117.0 36.0 L115.0 38.0 A1.0 1.0 0.0 0 0 115.0 38.0 L116.0 36.0 C116.0 35.0 117.0 35.0 117.0 36.0 L115.0 38.0 A1.0 1.0 0.0 0 0 115.0 38.0 L117.0 37.0 C117.0 37.0 117.0 37.0 117.0 37.0 L116.0 35.0 A1.0 1.0 0.0 0 0 116.0 35.0 L117.0 37.0 A1.0 1.0 0.0 0 0 117.0 37.0 L118.0 35.0 C118.0 34.0 117.0 34.0 117.0 35.0 L116.0 37.0 A1.0 1.0 0.0 0 0 116.0 37.0 L117.0 35.0 C117.0 35.0 117.0 35.0 117.0 35.0 L117.0 37.0 A1.0 1.0 0.0 0 0 117.0 37.0 L119.0 35.0 C119.0 34.0 119.0 35.0 119.0 35.0"></path></svg>