<svg xmlns="http://www.w3.org/2000/svg" viewBox="0.0 0.0 200.0 200.0" height="200px" width="200px"><path fill="#000000" fill-opacity="1.0"  filling="0" d="M143.0 68.0 L140.0 71.0 C140.0 72.0 141.0 72.0 141.0 71.0 L144.0 68.0 L149.0 70.0 C150.0 71.0 151.0 71.0 151.0 70.0 L150.0 65.0 L155.0 61.0 C156.0 60.0 155.0 59.0 154.0 59.0 L148.0 59.0 L147.0 53.0 C146.0 52.0 145.0 52.0 145.0 53.0 L143.0 58.0 L137.0 59.0 C136.0 59.0 136.0 60.0 137.0 61.0 L142.0 63.0 L140.0 68.0 C140.0 69.0 140.0 71.0 140.0 70.0 L143.0 68.0 L143.0 68.0 Z M163.0 99.0 L160.0 100.0 C159.0 100.0 159.0 100.0 159.0 99.0 L158.0 95.0 L152.0 92.0 C150.0 91.0 150.0 90.0 151.0 89.0 L156.0 88.0 L158.0 82.0 C158.0 81.0 160.0 81.0 160.0 82.0 L162.0 88.0 L167.0 89.0 C168.0 90.0 169.0 91.0 167.0 92.0 L163.0 94.0 L163.0 99.0 C162.0 99.0 162.0 100.0 162.0 100.0 L163.0 99.0 L163.0 99.0 Z M158.0 122.0 L160.0 127.0 C159.0 128.0 159.0 128.0 159.0 127.0 L157.0 122.0 L152.0 120.0 C151.0 120.0 151.0 119.0 152.0 118.0 L157.0 117.0 L158.0 113.0 C159.0 112.0 160.0 112.0 160.0 113.0 L162.0 118.0 L167.0 119.0 C167.0 119.0 167.0 120.0 167.0 120.0 L162.0 122.0 L161.0 127.0 C161.0 127.0 160.0 128.0 160.0 127.0 L158.0 122.0 L158.0 122.0 Z M144.0 144.0 L142.0 149.0 C142.0 150.0 141.0 150.0 141.0 149.0 L140.0 144.0 L136.0 143.0 C135.0 143.0 135.0 142.0 136.0 142.0 L140.0 140.0 L141.0 136.0 C141.0 136.0 143.0 136.0 143.0 137.0 L144.0 141.0 L148.0 142.0 C149.0 142.0 149.0 143.0 148.0 143.0 L144.0 144.0 L143.0 149.0 C143.0 149.0 143.0 150.0 142.0 149.0 L144.0 144.0 L144.0 144.0 Z M119.0 158.0 L118.0 162.0 C118.0 163.0 117.0 163.0 117.0 162.0 L116.0 158.0 L112.0 156.0 C111.0 156.0 111.0 155.0 112.0 155.0 L116.0 154.0 L117.0 149.0 C117.0 148.0 118.0 148.0 118.0 149.0 L120.0 154.0 L124.0 155.0 C125.0 155.0 125.0 156.0 124.0 156.0 L120.0 158.0 L119.0 162.0 C119.0 162.0 118.0 163.0 118.0 162.0 L119.0 158.0 L119.0 158.0 Z M90.0 156.0 L89.0 161.0 C89.0 162.0 87.0 162.0 87.0 161.0 L86.0 156.0 L82.0 155.0 C81.0 155.0 81.0 155.0 82.0 154.0 L86.0 153.0 L87.0 149.0 C87.0 148.0 89.0 148.0 89.0 149.0 L90.0 153.0 L94.0 154.0 C95.0 155.0 95.0 155.0 94.0 155.0 L90.0 156.0 L89.0 161.0 C89.0 161.0 87.0 162.0 88.0 161.0 L90.0 156.0 L90.0 156.0 Z M63.0 149.0 L64.0 154.0 C64.0 154.0 64.0 154.0 64.0 154.0 L66.0 149.0 L70.0 147.0 C71.0 147.0 72.0 146.0 71.0 146.0 L68.0 145.0 L65.0 139.0 C64.0 138.0 63.0 138.0 63.0 139.0 L62.0 144.0 L56.0 145.0 C56.0 146.0 56.0 146.0 56.0 146.0 L61.0 148.0 L63.0 153.0 C63.0 153.0 64.0 154.0 64.0 154.0 L63.0 149.0 L63.0 149.0 Z M42.0 128.0 L43.0 133.0 C43.0 134.0 44.0 134.0 44.0 133.0 L46.0 127.0 L50.0 127.0 C51.0 126.0 52.0 126.0 51.0 125.0 L46.0 123.0 L45.0 119.0 C44.0 118.0 43.0 118.0 43.0 119.0 L42.0 124.0 L36.0 125.0 C36.0 125.0 35.0 126.0 36.0 126.0 L41.0 128.0 L42.0 133.0 C42.0 133.0 43.0 133.0 43.0 133.0 L42.0 128.0 L42.0 128.0 Z M39.0 99.0 L37.0 105.0 C37.0 106.0 36.0 106.0 36.0 105.0 L34.0 99.0 L29.0 98.0 C29.0 98.0 28.0 97.0 29.0 97.0 L34.0 96.0 L36.0 90.0 C36.0 89.0 37.0 89.0 37.0 90.0 L39.0 96.0 L44.0 97.0 C44.0 97.0 44.0 98.0 44.0 98.0 L39.0 99.0 L39.0 99.0 Z M42.0 73.0 L41.0 77.0 C40.0 78.0 40.0 78.0 39.0 77.0 L39.0 73.0 L34.0 71.0 C33.0 71.0 33.0 69.0 35.0 69.0 L39.0 69.0 L40.0 64.0 C40.0 64.0 41.0 64.0 41.0 64.0 L42.0 69.0 L47.0 69.0 C48.0 69.0 48.0 71.0 47.0 71.0 L42.0 73.0 L41.0 77.0 C41.0 77.0 40.0 78.0 40.0 77.0 L42.0 73.0 L42.0 73.0 Z M61.0 53.0 L54.0 58.0 C53.0 58.0 53.0 58.0 53.0 57.0 L55.0 48.0 L49.0 43.0 C49.0 42.0 49.0 42.0 49.0 42.0 L58.0 41.0 L61.0 33.0 C61.0 32.0 62.0 32.0 62.0 33.0 L65.0 41.0 L74.0 42.0 C74.0 42.0 75.0 43.0 74.0 43.0 L68.0 48.0 L69.0 56.0 C69.0 57.0 69.0 58.0 68.0 57.0 L61.0 53.0 L61.0 53.0 Z M95.0 39.0 L97.0 44.0 C97.0 44.0 98.0 44.0 98.0 44.0 L99.0 39.0 L103.0 37.0 C104.0 37.0 104.0 36.0 103.0 36.0 L99.0 35.0 L98.0 31.0 C98.0 30.0 97.0 30.0 97.0 31.0 L95.0 35.0 L91.0 36.0 C90.0 36.0 90.0 37.0 91.0 37.0 L95.0 39.0 L95.0 39.0 Z M122.0 50.0 L123.0 50.0 L123.0 50.0 L123.0 50.0 L123.0 50.0 L123.0 50.0 L123.0 50.0 L123.0 50.0 L123.0 50.0 L123.0 50.0 L123.0 50.0 L123.0 50.0 L123.0 50.0 L123.0 50.0 L123.0 50.0 L123.0 50.0 L123.0 50.0 L123.0 50.0 L123.0 50.0 L123.0 50.0 L123.0 50.0 L123.0 50.0 L123.0 50.0 L123.0 50.0 L123.0 50.0 L123.0 50.0 L123.0 50.0 L123.0 50.0 L123.0 50.0 L123.0 50.0 L123.0 50.0 L123.0 50.0 L123.0 50.0 L123.0 50.0 L123.0 50.0 L123.0 50.0 L123.0 50.0 L123.0 50.0 L123.0 50.0 L123.0 50.0 L123.0 50.0 L123.0 50.0 L123.0 50.0 L123.0 50.0 L123.0 50.0 L123.0 50.0 L123.0 50.0 L123.0 50.0 L123.0 50.0 L123.0 50.0 L123.0 50.0 L123.0 50.0 L123.0 50.0 L123.0 50.0 L123.0 50.0 L123.0 50.0 L123.0 50.0 L123.0 50.0 L123.0 50.0 L123.0 50.0 L123.0 50.0 L123.0 50.0 L123.0 50.0 L123.0 50.0 L123.0 50.0 L123.0 50.0 L123.0 50.0 L123.0 50.0 L123.0 50.0 L123.0 50.0 L123.0 50.0 L123.0 50.0 L123.0 50.0 L123.0 50.0 L123.0 50.0 L123.0 50.0 L123.0 50.0 L123.0 50.0 L123.0 50.0 L123.0 50.0 L123.0 50.0 L123.0 50.0 L123.0 50.0 L123.0 50.0 L123.0 50.0 L123.0 50.0 L123.0 50.0 L123.0 50.0 L123.0 50.0 L123.0 50.0 L123.0 50.0 L123.0 50.0 L123.0 50.0 L123.0 50.0 L123.0 50.0 L123.0 50.0 L123.0 50.0 L123.0 50.0 L123.0 50.0 L123.0 50.0 L123.0 50.0 L123.0 50.0 L123.0 50.0 L123.0 50.0 L123.0 50.0 L123.0 50.0 L123.0 50.0 L123.0 50.0 L123.0 50.0 L123.0 50.0 L123.0 50.0 L123.0 50.0 L123.0 50.0 L123.0 50.0 L123.0 50.0 L123.0 50.0 L123.0 50.0 L123.0 50.0 L123.0 50.0 L123.0 50.0 L123.0 50.0 L123.0 50.0 L123.0 50.0 L123.0 50.0 L123.0 50.0 L123.0 50.0 L123.0 50.0 L123.0 50.0 L123.0 50.0 L123.0 50.0 L123.0 50.0 L123.0 50.0 L123.0 50.0 L123.0 50.0 L123.0 50.0 L123.0 50.0 L123.0 50.0 L123.0 50.0 L123.0 50.0 L123.0 50.0 L123.0 50.0 L123.0 50.0 L123.0 50.0 L123.0 50.0 L123.0 50.0 L123.0 50.0 L123.0 50.0 L123.0 50.0 L123.0 50.0 L123.0 50.0 L123.0 50.0 L123.0 50.0 L123.0 50.0 L123.0 50.0 L123.0 50.0 L123.0 50.0 L123.0 50.0 L123.0 50.0 L123.0 50.0 L123.0 50.0 L123.0 50.0 L123.0 50.0 L123.0 50.0 L123.0 50.0 L123.0 50.0 L123.0 50.0 L123.0 50.0 L123.0 50.0 L123.0 50.0 L123.0 50.0 L123.0 50.0 L123.0 50.0 L123.0 50.0 L123.0 50.0 L123.0 50.0 L123.0 50.0 L123.0 50.0 L123.0 50.0 L123.0 50.0 L123.0 50.0 L123.0 50.0 L123.0 50.0 L123.0 50.0 L123.0 50.0 L123.0 50.0 L123.0 50.0 L123.0 50.0 L123.0 50.0 L123.0 50.0 L123.0 50.0 L123.0 50.0 L123.0 50.0 L123.0 50.0 L123.0 50.0 L123.0 50.0 L123.0 50.0 L123.0 50.0 L123.0 50.0 L123.0 50.0 L123.0 50.0 L123.0 50.0 L123.0 50.0 L123.0 50.0 L123.0 50.0 L123.0 50.0 L123.0 50.0 L123.0 50.0 L123.0 50.0 L123.0 50.0 L123.0 50.0 L123.0 50.0 L123.0 50.0 L123.0 50.0 L123.0 50.0 L123.0 50.0 L123.0 50.0 L123.0 50.0 L123.0 50.0 L123.0 50.0 L123.0 50.0 L123.0 50.0 L123.0 50.0 L123.0 50.0 L123.0 50.0 L123.0 50.0 L123.0 50.0 L123.0 50.0 L123.0 50.0 L123.0 50.0 L123.0 50.0 L123.0 50.0 L123.0 50.0 L123.0 50.0 L123.0 50.0 L123.0 50.0 L123.0 50.0 L123.0 50.0 L123.0 50.0 L123.0 50.0 L123.0 50.0 L123.0 50.0 L123.0 50.0 L123.0 50.0 L123.0 50.0 L123.0 50.0 L123.0 50.0 L123.0 50.0 L123.0 50.0 L123.0 50.0 L123.0 50.0 L123.0 50.0 L123.0 50.0 L123.0 50.0 L123.0 50.0 L123.0 50.0 L123.0 50.0 L123.0 50.0 L123.0 50.0 L123.0 50.0 L123.0 50.0 L123.0 50.0 L123.0 50.0 L123.0 50.0 L123.0 50.0 L123.0 50.0 L123.0 50.0 L123.0 50.0 L123.0 50.0 L123.0 50.0 L123.0 50.0 L123.0 50.0 L123.0 50.0 L123.0 50.0 L123.0 50.0 L123.0 50.0 L123.0 50.0 L123.0 50.0 L123.0 50.0 L123.0 50.0 L123.0 50.0 L123.0 50.0 L123.0 50.0 L123.0 50.0 L123.0 50.0 L123.0 50.0 L123.0 50.0 L123.0 50.0 L123.0 50.0 L123.0 50.0 L123.0 50.0 L123.0 50.0 L123.0 50.0 L123.0 50.0 L123.0 50.0 L123.0 50.0 L123.0 50.0 L123.0 50.0 L123.0 50.0 L123.0 50.0 L123.0 50.0 L123.0 50.0 L123.0 50.0 L123.0 50.0 L123.0 50.0 L123.0 50.0 L123.0 50.0 L123.0 50.0 L123.0 50.0 L123.0 50.0 L123.0 50.0 L123.0 50.0 L123.0 50.0 L123.0 50.0 L123.0 50.0 L123.0 50.0 L123.0 50.0 L123.0 50.0 L123.0 50.0 L123.0 50.0 L123.0 50.0 L123.0 50.0 L123.0 50.0 L123.0 50.0 L123.0 50.0 L123.0 50.0 L123.0 50.0 L123.0 50.0 L123.0 50.0 L123.0 50.0 L123.0 50.0 L123.0 50.0 L123.0 50.0 L123.0 50.0 L123.0 50.0 L123.0 50.0 L123.0 50.0 L123.0 50.0 L123.0 50.0 L123.0 50.0 L123.0 50.0 L123.0 50.0 L123.0 50.0 L123.0 50.0 L123.0 50.0 L123.0 50.0 L123.0 50.0 L123.0 50.0 L123.0 50.0 L123.0 50.0 L123.0 50.0 L123.0 50.0 L123.0 50.0 L123.0 50.0 L123.0 50.0 L123.0 50.0 L123.0 50.0 L123.0 50.0 L123.0 50.0 L123.0 50.0 L123.0 50.0 L123.0 50.0 L123.0 50.0 L123.0 50.0 L123.0 50.0 L123.0 50.0 L123.0 50.0 L123.0 50.0 L123.0 50.0 L123.0 50.0 L123.0 50.0 L123.0 50.0 L123.0 50.0 L123.0 50.0 L123.0 50.0 L123.0 50.0 L123.0 50.0 L123.0 50.0 L123.0 50.0 L123.0 50.0 L123.0 50.0 L123.0 50.0 L123.0 50.0 L123.0 50.0 L123.0 50.0 L123.0 50.0 L123.0 50.0 L123.0 50.0 L123.0 50.0 L123.0 50.0 L123.0 50.0 L123.0 50.0 L123.0 50.0 L123.0 50.0 L123.0 50.0 L123.0 50.0 L123.0 50.0 L123.0 50.0 L123.0 50.0 L123.0 50.0 L123.0 50.0 L123.0 50.0 L123.0 50.0 L123.0 50.0 L123.0 50.0 L123.0 50.0 L123.0 50.0 L123.0 50.0 L123.0 50.0 L123.0 50.0 L123.0 50.0 L123.0 50.0 L123.0 50.0 L123.0 50.0 L123.0 50.0 L123.0 50.0 L123.0 50.0 L123.0 50.0 L123.0 50.0 L123.0 50.0 L123.0 50.0 L123.0 50.0 L123.0 50.0 L123.0 50.0 L123.0 50.0 L123.0 50.0 L123.0 50.0 L123.0 50.0 L123.0 50.0 L123.0 50.0 L123.0 50.0 L123.0 50.0 L123.0 50.0 L123.0 50.0 L123.0 50.0 L123.0 50.0 L123.0 50.0 L123.0 50.0 L123.0 50.0 L123.0 50.0 L123.0 50.0 L123.0 50.0 L123.0 50.0 L123.0 50.0 L123.0 50.0 L123.0 50.0 L123.0 50.0 L123.0 50.0 L123.0 50.0 L123.0 50.0 L123.0 50.0 L123.0 50.0 L123.0 50.0 L123.0 50.0 L123.0 50.0 L123.0 50.0 L123.0 50.0 L123.0 50.0"></path></svg>