<svg xmlns="http://www.w3.org/2000/svg" viewBox="0.0 0.0 200.0 200.0" height="200px" width="200px"><path fill="#ffcc66" fill-opacity="1.0"  filling="0" d="M143.0 68.0 C144.0 68.0 144.0 69.0 145.0 69.0 L151.0 71.0 C151.0 71.0 152.0 71.0 151.0 72.0 L150.0 65.0 C150.0 64.0 150.0 64.0 151.0 64.0 L155.0 60.0 C156.0 60.0 155.0 59.0 155.0 59.0 L149.0 58.0 C148.0 58.0 148.0 58.0 148.0 57.0 L146.0 52.0 C146.0 52.0 145.0 52.0 145.0 52.0 L143.0 58.0 C143.0 58.0 143.0 59.0 143.0 59.0 L137.0 60.0 C136.0 60.0 136.0 61.0 137.0 61.0 L142.0 64.0 C142.0 64.0 142.0 65.0 142.0 65.0 L140.0 71.0 C140.0 71.0 140.0 72.0 141.0 71.0 L143.0 68.0 L143.0 68.0 Z M162.0 98.0 C162.0 98.0 162.0 98.0 163.0 98.0 L168.0 97.0 C168.0 97.0 168.0 97.0 168.0 97.0 L169.0 90.0 C169.0 90.0 169.0 90.0 168.0 90.0 L163.0 88.0 C162.0 88.0 162.0 88.0 162.0 88.0 L160.0 82.0 C160.0 81.0 159.0 81.0 159.0 82.0 L157.0 88.0 C156.0 88.0 156.0 88.0 156.0 88.0 L150.0 90.0 C150.0 90.0 149.0 90.0 150.0 91.0 L154.0 94.0 C155.0 94.0 155.0 94.0 155.0 95.0 L158.0 99.0 C158.0 100.0 159.0 100.0 159.0 99.0 L162.0 98.0 L162.0 98.0 Z"></path>
<path fill="#000000" fill-opacity="1.0"  filling="0" d="M83.0 157.0 C83.0 157.0 84.0 157.0 84.0 157.0 L87.0 156.0 C87.0 156.0 88.0 156.0 88.0 156.0 L89.0 149.0 C89.0 148.0 89.0 148.0 89.0 149.0 L90.0 153.0 C90.0 153.0 90.0 153.0 91.0 153.0 L94.0 155.0 C94.0 155.0 94.0 155.0 94.0 156.0 L90.0 157.0 C90.0 157.0 90.0 157.0 90.0 158.0 L88.0 161.0 C88.0 161.0 88.0 161.0 88.0 161.0 L87.0 158.0 C87.0 158.0 86.0 158.0 86.0 158.0 L83.0 157.0 L83.0 157.0 Z M113.0 156.0 C113.0 156.0 113.0 156.0 114.0 156.0 L116.0 154.0 C116.0 154.0 116.0 154.0 116.0 154.0 L117.0 149.0 C117.0 149.0 118.0 149.0 118.0 149.0 L120.0 154.0 C120.0 154.0 120.0 154.0 120.0 154.0 L124.0 155.0 C125.0 155.0 125.0 156.0 124.0 156.0 L120.0 158.0 C120.0 158.0 120.0 158.0 120.0 158.0 L118.0 162.0 C118.0 162.0 118.0 162.0 118.0 162.0 L116.0 158.0 C116.0 158.0 116.0 158.0 116.0 158.0 L113.0 156.0 L113.0 156.0 Z M50.0 119.0 C51.0 119.0 51.0 119.0 50.0 120.0 L46.0 122.0 C46.0 122.0 46.0 122.0 46.0 122.0 L49.0 126.0 C49.0 126.0 49.0 126.0 49.0 126.0 L45.0 127.0 C45.0 127.0 45.0 127.0 45.0 127.0 L43.0 133.0 C43.0 133.0 43.0 133.0 43.0 133.0 L41.0 127.0 C41.0 127.0 41.0 127.0 41.0 127.0 L36.0 125.0 C35.0 125.0 35.0 125.0 36.0 124.0 L40.0 122.0 C40.0 122.0 41.0 122.0 41.0 122.0 L43.0 118.0 C43.0 117.0 44.0 117.0 44.0 118.0 L46.0 122.0 C46.0 122.0 46.0 122.0 46.0 122.0 L50.0 119.0 L50.0 119.0 Z M161.0 118.0 C161.0 118.0 161.0 118.0 161.0 118.0 L161.0 113.0 C161.0 113.0 161.0 113.0 161.0 113.0 L158.0 117.0 C158.0 117.0 158.0 117.0 158.0 117.0 L153.0 118.0 C152.0 118.0 152.0 119.0 153.0 119.0 L157.0 122.0 C158.0 122.0 158.0 122.0 158.0 122.0 L159.0 127.0 C159.0 128.0 160.0 128.0 160.0 127.0 L161.0 122.0 C161.0 122.0 161.0 122.0 161.0 122.0 L167.0 120.0 C167.0 120.0 167.0 119.0 166.0 119.0 L161.0 118.0 L161.0 118.0 Z M59.0 48.0 C59.0 48.0 59.0 48.0 59.0 48.0 L61.0 44.0 C61.0 44.0 61.0 44.0 61.0 44.0 L63.0 48.0 C63.0 48.0 63.0 48.0 63.0 48.0 L67.0 49.0 C67.0 49.0 67.0 49.0 67.0 49.0 L63.0 51.0 C63.0 51.0 63.0 51.0 63.0 51.0 L61.0 54.0 C61.0 54.0 61.0 54.0 61.0 54.0 L59.0 51.0 C59.0 51.0 59.0 51.0 59.0 51.0 L55.0 50.0 C55.0 50.0 55.0 50.0 55.0 50.0 L59.0 48.0 L59.0 48.0 Z M94.0 36.0 C94.0 36.0 94.0 36.0 94.0 36.0 L96.0 31.0 C96.0 30.0 97.0 30.0 97.0 31.0 L99.0 35.0 C99.0 35.0 99.0 35.0 99.0 35.0 L104.0 36.0 C104.0 36.0 104.0 37.0 103.0 37.0 L99.0 38.0 C99.0 38.0 99.0 38.0 99.0 38.0 L97.0 43.0 C97.0 44.0 97.0 44.0 96.0 43.0 L95.0 39.0 C95.0 39.0 95.0 39.0 95.0 39.0 L90.0 37.0 C90.0 37.0 90.0 36.0 90.0 36.0 L94.0 36.0 L94.0 36.0 Z M116.0 48.0 C117.0 48.0 117.0 48.0 117.0 48.0 L119.0 45.0 C119.0 45.0 119.0 45.0 119.0 45.0 L121.0 48.0 C121.0 48.0 121.0 48.0 121.0 48.0 L124.0 49.0 C124.0 49.0 124.0 50.0 124.0 50.0 L121.0 52.0 C121.0 52.0 121.0 52.0 121.0 52.0 L120.0 55.0 C120.0 56.0 119.0 56.0 119.0 55.0 L118.0 52.0 C118.0 52.0 118.0 52.0 118.0 52.0 L115.0 51.0 C114.0 51.0 114.0 50.0 115.0 50.0 L117.0 48.0 C117.0 48.0 117.0 48.0 116.0 48.0 L116.0 48.0 Z M38.0 98.0 C38.0 98.0 38.0 98.0 38.0 98.0 L39.0 96.0 C39.0 96.0 39.0 96.0 39.0 96.0 L41.0 96.0 C42.0 96.0 42.0 96.0 41.0 96.0 L39.0 96.0 C39.0 96.0 39.0 96.0 39.0 96.0 L39.0 99.0 C39.0 99.0 39.0 99.0 39.0 99.0 L38.0 99.0 C38.0 99.0 38.0 99.0 38.0 99.0 L36.0 98.0 C36.0 98.0 36.0 98.0 36.0 98.0 L37.0 97.0 C37.0 97.0 37.0 97.0 37.0 97.0 L37.0 95.0 C37.0 95.0 37.0 95.0 37.0 95.0 L36.0 96.0 C36.0 96.0 36.0 96.0 36.0 96.0 L34.0 96.0 C34.0 96.0 34.0 96.0 34.0 96.0 L35.0 94.0 C35.0 94.0 35.0 94.0 35.0 94.0 L34.0 96.0 C34.0 96.0 34.0 96.0 34.0 96.0 L33.0 98.0 C33.0 98.0 33.0 98.0 33.0 98.0 L34.0 97.0 C34.0 97.0 34.0 97.0 34.0 97.0 L32.0 99.0 C32.0 99.0 32.0 99.0 32.0 99.0 L34.0 98.0 C34.0 98.0 34.0 98.0 34.0 98.0 L33.0 101.0 C33.0 101.0 33.0 101.0 33.0 101.0 L34.0 99.0 C34.0 99.0 34.0 99.0 34.0 99.0 L36.0 100.0 C36.0 100.0 36.0 100.0 36.0 100.0 L35.0 98.0 C35.0 98.0 35.0 98.0 35.0 98.0 L38.0 99.0 C38.0 99.0 38.0 99.0 38.0 99.0 L36.0 98.0 C36.0 98.0 36.0 98.0 36.0 98.0 L38.0 98.0 L38.0 98.0 Z M62.0 143.0 C62.0 142.0 62.0 142.0 62.0 142.0 L64.0 138.0 C64.0 138.0 64.0 138.0 64.0 138.0 L66.0 142.0 C66.0 142.0 66.0 142.0 66.0 143.0 L70.0 145.0 C71.0 145.0 71.0 146.0 70.0 146.0 L66.0 148.0 C66.0 148.0 66.0 148.0 66.0 148.0 L64.0 154.0 C64.0 154.0 63.0 154.0 63.0 154.0 L62.0 149.0 C62.0 148.0 62.0 148.0 62.0 148.0 L56.0 146.0 C56.0 146.0 56.0 145.0 56.0 145.0 L61.0 143.0 C61.0 143.0 61.0 143.0 61.0 143.0 L63.0 139.0 C63.0 138.0 64.0 138.0 64.0 139.0 L62.0 143.0 L62.0 143.0 Z M138.0 143.0 C138.0 143.0 138.0 143.0 138.0 143.0 L142.0 136.0 C142.0 136.0 143.0 136.0 143.0 136.0 L144.0 144.0 C144.0 144.0 144.0 144.0 144.0 144.0 L149.0 142.0 C149.0 142.0 149.0 143.0 149.0 143.0 L144.0 145.0 C144.0 145.0 144.0 145.0 144.0 145.0 L143.0 150.0 C143.0 150.0 142.0 150.0 142.0 150.0 L140.0 144.0 C140.0 144.0 140.0 144.0 140.0 144.0 L135.0 143.0 C135.0 143.0 135.0 142.0 135.0 142.0 L138.0 143.0 L138.0 143.0 Z M91.0 109.0 C90.0 109.0 90.0 108.0 91.0 108.0 C91.0 107.0 92.0 107.0 92.0 108.0 C93.0 109.0 95.0 110.0 97.0 111.0 C98.0 112.0 100.0 112.0 102.0 112.0 C104.0 112.0 106.0 112.0 108.0 112.0 C109.0 112.0 111.0 111.0 112.0 110.0 C113.0 110.0 114.0 109.0 115.0 108.0 C116.0 107.0 116.0 106.0 116.0 105.0 C117.0 104.0 117.0 103.0 117.0 102.0 C117.0 101.0 117.0 100.0 117.0 99.0 C117.0 98.0 117.0 97.0 117.0 96.0 C117.0 95.0 116.0 94.0 116.0 93.0 C116.0 92.0 115.0 91.0 115.0 90.0 C114.0 89.0 113.0 88.0 113.0 87.0 C112.0 86.0 111.0 85.0 110.0 85.0 C109.0 84.0 108.0 83.0 107.0 83.0 C106.0 82.0 105.0 82.0 104.0 82.0 C103.0 81.0 102.0 81.0 101.0 81.0 C100.0 81.0 99.0 80.0 97.0 80.0 C96.0 80.0 95.0 80.0 94.0 80.0 C93.0 81.0 92.0 81.0 91.0 82.0 C90.0 82.0 89.0 83.0 88.0 83.0 C87.0 84.0 86.0 85.0 86.0 86.0 C85.0 87.0 84.0 88.0 83.0 89.0 C83.0 90.0 83.0 91.0 82.0 92.0 C82.0 93.0 82.0 94.0 82.0 95.0 C81.0 96.0 81.0 97.0 81.0 98.0 C81.0 99.0 81.0 100.0 81.0 101.0 C81.0 102.0 82.0 103.0 82.0 104.0 C82.0 105.0 83.0 106.0 83.0 107.0 C84.0 108.0 84.0 109.0 85.0 110.0 C86.0 111.0 87.0 111.0 88.0 112.0 C89.0 112.0 90.0 112.0 91.0 112.0 C92.0 112.0 93.0 112.0 94.0 112.0 C95.0 112.0 96.0 112.0 97.0 112.0 C98.0 112.0 99.0 112.0 100.0 111.0 C101.0 111.0 102.0 111.0 103.0 111.0 C104.0 111.0 105.0 111.0 106.0 111.0 C107.0 111.0 108.0 110.0 109.0 110.0 C110.0 110.0 111.0 109.0 112.0 109.0 C112.0 108.0 113.0 107.0 114.0 107.0 C114.0 106.0 115.0 105.0 115.0 104.0 C115.0 103.0 115.0 102.0 115.0 101.0 C115.0 100.0 115.0 99.0 115.0 98.0 C115.0 97.0 114.0 96.0 114.0 95.0 C114.0 94.0 114.0 93.0 113.0 92.0 C113.0 91.0 112.0 90.0 112.0 89.0 C111.0 88.0 110.0 88.0 109.0 87.0 C108.0 86.0 107.0 86.0 106.0 85.0 C105.0 85.0 104.0 85.0 103.0 85.0 C102.0 85.0 101.0 85.0 100.0 85.0 C99.0 85.0 98.0 85.0 97.0 86.0 C96.0 86.0 95.0 87.0 94.0 87.0 C93.0 88.0 93.0 89.0 92.0 89.0 C91.0 90.0 91.0 91.0 90.0 92.0 C90.0 93.0 89.0 94.0 89.0 95.0 C89.0 96.0 89.0 97.0 89.0 98.0 C89.0 99.0 89.0 100.0 89.0 101.0 C89.0 102.0 89.0 103.0 90.0 103.0 C90.0 104.0 90.0 105.0 90.0 106.0 C91.0 106.0 91.0 107.0 92.0 108.0 C92.0 108.0 92.0 109.0 91.0 109.0 L91.0 109.0 Z M92.0 94.0 C92.0 93.0 93.0 92.0 93.0 91.0 C93.0 90.0 94.0 89.0 95.0 89.0 C95.0 88.0 96.0 87.0 97.0 87.0 C98.0 86.0 99.0 86.0 100.0 86.0 C101.0 86.0 102.0 86.0 103.0 86.0 C104.0 87.0 105.0 87.0 106.0 88.0 C107.0 88.0 108.0 89.0 108.0 90.0 C109.0 91.0 110.0 92.0 110.0 93.0 C110.0 94.0 110.0 95.0 111.0 96.0 C111.0 97.0 111.0 98.0 111.0 99.0 C111.0 100.0 111.0 101.0 111.0 102.0 C111.0 103.0 111.0 104.0 110.0 104.0 C110.0 105.0 110.0 106.0 109.0 106.0 C109.0 107.0 108.0 108.0 107.0 108.0 C106.0 109.0 105.0 109.0 104.0 109.0 C103.0 109.0 102.0 109.0 101.0 109.0 C100.0 109.0 99.0 109.0 98.0 108.0 C97.0 108.0 96.0 107.0 95.0 106.0 C95.0 106.0 94.0 105.0 94.0 104.0 C93.0 103.0 93.0 102.0 92.0 101.0 C92.0 100.0 92.0 99.0 92.0 98.0 C92.0 97.0 92.0 96.0 92.0 95.0 C93.0 95.0 93.0 94.0 92.0 94.0 L92.0 94.0 Z M62.0 126.0 C62.0 126.0 63.0 126.0 63.0 126.0 C63.0 126.0 63.0 126.0 63.0 126.0 C63.0 126.0 63.0 126.0 63.0 126.0 C63.0 126.0 63.0 126.0 63.0 126.0 C63.0 126.0 63.0 126.0 63.0 126.0 C63.0 126.0 63.0 126.0 63.0 126.0 C63.0 126.0 63.0 126.0 63.0 126.0 C63.0 126.0 63.0 126.0 63.0 126.0 C63.0 126.0 63.0 126.0 63.0 126.0 C63.0 126.0 63.0 126.0 63.0 126.0 C63.0 126.0 63.0 126.0 63.0 126.0 C63.0 126.0 63.0 126.0 63.0 126.0 C63.0 126.0 63.0 126.0 63.0 126.0 C63.0 126.0 63.0 126.0 63.0 126.0 C63.0 126.0 63.0 126.0 63.0 126.0 C63.0 126.0 63.0 126.0 63.0 126.0 C63.0 126.0 63.0 126.0 63.0 126.0 C63.0 126.0 63.0 126.0 63.0 126.0 C63.0 126.0 63.0 126.0 63.0 126.0 C63.0 126.0 63.0 126.0 63.0 126.0 C63.0 126.0 63.0 126.0 63.0 126.0 C63.0 126.0 63.0 126.0 63.0 126.0 C63.0 126.0 63.0 126.0 63.0 126.0 C63.0 126.0 63.0 126.0 63.0 126.0 C63.0 126.0 63.0 126.0 63.0 126.0 C63.0 126.0 63.0 126.0 63.0 126.0 C63.0 126.0 63.0 126.0 63.0 126.0 C63.0 126.0 63.0 126.0 63.0 126.0 C63.0 126.0 63.0 126.0 63.0 126.0 C63.0 126.0 63.0 126.0 63.0 126.0 C63.0 126.0 63.0 126.0 63.0 126.0 C63.0 126.0 63.0 126.0 63.0 126.0 C63.0 126.0 63.0 126.0 63.0 126.0 C63.0 126.0 63.0 126.0 63.0 126.0 C63.0 126.0 63.0 126.0 63.0 126.0 C63.0 126.0 63.0 126.0 63.0 126.0 C63.0 126.0 63.0 126.0 63.0 126.0 C63.0 126.0 63.0 126.0 63.0 126.0 C63.0 126.0 63.0 126.0 63.0 126.0 C63.0 126.0 63.0 126.0 63.0 126.0 C63.0 126.0 63.0 126.0 63.0 126.0 C63.0 126.0 63.0 126.0 63.0 126.0 C63.0 126.0 63.0 126.0 63.0 126.0 C63.0 126.0 63.0 126.0 63.0 126.0 C63.0 126.0 63.0 126.0 63.0 126.0 C63.0 126.0 63.0 126.0 63.0 126.0 C63.0 126.0 63.0 126.0 63.0 126.0 C63.0 126.0 63.0 126.0 63.0 126.0 C63.0 126.0 63.0 126.0 63.0 126.0 C63.0 126.0 63.0 126.0 63.0 126.0 C63.0 126.0 63.0 126.0 63.0 126.0 C63.0 126.0 63.0 126.0 63.0 126.0 C63.0 126.0 63.0 126.0 63.0 126.0 C63.0 126.0 63.0 126.0 63.0 126.0 C63.0 126.0 63.0 126.0 63.0 126.0 C63.0 126.0 63.0 126.0 63.0 126.0 C63.0 126.0 63.0 126.0 63.0 126.0 C63.0 126.0 63.0 126.0 63.0 126.0 C63.0 126.0 63.0 126.0 63.0 126.0 C63.0 126.0 63.0 126.0 63.0 126.0 C63.0 126.0 63.0 126.0 63.0 126.0 C63.0 126.0 63.0 126.0 63.0 126.0 C63.0 126.0 63.0 126.0 63.0 126.0 C63.0 126.0 63.0 126.0 63.0 126.0 C63.0 126.0 63.0 126.0 63.0 126.0 C63.0 126.0 63.0 126.0 63.0 126.0 C63.0 126.0 63.0 126.0 63.0 126.0 C63.0 126.0 63.0 126.0 63.0 126.0 C63.0 126.0 63.0 126.0 63.0 126.0 C63.0 126.0 63.0 126.0 63.0 126.0 C63.0 126.0 63.0 126.0 63.0 126.0 C63.0 126.0 63.0 126.0 63.0 126.0 C63.0 126.0 63.0 126.0 63.0 126.0 C63.0 126.0 63.0 126.0 63.0 126.0 C63.0 126.0 63.0 126.0 63.0 126.0 C63.0 126.0 63.0 126.0 63.0 126.0 C63.0 126.0 63.0 126.0 63.0 126.0"></path></svg>