<svg xmlns="http://www.w3.org/2000/svg" viewBox="0.0 0.0 200.0 200.0" height="200px" width="200px"><path fill="#ccdddd" fill-opacity="1.0"  filling="0" d="M164.0 177.0 C164.0 180.0 158.0 182.0 150.0 182.0 L50.0 182.0 C42.0 182.0 35.0 180.0 35.0 177.0 C35.0 174.0 42.0 173.0 50.0 173.0 L150.0 173.0 C158.0 173.0 164.0 174.0 164.0 177.0 L164.0 177.0 Z"></path>
<path fill="#223344" fill-opacity="1.0"  filling="0" d="M49.0 177.0 C50.0 177.0 51.0 177.0 51.0 177.0 L57.0 176.0 L61.0 162.0 L48.0 162.0 L46.0 175.0 A2.0 2.0 0.0 0 0 47.0 177.0 L49.0 177.0 L49.0 177.0 Z M149.0 177.0 C150.0 177.0 150.0 177.0 151.0 177.0 L154.0 177.0 A2.0 2.0 0.0 0 0 156.0 175.0 L152.0 162.0 L138.0 162.0 L143.0 176.0 L149.0 177.0 L149.0 177.0 Z"></path>
<path fill="#334455" fill-opacity="1.0"  filling="0" d="M166.0 48.0 L166.0 152.0 C166.0 158.0 161.0 162.0 156.0 162.0 L44.0 162.0 C38.0 162.0 33.0 158.0 33.0 152.0 L33.0 75.0 C33.0 69.0 38.0 64.0 44.0 64.0 L156.0 64.0 C161.0 64.0 166.0 69.0 166.0 75.0 L166.0 48.0 L166.0 48.0 Z"></path>
<path fill="#334455" fill-opacity="1.0"  filling="0" d="M166.0 48.0 L166.0 72.0 L34.0 72.0 L34.0 48.0 C34.0 42.0 38.0 38.0 44.0 38.0 L156.0 38.0 C161.0 38.0 166.0 42.0 166.0 48.0 L166.0 48.0 Z"></path>
<path fill="#bbcccc" fill-opacity="1.0"  filling="0" d="M144.0 49.0 L144.0 49.0 C144.0 50.0 143.0 50.0 143.0 50.0 L56.0 50.0 C56.0 50.0 55.0 50.0 55.0 49.0 L55.0 49.0 C55.0 48.0 56.0 48.0 56.0 48.0 L143.0 48.0 C143.0 48.0 144.0 48.0 144.0 49.0 L144.0 49.0 Z"></path>
<path fill="#bbcccc" fill-opacity="1.0"  filling="0" d="M144.0 49.0 C144.0 50.0 143.0 50.0 143.0 50.0 L56.0 50.0 C56.0 50.0 55.0 50.0 55.0 49.0 C55.0 48.0 56.0 48.0 56.0 48.0 L143.0 48.0 C143.0 48.0 144.0 48.0 144.0 49.0 L144.0 49.0 Z M139.0 62.0 L140.0 62.0 C140.0 62.0 139.0 63.0 138.0 63.0 L61.0 63.0 C60.0 63.0 60.0 62.0 60.0 62.0 L60.0 62.0 C60.0 61.0 60.0 61.0 61.0 61.0 L138.0 61.0 C139.0 61.0 139.0 61.0 139.0 62.0 L139.0 62.0 Z"></path>
<path fill="#bbcccc" fill-opacity="1.0"  filling="0" d="M139.0 62.0 C140.0 62.0 139.0 63.0 138.0 63.0 L61.0 63.0 C60.0 63.0 60.0 62.0 60.0 62.0 C60.0 61.0 60.0 61.0 61.0 61.0 L138.0 61.0 C139.0 61.0 139.0 61.0 139.0 62.0 L139.0 62.0 Z M134.0 73.0 L134.0 73.0 C134.0 74.0 133.0 74.0 132.0 74.0 L67.0 74.0 C66.0 74.0 66.0 74.0 66.0 73.0 L66.0 73.0 C66.0 73.0 66.0 72.0 67.0 72.0 L132.0 72.0 C133.0 72.0 134.0 73.0 134.0 73.0 L134.0 73.0 Z"></path>
<path fill="#bbcccc" fill-opacity="1.0"  filling="0" d="M134.0 73.0 C134.0 74.0 133.0 74.0 132.0 74.0 L67.0 74.0 C66.0 74.0 66.0 74.0 66.0 73.0 C66.0 73.0 66.0 72.0 67.0 72.0 L132.0 72.0 C133.0 72.0 134.0 73.0 134.0 73.0 L134.0 73.0 Z M131.0 88.0 L131.0 88.0 C131.0 89.0 130.0 89.0 129.0 89.0 L70.0 89.0 C69.0 89.0 68.0 89.0 68.0 88.0 L68.0 88.0 C68.0 88.0 69.0 87.0 70.0 87.0 L129.0 87.0 C130.0 87.0 131.0 88.0 131.0 88.0 L131.0 88.0 Z"></path>
<path fill="#bbcccc" fill-opacity="1.0"  filling="0" d="M131.0 88.0 C131.0 89.0 130.0 89.0 129.0 89.0 L70.0 89.0 C69.0 89.0 68.0 89.0 68.0 88.0 C68.0 88.0 69.0 87.0 70.0 87.0 L129.0 87.0 C130.0 87.0 131.0 88.0 131.0 88.0 L131.0 88.0 Z M133.0 102.0 L133.0 103.0 C133.0 104.0 132.0 104.0 131.0 104.0 L68.0 104.0 C67.0 104.0 66.0 104.0 66.0 103.0 L66.0 102.0 C66.0 102.0 67.0 101.0 68.0 101.0 L131.0 101.0 C132.0 101.0 133.0 102.0 133.0 102.0 L133.0 102.0 Z"></path>
<path fill="#bbcccc" fill-opacity="1.0"  filling="0" d="M133.0 102.0 C133.0 104.0 132.0 104.0 131.0 104.0 L68.0 104.0 C67.0 104.0 66.0 104.0 66.0 102.0 C66.0 102.0 67.0 101.0 68.0 101.0 L131.0 101.0 C132.0 101.0 133.0 102.0 133.0 102.0 L133.0 102.0 Z M134.0 118.0 L134.0 119.0 C134.0 119.0 133.0 120.0 132.0 120.0 L67.0 120.0 C66.0 120.0 66.0 119.0 66.0 119.0 L66.0 118.0 C66.0 117.0 66.0 117.0 67.0 117.0 L132.0 117.0 C133.0 117.0 134.0 117.0 134.0 118.0 L134.0 118.0 Z"></path>
<path fill="#bbcccc" fill-opacity="1.0"  filling="0" d="M134.0 118.0 C134.0 119.0 133.0 120.0 132.0 120.0 L67.0 120.0 C66.0 120.0 66.0 119.0 66.0 118.0 C66.0 117.0 66.0 117.0 67.0 117.0 L132.0 117.0 C133.0 117.0 134.0 117.0 134.0 118.0 L134.0 118.0 Z M134.0 135.0 L134.0 136.0 C134.0 136.0 133.0 137.0 132.0 137.0 L67.0 137.0 C66.0 137.0 66.0 136.0 66.0 136.0 L66.0 135.0 C66.0 134.0 66.0 134.0 67.0 134.0 L132.0 134.0 C133.0 134.0 134.0 134.0 134.0 135.0 L134.0 135.0 Z"></path>
<path fill="#bbcccc" fill-opacity="1.0"  filling="0" d="M134.0 135.0 C134.0 136.0 133.0 137.0 132.0 137.0 L67.0 137.0 C66.0 137.0 66.0 136.0 66.0 135.0 C66.0 134.0 66.0 134.0 67.0 134.0 L132.0 134.0 C133.0 134.0 134.0 134.0 134.0 135.0 L134.0 135.0 Z M130.0 151.0 L130.0 151.0 C130.0 152.0 130.0 152.0 129.0 152.0 L70.0 152.0 C69.0 152.0 68.0 152.0 68.0 151.0 L68.0 151.0 C68.0 150.0 69.0 150.0 70.0 150.0 L129.0 150.0 C130.0 150.0 130.0 150.0 130.0 151.0 L130.0 151.0 Z"></path>
<path fill="#bbcccc" fill-opacity="1.0"  filling="0" d="M130.0 151.0 C130.0 152.0 130.0 152.0 129.0 152.0 L70.0 152.0 C69.0 152.0 68.0 152.0 68.0 151.0 C68.0 150.0 69.0 150.0 70.0 150.0 L129.0 150.0 C130.0 150.0 130.0 150.0 130.0 151.0 L130.0 151.0 Z M128.0 172.0 L128.0 173.0 C128.0 174.0 127.0 174.0 126.0 174.0 L73.0 174.0 C72.0 174.0 71.0 174.0 71.0 173.0 L71.0 172.0 C71.0 171.0 72.0 171.0 73.0 171.0 L126.0 171.0 C127.0 171.0 128.0 171.0 128.0 172.0 L128.0 172.0 Z"></path>
<path fill="#bbcccc" fill-opacity="1.0"  filling="0" d="M128.0 172.0 L128.0 173.0 C128.0 174.0 127.0 174.0 126.0 174.0 L73.0 174.0 C72.0 174.0 71.0 174.0 71.0 173.0 L71.0 172.0 C71.0 171.0 72.0 171.0 73.0 171.0 L126.0 171.0 C127.0 171.0 128.0 171.0 128.0 172.0 L128.0 172.0 Z"></path>
<path fill="#3399dd" fill-opacity="1.0"  filling="0" d="M128.0 127.0 L128.0 141.0 C128.0 144.0 125.0 147.0 121.0 147.0 L56.0 147.0 C52.0 147.0 49.0 144.0 49.0 141.0 L49.0 127.0 C49.0 124.0 52.0 121.0 56.0 121.0 L121.0 121.0 C125.0 121.0 128.0 124.0 128.0 127.0 L128.0 127.0 Z"></path>
<path fill="#2288bb" fill-opacity="1.0"  filling="0" d="M128.0 127.0 L128.0 128.0 L49.0 128.0 L49.0 127.0 C49.0 124.0 52.0 121.0 56.0 121.0 L121.0 121.0 C125.0 121.0 128.0 124.0 128.0 127.0 L128.0 127.0 Z M128.0 141.0 L128.0 143.0 L49.0 143.0 L49.0 141.0 C49.0 138.0 52.0 135.0 56.0 135.0 L121.0 135.0 C125.0 135.0 128.0 138.0 128.0 141.0 L128.0 141.0 Z"></path>
<path fill="#3399dd" fill-opacity="1.0"  filling="0" d="M128.0 110.0 L128.0 126.0 C128.0 129.0 125.0 132.0 121.0 132.0 L56.0 132.0 C52.0 132.0 49.0 129.0 49.0 126.0 L49.0 110.0 C49.0 106.0 52.0 103.0 56.0 103.0 L121.0 103.0 C125.0 103.0 128.0 106.0 128.0 110.0 L128.0 110.0 Z"></path>
<path fill="#2288bb" fill-opacity="1.0"  filling="0" d="M128.0 109.0 L128.0 112.0 L49.0 112.0 L49.0 109.0 C49.0 106.0 52.0 103.0 56.0 103.0 L121.0 103.0 C125.0 103.0 128.0 106.0 128.0 109.0 L128.0 109.0 Z M128.0 126.0 L128.0 128.0 L49.0 128.0 L49.0 126.0 C49.0 122.0 52.0 119.0 56.0 119.0 L121.0 119.0 C125.0 119.0 128.0 122.0 128.0 126.0 L128.0 126.0 Z"></path>
<path fill="#ffbb55" fill-opacity="1.0"  filling="0" d="M128.0 90.0 L128.0 105.0 C128.0 108.0 125.0 111.0 121.0 111.0 L56.0 111.0 C52.0 111.0 49.0 108.0 49.0 105.0 L49.0 90.0 C49.0 86.0 52.0 83.0 56.0 83.0 L121.0 83.0 C125.0 83.0 128.0 86.0 128.0 90.0 L128.0 90.0 Z"></path>
<path fill="#ffaa44" fill-opacity="1.0"  filling="0" d="M128.0 90.0 L128.0 92.0 L49.0 92.0 L49.0 90.0 C49.0 86.0 52.0 83.0 56.0 83.0 L121.0 83.0 C125.0 83.0 128.0 86.0 128.0 90.0 L128.0 90.0 Z M128.0 105.0 L128.0 107.0 L49.0 107.0 L49.0 105.0 C49.0 101.0 52.0 98.0 56.0 98.0 L121.0 98.0 C125.0 98.0 128.0 101.0 128.0 105.0 L128.0 105.0 Z"></path>
<path fill="#334455" fill-opacity="1.0"  filling="0" d="M72.0 127.0 C72.0 127.0 72.0 128.0 71.0 128.0 L68.0 128.0 C67.0 128.0 67.0 127.0 67.0 127.0 L67.0 110.0 C67.0 109.0 67.0 108.0 68.0 108.0 L71.0 108.0 C72.0 108.0 72.0 109.0 72.0 110.0 L72.0 127.0 L72.0 127.0 Z M94.0 127.0 C94.0 127.0 93.0 128.0 92.0 128.0 L89.0 128.0 C88.0 128.0 88.0 127.0 88.0 127.0 L88.0 110.0 C88.0 109.0 88.0 108.0 89.0 108.0 L92.0 108.0 C93.0 108.0 94.0 109.0 94.0 110.0 L94.0 127.0 L94.0 127.0 Z M113.0 127.0 C113.0 127.0 113.0 128.0 112.0 128.0 L109.0 128.0 C108.0 128.0 108.0 127.0 108.0 127.0 L108.0 110.0 C108.0 109.0 108.0 108.0 109.0 108.0 L112.0 108.0 C113.0 108.0 113.0 109.0 113.0 110.0 L113.0 127.0 L113.0 127.0 Z M133.0 90.0 L67.0 90.0 C66.0 90.0 66.0 89.0 66.0 88.0 L66.0 86.0 C66.0 85.0 66.0 85.0 67.0 85.0 L133.0 85.0 C134.0 85.0 135.0 85.0 135.0 86.0 L135.0 88.0 C135.0 89.0 134.0 90.0 133.0 90.0 L133.0 90.0 Z M133.0 118.0 L67.0 118.0 C66.0 118.0 66.0 117.0 66.0 116.0 L66.0 114.0 C66.0 113.0 66.0 112.0 67.0 112.0 L133.0 112.0 C134.0 112.0 135.0 113.0 135.0 114.0 L135.0 116.0 C135.0 117.0 134.0 118.0 133.0 118.0 L133.0 118.0 Z M133.0 143.0 L67.0 143.0 C66.0 143.0 66.0 142.0 66.0 141.0 L66.0 139.0 C66.0 138.0 66.0 138.0 67.0 138.0 L133.0 138.0 C134.0 138.0 135.0 138.0 135.0 139.0 L135.0 141.0 C135.0 142.0 134.0 143.0 133.0 143.0 L133.0 143.0 Z M133.0 166.0 L67.0 166.0 C66.0 166.0 66.0 165.0 66.0 164.0 L66.0 162.0 C66.0 161.0 66.0 160.0 67.0 160.0 L133.0 160.0 C134.0 160.0 135.0 161.0 135.0 162.0 L135.0 164.0 C135.0 165.0 134.0 166.0 133.0 166.0 L133.0 166.0 Z"></path>
<path fill="#334455" fill-opacity="1.0"  filling="0" d="M154.0 76.0 C158.0 79.0 158.0 84.0 154.0 87.0 C151.0 90.0 146.0 90.0 143.0 87.0 C140.0 84.0 140.0 79.0 143.0 76.0 C146.0 73.0 151.0 73.0 154.0 76.0 L154.0 76.0 Z"></path>
<path fill="#334455" fill-opacity="1.0"  filling="0" d="M154.0 82.0 C156.0 84.0 156.0 87.0 154.0 89.0 C152.0 91.0 149.0 91.0 147.0 89.0 C145.0 87.0 145.0 84.0 147.0 82.0 C149.0 80.0 152.0 80.0 154.0 82.0 L154.0 82.0 Z"></path>
<path fill="#334455" fill-opacity="1.0"  filling="0" d="M154.0 104.0 C151.0 107.0 146.0 107.0 143.0 104.0 C140.0 101.0 140.0 96.0 143.0 93.0 C146.0 90.0 151.0 90.0 154.0 93.0 C157.0 96.0 157.0 101.0 154.0 104.0 L154.0 104.0 Z"></path>
<path fill="#334455" fill-opacity="1.0"  filling="0" d="M154.0 107.0 C151.0 109.0 148.0 109.0 147.0 107.0 C145.0 105.0 145.0 102.0 147.0 100.0 C148.0 99.0 151.0 99.0 154.0 100.0 C155.0 102.0 155.0 105.0 154.0 107.0 L154.0 107.0 Z"></path>
<path fill="#334455" fill-opacity="1.0"  filling="0" d="M154.0 115.0 C151.0 118.0 146.0 118.0 143.0 115.0 C140.0 113.0 140.0 108.0 143.0 106.0 C146.0 103.0 151.0 103.0 154.0 106.0 C157.0 108.0 157.0 113.0 154.0 115.0 L154.0 115.0 Z"></path>
<path fill="#334455" fill-opacity="1.0"  filling="0" d="M154.0 112.0 C151.0 114.0 148.0 114.0 147.0 112.0 C145.0 111.0 145.0 108.0 147.0 106.0 C148.0 105.0 151.0 105.0 154.0 106.0 C155.0 108.0 155.0 111.0 154.0 112.0 L154.0 112.0 Z"></path>
<path fill="#000000" fill-opacity="1.0"  filling="0" d="M156.0 128.0 L142.0 128.0 C141.0 128.0 141.0 127.0 141.0 127.0 L141.0 126.0 C141.0 125.0 141.0 124.0 142.0 124.0 L156.0 124.0 C157.0 124.0 158.0 125.0 158.0 126.0 L158.0 127.0 C158.0 127.0 157.0 128.0 156.0 128.0 L156.0 128.0 Z"></path></svg>