<svg xmlns="http://www.w3.org/2000/svg" viewBox="0.0 0.0 200.0 200.0" height="200px" width="200px"><path fill="#ccccdd" fill-opacity="1.0"  filling="0" d="M164.0 177.0 C164.0 180.0 159.0 182.0 152.0 182.0 L47.0 182.0 C40.0 182.0 35.0 180.0 35.0 177.0 C35.0 174.0 40.0 172.0 47.0 172.0 L152.0 172.0 C159.0 172.0 164.0 174.0 164.0 177.0 L164.0 177.0 Z"></path>
<path fill="#ddddee" fill-opacity="1.0"  filling="0" d="M152.0 177.0 C152.0 180.0 149.0 182.0 145.0 182.0 L55.0 182.0 C51.0 182.0 48.0 180.0 48.0 177.0 C48.0 174.0 51.0 172.0 55.0 172.0 L145.0 172.0 C149.0 172.0 152.0 174.0 152.0 177.0 L152.0 177.0 Z"></path>
<path fill="#ffffff" fill-opacity="1.0"  filling="0" d="M152.0 176.0 C152.0 179.0 149.0 181.0 145.0 181.0 L55.0 181.0 C51.0 181.0 48.0 179.0 48.0 176.0 C48.0 173.0 51.0 171.0 55.0 171.0 L145.0 171.0 C149.0 171.0 152.0 173.0 152.0 176.0 L152.0 176.0 Z"></path>
<path fill="#ccccdd" fill-opacity="1.0"  filling="0" d="M164.0 176.0 C164.0 180.0 159.0 182.0 152.0 182.0 L47.0 182.0 C40.0 182.0 35.0 180.0 35.0 176.0 C35.0 173.0 39.0 171.0 44.0 171.0 L154.0 171.0 C159.0 171.0 164.0 173.0 164.0 176.0 L164.0 176.0 Z"></path>
<path fill="#ddddee" fill-opacity="1.0"  filling="0" d="M164.0 177.0 C164.0 180.0 159.0 182.0 152.0 182.0 L47.0 182.0 C40.0 182.0 35.0 180.0 35.0 177.0 C35.0 174.0 39.0 172.0 44.0 172.0 L154.0 172.0 C159.0 172.0 164.0 174.0 164.0 177.0 L164.0 177.0 Z"></path>
<path fill="#ccccdd" fill-opacity="1.0"  filling="0" d="M164.0 177.0 C164.0 180.0 159.0 182.0 152.0 182.0 L47.0 182.0 C40.0 182.0 35.0 180.0 35.0 177.0 C35.0 174.0 39.0 172.0 44.0 172.0 L154.0 172.0 C159.0 172.0 164.0 174.0 164.0 177.0 L164.0 177.0 Z"></path>
<path fill="#ddddee" fill-opacity="1.0"  filling="0" d="M164.0 177.0 C164.0 180.0 159.0 182.0 152.0 182.0 L47.0 182.0 C40.0 182.0 35.0 180.0 35.0 177.0 C35.0 174.0 39.0 172.0 44.0 172.0 L154.0 172.0 C159.0 172.0 164.0 174.0 164.0 177.0 L164.0 177.0 Z"></path>
<path fill="#ccccdd" fill-opacity="1.0"  filling="0" d="M164.0 177.0 C164.0 180.0 159.0 182.0 152.0 182.0 L47.0 182.0 C40.0 182.0 35.0 180.0 35.0 177.0 C35.0 174.0 39.0 172.0 44.0 172.0 L154.0 172.0 C159.0 172.0 164.0 174.0 164.0 177.0 L164.0 177.0 Z"></path>
<path fill="#ddddee" fill-opacity="1.0"  filling="0" d="M164.0 177.0 C164.0 180.0 159.0 182.0 152.0 182.0 L47.0 182.0 C40.0 182.0 35.0 180.0 35.0 177.0 C35.0 174.0 39.0 172.0 44.0 172.0 L154.0 172.0 C159.0 172.0 164.0 174.0 164.0 177.0 L164.0 177.0 Z"></path>
<path fill="#ccccdd" fill-opacity="1.0"  filling="0" d="M164.0 177.0 C164.0 180.0 159.0 182.0 152.0 182.0 L47.0 182.0 C40.0 182.0 35.0 180.0 35.0 177.0 C35.0 174.0 39.0 172.0 44.0 172.0 L154.0 172.0 C159.0 172.0 164.0 174.0 164.0 177.0 L164.0 177.0 Z"></path>
<path fill="#ddddee" fill-opacity="1.0"  filling="0" d="M164.0 177.0 C164.0 180.0 159.0 182.0 152.0 182.0 L47.0 182.0 C40.0 182.0 35.0 180.0 35.0 177.0 C35.0 174.0 39.0 172.0 44.0 172.0 L154.0 172.0 C159.0 172.0 164.0 174.0 164.0 177.0 L164.0 177.0 Z"></path>
<path fill="#ccccdd" fill-opacity="1.0"  filling="0" d="M164.0 177.0 C164.0 180.0 159.0 182.0 152.0 182.0 L47.0 182.0 C40.0 182.0 35.0 180.0 35.0 177.0 C35.0 174.0 39.0 172.0 44.0 172.0 L154.0 172.0 C159.0 172.0 164.0 174.0 164.0 177.0 L164.0 177.0 Z"></path>
<path fill="#ddddee" fill-opacity="1.0"  filling="0" d="M164.0 177.0 C164.0 180.0 159.0 182.0 152.0 182.0 L47.0 182.0 C40.0 182.0 35.0 180.0 35.0 177.0 C35.0 174.0 39.0 172.0 44.0 172.0 L154.0 172.0 C159.0 172.0 164.0 174.0 164.0 177.0 L164.0 177.0 Z"></path>
<path fill="#ccccdd" fill-opacity="1.0"  filling="0" d="M164.0 177.0 C164.0 180.0 159.0 182.0 152.0 182.0 L47.0 182.0 C40.0 182.0 35.0 180.0 35.0 177.0 C35.0 174.0 39.0 172.0 44.0 172.0 L154.0 172.0 C159.0 172.0 164.0 174.0 164.0 177.0 L164.0 177.0 Z"></path>
<path fill="#ddddee" fill-opacity="1.0"  filling="0" d="M164.0 177.0 C164.0 180.0 159.0 182.0 152.0 182.0 L47.0 182.0 C40.0 182.0 35.0 180.0 35.0 177.0 C35.0 174.0 39.0 172.0 44.0 172.0 L154.0 172.0 C159.0 172.0 164.0 174.0 164.0 177.0 L164.0 177.0 Z"></path>
<path fill="#ccccdd" fill-opacity="1.0"  filling="0" d="M164.0 177.0 C164.0 180.0 159.0 182.0 152.0 182.0 L47.0 182.0 C40.0 182.0 35.0 180.0 35.0 177.0 C35.0 174.0 39.0 172.0 44.0 172.0 L154.0 172.0 C159.0 172.0 164.0 174.0 164.0 177.0 L164.0 177.0 Z"></path>
<path fill="#ddddee" fill-opacity="1.0"  filling="0" d="M164.0 177.0 C164.0 180.0 159.0 182.0 152.0 182.0 L47.0 182.0 C40.0 182.0 35.0 180.0 35.0 177.0 C35.0 174.0 39.0 172.0 44.0 172.0 L154.0 172.0 C159.0 172.0 164.0 174.0 164.0 177.0 L164.0 177.0 Z"></path>
<path fill="#ccccdd" fill-opacity="1.0"  filling="0" d="M164.0 177.0 C164.0 180.0 159.0 182.0 152.0 182.0 L47.0 182.0 C40.0 182.0 35.0 180.0 35.0 177.0 C35.0 174.0 39.0 172.0 44.0 172.0 L154.0 172.0 C159.0 172.0 164.0 174.0 164.0 177.0 L164.0 177.0 Z"></path>
<path fill="#ddddee" fill-opacity="1.0"  filling="0" d="M164.0 177.0 C164.0 180.0 159.0 182.0 152.0 182.0 L47.0 182.0 C40.0 182.0 35.0 180.0 35.0 177.0 C35.0 174.0 39.0 172.0 44.0 172.0 L154.0 172.0 C159.0 172.0 164.0 174.0 164.0 177.0 L164.0 177.0 Z"></path>
<path fill="#ccccdd" fill-opacity="1.0"  filling="0" d="M164.0 177.0 C164.0 180.0 159.0 182.0 152.0 182.0 L47.0 182.0 C40.0 182.0 35.0 180.0 35.0 177.0 C35.0 174.0 39.0 172.0 44.0 172.0 L154.0 172.0 C159.0 172.0 164.0 174.0 164.0 177.0 L164.0 177.0 Z"></path>
<path fill="#ddddee" fill-opacity="1.0"  filling="0" d="M164.0 177.0 C164.0 180.0 159.0 182.0 152.0 182.0 L47.0 182.0 C40.0 182.0 35.0 180.0 35.0 177.0 C35.0 174.0 39.0 172.0 44.0 172.0 L154.0 172.0 C159.0 172.0 164.0 174.0 164.0 177.0 L164.0 177.0 Z"></path>
<path fill="#ccccdd" fill-opacity="1.0"  filling="0" d="M164.0 177.0 C164.0 180.0 159.0 182.0 152.0 182.0 L47.0 182.0 C40.0 182.0 35.0 180.0 35.0 177.0 C35.0 174.0 39.0 172.0 44.0 172.0 L154.0 172.0 C159.0 172.0 164.0 174.0 164.0 177.0 L164.0 177.0 Z"></path>
<path fill="#ddddee" fill-opacity="1.0"  filling="0" d="M164.0 177.0 C164.0 180.0 159.0 182.0 152.0 182.0 L47.0 182.0 C40.0 182.0 35.0 180.0 35.0 177.0 C35.0 174.0 39.0 172.0 44.0 172.0 L154.0 172.0 C159.0 172.0 164.0 174.0 164.0 177.0 L164.0 177.0 Z"></path>
<path fill="#ccccdd" fill-opacity="1.0"  filling="0" d="M164.0 177.0 C164.0 180.0 159.0 182.0 152.0 182.0 L47.0 182.0 C40.0 182.0 35.0 180.0 35.0 177.0 C35.0 174.0 39.0 172.0 44.0 172.0 L154.0 172.0 C159.0 172.0 164.0 174.0 164.0 177.0 L164.0 177.0 Z"></path>
<path fill="#ddddee" fill-opacity="1.0"  filling="0" d="M164.0 177.0 C164.0 180.0 159.0 182.0 152.0 182.0 L47.0 182.0 C40.0 182.0 35.0 180.0 35.0 177.0 C35.0 174.0 39.0 172.0 44.0 172.0 L154.0 172.0 C159.0 172.0 164.0 174.0 164.0 177.0 L164.0 177.0 Z"></path>
<path fill="#ccccdd" fill-opacity="1.0"  filling="0" d="M164.0 177.0 C164.0 180.0 159.0 182.0 152.0 182.0 L47.0 182.0 C40.0 182.0 35.0 180.0 35.0 177.0 C35.0 174.0 39.0 172.0 44.0 172.0 L154.0 172.0 C159.0 172.0 164.0 174.0 164.0 177.0 L164.0 177.0 Z"></path>
<path fill="#ddddee" fill-opacity="1.0"  filling="0" d="M164.0 177.0 C164.0 180.0 159.0 182.0 152.0 182.0 L47.0 182.0 C40.0 182.0 35.0 180.0 35.0 177.0 C35.0 174.0 39.0 172.0 44.0 172.0 L154.0 172.0 C159.0 172.0 164.0 174.0 164.0 177.0 L164.0 177.0 Z"></path>
<path fill="#ccccdd" fill-opacity="1.0"  filling="0" d="M164.0 177.0 C164.0 180.0 159.0 182.0 152.0 182.0 L47.0 182.0 C40.0 182.0 35.0 180.0 35.0 177.0 C35.0 174.0 39.0 172.0 44.0 172.0 L154.0 172.0 C159.0 172.0 164.0 174.0 164.0 177.0 L164.0 177.0 Z"></path>
<path fill="#ddddee" fill-opacity="1.0"  filling="0" d="M164.0 177.0 C164.0 180.0 159.0 182.0 152.0 182.0 L47.0 182.0 C40.0 182.0 35.0 180.0 35.0 177.0 C35.0 174.0 39.0 172.0 44.0 172.0 L154.0 172.0 C159.0 172.0 164.0 174.0 164.0 177.0 L164.0 177.0 Z"></path>
<path fill="#ccccdd" fill-opacity="1.0"  filling="0" d="M164.0 177.0 C164.0 180.0 159.0 182.0 152.0 182.0 L47.0 182.0 C40.0 182.0 35.0 180.0 35.0 177.0 C35.0 174.0 39.0 172.0 44.0 172.0 L154.0 172.0 C159.0 172.0 164.0 174.0 164.0 177.0 L164.0 177.0 Z"></path>
<path fill="#ddddee" fill-opacity="1.0"  filling="0" d="M164.0 177.0 C164.0 180.0 159.0 182.0 152.0 182.0 L47.0 182.0 C40.0 182.0 35.0 180.0 35.0 177.0 C35.0 174.0 39.0 172.0 44.0 172.0 L154.0 172.0 C159.0 172.0 164.0 174.0 164.0 177.0 L164.0 177.0 Z"></path>
<path fill="#ccccdd" fill-opacity="1.0"  filling="0" d="M164.0 177.0 C164.0 180.0 159.0 182.0 152.0 182.0 L47.0 182.0 C40.0 182.0 35.0 180.0 35.0 177.0 C35.0 174.0 39.0 172.0 44.0 172.0 L154.0 172.0 C159.0 172.0 164.0 174.0 164.0 177.0 L164.0 177.0 Z"></path>
<path fill="#ddddee" fill-opacity="1.0"  filling="0" d="M164.0 177.0 C164.0 180.0 159.0 182.0 152.0 182.0 L47.0 182.0 C40.0 182.0 35.0 180.0 35.0 177.0 C35.0 174.0 39.0 172.0 44.0 172.0 L154.0 172.0 C159.0 172.0 164.0 174.0 164.0 177.0 L164.0 177.0 Z"></path>
<path fill="#ccccdd" fill-opacity="1.0"  filling="0" d="M164.0 177.0 C164.0 180.0 159.0 182.0 152.0 182.0 L47.0 182.0 C40.0 182.0 35.0 180.0 35.0 177.0 C35.0 174.0 39.0 172.0 44.0 172.0 L154.0 172.0 C159.0 172.0 164.0 174.0 164.0 177.0 L164.0 177.0 Z"></path>
<path fill="#ddddee" fill-opacity="1.0"  filling="0" d="M164.0 177.0 C164.0 180.0 159.0 182.0 152.0 182.0 L47.0 182.0 C40.0 182.0 35.0 180.0 35.0 177.0 C35.0 174.0 39.0 172.0 44.0 172.0 L154.0 172.0 C159.0 172.0 164.0 174.0 164.0 177.0 L164.0 177.0 Z"></path>
<path fill="#ccccdd" fill-opacity="1.0"  filling="0" d="M164.0 177.0 C164.0 180.0 159.0 182.0 152.0 182.0 L47.0 182.0 C40.0 182.0 35.0 180.0 35.0 177.0 C35.0 174.0 39.0 172.0 44.0 172.0 L154.0 172.0 C159.0 172.0 164.0 174.0 164.0 177.0 L164.0 177.0 Z"></path>
<path fill="#ddddee" fill-opacity="1.0"  filling="0" d="M164.0 177.0 C164.0 180.0 159.0 182.0 152.0 182.0 L47.0 182.0 C40.0 182.0 35.0 180.0 35.0 177.0 C35.0 174.0 39.0 172.0 44.0 172.0 L154.0 172.0 C159.0 172.0 164.0 174.0 164.0 177.0 L164.0 177.0 Z"></path>
<path fill="#ccccdd" fill-opacity="1.0"  filling="0" d="M164.0 177.0 C164.0 180.0 159.0 182.0 152.0 182.0 L47.0 182.0 C40.0 182.0 35.0 180.0 35.0 177.0 C35.0 174.0 39.0 172.0 44.0 172.0 L154.0 172.0 C159.0 172.0 164.0 174.0 164.0 177.0 L164.0 177.0 Z"></path>
<path fill="#ddddee" fill-opacity="1.0"  filling="0" d="M164.0 177.0 C164.0 180.0 159.0 182.0 152.0 182.0 L47.0 182.0 C40.0 182.0 35.0 180.0 35.0 177.0 C35.0 174.0 39.0 172.0 44.0 172.0 L154.0 172.0 C159.0 172.0 164.0 174.0 164.0 177.0 L164.0 177.0 Z"></path>
<path fill="#ccccdd" fill-opacity="1.0"  filling="0" d="M164.0 177.0 C164.0 180.0 159.0 182.0 152.0 182.0 L47.0 182.0 C40.0 182.0 35.0 180.0 35.0 177.0 C35.0 174.0 39.0 172.0 44.0 172.0 L154.0 172.0 C159.0 172.0 164.0 174.0 164.0 177.0 L164.0 177.0 Z"></path>
<path fill="#ddddee" fill-opacity="1.0"  filling="0" d="M164.0 177.0 C164.0 180.0 159.0 182.0 152.0 182.0 L47.0 182.0 C40.0 182.0 35.0 180.0 35.0 177.0 C35.0 174.0 39.0 172.0 44.0 172.0 L154.0 172.0 C159.0 172.0 164.0 174.0 164.0 177.0 L164.0 177.0 Z"></path>
<path fill="#ccccdd" fill-opacity="1.0"  filling="0" d="M164.0 177.0 C164.0 180.0 159.0 182.0 152.0 182.0 L47.0 182.0 C40.0 182.0 35.0 180.0 35.0 177.0 C35.0 174.0 39.0 172.0 44.0 172.0 L154.0 172.0 C159.0 172.0 164.0 174.0 164.0 177.0 L164.0 177.0 Z"></path>
<path fill="#ddddee" fill-opacity="1.0"  filling="0" d="M164.0 177.0 C164.0 180.0 159.0 182.0 152.0 182.0 L47.0 182.0 C40.0 182.0 35.0 180.0 35.0 177.0 C35.0 174.0 39.0 172.0 44.0 172.0 L154.0 172.0 C159.0 172.0 164.0 174.0 164.0 177.0 L164.0 177.0 Z"></path>
<path fill="#ccccdd" fill-opacity="1.0"  filling="0" d="M164.0 177.0 C164.0 180.0 159.0 182.0 152.0 182.0 L47.0 182.0 C40.0 182.0 35.0 180.0 35.0 177.0 C35.0 174.0 39.0 172.0 44.0 172.0 L154.0 172.0 C159.0 172.0 164.0 174.0 164.0 177.0 L164.0 177.0 Z"></path>
<path fill="#ddddee" fill-opacity="1.0"  filling="0" d="M164.0 177.0 C164.0 180.0 159.0 182.0 152.0 182.0 L47.0 182.0 C40.0 182.0 35.0 180.0 35.0 177.0 C35.0 174.0 39.0 172.0 44.0 172.0 L154.0 172.0 C159.0 172.0 164.0 174.0 164.0 177.0 L164.0 177.0 Z"></path>
<path fill="#ccccdd" fill-opacity="1.0"  filling="0" d="M164.0 177.0 C164.0 180.0 159.0 182.0 152.0 182.0 L47.0 182.0 C40.0 182.0 35.0 180.0 35.0 177.0 C35.0 174.0 39.0 172.0 44.0 172.0 L154.0 172.0 C159.0 172.0 164.0 174.0 164.0 177.0 L164.0 177.0 Z"></path>
<path fill="#000000" fill-opacity="1.0"  filling="0" d="M164.0 177.0 C164.0 180.0 159.0 182.0 152.0 182.0 L47.0 182.0 C40.0 182.0 35.0 180.0 35.0 177.0"></path></svg>