<svg xmlns="http://www.w3.org/2000/svg" viewBox="0.0 0.0 200.0 200.0" height="200px" width="200px"><path fill="#ccccdd" fill-opacity="1.0"  filling="0" d="M164.0 177.0 C164.0 180.0 158.0 182.0 150.0 182.0 L50.0 182.0 C42.0 182.0 35.0 180.0 35.0 177.0 C35.0 174.0 42.0 173.0 50.0 173.0 L150.0 173.0 C158.0 173.0 164.0 174.0 164.0 177.0 L164.0 177.0 Z"></path>
<path fill="#ccccdd" fill-opacity="1.0"  filling="0" d="M49.0 177.0 C49.0 179.0 48.0 181.0 46.0 181.0 C45.0 181.0 44.0 179.0 44.0 177.0 C44.0 175.0 45.0 174.0 46.0 174.0 C48.0 174.0 49.0 175.0 49.0 177.0 L49.0 177.0 Z"></path>
<path fill="#ccccdd" fill-opacity="1.0"  filling="0" d="M157.0 177.0 C157.0 179.0 156.0 181.0 154.0 181.0 C153.0 181.0 151.0 179.0 151.0 177.0 C151.0 175.0 153.0 174.0 154.0 174.0 C156.0 174.0 157.0 175.0 157.0 177.0 L157.0 177.0 Z"></path>
<path fill="#ddddee" fill-opacity="1.0"  filling="0" d="M164.0 177.0 C164.0 180.0 158.0 182.0 150.0 182.0 L55.0 182.0 C47.0 182.0 40.0 180.0 40.0 177.0 C40.0 174.0 47.0 173.0 55.0 173.0 L150.0 173.0 C158.0 173.0 164.0 174.0 164.0 177.0 L164.0 177.0 Z"></path>
<path fill="#ffffff" fill-opacity="1.0"  filling="0" d="M164.0 177.0 C164.0 180.0 158.0 182.0 150.0 182.0 L64.0 182.0 C56.0 182.0 49.0 180.0 49.0 177.0 C49.0 174.0 56.0 173.0 64.0 173.0 L150.0 173.0 C158.0 173.0 164.0 174.0 164.0 177.0 L164.0 177.0 Z"></path>
<path fill="#334455" fill-opacity="1.0"  filling="0" d="M166.0 65.0 L166.0 152.0 C166.0 158.0 161.0 162.0 155.0 162.0 L44.0 162.0 C38.0 162.0 33.0 158.0 33.0 152.0 L33.0 65.0 L166.0 65.0 L166.0 65.0 Z"></path>
<path fill="#334455" fill-opacity="1.0"  filling="0" d="M166.0 75.0 L166.0 152.0 C166.0 158.0 161.0 162.0 155.0 162.0 L44.0 162.0 C38.0 162.0 33.0 158.0 33.0 152.0 L33.0 75.0 C33.0 69.0 38.0 64.0 44.0 64.0 L155.0 64.0 C161.0 64.0 166.0 69.0 166.0 75.0 L166.0 75.0 Z"></path>
<path fill="#335566" fill-opacity="1.0"  filling="0" d="M166.0 75.0 L166.0 152.0 C166.0 158.0 161.0 162.0 155.0 162.0 L56.0 162.0 C50.0 162.0 44.0 158.0 44.0 152.0 L44.0 75.0 C44.0 69.0 50.0 64.0 56.0 64.0 L155.0 64.0 C161.0 64.0 166.0 69.0 166.0 75.0 L166.0 75.0 Z"></path>
<path fill="#334455" fill-opacity="1.0"  filling="0" d="M166.0 75.0 L166.0 152.0 C166.0 158.0 161.0 162.0 155.0 162.0 L63.0 162.0 C57.0 162.0 52.0 158.0 52.0 152.0 L52.0 75.0 C52.0 69.0 57.0 64.0 63.0 64.0 L155.0 64.0 C161.0 64.0 166.0 69.0 166.0 75.0 L166.0 75.0 Z"></path>
<path fill="#335566" fill-opacity="1.0"  filling="0" d="M166.0 75.0 L166.0 152.0 C166.0 158.0 161.0 162.0 155.0 162.0 L73.0 162.0 C67.0 162.0 62.0 158.0 62.0 152.0 L62.0 75.0 C62.0 69.0 67.0 64.0 73.0 64.0 L155.0 64.0 C161.0 64.0 166.0 69.0 166.0 75.0 L166.0 75.0 Z"></path>
<path fill="#334455" fill-opacity="1.0"  filling="0" d="M166.0 75.0 L166.0 152.0 C166.0 158.0 161.0 162.0 155.0 162.0 L84.0 162.0 C77.0 162.0 71.0 158.0 71.0 152.0 L71.0 75.0 C71.0 69.0 77.0 64.0 84.0 64.0 L155.0 64.0 C161.0 64.0 166.0 69.0 166.0 75.0 L166.0 75.0 Z"></path>
<path fill="#335566" fill-opacity="1.0"  filling="0" d="M166.0 75.0 L166.0 152.0 C166.0 158.0 161.0 162.0 155.0 162.0 L102.0 162.0 C95.0 162.0 90.0 158.0 90.0 152.0 L90.0 75.0 C90.0 69.0 95.0 64.0 102.0 64.0 L155.0 64.0 C161.0 64.0 166.0 69.0 166.0 75.0 L166.0 75.0 Z"></path>
<path fill="#334455" fill-opacity="1.0"  filling="0" d="M166.0 75.0 L166.0 152.0 C166.0 158.0 161.0 162.0 155.0 162.0 L114.0 162.0 C108.0 162.0 103.0 158.0 103.0 152.0 L103.0 75.0 C103.0 69.0 108.0 64.0 114.0 64.0 L155.0 64.0 C161.0 64.0 166.0 69.0 166.0 75.0 L166.0 75.0 Z"></path>
<path fill="#335566" fill-opacity="1.0"  filling="0" d="M166.0 75.0 L166.0 152.0 C166.0 158.0 161.0 162.0 155.0 162.0 L127.0 162.0 C120.0 162.0 114.0 158.0 114.0 152.0 L114.0 75.0 C114.0 69.0 120.0 64.0 127.0 64.0 L155.0 64.0 C161.0 64.0 166.0 69.0 166.0 75.0 L166.0 75.0 Z"></path>
<path fill="#334455" fill-opacity="1.0"  filling="0" d="M166.0 75.0 L166.0 152.0 C166.0 158.0 161.0 162.0 155.0 162.0 L138.0 162.0 C131.0 162.0 126.0 158.0 126.0 152.0 L126.0 75.0 C126.0 69.0 131.0 64.0 138.0 64.0 L155.0 64.0 C161.0 64.0 166.0 69.0 166.0 75.0 L166.0 75.0 Z"></path>
<path fill="#335566" fill-opacity="1.0"  filling="0" d="M166.0 75.0 L166.0 152.0 C166.0 158.0 161.0 162.0 155.0 162.0 L148.0 162.0 C142.0 162.0 137.0 158.0 137.0 152.0 L137.0 75.0 C137.0 69.0 142.0 64.0 148.0 64.0 L155.0 64.0 C161.0 64.0 166.0 69.0 166.0 75.0 L166.0 75.0 Z"></path>
<path fill="#334455" fill-opacity="1.0"  filling="0" d="M166.0 75.0 L166.0 152.0 C166.0 158.0 161.0 162.0 155.0 162.0 L152.0 162.0 C146.0 162.0 141.0 158.0 141.0 152.0 L141.0 75.0 C141.0 69.0 146.0 64.0 152.0 64.0 L155.0 64.0 C161.0 64.0 166.0 69.0 166.0 75.0 L166.0 75.0 Z"></path>
<path fill="#335566" fill-opacity="1.0"  filling="0" d="M166.0 75.0 L166.0 152.0 C166.0 158.0 161.0 162.0 155.0 162.0 L133.0 162.0 C127.0 162.0 122.0 158.0 122.0 152.0 L122.0 75.0 C122.0 69.0 127.0 64.0 133.0 64.0 L155.0 64.0 C161.0 64.0 166.0 69.0 166.0 75.0 L166.0 75.0 Z"></path>
<path fill="#334455" fill-opacity="1.0"  filling="0" d="M166.0 75.0 L166.0 152.0 C166.0 158.0 161.0 162.0 155.0 162.0 L138.0 162.0 C131.0 162.0 126.0 158.0 126.0 152.0 L126.0 75.0 C126.0 69.0 131.0 64.0 138.0 64.0 L155.0 64.0 C161.0 64.0 166.0 69.0 166.0 75.0 L166.0 75.0 Z"></path>
<path fill="#335566" fill-opacity="1.0"  filling="0" d="M167.0 75.0 L167.0 152.0 C167.0 158.0 162.0 162.0 155.0 162.0 L150.0 162.0 C144.0 162.0 139.0 158.0 139.0 152.0 L139.0 75.0 C139.0 69.0 144.0 64.0 150.0 64.0 L155.0 64.0 C161.0 64.0 167.0 69.0 167.0 75.0 L167.0 75.0 Z"></path>
<path fill="#334455" fill-opacity="1.0"  filling="0" d="M167.0 75.0 L167.0 152.0 C167.0 158.0 162.0 162.0 155.0 162.0 L160.0 162.0 C154.0 162.0 150.0 158.0 150.0 152.0 L150.0 75.0 C150.0 69.0 154.0 64.0 160.0 64.0 L160.0 64.0 C164.0 64.0 167.0 69.0 167.0 75.0 L167.0 75.0 Z"></path>
<path fill="#335566" fill-opacity="1.0"  filling="0" d="M167.0 75.0 L167.0 152.0 C167.0 158.0 162.0 162.0 155.0 162.0 L159.0 162.0 C153.0 162.0 149.0 158.0 149.0 152.0 L149.0 75.0 C149.0 69.0 153.0 64.0 159.0 64.0 L160.0 64.0 C164.0 64.0 167.0 69.0 167.0 75.0 L167.0 75.0 Z"></path>
<path fill="#334455" fill-opacity="1.0"  filling="0" d="M167.0 75.0 L167.0 152.0 C167.0 158.0 162.0 162.0 155.0 162.0 L152.0 162.0 C146.0 162.0 141.0 158.0 141.0 152.0 L141.0 75.0 C141.0 69.0 146.0 64.0 152.0 64.0 L155.0 64.0 C161.0 64.0 167.0 69.0 167.0 75.0 L167.0 75.0 Z"></path>
<path fill="#335566" fill-opacity="1.0"  filling="0" d="M167.0 75.0 L167.0 152.0 C167.0 158.0 162.0 162.0 155.0 162.0 L152.0 162.0 C146.0 162.0 141.0 158.0 141.0 152.0 L141.0 75.0 C141.0 69.0 146.0 64.0 152.0 64.0 L155.0 64.0 C161.0 64.0 167.0 69.0 167.0 75.0 L167.0 75.0 Z"></path>
<path fill="#334455" fill-opacity="1.0"  filling="0" d="M167.0 75.0 L167.0 152.0 C167.0 158.0 162.0 162.0 155.0 162.0 L152.0 162.0 C146.0 162.0 141.0 158.0 141.0 152.0 L141.0 75.0 C141.0 69.0 145.0 64.0 151.0 64.0 L155.0 64.0 C161.0 64.0 167.0 69.0 167.0 75.0 L167.0 75.0 Z"></path>
<path fill="#335566" fill-opacity="1.0"  filling="0" d="M167.0 75.0 L167.0 152.0 C167.0 158.0 162.0 162.0 155.0 162.0 L152.0 162.0 C147.0 162.0 142.0 158.0 142.0 152.0 L142.0 75.0 C142.0 69.0 147.0 64.0 152.0 64.0 L155.0 64.0 C161.0 64.0 167.0 69.0 167.0 75.0 L167.0 75.0 Z"></path>
<path fill="#334455" fill-opacity="1.0"  filling="0" d="M167.0 75.0 L167.0 152.0 C167.0 158.0 162.0 162.0 155.0 162.0 L152.0 162.0 C147.0 162.0 142.0 158.0 142.0 152.0 L142.0 75.0 C142.0 69.0 147.0 64.0 152.0 64.0 L155.0 64.0 C161.0 64.0 167.0 69.0 167.0 75.0 L167.0 75.0 Z"></path>
<path fill="#335566" fill-opacity="1.0"  filling="0" d="M167.0 75.0 L167.0 152.0 C167.0 158.0 162.0 162.0 155.0 162.0 L152.0 162.0 C147.0 162.0 142.0 158.0 142.0 152.0 L142.0 75.0 C142.0 69.0 147.0 64.0 152.0 64.0 L155.0 64.0 C161.0 64.0 167.0 69.0 167.0 75.0 L167.0 75.0 Z"></path>
<path fill="#334455" fill-opacity="1.0"  filling="0" d="M167.0 75.0 L167.0 152.0 C167.0 158.0 162.0 162.0 155.0 162.0 L152.0 162.0 C147.0 162.0 142.0 158.0 142.0 152.0 L142.0 75.0 C142.0 69.0 147.0 64.0 152.0 64.0 L155.0 64.0 C161.0 64.0 167.0 69.0 167.0 75.0 L167.0 75.0 Z"></path>
<path fill="#335566" fill-opacity="1.0"  filling="0" d="M167.0 75.0 L167.0 152.0 C167.0 158.0 162.0 162.0 155.0 162.0 L152.0 162.0 C147.0 162.0 142.0 158.0 142.0 152.0 L142.0 75.0 C142.0 69.0 147.0 64.0 152.0 64.0 L155.0 64.0 C161.0 64.0 167.0 69.0 167.0 75.0 L167.0 75.0 Z"></path>
<path fill="#334455" fill-opacity="1.0"  filling="0" d="M167.0 75.0 L167.0 152.0 C167.0 158.0 162.0 162.0 155.0 162.0 L152.0 162.0 C147.0 162.0 142.0 158.0 142.0 152.0 L142.0 75.0 C142.0 69.0 147.0 64.0 152.0 64.0 L155.0 64.0 C161.0 64.0 167.0 69.0 167.0 75.0 L167.0 75.0 Z"></path>
<path fill="#335566" fill-opacity="1.0"  filling="0" d="M167.0 75.0 L167.0 152.0 C167.0 158.0 162.0 162.0 155.0 162.0 L152.0 162.0 C147.0 162.0 142.0 158.0 142.0 152.0 L142.0 75.0 C142.0 69.0 147.0 64.0 152.0 64.0 L155.0 64.0 C161.0 64.0 167.0 69.0 167.0 75.0 L167.0 75.0 Z"></path>
<path fill="#334455" fill-opacity="1.0"  filling="0" d="M167.0 75.0 L167.0 152.0 C167.0 158.0 162.0 162.0 155.0 162.0 L152.0 162.0 C147.0 162.0 142.0 158.0 142.0 152.0 L142.0 75.0 C142.0 69.0 147.0 64.0 152.0 64.0 L155.0 64.0 C161.0 64.0 167.0 69.0 167.0 75.0 L167.0 75.0 Z"></path>
<path fill="#335566" fill-opacity="1.0"  filling="0" d="M167.0 75.0 L167.0 152.0 C167.0 158.0 162.0 162.0 155.0 162.0 L152.0 162.0 C147.0 162.0 142.0 158.0 142.0 152.0 L142.0 75.0 C142.0 69.0 147.0 64.0 152.0 64.0 L155.0 64.0 C161.0 64.0 167.0 69.0 167.0 75.0 L167.0 75.0 Z"></path>
<path fill="#334455" fill-opacity="1.0"  filling="0" d="M167.0 75.0 L167.0 152.0 C167.0 158.0 162.0 162.0 155.0 162.0 L152.0 162.0 C147.0 162.0 142.0 158.0 142.0 152.0 L142.0 75.0 C142.0 69.0 147.0 64.0 152.0 64.0 L155.0 64.0 C161.0 64.0 167.0 69.0 167.0 75.0 L167.0 75.0 Z"></path>
<path fill="#335566" fill-opacity="1.0"  filling="0" d="M167.0 75.0 L167.0 152.0 C167.0 158.0 162.0 162.0 155.0 162.0 L152.0 162.0 C147.0 162.0 142.0 158.0 142.0 152.0 L142.0 75.0 C142.0 69.0 147.0 64.0 152.0 64.0 L155.0 64.0 C161.0 64.0 167.0 69.0 167.0 75.0 L167.0 75.0 Z"></path>
<path fill="#334455" fill-opacity="1.0"  filling="0" d="M167.0 75.0 L167.0 152.0 C167.0 158.0 162.0 162.0 155.0 162.0 L152.0 162.0 C147.0 162.0 142.0 158.0 142.0 152.0 L142.0 75.0 C142.0 69.0 147.0 64.0 152.0 64.0 L155.0 64.0 C161.0 64.0 167.0 69.0 167.0 75.0 L167.0 75.0 Z"></path>
<path fill="#335566" fill-opacity="1.0"  filling="0" d="M167.0 75.0 L167.0 152.0 C167.0 158.0 162.0 162.0 155.0 162.0 L152.0 162.0 C147.0 162.0 142.0 158.0 142.0 152.0 L142.0 75.0 C142.0 69.0 147.0 64.0 152.0 64.0 L155.0 64.0 C161.0 64.0 167.0 69.0 167.0 75.0 L167.0 75.0 Z"></path>
<path fill="#334455" fill-opacity="1.0"  filling="0" d="M167.0 75.0 L167.0 152.0 C167.0 158.0 162.0 162.0 155.0 162.0 L152.0 162.0 C147.0 162.0 142.0 158.0 142.0 152.0 L142.0 75.0 C142.0 69.0 147.0 64.0 152.0 64.0 L155.0 64.0 C161.0 64.0 167.0 69.0 167.0 75.0 L167.0 75.0 Z"></path>
<path fill="#335566" fill-opacity="1.0"  filling="0" d="M167.0 75.0 L167.0 152.0 C167.0 158.0 162.0 162.0 155.0 162.0 L152.0 162.0 C147.0 162.0 142.0 158.0 142.0 152.0 L142.0 75.0 C142.0 69.0 147.0 64.0 152.0 64.0 L155.0 64.0 C161.0 64.0 167.0 69.0 167.0 75.0 L167.0 75.0 Z"></path>
<path fill="#334455" fill-opacity="1.0"  filling="0" d="M167.0 75.0 L167.0 152.0 C167.0 158.0 162.0 162.0 155.0 162.0 L152.0 162.0 C147.0 162.0 142.0 158.0 142.0 152.0 L142.0 75.0 C142.0 69.0 147.0 64.0 152.0 64.0 L155.0 64.0 C161.0 64.0 167.0 69.0 167.0 75.0 L167.0 75.0 Z"></path>
<path fill="#335566" fill-opacity="1.0"  filling="0" d="M167.0 75.0 L167.0 152.0 C167.0 158.0 162.0 162.0 155.0 162.0 L152.0 162.0 C147.0 162.0 142.0 158.0 142.0 152.0 L142.0 75.0 C142.0 69.0 147.0 64.0 152.0 64.0 L155.0 64.0 C161.0 64.0 167.0 69.0 167.0 75.0 L167.0 75.0 Z"></path>
<path fill="#000000" fill-opacity="1.0"  filling="0" d="M167.0 75.0 L167.0 152.0 C167.0 158.0 162.0 162.0 155.0 162.0 L152.0 162.0"></path></svg>