<svg xmlns="http://www.w3.org/2000/svg" viewBox="0.0 0.0 200.0 200.0" height="200px" width="200px"><path fill="#ccccdd" fill-opacity="1.0"  filling="0" d="M164.0 177.0 C164.0 180.0 159.0 182.0 152.0 182.0 L47.0 182.0 C40.0 182.0 35.0 180.0 35.0 177.0 C35.0 174.0 40.0 172.0 47.0 172.0 L152.0 172.0 C159.0 172.0 164.0 174.0 164.0 177.0 L164.0 177.0 Z"></path>
<path fill="#ccccdd" fill-opacity="1.0"  filling="0" d="M152.0 177.0 C152.0 180.0 149.0 181.0 147.0 181.0 C145.0 181.0 143.0 180.0 143.0 177.0 C143.0 175.0 145.0 173.0 147.0 173.0 C149.0 173.0 152.0 175.0 152.0 177.0 L152.0 177.0 Z M56.0 177.0 C56.0 180.0 54.0 181.0 52.0 181.0 C50.0 181.0 48.0 180.0 48.0 177.0 C48.0 175.0 51.0 173.0 52.0 173.0 C54.0 173.0 56.0 175.0 56.0 177.0 L56.0 177.0 Z"></path>
<path fill="#ffffff" fill-opacity="1.0"  filling="0" d="M164.0 177.0 C164.0 180.0 159.0 182.0 152.0 182.0 L52.0 182.0 C45.0 182.0 40.0 180.0 40.0 177.0 C40.0 174.0 45.0 172.0 52.0 172.0 L152.0 172.0 C159.0 172.0 164.0 174.0 164.0 177.0 L164.0 177.0 Z"></path>
<path fill="#ccccdd" fill-opacity="1.0"  filling="0" d="M153.0 177.0 C153.0 180.0 151.0 181.0 149.0 181.0 C147.0 181.0 145.0 180.0 145.0 177.0 C145.0 175.0 147.0 173.0 149.0 173.0 C151.0 173.0 153.0 175.0 153.0 177.0 L153.0 177.0 Z M55.0 177.0 C55.0 180.0 53.0 181.0 51.0 181.0 C49.0 181.0 47.0 180.0 47.0 177.0 C47.0 175.0 49.0 173.0 51.0 173.0 C53.0 173.0 55.0 175.0 55.0 177.0 L55.0 177.0 Z"></path>
<path fill="#334455" fill-opacity="1.0"  filling="0" d="M166.0 152.0 A10.0 10.0 0.0 0 1 156.0 163.0 L43.0 163.0 A10.0 10.0 0.0 0 1 33.0 152.0 L33.0 75.0 A10.0 10.0 0.0 0 1 43.0 64.0 L156.0 64.0 A10.0 10.0 0.0 0 1 166.0 75.0 L166.0 152.0 L166.0 152.0 Z"></path>
<path fill="#445566" fill-opacity="1.0"  filling="0" d="M166.0 148.0 A10.0 10.0 0.0 0 1 156.0 158.0 L43.0 158.0 A10.0 10.0 0.0 0 1 33.0 148.0 L33.0 75.0 A10.0 10.0 0.0 0 1 43.0 64.0 L156.0 64.0 A10.0 10.0 0.0 0 1 166.0 75.0 L166.0 148.0 L166.0 148.0 Z"></path>
<path fill="#334455" fill-opacity="1.0"  filling="0" d="M166.0 148.0 A10.0 10.0 0.0 0 1 156.0 158.0 L44.0 158.0 A10.0 10.0 0.0 0 1 33.0 148.0 L33.0 75.0 A10.0 10.0 0.0 0 1 43.0 64.0 L156.0 64.0 A10.0 10.0 0.0 0 1 166.0 75.0 L166.0 148.0 L166.0 148.0 Z"></path>
<path fill="#445566" fill-opacity="1.0"  filling="0" d="M166.0 144.0 A10.0 10.0 0.0 0 1 156.0 154.0 L43.0 154.0 A10.0 10.0 0.0 0 1 33.0 144.0 L33.0 75.0 A10.0 10.0 0.0 0 1 43.0 64.0 L156.0 64.0 A10.0 10.0 0.0 0 1 166.0 75.0 L166.0 144.0 L166.0 144.0 Z"></path>
<path fill="#334455" fill-opacity="1.0"  filling="0" d="M166.0 144.0 A10.0 10.0 0.0 0 1 156.0 154.0 L44.0 154.0 A10.0 10.0 0.0 0 1 34.0 144.0 L34.0 75.0 A10.0 10.0 0.0 0 1 44.0 64.0 L156.0 64.0 A10.0 10.0 0.0 0 1 166.0 75.0 L166.0 144.0 L166.0 144.0 Z"></path>
<path fill="#445566" fill-opacity="1.0"  filling="0" d="M166.0 144.0 A10.0 10.0 0.0 0 1 156.0 154.0 L44.0 154.0 A10.0 10.0 0.0 0 1 34.0 144.0 L34.0 75.0 A10.0 10.0 0.0 0 1 44.0 64.0 L156.0 64.0 A10.0 10.0 0.0 0 1 166.0 75.0 L166.0 144.0 L166.0 144.0 Z"></path>
<path fill="#334455" fill-opacity="1.0"  filling="0" d="M166.0 144.0 A10.0 10.0 0.0 0 1 156.0 154.0 L44.0 154.0 A10.0 10.0 0.0 0 1 34.0 144.0 L34.0 75.0 A10.0 10.0 0.0 0 1 44.0 64.0 L156.0 64.0 A10.0 10.0 0.0 0 1 166.0 75.0 L166.0 144.0 L166.0 144.0 Z"></path>
<path fill="#445566" fill-opacity="1.0"  filling="0" d="M166.0 144.0 A10.0 10.0 0.0 0 1 156.0 154.0 L44.0 154.0 A10.0 10.0 0.0 0 1 34.0 144.0 L34.0 75.0 A10.0 10.0 0.0 0 1 44.0 64.0 L156.0 64.0 A10.0 10.0 0.0 0 1 166.0 75.0 L166.0 144.0 L166.0 144.0 Z"></path>
<path fill="#334455" fill-opacity="1.0"  filling="0" d="M166.0 144.0 A10.0 10.0 0.0 0 1 156.0 154.0 L44.0 154.0 A10.0 10.0 0.0 0 1 34.0 144.0 L34.0 75.0 A10.0 10.0 0.0 0 1 44.0 64.0 L156.0 64.0 A10.0 10.0 0.0 0 1 166.0 75.0 L166.0 144.0 L166.0 144.0 Z"></path>
<path fill="#334455" fill-opacity="1.0"  filling="0" d="M166.0 144.0 A10.0 10.0 0.0 0 1 156.0 154.0 L44.0 154.0 A10.0 10.0 0.0 0 1 34.0 144.0 L34.0 75.0 A10.0 10.0 0.0 0 1 44.0 64.0 L156.0 64.0 A10.0 10.0 0.0 0 1 166.0 75.0 L166.0 144.0 L166.0 144.0 Z"></path>
<path fill="#445566" fill-opacity="1.0"  filling="0" d="M166.0 144.0 A10.0 10.0 0.0 0 1 156.0 154.0 L44.0 154.0 A10.0 10.0 0.0 0 1 34.0 144.0 L34.0 75.0 A10.0 10.0 0.0 0 1 44.0 64.0 L156.0 64.0 A10.0 10.0 0.0 0 1 166.0 75.0 L166.0 144.0 L166.0 144.0 Z"></path>
<path fill="#334455" fill-opacity="1.0"  filling="0" d="M166.0 144.0 A10.0 10.0 0.0 0 1 156.0 154.0 L44.0 154.0 A10.0 10.0 0.0 0 1 34.0 144.0 L34.0 75.0 A10.0 10.0 0.0 0 1 44.0 64.0 L156.0 64.0 A10.0 10.0 0.0 0 1 166.0 75.0 L166.0 144.0 L166.0 144.0 Z"></path>
<path fill="#334455" fill-opacity="1.0"  filling="0" d="M166.0 144.0 A10.0 10.0 0.0 0 1 156.0 154.0 L44.0 154.0 A10.0 10.0 0.0 0 1 34.0 144.0 L34.0 75.0 A10.0 10.0 0.0 0 1 44.0 64.0 L156.0 64.0 A10.0 10.0 0.0 0 1 166.0 75.0 L166.0 144.0 L166.0 144.0 Z"></path>
<path fill="#445566" fill-opacity="1.0"  filling="0" d="M166.0 144.0 A10.0 10.0 0.0 0 1 156.0 154.0 L44.0 154.0 A10.0 10.0 0.0 0 1 34.0 144.0 L34.0 75.0 A10.0 10.0 0.0 0 1 44.0 64.0 L156.0 64.0 A10.0 10.0 0.0 0 1 166.0 75.0 L166.0 144.0 L166.0 144.0 Z"></path>
<path fill="#334455" fill-opacity="1.0"  filling="0" d="M166.0 144.0 A10.0 10.0 0.0 0 1 156.0 154.0 L44.0 154.0 A10.0 10.0 0.0 0 1 34.0 144.0 L34.0 75.0 A10.0 10.0 0.0 0 1 44.0 64.0 L156.0 64.0 A10.0 10.0 0.0 0 1 166.0 75.0 L166.0 144.0 L166.0 144.0 Z"></path>
<path fill="#334455" fill-opacity="1.0"  filling="0" d="M166.0 144.0 A10.0 10.0 0.0 0 1 156.0 154.0 L44.0 154.0 A10.0 10.0 0.0 0 1 34.0 144.0 L34.0 75.0 A10.0 10.0 0.0 0 1 44.0 64.0 L156.0 64.0 A10.0 10.0 0.0 0 1 166.0 75.0 L166.0 144.0 L166.0 144.0 Z"></path>
<path fill="#445566" fill-opacity="1.0"  filling="0" d="M166.0 144.0 A10.0 10.0 0.0 0 1 156.0 154.0 L44.0 154.0 A10.0 10.0 0.0 0 1 34.0 144.0 L34.0 75.0 A10.0 10.0 0.0 0 1 44.0 64.0 L156.0 64.0 A10.0 10.0 0.0 0 1 166.0 75.0 L166.0 144.0 L166.0 144.0 Z"></path>
<path fill="#334455" fill-opacity="1.0"  filling="0" d="M166.0 144.0 A10.0 10.0 0.0 0 1 156.0 154.0 L44.0 154.0 A10.0 10.0 0.0 0 1 34.0 144.0 L34.0 75.0 A10.0 10.0 0.0 0 1 44.0 64.0 L156.0 64.0 A10.0 10.0 0.0 0 1 166.0 75.0 L166.0 144.0 L166.0 144.0 Z"></path>
<path fill="#334455" fill-opacity="1.0"  filling="0" d="M166.0 144.0 A10.0 10.0 0.0 0 1 156.0 154.0 L44.0 154.0 A10.0 10.0 0.0 0 1 34.0 144.0 L34.0 75.0 A10.0 10.0 0.0 0 1 44.0 64.0 L156.0 64.0 A10.0 10.0 0.0 0 1 166.0 75.0 L166.0 144.0 L166.0 144.0 Z"></path>
<path fill="#445566" fill-opacity="1.0"  filling="0" d="M166.0 144.0 A10.0 10.0 0.0 0 1 156.0 154.0 L44.0 154.0 A10.0 10.0 0.0 0 1 34.0 144.0 L34.0 75.0 A10.0 10.0 0.0 0 1 44.0 64.0 L156.0 64.0 A10.0 10.0 0.0 0 1 166.0 75.0 L166.0 144.0 L166.0 144.0 Z"></path>
<path fill="#334455" fill-opacity="1.0"  filling="0" d="M166.0 144.0 A10.0 10.0 0.0 0 1 156.0 154.0 L44.0 154.0 A10.0 10.0 0.0 0 1 34.0 144.0 L34.0 75.0 A10.0 10.0 0.0 0 1 44.0 64.0 L156.0 64.0 A10.0 10.0 0.0 0 1 166.0 75.0 L166.0 144.0 L166.0 144.0 Z"></path>
<path fill="#334455" fill-opacity="1.0"  filling="0" d="M166.0 144.0 A10.0 10.0 0.0 0 1 156.0 154.0 L44.0 154.0 A10.0 10.0 0.0 0 1 34.0 144.0 L34.0 75.0 A10.0 10.0 0.0 0 1 44.0 64.0 L156.0 64.0 A10.0 10.0 0.0 0 1 166.0 75.0 L166.0 144.0 L166.0 144.0 Z"></path>
<path fill="#445566" fill-opacity="1.0"  filling="0" d="M166.0 144.0 A10.0 10.0 0.0 0 1 156.0 154.0 L44.0 154.0 A10.0 10.0 0.0 0 1 34.0 144.0 L34.0 75.0 A10.0 10.0 0.0 0 1 44.0 64.0 L156.0 64.0 A10.0 10.0 0.0 0 1 166.0 75.0 L166.0 144.0 L166.0 144.0 Z"></path>
<path fill="#334455" fill-opacity="1.0"  filling="0" d="M166.0 144.0 A10.0 10.0 0.0 0 1 156.0 154.0 L44.0 154.0 A10.0 10.0 0.0 0 1 34.0 144.0 L34.0 75.0 A10.0 10.0 0.0 0 1 44.0 64.0 L156.0 64.0 A10.0 10.0 0.0 0 1 166.0 75.0 L166.0 144.0 L166.0 144.0 Z"></path>
<path fill="#334455" fill-opacity="1.0"  filling="0" d="M166.0 144.0 A10.0 10.0 0.0 0 1 156.0 154.0 L44.0 154.0 A10.0 10.0 0.0 0 1 34.0 144.0 L34.0 75.0 A10.0 10.0 0.0 0 1 44.0 64.0 L156.0 64.0 A10.0 10.0 0.0 0 1 166.0 75.0 L166.0 144.0 L166.0 144.0 Z"></path>
<path fill="#445566" fill-opacity="1.0"  filling="0" d="M166.0 144.0 A10.0 10.0 0.0 0 1 156.0 154.0 L44.0 154.0 A10.0 10.0 0.0 0 1 34.0 144.0 L34.0 75.0 A10.0 10.0 0.0 0 1 44.0 64.0 L156.0 64.0 A10.0 10.0 0.0 0 1 166.0 75.0 L166.0 144.0 L166.0 144.0 Z"></path>
<path fill="#334455" fill-opacity="1.0"  filling="0" d="M166.0 144.0 A10.0 10.0 0.0 0 1 156.0 154.0 L44.0 154.0 A10.0 10.0 0.0 0 1 34.0 144.0 L34.0 75.0 A10.0 10.0 0.0 0 1 44.0 64.0 L156.0 64.0 A10.0 10.0 0.0 0 1 166.0 75.0 L166.0 144.0 L166.0 144.0 Z"></path>
<path fill="#334455" fill-opacity="1.0"  filling="0" d="M166.0 144.0 A10.0 10.0 0.0 0 1 156.0 154.0 L44.0 154.0 A10.0 10.0 0.0 0 1 34.0 144.0 L34.0 75.0 A10.0 10.0 0.0 0 1 44.0 64.0 L156.0 64.0 A10.0 10.0 0.0 0 1 166.0 75.0 L166.0 144.0 L166.0 144.0 Z"></path>
<path fill="#445566" fill-opacity="1.0"  filling="0" d="M166.0 144.0 A10.0 10.0 0.0 0 1 156.0 154.0 L44.0 154.0 A10.0 10.0 0.0 0 1 34.0 144.0 L34.0 75.0 A10.0 10.0 0.0 0 1 44.0 64.0 L156.0 64.0 A10.0 10.0 0.0 0 1 166.0 75.0 L166.0 144.0 L166.0 144.0 Z"></path>
<path fill="#334455" fill-opacity="1.0"  filling="0" d="M166.0 144.0 A10.0 10.0 0.0 0 1 156.0 154.0 L44.0 154.0 A10.0 10.0 0.0 0 1 34.0 144.0 L34.0 75.0 A10.0 10.0 0.0 0 1 44.0 64.0 L156.0 64.0 A10.0 10.0 0.0 0 1 166.0 75.0 L166.0 144.0 L166.0 144.0 Z"></path>
<path fill="none" fill-opacity="1.0" filling="0" d="M0.0 M.0 Z"></path></svg>