<svg xmlns="http://www.w3.org/2000/svg" viewBox="0.0 0.0 200.0 200.0" height="200px" width="200px"><path fill="#ffbb55" fill-opacity="1.0"  filling="0" d="M51.0 100.0 A49.0 49.0 0.0 1 0 149.0 100.0 A49.0 49.0 0.0 1 0 51.0 100.0 L51.0 100.0 Z"></path>
<path fill="#333333" fill-opacity="1.0"  filling="0" d="M100.0 154.0 C85.0 154.0 71.0 148.0 61.0 138.0 C51.0 128.0 45.0 115.0 45.0 100.0 C45.0 85.0 51.0 72.0 61.0 62.0 C71.0 52.0 85.0 46.0 100.0 46.0 C115.0 46.0 129.0 52.0 139.0 62.0 C149.0 72.0 155.0 85.0 155.0 100.0 C155.0 115.0 149.0 128.0 139.0 138.0 C129.0 148.0 115.0 154.0 100.0 154.0 L100.0 154.0 Z M100.0 51.0 C87.0 51.0 74.0 57.0 65.0 66.0 C56.0 74.0 51.0 86.0 51.0 100.0 C51.0 113.0 56.0 126.0 65.0 134.0 C74.0 143.0 87.0 149.0 100.0 149.0 C113.0 149.0 126.0 143.0 135.0 134.0 C144.0 126.0 149.0 113.0 149.0 100.0 C149.0 87.0 144.0 74.0 135.0 66.0 C126.0 57.0 113.0 51.0 100.0 51.0 L100.0 51.0 Z"></path>
<path fill="#000000" fill-opacity="1.0"  filling="0" d="M151.0 71.0 C151.0 71.0 151.0 71.0 151.0 71.0 C151.0 71.0 151.0 71.0 151.0 71.0 C151.0 71.0 151.0 71.0 151.0 71.0 C151.0 71.0 151.0 71.0 151.0 71.0 C151.0 71.0 151.0 71.0 151.0 71.0 C151.0 71.0 151.0 71.0 151.0 71.0 C151.0 71.0 151.0 71.0 151.0 71.0 C151.0 71.0 151.0 71.0 151.0 71.0 C151.0 71.0 151.0 71.0 151.0 71.0 C151.0 71.0 151.0 71.0 151.0 71.0 C151.0 71.0 151.0 71.0 151.0 71.0 C151.0 71.0 151.0 71.0 151.0 71.0 C151.0 71.0 151.0 71.0 151.0 71.0 C151.0 71.0 151.0 71.0 151.0 71.0 C151.0 71.0 151.0 71.0 151.0 71.0 C151.0 71.0 151.0 71.0 151.0 71.0 C151.0 71.0 151.0 71.0 151.0 71.0 C151.0 71.0 151.0 71.0 151.0 71.0 C151.0 71.0 151.0 71.0 151.0 71.0 C151.0 71.0 151.0 71.0 151.0 71.0 C151.0 71.0 151.0 71.0 151.0 71.0 C151.0 71.0 151.0 71.0 151.0 71.0 C151.0 71.0 151.0 71.0 151.0 71.0 C151.0 71.0 151.0 71.0 151.0 71.0 C151.0 71.0 151.0 71.0 151.0 71.0 C151.0 71.0 151.0 71.0 151.0 71.0 C151.0 71.0 151.0 71.0 151.0 71.0 C151.0 71.0 151.0 71.0 151.0 71.0 C151.0 71.0 151.0 71.0 151.0 71.0 C151.0 71.0 151.0 71.0 151.0 71.0 C151.0 71.0 151.0 71.0 151.0 71.0 C151.0 71.0 151.0 71.0 151.0 71.0 C151.0 71.0 151.0 71.0 151.0 71.0 C151.0 71.0 151.0 71.0 151.0 71.0 C151.0 71.0 151.0 71.0 151.0 71.0 C151.0 71.0 151.0 71.0 151.0 71.0 C151.0 71.0 151.0 71.0 151.0 71.0 C151.0 71.0 151.0 71.0 151.0 71.0 C151.0 71.0 151.0 71.0 151.0 71.0 C151.0 71.0 151.0 71.0 151.0 71.0 C151.0 71.0 151.0 71.0 151.0 71.0 C151.0 71.0 151.0 71.0 151.0 71.0 C151.0 71.0 151.0 71.0 151.0 71.0 C151.0 71.0 151.0 71.0 151.0 71.0 C151.0 71.0 151.0 71.0 151.0 71.0 C151.0 71.0 151.0 71.0 151.0 71.0 C151.0 71.0 151.0 71.0 151.0 71.0 C151.0 71.0 151.0 71.0 151.0 71.0 C151.0 71.0 151.0 71.0 151.0 71.0 C151.0 71.0 151.0 71.0 151.0 71.0 C151.0 71.0 151.0 71.0 151.0 71.0 C151.0 71.0 151.0 71.0 151.0 71.0 C151.0 71.0 151.0 71.0 151.0 71.0 C151.0 71.0 151.0 71.0 151.0 71.0 C151.0 71.0 151.0 71.0 151.0 71.0 C151.0 71.0 151.0 71.0 151.0 71.0 C151.0 71.0 151.0 71.0 151.0 71.0 C151.0 71.0 151.0 71.0 151.0 71.0 C151.0 71.0 151.0 71.0 151.0 71.0 C151.0 71.0 151.0 71.0 151.0 71.0 C151.0 71.0 151.0 71.0 151.0 71.0 C151.0 71.0 151.0 71.0 151.0 71.0 C151.0 71.0 151.0 71.0 151.0 71.0 C151.0 71.0 151.0 71.0 151.0 71.0 C151.0 71.0 151.0 71.0 151.0 71.0 C151.0 71.0 151.0 71.0 151.0 71.0 C151.0 71.0 151.0 71.0 151.0 71.0 C151.0 71.0 151.0 71.0 151.0 71.0 C151.0 71.0 151.0 71.0 151.0 71.0 C151.0 71.0 151.0 71.0 151.0 71.0 C151.0 71.0 151.0 71.0 151.0 71.0 C151.0 71.0 151.0 71.0 151.0 71.0 C151.0 71.0 151.0 71.0 151.0 71.0 C151.0 71.0 151.0 71.0 151.0 71.0 C151.0 71.0 151.0 71.0 151.0 71.0 C151.0 71.0 151.0 71.0 151.0 71.0 C151.0 71.0 151.0 71.0 151.0 71.0 C151.0 71.0 151.0 71.0 151.0 71.0 C151.0 71.0 151.0 71.0 151.0 71.0 C151.0 71.0 151.0 71.0 151.0 71.0 C151.0 71.0 151.0 71.0 151.0 71.0 C151.0 71.0 151.0 71.0 151.0 71.0 C151.0 71.0 151.0 71.0 151.0 71.0 C151.0 71.0 151.0 71.0 151.0 71.0 C151.0 71.0 151.0 71.0 151.0 71.0 C151.0 71.0 151.0 71.0 151.0 71.0 C151.0 71.0 151.0 71.0 151.0 71.0 C151.0 71.0 151.0 71.0 151.0 71.0 C151.0 71.0 151.0 71.0 151.0 71.0 C151.0 71.0 151.0 71.0 151.0 71.0 C151.0 71.0 151.0 71.0 151.0 71.0 C151.0 71.0 151.0 71.0 151.0 71.0 C151.0 71.0 151.0 71.0 151.0 71.0 C151.0 71.0 151.0 71.0 151.0 71.0 C151.0 71.0 151.0 71.0 151.0 71.0 C151.0 71.0 151.0 71.0 151.0 71.0 C151.0 71.0 151.0 71.0 151.0 71.0 C151.0 71.0 151.0 71.0 151.0 71.0 C151.0 71.0 151.0 71.0 151.0 71.0 C151.0 71.0 151.0 71.0 151.0 71.0 C151.0 71.0 151.0 71.0 151.0 71.0 C151.0 71.0 151.0 71.0 151.0 71.0 C151.0 71.0 151.0 71.0 151.0 71.0 C151.0 71.0 151.0 71.0 151.0 71.0 C151.0 71.0 151.0 71.0 151.0 71.0 C151.0 71.0 151.0 71.0 151.0 71.0 C151.0 71.0 151.0 71.0 151.0 71.0 C151.0 71.0 151.0 71.0 151.0 71.0 C151.0 71.0 151.0 71.0 151.0 71.0 C151.0 71.0 151.0 71.0 151.0 71.0 C151.0 71.0 151.0 71.0 151.0 71.0 C151.0 71.0 151.0 71.0 151.0 71.0 C151.0 71.0 151.0 71.0 151.0 71.0 C151.0 71.0 151.0 71.0 151.0 71.0 C151.0 71.0 151.0 71.0 151.0 71.0 C151.0 71.0 151.0 71.0 151.0 71.0 C151.0 71.0 151.0 71.0 151.0 71.0 C151.0 71.0 151.0 71.0 151.0 71.0 C151.0 71.0 151.0 71.0 151.0 71.0 C151.0 71.0 151.0 71.0 151.0 71.0 C151.0 71.0 151.0 71.0 151.0 71.0 C151.0 71.0 151.0 71.0 151.0 71.0 C151.0 71.0 151.0 71.0 151.0 71.0 C151.0 71.0 151.0 71.0 151.0 71.0 C151.0 71.0 151.0 71.0 151.0 71.0 C151.0 71.0 151.0 71.0 151.0 71.0 C151.0 71.0 151.0 71.0 151.0 71.0 C151.0 71.0 151.0 71.0 151.0 71.0 C151.0 71.0 151.0 71.0 151.0 71.0 C151.0 71.0 151.0 71.0 151.0 71.0 C151.0 71.0 151.0 71.0 151.0 71.0 C151.0 71.0 151.0 71.0 151.0 71.0 C151.0 71.0 151.0 71.0 151.0 71.0 C151.0 71.0 151.0 71.0 151.0 71.0 C151.0 71.0 151.0 71.0 151.0 71.0 C151.0 71.0 151.0 71.0 151.0 71.0 C151.0 71.0 151.0 71.0 151.0 71.0 C151.0 71.0 151.0 71.0 151.0 71.0 C151.0 71.0 151.0 71.0 151.0 71.0 C151.0 71.0 151.0 71.0 151.0 71.0 C151.0 71.0 151.0 71.0 151.0 71.0 C151.0 71.0 151.0 71.0 151.0 71.0 C151.0 71.0 151.0 71.0 151.0 71.0 C151.0 71.0 151.0 71.0 151.0 71.0 C151.0 71.0 151.0 71.0 151.0 71.0 C151.0 71.0 151.0 71.0 151.0 71.0 C151.0 71.0 151.0 71.0 151.0 71.0 C151.0 71.0 151.0 71.0 151.0 71.0 C151.0 71.0 151.0 71.0 151.0 71.0 C151.0 71.0 151.0 71.0 151.0 71.0 C151.0 71.0 151.0 71.0 151.0 71.0 C151.0 71.0 151.0 71.0 151.0 71.0 C151.0 71.0 151.0 71.0 151.0 71.0 C151.0 71.0 151.0 71.0 151.0 71.0 C151.0 71.0 151.0 71.0 151.0 71.0 C151.0 71.0 151.0 71.0 151.0 71.0 C151.0 71.0 151.0 71.0 151.0 71.0 C151.0 71.0 151.0 71.0 151.0 71.0 C151.0 71.0 151.0 71.0 151.0 71.0 C151.0 71.0 151.0 71.0 151.0 71.0 C151.0 71.0 151.0 71.0 151.0 71.0 C151.0 71.0 151.0 71.0 151.0 71.0 C151.0 71.0 151.0 71.0 151.0 71.0 C151.0 71.0 151.0 71.0 151.0 71.0 C151.0 71.0 151.0 71.0 151.0 71.0 C151.0 71.0 151.0 71.0 151.0 71.0 C151.0 71.0 151.0 71.0 151.0 71.0 C151.0 71.0 151.0 71.0 151.0 71.0 C151.0 71.0 151.0 71.0 151.0 71.0 C151.0 71.0 151.0 71.0 151.0 71.0 C151.0 71.0 151.0 71.0 151.0 71.0 C151.0 71.0 151.0 71.0 151.0 71.0 C151.0 71.0 151.0 71.0 151.0 71.0 C151.0 71.0 151.0 71.0 151.0 71.0 C151.0 71.0 151.0 71.0 151.0 71.0 C151.0 71.0 151.0 71.0 151.0 71.0 C151.0 71.0 151.0 71.0 151.0 71.0 C151.0 71.0 151.0 71.0 151.0 71.0 C151.0 71.0 151.0 71.0 151.0 71.0 C151.0 71.0 151.0 71.0 151.0 71.0 C151.0 71.0 151.0 71.0 151.0 71.0 C151.0 71.0 151.0 71.0 151.0 71.0 C151.0 71.0 151.0 71.0 151.0 71.0 C151.0 71.0 151.0 71.0 151.0 71.0 C151.0 71.0 151.0 71.0 151.0 71.0 C151.0 71.0 151.0 71.0 151.0 71.0 C151.0 71.0 151.0 71.0 151.0 71.0 C151.0 71.0 151.0 71.0 151.0 71.0 C151.0 71.0 151.0 71.0 151.0 71.0 C151.0 71.0 151.0 71.0 151.0 71.0 C151.0 71.0 151.0 71.0 151.0 71.0 C151.0 71.0 151.0 71.0 151.0 71.0 C151.0 71.0 151.0 71.0 151.0 71.0 C151.0 71.0 151.0 71.0 151.0 71.0 C151.0 71.0 151.0 71.0 151.0 71.0 C151.0 71.0 151.0 71.0 151.0 71.0 C151.0 71.0 151.0 71.0 151.0 71.0 C151.0 71.0 151.0 71.0 151.0 71.0 C151.0 71.0 151.0 71.0 151.0 71.0 C151.0 71.0 151.0 71.0 151.0 71.0 C151.0 71.0 151.0 71.0 151.0 71.0 C151.0 71.0 151.0 71.0 151.0 71.0 C151.0 71.0 151.0 71.0 151.0 71.0 C151.0 71.0 151.0 71.0 151.0 71.0 C151.0 71.0 151.0 71.0 151.0 71.0 C151.0 71.0 151.0 71.0 151.0 71.0 C151.0 71.0 151.0 71.0 151.0 71.0 C151.0 71.0 151.0 71.0 151.0 71.0 C151.0 71.0 151.0 71.0 151.0 71.0 C151.0 71.0 151.0 71.0 151.0 71.0 C151.0 71.0 151.0 71.0 151.0 71.0 C151.0 71.0 151.0 71.0 151.0 71.0 C151.0 71.0 151.0 71.0 151.0 71.0 C151.0 71.0 151.0 71.0 151.0 71.0 C151.0 71.0 151.0 71.0 151.0 71.0 C151.0 71.0 151.0 71.0 151.0 71.0 C151.0 71.0 151.0 71.0 151.0 71.0 C151.0 71.0 151.0 71.0 151.0 71.0 C151.0 71.0 151.0 71.0 151.0 71.0 C151.0 71.0 151.0 71.0 151.0 71.0 C151.0 71.0 151.0 71.0 151.0 71.0 C151.0 71.0 151.0 71.0 151.0 71.0 C151.0 71.0 151.0 71.0 151.0 71.0 C151.0 71.0 151.0 71.0 151.0 71.0 C151.0 71.0 151.0 71.0 151.0 71.0 C151.0 71.0 151.0 71.0 151.0 71.0 C151.0 71.0 151.0 71.0 151.0 71.0 C151.0 71.0 151.0 71.0 151.0 71.0 C151.0 71.0 151.0 71.0 151.0 71.0 C151.0 71.0 151.0 71.0 151.0 71.0 C151.0 71.0 151.0 71.0 151.0 71.0 C151.0 71.0 151.0 71.0 151.0 71.0 C151.0 71.0 151.0 71.0 151.0 71.0 C151.0 71.0 151.0 71.0 151.0 71.0 C151.0 71.0 151.0 71.0 151.0 71.0 C151.0 71.0 151.0 71.0 151.0 71.0 C151.0 71.0 151.0 71.0 151.0 71.0 C151.0 71.0 151.0 71.0 151.0 71.0 C151.0 71.0 151.0 71.0 151.0 71.0 C151.0 71.0 151.0 71.0 151.0 71.0 C151.0 71.0 151.0 71.0 151.0 71.0 C151.0 71.0 151.0 71.0 151.0 71.0 C151.0 71.0 151.0 71.0 151.0 71.0 C151.0 71.0 151.0 71.0 151.0 71.0 C151.0 71.0 151.0 71.0 151.0 71.0 C151.0 71.0 151.0 71.0 151.0 71.0 C151.0 71.0 151.0 71.0 151.0 71.0 C151.0 71.0 151.0 71.0 151.0 71.0 C151.0 71.0 151.0 71.0 151.0 71.0 C151.0 71.0 151.0 71.0 151.0 71.0 C151.0 71.0 151.0 71.0 151.0 71.0 C151.0 71.0 151.0 71.0 151.0 71.0 C151.0 71.0 151.0 71.0 151.0 71.0 C151.0 71.0 151.0 71.0 151.0 71.0 C151.0 71.0 151.0 71.0 151.0 71.0 C151.0 71.0 151.0 71.0 151.0 71.0 C151.0 71.0 151.0 71.0 151.0 71.0 C151.0 71.0 151.0 71.0 151.0 71.0 C151.0 71.0 151.0 71.0 151.0 71.0 C151.0 71.0 151.0 71.0 151.0 71.0 C151.0 71.0 151.0 71.0 151.0 71.0 C151.0 71.0 151.0 71.0 151.0 71.0 C151.0 71.0 151.0 71.0 151.0 71.0 C151.0 71.0 151.0 71.0 151.0 71.0 C151.0 71.0 151.0 71.0 151.0 71.0 C151.0 71.0 151.0 71.0 151.0 71.0 C151.0 71.0 151.0 71.0 151.0 71.0 C151.0 71.0 151.0 71.0 151.0 71.0 C151.0 71.0 151.0 71.0 151.0 71.0 C151.0 71.0 151.0 71.0 151.0 71.0 C151.0 71.0 151.0 71.0 151.0 71.0 C151.0 71.0 151.0 71.0 151.0 71.0 C151.0 71.0 151.0 71.0 151.0 71.0 C151.0 71.0 151.0 71.0 151.0 71.0 C151.0 71.0 151.0 71.0 151.0 71.0 C151.0 71.0 151.0 71.0 151.0 71.0 C151.0 71.0 151.0 71.0 151.0 71.0 C151.0 71.0 151.0 71.0 151.0 71.0 C151.0 71.0 151.0 71.0 151.0 71.0 C151.0 71.0 151.0 71.0 151.0 71.0 C151.0 71.0 151.0 71.0 151.0 71.0 C151.0 71.0 151.0 71.0 151.0 71.0 C151.0 71.0 151.0 71.0 151.0 71.0 C151.0 71.0 151.0 71.0 151.0 71.0 C151.0 71.0 151.0 71.0 151.0 71.0 C151.0 71.0 151.0 71.0 151.0 71.0 C151.0 71.0 151.0 71.0 151.0 71.0 C151.0 71.0 151.0 71.0 151.0 71.0 C151.0 71.0 151.0 71.0 151.0 71.0 C151.0 71.0 151.0 71.0 151.0 71.0 C151.0 71.0 151.0 71.0 151.0 71.0 C151.0 71.0 151.0 71.0 151.0 71.0 C151.0 71.0 151.0 71.0 151.0 71.0 C151.0 71.0 151.0 71.0 151.0 71.0 C151.0 71.0 151.0 71.0 151.0 71.0 C151.0 71.0 151.0 71.0 151.0 71.0 C151.0 71.0 151.0 71.0 151.0 71.0 C151.0 71.0 151.0 71.0 151.0 71.0 C151.0 71.0 151.0 71.0 151.0 71.0 C151.0 71.0 151.0 71.0 151.0 71.0 C151.0 71.0 151.0 71.0 151.0 71.0 C151.0 71.0 151.0 71.0 151.0 71.0 C151.0 71.0 151.0 71.0 151.0 71.0 C151.0 71.0 151.0 71.0 151.0 71.0 C151.0 71.0 151.0 71.0 151.0 71.0 C151.0 71.0 151.0 71.0 151.0 71.0 C151.0 71.0 151.0 71.0 151.0 71.0 C151.0 71.0 151.0 71.0 151.0 71.0 C151.0 71.0 151.0 71.0 151.0 71.0 C151.0 71.0 151.0 71.0 151.0 71.0 C151.0 71.0 151.0 71.0 151.0 71.0 C151.0 71.0 151.0 71.0 151.0 71.0 C151.0 71.0 151.0 71.0 151.0 71.0 C151.0 71.0 151.0 71.0 151.0 71.0 C151.0 71.0 151.0 71.0 151.0 71.0 C151.0 71.0 151.0 71.0 151.0 71.0 C151.0 71.0 151.0 71.0 151.0 71.0 C151.0 71.0 151.0 71.0 151.0 71.0 C151.0 71.0 151.0 71.0 151.0 71.0 C151.0 71.0 151.0 71.0 151.0 71.0 C151.0 71.0 151.0 71.0 151.0 71.0 C151.0 71.0 151.0 71.0 151.0 71.0 C151.0 71.0 151.0 71.0 151.0 71.0 C151.0 71.0 151.0 71.0 151.0 71.0 C151.0 71.0 151.0 71.0 151.0 71.0 C151.0 71.0 151.0 71.0 151.0 71.0 C151.0 71.0 151.0 71.0 151.0 71.0 C151.0 71.0 151.0 71.0 151.0 71.0 C151.0 71.0 151.0 71.0 151.0 71.0 C151.0 71.0 151.0 71.0 151.0 71.0 C151.0 71.0 151.0 71.0 151.0 71.0 C151.0 71.0 151.0 71.0 151.0 71.0 C151.0 71.0 151.0 71.0 151.0 71.0 C151.0 71.0 151.0 71.0 151.0 71.0 C151.0 71.0 151.0 71.0 151.0 71.0 C151.0 71.0 151.0 71.0 151.0 71.0 C151.0 71.0 151.0 71.0 151.0 71.0 C151.0 71.0 151.0 71.0 151.0 71.0 C151.0 71.0 151.0 71.0 151.0 71.0 C151.0 71.0 151.0 71.0 151.0 71.0 C151.0 71.0 151.0 71.0 151.0 71.0 C151.0 71.0 151.0 71.0 151.0 71.0 C151.0 71.0 151.0 71.0 151.0 71.0 C151.0 71.0 151.0 71.0 151.0 71.0 C151.0 71.0 151.0 71.0 151.0 71.0 C151.0 71.0 151.0 71.0 151.0 71.0 C151.0 71.0 151.0 71.0 151.0 71.0 C151.0 71.0 151.0 71.0 151.0 71.0 C58.0 136.0 54.0 136.0 49.0 136.0 C35.0 136.0 28.0 134.0 25.0 128.0 C23.0 126.0 23.0 122.0 26.0 118.0 C29.0 111.0 38.0 102.0 50.0 92.0 L53.0 89.0 L50.0 92.0"></path></svg>