<svg xmlns="http://www.w3.org/2000/svg" viewBox="0.0 0.0 200.0 200.0" height="200px" width="200px"><path fill="#ffbb55" fill-opacity="1.0"  filling="0" d="M51.0 100.0 A49.0 49.0 0.0 1 0 149.0 100.0 A49.0 49.0 0.0 1 0 51.0 100.0 L51.0 100.0 Z"></path>
<path fill="#333333" fill-opacity="1.0"  filling="0" d="M100.0 146.0 C87.0 146.0 74.0 141.0 65.0 132.0 C56.0 123.0 50.0 111.0 50.0 99.0 C50.0 87.0 55.0 74.0 64.0 64.0 C73.0 55.0 85.0 49.0 98.0 49.0 C112.0 48.0 125.0 53.0 135.0 63.0 C145.0 72.0 151.0 85.0 151.0 99.0 C151.0 112.0 145.0 125.0 136.0 134.0 C126.0 143.0 114.0 147.0 101.0 146.0 C101.0 146.0 100.0 146.0 100.0 146.0 L100.0 146.0 Z M100.0 51.0 L98.0 51.0 C86.0 52.0 74.0 57.0 66.0 66.0 C57.0 75.0 52.0 87.0 52.0 99.0 C52.0 110.0 58.0 121.0 66.0 130.0 C75.0 139.0 87.0 144.0 100.0 144.0 C113.0 143.0 125.0 139.0 134.0 132.0 C143.0 123.0 148.0 112.0 148.0 99.0 C148.0 86.0 143.0 73.0 134.0 65.0 C125.0 56.0 113.0 51.0 100.0 51.0 L100.0 51.0 Z"></path>
<path fill="#555544" fill-opacity="1.0"  filling="0" d="M51.0 93.0 C51.0 93.0 17.0 112.0 24.0 127.0 C30.0 144.0 65.0 131.0 65.0 131.0 L51.0 93.0 L51.0 93.0 Z"></path>
<path fill="#333333" fill-opacity="1.0"  filling="0" d="M47.0 137.0 C40.0 137.0 34.0 136.0 31.0 134.0 C27.0 132.0 24.0 130.0 22.0 127.0 C21.0 124.0 21.0 121.0 23.0 118.0 C24.0 115.0 26.0 112.0 29.0 109.0 C35.0 102.0 45.0 96.0 50.0 92.0 L52.0 91.0 L67.0 130.0 L65.0 130.0 C65.0 130.0 56.0 135.0 47.0 137.0 L47.0 137.0 Z M50.0 94.0 C45.0 98.0 37.0 104.0 31.0 111.0 C26.0 114.0 23.0 122.0 25.0 127.0 C28.0 131.0 36.0 134.0 47.0 134.0 C52.0 133.0 59.0 131.0 63.0 130.0 L50.0 94.0 L50.0 94.0 Z"></path>
<path fill="#555544" fill-opacity="1.0"  filling="0" d="M149.0 93.0 C149.0 93.0 183.0 112.0 176.0 127.0 C170.0 144.0 135.0 131.0 135.0 131.0 L149.0 93.0 L149.0 93.0 Z"></path>
<path fill="#333333" fill-opacity="1.0"  filling="0" d="M153.0 137.0 C144.0 135.0 135.0 130.0 135.0 130.0 L133.0 130.0 L148.0 91.0 L150.0 92.0 C155.0 96.0 165.0 102.0 171.0 109.0 C174.0 112.0 176.0 115.0 177.0 118.0 C179.0 121.0 179.0 124.0 178.0 127.0 C176.0 130.0 173.0 132.0 169.0 134.0 C166.0 136.0 160.0 137.0 153.0 137.0 L153.0 137.0 Z M137.0 130.0 C141.0 131.0 148.0 133.0 153.0 134.0 C164.0 134.0 172.0 131.0 175.0 127.0 C177.0 122.0 174.0 114.0 169.0 111.0 C163.0 104.0 155.0 98.0 150.0 94.0 L137.0 130.0 L137.0 130.0 Z"></path>
<path fill="#000000" fill-opacity="1.0"  filling="0" d="M54.0 92.0 C54.0 92.0 23.0 58.0 44.0 42.0 C44.0 42.0 44.0 42.0 44.0 42.0 L47.0 28.0 L52.0 42.0 C52.0 42.0 53.0 42.0 53.0 42.0 L64.0 42.0 L53.0 48.0 C53.0 48.0 52.0 48.0 52.0 48.0 L48.0 59.0 L42.0 48.0 C42.0 48.0 42.0 48.0 42.0 48.0 L32.0 42.0 L42.0 40.0 C42.0 40.0 42.0 40.0 42.0 40.0 L47.0 28.0 L52.0 40.0 C52.0 40.0 52.0 40.0 52.0 40.0 L62.0 42.0 L52.0 44.0 C52.0 44.0 52.0 44.0 52.0 44.0 L48.0 58.0 L48.0 44.0 C48.0 44.0 48.0 44.0 48.0 44.0 L56.0 42.0 L48.0 40.0 C48.0 40.0 48.0 40.0 48.0 40.0 L47.0 30.0 L45.0 40.0 C45.0 40.0 45.0 40.0 45.0 40.0 L38.0 42.0 L45.0 44.0 C45.0 44.0 45.0 44.0 45.0 44.0 L48.0 53.0 L51.0 44.0 C51.0 44.0 51.0 44.0 51.0 44.0 L57.0 42.0 L51.0 41.0 C51.0 41.0 51.0 41.0 51.0 41.0 L48.0 34.0 L46.0 41.0 C46.0 41.0 46.0 41.0 46.0 41.0 L40.0 42.0 L46.0 45.0 C46.0 45.0 46.0 45.0 46.0 45.0 L48.0 52.0 L51.0 45.0 C51.0 45.0 51.0 45.0 51.0 45.0 L56.0 42.0 L51.0 43.0 C51.0 43.0 51.0 43.0 51.0 43.0 L48.0 36.0 L47.0 43.0 C47.0 43.0 47.0 43.0 47.0 43.0 L42.0 46.0 L45.0 42.0 C45.0 42.0 45.0 42.0 45.0 42.0 C45.0 42.0 45.0 58.0 46.0 58.0 C46.0 58.0 46.0 58.0 46.0 58.0 L46.0 51.0 L48.0 58.0 C48.0 58.0 48.0 58.0 48.0 58.0 C48.0 58.0 48.0 58.0 48.0 58.0 L51.0 50.0 L52.0 58.0 C52.0 58.0 52.0 58.0 52.0 58.0 C52.0 58.0 52.0 58.0 52.0 58.0 L54.0 52.0 L55.0 58.0 C55.0 58.0 55.0 58.0 55.0 58.0 C56.0 58.0 56.0 58.0 56.0 58.0 L57.0 51.0 L57.0 58.0 C57.0 58.0 57.0 58.0 57.0 58.0 C57.0 58.0 57.0 58.0 57.0 58.0 L59.0 48.0 L59.0 58.0 C59.0 58.0 59.0 58.0 59.0 58.0 C60.0 58.0 60.0 58.0 60.0 58.0 L63.0 48.0 L63.0 58.0 C63.0 58.0 63.0 58.0 63.0 58.0 C63.0 58.0 63.0 58.0 63.0 58.0 L65.0 46.0 L65.0 58.0 C65.0 58.0 65.0 58.0 65.0 58.0 C66.0 58.0 66.0 58.0 66.0 58.0 L68.0 46.0 L68.0 58.0 C68.0 58.0 68.0 58.0 68.0 58.0 C68.0 58.0 68.0 58.0 68.0 58.0 L71.0 47.0 L71.0 58.0 C71.0 58.0 71.0 58.0 71.0 58.0 C72.0 58.0 72.0 58.0 72.0 58.0 L74.0 47.0 L74.0 58.0 C74.0 58.0 74.0 58.0 74.0 58.0 C75.0 58.0 75.0 58.0 75.0 58.0 L76.0 47.0 L76.0 58.0 C76.0 58.0 76.0 58.0 76.0 58.0 C77.0 58.0 77.0 58.0 77.0 58.0 L78.0 47.0 L78.0 58.0 C78.0 58.0 78.0 58.0 78.0 58.0 C79.0 58.0 79.0 58.0 79.0 58.0 L81.0 46.0 L81.0 58.0 C81.0 58.0 81.0 58.0 81.0 58.0 C82.0 58.0 82.0 58.0 82.0 58.0 L83.0 46.0 L83.0 58.0 C83.0 58.0 83.0 58.0 84.0 58.0 C84.0 58.0 84.0 58.0 84.0 58.0 L85.0 46.0 L86.0 58.0 C86.0 58.0 86.0 58.0 86.0 58.0 C87.0 58.0 87.0 58.0 87.0 58.0 L88.0 47.0 L88.0 58.0 C88.0 58.0 89.0 58.0 89.0 58.0 C89.0 58.0 89.0 58.0 89.0 58.0 L90.0 46.0 L91.0 58.0 C91.0 58.0 91.0 58.0 91.0 58.0 C92.0 58.0 92.0 58.0 92.0 58.0 L93.0 47.0 L93.0 58.0 C93.0 58.0 93.0 58.0 94.0 58.0 C94.0 58.0 94.0 58.0 94.0 58.0 L95.0 47.0 L95.0 58.0 C95.0 58.0 95.0 58.0 96.0 58.0 C96.0 58.0 96.0 58.0 96.0 58.0 L97.0 47.0 L98.0 58.0 C98.0 58.0 98.0 58.0 98.0 58.0 C99.0 58.0 99.0 58.0 99.0 58.0 L100.0 47.0 L100.0 58.0 C100.0 58.0 101.0 58.0 101.0 58.0 C102.0 58.0 102.0 58.0 102.0 58.0 L102.0 47.0 L103.0 58.0 C103.0 58.0 103.0 58.0 104.0 58.0 C104.0 58.0 104.0 58.0 104.0 58.0 L104.0 47.0 L105.0 58.0 C105.0 58.0 105.0 58.0 105.0 58.0 C106.0 58.0 106.0 58.0 106.0 58.0 L106.0 47.0 L107.0 58.0 C107.0 58.0 107.0 58.0 108.0 58.0 C108.0 58.0 108.0 58.0 108.0 58.0 L109.0 47.0 L109.0 58.0 C109.0 58.0 109.0 58.0 110.0 58.0 C110.0 58.0 110.0 58.0 110.0 58.0 L111.0 47.0 L112.0 58.0 C112.0 58.0 112.0 58.0 112.0 58.0 C113.0 58.0 113.0 58.0 113.0 58.0 L113.0 47.0 L114.0 58.0 C114.0 58.0 114.0 58.0 115.0 58.0 C115.0 58.0 115.0 58.0 115.0 58.0 L115.0 46.0 L116.0 58.0 C116.0 58.0 116.0 58.0 117.0 58.0 C117.0 58.0 117.0 58.0 117.0 58.0 L118.0 46.0 L118.0 58.0 C118.0 58.0 118.0 58.0 119.0 58.0 C119.0 58.0 119.0 58.0 119.0 58.0 L119.0 46.0 L121.0 58.0 C121.0 58.0 121.0 58.0 122.0 58.0 C122.0 58.0 122.0 58.0 122.0 58.0 L122.0 47.0 L124.0 58.0 C124.0 58.0 124.0 58.0 124.0 58.0 C125.0 58.0 125.0 58.0 125.0 58.0 L124.0 47.0 L126.0 58.0 C126.0 58.0 126.0 58.0 126.0 58.0 C127.0 58.0 127.0 58.0 127.0 58.0 L126.0 47.0 L128.0 58.0 C128.0 58.0 128.0 58.0 128.0 58.0 C129.0 58.0 129.0 58.0 129.0 58.0 L128.0 47.0 L130.0 58.0 C130.0 58.0 130.0 58.0 130.0 58.0 C130.0 58.0 130.0 58.0 130.0 58.0 L129.0 47.0 L132.0 58.0 C132.0 58.0 132.0 58.0 132.0 58.0 C133.0 58.0 133.0 58.0 133.0 58.0 L132.0 46.0 L134.0 58.0 C134.0 58.0 134.0 58.0 135.0 58.0 C135.0 58.0 135.0 58.0 135.0 58.0 L135.0 46.0 L137.0 58.0 C137.0 58.0 137.0 58.0 137.0 58.0 C137.0 58.0 137.0 58.0 137.0 58.0 L137.0 47.0 L139.0 58.0 C139.0 58.0 139.0 58.0 140.0 58.0 C140.0 58.0 140.0 58.0 140.0 58.0 L138.0 46.0 L141.0 58.0 C141.0 58.0 141.0 58.0 142.0 58.0 C142.0 58.0 142.0 58.0 142.0 58.0 L141.0 47.0 L143.0 58.0 C143.0 58.0 143.0 58.0 144.0 58.0 C144.0 58.0 144.0 58.0 144.0 58.0 L143.0 46.0 L145.0 58.0 C145.0 58.0 145.0 58.0 145.0 58.0 C146.0 58.0 146.0 58.0 146.0 58.0 L145.0 47.0 L147.0 58.0 C147.0 58.0 147.0 58.0 148.0 58.0 C148.0 58.0 148.0 58.0 148.0 58.0 L147.0 47.0 L149.0 58.0 C149.0 58.0 149.0 58.0 149.0 58.0 C150.0 58.0 150.0 58.0 150.0 58.0 L149.0 47.0 L151.0 58.0 C151.0 58.0 151.0 58.0 152.0 58.0 C152.0 58.0 152.0 58.0 152.0 58.0 L151.0 47.0 L153.0 58.0 C153.0 58.0 153.0 58.0 154.0 58.0 C154.0 58.0 154.0 58.0 154.0 58.0 L153.0 47.0 L155.0 58.0 C155.0 58.0 155.0 58.0 155.0 58.0 C155.0 58.0 155.0 58.0 155.0 58.0 L154.0 46.0 L157.0 58.0 C157.0 58.0 157.0 58.0 158.0 58.0 C158.0 58.0 158.0 58.0 158.0 58.0 L156.0 47.0 L159.0 58.0 C159.0 58.0 159.0 58.0 159.0 58.0 C160.0 58.0 160.0 58.0 160.0 58.0 L158.0 46.0 L161.0 58.0 C161.0 58.0 161.0 58.0 161.0 58.0 C162.0 58.0 162.0 58.0 162.0 58.0 L160.0 46.0 L163.0 58.0 C163.0 58.0 163.0 58.0 164.0 58.0 C164.0 58.0 164.0 58.0 164.0 58.0 L162.0 47.0 L165.0 58.0 C165.0 58.0 165.0 58.0 166.0 58.0 C166.0 58.0 166.0 58.0 166.0 58.0 L164.0 46.0 L167.0 58.0 C167.0 58.0 167.0 58.0 167.0 58.0 C168.0 58.0 168.0 58.0 168.0 58.0 L166.0 47.0 L169.0 58.0 C169.0 58.0 169.0 58.0 170.0 58.0 C170.0 58.0 170.0 58.0 170.0 58.0 L168.0 46.0 L171.0 58.0 C171.0 58.0 171.0 58.0 171.0 58.0 C171.0 58.0 171.0 58.0 171.0 58.0 L169.0 46.0 L172.0 57.0 C172.0 57.0 172.0 57.0 172.0 57.0 C172.0 57.0 172.0 57.0 172.0 57.0 L169.0 45.0 L173.0 55.0 C173.0 55.0 173.0 55.0 173.0 55.0 C173.0 55.0 173.0 55.0 173.0 55.0 L169.0 43.0 L174.0 54.0 C174.0 54.0 174.0 54.0 174.0 54.0 C174.0 54.0 174.0 54.0 174.0 54.0 L170.0 42.0 L175.0 52.0 C175.0 52.0 175.0 52.0 175.0 52.0 C175.0 52.0 175.0 52.0 175.0 52.0 L171.0 42.0 L177.0 53.0 C177.0 53.0 177.0 53.0 177.0 53.0 C177.0 53.0 177.0 53.0 177.0 53.0 L172.0 42.0 L179.0 53.0 C179.0 53.0 179.0 53.0 179.0 53.0 C179.0 53.0 179.0 53.0 179.0 53.0 L173.0 41.0 L180.0 51.0 C180.0 51.0 180.0 51.0 180.0 51.0 C180.0 51.0 180.0 51.0 180.0 51.0 L173.0 40.0 L181.0 49.0 C181.0 49.0 181.0 49.0 181.0 49.0 C181.0 49.0 181.0 49.0 181.0 49.0 L175.0 39.0 L182.0 48.0 C182.0 48.0 182.0 48.0 182.0 48.0 C182.0 48.0 182.0 48.0 182.0 48.0 L176.0 37.0 L183.0 46.0 C183.0 46.0 183.0 46.0 183.0 46.0 C183.0 46.0 183.0 46.0 183.0 46.0 L177.0 36.0 L184.0 44.0 C184.0 44.0 184.0 44.0 184.0 44.0 C184.0 44.0 184.0 44.0 184.0 44.0 L178.0 35.0 L185.0 42.0 C185.0 42.0 185.0 42.0 185.0 42.0 C185.0 42.0 185.0 42.0 185.0 42.0 L179.0 34.0 L186.0 41.0 C186.0 41.0 186.0 41.0 186.0 41.0 C186.0 41.0 186.0 41.0 186.0 41.0 L180.0 33.0 L187.0 40.0 C187.0 40.0 187.0 40.0 187.0 40.0 C187.0 40.0 187.0 40.0 187.0 40.0 L181.0 32.0 L188.0 39.0 C188.0 39.0 188.0 39.0 188.0 39.0 C188.0 39.0 188.0 39.0 188.0 39.0 L182.0 31.0 L189.0 37.0 C189.0 37.0 189.0 37.0 189.0 37.0 C189.0 37.0 189.0 37.0 189.0 37.0 L183.0 29.0 L190.0 36.0 C190.0 36.0 190.0 36.0 190.0 36.0 C190.0 36.0 190.0 36.0 190.0 36.0 L183.0 28.0 L191.0 35.0 C191.0 35.0 191.0 35.0 191.0 35.0 C191.0 35.0 191.0 35.0 191.0 35.0 L184.0 27.0 L192.0 33.0 C192.0 33.0 192.0 33.0 192.0 33.0 C192.0 33.0 192.0 33.0 192.0 33.0 L185.0 25.0 L193.0 32.0 C193.0 32.0 193.0 32.0 193.0 32.0 C193.0 32.0 193.0 32.0 193.0 32.0 L186.0 23.0 L194.0 30.0 C194.0 30.0 194.0 30.0 194.0 30.0 C194.0 30.0 194.0 30.0 194.0 30.0 L187.0 22.0 L195.0 29.0 C195.0 29.0 195.0 29.0 195.0 29.0 C195.0 29.0 195.0 29.0 195.0 29.0 L188.0 21.0 L196.0 28.0 C196.0 28.0 196.0 28.0 196.0 28.0 C196.0 28.0 196.0 28.0 196.0 28.0 L189.0 20.0 L197.0 26.0 C197.0 26.0 197.0 26.0 197.0 26.0 C197.0 26.0 197.0 26.0 197.0 26.0 L190.0 18.0 L198.0 25.0 C198.0 25.0 198.0 25.0 198.0 25.0 C198.0 25.0 198.0 25.0 198.0 25.0 L191.0 17.0 L199.0 24.0 C199.0 24.0 199.0 24.0 199.0 24.0 C199.0 24.0 199.0 24.0 199.0 24.0 L192.0 16.0 L199.0 23.0 C199.0 23.0 199.0 23.0 199.0 23.0 C199.0 23.0 199.0 23.0 199.0 23.0 L193.0 15.0 L199.0 22.0 C199.0 22.0 199.0 22.0 199.0 22.0 C199.0 22.0 199.0 22.0 199.0 22.0 L192.0 14.0 L199.0 21.0 C199.0 21.0 199.0 21.0 199.0 21.0 C199.0 21.0 199.0 21.0 199.0 21.0 L193.0 14.0 L199.0 20.0 C199.0 20.0 199.0 20.0 199.0 20.0 C199.0 20.0 199.0 20.0 199.0 20.0 L192.0 14.0 L199.0 20.0 C199.0 20.0 199.0 20.0 199.0 20.0 C199.0 20.0 199.0 20.0 199.0 20.0 L192.0 12.0 L199.0 19.0 C199.0 19.0 199.0 19.0 199.0 19.0 C199.0 19.0 199.0 19.0 199.0 19.0 L191.0 11.0 L199.0 18.0 C199.0 18.0 199.0 18.0 199.0 18.0 C199.0 18.0 199.0 18.0 199.0 18.0 L192.0 10.0 L199.0 17.0 C199.0 17.0 199.0 17.0 199.0 17.0 C199.0 17.0 199.0 17.0 199.0 17.0"></path></svg>