<svg xmlns="http://www.w3.org/2000/svg" viewBox="0.0 0.0 200.0 200.0" height="200px" width="200px"><path fill="#ffbb55" fill-opacity="1.0"  filling="0" d="M52.0 100.0 A48.0 48.0 0.0 1 0 148.0 100.0 A48.0 48.0 0.0 1 0 52.0 100.0 L52.0 100.0 Z"></path>
<path fill="#333333" fill-opacity="1.0"  filling="0" d="M100.0 146.0 C87.0 146.0 75.0 141.0 66.0 132.0 C57.0 123.0 51.0 112.0 51.0 100.0 C51.0 88.0 57.0 77.0 66.0 68.0 C75.0 59.0 87.0 54.0 100.0 54.0 C113.0 54.0 125.0 59.0 134.0 68.0 C143.0 77.0 149.0 88.0 149.0 100.0 C149.0 112.0 143.0 123.0 134.0 132.0 C125.0 141.0 113.0 146.0 100.0 146.0 L100.0 146.0 Z M100.0 57.0 C88.0 57.0 77.0 62.0 68.0 70.0 C60.0 79.0 55.0 89.0 55.0 100.0 C55.0 111.0 60.0 121.0 68.0 130.0 C77.0 138.0 88.0 142.0 100.0 142.0 C112.0 142.0 123.0 138.0 132.0 130.0 C140.0 121.0 145.0 111.0 145.0 100.0 C145.0 89.0 140.0 79.0 132.0 70.0 C123.0 62.0 112.0 57.0 100.0 57.0 L100.0 57.0 Z"></path>
<path fill="#665555" fill-opacity="1.0"  filling="0" d="M177.0 67.0 C177.0 82.0 131.0 107.0 100.0 120.0 C69.0 134.0 28.0 139.0 24.0 126.0 C19.0 113.0 53.0 83.0 93.0 67.0 C131.0 51.0 177.0 48.0 177.0 67.0 L177.0 67.0 Z"></path>
<path fill="#333333" fill-opacity="1.0"  filling="0" d="M47.0 137.0 C40.0 137.0 34.0 136.0 30.0 134.0 C26.0 132.0 23.0 129.0 22.0 126.0 C21.0 122.0 22.0 117.0 26.0 112.0 C30.0 107.0 36.0 102.0 43.0 97.0 C58.0 85.0 76.0 75.0 93.0 66.0 C110.0 58.0 129.0 54.0 146.0 54.0 C157.0 54.0 165.0 55.0 170.0 58.0 C175.0 60.0 178.0 63.0 178.0 67.0 C179.0 71.0 176.0 75.0 172.0 80.0 C168.0 84.0 162.0 88.0 155.0 93.0 C140.0 104.0 121.0 114.0 101.0 122.0 C83.0 129.0 62.0 134.0 47.0 137.0 L47.0 137.0 Z M154.0 58.0 C152.0 58.0 149.0 58.0 146.0 58.0 C130.0 59.0 112.0 62.0 94.0 70.0 C77.0 78.0 60.0 88.0 46.0 100.0 C34.0 110.0 24.0 119.0 26.0 125.0 C28.0 131.0 38.0 133.0 54.0 133.0 C67.0 132.0 83.0 127.0 100.0 119.0 C120.0 110.0 138.0 101.0 153.0 90.0 C166.0 79.0 175.0 71.0 174.0 66.0 C173.0 61.0 164.0 58.0 154.0 58.0 L154.0 58.0 Z"></path>
<path fill="#ffffff" fill-opacity="1.0"  filling="0" d="M156.0 71.0 C161.0 78.0 135.0 97.0 105.0 113.0 C74.0 130.0 42.0 135.0 39.0 128.0 C35.0 121.0 60.0 103.0 94.0 87.0 C126.0 65.0 159.0 63.0 156.0 71.0 L156.0 71.0 Z"></path>
<path fill="#333333" fill-opacity="1.0"  filling="0" d="M49.0 133.0 C45.0 133.0 41.0 132.0 39.0 130.0 C37.0 128.0 37.0 126.0 38.0 123.0 C39.0 120.0 41.0 117.0 45.0 114.0 C52.0 107.0 66.0 98.0 82.0 88.0 C83.0 87.0 84.0 86.0 86.0 86.0 C87.0 84.0 88.0 83.0 90.0 83.0 C91.0 81.0 93.0 80.0 94.0 79.0 C96.0 78.0 97.0 78.0 98.0 77.0 C99.0 76.0 100.0 76.0 101.0 75.0 C104.0 73.0 107.0 71.0 110.0 70.0 C114.0 69.0 118.0 68.0 122.0 68.0 C129.0 68.0 135.0 70.0 141.0 73.0 C144.0 75.0 146.0 77.0 148.0 79.0 C150.0 81.0 151.0 83.0 151.0 85.0 C152.0 88.0 150.0 91.0 147.0 93.0 C143.0 98.0 138.0 102.0 132.0 106.0 C124.0 110.0 115.0 115.0 106.0 120.0 C94.0 126.0 82.0 131.0 72.0 133.0 C65.0 133.0 57.0 133.0 49.0 133.0 L49.0 133.0 Z M122.0 71.0 C111.0 71.0 104.0 78.0 100.0 80.0 C99.0 81.0 98.0 82.0 97.0 82.0 C95.0 83.0 94.0 84.0 92.0 85.0 C91.0 86.0 90.0 87.0 88.0 88.0 C87.0 89.0 86.0 90.0 84.0 91.0 C69.0 101.0 55.0 110.0 48.0 117.0 C42.0 121.0 40.0 125.0 41.0 127.0 C43.0 130.0 53.0 130.0 68.0 129.0 C80.0 128.0 93.0 124.0 105.0 117.0 C115.0 112.0 123.0 107.0 131.0 103.0 C142.0 96.0 149.0 89.0 148.0 86.0 C147.0 83.0 144.0 80.0 139.0 77.0 C134.0 73.0 128.0 71.0 122.0 71.0 L122.0 71.0 Z"></path>
<path fill="#ffbb55" fill-opacity="1.0"  filling="0" d="M153.0 122.0 L159.0 146.0 L173.0 150.0 L159.0 158.0 L153.0 171.0 L146.0 158.0 L134.0 150.0 L146.0 146.0 L153.0 122.0 L153.0 122.0 Z"></path>
<path fill="#333333" fill-opacity="1.0"  filling="0" d="M153.0 173.0 C153.0 173.0 152.0 172.0 151.0 171.0 L145.0 159.0 L134.0 152.0 C133.0 152.0 132.0 151.0 132.0 150.0 C132.0 149.0 133.0 148.0 134.0 148.0 L145.0 144.0 L151.0 122.0 C151.0 121.0 152.0 120.0 153.0 120.0 C154.0 120.0 155.0 121.0 155.0 122.0 L161.0 144.0 L174.0 148.0 C175.0 148.0 175.0 149.0 175.0 150.0 C175.0 151.0 175.0 152.0 174.0 152.0 L161.0 159.0 L156.0 171.0 C155.0 172.0 154.0 173.0 153.0 173.0 L153.0 173.0 Z M139.0 150.0 L147.0 156.0 C148.0 157.0 148.0 157.0 148.0 157.0 L153.0 167.0 L157.0 157.0 C157.0 157.0 158.0 157.0 158.0 156.0 L168.0 150.0 L158.0 148.0 C158.0 147.0 157.0 147.0 157.0 146.0 L153.0 131.0 L148.0 146.0 C148.0 147.0 148.0 147.0 147.0 148.0 L139.0 150.0 L139.0 150.0 Z"></path>
<path fill="#ffbb55" fill-opacity="1.0"  filling="0" d="M47.0 28.0 L54.0 40.0 L63.0 42.0 L54.0 50.0 L48.0 59.0 L42.0 50.0 L32.0 42.0 L42.0 40.0 L47.0 28.0 L47.0 28.0 Z"></path>
<path fill="#333333" fill-opacity="1.0"  filling="0" d="M48.0 61.0 C47.0 61.0 46.0 61.0 45.0 60.0 L40.0 50.0 L31.0 44.0 C30.0 43.0 30.0 42.0 30.0 41.0 C30.0 40.0 31.0 39.0 32.0 39.0 L41.0 37.0 L45.0 27.0 C45.0 27.0 46.0 26.0 47.0 26.0 C48.0 26.0 49.0 27.0 49.0 27.0 L54.0 37.0 L64.0 39.0 C65.0 39.0 65.0 40.0 65.0 41.0 C66.0 42.0 65.0 43.0 64.0 44.0 L55.0 50.0 L49.0 60.0 C49.0 61.0 48.0 61.0 48.0 61.0 L48.0 61.0 Z M36.0 42.0 L43.0 47.0 C43.0 48.0 44.0 48.0 44.0 48.0 L48.0 55.0 L52.0 48.0 C52.0 48.0 52.0 48.0 53.0 47.0 L59.0 42.0 L53.0 40.0 C52.0 40.0 52.0 40.0 52.0 39.0 L48.0 33.0 L44.0 39.0 C44.0 40.0 43.0 40.0 43.0 40.0 L36.0 42.0 L36.0 42.0 Z"></path></svg>