<svg xmlns="http://www.w3.org/2000/svg" viewBox="0.0 0.0 200.0 200.0" height="200px" width="200px"><path fill="#ffbb55" fill-opacity="1.0"  filling="0" d="M52.0 100.0 A48.0 48.0 0.0 1 0 148.0 100.0 A48.0 48.0 0.0 1 0 52.0 100.0 L52.0 100.0 Z"></path>
<path fill="#333333" fill-opacity="1.0"  filling="0" d="M100.0 146.0 C87.0 146.0 74.0 141.0 65.0 132.0 C55.0 124.0 50.0 112.0 50.0 100.0 C50.0 87.0 55.0 75.0 65.0 67.0 C74.0 58.0 87.0 53.0 100.0 53.0 C113.0 53.0 126.0 58.0 135.0 67.0 C145.0 75.0 150.0 87.0 150.0 100.0 C150.0 112.0 145.0 124.0 135.0 132.0 C126.0 141.0 113.0 146.0 100.0 146.0 L100.0 146.0 Z M100.0 57.0 C88.0 57.0 77.0 62.0 68.0 70.0 C60.0 78.0 55.0 88.0 55.0 100.0 C55.0 111.0 60.0 122.0 68.0 129.0 C77.0 137.0 88.0 142.0 100.0 142.0 C112.0 142.0 123.0 137.0 132.0 129.0 C140.0 122.0 145.0 111.0 145.0 100.0 C145.0 88.0 140.0 78.0 132.0 70.0 C123.0 62.0 112.0 57.0 100.0 57.0 L100.0 57.0 Z"></path>
<path fill="#555544" fill-opacity="1.0"  filling="0" d="M177.0 67.0 C177.0 82.0 131.0 107.0 116.0 121.0 C98.0 136.0 33.0 142.0 24.0 129.0 C16.0 117.0 54.0 82.0 73.0 67.0 C94.0 52.0 133.0 54.0 157.0 62.0 C168.0 64.0 172.0 64.0 177.0 67.0 L177.0 67.0 Z"></path>
<path fill="#333333" fill-opacity="1.0"  filling="0" d="M47.0 137.0 C38.0 137.0 29.0 136.0 24.0 131.0 C22.0 129.0 21.0 126.0 21.0 122.0 C22.0 116.0 28.0 109.0 37.0 100.0 C48.0 89.0 62.0 76.0 71.0 65.0 C80.0 57.0 93.0 53.0 109.0 53.0 C126.0 54.0 144.0 57.0 157.0 60.0 C169.0 61.0 174.0 62.0 178.0 65.0 L178.0 65.0 L179.0 66.0 C179.0 73.0 172.0 82.0 159.0 93.0 C145.0 103.0 129.0 115.0 118.0 123.0 C110.0 130.0 98.0 136.0 84.0 138.0 C72.0 140.0 59.0 137.0 47.0 137.0 L47.0 137.0 Z M109.0 58.0 C94.0 58.0 82.0 62.0 74.0 69.0 C65.0 79.0 52.0 92.0 41.0 103.0 C32.0 112.0 26.0 118.0 25.0 123.0 C25.0 125.0 26.0 127.0 27.0 128.0 C32.0 134.0 58.0 136.0 83.0 133.0 C97.0 131.0 108.0 126.0 115.0 119.0 C126.0 111.0 143.0 99.0 156.0 89.0 C168.0 80.0 174.0 72.0 174.0 67.0 C172.0 66.0 167.0 66.0 156.0 64.0 C143.0 61.0 126.0 58.0 109.0 58.0 L109.0 58.0 Z"></path>
<path fill="#333333" fill-opacity="1.0"  filling="0" d="M153.0 86.0 C153.0 86.0 153.0 86.0 152.0 86.0 C138.0 82.0 118.0 81.0 100.0 81.0 C82.0 81.0 62.0 82.0 48.0 86.0 C47.0 86.0 45.0 85.0 45.0 84.0 C45.0 82.0 46.0 81.0 47.0 81.0 C61.0 78.0 81.0 76.0 100.0 76.0 C119.0 76.0 139.0 78.0 153.0 81.0 C154.0 81.0 155.0 82.0 155.0 84.0 C155.0 85.0 154.0 86.0 153.0 86.0 L153.0 86.0 Z M56.0 126.0 C53.0 126.0 51.0 126.0 49.0 126.0 C44.0 125.0 41.0 123.0 41.0 119.0 C40.0 115.0 43.0 111.0 49.0 105.0 C56.0 98.0 67.0 90.0 79.0 85.0 C92.0 79.0 106.0 76.0 120.0 76.0 C138.0 76.0 153.0 78.0 153.0 78.0 C155.0 78.0 156.0 79.0 156.0 81.0 C156.0 82.0 155.0 83.0 153.0 83.0 C153.0 83.0 137.0 81.0 120.0 81.0 C107.0 81.0 94.0 84.0 81.0 90.0 C70.0 95.0 59.0 102.0 52.0 109.0 C48.0 113.0 45.0 116.0 45.0 118.0 C45.0 119.0 46.0 121.0 50.0 122.0 C57.0 123.0 77.0 121.0 97.0 114.0 C118.0 108.0 138.0 99.0 148.0 92.0 C149.0 91.0 151.0 92.0 151.0 93.0 C152.0 94.0 152.0 96.0 151.0 96.0 C140.0 104.0 120.0 112.0 98.0 119.0 C85.0 124.0 70.0 126.0 56.0 126.0 L56.0 126.0 Z"></path>
<path fill="#ffbb55" fill-opacity="1.0"  filling="0" d="M153.0 131.0 L160.0 145.0 L173.0 150.0 L160.0 158.0 L154.0 171.0 L146.0 158.0 L134.0 150.0 L146.0 145.0 L153.0 131.0 L153.0 131.0 Z"></path>
<path fill="#333333" fill-opacity="1.0"  filling="0" d="M154.0 173.0 C153.0 173.0 151.0 173.0 151.0 172.0 L145.0 159.0 L133.0 153.0 C132.0 152.0 131.0 151.0 131.0 150.0 C131.0 149.0 132.0 148.0 133.0 147.0 L145.0 143.0 L151.0 131.0 C151.0 130.0 152.0 130.0 153.0 130.0 C155.0 130.0 156.0 130.0 156.0 131.0 L162.0 143.0 L174.0 147.0 C175.0 148.0 175.0 149.0 175.0 150.0 C175.0 151.0 175.0 152.0 174.0 153.0 L162.0 159.0 L156.0 172.0 C155.0 173.0 155.0 173.0 154.0 173.0 L154.0 173.0 Z M138.0 150.0 L148.0 156.0 C148.0 156.0 149.0 157.0 149.0 157.0 L153.0 167.0 L158.0 157.0 C159.0 157.0 159.0 156.0 159.0 156.0 L168.0 150.0 L159.0 147.0 C159.0 147.0 159.0 146.0 158.0 146.0 L153.0 137.0 L148.0 146.0 C149.0 146.0 148.0 147.0 148.0 147.0 L138.0 150.0 L138.0 150.0 Z"></path>
<path fill="#ffbb55" fill-opacity="1.0"  filling="0" d="M47.0 28.0 L54.0 40.0 L63.0 42.0 L54.0 50.0 L48.0 59.0 L42.0 49.0 L32.0 42.0 L42.0 40.0 L47.0 28.0 L47.0 28.0 Z"></path>
<path fill="#333333" fill-opacity="1.0"  filling="0" d="M48.0 61.0 C47.0 61.0 45.0 61.0 45.0 60.0 L40.0 50.0 L31.0 44.0 C30.0 43.0 30.0 42.0 30.0 41.0 C30.0 40.0 31.0 39.0 32.0 39.0 L41.0 37.0 L45.0 27.0 C45.0 27.0 46.0 26.0 47.0 26.0 C48.0 26.0 49.0 27.0 50.0 27.0 L54.0 37.0 L64.0 39.0 C65.0 39.0 65.0 40.0 65.0 41.0 C66.0 42.0 65.0 43.0 64.0 44.0 L55.0 50.0 L50.0 60.0 C49.0 61.0 48.0 61.0 48.0 61.0 L48.0 61.0 Z M36.0 42.0 L43.0 47.0 C43.0 47.0 44.0 48.0 44.0 48.0 L48.0 55.0 L51.0 48.0 C52.0 48.0 52.0 47.0 52.0 47.0 L59.0 42.0 L52.0 40.0 C52.0 40.0 51.0 39.0 51.0 39.0 L48.0 33.0 L44.0 39.0 C44.0 39.0 43.0 40.0 43.0 40.0 L36.0 42.0 L36.0 42.0 Z"></path></svg>