<svg xmlns="http://www.w3.org/2000/svg" viewBox="0.0 0.0 200.0 200.0" height="200px" width="200px"><path fill="#223344" fill-opacity="1.0"  filling="0" d="M121.0 180.0 L79.0 180.0 C79.0 180.0 79.0 180.0 79.0 180.0 L79.0 30.0 C79.0 30.0 79.0 30.0 79.0 30.0 L121.0 30.0 C121.0 30.0 121.0 30.0 121.0 30.0 L121.0 180.0 C121.0 180.0 121.0 180.0 121.0 180.0 L121.0 180.0 Z"></path>
<path fill="#334455" fill-opacity="1.0"  filling="0" d="M108.0 180.0 L91.0 180.0 C91.0 180.0 91.0 180.0 91.0 180.0 L91.0 167.0 C91.0 167.0 91.0 167.0 91.0 167.0 L108.0 167.0 C108.0 167.0 108.0 167.0 108.0 167.0 L108.0 180.0 C108.0 180.0 108.0 180.0 108.0 180.0 L108.0 180.0 Z"></path>
<path fill="#223344" fill-opacity="1.0"  filling="0" d="M118.0 180.0 L91.0 180.0 C91.0 180.0 91.0 180.0 91.0 180.0 L91.0 24.0 C91.0 24.0 91.0 24.0 91.0 24.0 L118.0 24.0 C118.0 24.0 118.0 24.0 118.0 24.0 L118.0 180.0 C118.0 180.0 118.0 180.0 118.0 180.0 L118.0 180.0 Z"></path>
<path fill="#334455" fill-opacity="1.0"  filling="0" d="M118.0 176.0 L91.0 176.0 C91.0 176.0 91.0 176.0 91.0 176.0 L91.0 24.0 C91.0 24.0 91.0 24.0 91.0 24.0 L118.0 24.0 C118.0 24.0 118.0 24.0 118.0 24.0 L118.0 176.0 C118.0 176.0 118.0 176.0 118.0 176.0 L118.0 176.0 Z"></path>
<path fill="#334455" fill-opacity="1.0"  filling="0" d="M32.0 176.0 A24.0 24.0 0.0 1 0 79.0 176.0 A24.0 24.0 0.0 1 0 32.0 176.0 L32.0 176.0 Z"></path>
<path fill="#223344" fill-opacity="1.0"  filling="0" d="M26.0 176.0 A24.0 24.0 0.0 1 0 74.0 176.0 A24.0 24.0 0.0 1 0 26.0 176.0 L26.0 176.0 Z"></path>
<path fill="#334455" fill-opacity="1.0"  filling="0" d="M24.0 176.0 A24.0 24.0 0.0 1 0 72.0 176.0 A24.0 24.0 0.0 1 0 24.0 176.0 L24.0 176.0 Z"></path>
<path fill="#334455" fill-opacity="1.0"  filling="0" d="M128.0 176.0 A24.0 24.0 0.0 1 0 176.0 176.0 A24.0 24.0 0.0 1 0 128.0 176.0 L128.0 176.0 Z"></path>
<path fill="#223344" fill-opacity="1.0"  filling="0" d="M125.0 176.0 A24.0 24.0 0.0 1 0 172.0 176.0 A24.0 24.0 0.0 1 0 125.0 176.0 L125.0 176.0 Z"></path>
<path fill="#334455" fill-opacity="1.0"  filling="0" d="M122.0 176.0 A24.0 24.0 0.0 1 0 170.0 176.0 A24.0 24.0 0.0 1 0 122.0 176.0 L122.0 176.0 Z"></path>
<path fill="#223344" fill-opacity="1.0"  filling="0" d="M114.0 176.0 A24.0 24.0 0.0 1 0 162.0 176.0 A24.0 24.0 0.0 1 0 114.0 176.0 L114.0 176.0 Z"></path>
<path fill="#334455" fill-opacity="1.0"  filling="0" d="M110.0 176.0 A24.0 24.0 0.0 1 0 157.0 176.0 A24.0 24.0 0.0 1 0 110.0 176.0 L110.0 176.0 Z"></path>
<path fill="#223344" fill-opacity="1.0"  filling="0" d="M107.0 176.0 A24.0 24.0 0.0 1 0 154.0 176.0 A24.0 24.0 0.0 1 0 107.0 176.0 L107.0 176.0 Z"></path>
<path fill="#334455" fill-opacity="1.0"  filling="0" d="M104.0 176.0 A24.0 24.0 0.0 1 0 152.0 176.0 A24.0 24.0 0.0 1 0 104.0 176.0 L104.0 176.0 Z"></path>
<path fill="#223344" fill-opacity="1.0"  filling="0" d="M101.0 176.0 A24.0 24.0 0.0 1 0 148.0 176.0 A24.0 24.0 0.0 1 0 101.0 176.0 L101.0 176.0 Z"></path>
<path fill="#334455" fill-opacity="1.0"  filling="0" d="M97.0 176.0 A24.0 24.0 0.0 1 0 130.0 176.0 A24.0 24.0 0.0 1 0 97.0 176.0 L97.0 176.0 Z"></path>
<path fill="#223344" fill-opacity="1.0"  filling="0" d="M93.0 176.0 A24.0 24.0 0.0 1 0 129.0 176.0 A24.0 24.0 0.0 1 0 93.0 176.0 L93.0 176.0 Z"></path>
<path fill="#334455" fill-opacity="1.0"  filling="0" d="M90.0 176.0 A24.0 24.0 0.0 1 0 126.0 176.0 A24.0 24.0 0.0 1 0 90.0 176.0 L90.0 176.0 Z"></path>
<path fill="#223344" fill-opacity="1.0"  filling="0" d="M86.0 176.0 A24.0 24.0 0.0 1 0 116.0 176.0 A24.0 24.0 0.0 1 0 86.0 176.0 L86.0 176.0 Z"></path>
<path fill="#334455" fill-opacity="1.0"  filling="0" d="M82.0 176.0 A24.0 24.0 0.0 1 0 120.0 176.0 A24.0 24.0 0.0 1 0 82.0 176.0 L82.0 176.0 Z"></path>
<path fill="#223344" fill-opacity="1.0"  filling="0" d="M78.0 176.0 A24.0 24.0 0.0 1 0 122.0 176.0 A24.0 24.0 0.0 1 0 78.0 176.0 L78.0 176.0 Z"></path>
<path fill="#334455" fill-opacity="1.0"  filling="0" d="M75.0 176.0 A24.0 24.0 0.0 1 0 122.0 176.0 A24.0 24.0 0.0 1 0 75.0 176.0 L75.0 176.0 Z"></path>
<path fill="#223344" fill-opacity="1.0"  filling="0" d="M72.0 176.0 A24.0 24.0 0.0 1 0 126.0 176.0 A24.0 24.0 0.0 1 0 72.0 176.0 L72.0 176.0 Z"></path>
<path fill="#334455" fill-opacity="1.0"  filling="0" d="M69.0 176.0 A24.0 24.0 0.0 1 0 129.0 176.0 A24.0 24.0 0.0 1 0 69.0 176.0 L69.0 176.0 Z"></path>
<path fill="#223344" fill-opacity="1.0"  filling="0" d="M65.0 176.0 A24.0 24.0 0.0 1 0 133.0 176.0 A24.0 24.0 0.0 1 0 65.0 176.0 L65.0 176.0 Z"></path>
<path fill="#334455" fill-opacity="1.0"  filling="0" d="M62.0 176.0 A24.0 24.0 0.0 1 0 110.0 176.0 A24.0 24.0 0.0 1 0 62.0 176.0 L62.0 176.0 Z"></path>
<path fill="#223344" fill-opacity="1.0"  filling="0" d="M57.0 176.0 A24.0 24.0 0.0 1 0 109.0 176.0 A24.0 24.0 0.0 1 0 57.0 176.0 L57.0 176.0 Z"></path>
<path fill="#334455" fill-opacity="1.0"  filling="0" d="M53.0 176.0 A24.0 24.0 0.0 1 0 100.0 176.0 A24.0 24.0 0.0 1 0 53.0 176.0 L53.0 176.0 Z"></path>
<path fill="#223344" fill-opacity="1.0"  filling="0" d="M49.0 176.0 A24.0 24.0 0.0 1 0 97.0 176.0 A24.0 24.0 0.0 1 0 49.0 176.0 L49.0 176.0 Z"></path>
<path fill="#334455" fill-opacity="1.0"  filling="0" d="M45.0 176.0 A24.0 24.0 0.0 1 0 92.0 176.0 A24.0 24.0 0.0 1 0 45.0 176.0 L45.0 176.0 Z"></path>
<path fill="#334455" fill-opacity="1.0"  filling="0" d="M41.0 176.0 A24.0 24.0 0.0 1 0 89.0 176.0 A24.0 24.0 0.0 1 0 41.0 176.0 L41.0 176.0 Z"></path>
<path fill="#334455" fill-opacity="1.0"  filling="0" d="M38.0 176.0 A24.0 24.0 0.0 1 0 84.0 176.0 A24.0 24.0 0.0 1 0 38.0 176.0 L38.0 176.0 Z"></path>
<path fill="#334455" fill-opacity="1.0"  filling="0" d="M35.0 176.0 A24.0 24.0 0.0 1 0 83.0 176.0 A24.0 24.0 0.0 1 0 35.0 176.0 L35.0 176.0 Z"></path>
<path fill="#334455" fill-opacity="1.0"  filling="0" d="M32.0 176.0 A24.0 24.0 0.0 1 0 79.0 176.0 A24.0 24.0 0.0 1 0 32.0 176.0 L32.0 176.0 Z"></path>
<path fill="#334455" fill-opacity="1.0"  filling="0" d="M28.0 176.0 A24.0 24.0 0.0 1 0 75.0 176.0 A24.0 24.0 0.0 1 0 28.0 176.0 L28.0 176.0 Z"></path>
<path fill="#334455" fill-opacity="1.0"  filling="0" d="M24.0 176.0 A24.0 24.0 0.0 1 0 72.0 176.0 A24.0 24.0 0.0 1 0 24.0 176.0 L24.0 176.0 Z"></path>
<path fill="#334455" fill-opacity="1.0"  filling="0" d="M21.0 176.0 A24.0 24.0 0.0 1 0 69.0 176.0 A24.0 24.0 0.0 1 0 21.0 176.0 L21.0 176.0 Z"></path>
<path fill="#334455" fill-opacity="1.0"  filling="0" d="M18.0 176.0 A24.0 24.0 0.0 1 0 66.0 176.0 A24.0 24.0 0.0 1 0 18.0 176.0 L18.0 176.0 Z"></path>
<path fill="#334455" fill-opacity="1.0"  filling="0" d="M12.0 176.0 A24.0 24.0 0.0 1 0 60.0 176.0 A24.0 24.0 0.0 1 0 12.0 176.0 L12.0 176.0 Z"></path>
<path fill="#334455" fill-opacity="1.0"  filling="0" d="M9.0 176.0 A24.0 24.0 0.0 1 0 57.0 176.0 A24.0 24.0 0.0 1 0 9.0 176.0 L9.0 176.0 Z"></path>
<path fill="#334455" fill-opacity="1.0"  filling="0" d="M4.0 176.0 A24.0 24.0 0.0 1 0 144.0 176.0 A24.0 24.0 0.0 1 0 4.0 176.0 L196.0 176.0 Z"></path>
<path fill="#334455" fill-opacity="1.0"  filling="0" d="M189.0 176.0 A24.0 24.0 0.0 1 0 141.0 176.0 A24.0 24.0 0.0 1 0 189.0 176.0 L189.0 176.0 Z"></path>
<path fill="#334455" fill-opacity="1.0"  filling="0" d="M185.0 176.0 A24.0 24.0 0.0 1 0 137.0 176.0 A24.0 24.0 0.0 1 0 185.0 176.0 L185.0 176.0 Z"></path>
<path fill="#334455" fill-opacity="1.0"  filling="0" d="M182.0 176.0 A24.0 24.0 0.0 1 0 134.0 176.0 A24.0 24.0 0.0 1 0 182.0 176.0 L182.0 176.0 Z"></path>
<path fill="#334455" fill-opacity="1.0"  filling="0" d="M177.0 176.0 A24.0 24.0 0.0 1 0 129.0 176.0 A24.0 24.0 0.0 1 0 177.0 176.0 L177.0 176.0 Z"></path>
<path fill="#334455" fill-opacity="1.0"  filling="0" d="M172.0 176.0 A24.0 24.0 0.0 1 0 125.0 176.0 A24.0 24.0 0.0 1 0 172.0 176.0 L172.0 176.0 Z"></path>
<path fill="#334455" fill-opacity="1.0"  filling="0" d="M168.0 176.0 A24.0 24.0 0.0 1 0 121.0 176.0 A24.0 24.0 0.0 1 0 168.0 176.0 L168.0 176.0 Z"></path>
<path fill="#334455" fill-opacity="1.0"  filling="0" d="M164.0 176.0 A24.0 24.0 0.0 1 0 116.0 176.0 A24.0 24.0 0.0 1 0 164.0 176.0 L164.0 176.0 Z"></path>
<path fill="#334455" fill-opacity="1.0"  filling="0" d="M161.0 176.0 A24.0 24.0 0.0 1 0 112.0 176.0 A24.0 24.0 0.0 1 0 161.0 176.0 L161.0 176.0 Z"></path>
<path fill="#334455" fill-opacity="1.0"  filling="0" d="M157.0 176.0 A24.0 24.0 0.0 1 0 110.0 176.0 A24.0 24.0 0.0 1 0 157.0 176.0 L157.0 176.0 Z"></path>
<path fill="#334455" fill-opacity="1.0"  filling="0" d="M153.0 176.0 A24.0 24.0 0.0 1 0 106.0 176.0 A24.0 24.0 0.0 1 0 153.0 176.0 L153.0 176.0 Z"></path>
<path fill="#334455" fill-opacity="1.0"  filling="0" d="M148.0 176.0 A24.0 24.0 0.0 1 0 104.0 176.0 A24.0 24.0 0.0 1 0 148.0 176.0 L148.0 176.0 Z"></path>
<path fill="#334455" fill-opacity="1.0"  filling="0" d="M145.0 176.0 A24.0 24.0 0.0 1 0 97.0 176.0 A24.0 24.0 0.0 1 0 145.0 176.0 L145.0 176.0 Z"></path>
<path fill="#334455" fill-opacity="1.0"  filling="0" d="M141.0 176.0 A24.0 24.0 0.0 1 0 97.0 176.0 A24.0 24.0 0.0 1 0 141.0 176.0 L141.0 176.0 Z"></path>
<path fill="#334455" fill-opacity="1.0"  filling="0" d="M138.0 176.0 A24.0 24.0 0.0 1 0 90.0 176.0 A24.0 24.0 0.0 1 0 138.0 176.0 L138.0 176.0 Z"></path>
<path fill="#334455" fill-opacity="1.0"  filling="0" d="M135.0 176.0 A24.0 24.0 0.0 1 0 67.0 176.0 A24.0 24.0 0.0 1 0 135.0 176.0 L135.0 176.0 Z"></path>
<path fill="#334455" fill-opacity="1.0"  filling="0" d="M131.0 176.0 A24.0 24.0 0.0 1 0 72.0 176.0 A24.0 24.0 0.0 1 0 131.0 176.0 L131.0 176.0 Z"></path>
<path fill="#334455" fill-opacity="1.0"  filling="0" d="M126.0 176.0 A24.0 24.0 0.0 1 0 75.0 176.0 A24.0 24.0 0.0 1 0 126.0 176.0 L126.0 176.0 Z"></path>
<path fill="#334455" fill-opacity="1.0"  filling="0" d="M122.0 176.0 A24.0 24.0 0.0 1 0 78.0 176.0 A24.0 24.0 0.0 1 0 122.0 176.0 L122.0 176.0 Z"></path>
<path fill="#000000" fill-opacity="1.0"  filling="0" d="M117.0 176.0 A24.0 24.0 0.0 1 0 82.0 176.0"></path></svg>