<svg xmlns="http://www.w3.org/2000/svg" viewBox="0.0 0.0 200.0 200.0" height="200px" width="200px"><path fill="#ffffff" fill-opacity="1.0"  filling="0" d="M121.0 180.0 L79.0 180.0 C79.0 180.0 79.0 180.0 79.0 180.0 L79.0 30.0 C79.0 30.0 79.0 30.0 79.0 30.0 L121.0 30.0 C121.0 30.0 121.0 30.0 121.0 30.0 L121.0 180.0 C121.0 180.0 121.0 180.0 121.0 180.0 L121.0 180.0 Z"></path>
<path fill="#cccccc" fill-opacity="1.0"  filling="0" d="M167.0 180.0 L29.0 180.0 C29.0 180.0 29.0 180.0 29.0 180.0 C29.0 180.0 29.0 180.0 29.0 180.0 L167.0 180.0 C168.0 180.0 168.0 180.0 168.0 180.0 C168.0 180.0 168.0 180.0 167.0 180.0 L167.0 180.0 Z"></path>
<path fill="#223344" fill-opacity="1.0"  filling="0" d="M108.0 180.0 L91.0 180.0 C91.0 180.0 90.0 180.0 90.0 179.0 L90.0 177.0 C90.0 177.0 91.0 176.0 91.0 176.0 L108.0 176.0 C109.0 176.0 109.0 177.0 109.0 177.0 L109.0 179.0 C109.0 180.0 109.0 180.0 108.0 180.0 L108.0 180.0 Z M108.0 175.0 L91.0 175.0 C91.0 175.0 90.0 174.0 90.0 174.0 L90.0 172.0 C90.0 171.0 91.0 171.0 91.0 171.0 L108.0 171.0 C109.0 171.0 109.0 171.0 109.0 172.0 L109.0 174.0 C109.0 174.0 109.0 175.0 108.0 175.0 L108.0 175.0 Z M108.0 170.0 L91.0 170.0 C91.0 170.0 90.0 170.0 90.0 169.0 L90.0 168.0 C90.0 167.0 91.0 167.0 91.0 167.0 L108.0 167.0 C109.0 167.0 109.0 167.0 109.0 168.0 L109.0 169.0 C109.0 170.0 109.0 170.0 108.0 170.0 L108.0 170.0 Z M108.0 165.0 L91.0 165.0 C91.0 165.0 90.0 164.0 90.0 164.0 L90.0 162.0 C90.0 162.0 91.0 161.0 91.0 161.0 L108.0 161.0 C109.0 161.0 109.0 162.0 109.0 162.0 L109.0 164.0 C109.0 164.0 109.0 165.0 108.0 165.0 L108.0 165.0 Z M108.0 159.0 L91.0 159.0 C91.0 159.0 90.0 159.0 90.0 158.0 L90.0 156.0 C90.0 156.0 91.0 155.0 91.0 155.0 L108.0 155.0 C109.0 155.0 109.0 156.0 109.0 156.0 L109.0 158.0 C109.0 159.0 109.0 159.0 108.0 159.0 L108.0 159.0 Z M108.0 152.0 L91.0 152.0 C91.0 152.0 90.0 152.0 90.0 151.0 L90.0 149.0 C90.0 148.0 91.0 148.0 91.0 148.0 L108.0 148.0 C109.0 148.0 109.0 148.0 109.0 149.0 L109.0 151.0 C109.0 152.0 109.0 152.0 108.0 152.0 L108.0 152.0 Z M108.0 146.0 L91.0 146.0 C91.0 146.0 90.0 146.0 90.0 145.0 L90.0 143.0 C90.0 142.0 91.0 142.0 91.0 142.0 L108.0 142.0 C109.0 142.0 109.0 142.0 109.0 143.0 L109.0 145.0 C109.0 146.0 109.0 146.0 108.0 146.0 L108.0 146.0 Z M108.0 139.0 L91.0 139.0 C91.0 139.0 90.0 138.0 90.0 138.0 L90.0 136.0 C90.0 135.0 91.0 135.0 91.0 135.0 L108.0 135.0 C109.0 135.0 109.0 135.0 109.0 136.0 L109.0 138.0 C109.0 138.0 109.0 139.0 108.0 139.0 L108.0 139.0 Z M108.0 132.0 L91.0 132.0 C91.0 132.0 90.0 132.0 90.0 131.0 L90.0 129.0 C90.0 128.0 91.0 128.0 91.0 128.0 L108.0 128.0 C109.0 128.0 109.0 128.0 109.0 129.0 L109.0 131.0 C109.0 132.0 109.0 132.0 108.0 132.0 L108.0 132.0 Z M108.0 125.0 L91.0 125.0 C91.0 125.0 90.0 124.0 90.0 124.0 L90.0 122.0 C90.0 121.0 91.0 121.0 91.0 121.0 L108.0 121.0 C109.0 121.0 109.0 121.0 109.0 122.0 L109.0 124.0 C109.0 124.0 109.0 125.0 108.0 125.0 L108.0 125.0 Z M108.0 119.0 L91.0 119.0 C91.0 119.0 90.0 118.0 90.0 118.0 L90.0 116.0 C90.0 115.0 91.0 115.0 91.0 115.0 L108.0 115.0 C109.0 115.0 109.0 115.0 109.0 116.0 L109.0 118.0 C109.0 118.0 109.0 119.0 108.0 119.0 L108.0 119.0 Z M108.0 112.0 L91.0 112.0 C91.0 112.0 90.0 111.0 90.0 111.0 L90.0 109.0 C90.0 108.0 91.0 108.0 91.0 108.0 L108.0 108.0 C109.0 108.0 109.0 108.0 109.0 109.0 L109.0 111.0 C109.0 111.0 109.0 112.0 108.0 112.0 L108.0 112.0 Z M108.0 105.0 L91.0 105.0 C91.0 105.0 90.0 104.0 90.0 103.0 L90.0 101.0 C90.0 100.0 91.0 100.0 91.0 100.0 L108.0 100.0 C109.0 100.0 109.0 100.0 109.0 101.0 L109.0 103.0 C109.0 104.0 109.0 105.0 108.0 105.0 L108.0 105.0 Z M108.0 97.0 L91.0 97.0 C91.0 97.0 90.0 97.0 90.0 96.0 L90.0 94.0 C90.0 93.0 91.0 93.0 91.0 93.0 L108.0 93.0 C109.0 93.0 109.0 93.0 109.0 94.0 L109.0 96.0 C109.0 97.0 109.0 97.0 108.0 97.0 L108.0 97.0 Z M108.0 90.0 L91.0 90.0 C91.0 90.0 90.0 89.0 90.0 89.0 L90.0 87.0 C90.0 86.0 91.0 86.0 91.0 86.0 L108.0 86.0 C109.0 86.0 109.0 86.0 109.0 87.0 L109.0 89.0 C109.0 89.0 109.0 90.0 108.0 90.0 L108.0 90.0 Z M108.0 83.0 L91.0 83.0 C91.0 83.0 90.0 83.0 90.0 82.0 L90.0 80.0 C90.0 79.0 91.0 79.0 91.0 79.0 L108.0 79.0 C109.0 79.0 109.0 79.0 109.0 80.0 L109.0 82.0 C109.0 83.0 109.0 83.0 108.0 83.0 L108.0 83.0 Z M108.0 76.0 L91.0 76.0 C91.0 76.0 90.0 76.0 90.0 75.0 L90.0 73.0 C90.0 72.0 91.0 72.0 91.0 72.0 L108.0 72.0 C109.0 72.0 109.0 72.0 109.0 73.0 L109.0 75.0 C109.0 76.0 109.0 76.0 108.0 76.0 L108.0 76.0 Z M108.0 70.0 L91.0 70.0 C91.0 70.0 90.0 69.0 90.0 69.0 L90.0 67.0 C90.0 66.0 91.0 66.0 91.0 66.0 L108.0 66.0 C109.0 66.0 109.0 66.0 109.0 67.0 L109.0 69.0 C109.0 69.0 109.0 70.0 108.0 70.0 L108.0 70.0 Z M108.0 64.0 L91.0 64.0 C91.0 64.0 90.0 64.0 90.0 63.0 L90.0 61.0 C90.0 60.0 91.0 60.0 91.0 60.0 L108.0 60.0 C109.0 60.0 109.0 60.0 109.0 61.0 L109.0 63.0 C109.0 64.0 109.0 64.0 108.0 64.0 L108.0 64.0 Z M108.0 57.0 L91.0 57.0 C91.0 57.0 90.0 57.0 90.0 56.0 L90.0 54.0 C90.0 53.0 91.0 53.0 91.0 53.0 L108.0 53.0 C109.0 53.0 109.0 53.0 109.0 54.0 L109.0 56.0 C109.0 57.0 109.0 57.0 108.0 57.0 L108.0 57.0 Z M108.0 51.0 L91.0 51.0 C91.0 51.0 90.0 51.0 90.0 50.0 L90.0 48.0 C90.0 47.0 91.0 47.0 91.0 47.0 L108.0 47.0 C109.0 47.0 109.0 47.0 109.0 48.0 L109.0 50.0 C109.0 51.0 109.0 51.0 108.0 51.0 L108.0 51.0 Z M108.0 44.0 L91.0 44.0 C91.0 44.0 90.0 44.0 90.0 43.0 L90.0 41.0 C90.0 41.0 91.0 40.0 91.0 40.0 L108.0 40.0 C109.0 40.0 109.0 41.0 109.0 41.0 L109.0 43.0 C109.0 44.0 109.0 44.0 108.0 44.0 L108.0 44.0 Z M108.0 37.0 L91.0 37.0 C91.0 37.0 90.0 36.0 90.0 36.0 L90.0 34.0 C90.0 33.0 91.0 33.0 91.0 33.0 L108.0 33.0 C109.0 33.0 109.0 33.0 109.0 34.0 L109.0 36.0 C109.0 36.0 109.0 37.0 108.0 37.0 L108.0 37.0 Z M108.0 30.0 L91.0 30.0 C91.0 30.0 90.0 29.0 90.0 29.0 L90.0 27.0 C90.0 26.0 91.0 26.0 91.0 26.0 L108.0 26.0 C109.0 26.0 109.0 26.0 109.0 27.0 L109.0 29.0 C109.0 29.0 109.0 30.0 108.0 30.0 L108.0 30.0 Z M108.0 24.0 L91.0 24.0 C91.0 24.0 90.0 23.0 90.0 23.0 L90.0 21.0 C90.0 20.0 91.0 20.0 91.0 20.0 L108.0 20.0 C109.0 20.0 109.0 20.0 109.0 21.0 L109.0 23.0 C109.0 23.0 109.0 24.0 108.0 24.0 L108.0 24.0 Z M108.0 16.0 L91.0 16.0 C91.0 16.0 90.0 15.0 90.0 15.0 L90.0 13.0 C90.0 12.0 91.0 12.0 91.0 12.0 L108.0 12.0 C109.0 12.0 109.0 12.0 109.0 13.0 L109.0 15.0 C109.0 15.0 109.0 16.0 108.0 16.0 L108.0 16.0 Z M108.0 9.0 L91.0 9.0 C91.0 9.0 90.0 9.0 90.0 8.0 L90.0 6.0 C90.0 6.0 91.0 5.0 91.0 5.0 L108.0 5.0 C109.0 5.0 109.0 6.0 109.0 6.0 L109.0 8.0 C109.0 9.0 109.0 9.0 108.0 9.0 L108.0 9.0 Z M108.0 2.0 L91.0 2.0 C91.0 2.0 90.0 2.0 90.0 1.0 L90.0 0.0 C90.0 0.0 91.0 0.0 91.0 0.0 L108.0 0.0 C109.0 0.0 109.0 0.0 109.0 0.0 L109.0 1.0 C109.0 2.0 109.0 2.0 108.0 2.0 L108.0 2.0 Z M100.0 37.0 C99.0 37.0 98.0 36.0 98.0 35.0 L98.0 13.0 C98.0 11.0 99.0 11.0 100.0 11.0 C101.0 11.0 102.0 11.0 102.0 13.0 L102.0 35.0 C102.0 36.0 101.0 37.0 100.0 37.0 L100.0 37.0 Z"></path>
<path fill="#223344" fill-opacity="1.0"  filling="0" d="M114.0 28.0 C114.0 29.0 113.0 29.0 113.0 29.0 L87.0 29.0 C86.0 29.0 86.0 29.0 86.0 28.0 C86.0 27.0 86.0 27.0 87.0 26.0 L96.0 17.0 C97.0 16.0 97.0 15.0 96.0 14.0 L97.0 14.0 C97.0 12.0 98.0 11.0 99.0 11.0 L100.0 11.0 C102.0 11.0 102.0 12.0 103.0 14.0 L104.0 14.0 C103.0 15.0 103.0 16.0 104.0 17.0 L113.0 26.0 C114.0 27.0 114.0 27.0 114.0 28.0 L114.0 28.0 Z"></path>
<path fill="#223344" fill-opacity="1.0"  filling="0" d="M100.0 50.0 C99.0 50.0 98.0 49.0 98.0 48.0 L96.0 28.0 C96.0 27.0 97.0 26.0 98.0 26.0 L102.0 26.0 C103.0 26.0 103.0 27.0 103.0 28.0 L102.0 48.0 C102.0 49.0 101.0 50.0 100.0 50.0 L100.0 50.0 Z"></path>
<path fill="#223344" fill-opacity="1.0"  filling="0" d="M100.0 51.0 C99.0 51.0 98.0 50.0 98.0 48.0 L96.0 28.0 C96.0 27.0 97.0 26.0 98.0 26.0 L102.0 26.0 C103.0 26.0 103.0 27.0 103.0 28.0 L102.0 48.0 C102.0 50.0 101.0 51.0 100.0 51.0 L100.0 51.0 Z"></path>
<path fill="#223344" fill-opacity="1.0"  filling="0" d="M100.0 51.0 C99.0 51.0 98.0 50.0 98.0 48.0 L96.0 28.0 C96.0 27.0 97.0 26.0 98.0 26.0 L102.0 26.0 C103.0 26.0 103.0 27.0 103.0 28.0 L102.0 48.0 C102.0 50.0 101.0 51.0 100.0 51.0 L100.0 51.0 Z"></path>
<path fill="#223344" fill-opacity="1.0"  filling="0" d="M100.0 51.0 C99.0 51.0 98.0 50.0 98.0 48.0 L96.0 28.0 C96.0 27.0 97.0 26.0 98.0 26.0 L102.0 26.0 C103.0 26.0 103.0 27.0 103.0 28.0 L102.0 48.0 C102.0 50.0 101.0 51.0 100.0 51.0 L100.0 51.0 Z"></path>
<path fill="#223344" fill-opacity="1.0"  filling="0" d="M100.0 51.0 C99.0 51.0 98.0 50.0 98.0 48.0 L96.0 28.0 C96.0 27.0 97.0 26.0 98.0 26.0 L102.0 26.0 C103.0 26.0 103.0 27.0 103.0 28.0 L102.0 48.0 C102.0 50.0 101.0 51.0 100.0 51.0 L100.0 51.0 Z"></path>
<path fill="#223344" fill-opacity="1.0"  filling="0" d="M100.0 51.0 C99.0 51.0 98.0 50.0 98.0 48.0 L96.0 28.0 C96.0 27.0 97.0 26.0 98.0 26.0 L102.0 26.0 C103.0 26.0 103.0 27.0 103.0 28.0 L102.0 48.0 C102.0 50.0 101.0 51.0 100.0 51.0 L100.0 51.0 Z"></path>
<path fill="#223344" fill-opacity="1.0"  filling="0" d="M100.0 51.0 C99.0 51.0 98.0 50.0 98.0 48.0 L96.0 28.0 C96.0 27.0 97.0 26.0 98.0 26.0 L102.0 26.0 C103.0 26.0 103.0 27.0 103.0 28.0 L102.0 48.0 C102.0 50.0 101.0 51.0 100.0 51.0 L100.0 51.0 Z"></path>
<path fill="#223344" fill-opacity="1.0"  filling="0" d="M100.0 51.0 C99.0 51.0 98.0 50.0 98.0 48.0 L96.0 28.0 C96.0 27.0 97.0 26.0 98.0 26.0 L102.0 26.0 C103.0 26.0 103.0 27.0 103.0 28.0 L102.0 48.0 C102.0 50.0 101.0 51.0 100.0 51.0 L100.0 51.0 Z"></path>
<path fill="#223344" fill-opacity="1.0"  filling="0" d="M100.0 51.0 C99.0 51.0 98.0 50.0 98.0 48.0 L96.0 28.0 C96.0 27.0 97.0 26.0 98.0 26.0 L102.0 26.0 C103.0 26.0 103.0 27.0 103.0 28.0 L102.0 48.0 C102.0 50.0 101.0 51.0 100.0 51.0 L100.0 51.0 Z"></path>
<path fill="#223344" fill-opacity="1.0"  filling="0" d="M100.0 51.0 C99.0 51.0 98.0 50.0 98.0 48.0 L96.0 28.0 C96.0 27.0 97.0 26.0 98.0 26.0 L102.0 26.0 C103.0 26.0 103.0 27.0 103.0 28.0 L102.0 48.0 C102.0 50.0 101.0 51.0 100.0 51.0 L100.0 51.0 Z"></path>
<path fill="#000000" fill-opacity="1.0"  filling="0" d="M100.0 51.0 C99.0 51.0 98.0 50.0 98.0 48.0 L96.0 28.0 C96.0 27.0 97.0 26.0 98.0 26.0"></path></svg>