<svg xmlns="http://www.w3.org/2000/svg" viewBox="0.0 0.0 200.0 200.0" height="200px" width="200px"><path fill="#ffffff" fill-opacity="1.0"  filling="0" d="M121.0 180.0 L79.0 180.0 C79.0 180.0 79.0 180.0 79.0 180.0 L79.0 20.0 C79.0 20.0 79.0 20.0 79.0 20.0 L121.0 20.0 C121.0 20.0 121.0 20.0 121.0 180.0 L121.0 180.0 Z"></path>
<path fill="#ffffff" fill-opacity="1.0"  filling="0" d="M119.0 168.0 L81.0 168.0 C80.0 168.0 79.0 167.0 79.0 166.0 L79.0 22.0 C79.0 21.0 80.0 20.0 81.0 20.0 L119.0 20.0 C120.0 20.0 121.0 21.0 121.0 22.0 L121.0 166.0 C121.0 167.0 120.0 168.0 119.0 168.0 L119.0 168.0 Z"></path>
<path fill="#ffffff" fill-opacity="1.0"  filling="0" d="M119.0 168.0 L81.0 168.0 C79.0 168.0 78.0 166.0 78.0 164.0 L78.0 25.0 C78.0 23.0 79.0 22.0 81.0 22.0 L119.0 22.0 C121.0 22.0 122.0 23.0 122.0 25.0 L122.0 164.0 C122.0 166.0 121.0 168.0 119.0 168.0 L119.0 168.0 Z"></path>
<path fill="#ffffff" fill-opacity="1.0"  filling="0" d="M119.0 180.0 L81.0 180.0 C80.0 180.0 79.0 179.0 79.0 178.0 L79.0 34.0 C79.0 33.0 80.0 32.0 81.0 32.0 L119.0 32.0 C120.0 32.0 121.0 33.0 121.0 34.0 L121.0 178.0 C121.0 179.0 120.0 180.0 119.0 180.0 L119.0 180.0 Z"></path>
<path fill="#ffffff" fill-opacity="1.0"  filling="0" d="M119.0 180.0 L81.0 180.0 C79.0 180.0 78.0 178.0 78.0 176.0 L78.0 35.0 C78.0 33.0 79.0 31.0 81.0 31.0 L119.0 31.0 C121.0 31.0 122.0 33.0 122.0 35.0 L122.0 176.0 C122.0 178.0 121.0 180.0 119.0 180.0 L119.0 180.0 Z"></path>
<path fill="#ffffff" fill-opacity="1.0"  filling="0" d="M119.0 180.0 L81.0 180.0 C79.0 180.0 78.0 178.0 78.0 176.0 L78.0 35.0 C78.0 32.0 79.0 31.0 81.0 31.0 L119.0 31.0 C121.0 31.0 122.0 32.0 122.0 35.0 L122.0 176.0 C122.0 178.0 121.0 180.0 119.0 180.0 L119.0 180.0 Z"></path>
<path fill="#ffffff" fill-opacity="1.0"  filling="0" d="M119.0 180.0 L81.0 180.0 C79.0 180.0 78.0 178.0 78.0 176.0 L78.0 35.0 C78.0 32.0 79.0 31.0 81.0 31.0 L119.0 31.0 C121.0 31.0 122.0 32.0 122.0 35.0 L122.0 176.0 C122.0 178.0 121.0 180.0 119.0 180.0 L119.0 180.0 Z"></path>
<path fill="#ffffff" fill-opacity="1.0"  filling="0" d="M119.0 180.0 L81.0 180.0 C79.0 180.0 78.0 178.0 78.0 176.0 L78.0 35.0 C78.0 32.0 79.0 31.0 81.0 31.0 L119.0 31.0 C121.0 31.0 122.0 32.0 122.0 35.0 L122.0 176.0 C122.0 178.0 121.0 180.0 119.0 180.0 L119.0 180.0 Z"></path>
<path fill="#ffffff" fill-opacity="1.0"  filling="0" d="M119.0 180.0 L81.0 180.0 C79.0 180.0 78.0 178.0 78.0 176.0 L78.0 35.0 C78.0 32.0 79.0 31.0 81.0 31.0 L119.0 31.0 C121.0 31.0 122.0 32.0 122.0 35.0 L122.0 176.0 C122.0 178.0 121.0 180.0 119.0 180.0 L119.0 180.0 Z"></path>
<path fill="#ffffff" fill-opacity="1.0"  filling="0" d="M118.0 180.0 L82.0 180.0 C80.0 180.0 78.0 179.0 78.0 177.0 L78.0 34.0 C78.0 32.0 80.0 31.0 82.0 31.0 L118.0 31.0 C120.0 31.0 122.0 32.0 122.0 34.0 L122.0 177.0 C122.0 179.0 120.0 180.0 118.0 180.0 L118.0 180.0 Z"></path>
<path fill="#ffffff" fill-opacity="1.0"  filling="0" d="M118.0 180.0 L82.0 180.0 C80.0 180.0 78.0 179.0 78.0 177.0 L78.0 34.0 C78.0 32.0 80.0 31.0 82.0 31.0 L118.0 31.0 C120.0 31.0 122.0 32.0 122.0 34.0 L122.0 177.0 C122.0 179.0 120.0 180.0 118.0 180.0 L118.0 180.0 Z"></path>
<path fill="#ffffff" fill-opacity="1.0"  filling="0" d="M118.0 180.0 L82.0 180.0 C80.0 180.0 78.0 179.0 78.0 177.0 L78.0 34.0 C78.0 32.0 80.0 31.0 82.0 31.0 L118.0 31.0 C120.0 31.0 122.0 32.0 122.0 34.0 L122.0 177.0 C122.0 179.0 120.0 180.0 118.0 180.0 L118.0 180.0 Z"></path>
<path fill="#ffffff" fill-opacity="1.0"  filling="0" d="M118.0 180.0 L82.0 180.0 C80.0 180.0 78.0 179.0 78.0 177.0 L78.0 34.0 C78.0 32.0 80.0 31.0 82.0 31.0 L118.0 31.0 C120.0 31.0 122.0 32.0 122.0 34.0 L122.0 177.0 C122.0 179.0 120.0 180.0 118.0 180.0 L118.0 180.0 Z"></path>
<path fill="#ffffff" fill-opacity="1.0"  filling="0" d="M118.0 180.0 L82.0 180.0 C80.0 180.0 78.0 179.0 78.0 177.0 L78.0 34.0 C78.0 32.0 80.0 31.0 82.0 31.0 L118.0 31.0 C120.0 31.0 122.0 32.0 122.0 34.0 L122.0 177.0 C122.0 179.0 120.0 180.0 118.0 180.0 L118.0 180.0 Z"></path>
<path fill="#ffffff" fill-opacity="1.0"  filling="0" d="M118.0 180.0 L82.0 180.0 C80.0 180.0 78.0 179.0 78.0 177.0 L78.0 34.0 C78.0 32.0 80.0 31.0 82.0 31.0 L118.0 31.0 C120.0 31.0 122.0 32.0 122.0 34.0 L122.0 177.0 C122.0 179.0 120.0 180.0 118.0 180.0 L118.0 180.0 Z"></path>
<path fill="#ffffff" fill-opacity="1.0"  filling="0" d="M118.0 180.0 L82.0 180.0 C80.0 180.0 78.0 179.0 78.0 177.0 L78.0 34.0 C78.0 32.0 80.0 31.0 82.0 31.0 L118.0 31.0 C120.0 31.0 122.0 32.0 122.0 34.0 L122.0 177.0 C122.0 179.0 120.0 180.0 118.0 180.0 L118.0 180.0 Z"></path>
<path fill="#ffffff" fill-opacity="1.0"  filling="0" d="M118.0 180.0 L82.0 180.0 C80.0 180.0 78.0 179.0 78.0 177.0 L78.0 34.0 C78.0 32.0 80.0 31.0 82.0 31.0 L118.0 31.0 C120.0 31.0 122.0 32.0 122.0 34.0 L122.0 177.0 C122.0 179.0 120.0 180.0 118.0 180.0 L118.0 180.0 Z"></path>
<path fill="#ffffff" fill-opacity="1.0"  filling="0" d="M118.0 180.0 L82.0 180.0 C80.0 180.0 78.0 179.0 78.0 177.0 L78.0 34.0 C78.0 32.0 80.0 31.0 82.0 31.0 L118.0 31.0 C120.0 31.0 122.0 32.0 122.0 34.0 L122.0 177.0 C122.0 179.0 120.0 180.0 118.0 180.0 L118.0 180.0 Z"></path>
<path fill="#ffffff" fill-opacity="1.0"  filling="0" d="M118.0 180.0 L82.0 180.0 C80.0 180.0 78.0 179.0 78.0 177.0 L78.0 34.0 C78.0 32.0 80.0 31.0 82.0 31.0 L118.0 31.0 C120.0 31.0 122.0 32.0 122.0 34.0 L122.0 177.0 C122.0 179.0 120.0 180.0 118.0 180.0 L118.0 180.0 Z"></path>
<path fill="#ffffff" fill-opacity="1.0"  filling="0" d="M118.0 180.0 L82.0 180.0 C80.0 180.0 78.0 179.0 78.0 177.0 L78.0 34.0 C78.0 32.0 80.0 31.0 82.0 31.0 L118.0 31.0 C120.0 31.0 122.0 32.0 122.0 34.0 L122.0 177.0 C122.0 179.0 120.0 180.0 118.0 180.0 L118.0 180.0 Z"></path>
<path fill="#ffffff" fill-opacity="1.0"  filling="0" d="M118.0 180.0 L82.0 180.0 C80.0 180.0 78.0 179.0 78.0 177.0 L78.0 34.0 C78.0 32.0 80.0 31.0 82.0 31.0 L118.0 31.0 C120.0 31.0 122.0 32.0 122.0 34.0 L122.0 177.0 C122.0 179.0 120.0 180.0 118.0 180.0 L118.0 180.0 Z"></path>
<path fill="#ffffff" fill-opacity="1.0"  filling="0" d="M118.0 180.0 L82.0 180.0 C80.0 180.0 78.0 179.0 78.0 177.0 L78.0 34.0 C78.0 32.0 80.0 31.0 82.0 31.0 L118.0 31.0 C120.0 31.0 122.0 32.0 122.0 34.0 L122.0 177.0 C122.0 179.0 120.0 180.0 118.0 180.0 L118.0 180.0 Z"></path>
<path fill="#ffffff" fill-opacity="1.0"  filling="0" d="M118.0 180.0 L82.0 180.0 C80.0 180.0 78.0 179.0 78.0 177.0 L78.0 34.0 C78.0 32.0 80.0 31.0 82.0 31.0 L118.0 31.0 C120.0 31.0 122.0 32.0 122.0 34.0 L122.0 177.0 C122.0 179.0 120.0 180.0 118.0 180.0 L118.0 180.0 Z"></path>
<path fill="#ffffff" fill-opacity="1.0"  filling="0" d="M118.0 180.0 L82.0 180.0 C80.0 180.0 78.0 179.0 78.0 177.0 L78.0 34.0 C78.0 32.0 80.0 31.0 82.0 31.0 L118.0 31.0 C120.0 31.0 122.0 32.0 122.0 34.0 L122.0 177.0 C122.0 179.0 120.0 180.0 118.0 180.0 L118.0 180.0 Z"></path>
<path fill="#ffffff" fill-opacity="1.0"  filling="0" d="M118.0 180.0 L82.0 180.0 C80.0 180.0 78.0 179.0 78.0 177.0 L78.0 34.0 C78.0 32.0 80.0 31.0 82.0 31.0 L118.0 31.0 C120.0 31.0 122.0 32.0 122.0 34.0 L122.0 177.0 C122.0 179.0 120.0 180.0 118.0 180.0 L118.0 180.0 Z"></path>
<path fill="#ffffff" fill-opacity="1.0"  filling="0" d="M118.0 180.0 L82.0 180.0 C80.0 180.0 78.0 179.0 78.0 177.0 L78.0 34.0 C78.0 32.0 80.0 31.0 82.0 31.0 L118.0 31.0 C120.0 31.0 122.0 32.0 122.0 34.0 L122.0 177.0 C122.0 179.0 120.0 180.0 118.0 180.0 L118.0 180.0 Z"></path>
<path fill="#ffffff" fill-opacity="1.0"  filling="0" d="M118.0 180.0 L82.0 180.0 C80.0 180.0 78.0 179.0 78.0 177.0 L78.0 34.0 C78.0 32.0 80.0 31.0 82.0 31.0 L118.0 31.0 C120.0 31.0 122.0 32.0 122.0 34.0 L122.0 177.0 C122.0 179.0 120.0 180.0 118.0 180.0 L118.0 180.0 Z"></path>
<path fill="#ffffff" fill-opacity="1.0"  filling="0" d="M118.0 180.0 L82.0 180.0 C80.0 180.0 78.0 179.0 78.0 177.0 L78.0 34.0 C78.0 32.0 80.0 31.0 82.0 31.0 L118.0 31.0 C120.0 31.0 122.0 32.0 122.0 34.0 L122.0 177.0 C122.0 179.0 120.0 180.0 118.0 180.0 L118.0 180.0 Z"></path>
<path fill="#ffffff" fill-opacity="1.0"  filling="0" d="M118.0 180.0 L82.0 180.0 C80.0 180.0 78.0 179.0 78.0 177.0 L78.0 34.0 C78.0 32.0 80.0 31.0 82.0 31.0 L118.0 31.0 C120.0 31.0 122.0 32.0 122.0 34.0 L122.0 177.0 C122.0 179.0 120.0 180.0 118.0 180.0 L118.0 180.0 Z"></path>
<path fill="#ffffff" fill-opacity="1.0"  filling="0" d="M118.0 180.0 L82.0 180.0 C80.0 180.0 78.0 179.0 78.0 177.0 L78.0 34.0 C78.0 32.0 80.0 31.0 82.0 31.0 L118.0 31.0 C120.0 31.0 122.0 32.0 122.0 34.0 L122.0 177.0 C122.0 179.0 120.0 180.0 118.0 180.0 L118.0 180.0 Z"></path>
<path fill="#ffffff" fill-opacity="1.0"  filling="0" d="M118.0 180.0 L82.0 180.0 C80.0 180.0 78.0 179.0 78.0 177.0 L78.0 34.0 C78.0 32.0 80.0 31.0 82.0 31.0 L118.0 31.0 C120.0 31.0 122.0 32.0 122.0 34.0 L122.0 177.0 C122.0 179.0 120.0 180.0 118.0 180.0 L118.0 180.0 Z"></path>
<path fill="#ffffff" fill-opacity="1.0"  filling="0" d="M118.0 180.0 L82.0 180.0 C80.0 180.0 78.0 179.0 78.0 177.0 L78.0 34.0 C78.0 32.0 80.0 31.0 82.0 31.0 L118.0 31.0 C120.0 31.0 122.0 32.0 122.0 34.0 L122.0 177.0 C122.0 179.0 120.0 180.0 118.0 180.0 L118.0 180.0 Z"></path>
<path fill="#ffffff" fill-opacity="1.0"  filling="0" d="M118.0 180.0 L82.0 180.0 C80.0 180.0 78.0 179.0 78.0 177.0 L78.0 34.0 C78.0 32.0 80.0 31.0 82.0 31.0 L118.0 31.0 C120.0 31.0 122.0 32.0 122.0 34.0 L122.0 177.0 C122.0 179.0 120.0 180.0 118.0 180.0 L118.0 180.0 Z"></path>
<path fill="#ffffff" fill-opacity="1.0"  filling="0" d="M118.0 180.0 L82.0 180.0 C80.0 180.0 78.0 179.0 78.0 177.0 L78.0 34.0 C78.0 32.0 80.0 31.0 82.0 31.0 L118.0 31.0 C120.0 31.0 122.0 32.0 122.0 34.0 L122.0 177.0 C122.0 179.0 120.0 180.0 118.0 180.0 L118.0 180.0 Z"></path>
<path fill="#ffffff" fill-opacity="1.0"  filling="0" d="M118.0 180.0 L82.0 180.0 C80.0 180.0 78.0 179.0 78.0 177.0 L78.0 34.0 C78.0 32.0 80.0 31.0 82.0 31.0 L118.0 31.0 C120.0 31.0 122.0 32.0 122.0 34.0 L122.0 177.0 C122.0 179.0 120.0 180.0 118.0 180.0 L118.0 180.0 Z"></path>
<path fill="#ffffff" fill-opacity="1.0"  filling="0" d="M118.0 180.0 L82.0 180.0 C80.0 180.0 78.0 179.0 78.0 177.0 L78.0 34.0 C78.0 32.0 80.0 31.0 82.0 31.0 L118.0 31.0 C120.0 31.0 122.0 32.0 122.0 34.0 L122.0 177.0 C122.0 179.0 120.0 180.0 118.0 180.0 L118.0 180.0 Z"></path>
<path fill="#ffffff" fill-opacity="1.0"  filling="0" d="M118.0 180.0 L82.0 180.0 C80.0 180.0 78.0 179.0 78.0 177.0 L78.0 34.0 C78.0 32.0 80.0 31.0 82.0 31.0 L118.0 31.0 C120.0 31.0 122.0 32.0 122.0 34.0 L122.0 177.0 C122.0 179.0 120.0 180.0 118.0 180.0 L118.0 180.0 Z"></path>
<path fill="#ffffff" fill-opacity="1.0"  filling="0" d="M118.0 180.0 L82.0 180.0 C80.0 180.0 78.0 179.0 78.0 177.0 L78.0 34.0 C78.0 32.0 80.0 31.0 82.0 31.0 L118.0 31.0 C120.0 31.0 122.0 32.0 122.0 34.0 L122.0 177.0 C122.0 179.0 120.0 180.0 118.0 180.0 L118.0 180.0 Z"></path>
<path fill="#ffffff" fill-opacity="1.0"  filling="0" d="M118.0 180.0 L82.0 180.0 C80.0 180.0 78.0 179.0 78.0 177.0 L78.0 34.0 C78.0 32.0 80.0 31.0 82.0 31.0 L118.0 31.0 C120.0 31.0 122.0 32.0 122.0 34.0 L122.0 177.0 C122.0 179.0 120.0 180.0 118.0 180.0 L118.0 180.0 Z"></path>
<path fill="#ffffff" fill-opacity="1.0"  filling="0" d="M118.0 180.0 L82.0 180.0 C80.0 180.0 78.0 179.0 78.0 177.0 L78.0 34.0 C78.0 32.0 80.0 31.0 82.0 31.0 L118.0 31.0 C120.0 31.0 122.0 32.0 122.0 34.0 L122.0 177.0 C122.0 179.0 120.0 180.0 118.0 180.0 L118.0 180.0 Z"></path>
<path fill="#ffffff" fill-opacity="1.0"  filling="0" d="M118.0 180.0 L82.0 180.0 C80.0 180.0 78.0 179.0 78.0 177.0 L78.0 34.0 C78.0 32.0 80.0 31.0 82.0 31.0 L118.0 31.0 C120.0 31.0 122.0 32.0 122.0 34.0 L122.0 177.0 C122.0 179.0 120.0 180.0 118.0 180.0 L118.0 180.0 Z"></path>
<path fill="#000000" fill-opacity="1.0"  filling="0" d="M118.0 180.0 L82.0 180.0 C80.0 180.0 78.0 179.0 78.0 177.0 L78.0 34.0 C78.0 32.0 80.0 31.0 82.0 31.0 L118.0 31.0 C120.0 31.0 122.0 32.0 122.0 34.0"></path></svg>