<svg xmlns="http://www.w3.org/2000/svg" viewBox="0.0 0.0 200.0 200.0" height="200px" width="200px"><path fill="#ffffff" fill-opacity="1.0"  filling="0" d="M121.0 180.0 L79.0 180.0 C79.0 180.0 79.0 180.0 79.0 180.0 L79.0 20.0 C79.0 20.0 79.0 20.0 79.0 20.0 L121.0 20.0 C121.0 20.0 121.0 20.0 121.0 20.0 L121.0 180.0 C121.0 180.0 121.0 180.0 121.0 180.0 L121.0 180.0 Z"></path>
<path fill="#cccccc" fill-opacity="1.0"  filling="0" d="M167.0 180.0 L29.0 180.0 C29.0 180.0 29.0 180.0 29.0 180.0 C29.0 180.0 29.0 180.0 29.0 180.0 L167.0 180.0 C168.0 180.0 168.0 180.0 168.0 180.0 C168.0 180.0 168.0 180.0 167.0 180.0 L167.0 180.0 Z"></path>
<path fill="#ffffff" fill-opacity="1.0"  filling="0" d="M7.0 7.0 L193.0 7.0 L193.0 193.0 L7.0 193.0 L7.0 7.0 L7.0 7.0 Z"></path>
<path fill="#eeeeee" fill-opacity="1.0"  filling="0" d="M193.0 193.0 L7.0 193.0 L7.0 7.0 L193.0 7.0 L193.0 193.0 L193.0 193.0 Z M8.0 193.0 L192.0 193.0 L192.0 8.0 L8.0 8.0 L8.0 193.0 L8.0 193.0 Z"></path>
<path fill="#000000" fill-opacity="1.0"  filling="0" d="M117.0 131.0 L104.0 131.0 L104.0 20.0 L104.0 20.0 L103.0 131.0 L97.0 131.0 C96.0 131.0 96.0 131.0 96.0 132.0 L96.0 143.0 L94.0 143.0 L94.0 154.0 C94.0 155.0 94.0 155.0 94.0 155.0 C94.0 155.0 94.0 155.0 94.0 155.0 C94.0 155.0 94.0 155.0 94.0 156.0 C94.0 156.0 94.0 156.0 94.0 156.0 C94.0 156.0 94.0 156.0 94.0 156.0 C94.0 156.0 94.0 156.0 94.0 156.0 C94.0 156.0 94.0 156.0 94.0 156.0 C94.0 156.0 94.0 156.0 94.0 156.0 C94.0 156.0 94.0 156.0 94.0 156.0 C94.0 156.0 94.0 156.0 94.0 156.0 C94.0 156.0 94.0 156.0 94.0 156.0 C94.0 156.0 94.0 156.0 94.0 156.0 C94.0 156.0 94.0 156.0 94.0 156.0 C94.0 156.0 94.0 156.0 94.0 156.0 C94.0 156.0 94.0 156.0 94.0 156.0 C94.0 156.0 94.0 156.0 94.0 156.0 C94.0 156.0 94.0 156.0 94.0 156.0 C94.0 156.0 94.0 156.0 94.0 156.0 C94.0 156.0 94.0 156.0 94.0 156.0 C94.0 156.0 94.0 156.0 94.0 156.0 C94.0 156.0 94.0 156.0 94.0 156.0 C94.0 156.0 94.0 156.0 94.0 156.0 C94.0 156.0 94.0 156.0 94.0 156.0 C94.0 156.0 94.0 156.0 94.0 156.0 C94.0 156.0 94.0 156.0 94.0 156.0 C94.0 156.0 94.0 156.0 94.0 156.0 C94.0 156.0 94.0 156.0 94.0 156.0 C94.0 156.0 94.0 156.0 94.0 156.0 C94.0 156.0 94.0 156.0 94.0 156.0 C94.0 156.0 94.0 156.0 94.0 156.0 C94.0 156.0 94.0 156.0 94.0 156.0 C94.0 156.0 94.0 156.0 94.0 156.0 C94.0 156.0 94.0 156.0 94.0 156.0 C94.0 156.0 94.0 156.0 94.0 156.0 C94.0 156.0 94.0 156.0 94.0 156.0 C94.0 156.0 94.0 156.0 94.0 156.0 C94.0 156.0 94.0 156.0 94.0 156.0 C94.0 156.0 94.0 156.0 94.0 156.0 C94.0 156.0 94.0 156.0 94.0 156.0 C94.0 156.0 94.0 156.0 94.0 156.0 C94.0 156.0 94.0 156.0 94.0 156.0 C94.0 156.0 94.0 156.0 94.0 156.0 C94.0 156.0 94.0 156.0 94.0 156.0 C94.0 156.0 94.0 156.0 94.0 156.0 C94.0 156.0 94.0 156.0 94.0 156.0 C94.0 156.0 94.0 156.0 94.0 156.0 C94.0 156.0 94.0 156.0 94.0 156.0 C94.0 156.0 94.0 156.0 94.0 156.0 C94.0 156.0 94.0 156.0 94.0 156.0 C94.0 156.0 94.0 156.0 94.0 156.0 C94.0 156.0 94.0 156.0 94.0 156.0 C94.0 156.0 94.0 156.0 94.0 156.0 C94.0 156.0 94.0 156.0 94.0 156.0 C94.0 156.0 94.0 156.0 94.0 156.0 C94.0 156.0 94.0 156.0 94.0 156.0 C94.0 156.0 94.0 156.0 94.0 156.0 C94.0 156.0 94.0 156.0 94.0 156.0 C94.0 156.0 94.0 156.0 94.0 156.0 C94.0 156.0 94.0 156.0 94.0 156.0 C94.0 156.0 94.0 156.0 94.0 156.0 C94.0 156.0 94.0 156.0 94.0 156.0 C94.0 156.0 94.0 156.0 94.0 156.0 C94.0 156.0 94.0 156.0 94.0 156.0 C94.0 156.0 94.0 156.0 94.0 156.0 C94.0 156.0 94.0 156.0 94.0 156.0 C94.0 156.0 94.0 156.0 94.0 156.0 C94.0 156.0 94.0 156.0 94.0 156.0 C94.0 156.0 94.0 156.0 94.0 156.0 C94.0 156.0 94.0 156.0 94.0 156.0 C94.0 156.0 94.0 156.0 94.0 156.0 C94.0 156.0 94.0 156.0 94.0 156.0 C94.0 156.0 94.0 156.0 94.0 156.0 C94.0 156.0 94.0 156.0 94.0 156.0 C94.0 156.0 94.0 156.0 94.0 156.0 C94.0 156.0 94.0 156.0 94.0 156.0 C94.0 156.0 94.0 156.0 94.0 156.0 C94.0 156.0 94.0 156.0 94.0 156.0 C94.0 156.0 94.0 156.0 94.0 156.0 C94.0 156.0 94.0 156.0 94.0 156.0 C94.0 156.0 94.0 156.0 94.0 156.0 C94.0 156.0 94.0 156.0 94.0 156.0 C94.0 156.0 94.0 156.0 94.0 156.0 C94.0 156.0 94.0 156.0 94.0 156.0 C94.0 156.0 94.0 156.0 94.0 156.0 C94.0 156.0 94.0 156.0 94.0 156.0 C94.0 156.0 94.0 156.0 94.0 156.0 C94.0 156.0 94.0 156.0 94.0 156.0 C94.0 156.0 94.0 156.0 94.0 156.0 C94.0 156.0 94.0 156.0 94.0 156.0 C94.0 156.0 94.0 156.0 94.0 156.0 C94.0 156.0 94.0 156.0 94.0 156.0 C94.0 156.0 94.0 156.0 94.0 156.0 C94.0 156.0 94.0 156.0 94.0 156.0 C94.0 156.0 94.0 156.0 94.0 156.0 C94.0 156.0 94.0 156.0 94.0 156.0 C94.0 156.0 94.0 156.0 94.0 156.0 C94.0 156.0 94.0 156.0 94.0 156.0 C94.0 156.0 94.0 156.0 94.0 156.0 C94.0 156.0 94.0 156.0 94.0 156.0 C94.0 156.0 94.0 156.0 94.0 156.0 C94.0 156.0 94.0 156.0 94.0 156.0 C94.0 156.0 94.0 156.0 94.0 156.0 C94.0 156.0 94.0 156.0 94.0 156.0 C94.0 156.0 94.0 156.0 94.0 156.0 C94.0 156.0 94.0 156.0 94.0 156.0 C94.0 156.0 94.0 156.0 94.0 156.0 C94.0 156.0 94.0 156.0 94.0 156.0 C94.0 156.0 94.0 156.0 94.0 156.0 C94.0 156.0 94.0 156.0 94.0 156.0 C94.0 156.0 94.0 156.0 94.0 156.0 C94.0 156.0 94.0 156.0 94.0 156.0 C94.0 156.0 94.0 156.0 94.0 156.0 C94.0 156.0 94.0 156.0 94.0 156.0 C94.0 156.0 94.0 156.0 94.0 156.0 C94.0 156.0 94.0 156.0 94.0 156.0 C94.0 156.0 94.0 156.0 94.0 156.0 C94.0 156.0 94.0 156.0 94.0 156.0 C94.0 156.0 94.0 156.0 94.0 156.0 C94.0 156.0 94.0 156.0 94.0 156.0 C94.0 156.0 94.0 156.0 94.0 156.0 C94.0 156.0 94.0 156.0 94.0 156.0 C94.0 156.0 94.0 156.0 94.0 156.0 C94.0 156.0 94.0 156.0 94.0 156.0 C94.0 156.0 94.0 156.0 94.0 156.0 C94.0 156.0 94.0 156.0 94.0 156.0 C94.0 156.0 94.0 156.0 94.0 156.0 C94.0 156.0 94.0 156.0 94.0 156.0 C94.0 156.0 94.0 156.0 94.0 156.0 C94.0 156.0 94.0 156.0 94.0 156.0 C94.0 156.0 94.0 156.0 94.0 156.0 C94.0 156.0 94.0 156.0 94.0 156.0 C94.0 156.0 94.0 156.0 94.0 156.0 C94.0 156.0 94.0 156.0 94.0 156.0 C94.0 156.0 94.0 156.0 94.0 156.0 C94.0 156.0 94.0 156.0 94.0 156.0 C94.0 156.0 94.0 156.0 94.0 156.0 C94.0 156.0 94.0 156.0 94.0 156.0 C94.0 156.0 94.0 156.0 94.0 156.0 C94.0 156.0 94.0 156.0 94.0 156.0 C94.0 156.0 94.0 156.0 94.0 156.0 C94.0 156.0 94.0 156.0 94.0 156.0 C94.0 156.0 94.0 156.0 94.0 156.0 C94.0 156.0 94.0 156.0 94.0 156.0 C94.0 156.0 94.0 156.0 94.0 156.0 C94.0 156.0 94.0 156.0 94.0 156.0 C94.0 156.0 94.0 156.0 94.0 156.0 C94.0 156.0 94.0 156.0 94.0 156.0 C94.0 156.0 94.0 156.0 94.0 156.0 C94.0 156.0 94.0 156.0 94.0 156.0 C94.0 156.0 94.0 156.0 94.0 156.0 C94.0 156.0 94.0 156.0 94.0 156.0 C94.0 156.0 94.0 156.0 94.0 156.0 C94.0 156.0 94.0 156.0 94.0 156.0 C94.0 156.0 94.0 156.0 94.0 156.0 C94.0 156.0 94.0 156.0 94.0 156.0 C94.0 156.0 94.0 156.0 94.0 156.0 C94.0 156.0 94.0 156.0 94.0 156.0 C94.0 156.0 94.0 156.0 94.0 156.0 C94.0 156.0 94.0 156.0 94.0 156.0 C94.0 156.0 94.0 156.0 94.0 156.0 C94.0 156.0 94.0 156.0 94.0 156.0 C94.0 156.0 94.0 156.0 94.0 156.0 C94.0 156.0 94.0 156.0 94.0 156.0 C94.0 156.0 94.0 156.0 94.0 156.0 C94.0 156.0 94.0 156.0 94.0 156.0 C94.0 156.0 94.0 156.0 94.0 156.0 C94.0 156.0 94.0 156.0 94.0 156.0 C94.0 156.0 94.0 156.0 94.0 156.0 C72.0 167.0 73.0 152.0 73.0 152.0 C73.0 152.0 73.0 152.0 73.0 152.0 L73.0 127.0 C73.0 126.0 73.0 125.0 74.0 125.0 L75.0 125.0 L75.0 112.0 C75.0 112.0 75.0 112.0 75.0 112.0 L73.0 107.0 L68.0 106.0 C66.0 106.0 64.0 105.0 64.0 102.0 C63.0 100.0 63.0 98.0 64.0 97.0 C65.0 97.0 66.0 97.0 67.0 97.0 L85.0 99.0 C86.0 99.0 87.0 100.0 87.0 102.0 C87.0 103.0 85.0 104.0 84.0 104.0 L77.0 105.0 L79.0 110.0 L122.0 110.0 L120.0 100.0 C120.0 99.0 120.0 98.0 121.0 98.0 L126.0 97.0 C127.0 97.0 128.0 97.0 129.0 98.0 C130.0 98.0 131.0 99.0 131.0 100.0 C131.0 101.0 130.0 102.0 129.0 102.0 C127.0 102.0 126.0 104.0 126.0 105.0 C126.0 107.0 127.0 109.0 129.0 109.0 C130.0 109.0 132.0 109.0 133.0 109.0 C135.0 109.0 137.0 108.0 138.0 107.0 C139.0 106.0 140.0 104.0 140.0 102.0 C140.0 100.0 139.0 98.0 138.0 97.0 C136.0 95.0 134.0 94.0 132.0 94.0 L119.0 93.0 C117.0 93.0 115.0 94.0 114.0 96.0 C114.0 97.0 115.0 98.0 115.0 99.0 C116.0 99.0 117.0 100.0 118.0 100.0 L119.0 100.0 L122.0 110.0 L78.0 110.0 L79.0 104.0 L84.0 103.0 C85.0 103.0 86.0 102.0 86.0 101.0 C86.0 100.0 85.0 98.0 84.0 98.0 L67.0 96.0 C65.0 96.0 63.0 96.0 62.0 98.0 C61.0 100.0 62.0 101.0 63.0 103.0 C64.0 105.0 65.0 106.0 67.0 106.0 L73.0 107.0 L74.0 112.0 C74.0 112.0 74.0 112.0 74.0 112.0 L74.0 125.0 L76.0 125.0 C77.0 125.0 78.0 126.0 78.0 127.0 L78.0 152.0 C78.0 152.0 78.0 152.0 78.0 152.0 C78.0 153.0 79.0 168.0 63.0 177.0 C60.0 178.0 57.0 178.0 55.0 178.0 C53.0 178.0 51.0 178.0 49.0 178.0 C36.0 174.0 28.0 164.0 28.0 150.0 C28.0 135.0 40.0 123.0 55.0 123.0 C60.0 123.0 65.0 124.0 69.0 126.0 L69.0 126.0 C70.0 126.0 70.0 127.0 71.0 128.0 L71.0 152.0 C71.0 153.0 71.0 167.0 62.0 176.0 C59.0 176.0 57.0 176.0 55.0 176.0 C53.0 176.0 51.0 176.0 49.0 176.0 C36.0 173.0 28.0 163.0 28.0 150.0 C28.0 135.0 40.0 123.0 55.0 123.0 C73.0 123.0 86.0 135.0 86.0 150.0 C86.0 165.0 74.0 178.0 59.0 178.0 C59.0 178.0 59.0 178.0 59.0 178.0 C60.0 178.0 62.0 177.0 63.0 177.0 C74.0 177.0 84.0 167.0 86.0 153.0 C86.0 152.0 87.0 151.0 87.0 150.0 C87.0 134.0 74.0 122.0 56.0 122.0 C40.0 122.0 26.0 134.0 26.0 150.0 C26.0 164.0 35.0 176.0 49.0 179.0 C52.0 179.0 54.0 180.0 56.0 180.0 C59.0 180.0 61.0 179.0 64.0 178.0 C78.0 174.0 87.0 162.0 87.0 148.0 C87.0 147.0 87.0 146.0 87.0 145.0 C87.0 132.0 77.0 121.0 63.0 119.0 C61.0 119.0 58.0 119.0 56.0 119.0 C52.0 119.0 49.0 120.0 46.0 120.0 C34.0 125.0 25.0 136.0 25.0 150.0 C25.0 165.0 36.0 178.0 50.0 179.0 C52.0 179.0 54.0 180.0 56.0 180.0 C59.0 180.0 61.0 179.0 64.0 179.0 C77.0 175.0 87.0 164.0 87.0 150.0 C87.0 135.0 75.0 123.0 59.0 123.0 C58.0 123.0 57.0 123.0 56.0 123.0 C40.0 123.0 26.0 135.0 26.0 150.0 C26.0 164.0 36.0 176.0 49.0 179.0 C51.0 179.0 53.0 180.0 55.0 180.0 C59.0 180.0 62.0 179.0 65.0 178.0 C77.0 174.0 87.0 163.0 87.0 148.0 C87.0 147.0 88.0 146.0 88.0 145.0 C88.0 132.0 77.0 121.0 63.0 119.0 C61.0 119.0 59.0 119.0 57.0 119.0 C52.0 119.0 49.0 120.0 46.0 120.0 C34.0 125.0 24.0 136.0 24.0 150.0 C24.0 164.0 35.0 177.0 49.0 179.0 C49.0 179.0 50.0 179.0 50.0 179.0 C52.0 179.0 54.0 180.0 56.0 180.0 C59.0 180.0 62.0 179.0 65.0 178.0 C77.0 174.0 87.0 163.0 87.0 148.0 C87.0 147.0 87.0 147.0 87.0 146.0 C87.0 132.0 75.0 122.0 59.0 122.0 C60.0 122.0 61.0 122.0 62.0 122.0 C77.0 123.0 88.0 134.0 88.0 148.0 C88.0 149.0 88.0 150.0 88.0 151.0 C87.0 164.0 78.0 175.0 65.0 178.0 C63.0 179.0 61.0 179.0 59.0 179.0 C59.0 179.0 59.0 179.0 59.0 179.0 C59.0 179.0 59.0 179.0 59.0 179.0 C59.0 179.0 59.0 179.0 59.0 179.0 C59.0 179.0 59.0 179.0 59.0 179.0 C59.0 179.0 59.0 179.0 59.0 179.0 C59.0 179.0 59.0 179.0 59.0 179.0 C59.0 179.0 59.0 179.0 59.0 179.0 C59.0 179.0 59.0 179.0 59.0 179.0 C59.0 179.0 59.0 179.0 59.0 179.0 C59.0 179.0 59.0 179.0 59.0 179.0 C59.0 179.0 59.0 179.0 59.0 179.0 C59.0 179.0 59.0 179.0 59.0 179.0 C59.0 179.0 59.0 179.0 59.0 179.0 C59.0 179.0 59.0 179.0 59.0 179.0 C59.0 179.0 59.0 179.0 59.0 179.0 C59.0 179.0 59.0 179.0 59.0 179.0 C59.0 179.0 59.0 179.0 59.0 179.0 C59.0 179.0 59.0 179.0 59.0 179.0 C59.0 179.0 59.0 179.0 59.0 179.0 C59.0 179.0 59.0 179.0 59.0 179.0 C59.0 179.0 59.0 179.0 59.0 179.0 C59.0 179.0 59.0 179.0 59.0 179.0 C59.0 179.0 59.0 179.0 59.0 179.0 C59.0 179.0 59.0 179.0 59.0 179.0 C59.0 179.0 59.0 179.0 59.0 179.0 C59.0 179.0 59.0 179.0 59.0 179.0 C59.0 179.0 59.0 179.0 59.0 179.0 C59.0 179.0 59.0 179.0 59.0 179.0 C59.0 179.0 59.0 179.0 59.0 179.0 C59.0 179.0 59.0 179.0 59.0 179.0 C59.0 179.0 59.0 179.0 59.0 179.0 C59.0 179.0 59.0 179.0 59.0 179.0 C59.0 179.0 59.0 179.0 59.0 179.0 C59.0 179.0 59.0 179.0 59.0 179.0 C59.0 179.0 59.0 179.0 59.0 179.0 C59.0 179.0 59.0 179.0 59.0 179.0 C59.0 179.0 59.0 179.0 59.0 179.0 C59.0 179.0 59.0 179.0 59.0 179.0 C59.0 179.0 59.0 179.0 59.0 179.0 C59.0 179.0 59.0 179.0 59.0 179.0 C59.0 179.0 59.0 179.0 59.0 179.0 C59.0 179.0 59.0 179.0 59.0 179.0 C59.0 179.0 59.0 179.0 59.0 179.0 C59.0 179.0 59.0 179.0 59.0 179.0 C59.0 179.0 59.0 179.0 59.0 179.0 C59.0 179.0 59.0 179.0 59.0 179.0 C59.0 179.0 59.0 179.0 59.0 179.0 C59.0 179.0 59.0 179.0 59.0 179.0 C59.0 179.0 59.0 179.0 59.0 179.0 C59.0 179.0 59.0 179.0 59.0 179.0 C59.0 179.0 59.0 179.0 59.0 179.0 C59.0 179.0 59.0 179.0 59.0 179.0 C59.0 179.0 59.0 179.0 59.0 179.0 C59.0 179.0 59.0 179.0 59.0 179.0 C59.0 179.0 59.0 179.0 59.0 179.0 C59.0 179.0 59.0 179.0 59.0 179.0 C59.0 179.0 59.0 179.0 59.0 179.0 C59.0 179.0 59.0 179.0 59.0 179.0 C59.0 179.0 59.0 179.0 59.0 179.0 C59.0 179.0 59.0 179.0 59.0 179.0 C59.0 179.0 59.0 179.0 59.0 179.0 C59.0 179.0 59.0 179.0 59.0 179.0 C59.0 179.0 59.0 179.0 59.0 179.0 C59.0 179.0 59.0 179.0 59.0 179.0 C59.0 179.0 59.0 179.0 59.0 179.0 C59.0 179.0 59.0 179.0 59.0 179.0 C59.0 179.0 59.0 179.0 59.0 179.0 C59.0 179.0 59.0 179.0 59.0 179.0 C59.0 179.0 59.0 179.0 59.0 179.0 C59.0 179.0 59.0 179.0 59.0 179.0 C59.0 179.0 59.0 179.0 59.0 179.0 C59.0 179.0 59.0 179.0 59.0 179.0 C59.0 179.0 59.0 179.0 59.0 179.0 C59.0 179.0 59.0 179.0 59.0 179.0 C59.0 179.0 59.0 179.0 59.0 179.0"></path></svg>