<svg xmlns="http://www.w3.org/2000/svg" viewBox="0.0 0.0 200.0 200.0" height="200px" width="200px"><path fill="#555566" fill-opacity="1.0"  filling="0" d="M37.0 100.0 C37.0 66.0 65.0 37.0 100.0 37.0 C135.0 37.0 163.0 66.0 163.0 100.0 L172.0 100.0 C172.0 60.0 140.0 28.0 100.0 28.0 C60.0 28.0 28.0 60.0 28.0 100.0 L37.0 100.0 L37.0 100.0 Z"></path>
<path fill="#66bbee" fill-opacity="1.0"  filling="0" d="M56.0 106.0 A44.0 44.0 0.0 1 0 144.0 106.0 A44.0 44.0 0.0 1 0 56.0 106.0 L56.0 106.0 Z"></path>
<path fill="#000000" fill-opacity="1.0"  filling="0" d="M75.0 100.0 C76.0 100.0 77.0 100.0 78.0 99.0 C79.0 98.0 80.0 98.0 81.0 98.0 C83.0 98.0 85.0 98.0 87.0 99.0 C88.0 99.0 89.0 100.0 90.0 100.0 C91.0 100.0 92.0 100.0 93.0 100.0 C94.0 100.0 95.0 99.0 96.0 98.0 C97.0 97.0 97.0 96.0 97.0 95.0 C98.0 94.0 98.0 93.0 98.0 92.0 C99.0 91.0 99.0 90.0 100.0 89.0 C101.0 88.0 102.0 87.0 103.0 86.0 C103.0 85.0 103.0 84.0 104.0 83.0 C105.0 82.0 105.0 81.0 106.0 81.0 C107.0 80.0 108.0 79.0 108.0 78.0 C108.0 77.0 108.0 76.0 108.0 75.0 C107.0 74.0 107.0 73.0 108.0 72.0 C109.0 70.0 110.0 68.0 112.0 67.0 C113.0 66.0 115.0 65.0 116.0 66.0 C117.0 68.0 116.0 70.0 115.0 72.0 C114.0 73.0 114.0 74.0 114.0 75.0 C114.0 76.0 114.0 77.0 114.0 78.0 C115.0 79.0 115.0 80.0 116.0 81.0 C116.0 82.0 117.0 83.0 117.0 84.0 C118.0 85.0 119.0 85.0 120.0 85.0 C121.0 85.0 122.0 85.0 123.0 85.0 C124.0 85.0 125.0 85.0 126.0 86.0 C127.0 86.0 128.0 87.0 129.0 88.0 C129.0 89.0 130.0 89.0 130.0 90.0 C130.0 91.0 130.0 92.0 129.0 93.0 C128.0 93.0 127.0 94.0 126.0 94.0 C125.0 94.0 124.0 94.0 123.0 94.0 C122.0 93.0 121.0 93.0 120.0 93.0 C119.0 93.0 118.0 93.0 117.0 93.0 C116.0 93.0 115.0 93.0 114.0 93.0 C113.0 93.0 112.0 93.0 111.0 94.0 C110.0 94.0 109.0 94.0 108.0 95.0 C107.0 95.0 106.0 96.0 105.0 97.0 C104.0 98.0 103.0 99.0 102.0 100.0 C102.0 101.0 102.0 102.0 102.0 103.0 C102.0 104.0 102.0 105.0 102.0 106.0 C102.0 107.0 102.0 108.0 103.0 109.0 C103.0 110.0 104.0 111.0 105.0 111.0 C106.0 111.0 107.0 111.0 108.0 111.0 C109.0 111.0 110.0 111.0 111.0 111.0 C112.0 111.0 113.0 111.0 114.0 111.0 C115.0 111.0 116.0 112.0 117.0 112.0 C118.0 113.0 118.0 114.0 119.0 115.0 C119.0 116.0 119.0 117.0 119.0 118.0 C119.0 119.0 119.0 120.0 119.0 121.0 C119.0 122.0 119.0 123.0 119.0 124.0 C119.0 125.0 118.0 126.0 118.0 127.0 C118.0 128.0 118.0 129.0 118.0 130.0 C118.0 131.0 118.0 132.0 119.0 133.0 C119.0 134.0 120.0 134.0 121.0 135.0 C122.0 135.0 124.0 135.0 125.0 134.0 C126.0 133.0 127.0 132.0 128.0 131.0 C129.0 130.0 130.0 129.0 131.0 128.0 C132.0 127.0 133.0 126.0 133.0 125.0 C134.0 124.0 134.0 123.0 134.0 122.0 C134.0 121.0 134.0 120.0 134.0 119.0 C134.0 118.0 134.0 117.0 134.0 116.0 C134.0 115.0 135.0 114.0 135.0 113.0 C136.0 113.0 137.0 112.0 138.0 111.0 C138.0 110.0 139.0 110.0 139.0 109.0 C139.0 108.0 139.0 107.0 138.0 106.0 C137.0 105.0 136.0 104.0 135.0 103.0 C134.0 102.0 133.0 101.0 133.0 100.0 C134.0 100.0 135.0 100.0 136.0 100.0 C137.0 100.0 138.0 100.0 139.0 100.0 C140.0 100.0 141.0 100.0 142.0 100.0 C143.0 100.0 144.0 100.0 145.0 100.0 C146.0 100.0 147.0 100.0 148.0 100.0 C149.0 100.0 151.0 100.0 152.0 101.0 C153.0 101.0 154.0 102.0 155.0 103.0 C156.0 104.0 157.0 105.0 158.0 106.0 C158.0 107.0 158.0 108.0 158.0 109.0 C158.0 110.0 158.0 111.0 158.0 112.0 C158.0 113.0 158.0 114.0 158.0 115.0 C158.0 116.0 158.0 117.0 158.0 118.0 C158.0 119.0 158.0 120.0 158.0 121.0 C158.0 122.0 158.0 123.0 158.0 124.0 C158.0 125.0 158.0 126.0 158.0 127.0 C158.0 128.0 158.0 129.0 158.0 130.0 C158.0 131.0 158.0 132.0 157.0 133.0 C157.0 134.0 156.0 135.0 155.0 135.0 C154.0 136.0 153.0 136.0 152.0 136.0 C151.0 136.0 150.0 136.0 149.0 136.0 C148.0 136.0 147.0 136.0 146.0 136.0 C145.0 136.0 143.0 136.0 142.0 136.0 C141.0 137.0 140.0 137.0 139.0 137.0 C138.0 138.0 137.0 139.0 136.0 139.0 C135.0 140.0 134.0 141.0 133.0 142.0 C132.0 142.0 131.0 143.0 130.0 144.0 C129.0 145.0 128.0 145.0 127.0 146.0 C126.0 146.0 125.0 147.0 124.0 147.0 C123.0 148.0 122.0 148.0 121.0 149.0 C120.0 149.0 119.0 150.0 118.0 150.0 C117.0 150.0 116.0 151.0 115.0 151.0 C114.0 151.0 113.0 152.0 112.0 152.0 C111.0 152.0 110.0 152.0 109.0 152.0 C108.0 153.0 107.0 153.0 106.0 153.0 C105.0 153.0 104.0 153.0 103.0 153.0 C102.0 153.0 101.0 153.0 100.0 153.0 C99.0 153.0 98.0 153.0 97.0 153.0 C96.0 153.0 95.0 153.0 94.0 153.0 C93.0 153.0 92.0 153.0 91.0 152.0 C90.0 152.0 89.0 152.0 88.0 152.0 C87.0 152.0 86.0 151.0 85.0 151.0 C84.0 151.0 83.0 150.0 82.0 150.0 C81.0 150.0 80.0 149.0 79.0 149.0 C78.0 148.0 77.0 148.0 76.0 147.0 C75.0 147.0 74.0 146.0 73.0 146.0 C72.0 145.0 71.0 145.0 70.0 144.0 C69.0 143.0 68.0 142.0 67.0 142.0 C66.0 141.0 65.0 140.0 64.0 139.0 C63.0 139.0 62.0 138.0 61.0 137.0 C60.0 137.0 59.0 137.0 58.0 136.0 C57.0 136.0 55.0 136.0 54.0 136.0 C53.0 136.0 52.0 136.0 51.0 136.0 C50.0 136.0 49.0 136.0 48.0 136.0 C47.0 136.0 46.0 136.0 45.0 135.0 C44.0 135.0 43.0 134.0 43.0 133.0 C42.0 132.0 42.0 131.0 42.0 130.0 C42.0 129.0 42.0 128.0 42.0 127.0 C42.0 126.0 42.0 125.0 42.0 124.0 C42.0 123.0 42.0 122.0 42.0 121.0 C42.0 120.0 42.0 119.0 42.0 118.0 C42.0 117.0 42.0 116.0 42.0 115.0 C42.0 114.0 42.0 113.0 42.0 112.0 C42.0 111.0 42.0 110.0 42.0 109.0 C42.0 108.0 42.0 107.0 42.0 106.0 C43.0 105.0 44.0 104.0 45.0 103.0 C46.0 102.0 47.0 101.0 48.0 101.0 C49.0 100.0 51.0 100.0 52.0 100.0 C53.0 100.0 54.0 100.0 55.0 100.0 C56.0 100.0 57.0 100.0 58.0 100.0 C59.0 100.0 60.0 100.0 61.0 100.0 C62.0 100.0 63.0 100.0 64.0 100.0 C65.0 100.0 66.0 100.0 67.0 100.0 C66.0 101.0 66.0 102.0 65.0 103.0 C64.0 104.0 63.0 105.0 62.0 106.0 C61.0 107.0 61.0 108.0 61.0 109.0 C61.0 110.0 62.0 110.0 62.0 111.0 C63.0 112.0 64.0 113.0 65.0 113.0 C65.0 114.0 66.0 115.0 66.0 116.0 C66.0 117.0 66.0 118.0 66.0 119.0 C66.0 120.0 66.0 121.0 66.0 122.0 C66.0 123.0 66.0 124.0 67.0 125.0 C67.0 126.0 68.0 127.0 69.0 128.0 C70.0 129.0 71.0 130.0 72.0 131.0 C73.0 132.0 74.0 133.0 75.0 134.0 C76.0 135.0 78.0 135.0 79.0 135.0 C80.0 134.0 81.0 134.0 81.0 133.0 C82.0 132.0 82.0 131.0 82.0 130.0 C82.0 129.0 82.0 128.0 82.0 127.0 C82.0 126.0 81.0 125.0 81.0 124.0 C81.0 123.0 81.0 122.0 81.0 121.0 C81.0 120.0 81.0 119.0 81.0 118.0 C81.0 117.0 81.0 116.0 81.0 115.0 C82.0 114.0 82.0 113.0 83.0 112.0 C84.0 112.0 85.0 111.0 86.0 111.0 C87.0 111.0 88.0 111.0 89.0 111.0 C90.0 111.0 91.0 111.0 92.0 111.0 C93.0 111.0 94.0 111.0 95.0 111.0 C96.0 111.0 97.0 110.0 97.0 109.0 C98.0 108.0 98.0 107.0 98.0 106.0 C98.0 105.0 98.0 104.0 98.0 103.0 C98.0 102.0 98.0 101.0 98.0 100.0 C97.0 99.0 96.0 98.0 95.0 97.0 C94.0 96.0 93.0 95.0 92.0 95.0 C91.0 94.0 90.0 94.0 89.0 94.0 C88.0 93.0 87.0 93.0 86.0 93.0 C85.0 93.0 84.0 93.0 83.0 93.0 C82.0 93.0 81.0 93.0 80.0 93.0 C79.0 93.0 78.0 93.0 77.0 94.0 C76.0 94.0 75.0 94.0 74.0 94.0 C73.0 94.0 72.0 93.0 71.0 93.0 C70.0 92.0 70.0 91.0 70.0 90.0 C70.0 89.0 71.0 89.0 71.0 88.0 C72.0 87.0 73.0 86.0 74.0 86.0 C75.0 85.0 76.0 85.0 77.0 85.0 C78.0 85.0 79.0 85.0 80.0 85.0 C81.0 85.0 82.0 85.0 83.0 85.0 C84.0 84.0 84.0 83.0 84.0 82.0 C85.0 81.0 85.0 80.0 86.0 79.0 C86.0 79.0 87.0 78.0 88.0 78.0 C88.0 77.0 89.0 76.0 89.0 75.0 C90.0 74.0 90.0 73.0 90.0 72.0 C89.0 71.0 89.0 70.0 88.0 69.0 C87.0 68.0 86.0 67.0 85.0 66.0 C85.0 65.0 87.0 66.0 88.0 66.0 C90.0 67.0 91.0 69.0 92.0 71.0 C92.0 72.0 93.0 73.0 93.0 74.0 C93.0 75.0 93.0 76.0 93.0 77.0 C92.0 78.0 92.0 79.0 92.0 80.0 C92.0 81.0 92.0 82.0 92.0 83.0 C91.0 84.0 91.0 85.0 90.0 86.0 C90.0 87.0 89.0 88.0 88.0 88.0 C87.0 88.0 87.0 89.0 86.0 89.0 C85.0 89.0 84.0 89.0 83.0 89.0 C82.0 89.0 81.0 89.0 80.0 90.0 C79.0 90.0 78.0 90.0 77.0 91.0 C77.0 91.0 76.0 92.0 75.0 93.0 C75.0 93.0 74.0 94.0 73.0 95.0 C73.0 96.0 72.0 96.0 71.0 97.0 C70.0 97.0 69.0 97.0 69.0 98.0 C68.0 99.0 68.0 100.0 69.0 101.0 C69.0 102.0 70.0 103.0 71.0 104.0 C71.0 105.0 72.0 106.0 73.0 106.0 C74.0 106.0 75.0 107.0 76.0 107.0 C77.0 107.0 78.0 106.0 79.0 106.0 C80.0 106.0 81.0 106.0 82.0 106.0 C83.0 106.0 84.0 107.0 85.0 107.0 C86.0 108.0 87.0 109.0 88.0 110.0 C89.0 110.0 90.0 111.0 91.0 112.0 C92.0 112.0 93.0 113.0 94.0 113.0 C95.0 114.0 95.0 115.0 96.0 116.0 C97.0 117.0 97.0 118.0 97.0 119.0 C98.0 120.0 97.0 121.0 97.0 122.0 C96.0 123.0 95.0 124.0 95.0 125.0 C94.0 126.0 93.0 127.0 92.0 128.0 C91.0 129.0 90.0 130.0 89.0 131.0 C88.0 132.0 87.0 133.0 86.0 134.0 C86.0 135.0 85.0 136.0 85.0 137.0 C85.0 138.0 85.0 139.0 84.0 140.0 C84.0 141.0 84.0 142.0 84.0 143.0 C84.0 144.0 84.0 145.0 84.0 146.0 C84.0 147.0 84.0 148.0 85.0 149.0 C85.0 150.0 86.0 151.0 87.0 151.0 C88.0 152.0 89.0 152.0 90.0 153.0 C91.0 153.0 92.0 153.0 93.0 154.0 C94.0 154.0 95.0 154.0 96.0 154.0 C97.0 154.0 98.0 154.0 99.0 154.0 C100.0 154.0 100.0 154.0 100.0 154.0 C100.0 154.0 100.0 154.0 100.0 154.0 C100.0 154.0 100.0 154.0 100.0 154.0 C100.0 154.0 100.0 154.0 101.0 154.0 C102.0 154.0 103.0 154.0 104.0 154.0 C105.0 154.0 106.0 154.0 107.0 154.0 C108.0 153.0 109.0 153.0 110.0 153.0 C111.0 152.0 112.0 152.0 113.0 151.0 C114.0 151.0 115.0 150.0 115.0 149.0 C116.0 148.0 116.0 147.0 116.0 146.0 C116.0 145.0 116.0 144.0 116.0 143.0 C116.0 142.0 116.0 141.0 116.0 140.0 C115.0 139.0 115.0 138.0 115.0 137.0 C115.0 136.0 114.0 135.0 114.0 134.0 C113.0 133.0 112.0 132.0 111.0 131.0 C110.0 130.0 109.0 129.0 108.0 128.0 C107.0 127.0 106.0 126.0 105.0 125.0 C105.0 124.0 104.0 123.0 103.0 122.0 C103.0 121.0 102.0 120.0 103.0 119.0 C103.0 118.0 103.0 117.0 104.0 116.0 C105.0 115.0 105.0 114.0 106.0 113.0 C107.0 113.0 108.0 112.0 109.0 112.0 C110.0 111.0 111.0 111.0 112.0 110.0 C113.0 110.0 114.0 109.0 115.0 107.0 C116.0 107.0 117.0 106.0 118.0 106.0 C119.0 106.0 120.0 106.0 121.0 106.0 C122.0 106.0 123.0 107.0 124.0 107.0 C125.0 107.0 126.0 106.0 127.0 106.0 C128.0 106.0 129.0 105.0 129.0 104.0 C130.0 103.0 131.0 102.0 131.0 101.0 C132.0 100.0 132.0 99.0 131.0 98.0 C131.0 97.0 130.0 97.0 129.0 97.0 C128.0 96.0 127.0 96.0 127.0 95.0 C126.0 94.0 125.0 93.0 125.0 93.0 C124.0 92.0 123.0 91.0 123.0 91.0 C122.0 90.0 121.0 90.0 120.0 90.0 C119.0 89.0 118.0 89.0 117.0 89.0 C116.0 89.0 115.0 89.0 114.0 89.0 C113.0 89.0 113.0 88.0 112.0 88.0 C111.0 88.0 110.0 87.0 110.0 86.0 C109.0 85.0 109.0 84.0 108.0 83.0 C108.0 82.0 108.0 81.0 108.0 80.0 C108.0 79.0 108.0 78.0 107.0 77.0 C107.0 76.0 107.0 75.0 107.0 74.0 C107.0 73.0 108.0 72.0 108.0 71.0 C109.0 69.0 110.0 67.0 112.0 66.0 C114.0 66.0 115.0 65.0 116.0 66.0 C114.0 67.0 113.0 68.0 112.0 69.0 C111.0 70.0 111.0 71.0 110.0 72.0 C110.0 73.0 110.0 74.0 111.0 75.0 C111.0 76.0 112.0 77.0 112.0 78.0 C113.0 78.0 114.0 79.0 114.0 79.0 C115.0 80.0 115.0 81.0 116.0 82.0 C116.0 83.0 116.0 84.0 117.0 85.0 C118.0 85.0 118.0 85.0 120.0 85.0 C121.0 85.0 122.0 85.0 123.0 85.0 C124.0 85.0 125.0 85.0 126.0 86.0 C127.0 86.0 128.0 87.0 129.0 88.0 C129.0 89.0 130.0 89.0 130.0 90.0 C130.0 91.0 130.0 92.0 129.0 93.0 C128.0 93.0 127.0 94.0 126.0 94.0 C125.0 94.0 124.0 94.0 123.0 94.0 C122.0 94.0 121.0 93.0 120.0 93.0 C119.0 93.0 118.0 93.0 117.0 93.0 C116.0 93.0 115.0 93.0 114.0 93.0 C113.0 93.0 112.0 94.0 111.0 94.0 C110.0 94.0 109.0 94.0 108.0 95.0 C107.0 95.0 106.0 96.0 105.0 97.0 C104.0 98.0 103.0 99.0 103.0 100.0 C103.0 101.0 102.0 102.0 102.0 103.0 C102.0 104.0 102.0 105.0 102.0 106.0 C102.0 107.0 102.0 108.0 103.0 109.0 C103.0 110.0 104.0 111.0 105.0 111.0 C106.0 111.0 107.0 111.0 108.0 111.0 C109.0 111.0 110.0 111.0 111.0 111.0 C112.0 111.0 113.0 111.0 114.0 111.0 C115.0 111.0 116.0 112.0 117.0 112.0 C118.0 113.0 118.0 114.0 119.0 115.0 C119.0 116.0 119.0 117.0 119.0 118.0 C119.0 119.0 119.0 120.0 119.0 121.0 C119.0 122.0 119.0 123.0 119.0 124.0 C119.0 125.0 118.0 126.0 118.0 127.0 C118.0 128.0 118.0 129.0 118.0 130.0 C118.0 131.0 118.0 132.0 119.0 133.0 C119.0 134.0 120.0 134.0 121.0 135.0 C122.0 135.0 124.0 135.0 125.0 134.0 C126.0 133.0 127.0 132.0 128.0 131.0 C129.0 130.0 130.0 129.0 131.0 128.0 C132.0 127.0 133.0 126.0 133.0 125.0 C134.0 124.0 134.0 123.0 134.0 122.0 C134.0 121.0 134.0 120.0 134.0 119.0 C134.0 118.0 134.0 117.0 134.0 116.0 C134.0 115.0 135.0 114.0 135.0 113.0 C136.0 113.0 137.0 112.0 138.0 111.0 C138.0 110.0 139.0 110.0 139.0 109.0 C139.0 108.0 139.0 107.0 138.0 106.0 C137.0 105.0 136.0 104.0 135.0 103.0 C135.0 102.0 134.0 101.0 133.0 100.0 C134.0 100.0 135.0 100.0 136.0 100.0 C137.0 100.0 138.0 100.0 139.0 100.0 C140.0 100.0 141.0 100.0 142.0 100.0 C143.0 100.0 144.0 100.0 145.0 100.0 C146.0 100.0 147.0 100.0 148.0 100.0 C149.0 100.0 151.0 100.0 152.0 101.0 C153.0 101.0 154.0 102.0 155.0 103.0 C156.0 104.0 157.0 105.0 158.0 106.0 C158.0 107.0 158.0 108.0 158.0 109.0 C158.0 110.0 158.0 111.0 158.0 112.0 C158.0 113.0 158.0 114.0 158.0 115.0 C158.0 116.0 158.0 117.0 158.0 118.0 C158.0 119.0 158.0 120.0 158.0 121.0 C158.0 122.0 158.0 123.0 158.0 124.0 C158.0 125.0 158.0 126.0 158.0 127.0 C158.0 128.0 158.0 129.0 158.0 130.0 C158.0 131.0 158.0 132.0 157.0 133.0 C157.0 134.0 156.0 135.0 155.0 135.0 C154.0 136.0 153.0 136.0 152.0 136.0 C151.0 136.0 150.0 136.0 149.0 136.0 C148.0 136.0 147.0 136.0 146.0 136.0 C145.0 136.0 143.0 136.0 142.0 136.0 C141.0 137.0 140.0 137.0 139.0 137.0 C138.0 138.0 137.0 139.0 136.0 139.0 C135.0 140.0 134.0 141.0 133.0 142.0 C132.0 142.0 131.0 143.0 130.0 144.0 C129.0 145.0 128.0 145.0 127.0 146.0 C126.0 146.0 125.0 147.0 124.0 147.0 C123.0 148.0 122.0 148.0 121.0 149.0 C120.0 149.0 119.0 150.0 118.0 150.0 C117.0 150.0 116.0 151.0 115.0 151.0 C114.0 151.0 113.0 152.0 112.0 152.0 C111.0 152.0 110.0 152.0 109.0 152.0 C108.0 153.0 107.0 153.0 106.0 153.0 C105.0 153.0 104.0 153.0 103.0 153.0 C102.0 153.0 101.0 153.0 100.0 153.0 C99.0 153.0 98.0 153.0 97.0 153.0"></path></svg>