<svg xmlns="http://www.w3.org/2000/svg" viewBox="0.0 0.0 200.0 200.0" height="200px" width="200px"><path fill="#445555" fill-opacity="1.0"  filling="0" d="M37.0 100.0 C37.0 66.0 65.0 37.0 100.0 37.0 C135.0 37.0 163.0 66.0 163.0 100.0 L172.0 100.0 C172.0 60.0 140.0 28.0 100.0 28.0 C60.0 28.0 28.0 60.0 28.0 100.0 L37.0 100.0 L37.0 100.0 Z"></path>
<path fill="#66bbee" fill-opacity="1.0"  filling="0" d="M56.0 106.0 A44.0 44.0 0.0 1 0 144.0 106.0 A44.0 44.0 0.0 1 0 56.0 106.0 L56.0 106.0 Z"></path>
<path fill="#44aa77" fill-opacity="1.0"  filling="0" d="M75.0 100.0 C77.0 98.0 79.0 95.0 81.0 93.0 C82.0 92.0 84.0 91.0 86.0 90.0 C87.0 89.0 89.0 88.0 88.0 87.0 C88.0 86.0 87.0 86.0 87.0 85.0 C87.0 84.0 88.0 83.0 88.0 82.0 C87.0 82.0 85.0 81.0 85.0 80.0 C85.0 79.0 87.0 78.0 88.0 77.0 C90.0 76.0 90.0 74.0 90.0 72.0 C89.0 70.0 87.0 68.0 85.0 65.0 C70.0 70.0 58.0 84.0 57.0 100.0 C58.0 102.0 60.0 104.0 63.0 105.0 C66.0 106.0 68.0 107.0 70.0 109.0 C70.0 110.0 70.0 111.0 69.0 112.0 C69.0 114.0 68.0 116.0 69.0 118.0 C70.0 120.0 72.0 121.0 74.0 122.0 C75.0 123.0 76.0 124.0 77.0 125.0 C78.0 127.0 78.0 129.0 78.0 131.0 C77.0 133.0 77.0 136.0 78.0 138.0 C79.0 140.0 80.0 142.0 82.0 144.0 C83.0 143.0 84.0 142.0 84.0 141.0 C85.0 139.0 85.0 137.0 86.0 135.0 C87.0 134.0 88.0 132.0 89.0 131.0 C91.0 129.0 93.0 127.0 95.0 124.0 C96.0 123.0 97.0 121.0 97.0 120.0 C98.0 118.0 97.0 116.0 95.0 115.0 C94.0 114.0 92.0 114.0 91.0 113.0 C89.0 112.0 87.0 110.0 86.0 108.0 C84.0 107.0 83.0 106.0 81.0 106.0 C80.0 106.0 79.0 106.0 78.0 106.0 C76.0 106.0 75.0 105.0 74.0 104.0 C74.0 103.0 74.0 101.0 75.0 100.0 L75.0 100.0 Z M125.0 100.0 C123.0 98.0 121.0 95.0 119.0 93.0 C118.0 92.0 116.0 91.0 114.0 90.0 C113.0 89.0 111.0 88.0 112.0 87.0 C112.0 86.0 113.0 86.0 113.0 85.0 C113.0 84.0 112.0 83.0 112.0 82.0 C113.0 82.0 115.0 81.0 115.0 80.0 C115.0 79.0 113.0 78.0 112.0 77.0 C110.0 76.0 110.0 74.0 110.0 72.0 C111.0 70.0 113.0 68.0 115.0 65.0 C130.0 70.0 142.0 84.0 143.0 100.0 C142.0 102.0 140.0 104.0 137.0 105.0 C134.0 106.0 132.0 107.0 130.0 109.0 C130.0 110.0 130.0 111.0 131.0 112.0 C131.0 114.0 132.0 116.0 131.0 118.0 C130.0 120.0 128.0 121.0 126.0 122.0 C125.0 123.0 124.0 124.0 123.0 125.0 C122.0 127.0 122.0 129.0 122.0 131.0 C123.0 133.0 123.0 136.0 122.0 138.0 C121.0 140.0 120.0 142.0 118.0 144.0 C117.0 143.0 116.0 142.0 116.0 141.0 C115.0 139.0 115.0 137.0 114.0 135.0 C113.0 134.0 112.0 132.0 111.0 131.0 C109.0 129.0 107.0 127.0 105.0 124.0 C104.0 123.0 103.0 121.0 103.0 120.0 C102.0 118.0 103.0 116.0 105.0 115.0 C106.0 114.0 108.0 114.0 109.0 113.0 C111.0 112.0 113.0 110.0 114.0 108.0 C116.0 107.0 117.0 106.0 119.0 106.0 C120.0 106.0 121.0 106.0 122.0 106.0 C124.0 106.0 125.0 105.0 126.0 104.0 C126.0 103.0 126.0 101.0 125.0 100.0 L125.0 100.0 Z"></path>
<path fill="#44aa77" fill-opacity="1.0"  filling="0" d="M114.0 100.0 C111.0 98.0 108.0 95.0 105.0 93.0 C104.0 92.0 103.0 91.0 102.0 90.0 C101.0 89.0 101.0 88.0 102.0 87.0 C102.0 86.0 103.0 86.0 103.0 85.0 C103.0 84.0 103.0 83.0 104.0 82.0 C102.0 82.0 101.0 81.0 101.0 80.0 C101.0 79.0 102.0 78.0 103.0 77.0 C104.0 76.0 104.0 74.0 104.0 72.0 C103.0 70.0 101.0 68.0 100.0 65.0 C100.0 66.0 99.0 67.0 98.0 68.0 C95.0 70.0 93.0 73.0 93.0 77.0 C93.0 79.0 93.0 81.0 94.0 82.0 C94.0 84.0 95.0 85.0 95.0 87.0 C94.0 88.0 93.0 89.0 91.0 90.0 C90.0 91.0 88.0 92.0 87.0 93.0 C85.0 95.0 83.0 98.0 81.0 100.0 C80.0 101.0 80.0 103.0 80.0 104.0 C80.0 105.0 82.0 106.0 84.0 106.0 C85.0 107.0 87.0 108.0 88.0 109.0 C90.0 110.0 92.0 112.0 94.0 113.0 C95.0 114.0 96.0 115.0 96.0 116.0 C97.0 117.0 98.0 119.0 98.0 120.0 C97.0 122.0 96.0 123.0 95.0 125.0 C95.0 127.0 95.0 129.0 95.0 130.0 C96.0 132.0 97.0 134.0 99.0 136.0 C100.0 135.0 101.0 134.0 102.0 133.0 C104.0 131.0 105.0 129.0 106.0 127.0 C107.0 125.0 107.0 123.0 107.0 122.0 C107.0 120.0 107.0 118.0 106.0 118.0 C107.0 116.0 108.0 115.0 110.0 114.0 C112.0 113.0 113.0 112.0 115.0 111.0 C117.0 111.0 118.0 113.0 119.0 115.0 C119.0 117.0 119.0 119.0 119.0 121.0 C118.0 123.0 118.0 125.0 118.0 127.0 C118.0 129.0 118.0 131.0 119.0 133.0 C119.0 134.0 120.0 135.0 121.0 135.0 C122.0 136.0 123.0 135.0 124.0 135.0 C127.0 133.0 130.0 130.0 132.0 127.0 C133.0 125.0 134.0 123.0 134.0 121.0 C134.0 119.0 134.0 118.0 134.0 117.0 C134.0 116.0 134.0 115.0 134.0 114.0 C135.0 113.0 137.0 112.0 138.0 111.0 C139.0 110.0 139.0 108.0 139.0 107.0 C138.0 106.0 136.0 105.0 135.0 104.0 C133.0 104.0 132.0 103.0 131.0 102.0 C131.0 101.0 131.0 100.0 131.0 99.0 C130.0 97.0 129.0 96.0 128.0 94.0 C128.0 93.0 129.0 92.0 129.0 91.0 C128.0 90.0 126.0 89.0 125.0 88.0 C123.0 87.0 121.0 86.0 120.0 85.0 C118.0 85.0 116.0 85.0 115.0 86.0 C113.0 87.0 112.0 88.0 111.0 89.0 C109.0 90.0 107.0 90.0 106.0 89.0 C105.0 88.0 104.0 87.0 103.0 86.0 C103.0 85.0 104.0 84.0 105.0 82.0 C106.0 81.0 107.0 80.0 108.0 78.0 C108.0 76.0 108.0 75.0 108.0 73.0 C109.0 70.0 111.0 67.0 115.0 65.0 C116.0 66.0 117.0 67.0 118.0 68.0 C120.0 70.0 121.0 73.0 121.0 75.0 C121.0 77.0 121.0 79.0 120.0 80.0 C120.0 82.0 119.0 83.0 119.0 85.0 C120.0 86.0 121.0 87.0 122.0 88.0 C124.0 89.0 125.0 90.0 126.0 91.0 C127.0 92.0 128.0 93.0 129.0 94.0 C129.0 95.0 130.0 96.0 130.0 97.0 C131.0 98.0 131.0 99.0 131.0 100.0 C132.0 101.0 133.0 102.0 134.0 103.0 C135.0 104.0 137.0 106.0 138.0 106.0 C139.0 106.0 140.0 106.0 141.0 105.0 C142.0 105.0 143.0 104.0 144.0 102.0 C144.0 89.0 136.0 77.0 126.0 70.0 C125.0 70.0 124.0 69.0 123.0 68.0 C122.0 68.0 121.0 67.0 120.0 66.0 C120.0 65.0 119.0 65.0 118.0 64.0 C117.0 63.0 116.0 62.0 115.0 62.0 C113.0 62.0 112.0 62.0 111.0 63.0 C109.0 64.0 108.0 65.0 107.0 67.0 C106.0 68.0 105.0 70.0 105.0 71.0 C104.0 73.0 103.0 74.0 103.0 75.0 C103.0 76.0 102.0 77.0 101.0 78.0 C100.0 79.0 99.0 80.0 98.0 82.0 C98.0 83.0 97.0 85.0 98.0 86.0 C98.0 87.0 99.0 88.0 100.0 89.0 C100.0 90.0 100.0 91.0 101.0 92.0 C101.0 94.0 101.0 95.0 102.0 96.0 C103.0 97.0 103.0 98.0 104.0 99.0 C105.0 100.0 106.0 101.0 107.0 101.0 C108.0 102.0 110.0 102.0 111.0 101.0 C112.0 101.0 113.0 100.0 114.0 99.0 L114.0 99.0 Z"></path>
<path fill="#666677" fill-opacity="1.0"  filling="0" d="M37.0 100.0 L37.0 100.0 C37.0 95.0 40.0 92.0 45.0 92.0 L45.0 92.0 C48.0 92.0 49.0 94.0 49.0 96.0 L49.0 127.0 C49.0 130.0 48.0 131.0 45.0 131.0 L45.0 131.0 C40.0 131.0 37.0 128.0 37.0 124.0 L37.0 100.0 L37.0 100.0 Z M163.0 100.0 L163.0 100.0 C163.0 95.0 160.0 92.0 155.0 92.0 L155.0 92.0 C152.0 92.0 151.0 94.0 151.0 96.0 L151.0 127.0 C151.0 130.0 152.0 131.0 155.0 131.0 L155.0 131.0 C160.0 131.0 163.0 128.0 163.0 124.0 L163.0 100.0 L163.0 100.0 Z"></path></svg>