<svg xmlns="http://www.w3.org/2000/svg" viewBox="0.0 0.0 200.0 200.0" height="200px" width="200px"><path fill="#555566" fill-opacity="1.0"  filling="0" d="M37.0 100.0 C37.0 66.0 65.0 37.0 100.0 37.0 C135.0 37.0 163.0 66.0 163.0 100.0 L172.0 100.0 C172.0 60.0 140.0 28.0 100.0 28.0 C60.0 28.0 28.0 60.0 28.0 100.0 L37.0 100.0 L37.0 100.0 Z"></path>
<path fill="#66bbee" fill-opacity="1.0"  filling="0" d="M56.0 106.0 A44.0 44.0 0.0 1 0 144.0 106.0 A44.0 44.0 0.0 1 0 56.0 106.0 L56.0 106.0 Z"></path>
<path fill="#55bb77" fill-opacity="1.0"  filling="0" d="M75.0 100.0 A12.0 12.0 0.0 0 0 85.0 91.0 A10.0 10.0 0.0 0 0 87.0 89.0 A3.0 3.0 0.0 0 0 87.0 87.0 A3.0 3.0 0.0 0 0 87.0 85.0 A3.0 3.0 0.0 0 0 87.0 83.0 A3.0 3.0 0.0 0 0 85.0 82.0 A2.0 2.0 0.0 0 1 85.0 80.0 A4.0 4.0 0.0 0 1 87.0 78.0 A6.0 6.0 0.0 0 0 89.0 75.0 A5.0 5.0 0.0 0 0 90.0 73.0 A5.0 5.0 0.0 0 0 89.0 71.0 A7.0 7.0 0.0 0 0 87.0 69.0 A8.0 8.0 0.0 0 0 85.0 66.0 A44.0 44.0 0.0 0 0 57.0 98.0 A10.0 10.0 0.0 0 0 59.0 100.0 A12.0 12.0 0.0 0 0 63.0 100.0 A12.0 12.0 0.0 0 0 75.0 100.0 L75.0 100.0 Z M125.0 100.0 A12.0 12.0 0.0 0 1 115.0 91.0 A10.0 10.0 0.0 0 1 113.0 89.0 A3.0 3.0 0.0 0 1 113.0 87.0 A3.0 3.0 0.0 0 1 113.0 85.0 A3.0 3.0 0.0 0 1 113.0 83.0 A3.0 3.0 0.0 0 1 115.0 82.0 A2.0 2.0 0.0 0 0 115.0 80.0 A4.0 4.0 0.0 0 0 113.0 78.0 A6.0 6.0 0.0 0 1 111.0 75.0 A5.0 5.0 0.0 0 1 110.0 73.0 A5.0 5.0 0.0 0 1 111.0 71.0 A7.0 7.0 0.0 0 1 113.0 69.0 A8.0 8.0 0.0 0 1 115.0 66.0 A44.0 44.0 0.0 0 1 143.0 98.0 A10.0 10.0 0.0 0 1 141.0 100.0 A12.0 12.0 0.0 0 1 137.0 100.0 A12.0 12.0 0.0 0 1 125.0 100.0 L125.0 100.0 Z M75.0 125.0 A10.0 10.0 0.0 0 1 77.0 130.0 A10.0 10.0 0.0 0 1 77.0 133.0 A15.0 15.0 0.0 0 0 78.0 136.0 A10.0 10.0 0.0 0 0 79.0 140.0 A10.0 10.0 0.0 0 0 82.0 143.0 A10.0 10.0 0.0 0 0 84.0 144.0 A10.0 10.0 0.0 0 1 85.0 140.0 A10.0 10.0 0.0 0 1 86.0 137.0 A10.0 10.0 0.0 0 1 88.0 134.0 A31.0 31.0 0.0 0 0 94.0 128.0 A29.0 29.0 0.0 0 0 97.0 123.0 A11.0 11.0 0.0 0 0 98.0 120.0 A4.0 4.0 0.0 0 0 97.0 117.0 A8.0 8.0 0.0 0 0 95.0 115.0 A16.0 16.0 0.0 0 0 92.0 114.0 A15.0 15.0 0.0 0 1 89.0 111.0 A15.0 15.0 0.0 0 1 86.0 109.0 A10.0 10.0 0.0 0 0 84.0 107.0 A10.0 10.0 0.0 0 0 82.0 106.0 A11.0 11.0 0.0 0 0 80.0 106.0 A14.0 14.0 0.0 0 0 77.0 106.0 A9.0 9.0 0.0 0 0 73.0 107.0 A10.0 10.0 0.0 0 0 70.0 109.0 A10.0 10.0 0.0 0 0 69.0 112.0 A10.0 10.0 0.0 0 0 69.0 116.0 A10.0 10.0 0.0 0 0 70.0 120.0 A10.0 10.0 0.0 0 0 73.0 123.0 A10.0 10.0 0.0 0 1 75.0 125.0 L75.0 125.0 Z M133.0 103.0 A10.0 10.0 0.0 0 0 133.0 101.0 A10.0 10.0 0.0 0 0 131.0 100.0 A10.0 10.0 0.0 0 0 128.0 100.0 A10.0 10.0 0.0 0 0 126.0 100.0 A10.0 10.0 0.0 0 0 124.0 100.0 A10.0 10.0 0.0 0 0 122.0 101.0 A10.0 10.0 0.0 0 0 120.0 103.0 A10.0 10.0 0.0 0 0 119.0 105.0 A10.0 10.0 0.0 0 0 119.0 107.0 A10.0 10.0 0.0 0 0 119.0 110.0 A10.0 10.0 0.0 0 0 120.0 112.0 A10.0 10.0 0.0 0 0 122.0 114.0 A10.0 10.0 0.0 0 0 124.0 115.0 A10.0 10.0 0.0 0 0 126.0 115.0 A10.0 10.0 0.0 0 0 128.0 115.0 A10.0 10.0 0.0 0 0 130.0 114.0 A10.0 10.0 0.0 0 0 132.0 112.0 A10.0 10.0 0.0 0 0 133.0 110.0 A10.0 10.0 0.0 0 0 133.0 109.0 A10.0 10.0 0.0 0 0 133.0 106.0 A10.0 10.0 0.0 0 0 133.0 105.0 A10.0 10.0 0.0 0 0 133.0 103.0 L133.0 103.0 Z"></path>
<path fill="#555566" fill-opacity="1.0"  filling="0" d="M47.0 129.0 L41.0 129.0 A3.0 3.0 0.0 0 1 39.0 128.0 L39.0 96.0 A3.0 3.0 0.0 0 1 41.0 93.0 L47.0 93.0 A3.0 3.0 0.0 0 1 49.0 96.0 L49.0 128.0 A3.0 3.0 0.0 0 1 47.0 129.0 L47.0 129.0 Z"></path>
<path fill="#555566" fill-opacity="1.0"  filling="0" d="M43.0 131.0 L45.0 131.0 A4.0 4.0 0.0 0 0 49.0 128.0 L49.0 96.0 A4.0 4.0 0.0 0 0 45.0 93.0 L43.0 93.0 A4.0 4.0 0.0 0 0 40.0 96.0 L40.0 128.0 A4.0 4.0 0.0 0 0 43.0 131.0 L43.0 131.0 Z M45.0 93.0 L46.0 93.0 A3.0 3.0 0.0 0 1 49.0 96.0 L49.0 128.0 A3.0 3.0 0.0 0 1 46.0 131.0 L45.0 131.0 A3.0 3.0 0.0 0 1 41.0 128.0 L41.0 96.0 A3.0 3.0 0.0 0 1 43.0 93.0 L45.0 93.0 L45.0 93.0 Z"></path>
<path fill="#555566" fill-opacity="1.0"  filling="0" d="M159.0 128.0 A3.0 3.0 0.0 0 1 157.0 131.0 L155.0 131.0 A3.0 3.0 0.0 0 1 151.0 128.0 L151.0 96.0 A3.0 3.0 0.0 0 1 155.0 93.0 L157.0 93.0 A3.0 3.0 0.0 0 1 160.0 96.0 L160.0 128.0 A3.0 3.0 0.0 0 1 159.0 128.0 L159.0 128.0 Z"></path>
<path fill="#555566" fill-opacity="1.0"  filling="0" d="M155.0 131.0 L157.0 131.0 A4.0 4.0 0.0 0 0 160.0 128.0 L160.0 96.0 A4.0 4.0 0.0 0 0 157.0 93.0 L155.0 93.0 A4.0 4.0 0.0 0 0 152.0 96.0 L152.0 128.0 A4.0 4.0 0.0 0 0 155.0 131.0 L155.0 131.0 Z M157.0 93.0 L158.0 93.0 A3.0 3.0 0.0 0 1 160.0 96.0 L160.0 128.0 A3.0 3.0 0.0 0 1 158.0 131.0 L157.0 131.0 A3.0 3.0 0.0 0 1 154.0 128.0 L154.0 96.0 A3.0 3.0 0.0 0 1 155.0 93.0 L157.0 93.0 L157.0 93.0 Z"></path></svg>