<svg xmlns="http://www.w3.org/2000/svg" viewBox="0.0 0.0 200.0 200.0" height="200px" width="200px"><path fill="#445555" fill-opacity="1.0"  filling="0" d="M37.0 100.0 C37.0 66.0 65.0 37.0 100.0 37.0 C135.0 37.0 163.0 66.0 163.0 100.0 L172.0 100.0 C172.0 60.0 140.0 28.0 100.0 28.0 C60.0 28.0 28.0 60.0 28.0 100.0 L37.0 100.0 L37.0 100.0 Z"></path>
<path fill="#66bbee" fill-opacity="1.0"  filling="0" d="M56.0 106.0 A44.0 44.0 0.0 1 0 144.0 106.0 A44.0 44.0 0.0 1 0 56.0 106.0 L56.0 106.0 Z"></path>
<path fill="#000000" fill-opacity="1.0"  filling="0" d="M75.0 100.0 C76.0 100.0 77.0 100.0 78.0 100.0 C79.0 99.0 80.0 99.0 81.0 98.0 C82.0 98.0 83.0 98.0 84.0 97.0 C86.0 97.0 87.0 97.0 88.0 97.0 C89.0 97.0 90.0 97.0 91.0 97.0 C92.0 98.0 93.0 98.0 94.0 99.0 C95.0 99.0 96.0 100.0 97.0 101.0 C98.0 102.0 99.0 104.0 99.0 106.0 C99.0 107.0 98.0 109.0 98.0 110.0 C97.0 111.0 96.0 112.0 95.0 113.0 C94.0 114.0 93.0 114.0 92.0 115.0 C91.0 115.0 90.0 116.0 89.0 116.0 C88.0 117.0 87.0 117.0 86.0 118.0 C85.0 118.0 84.0 119.0 83.0 119.0 C82.0 120.0 81.0 121.0 80.0 121.0 C80.0 122.0 79.0 122.0 78.0 123.0 C77.0 123.0 76.0 124.0 76.0 125.0 C75.0 125.0 74.0 126.0 73.0 127.0 C72.0 128.0 72.0 129.0 72.0 130.0 C71.0 131.0 71.0 132.0 71.0 133.0 C71.0 134.0 71.0 135.0 71.0 136.0 C71.0 137.0 71.0 138.0 71.0 139.0 C72.0 140.0 72.0 141.0 72.0 142.0 C73.0 143.0 73.0 144.0 74.0 145.0 C74.0 146.0 75.0 147.0 76.0 147.0 C77.0 148.0 78.0 149.0 79.0 150.0 C79.0 150.0 80.0 151.0 81.0 151.0 C82.0 152.0 83.0 152.0 84.0 153.0 C85.0 153.0 86.0 153.0 87.0 153.0 C88.0 153.0 89.0 153.0 90.0 153.0 C91.0 152.0 92.0 152.0 93.0 152.0 C94.0 151.0 94.0 151.0 95.0 150.0 C96.0 149.0 97.0 148.0 97.0 147.0 C98.0 146.0 98.0 145.0 98.0 144.0 C99.0 143.0 99.0 142.0 100.0 141.0 C100.0 140.0 101.0 139.0 101.0 138.0 C101.0 137.0 102.0 136.0 102.0 135.0 C103.0 134.0 103.0 133.0 103.0 132.0 C103.0 131.0 103.0 130.0 103.0 129.0 C103.0 128.0 103.0 127.0 103.0 126.0 C103.0 125.0 103.0 124.0 102.0 123.0 C102.0 122.0 102.0 121.0 102.0 120.0 C102.0 119.0 101.0 118.0 101.0 117.0 C101.0 116.0 100.0 115.0 100.0 114.0 C99.0 113.0 99.0 112.0 98.0 111.0 C98.0 110.0 97.0 109.0 96.0 108.0 C96.0 107.0 95.0 106.0 94.0 105.0 C94.0 104.0 93.0 103.0 92.0 103.0 C91.0 102.0 90.0 102.0 89.0 101.0 C88.0 101.0 87.0 101.0 86.0 101.0 C85.0 101.0 84.0 101.0 83.0 101.0 C82.0 102.0 81.0 102.0 80.0 102.0 C79.0 102.0 78.0 102.0 77.0 102.0 C76.0 102.0 75.0 102.0 74.0 102.0 C74.0 102.0 73.0 101.0 72.0 101.0 C71.0 101.0 70.0 100.0 69.0 100.0 C69.0 99.0 68.0 98.0 68.0 97.0 C69.0 96.0 69.0 96.0 69.0 95.0 C69.0 94.0 69.0 93.0 70.0 92.0 C70.0 91.0 71.0 90.0 71.0 89.0 C72.0 88.0 72.0 87.0 73.0 86.0 C74.0 85.0 75.0 84.0 76.0 83.0 C77.0 82.0 78.0 81.0 79.0 80.0 C80.0 80.0 81.0 79.0 82.0 79.0 C83.0 78.0 84.0 78.0 85.0 78.0 C86.0 77.0 87.0 77.0 88.0 76.0 C89.0 76.0 89.0 75.0 90.0 74.0 C90.0 73.0 90.0 72.0 90.0 71.0 C90.0 70.0 90.0 69.0 90.0 68.0 C89.0 67.0 88.0 66.0 87.0 65.0 C86.0 65.0 85.0 65.0 84.0 65.0 C85.0 66.0 86.0 66.0 87.0 66.0 C88.0 67.0 89.0 67.0 90.0 67.0 C91.0 67.0 93.0 67.0 94.0 67.0 C95.0 67.0 96.0 67.0 97.0 67.0 C98.0 67.0 99.0 67.0 100.0 67.0 C101.0 67.0 102.0 67.0 103.0 67.0 C104.0 67.0 105.0 67.0 106.0 67.0 C107.0 67.0 109.0 67.0 110.0 67.0 C111.0 67.0 112.0 67.0 113.0 67.0 C114.0 67.0 115.0 66.0 116.0 66.0 C117.0 66.0 118.0 66.0 119.0 65.0 C120.0 65.0 121.0 65.0 122.0 65.0 C123.0 65.0 124.0 65.0 125.0 65.0 C126.0 65.0 127.0 66.0 128.0 66.0 C129.0 66.0 130.0 67.0 131.0 67.0 C132.0 68.0 133.0 68.0 134.0 69.0 C135.0 69.0 136.0 70.0 137.0 71.0 C138.0 71.0 139.0 72.0 140.0 73.0 C141.0 73.0 142.0 74.0 143.0 75.0 C144.0 76.0 144.0 77.0 145.0 77.0 C146.0 78.0 146.0 79.0 147.0 80.0 C148.0 81.0 149.0 82.0 149.0 83.0 C150.0 84.0 151.0 85.0 151.0 86.0 C152.0 87.0 152.0 88.0 153.0 89.0 C153.0 90.0 153.0 91.0 154.0 92.0 C154.0 93.0 154.0 94.0 154.0 95.0 L152.0 95.0 C152.0 92.0 153.0 93.0 155.0 93.0 L167.0 93.0 C170.0 93.0 174.0 96.0 174.0 100.0 L174.0 122.0 C174.0 125.0 170.0 128.0 167.0 129.0 L155.0 129.0 C153.0 129.0 152.0 128.0 152.0 126.0 L152.0 113.0 C152.0 113.0 152.0 113.0 152.0 113.0 L152.0 113.0 C152.0 113.0 152.0 113.0 152.0 113.0 L152.0 113.0 C152.0 113.0 152.0 113.0 152.0 113.0 L152.0 113.0 C152.0 113.0 152.0 113.0 152.0 113.0 L152.0 113.0 C152.0 113.0 152.0 113.0 152.0 113.0 L152.0 113.0 C152.0 113.0 152.0 113.0 152.0 113.0 L152.0 113.0 C152.0 113.0 152.0 113.0 152.0 113.0 L152.0 113.0 C152.0 113.0 152.0 113.0 152.0 113.0 L152.0 113.0 C152.0 113.0 152.0 113.0 152.0 113.0 L152.0 113.0 C152.0 113.0 152.0 113.0 152.0 113.0 L152.0 113.0 C152.0 113.0 152.0 113.0 152.0 113.0 L152.0 113.0 C152.0 113.0 152.0 113.0 152.0 113.0 L152.0 113.0 C152.0 113.0 152.0 113.0 152.0 113.0 L152.0 113.0 C152.0 113.0 152.0 113.0 152.0 113.0 L152.0 113.0 C152.0 113.0 152.0 113.0 152.0 113.0 L152.0 113.0 C152.0 113.0 152.0 113.0 152.0 113.0 L152.0 113.0 C152.0 113.0 152.0 113.0 152.0 113.0 L152.0 113.0 C152.0 113.0 152.0 113.0 152.0 113.0 L152.0 113.0 C152.0 113.0 152.0 113.0 152.0 113.0 L152.0 113.0 C152.0 113.0 152.0 113.0 152.0 113.0 L152.0 113.0 C152.0 113.0 152.0 113.0 152.0 113.0 L152.0 113.0 C152.0 113.0 152.0 113.0 152.0 113.0 L152.0 113.0 C152.0 113.0 152.0 113.0 152.0 113.0 L152.0 113.0 C152.0 113.0 152.0 113.0 152.0 113.0 L152.0 113.0 C152.0 113.0 152.0 113.0 152.0 113.0 L152.0 113.0 C152.0 113.0 152.0 113.0 152.0 113.0 L152.0 113.0 C152.0 113.0 152.0 113.0 152.0 113.0 L152.0 113.0 C152.0 113.0 152.0 113.0 152.0 113.0 L152.0 113.0 C152.0 113.0 152.0 113.0 152.0 113.0 L152.0 113.0 C152.0 113.0 152.0 113.0 152.0 113.0 L152.0 113.0 C152.0 113.0 152.0 113.0 152.0 113.0 L152.0 113.0 C152.0 113.0 152.0 113.0 152.0 113.0 L152.0 113.0 C152.0 113.0 152.0 113.0 152.0 113.0 L152.0 113.0 C152.0 113.0 152.0 113.0 152.0 113.0 L152.0 113.0 C152.0 113.0 152.0 113.0 152.0 113.0 L152.0 113.0 C152.0 113.0 152.0 113.0 152.0 113.0 L152.0 113.0 C152.0 113.0 152.0 113.0 152.0 113.0 L152.0 113.0 C152.0 113.0 152.0 113.0 152.0 113.0 L152.0 113.0 C152.0 113.0 152.0 113.0 152.0 113.0 L152.0 113.0 C152.0 113.0 152.0 113.0 152.0 113.0 L152.0 113.0 C152.0 113.0 152.0 113.0 152.0 113.0 L152.0 113.0 C152.0 113.0 152.0 113.0 152.0 113.0 L152.0 113.0 C152.0 113.0 152.0 113.0 152.0 113.0 L152.0 113.0 C152.0 113.0 152.0 113.0 152.0 113.0 L152.0 113.0 C152.0 113.0 152.0 113.0 152.0 113.0 L152.0 113.0 C152.0 113.0 152.0 113.0 152.0 113.0 L152.0 113.0 C152.0 113.0 152.0 113.0 152.0 113.0 L152.0 113.0 C152.0 113.0 152.0 113.0 152.0 113.0 L152.0 113.0 C152.0 113.0 152.0 113.0 152.0 113.0 L152.0 113.0 C152.0 113.0 152.0 113.0 152.0 113.0 L152.0 113.0 C152.0 113.0 152.0 113.0 152.0 113.0 L152.0 113.0 C152.0 113.0 152.0 113.0 152.0 113.0 L152.0 113.0 C152.0 113.0 152.0 113.0 152.0 113.0 L152.0 113.0 C152.0 113.0 152.0 113.0 152.0 113.0 L152.0 113.0 C152.0 113.0 152.0 113.0 152.0 113.0 L152.0 113.0 C152.0 113.0 152.0 113.0 152.0 113.0 L152.0 113.0 C152.0 113.0 152.0 113.0 152.0 113.0 L152.0 113.0 C152.0 113.0 152.0 113.0 152.0 113.0 L152.0 113.0 C152.0 113.0 152.0 113.0 152.0 113.0 L152.0 113.0 C152.0 113.0 152.0 113.0 152.0 113.0 L152.0 113.0 C152.0 113.0 152.0 113.0 152.0 113.0 L152.0 113.0 C152.0 113.0 152.0 113.0 152.0 113.0 L152.0 113.0 C152.0 113.0 152.0 113.0 152.0 113.0 L152.0 113.0 C152.0 113.0 152.0 113.0 152.0 113.0 L152.0 113.0 C152.0 113.0 152.0 113.0 152.0 113.0 L152.0 113.0 C152.0 113.0 152.0 113.0 152.0 113.0 L152.0 113.0 C152.0 113.0 152.0 113.0 152.0 113.0 L152.0 113.0 C152.0 113.0 152.0 113.0 152.0 113.0 L152.0 113.0 C152.0 113.0 152.0 113.0 152.0 113.0 L152.0 113.0 C152.0 113.0 152.0 113.0 152.0 113.0 L152.0 113.0 C152.0 113.0 152.0 113.0 152.0 113.0 L152.0 113.0 C152.0 113.0 152.0 113.0 152.0 113.0 L152.0 113.0 C152.0 113.0 152.0 113.0 152.0 113.0 L152.0 113.0 C152.0 113.0 152.0 113.0 152.0 113.0 L152.0 113.0 C152.0 113.0 152.0 113.0 152.0 113.0 L152.0 113.0 C152.0 113.0 152.0 113.0 152.0 113.0 L152.0 113.0 C152.0 113.0 152.0 113.0 152.0 113.0 L152.0 113.0 C152.0 113.0 152.0 113.0 152.0 113.0 L152.0 113.0 C152.0 113.0 152.0 113.0 152.0 113.0 L152.0 113.0 C152.0 113.0 152.0 113.0 152.0 113.0 L152.0 113.0 C152.0 113.0 152.0 113.0 152.0 113.0 L152.0 113.0 C152.0 113.0 152.0 113.0 152.0 113.0 L152.0 113.0 C152.0 113.0 152.0 113.0 152.0 113.0 L152.0 113.0 C152.0 113.0 152.0 113.0 152.0 113.0 L152.0 113.0 C152.0 113.0 152.0 113.0 152.0 113.0 L152.0 113.0 C152.0 113.0 152.0 113.0 152.0 113.0 L152.0 113.0 C152.0 113.0 152.0 113.0 152.0 113.0 L152.0 113.0 C152.0 113.0 152.0 113.0 152.0 113.0 L152.0 113.0 C152.0 113.0 152.0 113.0 152.0 113.0 L152.0 113.0 C152.0 113.0 152.0 113.0 152.0 113.0 L152.0 113.0 C152.0 113.0 152.0 113.0 152.0 113.0 L152.0 113.0 C152.0 113.0 152.0 113.0 152.0 113.0 L152.0 113.0 C152.0 113.0 152.0 113.0 152.0 113.0 L152.0 113.0 C152.0 113.0 152.0 113.0 152.0 113.0 L152.0 113.0 C152.0 113.0 152.0 113.0 152.0 113.0 L152.0 113.0 C152.0 113.0 152.0 113.0 152.0 113.0 L152.0 113.0 C152.0 113.0 152.0 113.0 152.0 113.0 L152.0 113.0 C152.0 113.0 152.0 113.0 152.0 113.0 L152.0 113.0 C152.0 113.0 152.0 113.0 152.0 113.0 L152.0 113.0 C152.0 113.0 152.0 113.0 152.0 113.0 L152.0 113.0 C152.0 113.0 152.0 113.0 152.0 113.0 L152.0 113.0 C152.0 113.0 152.0 113.0 152.0 113.0 L152.0 113.0 C152.0 113.0 152.0 113.0 152.0 113.0 L152.0 113.0 C152.0 113.0 152.0 113.0 152.0 113.0 L152.0 113.0 C152.0 113.0 152.0 113.0 152.0 113.0 L152.0 105.0 C152.0 104.0 152.0 104.0 152.0 104.0 L152.0 104.0 C152.0 104.0 152.0 104.0 152.0 104.0 L152.0 104.0 C152.0 104.0 152.0 104.0 152.0 104.0 L152.0 104.0 C152.0 104.0 152.0 104.0 152.0 104.0 L152.0 104.0 C152.0 104.0 152.0 104.0 152.0 104.0 L152.0 104.0 C152.0 104.0 152.0 104.0 152.0 104.0 L152.0 104.0 C152.0 104.0 152.0 104.0 152.0 104.0 L152.0 104.0 C152.0 104.0 152.0 104.0 152.0 104.0 L152.0 104.0 C152.0 104.0 152.0 104.0 152.0 104.0 L152.0 104.0 C152.0 104.0 152.0 104.0 152.0 104.0 L152.0 104.0 C152.0 104.0 152.0 104.0 152.0 104.0 L152.0 104.0 C152.0 104.0 152.0 104.0 152.0 104.0 L152.0 104.0 C152.0 104.0 152.0 104.0 152.0 104.0 L152.0 104.0 C152.0 104.0 152.0 104.0 152.0 104.0 L152.0 104.0 C152.0 104.0 152.0 104.0 152.0 104.0 L152.0 104.0 C152.0 104.0 152.0 104.0 152.0 104.0 L152.0 104.0 C152.0 104.0 152.0 104.0 152.0 104.0 L152.0 104.0 C152.0 104.0 152.0 104.0 152.0 104.0 L152.0 104.0 C152.0 104.0 152.0 104.0 152.0 104.0 L152.0 104.0 C152.0 104.0 152.0 104.0 152.0 104.0 L152.0 104.0 C152.0 104.0 152.0 104.0 152.0 104.0 L152.0 104.0 C152.0 104.0 152.0 104.0 152.0 104.0 L152.0 104.0 C152.0 104.0 152.0 104.0 152.0 104.0 L152.0 104.0 C152.0 104.0 152.0 104.0 152.0 104.0 L152.0 104.0 C152.0 104.0 152.0 104.0 152.0 104.0 L152.0 104.0 C152.0 104.0 152.0 104.0 152.0 104.0 L152.0 104.0 C152.0 104.0 152.0 104.0 152.0 104.0 L152.0 104.0 C152.0 104.0 152.0 104.0 152.0 104.0 L152.0 104.0 C152.0 104.0 152.0 104.0 152.0 104.0 L152.0 104.0 C152.0 104.0 152.0 104.0 152.0 104.0 L152.0 104.0 C152.0 104.0 152.0 104.0 152.0 104.0 L152.0 104.0 C152.0 104.0 152.0 104.0 152.0 104.0 L152.0 104.0 C152.0 104.0 152.0 104.0 152.0 104.0 L152.0 104.0 C152.0 104.0 152.0 104.0 152.0 104.0 L152.0 104.0 C152.0 104.0 152.0 104.0 152.0 104.0 L152.0 104.0 C152.0 104.0 152.0 104.0 152.0 104.0 L152.0 104.0 C152.0 104.0 152.0 104.0 152.0 104.0 L152.0 104.0 C152.0 104.0 152.0 104.0 152.0 104.0 L152.0 104.0 C152.0 104.0 152.0 104.0 152.0 104.0 L152.0 104.0 C152.0 104.0 152.0 104.0 152.0 104.0 L152.0 104.0 C152.0 104.0 152.0 104.0 152.0 104.0 L152.0 104.0 C152.0 104.0 152.0 104.0 152.0 104.0 L152.0 104.0 C152.0 104.0 152.0 104.0 152.0 104.0 L152.0 104.0 C152.0 104.0 152.0 104.0 152.0 104.0 L152.0 104.0 C152.0 104.0 152.0 104.0 152.0 104.0 L152.0 104.0 C152.0 104.0 152.0 104.0 152.0 104.0 L152.0 104.0 C152.0 104.0 152.0 104.0 152.0 104.0 L152.0 104.0 C152.0 104.0 152.0 104.0 152.0 104.0 L152.0 104.0 C152.0 104.0 152.0 104.0 152.0 104.0 L152.0 104.0 C152.0 104.0 152.0 104.0 152.0 104.0 L152.0 104.0 C152.0 104.0 152.0 104.0 152.0 104.0 L152.0 104.0 C152.0 104.0 152.0 104.0 152.0 104.0 L152.0 104.0 C152.0 104.0 152.0 104.0 152.0 104.0 L152.0 104.0 C152.0 104.0 152.0 104.0 152.0 104.0 L152.0 104.0 C152.0 104.0 152.0 104.0 152.0 104.0 L152.0 104.0 C152.0 104.0 152.0 104.0 152.0 104.0 L152.0 104.0 C152.0 104.0 152.0 104.0 152.0 104.0 L152.0 104.0 C152.0 104.0 152.0 104.0 152.0 104.0 L152.0 104.0 C152.0 104.0 152.0 104.0 152.0 104.0 L152.0 104.0 C152.0 104.0 152.0 104.0 152.0 104.0 L152.0 104.0 C152.0 104.0 152.0 104.0 152.0 104.0 L152.0 104.0 C152.0 104.0 152.0 104.0 152.0 104.0 L152.0 104.0 C152.0 104.0 152.0 104.0 152.0 104.0 L152.0 104.0 C152.0 104.0 152.0 104.0 152.0 104.0 L152.0 104.0 C152.0 104.0 152.0 104.0 152.0 104.0 L152.0 104.0 C152.0 104.0 152.0 104.0 152.0 104.0 L152.0 104.0 C152.0 104.0 152.0 104.0 152.0 104.0 L152.0 104.0 C152.0 104.0 152.0 104.0 152.0 104.0 L152.0 104.0 C152.0 104.0 152.0 104.0 152.0 104.0 L152.0 104.0 C152.0 104.0 152.0 104.0 152.0 104.0 L152.0 104.0 C152.0 104.0 152.0 104.0 152.0 104.0 L152.0 104.0"></path></svg>