<svg xmlns="http://www.w3.org/2000/svg" viewBox="0.0 0.0 200.0 200.0" height="200px" width="200px"><path fill="#ffeecc" fill-opacity="1.0"  filling="0" d="M163.0 148.0 L37.0 148.0 C34.0 148.0 31.0 146.0 32.0 143.0 L43.0 129.0 C44.0 128.0 46.0 127.0 48.0 127.0 C82.0 127.0 100.0 144.0 100.0 144.0 C100.0 144.0 119.0 127.0 152.0 127.0 C154.0 127.0 156.0 128.0 157.0 129.0 L168.0 143.0 C169.0 146.0 166.0 148.0 163.0 148.0 L163.0 148.0 Z"></path>
<path fill="#ffeecc" fill-opacity="1.0"  filling="0" d="M163.0 148.0 L100.0 148.0 L100.0 144.0 C100.0 144.0 119.0 127.0 152.0 127.0 C154.0 127.0 156.0 128.0 157.0 129.0 L168.0 143.0 C169.0 146.0 166.0 148.0 163.0 148.0 L163.0 148.0 Z"></path>
<path fill="#ffeecc" fill-opacity="1.0"  filling="0" d="M100.0 156.0 C100.0 156.0 117.0 142.0 165.0 142.0 C168.0 142.0 170.0 148.0 165.0 148.0 L100.0 148.0 L100.0 148.0 L35.0 148.0 C30.0 148.0 32.0 142.0 35.0 142.0 C84.0 142.0 100.0 156.0 100.0 156.0"></path>
<path fill="#cc7755" fill-opacity="1.0"  filling="0" d="M100.0 161.0 C98.0 161.0 95.0 160.0 94.0 159.0 C92.0 158.0 82.0 153.0 48.0 150.0 C42.0 149.0 38.0 148.0 35.0 148.0 C34.0 148.0 32.0 148.0 32.0 146.0 C32.0 144.0 33.0 142.0 35.0 142.0 C39.0 142.0 45.0 142.0 48.0 143.0 C83.0 145.0 94.0 151.0 98.0 153.0 C99.0 154.0 101.0 154.0 102.0 153.0 C106.0 151.0 117.0 145.0 152.0 143.0 C155.0 142.0 161.0 142.0 165.0 142.0 C167.0 142.0 168.0 144.0 168.0 146.0 C168.0 148.0 166.0 148.0 165.0 148.0 C161.0 148.0 157.0 149.0 152.0 150.0 C118.0 153.0 108.0 158.0 106.0 159.0 C105.0 160.0 102.0 161.0 100.0 161.0 L100.0 161.0 Z"></path>
<path fill="#cc7755" fill-opacity="1.0"  filling="0" d="M91.0 58.0 A18.0 18.0 0.0 1 1 55.0 58.0 A18.0 18.0 0.0 1 1 91.0 58.0 L91.0 58.0 Z"></path>
<path fill="#cc7755" fill-opacity="1.0"  filling="0" d="M91.0 62.0 A18.0 18.0 0.0 1 1 55.0 62.0 A18.0 18.0 0.0 1 1 91.0 62.0 L91.0 62.0 Z"></path>
<path fill="#cc7755" fill-opacity="1.0"  filling="0" d="M144.0 104.0 A15.0 15.0 0.0 1 1 114.0 104.0 A15.0 15.0 0.0 1 1 144.0 104.0 L144.0 104.0 Z"></path>
<path fill="#cc7755" fill-opacity="1.0"  filling="0" d="M144.0 90.0 A15.0 15.0 0.0 1 1 114.0 90.0 A15.0 15.0 0.0 1 1 144.0 90.0 L144.0 90.0 Z"></path>
<path fill="#cc7755" fill-opacity="1.0"  filling="0" d="M154.0 79.0 C154.0 82.0 152.0 85.0 149.0 88.0 C146.0 91.0 142.0 95.0 136.0 98.0 C129.0 102.0 122.0 105.0 114.0 105.0 C113.0 105.0 111.0 105.0 109.0 105.0 C108.0 105.0 107.0 105.0 106.0 105.0 C104.0 105.0 102.0 104.0 101.0 103.0 C100.0 101.0 101.0 99.0 102.0 98.0 C103.0 97.0 104.0 96.0 105.0 95.0 C106.0 94.0 108.0 92.0 111.0 90.0 C111.0 90.0 111.0 89.0 112.0 89.0 C113.0 88.0 114.0 87.0 115.0 86.0 C118.0 82.0 122.0 79.0 127.0 78.0 C129.0 77.0 131.0 77.0 133.0 77.0 C134.0 77.0 136.0 77.0 137.0 77.0 C138.0 77.0 139.0 77.0 140.0 77.0 C143.0 76.0 146.0 76.0 148.0 76.0 C150.0 76.0 152.0 76.0 153.0 78.0 C154.0 78.0 154.0 79.0 154.0 80.0 C154.0 80.0 154.0 80.0 154.0 79.0 L154.0 79.0 Z"></path>
<path fill="#ffeecc" fill-opacity="1.0"  filling="0" d="M152.0 79.0 C152.0 82.0 150.0 84.0 148.0 86.0 C144.0 89.0 139.0 93.0 133.0 96.0 C126.0 99.0 119.0 102.0 110.0 102.0 C108.0 102.0 106.0 102.0 105.0 102.0 C103.0 102.0 101.0 101.0 100.0 99.0 C100.0 97.0 102.0 96.0 103.0 95.0 C104.0 94.0 105.0 93.0 106.0 92.0 C108.0 91.0 110.0 90.0 112.0 88.0 C112.0 88.0 113.0 88.0 113.0 87.0 C115.0 87.0 116.0 86.0 117.0 85.0 C120.0 82.0 124.0 80.0 128.0 79.0 C130.0 78.0 132.0 78.0 134.0 78.0 C135.0 78.0 136.0 78.0 137.0 78.0 C138.0 79.0 139.0 79.0 140.0 79.0 C142.0 79.0 145.0 78.0 147.0 78.0 C149.0 78.0 151.0 78.0 151.0 79.0 C152.0 80.0 152.0 80.0 152.0 80.0 C152.0 80.0 152.0 80.0 152.0 79.0 L152.0 79.0 Z"></path>
<path fill="#ffcc88" fill-opacity="1.0"  filling="0" d="M143.0 54.0 A12.0 12.0 0.0 1 1 120.0 54.0 A12.0 12.0 0.0 1 1 143.0 54.0 L143.0 54.0 Z"></path>
<path fill="#cc7755" fill-opacity="1.0"  filling="0" d="M55.0 89.0 C55.0 88.0 55.0 88.0 54.0 88.0 L51.0 87.0 C50.0 87.0 50.0 86.0 50.0 86.0 L50.0 83.0 C50.0 82.0 49.0 82.0 49.0 82.0 C48.0 82.0 48.0 82.0 47.0 83.0 L47.0 86.0 C47.0 86.0 46.0 87.0 46.0 87.0 L43.0 88.0 C42.0 88.0 42.0 88.0 42.0 89.0 C42.0 90.0 42.0 90.0 43.0 90.0 L46.0 91.0 C46.0 91.0 47.0 91.0 47.0 92.0 L48.0 94.0 C48.0 95.0 48.0 95.0 49.0 95.0 C49.0 95.0 50.0 95.0 50.0 94.0 L50.0 92.0 C50.0 91.0 51.0 91.0 51.0 91.0 L54.0 90.0 C55.0 90.0 55.0 90.0 55.0 89.0 L55.0 89.0 Z"></path>
<path fill="#cc7755" fill-opacity="1.0"  filling="0" d="M88.0 45.0 C88.0 44.0 88.0 44.0 87.0 44.0 L85.0 43.0 C84.0 43.0 83.0 43.0 83.0 42.0 L83.0 39.0 C83.0 38.0 82.0 38.0 82.0 38.0 C81.0 38.0 81.0 38.0 81.0 39.0 L80.0 42.0 C80.0 43.0 79.0 43.0 78.0 43.0 L76.0 44.0 C75.0 44.0 74.0 44.0 74.0 45.0 C74.0 46.0 75.0 46.0 76.0 46.0 L78.0 47.0 C79.0 47.0 80.0 48.0 80.0 48.0 L81.0 51.0 C81.0 51.0 81.0 52.0 82.0 52.0 C82.0 52.0 83.0 51.0 83.0 51.0 L83.0 48.0 C84.0 47.0 84.0 47.0 85.0 46.0 L87.0 46.0 C88.0 46.0 88.0 46.0 88.0 45.0 L88.0 45.0 Z"></path>
<path fill="#cc7755" fill-opacity="1.0"  filling="0" d="M88.0 93.0 C88.0 94.0 87.0 95.0 86.0 96.0 C85.0 96.0 84.0 95.0 84.0 94.0 C84.0 93.0 84.0 92.0 86.0 92.0 C87.0 91.0 88.0 92.0 88.0 93.0 L88.0 93.0 Z"></path>
<path fill="#cc7755" fill-opacity="1.0"  filling="0" d="M105.0 74.0 C105.0 75.0 104.0 76.0 103.0 76.0 C102.0 76.0 101.0 76.0 101.0 74.0 C101.0 73.0 101.0 72.0 103.0 72.0 C104.0 72.0 105.0 72.0 105.0 74.0 L105.0 74.0 Z"></path>
<path fill="#cc7755" fill-opacity="1.0"  filling="0" d="M87.0 50.0 C87.0 51.0 86.0 52.0 85.0 52.0 C84.0 53.0 83.0 52.0 83.0 51.0 C83.0 50.0 84.0 49.0 85.0 49.0 C86.0 49.0 87.0 50.0 87.0 50.0 L87.0 50.0 Z"></path>
<path fill="#cc7755" fill-opacity="1.0"  filling="0" d="M112.0 45.0 C112.0 44.0 111.0 44.0 111.0 44.0 L108.0 43.0 C108.0 43.0 107.0 43.0 107.0 42.0 L107.0 39.0 C107.0 39.0 106.0 38.0 105.0 38.0 C105.0 38.0 104.0 39.0 104.0 39.0 L104.0 42.0 C104.0 43.0 103.0 43.0 102.0 43.0 L100.0 44.0 C99.0 44.0 99.0 44.0 99.0 45.0 C99.0 46.0 99.0 46.0 100.0 46.0 L102.0 47.0 C103.0 47.0 104.0 47.0 104.0 48.0 L104.0 50.0 C104.0 51.0 105.0 51.0 105.0 51.0 C106.0 51.0 107.0 51.0 107.0 50.0 L107.0 48.0 C107.0 47.0 108.0 47.0 108.0 46.0 L111.0 46.0 C111.0 46.0 112.0 46.0 112.0 45.0 L112.0 45.0 Z"></path>
<path fill="#cc7755" fill-opacity="1.0"  filling="0" d="M153.0 116.0 C153.0 115.0 152.0 115.0 151.0 115.0 L149.0 115.0 C148.0 114.0 148.0 114.0 148.0 113.0 L148.0 112.0 C148.0 111.0 148.0 111.0 147.0 111.0 C146.0 111.0 146.0 111.0 146.0 112.0 L146.0 114.0 C146.0 114.0 145.0 115.0 144.0 115.0 L142.0 115.0 C143.0 115.0 143.0 116.0 143.0 116.0 C143.0 117.0 143.0 117.0 142.0 117.0 L144.0 117.0 C145.0 117.0 146.0 118.0 146.0 119.0 L146.0 121.0 C146.0 121.0 146.0 122.0 147.0 122.0 C148.0 122.0 148.0 121.0 148.0 121.0 L148.0 119.0 C148.0 118.0 149.0 117.0 149.0 117.0 L151.0 117.0 C152.0 117.0 153.0 117.0 153.0 116.0 L153.0 116.0 Z"></path>
<path fill="#555566" fill-opacity="1.0"  filling="0" d="M80.0 110.0 C80.0 109.0 80.0 108.0 79.0 108.0 L77.0 108.0 C76.0 108.0 75.0 107.0 75.0 106.0 L74.0 102.0 C73.0 102.0 72.0 101.0 71.0 101.0 C70.0 101.0 70.0 102.0 69.0 103.0 L69.0 106.0 C69.0 107.0 68.0 108.0 67.0 108.0 L63.0 108.0 C63.0 108.0 62.0 109.0 62.0 110.0 C62.0 111.0 63.0 111.0 63.0 111.0 L67.0 112.0 C68.0 112.0 69.0 113.0 69.0 114.0 L70.0 117.0 C70.0 118.0 70.0 118.0 71.0 118.0 C72.0 118.0 73.0 118.0 73.0 117.0 L74.0 114.0 C75.0 113.0 75.0 112.0 76.0 112.0 L79.0 112.0 C80.0 111.0 80.0 111.0 80.0 110.0 L80.0 110.0 Z"></path></svg>