<svg xmlns="http://www.w3.org/2000/svg" viewBox="0.0 0.0 200.0 200.0" height="200px" width="200px"><path fill="#ee7755" fill-opacity="1.0"  filling="0" d="M163.0 148.0 C161.0 148.0 159.0 149.0 159.0 149.0 L159.0 149.0 C159.0 149.0 158.0 148.0 156.0 148.0 C147.0 146.0 128.0 144.0 109.0 149.0 C106.0 151.0 103.0 152.0 100.0 154.0 C100.0 154.0 100.0 154.0 100.0 154.0 C100.0 154.0 100.0 154.0 100.0 154.0 C97.0 152.0 94.0 151.0 91.0 149.0 C72.0 144.0 53.0 146.0 44.0 148.0 C42.0 148.0 41.0 149.0 41.0 149.0 C41.0 149.0 39.0 148.0 37.0 148.0 C35.0 147.0 34.0 148.0 34.0 148.0 C32.0 148.0 32.0 147.0 32.0 146.0 C32.0 144.0 33.0 142.0 35.0 141.0 C35.0 141.0 36.0 141.0 36.0 141.0 C38.0 140.0 41.0 139.0 44.0 139.0 C53.0 137.0 72.0 136.0 91.0 142.0 C94.0 141.0 97.0 140.0 100.0 140.0 C103.0 140.0 106.0 141.0 109.0 142.0 C128.0 136.0 147.0 137.0 156.0 139.0 C159.0 139.0 162.0 140.0 164.0 141.0 C164.0 141.0 165.0 141.0 165.0 141.0 C167.0 142.0 168.0 144.0 168.0 146.0 C168.0 147.0 168.0 148.0 166.0 148.0 C166.0 148.0 165.0 147.0 163.0 148.0 L163.0 148.0 Z"></path>
<path fill="#ffeecc" fill-opacity="1.0"  filling="0" d="M100.0 144.0 C98.0 144.0 96.0 143.0 95.0 142.0 C76.0 133.0 55.0 131.0 45.0 133.0 C43.0 133.0 42.0 134.0 41.0 135.0 L36.0 141.0 C38.0 140.0 41.0 139.0 44.0 139.0 C53.0 137.0 72.0 136.0 91.0 142.0 C94.0 141.0 97.0 140.0 100.0 140.0 C102.0 140.0 104.0 141.0 106.0 141.0 L100.0 144.0 L100.0 144.0 Z"></path>
<path fill="#ffeecc" fill-opacity="1.0"  filling="0" d="M164.0 141.0 L159.0 135.0 C158.0 134.0 157.0 133.0 155.0 133.0 C145.0 131.0 124.0 133.0 105.0 142.0 C104.0 143.0 102.0 144.0 100.0 144.0 L94.0 141.0 C96.0 141.0 98.0 140.0 100.0 140.0 C102.0 140.0 104.0 141.0 106.0 141.0 C128.0 136.0 147.0 137.0 156.0 139.0 C159.0 139.0 162.0 140.0 164.0 141.0 L164.0 141.0 Z"></path>
<path fill="#ffeecc" fill-opacity="1.0"  filling="0" d="M100.0 112.0 C98.0 112.0 96.0 111.0 95.0 110.0 C96.0 106.0 98.0 104.0 100.0 103.0 C102.0 102.0 105.0 102.0 108.0 102.0 C110.0 102.0 112.0 102.0 114.0 102.0 C115.0 102.0 116.0 102.0 117.0 101.0 C117.0 100.0 117.0 99.0 116.0 98.0 C115.0 97.0 114.0 96.0 113.0 94.0 C112.0 93.0 111.0 92.0 111.0 91.0 C111.0 90.0 111.0 89.0 112.0 88.0 C113.0 88.0 114.0 87.0 115.0 86.0 C116.0 85.0 117.0 84.0 118.0 83.0 C120.0 82.0 122.0 81.0 124.0 80.0 C125.0 80.0 127.0 80.0 128.0 80.0 C129.0 80.0 129.0 80.0 129.0 81.0 C129.0 82.0 129.0 83.0 128.0 83.0 C127.0 83.0 126.0 84.0 125.0 84.0 C124.0 85.0 122.0 85.0 121.0 86.0 C120.0 87.0 119.0 88.0 118.0 89.0 C117.0 90.0 117.0 91.0 116.0 92.0 C116.0 93.0 117.0 94.0 118.0 95.0 C119.0 96.0 120.0 97.0 121.0 98.0 C122.0 99.0 122.0 100.0 122.0 101.0 C121.0 102.0 120.0 103.0 119.0 103.0 C118.0 104.0 117.0 104.0 116.0 104.0 C114.0 105.0 112.0 105.0 111.0 105.0 C109.0 105.0 107.0 105.0 105.0 105.0 C104.0 105.0 103.0 105.0 102.0 105.0 C101.0 105.0 101.0 106.0 100.0 106.0 C99.0 107.0 99.0 109.0 100.0 110.0 C100.0 111.0 100.0 112.0 100.0 112.0 L100.0 112.0 Z"></path>
<path fill="#ffeecc" fill-opacity="1.0"  filling="0" d="M109.0 107.0 C107.0 107.0 105.0 107.0 103.0 106.0 C102.0 106.0 101.0 105.0 101.0 104.0 C101.0 103.0 101.0 102.0 102.0 101.0 C102.0 100.0 103.0 99.0 103.0 98.0 C104.0 96.0 105.0 94.0 107.0 93.0 C108.0 92.0 109.0 91.0 110.0 91.0 C112.0 90.0 114.0 90.0 115.0 90.0 C116.0 90.0 118.0 90.0 119.0 91.0 C120.0 91.0 121.0 92.0 122.0 93.0 C123.0 94.0 124.0 95.0 125.0 96.0 C126.0 97.0 127.0 98.0 128.0 99.0 C128.0 100.0 129.0 101.0 128.0 102.0 C128.0 103.0 127.0 104.0 126.0 104.0 C125.0 105.0 124.0 105.0 123.0 105.0 C122.0 105.0 120.0 105.0 119.0 105.0 C117.0 105.0 116.0 105.0 114.0 105.0 C113.0 105.0 112.0 104.0 111.0 104.0 C110.0 104.0 110.0 105.0 109.0 106.0 C109.0 107.0 109.0 107.0 109.0 107.0 L109.0 107.0 Z"></path>
<path fill="#cc7755" fill-opacity="1.0"  filling="0" d="M128.0 107.0 C124.0 107.0 120.0 106.0 117.0 103.0 C116.0 103.0 115.0 103.0 114.0 103.0 C113.0 104.0 112.0 104.0 111.0 103.0 C110.0 103.0 110.0 102.0 110.0 101.0 C110.0 100.0 110.0 99.0 111.0 98.0 C112.0 97.0 113.0 96.0 114.0 94.0 C115.0 94.0 115.0 93.0 115.0 92.0 C114.0 92.0 113.0 91.0 112.0 91.0 C112.0 90.0 111.0 90.0 110.0 89.0 C110.0 88.0 109.0 87.0 110.0 86.0 C110.0 85.0 111.0 85.0 112.0 84.0 C113.0 84.0 114.0 83.0 115.0 83.0 C116.0 82.0 117.0 81.0 118.0 81.0 C120.0 80.0 122.0 79.0 124.0 78.0 C125.0 78.0 126.0 78.0 128.0 78.0 C130.0 78.0 132.0 78.0 134.0 79.0 C135.0 80.0 136.0 80.0 137.0 81.0 C138.0 82.0 138.0 83.0 138.0 84.0 C137.0 85.0 136.0 85.0 135.0 85.0 C134.0 84.0 133.0 84.0 132.0 84.0 C131.0 83.0 130.0 83.0 128.0 83.0 C126.0 83.0 124.0 83.0 122.0 84.0 C121.0 84.0 120.0 85.0 119.0 85.0 C118.0 86.0 117.0 87.0 116.0 88.0 C116.0 88.0 117.0 89.0 117.0 89.0 C118.0 90.0 118.0 91.0 118.0 92.0 C119.0 93.0 118.0 94.0 118.0 95.0 C117.0 96.0 116.0 97.0 115.0 98.0 C114.0 99.0 113.0 100.0 113.0 101.0 C113.0 102.0 114.0 103.0 115.0 104.0 C116.0 104.0 117.0 104.0 118.0 103.0 C119.0 102.0 120.0 101.0 121.0 100.0 C123.0 99.0 125.0 98.0 127.0 97.0 C128.0 96.0 130.0 96.0 131.0 96.0 C132.0 96.0 133.0 96.0 134.0 96.0 C135.0 97.0 135.0 98.0 135.0 99.0 C135.0 100.0 134.0 101.0 133.0 101.0 C132.0 101.0 131.0 101.0 130.0 102.0 C129.0 102.0 128.0 103.0 128.0 104.0 C128.0 105.0 128.0 106.0 128.0 107.0 L128.0 107.0 Z"></path>
<path fill="#cc7755" fill-opacity="1.0"  filling="0" d="M143.0 103.0 C140.0 106.0 134.0 107.0 128.0 107.0 C127.0 107.0 126.0 107.0 125.0 107.0 C124.0 106.0 123.0 106.0 122.0 105.0 C121.0 104.0 120.0 103.0 120.0 102.0 C119.0 101.0 119.0 100.0 120.0 99.0 C121.0 99.0 122.0 98.0 123.0 98.0 C124.0 99.0 125.0 99.0 126.0 99.0 C127.0 100.0 128.0 100.0 129.0 100.0 C131.0 100.0 133.0 100.0 134.0 99.0 C136.0 98.0 137.0 97.0 138.0 96.0 C139.0 95.0 140.0 94.0 141.0 93.0 C142.0 92.0 143.0 91.0 143.0 90.0 C144.0 89.0 144.0 88.0 143.0 87.0 C143.0 86.0 142.0 85.0 141.0 85.0 C140.0 85.0 139.0 84.0 138.0 84.0 C136.0 83.0 134.0 82.0 133.0 81.0 C131.0 80.0 130.0 79.0 129.0 77.0 C129.0 76.0 129.0 75.0 130.0 74.0 C131.0 73.0 132.0 73.0 133.0 73.0 C134.0 73.0 135.0 73.0 136.0 73.0 C137.0 73.0 138.0 73.0 139.0 74.0 C140.0 74.0 141.0 75.0 142.0 75.0 C143.0 75.0 144.0 75.0 145.0 75.0 C146.0 75.0 147.0 75.0 148.0 75.0 C149.0 75.0 150.0 75.0 151.0 75.0 C152.0 76.0 153.0 76.0 154.0 77.0 C154.0 78.0 154.0 79.0 154.0 80.0 C154.0 81.0 153.0 82.0 153.0 83.0 C152.0 84.0 151.0 85.0 151.0 86.0 C150.0 87.0 149.0 88.0 148.0 88.0 C147.0 89.0 146.0 90.0 146.0 91.0 C145.0 92.0 145.0 93.0 145.0 94.0 C144.0 95.0 144.0 96.0 144.0 97.0 C143.0 98.0 143.0 99.0 143.0 100.0 C143.0 101.0 143.0 102.0 143.0 103.0 L143.0 103.0 Z"></path>
<path fill="#000000" fill-opacity="1.0"  filling="0" d="M150.0 92.0 C148.0 93.0 147.0 93.0 146.0 93.0 C145.0 93.0 144.0 93.0 143.0 92.0 C142.0 92.0 141.0 91.0 141.0 90.0 C140.0 89.0 140.0 88.0 141.0 87.0 C142.0 86.0 143.0 85.0 144.0 85.0 C145.0 85.0 146.0 85.0 147.0 84.0 C148.0 84.0 149.0 83.0 149.0 82.0 C150.0 81.0 150.0 80.0 150.0 79.0 C150.0 78.0 149.0 77.0 148.0 77.0 C146.0 77.0 145.0 77.0 143.0 77.0 C142.0 78.0 141.0 78.0 140.0 78.0 C139.0 79.0 138.0 79.0 137.0 79.0 C136.0 79.0 135.0 78.0 135.0 77.0 C135.0 76.0 136.0 75.0 137.0 75.0 C138.0 74.0 139.0 74.0 140.0 73.0 C141.0 73.0 142.0 73.0 143.0 73.0 C144.0 73.0 145.0 72.0 146.0 72.0 C147.0 72.0 148.0 72.0 149.0 72.0 C150.0 72.0 151.0 72.0 152.0 72.0 C153.0 73.0 154.0 73.0 154.0 74.0 C155.0 75.0 155.0 76.0 155.0 77.0 C155.0 78.0 155.0 79.0 155.0 80.0 C155.0 81.0 154.0 82.0 154.0 83.0 C153.0 84.0 152.0 85.0 152.0 86.0 C151.0 87.0 150.0 88.0 149.0 88.0 C149.0 89.0 148.0 90.0 148.0 91.0 C148.0 92.0 149.0 92.0 150.0 93.0 C150.0 94.0 151.0 94.0 151.0 95.0 C152.0 96.0 152.0 97.0 152.0 98.0 C152.0 99.0 151.0 100.0 150.0 100.0 C149.0 100.0 148.0 100.0 148.0 99.0 C147.0 98.0 147.0 97.0 147.0 97.0 C147.0 96.0 146.0 95.0 146.0 95.0 C146.0 95.0 146.0 95.0 146.0 95.0 C146.0 95.0 146.0 95.0 146.0 95.0 C146.0 95.0 146.0 95.0 146.0 95.0 C146.0 95.0 146.0 95.0 146.0 95.0 C146.0 95.0 146.0 95.0 146.0 95.0 C146.0 95.0 146.0 95.0 146.0 95.0 C146.0 95.0 146.0 95.0 146.0 95.0 C146.0 95.0 146.0 95.0 146.0 95.0 C146.0 95.0 146.0 95.0 146.0 95.0 C146.0 95.0 146.0 95.0 146.0 95.0 C146.0 95.0 146.0 95.0 146.0 95.0 C146.0 95.0 146.0 95.0 146.0 95.0 C146.0 95.0 146.0 95.0 146.0 95.0 C146.0 95.0 146.0 95.0 146.0 95.0 C146.0 95.0 146.0 95.0 146.0 95.0 C146.0 95.0 146.0 95.0 146.0 95.0 C146.0 95.0 146.0 95.0 146.0 95.0 C146.0 95.0 146.0 95.0 146.0 95.0 C146.0 95.0 146.0 95.0 146.0 95.0 C146.0 95.0 146.0 95.0 146.0 95.0 C146.0 95.0 146.0 95.0 146.0 95.0 C146.0 95.0 146.0 95.0 146.0 95.0 C146.0 95.0 146.0 95.0 146.0 95.0 C146.0 95.0 146.0 95.0 146.0 95.0 C146.0 95.0 146.0 95.0 146.0 95.0 C146.0 95.0 146.0 95.0 146.0 95.0 C146.0 95.0 146.0 95.0 146.0 95.0 C146.0 95.0 146.0 95.0 146.0 95.0 C146.0 95.0 146.0 95.0 146.0 95.0 C146.0 95.0 146.0 95.0 146.0 95.0 C146.0 95.0 146.0 95.0 146.0 95.0 C146.0 95.0 146.0 95.0 146.0 95.0 C146.0 95.0 146.0 95.0 146.0 95.0 C146.0 95.0 146.0 95.0 146.0 95.0 C146.0 95.0 146.0 95.0 146.0 95.0 C146.0 95.0 146.0 95.0 146.0 95.0 C146.0 95.0 146.0 95.0 146.0 95.0 C146.0 95.0 146.0 95.0 146.0 95.0 C146.0 95.0 146.0 95.0 146.0 95.0 C146.0 95.0 146.0 95.0 146.0 95.0 C146.0 95.0 146.0 95.0 146.0 95.0 C146.0 95.0 146.0 95.0 146.0 95.0 C146.0 95.0 146.0 95.0 146.0 95.0 C146.0 95.0 146.0 95.0 146.0 95.0 C146.0 95.0 146.0 95.0 146.0 95.0 C146.0 95.0 146.0 95.0 146.0 95.0 C146.0 95.0 146.0 95.0 146.0 95.0 C146.0 95.0 146.0 95.0 146.0 95.0 C146.0 95.0 146.0 95.0 146.0 95.0 C146.0 95.0 146.0 95.0 146.0 95.0 C146.0 95.0 146.0 95.0 146.0 95.0 C146.0 95.0 146.0 95.0 146.0 95.0 C146.0 95.0 146.0 95.0 146.0 95.0 C146.0 95.0 146.0 95.0 146.0 95.0 C146.0 95.0 146.0 95.0 146.0 95.0 C146.0 95.0 146.0 95.0 146.0 95.0 C146.0 95.0 146.0 95.0 146.0 95.0 C146.0 95.0 146.0 95.0 146.0 95.0 C146.0 95.0 146.0 95.0 146.0 95.0 C146.0 95.0 146.0 95.0 146.0 95.0 C146.0 95.0 146.0 95.0 146.0 95.0 C146.0 95.0 146.0 95.0 146.0 95.0 C146.0 95.0 146.0 95.0 146.0 95.0 C146.0 95.0 146.0 95.0 146.0 95.0 C146.0 95.0 146.0 95.0 146.0 95.0 C146.0 95.0 146.0 95.0 146.0 95.0 C146.0 95.0 146.0 95.0 146.0 95.0 C146.0 95.0 146.0 95.0 146.0 95.0 C146.0 95.0 146.0 95.0 146.0 95.0 C146.0 95.0 146.0 95.0 146.0 95.0 C146.0 95.0 146.0 95.0 146.0 95.0 C146.0 95.0 146.0 95.0 146.0 95.0 C146.0 95.0 146.0 95.0 146.0 95.0 C146.0 95.0 146.0 95.0 146.0 95.0 C146.0 95.0 146.0 95.0 146.0 95.0 C146.0 95.0 146.0 95.0 146.0 95.0 C146.0 95.0 146.0 95.0 146.0 95.0 C146.0 95.0 146.0 95.0 146.0 95.0 C146.0 95.0 146.0 95.0 146.0 95.0 C146.0 95.0 146.0 95.0 146.0 95.0 C146.0 95.0 146.0 95.0 146.0 95.0 C146.0 95.0 146.0 95.0 146.0 95.0 C146.0 95.0 146.0 95.0 146.0 95.0 C146.0 95.0 146.0 95.0 146.0 95.0 C146.0 95.0 146.0 95.0 146.0 95.0 C146.0 95.0 146.0 95.0 146.0 95.0 C146.0 95.0 146.0 95.0 146.0 95.0 C146.0 95.0 146.0 95.0 146.0 95.0 C146.0 95.0 146.0 95.0 146.0 95.0 C146.0 95.0 146.0 95.0 146.0 95.0 C146.0 95.0 146.0 95.0 146.0 95.0 C146.0 95.0 146.0 95.0 146.0 95.0 C146.0 95.0 146.0 95.0 146.0 95.0 C146.0 95.0 146.0 95.0 146.0 95.0 C146.0 95.0 146.0 95.0 146.0 95.0 C146.0 95.0 146.0 95.0 146.0 95.0 C146.0 95.0 146.0 95.0 146.0 95.0 C146.0 95.0 146.0 95.0 146.0 95.0 C146.0 95.0 146.0 95.0 146.0 95.0 C146.0 95.0 146.0 95.0 146.0 95.0 C146.0 95.0 146.0 95.0 146.0 95.0 C146.0 95.0 146.0 95.0 146.0 95.0 C146.0 95.0 146.0 95.0 146.0 95.0 C146.0 95.0 146.0 95.0 146.0 95.0 C146.0 95.0 146.0 95.0 146.0 95.0 C146.0 95.0 146.0 95.0 146.0 95.0 C146.0 95.0 146.0 95.0 146.0 95.0 C146.0 95.0 146.0 95.0 146.0 95.0 C146.0 95.0 146.0 95.0 146.0 95.0 C146.0 95.0 146.0 95.0 146.0 95.0 C146.0 95.0 146.0 95.0 146.0 95.0 C146.0 95.0 146.0 95.0 146.0 95.0 C146.0 95.0 146.0 95.0 146.0 95.0 C146.0 95.0 146.0 95.0 146.0 95.0 C146.0 95.0 146.0 95.0 146.0 95.0 C146.0 95.0 146.0 95.0 146.0 95.0 C146.0 95.0 146.0 95.0 146.0 95.0 C146.0 95.0 146.0 95.0 146.0 95.0 C146.0 95.0 146.0 95.0 146.0 95.0 C146.0 95.0 146.0 95.0 146.0 95.0 C146.0 95.0 146.0 95.0 146.0 95.0 C146.0 95.0 146.0 95.0 146.0 95.0 C146.0 95.0 146.0 95.0 146.0 95.0 C146.0 95.0 146.0 95.0 146.0 95.0 C146.0 95.0 146.0 95.0 146.0 95.0 C146.0 95.0 146.0 95.0 146.0 95.0 C146.0 95.0 146.0 95.0 146.0 95.0 C146.0 95.0 146.0 95.0 146.0 95.0 C146.0 95.0 146.0 95.0 146.0 95.0 C146.0 95.0 146.0 95.0 146.0 95.0 C146.0 95.0 146.0 95.0 146.0 95.0 C146.0 95.0 146.0 95.0 146.0 95.0 C146.0 95.0 146.0 95.0 146.0 95.0 C146.0 95.0 146.0 95.0 146.0 95.0 C146.0 95.0 146.0 95.0 146.0 95.0 C146.0 95.0 146.0 95.0 146.0 95.0 C146.0 95.0 146.0 95.0 146.0 95.0 C146.0 95.0 146.0 95.0 146.0 95.0 C146.0 95.0 146.0 95.0 146.0 95.0 C146.0 95.0 146.0 95.0 146.0 95.0 C146.0 95.0 146.0 95.0 146.0 95.0 C146.0 95.0 146.0 95.0 146.0 95.0 C146.0 95.0 146.0 95.0 146.0 95.0 C146.0 95.0 146.0 95.0 146.0 95.0 C146.0 95.0 146.0 95.0 146.0 95.0 C146.0 95.0 146.0 95.0 146.0 95.0 C146.0 95.0 146.0 95.0 146.0 95.0 C146.0 95.0 146.0 95.0 146.0 95.0 C146.0 95.0 146.0 95.0 146.0 95.0 C146.0 95.0 146.0 95.0 146.0 95.0 C146.0 95.0 146.0 95.0 146.0 95.0 C146.0 95.0 146.0 95.0 146.0 95.0 C146.0 95.0 146.0 95.0 146.0 95.0 C146.0 95.0 146.0 95.0 146.0 95.0 C146.0 95.0 146.0 95.0 146.0 95.0 C146.0 95.0 146.0 95.0 146.0 95.0 C146.0 95.0 146.0 95.0 146.0 95.0 C146.0 95.0 146.0 95.0 146.0 95.0 C146.0 95.0 146.0 95.0 146.0 95.0 C146.0 95.0 146.0 95.0 146.0 95.0 C146.0 95.0 146.0 95.0 146.0 95.0 C146.0 95.0 146.0 95.0 146.0 95.0"></path></svg>