<svg xmlns="http://www.w3.org/2000/svg" viewBox="0.0 0.0 200.0 200.0" height="200px" width="200px"><path fill="#cc6644" fill-opacity="1.0"  filling="0" d="M163.0 148.0 C161.0 148.0 159.0 149.0 159.0 149.0 L159.0 149.0 C159.0 149.0 108.0 149.0 106.0 159.0 C103.0 162.0 97.0 162.0 94.0 159.0 C92.0 149.0 41.0 149.0 41.0 149.0 C41.0 149.0 39.0 148.0 37.0 148.0 C34.0 148.0 32.0 148.0 32.0 145.0 C32.0 142.0 34.0 141.0 37.0 141.0 C38.0 141.0 40.0 141.0 41.0 141.0 C46.0 141.0 92.0 142.0 98.0 155.0 C99.0 155.0 101.0 155.0 102.0 155.0 C108.0 142.0 154.0 141.0 159.0 141.0 C160.0 141.0 162.0 141.0 163.0 141.0 C166.0 141.0 168.0 142.0 168.0 145.0 C168.0 148.0 166.0 148.0 163.0 148.0 L163.0 148.0 Z"></path>
<path fill="#ffeecc" fill-opacity="1.0"  filling="0" d="M100.0 144.0 C89.0 132.0 70.0 127.0 49.0 127.0 C46.0 127.0 44.0 128.0 43.0 130.0 L36.0 141.0 C36.0 141.0 86.0 141.0 98.0 155.0 C99.0 155.0 101.0 155.0 102.0 155.0 C114.0 141.0 164.0 141.0 164.0 141.0 L157.0 130.0 C156.0 128.0 154.0 127.0 151.0 127.0 C130.0 127.0 111.0 132.0 100.0 144.0 L100.0 144.0 Z"></path>
<path fill="#ffeecc" fill-opacity="1.0"  filling="0" d="M100.0 75.0 A2.0 2.0 0.0 1 0 105.0 75.0 A2.0 2.0 0.0 1 0 100.0 75.0 L100.0 75.0 Z M84.0 94.0 A2.0 2.0 0.0 1 0 88.0 94.0 A2.0 2.0 0.0 1 0 84.0 94.0 L84.0 94.0 Z M55.0 108.0 A2.0 2.0 0.0 1 0 59.0 108.0 A2.0 2.0 0.0 1 0 55.0 108.0 L55.0 108.0 Z M143.0 115.0 A1.0 1.0 0.0 1 0 146.0 115.0 A1.0 1.0 0.0 1 0 143.0 115.0 L143.0 115.0 Z M153.0 116.0 A1.0 1.0 0.0 1 0 154.0 116.0 A1.0 1.0 0.0 1 0 153.0 116.0 L153.0 116.0 Z M89.0 92.0 A2.0 2.0 0.0 1 0 88.0 92.0 A2.0 2.0 0.0 1 0 89.0 92.0 L89.0 92.0 Z M52.0 124.0 A1.0 1.0 0.0 1 0 54.0 124.0 A1.0 1.0 0.0 1 0 52.0 124.0 L52.0 124.0 Z"></path>
<path fill="#ffeecc" fill-opacity="1.0"  filling="0" d="M50.0 124.0 A1.0 1.0 0.0 1 0 51.0 124.0 A1.0 1.0 0.0 1 0 50.0 124.0 L50.0 124.0 Z"></path>
<path fill="#ffeecc" fill-opacity="1.0"  filling="0" d="M54.0 126.0 A1.0 1.0 0.0 1 0 56.0 126.0 A1.0 1.0 0.0 1 0 54.0 126.0 L54.0 126.0 Z"></path>
<path fill="#ffeecc" fill-opacity="1.0"  filling="0" d="M56.0 125.0 A1.0 1.0 0.0 1 0 57.0 125.0 A1.0 1.0 0.0 1 0 56.0 125.0 L56.0 125.0 Z"></path>
<path fill="#ffeecc" fill-opacity="1.0"  filling="0" d="M132.0 116.0 A1.0 1.0 0.0 1 0 134.0 116.0 A1.0 1.0 0.0 1 0 132.0 116.0 L132.0 116.0 Z"></path>
<path fill="#ffeecc" fill-opacity="1.0"  filling="0" d="M130.0 116.0 A1.0 1.0 0.0 1 0 131.0 116.0 A1.0 1.0 0.0 1 0 130.0 116.0 L130.0 116.0 Z"></path>
<path fill="#ffeecc" fill-opacity="1.0"  filling="0" d="M135.0 118.0 A1.0 1.0 0.0 1 0 136.0 118.0 A1.0 1.0 0.0 1 0 135.0 118.0 L135.0 118.0 Z"></path>
<path fill="#ffeecc" fill-opacity="1.0"  filling="0" d="M136.0 117.0 A1.0 1.0 0.0 1 0 137.0 117.0 A1.0 1.0 0.0 1 0 136.0 117.0 L136.0 117.0 Z"></path>
<path fill="#ffeecc" fill-opacity="1.0"  filling="0" d="M100.0 117.0 A1.0 1.0 0.0 1 0 101.0 117.0 A1.0 1.0 0.0 1 0 100.0 117.0 L100.0 117.0 Z"></path>
<path fill="#ffeecc" fill-opacity="1.0"  filling="0" d="M99.0 117.0 A1.0 1.0 0.0 1 0 100.0 117.0 A1.0 1.0 0.0 1 0 99.0 117.0 L99.0 117.0 Z"></path>
<path fill="#ffeecc" fill-opacity="1.0"  filling="0" d="M102.0 119.0 A1.0 1.0 0.0 1 0 103.0 119.0 A1.0 1.0 0.0 1 0 102.0 119.0 L102.0 119.0 Z"></path>
<path fill="#ffeecc" fill-opacity="1.0"  filling="0" d="M103.0 118.0 A1.0 1.0 0.0 1 0 104.0 118.0 A1.0 1.0 0.0 1 0 103.0 118.0 L103.0 118.0 Z"></path>
<path fill="#ffeecc" fill-opacity="1.0"  filling="0" d="M94.0 120.0 A1.0 1.0 0.0 1 0 96.0 120.0 A1.0 1.0 0.0 1 0 94.0 120.0 L94.0 120.0 Z"></path>
<path fill="#ffeecc" fill-opacity="1.0"  filling="0" d="M93.0 120.0 A1.0 1.0 0.0 1 0 94.0 120.0 A1.0 1.0 0.0 1 0 93.0 120.0 L93.0 120.0 Z"></path>
<path fill="#ffeecc" fill-opacity="1.0"  filling="0" d="M99.0 122.0 A1.0 1.0 0.0 1 0 100.0 122.0 A1.0 1.0 0.0 1 0 99.0 122.0 L99.0 122.0 Z"></path>
<path fill="#ffeecc" fill-opacity="1.0"  filling="0" d="M100.0 121.0 A1.0 1.0 0.0 1 0 101.0 121.0 A1.0 1.0 0.0 1 0 100.0 121.0 L100.0 121.0 Z"></path>
<path fill="#ffeecc" fill-opacity="1.0"  filling="0" d="M99.0 123.0 A1.0 1.0 0.0 1 0 100.0 123.0 A1.0 1.0 0.0 1 0 99.0 123.0 L99.0 123.0 Z"></path>
<path fill="#ffeecc" fill-opacity="1.0"  filling="0" d="M101.0 123.0 A1.0 1.0 0.0 1 0 102.0 123.0 A1.0 1.0 0.0 1 0 101.0 123.0 L101.0 123.0 Z"></path>
<path fill="#ffeecc" fill-opacity="1.0"  filling="0" d="M103.0 123.0 A1.0 1.0 0.0 1 0 104.0 123.0 A1.0 1.0 0.0 1 0 103.0 123.0 L103.0 123.0 Z"></path>
<path fill="#ffeecc" fill-opacity="1.0"  filling="0" d="M105.0 123.0 A1.0 1.0 0.0 1 0 106.0 123.0 A1.0 1.0 0.0 1 0 105.0 123.0 L105.0 123.0 Z"></path>
<path fill="#ffeecc" fill-opacity="1.0"  filling="0" d="M107.0 123.0 A1.0 1.0 0.0 1 0 108.0 123.0 A1.0 1.0 0.0 1 0 107.0 123.0 L107.0 123.0 Z"></path>
<path fill="#ffeecc" fill-opacity="1.0"  filling="0" d="M109.0 123.0 A1.0 1.0 0.0 1 0 110.0 123.0 A1.0 1.0 0.0 1 0 109.0 123.0 L109.0 123.0 Z"></path>
<path fill="#ffeecc" fill-opacity="1.0"  filling="0" d="M111.0 123.0 A1.0 1.0 0.0 1 0 112.0 123.0 A1.0 1.0 0.0 1 0 111.0 123.0 L111.0 123.0 Z"></path>
<path fill="#ffeecc" fill-opacity="1.0"  filling="0" d="M113.0 123.0 A1.0 1.0 0.0 1 0 114.0 123.0 A1.0 1.0 0.0 1 0 113.0 123.0 L113.0 123.0 Z"></path>
<path fill="#ffeecc" fill-opacity="1.0"  filling="0" d="M115.0 123.0 A1.0 1.0 0.0 1 0 116.0 123.0 A1.0 1.0 0.0 1 0 115.0 123.0 L115.0 123.0 Z"></path>
<path fill="#ffeecc" fill-opacity="1.0"  filling="0" d="M117.0 123.0 A1.0 1.0 0.0 1 0 118.0 123.0 A1.0 1.0 0.0 1 0 117.0 123.0 L117.0 123.0 Z"></path>
<path fill="#ffeecc" fill-opacity="1.0"  filling="0" d="M119.0 123.0 A1.0 1.0 0.0 1 0 120.0 123.0 A1.0 1.0 0.0 1 0 119.0 123.0 L119.0 123.0 Z"></path>
<path fill="#ffeecc" fill-opacity="1.0"  filling="0" d="M121.0 123.0 A1.0 1.0 0.0 1 0 122.0 123.0 A1.0 1.0 0.0 1 0 121.0 123.0 L121.0 123.0 Z"></path>
<path fill="#ffeecc" fill-opacity="1.0"  filling="0" d="M123.0 123.0 A1.0 1.0 0.0 1 0 124.0 123.0 A1.0 1.0 0.0 1 0 123.0 123.0 L123.0 123.0 Z"></path>
<path fill="#ffeecc" fill-opacity="1.0"  filling="0" d="M125.0 123.0 A1.0 1.0 0.0 1 0 126.0 123.0 A1.0 1.0 0.0 1 0 125.0 123.0 L125.0 123.0 Z"></path>
<path fill="#ffeecc" fill-opacity="1.0"  filling="0" d="M127.0 123.0 A1.0 1.0 0.0 1 0 128.0 123.0 A1.0 1.0 0.0 1 0 127.0 123.0 L127.0 123.0 Z"></path>
<path fill="#ffeecc" fill-opacity="1.0"  filling="0" d="M129.0 123.0 A1.0 1.0 0.0 1 0 130.0 123.0 A1.0 1.0 0.0 1 0 129.0 123.0 L129.0 123.0 Z"></path>
<path fill="#ffeecc" fill-opacity="1.0"  filling="0" d="M131.0 123.0 A1.0 1.0 0.0 1 0 132.0 123.0 A1.0 1.0 0.0 1 0 131.0 123.0 L131.0 123.0 Z"></path>
<path fill="#ffeecc" fill-opacity="1.0"  filling="0" d="M133.0 123.0 A1.0 1.0 0.0 1 0 134.0 123.0 A1.0 1.0 0.0 1 0 133.0 123.0 L133.0 123.0 Z"></path>
<path fill="#ffeecc" fill-opacity="1.0"  filling="0" d="M135.0 123.0 A1.0 1.0 0.0 1 0 136.0 123.0 A1.0 1.0 0.0 1 0 135.0 123.0 L135.0 123.0 Z"></path>
<path fill="#ffeecc" fill-opacity="1.0"  filling="0" d="M137.0 123.0 A1.0 1.0 0.0 1 0 138.0 123.0 A1.0 1.0 0.0 1 0 137.0 123.0 L137.0 123.0 Z"></path>
<path fill="#ffeecc" fill-opacity="1.0"  filling="0" d="M139.0 123.0 A1.0 1.0 0.0 1 0 140.0 123.0 A1.0 1.0 0.0 1 0 139.0 123.0 L139.0 123.0 Z"></path>
<path fill="#ffeecc" fill-opacity="1.0"  filling="0" d="M141.0 123.0 A1.0 1.0 0.0 1 0 142.0 123.0 A1.0 1.0 0.0 1 0 141.0 123.0 L141.0 123.0 Z"></path>
<path fill="#ffeecc" fill-opacity="1.0"  filling="0" d="M143.0 123.0 A1.0 1.0 0.0 1 0 144.0 123.0 A1.0 1.0 0.0 1 0 143.0 123.0 L143.0 123.0 Z"></path>
<path fill="#ffeecc" fill-opacity="1.0"  filling="0" d="M145.0 123.0 A1.0 1.0 0.0 1 0 146.0 123.0 A1.0 1.0 0.0 1 0 145.0 123.0 L145.0 123.0 Z"></path>
<path fill="#ffeecc" fill-opacity="1.0"  filling="0" d="M147.0 123.0 A1.0 1.0 0.0 1 0 148.0 123.0 A1.0 1.0 0.0 1 0 147.0 123.0 L147.0 123.0 Z"></path>
<path fill="#ffeecc" fill-opacity="1.0"  filling="0" d="M149.0 123.0 A1.0 1.0 0.0 1 0 150.0 123.0 A1.0 1.0 0.0 1 0 149.0 123.0 L149.0 123.0 Z"></path>
<path fill="#ffeecc" fill-opacity="1.0"  filling="0" d="M151.0 123.0 A1.0 1.0 0.0 1 0 152.0 123.0 A1.0 1.0 0.0 1 0 151.0 123.0 L151.0 123.0 Z"></path>
<path fill="#ffeecc" fill-opacity="1.0"  filling="0" d="M153.0 123.0 A1.0 1.0 0.0 1 0 154.0 123.0 A1.0 1.0 0.0 1 0 153.0 123.0 L153.0 123.0 Z"></path>
<path fill="#ffeecc" fill-opacity="1.0"  filling="0" d="M155.0 123.0 A1.0 1.0 0.0 1 0 156.0 123.0 A1.0 1.0 0.0 1 0 155.0 123.0 L155.0 123.0 Z"></path>
<path fill="#ffeecc" fill-opacity="1.0"  filling="0" d="M157.0 123.0 A1.0 1.0 0.0 1 0 158.0 123.0 A1.0 1.0 0.0 1 0 157.0 123.0 L157.0 123.0 Z"></path>
<path fill="#ffeecc" fill-opacity="1.0"  filling="0" d="M159.0 123.0 A1.0 1.0 0.0 1 0 160.0 123.0 A1.0 1.0 0.0 1 0 159.0 123.0 L159.0 123.0 Z"></path>
<path fill="#ffeecc" fill-opacity="1.0"  filling="0" d="M161.0 123.0 A1.0 1.0 0.0 1 0 162.0 123.0 A1.0 1.0 0.0 1 0 161.0 123.0 L161.0 123.0 Z"></path>
<path fill="#ffeecc" fill-opacity="1.0"  filling="0" d="M163.0 123.0 A1.0 1.0 0.0 1 0 164.0 123.0 A1.0 1.0 0.0 1 0 163.0 123.0 L163.0 123.0 Z"></path>
<path fill="#ffeecc" fill-opacity="1.0"  filling="0" d="M165.0 123.0 A1.0 1.0 0.0 1 0 166.0 123.0 A1.0 1.0 0.0 1 0 165.0 123.0 L165.0 123.0 Z"></path>
<path fill="#000000" fill-opacity="1.0"  filling="0" d="M167.0 123.0 A1.0 1.0 0.0 1 0 168.0 123.0 A1.0 1.0 0.0 1 0 167.0 123.0"></path></svg>