<svg xmlns="http://www.w3.org/2000/svg" viewBox="0.0 0.0 200.0 200.0" height="200px" width="200px"><path fill="#dddddd" fill-opacity="1.0"  filling="0" d="M113.0 127.0 L113.0 127.0 C113.0 127.0 113.0 127.0 113.0 127.0 C113.0 127.0 113.0 127.0 113.0 127.0 L113.0 127.0 Z"></path>
<path fill="#555566" fill-opacity="1.0"  filling="0" d="M151.0 73.0 C148.0 73.0 143.0 74.0 138.0 77.0 C134.0 75.0 131.0 73.0 128.0 73.0 C119.0 73.0 112.0 80.0 111.0 89.0 C111.0 90.0 111.0 90.0 111.0 91.0 C110.0 92.0 110.0 93.0 109.0 94.0 C108.0 95.0 107.0 96.0 105.0 97.0 C105.0 98.0 104.0 98.0 104.0 99.0 C103.0 99.0 103.0 100.0 102.0 100.0 C102.0 101.0 101.0 101.0 101.0 102.0 C101.0 103.0 102.0 104.0 104.0 104.0 C107.0 105.0 112.0 104.0 118.0 103.0 C120.0 105.0 124.0 107.0 128.0 107.0 C136.0 107.0 143.0 102.0 144.0 94.0 C144.0 93.0 144.0 92.0 144.0 91.0 C144.0 89.0 144.0 88.0 144.0 87.0 C145.0 84.0 144.0 82.0 142.0 81.0 C142.0 80.0 141.0 79.0 140.0 79.0 C145.0 77.0 148.0 77.0 150.0 78.0 C151.0 78.0 151.0 79.0 152.0 80.0 C152.0 81.0 151.0 83.0 149.0 85.0 C148.0 86.0 146.0 87.0 145.0 88.0 C145.0 90.0 145.0 91.0 145.0 92.0 C145.0 93.0 145.0 94.0 145.0 95.0 C145.0 96.0 145.0 97.0 145.0 98.0 C144.0 100.0 144.0 102.0 143.0 103.0 C142.0 105.0 140.0 106.0 138.0 106.0 C135.0 107.0 132.0 107.0 128.0 106.0 C125.0 106.0 122.0 106.0 119.0 105.0 C117.0 104.0 116.0 104.0 114.0 103.0 C112.0 103.0 110.0 102.0 108.0 102.0 C106.0 101.0 105.0 101.0 104.0 100.0 C104.0 100.0 104.0 100.0 104.0 100.0 C104.0 100.0 104.0 100.0 104.0 100.0 C105.0 99.0 106.0 98.0 107.0 97.0 C108.0 96.0 110.0 95.0 110.0 94.0 C111.0 93.0 112.0 93.0 112.0 92.0 C112.0 91.0 112.0 90.0 112.0 89.0 C113.0 89.0 113.0 89.0 113.0 88.0 C113.0 87.0 113.0 86.0 114.0 85.0 C114.0 82.0 116.0 81.0 118.0 79.0 C119.0 77.0 121.0 75.0 124.0 75.0 C126.0 74.0 129.0 74.0 131.0 75.0 C133.0 75.0 135.0 76.0 136.0 77.0 C137.0 78.0 138.0 78.0 139.0 79.0 C140.0 80.0 141.0 80.0 142.0 81.0 C143.0 81.0 144.0 82.0 144.0 83.0 C145.0 84.0 146.0 85.0 147.0 85.0 C148.0 86.0 149.0 86.0 149.0 85.0 C150.0 84.0 151.0 84.0 151.0 83.0 C152.0 82.0 153.0 81.0 154.0 80.0 C154.0 79.0 154.0 78.0 153.0 78.0 C153.0 75.0 152.0 74.0 151.0 73.0 L151.0 73.0 Z M117.0 87.0 C116.0 88.0 116.0 89.0 115.0 90.0 C115.0 90.0 114.0 91.0 114.0 92.0 C113.0 92.0 113.0 93.0 112.0 93.0 C112.0 94.0 111.0 94.0 111.0 95.0 C110.0 96.0 109.0 97.0 108.0 98.0 C107.0 98.0 106.0 99.0 106.0 100.0 C107.0 100.0 108.0 100.0 109.0 100.0 C110.0 100.0 112.0 100.0 113.0 100.0 C115.0 101.0 116.0 101.0 118.0 102.0 C120.0 103.0 121.0 103.0 123.0 104.0 C126.0 104.0 129.0 104.0 132.0 104.0 C133.0 104.0 135.0 104.0 136.0 104.0 C137.0 103.0 138.0 103.0 139.0 102.0 C140.0 101.0 141.0 100.0 142.0 99.0 C142.0 98.0 142.0 97.0 142.0 96.0 C143.0 95.0 143.0 94.0 143.0 93.0 C143.0 91.0 143.0 90.0 143.0 89.0 C143.0 87.0 143.0 86.0 142.0 85.0 C142.0 84.0 141.0 83.0 140.0 82.0 C139.0 82.0 138.0 81.0 137.0 81.0 C136.0 80.0 135.0 80.0 134.0 79.0 C133.0 78.0 131.0 78.0 130.0 78.0 C128.0 77.0 126.0 77.0 124.0 78.0 C122.0 78.0 121.0 79.0 119.0 81.0 C118.0 82.0 117.0 84.0 117.0 86.0 C117.0 86.0 117.0 87.0 117.0 87.0 L117.0 87.0 Z"></path>
<path fill="#555566" fill-opacity="1.0"  filling="0" d="M117.0 100.0 C117.0 99.0 117.0 98.0 116.0 98.0 C116.0 97.0 115.0 97.0 114.0 96.0 C113.0 96.0 112.0 95.0 111.0 96.0 C109.0 96.0 108.0 97.0 107.0 98.0 C106.0 98.0 106.0 99.0 105.0 100.0 C104.0 100.0 104.0 101.0 103.0 101.0 C103.0 102.0 103.0 103.0 105.0 103.0 C107.0 104.0 110.0 103.0 114.0 102.0 C115.0 102.0 116.0 102.0 117.0 101.0 C117.0 101.0 118.0 101.0 118.0 100.0 C118.0 100.0 117.0 100.0 117.0 100.0 L117.0 100.0 Z"></path>
<path fill="#cc7755" fill-opacity="1.0"  filling="0" d="M117.0 89.0 C117.0 88.0 117.0 87.0 117.0 87.0 C116.0 87.0 116.0 88.0 116.0 89.0 C116.0 90.0 116.0 91.0 116.0 92.0 C117.0 93.0 117.0 94.0 118.0 95.0 C118.0 96.0 119.0 96.0 120.0 97.0 C121.0 98.0 122.0 98.0 123.0 98.0 C125.0 99.0 127.0 99.0 129.0 98.0 C130.0 98.0 131.0 98.0 132.0 98.0 C133.0 97.0 134.0 97.0 135.0 96.0 C136.0 95.0 137.0 94.0 138.0 93.0 C139.0 92.0 140.0 91.0 140.0 90.0 C141.0 89.0 141.0 88.0 142.0 87.0 C142.0 86.0 142.0 85.0 143.0 85.0 C143.0 84.0 143.0 84.0 143.0 83.0 C144.0 82.0 144.0 82.0 145.0 82.0 C146.0 82.0 147.0 83.0 147.0 84.0 C148.0 85.0 148.0 86.0 148.0 86.0 C148.0 88.0 148.0 88.0 147.0 89.0 C147.0 91.0 146.0 92.0 145.0 93.0 C144.0 94.0 144.0 95.0 143.0 96.0 C143.0 98.0 142.0 100.0 141.0 101.0 C140.0 102.0 139.0 103.0 138.0 104.0 C137.0 104.0 136.0 105.0 135.0 105.0 C133.0 106.0 131.0 106.0 129.0 106.0 C126.0 106.0 123.0 106.0 120.0 105.0 C119.0 104.0 118.0 104.0 117.0 103.0 C116.0 103.0 115.0 103.0 114.0 102.0 C112.0 102.0 111.0 101.0 110.0 101.0 C108.0 101.0 107.0 101.0 106.0 101.0 C106.0 101.0 106.0 101.0 106.0 101.0 C107.0 101.0 107.0 100.0 107.0 100.0 C108.0 99.0 109.0 98.0 110.0 97.0 C111.0 97.0 112.0 96.0 113.0 96.0 C114.0 95.0 115.0 95.0 116.0 94.0 C116.0 93.0 117.0 92.0 117.0 91.0 C117.0 90.0 117.0 90.0 117.0 89.0 L117.0 89.0 Z"></path>
<path fill="#000000" fill-opacity="1.0"  filling="0" d="M137.0 73.0 C138.0 73.0 138.0 73.0 138.0 73.0 C138.0 73.0 138.0 73.0 138.0 73.0 C138.0 73.0 138.0 73.0 138.0 73.0 C138.0 73.0 138.0 73.0 138.0 73.0 C138.0 73.0 138.0 73.0 138.0 73.0 C138.0 73.0 138.0 73.0 138.0 73.0 C138.0 73.0 138.0 73.0 138.0 73.0 C138.0 73.0 138.0 73.0 138.0 73.0 C138.0 73.0 138.0 73.0 138.0 73.0 C138.0 73.0 138.0 73.0 138.0 73.0 C138.0 73.0 138.0 73.0 138.0 73.0 C138.0 73.0 138.0 73.0 138.0 73.0 C138.0 73.0 138.0 73.0 138.0 73.0 C138.0 73.0 138.0 73.0 138.0 73.0 C138.0 73.0 138.0 73.0 138.0 73.0 C138.0 73.0 138.0 73.0 138.0 73.0 C138.0 73.0 138.0 73.0 138.0 73.0 C138.0 73.0 138.0 73.0 138.0 73.0 C138.0 73.0 138.0 73.0 138.0 73.0 C138.0 73.0 138.0 73.0 138.0 73.0 C138.0 73.0 138.0 73.0 138.0 73.0 C138.0 73.0 138.0 73.0 138.0 73.0 C138.0 73.0 138.0 73.0 138.0 73.0 C138.0 73.0 138.0 73.0 138.0 73.0 C138.0 73.0 138.0 73.0 138.0 73.0 C138.0 73.0 138.0 73.0 138.0 73.0 C138.0 73.0 138.0 73.0 138.0 73.0 C138.0 73.0 138.0 73.0 138.0 73.0 C138.0 73.0 138.0 73.0 138.0 73.0 C138.0 73.0 138.0 73.0 138.0 73.0 C138.0 73.0 138.0 73.0 138.0 73.0 C138.0 73.0 138.0 73.0 138.0 73.0 C138.0 73.0 138.0 73.0 138.0 73.0 C138.0 73.0 138.0 73.0 138.0 73.0 C138.0 73.0 138.0 73.0 138.0 73.0 C138.0 73.0 138.0 73.0 138.0 73.0 C138.0 73.0 138.0 73.0 138.0 73.0 C138.0 73.0 138.0 73.0 138.0 73.0 C138.0 73.0 138.0 73.0 138.0 73.0 C138.0 73.0 138.0 73.0 138.0 73.0 C138.0 73.0 138.0 73.0 138.0 73.0 C138.0 73.0 138.0 73.0 138.0 73.0 C138.0 73.0 138.0 73.0 138.0 73.0 C138.0 73.0 138.0 73.0 138.0 73.0 C138.0 73.0 138.0 73.0 138.0 73.0 C138.0 73.0 138.0 73.0 138.0 73.0 C138.0 73.0 138.0 73.0 138.0 73.0 C138.0 73.0 138.0 73.0 138.0 73.0 C138.0 73.0 138.0 73.0 138.0 73.0 C138.0 73.0 138.0 73.0 138.0 73.0 C138.0 73.0 138.0 73.0 138.0 73.0 C138.0 73.0 138.0 73.0 138.0 73.0 C138.0 73.0 138.0 73.0 138.0 73.0 C138.0 73.0 138.0 73.0 138.0 73.0 C138.0 73.0 138.0 73.0 138.0 73.0 C138.0 73.0 138.0 73.0 138.0 73.0 C138.0 73.0 138.0 73.0 138.0 73.0 C138.0 73.0 138.0 73.0 138.0 73.0 C138.0 73.0 138.0 73.0 138.0 73.0 C138.0 73.0 138.0 73.0 138.0 73.0 C138.0 73.0 138.0 73.0 138.0 73.0 C138.0 73.0 138.0 73.0 138.0 73.0 C138.0 73.0 138.0 73.0 138.0 73.0 C138.0 73.0 138.0 73.0 138.0 73.0 C138.0 73.0 138.0 73.0 138.0 73.0 C138.0 73.0 138.0 73.0 138.0 73.0 C138.0 73.0 138.0 73.0 138.0 73.0 C138.0 73.0 138.0 73.0 138.0 73.0 C138.0 73.0 138.0 73.0 138.0 73.0 C138.0 73.0 138.0 73.0 138.0 73.0 C138.0 73.0 138.0 73.0 138.0 73.0 C138.0 73.0 138.0 73.0 138.0 73.0 C138.0 73.0 138.0 73.0 138.0 73.0 C138.0 73.0 138.0 73.0 138.0 73.0 C138.0 73.0 138.0 73.0 138.0 73.0 C138.0 73.0 138.0 73.0 138.0 73.0 C138.0 73.0 138.0 73.0 138.0 73.0 C138.0 73.0 138.0 73.0 138.0 73.0 C138.0 73.0 138.0 73.0 138.0 73.0 C138.0 73.0 138.0 73.0 138.0 73.0 C138.0 73.0 138.0 73.0 138.0 73.0 C138.0 73.0 138.0 73.0 138.0 73.0 C138.0 73.0 138.0 73.0 138.0 73.0 C138.0 73.0 138.0 73.0 138.0 73.0 C138.0 73.0 138.0 73.0 138.0 73.0 C138.0 73.0 138.0 73.0 138.0 73.0 C138.0 73.0 138.0 73.0 138.0 73.0 C138.0 73.0 138.0 73.0 138.0 73.0 C138.0 73.0 138.0 73.0 138.0 73.0 C138.0 73.0 138.0 73.0 138.0 73.0 C138.0 73.0 138.0 73.0 138.0 73.0 C138.0 73.0 138.0 73.0 138.0 73.0 C138.0 73.0 138.0 73.0 138.0 73.0 C138.0 73.0 138.0 73.0 138.0 73.0 C138.0 73.0 138.0 73.0 138.0 73.0 C138.0 73.0 138.0 73.0 138.0 73.0 C138.0 73.0 138.0 73.0 138.0 73.0 C138.0 73.0 138.0 73.0 138.0 73.0 C138.0 73.0 138.0 73.0 138.0 73.0 C138.0 73.0 138.0 73.0 138.0 73.0 C138.0 73.0 138.0 73.0 138.0 73.0 C138.0 73.0 138.0 73.0 138.0 73.0 C138.0 73.0 138.0 73.0 138.0 73.0 C138.0 73.0 138.0 73.0 138.0 73.0 C138.0 73.0 138.0 73.0 138.0 73.0 C138.0 73.0 138.0 73.0 138.0 73.0 C138.0 73.0 138.0 73.0 138.0 73.0 C138.0 73.0 138.0 73.0 138.0 73.0 C138.0 73.0 138.0 73.0 138.0 73.0 C138.0 73.0 138.0 73.0 138.0 73.0 C138.0 73.0 138.0 73.0 138.0 73.0 C138.0 73.0 138.0 73.0 138.0 73.0 C138.0 73.0 138.0 73.0 138.0 73.0 C138.0 73.0 138.0 73.0 138.0 73.0 C138.0 73.0 138.0 73.0 138.0 73.0 C138.0 73.0 138.0 73.0 138.0 73.0 C138.0 73.0 138.0 73.0 138.0 73.0 C138.0 73.0 138.0 73.0 138.0 73.0 C138.0 73.0 138.0 73.0 138.0 73.0 C138.0 73.0 138.0 73.0 138.0 73.0 C138.0 73.0 138.0 73.0 138.0 73.0 C138.0 73.0 138.0 73.0 138.0 73.0 C138.0 73.0 138.0 73.0 138.0 73.0 C138.0 73.0 138.0 73.0 138.0 73.0 C138.0 73.0 138.0 73.0 138.0 73.0 C138.0 73.0 138.0 73.0 138.0 73.0 C138.0 73.0 138.0 73.0 138.0 73.0 C138.0 73.0 138.0 73.0 138.0 73.0 C138.0 73.0 138.0 73.0 138.0 73.0 C138.0 73.0 138.0 73.0 138.0 73.0 C138.0 73.0 138.0 73.0 138.0 73.0 C138.0 73.0 138.0 73.0 138.0 73.0 C138.0 73.0 138.0 73.0 138.0 73.0 C138.0 73.0 138.0 73.0 138.0 73.0 C138.0 73.0 138.0 73.0 138.0 73.0 C138.0 73.0 138.0 73.0 138.0 73.0 C138.0 73.0 138.0 73.0 138.0 73.0 C138.0 73.0 138.0 73.0 138.0 73.0 C138.0 73.0 138.0 73.0 138.0 73.0 C138.0 73.0 138.0 73.0 138.0 73.0 C138.0 73.0 138.0 73.0 138.0 73.0 C138.0 73.0 138.0 73.0 138.0 73.0 C138.0 73.0 138.0 73.0 138.0 73.0 C138.0 73.0 138.0 73.0 138.0 73.0 C138.0 73.0 138.0 73.0 138.0 73.0 C138.0 73.0 138.0 73.0 138.0 73.0 C138.0 73.0 138.0 73.0 138.0 73.0 C138.0 73.0 138.0 73.0 138.0 73.0 C138.0 73.0 138.0 73.0 138.0 73.0 C138.0 73.0 138.0 73.0 138.0 73.0 C138.0 73.0 138.0 73.0 138.0 73.0 C138.0 73.0 138.0 73.0 138.0 73.0 C138.0 73.0 138.0 73.0 138.0 73.0 C138.0 73.0 138.0 73.0 138.0 73.0 C138.0 73.0 138.0 73.0 138.0 73.0 C138.0 73.0 138.0 73.0 138.0 73.0 C138.0 73.0 138.0 73.0 138.0 73.0 C138.0 73.0 138.0 73.0 138.0 73.0 C138.0 73.0 138.0 73.0 138.0 73.0 C138.0 73.0 138.0 73.0 138.0 73.0 C138.0 73.0 138.0 73.0 138.0 73.0 C138.0 73.0 138.0 73.0 138.0 73.0 C138.0 73.0 138.0 73.0 138.0 73.0 C138.0 73.0 138.0 73.0 138.0 73.0 C138.0 73.0 138.0 73.0 138.0 73.0 C138.0 73.0 138.0 73.0 138.0 73.0 C138.0 73.0 138.0 73.0 138.0 73.0 C138.0 73.0 138.0 73.0 138.0 73.0 C138.0 73.0 138.0 73.0 138.0 73.0 C138.0 73.0 138.0 73.0 138.0 73.0 C138.0 73.0 138.0 73.0 138.0 73.0 C138.0 73.0 138.0 73.0 138.0 73.0 C138.0 73.0 138.0 73.0 138.0 73.0 C138.0 73.0 138.0 73.0 138.0 73.0 C138.0 73.0 138.0 73.0 138.0 73.0 C138.0 73.0 138.0 73.0 138.0 73.0 C138.0 73.0 138.0 73.0 138.0 73.0 C138.0 73.0 138.0 73.0 138.0 73.0 C138.0 73.0 138.0 73.0 138.0 73.0 C138.0 73.0 138.0 73.0 138.0 73.0 C138.0 73.0 138.0 73.0 138.0 73.0 C138.0 73.0 138.0 73.0 138.0 73.0 C138.0 73.0 138.0 73.0 138.0 73.0 C138.0 73.0 138.0 73.0 138.0 73.0 C138.0 73.0 138.0 73.0 138.0 73.0 C138.0 73.0 138.0 73.0 138.0 73.0 C138.0 73.0 138.0 73.0 138.0 73.0 C138.0 73.0 138.0 73.0 138.0 73.0 C138.0 73.0 138.0 73.0 138.0 73.0 C138.0 73.0 138.0 73.0 138.0 73.0 C138.0 73.0 138.0 73.0 138.0 73.0 C138.0 73.0 138.0 73.0 138.0 73.0 C138.0 73.0 138.0 73.0 138.0 73.0 C138.0 73.0 138.0 73.0 138.0 73.0 C138.0 73.0 138.0 73.0 138.0 73.0 C138.0 73.0 138.0 73.0 138.0 73.0 C138.0 73.0 138.0 73.0 138.0 73.0 C138.0 73.0 138.0 73.0 138.0 73.0 C138.0 73.0 138.0 73.0 138.0 73.0 C138.0 73.0 138.0 73.0 138.0 73.0 C138.0 73.0 138.0 73.0 138.0 73.0 C138.0 73.0 138.0 73.0 138.0 73.0 C138.0 73.0 138.0 73.0 138.0 73.0 C138.0 73.0 138.0 73.0 138.0 73.0 C138.0 73.0 138.0 73.0 138.0 73.0 C138.0 73.0 138.0 73.0 138.0 73.0 C138.0 73.0 138.0 73.0 138.0 73.0 C138.0 73.0 138.0 73.0 138.0 73.0 C138.0 73.0 138.0 73.0 138.0 73.0 C138.0 73.0 138.0 73.0 138.0 73.0 C138.0 73.0 138.0 73.0 138.0 73.0 C138.0 73.0 138.0 73.0 138.0 73.0 C138.0 73.0 138.0 73.0 138.0 73.0 C138.0 73.0 138.0 73.0 138.0 73.0 C138.0 73.0 138.0 73.0 138.0 73.0 C138.0 73.0 138.0 73.0 138.0 73.0 C138.0 73.0 138.0 73.0 138.0 73.0 C138.0 73.0 138.0 73.0 138.0 73.0 C138.0 73.0 138.0 73.0 138.0 73.0 C138.0 73.0 138.0 73.0 138.0 73.0 C138.0 73.0 138.0 73.0 138.0 73.0 C138.0 73.0 138.0 73.0 138.0 73.0 C138.0 73.0 138.0 73.0 138.0 73.0 C138.0 73.0 138.0 73.0 138.0 73.0 C138.0 73.0 138.0 73.0 138.0 73.0 C138.0 73.0 138.0 73.0 138.0 73.0 C138.0 73.0 138.0 73.0 138.0 73.0 C138.0 73.0 138.0 73.0 138.0 73.0 C138.0 73.0 138.0 73.0 138.0 73.0 C138.0 73.0 138.0 73.0 138.0 73.0 C138.0 73.0 138.0 73.0 138.0 73.0 C138.0 73.0 138.0 73.0 138.0 73.0 C138.0 73.0 138.0 73.0 138.0 73.0 C138.0 73.0 138.0 73.0 138.0 73.0 C138.0 73.0 138.0 73.0 138.0 73.0 C138.0 73.0 138.0 73.0 138.0 73.0 C138.0 73.0 138.0 73.0 138.0 73.0 C138.0 73.0 138.0 73.0 138.0 73.0"></path></svg>