<svg xmlns="http://www.w3.org/2000/svg" viewBox="0.0 0.0 200.0 200.0" height="200px" width="200px"><path fill="#cc5544" fill-opacity="1.0"  filling="0" d="M102.0 118.0 L98.0 118.0 C93.0 118.0 88.0 118.0 85.0 117.0 C84.0 117.0 83.0 117.0 82.0 117.0 C78.0 118.0 75.0 121.0 72.0 123.0 C70.0 126.0 68.0 129.0 66.0 130.0 C64.0 130.0 63.0 130.0 62.0 129.0 C62.0 126.0 61.0 123.0 61.0 120.0 C60.0 116.0 60.0 112.0 59.0 109.0 C59.0 108.0 60.0 106.0 60.0 104.0 C63.0 98.0 69.0 93.0 74.0 88.0 C75.0 86.0 76.0 85.0 77.0 84.0 C78.0 83.0 78.0 82.0 78.0 81.0 C77.0 78.0 77.0 76.0 78.0 73.0 C78.0 70.0 78.0 67.0 78.0 64.0 C79.0 62.0 79.0 61.0 80.0 59.0 C80.0 57.0 81.0 55.0 82.0 53.0 C83.0 51.0 84.0 49.0 85.0 47.0 C87.0 45.0 88.0 43.0 90.0 41.0 C91.0 40.0 93.0 39.0 95.0 38.0 C96.0 37.0 98.0 36.0 100.0 36.0 C102.0 36.0 104.0 37.0 105.0 38.0 C107.0 39.0 109.0 40.0 110.0 41.0 C112.0 43.0 113.0 45.0 115.0 47.0 C116.0 49.0 117.0 51.0 118.0 53.0 C119.0 55.0 120.0 57.0 120.0 59.0 C121.0 61.0 121.0 62.0 122.0 64.0 C122.0 67.0 122.0 70.0 122.0 73.0 C123.0 76.0 123.0 78.0 122.0 81.0 C122.0 82.0 122.0 83.0 123.0 84.0 C124.0 85.0 125.0 86.0 126.0 88.0 C131.0 93.0 137.0 98.0 140.0 104.0 C140.0 106.0 141.0 108.0 141.0 109.0 C140.0 112.0 140.0 116.0 139.0 120.0 C139.0 123.0 138.0 126.0 138.0 129.0 C137.0 130.0 136.0 130.0 134.0 130.0 C132.0 129.0 130.0 126.0 128.0 123.0 C125.0 121.0 122.0 118.0 118.0 117.0 C117.0 117.0 116.0 117.0 115.0 117.0 C112.0 118.0 107.0 118.0 102.0 118.0 L102.0 118.0 Z"></path>
<path fill="#ddbb44" fill-opacity="1.0"  filling="0" d="M100.0 146.0 C98.0 146.0 96.0 144.0 95.0 142.0 C94.0 141.0 94.0 139.0 94.0 138.0 C94.0 137.0 94.0 136.0 94.0 135.0 C94.0 134.0 94.0 134.0 94.0 134.0 C94.0 132.0 95.0 130.0 96.0 128.0 C97.0 127.0 99.0 126.0 100.0 126.0 C101.0 126.0 103.0 127.0 104.0 128.0 C105.0 130.0 106.0 132.0 106.0 134.0 C106.0 134.0 106.0 134.0 106.0 135.0 C106.0 136.0 106.0 137.0 106.0 138.0 C106.0 139.0 106.0 141.0 105.0 142.0 C104.0 144.0 102.0 146.0 100.0 146.0 L100.0 146.0 Z"></path>
<path fill="#000000" fill-opacity="1.0"  filling="0" d="M100.0 120.0 C98.0 120.0 96.0 120.0 94.0 120.0 C91.0 120.0 88.0 120.0 86.0 119.0 C86.0 119.0 86.0 119.0 86.0 119.0 C86.0 119.0 86.0 119.0 86.0 119.0 C86.0 119.0 86.0 119.0 86.0 119.0 C86.0 119.0 86.0 119.0 86.0 119.0 C86.0 119.0 86.0 119.0 86.0 119.0 C86.0 119.0 86.0 119.0 86.0 119.0 C86.0 119.0 86.0 119.0 86.0 119.0 C86.0 119.0 86.0 119.0 86.0 119.0 C86.0 119.0 86.0 119.0 86.0 119.0 C86.0 119.0 86.0 119.0 86.0 119.0 C86.0 119.0 86.0 119.0 86.0 119.0 C86.0 119.0 86.0 119.0 86.0 119.0 C86.0 119.0 86.0 119.0 86.0 119.0 C86.0 119.0 86.0 119.0 86.0 119.0 C86.0 119.0 86.0 119.0 86.0 119.0 C86.0 119.0 86.0 119.0 86.0 119.0 C86.0 119.0 86.0 119.0 86.0 119.0 C86.0 119.0 86.0 119.0 86.0 119.0 C86.0 119.0 86.0 119.0 86.0 119.0 C86.0 119.0 86.0 119.0 86.0 119.0 C86.0 119.0 86.0 119.0 86.0 119.0 C86.0 119.0 86.0 119.0 86.0 119.0 C86.0 119.0 86.0 119.0 86.0 119.0 C86.0 119.0 86.0 119.0 86.0 119.0 C86.0 119.0 86.0 119.0 86.0 119.0 C86.0 119.0 86.0 119.0 86.0 119.0 C86.0 119.0 86.0 119.0 86.0 119.0 C86.0 119.0 86.0 119.0 86.0 119.0 C86.0 119.0 86.0 119.0 86.0 119.0 C86.0 119.0 86.0 119.0 86.0 119.0 C86.0 119.0 86.0 119.0 86.0 119.0 C86.0 119.0 86.0 119.0 86.0 119.0 C86.0 119.0 86.0 119.0 86.0 119.0 C86.0 119.0 86.0 119.0 86.0 119.0 C86.0 119.0 86.0 119.0 86.0 119.0 C86.0 119.0 86.0 119.0 86.0 119.0 C86.0 119.0 86.0 119.0 86.0 119.0 C86.0 119.0 86.0 119.0 86.0 119.0 C86.0 119.0 86.0 119.0 86.0 119.0 C86.0 119.0 86.0 119.0 86.0 119.0 C86.0 119.0 86.0 119.0 86.0 119.0 C86.0 119.0 86.0 119.0 86.0 119.0 C86.0 119.0 86.0 119.0 86.0 119.0 C86.0 119.0 86.0 119.0 86.0 119.0 C86.0 119.0 86.0 119.0 86.0 119.0 C86.0 119.0 86.0 119.0 86.0 119.0 C86.0 119.0 86.0 119.0 86.0 119.0 C86.0 119.0 86.0 119.0 86.0 119.0 C86.0 119.0 86.0 119.0 86.0 119.0 C86.0 119.0 86.0 119.0 86.0 119.0 C86.0 119.0 86.0 119.0 86.0 119.0 C86.0 119.0 86.0 119.0 86.0 119.0 C86.0 119.0 86.0 119.0 86.0 119.0 C86.0 119.0 86.0 119.0 86.0 119.0 C86.0 119.0 86.0 119.0 86.0 119.0 C86.0 119.0 86.0 119.0 86.0 119.0 C86.0 119.0 86.0 119.0 86.0 119.0 C86.0 119.0 86.0 119.0 86.0 119.0 C86.0 119.0 86.0 119.0 86.0 119.0 C86.0 119.0 86.0 119.0 86.0 119.0 C86.0 119.0 86.0 119.0 86.0 119.0 C86.0 119.0 86.0 119.0 86.0 119.0 C86.0 119.0 86.0 119.0 86.0 119.0 C86.0 119.0 86.0 119.0 86.0 119.0 C86.0 119.0 86.0 119.0 86.0 119.0 C86.0 119.0 86.0 119.0 86.0 119.0 C86.0 119.0 86.0 119.0 86.0 119.0 C86.0 119.0 86.0 119.0 86.0 119.0 C86.0 119.0 86.0 119.0 86.0 119.0 C86.0 119.0 86.0 119.0 86.0 119.0 C86.0 119.0 86.0 119.0 86.0 119.0 C86.0 119.0 86.0 119.0 86.0 119.0 C86.0 119.0 86.0 119.0 86.0 119.0 C86.0 119.0 86.0 119.0 86.0 119.0 C86.0 119.0 86.0 119.0 86.0 119.0 C86.0 119.0 86.0 119.0 86.0 119.0 C86.0 119.0 86.0 119.0 86.0 119.0 C86.0 119.0 86.0 119.0 86.0 119.0 C86.0 119.0 86.0 119.0 86.0 119.0 C86.0 119.0 86.0 119.0 86.0 119.0 C86.0 119.0 86.0 119.0 86.0 119.0 C86.0 119.0 86.0 119.0 86.0 119.0 C86.0 119.0 86.0 119.0 86.0 119.0 C86.0 119.0 86.0 119.0 86.0 119.0 C86.0 119.0 86.0 119.0 86.0 119.0 C86.0 119.0 86.0 119.0 86.0 119.0 C86.0 119.0 86.0 119.0 86.0 119.0 C86.0 119.0 86.0 119.0 86.0 119.0 C86.0 119.0 86.0 119.0 86.0 119.0 C86.0 119.0 86.0 119.0 86.0 119.0 C86.0 119.0 86.0 119.0 86.0 119.0 C86.0 119.0 86.0 119.0 86.0 119.0 C86.0 119.0 86.0 119.0 86.0 119.0 C86.0 119.0 86.0 119.0 86.0 119.0 C86.0 119.0 86.0 119.0 86.0 119.0 C86.0 119.0 86.0 119.0 86.0 119.0 C86.0 119.0 86.0 119.0 86.0 119.0 C86.0 119.0 86.0 119.0 86.0 119.0 C86.0 119.0 86.0 119.0 86.0 119.0 C86.0 119.0 86.0 119.0 86.0 119.0 C86.0 119.0 86.0 119.0 86.0 119.0 C86.0 119.0 86.0 119.0 86.0 119.0 C86.0 119.0 86.0 119.0 86.0 119.0 C86.0 119.0 86.0 119.0 86.0 119.0 C86.0 119.0 86.0 119.0 86.0 119.0 C86.0 119.0 86.0 119.0 86.0 119.0 C86.0 119.0 86.0 119.0 86.0 119.0 C86.0 119.0 86.0 119.0 86.0 119.0 C86.0 119.0 86.0 119.0 86.0 119.0 C86.0 119.0 86.0 119.0 86.0 119.0 C86.0 119.0 86.0 119.0 86.0 119.0 C86.0 119.0 86.0 119.0 86.0 119.0 C86.0 119.0 86.0 119.0 86.0 119.0 C86.0 119.0 86.0 119.0 86.0 119.0 C86.0 119.0 86.0 119.0 86.0 119.0 C86.0 119.0 86.0 119.0 86.0 119.0 C86.0 119.0 86.0 119.0 86.0 119.0 C86.0 119.0 86.0 119.0 86.0 119.0 C86.0 119.0 86.0 119.0 86.0 119.0 C86.0 119.0 86.0 119.0 86.0 119.0 C86.0 119.0 86.0 119.0 86.0 119.0 C86.0 119.0 86.0 119.0 86.0 119.0 C86.0 119.0 86.0 119.0 86.0 119.0 C86.0 119.0 86.0 119.0 86.0 119.0 C86.0 119.0 86.0 119.0 86.0 119.0 C86.0 119.0 86.0 119.0 86.0 119.0 C86.0 119.0 86.0 119.0 86.0 119.0 C86.0 119.0 86.0 119.0 86.0 119.0 C86.0 119.0 86.0 119.0 86.0 119.0 C86.0 119.0 86.0 119.0 86.0 119.0 C86.0 119.0 86.0 119.0 86.0 119.0 C86.0 119.0 86.0 119.0 86.0 119.0 C86.0 119.0 86.0 119.0 86.0 119.0 C86.0 119.0 86.0 119.0 86.0 119.0 C86.0 119.0 86.0 119.0 86.0 119.0 C86.0 119.0 86.0 119.0 86.0 119.0 C86.0 119.0 86.0 119.0 86.0 119.0 C86.0 119.0 86.0 119.0 86.0 119.0 C86.0 119.0 86.0 119.0 86.0 119.0 C86.0 119.0 86.0 119.0 86.0 119.0 C86.0 119.0 86.0 119.0 86.0 119.0 C86.0 119.0 86.0 119.0 86.0 119.0 C86.0 119.0 86.0 119.0 86.0 119.0 C86.0 119.0 86.0 119.0 86.0 119.0 C86.0 119.0 86.0 119.0 86.0 119.0 C86.0 119.0 86.0 119.0 86.0 119.0 C86.0 119.0 86.0 119.0 86.0 119.0 C86.0 119.0 86.0 119.0 86.0 119.0 C86.0 119.0 86.0 119.0 86.0 119.0 C86.0 119.0 86.0 119.0 86.0 119.0 C86.0 119.0 86.0 119.0 86.0 119.0 C86.0 119.0 86.0 119.0 86.0 119.0 C86.0 119.0 86.0 119.0 86.0 119.0 C86.0 119.0 86.0 119.0 86.0 119.0 C86.0 119.0 86.0 119.0 86.0 119.0 C86.0 119.0 86.0 119.0 86.0 119.0 C86.0 119.0 86.0 119.0 86.0 119.0 C86.0 119.0 86.0 119.0 86.0 119.0 C86.0 119.0 86.0 119.0 86.0 119.0 C86.0 119.0 86.0 119.0 86.0 119.0 C86.0 119.0 86.0 119.0 86.0 119.0 C86.0 119.0 86.0 119.0 86.0 119.0 C86.0 119.0 86.0 119.0 86.0 119.0 C86.0 119.0 86.0 119.0 86.0 119.0 C86.0 119.0 86.0 119.0 86.0 119.0 C86.0 119.0 86.0 119.0 86.0 119.0 C86.0 119.0 86.0 119.0 86.0 119.0 C86.0 119.0 86.0 119.0 86.0 119.0 C86.0 119.0 86.0 119.0 86.0 119.0 C86.0 119.0 86.0 119.0 86.0 119.0 C86.0 119.0 86.0 119.0 86.0 119.0 C86.0 119.0 86.0 119.0 86.0 119.0 C86.0 119.0 86.0 119.0 86.0 119.0 C86.0 119.0 86.0 119.0 86.0 119.0 C86.0 119.0 86.0 119.0 86.0 119.0 C86.0 119.0 86.0 119.0 86.0 119.0 C86.0 119.0 86.0 119.0 86.0 119.0 C86.0 119.0 86.0 119.0 86.0 119.0 C86.0 119.0 86.0 119.0 86.0 119.0 C86.0 119.0 86.0 119.0 86.0 119.0 C86.0 119.0 86.0 119.0 86.0 119.0 C86.0 119.0 86.0 119.0 86.0 119.0 C86.0 119.0 86.0 119.0 86.0 119.0 C86.0 119.0 86.0 119.0 86.0 119.0 C86.0 119.0 86.0 119.0 86.0 119.0 C86.0 119.0 86.0 119.0 86.0 119.0 C86.0 119.0 86.0 119.0 86.0 119.0 C86.0 119.0 86.0 119.0 86.0 119.0 C86.0 119.0 86.0 119.0 86.0 119.0 C86.0 119.0 86.0 119.0 86.0 119.0 C86.0 119.0 86.0 119.0 86.0 119.0 C86.0 119.0 86.0 119.0 86.0 119.0 C86.0 119.0 86.0 119.0 86.0 119.0 C86.0 119.0 86.0 119.0 86.0 119.0 C86.0 119.0 86.0 119.0 86.0 119.0 C86.0 119.0 86.0 119.0 86.0 119.0 C86.0 119.0 86.0 119.0 86.0 119.0 C86.0 119.0 86.0 119.0 86.0 119.0 C86.0 119.0 86.0 119.0 86.0 119.0 C86.0 119.0 86.0 119.0 86.0 119.0 C86.0 119.0 86.0 119.0 86.0 119.0 C86.0 119.0 86.0 119.0 86.0 119.0 C86.0 119.0 86.0 119.0 86.0 119.0 C86.0 119.0 86.0 119.0 86.0 119.0 C86.0 119.0 86.0 119.0 86.0 119.0 C86.0 119.0 86.0 119.0 86.0 119.0 C86.0 119.0 86.0 119.0 86.0 119.0 C86.0 119.0 86.0 119.0 86.0 119.0 C86.0 119.0 86.0 119.0 86.0 119.0 C86.0 119.0 86.0 119.0 86.0 119.0 C86.0 119.0 86.0 119.0 86.0 119.0 C86.0 119.0 86.0 119.0 86.0 119.0 C86.0 119.0 86.0 119.0 86.0 119.0 C86.0 119.0 86.0 119.0 86.0 119.0 C86.0 119.0 86.0 119.0 86.0 119.0 C86.0 119.0 86.0 119.0 86.0 119.0 C86.0 119.0 86.0 119.0 86.0 119.0 C86.0 119.0 86.0 119.0 86.0 119.0 C86.0 119.0 86.0 119.0 86.0 119.0 C86.0 119.0 86.0 119.0 86.0 119.0 C86.0 119.0 86.0 119.0 86.0 119.0 C86.0 119.0 86.0 119.0 86.0 119.0 C86.0 119.0 86.0 119.0 86.0 119.0 C86.0 119.0 86.0 119.0 86.0 119.0 C86.0 119.0 86.0 119.0 86.0 119.0 C86.0 119.0 86.0 119.0 86.0 119.0 C86.0 119.0 86.0 119.0 86.0 119.0 C86.0 119.0 86.0 119.0 86.0 119.0 C86.0 119.0 86.0 119.0 86.0 119.0 C86.0 119.0 86.0 119.0 86.0 119.0 C86.0 119.0 86.0 119.0 86.0 119.0 C86.0 119.0 86.0 119.0 86.0 119.0 C86.0 119.0 86.0 119.0 86.0 119.0 C86.0 119.0 86.0 119.0 86.0 119.0 C86.0 119.0 86.0 119.0 86.0 119.0 C86.0 119.0 86.0 119.0 86.0 119.0 C86.0 119.0 86.0 119.0 86.0 119.0 C86.0 119.0 86.0 119.0 86.0 119.0 C86.0 119.0 86.0 119.0 86.0 119.0 C86.0 119.0 86.0 119.0 86.0 119.0 C86.0 119.0 86.0 119.0 86.0 119.0 C86.0 119.0 86.0 119.0 86.0 119.0 C86.0 119.0 86.0 119.0 86.0 119.0 C86.0 119.0 86.0 119.0 86.0 119.0 C86.0 119.0 86.0 119.0 86.0 119.0 C86.0 119.0 86.0 119.0 86.0 119.0 C86.0 119.0 86.0 119.0 86.0 119.0 C86.0 119.0 86.0 119.0 86.0 119.0 C86.0 119.0 86.0 119.0 86.0 119.0 C86.0 119.0 86.0 119.0 86.0 119.0 C86.0 119.0 86.0 119.0 86.0 119.0 C86.0 119.0 86.0 119.0 86.0 119.0 C86.0 119.0 86.0 119.0 86.0 119.0 C86.0 119.0 86.0 119.0 86.0 119.0 C86.0 119.0 86.0 119.0 86.0 119.0 C86.0 119.0 86.0 119.0 86.0 119.0 C86.0 119.0 86.0 119.0 86.0 119.0 C86.0 119.0 86.0 119.0 86.0 119.0 C86.0 119.0 86.0 119.0 86.0 119.0 C86.0 119.0 86.0 119.0 86.0 119.0 C86.0 119.0 86.0 119.0 86.0 119.0 C86.0 119.0 86.0 119.0 86.0 119.0 C86.0 119.0 86.0 119.0 86.0 119.0 C86.0 119.0 86.0 119.0 86.0 119.0 C86.0 119.0 86.0 119.0 86.0 119.0 C86.0 119.0 86.0 119.0 86.0 119.0 C86.0 119.0 86.0 119.0 86.0 119.0 C86.0 119.0 86.0 119.0 86.0 119.0 C86.0 119.0 86.0 119.0 86.0 119.0 C86.0 119.0 86.0 119.0 86.0 119.0 C86.0 119.0 86.0 119.0 86.0 119.0 C86.0 119.0 86.0 119.0 86.0 119.0 C86.0 119.0 86.0 119.0 86.0 119.0 C86.0 119.0 86.0 119.0 86.0 119.0 C86.0 119.0 86.0 119.0 86.0 119.0 C86.0 119.0 86.0 119.0 86.0 119.0 C86.0 119.0 86.0 119.0 86.0 119.0 C86.0 119.0 86.0 119.0 86.0 119.0 C86.0 119.0 86.0 119.0 86.0 119.0 C86.0 119.0 86.0 119.0 86.0 119.0 C86.0 119.0 86.0 119.0 86.0 119.0 C86.0 119.0 86.0 119.0 86.0 119.0 C86.0 119.0 86.0 119.0 86.0 119.0 C86.0 119.0 86.0 119.0 86.0 119.0 C86.0 119.0 86.0 119.0 86.0 119.0 C86.0 119.0 86.0 119.0 86.0 119.0 C86.0 119.0 86.0 119.0 86.0 119.0 C86.0 119.0 86.0 119.0 86.0 119.0 C86.0 119.0 86.0 119.0 86.0 119.0 C86.0 119.0 86.0 119.0 86.0 119.0 C86.0 119.0 86.0 119.0 86.0 119.0 C86.0 119.0 86.0 119.0 86.0 119.0 C86.0 119.0 86.0 119.0 86.0 119.0 C86.0 119.0 86.0 119.0 86.0 119.0 C86.0 119.0 86.0 119.0 86.0 119.0 C86.0 119.0 86.0 119.0 86.0 119.0 C86.0 119.0 86.0 119.0 86.0 119.0 C86.0 119.0 86.0 119.0 86.0 119.0 C86.0 119.0 86.0 119.0 86.0 119.0 C86.0 119.0 86.0 119.0 86.0 119.0 C86.0 119.0 86.0 119.0 86.0 119.0 C86.0 119.0 86.0 119.0 86.0 119.0 C86.0 119.0 86.0 119.0 86.0 119.0 C86.0 119.0 86.0 119.0 86.0 119.0 C86.0 119.0 86.0 119.0 86.0 119.0 C86.0 119.0 86.0 119.0 86.0 119.0 C86.0 119.0 86.0 119.0 86.0 119.0 C86.0 119.0 86.0 119.0 86.0 119.0 C86.0 119.0 86.0 119.0 86.0 119.0 C86.0 119.0 86.0 119.0 86.0 119.0 C86.0 119.0 86.0 119.0 86.0 119.0 C86.0 119.0 86.0 119.0 86.0 119.0 C86.0 119.0 86.0 119.0 86.0 119.0 C86.0 119.0 86.0 119.0 86.0 119.0 C86.0 119.0 86.0 119.0 86.0 119.0 C86.0 119.0 86.0 119.0 86.0 119.0 C86.0 119.0 86.0 119.0 86.0 119.0 C86.0 119.0 86.0 119.0 86.0 119.0 C86.0 119.0 86.0 119.0 86.0 119.0 C86.0 119.0 86.0 119.0 86.0 119.0 C86.0 119.0 86.0 119.0 86.0 119.0 C86.0 119.0 86.0 119.0 86.0 119.0 C86.0 119.0 86.0 119.0 86.0 119.0"></path></svg>