<svg xmlns="http://www.w3.org/2000/svg" viewBox="0.0 0.0 200.0 200.0" height="200px" width="200px"><path fill="#ffffee" fill-opacity="1.0"  filling="0" d="M102.0 118.0 L98.0 118.0 C93.0 118.0 89.0 118.0 85.0 117.0 C84.0 117.0 83.0 117.0 82.0 117.0 C78.0 118.0 75.0 121.0 73.0 123.0 C70.0 126.0 68.0 129.0 66.0 130.0 C64.0 130.0 63.0 130.0 62.0 128.0 C62.0 122.0 60.0 116.0 60.0 110.0 C59.0 108.0 60.0 106.0 61.0 104.0 C64.0 98.0 69.0 93.0 74.0 88.0 C75.0 86.0 76.0 85.0 77.0 84.0 C79.0 80.0 81.0 77.0 83.0 73.0 C83.0 72.0 84.0 71.0 84.0 70.0 C85.0 68.0 85.0 66.0 86.0 64.0 C87.0 64.0 87.0 63.0 87.0 63.0 C87.0 62.0 87.0 61.0 88.0 60.0 C89.0 59.0 90.0 58.0 91.0 56.0 C91.0 56.0 91.0 56.0 91.0 56.0 C91.0 56.0 91.0 56.0 91.0 56.0 C91.0 56.0 91.0 56.0 91.0 56.0 C91.0 56.0 91.0 56.0 91.0 56.0 C91.0 56.0 91.0 56.0 91.0 56.0 C91.0 56.0 91.0 56.0 91.0 56.0 C91.0 56.0 91.0 56.0 91.0 56.0 C91.0 56.0 91.0 56.0 91.0 56.0 C91.0 56.0 91.0 56.0 91.0 56.0 C91.0 56.0 91.0 56.0 91.0 56.0 C91.0 56.0 91.0 56.0 91.0 56.0 C91.0 56.0 91.0 56.0 91.0 56.0 C91.0 56.0 91.0 56.0 91.0 56.0 C91.0 56.0 91.0 56.0 91.0 56.0 C91.0 56.0 91.0 56.0 91.0 56.0 C91.0 56.0 91.0 56.0 91.0 56.0 C91.0 56.0 91.0 56.0 91.0 56.0 C91.0 56.0 91.0 56.0 91.0 56.0 C91.0 56.0 91.0 56.0 91.0 56.0 C91.0 56.0 91.0 56.0 91.0 56.0 C91.0 56.0 91.0 56.0 91.0 56.0 C91.0 56.0 91.0 56.0 91.0 56.0 C91.0 56.0 91.0 56.0 91.0 56.0 C91.0 56.0 91.0 56.0 91.0 56.0 C91.0 56.0 91.0 56.0 91.0 56.0 C91.0 56.0 91.0 56.0 91.0 56.0 C91.0 56.0 91.0 56.0 91.0 56.0 C91.0 56.0 91.0 56.0 91.0 56.0 C91.0 56.0 91.0 56.0 91.0 56.0 C91.0 56.0 91.0 56.0 91.0 56.0 C91.0 56.0 91.0 56.0 91.0 56.0 C91.0 56.0 91.0 56.0 91.0 56.0 C91.0 56.0 91.0 56.0 91.0 56.0 C91.0 56.0 91.0 56.0 91.0 56.0 C91.0 56.0 91.0 56.0 91.0 56.0 C91.0 56.0 91.0 56.0 91.0 56.0 C91.0 56.0 91.0 56.0 91.0 56.0 C91.0 56.0 91.0 56.0 91.0 56.0 C91.0 56.0 91.0 56.0 91.0 56.0 C91.0 56.0 91.0 56.0 91.0 56.0 C91.0 56.0 91.0 56.0 91.0 56.0 C91.0 56.0 91.0 56.0 91.0 56.0 C91.0 56.0 91.0 56.0 91.0 56.0 C91.0 56.0 91.0 56.0 91.0 56.0 C91.0 56.0 91.0 56.0 91.0 56.0 C91.0 56.0 91.0 56.0 91.0 56.0 C91.0 56.0 91.0 56.0 91.0 56.0 C91.0 56.0 91.0 56.0 91.0 56.0 C91.0 56.0 91.0 56.0 91.0 56.0 C91.0 56.0 91.0 56.0 91.0 56.0 C91.0 56.0 91.0 56.0 91.0 56.0 C91.0 56.0 91.0 56.0 91.0 56.0 C91.0 56.0 91.0 56.0 91.0 56.0 C91.0 56.0 91.0 56.0 91.0 56.0 C91.0 56.0 91.0 56.0 91.0 56.0 C91.0 56.0 91.0 56.0 91.0 56.0 C91.0 56.0 91.0 56.0 91.0 56.0 C91.0 56.0 91.0 56.0 91.0 56.0 C91.0 56.0 91.0 56.0 91.0 56.0 C91.0 56.0 91.0 56.0 91.0 56.0 C91.0 56.0 91.0 56.0 91.0 56.0 C91.0 56.0 91.0 56.0 91.0 56.0 C91.0 56.0 91.0 56.0 91.0 56.0 C91.0 56.0 91.0 56.0 91.0 56.0 C91.0 56.0 91.0 56.0 91.0 56.0 C91.0 56.0 91.0 56.0 91.0 56.0 C91.0 56.0 91.0 56.0 91.0 56.0 C91.0 56.0 91.0 56.0 91.0 56.0 C91.0 56.0 91.0 56.0 91.0 56.0 C91.0 56.0 91.0 56.0 91.0 56.0 C91.0 56.0 91.0 56.0 91.0 56.0 C91.0 56.0 91.0 56.0 91.0 56.0 C91.0 56.0 91.0 56.0 91.0 56.0 C91.0 56.0 91.0 56.0 91.0 56.0 C91.0 56.0 91.0 56.0 91.0 56.0 C91.0 56.0 91.0 56.0 91.0 56.0 C91.0 56.0 91.0 56.0 91.0 56.0 C91.0 56.0 91.0 56.0 91.0 56.0 C91.0 56.0 91.0 56.0 91.0 56.0 C91.0 56.0 91.0 56.0 91.0 56.0 C91.0 56.0 91.0 56.0 91.0 56.0 C91.0 56.0 91.0 56.0 91.0 56.0 C91.0 56.0 91.0 56.0 91.0 56.0 C91.0 56.0 91.0 56.0 91.0 56.0 C91.0 56.0 91.0 56.0 91.0 56.0 C91.0 56.0 91.0 56.0 91.0 56.0 C91.0 56.0 91.0 56.0 91.0 56.0 C91.0 56.0 91.0 56.0 91.0 56.0 C91.0 56.0 91.0 56.0 91.0 56.0 C91.0 56.0 91.0 56.0 91.0 56.0 C91.0 56.0 91.0 56.0 91.0 56.0 C91.0 56.0 91.0 56.0 91.0 56.0 C91.0 56.0 91.0 56.0 91.0 56.0 C91.0 56.0 91.0 56.0 91.0 56.0 C91.0 56.0 91.0 56.0 91.0 56.0 C91.0 56.0 91.0 56.0 91.0 56.0 C91.0 56.0 91.0 56.0 91.0 56.0 C91.0 56.0 91.0 56.0 91.0 56.0 C91.0 56.0 91.0 56.0 91.0 56.0 C91.0 56.0 91.0 56.0 91.0 56.0 C91.0 56.0 91.0 56.0 91.0 56.0 C91.0 56.0 91.0 56.0 91.0 56.0 C91.0 56.0 91.0 56.0 91.0 56.0 C91.0 56.0 91.0 56.0 91.0 56.0 C91.0 56.0 91.0 56.0 91.0 56.0 C91.0 56.0 91.0 56.0 91.0 56.0 C91.0 56.0 91.0 56.0 91.0 56.0 C91.0 56.0 91.0 56.0 91.0 56.0 C91.0 56.0 91.0 56.0 91.0 56.0 C91.0 56.0 91.0 56.0 91.0 56.0 C91.0 56.0 91.0 56.0 91.0 56.0 C91.0 56.0 91.0 56.0 91.0 56.0 C91.0 56.0 91.0 56.0 91.0 56.0 C91.0 56.0 91.0 56.0 91.0 56.0 C91.0 56.0 91.0 56.0 91.0 56.0 C91.0 56.0 91.0 56.0 91.0 56.0 C91.0 56.0 91.0 56.0 91.0 56.0 C91.0 56.0 91.0 56.0 91.0 56.0 C91.0 56.0 91.0 56.0 91.0 56.0 C91.0 56.0 91.0 56.0 91.0 56.0 C91.0 56.0 91.0 56.0 91.0 56.0 C91.0 56.0 91.0 56.0 91.0 56.0 C91.0 56.0 91.0 56.0 91.0 56.0 C91.0 56.0 91.0 56.0 91.0 56.0 C91.0 56.0 91.0 56.0 91.0 56.0 C91.0 56.0 91.0 56.0 91.0 56.0 C91.0 56.0 91.0 56.0 91.0 56.0 C91.0 56.0 91.0 56.0 91.0 56.0 C91.0 56.0 91.0 56.0 91.0 56.0 C91.0 56.0 91.0 56.0 91.0 56.0 C91.0 56.0 91.0 56.0 91.0 56.0 C91.0 56.0 91.0 56.0 91.0 56.0 C91.0 56.0 91.0 56.0 91.0 56.0 C91.0 56.0 91.0 56.0 91.0 56.0 C91.0 56.0 91.0 56.0 91.0 56.0 C91.0 56.0 91.0 56.0 91.0 56.0 C91.0 56.0 91.0 56.0 91.0 56.0 C91.0 56.0 91.0 56.0 91.0 56.0 C91.0 56.0 91.0 56.0 91.0 56.0 C91.0 56.0 91.0 56.0 91.0 56.0 C91.0 56.0 91.0 56.0 91.0 56.0 C91.0 56.0 91.0 56.0 91.0 56.0 C91.0 56.0 91.0 56.0 91.0 56.0 C91.0 56.0 91.0 56.0 91.0 56.0 C91.0 56.0 91.0 56.0 91.0 56.0 C91.0 56.0 91.0 56.0 91.0 56.0 C91.0 56.0 91.0 56.0 91.0 56.0 C91.0 56.0 91.0 56.0 91.0 56.0 C91.0 56.0 91.0 56.0 91.0 56.0 C91.0 56.0 91.0 56.0 91.0 56.0 C91.0 56.0 91.0 56.0 91.0 56.0 C91.0 56.0 91.0 56.0 91.0 56.0 C91.0 56.0 91.0 56.0 91.0 56.0 C91.0 56.0 91.0 56.0 91.0 56.0 C91.0 56.0 91.0 56.0 91.0 56.0 C91.0 56.0 91.0 56.0 91.0 56.0 C91.0 56.0 91.0 56.0 91.0 56.0 C91.0 56.0 91.0 56.0 91.0 56.0 C91.0 56.0 91.0 56.0 91.0 56.0 C91.0 56.0 91.0 56.0 91.0 56.0 C91.0 56.0 91.0 56.0 91.0 56.0 C91.0 56.0 91.0 56.0 91.0 56.0 C91.0 56.0 91.0 56.0 91.0 56.0 C91.0 56.0 91.0 56.0 91.0 56.0 C91.0 56.0 91.0 56.0 91.0 56.0 C91.0 56.0 91.0 56.0 91.0 56.0 C91.0 56.0 91.0 56.0 91.0 56.0 C91.0 56.0 91.0 56.0 91.0 56.0 C91.0 56.0 91.0 56.0 91.0 56.0 C91.0 56.0 91.0 56.0 91.0 56.0 C91.0 56.0 91.0 56.0 91.0 56.0 C91.0 56.0 91.0 56.0 91.0 56.0 C91.0 56.0 91.0 56.0 91.0 56.0 C91.0 56.0 91.0 56.0 91.0 56.0 C91.0 56.0 91.0 56.0 91.0 56.0 C91.0 56.0 91.0 56.0 91.0 56.0 C91.0 56.0 91.0 56.0 91.0 56.0 C91.0 56.0 91.0 56.0 91.0 56.0 C91.0 56.0 91.0 56.0 91.0 56.0 C91.0 56.0 91.0 56.0 91.0 56.0 C91.0 56.0 91.0 56.0 91.0 56.0 C91.0 56.0 91.0 56.0 91.0 56.0 C91.0 56.0 91.0 56.0 91.0 56.0 C91.0 56.0 91.0 56.0 91.0 56.0 C91.0 56.0 91.0 56.0 91.0 56.0 C91.0 56.0 91.0 56.0 91.0 56.0 C91.0 56.0 91.0 56.0 91.0 56.0 C91.0 56.0 91.0 56.0 91.0 56.0 C91.0 56.0 91.0 56.0 91.0 56.0 C91.0 56.0 91.0 56.0 91.0 56.0 C91.0 56.0 91.0 56.0 91.0 56.0 C91.0 56.0 91.0 56.0 91.0 56.0 C91.0 56.0 91.0 56.0 91.0 56.0 C91.0 56.0 91.0 56.0 91.0 56.0 C91.0 56.0 91.0 56.0 91.0 56.0 C91.0 56.0 91.0 56.0 91.0 56.0 C91.0 56.0 91.0 56.0 91.0 56.0 C91.0 56.0 91.0 56.0 91.0 56.0 C91.0 56.0 91.0 56.0 91.0 56.0 C91.0 56.0 91.0 56.0 91.0 56.0 C91.0 56.0 91.0 56.0 91.0 56.0 C91.0 56.0 91.0 56.0 91.0 56.0 C91.0 56.0 91.0 56.0 91.0 56.0 C91.0 56.0 91.0 56.0 91.0 56.0 C91.0 56.0 91.0 56.0 91.0 56.0 C91.0 56.0 91.0 56.0 91.0 56.0 C91.0 56.0 91.0 56.0 91.0 56.0 C91.0 56.0 91.0 56.0 91.0 56.0 C91.0 56.0 91.0 56.0 91.0 56.0 C91.0 56.0 91.0 56.0 91.0 56.0 C91.0 56.0 91.0 56.0 91.0 56.0 C91.0 56.0 91.0 56.0 91.0 56.0 C91.0 56.0 91.0 56.0 91.0 56.0 C91.0 56.0 91.0 56.0 91.0 56.0 C91.0 56.0 91.0 56.0 91.0 56.0 C91.0 56.0 91.0 56.0 91.0 56.0 C91.0 56.0 91.0 56.0 91.0 56.0 C91.0 56.0 91.0 56.0 91.0 56.0 C91.0 56.0 91.0 56.0 91.0 56.0 C91.0 56.0 91.0 56.0 91.0 56.0 C91.0 56.0 91.0 56.0 91.0 56.0 C91.0 56.0 91.0 56.0 91.0 56.0 C91.0 56.0 91.0 56.0 91.0 56.0 C91.0 56.0 91.0 56.0 91.0 56.0 C91.0 56.0 91.0 56.0 91.0 56.0 C91.0 56.0 91.0 56.0 91.0 56.0 C91.0 56.0 91.0 56.0 91.0 56.0 C91.0 56.0 91.0 56.0 91.0 56.0 C91.0 56.0 91.0 56.0 91.0 56.0 C91.0 56.0 91.0 56.0 91.0 56.0 C91.0 56.0 91.0 56.0 91.0 56.0 C91.0 56.0 91.0 56.0 91.0 56.0 C91.0 56.0 91.0 56.0 91.0 56.0 C91.0 56.0 91.0 56.0 91.0 56.0 C91.0 56.0 91.0 56.0 91.0 56.0 C91.0 56.0 91.0 56.0 91.0 56.0 C91.0 56.0 91.0 56.0 91.0 56.0 C88.0 117.0 92.0 118.0 96.0 118.0 C96.0 118.0 97.0 118.0 98.0 118.0 L98.0 95.0 C98.0 94.0 98.0 93.0 99.0 93.0 C99.0 92.0 100.0 92.0 101.0 92.0 C102.0 93.0 102.0 94.0 102.0 95.0 L102.0 118.0 L102.0 118.0 Z"></path>
<path fill="#ffffee" fill-opacity="1.0"  filling="0" d="M102.0 118.0 L102.0 118.0 L102.0 118.0 L102.0 118.0 L102.0 118.0 L102.0 118.0 Z"></path>
<path fill="#444444" fill-opacity="1.0"  filling="0" d="M97.0 39.0 C99.0 38.0 101.0 38.0 103.0 39.0 C105.0 39.0 107.0 40.0 109.0 43.0 C110.0 43.0 111.0 44.0 112.0 45.0 C113.0 46.0 114.0 48.0 115.0 50.0 C115.0 52.0 116.0 54.0 116.0 56.0 C117.0 57.0 117.0 59.0 117.0 60.0 C117.0 63.0 117.0 66.0 117.0 68.0 C117.0 70.0 117.0 72.0 117.0 74.0 C117.0 76.0 116.0 78.0 116.0 80.0 C116.0 81.0 116.0 83.0 116.0 85.0 C116.0 86.0 116.0 88.0 116.0 90.0 C116.0 92.0 116.0 94.0 116.0 96.0 C116.0 98.0 116.0 100.0 116.0 102.0 C116.0 104.0 116.0 105.0 116.0 107.0 C116.0 109.0 116.0 110.0 116.0 112.0 C116.0 114.0 116.0 115.0 116.0 116.0 C116.0 117.0 116.0 119.0 116.0 120.0 C116.0 121.0 115.0 121.0 115.0 122.0 C115.0 123.0 115.0 124.0 114.0 124.0 C114.0 125.0 113.0 125.0 112.0 125.0 C111.0 125.0 110.0 125.0 109.0 125.0 C108.0 126.0 107.0 126.0 106.0 126.0 C104.0 126.0 103.0 126.0 102.0 126.0 L102.0 118.0 L102.0 118.0 C103.0 118.0 104.0 118.0 105.0 118.0 C106.0 118.0 107.0 118.0 109.0 118.0 C110.0 118.0 111.0 117.0 112.0 117.0 C114.0 117.0 115.0 117.0 115.0 116.0 C115.0 115.0 115.0 113.0 115.0 112.0 C115.0 110.0 115.0 109.0 115.0 107.0 C115.0 105.0 115.0 104.0 115.0 102.0 C115.0 100.0 115.0 98.0 115.0 96.0 C115.0 94.0 115.0 92.0 115.0 90.0 C115.0 88.0 115.0 86.0 115.0 85.0 C115.0 83.0 115.0 81.0 115.0 80.0 C115.0 78.0 115.0 76.0 115.0 74.0 C115.0 72.0 115.0 70.0 115.0 68.0 C115.0 66.0 115.0 63.0 115.0 60.0 C115.0 58.0 115.0 57.0 115.0 56.0 C114.0 54.0 114.0 52.0 113.0 50.0 C112.0 48.0 111.0 46.0 110.0 45.0 C109.0 44.0 108.0 43.0 107.0 43.0 C106.0 42.0 105.0 42.0 103.0 41.0 C101.0 41.0 99.0 41.0 97.0 41.0 C96.0 42.0 95.0 42.0 94.0 43.0 C93.0 43.0 92.0 44.0 91.0 45.0 C90.0 46.0 89.0 48.0 88.0 50.0 C87.0 52.0 86.0 54.0 86.0 56.0 C85.0 57.0 85.0 58.0 85.0 60.0 C85.0 63.0 85.0 66.0 85.0 68.0 C85.0 70.0 85.0 72.0 85.0 74.0 C85.0 76.0 85.0 78.0 85.0 80.0 C85.0 81.0 85.0 83.0 85.0 85.0 C85.0 87.0 85.0 88.0 85.0 90.0 C85.0 92.0 85.0 94.0 85.0 96.0 C85.0 98.0 85.0 100.0 85.0 102.0 C85.0 104.0 85.0 105.0 85.0 107.0 C85.0 109.0 85.0 110.0 85.0 112.0 C85.0 113.0 85.0 115.0 85.0 116.0 C85.0 117.0 86.0 117.0 87.0 117.0 C88.0 117.0 89.0 117.0 91.0 117.0 C92.0 117.0 94.0 118.0 95.0 118.0 C96.0 118.0 97.0 118.0 98.0 118.0 L98.0 126.0 C97.0 126.0 96.0 126.0 95.0 126.0 C94.0 126.0 93.0 126.0 91.0 125.0 C90.0 125.0 89.0 125.0 88.0 125.0 C87.0 125.0 86.0 125.0 86.0 124.0 C85.0 124.0 85.0 123.0 85.0 122.0 C85.0 121.0 84.0 121.0 84.0 120.0 C84.0 119.0 84.0 117.0 84.0 116.0 C84.0 115.0 84.0 114.0 84.0 112.0 C84.0 110.0 84.0 109.0 84.0 107.0 C84.0 105.0 84.0 104.0 84.0 102.0 C84.0 100.0 84.0 98.0 84.0 96.0 C84.0 94.0 84.0 92.0 84.0 90.0 C84.0 88.0 84.0 86.0 84.0 85.0 C84.0 83.0 84.0 81.0 84.0 80.0 C84.0 78.0 84.0 76.0 84.0 74.0 C84.0 72.0 84.0 70.0 84.0 68.0 C84.0 66.0 84.0 63.0 84.0 60.0 C84.0 59.0 84.0 57.0 85.0 56.0 C85.0 54.0 86.0 52.0 86.0 50.0 C87.0 48.0 88.0 46.0 89.0 45.0 C90.0 44.0 91.0 43.0 92.0 43.0 C93.0 42.0 94.0 42.0 95.0 41.0 C96.0 41.0 97.0 40.0 97.0 39.0 L97.0 39.0 Z"></path>
<path fill="#66aaaa" fill-opacity="1.0"  filling="0" d="M100.0 74.0 C98.0 74.0 97.0 73.0 95.0 72.0 C94.0 70.0 93.0 69.0 93.0 67.0 C93.0 66.0 93.0 64.0 93.0 63.0 C93.0 61.0 94.0 60.0 95.0 59.0 C96.0 57.0 98.0 57.0 100.0 56.0 C101.0 56.0 103.0 57.0 104.0 58.0 C105.0 59.0 106.0 60.0 107.0 62.0 C107.0 63.0 108.0 65.0 108.0 66.0 C108.0 68.0 107.0 70.0 106.0 72.0 C104.0 73.0 102.0 74.0 100.0 74.0 L100.0 74.0 Z"></path>
<path fill="#000000" fill-opacity="1.0"  filling="0" d="M100.0 74.0 C98.0 74.0 97.0 73.0 95.0 72.0 C94.0 70.0 93.0 69.0 93.0 67.0 C93.0 66.0 93.0 64.0 93.0 63.0 C94.0 61.0 94.0 60.0 95.0 59.0 C96.0 57.0 98.0 57.0 100.0 56.0 C101.0 56.0 103.0 57.0 104.0 58.0 C105.0 59.0 106.0 60.0 107.0 62.0 C108.0 63.0 108.0 65.0 108.0 66.0 C108.0 68.0 107.0 70.0 106.0 72.0 C104.0 73.0 103.0 74.0 101.0 74.0 C100.0 74.0 100.0 74.0 100.0 74.0 L100.0 74.0 Z"></path></svg>