<svg xmlns="http://www.w3.org/2000/svg" viewBox="0.0 0.0 200.0 200.0" height="200px" width="200px"><path fill="#000000" fill-opacity="1.0"  filling="0" d="M102.0 118.0 L98.0 118.0 C93.0 118.0 88.0 118.0 85.0 117.0 C84.0 117.0 83.0 117.0 82.0 117.0 C78.0 118.0 75.0 121.0 73.0 123.0 C70.0 126.0 68.0 129.0 67.0 130.0 C66.0 131.0 65.0 131.0 64.0 130.0 C63.0 130.0 62.0 129.0 62.0 126.0 L60.0 110.0 C59.0 108.0 60.0 106.0 61.0 104.0 C63.0 100.0 68.0 95.0 74.0 88.0 L75.0 88.0 C75.0 93.0 76.0 98.0 77.0 102.0 C78.0 107.0 79.0 112.0 81.0 117.0 C81.0 117.0 82.0 117.0 82.0 117.0 C83.0 117.0 84.0 117.0 85.0 117.0 L85.0 118.0 C86.0 119.0 86.0 120.0 86.0 122.0 C86.0 123.0 86.0 124.0 87.0 125.0 C87.0 125.0 88.0 125.0 89.0 125.0 C89.0 125.0 90.0 125.0 91.0 125.0 C92.0 125.0 93.0 125.0 95.0 125.0 C96.0 125.0 97.0 125.0 98.0 125.0 L102.0 125.0 C103.0 125.0 104.0 125.0 105.0 125.0 C107.0 125.0 108.0 125.0 109.0 125.0 C110.0 125.0 111.0 125.0 111.0 125.0 C112.0 125.0 113.0 125.0 113.0 125.0 C114.0 124.0 114.0 123.0 114.0 122.0 C114.0 120.0 115.0 119.0 115.0 118.0 L115.0 117.0 C116.0 117.0 117.0 117.0 118.0 117.0 C118.0 117.0 119.0 117.0 119.0 117.0 C121.0 112.0 122.0 107.0 123.0 102.0 C124.0 98.0 125.0 93.0 126.0 88.0 L127.0 88.0 C132.0 95.0 137.0 100.0 139.0 104.0 C140.0 106.0 141.0 108.0 140.0 110.0 L138.0 126.0 C138.0 129.0 137.0 130.0 136.0 130.0 C135.0 131.0 134.0 131.0 133.0 130.0 C132.0 129.0 130.0 126.0 127.0 123.0 C125.0 121.0 122.0 118.0 118.0 117.0 C118.0 117.0 119.0 117.0 119.0 117.0 C121.0 112.0 122.0 107.0 123.0 102.0 C124.0 98.0 125.0 93.0 125.0 88.0 L126.0 88.0 C132.0 95.0 137.0 100.0 139.0 104.0 C140.0 106.0 141.0 108.0 140.0 110.0 L138.0 126.0 C138.0 129.0 137.0 130.0 136.0 130.0 C135.0 131.0 134.0 131.0 133.0 130.0 C132.0 129.0 130.0 126.0 127.0 123.0 C125.0 121.0 122.0 118.0 118.0 117.0 C118.0 117.0 118.0 117.0 118.0 117.0 C118.0 117.0 118.0 117.0 118.0 117.0 C118.0 117.0 118.0 117.0 118.0 117.0 C118.0 117.0 118.0 117.0 118.0 117.0 C118.0 117.0 118.0 117.0 118.0 117.0 C118.0 117.0 118.0 117.0 118.0 117.0 C118.0 117.0 118.0 117.0 118.0 117.0 C118.0 117.0 118.0 117.0 118.0 117.0 C118.0 117.0 118.0 117.0 118.0 117.0 C118.0 117.0 118.0 117.0 118.0 117.0 C118.0 117.0 118.0 117.0 118.0 117.0 C118.0 117.0 118.0 117.0 118.0 117.0 C118.0 117.0 118.0 117.0 118.0 117.0 C118.0 117.0 118.0 117.0 118.0 117.0 C118.0 117.0 118.0 117.0 118.0 117.0 C118.0 117.0 118.0 117.0 118.0 117.0 C118.0 117.0 118.0 117.0 118.0 117.0 C118.0 117.0 118.0 117.0 118.0 117.0 C118.0 117.0 118.0 117.0 118.0 117.0 C118.0 117.0 118.0 117.0 118.0 117.0 C118.0 117.0 118.0 117.0 118.0 117.0 C118.0 117.0 118.0 117.0 118.0 117.0 C118.0 117.0 118.0 117.0 118.0 117.0 C118.0 117.0 118.0 117.0 118.0 117.0 C118.0 117.0 118.0 117.0 118.0 117.0 C118.0 117.0 118.0 117.0 118.0 117.0 C118.0 117.0 118.0 117.0 118.0 117.0 C118.0 117.0 118.0 117.0 118.0 117.0 C118.0 117.0 118.0 117.0 118.0 117.0 C118.0 117.0 118.0 117.0 118.0 117.0 C118.0 117.0 118.0 117.0 118.0 117.0 C118.0 117.0 118.0 117.0 118.0 117.0 C118.0 117.0 118.0 117.0 118.0 117.0 C118.0 117.0 118.0 117.0 118.0 117.0 C118.0 117.0 118.0 117.0 118.0 117.0 C118.0 117.0 118.0 117.0 118.0 117.0 C118.0 117.0 118.0 117.0 118.0 117.0 C118.0 117.0 118.0 117.0 118.0 117.0 C118.0 117.0 118.0 117.0 118.0 117.0 C118.0 117.0 118.0 117.0 118.0 117.0 C118.0 117.0 118.0 117.0 118.0 117.0 C118.0 117.0 118.0 117.0 118.0 117.0 C118.0 117.0 118.0 117.0 118.0 117.0 C118.0 117.0 118.0 117.0 118.0 117.0 C118.0 117.0 118.0 117.0 118.0 117.0 C118.0 117.0 118.0 117.0 118.0 117.0 C118.0 117.0 118.0 117.0 118.0 117.0 C118.0 117.0 118.0 117.0 118.0 117.0 C118.0 117.0 118.0 117.0 118.0 117.0 C118.0 117.0 118.0 117.0 118.0 117.0 C118.0 117.0 118.0 117.0 118.0 117.0 C118.0 117.0 118.0 117.0 118.0 117.0 C118.0 117.0 118.0 117.0 118.0 117.0 C118.0 117.0 118.0 117.0 118.0 117.0 C118.0 117.0 118.0 117.0 118.0 117.0 C118.0 117.0 118.0 117.0 118.0 117.0 C118.0 117.0 118.0 117.0 118.0 117.0 C118.0 117.0 118.0 117.0 118.0 117.0 C118.0 117.0 118.0 117.0 118.0 117.0 C118.0 117.0 118.0 117.0 118.0 117.0 C118.0 117.0 118.0 117.0 118.0 117.0 C118.0 117.0 118.0 117.0 118.0 117.0 C118.0 117.0 118.0 117.0 118.0 117.0 C118.0 117.0 118.0 117.0 118.0 117.0 C118.0 117.0 118.0 117.0 118.0 117.0 C118.0 117.0 118.0 117.0 118.0 117.0 C118.0 117.0 118.0 117.0 118.0 117.0 C118.0 117.0 118.0 117.0 118.0 117.0 C118.0 117.0 118.0 117.0 118.0 117.0 C118.0 117.0 118.0 117.0 118.0 117.0 C118.0 117.0 118.0 117.0 118.0 117.0 C118.0 117.0 118.0 117.0 118.0 117.0 C118.0 117.0 118.0 117.0 118.0 117.0 C118.0 117.0 118.0 117.0 118.0 117.0 C118.0 117.0 118.0 117.0 118.0 117.0 C118.0 117.0 118.0 117.0 118.0 117.0 C118.0 117.0 118.0 117.0 118.0 117.0 C118.0 117.0 118.0 117.0 118.0 117.0 C118.0 117.0 118.0 117.0 118.0 117.0 C118.0 117.0 118.0 117.0 118.0 117.0 C118.0 117.0 118.0 117.0 118.0 117.0 C118.0 117.0 118.0 117.0 118.0 117.0 C118.0 117.0 118.0 117.0 118.0 117.0 C118.0 117.0 118.0 117.0 118.0 117.0 C118.0 117.0 118.0 117.0 118.0 117.0 C118.0 117.0 118.0 117.0 118.0 117.0 C118.0 117.0 118.0 117.0 118.0 117.0 C118.0 117.0 118.0 117.0 118.0 117.0 C118.0 117.0 118.0 117.0 118.0 117.0 C118.0 117.0 118.0 117.0 118.0 117.0 C118.0 117.0 118.0 117.0 118.0 117.0 C118.0 117.0 118.0 117.0 118.0 117.0 C118.0 117.0 118.0 117.0 118.0 117.0 C118.0 117.0 118.0 117.0 118.0 117.0 C118.0 117.0 118.0 117.0 118.0 117.0 C118.0 117.0 118.0 117.0 118.0 117.0 C118.0 117.0 118.0 117.0 118.0 117.0 C118.0 117.0 118.0 117.0 118.0 117.0 C118.0 117.0 118.0 117.0 118.0 117.0 C118.0 117.0 118.0 117.0 118.0 117.0 C118.0 117.0 118.0 117.0 118.0 117.0 C118.0 117.0 118.0 117.0 118.0 117.0 C118.0 117.0 118.0 117.0 118.0 117.0 C118.0 117.0 118.0 117.0 118.0 117.0 C118.0 117.0 118.0 117.0 118.0 117.0 C118.0 117.0 118.0 117.0 118.0 117.0 C118.0 117.0 118.0 117.0 118.0 117.0 C118.0 117.0 118.0 117.0 118.0 117.0 C118.0 117.0 118.0 117.0 118.0 117.0 C118.0 117.0 118.0 117.0 118.0 117.0 C118.0 117.0 118.0 117.0 118.0 117.0 C118.0 117.0 118.0 117.0 118.0 117.0 C118.0 117.0 118.0 117.0 118.0 117.0 C118.0 117.0 118.0 117.0 118.0 117.0 C118.0 117.0 118.0 117.0 118.0 117.0 C118.0 117.0 118.0 117.0 118.0 117.0 C118.0 117.0 118.0 117.0 118.0 117.0 C118.0 117.0 118.0 117.0 118.0 117.0 C118.0 117.0 118.0 117.0 118.0 117.0 C118.0 117.0 118.0 117.0 118.0 117.0 C118.0 117.0 118.0 117.0 118.0 117.0 C118.0 117.0 118.0 117.0 118.0 117.0 C118.0 117.0 118.0 117.0 118.0 117.0 C118.0 117.0 118.0 117.0 118.0 117.0 C118.0 117.0 118.0 117.0 118.0 117.0 C118.0 117.0 118.0 117.0 118.0 117.0 C118.0 117.0 118.0 117.0 118.0 117.0 C118.0 117.0 118.0 117.0 118.0 117.0 C118.0 117.0 118.0 117.0 118.0 117.0 C118.0 117.0 118.0 117.0 118.0 117.0 C118.0 117.0 118.0 117.0 118.0 117.0 C118.0 117.0 118.0 117.0 118.0 117.0 C118.0 117.0 118.0 117.0 118.0 117.0 C118.0 117.0 118.0 117.0 118.0 117.0 C118.0 117.0 118.0 117.0 118.0 117.0 C118.0 117.0 118.0 117.0 118.0 117.0 C118.0 117.0 118.0 117.0 118.0 117.0 C118.0 117.0 118.0 117.0 118.0 117.0 C118.0 117.0 118.0 117.0 118.0 117.0 C118.0 117.0 118.0 117.0 118.0 117.0 C118.0 117.0 118.0 117.0 118.0 117.0 C118.0 117.0 118.0 117.0 118.0 117.0 C118.0 117.0 118.0 117.0 118.0 117.0 C118.0 117.0 118.0 117.0 118.0 117.0 C118.0 117.0 118.0 117.0 118.0 117.0 C118.0 117.0 118.0 117.0 118.0 117.0 C118.0 117.0 118.0 117.0 118.0 117.0 C118.0 117.0 118.0 117.0 118.0 117.0 C118.0 117.0 118.0 117.0 118.0 117.0 C118.0 117.0 118.0 117.0 118.0 117.0 C118.0 117.0 118.0 117.0 118.0 117.0 C118.0 117.0 118.0 117.0 118.0 117.0 C118.0 117.0 118.0 117.0 118.0 117.0 C118.0 117.0 118.0 117.0 118.0 117.0 C118.0 117.0 118.0 117.0 118.0 117.0 C118.0 117.0 118.0 117.0 118.0 117.0 C118.0 117.0 118.0 117.0 118.0 117.0 C118.0 117.0 118.0 117.0 118.0 117.0 C118.0 117.0 118.0 117.0 118.0 117.0 C118.0 117.0 118.0 117.0 118.0 117.0 C118.0 117.0 118.0 117.0 118.0 117.0 C118.0 117.0 118.0 117.0 118.0 117.0 C118.0 117.0 118.0 117.0 118.0 117.0 C118.0 117.0 118.0 117.0 118.0 117.0 C118.0 117.0 118.0 117.0 118.0 117.0 C118.0 117.0 118.0 117.0 118.0 117.0 C118.0 117.0 118.0 117.0 118.0 117.0 C118.0 117.0 118.0 117.0 118.0 117.0 C118.0 117.0 118.0 117.0 118.0 117.0 C118.0 117.0 118.0 117.0 118.0 117.0 C118.0 117.0 118.0 117.0 118.0 117.0 C118.0 117.0 118.0 117.0 118.0 117.0 C118.0 117.0 118.0 117.0 118.0 117.0 C118.0 117.0 118.0 117.0 118.0 117.0 C118.0 117.0 118.0 117.0 118.0 117.0 C118.0 117.0 118.0 117.0 118.0 117.0 C118.0 117.0 118.0 117.0 118.0 117.0 C118.0 117.0 118.0 117.0 118.0 117.0 C118.0 117.0 118.0 117.0 118.0 117.0 C118.0 117.0 118.0 117.0 118.0 117.0 C118.0 117.0 118.0 117.0 118.0 117.0 C118.0 117.0 118.0 117.0 118.0 117.0 C118.0 117.0 118.0 117.0 118.0 117.0 C118.0 117.0 118.0 117.0 118.0 117.0 C118.0 117.0 118.0 117.0 118.0 117.0 C118.0 117.0 118.0 117.0 118.0 117.0 C118.0 117.0 118.0 117.0 118.0 117.0 C118.0 117.0 118.0 117.0 118.0 117.0 C118.0 117.0 118.0 117.0 118.0 117.0 C118.0 117.0 118.0 117.0 118.0 117.0 C118.0 117.0 118.0 117.0 118.0 117.0 C118.0 117.0 118.0 117.0 118.0 117.0 C118.0 117.0 118.0 117.0 118.0 117.0 C118.0 117.0 118.0 117.0 118.0 117.0 C118.0 117.0 118.0 117.0 118.0 117.0 C118.0 117.0 118.0 117.0 118.0 117.0 C118.0 117.0 82.0 117.0 82.0 117.0 C82.0 117.0 82.0 117.0 82.0 117.0 C82.0 117.0 82.0 117.0 82.0 117.0 C82.0 117.0 82.0 117.0 82.0 117.0 C82.0 117.0 82.0 117.0 82.0 117.0 C82.0 117.0 82.0 117.0 82.0 117.0 C82.0 117.0 82.0 117.0 82.0 117.0 C82.0 117.0 82.0 117.0 82.0 117.0 C82.0 117.0 82.0 117.0 82.0 117.0 C82.0 117.0 82.0 117.0 82.0 117.0 C82.0 117.0 82.0 117.0 82.0 117.0 C82.0 117.0 82.0 117.0 82.0 117.0 C82.0 117.0 82.0 117.0 82.0 117.0 C82.0 117.0 82.0 117.0 82.0 117.0 C82.0 117.0 82.0 117.0 82.0 117.0 C82.0 117.0 82.0 117.0 82.0 117.0 C82.0 117.0 82.0 117.0 82.0 117.0 C82.0 117.0 82.0 117.0 82.0 117.0 C82.0 117.0 82.0 117.0 82.0 117.0 C82.0 117.0 82.0 117.0 82.0 117.0 C82.0 117.0 82.0 117.0 82.0 117.0 C82.0 117.0 82.0 117.0 82.0 117.0 C82.0 117.0 82.0 117.0 82.0 117.0 C82.0 117.0 82.0 117.0 82.0 117.0 C82.0 117.0 82.0 117.0 82.0 117.0 C82.0 117.0 82.0 117.0 82.0 117.0 C82.0 117.0 82.0 117.0 82.0 117.0 C82.0 117.0 82.0 117.0 82.0 117.0 C82.0 117.0 82.0 117.0 82.0 117.0 C82.0 117.0 82.0 117.0 82.0 117.0 C82.0 117.0 82.0 117.0 82.0 117.0 C82.0 117.0 82.0 117.0 82.0 117.0 C82.0 117.0 82.0 117.0 82.0 117.0 C82.0 117.0 82.0 117.0 82.0 117.0 C82.0 117.0 82.0 117.0 82.0 117.0 C82.0 117.0 82.0 117.0 82.0 117.0 C82.0 117.0 82.0 117.0 82.0 117.0 C82.0 117.0 82.0 117.0 82.0 117.0 C82.0 117.0 82.0 117.0 82.0 117.0 C82.0 117.0 82.0 117.0 82.0 117.0 C82.0 117.0 82.0 117.0 82.0 117.0 C82.0 117.0 82.0 117.0 82.0 117.0 C82.0 117.0 82.0 117.0 82.0 117.0 C82.0 117.0 82.0 117.0 82.0 117.0 C82.0 117.0 82.0 117.0 82.0 117.0 C82.0 117.0 82.0 117.0 82.0 117.0 C82.0 117.0 82.0 117.0 82.0 117.0 C82.0 117.0 82.0 117.0 82.0 117.0 C82.0 117.0 82.0 117.0 82.0 117.0 C82.0 117.0 82.0 117.0 82.0 117.0 C82.0 117.0 82.0 117.0 82.0 117.0 C82.0 117.0 82.0 117.0 82.0 117.0 C82.0 117.0 82.0 117.0 82.0 117.0 C82.0 117.0 82.0 117.0 82.0 117.0 C82.0 117.0 82.0 117.0 82.0 117.0 C82.0 117.0 82.0 117.0 82.0 117.0 C82.0 117.0 82.0 117.0 82.0 117.0 C82.0 117.0 82.0 117.0 82.0 117.0 C82.0 117.0 82.0 117.0 82.0 117.0 C82.0 117.0 82.0 117.0 82.0 117.0 C82.0 117.0 82.0 117.0 82.0 117.0 C82.0 117.0 82.0 117.0 82.0 117.0 C82.0 117.0 82.0 117.0 82.0 117.0 C82.0 117.0 82.0 117.0 82.0 117.0 C82.0 117.0 82.0 117.0 82.0 117.0 C82.0 117.0 82.0 117.0 82.0 117.0 C82.0 117.0 82.0 117.0 82.0 117.0 C82.0 117.0 82.0 117.0 82.0 117.0 C82.0 117.0 82.0 117.0 82.0 117.0 C82.0 117.0 82.0 117.0 82.0 117.0 C82.0 117.0 82.0 117.0 82.0 117.0 C82.0 117.0 82.0 117.0 82.0 117.0 C82.0 117.0 82.0 117.0 82.0 117.0 C82.0 117.0 82.0 117.0 82.0 117.0 C82.0 117.0 82.0 117.0 82.0 117.0 C82.0 117.0 82.0 117.0 82.0 117.0 C82.0 117.0 82.0 117.0 82.0 117.0 C82.0 117.0 82.0 117.0 82.0 117.0 C82.0 117.0 82.0 117.0 82.0 117.0 C82.0 117.0 82.0 117.0 82.0 117.0 C82.0 117.0 82.0 117.0 82.0 117.0 C82.0 117.0 82.0 117.0 82.0 117.0 C82.0 117.0 82.0 117.0 82.0 117.0 C82.0 117.0 82.0 117.0 82.0 117.0 C82.0 117.0 82.0 117.0 82.0 117.0 C82.0 117.0 82.0 117.0 82.0 117.0 C82.0 117.0 82.0 117.0 82.0 117.0 C82.0 117.0 82.0 117.0 82.0 117.0 C82.0 117.0 82.0 117.0 82.0 117.0 C82.0 117.0 82.0 117.0 82.0 117.0 C82.0 117.0 82.0 117.0 82.0 117.0 C82.0 117.0 82.0 117.0 82.0 117.0 C82.0 117.0 82.0 117.0 82.0 117.0 C82.0 117.0 82.0 117.0 82.0 117.0 C82.0 117.0 82.0 117.0 82.0 117.0 C82.0 117.0 82.0 117.0 82.0 117.0 C82.0 117.0 118.0 117.0 118.0 117.0 C118.0 117.0 118.0 117.0 118.0 117.0 C118.0 117.0 118.0 117.0 118.0 117.0 C118.0 117.0 118.0 117.0 118.0 117.0 C118.0 117.0 118.0 117.0 118.0 117.0 C118.0 117.0 118.0 117.0 118.0 117.0 C118.0 117.0 118.0 117.0 118.0 117.0 C118.0 117.0 118.0 117.0 118.0 117.0 C118.0 117.0 118.0 117.0 118.0 117.0 C118.0 117.0 118.0 117.0 118.0 117.0 C118.0 117.0 118.0 117.0 118.0 117.0 C118.0 117.0 118.0 117.0 118.0 117.0 C118.0 117.0 118.0 117.0 118.0 117.0 C118.0 117.0 118.0 117.0 118.0 117.0 C118.0 117.0 118.0 117.0 118.0 117.0 C118.0 117.0 118.0 117.0 118.0 117.0 C118.0 117.0 118.0 117.0 118.0 117.0 C118.0 117.0 118.0 117.0 118.0 117.0 C118.0 117.0 118.0 117.0 118.0 117.0 C118.0 117.0 118.0 117.0 118.0 117.0 C118.0 117.0 118.0 117.0 118.0 117.0 C118.0 117.0 118.0 117.0 118.0 117.0 C118.0 117.0 118.0 117.0 118.0 117.0 C118.0 117.0 118.0 117.0 118.0 117.0 C118.0 117.0 118.0 117.0 118.0 117.0 C118.0 117.0 118.0 117.0 118.0 117.0 C118.0 117.0 118.0 117.0 118.0 117.0 C118.0 117.0 118.0 117.0 118.0 117.0 C118.0 117.0 118.0 117.0 118.0 117.0 C118.0 117.0 118.0 117.0 118.0 117.0 C118.0 117.0 118.0 117.0 118.0 117.0 C118.0 117.0 118.0 117.0 118.0 117.0 C118.0 117.0 118.0 117.0 118.0 117.0 C118.0 117.0 118.0 117.0 118.0 117.0 C118.0 117.0 118.0 117.0 118.0 117.0 C118.0 117.0 118.0 117.0 118.0 117.0 C118.0 117.0 118.0 117.0 118.0 117.0 C118.0 117.0 118.0 117.0 118.0 117.0 C118.0 117.0 118.0 117.0 118.0 117.0 C118.0 117.0 118.0 117.0 118.0 117.0 C118.0 117.0 118.0 117.0 118.0 117.0 C118.0 117.0 118.0 117.0 118.0 117.0"></path></svg>