<svg xmlns="http://www.w3.org/2000/svg" viewBox="0.0 0.0 200.0 200.0" height="200px" width="200px"><path fill="#ffffee" fill-opacity="1.0"  filling="0" d="M102.0 118.0 L98.0 118.0 C93.0 118.0 88.0 118.0 85.0 117.0 C84.0 117.0 83.0 117.0 82.0 117.0 C78.0 118.0 75.0 121.0 72.0 123.0 C70.0 125.0 68.0 127.0 67.0 130.0 C66.0 130.0 65.0 131.0 64.0 130.0 C63.0 130.0 62.0 129.0 62.0 128.0 C61.0 122.0 60.0 116.0 60.0 110.0 C59.0 108.0 60.0 106.0 61.0 104.0 C64.0 99.0 68.0 94.0 71.0 90.0 C72.0 90.0 73.0 89.0 74.0 88.0 C75.0 86.0 75.0 84.0 75.0 82.0 C74.0 79.0 73.0 76.0 74.0 72.0 C74.0 66.0 75.0 60.0 76.0 55.0 C77.0 50.0 79.0 46.0 80.0 42.0 C84.0 34.0 90.0 28.0 95.0 21.0 C96.0 20.0 97.0 19.0 98.0 18.0 C99.0 17.0 101.0 17.0 103.0 18.0 C104.0 18.0 104.0 20.0 105.0 21.0 C110.0 28.0 116.0 34.0 120.0 42.0 C120.0 46.0 121.0 48.0 122.0 50.0 C124.0 57.0 126.0 65.0 126.0 72.0 C126.0 74.0 126.0 76.0 126.0 78.0 C126.0 80.0 126.0 81.0 125.0 82.0 C125.0 84.0 125.0 86.0 126.0 88.0 C126.0 89.0 127.0 89.0 128.0 90.0 C131.0 94.0 135.0 97.0 137.0 101.0 C138.0 103.0 139.0 104.0 140.0 106.0 C140.0 108.0 140.0 110.0 140.0 111.0 C139.0 116.0 139.0 122.0 138.0 128.0 C138.0 129.0 137.0 130.0 136.0 130.0 C135.0 131.0 133.0 130.0 132.0 129.0 C130.0 127.0 129.0 125.0 127.0 123.0 C125.0 121.0 123.0 119.0 120.0 118.0 C119.0 117.0 118.0 117.0 117.0 117.0 C112.0 118.0 107.0 118.0 102.0 118.0 L102.0 118.0 Z"></path>
<path fill="#ffaa44" fill-opacity="1.0"  filling="0" d="M94.0 159.0 C91.0 156.0 89.0 152.0 87.0 149.0 C86.0 148.0 85.0 147.0 85.0 145.0 C84.0 143.0 85.0 141.0 86.0 140.0 C87.0 137.0 87.0 134.0 87.0 131.0 C88.0 129.0 89.0 128.0 90.0 127.0 C90.0 126.0 90.0 125.0 89.0 125.0 C88.0 125.0 87.0 125.0 86.0 124.0 C85.0 123.0 85.0 122.0 85.0 121.0 C85.0 120.0 85.0 119.0 85.0 118.0 C86.0 117.0 87.0 117.0 88.0 117.0 C92.0 118.0 96.0 118.0 100.0 118.0 C104.0 118.0 109.0 118.0 113.0 117.0 C114.0 117.0 115.0 117.0 115.0 118.0 C115.0 119.0 115.0 120.0 115.0 121.0 C115.0 121.0 115.0 122.0 114.0 123.0 C114.0 124.0 113.0 125.0 112.0 125.0 C111.0 125.0 110.0 125.0 110.0 125.0 C110.0 125.0 110.0 126.0 110.0 127.0 C112.0 128.0 113.0 130.0 113.0 132.0 C113.0 134.0 113.0 137.0 113.0 139.0 C113.0 140.0 114.0 141.0 114.0 142.0 C115.0 144.0 115.0 146.0 114.0 148.0 C114.0 151.0 113.0 153.0 111.0 155.0 C109.0 157.0 107.0 159.0 105.0 161.0 C104.0 161.0 103.0 162.0 102.0 162.0 C101.0 162.0 99.0 162.0 98.0 161.0 C97.0 160.0 95.0 159.0 94.0 159.0 L94.0 159.0 Z"></path>
<path fill="#ff9922" fill-opacity="1.0"  filling="0" d="M94.0 159.0 C95.0 158.0 96.0 158.0 97.0 157.0 C98.0 155.0 99.0 153.0 100.0 152.0 C101.0 150.0 102.0 148.0 103.0 146.0 C104.0 144.0 105.0 142.0 106.0 140.0 C106.0 138.0 107.0 135.0 107.0 133.0 C107.0 131.0 106.0 129.0 106.0 128.0 C105.0 127.0 105.0 126.0 106.0 126.0 C107.0 126.0 108.0 126.0 110.0 127.0 C112.0 128.0 113.0 130.0 113.0 132.0 C113.0 134.0 113.0 137.0 113.0 139.0 C113.0 140.0 114.0 141.0 114.0 142.0 C115.0 144.0 115.0 146.0 114.0 148.0 C114.0 151.0 113.0 153.0 111.0 155.0 C109.0 157.0 107.0 159.0 105.0 161.0 C104.0 161.0 103.0 162.0 102.0 162.0 C101.0 162.0 99.0 162.0 98.0 161.0 C97.0 160.0 95.0 159.0 94.0 159.0 L94.0 159.0 Z"></path>
<path fill="#ff9922" fill-opacity="1.0"  filling="0" d="M94.0 159.0 C95.0 158.0 96.0 158.0 97.0 157.0 C98.0 155.0 99.0 153.0 100.0 152.0 C101.0 150.0 102.0 148.0 103.0 146.0 C104.0 144.0 105.0 142.0 106.0 140.0 C106.0 138.0 107.0 135.0 107.0 133.0 C107.0 131.0 106.0 129.0 106.0 128.0 C105.0 127.0 105.0 126.0 106.0 126.0 C107.0 126.0 108.0 126.0 110.0 127.0 C112.0 128.0 113.0 130.0 113.0 132.0 C113.0 134.0 113.0 137.0 113.0 139.0 C113.0 140.0 114.0 141.0 114.0 142.0 C115.0 144.0 115.0 146.0 114.0 148.0 C114.0 151.0 113.0 153.0 111.0 155.0 C109.0 157.0 107.0 159.0 105.0 161.0 C104.0 161.0 103.0 162.0 102.0 162.0 C101.0 162.0 99.0 162.0 98.0 161.0 C97.0 160.0 95.0 159.0 94.0 159.0 L94.0 159.0 Z"></path>
<path fill="#ff9922" fill-opacity="1.0"  filling="0" d="M94.0 159.0 C95.0 158.0 96.0 158.0 97.0 157.0 C98.0 155.0 99.0 153.0 100.0 152.0 C101.0 150.0 102.0 148.0 103.0 146.0 C104.0 144.0 105.0 142.0 106.0 140.0 C106.0 138.0 107.0 135.0 107.0 133.0 C107.0 131.0 106.0 129.0 106.0 128.0 C105.0 127.0 105.0 126.0 106.0 126.0 C107.0 126.0 108.0 126.0 110.0 127.0 C112.0 128.0 113.0 130.0 113.0 132.0 C113.0 134.0 113.0 137.0 113.0 139.0 C113.0 140.0 114.0 141.0 114.0 142.0 C115.0 144.0 115.0 146.0 114.0 148.0 C114.0 151.0 113.0 153.0 111.0 155.0 C109.0 157.0 107.0 159.0 105.0 161.0 C104.0 161.0 103.0 162.0 102.0 162.0 C101.0 162.0 99.0 162.0 98.0 161.0 C97.0 160.0 95.0 159.0 94.0 159.0 L94.0 159.0 Z"></path>
<path fill="#ff9922" fill-opacity="1.0"  filling="0" d="M94.0 159.0 C95.0 158.0 96.0 158.0 97.0 157.0 C98.0 155.0 99.0 153.0 100.0 152.0 C101.0 150.0 102.0 148.0 103.0 146.0 C104.0 144.0 105.0 142.0 106.0 140.0 C106.0 138.0 107.0 135.0 107.0 133.0 C107.0 131.0 106.0 129.0 106.0 128.0 C105.0 127.0 105.0 126.0 106.0 126.0 C107.0 126.0 108.0 126.0 110.0 127.0 C112.0 128.0 113.0 130.0 113.0 132.0 C113.0 134.0 113.0 137.0 113.0 139.0 C113.0 140.0 114.0 141.0 114.0 142.0 C115.0 144.0 115.0 146.0 114.0 148.0 C114.0 151.0 113.0 153.0 111.0 155.0 C109.0 157.0 107.0 159.0 105.0 161.0 C104.0 161.0 103.0 162.0 102.0 162.0 C101.0 162.0 99.0 162.0 98.0 161.0 C97.0 160.0 95.0 159.0 94.0 159.0 L94.0 159.0 Z"></path>
<path fill="#ff9922" fill-opacity="1.0"  filling="0" d="M94.0 159.0 C95.0 158.0 96.0 158.0 97.0 157.0 C98.0 155.0 99.0 153.0 100.0 152.0 C101.0 150.0 102.0 148.0 103.0 146.0 C104.0 144.0 105.0 142.0 106.0 140.0 C106.0 138.0 107.0 135.0 107.0 133.0 C107.0 131.0 106.0 129.0 106.0 128.0 C105.0 127.0 105.0 126.0 106.0 126.0 C107.0 126.0 108.0 126.0 110.0 127.0 C112.0 128.0 113.0 130.0 113.0 132.0 C113.0 134.0 113.0 137.0 113.0 139.0 C113.0 140.0 114.0 141.0 114.0 142.0 C115.0 144.0 115.0 146.0 114.0 148.0 C114.0 151.0 113.0 153.0 111.0 155.0 C109.0 157.0 107.0 159.0 105.0 161.0 C104.0 161.0 103.0 162.0 102.0 162.0 C101.0 162.0 99.0 162.0 98.0 161.0 C97.0 160.0 95.0 159.0 94.0 159.0 L94.0 159.0 Z"></path>
<path fill="#ff9922" fill-opacity="1.0"  filling="0" d="M94.0 159.0 C95.0 158.0 96.0 158.0 97.0 157.0 C98.0 155.0 99.0 153.0 100.0 152.0 C101.0 150.0 102.0 148.0 103.0 146.0 C104.0 144.0 105.0 142.0 106.0 140.0 C106.0 138.0 107.0 135.0 107.0 133.0 C107.0 131.0 106.0 129.0 106.0 128.0 C105.0 127.0 105.0 126.0 106.0 126.0 C107.0 126.0 108.0 126.0 110.0 127.0 C112.0 128.0 113.0 130.0 113.0 132.0 C113.0 134.0 113.0 137.0 113.0 139.0 C113.0 140.0 114.0 141.0 114.0 142.0 C115.0 144.0 115.0 146.0 114.0 148.0 C114.0 151.0 113.0 153.0 111.0 155.0 C109.0 157.0 107.0 159.0 105.0 161.0 C104.0 161.0 103.0 162.0 102.0 162.0 C101.0 162.0 99.0 162.0 98.0 161.0 C97.0 160.0 95.0 159.0 94.0 159.0 L94.0 159.0 Z"></path>
<path fill="#ff9922" fill-opacity="1.0"  filling="0" d="M94.0 159.0 C95.0 158.0 96.0 158.0 97.0 157.0 C98.0 155.0 99.0 153.0 100.0 152.0 C101.0 150.0 102.0 148.0 103.0 146.0 C104.0 144.0 105.0 142.0 106.0 140.0 C106.0 138.0 107.0 135.0 107.0 133.0 C107.0 131.0 106.0 129.0 106.0 128.0 C105.0 127.0 105.0 126.0 106.0 126.0 C107.0 126.0 108.0 126.0 110.0 127.0 C112.0 128.0 113.0 130.0 113.0 132.0 C113.0 134.0 113.0 137.0 113.0 139.0 C113.0 140.0 114.0 141.0 114.0 142.0 C115.0 144.0 115.0 146.0 114.0 148.0 C114.0 151.0 113.0 153.0 111.0 155.0 C109.0 157.0 107.0 159.0 105.0 161.0 C104.0 161.0 103.0 162.0 102.0 162.0 C101.0 162.0 99.0 162.0 98.0 161.0 C97.0 160.0 95.0 159.0 94.0 159.0 L94.0 159.0 Z"></path>
<path fill="#ff9922" fill-opacity="1.0"  filling="0" d="M94.0 159.0 C95.0 158.0 96.0 158.0 97.0 157.0 C98.0 155.0 99.0 153.0 100.0 152.0 C101.0 150.0 102.0 148.0 103.0 146.0 C104.0 144.0 105.0 142.0 106.0 140.0 C106.0 138.0 107.0 135.0 107.0 133.0 C107.0 131.0 106.0 129.0 106.0 128.0 C105.0 127.0 105.0 126.0 106.0 126.0 C107.0 126.0 108.0 126.0 110.0 127.0 C112.0 128.0 113.0 130.0 113.0 132.0 C113.0 134.0 113.0 137.0 113.0 139.0 C113.0 140.0 114.0 141.0 114.0 142.0 C115.0 144.0 115.0 146.0 114.0 148.0 C114.0 151.0 113.0 153.0 111.0 155.0 C109.0 157.0 107.0 159.0 105.0 161.0 C104.0 161.0 103.0 162.0 102.0 162.0 C101.0 162.0 99.0 162.0 98.0 161.0 C97.0 160.0 95.0 159.0 94.0 159.0 L94.0 159.0 Z"></path>
<path fill="#ff9922" fill-opacity="1.0"  filling="0" d="M94.0 159.0 C95.0 158.0 96.0 158.0 97.0 157.0 C98.0 155.0 99.0 153.0 100.0 152.0 C101.0 150.0 102.0 148.0 103.0 146.0 C104.0 144.0 105.0 142.0 106.0 140.0 C106.0 138.0 107.0 135.0 107.0 133.0 C107.0 131.0 106.0 129.0 106.0 128.0 C105.0 127.0 105.0 126.0 106.0 126.0 C107.0 126.0 108.0 126.0 110.0 127.0 C112.0 128.0 113.0 130.0 113.0 132.0 C113.0 134.0 113.0 137.0 113.0 139.0 C113.0 140.0 114.0 141.0 114.0 142.0 C115.0 144.0 115.0 146.0 114.0 148.0 C114.0 151.0 113.0 153.0 111.0 155.0 C109.0 157.0 107.0 159.0 105.0 161.0 C104.0 161.0 103.0 162.0 102.0 162.0 C101.0 162.0 99.0 162.0 98.0 161.0 C97.0 160.0 95.0 159.0 94.0 159.0 L94.0 159.0 Z"></path>
<path fill="#ff9922" fill-opacity="1.0"  filling="0" d="M94.0 159.0 C95.0 158.0 96.0 158.0 97.0 157.0 C98.0 155.0 99.0 153.0 100.0 152.0 C101.0 150.0 102.0 148.0 103.0 146.0 C104.0 144.0 105.0 142.0 106.0 140.0 C106.0 138.0 107.0 135.0 107.0 133.0 C107.0 131.0 106.0 129.0 106.0 128.0 C105.0 127.0 105.0 126.0 106.0 126.0 C107.0 126.0 108.0 126.0 110.0 127.0 C112.0 128.0 113.0 130.0 113.0 132.0 C113.0 134.0 113.0 137.0 113.0 139.0 C113.0 140.0 114.0 141.0 114.0 142.0 C115.0 144.0 115.0 146.0 114.0 148.0 C114.0 151.0 113.0 153.0 111.0 155.0 C109.0 157.0 107.0 159.0 105.0 161.0 C104.0 161.0 103.0 162.0 102.0 162.0 C101.0 162.0 99.0 162.0 98.0 161.0 C97.0 160.0 95.0 159.0 94.0 159.0 L94.0 159.0 Z"></path>
<path fill="#ff9922" fill-opacity="1.0"  filling="0" d="M94.0 159.0 C95.0 158.0 96.0 158.0 97.0 157.0 C98.0 155.0 99.0 153.0 100.0 152.0 C101.0 150.0 102.0 148.0 103.0 146.0 C104.0 144.0 105.0 142.0 106.0 140.0 C106.0 138.0 107.0 135.0 107.0 133.0 C107.0 131.0 106.0 129.0 106.0 128.0 C105.0 127.0 105.0 126.0 106.0 126.0 C107.0 126.0 108.0 126.0 110.0 127.0 C112.0 128.0 113.0 130.0 113.0 132.0 C113.0 134.0 113.0 137.0 113.0 139.0 C113.0 140.0 114.0 141.0 114.0 142.0 C115.0 144.0 115.0 146.0 114.0 148.0 C114.0 151.0 113.0 153.0 111.0 155.0 C109.0 157.0 107.0 159.0 105.0 161.0 C104.0 161.0 103.0 162.0 102.0 162.0 C101.0 162.0 99.0 162.0 98.0 161.0 C97.0 160.0 95.0 159.0 94.0 159.0 L94.0 159.0 Z"></path>
<path fill="#ff9922" fill-opacity="1.0"  filling="0" d="M94.0 159.0 C95.0 158.0 96.0 158.0 97.0 157.0 C98.0 155.0 99.0 153.0 100.0 152.0 C101.0 150.0 102.0 148.0 103.0 146.0 C104.0 144.0 105.0 142.0 106.0 140.0 C106.0 138.0 107.0 135.0 107.0 133.0 C107.0 131.0 106.0 129.0 106.0 128.0 C105.0 127.0 105.0 126.0 106.0 126.0 C107.0 126.0 108.0 126.0 110.0 127.0 C112.0 128.0 113.0 130.0 113.0 132.0 C113.0 134.0 113.0 137.0 113.0 139.0 C113.0 140.0 114.0 141.0 114.0 142.0 C115.0 144.0 115.0 146.0 114.0 148.0 C114.0 151.0 113.0 153.0 111.0 155.0 C109.0 157.0 107.0 159.0 105.0 161.0 C104.0 161.0 103.0 162.0 102.0 162.0 C101.0 162.0 99.0 162.0 98.0 161.0 C97.0 160.0 95.0 159.0 94.0 159.0 L94.0 159.0 Z"></path>
<path fill="#ff9922" fill-opacity="1.0"  filling="0" d="M94.0 159.0 C95.0 158.0 96.0 158.0 97.0 157.0 C98.0 155.0 99.0 153.0 100.0 152.0 C101.0 150.0 102.0 148.0 103.0 146.0 C104.0 144.0 105.0 142.0 106.0 140.0 C106.0 138.0 107.0 135.0 107.0 133.0 C107.0 131.0 106.0 129.0 106.0 128.0 C105.0 127.0 105.0 126.0 106.0 126.0 C107.0 126.0 108.0 126.0 110.0 127.0 C112.0 128.0 113.0 130.0 113.0 132.0 C113.0 134.0 113.0 137.0 113.0 139.0 C113.0 140.0 114.0 141.0 114.0 142.0 C115.0 144.0 115.0 146.0 114.0 148.0 C114.0 151.0 113.0 153.0 111.0 155.0 C109.0 157.0 107.0 159.0 105.0 161.0 C104.0 161.0 103.0 162.0 102.0 162.0 C101.0 162.0 99.0 162.0 98.0 161.0 C97.0 160.0 95.0 159.0 94.0 159.0 L94.0 159.0 Z"></path>
<path fill="#ff9922" fill-opacity="1.0"  filling="0" d="M94.0 159.0 C95.0 158.0 96.0 158.0 97.0 157.0 C98.0 155.0 99.0 153.0 100.0 152.0 C101.0 150.0 102.0 148.0 103.0 146.0 C104.0 144.0 105.0 142.0 106.0 140.0 C106.0 138.0 107.0 135.0 107.0 133.0 C107.0 131.0 106.0 129.0 106.0 128.0 C105.0 127.0 105.0 126.0 106.0 126.0 C107.0 126.0 108.0 126.0 110.0 127.0 C112.0 128.0 113.0 130.0 113.0 132.0 C113.0 134.0 113.0 137.0 113.0 139.0 C113.0 140.0 114.0 141.0 114.0 142.0 C115.0 144.0 115.0 146.0 114.0 148.0 C114.0 151.0 113.0 153.0 111.0 155.0 C109.0 157.0 107.0 159.0 105.0 161.0 C104.0 161.0 103.0 162.0 102.0 162.0 C101.0 162.0 99.0 162.0 98.0 161.0 C97.0 160.0 95.0 159.0 94.0 159.0 L94.0 159.0 Z"></path>
<path fill="#ff9922" fill-opacity="1.0"  filling="0" d="M94.0 159.0 C95.0 158.0 96.0 158.0 97.0 157.0 C98.0 155.0 99.0 153.0 100.0 152.0 C101.0 150.0 102.0 148.0 103.0 146.0 C104.0 144.0 105.0 142.0 106.0 140.0 C106.0 138.0 107.0 135.0 107.0 133.0 C107.0 131.0 106.0 129.0 106.0 128.0 C105.0 127.0 105.0 126.0 106.0 126.0 C107.0 126.0 108.0 126.0 110.0 127.0 C112.0 128.0 113.0 130.0 113.0 132.0 C113.0 134.0 113.0 137.0 113.0 139.0 C113.0 140.0 114.0 141.0 114.0 142.0 C115.0 144.0 115.0 146.0 114.0 148.0 C114.0 151.0 113.0 153.0 111.0 155.0 C109.0 157.0 107.0 159.0 105.0 161.0 C104.0 161.0 103.0 162.0 102.0 162.0 C101.0 162.0 99.0 162.0 98.0 161.0 C97.0 160.0 95.0 159.0 94.0 159.0 L94.0 159.0 Z"></path>
<path fill="#000000" fill-opacity="1.0"  filling="0" d="M94.0 159.0 C95.0 158.0 96.0 158.0 97.0 157.0 C98.0 155.0 99.0 153.0 100.0 152.0 C101.0 150.0 102.0 148.0 103.0 146.0 C104.0 144.0 105.0 142.0 106.0 140.0 C106.0 138.0 107.0 135.0 107.0 133.0 C107.0 131.0 106.0 129.0 106.0 128.0 C105.0 127.0 105.0 126.0 106.0 126.0 C107.0 126.0 108.0 126.0 110.0 127.0 C112.0 128.0 113.0 130.0 113.0 132.0"></path></svg>