<svg xmlns="http://www.w3.org/2000/svg" viewBox="0.0 0.0 200.0 200.0" height="200px" width="200px"><path fill="#eebb55" fill-opacity="1.0"  filling="0" d="M106.0 94.0 L94.0 94.0 C93.0 94.0 93.0 93.0 93.0 92.0 L93.0 82.0 C93.0 81.0 93.0 80.0 94.0 80.0 L106.0 80.0 C107.0 80.0 107.0 81.0 107.0 82.0 L107.0 92.0 C107.0 93.0 107.0 94.0 106.0 94.0 L106.0 94.0 Z"></path>
<path fill="#eebb55" fill-opacity="1.0"  filling="0" d="M100.0 80.0 C97.0 80.0 93.0 83.0 93.0 87.0 C93.0 90.0 96.0 93.0 100.0 94.0 C104.0 94.0 107.0 90.0 107.0 87.0 C107.0 83.0 103.0 80.0 100.0 80.0 L100.0 80.0 Z M100.0 91.0 C97.0 91.0 95.0 89.0 95.0 87.0 C95.0 84.0 97.0 83.0 100.0 83.0 C103.0 83.0 105.0 85.0 105.0 87.0 C105.0 89.0 103.0 91.0 100.0 91.0 L100.0 91.0 Z"></path>
<path fill="#eebb55" fill-opacity="1.0"  filling="0" d="M100.0 35.0 L75.0 9.0 L57.0 18.0 L71.0 65.0 L75.0 80.0 L125.0 80.0 L129.0 65.0 L143.0 18.0 L125.0 9.0 L100.0 35.0 L100.0 35.0 Z"></path>
<path fill="#eebb55" fill-opacity="1.0"  filling="0" d="M106.0 102.0 L94.0 102.0 C93.0 102.0 93.0 101.0 93.0 100.0 L93.0 95.0 C93.0 94.0 93.0 94.0 94.0 94.0 L106.0 94.0 C107.0 94.0 107.0 94.0 107.0 95.0 L107.0 100.0 C107.0 101.0 107.0 102.0 106.0 102.0 L106.0 102.0 Z"></path>
<path fill="#eebb55" fill-opacity="1.0"  filling="0" d="M112.0 93.0 L88.0 93.0 C87.0 93.0 86.0 92.0 86.0 91.0 L86.0 80.0 C86.0 79.0 87.0 78.0 88.0 78.0 L112.0 78.0 C113.0 78.0 114.0 79.0 114.0 80.0 L114.0 91.0 C114.0 92.0 113.0 93.0 112.0 93.0 L112.0 93.0 Z"></path>
<path fill="#eebb55" fill-opacity="1.0"  filling="0" d="M125.0 81.0 L75.0 81.0 C74.0 81.0 74.0 80.0 74.0 79.0 L74.0 65.0 C74.0 64.0 74.0 63.0 75.0 63.0 L125.0 63.0 C126.0 63.0 126.0 64.0 126.0 65.0 L126.0 79.0 C126.0 80.0 126.0 81.0 125.0 81.0 L125.0 81.0 Z"></path>
<path fill="#eebb55" fill-opacity="1.0"  filling="0" d="M117.0 98.0 L83.0 98.0 C82.0 98.0 81.0 97.0 81.0 96.0 L81.0 87.0 C81.0 86.0 82.0 85.0 83.0 85.0 L117.0 85.0 C118.0 85.0 119.0 86.0 119.0 87.0 L119.0 96.0 C119.0 97.0 118.0 98.0 117.0 98.0 L117.0 98.0 Z"></path>
<path fill="#eebb55" fill-opacity="1.0"  filling="0" d="M119.0 91.0 L81.0 91.0 C80.0 91.0 79.0 90.0 79.0 89.0 L79.0 79.0 C79.0 78.0 80.0 77.0 81.0 77.0 L119.0 77.0 C120.0 77.0 121.0 78.0 121.0 79.0 L121.0 89.0 C121.0 90.0 120.0 91.0 119.0 91.0 L119.0 91.0 Z"></path>
<path fill="#eebb55" fill-opacity="1.0"  filling="0" d="M124.0 91.0 L76.0 91.0 C75.0 91.0 75.0 90.0 75.0 90.0 L75.0 80.0 C75.0 79.0 75.0 79.0 76.0 79.0 L124.0 79.0 C125.0 79.0 125.0 79.0 125.0 80.0 L125.0 90.0 C125.0 90.0 125.0 91.0 124.0 91.0 L124.0 91.0 Z"></path>
<path fill="#eebb55" fill-opacity="1.0"  filling="0" d="M117.0 91.0 L83.0 91.0 C82.0 91.0 81.0 90.0 81.0 89.0 L81.0 79.0 C81.0 78.0 82.0 77.0 83.0 77.0 L117.0 77.0 C118.0 77.0 119.0 78.0 119.0 79.0 L119.0 89.0 C119.0 90.0 118.0 91.0 117.0 91.0 L117.0 91.0 Z"></path>
<path fill="#eebb55" fill-opacity="1.0"  filling="0" d="M102.0 96.0 L98.0 96.0 C96.0 96.0 95.0 95.0 95.0 94.0 L95.0 82.0 C95.0 80.0 96.0 80.0 98.0 80.0 L102.0 80.0 C104.0 80.0 105.0 80.0 105.0 82.0 L105.0 94.0 C105.0 95.0 104.0 96.0 102.0 96.0 L102.0 96.0 Z"></path>
<path fill="#eebb55" fill-opacity="1.0"  filling="0" d="M112.0 96.0 L89.0 96.0 C87.0 96.0 86.0 95.0 86.0 94.0 L86.0 86.0 C86.0 85.0 87.0 84.0 89.0 84.0 L112.0 84.0 C113.0 84.0 114.0 85.0 114.0 86.0 L114.0 94.0 C114.0 95.0 113.0 96.0 112.0 96.0 L112.0 96.0 Z"></path>
<path fill="#eebb55" fill-opacity="1.0"  filling="0" d="M82.0 94.0 L118.0 94.0 C119.0 94.0 119.0 95.0 120.0 95.0 L123.0 91.0 L77.0 91.0 L80.0 95.0 A2.0 2.0 0.0 0 0 82.0 94.0 L82.0 94.0 Z"></path>
<path fill="#eebb55" fill-opacity="1.0"  filling="0" d="M106.0 96.0 L94.0 96.0 C92.0 96.0 91.0 95.0 91.0 94.0 L91.0 86.0 C91.0 85.0 92.0 84.0 94.0 84.0 L106.0 84.0 C108.0 84.0 109.0 85.0 109.0 86.0 L109.0 94.0 C109.0 95.0 108.0 96.0 106.0 96.0 L106.0 96.0 Z"></path>
<path fill="#eebb55" fill-opacity="1.0"  filling="0" d="M100.0 97.0 C98.0 97.0 97.0 96.0 96.0 94.0 L96.0 81.0 C97.0 79.0 98.0 78.0 100.0 78.0 C102.0 78.0 103.0 79.0 104.0 81.0 L104.0 94.0 C103.0 96.0 102.0 97.0 100.0 97.0 L100.0 97.0 Z"></path>
<path fill="#eebb55" fill-opacity="1.0"  filling="0" d="M118.0 95.0 L82.0 95.0 C81.0 95.0 80.0 94.0 80.0 93.0 L80.0 85.0 C80.0 84.0 81.0 83.0 82.0 83.0 L118.0 83.0 C119.0 83.0 120.0 84.0 120.0 85.0 L120.0 93.0 C120.0 94.0 119.0 95.0 118.0 95.0 L118.0 95.0 Z"></path>
<path fill="#eebb55" fill-opacity="1.0"  filling="0" d="M100.0 81.0 C97.0 81.0 95.0 83.0 95.0 85.0 L95.0 93.0 C95.0 96.0 97.0 98.0 100.0 98.0 C103.0 98.0 105.0 96.0 105.0 93.0 L105.0 85.0 C105.0 83.0 103.0 81.0 100.0 81.0 L100.0 81.0 Z"></path>
<path fill="#eebb55" fill-opacity="1.0"  filling="0" d="M106.0 82.0 L94.0 82.0 C93.0 82.0 92.0 81.0 92.0 80.0 L92.0 65.0 C92.0 64.0 93.0 63.0 94.0 63.0 L106.0 63.0 C107.0 63.0 108.0 64.0 108.0 65.0 L108.0 80.0 C108.0 81.0 107.0 82.0 106.0 82.0 L106.0 82.0 Z"></path>
<path fill="#eebb55" fill-opacity="1.0"  filling="0" d="M100.0 75.0 C98.0 75.0 97.0 73.0 97.0 71.0 L97.0 63.0 C97.0 61.0 98.0 59.0 100.0 59.0 C102.0 59.0 103.0 61.0 103.0 63.0 L103.0 71.0 C103.0 73.0 102.0 75.0 100.0 75.0 L100.0 75.0 Z"></path>
<path fill="#eebb55" fill-opacity="1.0"  filling="0" d="M106.0 76.0 L94.0 76.0 C93.0 76.0 92.0 75.0 92.0 74.0 L92.0 65.0 C92.0 64.0 93.0 63.0 94.0 63.0 L106.0 63.0 C107.0 63.0 108.0 64.0 108.0 65.0 L108.0 74.0 C108.0 75.0 107.0 76.0 106.0 76.0 L106.0 76.0 Z"></path>
<path fill="#eebb55" fill-opacity="1.0"  filling="0" d="M100.0 79.0 C98.0 79.0 97.0 78.0 96.0 76.0 L96.0 63.0 C97.0 61.0 98.0 60.0 100.0 60.0 C102.0 60.0 103.0 61.0 104.0 63.0 L104.0 76.0 C103.0 78.0 102.0 79.0 100.0 79.0 L100.0 79.0 Z"></path>
<path fill="#eebb55" fill-opacity="1.0"  filling="0" d="M100.0 76.0 C98.0 76.0 97.0 74.0 97.0 73.0 L97.0 62.0 C97.0 60.0 98.0 59.0 100.0 59.0 C102.0 59.0 103.0 60.0 103.0 62.0 L103.0 73.0 C103.0 74.0 102.0 76.0 100.0 76.0 L100.0 76.0 Z"></path>
<path fill="#eebb55" fill-opacity="1.0"  filling="0" d="M100.0 92.0 C98.0 92.0 97.0 90.0 97.0 88.0 L97.0 78.0 C97.0 77.0 98.0 76.0 100.0 76.0 C102.0 76.0 103.0 77.0 103.0 78.0 L103.0 88.0 C103.0 90.0 102.0 92.0 100.0 92.0 L100.0 92.0 Z"></path>
<path fill="#eebb55" fill-opacity="1.0"  filling="0" d="M104.0 93.0 L96.0 93.0 C94.0 93.0 92.0 92.0 92.0 90.0 L92.0 79.0 C92.0 77.0 94.0 75.0 96.0 75.0 L104.0 75.0 C106.0 75.0 108.0 77.0 108.0 79.0 L108.0 90.0 C108.0 92.0 106.0 93.0 104.0 93.0 L104.0 93.0 Z"></path>
<path fill="#eebb55" fill-opacity="1.0"  filling="0" d="M100.0 95.0 C98.0 95.0 97.0 94.0 97.0 92.0 L97.0 78.0 C97.0 77.0 98.0 75.0 100.0 75.0 C102.0 75.0 103.0 77.0 103.0 78.0 L103.0 92.0 C103.0 94.0 102.0 95.0 100.0 95.0 L100.0 95.0 Z"></path>
<path fill="#eebb55" fill-opacity="1.0"  filling="0" d="M100.0 96.0 C99.0 96.0 97.0 95.0 97.0 93.0 L97.0 78.0 C97.0 77.0 99.0 76.0 100.0 76.0 C101.0 76.0 103.0 77.0 103.0 78.0 L103.0 93.0 C103.0 95.0 101.0 96.0 100.0 96.0 L100.0 96.0 Z"></path>
<path fill="#eebb55" fill-opacity="1.0"  filling="0" d="M100.0 93.0 C98.0 93.0 97.0 92.0 97.0 90.0 L97.0 78.0 C97.0 77.0 98.0 76.0 100.0 76.0 C102.0 76.0 103.0 77.0 103.0 78.0 L103.0 90.0 C103.0 92.0 102.0 93.0 100.0 93.0 L100.0 93.0 Z"></path>
<path fill="#eebb55" fill-opacity="1.0"  filling="0" d="M101.0 94.0 L99.0 94.0 C98.0 94.0 97.0 93.0 97.0 92.0 L97.0 78.0 C97.0 77.0 98.0 77.0 99.0 77.0 L101.0 77.0 C102.0 77.0 103.0 77.0 103.0 78.0 L103.0 92.0 C103.0 93.0 102.0 94.0 101.0 94.0 L101.0 94.0 Z"></path>
<path fill="#eebb55" fill-opacity="1.0"  filling="0" d="M104.0 97.0 L96.0 97.0 C94.0 97.0 92.0 95.0 92.0 94.0 L92.0 86.0 C92.0 85.0 94.0 83.0 96.0 83.0 L104.0 83.0 C106.0 83.0 108.0 85.0 108.0 86.0 L108.0 94.0 C108.0 95.0 106.0 97.0 104.0 97.0 L104.0 97.0 Z"></path>
<path fill="#eebb55" fill-opacity="1.0"  filling="0" d="M111.0 96.0 L89.0 96.0 C88.0 96.0 87.0 95.0 87.0 94.0 L87.0 86.0 C87.0 85.0 88.0 84.0 89.0 84.0 L111.0 84.0 C112.0 84.0 113.0 85.0 113.0 86.0 L113.0 94.0 C113.0 95.0 112.0 96.0 111.0 96.0 L111.0 96.0 Z"></path>
<path fill="#eebb55" fill-opacity="1.0"  filling="0" d="M101.0 95.0 L99.0 95.0 C96.0 95.0 94.0 93.0 94.0 91.0 L94.0 81.0 C94.0 79.0 96.0 77.0 99.0 77.0 L101.0 77.0 C104.0 77.0 106.0 79.0 106.0 81.0 L106.0 91.0 C106.0 93.0 104.0 95.0 101.0 95.0 L101.0 95.0 Z"></path>
<path fill="#eebb55" fill-opacity="1.0"  filling="0" d="M99.0 98.0 L101.0 98.0 C98.0 98.0 97.0 97.0 97.0 95.0 L97.0 78.0 C97.0 77.0 98.0 76.0 99.0 76.0 L101.0 76.0 C102.0 76.0 103.0 77.0 103.0 78.0 L103.0 95.0 C103.0 97.0 102.0 98.0 99.0 98.0 L99.0 98.0 Z"></path>
<path fill="#eebb55" fill-opacity="1.0"  filling="0" d="M100.0 99.0 C98.0 99.0 97.0 97.0 97.0 96.0 L97.0 78.0 C97.0 77.0 98.0 75.0 100.0 75.0 C102.0 75.0 103.0 77.0 103.0 78.0 L103.0 96.0 C103.0 97.0 102.0 99.0 100.0 99.0 L100.0 99.0 Z"></path>
<path fill="#eebb55" fill-opacity="1.0"  filling="0" d="M101.0 99.0 L99.0 99.0 C97.0 99.0 96.0 98.0 96.0 96.0 L96.0 78.0 C96.0 76.0 97.0 75.0 99.0 75.0 L101.0 75.0 C103.0 75.0 104.0 76.0 104.0 78.0 L104.0 96.0 C104.0 98.0 103.0 99.0 101.0 99.0 L101.0 99.0 Z"></path>
<path fill="#eebb55" fill-opacity="1.0"  filling="0" d="M100.0 101.0 C98.0 101.0 97.0 100.0 97.0 98.0 L97.0 78.0 C97.0 76.0 98.0 75.0 100.0 75.0 C102.0 75.0 103.0 76.0 103.0 78.0 L103.0 98.0 C103.0 100.0 102.0 101.0 100.0 101.0 L100.0 101.0 Z"></path>
<path fill="#eebb55" fill-opacity="1.0"  filling="0" d="M100.0 102.0 C98.0 102.0 97.0 101.0 97.0 100.0 L97.0 78.0 C97.0 77.0 98.0 75.0 100.0 75.0 C102.0 75.0 103.0 77.0 103.0 78.0 L103.0 100.0 C103.0 101.0 102.0 102.0 100.0 102.0 L100.0 102.0 Z"></path>
<path fill="#eebb55" fill-opacity="1.0"  filling="0" d="M101.0 102.0 L99.0 102.0 C97.0 102.0 96.0 101.0 96.0 100.0 L96.0 78.0 C96.0 76.0 97.0 75.0 99.0 75.0 L101.0 75.0 C103.0 75.0 104.0 76.0 104.0 78.0 L104.0 100.0 C104.0 101.0 103.0 102.0 101.0 102.0 L101.0 102.0 Z"></path>
<path fill="#eebb55" fill-opacity="1.0"  filling="0" d="M100.0 103.0 C98.0 103.0 96.0 102.0 96.0 100.0 L96.0 78.0 C96.0 76.0 98.0 74.0 100.0 74.0 C102.0 74.0 104.0 76.0 104.0 78.0 L104.0 100.0 C104.0 102.0 102.0 103.0 100.0 103.0 L100.0 103.0 Z"></path>
<path fill="#eebb55" fill-opacity="1.0"  filling="0" d="M101.0 104.0 L99.0 104.0 C97.0 104.0 96.0 103.0 96.0 101.0 L96.0 78.0 C96.0 76.0 97.0 75.0 99.0 75.0 L101.0 75.0 C103.0 75.0 104.0 76.0 104.0 78.0 L104.0 101.0 C104.0 103.0 103.0 104.0 101.0 104.0 L101.0 104.0 Z"></path>
<path fill="#eebb55" fill-opacity="1.0"  filling="0" d="M100.0 104.0 C98.0 104.0 97.0 103.0 97.0 101.0 L97.0 78.0 C97.0 77.0 98.0 75.0 100.0 75.0 C102.0 75.0 103.0 77.0 103.0 78.0 L103.0 101.0 C103.0 103.0 102.0 104.0 100.0 104.0 L100.0 104.0 Z"></path>
<path fill="#eebb55" fill-opacity="1.0"  filling="0" d="M100.0 105.0 C98.0 105.0 96.0 104.0 96.0 102.0 L96.0 78.0 C96.0 76.0 98.0 74.0 100.0 74.0 C102.0 74.0 104.0 76.0 104.0 78.0 L104.0 102.0 C104.0 104.0 102.0 105.0 100.0 105.0 L100.0 105.0 Z"></path>
<path fill="#eebb55" fill-opacity="1.0"  filling="0" d="M101.0 105.0 L99.0 105.0 C97.0 105.0 96.0 103.0 96.0 102.0 L96.0 78.0 C96.0 76.0 97.0 75.0 99.0 75.0 L101.0 75.0 C103.0 75.0 104.0 76.0 104.0 78.0 L104.0 102.0 C104.0 103.0 103.0 105.0 101.0 105.0 L101.0 105.0 Z"></path>
<path fill="#eebb55" fill-opacity="1.0"  filling="0" d="M100.0 106.0 C98.0 106.0 97.0 105.0 97.0 104.0 L97.0 78.0 C97.0 76.0 98.0 75.0 100.0 75.0 C102.0 75.0 103.0 76.0 103.0 78.0 L103.0 104.0 C103.0 105.0 102.0 106.0 100.0 106.0 L100.0 106.0 Z"></path></svg>