<svg xmlns="http://www.w3.org/2000/svg" viewBox="0.0 0.0 200.0 200.0" height="200px" width="200px"><path fill="#ffeeaa" fill-opacity="1.0"  filling="0" d="M100.0 35.0 L75.0 9.0 L57.0 18.0 L71.0 65.0 L75.0 81.0 L100.0 91.0 L125.0 81.0 L129.0 65.0 L143.0 18.0 L125.0 9.0 L100.0 35.0 L100.0 35.0 Z"></path>
<path fill="#ffbb44" fill-opacity="1.0"  filling="0" d="M79.0 123.0 L79.0 89.0 L79.0 89.0 C78.0 89.0 78.0 89.0 78.0 89.0 C75.0 89.0 75.0 91.0 75.0 92.0 C75.0 93.0 75.0 93.0 76.0 93.0 L76.0 93.0 L39.0 168.0 L46.0 173.0 C50.0 177.0 57.0 177.0 62.0 175.0 C67.0 173.0 73.0 173.0 76.0 178.0 L79.0 182.0 L79.0 182.0 C79.0 183.0 79.0 183.0 79.0 183.0 C82.0 187.0 88.0 187.0 92.0 184.0 C97.0 180.0 103.0 180.0 108.0 184.0 C112.0 187.0 118.0 187.0 121.0 183.0 C121.0 183.0 121.0 183.0 121.0 182.0 L121.0 182.0 L124.0 178.0 C127.0 173.0 133.0 173.0 138.0 175.0 C143.0 177.0 150.0 177.0 154.0 173.0 L160.0 168.0 L123.0 93.0 L124.0 93.0 C125.0 93.0 125.0 92.0 125.0 91.0 C125.0 90.0 124.0 89.0 122.0 89.0 C122.0 89.0 122.0 89.0 121.0 89.0 L121.0 89.0 L121.0 123.0 L79.0 123.0 L79.0 123.0 L79.0 123.0 Z"></path>
<path fill="#cc9944" fill-opacity="1.0"  filling="0" d="M75.0 81.0 L125.0 81.0 L125.0 91.0 L75.0 91.0 L75.0 81.0 L75.0 81.0 Z"></path>
<path fill="#cc9944" fill-opacity="1.0"  filling="0" d="M100.0 80.0 C96.0 80.0 93.0 83.0 93.0 87.0 C93.0 90.0 96.0 93.0 100.0 93.0 C104.0 93.0 107.0 90.0 107.0 87.0 C107.0 83.0 104.0 80.0 100.0 80.0 L100.0 80.0 Z M100.0 90.0 C98.0 90.0 96.0 89.0 96.0 87.0 C96.0 85.0 98.0 83.0 100.0 83.0 C102.0 83.0 104.0 85.0 104.0 87.0 C104.0 89.0 102.0 90.0 100.0 90.0 L100.0 90.0 Z"></path></svg>