<svg xmlns="http://www.w3.org/2000/svg" viewBox="0.0 0.0 200.0 200.0" height="200px" width="200px"><path fill="#ffeeaa" fill-opacity="1.0"  filling="0" d="M100.0 35.0 L75.0 9.0 L57.0 18.0 L71.0 65.0 L75.0 81.0 L100.0 91.0 L125.0 81.0 L129.0 65.0 L143.0 18.0 L125.0 9.0 L100.0 35.0 L100.0 35.0 Z"></path>
<path fill="#000000" fill-opacity="1.0"  filling="0" d="M79.0 123.0 C77.0 123.0 75.0 122.0 75.0 120.0 L75.0 100.0 C75.0 98.0 77.0 96.0 79.0 96.0 C81.0 96.0 83.0 98.0 83.0 100.0 L83.0 120.0 C83.0 122.0 81.0 123.0 79.0 123.0 L79.0 123.0 Z"></path>
<path fill="#000000" fill-opacity="1.0"  filling="0" d="M121.0 123.0 C119.0 123.0 117.0 122.0 117.0 120.0 L117.0 100.0 C117.0 98.0 119.0 96.0 121.0 96.0 C123.0 96.0 125.0 98.0 125.0 100.0 L125.0 120.0 C125.0 122.0 123.0 123.0 121.0 123.0 L121.0 123.0 Z"></path>
<path fill="#000000" fill-opacity="1.0"  filling="0" d="M100.0 92.0 C98.0 92.0 96.0 90.0 96.0 88.0 L96.0 71.0 C96.0 69.0 98.0 67.0 100.0 67.0 C102.0 67.0 104.0 69.0 104.0 71.0 L104.0 88.0 C104.0 90.0 102.0 92.0 100.0 92.0 L100.0 92.0 Z"></path>
<path fill="#000000" fill-opacity="1.0"  filling="0" d="M100.0 94.0 C97.0 94.0 94.0 92.0 93.0 90.0 C92.0 87.0 92.0 84.0 94.0 82.0 C95.0 80.0 98.0 79.0 100.0 79.0 C102.0 79.0 105.0 80.0 106.0 82.0 C108.0 84.0 108.0 87.0 107.0 90.0 C106.0 92.0 103.0 94.0 100.0 94.0 L100.0 94.0 Z M100.0 86.0 C99.0 86.0 99.0 87.0 99.0 87.0 C100.0 87.0 100.0 87.0 101.0 87.0 C101.0 87.0 101.0 86.0 100.0 86.0 L100.0 86.0 Z"></path>
<path fill="#cc9944" fill-opacity="1.0"  filling="0" d="M100.0 91.0 L75.0 81.0 L75.0 91.0 L100.0 97.0 L125.0 91.0 L125.0 81.0 L100.0 91.0 L100.0 91.0 Z"></path>
<path fill="#000000" fill-opacity="1.0"  filling="0" d="M100.0 91.0 L75.0 81.0 L75.0 80.0 L75.0 79.0 L75.0 73.0 L100.0 81.0 L125.0 73.0 L125.0 79.0 L125.0 80.0 L125.0 81.0 L100.0 91.0 L100.0 91.0 Z"></path>
<path fill="#cc9944" fill-opacity="1.0"  filling="0" d="M100.0 91.0 L71.0 86.0 L75.0 92.0 L100.0 97.0 L125.0 92.0 L129.0 86.0 L100.0 91.0 L100.0 91.0 Z"></path>
<path fill="#000000" fill-opacity="1.0"  filling="0" d="M100.0 80.0 L75.0 74.0 L75.0 79.0 L75.0 80.0 L75.0 81.0 L100.0 91.0 L125.0 81.0 L125.0 80.0 L125.0 79.0 L125.0 74.0 L100.0 80.0 L100.0 80.0 Z"></path>
<path fill="#cc9944" fill-opacity="1.0"  filling="0" d="M100.0 91.0 C97.0 91.0 95.0 89.0 95.0 87.0 C95.0 85.0 97.0 83.0 100.0 83.0 C103.0 83.0 105.0 85.0 105.0 87.0 C105.0 89.0 103.0 91.0 100.0 91.0 L100.0 91.0 Z M100.0 84.0 C98.0 84.0 97.0 85.0 97.0 87.0 C97.0 88.0 98.0 90.0 100.0 90.0 C102.0 90.0 103.0 88.0 103.0 87.0 C103.0 85.0 102.0 84.0 100.0 84.0 L100.0 84.0 Z"></path>
<path fill="#cc9944" fill-opacity="1.0"  filling="0" d="M100.0 91.0 C97.0 91.0 95.0 89.0 95.0 87.0 C95.0 85.0 97.0 83.0 100.0 83.0 C103.0 83.0 105.0 85.0 105.0 87.0 C105.0 89.0 103.0 91.0 100.0 91.0 L100.0 91.0 Z M100.0 85.0 C98.0 85.0 97.0 86.0 97.0 87.0 C97.0 88.0 98.0 90.0 100.0 90.0 C102.0 90.0 103.0 88.0 103.0 87.0 C103.0 86.0 102.0 85.0 100.0 85.0 L100.0 85.0 Z"></path>
<path fill="#cc9944" fill-opacity="1.0"  filling="0" d="M100.0 91.0 C97.0 91.0 95.0 89.0 95.0 87.0 C95.0 85.0 97.0 83.0 100.0 83.0 C103.0 83.0 105.0 85.0 105.0 87.0 C105.0 89.0 103.0 91.0 100.0 91.0 L100.0 91.0 Z M100.0 84.0 C98.0 84.0 97.0 85.0 97.0 87.0 C97.0 88.0 98.0 90.0 100.0 90.0 C102.0 90.0 103.0 88.0 103.0 87.0 C103.0 85.0 102.0 84.0 100.0 84.0 L100.0 84.0 Z"></path>
<path fill="#cc9944" fill-opacity="1.0"  filling="0" d="M100.0 91.0 C97.0 91.0 95.0 89.0 95.0 87.0 C95.0 85.0 97.0 83.0 100.0 83.0 C103.0 83.0 105.0 85.0 105.0 87.0 C105.0 89.0 103.0 91.0 100.0 91.0 L100.0 91.0 Z M100.0 85.0 C98.0 85.0 97.0 86.0 97.0 87.0 C97.0 88.0 98.0 90.0 100.0 90.0 C102.0 90.0 103.0 88.0 103.0 87.0 C103.0 86.0 102.0 85.0 100.0 85.0 L100.0 85.0 Z"></path>
<path fill="#cc9944" fill-opacity="1.0"  filling="0" d="M100.0 91.0 C97.0 91.0 95.0 89.0 95.0 87.0 C95.0 85.0 97.0 83.0 100.0 83.0 C103.0 83.0 105.0 85.0 105.0 87.0 C105.0 89.0 103.0 91.0 100.0 91.0 L100.0 91.0 Z M100.0 85.0 C98.0 85.0 97.0 86.0 97.0 87.0 C97.0 88.0 98.0 90.0 100.0 90.0 C102.0 90.0 103.0 88.0 103.0 87.0 C103.0 86.0 102.0 85.0 100.0 85.0 L100.0 85.0 Z"></path>
<path fill="#cc9944" fill-opacity="1.0"  filling="0" d="M100.0 91.0 C97.0 91.0 95.0 89.0 95.0 87.0 C95.0 85.0 97.0 83.0 100.0 83.0 C103.0 83.0 105.0 85.0 105.0 87.0 C105.0 89.0 103.0 91.0 100.0 91.0 L100.0 91.0 Z M100.0 85.0 C98.0 85.0 97.0 86.0 97.0 87.0 C97.0 88.0 98.0 90.0 100.0 90.0 C102.0 90.0 103.0 88.0 103.0 87.0 C103.0 86.0 102.0 85.0 100.0 85.0 L100.0 85.0 Z"></path>
<path fill="#cc9944" fill-opacity="1.0"  filling="0" d="M100.0 91.0 C97.0 91.0 95.0 89.0 95.0 87.0 C95.0 85.0 97.0 83.0 100.0 83.0 C103.0 83.0 105.0 85.0 105.0 87.0 C105.0 89.0 103.0 91.0 100.0 91.0 L100.0 91.0 Z M100.0 85.0 C98.0 85.0 97.0 86.0 97.0 87.0 C97.0 88.0 98.0 90.0 100.0 90.0 C102.0 90.0 103.0 88.0 103.0 87.0 C103.0 86.0 102.0 85.0 100.0 85.0 L100.0 85.0 Z"></path>
<path fill="#cc9944" fill-opacity="1.0"  filling="0" d="M100.0 91.0 C97.0 91.0 95.0 89.0 95.0 87.0 C95.0 85.0 97.0 83.0 100.0 83.0 C103.0 83.0 105.0 85.0 105.0 87.0 C105.0 89.0 103.0 91.0 100.0 91.0 L100.0 91.0 Z M100.0 85.0 C98.0 85.0 97.0 86.0 97.0 87.0 C97.0 88.0 98.0 90.0 100.0 90.0 C102.0 90.0 103.0 88.0 103.0 87.0 C103.0 86.0 102.0 85.0 100.0 85.0 L100.0 85.0 Z"></path>
<path fill="#cc9944" fill-opacity="1.0"  filling="0" d="M100.0 91.0 C97.0 91.0 95.0 89.0 95.0 87.0 C95.0 85.0 97.0 83.0 100.0 83.0 C103.0 83.0 105.0 85.0 105.0 87.0 C105.0 89.0 103.0 91.0 100.0 91.0 L100.0 91.0 Z M100.0 85.0 C98.0 85.0 97.0 86.0 97.0 87.0 C97.0 88.0 98.0 90.0 100.0 90.0 C102.0 90.0 103.0 88.0 103.0 87.0 C103.0 86.0 102.0 85.0 100.0 85.0 L100.0 85.0 Z"></path>
<path fill="#cc9944" fill-opacity="1.0"  filling="0" d="M105.0 91.0 C105.0 90.0 104.0 89.0 103.0 89.0 C102.0 88.0 101.0 88.0 100.0 88.0 C99.0 88.0 98.0 88.0 97.0 89.0 C96.0 89.0 95.0 90.0 95.0 91.0 C95.0 92.0 96.0 93.0 97.0 93.0 C98.0 94.0 99.0 94.0 100.0 94.0 C101.0 94.0 102.0 94.0 103.0 93.0 C104.0 93.0 105.0 92.0 105.0 91.0 L105.0 91.0 Z"></path>
<path fill="#cc9944" fill-opacity="1.0"  filling="0" d="M100.0 91.0 C97.0 91.0 95.0 89.0 95.0 87.0 C95.0 85.0 97.0 83.0 100.0 83.0 C103.0 83.0 105.0 85.0 105.0 87.0 C105.0 89.0 103.0 91.0 100.0 91.0 L100.0 91.0 Z M100.0 85.0 C98.0 85.0 97.0 86.0 97.0 87.0 C97.0 88.0 98.0 90.0 100.0 90.0 C102.0 90.0 103.0 88.0 103.0 87.0 C103.0 86.0 102.0 85.0 100.0 85.0 L100.0 85.0 Z"></path>
<path fill="#000000" fill-opacity="1.0"  filling="0" d="M99.0 91.0 C99.0 90.0 99.0 90.0 99.0 90.0 C99.0 90.0 99.0 90.0 99.0 90.0 C99.0 90.0 99.0 90.0 99.0 90.0 C99.0 90.0 99.0 90.0 99.0 90.0 C99.0 90.0 99.0 90.0 99.0 90.0 C99.0 90.0 99.0 90.0 99.0 90.0 C99.0 90.0 99.0 90.0 99.0 90.0 C99.0 90.0 99.0 90.0 99.0 90.0 C99.0 90.0 99.0 90.0 99.0 90.0 C99.0 90.0 99.0 90.0 99.0 90.0 C99.0 90.0 99.0 90.0 99.0 90.0 C99.0 90.0 99.0 90.0 99.0 90.0 C99.0 90.0 99.0 90.0 99.0 90.0 C99.0 90.0 99.0 90.0 99.0 90.0 C99.0 90.0 99.0 90.0 99.0 90.0 C99.0 90.0 99.0 90.0 99.0 90.0 C99.0 90.0 99.0 90.0 99.0 90.0 C99.0 90.0 99.0 90.0 99.0 90.0 C99.0 90.0 99.0 90.0 99.0 90.0 C99.0 90.0 99.0 90.0 99.0 90.0 C99.0 90.0 99.0 90.0 99.0 90.0 C99.0 90.0 99.0 90.0 99.0 90.0 C99.0 90.0 99.0 90.0 99.0 90.0 C99.0 90.0 99.0 90.0 99.0 90.0 C99.0 90.0 99.0 90.0 99.0 90.0 C99.0 90.0 99.0 90.0 99.0 90.0 C99.0 90.0 99.0 90.0 99.0 90.0 C99.0 90.0 99.0 90.0 99.0 90.0 C99.0 90.0 99.0 90.0 99.0 90.0 C99.0 90.0 99.0 90.0 99.0 90.0 C99.0 90.0 99.0 90.0 99.0 90.0 C99.0 90.0 99.0 90.0 99.0 90.0 C99.0 90.0 99.0 90.0 99.0 90.0 C99.0 90.0 99.0 90.0 99.0 90.0 C99.0 90.0 99.0 90.0 99.0 90.0 C99.0 90.0 99.0 90.0 99.0 90.0 C99.0 90.0 99.0 90.0 99.0 90.0 C99.0 90.0 99.0 90.0 99.0 90.0 C99.0 90.0 99.0 90.0 99.0 90.0 C99.0 90.0 99.0 90.0 99.0 90.0 C99.0 90.0 99.0 90.0 99.0 90.0 C99.0 90.0 99.0 90.0 99.0 90.0 C99.0 90.0 99.0 90.0 99.0 90.0 C99.0 90.0 99.0 90.0 99.0 90.0 C99.0 90.0 99.0 90.0 99.0 90.0 C99.0 90.0 99.0 90.0 99.0 90.0 C99.0 90.0 99.0 90.0 99.0 90.0 C99.0 90.0 99.0 90.0 99.0 90.0 C99.0 90.0 99.0 90.0 99.0 90.0 C99.0 90.0 99.0 90.0 99.0 90.0 C99.0 90.0 99.0 90.0 99.0 90.0 C99.0 90.0 99.0 90.0 99.0 90.0 C99.0 90.0 99.0 90.0 99.0 90.0 C99.0 90.0 99.0 90.0 99.0 90.0 C99.0 90.0 99.0 90.0 99.0 90.0 C99.0 90.0 99.0 90.0 99.0 90.0 C99.0 90.0 99.0 90.0 99.0 90.0 C99.0 90.0 99.0 90.0 99.0 90.0 C99.0 90.0 99.0 90.0 99.0 90.0 C99.0 90.0 99.0 90.0 99.0 90.0 C99.0 90.0 99.0 90.0 99.0 90.0 C99.0 90.0 99.0 90.0 99.0 90.0 C99.0 90.0 99.0 90.0 99.0 90.0 C99.0 90.0 99.0 90.0 99.0 90.0 C99.0 90.0 99.0 90.0 99.0 90.0 C99.0 90.0 99.0 90.0 99.0 90.0 C99.0 90.0 99.0 90.0 99.0 90.0 C99.0 90.0 99.0 90.0 99.0 90.0 C99.0 90.0 99.0 90.0 99.0 90.0 C99.0 90.0 99.0 90.0 99.0 90.0 C99.0 90.0 99.0 90.0 99.0 90.0 C99.0 90.0 99.0 90.0 99.0 90.0 C99.0 90.0 99.0 90.0 99.0 90.0 C99.0 90.0 99.0 90.0 99.0 90.0 C99.0 90.0 99.0 90.0 99.0 90.0 C99.0 90.0 99.0 90.0 99.0 90.0 C99.0 90.0 99.0 90.0 99.0 90.0 C99.0 90.0 99.0 90.0 99.0 90.0 C99.0 90.0 99.0 90.0 99.0 90.0 C99.0 90.0 99.0 90.0 99.0 90.0 C99.0 90.0 99.0 90.0 99.0 90.0 C99.0 90.0 99.0 90.0 99.0 90.0 C99.0 90.0 99.0 90.0 99.0 90.0 C99.0 90.0 99.0 90.0 99.0 90.0 C99.0 90.0 99.0 90.0 99.0 90.0 C99.0 90.0 99.0 90.0 99.0 90.0 C99.0 90.0 99.0 90.0 99.0 90.0 C99.0 90.0 99.0 90.0 99.0 90.0 C99.0 90.0 99.0 90.0 99.0 90.0 C99.0 90.0 99.0 90.0 99.0 90.0 C99.0 90.0 99.0 90.0 99.0 90.0 C99.0 90.0 99.0 90.0 99.0 90.0 C99.0 90.0 99.0 90.0 99.0 90.0 C99.0 90.0 99.0 90.0 99.0 90.0 C99.0 90.0 99.0 90.0 99.0 90.0 C99.0 90.0 99.0 90.0 99.0 90.0 C99.0 90.0 99.0 90.0 99.0 90.0 C99.0 90.0 99.0 90.0 99.0 90.0 C99.0 90.0 99.0 90.0 99.0 90.0 C99.0 90.0 99.0 90.0 99.0 90.0 C99.0 90.0 99.0 90.0 99.0 90.0 C99.0 90.0 99.0 90.0 99.0 90.0 C99.0 90.0 99.0 90.0 99.0 90.0 C99.0 90.0 99.0 90.0 99.0 90.0 C99.0 90.0 99.0 90.0 99.0 90.0 C99.0 90.0 99.0 90.0 99.0 90.0 C99.0 90.0 99.0 90.0 99.0 90.0 C99.0 90.0 99.0 90.0 99.0 90.0 C99.0 90.0 99.0 90.0 99.0 90.0 C99.0 90.0 99.0 90.0 99.0 90.0 C99.0 90.0 99.0 90.0 99.0 90.0 C99.0 90.0 99.0 90.0 99.0 90.0 C99.0 90.0 99.0 90.0 99.0 90.0 C99.0 90.0 99.0 90.0 99.0 90.0 C99.0 90.0 99.0 90.0 99.0 90.0 C99.0 90.0 99.0 90.0 99.0 90.0 C99.0 90.0 99.0 90.0 99.0 90.0 C99.0 90.0 99.0 90.0 99.0 90.0 C99.0 90.0 99.0 90.0 99.0 90.0 C99.0 90.0 99.0 90.0 99.0 90.0 C99.0 90.0 99.0 90.0 99.0 90.0 C99.0 90.0 99.0 90.0 99.0 90.0 C99.0 90.0 99.0 90.0 99.0 90.0 C99.0 90.0 99.0 90.0 99.0 90.0 C99.0 90.0 99.0 90.0 99.0 90.0 C99.0 90.0 99.0 90.0 99.0 90.0 C99.0 90.0 99.0 90.0 99.0 90.0 C99.0 90.0 99.0 90.0 99.0 90.0 C99.0 90.0 99.0 90.0 99.0 90.0 C99.0 90.0 99.0 90.0 99.0 90.0 C99.0 90.0 99.0 90.0 99.0 90.0 C99.0 90.0 99.0 90.0 99.0 90.0 C99.0 90.0 99.0 90.0 99.0 90.0 C99.0 90.0 99.0 90.0 99.0 90.0 C99.0 90.0 99.0 90.0 99.0 90.0 C99.0 90.0 99.0 90.0 99.0 90.0 C99.0 90.0 99.0 90.0 99.0 90.0 C99.0 90.0 99.0 90.0 99.0 90.0 C99.0 90.0 99.0 90.0 99.0 90.0 C99.0 90.0 99.0 90.0 99.0 90.0 C99.0 90.0 99.0 90.0 99.0 90.0 C99.0 90.0 99.0 90.0 99.0 90.0 C99.0 90.0 99.0 90.0 99.0 90.0 C99.0 90.0 99.0 90.0 99.0 90.0 C99.0 90.0 99.0 90.0 99.0 90.0 C99.0 90.0 99.0 90.0 99.0 90.0 C99.0 90.0 99.0 90.0 99.0 90.0 C99.0 90.0 99.0 90.0 99.0 90.0 C99.0 90.0 99.0 90.0 99.0 90.0 C99.0 90.0 99.0 90.0 99.0 90.0 C99.0 90.0 99.0 90.0 99.0 90.0"></path></svg>