<svg xmlns="http://www.w3.org/2000/svg" viewBox="0.0 0.0 200.0 200.0" height="200px" width="200px"><path fill="#ffeeaa" fill-opacity="1.0"  filling="0" d="M100.0 35.0 L75.0 9.0 L57.0 18.0 L71.0 65.0 L75.0 81.0 L100.0 91.0 L125.0 81.0 L129.0 65.0 L143.0 18.0 L125.0 9.0 L100.0 35.0 L100.0 35.0 Z"></path>
<path fill="#eebb55" fill-opacity="1.0"  filling="0" d="M79.0 123.0 L79.0 89.0 C79.0 87.0 80.0 85.0 82.0 85.0 L118.0 85.0 C120.0 85.0 121.0 87.0 121.0 89.0 L121.0 123.0 L79.0 123.0 L79.0 123.0 Z"></path>
<path fill="#eebb55" fill-opacity="1.0"  filling="0" d="M108.0 89.0 A8.0 8.0 0.0 1 1 92.0 89.0 A8.0 8.0 0.0 1 1 108.0 89.0 L108.0 89.0 Z"></path>
<path fill="#cc9944" fill-opacity="1.0"  filling="0" d="M75.0 81.0 L75.0 81.0 L75.0 91.0 L92.0 91.0 C92.0 88.0 95.0 85.0 99.0 85.0 C103.0 85.0 106.0 88.0 106.0 91.0 L125.0 91.0 L125.0 81.0 L75.0 81.0 L75.0 81.0 Z"></path>
<path fill="#cc9944" fill-opacity="1.0"  filling="0" d="M100.0 91.0 C97.0 91.0 95.0 89.0 94.0 86.0 C93.0 87.0 92.0 87.0 92.0 89.0 C92.0 93.0 96.0 96.0 100.0 96.0 C104.0 96.0 108.0 93.0 108.0 89.0 C108.0 87.0 107.0 87.0 106.0 86.0 C106.0 89.0 103.0 91.0 100.0 91.0 L100.0 91.0 Z"></path>
<path fill="#cc9944" fill-opacity="1.0"  filling="0" d="M100.0 91.0 C97.0 91.0 95.0 89.0 94.0 86.0 C93.0 86.0 93.0 87.0 93.0 87.0 C93.0 91.0 96.0 94.0 100.0 94.0 C104.0 94.0 107.0 91.0 107.0 87.0 C107.0 87.0 107.0 86.0 106.0 86.0 C106.0 89.0 103.0 91.0 100.0 91.0 L100.0 91.0 Z"></path>
<path fill="#cc9944" fill-opacity="1.0"  filling="0" d="M100.0 91.0 C97.0 91.0 95.0 89.0 94.0 86.0 C94.0 86.0 93.0 87.0 93.0 87.0 C93.0 90.0 96.0 93.0 100.0 93.0 C104.0 93.0 107.0 90.0 107.0 87.0 C107.0 87.0 106.0 86.0 106.0 86.0 C106.0 89.0 103.0 91.0 100.0 91.0 L100.0 91.0 Z"></path>
<path fill="#cc9944" fill-opacity="1.0"  filling="0" d="M100.0 91.0 C97.0 91.0 95.0 89.0 94.0 86.0 C94.0 86.0 93.0 86.0 93.0 87.0 C93.0 90.0 96.0 93.0 100.0 93.0 C104.0 93.0 107.0 90.0 107.0 87.0 C107.0 86.0 106.0 86.0 106.0 86.0 C106.0 89.0 103.0 91.0 100.0 91.0 L100.0 91.0 Z"></path>
<path fill="#cc9944" fill-opacity="1.0"  filling="0" d="M100.0 91.0 C97.0 91.0 95.0 89.0 94.0 86.0 C94.0 86.0 93.0 86.0 93.0 87.0 C93.0 90.0 96.0 93.0 100.0 93.0 C104.0 93.0 107.0 90.0 107.0 87.0 C107.0 86.0 106.0 86.0 106.0 86.0 C106.0 89.0 103.0 91.0 100.0 91.0 L100.0 91.0 Z"></path>
<path fill="#cc9944" fill-opacity="1.0"  filling="0" d="M100.0 91.0 C97.0 91.0 95.0 89.0 94.0 86.0 C93.0 86.0 93.0 87.0 93.0 87.0 C93.0 90.0 96.0 93.0 100.0 93.0 C104.0 93.0 107.0 90.0 107.0 87.0 C107.0 87.0 107.0 86.0 106.0 86.0 C106.0 89.0 103.0 91.0 100.0 91.0 L100.0 91.0 Z"></path>
<path fill="#cc9944" fill-opacity="1.0"  filling="0" d="M100.0 91.0 C97.0 91.0 95.0 89.0 94.0 86.0 C93.0 86.0 93.0 87.0 93.0 87.0 C93.0 90.0 96.0 93.0 100.0 93.0 C104.0 93.0 107.0 90.0 107.0 87.0 C107.0 87.0 107.0 86.0 106.0 86.0 C106.0 89.0 103.0 91.0 100.0 91.0 L100.0 91.0 Z"></path>
<path fill="#cc9944" fill-opacity="1.0"  filling="0" d="M100.0 91.0 C97.0 91.0 95.0 89.0 94.0 86.0 C93.0 86.0 93.0 87.0 93.0 87.0 C93.0 90.0 96.0 93.0 100.0 93.0 C104.0 93.0 107.0 90.0 107.0 87.0 C107.0 87.0 107.0 86.0 106.0 86.0 C106.0 89.0 103.0 91.0 100.0 91.0 L100.0 91.0 Z"></path>
<path fill="#cc9944" fill-opacity="1.0"  filling="0" d="M100.0 91.0 C97.0 91.0 95.0 89.0 94.0 86.0 C93.0 86.0 93.0 87.0 93.0 87.0 C93.0 90.0 96.0 93.0 100.0 93.0 C104.0 93.0 107.0 90.0 107.0 87.0 C107.0 87.0 107.0 86.0 106.0 86.0 C106.0 89.0 103.0 91.0 100.0 91.0 L100.0 91.0 Z"></path>
<path fill="#cc9944" fill-opacity="1.0"  filling="0" d="M100.0 91.0 C97.0 91.0 95.0 89.0 94.0 86.0 C93.0 86.0 93.0 87.0 93.0 87.0 C93.0 90.0 96.0 93.0 100.0 93.0 C104.0 93.0 107.0 90.0 107.0 87.0 C107.0 87.0 107.0 86.0 106.0 86.0 C106.0 89.0 103.0 91.0 100.0 91.0 L100.0 91.0 Z"></path>
<path fill="#cc9944" fill-opacity="1.0"  filling="0" d="M100.0 85.0 C97.0 85.0 95.0 87.0 95.0 90.0 C95.0 91.0 96.0 92.0 97.0 93.0 C95.0 92.0 93.0 90.0 93.0 87.0 C93.0 84.0 96.0 81.0 100.0 81.0 C102.0 81.0 104.0 82.0 105.0 83.0 C104.0 83.0 101.0 85.0 100.0 85.0 L100.0 85.0 Z"></path>
<path fill="#cc9944" fill-opacity="1.0"  filling="0" d="M100.0 85.0 C97.0 85.0 95.0 87.0 95.0 90.0 C95.0 91.0 96.0 92.0 97.0 93.0 C95.0 92.0 93.0 90.0 93.0 87.0 C93.0 84.0 96.0 81.0 100.0 81.0 C102.0 81.0 104.0 82.0 105.0 83.0 C104.0 83.0 101.0 85.0 100.0 85.0 L100.0 85.0 Z"></path>
<path fill="#cc9944" fill-opacity="1.0"  filling="0" d="M100.0 85.0 C97.0 85.0 95.0 87.0 95.0 90.0 C95.0 91.0 96.0 92.0 97.0 93.0 C95.0 92.0 93.0 90.0 93.0 87.0 C93.0 84.0 96.0 81.0 100.0 81.0 C102.0 81.0 104.0 82.0 105.0 83.0 C104.0 83.0 101.0 85.0 100.0 85.0 L100.0 85.0 Z"></path>
<path fill="#cc9944" fill-opacity="1.0"  filling="0" d="M100.0 85.0 C97.0 85.0 95.0 87.0 95.0 90.0 C95.0 91.0 96.0 92.0 97.0 93.0 C95.0 92.0 93.0 90.0 93.0 87.0 C93.0 84.0 96.0 81.0 100.0 81.0 C102.0 81.0 104.0 82.0 105.0 83.0 C104.0 83.0 101.0 85.0 100.0 85.0 L100.0 85.0 Z"></path>
<path fill="#cc9944" fill-opacity="1.0"  filling="0" d="M100.0 85.0 C97.0 85.0 95.0 87.0 95.0 90.0 C95.0 91.0 96.0 92.0 97.0 93.0 C95.0 92.0 93.0 90.0 93.0 87.0 C93.0 84.0 96.0 81.0 100.0 81.0 C102.0 81.0 104.0 82.0 105.0 83.0 C104.0 83.0 101.0 85.0 100.0 85.0 L100.0 85.0 Z"></path>
<path fill="#cc9944" fill-opacity="1.0"  filling="0" d="M100.0 85.0 C97.0 85.0 95.0 87.0 95.0 90.0 C95.0 91.0 96.0 92.0 97.0 93.0 C95.0 92.0 93.0 90.0 93.0 87.0 C93.0 84.0 96.0 81.0 100.0 81.0 C102.0 81.0 104.0 82.0 105.0 83.0 C104.0 83.0 101.0 85.0 100.0 85.0 L100.0 85.0 Z"></path>
<path fill="#cc9944" fill-opacity="1.0"  filling="0" d="M100.0 85.0 C97.0 85.0 95.0 87.0 95.0 90.0 C95.0 91.0 96.0 92.0 97.0 93.0 C95.0 92.0 93.0 90.0 93.0 87.0 C93.0 84.0 96.0 81.0 100.0 81.0 C102.0 81.0 104.0 82.0 105.0 83.0 C104.0 83.0 101.0 85.0 100.0 85.0 L100.0 85.0 Z"></path>
<path fill="#cc9944" fill-opacity="1.0"  filling="0" d="M100.0 85.0 C97.0 85.0 95.0 87.0 95.0 90.0 C95.0 91.0 96.0 92.0 97.0 93.0 C95.0 92.0 93.0 90.0 93.0 87.0 C93.0 84.0 96.0 81.0 100.0 81.0 C102.0 81.0 104.0 82.0 105.0 83.0 C104.0 83.0 101.0 85.0 100.0 85.0 L100.0 85.0 Z"></path>
<path fill="#cc9944" fill-opacity="1.0"  filling="0" d="M100.0 84.0 C97.0 84.0 95.0 86.0 95.0 88.0 C95.0 89.0 96.0 90.0 96.0 91.0 C95.0 90.0 93.0 89.0 93.0 87.0 C93.0 85.0 96.0 82.0 100.0 82.0 C101.0 82.0 103.0 82.0 103.0 83.0 C102.0 83.0 101.0 84.0 100.0 84.0 L100.0 84.0 Z"></path>
<path fill="#cc9944" fill-opacity="1.0"  filling="0" d="M100.0 85.0 C97.0 85.0 95.0 87.0 95.0 89.0 C95.0 90.0 96.0 91.0 97.0 92.0 C95.0 91.0 94.0 89.0 94.0 87.0 C94.0 84.0 97.0 82.0 100.0 82.0 C102.0 82.0 103.0 83.0 104.0 84.0 C103.0 84.0 101.0 85.0 100.0 85.0 L100.0 85.0 Z"></path>
<path fill="#cc9944" fill-opacity="1.0"  filling="0" d="M100.0 85.0 C97.0 85.0 95.0 87.0 95.0 89.0 C95.0 90.0 96.0 91.0 97.0 92.0 C95.0 91.0 94.0 89.0 94.0 87.0 C94.0 84.0 97.0 82.0 100.0 82.0 C102.0 82.0 103.0 83.0 104.0 84.0 C103.0 84.0 101.0 85.0 100.0 85.0 L100.0 85.0 Z"></path>
<path fill="#cc9944" fill-opacity="1.0"  filling="0" d="M100.0 86.0 C97.0 86.0 95.0 87.0 95.0 89.0 C95.0 90.0 96.0 91.0 97.0 92.0 C95.0 91.0 94.0 90.0 94.0 88.0 C94.0 85.0 97.0 83.0 100.0 83.0 C101.0 83.0 102.0 84.0 103.0 84.0 C102.0 85.0 101.0 86.0 100.0 86.0 L100.0 86.0 Z"></path>
<path fill="#cc9944" fill-opacity="1.0"  filling="0" d="M100.0 90.0 C98.0 90.0 97.0 89.0 97.0 88.0 C97.0 87.0 98.0 86.0 99.0 86.0 C98.0 86.0 98.0 87.0 98.0 88.0 C98.0 89.0 99.0 90.0 100.0 90.0 L100.0 90.0 Z"></path>
<path fill="#cc9944" fill-opacity="1.0"  filling="0" d="M100.0 89.0 C99.0 89.0 98.0 89.0 98.0 88.0 C98.0 87.0 99.0 87.0 100.0 87.0 C101.0 87.0 102.0 87.0 102.0 88.0 C102.0 89.0 101.0 89.0 100.0 89.0 L100.0 89.0 Z"></path>
<path fill="#cc9944" fill-opacity="1.0"  filling="0" d="M100.0 88.0 C99.0 88.0 99.0 87.0 99.0 87.0 C99.0 87.0 99.0 87.0 100.0 87.0 C101.0 87.0 101.0 87.0 101.0 87.0 C101.0 87.0 101.0 88.0 100.0 88.0 L100.0 88.0 Z"></path>
<path fill="#cc9944" fill-opacity="1.0"  filling="0" d="M100.0 92.0 C98.0 92.0 97.0 90.0 97.0 88.0 C97.0 88.0 97.0 88.0 97.0 88.0 C97.0 89.0 97.0 89.0 97.0 90.0 C97.0 91.0 98.0 93.0 100.0 93.0 C102.0 93.0 103.0 91.0 103.0 90.0 C103.0 89.0 103.0 89.0 103.0 88.0 C103.0 88.0 103.0 88.0 103.0 88.0 C103.0 90.0 102.0 92.0 100.0 92.0 L100.0 92.0 Z"></path>
<path fill="#cc9944" fill-opacity="1.0"  filling="0" d="M100.0 98.0 C99.0 98.0 98.0 97.0 98.0 96.0 C98.0 95.0 99.0 94.0 100.0 94.0 C101.0 94.0 102.0 95.0 102.0 96.0 C102.0 97.0 101.0 98.0 100.0 98.0 L100.0 98.0 Z"></path>
<path fill="#cc9944" fill-opacity="1.0"  filling="0" d="M100.0 97.0 C99.0 97.0 99.0 96.0 99.0 96.0 C99.0 95.0 99.0 95.0 100.0 95.0 C101.0 95.0 101.0 95.0 101.0 96.0 C101.0 96.0 101.0 97.0 100.0 97.0 L100.0 97.0 Z"></path>
<path fill="#cc9944" fill-opacity="1.0"  filling="0" d="M100.0 96.0 C99.0 96.0 99.0 96.0 99.0 96.0 C99.0 95.0 99.0 95.0 100.0 95.0 C101.0 95.0 101.0 95.0 101.0 96.0 C101.0 96.0 101.0 96.0 100.0 96.0 L100.0 96.0 Z"></path>
<path fill="#cc9944" fill-opacity="1.0"  filling="0" d="M100.0 99.0 C99.0 99.0 98.0 98.0 98.0 96.0 C98.0 96.0 98.0 96.0 98.0 96.0 C98.0 97.0 98.0 97.0 98.0 97.0 C98.0 98.0 99.0 100.0 100.0 100.0 C101.0 100.0 102.0 98.0 102.0 97.0 C102.0 97.0 102.0 97.0 102.0 96.0 C102.0 96.0 102.0 96.0 102.0 96.0 C102.0 98.0 101.0 99.0 100.0 99.0 L100.0 99.0 Z"></path>
<path fill="#cc9944" fill-opacity="1.0"  filling="0" d="M100.0 103.0 C99.0 103.0 98.0 102.0 98.0 101.0 C98.0 100.0 99.0 100.0 100.0 100.0 C101.0 100.0 102.0 100.0 102.0 101.0 C102.0 102.0 101.0 103.0 100.0 103.0 L100.0 103.0 Z"></path>
<path fill="#cc9944" fill-opacity="1.0"  filling="0" d="M100.0 102.0 C99.0 102.0 99.0 101.0 99.0 101.0 C99.0 100.0 99.0 100.0 100.0 100.0 C101.0 100.0 101.0 100.0 101.0 101.0 C101.0 101.0 101.0 102.0 100.0 102.0 L100.0 102.0 Z"></path>
<path fill="#cc9944" fill-opacity="1.0"  filling="0" d="M100.0 101.0 C99.0 101.0 99.0 100.0 99.0 100.0 C99.0 100.0 99.0 100.0 100.0 100.0 C101.0 100.0 101.0 100.0 101.0 100.0 C101.0 100.0 101.0 101.0 100.0 101.0 L100.0 101.0 Z"></path>
<path fill="#cc9944" fill-opacity="1.0"  filling="0" d="M100.0 105.0 C99.0 105.0 98.0 104.0 98.0 103.0 C98.0 102.0 99.0 102.0 100.0 102.0 C101.0 102.0 102.0 102.0 102.0 103.0 C102.0 104.0 101.0 105.0 100.0 105.0 L100.0 105.0 Z"></path>
<path fill="#cc9944" fill-opacity="1.0"  filling="0" d="M100.0 104.0 C99.0 104.0 99.0 103.0 99.0 103.0 C99.0 103.0 99.0 103.0 100.0 103.0 C101.0 103.0 101.0 103.0 101.0 103.0 C101.0 103.0 101.0 104.0 100.0 104.0 L100.0 104.0 Z"></path>
<path fill="#cc9944" fill-opacity="1.0"  filling="0" d="M100.0 103.0 C99.0 103.0 99.0 103.0 99.0 103.0 C99.0 103.0 99.0 103.0 100.0 103.0 C101.0 103.0 101.0 103.0 101.0 103.0 C101.0 103.0 101.0 103.0 100.0 103.0 L100.0 103.0 Z"></path>
<path fill="#cc9944" fill-opacity="1.0"  filling="0" d="M100.0 106.0 C99.0 106.0 98.0 105.0 98.0 103.0 C98.0 103.0 98.0 103.0 98.0 103.0 C98.0 104.0 99.0 104.0 100.0 104.0 C101.0 104.0 102.0 104.0 102.0 103.0 C102.0 103.0 102.0 103.0 102.0 103.0 C102.0 105.0 101.0 106.0 100.0 106.0 L100.0 106.0 Z"></path>
<path fill="#cc9944" fill-opacity="1.0"  filling="0" d="M100.0 110.0 C99.0 110.0 98.0 109.0 98.0 108.0 C98.0 107.0 99.0 107.0 100.0 107.0 C101.0 107.0 102.0 107.0 102.0 108.0 C102.0 109.0 101.0 110.0 100.0 110.0 L100.0 110.0 Z"></path>
<path fill="#cc9944" fill-opacity="1.0"  filling="0" d="M100.0 109.0 C99.0 109.0 99.0 109.0 99.0 108.0 C99.0 107.0 99.0 107.0 100.0 107.0 C101.0 107.0 101.0 107.0 101.0 108.0 C101.0 109.0 101.0 109.0 100.0 109.0 L100.0 109.0 Z"></path>
<path fill="#cc9944" fill-opacity="1.0"  filling="0" d="M100.0 108.0 C99.0 108.0 99.0 107.0 99.0 107.0 C99.0 107.0 99.0 107.0 100.0 107.0 C101.0 107.0 101.0 107.0 101.0 107.0 C101.0 107.0 101.0 108.0 100.0 108.0 L100.0 108.0 Z"></path>
<path fill="#cc9944" fill-opacity="1.0"  filling="0" d="M100.0 112.0 C99.0 112.0 98.0 111.0 98.0 110.0 C98.0 109.0 99.0 109.0 100.0 109.0 C101.0 109.0 102.0 109.0 102.0 110.0 C102.0 111.0 101.0 112.0 100.0 112.0 L100.0 112.0 Z"></path>
<path fill="#000000" fill-opacity="1.0"  filling="0" d="M100.0 111.0 C99.0 111.0 99.0 110.0 99.0 110.0"></path></svg>