<svg xmlns="http://www.w3.org/2000/svg" viewBox="0.0 0.0 200.0 200.0" height="200px" width="200px"><path fill="#88bbcc" fill-opacity="1.0"  filling="0" d="M162.0 171.0 C162.0 181.0 135.0 185.0 101.0 185.0 C67.0 185.0 39.0 181.0 39.0 171.0 C39.0 160.0 67.0 158.0 101.0 158.0 C135.0 158.0 162.0 160.0 162.0 171.0 L162.0 171.0 Z"></path>
<path fill="#000000" fill-opacity="1.0"  filling="0" d="M90.0 175.0 C90.0 175.0 90.0 175.0 90.0 175.0 C89.0 175.0 89.0 174.0 89.0 174.0 L89.0 111.0 C89.0 110.0 90.0 109.0 90.0 109.0 C91.0 109.0 92.0 110.0 92.0 111.0 L92.0 174.0 C92.0 174.0 92.0 175.0 90.0 175.0 L90.0 175.0 Z M95.0 177.0 C94.0 177.0 93.0 176.0 93.0 175.0 L93.0 139.0 C93.0 137.0 94.0 137.0 95.0 137.0 C96.0 137.0 97.0 137.0 97.0 139.0 L97.0 175.0 C97.0 176.0 96.0 177.0 95.0 177.0 L95.0 177.0 Z M105.0 151.0 C104.0 151.0 103.0 150.0 103.0 149.0 L103.0 139.0 C103.0 139.0 103.0 138.0 102.0 138.0 C102.0 138.0 102.0 138.0 102.0 138.0 C102.0 138.0 102.0 138.0 102.0 138.0 C102.0 138.0 102.0 138.0 102.0 138.0 C102.0 138.0 102.0 138.0 102.0 138.0 C102.0 138.0 102.0 138.0 102.0 138.0 C102.0 138.0 102.0 138.0 102.0 138.0 C102.0 138.0 102.0 138.0 102.0 138.0 C102.0 138.0 102.0 138.0 102.0 138.0 C102.0 138.0 102.0 138.0 102.0 138.0 C102.0 138.0 102.0 138.0 102.0 138.0 C102.0 138.0 102.0 138.0 102.0 138.0 C102.0 138.0 102.0 138.0 102.0 138.0 C102.0 138.0 102.0 138.0 102.0 138.0 C102.0 138.0 102.0 138.0 102.0 138.0 C102.0 138.0 102.0 138.0 102.0 138.0 C102.0 138.0 102.0 138.0 102.0 138.0 C102.0 138.0 102.0 138.0 102.0 138.0 C102.0 138.0 102.0 138.0 102.0 138.0 C102.0 138.0 102.0 138.0 102.0 138.0 C102.0 138.0 102.0 138.0 102.0 138.0 C102.0 138.0 102.0 138.0 102.0 138.0 C102.0 138.0 102.0 138.0 102.0 138.0 C102.0 138.0 102.0 138.0 102.0 138.0 C102.0 138.0 102.0 138.0 102.0 138.0 C102.0 138.0 102.0 138.0 102.0 138.0 C102.0 138.0 102.0 138.0 102.0 138.0 C102.0 138.0 102.0 138.0 102.0 138.0 C102.0 138.0 102.0 138.0 102.0 138.0 C102.0 138.0 102.0 138.0 102.0 138.0 C102.0 138.0 102.0 138.0 102.0 138.0 C102.0 138.0 102.0 138.0 102.0 138.0 C102.0 138.0 102.0 138.0 102.0 138.0 C102.0 138.0 102.0 138.0 102.0 138.0 C102.0 138.0 102.0 138.0 102.0 138.0 C102.0 138.0 102.0 138.0 102.0 138.0 C102.0 138.0 102.0 138.0 102.0 138.0 C102.0 138.0 102.0 138.0 102.0 138.0 C102.0 138.0 102.0 138.0 102.0 138.0 C102.0 138.0 102.0 138.0 102.0 138.0 C102.0 138.0 102.0 138.0 102.0 138.0 C102.0 138.0 102.0 138.0 102.0 138.0 C102.0 138.0 102.0 138.0 102.0 138.0 C102.0 138.0 102.0 138.0 102.0 138.0 C102.0 138.0 102.0 138.0 102.0 138.0 C102.0 138.0 102.0 138.0 102.0 138.0 C102.0 138.0 102.0 138.0 102.0 138.0 C102.0 138.0 102.0 138.0 102.0 138.0 C102.0 138.0 102.0 138.0 102.0 138.0 C102.0 138.0 102.0 138.0 102.0 138.0 C102.0 138.0 102.0 138.0 102.0 138.0 C102.0 138.0 102.0 138.0 102.0 138.0 C102.0 138.0 102.0 138.0 102.0 138.0 C102.0 138.0 102.0 138.0 102.0 138.0 C102.0 138.0 102.0 138.0 102.0 138.0 C102.0 138.0 102.0 138.0 102.0 138.0 C102.0 138.0 102.0 138.0 102.0 138.0 C102.0 138.0 102.0 138.0 102.0 138.0 C102.0 138.0 102.0 138.0 102.0 138.0 C102.0 138.0 102.0 138.0 102.0 138.0 C102.0 138.0 102.0 138.0 102.0 138.0 C102.0 138.0 102.0 138.0 102.0 138.0 C102.0 138.0 102.0 138.0 102.0 138.0 C102.0 138.0 102.0 138.0 102.0 138.0 C102.0 138.0 102.0 138.0 102.0 138.0 C102.0 138.0 102.0 138.0 102.0 138.0 C102.0 138.0 102.0 138.0 102.0 138.0 C102.0 138.0 102.0 138.0 102.0 138.0 C102.0 138.0 102.0 138.0 102.0 138.0 C102.0 138.0 102.0 138.0 102.0 138.0 C102.0 138.0 102.0 138.0 102.0 138.0 C102.0 138.0 102.0 138.0 102.0 138.0 C102.0 138.0 102.0 138.0 102.0 138.0 C102.0 138.0 102.0 138.0 102.0 138.0 C102.0 138.0 102.0 138.0 102.0 138.0 C102.0 138.0 102.0 138.0 102.0 138.0 C102.0 138.0 102.0 138.0 102.0 138.0 C102.0 138.0 102.0 138.0 102.0 138.0 C102.0 138.0 102.0 138.0 102.0 138.0 C102.0 138.0 102.0 138.0 102.0 138.0 C102.0 138.0 102.0 138.0 102.0 138.0 C102.0 138.0 102.0 138.0 102.0 138.0 C102.0 138.0 102.0 138.0 102.0 138.0 C102.0 138.0 102.0 138.0 102.0 138.0 C102.0 138.0 102.0 138.0 102.0 138.0 C102.0 138.0 102.0 138.0 102.0 138.0 C102.0 138.0 102.0 138.0 102.0 138.0 C102.0 138.0 102.0 138.0 102.0 138.0 C102.0 138.0 102.0 138.0 102.0 138.0 C102.0 138.0 102.0 138.0 102.0 138.0 C102.0 138.0 102.0 138.0 102.0 138.0 C102.0 138.0 102.0 138.0 102.0 138.0 C102.0 138.0 102.0 138.0 102.0 138.0 C102.0 138.0 102.0 138.0 102.0 138.0 C102.0 138.0 102.0 138.0 102.0 138.0 C102.0 138.0 102.0 138.0 102.0 138.0 C102.0 138.0 102.0 138.0 102.0 138.0 C102.0 138.0 102.0 138.0 102.0 138.0 C102.0 138.0 102.0 138.0 102.0 138.0 C102.0 138.0 102.0 138.0 102.0 138.0 C102.0 138.0 102.0 138.0 102.0 138.0 C102.0 138.0 102.0 138.0 102.0 138.0 C102.0 138.0 102.0 138.0 102.0 138.0 C102.0 138.0 102.0 138.0 102.0 138.0 C102.0 138.0 102.0 138.0 102.0 138.0 C102.0 138.0 102.0 138.0 102.0 138.0 C102.0 138.0 102.0 138.0 102.0 138.0 C102.0 138.0 102.0 138.0 102.0 138.0 C102.0 138.0 102.0 138.0 102.0 138.0 C102.0 138.0 102.0 138.0 102.0 138.0 C102.0 138.0 102.0 138.0 102.0 138.0 C102.0 138.0 102.0 138.0 102.0 138.0 C102.0 138.0 102.0 138.0 102.0 138.0 C102.0 138.0 102.0 138.0 102.0 138.0 C102.0 138.0 102.0 138.0 102.0 138.0 C102.0 138.0 102.0 138.0 102.0 138.0 C102.0 138.0 102.0 138.0 102.0 138.0 C102.0 138.0 102.0 138.0 102.0 138.0 C102.0 138.0 102.0 138.0 102.0 138.0 C102.0 138.0 102.0 138.0 102.0 138.0 C102.0 138.0 102.0 138.0 102.0 138.0 C102.0 138.0 102.0 138.0 102.0 138.0 C102.0 138.0 102.0 138.0 102.0 138.0 C102.0 138.0 102.0 138.0 102.0 138.0 C102.0 138.0 102.0 138.0 102.0 138.0 C102.0 138.0 102.0 138.0 102.0 138.0 C102.0 138.0 102.0 138.0 102.0 138.0 C102.0 138.0 102.0 138.0 102.0 138.0 C102.0 138.0 102.0 138.0 102.0 138.0 C102.0 138.0 102.0 138.0 102.0 138.0 C102.0 138.0 102.0 138.0 102.0 138.0 C102.0 138.0 102.0 138.0 102.0 138.0 C102.0 138.0 102.0 138.0 102.0 138.0 C102.0 138.0 102.0 138.0 102.0 138.0 C102.0 138.0 102.0 138.0 102.0 138.0 C102.0 138.0 102.0 138.0 102.0 138.0 C102.0 138.0 102.0 138.0 102.0 138.0 C102.0 138.0 102.0 138.0 102.0 138.0 C102.0 138.0 102.0 138.0 102.0 138.0 C102.0 138.0 102.0 138.0 102.0 138.0 C102.0 138.0 102.0 138.0 102.0 138.0 C102.0 138.0 102.0 138.0 102.0 138.0 C102.0 138.0 102.0 138.0 102.0 138.0 C102.0 138.0 102.0 138.0 102.0 138.0 C102.0 138.0 102.0 138.0 102.0 138.0 C102.0 138.0 102.0 138.0 102.0 138.0 C102.0 138.0 102.0 138.0 102.0 138.0 C102.0 138.0 102.0 138.0 102.0 138.0 C102.0 138.0 102.0 138.0 102.0 138.0 C102.0 138.0 102.0 138.0 102.0 138.0 C102.0 138.0 102.0 138.0 102.0 138.0 C102.0 138.0 102.0 138.0 102.0 138.0 C102.0 138.0 102.0 138.0 102.0 138.0 C102.0 138.0 102.0 138.0 102.0 138.0 C102.0 138.0 102.0 138.0 102.0 138.0 C102.0 138.0 102.0 138.0 102.0 138.0 C102.0 138.0 102.0 138.0 102.0 138.0 C102.0 138.0 102.0 138.0 102.0 138.0 C102.0 138.0 102.0 138.0 102.0 138.0 C102.0 138.0 102.0 138.0 102.0 138.0 C102.0 138.0 102.0 138.0 102.0 138.0 C102.0 138.0 102.0 138.0 102.0 138.0 C102.0 138.0 102.0 138.0 102.0 138.0 C102.0 138.0 102.0 138.0 102.0 138.0 C102.0 138.0 102.0 138.0 102.0 138.0 C102.0 138.0 102.0 138.0 102.0 138.0 C102.0 138.0 102.0 138.0 102.0 138.0 C102.0 138.0 102.0 138.0 102.0 138.0 C102.0 138.0 102.0 138.0 102.0 138.0 C102.0 138.0 102.0 138.0 102.0 138.0 C102.0 138.0 102.0 138.0 102.0 138.0 C102.0 138.0 102.0 138.0 102.0 138.0 C102.0 138.0 102.0 138.0 102.0 138.0 C102.0 138.0 102.0 138.0 102.0 138.0 C102.0 138.0 102.0 138.0 102.0 138.0 C102.0 138.0 102.0 138.0 102.0 138.0 C102.0 138.0 102.0 138.0 102.0 138.0 C102.0 138.0 102.0 138.0 102.0 138.0 C102.0 138.0 102.0 138.0 102.0 138.0 C102.0 138.0 102.0 138.0 102.0 138.0 C102.0 138.0 102.0 138.0 102.0 138.0 C102.0 138.0 102.0 138.0 102.0 138.0 C102.0 138.0 102.0 138.0 102.0 138.0 C102.0 138.0 102.0 138.0 102.0 138.0 C102.0 138.0 102.0 138.0 102.0 138.0 C102.0 138.0 102.0 138.0 102.0 138.0 C102.0 138.0 102.0 138.0 102.0 138.0 C102.0 138.0 102.0 138.0 102.0 138.0 C102.0 138.0 102.0 138.0 102.0 138.0 C102.0 138.0 102.0 138.0 102.0 138.0 C102.0 138.0 102.0 138.0 102.0 138.0 C102.0 138.0 102.0 138.0 102.0 138.0 C102.0 138.0 102.0 138.0 102.0 138.0 C102.0 138.0 102.0 138.0 102.0 138.0 C102.0 138.0 102.0 138.0 102.0 138.0 C102.0 138.0 102.0 138.0 102.0 138.0 C102.0 138.0 102.0 138.0 102.0 138.0 C102.0 138.0 102.0 138.0 102.0 138.0 C102.0 138.0 102.0 138.0 102.0 138.0 C102.0 138.0 102.0 138.0 102.0 138.0 C102.0 138.0 102.0 138.0 102.0 138.0 C102.0 138.0 102.0 138.0 102.0 138.0 C102.0 138.0 102.0 138.0 102.0 138.0 C102.0 138.0 102.0 138.0 102.0 138.0 C102.0 138.0 102.0 138.0 102.0 138.0 C102.0 138.0 102.0 138.0 102.0 138.0 C102.0 138.0 102.0 138.0 102.0 138.0 C102.0 138.0 102.0 138.0 102.0 138.0 C102.0 138.0 102.0 138.0 102.0 138.0 C102.0 138.0 102.0 138.0 102.0 138.0 C102.0 138.0 102.0 138.0 102.0 138.0 C102.0 138.0 102.0 138.0 102.0 138.0 C102.0 138.0 102.0 138.0 102.0 138.0 C102.0 138.0 102.0 138.0 102.0 138.0 C102.0 138.0 102.0 138.0 102.0 138.0 C102.0 138.0 102.0 138.0 102.0 138.0 C102.0 138.0 102.0 138.0 102.0 138.0 C102.0 138.0 102.0 138.0 102.0 138.0 C102.0 138.0 102.0 138.0 102.0 138.0 C102.0 138.0 102.0 138.0 102.0 138.0 C102.0 138.0 102.0 138.0 102.0 138.0 C102.0 138.0 102.0 138.0 102.0 138.0 C102.0 138.0 102.0 138.0 102.0 138.0 C98.0 138.0 98.0 138.0 98.0 138.0 C98.0 138.0 98.0 138.0 98.0 138.0 C98.0 138.0 98.0 138.0 98.0 138.0 C98.0 138.0 98.0 138.0 98.0 138.0 C98.0 138.0 98.0 138.0 98.0 138.0 C98.0 138.0 98.0 138.0 98.0 138.0 C98.0 138.0 98.0 138.0 98.0 138.0 C98.0 138.0 98.0 138.0 98.0 138.0 C98.0 138.0 98.0 138.0 98.0 138.0 C98.0 138.0 98.0 138.0 98.0 138.0 C98.0 138.0 98.0 138.0 98.0 138.0 C98.0 138.0 98.0 138.0 98.0 138.0 C98.0 138.0 98.0 138.0 98.0 138.0 C98.0 138.0 98.0 138.0 98.0 138.0 C98.0 138.0 98.0 138.0 98.0 138.0 C98.0 138.0 98.0 138.0 98.0 138.0 C98.0 138.0 98.0 138.0 98.0 138.0 C98.0 138.0 98.0 138.0 98.0 138.0 C98.0 138.0 98.0 138.0 98.0 138.0 C98.0 138.0 98.0 138.0 98.0 138.0 C98.0 138.0 98.0 138.0 98.0 138.0 C98.0 138.0 98.0 138.0 98.0 138.0 C98.0 138.0 98.0 138.0 98.0 138.0 C98.0 138.0 98.0 138.0 98.0 138.0 C98.0 138.0 98.0 138.0 98.0 138.0 C98.0 138.0 98.0 138.0 98.0 138.0 C98.0 138.0 98.0 138.0 98.0 138.0 C98.0 138.0 98.0 138.0 98.0 138.0 C98.0 138.0 98.0 138.0 98.0 138.0 C98.0 138.0 98.0 138.0 98.0 138.0 C98.0 138.0 98.0 138.0 98.0 138.0 C98.0 138.0 98.0 138.0 98.0 138.0 C98.0 138.0 98.0 138.0 98.0 138.0 C98.0 138.0 98.0 138.0 98.0 138.0 C98.0 138.0 98.0 138.0 98.0 138.0 C98.0 138.0 98.0 138.0 98.0 138.0 C98.0 138.0 98.0 138.0 98.0 138.0 C98.0 138.0 98.0 138.0 98.0 138.0 C98.0 138.0 98.0 138.0 98.0 138.0 C98.0 138.0 98.0 138.0 98.0 138.0 C98.0 138.0 98.0 138.0 98.0 138.0 C98.0 138.0 98.0 138.0 98.0 138.0 C98.0 138.0 98.0 138.0 98.0 138.0 C98.0 138.0 98.0 138.0 98.0 138.0 C98.0 138.0 98.0 138.0 98.0 138.0 C98.0 138.0 98.0 138.0 98.0 138.0 C98.0 138.0 98.0 138.0 98.0 138.0 C98.0 138.0 98.0 138.0 98.0 138.0 C98.0 138.0 98.0 138.0 98.0 138.0 C98.0 138.0 98.0 138.0 98.0 138.0 C98.0 138.0 98.0 138.0 98.0 138.0 C98.0 138.0 98.0 138.0 98.0 138.0 C98.0 138.0 98.0 138.0 98.0 138.0 C98.0 138.0 98.0 138.0 98.0 138.0 C98.0 138.0 98.0 138.0 98.0 138.0 C98.0 138.0 98.0 138.0 98.0 138.0 C98.0 138.0 98.0 138.0 98.0 138.0 C98.0 138.0 98.0 138.0 98.0 138.0 C98.0 138.0 98.0 138.0 98.0 138.0 C98.0 138.0 98.0 138.0 98.0 138.0 C98.0 138.0 98.0 138.0 98.0 138.0 C98.0 138.0 98.0 138.0 98.0 138.0 C98.0 138.0 98.0 138.0 98.0 138.0 C98.0 138.0 98.0 138.0 98.0 138.0 C98.0 138.0 98.0 138.0 98.0 138.0 C98.0 138.0 98.0 138.0 98.0 138.0 C98.0 138.0 98.0 138.0 98.0 138.0 C98.0 138.0 98.0 138.0 98.0 138.0 C98.0 138.0 98.0 138.0 98.0 138.0 C98.0 138.0 98.0 138.0 98.0 138.0 C98.0 138.0 98.0 138.0 98.0 138.0 C98.0 138.0 98.0 138.0 98.0 138.0 C98.0 138.0 98.0 138.0 98.0 138.0 C98.0 138.0 98.0 138.0 98.0 138.0 C98.0 138.0 98.0 138.0 98.0 138.0 C98.0 138.0 98.0 138.0 98.0 138.0 C98.0 138.0 98.0 138.0 98.0 138.0 C98.0 138.0 98.0 138.0 98.0 138.0 C98.0 138.0 98.0 138.0 98.0 138.0 C98.0 138.0 98.0 138.0 98.0 138.0 C98.0 138.0 98.0 138.0 98.0 138.0 C98.0 138.0 98.0 138.0 98.0 138.0 C98.0 138.0 98.0 138.0 98.0 138.0 C98.0 138.0 98.0 138.0 98.0 138.0 C98.0 138.0 98.0 138.0 98.0 138.0 C98.0 138.0 98.0 138.0 98.0 138.0 C98.0 138.0 98.0 138.0 98.0 138.0 C98.0 138.0 98.0 138.0 98.0 138.0 C98.0 138.0 98.0 138.0 98.0 138.0 C98.0 138.0 98.0 138.0 98.0 138.0 C98.0 138.0 98.0 138.0 98.0 138.0 C98.0 138.0 98.0 138.0 98.0 138.0 C98.0 138.0 98.0 138.0 98.0 138.0 C98.0 138.0 98.0 138.0 98.0 138.0 C98.0 138.0 98.0 138.0 98.0 138.0 C98.0 138.0 98.0 138.0 98.0 138.0 C98.0 138.0 98.0 138.0 98.0 138.0 C98.0 138.0 98.0 138.0 98.0 138.0 C98.0 138.0 98.0 138.0 98.0 138.0 C98.0 138.0 98.0 138.0 98.0 138.0 C98.0 138.0 98.0 138.0 98.0 138.0 C98.0 138.0 98.0 138.0 98.0 138.0 C98.0 138.0 98.0 138.0 98.0 138.0 C98.0 138.0 98.0 138.0 98.0 138.0 C98.0 138.0 98.0 138.0 98.0 138.0 C98.0 138.0 98.0 138.0 98.0 138.0 C98.0 138.0 98.0 138.0 98.0 138.0 C98.0 138.0 98.0 138.0 98.0 138.0 C98.0 138.0 98.0 138.0 98.0 138.0 C98.0 138.0 98.0 138.0 98.0 138.0 C98.0 138.0 98.0 138.0 98.0 138.0 C98.0 138.0 98.0 138.0 98.0 138.0 C98.0 138.0 98.0 138.0 98.0 138.0 C98.0 138.0 98.0 138.0 98.0 138.0 C98.0 138.0 98.0 138.0 98.0 138.0 C98.0 138.0 98.0 138.0 98.0 138.0 C98.0 138.0 98.0 138.0 98.0 138.0 C98.0 138.0 98.0 138.0 98.0 138.0 C98.0 138.0 98.0 138.0 98.0 138.0 C98.0 138.0 98.0 138.0 98.0 138.0 C98.0 138.0 98.0 138.0 98.0 138.0 C98.0 138.0 98.0 138.0 98.0 138.0 C98.0 138.0 98.0 138.0 98.0 138.0 C98.0 138.0 98.0 138.0 98.0 138.0 C98.0 138.0 98.0 138.0 98.0 138.0 C98.0 138.0 98.0 138.0 98.0 138.0 C98.0 138.0 98.0 138.0 98.0 138.0 C98.0 138.0 98.0 138.0 98.0 138.0 C98.0 138.0 98.0 138.0 98.0 138.0 C98.0 138.0 98.0 138.0 98.0 138.0 C98.0 138.0 98.0 138.0 98.0 138.0 C98.0 138.0 98.0 138.0 98.0 138.0 C98.0 138.0 98.0 138.0 98.0 138.0"></path></svg>