<svg xmlns="http://www.w3.org/2000/svg" viewBox="0.0 0.0 200.0 200.0" height="200px" width="200px"><path fill="#88bbcc" fill-opacity="1.0"  filling="0" d="M162.0 171.0 C162.0 179.0 135.0 185.0 101.0 185.0 C67.0 185.0 42.0 179.0 42.0 171.0 C42.0 164.0 67.0 158.0 101.0 158.0 C135.0 158.0 162.0 164.0 162.0 171.0 L162.0 171.0 Z"></path>
<path fill="#cc5544" fill-opacity="1.0"  filling="0" d="M96.0 174.0 C95.0 174.0 93.0 173.0 93.0 172.0 L93.0 111.0 C93.0 110.0 94.0 109.0 96.0 109.0 C97.0 109.0 98.0 110.0 98.0 111.0 L98.0 172.0 C98.0 173.0 97.0 174.0 96.0 174.0 L96.0 174.0 Z"></path>
<path fill="#000000" fill-opacity="1.0"  filling="0" d="M105.0 151.0 C104.0 151.0 103.0 150.0 103.0 148.0 L103.0 140.0 C103.0 140.0 102.0 140.0 102.0 140.0 C102.0 140.0 102.0 140.0 102.0 140.0 C102.0 140.0 102.0 140.0 102.0 140.0 C102.0 140.0 102.0 140.0 102.0 140.0 C102.0 140.0 102.0 140.0 102.0 140.0 C102.0 140.0 102.0 140.0 102.0 140.0 C102.0 140.0 102.0 140.0 102.0 140.0 C102.0 140.0 102.0 140.0 102.0 140.0 C102.0 140.0 102.0 140.0 102.0 140.0 C102.0 140.0 102.0 140.0 102.0 140.0 C102.0 140.0 102.0 140.0 102.0 140.0 C102.0 140.0 102.0 140.0 102.0 140.0 C102.0 140.0 102.0 140.0 102.0 140.0 C102.0 140.0 102.0 140.0 102.0 140.0 C102.0 140.0 102.0 140.0 102.0 140.0 C102.0 140.0 102.0 140.0 102.0 140.0 C102.0 140.0 102.0 140.0 102.0 140.0 C102.0 140.0 102.0 140.0 102.0 140.0 C102.0 140.0 102.0 140.0 102.0 140.0 C102.0 140.0 102.0 140.0 102.0 140.0 C102.0 140.0 102.0 140.0 102.0 140.0 C102.0 140.0 102.0 140.0 102.0 140.0 C102.0 140.0 102.0 140.0 102.0 140.0 C102.0 140.0 102.0 140.0 102.0 140.0 C102.0 140.0 102.0 140.0 102.0 140.0 C102.0 140.0 102.0 140.0 102.0 140.0 C102.0 140.0 102.0 140.0 102.0 140.0 C102.0 140.0 102.0 140.0 102.0 140.0 C102.0 140.0 102.0 140.0 102.0 140.0 C102.0 140.0 102.0 140.0 102.0 140.0 C102.0 140.0 102.0 140.0 102.0 140.0 C102.0 140.0 102.0 140.0 102.0 140.0 C102.0 140.0 102.0 140.0 102.0 140.0 C102.0 140.0 102.0 140.0 102.0 140.0 C102.0 140.0 102.0 140.0 102.0 140.0 C102.0 140.0 102.0 140.0 102.0 140.0 C102.0 140.0 102.0 140.0 102.0 140.0 C102.0 140.0 102.0 140.0 102.0 140.0 C102.0 140.0 102.0 140.0 102.0 140.0 C102.0 140.0 102.0 140.0 102.0 140.0 C102.0 140.0 102.0 140.0 102.0 140.0 C102.0 140.0 102.0 140.0 102.0 140.0 C102.0 140.0 102.0 140.0 102.0 140.0 C102.0 140.0 102.0 140.0 102.0 140.0 C102.0 140.0 102.0 140.0 102.0 140.0 C102.0 140.0 102.0 140.0 102.0 140.0 C102.0 140.0 102.0 140.0 102.0 140.0 C102.0 140.0 102.0 140.0 102.0 140.0 C102.0 140.0 102.0 140.0 102.0 140.0 C102.0 140.0 102.0 140.0 102.0 140.0 C102.0 140.0 102.0 140.0 102.0 140.0 C102.0 140.0 102.0 140.0 102.0 140.0 C102.0 140.0 102.0 140.0 102.0 140.0 C102.0 140.0 102.0 140.0 102.0 140.0 C102.0 140.0 102.0 140.0 102.0 140.0 C102.0 140.0 102.0 140.0 102.0 140.0 C102.0 140.0 102.0 140.0 102.0 140.0 C102.0 140.0 102.0 140.0 102.0 140.0 C102.0 140.0 102.0 140.0 102.0 140.0 C102.0 140.0 102.0 140.0 102.0 140.0 C102.0 140.0 102.0 140.0 102.0 140.0 C102.0 140.0 102.0 140.0 102.0 140.0 C102.0 140.0 102.0 140.0 102.0 140.0 C102.0 140.0 102.0 140.0 102.0 140.0 C102.0 140.0 102.0 140.0 102.0 140.0 C102.0 140.0 102.0 140.0 102.0 140.0 C102.0 140.0 102.0 140.0 102.0 140.0 C102.0 140.0 102.0 140.0 102.0 140.0 C102.0 140.0 102.0 140.0 102.0 140.0 C102.0 140.0 102.0 140.0 102.0 140.0 C102.0 140.0 102.0 140.0 102.0 140.0 C102.0 140.0 102.0 140.0 102.0 140.0 C102.0 140.0 102.0 140.0 102.0 140.0 C102.0 140.0 102.0 140.0 102.0 140.0 C102.0 140.0 102.0 140.0 102.0 140.0 C102.0 140.0 102.0 140.0 102.0 140.0 C102.0 140.0 102.0 140.0 102.0 140.0 C102.0 140.0 102.0 140.0 102.0 140.0 C102.0 140.0 102.0 140.0 102.0 140.0 C102.0 140.0 102.0 140.0 102.0 140.0 C102.0 140.0 102.0 140.0 102.0 140.0 C102.0 140.0 102.0 140.0 102.0 140.0 C102.0 140.0 102.0 140.0 102.0 140.0 C102.0 140.0 102.0 140.0 102.0 140.0 C102.0 140.0 102.0 140.0 102.0 140.0 C102.0 140.0 102.0 140.0 102.0 140.0 C102.0 140.0 102.0 140.0 102.0 140.0 C102.0 140.0 102.0 140.0 102.0 140.0 C102.0 140.0 102.0 140.0 102.0 140.0 C102.0 140.0 102.0 140.0 102.0 140.0 C102.0 140.0 102.0 140.0 102.0 140.0 C102.0 140.0 102.0 140.0 102.0 140.0 C102.0 140.0 102.0 140.0 102.0 140.0 C102.0 140.0 102.0 140.0 102.0 140.0 C102.0 140.0 102.0 140.0 102.0 140.0 C102.0 140.0 102.0 140.0 102.0 140.0 C102.0 140.0 102.0 140.0 102.0 140.0 C102.0 140.0 102.0 140.0 102.0 140.0 C102.0 140.0 102.0 140.0 102.0 140.0 C102.0 140.0 102.0 140.0 102.0 140.0 C102.0 140.0 102.0 140.0 102.0 140.0 C102.0 140.0 102.0 140.0 102.0 140.0 C102.0 140.0 102.0 140.0 102.0 140.0 C102.0 140.0 102.0 140.0 102.0 140.0 C102.0 140.0 102.0 140.0 102.0 140.0 C102.0 140.0 102.0 140.0 102.0 140.0 C102.0 140.0 102.0 140.0 102.0 140.0 C102.0 140.0 102.0 140.0 102.0 140.0 C102.0 140.0 102.0 140.0 102.0 140.0 C102.0 140.0 102.0 140.0 102.0 140.0 C102.0 140.0 102.0 140.0 102.0 140.0 C102.0 140.0 102.0 140.0 102.0 140.0 C102.0 140.0 102.0 140.0 102.0 140.0 C102.0 140.0 102.0 140.0 102.0 140.0 C102.0 140.0 102.0 140.0 102.0 140.0 C102.0 140.0 102.0 140.0 102.0 140.0 C102.0 140.0 102.0 140.0 102.0 140.0 C102.0 140.0 102.0 140.0 102.0 140.0 C102.0 140.0 102.0 140.0 102.0 140.0 C102.0 140.0 102.0 140.0 102.0 140.0 C102.0 140.0 102.0 140.0 102.0 140.0 C102.0 140.0 102.0 140.0 102.0 140.0 C102.0 140.0 102.0 140.0 102.0 140.0 C102.0 140.0 102.0 140.0 102.0 140.0 C102.0 140.0 102.0 140.0 102.0 140.0 C102.0 140.0 102.0 140.0 102.0 140.0 C102.0 140.0 102.0 140.0 102.0 140.0 C102.0 140.0 102.0 140.0 102.0 140.0 C102.0 140.0 102.0 140.0 102.0 140.0 C102.0 140.0 102.0 140.0 102.0 140.0 C102.0 140.0 102.0 140.0 102.0 140.0 C102.0 140.0 102.0 140.0 102.0 140.0 C102.0 140.0 102.0 140.0 102.0 140.0 C102.0 140.0 102.0 140.0 102.0 140.0 C102.0 140.0 102.0 140.0 102.0 140.0 C102.0 140.0 102.0 140.0 102.0 140.0 C102.0 140.0 102.0 140.0 102.0 140.0 C102.0 140.0 102.0 140.0 102.0 140.0 C102.0 140.0 102.0 140.0 102.0 140.0 C102.0 140.0 102.0 140.0 102.0 140.0 C102.0 140.0 102.0 140.0 102.0 140.0 C102.0 140.0 102.0 140.0 102.0 140.0 C102.0 140.0 102.0 140.0 102.0 140.0 C102.0 140.0 102.0 140.0 102.0 140.0 C102.0 140.0 102.0 140.0 102.0 140.0 C102.0 140.0 102.0 140.0 102.0 140.0 C102.0 140.0 102.0 140.0 102.0 140.0 C102.0 140.0 102.0 140.0 102.0 140.0 C102.0 140.0 102.0 140.0 102.0 140.0 C102.0 140.0 102.0 140.0 102.0 140.0 C102.0 140.0 102.0 140.0 102.0 140.0 C102.0 140.0 102.0 140.0 102.0 140.0 C102.0 140.0 102.0 140.0 102.0 140.0 C102.0 140.0 102.0 140.0 102.0 140.0 C102.0 140.0 102.0 140.0 102.0 140.0 C102.0 140.0 102.0 140.0 102.0 140.0 C102.0 140.0 102.0 140.0 102.0 140.0 C102.0 140.0 102.0 140.0 102.0 140.0 C102.0 140.0 102.0 140.0 102.0 140.0 C102.0 140.0 102.0 140.0 102.0 140.0 C102.0 140.0 102.0 140.0 102.0 140.0 C102.0 140.0 102.0 140.0 102.0 140.0 C102.0 140.0 102.0 140.0 102.0 140.0 C102.0 140.0 102.0 140.0 102.0 140.0 C102.0 140.0 102.0 140.0 102.0 140.0 C102.0 140.0 102.0 140.0 102.0 140.0 C102.0 140.0 102.0 140.0 102.0 140.0 C102.0 140.0 102.0 140.0 102.0 140.0 C102.0 140.0 102.0 140.0 102.0 140.0 C102.0 140.0 102.0 140.0 102.0 140.0 C102.0 140.0 102.0 140.0 102.0 140.0 C102.0 140.0 102.0 140.0 102.0 140.0 C102.0 140.0 102.0 140.0 102.0 140.0 C102.0 140.0 102.0 140.0 102.0 140.0 C102.0 140.0 102.0 140.0 102.0 140.0 C102.0 140.0 102.0 140.0 102.0 140.0 C102.0 140.0 102.0 140.0 102.0 140.0 C102.0 140.0 102.0 140.0 102.0 140.0 C102.0 140.0 102.0 140.0 102.0 140.0 C102.0 140.0 102.0 140.0 102.0 140.0 C102.0 140.0 102.0 140.0 100.0 140.0 C100.0 140.0 100.0 140.0 100.0 140.0 C100.0 140.0 100.0 140.0 100.0 140.0 C100.0 140.0 100.0 140.0 100.0 140.0 C100.0 140.0 100.0 140.0 100.0 140.0 C100.0 140.0 100.0 140.0 100.0 140.0 C100.0 140.0 100.0 140.0 100.0 140.0 C100.0 140.0 100.0 140.0 100.0 140.0 C100.0 140.0 100.0 140.0 100.0 140.0 C100.0 140.0 100.0 140.0 100.0 140.0 C100.0 140.0 100.0 140.0 100.0 140.0 C100.0 140.0 100.0 140.0 100.0 140.0 C100.0 140.0 100.0 140.0 100.0 140.0 C100.0 140.0 100.0 140.0 100.0 140.0 C100.0 140.0 100.0 140.0 100.0 140.0 C100.0 140.0 100.0 140.0 100.0 140.0 C100.0 140.0 100.0 140.0 100.0 140.0 C100.0 140.0 100.0 140.0 100.0 140.0 C100.0 140.0 100.0 140.0 100.0 140.0 C100.0 140.0 100.0 140.0 100.0 140.0 C100.0 140.0 100.0 140.0 100.0 140.0 C100.0 140.0 100.0 140.0 100.0 140.0 C100.0 140.0 100.0 140.0 100.0 140.0 C100.0 140.0 100.0 140.0 100.0 140.0 C100.0 140.0 100.0 140.0 100.0 140.0 C100.0 140.0 100.0 140.0 100.0 140.0 C100.0 140.0 100.0 140.0 100.0 140.0 C100.0 140.0 100.0 140.0 100.0 140.0 C100.0 140.0 100.0 140.0 100.0 140.0 C100.0 140.0 100.0 140.0 100.0 140.0 C100.0 140.0 100.0 140.0 100.0 140.0 C100.0 140.0 100.0 140.0 100.0 140.0 C100.0 140.0 100.0 140.0 100.0 140.0 C100.0 140.0 100.0 140.0 100.0 140.0 C100.0 140.0 100.0 140.0 100.0 140.0 C100.0 140.0 100.0 140.0 100.0 140.0 C100.0 140.0 100.0 140.0 100.0 140.0 C100.0 140.0 100.0 140.0 100.0 140.0 C100.0 140.0 100.0 140.0 100.0 140.0 C100.0 140.0 100.0 140.0 100.0 140.0 C100.0 140.0 100.0 140.0 100.0 140.0 C100.0 140.0 100.0 140.0 100.0 140.0 C100.0 140.0 100.0 140.0 100.0 140.0 C100.0 140.0 100.0 140.0 100.0 140.0 C100.0 140.0 100.0 140.0 100.0 140.0 C100.0 140.0 100.0 140.0 100.0 140.0 C100.0 140.0 100.0 140.0 100.0 140.0 C100.0 140.0 100.0 140.0 100.0 140.0 C100.0 140.0 100.0 140.0 100.0 140.0 C100.0 140.0 100.0 140.0 100.0 140.0 C100.0 140.0 100.0 140.0 100.0 140.0 C100.0 140.0 100.0 140.0 100.0 140.0 C100.0 140.0 100.0 140.0 100.0 140.0 C100.0 140.0 100.0 140.0 100.0 140.0 C100.0 140.0 100.0 140.0 100.0 140.0 C100.0 140.0 100.0 140.0 100.0 140.0 C100.0 140.0 100.0 140.0 100.0 140.0 C100.0 140.0 100.0 140.0 100.0 140.0 C100.0 140.0 100.0 140.0 100.0 140.0 C100.0 140.0 100.0 140.0 100.0 140.0 C100.0 140.0 100.0 140.0 100.0 140.0 C100.0 140.0 100.0 140.0 100.0 140.0 C100.0 140.0 100.0 140.0 100.0 140.0 C100.0 140.0 100.0 140.0 100.0 140.0 C100.0 140.0 100.0 140.0 100.0 140.0 C100.0 140.0 100.0 140.0 100.0 140.0 C100.0 140.0 100.0 140.0 100.0 140.0 C100.0 140.0 100.0 140.0 100.0 140.0 C100.0 140.0 100.0 140.0 100.0 140.0 C100.0 140.0 100.0 140.0 100.0 140.0 C100.0 140.0 100.0 140.0 100.0 140.0 C100.0 140.0 100.0 140.0 100.0 140.0 C100.0 140.0 100.0 140.0 100.0 140.0 C100.0 140.0 100.0 140.0 100.0 140.0 C100.0 140.0 100.0 140.0 100.0 140.0 C100.0 140.0 100.0 140.0 100.0 140.0 C100.0 140.0 100.0 140.0 100.0 140.0 C100.0 140.0 100.0 140.0 100.0 140.0 C100.0 140.0 100.0 140.0 100.0 140.0 C100.0 140.0 100.0 140.0 100.0 140.0 C100.0 140.0 100.0 140.0 100.0 140.0 C100.0 140.0 100.0 140.0 100.0 140.0 C100.0 140.0 100.0 140.0 100.0 140.0 C100.0 140.0 100.0 140.0 100.0 140.0 C100.0 140.0 100.0 140.0 100.0 140.0 C100.0 140.0 100.0 140.0 100.0 140.0 C100.0 140.0 100.0 140.0 100.0 140.0 C100.0 140.0 100.0 140.0 100.0 140.0 C100.0 140.0 100.0 140.0 100.0 140.0 C100.0 140.0 100.0 140.0 100.0 140.0 C100.0 140.0 100.0 140.0 100.0 140.0 C100.0 140.0 100.0 140.0 100.0 140.0 C100.0 140.0 100.0 140.0 100.0 140.0 C100.0 140.0 100.0 140.0 100.0 140.0 C100.0 140.0 100.0 140.0 100.0 140.0 C100.0 140.0 100.0 140.0 100.0 140.0 C100.0 140.0 100.0 140.0 100.0 140.0 C100.0 140.0 100.0 140.0 100.0 140.0 C100.0 140.0 100.0 140.0 100.0 140.0 C100.0 140.0 100.0 140.0 100.0 140.0 C100.0 140.0 100.0 140.0 100.0 140.0 C100.0 140.0 100.0 140.0 100.0 140.0 C100.0 140.0 100.0 140.0 100.0 140.0 C100.0 140.0 100.0 140.0 100.0 140.0 C100.0 140.0 100.0 140.0 100.0 140.0 C100.0 140.0 100.0 140.0 100.0 140.0 C100.0 140.0 100.0 140.0 100.0 140.0 C100.0 140.0 100.0 140.0 100.0 140.0 C100.0 140.0 100.0 140.0 100.0 140.0 C100.0 140.0 100.0 140.0 100.0 140.0 C100.0 140.0 100.0 140.0 100.0 140.0 C100.0 140.0 100.0 140.0 100.0 140.0 C100.0 140.0 100.0 140.0 100.0 140.0 C100.0 140.0 100.0 140.0 100.0 140.0 C100.0 140.0 100.0 140.0 100.0 140.0 C100.0 140.0 100.0 140.0 100.0 140.0 C100.0 140.0 100.0 140.0 100.0 140.0 C100.0 140.0 100.0 140.0 100.0 140.0 C100.0 140.0 100.0 140.0 100.0 140.0 C100.0 140.0 100.0 140.0 100.0 140.0 C100.0 140.0 100.0 140.0 100.0 140.0 C100.0 140.0 100.0 140.0 100.0 140.0 C100.0 140.0 100.0 140.0 100.0 140.0 C100.0 140.0 100.0 140.0 100.0 140.0 C100.0 140.0 100.0 140.0 100.0 140.0 C100.0 140.0 100.0 140.0 100.0 140.0 C100.0 140.0 100.0 140.0 100.0 140.0 C100.0 140.0 100.0 140.0 100.0 140.0 C100.0 140.0 100.0 140.0 100.0 140.0 C100.0 140.0 100.0 140.0 100.0 140.0 C100.0 140.0 100.0 140.0 100.0 140.0 C100.0 140.0 100.0 140.0 100.0 140.0 C100.0 140.0 100.0 140.0 100.0 140.0 C100.0 140.0 100.0 140.0 100.0 140.0 C100.0 140.0 100.0 140.0 100.0 140.0 C100.0 140.0 100.0 140.0 100.0 140.0 C100.0 140.0 100.0 140.0 100.0 140.0 C100.0 140.0 100.0 140.0 100.0 140.0 C100.0 140.0 100.0 140.0 100.0 140.0 C100.0 140.0 100.0 140.0 100.0 140.0 C100.0 140.0 100.0 140.0 100.0 140.0 C100.0 140.0 100.0 140.0 100.0 140.0 C100.0 140.0 100.0 140.0 100.0 140.0 C100.0 140.0 100.0 140.0 100.0 140.0 C100.0 140.0 100.0 140.0 100.0 140.0 C100.0 140.0 100.0 140.0 100.0 140.0 C100.0 140.0 100.0 140.0 100.0 140.0 C100.0 140.0 100.0 140.0 100.0 140.0 C100.0 140.0 100.0 140.0 100.0 140.0 C100.0 140.0 100.0 140.0 100.0 140.0 C100.0 140.0 100.0 140.0 100.0 140.0 C100.0 140.0 100.0 140.0 100.0 140.0 C100.0 140.0 100.0 140.0 100.0 140.0 C100.0 140.0 100.0 140.0 100.0 140.0 C100.0 140.0 100.0 140.0 100.0 140.0 C100.0 140.0 100.0 140.0 100.0 140.0 C100.0 140.0 100.0 140.0 100.0 140.0 C100.0 140.0 100.0 140.0 100.0 140.0 C100.0 140.0 100.0 140.0 100.0 140.0 C100.0 140.0 100.0 140.0 100.0 140.0 C100.0 140.0 100.0 140.0 100.0 140.0 C100.0 140.0 100.0 140.0 100.0 140.0 C100.0 140.0 100.0 140.0 100.0 140.0 C100.0 140.0 100.0 140.0 100.0 140.0 C100.0 140.0 100.0 140.0 100.0 140.0 C100.0 140.0 100.0 140.0 100.0 140.0 C100.0 140.0 100.0 140.0 100.0 140.0 C100.0 140.0 100.0 140.0 100.0 140.0 C100.0 140.0 100.0 140.0 100.0 140.0 C100.0 140.0 100.0 140.0 100.0 140.0 C100.0 140.0 100.0 140.0 100.0 140.0 C100.0 140.0 100.0 140.0 100.0 140.0 C100.0 140.0 100.0 140.0 100.0 140.0 C100.0 140.0 100.0 140.0 100.0 140.0 C100.0 140.0 100.0 140.0 100.0 140.0 C100.0 140.0 100.0 140.0 100.0 140.0 C100.0 140.0 100.0 140.0 100.0 140.0 C100.0 140.0 100.0 140.0 100.0 140.0 C100.0 140.0 100.0 140.0 100.0 140.0 C100.0 140.0 100.0 140.0 100.0 140.0 C100.0 140.0 100.0 140.0 100.0 140.0 C100.0 140.0 100.0 140.0 100.0 140.0 C100.0 140.0 100.0 140.0 100.0 140.0 C100.0 140.0 100.0 140.0 100.0 140.0 C100.0 140.0 100.0 140.0 100.0 140.0"></path></svg>