<svg xmlns="http://www.w3.org/2000/svg" viewBox="0.0 0.0 200.0 200.0" height="200px" width="200px"><path fill="#88bbcc" fill-opacity="1.0"  filling="0" d="M162.0 171.0 C162.0 179.0 135.0 185.0 101.0 185.0 C67.0 185.0 42.0 179.0 42.0 171.0 C42.0 164.0 67.0 158.0 101.0 158.0 C135.0 158.0 162.0 164.0 162.0 171.0 L162.0 171.0 Z"></path>
<path fill="#000000" fill-opacity="1.0"  filling="0" d="M66.0 166.0 C66.0 166.0 65.0 166.0 65.0 165.0 C64.0 165.0 64.0 164.0 64.0 163.0 L91.0 135.0 C91.0 134.0 92.0 134.0 93.0 134.0 C94.0 134.0 94.0 135.0 94.0 136.0 C94.0 137.0 94.0 138.0 94.0 139.0 L68.0 165.0 C68.0 165.0 67.0 166.0 66.0 166.0 L66.0 166.0 Z M100.0 177.0 C99.0 177.0 98.0 176.0 98.0 175.0 L98.0 139.0 C98.0 137.0 99.0 136.0 101.0 136.0 C102.0 136.0 103.0 137.0 103.0 139.0 L103.0 150.0 C103.0 150.0 103.0 151.0 104.0 151.0 C105.0 152.0 106.0 151.0 106.0 151.0 C107.0 150.0 108.0 149.0 108.0 148.0 L108.0 139.0 C108.0 137.0 107.0 136.0 106.0 134.0 C105.0 134.0 103.0 134.0 102.0 134.0 L102.0 134.0 C101.0 134.0 100.0 134.0 99.0 134.0 C98.0 134.0 98.0 134.0 98.0 134.0 L98.0 124.0 C98.0 123.0 97.0 122.0 96.0 122.0 C94.0 122.0 93.0 123.0 93.0 124.0 L93.0 175.0 C93.0 176.0 94.0 177.0 96.0 177.0 L100.0 177.0 L100.0 177.0 Z M127.0 175.0 C126.0 175.0 125.0 175.0 125.0 174.0 C125.0 173.0 126.0 172.0 127.0 172.0 C128.0 172.0 129.0 173.0 129.0 174.0 C129.0 175.0 128.0 175.0 127.0 175.0 L127.0 175.0 Z M115.0 176.0 C113.0 176.0 111.0 176.0 110.0 176.0 C109.0 176.0 108.0 175.0 109.0 175.0 C109.0 174.0 110.0 174.0 110.0 174.0 C112.0 174.0 113.0 174.0 115.0 174.0 C117.0 174.0 118.0 174.0 121.0 174.0 C122.0 174.0 123.0 174.0 123.0 175.0 C123.0 175.0 122.0 176.0 121.0 176.0 C119.0 176.0 117.0 176.0 115.0 176.0 L115.0 176.0 Z M84.0 173.0 C85.0 173.0 86.0 173.0 87.0 173.0 C88.0 173.0 89.0 173.0 90.0 173.0 C91.0 173.0 92.0 174.0 91.0 174.0 C91.0 174.0 90.0 174.0 90.0 174.0 C88.0 174.0 86.0 174.0 84.0 174.0 C83.0 174.0 82.0 174.0 81.0 174.0 C80.0 174.0 79.0 174.0 79.0 174.0 C79.0 173.0 80.0 173.0 81.0 173.0 C82.0 173.0 83.0 173.0 84.0 173.0 L84.0 173.0 Z M54.0 172.0 C54.0 172.0 55.0 172.0 55.0 172.0 C56.0 172.0 56.0 172.0 56.0 172.0 C57.0 172.0 57.0 172.0 58.0 172.0 C59.0 172.0 60.0 172.0 61.0 172.0 C62.0 172.0 63.0 172.0 64.0 172.0 C65.0 172.0 66.0 172.0 66.0 172.0 C67.0 172.0 68.0 172.0 67.0 171.0 C67.0 171.0 67.0 171.0 66.0 171.0 C65.0 171.0 64.0 171.0 63.0 171.0 C62.0 171.0 61.0 171.0 60.0 171.0 C59.0 171.0 58.0 171.0 57.0 171.0 C56.0 171.0 55.0 171.0 54.0 171.0 C53.0 171.0 52.0 171.0 52.0 172.0 C52.0 172.0 53.0 172.0 54.0 172.0 L54.0 172.0 Z M100.0 117.0 C99.0 117.0 98.0 116.0 98.0 115.0 L98.0 98.0 C98.0 97.0 99.0 96.0 100.0 96.0 C102.0 96.0 103.0 97.0 103.0 98.0 L103.0 115.0 C103.0 116.0 102.0 117.0 100.0 117.0 L100.0 117.0 Z M100.0 124.0 C99.0 124.0 98.0 123.0 98.0 122.0 L98.0 120.0 C98.0 119.0 99.0 118.0 100.0 118.0 C102.0 118.0 103.0 119.0 103.0 120.0 L103.0 122.0 C103.0 123.0 102.0 124.0 100.0 124.0 L100.0 124.0 Z M100.0 128.0 C99.0 128.0 98.0 127.0 98.0 126.0 L98.0 124.0 C98.0 123.0 99.0 122.0 100.0 122.0 C102.0 122.0 103.0 123.0 103.0 124.0 L103.0 126.0 C103.0 127.0 102.0 128.0 100.0 128.0 L100.0 128.0 Z M100.0 135.0 C99.0 135.0 98.0 134.0 98.0 133.0 L98.0 131.0 C98.0 130.0 99.0 129.0 100.0 129.0 C102.0 129.0 103.0 130.0 103.0 131.0 L103.0 133.0 C103.0 134.0 102.0 135.0 100.0 135.0 L100.0 135.0 Z M100.0 144.0 C99.0 144.0 98.0 143.0 98.0 142.0 L98.0 140.0 C98.0 139.0 99.0 138.0 100.0 138.0 C102.0 138.0 103.0 139.0 103.0 140.0 L103.0 142.0 C103.0 143.0 102.0 144.0 100.0 144.0 L100.0 144.0 Z M100.0 154.0 C99.0 154.0 98.0 153.0 98.0 152.0 L98.0 150.0 C98.0 149.0 99.0 148.0 100.0 148.0 C102.0 148.0 103.0 149.0 103.0 150.0 L103.0 152.0 C103.0 153.0 102.0 154.0 100.0 154.0 L100.0 154.0 Z M100.0 166.0 C99.0 166.0 98.0 165.0 98.0 164.0 L98.0 161.0 C98.0 160.0 99.0 159.0 100.0 159.0 C102.0 159.0 103.0 160.0 103.0 161.0 L103.0 164.0 C103.0 165.0 102.0 166.0 100.0 166.0 L100.0 166.0 Z M100.0 175.0 C99.0 175.0 98.0 174.0 98.0 173.0 L98.0 171.0 C98.0 170.0 99.0 170.0 100.0 170.0 C102.0 170.0 103.0 170.0 103.0 171.0 L103.0 173.0 C103.0 174.0 102.0 175.0 100.0 175.0 L100.0 175.0 Z M100.0 102.0 C99.0 102.0 98.0 101.0 98.0 100.0 L98.0 86.0 C98.0 85.0 99.0 84.0 100.0 84.0 C102.0 84.0 103.0 85.0 103.0 86.0 L103.0 100.0 C103.0 101.0 102.0 102.0 100.0 102.0 L100.0 102.0 Z M100.0 83.0 C99.0 83.0 98.0 82.0 98.0 81.0 L98.0 70.0 C98.0 69.0 99.0 68.0 100.0 68.0 C102.0 68.0 103.0 69.0 103.0 70.0 L103.0 81.0 C103.0 82.0 102.0 83.0 100.0 83.0 L100.0 83.0 Z M100.0 65.0 C99.0 65.0 98.0 64.0 98.0 63.0 L98.0 50.0 C98.0 49.0 99.0 48.0 100.0 48.0 C102.0 48.0 103.0 49.0 103.0 50.0 L103.0 63.0 C103.0 64.0 102.0 65.0 100.0 65.0 L100.0 65.0 Z M100.0 45.0 C99.0 45.0 98.0 44.0 98.0 43.0 L98.0 31.0 C98.0 30.0 99.0 29.0 100.0 29.0 C102.0 29.0 103.0 30.0 103.0 31.0 L103.0 43.0 C103.0 44.0 102.0 45.0 100.0 45.0 L100.0 45.0 Z M100.0 25.0 C99.0 25.0 98.0 24.0 98.0 23.0 L98.0 13.0 C98.0 11.0 99.0 11.0 100.0 11.0 C102.0 11.0 103.0 12.0 103.0 13.0 L103.0 23.0 C103.0 24.0 102.0 25.0 100.0 25.0 L100.0 25.0 Z M100.0 106.0 C99.0 106.0 98.0 105.0 98.0 104.0 L98.0 102.0 C98.0 101.0 99.0 100.0 100.0 100.0 C102.0 100.0 103.0 101.0 103.0 102.0 L103.0 104.0 C103.0 105.0 102.0 106.0 100.0 106.0 L100.0 106.0 Z M100.0 98.0 C99.0 98.0 98.0 97.0 98.0 96.0 L98.0 94.0 C98.0 93.0 99.0 92.0 100.0 92.0 C102.0 92.0 103.0 93.0 103.0 94.0 L103.0 96.0 C103.0 97.0 102.0 98.0 100.0 98.0 L100.0 98.0 Z M100.0 89.0 C99.0 89.0 98.0 88.0 98.0 87.0 L98.0 86.0 C98.0 85.0 99.0 84.0 100.0 84.0 C102.0 84.0 103.0 85.0 103.0 86.0 L103.0 87.0 C103.0 88.0 102.0 89.0 100.0 89.0 L100.0 89.0 Z M100.0 81.0 C99.0 81.0 98.0 80.0 98.0 79.0 L98.0 78.0 C98.0 77.0 99.0 76.0 100.0 76.0 C102.0 76.0 103.0 77.0 103.0 78.0 L103.0 79.0 C103.0 80.0 102.0 81.0 100.0 81.0 L100.0 81.0 Z M100.0 72.0 C99.0 72.0 98.0 71.0 98.0 70.0 L98.0 69.0 C98.0 68.0 99.0 67.0 100.0 67.0 C102.0 67.0 103.0 68.0 103.0 69.0 L103.0 70.0 C103.0 71.0 102.0 72.0 100.0 72.0 L100.0 72.0 Z M100.0 64.0 C99.0 64.0 98.0 63.0 98.0 62.0 L98.0 60.0 C98.0 59.0 99.0 58.0 100.0 58.0 C102.0 58.0 103.0 59.0 103.0 60.0 L103.0 62.0 C103.0 63.0 102.0 64.0 100.0 64.0 L100.0 64.0 Z M100.0 54.0 C99.0 54.0 98.0 53.0 98.0 52.0 L98.0 50.0 C98.0 49.0 99.0 48.0 100.0 48.0 C102.0 48.0 103.0 49.0 103.0 50.0 L103.0 52.0 C103.0 53.0 102.0 54.0 100.0 54.0 L100.0 54.0 Z M100.0 46.0 C99.0 46.0 98.0 45.0 98.0 44.0 L98.0 42.0 C98.0 41.0 99.0 40.0 100.0 40.0 C102.0 40.0 103.0 41.0 103.0 42.0 L103.0 44.0 C103.0 45.0 102.0 46.0 100.0 46.0 L100.0 46.0 Z M100.0 36.0 C99.0 36.0 98.0 35.0 98.0 34.0 L98.0 33.0 C98.0 32.0 99.0 31.0 100.0 31.0 C102.0 31.0 103.0 32.0 103.0 33.0 L103.0 34.0 C103.0 35.0 102.0 36.0 100.0 36.0 L100.0 36.0 Z M100.0 27.0 C99.0 27.0 98.0 26.0 98.0 25.0 L98.0 23.0 C98.0 22.0 99.0 21.0 100.0 21.0 C102.0 21.0 103.0 22.0 103.0 23.0 L103.0 25.0 C103.0 26.0 102.0 27.0 100.0 27.0 L100.0 27.0 Z M100.0 17.0 C99.0 17.0 98.0 16.0 98.0 15.0 L98.0 13.0 C98.0 12.0 99.0 11.0 100.0 11.0 C102.0 11.0 103.0 12.0 103.0 13.0 L103.0 15.0 C103.0 16.0 102.0 17.0 100.0 17.0 L100.0 17.0 Z M100.0 119.0 C99.0 119.0 98.0 118.0 98.0 117.0 L98.0 115.0 C98.0 114.0 99.0 113.0 100.0 113.0 C102.0 113.0 103.0 114.0 103.0 115.0 L103.0 117.0 C103.0 118.0 102.0 119.0 100.0 119.0 L100.0 119.0 Z M100.0 110.0 C99.0 110.0 98.0 109.0 98.0 108.0 L98.0 106.0 C98.0 105.0 99.0 104.0 100.0 104.0 C102.0 104.0 103.0 105.0 103.0 106.0 L103.0 108.0 C103.0 109.0 102.0 110.0 100.0 110.0 L100.0 110.0 Z M100.0 99.0 C99.0 99.0 98.0 98.0 98.0 97.0 L98.0 95.0 C98.0 94.0 99.0 93.0 100.0 93.0 C102.0 93.0 103.0 94.0 103.0 95.0 L103.0 97.0 C103.0 98.0 102.0 99.0 100.0 99.0 L100.0 99.0 Z M100.0 90.0 C99.0 90.0 98.0 89.0 98.0 87.0 L98.0 86.0 C98.0 85.0 99.0 84.0 100.0 84.0 C102.0 84.0 103.0 85.0 103.0 86.0 L103.0 87.0 C103.0 89.0 102.0 90.0 100.0 90.0 L100.0 90.0 Z M100.0 80.0 C99.0 80.0 98.0 79.0 98.0 78.0 L98.0 76.0 C98.0 75.0 99.0 74.0 100.0 74.0 C102.0 74.0 103.0 75.0 103.0 76.0 L103.0 78.0 C103.0 79.0 102.0 80.0 100.0 80.0 L100.0 80.0 Z M100.0 70.0 C99.0 70.0 98.0 69.0 98.0 68.0 L98.0 66.0 C98.0 65.0 99.0 64.0 100.0 64.0 C102.0 64.0 103.0 65.0 103.0 66.0 L103.0 68.0 C103.0 69.0 102.0 70.0 100.0 70.0 L100.0 70.0 Z M100.0 61.0 C99.0 61.0 98.0 60.0 98.0 59.0 L98.0 58.0 C98.0 57.0 99.0 56.0 100.0 56.0 C102.0 56.0 103.0 57.0 103.0 58.0 L103.0 59.0 C103.0 60.0 102.0 61.0 100.0 61.0 L100.0 61.0 Z M100.0 51.0 C99.0 51.0 98.0 50.0 98.0 48.0 L98.0 46.0 C98.0 45.0 99.0 44.0 100.0 44.0 C102.0 44.0 103.0 45.0 103.0 46.0 L103.0 48.0 C103.0 50.0 102.0 51.0 100.0 51.0 L100.0 51.0 Z M100.0 39.0 C99.0 39.0 98.0 38.0 98.0 37.0 L98.0 36.0 C98.0 35.0 99.0 34.0 100.0 34.0 C102.0 34.0 103.0 35.0 103.0 36.0 L103.0 37.0 C103.0 38.0 102.0 39.0 100.0 39.0 L100.0 39.0 Z M100.0 29.0 C99.0 29.0 98.0 28.0 98.0 27.0 L98.0 25.0 C98.0 24.0 99.0 23.0 100.0 23.0 C102.0 23.0 103.0 24.0 103.0 25.0 L103.0 27.0 C103.0 28.0 102.0 29.0 100.0 29.0 L100.0 29.0 Z M100.0 17.0 C99.0 17.0 98.0 16.0 98.0 15.0 L98.0 13.0 C98.0 12.0 99.0 11.0 100.0 11.0 C102.0 11.0 103.0 12.0 103.0 13.0 L103.0 15.0 C103.0 16.0 102.0 17.0 100.0 17.0 L100.0 17.0 Z M100.0 105.0 C99.0 105.0 98.0 104.0 98.0 103.0 L98.0 101.0 C98.0 100.0 99.0 99.0 100.0 99.0 C102.0 99.0 103.0 100.0 103.0 101.0 L103.0 103.0 C103.0 104.0 102.0 105.0 100.0 105.0 L100.0 105.0 Z M100.0 95.0 C99.0 95.0 98.0 94.0 98.0 93.0 L98.0 92.0 C98.0 91.0 99.0 90.0 100.0 90.0 C102.0 90.0 103.0 91.0 103.0 92.0 L103.0 93.0 C103.0 94.0 102.0 95.0 100.0 95.0 L100.0 95.0 Z M100.0 86.0 C99.0 86.0 98.0 85.0 98.0 84.0 L98.0 83.0 C98.0 82.0 99.0 81.0 100.0 81.0"></path></svg>