<svg xmlns="http://www.w3.org/2000/svg" viewBox="0.0 0.0 200.0 200.0" height="200px" width="200px"><path fill="#88bbcc" fill-opacity="1.0"  filling="0" d="M162.0 171.0 C162.0 179.0 135.0 185.0 101.0 185.0 C67.0 185.0 42.0 179.0 42.0 171.0 C42.0 164.0 67.0 158.0 101.0 158.0 C135.0 158.0 162.0 164.0 162.0 171.0 L162.0 171.0 Z"></path>
<path fill="#cc5544" fill-opacity="1.0"  filling="0" d="M92.0 175.0 C92.0 175.0 92.0 175.0 92.0 175.0 C92.0 175.0 92.0 175.0 92.0 175.0 L92.0 108.0 C92.0 107.0 92.0 106.0 93.0 106.0 C94.0 106.0 95.0 107.0 95.0 108.0 L95.0 175.0 C95.0 175.0 94.0 175.0 94.0 175.0 C93.0 175.0 93.0 175.0 92.0 175.0 L92.0 175.0 Z"></path>
<path fill="#000000" fill-opacity="1.0"  filling="0" d="M105.0 151.0 C104.0 151.0 103.0 150.0 103.0 148.0 L103.0 140.0 C103.0 140.0 102.0 140.0 102.0 139.0 C102.0 139.0 101.0 139.0 101.0 139.0 L93.0 139.0 C92.0 139.0 91.0 139.0 91.0 138.0 C91.0 136.0 92.0 136.0 93.0 136.0 L101.0 136.0 C103.0 134.0 105.0 135.0 106.0 136.0 C107.0 137.0 108.0 138.0 108.0 140.0 L108.0 148.0 C108.0 150.0 107.0 151.0 105.0 151.0 L105.0 151.0 Z M94.0 151.0 C93.0 151.0 92.0 150.0 92.0 149.0 L92.0 140.0 C92.0 139.0 93.0 138.0 94.0 138.0 C96.0 138.0 97.0 139.0 97.0 140.0 L97.0 149.0 C97.0 150.0 96.0 151.0 94.0 151.0 L94.0 151.0 Z M94.0 152.0 C93.0 152.0 92.0 150.0 92.0 149.0 C92.0 148.0 93.0 147.0 94.0 147.0 C96.0 147.0 97.0 148.0 97.0 149.0 C97.0 150.0 96.0 152.0 94.0 152.0 L94.0 152.0 Z M94.0 151.0 C95.0 151.0 96.0 150.0 96.0 149.0 C96.0 148.0 95.0 147.0 94.0 147.0 C93.0 147.0 92.0 148.0 92.0 149.0 C92.0 150.0 93.0 151.0 94.0 151.0 L94.0 151.0 Z M94.0 151.0 C93.0 151.0 92.0 150.0 92.0 149.0 C92.0 148.0 93.0 148.0 94.0 148.0 C95.0 148.0 96.0 148.0 96.0 149.0 C96.0 150.0 95.0 151.0 94.0 151.0 L94.0 151.0 Z M94.0 151.0 C95.0 151.0 96.0 150.0 96.0 149.0 C96.0 148.0 95.0 148.0 94.0 148.0 C93.0 148.0 92.0 148.0 92.0 149.0 C92.0 150.0 93.0 151.0 94.0 151.0 L94.0 151.0 Z M94.0 151.0 C95.0 151.0 96.0 150.0 96.0 149.0 C96.0 148.0 95.0 148.0 94.0 148.0 C93.0 148.0 92.0 148.0 92.0 149.0 C92.0 150.0 93.0 151.0 94.0 151.0 L94.0 151.0 Z M94.0 151.0 C95.0 151.0 96.0 150.0 96.0 149.0 C96.0 148.0 95.0 148.0 94.0 148.0 C93.0 148.0 92.0 148.0 92.0 149.0 C92.0 150.0 93.0 151.0 94.0 151.0 L94.0 151.0 Z M94.0 151.0 C95.0 151.0 96.0 150.0 96.0 149.0 C96.0 148.0 95.0 148.0 94.0 148.0 C93.0 148.0 92.0 148.0 92.0 149.0 C92.0 150.0 93.0 151.0 94.0 151.0 L94.0 151.0 Z M94.0 151.0 C95.0 151.0 96.0 150.0 96.0 149.0 C96.0 148.0 95.0 148.0 94.0 148.0 C93.0 148.0 92.0 148.0 92.0 149.0 C92.0 150.0 93.0 151.0 94.0 151.0 L94.0 151.0 Z M94.0 151.0 C95.0 151.0 96.0 150.0 96.0 149.0 C96.0 148.0 95.0 148.0 94.0 148.0 C93.0 148.0 92.0 148.0 92.0 149.0 C92.0 150.0 93.0 151.0 94.0 151.0 L94.0 151.0 Z M94.0 151.0 C95.0 151.0 96.0 150.0 96.0 149.0 C96.0 148.0 95.0 148.0 94.0 148.0 C93.0 148.0 92.0 148.0 92.0 149.0 C92.0 150.0 93.0 151.0 94.0 151.0 L94.0 151.0 Z M94.0 151.0 C95.0 151.0 96.0 150.0 96.0 149.0 C96.0 148.0 95.0 148.0 94.0 148.0 C93.0 148.0 92.0 148.0 92.0 149.0 C92.0 150.0 93.0 151.0 94.0 151.0 L94.0 151.0 Z M94.0 151.0 C95.0 151.0 96.0 150.0 96.0 149.0 C96.0 148.0 95.0 148.0 94.0 148.0 C93.0 148.0 92.0 148.0 92.0 149.0 C92.0 150.0 93.0 151.0 94.0 151.0 L94.0 151.0 Z M94.0 151.0 C95.0 151.0 96.0 150.0 96.0 149.0 C96.0 148.0 95.0 148.0 94.0 148.0 C93.0 148.0 92.0 148.0 92.0 149.0 C92.0 150.0 93.0 151.0 94.0 151.0 L94.0 151.0 Z M94.0 151.0 C95.0 151.0 96.0 150.0 96.0 149.0 C96.0 148.0 95.0 148.0 94.0 148.0 C93.0 148.0 92.0 148.0 92.0 149.0 C92.0 150.0 93.0 151.0 94.0 151.0 L94.0 151.0 Z M94.0 151.0 C95.0 151.0 96.0 150.0 96.0 149.0 C96.0 148.0 95.0 148.0 94.0 148.0 C93.0 148.0 92.0 148.0 92.0 149.0 C92.0 150.0 93.0 151.0 94.0 151.0 L94.0 151.0 Z M94.0 151.0 C95.0 151.0 96.0 150.0 96.0 149.0 C96.0 148.0 95.0 148.0 94.0 148.0 C93.0 148.0 92.0 148.0 92.0 149.0 C92.0 150.0 93.0 151.0 94.0 151.0 L94.0 151.0 Z M94.0 151.0 C95.0 151.0 96.0 150.0 96.0 149.0 C96.0 148.0 95.0 148.0 94.0 148.0 C93.0 148.0 92.0 148.0 92.0 149.0 C92.0 150.0 93.0 151.0 94.0 151.0 L94.0 151.0 Z M94.0 151.0 C95.0 151.0 96.0 150.0 96.0 149.0 C96.0 148.0 95.0 148.0 94.0 148.0 C93.0 148.0 92.0 148.0 92.0 149.0 C92.0 150.0 93.0 151.0 94.0 151.0 L94.0 151.0 Z M94.0 151.0 C95.0 151.0 96.0 150.0 96.0 149.0 C96.0 148.0 95.0 148.0 94.0 148.0 C93.0 148.0 92.0 148.0 92.0 149.0 C92.0 150.0 93.0 151.0 94.0 151.0 L94.0 151.0 Z M94.0 151.0 C95.0 151.0 96.0 150.0 96.0 149.0 C96.0 148.0 95.0 148.0 94.0 148.0 C93.0 148.0 92.0 148.0 92.0 149.0 C92.0 150.0 93.0 151.0 94.0 151.0 L94.0 151.0 Z M94.0 151.0 C95.0 151.0 96.0 150.0 96.0 149.0 C96.0 148.0 95.0 148.0 94.0 148.0 C93.0 148.0 92.0 148.0 92.0 149.0 C92.0 150.0 93.0 151.0 94.0 151.0 L94.0 151.0 Z M94.0 151.0 C95.0 151.0 96.0 150.0 96.0 149.0 C96.0 148.0 95.0 148.0 94.0 148.0 C93.0 148.0 92.0 148.0 92.0 149.0 C92.0 150.0 93.0 151.0 94.0 151.0 L94.0 151.0 Z M94.0 151.0 C95.0 151.0 96.0 150.0 96.0 149.0 C96.0 148.0 95.0 148.0 94.0 148.0 C93.0 148.0 92.0 148.0 92.0 149.0 C92.0 150.0 93.0 151.0 94.0 151.0 L94.0 151.0 Z M94.0 151.0 C95.0 151.0 96.0 150.0 96.0 149.0 C96.0 148.0 95.0 148.0 94.0 148.0 C93.0 148.0 92.0 148.0 92.0 149.0 C92.0 150.0 93.0 151.0 94.0 151.0 L94.0 151.0 Z M94.0 151.0 C95.0 151.0 96.0 150.0 96.0 149.0 C96.0 148.0 95.0 148.0 94.0 148.0 C93.0 148.0 92.0 148.0 92.0 149.0 C92.0 150.0 93.0 151.0 94.0 151.0 L94.0 151.0 Z M94.0 151.0 C95.0 151.0 96.0 150.0 96.0 149.0 C96.0 148.0 95.0 148.0 94.0 148.0 C93.0 148.0 92.0 148.0 92.0 149.0 C92.0 150.0 93.0 151.0 94.0 151.0 L94.0 151.0 Z M94.0 151.0 C95.0 151.0 96.0 150.0 96.0 149.0 C96.0 148.0 95.0 148.0 94.0 148.0 C93.0 148.0 92.0 148.0 92.0 149.0 C92.0 150.0 93.0 151.0 94.0 151.0 L94.0 151.0 Z M94.0 151.0 C95.0 151.0 96.0 150.0 96.0 149.0 C96.0 148.0 95.0 148.0 94.0 148.0 C93.0 148.0 92.0 148.0 92.0 149.0 C92.0 150.0 93.0 151.0 94.0 151.0 L94.0 151.0 Z M94.0 151.0 C95.0 151.0 96.0 150.0 96.0 149.0 C96.0 148.0 95.0 148.0 94.0 148.0 C93.0 148.0 92.0 148.0 92.0 149.0 C92.0 150.0 93.0 151.0 94.0 151.0 L94.0 151.0 Z M94.0 151.0 C95.0 151.0 96.0 150.0 96.0 149.0 C96.0 148.0 95.0 148.0 94.0 148.0 C93.0 148.0 92.0 148.0 92.0 149.0 C92.0 150.0 93.0 151.0 94.0 151.0 L94.0 151.0 Z M94.0 151.0 C95.0 151.0 96.0 150.0 96.0 149.0 C96.0 148.0 95.0 148.0 94.0 148.0 C93.0 148.0 92.0 148.0 92.0 149.0 C92.0 150.0 93.0 151.0 94.0 151.0 L94.0 151.0 Z M94.0 151.0 C95.0 151.0 96.0 150.0 96.0 149.0 C96.0 148.0 95.0 148.0 94.0 148.0 C93.0 148.0 92.0 148.0 92.0 149.0 C92.0 150.0 93.0 151.0 94.0 151.0 L94.0 151.0 Z M94.0 151.0 C95.0 151.0 96.0 150.0 96.0 149.0 C96.0 148.0 95.0 148.0 94.0 148.0 C93.0 148.0 92.0 148.0 92.0 149.0 C92.0 150.0 93.0 151.0 94.0 151.0 L94.0 151.0 Z M94.0 151.0 C95.0 151.0 96.0 150.0 96.0 149.0 C96.0 148.0 95.0 148.0 94.0 148.0 C93.0 148.0 92.0 148.0 92.0 149.0 C92.0 150.0 93.0 151.0 94.0 151.0 L94.0 151.0 Z M94.0 151.0 C95.0 151.0 96.0 150.0 96.0 149.0 C96.0 148.0 95.0 148.0 94.0 148.0 C93.0 148.0 92.0 148.0 92.0 149.0 C92.0 150.0 93.0 151.0 94.0 151.0 L94.0 151.0 Z M94.0 151.0 C95.0 151.0 96.0 150.0 96.0 149.0 C96.0 148.0 95.0 148.0 94.0 148.0 C93.0 148.0 92.0 148.0 92.0 149.0 C92.0 150.0 93.0 151.0 94.0 151.0 L94.0 151.0 Z M94.0 151.0 C95.0 151.0 96.0 150.0 96.0 149.0 C96.0 148.0 95.0 148.0 94.0 148.0 C93.0 148.0 92.0 148.0 92.0 149.0 C92.0 150.0 93.0 151.0 94.0 151.0 L94.0 151.0 Z M94.0 151.0 C95.0 151.0 96.0 150.0 96.0 149.0 C96.0 148.0 95.0 148.0 94.0 148.0 C93.0 148.0 92.0 148.0 92.0 149.0 C92.0 150.0 93.0 151.0 94.0 151.0 L94.0 151.0 Z M94.0 151.0 C95.0 151.0 96.0 150.0 96.0 149.0 C96.0 148.0 95.0 148.0 94.0 148.0 C93.0 148.0 92.0 148.0 92.0 149.0 C92.0 150.0 93.0 151.0 94.0 151.0 L94.0 151.0 Z M94.0 151.0 C95.0 151.0 96.0 150.0 96.0 149.0 C96.0 148.0 95.0 148.0 94.0 148.0 C93.0 148.0 92.0 148.0 92.0 149.0 C92.0 150.0 93.0 151.0 94.0 151.0 L94.0 151.0 Z M94.0 151.0 C95.0 151.0 96.0 150.0 96.0 149.0 C96.0 148.0 95.0 148.0 94.0 148.0 C93.0 148.0 92.0 148.0 92.0 149.0 C92.0 150.0 93.0 151.0 94.0 151.0 L94.0 151.0 Z M94.0 151.0 C95.0 151.0 96.0 150.0 96.0 149.0 C96.0 148.0 95.0 148.0 94.0 148.0 C93.0 148.0 92.0 148.0 92.0 149.0 C92.0 150.0 93.0 151.0 94.0 151.0 L94.0 151.0 Z M94.0 151.0 C95.0 151.0 96.0 150.0 96.0 149.0 C96.0 148.0 95.0 148.0 94.0 148.0 C93.0 148.0 92.0 148.0 92.0 149.0 C92.0 150.0 93.0 151.0 94.0 151.0 L94.0 151.0 Z M94.0 151.0 C95.0 151.0 96.0 150.0 96.0 149.0 C96.0 148.0 95.0 148.0 94.0 148.0 C93.0 148.0 92.0 148.0 92.0 149.0 C92.0 150.0 93.0 151.0 94.0 151.0 L94.0 151.0 Z M94.0 151.0 C95.0 151.0 96.0 150.0 96.0 149.0 C96.0 148.0 95.0 148.0 94.0 148.0 C93.0 148.0 92.0 148.0 92.0 149.0 C92.0 150.0 93.0 151.0 94.0 151.0 L94.0 151.0 Z M94.0 151.0 C95.0 151.0 96.0 150.0 96.0 149.0 C96.0 148.0 95.0 148.0 94.0 148.0 C93.0 148.0 92.0 148.0 92.0 149.0 C92.0 150.0 93.0 151.0 94.0 151.0 L94.0 151.0 Z M94.0 151.0 C95.0 151.0 96.0 150.0 96.0 149.0 C96.0 148.0 95.0 148.0 94.0 148.0 C93.0 148.0 92.0 148.0 92.0 149.0 C92.0 150.0 93.0 151.0 94.0 151.0 L94.0 151.0 Z M94.0 151.0 C95.0 151.0 96.0 150.0 96.0 149.0 C96.0 148.0 95.0 148.0 94.0 148.0 C93.0 148.0 92.0 148.0 92.0 149.0 C92.0 150.0 93.0 151.0 94.0 151.0 L94.0 151.0 Z M94.0 151.0 C95.0 151.0 96.0 150.0 96.0 149.0 C96.0 148.0 95.0 148.0 94.0 148.0 C93.0 148.0 92.0 148.0 92.0 149.0 C92.0 150.0 93.0 151.0 94.0 151.0 L94.0 151.0 Z"></path></svg>