<svg xmlns="http://www.w3.org/2000/svg" viewBox="0.0 0.0 200.0 200.0" height="200px" width="200px"><path fill="#553322" fill-opacity="1.0"  filling="0" d="M50.0 170.0 L43.0 170.0 C41.0 170.0 39.0 168.0 39.0 166.0 L39.0 165.0 L53.0 165.0 L53.0 166.0 C53.0 168.0 52.0 170.0 50.0 170.0 L50.0 170.0 Z M157.0 170.0 L150.0 170.0 C148.0 170.0 147.0 168.0 147.0 166.0 L147.0 165.0 L161.0 165.0 L161.0 166.0 C161.0 168.0 159.0 170.0 157.0 170.0 L157.0 170.0 Z"></path>
<path fill="#aa5533" fill-opacity="1.0"  filling="0" d="M146.0 165.0 L54.0 165.0 C52.0 165.0 50.0 163.0 50.0 161.0 L50.0 53.0 C50.0 51.0 52.0 49.0 54.0 49.0 L146.0 49.0 C148.0 49.0 150.0 51.0 150.0 53.0 L150.0 161.0 C150.0 163.0 148.0 165.0 146.0 165.0 L146.0 165.0 Z M140.0 52.0 L60.0 52.0 L61.0 165.0 L139.0 165.0 L140.0 52.0 L140.0 52.0 Z"></path>
<path fill="#aa5533" fill-opacity="1.0"  filling="0" d="M46.0 49.0 L29.0 49.0 C25.0 49.0 21.0 53.0 21.0 57.0 L21.0 143.0 L21.0 143.0 C33.0 143.0 43.0 153.0 43.0 165.0 L45.0 165.0 L46.0 49.0 L46.0 49.0 Z M171.0 49.0 L155.0 49.0 L155.0 165.0 L157.0 165.0 C157.0 153.0 166.0 143.0 179.0 143.0 L179.0 57.0 C179.0 53.0 175.0 49.0 171.0 49.0 L171.0 49.0 Z"></path>
<path fill="#553322" fill-opacity="1.0"  filling="0" d="M21.0 75.0 L21.0 75.0 C34.0 75.0 43.0 65.0 43.0 52.0 L43.0 52.0 L29.0 52.0 C25.0 52.0 21.0 56.0 21.0 60.0 L21.0 75.0 L21.0 75.0 L21.0 75.0 Z M179.0 52.0 L179.0 52.0 C179.0 55.0 178.0 57.0 177.0 57.0 L180.0 57.0 C180.0 55.0 179.0 54.0 179.0 52.0 L179.0 52.0 Z M157.0 52.0 C157.0 65.0 166.0 75.0 179.0 75.0 L179.0 75.0 L179.0 60.0 C179.0 56.0 175.0 52.0 171.0 52.0 L171.0 52.0 L157.0 52.0 L157.0 52.0 L157.0 52.0 Z"></path>
<path fill="#000000" fill-opacity="1.0"  filling="0" d="M121.0 52.0 L121.0 52.0 L121.0 52.0 L121.0 52.0 L121.0 52.0 Z M87.0 52.0 L87.0 52.0 L87.0 52.0 L87.0 52.0 L87.0 52.0 Z M116.0 52.0 L116.0 52.0 L116.0 52.0 L116.0 52.0 L116.0 52.0 Z M87.0 52.0 L87.0 52.0 L87.0 52.0 L87.0 52.0 L87.0 52.0 Z M121.0 52.0 L121.0 52.0 L121.0 52.0 L121.0 52.0 L121.0 52.0 Z M87.0 52.0 L87.0 52.0 L87.0 52.0 L87.0 52.0 L87.0 52.0 Z M116.0 52.0 L116.0 52.0 L116.0 52.0 L116.0 52.0 L116.0 52.0 Z M87.0 52.0 L87.0 52.0 L87.0 52.0 L87.0 52.0 L87.0 52.0 Z M121.0 52.0 L121.0 52.0 L121.0 52.0 L121.0 52.0 L121.0 52.0 Z M121.0 52.0 L121.0 52.0 L121.0 52.0 L121.0 52.0 L121.0 52.0 Z M87.0 52.0 L87.0 52.0 L87.0 52.0 L87.0 52.0 L87.0 52.0 Z M87.0 52.0 L87.0 52.0 L87.0 52.0 L87.0 52.0 L87.0 52.0 Z M121.0 52.0 L121.0 52.0 L121.0 52.0 L121.0 52.0 L121.0 52.0 Z M121.0 52.0 L121.0 52.0 L121.0 52.0 L121.0 52.0 L121.0 52.0 Z M87.0 52.0 L87.0 52.0 L87.0 52.0 L87.0 52.0 L87.0 52.0 Z M87.0 52.0 L87.0 52.0 L87.0 52.0 L87.0 52.0 L87.0 52.0 Z M121.0 52.0 L121.0 52.0 L121.0 52.0 L121.0 52.0 L121.0 52.0 Z M121.0 52.0 L121.0 52.0 L121.0 52.0 L121.0 52.0 L121.0 52.0 Z M87.0 52.0 L87.0 52.0 L87.0 52.0 L87.0 52.0 L87.0 52.0 Z M87.0 52.0 L87.0 52.0 L87.0 52.0 L87.0 52.0 L87.0 52.0 Z M121.0 52.0 L121.0 52.0 L121.0 52.0 L121.0 52.0 L121.0 52.0 Z M121.0 52.0 L121.0 52.0 L121.0 52.0 L121.0 52.0 L121.0 52.0 Z M87.0 52.0 L87.0 52.0 L87.0 52.0 L87.0 52.0 L87.0 52.0 Z M87.0 52.0 L87.0 52.0 L87.0 52.0 L87.0 52.0 L87.0 52.0 Z M121.0 52.0 L121.0 52.0 L121.0 52.0 L121.0 52.0 L121.0 52.0 Z M121.0 52.0 L121.0 52.0 L121.0 52.0 L121.0 52.0 L121.0 52.0 Z M87.0 52.0 L87.0 52.0 L87.0 52.0 L87.0 52.0 L87.0 52.0 Z M87.0 52.0 L87.0 52.0 L87.0 52.0 L87.0 52.0 L87.0 52.0 Z M121.0 52.0 L121.0 52.0 L121.0 52.0 L121.0 52.0 L121.0 52.0 Z M121.0 52.0 L121.0 52.0 L121.0 52.0 L121.0 52.0 L121.0 52.0 Z M87.0 52.0 L87.0 52.0 L87.0 52.0 L87.0 52.0 L87.0 52.0 Z M87.0 52.0 L87.0 52.0 L87.0 52.0 L87.0 52.0 L87.0 52.0 Z M121.0 52.0 L121.0 52.0 L121.0 52.0 L121.0 52.0 L121.0 52.0 Z M121.0 52.0 L121.0 52.0 L121.0 52.0 L121.0 52.0 L121.0 52.0 Z M87.0 52.0 L87.0 52.0 L87.0 52.0 L87.0 52.0 L87.0 52.0 Z M87.0 52.0 L87.0 52.0 L87.0 52.0 L87.0 52.0 L87.0 52.0 Z M121.0 52.0 L121.0 52.0 L121.0 52.0 L121.0 52.0 L121.0 52.0 Z M121.0 52.0 L121.0 52.0 L121.0 52.0 L121.0 52.0 L121.0 52.0 Z M87.0 52.0 L87.0 52.0 L87.0 52.0 L87.0 52.0 L87.0 52.0 Z M87.0 52.0 L87.0 52.0 L87.0 52.0 L87.0 52.0 L87.0 52.0 Z M121.0 52.0 L121.0 52.0 L121.0 52.0 L121.0 52.0 L121.0 52.0 Z M121.0 52.0 L121.0 52.0 L121.0 52.0 L121.0 52.0 L121.0 52.0 Z M87.0 52.0 L87.0 52.0 L87.0 52.0 L87.0 52.0 L87.0 52.0 Z M87.0 52.0 L87.0 52.0 L87.0 52.0 L87.0 52.0 L87.0 52.0 Z M121.0 52.0 L121.0 52.0 L121.0 52.0 L121.0 52.0 L121.0 52.0 Z M121.0 52.0 L121.0 52.0 L121.0 52.0 L121.0 52.0 L121.0 52.0 Z M87.0 52.0 L87.0 52.0 L87.0 52.0 L87.0 52.0 L87.0 52.0 Z M87.0 52.0 L87.0 52.0 L87.0 52.0 L87.0 52.0 L87.0 52.0 Z M121.0 52.0 L121.0 52.0 L121.0 52.0 L121.0 52.0 L121.0 52.0 Z M121.0 52.0 L121.0 52.0 L121.0 52.0 L121.0 52.0 L121.0 52.0 Z M87.0 52.0 L87.0 52.0 L87.0 52.0 L87.0 52.0 L87.0 52.0 Z M87.0 52.0 L87.0 52.0 L87.0 52.0 L87.0 52.0 L87.0 52.0 Z M121.0 52.0 L121.0 52.0 L121.0 52.0 L121.0 52.0 L121.0 52.0 Z M121.0 52.0 L121.0 52.0 L121.0 52.0 L121.0 52.0 L121.0 52.0 Z M87.0 52.0 L87.0 52.0 L87.0 52.0 L87.0 52.0 L87.0 52.0 Z M87.0 52.0 L87.0 52.0 L87.0 52.0 L87.0 52.0 L87.0 52.0 Z M121.0 52.0 L121.0 52.0 L121.0 52.0 L121.0 52.0 L121.0 52.0 Z M121.0 52.0 L121.0 52.0 L121.0 52.0 L121.0 52.0 L121.0 52.0 Z M87.0 52.0 L87.0 52.0 L87.0 52.0 L87.0 52.0 L87.0 52.0 Z M87.0 52.0 L87.0 52.0 L87.0 52.0 L87.0 52.0 L87.0 52.0 Z M121.0 52.0 L121.0 52.0 L121.0 52.0 L121.0 52.0 L121.0 52.0 Z M121.0 52.0 L121.0 52.0 L121.0 52.0 L121.0 52.0 L121.0 52.0 Z M87.0 52.0 L87.0 52.0 L87.0 52.0 L87.0 52.0 L87.0 52.0 Z M87.0 52.0 L87.0 52.0 L87.0 52.0 L87.0 52.0 L87.0 52.0 Z M121.0 52.0 L121.0 52.0 L121.0 52.0 L121.0 52.0 L121.0 52.0 Z M121.0 52.0 L121.0 52.0 L121.0 52.0 L121.0 52.0 L121.0 52.0 Z M87.0 52.0 L87.0 52.0 L87.0 52.0 L87.0 52.0 L87.0 52.0 Z M87.0 52.0 L87.0 52.0 L87.0 52.0 L87.0 52.0 L87.0 52.0 Z M121.0 52.0 L121.0 52.0 L121.0 52.0 L121.0 52.0 L121.0 52.0 Z M121.0 52.0 L121.0 52.0 L121.0 52.0 L121.0 52.0 L121.0 52.0 Z M87.0 52.0 L87.0 52.0 L87.0 52.0 L87.0 52.0 L87.0 52.0 Z"></path></svg>