<svg xmlns="http://www.w3.org/2000/svg" viewBox="0.0 0.0 200.0 200.0" height="200px" width="200px"><path fill="#553322" fill-opacity="1.0"  filling="0" d="M50.0 170.0 L43.0 170.0 C41.0 170.0 39.0 168.0 39.0 166.0 L39.0 165.0 L53.0 165.0 L53.0 166.0 C53.0 168.0 52.0 170.0 50.0 170.0 L50.0 170.0 Z M157.0 170.0 L150.0 170.0 C148.0 170.0 147.0 168.0 147.0 166.0 L147.0 165.0 L161.0 165.0 L161.0 166.0 C161.0 168.0 159.0 170.0 157.0 170.0 L157.0 170.0 Z"></path>
<path fill="#aa6633" fill-opacity="1.0"  filling="0" d="M146.0 165.0 L54.0 165.0 C51.0 165.0 48.0 162.0 48.0 159.0 L48.0 48.0 C48.0 45.0 51.0 42.0 54.0 42.0 L146.0 42.0 C149.0 42.0 152.0 45.0 152.0 48.0 L152.0 159.0 C152.0 162.0 149.0 165.0 146.0 165.0 L146.0 165.0 Z"></path>
<path fill="#553322" fill-opacity="1.0"  filling="0" d="M150.0 158.0 C150.0 160.0 148.0 162.0 146.0 162.0 L54.0 162.0 C52.0 162.0 50.0 160.0 50.0 158.0 L50.0 38.0 C50.0 36.0 52.0 34.0 54.0 34.0 L146.0 34.0 C148.0 34.0 150.0 36.0 150.0 38.0 L150.0 158.0 L150.0 158.0 Z M158.0 165.0 L171.0 165.0 C175.0 165.0 179.0 162.0 179.0 157.0 L179.0 139.0 C179.0 135.0 175.0 131.0 171.0 131.0 L158.0 131.0 C153.0 131.0 150.0 135.0 150.0 139.0 L150.0 157.0 C150.0 162.0 153.0 165.0 158.0 165.0 L158.0 165.0 Z M41.0 165.0 L29.0 165.0 C24.0 165.0 21.0 162.0 21.0 157.0 L21.0 139.0 C21.0 135.0 24.0 131.0 29.0 131.0 L41.0 131.0 C46.0 131.0 50.0 135.0 50.0 139.0 L50.0 157.0 C50.0 162.0 46.0 165.0 41.0 165.0 L41.0 165.0 Z"></path>
<path fill="#000000" fill-opacity="1.0"  filling="0" d="M108.0 143.0 L92.0 143.0 C91.0 143.0 90.0 142.0 90.0 141.0 L90.0 138.0 C90.0 137.0 91.0 136.0 92.0 136.0 L108.0 136.0 C109.0 136.0 110.0 137.0 110.0 138.0 L110.0 141.0 C110.0 142.0 109.0 143.0 108.0 143.0 L108.0 143.0 Z M108.0 133.0 L92.0 133.0 C91.0 133.0 90.0 132.0 90.0 130.0 L90.0 128.0 C90.0 127.0 91.0 126.0 92.0 126.0 L108.0 126.0 C109.0 126.0 110.0 127.0 110.0 128.0 L110.0 130.0 C110.0 132.0 109.0 133.0 108.0 133.0 L108.0 133.0 Z M108.0 123.0 L92.0 123.0 C91.0 123.0 90.0 122.0 90.0 121.0 L90.0 118.0 C90.0 117.0 91.0 116.0 92.0 116.0 L108.0 116.0 C109.0 116.0 110.0 117.0 110.0 118.0 L110.0 121.0 C110.0 122.0 109.0 123.0 108.0 123.0 L108.0 123.0 Z M108.0 112.0 L92.0 112.0 C91.0 112.0 90.0 111.0 90.0 110.0 L90.0 107.0 C90.0 106.0 91.0 105.0 92.0 105.0 L108.0 105.0 C109.0 105.0 110.0 106.0 110.0 107.0 L110.0 110.0 C110.0 111.0 109.0 112.0 108.0 112.0 L108.0 112.0 Z M108.0 101.0 L92.0 101.0 C91.0 101.0 90.0 100.0 90.0 99.0 L90.0 96.0 C90.0 95.0 91.0 94.0 92.0 94.0 L108.0 94.0 C109.0 94.0 110.0 95.0 110.0 96.0 L110.0 99.0 C110.0 100.0 109.0 101.0 108.0 101.0 L108.0 101.0 Z M108.0 91.0 L92.0 91.0 C91.0 91.0 90.0 90.0 90.0 89.0 L90.0 86.0 C90.0 85.0 91.0 84.0 92.0 84.0 L108.0 84.0 C109.0 84.0 110.0 85.0 110.0 86.0 L110.0 89.0 C110.0 90.0 109.0 91.0 108.0 91.0 L108.0 91.0 Z M108.0 80.0 L92.0 80.0 C91.0 80.0 90.0 79.0 90.0 78.0 L90.0 75.0 C90.0 74.0 91.0 73.0 92.0 73.0 L108.0 73.0 C109.0 73.0 110.0 74.0 110.0 75.0 L110.0 78.0 C110.0 79.0 109.0 80.0 108.0 80.0 L108.0 80.0 Z M108.0 70.0 L92.0 70.0 C91.0 70.0 90.0 69.0 90.0 68.0 L90.0 65.0 C90.0 64.0 91.0 63.0 92.0 63.0 L108.0 63.0 C109.0 63.0 110.0 64.0 110.0 65.0 L110.0 68.0 C110.0 69.0 109.0 70.0 108.0 70.0 L108.0 70.0 Z M108.0 60.0 L92.0 60.0 C91.0 60.0 90.0 59.0 90.0 58.0 L90.0 55.0 C90.0 54.0 91.0 53.0 92.0 53.0 L108.0 53.0 C109.0 53.0 110.0 54.0 110.0 55.0 L110.0 58.0 C110.0 59.0 109.0 60.0 108.0 60.0 L108.0 60.0 Z M108.0 100.0 L92.0 100.0 C91.0 100.0 90.0 98.0 90.0 97.0 L90.0 94.0 C90.0 93.0 91.0 92.0 92.0 92.0 L108.0 92.0 C109.0 92.0 110.0 93.0 110.0 94.0 L110.0 97.0 C110.0 98.0 109.0 100.0 108.0 100.0 L108.0 100.0 Z M108.0 86.0 L92.0 86.0 C91.0 86.0 90.0 85.0 90.0 84.0 L90.0 81.0 C90.0 80.0 91.0 79.0 92.0 79.0 L108.0 79.0 C109.0 79.0 110.0 80.0 110.0 81.0 L110.0 84.0 C110.0 85.0 109.0 86.0 108.0 86.0 L108.0 86.0 Z M108.0 76.0 L92.0 76.0 C91.0 76.0 90.0 75.0 90.0 74.0 L90.0 71.0 C90.0 70.0 91.0 69.0 92.0 69.0 L108.0 69.0 C109.0 69.0 110.0 70.0 110.0 71.0 L110.0 74.0 C110.0 75.0 109.0 76.0 108.0 76.0 L108.0 76.0 Z M108.0 65.0 L92.0 65.0 C91.0 65.0 90.0 64.0 90.0 62.0 L90.0 60.0 C90.0 59.0 91.0 58.0 92.0 58.0 L108.0 58.0 C109.0 58.0 110.0 59.0 110.0 60.0 L110.0 62.0 C110.0 64.0 109.0 65.0 108.0 65.0 L108.0 65.0 Z M108.0 52.0 L92.0 52.0 C91.0 52.0 90.0 51.0 90.0 50.0 L90.0 47.0 C90.0 46.0 91.0 45.0 92.0 45.0 L108.0 45.0 C109.0 45.0 110.0 46.0 110.0 47.0 L110.0 50.0 C110.0 51.0 109.0 52.0 108.0 52.0 L108.0 52.0 Z M108.0 90.0 L92.0 90.0 C91.0 90.0 90.0 89.0 90.0 88.0 L90.0 85.0 C90.0 84.0 91.0 83.0 92.0 83.0 L108.0 83.0 C109.0 83.0 110.0 84.0 110.0 85.0 L110.0 88.0 C110.0 89.0 109.0 90.0 108.0 90.0 L108.0 90.0 Z M108.0 77.0 L92.0 77.0 C91.0 77.0 90.0 76.0 90.0 75.0 L90.0 72.0 C90.0 71.0 91.0 70.0 92.0 70.0 L108.0 70.0 C109.0 70.0 110.0 71.0 110.0 72.0 L110.0 75.0 C110.0 76.0 109.0 77.0 108.0 77.0 L108.0 77.0 Z M108.0 65.0 L92.0 65.0 C91.0 65.0 90.0 64.0 90.0 62.0 L90.0 60.0 C90.0 59.0 91.0 58.0 92.0 58.0 L108.0 58.0 C109.0 58.0 110.0 59.0 110.0 60.0 L110.0 62.0 C110.0 64.0 109.0 65.0 108.0 65.0 L108.0 65.0 Z M108.0 52.0 L92.0 52.0 C91.0 52.0 90.0 51.0 90.0 50.0 L90.0 47.0 C90.0 46.0 91.0 45.0 92.0 45.0 L108.0 45.0 C109.0 45.0 110.0 46.0 110.0 47.0 L110.0 50.0 C110.0 51.0 109.0 52.0 108.0 52.0 L108.0 52.0 Z M108.0 100.0 L92.0 100.0 C91.0 100.0 90.0 98.0 90.0 97.0 L90.0 94.0 C90.0 93.0 91.0 92.0 92.0 92.0 L108.0 92.0 C109.0 92.0 110.0 93.0 110.0 94.0 L110.0 97.0 C110.0 98.0 109.0 100.0 108.0 100.0 L108.0 100.0 Z M108.0 86.0 L92.0 86.0 C91.0 86.0 90.0 85.0 90.0 84.0 L90.0 81.0 C90.0 80.0 91.0 79.0 92.0 79.0 L108.0 79.0 C109.0 79.0 110.0 80.0 110.0 81.0 L110.0 84.0 C110.0 85.0 109.0 86.0 108.0 86.0 L108.0 86.0 Z M108.0 76.0 L92.0 76.0 C91.0 76.0 90.0 75.0 90.0 74.0 L90.0 71.0 C90.0 70.0 91.0 69.0 92.0 69.0 L108.0 69.0 C109.0 69.0 110.0 70.0 110.0 71.0 L110.0 74.0 C110.0 75.0 109.0 76.0 108.0 76.0 L108.0 76.0 Z M108.0 65.0 L92.0 65.0 C91.0 65.0 90.0 64.0 90.0 62.0 L90.0 60.0 C90.0 59.0 91.0 58.0 92.0 58.0 L108.0 58.0 C109.0 58.0 110.0 59.0 110.0 60.0 L110.0 62.0 C110.0 64.0 109.0 65.0 108.0 65.0 L108.0 65.0 Z M108.0 52.0 L92.0 52.0 C91.0 52.0 90.0 51.0 90.0 50.0 L90.0 47.0 C90.0 46.0 91.0 45.0 92.0 45.0 L108.0 45.0 C109.0 45.0 110.0 46.0 110.0 47.0 L110.0 50.0 C110.0 51.0 109.0 52.0 108.0 52.0 L108.0 52.0 Z M108.0 100.0 L92.0 100.0 C91.0 100.0 90.0 98.0 90.0 97.0 L90.0 94.0 C90.0 93.0 91.0 92.0 92.0 92.0 L108.0 92.0 C109.0 92.0 110.0 93.0 110.0 94.0 L110.0 97.0 C110.0 98.0 109.0 100.0 108.0 100.0 L108.0 100.0 Z M108.0 86.0 L92.0 86.0 C91.0 86.0 90.0 85.0 90.0 84.0 L90.0 81.0 C90.0 80.0 91.0 79.0 92.0 79.0 L108.0 79.0 C109.0 79.0 110.0 80.0 110.0 81.0 L110.0 84.0 C110.0 85.0 109.0 86.0 108.0 86.0 L108.0 86.0 Z M108.0 76.0 L92.0 76.0 C91.0 76.0 90.0 75.0 90.0 74.0 L90.0 71.0 C90.0 70.0 91.0 69.0 92.0 69.0 L108.0 69.0 C109.0 69.0 110.0 70.0 110.0 71.0 L110.0 74.0 C110.0 75.0 109.0 76.0 108.0 76.0 L108.0 76.0 Z M108.0 65.0 L92.0 65.0 C91.0 65.0 90.0 64.0 90.0 62.0 L90.0 60.0 C90.0 59.0 91.0 58.0 92.0 58.0 L108.0 58.0 C109.0 58.0 110.0 59.0 110.0 60.0 L110.0 62.0 C110.0 64.0 109.0 65.0 108.0 65.0 L108.0 65.0 Z M108.0 52.0 L92.0 52.0 C91.0 52.0 90.0 51.0 90.0 50.0 L90.0 47.0 C90.0 46.0 91.0 45.0 92.0 45.0 L108.0 45.0 C109.0 45.0 110.0 46.0 110.0 47.0 L110.0 50.0 C110.0 51.0 109.0 52.0 108.0 52.0 L108.0 52.0 Z M108.0 100.0 L92.0 100.0 C91.0 100.0 90.0 98.0 90.0 97.0 L90.0 94.0 C90.0 93.0 91.0 92.0 92.0 92.0 L108.0 92.0 C109.0 92.0 110.0 93.0 110.0 94.0 L110.0 97.0 C110.0 98.0 109.0 100.0 108.0 100.0 L108.0 100.0 Z M108.0 86.0 L92.0 86.0 C91.0 86.0 90.0 85.0 90.0 84.0 L90.0 81.0 C90.0 80.0 91.0 79.0 92.0 79.0 L108.0 79.0 C109.0 79.0 110.0 80.0 110.0 81.0 L110.0 84.0 C110.0 85.0 109.0 86.0 108.0 86.0 L108.0 86.0 Z M108.0 76.0 L92.0 76.0 C91.0 76.0 90.0 75.0 90.0 74.0 L90.0 71.0 C90.0 70.0 91.0 69.0 92.0 69.0 L108.0 69.0 C109.0 69.0 110.0 70.0 110.0 71.0 L110.0 74.0 C110.0 75.0 109.0 76.0 108.0 76.0 L108.0 76.0 Z M108.0 65.0 L92.0 65.0 C91.0 65.0 90.0 64.0 90.0 62.0 L90.0 60.0 C90.0 59.0 91.0 58.0 92.0 58.0 L108.0 58.0 C109.0 58.0 110.0 59.0 110.0 60.0 L110.0 62.0 C110.0 64.0 109.0 65.0 108.0 65.0 L108.0 65.0 Z M108.0 52.0 L92.0 52.0 C91.0 52.0 90.0 51.0 90.0 50.0 L90.0 47.0 C90.0 46.0 91.0 45.0 92.0 45.0 L108.0 45.0 C109.0 45.0 110.0 46.0 110.0 47.0 L110.0 50.0 C110.0 51.0 109.0 52.0 108.0 52.0 L108.0 52.0 Z M108.0 100.0 L92.0 100.0 C91.0 100.0 90.0 98.0 90.0 97.0 L90.0 94.0 C90.0 93.0 91.0 92.0 92.0 92.0 L108.0 92.0 C109.0 92.0 110.0 93.0 110.0 94.0 L110.0 97.0 C110.0 98.0 109.0 100.0 108.0 100.0 L108.0 100.0 Z M108.0 86.0 L92.0 86.0 C91.0 86.0 90.0 85.0 90.0 84.0 L90.0 81.0 C90.0 80.0 91.0 79.0 92.0 79.0 L108.0 79.0 C109.0 79.0 110.0 80.0 110.0 81.0 L110.0 84.0 C110.0 85.0 109.0 86.0 108.0 86.0 L108.0 86.0 Z M108.0 76.0 L92.0 76.0 C91.0 76.0 90.0 75.0 90.0 74.0 L90.0 71.0 C90.0 70.0 91.0 69.0 92.0 69.0 L108.0 69.0 C109.0 69.0 110.0 70.0 110.0 71.0 L110.0 74.0 C110.0 75.0 109.0 76.0 108.0 76.0 L108.0 76.0 Z M108.0 65.0 L92.0 65.0 C91.0 65.0 90.0 64.0 90.0 62.0 L90.0 60.0 C90.0 59.0 91.0 58.0 92.0 58.0 L108.0 58.0 C109.0 58.0 110.0 59.0 110.0 60.0 L110.0 62.0 C110.0 64.0 109.0 65.0 108.0 65.0 L108.0 65.0 Z"></path></svg>