<svg xmlns="http://www.w3.org/2000/svg" viewBox="0.0 0.0 200.0 200.0" height="200px" width="200px"><path fill="#553322" fill-opacity="1.0"  filling="0" d="M50.0 170.0 L43.0 170.0 C41.0 170.0 39.0 168.0 39.0 166.0 L39.0 165.0 L54.0 165.0 L54.0 166.0 C54.0 168.0 52.0 170.0 50.0 170.0 L50.0 170.0 Z M157.0 170.0 L150.0 170.0 C148.0 170.0 146.0 168.0 146.0 166.0 L146.0 165.0 L161.0 165.0 L161.0 166.0 C161.0 168.0 159.0 170.0 157.0 170.0 L157.0 170.0 Z"></path>
<path fill="#553322" fill-opacity="1.0"  filling="0" d="M23.0 134.0 L21.0 134.0 L21.0 143.0 L23.0 143.0 C33.0 143.0 43.0 152.0 43.0 164.0 L43.0 165.0 L52.0 165.0 L52.0 164.0 C52.0 147.0 39.0 134.0 23.0 134.0 L23.0 134.0 Z"></path>
<path fill="#553322" fill-opacity="1.0"  filling="0" d="M150.0 100.0 L148.0 100.0 L148.0 165.0 L157.0 165.0 L157.0 164.0 C157.0 152.0 166.0 143.0 177.0 143.0 L179.0 143.0 L179.0 100.0 L150.0 100.0 L150.0 100.0 Z M25.0 100.0 L21.0 100.0 L21.0 143.0 L23.0 143.0 C33.0 143.0 43.0 152.0 43.0 164.0 L43.0 165.0 L52.0 165.0 L52.0 100.0 L25.0 100.0 L25.0 100.0 Z"></path>
<path fill="#ffffff" fill-opacity="1.0"  filling="0" d="M150.0 57.0 L148.0 57.0 L148.0 165.0 L157.0 165.0 L157.0 164.0 C157.0 152.0 166.0 143.0 177.0 143.0 L179.0 57.0 L150.0 57.0 L150.0 57.0 Z M21.0 57.0 L23.0 57.0 C33.0 57.0 43.0 48.0 43.0 36.0 L43.0 35.0 L52.0 35.0 L52.0 57.0 L50.0 57.0 L21.0 57.0 L21.0 57.0 Z M150.0 57.0 L148.0 57.0 L148.0 35.0 L157.0 35.0 L157.0 36.0 C157.0 48.0 166.0 57.0 177.0 57.0 L179.0 57.0 L179.0 57.0 L150.0 57.0 L150.0 57.0 Z M52.0 35.0 L43.0 35.0 L43.0 36.0 C43.0 48.0 33.0 57.0 23.0 57.0 L21.0 57.0 L21.0 57.0 L50.0 57.0 L52.0 57.0 L52.0 35.0 L52.0 35.0 Z M52.0 35.0 L148.0 52.0 L148.0 35.0 L52.0 35.0 L52.0 35.0 Z M148.0 52.0 L52.0 52.0 L52.0 165.0 L148.0 165.0 L148.0 52.0 L148.0 52.0 Z M52.0 52.0 L52.0 35.0 L52.0 35.0 L52.0 52.0 L52.0 52.0 Z M52.0 52.0 L148.0 52.0 L148.0 52.0 L148.0 52.0 L148.0 52.0 L52.0 35.0 L52.0 35.0 L52.0 35.0 L148.0 52.0 L148.0 52.0 L148.0 165.0 L52.0 165.0 L52.0 52.0 L52.0 52.0 Z M148.0 52.0 L148.0 52.0 L148.0 52.0 L148.0 52.0 L148.0 52.0 Z M4.0 4.0 L196.0 4.0 L196.0 196.0 L4.0 196.0 L4.0 4.0 L4.0 4.0 Z"></path>
<path fill="#ffffff" fill-opacity="1.0"  filling="0" d="M199.0 199.0 L0.0 199.0 L0.0 0.0 L199.0 0.0 L199.0 199.0 L199.0 199.0 Z M4.0 196.0 L196.0 196.0 L196.0 4.0 L4.0 4.0 L4.0 196.0 L4.0 196.0 Z"></path>
<path fill="#000000" fill-opacity="1.0"  filling="0" d="M50.0 42.0 L38.0 38.0 C39.0 39.0 39.0 39.0 39.0 39.0 C40.0 40.0 40.0 40.0 40.0 40.0 C41.0 40.0 42.0 40.0 42.0 40.0 C43.0 40.0 44.0 40.0 45.0 40.0 C46.0 40.0 47.0 40.0 48.0 40.0 C49.0 40.0 50.0 40.0 51.0 40.0 C52.0 40.0 52.0 40.0 53.0 39.0 C53.0 39.0 54.0 39.0 54.0 38.0 L50.0 42.0 L50.0 42.0 Z M150.0 38.0 L144.0 33.0 C145.0 33.0 145.0 33.0 146.0 33.0 C147.0 33.0 148.0 33.0 148.0 33.0 C149.0 33.0 150.0 33.0 151.0 33.0 C152.0 33.0 153.0 33.0 154.0 33.0 C155.0 33.0 156.0 34.0 157.0 34.0 C158.0 34.0 159.0 34.0 159.0 34.0 C161.0 35.0 162.0 35.0 163.0 36.0 C164.0 37.0 165.0 38.0 166.0 38.0 L160.0 42.0 A15.0 15.0 0.0 0 0 158.0 41.0 C158.0 40.0 157.0 40.0 156.0 40.0 C155.0 40.0 154.0 40.0 153.0 40.0 C152.0 40.0 151.0 40.0 150.0 40.0 C149.0 40.0 149.0 40.0 148.0 39.0 C147.0 39.0 146.0 39.0 145.0 39.0 C145.0 39.0 144.0 40.0 143.0 40.0 L150.0 38.0 L150.0 38.0 Z M50.0 162.0 L46.0 158.0 C46.0 158.0 46.0 158.0 46.0 158.0 C46.0 158.0 46.0 158.0 47.0 158.0 C47.0 158.0 48.0 158.0 49.0 158.0 C50.0 158.0 51.0 158.0 52.0 158.0 C53.0 158.0 54.0 158.0 55.0 158.0 C56.0 158.0 57.0 158.0 58.0 158.0 C59.0 158.0 60.0 158.0 61.0 158.0 C62.0 158.0 63.0 158.0 64.0 158.0 C65.0 158.0 66.0 158.0 67.0 158.0 C68.0 158.0 69.0 158.0 70.0 158.0 C71.0 158.0 72.0 158.0 73.0 158.0 C74.0 158.0 75.0 158.0 76.0 158.0 C77.0 158.0 78.0 158.0 79.0 158.0 C80.0 158.0 81.0 158.0 82.0 158.0 C83.0 158.0 84.0 158.0 85.0 158.0 C86.0 158.0 87.0 158.0 88.0 158.0 C89.0 158.0 90.0 158.0 91.0 158.0 C92.0 158.0 93.0 158.0 94.0 158.0 C95.0 158.0 96.0 158.0 97.0 158.0 C98.0 158.0 99.0 158.0 100.0 158.0 C101.0 158.0 102.0 158.0 103.0 158.0 C104.0 158.0 105.0 158.0 106.0 158.0 C107.0 158.0 108.0 158.0 109.0 158.0 C110.0 158.0 111.0 158.0 112.0 158.0 C113.0 158.0 114.0 158.0 115.0 158.0 C116.0 158.0 117.0 158.0 118.0 158.0 C119.0 158.0 120.0 158.0 121.0 158.0 C122.0 158.0 123.0 158.0 124.0 158.0 C125.0 158.0 126.0 158.0 127.0 158.0 C128.0 158.0 129.0 158.0 130.0 158.0 C131.0 158.0 132.0 158.0 133.0 158.0 C134.0 158.0 135.0 158.0 136.0 158.0 C137.0 158.0 138.0 158.0 139.0 158.0 C140.0 158.0 141.0 158.0 142.0 158.0 C143.0 158.0 144.0 158.0 145.0 158.0 C146.0 158.0 147.0 158.0 148.0 158.0 C149.0 158.0 150.0 158.0 151.0 158.0 C152.0 158.0 153.0 158.0 154.0 158.0 C154.0 158.0 155.0 158.0 155.0 158.0 C156.0 158.0 157.0 158.0 158.0 158.0 C158.0 158.0 158.0 158.0 158.0 158.0 C158.0 158.0 158.0 158.0 158.0 158.0 L150.0 162.0 L150.0 162.0 C150.0 162.0 150.0 162.0 150.0 162.0 C150.0 162.0 150.0 162.0 150.0 162.0 C150.0 162.0 150.0 162.0 150.0 162.0 C150.0 162.0 150.0 162.0 150.0 162.0 C150.0 162.0 150.0 162.0 150.0 162.0 C150.0 162.0 150.0 162.0 150.0 162.0 C150.0 162.0 150.0 162.0 150.0 162.0 C150.0 162.0 150.0 162.0 150.0 162.0 C150.0 162.0 150.0 162.0 150.0 162.0 C150.0 162.0 150.0 162.0 150.0 162.0 C150.0 162.0 150.0 162.0 150.0 162.0 C150.0 162.0 150.0 162.0 150.0 162.0 C150.0 162.0 150.0 162.0 150.0 162.0 C150.0 162.0 150.0 162.0 150.0 162.0 C150.0 162.0 150.0 162.0 150.0 162.0 C150.0 162.0 150.0 162.0 150.0 162.0 C150.0 162.0 150.0 162.0 150.0 162.0 C150.0 162.0 150.0 162.0 150.0 162.0 C150.0 162.0 150.0 162.0 150.0 162.0 C150.0 162.0 150.0 162.0 150.0 162.0 C150.0 162.0 150.0 162.0 150.0 162.0 C150.0 162.0 150.0 162.0 150.0 162.0 C150.0 162.0 150.0 162.0 150.0 162.0 C150.0 162.0 150.0 162.0 150.0 162.0 C150.0 162.0 150.0 162.0 150.0 162.0 C150.0 162.0 150.0 162.0 150.0 162.0 C150.0 162.0 150.0 162.0 150.0 162.0 C150.0 162.0 150.0 162.0 150.0 162.0 C150.0 162.0 150.0 162.0 150.0 162.0 C150.0 162.0 150.0 162.0 150.0 162.0 C150.0 162.0 150.0 162.0 150.0 162.0 C150.0 162.0 150.0 162.0 150.0 162.0 C150.0 162.0 150.0 162.0 150.0 162.0 C150.0 162.0 150.0 162.0 150.0 162.0 C150.0 162.0 150.0 162.0 150.0 162.0 C150.0 162.0 150.0 162.0 150.0 162.0 C150.0 162.0 150.0 162.0 150.0 162.0 C150.0 162.0 150.0 162.0 150.0 162.0 C150.0 162.0 150.0 162.0 150.0 162.0 C150.0 162.0 150.0 162.0 150.0 162.0 C150.0 162.0 150.0 162.0 150.0 162.0 C150.0 162.0 150.0 162.0 150.0 162.0 C150.0 162.0 150.0 162.0 150.0 162.0 C150.0 162.0 150.0 162.0 150.0 162.0 C150.0 162.0 150.0 162.0 150.0 162.0 C150.0 162.0 150.0 162.0 150.0 162.0 C150.0 162.0 150.0 162.0 150.0 162.0 C150.0 162.0 150.0 162.0 150.0 162.0 C150.0 162.0 150.0 162.0 150.0 162.0 C150.0 162.0 150.0 162.0 150.0 162.0 C150.0 162.0 150.0 162.0 150.0 162.0 C150.0 162.0 150.0 162.0 150.0 162.0 C150.0 162.0 150.0 162.0 150.0 162.0 C150.0 162.0 150.0 162.0 150.0 162.0 C150.0 162.0 150.0 162.0 150.0 162.0 C150.0 162.0 150.0 162.0 150.0 162.0 C150.0 162.0 150.0 162.0 150.0 162.0 C150.0 162.0 150.0 162.0 150.0 162.0 C150.0 162.0 150.0 162.0 150.0 162.0 C150.0 162.0 150.0 162.0 150.0 162.0 C150.0 162.0 150.0 162.0 150.0 162.0 C150.0 162.0 150.0 162.0 150.0 162.0 C150.0 162.0 150.0 162.0 150.0 162.0 C150.0 162.0 150.0 162.0 150.0 162.0 C150.0 162.0 150.0 162.0 150.0 162.0 C150.0 162.0 150.0 162.0 150.0 162.0 C150.0 162.0 150.0 162.0 150.0 162.0 C150.0 162.0 150.0 162.0 150.0 162.0 C150.0 162.0 150.0 162.0 150.0 162.0 C150.0 162.0 150.0 162.0 150.0 162.0 C150.0 162.0 150.0 162.0 150.0 162.0 C150.0 162.0 150.0 162.0 150.0 162.0 C150.0 162.0 150.0 162.0 150.0 162.0 C150.0 162.0 150.0 162.0 150.0 162.0 C150.0 162.0 150.0 162.0 150.0 162.0 C150.0 162.0 150.0 162.0 150.0 162.0 C150.0 162.0 150.0 162.0 150.0 162.0 C150.0 162.0 150.0 162.0 150.0 162.0 C150.0 162.0 150.0 162.0 150.0 162.0 C150.0 162.0 150.0 162.0 150.0 162.0 C150.0 162.0 150.0 162.0 150.0 162.0 C150.0 162.0 150.0 162.0 150.0 162.0 C150.0 162.0 150.0 162.0 150.0 162.0 C150.0 162.0 150.0 162.0 150.0 162.0 C150.0 162.0 150.0 162.0 150.0 162.0 C150.0 162.0 150.0 162.0 150.0 162.0 C150.0 162.0 150.0 162.0 150.0 162.0 C150.0 162.0 150.0 162.0 150.0 162.0 C150.0 162.0 150.0 162.0 150.0 162.0 C150.0 162.0 150.0 162.0 150.0 162.0 C150.0 162.0 150.0 162.0 150.0 162.0 C150.0 162.0 150.0 162.0 150.0 162.0 C150.0 162.0 150.0 162.0 150.0 162.0 C150.0 162.0 150.0 162.0 150.0 162.0 C150.0 162.0 150.0 162.0 150.0 162.0 C150.0 162.0 150.0 162.0 150.0 162.0 C150.0 162.0 150.0 162.0 150.0 162.0 C150.0 162.0 150.0 162.0 150.0 162.0 C150.0 162.0 150.0 162.0 150.0 162.0 C150.0 162.0 150.0 162.0 150.0 162.0 C150.0 162.0 150.0 162.0 150.0 162.0 C150.0 162.0 150.0 162.0 150.0 162.0 C150.0 162.0 150.0 162.0 150.0 162.0 C150.0 162.0 150.0 162.0 150.0 162.0 C150.0 162.0 150.0 162.0 150.0 162.0 C150.0 162.0 150.0 162.0 150.0 162.0 C150.0 162.0 150.0 162.0 150.0 162.0 C150.0 162.0 150.0 162.0 150.0 162.0 C150.0 162.0 150.0 162.0 150.0 162.0 C150.0 162.0 150.0 162.0 150.0 162.0 C150.0 162.0 150.0 162.0 150.0 162.0 C150.0 162.0 150.0 162.0 150.0 162.0 C150.0 162.0 150.0 162.0 150.0 162.0 C150.0 162.0 150.0 162.0 150.0 162.0 C150.0 162.0 150.0 162.0 150.0 162.0 C150.0 162.0 150.0 162.0 150.0 162.0 C150.0 162.0 150.0 162.0 150.0 162.0 C150.0 162.0 150.0 162.0 150.0 162.0 C150.0 162.0 150.0 162.0 150.0 162.0 C150.0 162.0 150.0 162.0 150.0 162.0 C150.0 162.0 150.0 162.0 150.0 162.0 C150.0 162.0 150.0 162.0 150.0 162.0 C150.0 162.0 150.0 162.0 150.0 162.0 C150.0 162.0 150.0 162.0 150.0 162.0 C150.0 162.0 150.0 162.0 150.0 162.0 C150.0 162.0 150.0 162.0 150.0 162.0 C150.0 162.0 150.0 162.0 150.0 162.0 C150.0 162.0 150.0 162.0 150.0 162.0 C150.0 162.0 150.0 162.0 150.0 162.0 C150.0 162.0 150.0 162.0 150.0 162.0 C150.0 162.0 150.0 162.0 150.0 162.0 C150.0 162.0 150.0 162.0 150.0 162.0 C150.0 162.0 150.0 162.0 150.0 162.0 C150.0 162.0 150.0 162.0 150.0 162.0 C150.0 162.0 150.0 162.0 150.0 162.0 C150.0 162.0 150.0 162.0 150.0 162.0 C150.0 162.0 150.0 162.0 150.0 162.0 C150.0 162.0 150.0 162.0 150.0 162.0 C150.0 162.0 150.0 162.0 150.0 162.0 C150.0 162.0 150.0 162.0 150.0 162.0 C150.0 162.0 150.0 162.0 150.0 162.0 C150.0 162.0 150.0 162.0 150.0 162.0 C150.0 162.0 150.0 162.0 150.0 162.0 C150.0 162.0 150.0 162.0 150.0 162.0 C150.0 162.0 150.0 162.0 150.0 162.0 C150.0 162.0 150.0 162.0 150.0 162.0 C150.0 162.0 150.0 162.0 150.0 162.0 C150.0 162.0 150.0 162.0 150.0 162.0 C150.0 162.0 150.0 162.0 150.0 162.0 C150.0 162.0 150.0 162.0 150.0 162.0 C150.0 162.0 150.0 162.0 150.0 162.0 C150.0 162.0 150.0 162.0 150.0 162.0 C150.0 162.0 150.0 162.0 150.0 162.0 C150.0 162.0 150.0 162.0 150.0 162.0 C150.0 162.0 150.0 162.0 150.0 162.0 C150.0 162.0 150.0 162.0 150.0 162.0 C150.0 162.0 150.0 162.0 150.0 162.0 C150.0 162.0 150.0 162.0 150.0 162.0 C150.0 162.0 150.0 162.0 150.0 162.0 C150.0 162.0 150.0 162.0 150.0 162.0 C150.0 162.0 150.0 162.0 150.0 162.0 C150.0 162.0 150.0 162.0 150.0 162.0 C150.0 162.0 150.0 162.0 150.0 162.0 C150.0 162.0 150.0 162.0 150.0 162.0 C150.0 162.0 150.0 162.0 150.0 162.0 C150.0 162.0 150.0 162.0 150.0 162.0 C150.0 162.0 150.0 162.0 150.0 162.0 C150.0 162.0 150.0 162.0 150.0 162.0 C150.0 162.0 150.0 162.0 150.0 162.0 C150.0 162.0 150.0 162.0 150.0 162.0 C150.0 162.0 150.0 162.0 150.0 162.0 C150.0 162.0 150.0 162.0 150.0 162.0 C150.0 162.0 150.0 162.0 150.0 162.0 C150.0 162.0 150.0 162.0 150.0 162.0 C150.0 162.0 150.0 162.0 150.0 162.0 C150.0 162.0 150.0 162.0 150.0 162.0 C150.0 162.0 150.0 162.0 150.0 162.0 C150.0 162.0 150.0 162.0 150.0 162.0 C150.0 162.0 150.0 162.0 150.0 162.0 C150.0 162.0 150.0 162.0 150.0 162.0 C150.0 162.0 150.0 162.0 150.0 162.0 C150.0 162.0 150.0 162.0 150.0 162.0 C150.0 162.0 150.0 162.0 150.0 162.0 C150.0 162.0 150.0 162.0 150.0 162.0 C150.0 162.0 150.0 162.0 150.0 162.0 C150.0 162.0 150.0 162.0 150.0 162.0 C150.0 162.0 150.0 162.0 150.0 162.0 C150.0 162.0 150.0 162.0 150.0 162.0 C150.0 162.0 150.0 162.0 150.0 162.0 C150.0 162.0 150.0 162.0 150.0 162.0 C150.0 162.0 150.0 162.0 150.0 162.0 C150.0 162.0 150.0 162.0 150.0 162.0 C150.0 162.0 150.0 162.0 150.0 162.0 C150.0 162.0 150.0 162.0 150.0 162.0 C150.0 162.0 150.0 162.0 150.0 162.0 C150.0 162.0 150.0 162.0 150.0 162.0 C150.0 162.0 150.0 162.0 150.0 162.0"></path></svg>