<svg xmlns="http://www.w3.org/2000/svg" viewBox="0.0 0.0 200.0 200.0" height="200px" width="200px"><path fill="#553322" fill-opacity="1.0"  filling="0" d="M50.0 170.0 L43.0 170.0 C41.0 170.0 39.0 168.0 39.0 166.0 L39.0 165.0 L53.0 165.0 L53.0 166.0 C53.0 168.0 52.0 170.0 50.0 170.0 L50.0 170.0 Z M157.0 170.0 L150.0 170.0 C148.0 170.0 147.0 168.0 147.0 166.0 L147.0 165.0 L161.0 165.0 L161.0 166.0 C161.0 168.0 159.0 170.0 157.0 170.0 L157.0 170.0 Z"></path>
<path fill="#ffffff" fill-opacity="1.0"  filling="0" d="M146.0 165.0 L54.0 165.0 C51.0 165.0 48.0 162.0 48.0 159.0 L48.0 42.0 C48.0 39.0 51.0 36.0 54.0 36.0 L146.0 36.0 C149.0 36.0 152.0 39.0 152.0 42.0 L152.0 159.0 C152.0 162.0 149.0 165.0 146.0 165.0 L146.0 165.0 Z"></path>
<path fill="#333333" fill-opacity="1.0"  filling="0" d="M146.0 168.0 L54.0 168.0 C49.0 168.0 45.0 164.0 45.0 159.0 L45.0 42.0 C45.0 38.0 49.0 34.0 54.0 34.0 L146.0 34.0 C151.0 34.0 155.0 38.0 155.0 42.0 L155.0 159.0 C155.0 164.0 151.0 168.0 146.0 168.0 L146.0 168.0 Z M54.0 38.0 C52.0 38.0 51.0 40.0 51.0 42.0 L51.0 159.0 C51.0 161.0 52.0 162.0 54.0 162.0 L146.0 162.0 C148.0 162.0 149.0 161.0 149.0 159.0 L149.0 42.0 C149.0 40.0 148.0 38.0 146.0 38.0 L54.0 38.0 L54.0 38.0 Z"></path>
<path fill="#cc8844" fill-opacity="1.0"  filling="0" d="M57.0 52.0 L57.0 52.0 L57.0 165.0 L57.0 165.0 C61.0 165.0 64.0 162.0 64.0 158.0 L64.0 59.0 C64.0 56.0 61.0 52.0 57.0 52.0 L57.0 52.0 Z M143.0 52.0 C139.0 52.0 136.0 56.0 136.0 59.0 L136.0 158.0 C136.0 162.0 139.0 165.0 143.0 165.0 L143.0 165.0 L143.0 52.0 L143.0 52.0 L143.0 52.0 Z"></path>
<path fill="#ffffff" fill-opacity="1.0"  filling="0" d="M72.0 159.0 L72.0 58.0 C72.0 58.0 72.0 58.0 72.0 58.0 L72.0 58.0 C72.0 58.0 72.0 58.0 72.0 58.0 L72.0 159.0 C72.0 159.0 72.0 159.0 72.0 159.0 L72.0 159.0 C72.0 159.0 72.0 159.0 72.0 159.0 L72.0 159.0 Z M128.0 42.0 L128.0 42.0 C128.0 42.0 128.0 42.0 128.0 42.0 L128.0 42.0 C128.0 42.0 128.0 42.0 128.0 42.0 L128.0 158.0 C128.0 158.0 128.0 158.0 128.0 158.0 L128.0 158.0 C128.0 158.0 128.0 158.0 128.0 158.0 L128.0 42.0 C128.0 42.0 128.0 42.0 128.0 42.0 L128.0 42.0 Z M72.0 42.0 C72.0 42.0 72.0 42.0 72.0 42.0 L72.0 42.0 C72.0 42.0 72.0 42.0 72.0 42.0 L72.0 158.0 C72.0 158.0 72.0 158.0 72.0 158.0 L72.0 158.0 C72.0 158.0 72.0 158.0 72.0 158.0 L72.0 42.0 C72.0 42.0 72.0 42.0 72.0 42.0 L72.0 42.0 Z M128.0 42.0 C128.0 42.0 128.0 42.0 128.0 42.0 L128.0 42.0 C128.0 42.0 128.0 42.0 128.0 42.0 L128.0 158.0 C128.0 158.0 128.0 158.0 128.0 158.0 L128.0 158.0 C128.0 158.0 128.0 158.0 128.0 158.0 L128.0 42.0 C128.0 42.0 128.0 42.0 128.0 42.0 L128.0 42.0 Z M72.0 42.0 C72.0 42.0 72.0 42.0 72.0 42.0 L72.0 42.0 C72.0 42.0 72.0 42.0 72.0 42.0 L72.0 158.0 C72.0 158.0 72.0 158.0 72.0 158.0 L72.0 158.0 C72.0 158.0 72.0 158.0 72.0 158.0 L72.0 42.0 C72.0 42.0 72.0 42.0 72.0 42.0 L72.0 42.0 Z"></path>
<path fill="#ffffff" fill-opacity="1.0"  filling="0" d="M49.0 170.0 L30.0 170.0 C26.0 170.0 23.0 167.0 23.0 164.0 L23.0 61.0 C23.0 58.0 26.0 55.0 30.0 55.0 L49.0 55.0 C52.0 55.0 55.0 58.0 55.0 61.0 L55.0 164.0 C55.0 167.0 52.0 170.0 49.0 170.0 L49.0 170.0 Z"></path>
<path fill="#333333" fill-opacity="1.0"  filling="0" d="M49.0 172.0 L30.0 172.0 C25.0 172.0 21.0 168.0 21.0 164.0 L21.0 61.0 C21.0 57.0 25.0 53.0 30.0 53.0 L49.0 53.0 C54.0 53.0 57.0 57.0 57.0 61.0 L57.0 164.0 C57.0 168.0 54.0 172.0 49.0 172.0 L49.0 172.0 Z M30.0 58.0 C28.0 58.0 26.0 59.0 26.0 61.0 L26.0 164.0 C26.0 166.0 28.0 167.0 30.0 167.0 L49.0 167.0 C51.0 167.0 52.0 166.0 52.0 164.0 L52.0 61.0 C52.0 59.0 51.0 58.0 49.0 58.0 L30.0 58.0 L30.0 58.0 Z"></path>
<path fill="#553322" fill-opacity="1.0"  filling="0" d="M29.0 170.0 L28.0 170.0 C24.0 170.0 21.0 167.0 21.0 163.0 L21.0 142.0 L21.0 142.0 C33.0 142.0 44.0 152.0 44.0 165.0 L44.0 165.0 L31.0 165.0 C31.0 168.0 30.0 170.0 29.0 170.0 L29.0 170.0 Z"></path>
<path fill="#333333" fill-opacity="1.0"  filling="0" d="M46.0 172.0 L28.0 172.0 C23.0 172.0 19.0 168.0 19.0 163.0 L19.0 142.0 C19.0 141.0 20.0 140.0 21.0 140.0 C34.0 140.0 47.0 151.0 47.0 165.0 L47.0 165.0 C47.0 166.0 46.0 166.0 46.0 167.0 L46.0 168.0 C46.0 169.0 46.0 170.0 46.0 172.0 L46.0 172.0 Z M23.0 145.0 L23.0 163.0 C23.0 165.0 26.0 167.0 28.0 167.0 L41.0 167.0 C41.0 166.0 41.0 166.0 41.0 165.0 C41.0 154.0 32.0 145.0 23.0 145.0 L23.0 145.0 Z"></path>
<path fill="#ffffff" fill-opacity="1.0"  filling="0" d="M151.0 170.0 L172.0 170.0 C176.0 170.0 178.0 167.0 178.0 163.0 L178.0 61.0 C178.0 58.0 176.0 55.0 172.0 55.0 L151.0 55.0 C148.0 55.0 145.0 58.0 145.0 61.0 L145.0 164.0 C145.0 167.0 148.0 170.0 151.0 170.0 L151.0 170.0 Z"></path>
<path fill="#333333" fill-opacity="1.0"  filling="0" d="M172.0 172.0 L151.0 172.0 C147.0 172.0 143.0 168.0 143.0 163.0 L143.0 61.0 C143.0 57.0 147.0 53.0 151.0 53.0 L172.0 53.0 C176.0 53.0 180.0 57.0 180.0 61.0 L180.0 163.0 C180.0 168.0 176.0 172.0 172.0 172.0 L172.0 172.0 Z M151.0 58.0 C149.0 58.0 148.0 59.0 148.0 61.0 L148.0 163.0 C148.0 165.0 149.0 167.0 151.0 167.0 L172.0 167.0 C174.0 167.0 176.0 165.0 176.0 163.0 L176.0 61.0 C176.0 59.0 174.0 58.0 172.0 58.0 L151.0 58.0 L151.0 58.0 Z"></path>
<path fill="#553322" fill-opacity="1.0"  filling="0" d="M171.0 170.0 L173.0 170.0 C176.0 170.0 179.0 167.0 179.0 163.0 L179.0 142.0 L179.0 142.0 C167.0 142.0 156.0 152.0 156.0 165.0 L156.0 165.0 L169.0 165.0 C169.0 168.0 170.0 170.0 171.0 170.0 L171.0 170.0 Z"></path>
<path fill="#333333" fill-opacity="1.0"  filling="0" d="M173.0 172.0 L154.0 172.0 C153.0 172.0 152.0 171.0 152.0 170.0 C152.0 169.0 152.0 168.0 152.0 167.0 C152.0 166.0 153.0 166.0 153.0 165.0 L153.0 165.0 C153.0 151.0 166.0 140.0 179.0 140.0 C180.0 140.0 181.0 141.0 181.0 142.0 L181.0 163.0 C181.0 168.0 177.0 172.0 173.0 172.0 L173.0 172.0 Z M159.0 167.0 L173.0 167.0 C175.0 167.0 176.0 165.0 176.0 163.0 L176.0 145.0 C168.0 145.0 160.0 154.0 159.0 165.0 C159.0 166.0 159.0 166.0 159.0 167.0 L159.0 167.0 Z"></path>
<path fill="#ffffff" fill-opacity="1.0"  filling="0" d="M128.0 53.0 L72.0 53.0 C72.0 53.0 72.0 52.0 72.0 52.0 L72.0 52.0 C72.0 52.0 72.0 52.0 72.0 52.0 L128.0 52.0 C128.0 52.0 128.0 52.0 128.0 52.0 L128.0 52.0 C128.0 52.0 128.0 53.0 128.0 53.0 L128.0 53.0 Z M128.0 42.0 L72.0 42.0 C72.0 42.0 72.0 42.0 72.0 42.0 L72.0 42.0 C72.0 42.0 72.0 42.0 72.0 42.0 L128.0 42.0 C128.0 42.0 128.0 42.0 128.0 42.0 L128.0 42.0 C128.0 42.0 128.0 42.0 128.0 42.0 L128.0 42.0 Z M128.0 42.0 C128.0 42.0 128.0 42.0 128.0 42.0 L128.0 42.0 C128.0 42.0 128.0 42.0 128.0 42.0 L128.0 42.0 C128.0 42.0 128.0 42.0 128.0 42.0 L72.0 42.0 C72.0 42.0 72.0 42.0 72.0 42.0 L72.0 42.0 C72.0 42.0 72.0 42.0 72.0 42.0 L128.0 42.0 L128.0 42.0 Z M128.0 42.0 C128.0 42.0 128.0 42.0 128.0 42.0 L128.0 42.0 C128.0 42.0 128.0 42.0 128.0 42.0 L128.0 42.0 C128.0 42.0 128.0 42.0 128.0 42.0 L72.0 42.0 C72.0 42.0 72.0 42.0 72.0 42.0 L72.0 42.0 C72.0 42.0 72.0 42.0 72.0 42.0 L128.0 42.0 L128.0 42.0 Z"></path>
<path fill="#333333" fill-opacity="1.0"  filling="0" d="M117.0 58.0 L82.0 58.0 C77.0 58.0 74.0 54.0 74.0 50.0 L74.0 42.0 C74.0 35.0 79.0 30.0 86.0 30.0 L113.0 30.0 C120.0 30.0 126.0 35.0 126.0 42.0 L126.0 50.0 C126.0 54.0 122.0 58.0 117.0 58.0 L117.0 58.0 Z M86.0 38.0 C84.0 38.0 82.0 40.0 82.0 42.0 L82.0 50.0 C82.0 51.0 83.0 51.0 83.0 51.0 L116.0 51.0 C117.0 51.0 117.0 51.0 117.0 50.0 L117.0 42.0 C117.0 40.0 115.0 38.0 113.0 38.0 L86.0 38.0 L86.0 38.0 Z"></path>
<path fill="#553322" fill-opacity="1.0"  filling="0" d="M21.0 75.0 L21.0 75.0 C34.0 75.0 43.0 65.0 43.0 52.0 L43.0 52.0 L29.0 52.0 C25.0 52.0 21.0 56.0 21.0 61.0 L21.0 75.0 L21.0 75.0 Z"></path>
<path fill="#333333" fill-opacity="1.0"  filling="0" d="M24.0 77.0 L21.0 77.0 C20.0 77.0 19.0 76.0 19.0 75.0 L19.0 62.0 C19.0 55.0 24.0 50.0 29.0 50.0 L43.0 50.0 C45.0 50.0 46.0 51.0 46.0 52.0 L46.0 54.0 C46.0 67.0 36.0 77.0 24.0 77.0 L24.0 77.0 Z M24.0 72.0 L25.0 72.0 C34.0 72.0 41.0 65.0 41.0 55.0 L29.0 55.0 C27.0 55.0 24.0 58.0 24.0 61.0 L24.0 72.0 L24.0 72.0 Z"></path>
<path fill="#553322" fill-opacity="1.0"  filling="0" d="M179.0 75.0 L179.0 75.0 C166.0 75.0 156.0 65.0 156.0 52.0 L156.0 52.0 L170.0 52.0 C175.0 52.0 179.0 56.0 179.0 61.0 L179.0 75.0 L179.0 75.0 Z"></path>
<path fill="#333333" fill-opacity="1.0"  filling="0" d="M177.0 77.0 L175.0 77.0 C164.0 77.0 154.0 67.0 154.0 54.0 L154.0 52.0 C154.0 51.0 155.0 50.0 156.0 50.0 L170.0 50.0 C176.0 50.0 181.0 55.0 181.0 62.0 L181.0 75.0 C181.0 76.0 180.0 77.0 179.0 77.0 L177.0 77.0 L177.0 77.0 Z M159.0 55.0 C159.0 65.0 166.0 72.0 175.0 72.0 L176.0 72.0 L176.0 61.0 C176.0 58.0 173.0 55.0 170.0 55.0 L159.0 55.0 L159.0 55.0 Z"></path>
<path fill="#cc3322" fill-opacity="1.0"  filling="0" d="M81.0 74.0 L83.0 80.0 L91.0 81.0 C92.0 81.0 92.0 83.0 92.0 84.0 L86.0 89.0 L87.0 95.0 C87.0 96.0 86.0 97.0 85.0 96.0 L79.0 93.0 L72.0 96.0 C71.0 97.0 69.0 96.0 70.0 95.0 L72.0 87.0 L67.0 82.0 C66.0 81.0 67.0 79.0 68.0 79.0 L75.0 80.0 L79.0 73.0 C80.0 72.0 81.0 72.0 81.0 74.0 L81.0 74.0 Z"></path>
<path fill="#000000" fill-opacity="1.0"  filling="0" d="M108.0 72.0 C108.0 71.0 109.0 70.0 110.0 70.0 C110.0 70.0 111.0 71.0 112.0 71.0 C113.0 71.0 114.0 71.0 115.0 71.0 C116.0 72.0 117.0 73.0 118.0 74.0 C119.0 74.0 120.0 74.0 120.0 75.0 C121.0 75.0 122.0 75.0 122.0 76.0 C123.0 76.0 124.0 76.0 124.0 77.0 C126.0 77.0 127.0 78.0 128.0 78.0 C129.0 79.0 129.0 80.0 130.0 81.0 C130.0 82.0 131.0 83.0 132.0 84.0 C132.0 85.0 132.0 86.0 133.0 87.0 C133.0 88.0 133.0 89.0 133.0 89.0 C133.0 90.0 133.0 91.0 132.0 91.0 C131.0 91.0 131.0 90.0 130.0 90.0 C130.0 89.0 129.0 88.0 129.0 87.0 C128.0 86.0 128.0 85.0 127.0 84.0 C126.0 84.0 126.0 83.0 125.0 82.0 C124.0 82.0 123.0 81.0 122.0 81.0 C121.0 80.0 120.0 80.0 119.0 80.0 C118.0 79.0 117.0 79.0 116.0 79.0 C115.0 79.0 114.0 79.0 113.0 79.0 C112.0 79.0 111.0 79.0 110.0 79.0 C109.0 79.0 108.0 79.0 108.0 80.0 C107.0 80.0 106.0 80.0 105.0 81.0 C105.0 82.0 104.0 82.0 104.0 83.0 C103.0 83.0 103.0 84.0 102.0 84.0 C101.0 84.0 101.0 83.0 101.0 82.0 C101.0 81.0 101.0 80.0 102.0 79.0 C102.0 78.0 103.0 78.0 103.0 77.0 C104.0 76.0 105.0 76.0 106.0 75.0 C107.0 74.0 108.0 74.0 108.0 73.0 C109.0 73.0 110.0 72.0 111.0 72.0 C112.0 72.0 113.0 72.0 114.0 72.0 C115.0 72.0 116.0 73.0 117.0 73.0 C118.0 73.0 119.0 73.0 120.0 73.0 C121.0 73.0 122.0 73.0 123.0 73.0 C124.0 73.0 125.0 73.0 126.0 72.0 C127.0 72.0 128.0 72.0 129.0 72.0 C130.0 72.0 130.0 72.0 131.0 73.0 C132.0 73.0 132.0 74.0 132.0 75.0 C133.0 75.0 132.0 76.0 131.0 76.0 C130.0 76.0 129.0 77.0 128.0 77.0 C127.0 77.0 126.0 77.0 125.0 77.0 C123.0 77.0 122.0 77.0 121.0 77.0 C120.0 76.0 119.0 76.0 118.0 76.0 C117.0 76.0 116.0 76.0 115.0 76.0 C114.0 76.0 113.0 76.0 112.0 76.0 C111.0 76.0 110.0 76.0 109.0 76.0 C108.0 76.0 107.0 77.0 107.0 77.0 C106.0 78.0 105.0 78.0 105.0 79.0 C104.0 80.0 104.0 81.0 103.0 81.0"></path></svg>