<svg xmlns="http://www.w3.org/2000/svg" viewBox="0.0 0.0 200.0 200.0" height="200px" width="200px"><path fill="#ffffff" fill-opacity="1.0"  filling="0" d="M20.0 0.0 L180.0 0.0 A20.0 20.0 0.0 0 1 199.0 20.0 L199.0 180.0 A20.0 20.0 0.0 0 1 180.0 199.0 L20.0 199.0 A20.0 20.0 0.0 0 1 0.0 180.0 L0.0 20.0 A20.0 20.0 0.0 0 1 20.0 0.0 L20.0 0.0 Z"></path>
<path fill="#66aadd" fill-opacity="1.0"  filling="0" d="M199.0 45.0 L199.0 161.0 L180.0 161.0 L180.0 39.0 L199.0 39.0 L199.0 45.0 L199.0 45.0 Z"></path>
<path fill="#66aadd" fill-opacity="1.0"  filling="0" d="M180.0 39.0 L180.0 161.0 L161.0 161.0 L161.0 39.0 L180.0 39.0 L180.0 39.0 Z"></path>
<path fill="#555555" fill-opacity="1.0"  filling="0" d="M199.0 161.0 C199.0 161.0 199.0 181.0 199.0 183.0 C199.0 186.0 189.0 199.0 185.0 199.0 C182.0 199.0 170.0 161.0 170.0 161.0 L199.0 161.0 L199.0 161.0 Z"></path>
<path fill="#66aadd" fill-opacity="1.0"  filling="0" d="M180.0 76.0 L180.0 161.0 L161.0 161.0 L161.0 76.0 L180.0 76.0 L180.0 76.0 Z"></path>
<path fill="#ffcc77" fill-opacity="1.0"  filling="0" d="M199.0 39.0 L161.0 39.0 L161.0 33.0 C161.0 30.0 11.0 11.0 190.0 11.0 C198.0 11.0 199.0 30.0 199.0 33.0 L199.0 39.0 L199.0 39.0 Z"></path>
<path fill="#66aadd" fill-opacity="1.0"  filling="0" d="M180.0 76.0 L180.0 76.0 L161.0 76.0 L161.0 76.0 C161.0 70.0 170.0 39.0 180.0 39.0 L180.0 39.0 C189.0 39.0 180.0 70.0 180.0 76.0 L180.0 76.0 Z"></path>
<path fill="#ffddaa" fill-opacity="1.0"  filling="0" d="M199.0 33.0 C199.0 30.0 198.0 11.0 191.0 1.0 C189.0 0.0 199.0 30.0 199.0 33.0 L199.0 33.0 L199.0 33.0 Z"></path>
<path fill="#aaaaaa" fill-opacity="1.0"  filling="0" d="M88.0 25.0 L59.0 25.0 C56.0 25.0 54.0 27.0 53.0 30.0 C53.0 30.0 53.0 30.0 53.0 30.0 C53.0 32.0 54.0 34.0 55.0 35.0 C56.0 37.0 58.0 38.0 59.0 38.0 L88.0 38.0 C91.0 38.0 94.0 36.0 94.0 33.0 C94.0 29.0 91.0 25.0 88.0 25.0 L88.0 25.0 Z"></path>
<path fill="#bbbbbb" fill-opacity="1.0"  filling="0" d="M88.0 28.0 L59.0 28.0 C56.0 28.0 54.0 30.0 53.0 33.0 C53.0 33.0 53.0 33.0 53.0 33.0 C53.0 35.0 54.0 37.0 55.0 38.0 C56.0 40.0 58.0 40.0 59.0 40.0 L88.0 40.0 C91.0 40.0 94.0 38.0 94.0 35.0 C94.0 31.0 91.0 28.0 88.0 28.0 L88.0 28.0 Z"></path>
<path fill="#999999" fill-opacity="1.0"  filling="0" d="M88.0 28.0 L74.0 28.0 L74.0 40.0 L88.0 40.0 C91.0 40.0 94.0 38.0 94.0 35.0 C94.0 31.0 91.0 28.0 88.0 28.0 L88.0 28.0 Z"></path>
<path fill="#aaaaaa" fill-opacity="1.0"  filling="0" d="M84.0 52.0 L33.0 52.0 C30.0 52.0 28.0 54.0 27.0 57.0 C27.0 57.0 27.0 57.0 27.0 57.0 C27.0 59.0 27.0 61.0 28.0 62.0 C29.0 64.0 31.0 65.0 33.0 65.0 L84.0 65.0 C87.0 65.0 90.0 62.0 90.0 59.0 C90.0 55.0 87.0 52.0 84.0 52.0 L84.0 52.0 Z"></path>
<path fill="#bbbbbb" fill-opacity="1.0"  filling="0" d="M84.0 55.0 L33.0 55.0 C30.0 55.0 28.0 57.0 27.0 59.0 C27.0 59.0 27.0 59.0 27.0 59.0 C27.0 61.0 27.0 63.0 28.0 65.0 C29.0 67.0 31.0 67.0 33.0 67.0 L84.0 67.0 C87.0 67.0 90.0 65.0 90.0 61.0 C90.0 57.0 87.0 55.0 84.0 55.0 L84.0 55.0 Z"></path>
<path fill="#999999" fill-opacity="1.0"  filling="0" d="M84.0 55.0 L74.0 55.0 L74.0 67.0 L84.0 67.0 C87.0 67.0 90.0 65.0 90.0 61.0 C90.0 57.0 87.0 55.0 84.0 55.0 L84.0 55.0 Z"></path>
<path fill="#aaaaaa" fill-opacity="1.0"  filling="0" d="M116.0 78.0 L84.0 78.0 C82.0 78.0 79.0 80.0 78.0 83.0 C78.0 83.0 78.0 83.0 78.0 83.0 C78.0 85.0 78.0 87.0 79.0 88.0 C80.0 90.0 82.0 91.0 84.0 91.0 L116.0 91.0 C119.0 91.0 122.0 88.0 122.0 85.0 C122.0 81.0 119.0 78.0 116.0 78.0 L116.0 78.0 Z"></path>
<path fill="#bbbbbb" fill-opacity="1.0"  filling="0" d="M116.0 82.0 L84.0 82.0 C82.0 82.0 79.0 84.0 78.0 86.0 C78.0 86.0 78.0 86.0 78.0 86.0 C78.0 87.0 78.0 90.0 79.0 91.0 C80.0 93.0 82.0 94.0 84.0 94.0 L116.0 94.0 C119.0 94.0 122.0 91.0 122.0 87.0 C122.0 84.0 119.0 82.0 116.0 82.0 L116.0 82.0 Z"></path>
<path fill="#999999" fill-opacity="1.0"  filling="0" d="M116.0 82.0 L105.0 82.0 L105.0 94.0 L116.0 94.0 C119.0 94.0 122.0 91.0 122.0 87.0 C122.0 84.0 119.0 82.0 116.0 82.0 L116.0 82.0 Z"></path>
<path fill="#aaaaaa" fill-opacity="1.0"  filling="0" d="M116.0 104.0 L33.0 104.0 C30.0 104.0 28.0 106.0 27.0 109.0 C27.0 109.0 27.0 109.0 27.0 109.0 C27.0 111.0 27.0 113.0 28.0 114.0 C29.0 116.0 31.0 117.0 33.0 117.0 L116.0 117.0 C119.0 117.0 122.0 115.0 122.0 111.0 C122.0 107.0 119.0 104.0 116.0 104.0 L116.0 104.0 Z"></path>
<path fill="#bbbbbb" fill-opacity="1.0"  filling="0" d="M116.0 109.0 L34.0 109.0 C30.0 109.0 28.0 111.0 27.0 114.0 C27.0 114.0 27.0 114.0 27.0 114.0 C27.0 115.0 27.0 117.0 28.0 118.0 C29.0 120.0 31.0 121.0 33.0 121.0 L116.0 121.0 C119.0 121.0 122.0 118.0 122.0 115.0 C122.0 112.0 119.0 109.0 116.0 109.0 L116.0 109.0 Z"></path>
<path fill="#999999" fill-opacity="1.0"  filling="0" d="M116.0 109.0 L105.0 109.0 L105.0 121.0 L116.0 121.0 C119.0 121.0 122.0 118.0 122.0 115.0 C122.0 112.0 119.0 109.0 116.0 109.0 L116.0 109.0 Z"></path>
<path fill="#aaaaaa" fill-opacity="1.0"  filling="0" d="M116.0 130.0 L93.0 130.0 C90.0 130.0 88.0 132.0 87.0 134.0 C87.0 135.0 87.0 135.0 87.0 135.0 C87.0 137.0 87.0 139.0 88.0 140.0 C89.0 142.0 91.0 143.0 93.0 143.0 L116.0 143.0 C119.0 143.0 122.0 141.0 122.0 137.0 C122.0 133.0 119.0 130.0 116.0 130.0 L116.0 130.0 Z"></path>
<path fill="#bbbbbb" fill-opacity="1.0"  filling="0" d="M116.0 134.0 L93.0 134.0 C90.0 134.0 88.0 136.0 87.0 138.0 C87.0 138.0 87.0 138.0 87.0 138.0 C87.0 140.0 87.0 142.0 88.0 143.0 C89.0 145.0 91.0 146.0 93.0 146.0 L116.0 146.0 C119.0 146.0 122.0 143.0 122.0 140.0 C122.0 136.0 119.0 134.0 116.0 134.0 L116.0 134.0 Z"></path>
<path fill="#999999" fill-opacity="1.0"  filling="0" d="M116.0 134.0 L105.0 134.0 L105.0 146.0 L116.0 146.0 C119.0 146.0 122.0 143.0 122.0 140.0 C122.0 136.0 119.0 134.0 116.0 134.0 L116.0 134.0 Z"></path>
<path fill="#aaaaaa" fill-opacity="1.0"  filling="0" d="M116.0 156.0 L33.0 156.0 C30.0 156.0 28.0 157.0 27.0 160.0 C27.0 161.0 27.0 161.0 27.0 161.0 C27.0 162.0 27.0 164.0 28.0 166.0 C29.0 168.0 31.0 169.0 33.0 169.0 L116.0 169.0 C119.0 169.0 122.0 166.0 122.0 163.0 C122.0 159.0 119.0 156.0 116.0 156.0 L116.0 156.0 Z"></path>
<path fill="#bbbbbb" fill-opacity="1.0"  filling="0" d="M116.0 161.0 L33.0 161.0 C30.0 161.0 28.0 163.0 27.0 166.0 C27.0 166.0 27.0 166.0 27.0 166.0 C27.0 167.0 27.0 169.0 28.0 170.0 C29.0 172.0 31.0 172.0 33.0 172.0 L116.0 172.0 C119.0 172.0 122.0 169.0 122.0 166.0 C122.0 163.0 119.0 161.0 116.0 161.0 L116.0 161.0 Z"></path>
<path fill="#999999" fill-opacity="1.0"  filling="0" d="M116.0 161.0 L105.0 161.0 L105.0 172.0 L116.0 172.0 C119.0 172.0 122.0 169.0 122.0 166.0 C122.0 163.0 119.0 161.0 116.0 161.0 L116.0 161.0 Z"></path>
<path fill="#aaaaaa" fill-opacity="1.0"  filling="0" d="M59.0 78.0 L33.0 78.0 C30.0 78.0 28.0 80.0 27.0 83.0 C27.0 83.0 27.0 83.0 27.0 83.0 C27.0 85.0 27.0 87.0 28.0 88.0 C29.0 90.0 31.0 91.0 33.0 91.0 L59.0 91.0 C62.0 91.0 65.0 88.0 65.0 85.0 C65.0 81.0 62.0 78.0 59.0 78.0 L59.0 78.0 Z"></path>
<path fill="#bbbbbb" fill-opacity="1.0"  filling="0" d="M59.0 82.0 L33.0 82.0 C30.0 82.0 28.0 84.0 27.0 86.0 C27.0 86.0 27.0 86.0 27.0 86.0 C27.0 87.0 27.0 90.0 28.0 91.0 C29.0 93.0 31.0 94.0 33.0 94.0 L59.0 94.0 C62.0 94.0 65.0 91.0 65.0 87.0 C65.0 84.0 62.0 82.0 59.0 82.0 L59.0 82.0 Z"></path>
<path fill="#999999" fill-opacity="1.0"  filling="0" d="M59.0 82.0 L48.0 82.0 L48.0 94.0 L59.0 94.0 C62.0 94.0 65.0 91.0 65.0 87.0 C65.0 84.0 62.0 82.0 59.0 82.0 L59.0 82.0 Z"></path>
<path fill="#aaaaaa" fill-opacity="1.0"  filling="0" d="M67.0 130.0 L33.0 130.0 C30.0 130.0 28.0 132.0 27.0 134.0 C27.0 135.0 27.0 135.0 27.0 135.0 C27.0 137.0 27.0 139.0 28.0 140.0 C29.0 142.0 31.0 143.0 33.0 143.0 L67.0 143.0 C71.0 143.0 74.0 141.0 74.0 137.0 C74.0 133.0 71.0 130.0 67.0 130.0 L67.0 130.0 Z"></path>
<path fill="#bbbbbb" fill-opacity="1.0"  filling="0" d="M67.0 134.0 L33.0 134.0 C30.0 134.0 28.0 136.0 27.0 138.0 C27.0 138.0 27.0 138.0 27.0 138.0 C27.0 140.0 27.0 142.0 28.0 143.0 C29.0 145.0 31.0 146.0 33.0 146.0 L67.0 146.0 C71.0 146.0 74.0 143.0 74.0 140.0 C74.0 136.0 71.0 134.0 67.0 134.0 L67.0 134.0 Z"></path>
<path fill="#999999" fill-opacity="1.0"  filling="0" d="M67.0 134.0 L55.0 134.0 L55.0 146.0 L67.0 146.0 C71.0 146.0 74.0 143.0 74.0 140.0 C74.0 136.0 71.0 134.0 67.0 134.0 L67.0 134.0 Z"></path></svg>