<svg xmlns="http://www.w3.org/2000/svg" viewBox="0.0 0.0 200.0 200.0" height="200px" width="200px"><path fill="#ffffff" fill-opacity="1.0"  filling="0" d="M20.0 0.0 L180.0 0.0 A20.0 20.0 0.0 0 1 199.0 20.0 L199.0 180.0 A20.0 20.0 0.0 0 1 180.0 199.0 L20.0 199.0 A20.0 20.0 0.0 0 1 0.0 180.0 L0.0 20.0 A20.0 20.0 0.0 0 1 20.0 0.0 L20.0 0.0 Z"></path>
<path fill="#9999aa" fill-opacity="1.0"  filling="0" d="M57.0 55.0 C55.0 55.0 54.0 54.0 54.0 53.0 C54.0 52.0 55.0 51.0 57.0 51.0 L111.0 51.0 C112.0 51.0 113.0 52.0 113.0 53.0 C113.0 54.0 112.0 55.0 111.0 55.0 L57.0 55.0 L57.0 55.0 Z M57.0 71.0 C55.0 71.0 54.0 70.0 54.0 69.0 C54.0 67.0 55.0 66.0 57.0 66.0 L111.0 66.0 C112.0 66.0 113.0 67.0 113.0 69.0 C113.0 70.0 112.0 71.0 111.0 71.0 L57.0 71.0 L57.0 71.0 Z M57.0 89.0 C55.0 89.0 54.0 88.0 54.0 87.0 C54.0 86.0 55.0 85.0 57.0 85.0 L111.0 85.0 C112.0 85.0 113.0 86.0 113.0 87.0 C113.0 88.0 112.0 89.0 111.0 89.0 L57.0 89.0 L57.0 89.0 Z M57.0 108.0 C55.0 108.0 54.0 107.0 54.0 106.0 C54.0 105.0 55.0 104.0 57.0 104.0 L111.0 104.0 C112.0 104.0 113.0 105.0 113.0 106.0 C113.0 107.0 112.0 108.0 111.0 108.0 L57.0 108.0 L57.0 108.0 Z M57.0 125.0 C55.0 125.0 54.0 124.0 54.0 123.0 C54.0 122.0 55.0 121.0 57.0 121.0 L111.0 121.0 C112.0 121.0 113.0 122.0 113.0 123.0 C113.0 124.0 112.0 125.0 111.0 125.0 L57.0 125.0 L57.0 125.0 Z M57.0 141.0 C55.0 141.0 54.0 140.0 54.0 139.0 C54.0 138.0 55.0 137.0 57.0 137.0 L111.0 137.0 C112.0 137.0 113.0 138.0 113.0 139.0 C113.0 140.0 112.0 141.0 111.0 141.0 L57.0 141.0 L57.0 141.0 Z M57.0 44.0 C55.0 44.0 54.0 43.0 54.0 41.0 C54.0 40.0 55.0 39.0 57.0 39.0 L111.0 39.0 C112.0 39.0 113.0 40.0 113.0 41.0 C113.0 43.0 112.0 44.0 111.0 44.0 L57.0 44.0 L57.0 44.0 Z"></path>
<path fill="#66bbee" fill-opacity="1.0"  filling="0" d="M39.0 39.0 L199.0 161.0 L199.0 161.0 L0.0 161.0 L0.0 161.0 L39.0 39.0 L39.0 39.0 L39.0 39.0 Z"></path>
<path fill="#66bbee" fill-opacity="1.0"  filling="0" d="M161.0 161.0 L199.0 161.0 L199.0 161.0 L199.0 161.0 L199.0 161.0 L161.0 39.0 L161.0 39.0 L161.0 39.0 L161.0 161.0 L161.0 161.0 L161.0 161.0 L161.0 161.0 Z"></path>
<path fill="#ffffff" fill-opacity="1.0"  filling="0" d="M161.0 39.0 L199.0 161.0 L199.0 161.0 L161.0 39.0 L161.0 39.0 L161.0 39.0 Z"></path>
<path fill="#ffffff" fill-opacity="1.0"  filling="0" d="M199.0 161.0 L199.0 161.0 L162.0 161.0 L162.0 161.0 L199.0 161.0 L199.0 161.0 Z"></path>
<path fill="#ffffff" fill-opacity="1.0"  filling="0" d="M0.0 39.0 L39.0 39.0 L39.0 39.0 L0.0 161.0 L0.0 161.0 L0.0 39.0 L0.0 39.0 Z"></path>
<path fill="#ffffff" fill-opacity="1.0"  filling="0" d="M39.0 39.0 L39.0 39.0 L39.0 39.0 L39.0 39.0 L39.0 39.0 L39.0 39.0 Z"></path>
<path fill="#555555" fill-opacity="1.0"  filling="0" d="M88.0 161.0 L188.0 161.0 L188.0 199.0 L88.0 199.0 L88.0 161.0 L88.0 161.0 Z"></path>
<path fill="#555555" fill-opacity="1.0"  filling="0" d="M112.0 161.0 L188.0 161.0 L188.0 199.0 L112.0 199.0 L112.0 161.0 L112.0 161.0 Z"></path>
<path fill="#555555" fill-opacity="1.0"  filling="0" d="M88.0 199.0 L88.0 161.0 L112.0 161.0 L112.0 199.0 L88.0 199.0 L88.0 199.0 Z"></path>
<path fill="#9999aa" fill-opacity="1.0"  filling="0" d="M88.0 25.0 C86.0 25.0 85.0 26.0 85.0 28.0 C85.0 29.0 86.0 30.0 88.0 30.0 L151.0 30.0 C153.0 30.0 154.0 29.0 154.0 28.0 C154.0 26.0 153.0 25.0 151.0 25.0 L88.0 25.0 L88.0 25.0 Z M88.0 39.0 C86.0 39.0 85.0 40.0 85.0 42.0 C85.0 43.0 86.0 44.0 88.0 44.0 L151.0 44.0 C153.0 44.0 154.0 43.0 154.0 42.0 C154.0 40.0 153.0 39.0 151.0 39.0 L88.0 39.0 L88.0 39.0 Z M88.0 54.0 C86.0 54.0 85.0 55.0 85.0 56.0 C85.0 58.0 86.0 59.0 88.0 59.0 L151.0 59.0 C153.0 59.0 154.0 58.0 154.0 56.0 C154.0 55.0 153.0 54.0 151.0 54.0 L88.0 54.0 L88.0 54.0 Z M88.0 66.0 C86.0 66.0 85.0 67.0 85.0 69.0 C85.0 70.0 86.0 71.0 88.0 71.0 L151.0 71.0 C153.0 71.0 154.0 70.0 154.0 69.0 C154.0 67.0 153.0 66.0 151.0 66.0 L88.0 66.0 L88.0 66.0 Z M88.0 82.0 C86.0 82.0 85.0 83.0 85.0 85.0 C85.0 86.0 86.0 87.0 88.0 87.0 L151.0 87.0 C153.0 87.0 154.0 86.0 154.0 85.0 C154.0 83.0 153.0 82.0 151.0 82.0 L88.0 82.0 L88.0 82.0 Z M88.0 96.0 C86.0 96.0 85.0 98.0 85.0 99.0 C85.0 101.0 86.0 102.0 88.0 102.0 L151.0 102.0 C153.0 102.0 154.0 101.0 154.0 99.0 C154.0 98.0 153.0 96.0 151.0 96.0 L88.0 96.0 L88.0 96.0 Z M88.0 113.0 C86.0 113.0 85.0 114.0 85.0 115.0 C85.0 117.0 86.0 118.0 88.0 118.0 L151.0 118.0 C153.0 118.0 154.0 117.0 154.0 115.0 C154.0 114.0 153.0 113.0 151.0 113.0 L88.0 113.0 L88.0 113.0 Z M88.0 129.0 C86.0 129.0 85.0 130.0 85.0 131.0 C85.0 133.0 86.0 134.0 88.0 134.0 L151.0 134.0 C153.0 134.0 154.0 133.0 154.0 131.0 C154.0 130.0 153.0 129.0 151.0 129.0 L88.0 129.0 L88.0 129.0 Z M88.0 141.0 C86.0 141.0 85.0 142.0 85.0 144.0 C85.0 145.0 86.0 146.0 88.0 146.0 L151.0 146.0 C153.0 146.0 154.0 145.0 154.0 144.0 C154.0 142.0 153.0 141.0 151.0 141.0 L88.0 141.0 L88.0 141.0 Z M88.0 156.0 C86.0 156.0 85.0 157.0 85.0 158.0 C85.0 160.0 86.0 161.0 88.0 161.0 L151.0 161.0 C153.0 161.0 154.0 160.0 154.0 158.0 C154.0 157.0 153.0 156.0 151.0 156.0 L88.0 156.0 L88.0 156.0 Z"></path>
<path fill="#999999" fill-opacity="1.0"  filling="0" d="M39.0 161.0 L88.0 161.0 L88.0 199.0 L39.0 199.0 L39.0 161.0 L39.0 161.0 Z"></path>
<path fill="#999999" fill-opacity="1.0"  filling="0" d="M0.0 161.0 L39.0 161.0 L39.0 199.0 L0.0 199.0 L0.0 161.0 L0.0 161.0 Z"></path>
<path fill="#999999" fill-opacity="1.0"  filling="0" d="M58.0 42.0 C56.0 42.0 54.0 40.0 54.0 37.0 C54.0 35.0 56.0 33.0 58.0 33.0 L89.0 33.0 C91.0 33.0 93.0 35.0 93.0 37.0 C93.0 40.0 91.0 42.0 89.0 42.0 L58.0 42.0 L58.0 42.0 Z"></path>
<path fill="#999999" fill-opacity="1.0"  filling="0" d="M58.0 26.0 C56.0 26.0 54.0 28.0 54.0 30.0 C54.0 32.0 56.0 34.0 58.0 34.0 L89.0 34.0 C91.0 34.0 93.0 32.0 93.0 30.0 C93.0 28.0 91.0 26.0 89.0 26.0 L58.0 26.0 L58.0 26.0 Z"></path>
<path fill="#999999" fill-opacity="1.0"  filling="0" d="M58.0 39.0 C56.0 39.0 54.0 37.0 54.0 34.0 C54.0 32.0 56.0 30.0 58.0 30.0 L89.0 30.0 C91.0 30.0 93.0 32.0 93.0 34.0 C93.0 37.0 91.0 39.0 89.0 39.0 L58.0 39.0 L58.0 39.0 Z"></path>
<path fill="#999999" fill-opacity="1.0"  filling="0" d="M33.0 65.0 C31.0 65.0 29.0 63.0 29.0 61.0 C29.0 58.0 31.0 56.0 33.0 56.0 L117.0 56.0 C119.0 56.0 121.0 58.0 121.0 61.0 C121.0 63.0 119.0 65.0 117.0 65.0 L33.0 65.0 L33.0 65.0 Z"></path>
<path fill="#999999" fill-opacity="1.0"  filling="0" d="M33.0 52.0 C31.0 52.0 29.0 54.0 29.0 56.0 C29.0 58.0 31.0 60.0 33.0 60.0 L117.0 60.0 C119.0 60.0 121.0 58.0 121.0 56.0 C121.0 54.0 119.0 52.0 117.0 52.0 L33.0 52.0 L33.0 52.0 Z"></path>
<path fill="#999999" fill-opacity="1.0"  filling="0" d="M33.0 65.0 C31.0 65.0 29.0 67.0 29.0 69.0 C29.0 71.0 31.0 73.0 33.0 73.0 L117.0 73.0 C119.0 73.0 121.0 71.0 121.0 69.0 C121.0 67.0 119.0 65.0 117.0 65.0 L33.0 65.0 L33.0 65.0 Z"></path>
<path fill="#999999" fill-opacity="1.0"  filling="0" d="M33.0 92.0 C31.0 92.0 29.0 90.0 29.0 87.0 C29.0 84.0 31.0 82.0 33.0 82.0 L58.0 82.0 C61.0 82.0 63.0 84.0 63.0 87.0 C63.0 90.0 61.0 92.0 58.0 92.0 L33.0 92.0 L33.0 92.0 Z"></path>
<path fill="#999999" fill-opacity="1.0"  filling="0" d="M33.0 78.0 C31.0 78.0 29.0 80.0 29.0 82.0 C29.0 84.0 31.0 86.0 33.0 86.0 L58.0 86.0 C61.0 86.0 63.0 84.0 63.0 82.0 C63.0 80.0 61.0 78.0 58.0 78.0 L33.0 78.0 L33.0 78.0 Z"></path>
<path fill="#999999" fill-opacity="1.0"  filling="0" d="M33.0 92.0 C31.0 92.0 29.0 94.0 29.0 96.0 C29.0 98.0 31.0 100.0 33.0 100.0 L58.0 100.0 C61.0 100.0 63.0 98.0 63.0 96.0 C63.0 94.0 61.0 92.0 58.0 92.0 L33.0 92.0 L33.0 92.0 Z"></path>
<path fill="#999999" fill-opacity="1.0"  filling="0" d="M33.0 117.0 C31.0 117.0 29.0 115.0 29.0 113.0 C29.0 110.0 31.0 108.0 33.0 108.0 L117.0 108.0 C119.0 108.0 121.0 110.0 121.0 113.0 C121.0 115.0 119.0 117.0 117.0 117.0 L33.0 117.0 L33.0 117.0 Z"></path>
<path fill="#999999" fill-opacity="1.0"  filling="0" d="M33.0 104.0 C31.0 104.0 29.0 106.0 29.0 108.0 C29.0 111.0 31.0 113.0 33.0 113.0 L117.0 113.0 C119.0 113.0 121.0 111.0 121.0 108.0 C121.0 106.0 119.0 104.0 117.0 104.0 L33.0 104.0 L33.0 104.0 Z"></path>
<path fill="#999999" fill-opacity="1.0"  filling="0" d="M33.0 117.0 C31.0 117.0 29.0 119.0 29.0 121.0 C29.0 123.0 31.0 125.0 33.0 125.0 L117.0 125.0 C119.0 125.0 121.0 123.0 121.0 121.0 C121.0 119.0 119.0 117.0 117.0 117.0 L33.0 117.0 L33.0 117.0 Z"></path>
<path fill="#999999" fill-opacity="1.0"  filling="0" d="M33.0 144.0 C31.0 144.0 29.0 142.0 29.0 139.0 C29.0 137.0 31.0 135.0 33.0 135.0 L67.0 135.0 C69.0 135.0 71.0 137.0 71.0 139.0 C71.0 142.0 69.0 144.0 67.0 144.0 L33.0 144.0 L33.0 144.0 Z"></path>
<path fill="#999999" fill-opacity="1.0"  filling="0" d="M33.0 130.0 C31.0 130.0 29.0 131.0 29.0 134.0 C29.0 136.0 31.0 138.0 33.0 138.0 L67.0 138.0 C69.0 138.0 71.0 136.0 71.0 134.0 C71.0 131.0 69.0 130.0 67.0 130.0 L33.0 130.0 L33.0 130.0 Z"></path>
<path fill="#999999" fill-opacity="1.0"  filling="0" d="M33.0 144.0 C31.0 144.0 29.0 146.0 29.0 148.0 C29.0 150.0 31.0 152.0 33.0 152.0 L67.0 152.0 C69.0 152.0 71.0 150.0 71.0 148.0 C71.0 146.0 69.0 144.0 67.0 144.0 L33.0 144.0 L33.0 144.0 Z"></path>
<path fill="#999999" fill-opacity="1.0"  filling="0" d="M33.0 170.0 C31.0 170.0 29.0 168.0 29.0 165.0 C29.0 163.0 31.0 161.0 33.0 161.0 L117.0 161.0 C119.0 161.0 121.0 163.0 121.0 165.0 C121.0 168.0 119.0 170.0 117.0 170.0 L33.0 170.0 L33.0 170.0 Z"></path>
<path fill="#999999" fill-opacity="1.0"  filling="0" d="M33.0 156.0 C31.0 156.0 29.0 157.0 29.0 160.0 C29.0 162.0 31.0 164.0 33.0 164.0 L117.0 164.0 C119.0 164.0 121.0 162.0 121.0 160.0 C121.0 157.0 119.0 156.0 117.0 156.0 L33.0 156.0 L33.0 156.0 Z"></path>
<path fill="#999999" fill-opacity="1.0"  filling="0" d="M33.0 170.0 C31.0 170.0 29.0 172.0 29.0 174.0 C29.0 177.0 31.0 179.0 33.0 179.0 L117.0 179.0 C119.0 179.0 121.0 177.0 121.0 174.0 C121.0 172.0 119.0 170.0 117.0 170.0 L33.0 170.0 L33.0 170.0 Z"></path>
<path fill="#dddddd" fill-opacity="1.0"  filling="0" d="M21.0 199.0 C16.0 199.0 10.0 197.0 6.0 193.0 C3.0 188.0 1.0 182.0 0.0 176.0 L0.0 176.0 C1.0 182.0 3.0 188.0 6.0 193.0 C10.0 197.0 16.0 199.0 21.0 199.0 L21.0 199.0 L21.0 199.0 Z"></path>
<path fill="#dddddd" fill-opacity="1.0"  filling="0" d="M7.0 176.0 C7.0 182.0 9.0 188.0 13.0 193.0 C17.0 197.0 22.0 199.0 28.0 199.0 L28.0 199.0 C22.0 199.0 17.0 197.0 13.0 193.0 C9.0 188.0 7.0 182.0 7.0 176.0 L7.0 176.0 L7.0 176.0 Z"></path>
<path fill="#dddddd" fill-opacity="1.0"  filling="0" d="M13.0 176.0 C13.0 182.0 15.0 188.0 19.0 193.0 C23.0 197.0 29.0 199.0 35.0 199.0 L35.0 199.0 C29.0 199.0 23.0 197.0 19.0 193.0 C16.0 188.0 13.0 182.0 13.0 176.0 L13.0 176.0 L13.0 176.0 Z"></path></svg>