<svg xmlns="http://www.w3.org/2000/svg" viewBox="0.0 0.0 200.0 200.0" height="200px" width="200px"><path fill="#ffffff" fill-opacity="1.0"  filling="0" d="M20.0 0.0 L180.0 0.0 A20.0 20.0 0.0 0 1 199.0 20.0 L199.0 180.0 A20.0 20.0 0.0 0 1 180.0 199.0 L20.0 199.0 A20.0 20.0 0.0 0 1 0.0 180.0 L0.0 20.0 A20.0 20.0 0.0 0 1 20.0 0.0 L20.0 0.0 Z"></path>
<path fill="#bbbbbb" fill-opacity="1.0"  filling="0" d="M180.0 76.0 L180.0 199.0 L20.0 199.0 C14.0 199.0 9.0 199.0 5.0 195.0 C1.0 191.0 0.0 186.0 0.0 181.0 L0.0 76.0 L180.0 76.0 L180.0 76.0 Z"></path>
<path fill="#999999" fill-opacity="1.0"  filling="0" d="M0.0 76.0 L0.0 76.0 L0.0 76.0 L0.0 76.0 L0.0 76.0 Z M180.0 76.0 L180.0 76.0 L180.0 76.0 L180.0 76.0 L180.0 76.0 Z"></path>
<path fill="#999999" fill-opacity="1.0"  filling="0" d="M20.0 199.0 L20.0 199.0 L20.0 199.0 L20.0 199.0 L20.0 199.0 Z M180.0 199.0 L180.0 199.0 L180.0 199.0 L180.0 199.0 L180.0 199.0 Z"></path>
<path fill="#888888" fill-opacity="1.0"  filling="0" d="M167.0 83.0 L33.0 83.0 C30.0 83.0 28.0 85.0 28.0 87.0 L28.0 161.0 C28.0 164.0 30.0 166.0 33.0 166.0 L167.0 166.0 C170.0 166.0 172.0 164.0 172.0 161.0 L172.0 87.0 C172.0 85.0 170.0 83.0 167.0 83.0 L167.0 83.0 Z"></path>
<path fill="#000000" fill-opacity="1.0"  filling="0" d="M101.0 105.0 L32.0 105.0 C30.0 105.0 28.0 107.0 28.0 109.0 L28.0 137.0 C28.0 139.0 30.0 141.0 32.0 141.0 L101.0 141.0 C103.0 141.0 105.0 139.0 105.0 137.0 L105.0 109.0 C105.0 107.0 103.0 105.0 101.0 105.0 L101.0 105.0 Z M101.0 134.0 L32.0 134.0 L32.0 111.0 L101.0 111.0 L101.0 134.0 L101.0 134.0 Z M101.0 134.0 L32.0 134.0 L32.0 132.0 L101.0 132.0 L101.0 134.0 L101.0 134.0 Z M101.0 124.0 L32.0 124.0 L32.0 121.0 L101.0 121.0 L101.0 124.0 L101.0 124.0 Z M101.0 118.0 L32.0 118.0 L32.0 115.0 L101.0 115.0 L101.0 118.0 L101.0 118.0 Z M118.0 140.0 L32.0 140.0 C30.0 140.0 28.0 141.0 28.0 144.0 L28.0 162.0 C28.0 164.0 30.0 166.0 32.0 166.0 L118.0 166.0 C120.0 166.0 122.0 164.0 122.0 162.0 L122.0 144.0 C122.0 141.0 120.0 140.0 118.0 140.0 L118.0 140.0 Z M118.0 161.0 L32.0 161.0 L32.0 144.0 L118.0 144.0 L118.0 161.0 L118.0 161.0 Z M118.0 161.0 L32.0 161.0 L32.0 159.0 L118.0 159.0 L118.0 161.0 L118.0 161.0 Z M118.0 150.0 L32.0 150.0 L32.0 147.0 L118.0 147.0 L118.0 150.0 L118.0 150.0 Z M118.0 104.0 L32.0 104.0 C30.0 104.0 28.0 106.0 28.0 108.0 L28.0 135.0 C28.0 137.0 30.0 139.0 32.0 139.0 L118.0 139.0 C120.0 139.0 122.0 137.0 122.0 135.0 L122.0 108.0 C122.0 106.0 120.0 104.0 118.0 104.0 L118.0 104.0 Z M118.0 134.0 L32.0 134.0 L32.0 108.0 L118.0 108.0 L118.0 134.0 L118.0 134.0 Z M118.0 116.0 L32.0 116.0 L32.0 114.0 L118.0 114.0 L118.0 116.0 L118.0 116.0 Z M118.0 123.0 L32.0 123.0 L32.0 120.0 L118.0 120.0 L118.0 123.0 L118.0 123.0 Z M118.0 140.0 L32.0 140.0 C30.0 140.0 28.0 141.0 28.0 144.0 L28.0 162.0 C28.0 164.0 30.0 166.0 32.0 166.0 L118.0 166.0 C120.0 166.0 122.0 164.0 122.0 162.0 L122.0 144.0 C122.0 141.0 120.0 140.0 118.0 140.0 L118.0 140.0 Z M118.0 161.0 L32.0 161.0 L32.0 144.0 L118.0 144.0 L118.0 161.0 L118.0 161.0 Z M118.0 161.0 L32.0 161.0 L32.0 159.0 L118.0 159.0 L118.0 161.0 L118.0 161.0 Z M118.0 150.0 L32.0 150.0 L32.0 147.0 L118.0 147.0 L118.0 150.0 L118.0 150.0 Z M118.0 104.0 L32.0 104.0 C30.0 104.0 28.0 106.0 28.0 108.0 L28.0 135.0 C28.0 137.0 30.0 139.0 32.0 139.0 L118.0 139.0 C120.0 139.0 122.0 137.0 122.0 135.0 L122.0 108.0 C122.0 106.0 120.0 104.0 118.0 104.0 L118.0 104.0 Z M118.0 134.0 L32.0 134.0 L32.0 108.0 L118.0 108.0 L118.0 134.0 L118.0 134.0 Z M118.0 116.0 L32.0 116.0 L32.0 114.0 L118.0 114.0 L118.0 116.0 L118.0 116.0 Z M118.0 123.0 L32.0 123.0 L32.0 120.0 L118.0 120.0 L118.0 123.0 L118.0 123.0 Z M118.0 140.0 L32.0 140.0 C30.0 140.0 28.0 141.0 28.0 144.0 L28.0 162.0 C28.0 164.0 30.0 166.0 32.0 166.0 L118.0 166.0 C120.0 166.0 122.0 164.0 122.0 162.0 L122.0 144.0 C122.0 141.0 120.0 140.0 118.0 140.0 L118.0 140.0 Z M118.0 161.0 L32.0 161.0 L32.0 144.0 L118.0 144.0 L118.0 161.0 L118.0 161.0 Z M118.0 161.0 L32.0 161.0 L32.0 159.0 L118.0 159.0 L118.0 161.0 L118.0 161.0 Z M118.0 150.0 L32.0 150.0 L32.0 147.0 L118.0 147.0 L118.0 150.0 L118.0 150.0 Z M118.0 104.0 L32.0 104.0 C30.0 104.0 28.0 106.0 28.0 108.0 L28.0 135.0 C28.0 137.0 30.0 139.0 32.0 139.0 L118.0 139.0 C120.0 139.0 122.0 137.0 122.0 135.0 L122.0 108.0 C122.0 106.0 120.0 104.0 118.0 104.0 L118.0 104.0 Z M118.0 134.0 L32.0 134.0 L32.0 108.0 L118.0 108.0 L118.0 134.0 L118.0 134.0 Z M118.0 116.0 L32.0 116.0 L32.0 114.0 L118.0 114.0 L118.0 116.0 L118.0 116.0 Z M118.0 123.0 L32.0 123.0 L32.0 120.0 L118.0 120.0 L118.0 123.0 L118.0 123.0 Z M118.0 140.0 L32.0 140.0 C30.0 140.0 28.0 141.0 28.0 144.0 L28.0 162.0 C28.0 164.0 30.0 166.0 32.0 166.0 L118.0 166.0 C120.0 166.0 122.0 164.0 122.0 162.0 L122.0 144.0 C122.0 141.0 120.0 140.0 118.0 140.0 L118.0 140.0 Z M118.0 161.0 L32.0 161.0 L32.0 144.0 L118.0 144.0 L118.0 161.0 L118.0 161.0 Z M118.0 161.0 L32.0 161.0 L32.0 159.0 L118.0 159.0 L118.0 161.0 L118.0 161.0 Z M118.0 150.0 L32.0 150.0 L32.0 147.0 L118.0 147.0 L118.0 150.0 L118.0 150.0 Z M118.0 104.0 L32.0 104.0 C30.0 104.0 28.0 106.0 28.0 108.0 L28.0 135.0 C28.0 137.0 30.0 139.0 32.0 139.0 L118.0 139.0 C120.0 139.0 122.0 137.0 122.0 135.0 L122.0 108.0 C122.0 106.0 120.0 104.0 118.0 104.0 L118.0 104.0 Z M118.0 134.0 L32.0 134.0 L32.0 108.0 L118.0 108.0 L118.0 134.0 L118.0 134.0 Z M118.0 116.0 L32.0 116.0 L32.0 114.0 L118.0 114.0 L118.0 116.0 L118.0 116.0 Z M118.0 123.0 L32.0 123.0 L32.0 120.0 L118.0 120.0 L118.0 123.0 L118.0 123.0 Z M118.0 140.0 L32.0 140.0 C30.0 140.0 28.0 141.0 28.0 144.0 L28.0 162.0 C28.0 164.0 30.0 166.0 32.0 166.0 L118.0 166.0 C120.0 166.0 122.0 164.0 122.0 162.0 L122.0 144.0 C122.0 141.0 120.0 140.0 118.0 140.0 L118.0 140.0 Z M118.0 161.0 L32.0 161.0 L32.0 144.0 L118.0 144.0 L118.0 161.0 L118.0 161.0 Z M118.0 161.0 L32.0 161.0 L32.0 159.0 L118.0 159.0 L118.0 161.0 L118.0 161.0 Z M118.0 150.0 L32.0 150.0 L32.0 147.0 L118.0 147.0 L118.0 150.0 L118.0 150.0 Z M118.0 104.0 L32.0 104.0 C30.0 104.0 28.0 106.0 28.0 108.0 L28.0 135.0 C28.0 137.0 30.0 139.0 32.0 139.0 L118.0 139.0 C120.0 139.0 122.0 137.0 122.0 135.0 L122.0 108.0 C122.0 106.0 120.0 104.0 118.0 104.0 L118.0 104.0 Z M118.0 134.0 L32.0 134.0 L32.0 108.0 L118.0 108.0 L118.0 134.0 L118.0 134.0 Z M118.0 116.0 L32.0 116.0 L32.0 114.0 L118.0 114.0 L118.0 116.0 L118.0 116.0 Z M118.0 123.0 L32.0 123.0 L32.0 120.0 L118.0 120.0 L118.0 123.0 L118.0 123.0 Z M118.0 140.0 L32.0 140.0 C30.0 140.0 28.0 141.0 28.0 144.0 L28.0 162.0 C28.0 164.0 30.0 166.0 32.0 166.0 L118.0 166.0 C120.0 166.0 122.0 164.0 122.0 162.0 L122.0 144.0 C122.0 141.0 120.0 140.0 118.0 140.0 L118.0 140.0 Z M118.0 161.0 L32.0 161.0 L32.0 144.0 L118.0 144.0 L118.0 161.0 L118.0 161.0 Z M118.0 161.0 L32.0 161.0 L32.0 159.0 L118.0 159.0 L118.0 161.0 L118.0 161.0 Z M118.0 150.0 L32.0 150.0 L32.0 147.0 L118.0 147.0 L118.0 150.0 L118.0 150.0 Z M118.0 104.0 L32.0 104.0 C30.0 104.0 28.0 106.0 28.0 108.0 L28.0 135.0 C28.0 137.0 30.0 139.0 32.0 139.0 L118.0 139.0 C120.0 139.0 122.0 137.0 122.0 135.0 L122.0 108.0 C122.0 106.0 120.0 104.0 118.0 104.0 L118.0 104.0 Z M118.0 134.0 L32.0 134.0 L32.0 108.0 L118.0 108.0 L118.0 134.0 L118.0 134.0 Z M118.0 116.0 L32.0 116.0 L32.0 114.0 L118.0 114.0 L118.0 116.0 L118.0 116.0 Z M118.0 123.0 L32.0 123.0 L32.0 120.0 L118.0 120.0 L118.0 123.0 L118.0 123.0 Z M118.0 140.0 L32.0 140.0 C30.0 140.0 28.0 141.0 28.0 144.0 L28.0 162.0 C28.0 164.0 30.0 166.0 32.0 166.0 L118.0 166.0 C120.0 166.0 122.0 164.0 122.0 162.0 L122.0 144.0 C122.0 141.0 120.0 140.0 118.0 140.0 L118.0 140.0 Z M118.0 161.0 L32.0 161.0 L32.0 144.0 L118.0 144.0 L118.0 161.0 L118.0 161.0 Z M118.0 161.0 L32.0 161.0 L32.0 159.0 L118.0 159.0 L118.0 161.0 L118.0 161.0 Z"></path></svg>