<svg xmlns="http://www.w3.org/2000/svg" viewBox="0.0 0.0 200.0 200.0" height="200px" width="200px"><path fill="#ffffff" fill-opacity="1.0"  filling="0" d="M20.0 0.0 L180.0 0.0 A20.0 20.0 0.0 0 1 199.0 20.0 L199.0 180.0 A20.0 20.0 0.0 0 1 180.0 199.0 L20.0 199.0 A20.0 20.0 0.0 0 1 0.0 180.0 L0.0 20.0 A20.0 20.0 0.0 0 1 20.0 0.0 L20.0 0.0 Z"></path>
<path fill="#bbbbbb" fill-opacity="1.0"  filling="0" d="M186.0 0.0 L186.0 0.0 L186.0 0.0 L186.0 0.0 L186.0 0.0 L186.0 0.0 Z"></path>
<path fill="#999999" fill-opacity="1.0"  filling="0" d="M21.0 21.0 L179.0 21.0 L179.0 179.0 L21.0 179.0 L21.0 21.0 L21.0 21.0 Z"></path>
<path fill="#444444" fill-opacity="1.0"  filling="0" d="M186.0 0.0 A14.0 14.0 0.0 0 1 199.0 14.0 L199.0 186.0 A14.0 14.0 0.0 0 1 186.0 199.0 L186.0 199.0 A14.0 14.0 0.0 0 1 171.0 186.0 L171.0 14.0 A14.0 14.0 0.0 0 1 186.0 0.0 L186.0 0.0 Z"></path>
<path fill="#eeeeee" fill-opacity="1.0"  filling="0" d="M21.0 14.0 L179.0 14.0 L179.0 186.0 L21.0 186.0 L21.0 14.0 L21.0 14.0 Z"></path>
<path fill="#888888" fill-opacity="1.0"  filling="0" d="M100.0 120.0 C108.0 120.0 115.0 127.0 115.0 136.0 C115.0 144.0 108.0 150.0 100.0 150.0 C92.0 150.0 85.0 144.0 85.0 136.0 C85.0 127.0 92.0 120.0 100.0 120.0 L100.0 120.0 Z M100.0 52.0 C108.0 52.0 115.0 58.0 115.0 66.0 C115.0 73.0 108.0 80.0 100.0 80.0 C92.0 80.0 85.0 73.0 85.0 66.0 C85.0 58.0 92.0 52.0 100.0 52.0 L100.0 52.0 Z M86.0 86.0 L115.0 86.0 C118.0 86.0 121.0 88.0 121.0 92.0 L121.0 108.0 C121.0 112.0 118.0 114.0 115.0 114.0 L86.0 114.0 C82.0 114.0 80.0 112.0 80.0 108.0 L80.0 92.0 C80.0 88.0 82.0 86.0 86.0 86.0 L86.0 86.0 Z"></path>
<path fill="#999999" fill-opacity="1.0"  filling="0" d="M100.0 130.0 C104.0 130.0 107.0 133.0 107.0 136.0 C107.0 140.0 104.0 142.0 100.0 142.0 C96.0 142.0 93.0 140.0 93.0 136.0 C93.0 133.0 96.0 130.0 100.0 130.0 L100.0 130.0 Z M100.0 57.0 C104.0 57.0 107.0 60.0 107.0 64.0 C107.0 67.0 104.0 70.0 100.0 70.0 C96.0 70.0 93.0 67.0 93.0 64.0 C93.0 60.0 96.0 57.0 100.0 57.0 L100.0 57.0 Z M93.0 92.0 L115.0 92.0 C118.0 92.0 121.0 95.0 121.0 99.0 L121.0 111.0 C121.0 115.0 118.0 118.0 115.0 118.0 L93.0 118.0 C89.0 118.0 86.0 115.0 86.0 111.0 L86.0 99.0 C86.0 95.0 89.0 92.0 93.0 92.0 L93.0 92.0 Z"></path>
<path fill="#888888" fill-opacity="1.0"  filling="0" d="M100.0 46.0 C108.0 46.0 115.0 52.0 115.0 60.0 C115.0 68.0 108.0 74.0 100.0 74.0 C92.0 74.0 85.0 68.0 85.0 60.0 C85.0 52.0 92.0 46.0 100.0 46.0 L100.0 46.0 Z M100.0 121.0 C108.0 121.0 115.0 128.0 115.0 137.0 C115.0 145.0 108.0 152.0 100.0 152.0 C92.0 152.0 85.0 145.0 85.0 137.0 C85.0 128.0 92.0 121.0 100.0 121.0 L100.0 121.0 Z M100.0 86.0 C108.0 86.0 115.0 92.0 115.0 100.0 C115.0 108.0 108.0 115.0 100.0 115.0 C92.0 115.0 85.0 108.0 85.0 100.0 C85.0 92.0 92.0 86.0 100.0 86.0 L100.0 86.0 Z"></path>
<path fill="#888888" fill-opacity="1.0"  filling="0" d="M100.0 152.0 C108.0 152.0 115.0 145.0 115.0 137.0 C115.0 128.0 108.0 121.0 100.0 121.0 C92.0 121.0 86.0 128.0 86.0 137.0 C86.0 145.0 92.0 152.0 100.0 152.0 L100.0 152.0 Z M100.0 129.0 C104.0 129.0 107.0 133.0 107.0 137.0 C107.0 141.0 104.0 144.0 100.0 144.0 C96.0 144.0 93.0 141.0 93.0 137.0 C93.0 133.0 96.0 129.0 100.0 129.0 L100.0 129.0 Z M100.0 76.0 C108.0 76.0 115.0 69.0 115.0 60.0 C115.0 52.0 108.0 45.0 100.0 45.0 C92.0 45.0 85.0 52.0 85.0 60.0 C85.0 69.0 92.0 76.0 100.0 76.0 L100.0 76.0 Z M100.0 54.0 C104.0 54.0 107.0 57.0 107.0 61.0 C107.0 65.0 104.0 68.0 100.0 68.0 C96.0 68.0 93.0 65.0 93.0 61.0 C93.0 57.0 96.0 54.0 100.0 54.0 L100.0 54.0 Z M100.0 117.0 C109.0 117.0 117.0 109.0 117.0 100.0 C117.0 91.0 109.0 83.0 100.0 83.0 C91.0 83.0 83.0 91.0 83.0 100.0 C83.0 109.0 91.0 117.0 100.0 117.0 L100.0 117.0 Z M100.0 93.0 C104.0 93.0 107.0 96.0 107.0 100.0 C107.0 104.0 104.0 107.0 100.0 107.0 C96.0 107.0 93.0 104.0 93.0 100.0 C93.0 96.0 96.0 93.0 100.0 93.0 L100.0 93.0 Z"></path>
<path fill="#888888" fill-opacity="1.0"  filling="0" d="M100.0 120.0 C108.0 120.0 115.0 127.0 115.0 136.0 C115.0 144.0 108.0 150.0 100.0 150.0 C92.0 150.0 85.0 144.0 85.0 136.0 C85.0 127.0 92.0 120.0 100.0 120.0 L100.0 120.0 Z M100.0 52.0 C108.0 52.0 115.0 58.0 115.0 66.0 C115.0 73.0 108.0 80.0 100.0 80.0 C92.0 80.0 85.0 73.0 85.0 66.0 C85.0 58.0 92.0 52.0 100.0 52.0 L100.0 52.0 Z M86.0 86.0 L115.0 86.0 C118.0 86.0 121.0 88.0 121.0 92.0 L121.0 108.0 C121.0 112.0 118.0 114.0 115.0 114.0 L86.0 114.0 C82.0 114.0 80.0 112.0 80.0 108.0 L80.0 92.0 C80.0 88.0 82.0 86.0 86.0 86.0 L86.0 86.0 Z"></path>
<path fill="#999999" fill-opacity="1.0"  filling="0" d="M100.0 130.0 C104.0 130.0 107.0 133.0 107.0 136.0 C107.0 140.0 104.0 142.0 100.0 142.0 C96.0 142.0 93.0 140.0 93.0 136.0 C93.0 133.0 96.0 130.0 100.0 130.0 L100.0 130.0 Z M100.0 57.0 C104.0 57.0 107.0 60.0 107.0 64.0 C107.0 67.0 104.0 70.0 100.0 70.0 C96.0 70.0 93.0 67.0 93.0 64.0 C93.0 60.0 96.0 57.0 100.0 57.0 L100.0 57.0 Z M93.0 92.0 L115.0 92.0 C118.0 92.0 121.0 95.0 121.0 99.0 L121.0 111.0 C121.0 115.0 118.0 118.0 115.0 118.0 L93.0 118.0 C89.0 118.0 86.0 115.0 86.0 111.0 L86.0 99.0 C86.0 95.0 89.0 92.0 93.0 92.0 L93.0 92.0 Z"></path>
<path fill="#999999" fill-opacity="1.0"  filling="0" d="M100.0 152.0 C108.0 152.0 115.0 145.0 115.0 137.0 C115.0 128.0 108.0 121.0 100.0 121.0 C92.0 121.0 86.0 128.0 86.0 137.0 C86.0 145.0 92.0 152.0 100.0 152.0 L100.0 152.0 Z M100.0 129.0 C104.0 129.0 107.0 133.0 107.0 136.0 C107.0 140.0 104.0 144.0 100.0 144.0 C96.0 144.0 93.0 140.0 93.0 136.0 C93.0 133.0 96.0 129.0 100.0 129.0 L100.0 129.0 Z M100.0 51.0 C104.0 51.0 107.0 55.0 107.0 59.0 C107.0 63.0 104.0 66.0 100.0 66.0 C96.0 66.0 93.0 63.0 93.0 59.0 C93.0 55.0 96.0 51.0 100.0 51.0 L100.0 51.0 Z M100.0 88.0 C108.0 88.0 115.0 94.0 115.0 102.0 C115.0 110.0 108.0 117.0 100.0 117.0 C92.0 117.0 85.0 110.0 85.0 102.0 C85.0 94.0 92.0 88.0 100.0 88.0 L100.0 88.0 Z"></path>
<path fill="#999999" fill-opacity="1.0"  filling="0" d="M100.0 152.0 C108.0 152.0 115.0 145.0 115.0 137.0 C115.0 128.0 108.0 121.0 100.0 121.0 C92.0 121.0 86.0 128.0 86.0 137.0 C86.0 145.0 92.0 152.0 100.0 152.0 L100.0 152.0 Z M100.0 129.0 C104.0 129.0 107.0 133.0 107.0 136.0 C107.0 140.0 104.0 144.0 100.0 144.0 C96.0 144.0 93.0 140.0 93.0 136.0 C93.0 133.0 96.0 129.0 100.0 129.0 L100.0 129.0 Z M100.0 48.0 C104.0 48.0 107.0 52.0 107.0 56.0 C107.0 60.0 104.0 64.0 100.0 64.0 C96.0 64.0 93.0 60.0 93.0 56.0 C93.0 52.0 96.0 48.0 100.0 48.0 L100.0 48.0 Z M100.0 87.0 C108.0 87.0 115.0 94.0 115.0 103.0 C115.0 111.0 108.0 119.0 100.0 119.0 C92.0 119.0 85.0 111.0 85.0 103.0 C85.0 94.0 92.0 87.0 100.0 87.0 L100.0 87.0 Z"></path>
<path fill="#999999" fill-opacity="1.0"  filling="0" d="M100.0 120.0 C108.0 120.0 115.0 127.0 115.0 136.0 C115.0 144.0 108.0 150.0 100.0 150.0 C92.0 150.0 85.0 144.0 85.0 136.0 C85.0 127.0 92.0 120.0 100.0 120.0 L100.0 120.0 Z M100.0 130.0 C104.0 130.0 107.0 133.0 107.0 136.0 C107.0 140.0 104.0 142.0 100.0 142.0 C96.0 142.0 93.0 140.0 93.0 136.0 C93.0 133.0 96.0 130.0 100.0 130.0 L100.0 130.0 Z M100.0 56.0 C104.0 56.0 107.0 59.0 107.0 63.0 C107.0 66.0 104.0 69.0 100.0 69.0 C96.0 69.0 93.0 66.0 93.0 63.0 C93.0 59.0 96.0 56.0 100.0 56.0 L100.0 56.0 Z M100.0 90.0 C105.0 90.0 109.0 94.0 109.0 98.0 C109.0 103.0 105.0 106.0 100.0 106.0 C95.0 106.0 91.0 103.0 91.0 98.0 C91.0 94.0 95.0 90.0 100.0 90.0 L100.0 90.0 Z"></path>
<path fill="#999999" fill-opacity="1.0"  filling="0" d="M100.0 152.0 C108.0 152.0 115.0 145.0 115.0 137.0 C115.0 128.0 108.0 121.0 100.0 121.0 C92.0 121.0 86.0 128.0 86.0 137.0 C86.0 145.0 92.0 152.0 100.0 152.0 L100.0 152.0 Z M100.0 129.0 C104.0 129.0 107.0 133.0 107.0 136.0 C107.0 140.0 104.0 144.0 100.0 144.0 C96.0 144.0 93.0 140.0 93.0 136.0 C93.0 133.0 96.0 129.0 100.0 129.0 L100.0 129.0 Z M100.0 51.0 C104.0 51.0 107.0 55.0 107.0 59.0 C107.0 63.0 104.0 66.0 100.0 66.0 C96.0 66.0 93.0 63.0 93.0 59.0 C93.0 55.0 96.0 51.0 100.0 51.0 L100.0 51.0 Z M100.0 113.0 C105.0 113.0 109.0 117.0 109.0 122.0 C109.0 127.0 105.0 131.0 100.0 131.0 C95.0 131.0 91.0 127.0 91.0 122.0 C91.0 117.0 95.0 113.0 100.0 113.0 L100.0 113.0 Z"></path>
<path fill="#999999" fill-opacity="1.0"  filling="0" d="M100.0 120.0 C108.0 120.0 115.0 127.0 115.0 136.0 C115.0 144.0 108.0 150.0 100.0 150.0 C92.0 150.0 85.0 144.0 85.0 136.0 C85.0 127.0 92.0 120.0 100.0 120.0 L100.0 120.0 Z M100.0 130.0 C104.0 130.0 107.0 133.0 107.0 136.0 C107.0 140.0 104.0 144.0 100.0 144.0 C96.0 144.0 93.0 140.0 93.0 136.0 C93.0 133.0 96.0 130.0 100.0 130.0 L100.0 130.0 Z M100.0 56.0 C104.0 56.0 107.0 59.0 107.0 63.0 C107.0 66.0 104.0 69.0 100.0 69.0 C96.0 69.0 93.0 66.0 93.0 63.0 C93.0 59.0 96.0 56.0 100.0 56.0 L100.0 56.0 Z M100.0 90.0 C105.0 90.0 109.0 94.0 109.0 98.0 C109.0 103.0 105.0 106.0 100.0 106.0 C95.0 106.0 91.0 103.0 91.0 98.0 C91.0 94.0 95.0 90.0 100.0 90.0 L100.0 90.0 Z"></path>
<path fill="#999999" fill-opacity="1.0"  filling="0" d="M100.0 120.0 C108.0 120.0 115.0 127.0 115.0 136.0 C115.0 144.0 108.0 150.0 100.0 150.0 C92.0 150.0 85.0 144.0 85.0 136.0 C85.0 127.0 92.0 120.0 100.0 120.0 L100.0 120.0 Z M100.0 129.0 C104.0 129.0 107.0 133.0 107.0 136.0 C107.0 140.0 104.0 144.0 100.0 144.0 C96.0 144.0 93.0 140.0 93.0 136.0 C93.0 133.0 96.0 129.0 100.0 129.0 L100.0 129.0 Z M100.0 51.0 C104.0 51.0 107.0 55.0 107.0 59.0 C107.0 63.0 104.0 66.0 100.0 66.0 C96.0 66.0 93.0 63.0 93.0 59.0 C93.0 55.0 96.0 51.0 100.0 51.0 L100.0 51.0 Z M100.0 113.0 C105.0 113.0 109.0 117.0 109.0 122.0 C109.0 127.0 105.0 131.0 100.0 131.0 C95.0 131.0 91.0 127.0 91.0 122.0 C91.0 117.0 95.0 113.0 100.0 113.0 L100.0 113.0 Z"></path>
<path fill="#000000" fill-opacity="1.0"  filling="0" d="M100.0 120.0 C108.0 120.0 115.0 127.0 115.0 136.0 C115.0 144.0 108.0 150.0 100.0 150.0 C92.0 150.0 86.0 144.0 86.0 136.0 C86.0 127.0 92.0 120.0 100.0 120.0 L100.0 120.0 Z M100.0 130.0 C104.0 130.0 107.0 133.0 107.0 136.0 C107.0 140.0 104.0 144.0 100.0 144.0 C96.0 144.0 93.0 140.0 93.0 136.0 C93.0 133.0 96.0 130.0 100.0 130.0 L100.0 130.0 Z M100.0 56.0 C104.0 56.0 107.0 59.0 107.0 63.0 C107.0 66.0 104.0 69.0 100.0 69.0 C96.0 69.0 93.0 66.0 93.0 63.0 C93.0 59.0 96.0 56.0 100.0 56.0 L100.0 56.0 Z"></path></svg>