<svg xmlns="http://www.w3.org/2000/svg" viewBox="0.0 0.0 200.0 200.0" height="200px" width="200px"><path fill="#3399ff" fill-opacity="1.0"  filling="0" d="M135.0 172.0 L135.0 180.0 C135.0 181.0 134.0 181.0 134.0 181.0 L78.0 181.0 C78.0 181.0 77.0 181.0 77.0 180.0 L77.0 172.0"></path>
<path fill="#44ccff" fill-opacity="1.0"  filling="0" d="M137.0 172.0 L74.0 172.0 C74.0 172.0 73.0 172.0 73.0 171.0 L73.0 152.0 C73.0 151.0 74.0 151.0 74.0 151.0 L137.0 151.0 C138.0 151.0 139.0 151.0 139.0 152.0 L139.0 171.0 C139.0 172.0 138.0 172.0 137.0 172.0 L137.0 172.0 Z"></path>
<path fill="#ffeeee" fill-opacity="1.0"  filling="0" d="M68.0 92.0 L68.0 114.0 C68.0 115.0 68.0 117.0 68.0 118.0 C69.0 124.0 71.0 129.0 74.0 133.0 C78.0 138.0 81.0 144.0 81.0 151.0 L130.0 151.0 C131.0 144.0 133.0 138.0 137.0 133.0 C140.0 129.0 142.0 124.0 143.0 118.0 C143.0 116.0 144.0 115.0 144.0 114.0 L144.0 108.0"></path>
<path fill="#ffeeee" fill-opacity="1.0"  filling="0" d="M98.0 96.0 L98.0 47.0 C98.0 44.0 97.0 43.0 96.0 41.0 C94.0 40.0 92.0 39.0 90.0 39.0 C86.0 39.0 83.0 42.0 83.0 47.0 L83.0 105.0 M113.0 96.0 L113.0 44.0 C113.0 42.0 112.0 40.0 111.0 39.0 C110.0 37.0 108.0 36.0 106.0 36.0 C101.0 36.0 98.0 40.0 98.0 44.0 L98.0 96.0 M128.0 99.0 L128.0 47.0 C128.0 45.0 127.0 43.0 126.0 41.0 C125.0 40.0 123.0 39.0 121.0 39.0 C117.0 39.0 113.0 43.0 113.0 47.0 L113.0 96.0"></path>
<path fill="#ffeeee" fill-opacity="1.0"  filling="0" d="M143.0 118.0 C143.0 117.0 144.0 117.0 144.0 116.0 L144.0 70.0 C144.0 68.0 143.0 66.0 141.0 64.0 C140.0 63.0 138.0 62.0 136.0 62.0 C132.0 62.0 128.0 66.0 128.0 70.0 L128.0 99.0 M83.0 105.0 L83.0 85.0 C83.0 83.0 82.0 81.0 81.0 80.0 C79.0 79.0 77.0 78.0 75.0 78.0 C71.0 78.0 68.0 81.0 68.0 85.0 L68.0 116.0 C68.0 117.0 68.0 117.0 68.0 118.0"></path>
<path fill="#2244ee" fill-opacity="1.0"  filling="0" d="M143.0 62.0 C143.0 62.0 143.0 62.0 143.0 62.0 C141.0 60.0 139.0 59.0 136.0 59.0 C134.0 59.0 133.0 60.0 131.0 60.0 L131.0 47.0 C131.0 44.0 130.0 41.0 128.0 39.0 C128.0 39.0 128.0 39.0 128.0 39.0 C126.0 37.0 124.0 36.0 121.0 36.0 C119.0 36.0 117.0 37.0 115.0 38.0 C115.0 37.0 114.0 36.0 113.0 35.0 C113.0 35.0 113.0 35.0 113.0 35.0 C111.0 33.0 108.0 32.0 106.0 32.0 C101.0 32.0 98.0 34.0 96.0 38.0 C94.0 37.0 92.0 36.0 90.0 36.0 C85.0 36.0 80.0 41.0 80.0 47.0 L80.0 76.0 C78.0 75.0 77.0 75.0 75.0 75.0 C69.0 75.0 65.0 80.0 65.0 85.0 L65.0 116.0 C65.0 117.0 65.0 118.0 65.0 119.0 C66.0 124.0 68.0 130.0 72.0 135.0 C75.0 139.0 77.0 143.0 78.0 148.0 L74.0 148.0 C72.0 148.0 70.0 150.0 70.0 152.0 L70.0 171.0 C70.0 173.0 72.0 175.0 74.0 175.0 L74.0 180.0 C74.0 182.0 76.0 184.0 78.0 184.0 L134.0 184.0 C136.0 184.0 138.0 182.0 138.0 180.0 L138.0 175.0 C140.0 175.0 142.0 173.0 142.0 171.0 L142.0 152.0 C142.0 150.0 140.0 148.0 137.0 148.0 L133.0 148.0 C134.0 143.0 136.0 139.0 139.0 135.0 C143.0 130.0 145.0 124.0 146.0 119.0 C146.0 118.0 146.0 117.0 146.0 116.0 L146.0 70.0 C146.0 67.0 145.0 64.0 143.0 62.0 L143.0 62.0 Z M80.0 178.0 L80.0 175.0 L132.0 175.0 L132.0 178.0 L80.0 178.0 L80.0 178.0 Z M136.0 169.0 L76.0 169.0 L76.0 154.0 L136.0 154.0 L136.0 169.0 L136.0 169.0 Z M135.0 131.0 C131.0 136.0 128.0 142.0 127.0 148.0 L84.0 148.0 C83.0 142.0 80.0 136.0 76.0 131.0 C73.0 127.0 71.0 122.0 71.0 118.0 C71.0 116.0 70.0 115.0 70.0 114.0 L70.0 85.0 C70.0 83.0 72.0 81.0 75.0 81.0 C76.0 81.0 78.0 81.0 78.0 82.0 C79.0 83.0 80.0 84.0 80.0 85.0 L80.0 105.0 C80.0 107.0 81.0 108.0 83.0 108.0 C84.0 108.0 86.0 107.0 86.0 105.0 L86.0 47.0 C86.0 44.0 88.0 42.0 90.0 42.0 C92.0 42.0 93.0 42.0 94.0 43.0 C95.0 44.0 95.0 45.0 95.0 47.0 L95.0 96.0 C95.0 98.0 96.0 99.0 98.0 99.0 C100.0 99.0 101.0 98.0 101.0 96.0 L101.0 42.0 C101.0 39.0 103.0 37.0 106.0 37.0 C107.0 37.0 108.0 38.0 109.0 39.0 C110.0 40.0 110.0 41.0 110.0 42.0 L110.0 96.0 C110.0 97.0 112.0 99.0 113.0 99.0 C115.0 99.0 116.0 97.0 116.0 96.0 L116.0 47.0 C116.0 44.0 118.0 42.0 121.0 42.0 C122.0 42.0 123.0 43.0 124.0 43.0 C125.0 44.0 125.0 46.0 125.0 47.0 L125.0 99.0 C125.0 101.0 127.0 102.0 128.0 102.0 C130.0 102.0 131.0 101.0 131.0 99.0 L131.0 70.0 C131.0 68.0 133.0 65.0 136.0 65.0 C137.0 65.0 138.0 66.0 139.0 66.0 C140.0 67.0 141.0 69.0 141.0 70.0 L141.0 114.0 C141.0 115.0 141.0 116.0 140.0 118.0 C140.0 123.0 138.0 127.0 135.0 131.0 L135.0 131.0 Z"></path>
<path fill="#000000" fill-opacity="1.0"  filling="0" d="M128.0 158.0 C125.0 158.0 124.0 160.0 124.0 162.0 C124.0 164.0 125.0 166.0 128.0 166.0 C130.0 166.0 132.0 164.0 132.0 161.0 C131.0 160.0 130.0 158.0 128.0 158.0 L128.0 158.0 Z M128.0 162.0 C128.0 162.0 127.0 162.0 127.0 161.0 C127.0 161.0 128.0 161.0 128.0 161.0 C128.0 161.0 129.0 161.0 129.0 161.0 C129.0 162.0 128.0 162.0 128.0 162.0 L128.0 162.0 Z M63.0 62.0 C63.0 62.0 63.0 62.0 63.0 62.0 C63.0 62.0 63.0 62.0 63.0 62.0 C63.0 62.0 63.0 62.0 63.0 62.0 L63.0 62.0 C63.0 62.0 63.0 62.0 63.0 62.0 C63.0 62.0 63.0 62.0 63.0 62.0 C64.0 62.0 64.0 63.0 64.0 63.0 C64.0 63.0 64.0 63.0 64.0 63.0 C64.0 63.0 64.0 63.0 64.0 63.0 C64.0 63.0 64.0 63.0 64.0 63.0 C64.0 63.0 64.0 63.0 64.0 63.0 C64.0 63.0 64.0 63.0 64.0 63.0 C64.0 63.0 64.0 63.0 64.0 63.0 C64.0 63.0 64.0 63.0 64.0 63.0 C64.0 63.0 64.0 63.0 64.0 63.0 C64.0 63.0 64.0 63.0 64.0 63.0 C64.0 63.0 64.0 63.0 64.0 63.0 C64.0 63.0 64.0 63.0 64.0 63.0 C64.0 63.0 64.0 63.0 64.0 63.0 C64.0 63.0 64.0 63.0 64.0 63.0 C64.0 63.0 64.0 63.0 64.0 63.0 C64.0 63.0 64.0 63.0 64.0 63.0 C64.0 63.0 64.0 63.0 64.0 63.0 C64.0 63.0 64.0 63.0 64.0 63.0 C64.0 63.0 64.0 63.0 64.0 63.0 C64.0 63.0 64.0 63.0 64.0 63.0 C64.0 63.0 64.0 63.0 64.0 63.0 C64.0 63.0 64.0 63.0 64.0 63.0 C64.0 63.0 64.0 63.0 64.0 63.0 C64.0 63.0 64.0 63.0 64.0 63.0 C64.0 63.0 64.0 63.0 64.0 63.0 C64.0 63.0 64.0 63.0 64.0 63.0 C64.0 63.0 64.0 63.0 64.0 63.0 C64.0 63.0 64.0 63.0 64.0 63.0 C64.0 63.0 64.0 63.0 64.0 63.0 C64.0 63.0 64.0 63.0 64.0 63.0 C64.0 63.0 64.0 63.0 64.0 63.0 C64.0 63.0 64.0 63.0 64.0 63.0 C64.0 63.0 64.0 63.0 64.0 63.0 C64.0 63.0 64.0 63.0 64.0 63.0 C64.0 63.0 64.0 63.0 64.0 63.0 C64.0 63.0 64.0 63.0 64.0 63.0 C64.0 63.0 64.0 63.0 64.0 63.0 C64.0 63.0 64.0 63.0 64.0 63.0 C64.0 63.0 64.0 63.0 64.0 63.0 C64.0 63.0 64.0 63.0 64.0 63.0 C64.0 63.0 64.0 63.0 64.0 63.0 C64.0 63.0 64.0 63.0 64.0 63.0 C64.0 63.0 64.0 63.0 64.0 63.0 C64.0 63.0 64.0 63.0 64.0 63.0 C64.0 63.0 64.0 63.0 64.0 63.0 C64.0 63.0 64.0 63.0 64.0 63.0 C64.0 63.0 64.0 63.0 64.0 63.0 C64.0 63.0 64.0 63.0 64.0 63.0 C64.0 63.0 64.0 63.0 64.0 63.0 C64.0 63.0 64.0 63.0 64.0 63.0 C64.0 63.0 64.0 63.0 64.0 63.0 C64.0 63.0 64.0 63.0 64.0 63.0 C64.0 63.0 64.0 63.0 64.0 63.0 C64.0 63.0 64.0 63.0 64.0 63.0 C64.0 63.0 64.0 63.0 64.0 63.0 C64.0 63.0 64.0 63.0 64.0 63.0 C64.0 63.0 64.0 63.0 64.0 63.0 C64.0 63.0 64.0 63.0 64.0 63.0 C64.0 63.0 64.0 63.0 64.0 63.0 C64.0 63.0 64.0 63.0 64.0 63.0 C64.0 63.0 64.0 63.0 64.0 63.0 C64.0 63.0 64.0 63.0 64.0 63.0 C64.0 63.0 64.0 63.0 64.0 63.0 C64.0 63.0 64.0 63.0 64.0 63.0 C64.0 63.0 64.0 63.0 64.0 63.0 C64.0 63.0 64.0 63.0 64.0 63.0 C64.0 63.0 64.0 63.0 64.0 63.0 C64.0 63.0 64.0 63.0 64.0 63.0 C64.0 63.0 64.0 63.0 64.0 63.0 C64.0 63.0 64.0 63.0 64.0 63.0 C64.0 63.0 64.0 63.0 64.0 63.0 C64.0 63.0 64.0 63.0 64.0 63.0 C64.0 63.0 64.0 63.0 64.0 63.0 C64.0 63.0 64.0 63.0 64.0 63.0 C64.0 63.0 64.0 63.0 64.0 63.0 C64.0 63.0 64.0 63.0 64.0 63.0 C64.0 63.0 64.0 63.0 64.0 63.0 C64.0 63.0 64.0 63.0 64.0 63.0 C64.0 63.0 64.0 63.0 64.0 63.0 C64.0 63.0 64.0 63.0 64.0 63.0 C64.0 63.0 64.0 63.0 64.0 63.0 C64.0 63.0 64.0 63.0 64.0 63.0 C64.0 63.0 64.0 63.0 64.0 63.0 C64.0 63.0 64.0 63.0 64.0 63.0 C64.0 63.0 64.0 63.0 64.0 63.0 C64.0 63.0 64.0 63.0 64.0 63.0 C64.0 63.0 64.0 63.0 64.0 63.0 C64.0 63.0 64.0 63.0 64.0 63.0 C64.0 63.0 64.0 63.0 64.0 63.0 C64.0 63.0 64.0 63.0 64.0 63.0 C64.0 63.0 64.0 63.0 64.0 63.0 C64.0 63.0 64.0 63.0 64.0 63.0 C64.0 63.0 64.0 63.0 64.0 63.0 C64.0 63.0 64.0 63.0 64.0 63.0 C64.0 63.0 64.0 63.0 64.0 63.0 C64.0 63.0 64.0 63.0 64.0 63.0 C64.0 63.0 64.0 63.0 64.0 63.0 C64.0 63.0 64.0 63.0 64.0 63.0 C64.0 63.0 64.0 63.0 64.0 63.0 C64.0 63.0 64.0 63.0 64.0 63.0 C64.0 63.0 64.0 63.0 64.0 63.0 C64.0 63.0 64.0 63.0 64.0 63.0 C64.0 63.0 64.0 63.0 64.0 63.0 C64.0 63.0 64.0 63.0 64.0 63.0 C64.0 63.0 64.0 63.0 64.0 63.0 C64.0 63.0 64.0 63.0 64.0 63.0 C64.0 63.0 64.0 63.0 64.0 63.0 C64.0 63.0 64.0 63.0 64.0 63.0 C64.0 63.0 64.0 63.0 64.0 63.0 C64.0 63.0 64.0 63.0 64.0 63.0 C64.0 63.0 64.0 63.0 64.0 63.0 C64.0 63.0 64.0 63.0 64.0 63.0 C64.0 63.0 64.0 63.0 64.0 63.0 C64.0 63.0 64.0 63.0 64.0 63.0 C64.0 63.0 64.0 63.0 64.0 63.0 C64.0 63.0 64.0 63.0 64.0 63.0 C64.0 63.0 64.0 63.0 64.0 63.0 C64.0 63.0 64.0 63.0 64.0 63.0 C64.0 63.0 64.0 63.0 64.0 63.0 C64.0 63.0 64.0 63.0 64.0 63.0 C64.0 63.0 64.0 63.0 64.0 63.0 C64.0 63.0 64.0 63.0 64.0 63.0 C64.0 63.0 64.0 63.0 64.0 63.0 C64.0 63.0 64.0 63.0 64.0 63.0 C64.0 63.0 64.0 63.0 64.0 63.0 C64.0 63.0 64.0 63.0 64.0 63.0 C64.0 63.0 64.0 63.0 64.0 63.0 C64.0 63.0 64.0 63.0 64.0 63.0 C64.0 63.0 64.0 63.0 64.0 63.0 C64.0 63.0 64.0 63.0 64.0 63.0 C64.0 63.0 64.0 63.0 64.0 63.0 C64.0 63.0 64.0 63.0 64.0 63.0 C64.0 63.0 64.0 63.0 64.0 63.0 C64.0 63.0 64.0 63.0 64.0 63.0 C64.0 63.0 64.0 63.0 64.0 63.0 C64.0 63.0 64.0 63.0 64.0 63.0 C64.0 63.0 64.0 63.0 64.0 63.0 C64.0 63.0 64.0 63.0 64.0 63.0 C64.0 63.0 64.0 63.0 64.0 63.0 C64.0 63.0 64.0 63.0 64.0 63.0 C64.0 63.0 64.0 63.0 64.0 63.0 C64.0 63.0 64.0 63.0 64.0 63.0 C64.0 63.0 64.0 63.0 64.0 63.0 C64.0 63.0 64.0 63.0 64.0 63.0 C64.0 63.0 64.0 63.0 64.0 63.0 C64.0 63.0 64.0 63.0 64.0 63.0 C64.0 63.0 64.0 63.0 64.0 63.0 C64.0 63.0 64.0 63.0 64.0 63.0 C64.0 63.0 64.0 63.0 64.0 63.0 C64.0 63.0 64.0 63.0 64.0 63.0 C64.0 63.0 64.0 63.0 64.0 63.0 C64.0 63.0 64.0 63.0 64.0 63.0 C64.0 63.0 64.0 63.0 64.0 63.0 C64.0 63.0 64.0 63.0 64.0 63.0 C64.0 63.0 64.0 63.0 64.0 63.0 C64.0 63.0 64.0 63.0 64.0 63.0 C64.0 63.0 64.0 63.0 64.0 137.0 C64.0 137.0 64.0 137.0 64.0 137.0 C64.0 137.0 64.0 137.0 64.0 137.0 C64.0 137.0 64.0 137.0 64.0 137.0 C64.0 137.0 64.0 137.0 64.0 137.0 C64.0 137.0 64.0 137.0 64.0 137.0 C64.0 137.0 64.0 137.0 64.0 137.0 C64.0 137.0 64.0 137.0 64.0 137.0 C64.0 137.0 64.0 137.0 64.0 137.0 C64.0 137.0 64.0 137.0 64.0 137.0 C64.0 137.0 64.0 137.0 64.0 137.0 C64.0 137.0 64.0 137.0 64.0 137.0 C64.0 137.0 64.0 137.0 64.0 137.0 C64.0 137.0 64.0 137.0 64.0 137.0 C64.0 137.0 64.0 137.0 64.0 137.0 C64.0 137.0 64.0 137.0 64.0 137.0 C64.0 137.0 64.0 137.0 64.0 137.0 C64.0 137.0 64.0 137.0 64.0 137.0 C64.0 137.0 64.0 137.0 64.0 137.0 C64.0 137.0 64.0 137.0 64.0 137.0 C64.0 137.0 64.0 137.0 64.0 137.0 C64.0 137.0 64.0 137.0 64.0 137.0 C64.0 137.0 64.0 137.0 64.0 137.0 C64.0 137.0 64.0 137.0 64.0 137.0 C64.0 137.0 64.0 137.0 64.0 137.0 C64.0 137.0 64.0 137.0 64.0 137.0 C64.0 137.0 64.0 137.0 64.0 137.0 C64.0 137.0 64.0 137.0 64.0 137.0 C64.0 137.0 64.0 137.0 64.0 137.0 C64.0 137.0 64.0 137.0 64.0 137.0 C64.0 137.0 64.0 137.0 64.0 137.0 C64.0 137.0 64.0 137.0 64.0 137.0 C64.0 137.0 64.0 137.0 64.0 137.0 C64.0 137.0 64.0 137.0 64.0 137.0 C64.0 137.0 64.0 137.0 64.0 137.0 C64.0 137.0 64.0 137.0 64.0 137.0 C64.0 137.0 64.0 137.0 64.0 137.0 C64.0 137.0 64.0 137.0 64.0 137.0 C64.0 137.0 64.0 137.0 64.0 137.0 C64.0 137.0 64.0 137.0 64.0 137.0 C64.0 137.0 64.0 137.0 64.0 137.0 C64.0 137.0 64.0 137.0 64.0 137.0 C64.0 137.0 64.0 137.0 64.0 137.0 C64.0 137.0 64.0 137.0 64.0 137.0 C64.0 137.0 64.0 137.0 64.0 137.0 C64.0 137.0 64.0 137.0 64.0 137.0 C64.0 137.0 64.0 137.0 64.0 137.0 C64.0 137.0 64.0 137.0 64.0 137.0 C64.0 137.0 64.0 137.0 64.0 137.0 C64.0 137.0 64.0 137.0 64.0 137.0 C64.0 137.0 64.0 137.0 64.0 137.0 C64.0 137.0 64.0 137.0 64.0 137.0 C64.0 137.0 64.0 137.0 64.0 137.0 C64.0 137.0 64.0 137.0 64.0 137.0 C64.0 137.0 64.0 137.0 64.0 137.0 C64.0 137.0 64.0 137.0 64.0 137.0 C64.0 137.0 64.0 137.0 64.0 137.0 C64.0 137.0 64.0 137.0 64.0 137.0 C64.0 137.0 64.0 137.0 64.0 137.0 C64.0 137.0 64.0 137.0 64.0 137.0 C64.0 137.0 64.0 137.0 64.0 137.0 C64.0 137.0 64.0 137.0 64.0 137.0 C64.0 137.0 64.0 137.0 64.0 137.0 C64.0 137.0 64.0 137.0 64.0 137.0 C64.0 137.0 64.0 137.0 64.0 137.0 C64.0 137.0 126.0 137.0 126.0 137.0 C126.0 137.0 126.0 137.0 126.0 137.0 C126.0 137.0 126.0 137.0 126.0 137.0"></path></svg>