<svg xmlns="http://www.w3.org/2000/svg" viewBox="0.0 0.0 200.0 200.0" height="200px" width="200px"><path fill="#99dd77" fill-opacity="1.0"  filling="0" d="M138.0 163.0 L123.0 177.0 L77.0 177.0 L62.0 163.0 C66.0 145.0 78.0 137.0 78.0 137.0 L122.0 137.0 C122.0 137.0 134.0 145.0 138.0 163.0 L138.0 163.0 Z"></path>
<path fill="#ffeeee" fill-opacity="1.0"  filling="0" d="M77.0 162.0 L77.0 177.0 L60.0 177.0 C60.0 172.0 61.0 166.0 62.0 162.0 L77.0 162.0 L77.0 162.0 Z M140.0 177.0 L123.0 177.0 L123.0 162.0 L138.0 162.0 C139.0 166.0 140.0 172.0 140.0 177.0 L140.0 177.0 Z"></path>
<path fill="#ffdddd" fill-opacity="1.0"  filling="0" d="M34.0 92.0 L103.0 177.0 L97.0 177.0 L97.0 142.0 L100.0 142.0 C102.0 142.0 103.0 142.0 103.0 142.0 L103.0 158.0 L103.0 158.0 Z"></path>
<path fill="#000000" fill-opacity="1.0"  filling="0" d="M34.0 92.0 L103.0 121.0 L103.0 121.0 L103.0 121.0 C103.0 120.0 102.0 119.0 101.0 119.0 L99.0 119.0 C98.0 119.0 97.0 120.0 97.0 121.0 L97.0 121.0 L97.0 130.0 C97.0 132.0 98.0 134.0 100.0 134.0 L101.0 134.0 C102.0 134.0 103.0 132.0 103.0 130.0 L103.0 129.0 L103.0 129.0 L103.0 121.0 L103.0 129.0 L103.0 129.0 L103.0 129.0 L103.0 158.0 L103.0 158.0 L103.0 158.0 C103.0 159.0 102.0 160.0 101.0 160.0 L99.0 160.0 C98.0 160.0 97.0 159.0 97.0 158.0 L97.0 158.0 L97.0 151.0 C97.0 149.0 98.0 147.0 100.0 147.0 L101.0 147.0 C102.0 147.0 103.0 149.0 103.0 151.0 L103.0 159.0 L103.0 159.0 L103.0 159.0 L103.0 158.0 L103.0 159.0 L103.0 159.0 L103.0 129.0 L103.0 129.0 L103.0 129.0 L103.0 129.0 L103.0 129.0 L103.0 129.0 L103.0 121.0 L103.0 121.0 L103.0 121.0 C103.0 120.0 102.0 119.0 101.0 119.0 L100.0 119.0 C100.0 119.0 99.0 119.0 99.0 119.0 L100.0 119.0 C102.0 119.0 103.0 120.0 103.0 121.0 L103.0 121.0 L103.0 121.0 L103.0 121.0 L103.0 121.0 L103.0 121.0 L103.0 121.0 L103.0 121.0 L103.0 121.0 L103.0 121.0 L103.0 121.0 L103.0 121.0 L103.0 121.0 L103.0 121.0 L103.0 121.0 L103.0 121.0 L103.0 121.0 L103.0 121.0 L103.0 121.0 L103.0 121.0 L103.0 121.0 L103.0 121.0 L103.0 121.0 L103.0 121.0 L103.0 121.0 L103.0 121.0 L103.0 121.0 L103.0 121.0 L103.0 121.0 L103.0 121.0 L103.0 121.0 L103.0 121.0 L103.0 121.0 L103.0 121.0 L103.0 121.0 L103.0 121.0 L103.0 121.0 L103.0 121.0 L103.0 121.0 L103.0 121.0 L103.0 121.0 L103.0 121.0 L103.0 121.0 L103.0 121.0 L103.0 121.0 L103.0 121.0 L103.0 121.0 L103.0 121.0 L103.0 121.0 L103.0 121.0 L103.0 121.0 L103.0 121.0 L103.0 121.0 L103.0 121.0 L103.0 121.0 L103.0 121.0 L103.0 121.0 L103.0 121.0 L103.0 121.0 L103.0 121.0 L103.0 121.0 L103.0 121.0 L103.0 121.0 L103.0 121.0 L103.0 121.0 L103.0 121.0 L103.0 121.0 L103.0 121.0 L103.0 121.0 L103.0 121.0 L103.0 121.0 L103.0 121.0 L103.0 121.0 L103.0 121.0 L103.0 121.0 L103.0 121.0 L103.0 121.0 L103.0 121.0 L103.0 121.0 L103.0 121.0 L103.0 121.0 L103.0 121.0 L103.0 121.0 L103.0 121.0 L103.0 121.0 L103.0 121.0 L103.0 121.0 L103.0 121.0 L103.0 121.0 L103.0 121.0 L103.0 121.0 L103.0 121.0 L103.0 121.0 L103.0 121.0 L103.0 121.0 L103.0 121.0 L103.0 121.0 L103.0 121.0 L103.0 121.0 L103.0 121.0 L103.0 121.0 L103.0 121.0 L103.0 121.0 L103.0 121.0 L103.0 121.0 L103.0 121.0 L103.0 121.0 L103.0 121.0 L103.0 121.0 L103.0 121.0 L103.0 121.0 L103.0 121.0 L103.0 121.0 L103.0 121.0 L103.0 121.0 L103.0 121.0 L103.0 121.0 L103.0 121.0 L103.0 121.0 L103.0 121.0 L103.0 121.0 L103.0 121.0 L103.0 121.0 L103.0 121.0 L103.0 121.0 L103.0 121.0 L103.0 121.0 L103.0 121.0 L103.0 121.0 L103.0 121.0 L103.0 121.0 L103.0 121.0 L103.0 121.0 L103.0 121.0 L103.0 121.0 L103.0 121.0 L103.0 121.0 L103.0 121.0 L103.0 121.0 L103.0 121.0 L103.0 121.0 L103.0 121.0 L103.0 121.0 L103.0 121.0 L103.0 121.0 L103.0 121.0 L103.0 121.0 L103.0 121.0 L103.0 121.0 L103.0 121.0 L103.0 121.0 L103.0 121.0 L103.0 121.0 L103.0 121.0 L103.0 121.0 L103.0 121.0 L103.0 121.0 L103.0 121.0 L103.0 121.0 L103.0 121.0 L103.0 121.0 L103.0 121.0 L103.0 121.0 L103.0 121.0 L103.0 121.0 L103.0 121.0 L103.0 121.0 L103.0 121.0 L103.0 121.0 L103.0 121.0 L103.0 121.0 L103.0 121.0 L103.0 121.0 L103.0 121.0 L103.0 121.0 L103.0 121.0 L103.0 121.0 L103.0 121.0 L103.0 121.0 L103.0 121.0 L103.0 121.0 L103.0 121.0 L103.0 121.0 L103.0 121.0 L103.0 121.0 L103.0 121.0 L103.0 121.0 L103.0 121.0 L103.0 121.0 L103.0 121.0 L103.0 121.0 L103.0 121.0 L103.0 121.0 L103.0 121.0 L103.0 121.0 L103.0 121.0 L103.0 121.0 L103.0 121.0 L103.0 121.0 L103.0 121.0 L103.0 121.0 L103.0 121.0 L103.0 121.0 L103.0 121.0 L103.0 121.0 L103.0 121.0 L103.0 121.0 L103.0 121.0 L103.0 121.0 L103.0 121.0 L103.0 121.0 L103.0 121.0 L103.0 121.0 L103.0 121.0 L103.0 121.0 L103.0 121.0 L103.0 121.0 L103.0 121.0 L103.0 121.0 L103.0 121.0 L103.0 121.0 L103.0 121.0 L103.0 121.0 L103.0 121.0 L103.0 121.0 L103.0 121.0 L103.0 121.0 L103.0 121.0 L103.0 121.0 L103.0 121.0 L103.0 121.0 L103.0 121.0 L103.0 121.0 L103.0 121.0 L103.0 121.0 L103.0 121.0 L103.0 121.0 L103.0 121.0 L103.0 121.0 L103.0 121.0 L103.0 121.0 L103.0 121.0 L103.0 121.0 L103.0 121.0 L103.0 121.0 L103.0 121.0 L103.0 121.0 L103.0 121.0 L103.0 121.0 L103.0 121.0 L103.0 121.0 L103.0 121.0 L103.0 121.0 L103.0 121.0 L103.0 121.0 L103.0 121.0 L103.0 121.0 L103.0 121.0 L103.0 121.0 L103.0 121.0 L103.0 121.0 L103.0 121.0 L103.0 121.0 L103.0 121.0 L103.0 121.0 L103.0 121.0 L103.0 121.0 L103.0 121.0 L103.0 121.0 L103.0 121.0 L103.0 121.0 L103.0 121.0 L103.0 121.0 L103.0 121.0 L103.0 121.0 L103.0 121.0 L103.0 121.0 L103.0 121.0 L103.0 121.0 L103.0 121.0 L103.0 121.0 L103.0 121.0 L103.0 121.0 L103.0 121.0 L103.0 121.0 L103.0 121.0 L103.0 121.0 L103.0 121.0 L103.0 121.0 L103.0 121.0 L103.0 121.0 L103.0 121.0 L103.0 121.0 L103.0 121.0 L103.0 121.0 L103.0 121.0 L103.0 121.0 L103.0 121.0 L103.0 121.0 L103.0 121.0 L103.0 121.0 L103.0 121.0 L103.0 121.0 L103.0 121.0 L103.0 121.0 L103.0 121.0 L103.0 121.0 L103.0 121.0 L103.0 121.0 L103.0 121.0 L103.0 121.0 L103.0 121.0 L103.0 121.0 L103.0 121.0 L103.0 121.0 L103.0 121.0 L103.0 121.0 L103.0 121.0 L103.0 121.0 L103.0 121.0 L103.0 121.0 L103.0 121.0 L103.0 121.0 L103.0 121.0 L103.0 121.0 L103.0 121.0 L103.0 121.0 L103.0 121.0 L103.0 121.0 L103.0 121.0 L103.0 121.0 L103.0 121.0 L103.0 121.0 L103.0 121.0 L103.0 121.0 L103.0 121.0 L103.0 121.0 L103.0 121.0 L103.0 121.0 L103.0 121.0 L103.0 121.0 L103.0 121.0 L103.0 121.0 L103.0 121.0 L103.0 121.0 L103.0 121.0 L103.0 121.0 L103.0 121.0 L103.0 121.0 L103.0 121.0 L103.0 121.0 L103.0 121.0 L103.0 121.0 L103.0 121.0 L103.0 121.0 L103.0 121.0 L103.0 121.0 L103.0 121.0 L103.0 121.0 L103.0 121.0 L103.0 121.0 L103.0 121.0 L103.0 121.0 L103.0 121.0 L103.0 121.0 L103.0 121.0 L103.0 121.0 L103.0 121.0 L103.0 121.0 L103.0 121.0 L103.0 121.0 L103.0 121.0 L103.0 121.0 L103.0 121.0 L103.0 121.0 L103.0 121.0 L103.0 121.0 L103.0 121.0 L103.0 121.0 L103.0 121.0 L103.0 121.0 L103.0 121.0 L103.0 121.0 L103.0 121.0 L103.0 121.0 L103.0 121.0 L103.0 121.0 L103.0 121.0 L103.0 121.0 L103.0 121.0 L103.0 121.0 L103.0 121.0 L103.0 121.0 L103.0 121.0 L103.0 121.0 L103.0 121.0 L103.0 121.0 L103.0 121.0 L103.0 121.0 L103.0 121.0 L103.0 121.0 L103.0 121.0 L103.0 121.0 L103.0 121.0 L103.0 121.0 L103.0 121.0 L103.0 121.0 L103.0 121.0 L103.0 121.0 L103.0 121.0 L103.0 121.0 L103.0 121.0 L103.0 121.0 L103.0 121.0 L103.0 121.0 L103.0 121.0 L103.0 121.0 L103.0 121.0 L103.0 121.0 L103.0 121.0 L103.0 121.0 L103.0 121.0 L103.0 121.0 L103.0 121.0 L103.0 121.0 L103.0 121.0 L103.0 121.0 L103.0 121.0 L103.0 121.0 L103.0 121.0 L103.0 121.0 L103.0 121.0 L103.0 121.0 L103.0 121.0 L103.0 121.0 L103.0 121.0 L103.0 121.0 L103.0 121.0 L103.0 121.0 L103.0 121.0 L103.0 121.0 L103.0 121.0 L103.0 121.0 L103.0 121.0 L103.0 121.0 L103.0 121.0 L103.0 121.0 L103.0 121.0 L103.0 121.0 L103.0 121.0 L103.0 121.0 L103.0 121.0 L103.0 121.0 L103.0 121.0 L103.0 121.0 L103.0 121.0 L103.0 121.0 L103.0 121.0 L103.0 121.0 L103.0 121.0 L103.0 121.0 L103.0 121.0 L103.0 121.0 L103.0 121.0 L103.0 121.0 L103.0 121.0 L103.0 121.0 L103.0 121.0 L103.0 121.0 L103.0 121.0 L103.0 121.0 L103.0 121.0 L103.0 121.0 L103.0 121.0 L103.0 121.0 L103.0 121.0 L103.0 121.0 L103.0 121.0 L103.0 121.0 L103.0 121.0 L103.0 121.0 L103.0 121.0 L103.0 121.0 L103.0 121.0 L103.0 121.0 L103.0 121.0 L103.0 121.0 L103.0 121.0 L103.0 121.0 L103.0 121.0 L103.0 121.0 L103.0 121.0 L103.0 121.0 L103.0 121.0 L103.0 121.0 L103.0 121.0 L103.0 121.0 L103.0 121.0 L103.0 121.0 L103.0 121.0 L103.0 121.0 L103.0 121.0 L103.0 121.0 L103.0 121.0 L103.0 121.0 L103.0 121.0 L103.0 121.0 L103.0 121.0 L103.0 121.0 L103.0 121.0 L103.0 121.0 L103.0 121.0 L103.0 121.0 L103.0 121.0 L103.0 121.0 L103.0 121.0 L103.0 121.0 L103.0 121.0 L103.0 121.0 L103.0 121.0 L103.0 121.0 L103.0 121.0 L103.0 121.0 L103.0 121.0 L103.0 121.0 L103.0 121.0 L103.0 121.0 L103.0 121.0 L103.0 121.0 L103.0 121.0 L103.0 121.0 L103.0 121.0 L103.0 121.0 L103.0 121.0 L103.0 121.0 L103.0 121.0 L103.0 121.0 L103.0 121.0 L103.0 121.0 L103.0 121.0 L103.0 121.0 L103.0 121.0 L103.0 121.0 L103.0 121.0 L103.0 121.0 L103.0 121.0 L103.0 121.0 L103.0 121.0 L103.0 121.0 L103.0 121.0 L103.0 121.0 L103.0 121.0 L103.0 121.0 L103.0 121.0 L103.0 121.0 L103.0 121.0 L103.0 121.0 L103.0 121.0 L103.0 121.0 L103.0 121.0 L103.0 121.0 L103.0 121.0 L103.0 121.0 L103.0 121.0 L103.0 121.0 L103.0 121.0 L103.0 121.0 L103.0 121.0 L103.0 121.0 L103.0 121.0 L103.0 121.0 L103.0 121.0 L103.0 121.0 L103.0 121.0 L103.0 121.0 L103.0 121.0 L103.0 121.0 L103.0 121.0 L103.0 121.0 L103.0 121.0 L103.0 121.0 L103.0 121.0 L103.0 121.0 L103.0 121.0 L103.0 121.0 L103.0 121.0 L103.0 121.0 L103.0 121.0 L103.0 121.0 L103.0 121.0 L103.0 121.0 L103.0 121.0 L103.0 121.0 L103.0 121.0 L103.0 121.0 L103.0 121.0 L103.0 121.0 L103.0 121.0 L103.0 121.0 L103.0 121.0 L103.0 121.0 L103.0 121.0 L103.0 121.0 L103.0 121.0 L103.0 121.0 L103.0 121.0 L103.0 121.0 L103.0 121.0 L103.0 121.0 L103.0 121.0 L103.0 121.0 L103.0 121.0 L103.0 121.0 L103.0 121.0 L103.0 121.0 L103.0 121.0 L103.0 121.0 L103.0 121.0 L103.0 121.0 L103.0 121.0 L103.0 121.0 L103.0 121.0 L103.0 121.0 L103.0 121.0 L103.0 121.0 L103.0 121.0 L103.0 121.0 L103.0 121.0 L103.0 121.0 L103.0 121.0 L103.0 121.0 L103.0 121.0 L103.0 121.0 L103.0 121.0 L103.0 121.0 L103.0 121.0 L103.0 121.0 L103.0 121.0 L103.0 121.0 L103.0 121.0 L103.0 121.0 L103.0 121.0 L103.0 121.0 L103.0 121.0 L103.0 121.0 L103.0 121.0 L103.0 121.0 L103.0 121.0 L103.0 121.0 L103.0 121.0 L103.0 121.0 L103.0 121.0 L103.0 121.0 L103.0 121.0 L103.0 121.0 L103.0 121.0"></path></svg>