<svg xmlns="http://www.w3.org/2000/svg" viewBox="0.0 0.0 200.0 200.0" height="200px" width="200px"><path fill="#99dd77" fill-opacity="1.0"  filling="0" d="M138.0 163.0 L123.0 177.0 L77.0 177.0 L62.0 163.0 C66.0 145.0 78.0 137.0 78.0 137.0 L122.0 137.0 C122.0 137.0 134.0 145.0 138.0 163.0 L138.0 163.0 Z"></path>
<path fill="#ffeeee" fill-opacity="1.0"  filling="0" d="M77.0 162.0 L77.0 177.0 L60.0 177.0 C60.0 172.0 61.0 166.0 62.0 162.0 L77.0 162.0 L77.0 162.0 Z"></path>
<path fill="#ffeeee" fill-opacity="1.0"  filling="0" d="M140.0 177.0 L123.0 177.0 L123.0 162.0 L138.0 162.0 C139.0 166.0 140.0 172.0 140.0 177.0 L140.0 177.0 Z"></path>
<path fill="#ffdddd" fill-opacity="1.0"  filling="0" d="M100.0 147.0 C108.0 147.0 114.0 143.0 114.0 138.0 C114.0 133.0 108.0 129.0 100.0 129.0 C92.0 129.0 86.0 133.0 86.0 138.0 C86.0 143.0 92.0 147.0 100.0 147.0 L100.0 147.0 Z"></path>
<path fill="#eeeeee" fill-opacity="1.0"  filling="0" d="M99.0 141.0 L99.0 141.0 L99.0 141.0 L99.0 141.0 L99.0 141.0 L99.0 141.0 Z"></path>
<path fill="#eeeeee" fill-opacity="1.0"  filling="0" d="M99.0 141.0 L99.0 141.0 L99.0 141.0 L99.0 141.0 L99.0 141.0 L99.0 141.0 Z"></path>
<path fill="#eeeeee" fill-opacity="1.0"  filling="0" d="M99.0 141.0 L99.0 141.0 L99.0 141.0 L99.0 141.0 L99.0 141.0 L99.0 141.0 Z"></path>
<path fill="#eeeeee" fill-opacity="1.0"  filling="0" d="M99.0 141.0 L99.0 141.0 L99.0 141.0 L99.0 141.0 L99.0 141.0 L99.0 141.0 Z"></path>
<path fill="#ffdddd" fill-opacity="1.0"  filling="0" d="M49.0 107.0 C57.0 107.0 64.0 100.0 64.0 92.0 C64.0 84.0 57.0 77.0 49.0 77.0 C40.0 77.0 34.0 84.0 34.0 92.0 C34.0 100.0 40.0 107.0 49.0 107.0 L49.0 107.0 Z"></path>
<path fill="#ffdddd" fill-opacity="1.0"  filling="0" d="M151.0 107.0 C160.0 107.0 166.0 100.0 166.0 92.0 C166.0 84.0 160.0 77.0 151.0 77.0 C143.0 77.0 136.0 84.0 136.0 92.0 C136.0 100.0 143.0 107.0 151.0 107.0 L151.0 107.0 Z"></path>
<path fill="#ffeeee" fill-opacity="1.0"  filling="0" d="M100.0 142.0 C129.0 142.0 153.0 119.0 153.0 90.0 C153.0 61.0 129.0 37.0 100.0 37.0 C71.0 37.0 47.0 61.0 47.0 90.0 C47.0 119.0 71.0 142.0 100.0 142.0 L100.0 142.0 Z"></path>
<path fill="#556677" fill-opacity="1.0"  filling="0" d="M159.0 77.0 C158.0 77.0 157.0 77.0 156.0 77.0 C140.0 77.0 125.0 72.0 112.0 65.0 C98.0 73.0 82.0 78.0 65.0 78.0 C57.0 78.0 49.0 77.0 41.0 75.0 C44.0 58.0 53.0 43.0 67.0 34.0 C76.0 27.0 88.0 24.0 100.0 24.0 C112.0 24.0 124.0 27.0 133.0 34.0 C136.0 36.0 139.0 38.0 142.0 41.0 C151.0 50.0 157.0 63.0 159.0 77.0 L159.0 77.0 Z"></path>
<path fill="#440066" fill-opacity="1.0"  filling="0" d="M85.0 103.0 C84.0 103.0 83.0 102.0 83.0 100.0 L83.0 98.0 C83.0 97.0 84.0 96.0 85.0 96.0 C87.0 96.0 88.0 97.0 88.0 98.0 L88.0 100.0 C88.0 102.0 87.0 103.0 85.0 103.0 L85.0 103.0 Z"></path>
<path fill="#440066" fill-opacity="1.0"  filling="0" d="M115.0 103.0 C113.0 103.0 112.0 102.0 112.0 100.0 L112.0 98.0 C112.0 97.0 113.0 96.0 115.0 96.0 C116.0 96.0 117.0 97.0 117.0 98.0 L117.0 100.0 C117.0 102.0 116.0 103.0 115.0 103.0 L115.0 103.0 Z"></path>
<path fill="#440066" fill-opacity="1.0"  filling="0" d="M100.0 117.0 C97.0 117.0 94.0 115.0 92.0 113.0 C91.0 112.0 91.0 110.0 92.0 109.0 C93.0 109.0 94.0 109.0 95.0 110.0 C97.0 111.0 98.0 112.0 100.0 112.0 C102.0 112.0 103.0 111.0 105.0 110.0 C106.0 109.0 107.0 109.0 108.0 109.0 C109.0 110.0 109.0 112.0 108.0 113.0 C106.0 115.0 103.0 117.0 100.0 117.0 L100.0 117.0 Z"></path>
<path fill="#66ccff" fill-opacity="1.0"  filling="0" d="M159.0 77.0 C158.0 77.0 157.0 77.0 156.0 77.0 C140.0 77.0 125.0 72.0 112.0 65.0 C98.0 73.0 82.0 78.0 65.0 78.0 C57.0 78.0 49.0 77.0 41.0 75.0 C44.0 58.0 53.0 43.0 67.0 34.0 C76.0 27.0 88.0 24.0 100.0 24.0 C112.0 24.0 124.0 27.0 133.0 34.0 C136.0 36.0 139.0 38.0 142.0 41.0 C151.0 50.0 157.0 63.0 159.0 77.0 L159.0 77.0 Z"></path>
<path fill="#66ccff" fill-opacity="1.0"  filling="0" d="M47.0 64.0 C47.0 64.0 47.0 0.0 160.0 37.0 C160.0 37.0 149.0 41.0 152.0 64.0 L47.0 64.0 L47.0 64.0 Z"></path>
<path fill="#66ccff" fill-opacity="1.0"  filling="0" d="M152.0 34.0 A77.0 77.0 0.0 0 1 173.0 78.0 C173.0 79.0 173.0 79.0 173.0 80.0 C173.0 94.0 163.0 107.0 151.0 107.0 C145.0 107.0 140.0 104.0 136.0 100.0 L64.0 100.0 C60.0 104.0 55.0 107.0 49.0 107.0 C37.0 107.0 27.0 94.0 27.0 80.0 C27.0 79.0 27.0 79.0 27.0 78.0 C28.0 68.0 31.0 58.0 37.0 49.0 C38.0 49.0 38.0 48.0 39.0 47.0 C43.0 40.0 60.0 60.0 100.0 31.0 C100.0 31.0 101.0 31.0 101.0 31.0 C120.0 31.0 139.0 31.0 152.0 34.0 L152.0 34.0 Z"></path>
<path fill="#66ccff" fill-opacity="1.0"  filling="0" d="M63.0 52.0 C63.0 52.0 56.0 58.0 59.0 71.0 L47.0 71.0 L43.0 59.0 L63.0 52.0 L63.0 52.0 Z"></path>
<path fill="#66ccff" fill-opacity="1.0"  filling="0" d="M138.0 52.0 C138.0 52.0 144.0 58.0 141.0 71.0 L153.0 71.0 L157.0 59.0 L138.0 52.0 L138.0 52.0 Z"></path>
<path fill="#66ccff" fill-opacity="1.0"  filling="0" d="M110.0 23.0 L110.0 31.0 C110.0 37.0 102.0 40.0 101.0 41.0 C100.0 41.0 100.0 41.0 100.0 41.0 C99.0 41.0 99.0 41.0 99.0 41.0 C98.0 41.0 98.0 40.0 97.0 40.0 C94.0 38.0 89.0 35.0 89.0 31.0 L89.0 23.0 C89.0 22.0 91.0 21.0 92.0 21.0 L107.0 21.0 C109.0 21.0 110.0 22.0 110.0 23.0 L110.0 23.0 Z"></path>
<path fill="#ffffff" fill-opacity="1.0"  filling="0" d="M71.0 169.0 C71.0 169.0 70.0 173.0 67.0 173.0 C64.0 173.0 62.0 171.0 62.0 169.0 L62.0 169.0 C62.0 167.0 63.0 163.0 65.0 163.0 L71.0 163.0 C73.0 163.0 71.0 167.0 71.0 169.0 L71.0 169.0 L71.0 169.0 Z"></path></svg>