<svg xmlns="http://www.w3.org/2000/svg" viewBox="0.0 0.0 200.0 200.0" height="200px" width="200px"><path fill="#ffffee" fill-opacity="1.0"  filling="0" d="M131.0 88.0 L69.0 88.0 C67.0 88.0 65.0 86.0 65.0 84.0 C65.0 82.0 67.0 81.0 69.0 81.0 L131.0 81.0 C133.0 81.0 135.0 82.0 135.0 84.0 C135.0 86.0 133.0 88.0 131.0 88.0 L131.0 88.0 Z"></path>
<path fill="#ee6655" fill-opacity="1.0"  filling="0" d="M123.0 106.0 L77.0 106.0 C75.0 106.0 73.0 105.0 73.0 103.0 C73.0 101.0 75.0 100.0 77.0 100.0 L123.0 100.0 C125.0 100.0 127.0 101.0 127.0 103.0 C127.0 105.0 125.0 106.0 123.0 106.0 L123.0 106.0 Z M121.0 122.0 L79.0 122.0 C77.0 122.0 76.0 121.0 76.0 119.0 C76.0 117.0 77.0 116.0 79.0 116.0 L121.0 116.0 C123.0 116.0 124.0 117.0 124.0 119.0 C124.0 121.0 123.0 122.0 121.0 122.0 L121.0 122.0 Z"></path>
<path fill="#114466" fill-opacity="1.0"  filling="0" d="M125.0 138.0 L75.0 138.0 L82.0 72.0 L118.0 72.0 L125.0 138.0 L125.0 138.0 Z M81.0 138.0 L119.0 138.0 L112.0 78.0 L88.0 78.0 L81.0 138.0 L81.0 138.0 Z"></path>
<path fill="#114466" fill-opacity="1.0"  filling="0" d="M120.0 78.0 L80.0 78.0 C79.0 78.0 77.0 76.0 77.0 74.0 C77.0 73.0 79.0 71.0 80.0 71.0 L120.0 71.0 C121.0 71.0 123.0 73.0 123.0 74.0 C123.0 76.0 121.0 78.0 120.0 78.0 L120.0 78.0 Z M118.0 56.0 L82.0 56.0 C80.0 56.0 79.0 55.0 79.0 54.0 C79.0 53.0 80.0 52.0 81.0 52.0 L100.0 38.0 L119.0 52.0 C121.0 52.0 121.0 53.0 121.0 54.0 C121.0 55.0 120.0 56.0 118.0 56.0 L118.0 56.0 Z"></path>
<path fill="#114466" fill-opacity="1.0"  filling="0" d="M100.0 53.0 C98.0 53.0 97.0 52.0 97.0 50.0 L97.0 36.0 C97.0 35.0 98.0 33.0 100.0 33.0 C102.0 33.0 103.0 35.0 103.0 36.0 L103.0 50.0 C103.0 52.0 102.0 53.0 100.0 53.0 L100.0 53.0 Z"></path>
<path fill="#ffcc77" fill-opacity="1.0"  filling="0" d="M100.0 51.0 L119.0 54.0 L119.0 74.0 L81.0 74.0 L81.0 54.0 L100.0 51.0 L100.0 51.0 Z"></path>
<path fill="#114466" fill-opacity="1.0"  filling="0" d="M100.0 51.0 L119.0 54.0 L119.0 71.0 L81.0 71.0 L81.0 54.0 L100.0 51.0 M100.0 47.0 L100.0 47.0 L80.0 50.0 C78.0 50.0 76.0 52.0 76.0 54.0 L76.0 71.0 C76.0 73.0 78.0 75.0 80.0 75.0 L120.0 75.0 C122.0 75.0 124.0 73.0 124.0 71.0 L124.0 54.0 C124.0 52.0 122.0 50.0 120.0 50.0 L100.0 47.0 C100.0 47.0 100.0 47.0 100.0 47.0 L100.0 47.0 Z"></path>
<path fill="#eebb66" fill-opacity="1.0"  filling="0" d="M100.0 51.0 L119.0 54.0 L119.0 71.0 L100.0 71.0 L100.0 51.0 L100.0 51.0 Z"></path>
<path fill="#eebb66" fill-opacity="1.0"  filling="0" d="M100.0 51.0 L119.0 54.0 L119.0 71.0 L100.0 71.0 L100.0 51.0 L100.0 51.0 Z"></path>
<path fill="#114466" fill-opacity="1.0"  filling="0" d="M122.0 53.0 C122.0 53.0 122.0 53.0 122.0 53.0 L100.0 38.0 L78.0 53.0 C78.0 53.0 77.0 53.0 77.0 53.0 C76.0 53.0 75.0 52.0 75.0 52.0 C74.0 50.0 74.0 48.0 76.0 47.0 L98.0 32.0 C99.0 32.0 100.0 32.0 101.0 32.0 L124.0 47.0 C126.0 48.0 126.0 50.0 125.0 52.0 C125.0 53.0 124.0 53.0 123.0 53.0 L122.0 53.0 L122.0 53.0 Z"></path>
<path fill="#ffcc77" fill-opacity="1.0"  filling="0" d="M178.0 38.0 L119.0 54.0 L119.0 74.0 L178.0 90.0 C179.0 90.0 180.0 89.0 180.0 88.0 L180.0 39.0 C180.0 39.0 179.0 38.0 178.0 38.0 L178.0 38.0 Z M22.0 38.0 L81.0 54.0 L81.0 74.0 L22.0 90.0 C21.0 90.0 20.0 89.0 20.0 88.0 L20.0 39.0 C20.0 39.0 21.0 38.0 22.0 38.0 L22.0 38.0 Z"></path>
<path fill="#ffcc77" fill-opacity="1.0"  filling="0" d="M178.0 38.0 L119.0 54.0 L119.0 74.0 L178.0 90.0 C179.0 90.0 180.0 89.0 180.0 88.0 L180.0 39.0 C180.0 39.0 179.0 38.0 178.0 38.0 L178.0 38.0 Z M22.0 38.0 L81.0 54.0 L81.0 74.0 L22.0 90.0 C21.0 90.0 20.0 89.0 20.0 88.0 L20.0 39.0 C20.0 39.0 21.0 38.0 22.0 38.0 L22.0 38.0 Z"></path>
<path fill="#ffcc77" fill-opacity="1.0"  filling="0" d="M178.0 38.0 L119.0 54.0 L119.0 74.0 L178.0 90.0 C179.0 90.0 180.0 89.0 180.0 88.0 L180.0 39.0 C180.0 39.0 179.0 38.0 178.0 38.0 L178.0 38.0 Z M22.0 38.0 L81.0 54.0 L81.0 74.0 L22.0 90.0 C21.0 90.0 20.0 89.0 20.0 88.0 L20.0 39.0 C20.0 39.0 21.0 38.0 22.0 38.0 L22.0 38.0 Z"></path>
<path fill="#eebb66" fill-opacity="1.0"  filling="0" d="M178.0 38.0 L150.0 48.0 L150.0 88.0 L178.0 90.0 C179.0 90.0 180.0 89.0 180.0 88.0 L180.0 39.0 C180.0 39.0 179.0 38.0 178.0 38.0 L178.0 38.0 Z"></path>
<path fill="#eebb66" fill-opacity="1.0"  filling="0" d="M22.0 38.0 L75.0 48.0 L75.0 88.0 L22.0 90.0 C21.0 90.0 20.0 89.0 20.0 88.0 L20.0 39.0 C20.0 39.0 21.0 38.0 22.0 38.0 L22.0 38.0 Z"></path>
<path fill="#ffcc77" fill-opacity="1.0"  filling="0" d="M178.0 38.0 L119.0 54.0 L119.0 74.0 L178.0 90.0 C179.0 90.0 180.0 89.0 180.0 88.0 L180.0 39.0 C180.0 39.0 179.0 38.0 178.0 38.0 L178.0 38.0 Z M22.0 38.0 L81.0 54.0 L81.0 74.0 L22.0 90.0 C21.0 90.0 20.0 89.0 20.0 88.0 L20.0 39.0 C20.0 39.0 21.0 38.0 22.0 38.0 L22.0 38.0 Z"></path>
<path fill="#eebb66" fill-opacity="1.0"  filling="0" d="M178.0 38.0 L125.0 48.0 L125.0 88.0 L178.0 90.0 C179.0 90.0 180.0 89.0 180.0 88.0 L180.0 39.0 C180.0 39.0 179.0 38.0 178.0 38.0 L178.0 38.0 Z"></path>
<path fill="#eebb66" fill-opacity="1.0"  filling="0" d="M22.0 38.0 L75.0 48.0 L75.0 88.0 L22.0 90.0 C21.0 90.0 20.0 89.0 20.0 88.0 L20.0 39.0 C20.0 39.0 21.0 38.0 22.0 38.0 L22.0 38.0 Z"></path>
<path fill="#eebb66" fill-opacity="1.0"  filling="0" d="M178.0 38.0 L119.0 54.0 L119.0 74.0 L178.0 90.0 C179.0 90.0 180.0 89.0 180.0 88.0 L180.0 39.0 C180.0 39.0 179.0 38.0 178.0 38.0 L178.0 38.0 Z"></path>
<path fill="#eebb66" fill-opacity="1.0"  filling="0" d="M22.0 38.0 L81.0 54.0 L81.0 74.0 L22.0 90.0 C21.0 90.0 20.0 89.0 20.0 88.0 L20.0 39.0 C20.0 39.0 21.0 38.0 22.0 38.0 L22.0 38.0 Z"></path>
<path fill="#114466" fill-opacity="1.0"  filling="0" d="M178.0 162.0 C177.0 162.0 176.0 161.0 175.0 160.0 C175.0 158.0 176.0 157.0 177.0 156.0 C179.0 156.0 181.0 155.0 182.0 154.0 C183.0 153.0 184.0 152.0 185.0 151.0 C185.0 150.0 186.0 149.0 188.0 150.0 C189.0 150.0 190.0 152.0 189.0 154.0 C188.0 156.0 186.0 157.0 185.0 159.0 C183.0 159.0 182.0 160.0 180.0 161.0 C179.0 161.0 179.0 161.0 178.0 162.0 C178.0 162.0 178.0 162.0 178.0 162.0 L178.0 162.0 Z M177.0 148.0 C176.0 148.0 175.0 147.0 175.0 146.0 C174.0 144.0 175.0 143.0 177.0 142.0 C178.0 142.0 180.0 142.0 181.0 141.0 C182.0 140.0 183.0 138.0 183.0 137.0 C184.0 136.0 184.0 135.0 186.0 135.0 C187.0 135.0 188.0 136.0 188.0 138.0 C188.0 140.0 186.0 142.0 185.0 144.0 C183.0 145.0 181.0 146.0 178.0 147.0 C178.0 148.0 178.0 148.0 177.0 148.0 L177.0 148.0 Z M183.0 134.0 C182.0 134.0 181.0 133.0 180.0 132.0 C180.0 130.0 180.0 128.0 181.0 127.0 C182.0 126.0 183.0 125.0 184.0 124.0 C185.0 123.0 185.0 122.0 186.0 121.0 C187.0 119.0 188.0 119.0 189.0 119.0 C191.0 119.0 192.0 121.0 192.0 122.0 C191.0 124.0 190.0 125.0 189.0 127.0 C188.0 128.0 186.0 129.0 185.0 130.0 C184.0 130.0 184.0 131.0 184.0 131.0 C184.0 132.0 183.0 134.0 183.0 134.0 L183.0 134.0 Z M183.0 119.0 C182.0 119.0 181.0 119.0 180.0 118.0 C179.0 117.0 178.0 115.0 179.0 114.0 C179.0 113.0 179.0 112.0 180.0 111.0 C181.0 110.0 182.0 109.0 183.0 108.0 C184.0 107.0 185.0 107.0 186.0 107.0 C187.0 107.0 189.0 108.0 189.0 110.0 C189.0 111.0 188.0 113.0 187.0 114.0 C186.0 115.0 185.0 116.0 184.0 117.0 C184.0 117.0 184.0 117.0 184.0 117.0 C184.0 118.0 184.0 119.0 183.0 119.0 L183.0 119.0 Z M184.0 105.0 C183.0 105.0 182.0 104.0 182.0 103.0 C181.0 101.0 181.0 99.0 182.0 98.0 C182.0 96.0 183.0 96.0 184.0 96.0 C186.0 95.0 187.0 96.0 187.0 98.0 C187.0 99.0 187.0 101.0 187.0 102.0 C187.0 103.0 186.0 104.0 185.0 104.0 C185.0 105.0 184.0 105.0 184.0 105.0 L184.0 105.0 Z"></path>
<path fill="#114466" fill-opacity="1.0"  filling="0" d="M22.0 162.0 C22.0 162.0 22.0 162.0 22.0 162.0 C21.0 161.0 21.0 161.0 20.0 161.0 C18.0 160.0 17.0 159.0 15.0 158.0 C14.0 157.0 12.0 155.0 11.0 154.0 C10.0 152.0 11.0 150.0 12.0 150.0 C14.0 149.0 15.0 150.0 15.0 151.0 C16.0 152.0 17.0 153.0 18.0 154.0 C19.0 155.0 21.0 156.0 23.0 156.0 C24.0 157.0 25.0 158.0 25.0 160.0 C24.0 161.0 23.0 162.0 22.0 162.0 L22.0 162.0 Z M23.0 148.0 C22.0 148.0 22.0 148.0 22.0 147.0 C19.0 146.0 17.0 145.0 15.0 144.0 C14.0 142.0 12.0 140.0 12.0 138.0 C12.0 136.0 13.0 135.0 14.0 135.0 C16.0 135.0 16.0 136.0 17.0 137.0 C17.0 138.0 18.0 140.0 19.0 141.0 C20.0 142.0 22.0 142.0 23.0 142.0 C25.0 143.0 26.0 144.0 25.0 146.0 C25.0 147.0 24.0 148.0 23.0 148.0 L23.0 148.0 Z M17.0 134.0 C17.0 134.0 16.0 132.0 16.0 131.0 C16.0 131.0 16.0 130.0 15.0 130.0 C14.0 129.0 12.0 128.0 11.0 126.0 C10.0 125.0 9.0 123.0 8.0 122.0 C8.0 121.0 9.0 119.0 11.0 119.0 C12.0 119.0 13.0 120.0 14.0 121.0 C15.0 122.0 15.0 123.0 16.0 124.0 C17.0 125.0 18.0 126.0 19.0 127.0 C20.0 128.0 20.0 130.0 20.0 132.0 C19.0 133.0 18.0 134.0 17.0 134.0 L17.0 134.0 Z M17.0 119.0 C16.0 119.0 16.0 118.0 16.0 117.0 C16.0 117.0 16.0 117.0 16.0 117.0 C15.0 116.0 14.0 115.0 13.0 114.0 C12.0 113.0 12.0 111.0 11.0 110.0 C11.0 108.0 13.0 107.0 14.0 107.0 C15.0 107.0 16.0 107.0 17.0 108.0 C18.0 109.0 19.0 110.0 20.0 111.0 C21.0 112.0 21.0 113.0 21.0 114.0 C22.0 116.0 21.0 117.0 20.0 118.0 C19.0 119.0 18.0 119.0 17.0 119.0 L17.0 119.0 Z"></path>
<path fill="#114466" fill-opacity="1.0"  filling="0" d="M57.0 166.0 C58.0 166.0 58.0 166.0 59.0 166.0 C61.0 166.0 63.0 166.0 65.0 165.0 C66.0 164.0 69.0 164.0 71.0 163.0 C73.0 163.0 75.0 163.0 77.0 164.0 C79.0 164.0 80.0 164.0 81.0 164.0 C84.0 165.0 87.0 165.0 90.0 164.0 C92.0 164.0 93.0 163.0 95.0 163.0 C97.0 162.0 99.0 162.0 101.0 162.0 C103.0 162.0 105.0 162.0 107.0 163.0 C108.0 163.0 109.0 164.0 111.0 164.0 C114.0 165.0 117.0 165.0 120.0 164.0 C121.0 164.0 123.0 163.0 124.0 163.0 C127.0 162.0 130.0 162.0 133.0 163.0 C134.0 164.0 135.0 164.0 137.0 164.0 C139.0 165.0 141.0 166.0 143.0 166.0 C144.0 166.0 146.0 166.0 147.0 166.0 C148.0 167.0 148.0 168.0 148.0 169.0 C148.0 170.0 147.0 172.0 145.0 172.0 C144.0 172.0 143.0 172.0 142.0 172.0 C140.0 172.0 138.0 172.0 136.0 171.0 C135.0 170.0 134.0 170.0 132.0 170.0 C130.0 169.0 128.0 169.0 126.0 170.0 C125.0 170.0 124.0 171.0 122.0 171.0 C119.0 172.0 115.0 172.0 111.0 171.0 C110.0 171.0 109.0 170.0 107.0 170.0 C104.0 169.0 101.0 169.0 98.0 170.0 C97.0 170.0 96.0 170.0 94.0 171.0 C91.0 172.0 87.0 172.0 83.0 172.0 C80.0 171.0 78.0 170.0 75.0 170.0 C73.0 169.0 71.0 169.0 69.0 170.0 C67.0 170.0 66.0 171.0 64.0 171.0 C63.0 172.0 61.0 172.0 59.0 172.0 C58.0 172.0 56.0 172.0 55.0 172.0 C53.0 171.0 52.0 170.0 53.0 169.0 C53.0 167.0 54.0 166.0 55.0 166.0 C56.0 166.0 56.0 166.0 57.0 166.0 L57.0 166.0 Z"></path>
<path fill="#000000" fill-opacity="1.0"  filling="0" d="M57.0 159.0 C59.0 159.0 60.0 159.0 62.0 159.0 C64.0 158.0 66.0 158.0 67.0 157.0 C71.0 157.0 75.0 157.0 79.0 158.0 C80.0 158.0 82.0 159.0 83.0 159.0 C86.0 159.0 88.0 159.0 90.0 158.0 C92.0 158.0 93.0 157.0 95.0 157.0 C98.0 156.0 102.0 156.0 106.0 157.0 C107.0 157.0 109.0 158.0 111.0 158.0 C114.0 159.0 117.0 159.0 120.0 158.0 C121.0 158.0 122.0 157.0 123.0 157.0 C127.0 156.0 131.0 156.0 134.0 157.0 C135.0 158.0 137.0 158.0 138.0 159.0 C141.0 159.0 145.0 159.0 149.0 158.0 C151.0 158.0 152.0 157.0 154.0 156.0 C155.0 156.0 156.0 155.0 156.0 154.0 C157.0 153.0 157.0 151.0 156.0 150.0 C155.0 149.0 153.0 149.0 152.0 150.0 C151.0 150.0 151.0 151.0 150.0 152.0 C149.0 152.0 148.0 152.0 147.0 152.0 C144.0 153.0 141.0 153.0 139.0 152.0 C138.0 152.0 137.0 151.0 136.0 151.0 C133.0 150.0 130.0 150.0 127.0 150.0 C123.0 151.0 120.0 152.0 116.0 153.0 C115.0 153.0 113.0 153.0 111.0 153.0 C109.0 152.0 107.0 152.0 105.0 152.0 C102.0 151.0 99.0 151.0 96.0 152.0"></path></svg>