<svg xmlns="http://www.w3.org/2000/svg" viewBox="0.0 0.0 200.0 200.0" height="200px" width="200px"><path fill="#ffffee" fill-opacity="1.0"  filling="0" d="M131.0 88.0 L69.0 88.0 C68.0 88.0 67.0 89.0 67.0 90.0 L67.0 144.0 C67.0 145.0 68.0 146.0 69.0 146.0 L131.0 146.0 C132.0 146.0 133.0 145.0 133.0 144.0 L133.0 90.0 C133.0 89.0 132.0 88.0 131.0 88.0 L131.0 88.0 Z"></path>
<path fill="#ffeecc" fill-opacity="1.0"  filling="0" d="M131.0 88.0 L100.0 88.0 L100.0 146.0 L131.0 146.0 C132.0 146.0 133.0 145.0 133.0 144.0 L133.0 90.0 C133.0 89.0 132.0 88.0 131.0 88.0 L131.0 88.0 Z"></path>
<path fill="#ee6666" fill-opacity="1.0"  filling="0" d="M67.0 122.0 L67.0 144.0 C67.0 145.0 68.0 146.0 69.0 146.0 L131.0 146.0 C132.0 146.0 133.0 145.0 133.0 144.0 L133.0 122.0 L67.0 122.0 L67.0 122.0 Z"></path>
<path fill="#dd5555" fill-opacity="1.0"  filling="0" d="M100.0 122.0 L100.0 146.0 L131.0 146.0 C132.0 146.0 133.0 145.0 133.0 144.0 L133.0 122.0 L100.0 122.0 L100.0 122.0 L100.0 122.0 Z"></path>
<path fill="#335577" fill-opacity="1.0"  filling="0" d="M81.0 128.0 C80.0 128.0 80.0 128.0 80.0 128.0 C79.0 128.0 78.0 126.0 78.0 125.0 L84.0 36.0 C84.0 34.0 85.0 33.0 87.0 33.0 C89.0 33.0 90.0 35.0 90.0 36.0 L83.0 125.0 C83.0 127.0 82.0 128.0 81.0 128.0 L81.0 128.0 Z"></path>
<path fill="#335577" fill-opacity="1.0"  filling="0" d="M120.0 128.0 C118.0 128.0 117.0 127.0 117.0 125.0 L110.0 36.0 C110.0 35.0 111.0 33.0 113.0 33.0 C115.0 33.0 116.0 34.0 116.0 36.0 L122.0 125.0 C122.0 126.0 121.0 128.0 120.0 128.0 C120.0 128.0 120.0 128.0 120.0 128.0 L120.0 128.0 Z"></path>
<path fill="#335577" fill-opacity="1.0"  filling="0" d="M120.0 40.0 L80.0 40.0 C78.0 40.0 77.0 39.0 77.0 37.0 C77.0 35.0 78.0 34.0 80.0 34.0 L120.0 34.0 C122.0 34.0 123.0 35.0 123.0 37.0 C123.0 39.0 122.0 40.0 120.0 40.0 L120.0 40.0 Z"></path>
<path fill="#223344" fill-opacity="1.0"  filling="0" d="M120.0 40.0 L100.0 40.0 L100.0 34.0 L120.0 34.0 C122.0 34.0 123.0 35.0 123.0 37.0 C123.0 39.0 122.0 40.0 120.0 40.0 L120.0 40.0 Z"></path>
<path fill="#335577" fill-opacity="1.0"  filling="0" d="M80.0 78.0 C78.0 78.0 77.0 76.0 77.0 75.0 C77.0 73.0 78.0 72.0 80.0 72.0 L120.0 72.0 C122.0 72.0 123.0 73.0 123.0 75.0 C123.0 76.0 122.0 78.0 120.0 78.0 L80.0 78.0 L80.0 78.0 Z"></path>
<path fill="#223344" fill-opacity="1.0"  filling="0" d="M80.0 122.0 L120.0 128.0 C120.0 128.0 120.0 128.0 120.0 128.0 C121.0 128.0 122.0 126.0 122.0 125.0 L120.0 122.0 L80.0 122.0 L80.0 122.0 Z"></path>
<path fill="#223344" fill-opacity="1.0"  filling="0" d="M120.0 72.0 L100.0 72.0 L100.0 78.0 L120.0 78.0 C122.0 78.0 123.0 76.0 123.0 75.0 C123.0 73.0 122.0 72.0 120.0 72.0 L120.0 72.0 Z"></path>
<path fill="#223344" fill-opacity="1.0"  filling="0" d="M100.0 35.0 C98.0 35.0 97.0 34.0 97.0 32.0 L97.0 36.0 C97.0 35.0 98.0 33.0 100.0 33.0 C102.0 33.0 103.0 35.0 103.0 36.0 L103.0 32.0 C103.0 34.0 102.0 35.0 100.0 35.0 L100.0 35.0 Z"></path>
<path fill="#335577" fill-opacity="1.0"  filling="0" d="M100.0 51.0 C98.0 51.0 97.0 49.0 97.0 48.0 L97.0 36.0 C97.0 35.0 98.0 33.0 100.0 33.0 C102.0 33.0 103.0 35.0 103.0 36.0 L103.0 48.0 C103.0 49.0 102.0 51.0 100.0 51.0 L100.0 51.0 Z"></path>
<path fill="#223344" fill-opacity="1.0"  filling="0" d="M100.0 53.0 C98.0 53.0 97.0 52.0 97.0 50.0 L97.0 48.0 C97.0 49.0 98.0 51.0 100.0 51.0 C102.0 51.0 103.0 49.0 103.0 48.0 L103.0 50.0 C103.0 52.0 102.0 53.0 100.0 53.0 L100.0 53.0 Z"></path>
<path fill="#335577" fill-opacity="1.0"  filling="0" d="M100.0 59.0 C98.0 59.0 97.0 58.0 97.0 56.0 L97.0 48.0 C97.0 49.0 98.0 51.0 100.0 51.0 C102.0 51.0 103.0 49.0 103.0 48.0 L103.0 56.0 C103.0 58.0 102.0 59.0 100.0 59.0 L100.0 59.0 Z"></path>
<path fill="#223344" fill-opacity="1.0"  filling="0" d="M100.0 60.0 C98.0 60.0 97.0 59.0 97.0 57.0 L97.0 56.0 C97.0 58.0 98.0 59.0 100.0 59.0 C102.0 59.0 103.0 58.0 103.0 56.0 L103.0 57.0 C103.0 59.0 102.0 60.0 100.0 60.0 L100.0 60.0 Z"></path>
<path fill="#335577" fill-opacity="1.0"  filling="0" d="M100.0 67.0 C98.0 67.0 97.0 66.0 97.0 64.0 L97.0 62.0 C97.0 63.0 98.0 65.0 100.0 65.0 C102.0 65.0 103.0 63.0 103.0 62.0 L103.0 64.0 C103.0 66.0 102.0 67.0 100.0 67.0 L100.0 67.0 Z"></path>
<path fill="#223344" fill-opacity="1.0"  filling="0" d="M100.0 83.0 C98.0 83.0 97.0 82.0 97.0 80.0 L97.0 64.0 C97.0 66.0 98.0 67.0 100.0 67.0 C102.0 67.0 103.0 66.0 103.0 64.0 L103.0 80.0 C103.0 82.0 102.0 83.0 100.0 83.0 L100.0 83.0 Z"></path>
<path fill="#335577" fill-opacity="1.0"  filling="0" d="M100.0 85.0 C98.0 85.0 97.0 83.0 97.0 81.0 L97.0 80.0 C97.0 82.0 98.0 83.0 100.0 83.0 C102.0 83.0 103.0 82.0 103.0 80.0 L103.0 81.0 C103.0 83.0 102.0 85.0 100.0 85.0 L100.0 85.0 Z"></path>
<path fill="#335577" fill-opacity="1.0"  filling="0" d="M100.0 93.0 C98.0 93.0 97.0 92.0 97.0 90.0 L97.0 88.0 C97.0 89.0 98.0 90.0 100.0 90.0 C102.0 90.0 103.0 89.0 103.0 88.0 L103.0 90.0 C103.0 92.0 102.0 93.0 100.0 93.0 L100.0 93.0 Z"></path>
<path fill="#223344" fill-opacity="1.0"  filling="0" d="M100.0 106.0 C98.0 106.0 97.0 105.0 97.0 104.0 L97.0 90.0 C97.0 91.0 98.0 93.0 100.0 93.0 C102.0 93.0 103.0 91.0 103.0 90.0 L103.0 104.0 C103.0 105.0 102.0 106.0 100.0 106.0 L100.0 106.0 Z"></path>
<path fill="#335577" fill-opacity="1.0"  filling="0" d="M100.0 108.0 C98.0 108.0 97.0 107.0 97.0 106.0 L97.0 104.0 C97.0 105.0 98.0 106.0 100.0 106.0 C102.0 106.0 103.0 105.0 103.0 104.0 L103.0 106.0 C103.0 107.0 102.0 108.0 100.0 108.0 L100.0 108.0 Z"></path>
<path fill="#335577" fill-opacity="1.0"  filling="0" d="M100.0 117.0 C98.0 117.0 97.0 116.0 97.0 115.0 L97.0 112.0 C97.0 113.0 98.0 115.0 100.0 115.0 C102.0 115.0 103.0 113.0 103.0 112.0 L103.0 115.0 C103.0 116.0 102.0 117.0 100.0 117.0 L100.0 117.0 Z"></path>
<path fill="#223344" fill-opacity="1.0"  filling="0" d="M100.0 129.0 C98.0 129.0 97.0 128.0 97.0 127.0 L97.0 115.0 C97.0 116.0 98.0 117.0 100.0 117.0 C102.0 117.0 103.0 116.0 103.0 115.0 L103.0 127.0 C103.0 128.0 102.0 129.0 100.0 129.0 L100.0 129.0 Z"></path>
<path fill="#335577" fill-opacity="1.0"  filling="0" d="M100.0 130.0 C98.0 130.0 97.0 129.0 97.0 127.0 L97.0 127.0 C97.0 128.0 98.0 129.0 100.0 129.0 C102.0 129.0 103.0 128.0 103.0 127.0 L103.0 127.0 C103.0 129.0 102.0 130.0 100.0 130.0 L100.0 130.0 Z"></path>
<path fill="#335577" fill-opacity="1.0"  filling="0" d="M100.0 148.0 C98.0 148.0 97.0 147.0 97.0 145.0 L97.0 141.0 C97.0 142.0 98.0 143.0 100.0 143.0 C102.0 143.0 103.0 142.0 103.0 141.0 L103.0 145.0 C103.0 147.0 102.0 148.0 100.0 148.0 L100.0 148.0 Z"></path>
<path fill="#223344" fill-opacity="1.0"  filling="0" d="M100.0 159.0 C98.0 159.0 97.0 157.0 97.0 156.0 L97.0 145.0 C97.0 147.0 98.0 148.0 100.0 148.0 C102.0 148.0 103.0 147.0 103.0 145.0 L103.0 156.0 C103.0 157.0 102.0 159.0 100.0 159.0 L100.0 159.0 Z"></path>
<path fill="#335577" fill-opacity="1.0"  filling="0" d="M100.0 161.0 C98.0 161.0 97.0 160.0 97.0 158.0 L97.0 156.0 C97.0 157.0 98.0 159.0 100.0 159.0 C102.0 159.0 103.0 157.0 103.0 156.0 L103.0 158.0 C103.0 160.0 102.0 161.0 100.0 161.0 L100.0 161.0 Z"></path>
<path fill="#223344" fill-opacity="1.0"  filling="0" d="M100.0 172.0 C98.0 172.0 97.0 171.0 97.0 169.0 L97.0 158.0 C97.0 160.0 98.0 161.0 100.0 161.0 C102.0 161.0 103.0 160.0 103.0 158.0 L103.0 169.0 C103.0 171.0 102.0 172.0 100.0 172.0 L100.0 172.0 Z"></path>
<path fill="#335577" fill-opacity="1.0"  filling="0" d="M100.0 172.0 C98.0 172.0 97.0 171.0 97.0 169.0 L97.0 169.0 C97.0 170.0 98.0 171.0 100.0 171.0 C102.0 171.0 103.0 170.0 103.0 169.0 L103.0 169.0 C103.0 171.0 102.0 172.0 100.0 172.0 L100.0 172.0 Z"></path>
<path fill="#223344" fill-opacity="1.0"  filling="0" d="M100.0 159.0 C98.0 159.0 97.0 157.0 97.0 156.0 L97.0 156.0 C97.0 157.0 98.0 158.0 100.0 158.0 C102.0 158.0 103.0 157.0 103.0 156.0 L103.0 156.0 C103.0 157.0 102.0 159.0 100.0 159.0 L100.0 159.0 Z"></path>
<path fill="#223344" fill-opacity="1.0"  filling="0" d="M100.0 148.0 C98.0 148.0 97.0 147.0 97.0 145.0 L97.0 144.0 C97.0 146.0 98.0 147.0 100.0 147.0 C102.0 147.0 103.0 146.0 103.0 144.0 L103.0 145.0 C103.0 147.0 102.0 148.0 100.0 148.0 L100.0 148.0 Z"></path>
<path fill="#223344" fill-opacity="1.0"  filling="0" d="M100.0 162.0 C98.0 162.0 97.0 161.0 97.0 159.0 L97.0 156.0 C97.0 157.0 98.0 159.0 100.0 159.0 C102.0 159.0 103.0 157.0 103.0 156.0 L103.0 159.0 C103.0 161.0 102.0 162.0 100.0 162.0 L100.0 162.0 Z"></path>
<path fill="#223344" fill-opacity="1.0"  filling="0" d="M100.0 172.0 C98.0 172.0 97.0 171.0 97.0 169.0 L97.0 168.0 C97.0 170.0 98.0 171.0 100.0 171.0 C102.0 171.0 103.0 170.0 103.0 168.0 L103.0 169.0 C103.0 171.0 102.0 172.0 100.0 172.0 L100.0 172.0 Z"></path>
<path fill="#223344" fill-opacity="1.0"  filling="0" d="M100.0 159.0 C98.0 159.0 97.0 157.0 97.0 156.0 L97.0 156.0 C97.0 157.0 98.0 158.0 100.0 158.0 C102.0 158.0 103.0 157.0 103.0 156.0 L103.0 156.0 C103.0 157.0 102.0 159.0 100.0 159.0 L100.0 159.0 Z"></path>
<path fill="#223344" fill-opacity="1.0"  filling="0" d="M100.0 148.0 C98.0 148.0 97.0 147.0 97.0 145.0 L97.0 144.0 C97.0 146.0 98.0 147.0 100.0 147.0 C102.0 147.0 103.0 146.0 103.0 144.0 L103.0 145.0 C103.0 147.0 102.0 148.0 100.0 148.0 L100.0 148.0 Z"></path>
<path fill="#223344" fill-opacity="1.0"  filling="0" d="M100.0 172.0 C98.0 172.0 97.0 171.0 97.0 169.0 L97.0 156.0 C97.0 157.0 98.0 159.0 100.0 159.0 C102.0 159.0 103.0 157.0 103.0 156.0 L103.0 169.0 C103.0 171.0 102.0 172.0 100.0 172.0 L100.0 172.0 Z"></path>
<path fill="#223344" fill-opacity="1.0"  filling="0" d="M100.0 172.0 C98.0 172.0 97.0 171.0 97.0 169.0 L97.0 168.0 C97.0 170.0 98.0 171.0 100.0 171.0 C102.0 171.0 103.0 170.0 103.0 168.0 L103.0 169.0 C103.0 171.0 102.0 172.0 100.0 172.0 L100.0 172.0 Z"></path>
<path fill="#223344" fill-opacity="1.0"  filling="0" d="M100.0 142.0 C98.0 142.0 97.0 141.0 97.0 139.0 L97.0 141.0 C97.0 142.0 98.0 143.0 100.0 143.0 C102.0 143.0 103.0 142.0 103.0 141.0 L103.0 139.0 C103.0 141.0 102.0 142.0 100.0 142.0 L100.0 142.0 Z"></path>
<path fill="#223344" fill-opacity="1.0"  filling="0" d="M100.0 126.0 C98.0 126.0 97.0 124.0 97.0 123.0 L97.0 123.0 C97.0 124.0 98.0 125.0 100.0 125.0 C102.0 125.0 103.0 124.0 103.0 123.0 L103.0 123.0 C103.0 124.0 102.0 126.0 100.0 126.0 L100.0 126.0 Z"></path>
<path fill="#223344" fill-opacity="1.0"  filling="0" d="M100.0 112.0 C98.0 112.0 97.0 111.0 97.0 109.0 L97.0 108.0 C97.0 109.0 98.0 110.0 100.0 110.0 C102.0 110.0 103.0 109.0 103.0 108.0 L103.0 109.0 C103.0 111.0 102.0 112.0 100.0 112.0 L100.0 112.0 Z"></path>
<path fill="#223344" fill-opacity="1.0"  filling="0" d="M100.0 99.0 C98.0 99.0 97.0 98.0 97.0 96.0 L97.0 97.0 C97.0 98.0 98.0 99.0 100.0 99.0 C102.0 99.0 103.0 98.0 103.0 97.0 L103.0 96.0 C103.0 98.0 102.0 99.0 100.0 99.0 L100.0 99.0 Z"></path>
<path fill="#223344" fill-opacity="1.0"  filling="0" d="M100.0 84.0 C98.0 84.0 97.0 83.0 97.0 81.0 L97.0 80.0 C97.0 82.0 98.0 83.0 100.0 83.0 C102.0 83.0 103.0 82.0 103.0 80.0 L103.0 81.0 C103.0 83.0 102.0 84.0 100.0 84.0 L100.0 84.0 Z"></path>
<path fill="#223344" fill-opacity="1.0"  filling="0" d="M100.0 70.0 C98.0 70.0 97.0 69.0 97.0 67.0 L97.0 68.0 C97.0 69.0 98.0 70.0 100.0 70.0 C102.0 70.0 103.0 69.0 103.0 68.0 L103.0 67.0 C103.0 69.0 102.0 70.0 100.0 70.0 L100.0 70.0 Z"></path>
<path fill="#223344" fill-opacity="1.0"  filling="0" d="M100.0 56.0 C98.0 56.0 97.0 54.0 97.0 53.0 L97.0 54.0 C97.0 56.0 98.0 57.0 100.0 57.0 C102.0 57.0 103.0 56.0 103.0 54.0 L103.0 53.0 C103.0 54.0 102.0 56.0 100.0 56.0 L100.0 56.0 Z"></path>
<path fill="#223344" fill-opacity="1.0"  filling="0" d="M100.0 45.0 C98.0 45.0 97.0 43.0 97.0 42.0 L97.0 48.0 C97.0 49.0 98.0 50.0 100.0 50.0 C102.0 50.0 103.0 49.0 103.0 48.0 L103.0 42.0 C103.0 43.0 102.0 45.0 100.0 45.0 L100.0 45.0 Z"></path>
<path fill="#223344" fill-opacity="1.0"  filling="0" d="M100.0 60.0 C98.0 60.0 97.0 59.0 97.0 58.0 L97.0 56.0 C97.0 58.0 98.0 59.0 100.0 59.0 C102.0 59.0 103.0 58.0 103.0 56.0 L103.0 58.0 C103.0 59.0 102.0 60.0 100.0 60.0 L100.0 60.0 Z"></path>
<path fill="none" fill-opacity="1.0" filling="0" d="M0.0 M.0 Z"></path></svg>