<svg xmlns="http://www.w3.org/2000/svg" viewBox="0.0 0.0 200.0 200.0" height="200px" width="200px"><path fill="#ffffee" fill-opacity="1.0"  filling="0" d="M131.0 88.0 L69.0 88.0 C67.0 88.0 65.0 86.0 65.0 84.0 C65.0 83.0 67.0 81.0 69.0 81.0 L131.0 81.0 C133.0 81.0 135.0 83.0 135.0 84.0 C135.0 86.0 133.0 88.0 131.0 88.0 L131.0 88.0 Z"></path>
<path fill="#ffffee" fill-opacity="1.0"  filling="0" d="M123.0 106.0 L77.0 106.0 C76.0 106.0 74.0 105.0 74.0 103.0 C74.0 101.0 76.0 100.0 77.0 100.0 L123.0 100.0 C124.0 100.0 126.0 101.0 126.0 103.0 C126.0 105.0 124.0 106.0 123.0 106.0 L123.0 106.0 Z"></path>
<path fill="#ffffee" fill-opacity="1.0"  filling="0" d="M121.0 122.0 L79.0 122.0 C78.0 122.0 76.0 121.0 76.0 119.0 C76.0 118.0 78.0 116.0 79.0 116.0 L121.0 116.0 C122.0 116.0 124.0 118.0 124.0 119.0 C124.0 121.0 122.0 122.0 121.0 122.0 L121.0 122.0 Z"></path>
<path fill="#ee6655" fill-opacity="1.0"  filling="0" d="M78.0 136.0 L84.0 74.0 L116.0 74.0 L122.0 136.0 L78.0 136.0 L78.0 136.0 Z"></path>
<path fill="#114466" fill-opacity="1.0"  filling="0" d="M125.0 138.0 L75.0 138.0 L82.0 71.0 L118.0 71.0 L125.0 138.0 L125.0 138.0 Z M81.0 138.0 L119.0 138.0 L113.0 78.0 L87.0 78.0 L81.0 138.0 L81.0 138.0 Z"></path>
<path fill="#114466" fill-opacity="1.0"  filling="0" d="M120.0 78.0 L80.0 78.0 C79.0 78.0 77.0 76.0 77.0 74.0 C77.0 73.0 79.0 71.0 80.0 71.0 L120.0 71.0 C121.0 71.0 123.0 73.0 123.0 74.0 C123.0 76.0 121.0 78.0 120.0 78.0 L120.0 78.0 Z"></path>
<path fill="#114466" fill-opacity="1.0"  filling="0" d="M100.0 53.0 C98.0 53.0 97.0 52.0 97.0 50.0 L97.0 36.0 C97.0 35.0 98.0 33.0 100.0 33.0 C102.0 33.0 103.0 35.0 103.0 36.0 L103.0 50.0 C103.0 52.0 102.0 53.0 100.0 53.0 L100.0 53.0 Z"></path>
<path fill="#114466" fill-opacity="1.0"  filling="0" d="M118.0 56.0 C118.0 56.0 117.0 56.0 117.0 56.0 L100.0 46.0 L83.0 56.0 C82.0 57.0 80.0 56.0 79.0 55.0 C79.0 53.0 79.0 52.0 80.0 51.0 L99.0 40.0 C100.0 40.0 100.0 40.0 101.0 40.0 L120.0 51.0 C121.0 52.0 121.0 53.0 121.0 55.0 C120.0 56.0 119.0 56.0 118.0 56.0 L118.0 56.0 Z"></path>
<path fill="#ffcc77" fill-opacity="1.0"  filling="0" d="M22.0 41.0 L83.0 56.0 L83.0 74.0 L22.0 88.0 C21.0 88.0 19.0 87.0 19.0 85.0 L19.0 43.0 C19.0 41.0 21.0 40.0 22.0 41.0 L22.0 41.0 Z"></path>
<path fill="#ffbb55" fill-opacity="1.0"  filling="0" d="M83.0 44.0 L83.0 56.0 L22.0 88.0 C21.0 88.0 19.0 87.0 19.0 85.0 L19.0 75.0 L83.0 44.0 L83.0 44.0 Z"></path>
<path fill="#ffbb55" fill-opacity="1.0"  filling="0" d="M83.0 44.0 L83.0 51.0 L22.0 81.0 L19.0 75.0 L83.0 44.0 L83.0 44.0 Z"></path>
<path fill="#ffcc77" fill-opacity="1.0"  filling="0" d="M116.0 56.0 L116.0 56.0 L116.0 56.0 C116.0 56.0 116.0 56.0 116.0 56.0 L116.0 56.0 L116.0 56.0 L116.0 56.0 Z M116.0 56.0 L116.0 44.0 L181.0 75.0 L181.0 85.0 C181.0 87.0 179.0 88.0 178.0 88.0 L116.0 74.0 L116.0 56.0 L116.0 56.0 Z"></path>
<path fill="#ffbb55" fill-opacity="1.0"  filling="0" d="M116.0 44.0 L116.0 56.0 L178.0 81.0 L181.0 75.0 L116.0 44.0 L116.0 44.0 Z"></path>
<path fill="#ffbb55" fill-opacity="1.0"  filling="0" d="M116.0 44.0 L116.0 51.0 L177.0 81.0 L181.0 75.0 L116.0 44.0 L116.0 44.0 Z"></path>
<path fill="#ffbb55" fill-opacity="1.0"  filling="0" d="M116.0 56.0 L116.0 56.0 C116.0 56.0 116.0 56.0 116.0 56.0 L116.0 56.0 L116.0 56.0 L116.0 56.0 Z M117.0 56.0 L117.0 56.0 C117.0 56.0 117.0 56.0 117.0 56.0 L117.0 56.0 L117.0 56.0 Z M116.0 56.0 L116.0 56.0 C116.0 56.0 116.0 56.0 116.0 56.0 L116.0 56.0 L116.0 56.0 Z M116.0 56.0 L116.0 56.0 C116.0 56.0 116.0 56.0 116.0 56.0 L116.0 56.0 L116.0 56.0 Z M117.0 56.0 L117.0 56.0 C117.0 56.0 117.0 56.0 117.0 56.0 L117.0 56.0 L117.0 56.0 Z"></path>
<path fill="#ffbb55" fill-opacity="1.0"  filling="0" d="M117.0 56.0 L117.0 56.0 L117.0 56.0 C117.0 56.0 117.0 56.0 117.0 56.0 L117.0 56.0 L117.0 56.0 L117.0 56.0 Z M117.0 56.0 L117.0 56.0 C117.0 56.0 117.0 56.0 117.0 56.0 L117.0 56.0 L117.0 56.0 Z M116.0 56.0 L116.0 56.0 L116.0 56.0 C116.0 56.0 116.0 56.0 116.0 56.0 L116.0 56.0 L116.0 56.0 L116.0 56.0 Z M116.0 56.0 L116.0 56.0 C116.0 56.0 116.0 56.0 116.0 56.0 L116.0 56.0 L116.0 56.0 Z M116.0 56.0 L116.0 56.0 C116.0 56.0 116.0 56.0 116.0 56.0 L116.0 56.0 L116.0 56.0 Z M117.0 56.0 L117.0 56.0 C117.0 56.0 117.0 56.0 117.0 56.0 L117.0 56.0 L117.0 56.0 Z"></path>
<path fill="#ffbb55" fill-opacity="1.0"  filling="0" d="M116.0 56.0 L116.0 56.0 L116.0 56.0 C116.0 56.0 116.0 56.0 116.0 56.0 L116.0 56.0 L116.0 56.0 L116.0 56.0 Z M117.0 56.0 L117.0 56.0 C117.0 56.0 117.0 56.0 117.0 56.0 L117.0 56.0 L117.0 56.0 Z M116.0 56.0 L116.0 56.0 L116.0 56.0 C116.0 56.0 116.0 56.0 116.0 56.0 L116.0 56.0 L116.0 56.0 L116.0 56.0 Z M116.0 56.0 L116.0 56.0 C116.0 56.0 116.0 56.0 116.0 56.0 L116.0 56.0 L116.0 56.0 Z"></path>
<path fill="#ffbb55" fill-opacity="1.0"  filling="0" d="M116.0 56.0 L116.0 56.0 L116.0 56.0 C116.0 56.0 116.0 56.0 116.0 56.0 L116.0 56.0 L116.0 56.0 L116.0 56.0 Z M117.0 56.0 L117.0 56.0 C117.0 56.0 117.0 56.0 117.0 56.0 L117.0 56.0 L117.0 56.0 Z M116.0 56.0 L116.0 56.0 L116.0 56.0 C116.0 56.0 116.0 56.0 116.0 56.0 L116.0 56.0 L116.0 56.0 L116.0 56.0 Z M116.0 56.0 L116.0 56.0 C116.0 56.0 116.0 56.0 116.0 56.0 L116.0 56.0 L116.0 56.0 Z M117.0 56.0 L117.0 56.0 L117.0 56.0 C117.0 56.0 117.0 56.0 117.0 56.0 L117.0 56.0 L117.0 56.0 L117.0 56.0 Z"></path>
<path fill="#ffbb55" fill-opacity="1.0"  filling="0" d="M84.0 56.0 L84.0 56.0 L84.0 56.0 C84.0 56.0 84.0 56.0 84.0 56.0 L84.0 56.0 L84.0 56.0 L84.0 56.0 Z M83.0 56.0 L83.0 56.0 C83.0 56.0 83.0 56.0 83.0 56.0 L83.0 56.0 L83.0 56.0 Z M84.0 56.0 L84.0 56.0 C84.0 56.0 84.0 56.0 84.0 56.0 L84.0 56.0 L84.0 56.0 Z M84.0 56.0 L84.0 56.0 C84.0 56.0 84.0 56.0 84.0 56.0 L84.0 56.0 L84.0 56.0 Z M83.0 56.0 L83.0 56.0 C83.0 56.0 83.0 56.0 83.0 56.0 L83.0 56.0 L83.0 56.0 Z M84.0 56.0 L84.0 56.0 L84.0 56.0 C84.0 56.0 84.0 56.0 84.0 56.0 L84.0 56.0 L84.0 56.0 L84.0 56.0 Z M84.0 56.0 L84.0 56.0 C84.0 56.0 84.0 56.0 84.0 56.0 L84.0 56.0 L84.0 56.0 Z"></path>
<path fill="#ffbb55" fill-opacity="1.0"  filling="0" d="M84.0 56.0 L84.0 56.0 L84.0 56.0 C84.0 56.0 84.0 56.0 84.0 56.0 L84.0 56.0 L84.0 56.0 L84.0 56.0 Z M84.0 56.0 L84.0 56.0 C84.0 56.0 84.0 56.0 84.0 56.0 L84.0 56.0 L84.0 56.0 Z M83.0 56.0 L83.0 56.0 L83.0 56.0 C83.0 56.0 83.0 56.0 83.0 56.0 L83.0 56.0 L83.0 56.0 L83.0 56.0 Z M83.0 56.0 L83.0 56.0 C83.0 56.0 83.0 56.0 83.0 56.0 L83.0 56.0 L83.0 56.0 Z M84.0 56.0 L84.0 56.0 L84.0 56.0 C84.0 56.0 84.0 56.0 84.0 56.0 L84.0 56.0 L84.0 56.0 L84.0 56.0 Z M84.0 56.0 L84.0 56.0 C84.0 56.0 84.0 56.0 84.0 56.0 L84.0 56.0 L84.0 56.0 Z"></path>
<path fill="#ffbb55" fill-opacity="1.0"  filling="0" d="M84.0 56.0 L84.0 56.0 L84.0 56.0 C84.0 56.0 84.0 56.0 84.0 56.0 L84.0 56.0 L84.0 56.0 L84.0 56.0 Z M84.0 56.0 L84.0 56.0 C84.0 56.0 84.0 56.0 84.0 56.0 L84.0 56.0 L84.0 56.0 Z M83.0 56.0 L83.0 56.0 L83.0 56.0 C83.0 56.0 83.0 56.0 83.0 56.0 L83.0 56.0 L83.0 56.0 L83.0 56.0 Z M84.0 56.0 L84.0 56.0 C84.0 56.0 84.0 56.0 84.0 56.0 L84.0 56.0 L84.0 56.0 Z M84.0 56.0 L84.0 56.0 L84.0 56.0 C84.0 56.0 84.0 56.0 84.0 56.0 L84.0 56.0 L84.0 56.0 L84.0 56.0 Z M84.0 56.0 L84.0 56.0 C84.0 56.0 84.0 56.0 84.0 56.0 L84.0 56.0 L84.0 56.0 Z"></path>
<path fill="#ffbb55" fill-opacity="1.0"  filling="0" d="M84.0 56.0 L84.0 56.0 L84.0 56.0 C84.0 56.0 84.0 56.0 84.0 56.0 L84.0 56.0 L84.0 56.0 L84.0 56.0 Z M84.0 56.0 L84.0 56.0 C84.0 56.0 84.0 56.0 84.0 56.0 L84.0 56.0 L84.0 56.0 Z M83.0 56.0 L83.0 56.0 L83.0 56.0 C83.0 56.0 83.0 56.0 83.0 56.0 L83.0 56.0 L83.0 56.0 L83.0 56.0 Z M84.0 56.0 L84.0 56.0 C84.0 56.0 84.0 56.0 84.0 56.0 L84.0 56.0 L84.0 56.0 Z M84.0 56.0 L84.0 56.0 L84.0 56.0 C84.0 56.0 84.0 56.0 84.0 56.0 L84.0 56.0 L84.0 56.0 L84.0 56.0 Z M84.0 56.0 L84.0 56.0 C84.0 56.0 84.0 56.0 84.0 56.0 L84.0 56.0 L84.0 56.0 Z"></path>
<path fill="#ffbb55" fill-opacity="1.0"  filling="0" d="M116.0 56.0 L116.0 56.0 L116.0 56.0 C116.0 56.0 116.0 56.0 116.0 56.0 L116.0 56.0 L116.0 56.0 L116.0 56.0 Z M117.0 56.0 L117.0 56.0 C117.0 56.0 117.0 56.0 117.0 56.0 L117.0 56.0 L117.0 56.0 Z M116.0 56.0 L116.0 56.0 L116.0 56.0 C116.0 56.0 116.0 56.0 116.0 56.0 L116.0 56.0 L116.0 56.0 L116.0 56.0 Z M116.0 56.0 L116.0 56.0 C116.0 56.0 116.0 56.0 116.0 56.0 L116.0 56.0 L116.0 56.0 Z"></path>
<path fill="#000000" fill-opacity="1.0"  filling="0" d="M116.0 56.0 L116.0 56.0 L116.0 56.0 C116.0 56.0 116.0 56.0 116.0 56.0 L116.0 56.0 L116.0 56.0 L116.0 56.0 Z"></path></svg>