<svg xmlns="http://www.w3.org/2000/svg" viewBox="0.0 0.0 200.0 200.0" height="200px" width="200px"><path fill="#ffcc77" fill-opacity="1.0"  filling="0" d="M131.0 88.0 L69.0 88.0 C67.0 88.0 66.0 86.0 66.0 85.0 L66.0 43.0 C66.0 42.0 67.0 40.0 69.0 40.0 L131.0 40.0 C132.0 40.0 134.0 42.0 134.0 43.0 L134.0 85.0 C134.0 86.0 132.0 88.0 131.0 88.0"></path>
<path fill="#000000" fill-opacity="1.0"  filling="0" d="M131.0 88.0 L100.0 88.0 L100.0 40.0 L131.0 40.0 C132.0 40.0 134.0 42.0 134.0 43.0 L134.0 85.0 C134.0 86.0 132.0 88.0 131.0 88.0"></path>
<path fill="#ffcc77" fill-opacity="1.0"  filling="0" d="M178.0 88.0 L118.0 72.0 L118.0 53.0 L178.0 40.0 C180.0 40.0 181.0 42.0 181.0 43.0 L181.0 85.0 C181.0 86.0 180.0 88.0 178.0 88.0"></path>
<path fill="#ffcc77" fill-opacity="1.0"  filling="0" d="M22.0 88.0 L82.0 72.0 L82.0 53.0 L22.0 40.0 C20.0 40.0 19.0 42.0 19.0 43.0 L19.0 85.0 C19.0 86.0 20.0 88.0 22.0 88.0"></path>
<path fill="#000000" fill-opacity="1.0"  filling="0" d="M140.0 75.0 L118.0 72.0 L118.0 53.0 L140.0 47.0 L140.0 75.0 L140.0 75.0 Z"></path>
<path fill="#000000" fill-opacity="1.0"  filling="0" d="M60.0 75.0 L82.0 72.0 L82.0 53.0 L60.0 47.0 L60.0 75.0 L60.0 75.0 Z"></path>
<path fill="#ffffff" fill-opacity="1.0"  filling="0" d="M125.0 138.0 L75.0 138.0 L83.0 71.0 L117.0 71.0 L125.0 138.0 L125.0 138.0 Z"></path>
<path fill="#000000" fill-opacity="1.0"  filling="0" d="M125.0 138.0 L100.0 138.0 L100.0 71.0 L117.0 71.0 L125.0 138.0 L125.0 138.0 Z"></path>
<path fill="#ee5555" fill-opacity="1.0"  filling="0" d="M117.0 122.0 L83.0 122.0 L85.0 106.0 L115.0 106.0 L117.0 122.0 L117.0 122.0 Z"></path>
<path fill="#ee6666" fill-opacity="1.0"  filling="0" d="M85.0 94.0 L113.0 89.0 L115.0 106.0 L85.0 106.0 L85.0 94.0 L85.0 94.0 Z"></path>
<path fill="#ffffff" fill-opacity="1.0"  filling="0" d="M107.0 77.0 L80.0 77.0 C79.0 77.0 77.0 76.0 77.0 74.0 C77.0 73.0 79.0 71.0 80.0 71.0 L120.0 71.0 C121.0 71.0 123.0 73.0 123.0 74.0 C123.0 76.0 121.0 77.0 120.0 77.0 L107.0 77.0 L107.0 77.0 Z"></path>
<path fill="#000000" fill-opacity="1.0"  filling="0" d="M107.0 77.0 L100.0 77.0 L100.0 71.0 L120.0 71.0 C121.0 71.0 123.0 73.0 123.0 74.0 C123.0 76.0 121.0 77.0 120.0 77.0 L107.0 77.0 L107.0 77.0 Z"></path>
<path fill="#445555" fill-opacity="1.0"  filling="0" d="M118.0 56.0 L82.0 56.0 C80.0 56.0 79.0 55.0 79.0 54.0 C79.0 53.0 80.0 52.0 80.0 51.0 L97.0 40.0 L97.0 36.0 C97.0 35.0 98.0 33.0 100.0 33.0 C102.0 33.0 103.0 35.0 103.0 36.0 L103.0 40.0 L120.0 51.0 C121.0 52.0 121.0 53.0 121.0 54.0 C121.0 55.0 120.0 56.0 118.0 56.0"></path>
<path fill="#225577" fill-opacity="1.0"  filling="0" d="M129.0 138.0 L71.0 138.0 C67.0 138.0 65.0 140.0 65.0 144.0 L65.0 150.0 C65.0 151.0 64.0 151.0 64.0 151.0 C60.0 154.0 55.0 154.0 51.0 151.0 C49.0 150.0 47.0 150.0 45.0 150.0 C44.0 150.0 43.0 151.0 43.0 152.0 C43.0 155.0 47.0 156.0 49.0 157.0 C55.0 160.0 61.0 159.0 67.0 157.0 C70.0 155.0 74.0 155.0 77.0 157.0 C82.0 158.0 87.0 158.0 92.0 157.0 C96.0 155.0 102.0 155.0 107.0 157.0 C111.0 158.0 115.0 158.0 119.0 157.0 C124.0 155.0 130.0 155.0 135.0 157.0 C139.0 158.0 142.0 158.0 145.0 158.0 C147.0 158.0 149.0 157.0 151.0 157.0 C153.0 156.0 157.0 155.0 157.0 152.0 C157.0 151.0 156.0 150.0 155.0 150.0 C153.0 150.0 151.0 150.0 149.0 151.0 C146.0 153.0 141.0 153.0 137.0 151.0 C137.0 151.0 136.0 151.0 136.0 150.0 L136.0 144.0 C136.0 140.0 133.0 138.0 129.0 138.0"></path>
<path fill="#224466" fill-opacity="1.0"  filling="0" d="M143.0 166.0 C140.0 166.0 138.0 166.0 135.0 165.0 C131.0 163.0 126.0 163.0 121.0 165.0 C117.0 166.0 113.0 166.0 108.0 165.0 C103.0 163.0 97.0 163.0 92.0 165.0 C88.0 166.0 83.0 166.0 79.0 165.0 C74.0 163.0 69.0 163.0 65.0 165.0 C62.0 166.0 60.0 166.0 57.0 166.0 C55.0 166.0 53.0 166.0 53.0 168.0 C53.0 171.0 55.0 172.0 57.0 172.0 C61.0 172.0 64.0 172.0 67.0 170.0 C70.0 169.0 74.0 169.0 77.0 170.0 C82.0 172.0 87.0 172.0 92.0 170.0 C96.0 169.0 102.0 169.0 107.0 170.0 C112.0 172.0 117.0 172.0 123.0 170.0 C126.0 169.0 130.0 169.0 133.0 170.0 C136.0 172.0 139.0 172.0 143.0 172.0 C145.0 172.0 148.0 171.0 148.0 168.0 C148.0 166.0 145.0 166.0 143.0 166.0"></path></svg>