<svg xmlns="http://www.w3.org/2000/svg" viewBox="0.0 0.0 200.0 200.0" height="200px" width="200px"><path fill="#33bb44" fill-opacity="1.0"  filling="0" d="M140.0 177.0 L60.0 177.0 C60.0 172.0 61.0 166.0 62.0 162.0 L62.0 162.0 C62.0 161.0 62.0 161.0 62.0 161.0 C63.0 158.0 64.0 156.0 65.0 154.0 C70.0 142.0 78.0 137.0 78.0 137.0 L122.0 137.0 C122.0 137.0 130.0 143.0 136.0 156.0 C137.0 157.0 137.0 159.0 138.0 162.0 L138.0 162.0 C138.0 163.0 139.0 164.0 139.0 165.0 C140.0 169.0 140.0 173.0 140.0 177.0 L140.0 177.0 Z"></path>
<path fill="#445555" fill-opacity="1.0"  filling="0" d="M103.0 141.0 L97.0 141.0 L97.0 177.0 L103.0 177.0 L103.0 141.0 L103.0 141.0 Z"></path>
<path fill="#556677" fill-opacity="1.0"  filling="0" d="M101.0 141.0 L96.0 148.0 C94.0 151.0 90.0 151.0 88.0 148.0 L79.0 137.0 L101.0 141.0 L101.0 141.0 Z"></path>
<path fill="#556677" fill-opacity="1.0"  filling="0" d="M99.0 141.0 L104.0 148.0 C106.0 151.0 110.0 151.0 112.0 148.0 L121.0 137.0 L99.0 141.0 L99.0 141.0 Z"></path>
<path fill="#99dd77" fill-opacity="1.0"  filling="0" d="M99.0 141.0 L99.0 141.0 L99.0 141.0 L99.0 141.0 L99.0 141.0 L99.0 141.0 Z"></path>
<path fill="#99dd77" fill-opacity="1.0"  filling="0" d="M99.0 141.0 L99.0 141.0 L99.0 141.0 L99.0 141.0 L99.0 141.0 L99.0 141.0 Z"></path>
<path fill="#99dd77" fill-opacity="1.0"  filling="0" d="M99.0 141.0 L99.0 141.0 L99.0 141.0 L99.0 141.0 L99.0 141.0 L99.0 141.0 Z"></path>
<path fill="#99dd77" fill-opacity="1.0"  filling="0" d="M99.0 141.0 L99.0 141.0 L99.0 141.0 L99.0 141.0 L99.0 141.0 L99.0 141.0 Z"></path>
<path fill="#ffdddd" fill-opacity="1.0"  filling="0" d="M49.0 107.0 C57.0 107.0 64.0 100.0 64.0 92.0 C64.0 84.0 57.0 77.0 49.0 77.0 C40.0 77.0 34.0 84.0 34.0 92.0 C34.0 100.0 40.0 107.0 49.0 107.0 L49.0 107.0 Z"></path>
<path fill="#ffdddd" fill-opacity="1.0"  filling="0" d="M151.0 107.0 C160.0 107.0 166.0 100.0 166.0 92.0 C166.0 84.0 160.0 77.0 151.0 77.0 C143.0 77.0 136.0 84.0 136.0 92.0 C136.0 100.0 143.0 107.0 151.0 107.0 L151.0 107.0 Z"></path>
<path fill="#ffeeee" fill-opacity="1.0"  filling="0" d="M100.0 142.0 C129.0 142.0 153.0 119.0 153.0 90.0 C153.0 61.0 129.0 37.0 100.0 37.0 C71.0 37.0 47.0 61.0 47.0 90.0 C47.0 119.0 71.0 142.0 100.0 142.0 L100.0 142.0 Z"></path>
<path fill="#dd9988" fill-opacity="1.0"  filling="0" d="M159.0 77.0 C158.0 77.0 157.0 77.0 156.0 77.0 C140.0 77.0 125.0 72.0 112.0 65.0 C98.0 73.0 82.0 78.0 65.0 78.0 C57.0 78.0 49.0 77.0 41.0 75.0 C44.0 58.0 53.0 43.0 67.0 34.0 C76.0 27.0 88.0 24.0 100.0 24.0 C112.0 24.0 124.0 27.0 133.0 34.0 C136.0 36.0 139.0 38.0 142.0 41.0 C151.0 50.0 157.0 63.0 159.0 77.0 L159.0 77.0 Z"></path>
<path fill="#440066" fill-opacity="1.0"  filling="0" d="M85.0 103.0 C84.0 103.0 83.0 102.0 83.0 100.0 L83.0 98.0 C83.0 97.0 84.0 96.0 85.0 96.0 C87.0 96.0 88.0 97.0 88.0 98.0 L88.0 100.0 C88.0 102.0 87.0 103.0 85.0 103.0 L85.0 103.0 Z"></path>
<path fill="#440066" fill-opacity="1.0"  filling="0" d="M115.0 103.0 C113.0 103.0 112.0 102.0 112.0 100.0 L112.0 98.0 C112.0 97.0 113.0 96.0 115.0 96.0 C116.0 96.0 117.0 97.0 117.0 98.0 L117.0 100.0 C117.0 102.0 116.0 103.0 115.0 103.0 L115.0 103.0 Z"></path>
<path fill="#440066" fill-opacity="1.0"  filling="0" d="M100.0 117.0 C97.0 117.0 94.0 115.0 92.0 113.0 C91.0 112.0 91.0 110.0 92.0 109.0 C93.0 109.0 94.0 109.0 95.0 110.0 C97.0 111.0 98.0 112.0 100.0 112.0 C102.0 112.0 103.0 111.0 105.0 110.0 C106.0 109.0 107.0 109.0 108.0 109.0 C109.0 110.0 109.0 112.0 108.0 113.0 C106.0 115.0 103.0 117.0 100.0 117.0 L100.0 117.0 Z"></path>
<path fill="#445555" fill-opacity="1.0"  filling="0" d="M149.0 52.0 L149.0 57.0 C149.0 59.0 148.0 61.0 146.0 61.0 L54.0 61.0 C52.0 61.0 50.0 59.0 50.0 57.0 L50.0 52.0 L149.0 52.0 L149.0 52.0 Z"></path>
<path fill="#33bb44" fill-opacity="1.0"  filling="0" d="M120.0 7.0 L92.0 7.0 C74.0 7.0 56.0 14.0 43.0 27.0 L35.0 34.0 C33.0 36.0 31.0 39.0 31.0 42.0 C31.0 47.0 36.0 52.0 42.0 52.0 L149.0 52.0 C156.0 52.0 162.0 46.0 162.0 39.0 C162.0 38.0 162.0 36.0 161.0 35.0 C154.0 18.0 138.0 7.0 120.0 7.0 L120.0 7.0 Z"></path>
<path fill="#556677" fill-opacity="1.0"  filling="0" d="M63.0 52.0 L69.0 52.0 L69.0 61.0 L63.0 61.0 L63.0 52.0 L63.0 52.0 Z"></path>
<path fill="#556677" fill-opacity="1.0"  filling="0" d="M80.0 52.0 L86.0 52.0 L86.0 61.0 L80.0 61.0 L80.0 52.0 L80.0 52.0 Z"></path>
<path fill="#556677" fill-opacity="1.0"  filling="0" d="M97.0 52.0 L103.0 52.0 L103.0 61.0 L97.0 61.0 L97.0 52.0 L97.0 52.0 Z"></path>
<path fill="#556677" fill-opacity="1.0"  filling="0" d="M114.0 52.0 L120.0 52.0 L120.0 61.0 L114.0 61.0 L114.0 52.0 L114.0 52.0 Z"></path>
<path fill="#556677" fill-opacity="1.0"  filling="0" d="M130.0 52.0 L137.0 52.0 L137.0 61.0 L130.0 61.0 L130.0 52.0 L130.0 52.0 L130.0 52.0 Z"></path>
<path fill="#ffff44" fill-opacity="1.0"  filling="0" d="M110.0 23.0 L110.0 31.0 C110.0 37.0 102.0 40.0 101.0 41.0 C100.0 41.0 100.0 41.0 100.0 41.0 C99.0 41.0 99.0 41.0 99.0 41.0 C98.0 41.0 98.0 40.0 97.0 40.0 C94.0 38.0 89.0 35.0 89.0 31.0 L89.0 23.0 C89.0 22.0 91.0 21.0 92.0 21.0 L107.0 21.0 C109.0 21.0 110.0 22.0 110.0 23.0 L110.0 23.0 Z"></path>
<path fill="#99dd77" fill-opacity="1.0"  filling="0" d="M71.0 169.0 L79.0 169.0 C80.0 169.0 80.0 170.0 80.0 171.0 C80.0 172.0 81.0 173.0 82.0 173.0 L88.0 173.0 C89.0 173.0 90.0 173.0 90.0 174.0 C90.0 175.0 89.0 176.0 88.0 176.0 L71.0 176.0 L71.0 169.0 L71.0 169.0 Z"></path>
<path fill="#99dd77" fill-opacity="1.0"  filling="0" d="M139.0 165.0 L136.0 165.0 C135.0 165.0 134.0 164.0 134.0 163.0 C134.0 161.0 133.0 160.0 132.0 160.0 L130.0 160.0 C128.0 160.0 127.0 159.0 127.0 158.0 C127.0 157.0 128.0 155.0 130.0 155.0 L134.0 155.0 C136.0 155.0 137.0 156.0 137.0 157.0 C137.0 158.0 138.0 159.0 139.0 159.0 L141.0 159.0 L141.0 165.0 L139.0 165.0 L139.0 165.0 Z"></path>
<path fill="#99dd77" fill-opacity="1.0"  filling="0" d="M75.0 158.0 C75.0 156.0 74.0 157.0 73.0 157.0 L62.0 157.0 C62.0 157.0 61.0 157.0 61.0 158.0 C61.0 159.0 62.0 160.0 62.0 160.0 L73.0 160.0 C74.0 160.0 75.0 159.0 75.0 158.0 L75.0 158.0 Z"></path>
<path fill="#99dd77" fill-opacity="1.0"  filling="0" d="M109.0 177.0 L109.0 173.0 C109.0 172.0 111.0 171.0 112.0 171.0 L112.0 171.0 C113.0 171.0 114.0 170.0 114.0 168.0 C114.0 167.0 115.0 166.0 117.0 166.0 C118.0 166.0 119.0 167.0 119.0 168.0 C119.0 171.0 116.0 174.0 113.0 174.0 L113.0 177.0 L109.0 177.0 L109.0 177.0 Z"></path></svg>