<svg xmlns="http://www.w3.org/2000/svg" viewBox="0.0 0.0 200.0 200.0" height="200px" width="200px"><path fill="#33bb44" fill-opacity="1.0"  filling="0" d="M140.0 177.0 C140.0 166.0 136.0 155.0 129.0 146.0 A62.0 62.0 0.0 0 0 122.0 137.0 L78.0 137.0 C67.0 144.0 60.0 158.0 60.0 177.0 L140.0 177.0 L140.0 177.0 Z"></path>
<path fill="#ffddcc" fill-opacity="1.0"  filling="0" d="M47.0 90.0 A15.0 15.0 0.0 1 1 17.0 90.0 A15.0 15.0 0.0 1 1 47.0 90.0 L47.0 90.0 Z"></path>
<path fill="#000000" fill-opacity="1.0"  filling="0" d="M47.0 90.0 A15.0 15.0 0.0 1 1 17.0 90.0 A15.0 15.0 0.0 1 1 47.0 90.0 L47.0 90.0 Z"></path>
<path fill="#ffeeee" fill-opacity="1.0"  filling="0" d="M100.0 173.0 C128.0 173.0 151.0 150.0 151.0 122.0 L151.0 78.0 C151.0 50.0 128.0 27.0 100.0 27.0 C72.0 27.0 49.0 50.0 49.0 78.0 L49.0 122.0 C49.0 150.0 72.0 173.0 100.0 173.0 L100.0 173.0 Z"></path>
<path fill="#000000" fill-opacity="1.0"  filling="0" d="M100.0 173.0 C128.0 173.0 151.0 150.0 151.0 122.0 L151.0 78.0 C151.0 50.0 128.0 27.0 100.0 27.0 C72.0 27.0 49.0 50.0 49.0 78.0 L49.0 122.0 C49.0 150.0 72.0 173.0 100.0 173.0 L100.0 173.0 Z"></path>
<path fill="#33bb44" fill-opacity="1.0"  filling="0" d="M140.0 177.0 C140.0 166.0 136.0 155.0 129.0 146.0 A62.0 62.0 0.0 0 0 122.0 137.0 L94.0 137.0 C89.0 144.0 86.0 152.0 86.0 160.0 C86.0 164.0 86.0 169.0 87.0 173.0 L140.0 177.0 L140.0 177.0 Z"></path>
<path fill="#000000" fill-opacity="1.0"  filling="0" d="M47.0 90.0 A15.0 15.0 0.0 1 1 17.0 90.0 A15.0 15.0 0.0 1 1 47.0 90.0 L47.0 90.0 Z"></path>
<path fill="#ffddcc" fill-opacity="1.0"  filling="0" d="M183.0 90.0 A15.0 15.0 0.0 1 1 153.0 90.0 A15.0 15.0 0.0 1 1 183.0 90.0 L183.0 90.0 Z"></path>
<path fill="#000000" fill-opacity="1.0"  filling="0" d="M183.0 90.0 A15.0 15.0 0.0 1 1 153.0 90.0 A15.0 15.0 0.0 1 1 183.0 90.0 L183.0 90.0 Z"></path>
<path fill="#000000" fill-opacity="1.0"  filling="0" d="M61.0 107.0 A3.0 3.0 0.0 0 1 58.0 105.0 L58.0 95.0 C58.0 93.0 59.0 92.0 61.0 92.0 C63.0 92.0 64.0 93.0 64.0 95.0 L64.0 105.0 A3.0 3.0 0.0 0 1 61.0 107.0 L61.0 107.0 Z"></path>
<path fill="#000000" fill-opacity="1.0"  filling="0" d="M89.0 107.0 A3.0 3.0 0.0 0 1 86.0 105.0 L86.0 95.0 C86.0 93.0 87.0 92.0 89.0 92.0 C90.0 92.0 91.0 93.0 91.0 95.0 L91.0 105.0 A3.0 3.0 0.0 0 1 89.0 107.0 L89.0 107.0 Z"></path>
<path fill="#000000" fill-opacity="1.0"  filling="0" d="M111.0 107.0 A3.0 3.0 0.0 0 1 109.0 105.0 L109.0 95.0 C109.0 93.0 110.0 92.0 111.0 92.0 C113.0 92.0 114.0 93.0 114.0 95.0 L114.0 105.0 A3.0 3.0 0.0 0 1 111.0 107.0 L111.0 107.0 Z"></path>
<path fill="#000000" fill-opacity="1.0"  filling="0" d="M139.0 107.0 A3.0 3.0 0.0 0 1 136.0 105.0 L136.0 95.0 C136.0 93.0 137.0 92.0 139.0 92.0 C141.0 92.0 142.0 93.0 142.0 95.0 L142.0 105.0 A3.0 3.0 0.0 0 1 139.0 107.0 L139.0 107.0 Z"></path>
<path fill="#445555" fill-opacity="1.0"  filling="0" d="M100.0 156.0 C90.0 156.0 81.0 151.0 76.0 143.0 A2.0 2.0 0.0 0 1 79.0 140.0 C84.0 147.0 91.0 151.0 100.0 151.0 C109.0 151.0 116.0 147.0 121.0 140.0 A2.0 2.0 0.0 0 1 124.0 143.0 C119.0 151.0 110.0 156.0 100.0 156.0 L100.0 156.0 Z"></path>
<path fill="#ffffff" fill-opacity="1.0"  filling="0" d="M67.0 158.0 A2.0 2.0 0.0 0 1 65.0 155.0 C66.0 153.0 67.0 151.0 69.0 148.0 A2.0 2.0 0.0 0 1 73.0 152.0 C71.0 154.0 70.0 155.0 69.0 157.0 A2.0 2.0 0.0 0 1 67.0 158.0 L67.0 158.0 Z"></path>
<path fill="#ffffff" fill-opacity="1.0"  filling="0" d="M79.0 158.0 A2.0 2.0 0.0 0 1 76.0 155.0 C77.0 153.0 78.0 151.0 80.0 148.0 A2.0 2.0 0.0 0 1 84.0 152.0 C83.0 154.0 82.0 155.0 81.0 157.0 A2.0 2.0 0.0 0 1 79.0 158.0 L79.0 158.0 Z"></path>
<path fill="#ffffff" fill-opacity="1.0"  filling="0" d="M80.0 158.0 A2.0 2.0 0.0 0 1 78.0 155.0 C79.0 154.0 80.0 151.0 81.0 148.0 A2.0 2.0 0.0 0 1 86.0 151.0 C84.0 154.0 83.0 155.0 83.0 157.0 A2.0 2.0 0.0 0 1 80.0 158.0 L80.0 158.0 Z"></path>
<path fill="#ffffff" fill-opacity="1.0"  filling="0" d="M133.0 158.0 A2.0 2.0 0.0 0 1 131.0 157.0 C130.0 155.0 129.0 154.0 127.0 152.0 A2.0 2.0 0.0 0 1 131.0 148.0 C133.0 151.0 134.0 153.0 135.0 155.0 A2.0 2.0 0.0 0 1 133.0 158.0 L133.0 158.0 Z"></path>
<path fill="#ffffff" fill-opacity="1.0"  filling="0" d="M121.0 158.0 A2.0 2.0 0.0 0 1 119.0 157.0 C118.0 155.0 117.0 154.0 115.0 151.0 A2.0 2.0 0.0 0 1 119.0 148.0 C120.0 151.0 121.0 153.0 122.0 155.0 A2.0 2.0 0.0 0 1 121.0 158.0 L121.0 158.0 Z"></path>
<path fill="#ffffff" fill-opacity="1.0"  filling="0" d="M121.0 158.0 A2.0 2.0 0.0 0 1 117.0 157.0 C117.0 155.0 116.0 154.0 114.0 151.0 A2.0 2.0 0.0 0 1 119.0 148.0 C120.0 151.0 121.0 154.0 122.0 155.0 A2.0 2.0 0.0 0 1 121.0 158.0 L121.0 158.0 Z"></path>
<path fill="#445555" fill-opacity="1.0"  filling="0" d="M100.0 190.0 C98.0 190.0 97.0 189.0 97.0 187.0 L97.0 148.0 C97.0 146.0 98.0 145.0 100.0 145.0 C102.0 145.0 103.0 146.0 103.0 148.0 L103.0 187.0 C103.0 189.0 102.0 190.0 100.0 190.0 L100.0 190.0 Z"></path>
<path fill="#000000" fill-opacity="1.0"  filling="0" d="M100.0 190.0 C98.0 190.0 97.0 189.0 97.0 187.0 L97.0 148.0 C97.0 146.0 98.0 145.0 100.0 145.0 C102.0 145.0 103.0 146.0 103.0 148.0 L103.0 187.0 C103.0 189.0 102.0 190.0 100.0 190.0 L100.0 190.0 Z"></path>
<path fill="#000000" fill-opacity="1.0"  filling="0" d="M100.0 190.0 C98.0 190.0 97.0 189.0 97.0 187.0 L97.0 148.0 C97.0 146.0 98.0 145.0 100.0 145.0 C102.0 145.0 103.0 146.0 103.0 148.0 L103.0 187.0 C103.0 189.0 102.0 190.0 100.0 190.0 L100.0 190.0 Z"></path>
<path fill="#445555" fill-opacity="1.0"  filling="0" d="M100.0 190.0 C98.0 190.0 97.0 189.0 97.0 187.0 L97.0 148.0 C97.0 146.0 98.0 145.0 100.0 145.0 C102.0 145.0 103.0 146.0 103.0 148.0 L103.0 187.0 C103.0 189.0 102.0 190.0 100.0 190.0 L100.0 190.0 Z"></path>
<path fill="#000000" fill-opacity="1.0"  filling="0" d="M100.0 190.0 C98.0 190.0 97.0 189.0 97.0 187.0 L97.0 148.0 C97.0 146.0 98.0 145.0 100.0 145.0 C102.0 145.0 103.0 146.0 103.0 148.0 L103.0 187.0 C103.0 189.0 102.0 190.0 100.0 190.0 L100.0 190.0 Z"></path>
<path fill="#000000" fill-opacity="1.0"  filling="0" d="M100.0 190.0 C98.0 190.0 97.0 189.0 97.0 187.0 L97.0 148.0 C97.0 146.0 98.0 145.0 100.0 145.0 C102.0 145.0 103.0 146.0 103.0 148.0 L103.0 187.0 C103.0 189.0 102.0 190.0 100.0 190.0 L100.0 190.0 Z"></path>
<path fill="#000000" fill-opacity="1.0"  filling="0" d="M100.0 190.0 C98.0 190.0 97.0 189.0 97.0 187.0 L97.0 148.0 C97.0 146.0 98.0 145.0 100.0 145.0 C102.0 145.0 103.0 146.0 103.0 148.0 L103.0 187.0 C103.0 189.0 102.0 190.0 100.0 190.0 L100.0 190.0 Z"></path>
<path fill="#000000" fill-opacity="1.0"  filling="0" d="M100.0 190.0 C98.0 190.0 97.0 189.0 97.0 187.0 L97.0 148.0 C97.0 146.0 98.0 145.0 100.0 145.0 C102.0 145.0 103.0 146.0 103.0 148.0 L103.0 187.0 C103.0 189.0 102.0 190.0 100.0 190.0 L100.0 190.0 Z"></path>
<path fill="#000000" fill-opacity="1.0"  filling="0" d="M100.0 190.0 C98.0 190.0 97.0 189.0 97.0 187.0 L97.0 148.0 C97.0 146.0 98.0 145.0 100.0 145.0 C102.0 145.0 103.0 146.0 103.0 148.0 L103.0 187.0 C103.0 189.0 102.0 190.0 100.0 190.0 L100.0 190.0 Z"></path>
<path fill="#000000" fill-opacity="1.0"  filling="0" d="M100.0 190.0 C98.0 190.0 97.0 189.0 97.0 187.0 L97.0 148.0 C97.0 146.0 98.0 145.0 100.0 145.0 C102.0 145.0 103.0 146.0 103.0 148.0 L103.0 187.0 C103.0 189.0 102.0 190.0 100.0 190.0 L100.0 190.0 Z"></path>
<path fill="#000000" fill-opacity="1.0"  filling="0" d="M100.0 190.0 C98.0 190.0 97.0 189.0 97.0 187.0 L97.0 148.0 C97.0 146.0 98.0 145.0 100.0 145.0 C102.0 145.0 103.0 146.0 103.0 148.0 L103.0 187.0 C103.0 189.0 102.0 190.0 100.0 190.0 L100.0 190.0 Z"></path>
<path fill="#000000" fill-opacity="1.0"  filling="0" d="M100.0 190.0 C98.0 190.0 97.0 189.0 97.0 187.0 L97.0 148.0 C97.0 146.0 98.0 145.0 100.0 145.0 C102.0 145.0 103.0 146.0 103.0 148.0 L103.0 187.0 C103.0 189.0 102.0 190.0 100.0 190.0 L100.0 190.0 Z"></path>
<path fill="#000000" fill-opacity="1.0"  filling="0" d="M100.0 190.0 C98.0 190.0 97.0 189.0 97.0 187.0 L97.0 148.0 C97.0 146.0 98.0 145.0 100.0 145.0 C102.0 145.0 103.0 146.0 103.0 148.0 L103.0 187.0 C103.0 189.0 102.0 190.0 100.0 190.0 L100.0 190.0 Z"></path>
<path fill="#000000" fill-opacity="1.0"  filling="0" d="M100.0 190.0 C98.0 190.0 97.0 189.0 97.0 187.0 L97.0 148.0 C97.0 146.0 98.0 145.0 100.0 145.0 C102.0 145.0 103.0 146.0 103.0 148.0 L103.0 187.0 C103.0 189.0 102.0 190.0 100.0 190.0 L100.0 190.0 Z"></path>
<path fill="#000000" fill-opacity="1.0"  filling="0" d="M100.0 190.0 C98.0 190.0 97.0 189.0 97.0 187.0 L97.0 148.0 C97.0 146.0 98.0 145.0 100.0 145.0 C102.0 145.0 103.0 146.0 103.0 148.0 L103.0 187.0 C103.0 189.0 102.0 190.0 100.0 190.0 L100.0 190.0 Z"></path>
<path fill="#000000" fill-opacity="1.0"  filling="0" d="M100.0 190.0 C98.0 190.0 97.0 189.0 97.0 187.0 L97.0 148.0 C97.0 146.0 98.0 145.0 100.0 145.0 C102.0 145.0 103.0 146.0 103.0 148.0 L103.0 187.0 C103.0 189.0 102.0 190.0 100.0 190.0 L100.0 190.0 Z"></path>
<path fill="#000000" fill-opacity="1.0"  filling="0" d="M100.0 190.0 C98.0 190.0 97.0 189.0 97.0 187.0 L97.0 148.0 C97.0 146.0 98.0 145.0 100.0 145.0 C102.0 145.0 103.0 146.0 103.0 148.0 L103.0 187.0 C103.0 189.0 102.0 190.0 100.0 190.0 L100.0 190.0 Z"></path>
<path fill="#000000" fill-opacity="1.0"  filling="0" d="M100.0 190.0 C98.0 190.0 97.0 189.0 97.0 187.0 L97.0 148.0 C97.0 146.0 98.0 145.0 100.0 145.0 C102.0 145.0 103.0 146.0 103.0 148.0 L103.0 187.0 C103.0 189.0 102.0 190.0 100.0 190.0 L100.0 190.0 Z"></path>
<path fill="#000000" fill-opacity="1.0"  filling="0" d="M100.0 190.0 C98.0 190.0 97.0 189.0 97.0 187.0 L97.0 148.0 C97.0 146.0 98.0 145.0 100.0 145.0 C102.0 145.0 103.0 146.0 103.0 148.0 L103.0 187.0 C103.0 189.0 102.0 190.0 100.0 190.0 L100.0 190.0 Z"></path>
<path fill="#000000" fill-opacity="1.0"  filling="0" d="M100.0 190.0 C98.0 190.0 97.0 189.0 97.0 187.0 L97.0 148.0 C97.0 146.0 98.0 145.0 100.0 145.0 C102.0 145.0 103.0 146.0 103.0 148.0 L103.0 187.0 C103.0 189.0 102.0 190.0 100.0 190.0 L100.0 190.0 Z"></path>
<path fill="#000000" fill-opacity="1.0"  filling="0" d="M100.0 190.0 C98.0 190.0 97.0 189.0 97.0 187.0 L97.0 148.0 C97.0 146.0 98.0 145.0 100.0 145.0 C102.0 145.0 103.0 146.0 103.0 148.0 L103.0 187.0 C103.0 189.0 102.0 190.0 100.0 190.0 L100.0 190.0 Z"></path>
<path fill="#000000" fill-opacity="1.0"  filling="0" d="M100.0 190.0 C98.0 190.0 97.0 189.0 97.0 187.0 L97.0 148.0 C97.0 146.0 98.0 145.0 100.0 145.0 C102.0 145.0 103.0 146.0 103.0 148.0 L103.0 187.0 C103.0 189.0 102.0 190.0 100.0 190.0 L100.0 190.0 Z"></path>
<path fill="#000000" fill-opacity="1.0"  filling="0" d="M100.0 190.0 C98.0 190.0 97.0 189.0 97.0 187.0 L97.0 148.0 C97.0 146.0 98.0 145.0 100.0 145.0 C102.0 145.0 103.0 146.0 103.0 148.0 L103.0 187.0 C103.0 189.0 102.0 190.0 100.0 190.0 L100.0 190.0 Z"></path>
<path fill="#000000" fill-opacity="1.0"  filling="0" d="M100.0 190.0 C98.0 190.0 97.0 189.0 97.0 187.0 L97.0 148.0 C97.0 146.0 98.0 145.0 100.0 145.0 C102.0 145.0 103.0 146.0 103.0 148.0 L103.0 187.0 C103.0 189.0 102.0 190.0 100.0 190.0 L100.0 190.0 Z"></path>
<path fill="#000000" fill-opacity="1.0"  filling="0" d="M100.0 190.0 C98.0 190.0 97.0 189.0 97.0 187.0 L97.0 148.0 C97.0 146.0 98.0 145.0 100.0 145.0 C102.0 145.0 103.0 146.0 103.0 148.0 L103.0 187.0 C103.0 189.0 102.0 190.0 100.0 190.0 L100.0 190.0 Z"></path>
<path fill="#000000" fill-opacity="1.0"  filling="0" d="M100.0 190.0 C98.0 190.0 97.0 189.0 97.0 187.0 L97.0 148.0 C97.0 146.0 98.0 145.0 100.0 145.0 C102.0 145.0 103.0 146.0 103.0 148.0 L103.0 187.0 C103.0 189.0 102.0 190.0 100.0 190.0 L100.0 190.0 Z"></path></svg>