<svg xmlns="http://www.w3.org/2000/svg" viewBox="0.0 0.0 200.0 200.0" height="200px" width="200px"><path fill="#ffffff" fill-opacity="1.0"  filling="0" d="M0.0 0.0 L199.0 0.0 L199.0 199.0 L0.0 199.0 L0.0 0.0 L0.0 0.0 Z"></path>
<path fill="#ffffff" fill-opacity="1.0"  filling="0" d="M0.0 0.0 L199.0 0.0 L199.0 199.0 L0.0 199.0 L0.0 0.0 L0.0 0.0 Z"></path>
<path fill="#ffffff" fill-opacity="1.0"  filling="0" d="M1.0 1.0 L199.0 1.0 L199.0 199.0 L1.0 199.0 L1.0 1.0 L1.0 1.0 Z"></path>
<path fill="#ffffff" fill-opacity="1.0"  filling="0" d="M1.0 1.0 L199.0 1.0 L199.0 199.0 L1.0 199.0 L1.0 1.0 L1.0 1.0 Z"></path>
<path fill="#333344" fill-opacity="1.0"  filling="0" d="M60.0 59.0 C60.0 59.0 60.0 59.0 60.0 59.0 L60.0 59.0 C55.0 59.0 51.0 62.0 51.0 67.0 L51.0 73.0 C51.0 77.0 55.0 81.0 60.0 81.0 L60.0 81.0 C60.0 81.0 60.0 81.0 60.0 81.0 L60.0 81.0 L60.0 59.0 L60.0 59.0 Z M140.0 69.0 L140.0 69.0 C140.0 69.0 140.0 69.0 140.0 69.0 L140.0 69.0 L140.0 81.0 L140.0 81.0 C140.0 81.0 140.0 81.0 140.0 81.0 L140.0 81.0 C145.0 81.0 149.0 77.0 149.0 73.0 L149.0 67.0 C149.0 62.0 145.0 59.0 140.0 59.0 L140.0 59.0 C140.0 59.0 140.0 59.0 140.0 59.0 L140.0 59.0 L140.0 69.0 L140.0 69.0 Z M100.0 29.0 C97.0 29.0 93.0 27.0 93.0 25.0 C93.0 22.0 97.0 19.0 100.0 19.0 C103.0 19.0 107.0 22.0 107.0 25.0 C107.0 27.0 103.0 29.0 100.0 29.0 L100.0 29.0 Z M100.0 29.0 C96.0 29.0 93.0 26.0 93.0 25.0 C93.0 23.0 96.0 21.0 100.0 21.0 C104.0 21.0 107.0 23.0 107.0 25.0 C107.0 26.0 104.0 29.0 100.0 29.0 L100.0 29.0 Z"></path>
<path fill="#333344" fill-opacity="1.0"  filling="0" d="M97.0 31.0 L103.0 31.0 L103.0 42.0 L97.0 42.0 L97.0 31.0 L97.0 31.0 Z M100.0 182.0 L70.0 182.0 C68.0 182.0 67.0 181.0 67.0 179.0 C67.0 169.0 73.0 162.0 81.0 162.0 L100.0 162.0 L100.0 182.0 L100.0 182.0 Z M100.0 182.0 L130.0 182.0 C132.0 182.0 133.0 181.0 133.0 179.0 C133.0 169.0 127.0 162.0 119.0 162.0 L100.0 162.0 L100.0 182.0 L100.0 182.0 Z"></path>
<path fill="#445555" fill-opacity="1.0"  filling="0" d="M75.0 165.0 L125.0 165.0 L125.0 178.0 L75.0 178.0 L75.0 165.0 L75.0 165.0 Z"></path>
<path fill="#445555" fill-opacity="1.0"  filling="0" d="M75.0 152.0 L125.0 152.0 C130.0 152.0 135.0 147.0 135.0 140.0 L135.0 97.0 C135.0 91.0 130.0 86.0 125.0 86.0 L75.0 86.0 C70.0 86.0 65.0 91.0 65.0 97.0 L65.0 140.0 C65.0 147.0 70.0 152.0 75.0 152.0 L75.0 152.0 Z"></path>
<path fill="#cccccc" fill-opacity="1.0"  filling="0" d="M78.0 100.0 L122.0 100.0 C127.0 100.0 130.0 104.0 130.0 108.0 L130.0 140.0 C130.0 144.0 127.0 147.0 122.0 147.0 L78.0 147.0 C73.0 147.0 70.0 144.0 70.0 140.0 L70.0 108.0 C70.0 104.0 73.0 100.0 78.0 100.0 L78.0 100.0 Z"></path>
<path fill="#cccccc" fill-opacity="1.0"  filling="0" d="M122.0 50.0 L78.0 50.0 C69.0 50.0 62.0 57.0 62.0 66.0 L62.0 84.0 C62.0 93.0 69.0 100.0 78.0 100.0 L122.0 100.0 C131.0 100.0 138.0 93.0 138.0 84.0 L138.0 66.0 C138.0 57.0 131.0 50.0 122.0 50.0 L122.0 50.0 Z"></path>
<path fill="#cccccc" fill-opacity="1.0"  filling="0" d="M122.0 50.0 L78.0 50.0 C69.0 50.0 62.0 57.0 62.0 66.0 L62.0 84.0 C62.0 93.0 69.0 100.0 78.0 100.0 L122.0 100.0 C131.0 100.0 138.0 93.0 138.0 84.0 L138.0 66.0 C138.0 57.0 131.0 50.0 122.0 50.0 L122.0 50.0 Z"></path>
<path fill="#cccccc" fill-opacity="1.0"  filling="0" d="M78.0 44.0 L122.0 44.0 C128.0 44.0 134.0 50.0 134.0 57.0 L134.0 84.0 C134.0 90.0 128.0 95.0 122.0 95.0 L78.0 95.0 C71.0 95.0 66.0 90.0 66.0 84.0 L66.0 57.0 C66.0 50.0 71.0 44.0 78.0 44.0 L78.0 44.0 Z"></path>
<path fill="#cccccc" fill-opacity="1.0"  filling="0" d="M78.0 56.0 L122.0 56.0 C128.0 56.0 134.0 61.0 134.0 68.0 L134.0 84.0 C134.0 90.0 128.0 95.0 122.0 95.0 L78.0 95.0 C71.0 95.0 66.0 90.0 66.0 84.0 L66.0 68.0 C66.0 61.0 71.0 56.0 78.0 56.0 L78.0 56.0 Z"></path>
<path fill="#445555" fill-opacity="1.0"  filling="0" d="M78.0 119.0 L122.0 119.0 C128.0 119.0 132.0 123.0 132.0 129.0 L132.0 135.0 C132.0 141.0 128.0 145.0 122.0 145.0 L78.0 145.0 C72.0 145.0 68.0 141.0 68.0 135.0 L68.0 129.0 C68.0 123.0 72.0 119.0 78.0 119.0 L78.0 119.0 Z"></path>
<path fill="#445555" fill-opacity="1.0"  filling="0" d="M78.0 119.0 L122.0 119.0 C128.0 119.0 132.0 123.0 132.0 129.0 L132.0 135.0 C132.0 141.0 128.0 145.0 122.0 145.0 L78.0 145.0 C72.0 145.0 68.0 141.0 68.0 135.0 L68.0 129.0 C68.0 123.0 72.0 119.0 78.0 119.0 L78.0 119.0 Z"></path>
<path fill="#cccccc" fill-opacity="1.0"  filling="0" d="M78.0 115.0 L122.0 115.0 C129.0 115.0 135.0 121.0 135.0 128.0 L135.0 137.0 C135.0 143.0 129.0 149.0 122.0 149.0 L78.0 149.0 C71.0 149.0 65.0 143.0 65.0 137.0 L65.0 128.0 C65.0 121.0 71.0 115.0 78.0 115.0 L78.0 115.0 Z"></path>
<path fill="#cccccc" fill-opacity="1.0"  filling="0" d="M78.0 115.0 L122.0 115.0 C129.0 115.0 135.0 121.0 135.0 128.0 L135.0 137.0 C135.0 143.0 129.0 149.0 122.0 149.0 L78.0 149.0 C71.0 149.0 65.0 143.0 65.0 137.0 L65.0 128.0 C65.0 121.0 71.0 115.0 78.0 115.0 L78.0 115.0 Z"></path>
<path fill="#cccccc" fill-opacity="1.0"  filling="0" d="M78.0 112.0 L122.0 112.0 C130.0 112.0 135.0 118.0 135.0 125.0 L135.0 135.0 C135.0 142.0 130.0 147.0 122.0 147.0 L78.0 147.0 C71.0 147.0 65.0 142.0 65.0 135.0 L65.0 125.0 C65.0 118.0 71.0 112.0 78.0 112.0 L78.0 112.0 Z"></path>
<path fill="#cccccc" fill-opacity="1.0"  filling="0" d="M122.0 88.0 L78.0 88.0 C71.0 88.0 65.0 82.0 65.0 75.0 L65.0 65.0 C65.0 58.0 71.0 53.0 78.0 53.0 L122.0 53.0 C129.0 53.0 135.0 58.0 135.0 65.0 L135.0 75.0 C135.0 82.0 129.0 88.0 122.0 88.0 L122.0 88.0 Z"></path>
<path fill="#cccccc" fill-opacity="1.0"  filling="0" d="M79.0 88.0 L121.0 88.0 C128.0 88.0 133.0 94.0 133.0 101.0 L133.0 112.0 C133.0 119.0 128.0 124.0 121.0 124.0 L79.0 124.0 C73.0 124.0 67.0 119.0 67.0 112.0 L67.0 101.0 C67.0 94.0 73.0 88.0 79.0 88.0 L79.0 88.0 Z"></path>
<path fill="#cccccc" fill-opacity="1.0"  filling="0" d="M79.0 88.0 L121.0 88.0 C128.0 88.0 133.0 94.0 133.0 101.0 L133.0 112.0 C133.0 119.0 128.0 124.0 121.0 124.0 L79.0 124.0 C73.0 124.0 67.0 119.0 67.0 112.0 L67.0 101.0 C67.0 94.0 73.0 88.0 79.0 88.0 L79.0 88.0 Z"></path>
<path fill="#cccccc" fill-opacity="1.0"  filling="0" d="M79.0 85.0 L121.0 85.0 C129.0 85.0 135.0 91.0 135.0 98.0 L135.0 109.0 C135.0 116.0 129.0 121.0 121.0 121.0 L79.0 121.0 C71.0 121.0 65.0 116.0 65.0 109.0 L65.0 98.0 C65.0 91.0 71.0 85.0 79.0 85.0 L79.0 85.0 Z"></path>
<path fill="#cccccc" fill-opacity="1.0"  filling="0" d="M79.0 85.0 L121.0 85.0 C129.0 85.0 135.0 91.0 135.0 98.0 L135.0 109.0 C135.0 116.0 129.0 121.0 121.0 121.0 L79.0 121.0 C71.0 121.0 65.0 116.0 65.0 109.0 L65.0 98.0 C65.0 91.0 71.0 85.0 79.0 85.0 L79.0 85.0 Z"></path>
<path fill="#cccccc" fill-opacity="1.0"  filling="0" d="M79.0 81.0 L121.0 81.0 C128.0 81.0 133.0 87.0 133.0 93.0 L133.0 104.0 C133.0 111.0 128.0 116.0 121.0 116.0 L79.0 116.0 C72.0 116.0 67.0 111.0 67.0 104.0 L67.0 93.0 C67.0 87.0 72.0 81.0 79.0 81.0 L79.0 81.0 Z"></path>
<path fill="#cccccc" fill-opacity="1.0"  filling="0" d="M79.0 81.0 L121.0 81.0 C128.0 81.0 133.0 87.0 133.0 93.0 L133.0 104.0 C133.0 111.0 128.0 116.0 121.0 116.0 L79.0 116.0 C72.0 116.0 67.0 111.0 67.0 104.0 L67.0 93.0 C67.0 87.0 72.0 81.0 79.0 81.0 L79.0 81.0 Z"></path>
<path fill="#cccccc" fill-opacity="1.0"  filling="0" d="M79.0 77.0 L121.0 77.0 C128.0 77.0 133.0 83.0 133.0 89.0 L133.0 100.0 C133.0 106.0 128.0 111.0 121.0 111.0 L79.0 111.0 C72.0 111.0 67.0 106.0 67.0 100.0 L67.0 89.0 C67.0 83.0 72.0 77.0 79.0 77.0 L79.0 77.0 Z"></path>
<path fill="#cccccc" fill-opacity="1.0"  filling="0" d="M79.0 78.0 L121.0 78.0 C128.0 78.0 133.0 84.0 133.0 91.0 L133.0 102.0 C133.0 108.0 128.0 113.0 121.0 113.0 L79.0 113.0 C72.0 113.0 67.0 108.0 67.0 102.0 L67.0 91.0 C67.0 84.0 72.0 78.0 79.0 78.0 L79.0 78.0 Z"></path>
<path fill="#cccccc" fill-opacity="1.0"  filling="0" d="M79.0 75.0 L121.0 75.0 C128.0 75.0 133.0 81.0 133.0 87.0 L133.0 98.0 C133.0 105.0 128.0 110.0 121.0 110.0 L79.0 110.0 C72.0 110.0 67.0 105.0 67.0 98.0 L67.0 87.0 C67.0 81.0 72.0 75.0 79.0 75.0 L79.0 75.0 Z"></path>
<path fill="#cccccc" fill-opacity="1.0"  filling="0" d="M79.0 72.0 L121.0 72.0 C128.0 72.0 133.0 78.0 133.0 85.0 L133.0 95.0 C133.0 101.0 128.0 106.0 121.0 106.0 L79.0 106.0 C72.0 106.0 67.0 101.0 67.0 95.0 L67.0 85.0 C67.0 78.0 72.0 72.0 79.0 72.0 L79.0 72.0 Z"></path>
<path fill="#cccccc" fill-opacity="1.0"  filling="0" d="M79.0 69.0 L121.0 69.0 C128.0 69.0 133.0 75.0 133.0 82.0 L133.0 92.0 C133.0 99.0 128.0 104.0 121.0 104.0 L79.0 104.0 C72.0 104.0 67.0 99.0 67.0 92.0 L67.0 82.0 C67.0 75.0 72.0 69.0 79.0 69.0 L79.0 69.0 Z"></path>
<path fill="#cccccc" fill-opacity="1.0"  filling="0" d="M79.0 66.0 L121.0 66.0 C128.0 66.0 133.0 72.0 133.0 79.0 L133.0 88.0 C133.0 95.0 128.0 100.0 121.0 100.0 L79.0 100.0 C72.0 100.0 67.0 95.0 67.0 88.0 L67.0 79.0 C67.0 72.0 72.0 66.0 79.0 66.0 L79.0 66.0 Z"></path>
<path fill="#cccccc" fill-opacity="1.0"  filling="0" d="M79.0 62.0 L121.0 62.0 C128.0 62.0 133.0 68.0 133.0 74.0 L133.0 84.0 C133.0 90.0 128.0 96.0 121.0 96.0 L79.0 96.0 C72.0 96.0 67.0 90.0 67.0 84.0 L67.0 74.0 C67.0 68.0 72.0 62.0 79.0 62.0 L79.0 62.0 Z"></path>
<path fill="#cccccc" fill-opacity="1.0"  filling="0" d="M79.0 61.0 L121.0 61.0 C128.0 61.0 133.0 66.0 133.0 73.0 L133.0 83.0 C133.0 89.0 128.0 94.0 121.0 94.0 L79.0 94.0 C72.0 94.0 67.0 89.0 67.0 83.0 L67.0 73.0 C67.0 66.0 72.0 61.0 79.0 61.0 L79.0 61.0 Z"></path>
<path fill="#cccccc" fill-opacity="1.0"  filling="0" d="M79.0 58.0 L121.0 58.0 C128.0 58.0 133.0 64.0 133.0 71.0 L133.0 81.0 C133.0 88.0 128.0 93.0 121.0 93.0 L79.0 93.0 C72.0 93.0 67.0 88.0 67.0 81.0 L67.0 71.0 C67.0 64.0 72.0 58.0 79.0 58.0 L79.0 58.0 Z"></path>
<path fill="#cccccc" fill-opacity="1.0"  filling="0" d="M79.0 56.0 L121.0 56.0 C128.0 56.0 133.0 62.0 133.0 69.0 L133.0 78.0 C133.0 85.0 128.0 90.0 121.0 90.0 L79.0 90.0 C72.0 90.0 67.0 85.0 67.0 78.0 L67.0 69.0 C67.0 62.0 72.0 56.0 79.0 56.0 L79.0 56.0 Z"></path>
<path fill="#cccccc" fill-opacity="1.0"  filling="0" d="M79.0 53.0 L121.0 53.0 C128.0 53.0 133.0 59.0 133.0 66.0 L133.0 76.0 C133.0 83.0 128.0 88.0 121.0 88.0 L79.0 88.0 C72.0 88.0 67.0 83.0 67.0 76.0 L67.0 66.0 C67.0 59.0 72.0 53.0 79.0 53.0 L79.0 53.0 Z"></path>
<path fill="#cccccc" fill-opacity="1.0"  filling="0" d="M79.0 50.0 L121.0 50.0 C128.0 50.0 133.0 55.0 133.0 61.0 L133.0 72.0 C133.0 78.0 128.0 83.0 121.0 83.0 L79.0 83.0 C72.0 83.0 67.0 78.0 67.0 72.0 L67.0 61.0 C67.0 55.0 72.0 50.0 79.0 50.0 L79.0 50.0 Z"></path>
<path fill="#cccccc" fill-opacity="1.0"  filling="0" d="M79.0 48.0 L121.0 48.0 C128.0 48.0 133.0 54.0 133.0 61.0 L133.0 71.0 C133.0 78.0 128.0 84.0 121.0 84.0 L79.0 84.0 C72.0 84.0 67.0 78.0 67.0 71.0 L67.0 61.0 C67.0 54.0 72.0 48.0 79.0 48.0 L79.0 48.0 Z"></path>
<path fill="#cccccc" fill-opacity="1.0"  filling="0" d="M79.0 47.0 L121.0 47.0 C128.0 47.0 133.0 52.0 133.0 59.0 L133.0 68.0 C133.0 75.0 128.0 79.0 121.0 79.0 L79.0 79.0 C72.0 79.0 67.0 75.0 67.0 68.0 L67.0 59.0 C67.0 52.0 72.0 47.0 79.0 47.0 L79.0 47.0 Z"></path>
<path fill="#000000" fill-opacity="1.0"  filling="0" d="M79.0 45.0 L121.0 45.0 C128.0 45.0 133.0 51.0 133.0 58.0 L133.0 70.0 C133.0 77.0 128.0 82.0 121.0 82.0 L79.0 82.0 C72.0 82.0 67.0 77.0 67.0 70.0 L67.0 58.0"></path></svg>