<svg xmlns="http://www.w3.org/2000/svg" viewBox="0.0 0.0 200.0 200.0" height="200px" width="200px"><path fill="#ffffff" fill-opacity="1.0"  filling="0" d="M0.0 0.0 L199.0 0.0 L199.0 199.0 L0.0 199.0 L0.0 0.0 L0.0 0.0 Z"></path>
<path fill="#ffffff" fill-opacity="1.0"  filling="0" d="M0.0 0.0 L199.0 0.0 L199.0 199.0 L0.0 199.0 L0.0 0.0 L0.0 0.0 Z"></path>
<path fill="#ffffff" fill-opacity="1.0"  filling="0" d="M1.0 1.0 L199.0 1.0 L199.0 199.0 L1.0 199.0 L1.0 1.0 L1.0 1.0 Z"></path>
<path fill="#ffffff" fill-opacity="1.0"  filling="0" d="M1.0 1.0 L199.0 1.0 L199.0 199.0 L1.0 199.0 L1.0 1.0 L1.0 1.0 Z"></path>
<path fill="#333344" fill-opacity="1.0"  filling="0" d="M60.0 59.0 C60.0 59.0 60.0 59.0 60.0 59.0 L60.0 59.0 C55.0 59.0 51.0 62.0 51.0 67.0 L51.0 73.0 C51.0 77.0 55.0 81.0 60.0 81.0 L60.0 81.0 C60.0 81.0 60.0 81.0 60.0 81.0 L60.0 81.0 L60.0 59.0 L60.0 59.0 Z M140.0 69.0 C140.0 69.0 140.0 69.0 140.0 69.0 L140.0 69.0 C145.0 69.0 149.0 73.0 149.0 77.0 L149.0 72.0 C149.0 67.0 145.0 63.0 140.0 63.0 L140.0 63.0 C140.0 63.0 140.0 63.0 140.0 63.0 L140.0 63.0 L140.0 69.0 L140.0 69.0 Z"></path>
<path fill="#333344" fill-opacity="1.0"  filling="0" d="M140.0 60.0 C140.0 47.0 131.0 38.0 121.0 38.0 L103.0 38.0 L103.0 32.0 C106.0 31.0 107.0 28.0 107.0 25.0 C107.0 21.0 104.0 18.0 100.0 18.0 C96.0 18.0 93.0 21.0 93.0 25.0 C93.0 28.0 94.0 31.0 97.0 32.0 L97.0 38.0 L79.0 38.0 C69.0 38.0 60.0 47.0 60.0 58.0 L60.0 81.0 C60.0 93.0 69.0 101.0 79.0 101.0 L121.0 101.0 C131.0 101.0 140.0 93.0 140.0 81.0 L140.0 60.0 L140.0 60.0 Z M135.0 84.0 C135.0 90.0 130.0 95.0 125.0 95.0 L75.0 95.0 C70.0 95.0 65.0 90.0 65.0 84.0 L65.0 60.0 C65.0 51.0 71.0 43.0 79.0 43.0 L121.0 43.0 C129.0 43.0 135.0 51.0 135.0 60.0 L135.0 84.0 L135.0 84.0 Z"></path>
<path fill="#000000" fill-opacity="1.0"  filling="0" d="M117.0 59.0 C112.0 59.0 108.0 63.0 108.0 68.0 C108.0 73.0 112.0 77.0 117.0 77.0 C122.0 77.0 126.0 73.0 126.0 68.0 C126.0 63.0 122.0 59.0 117.0 59.0 L117.0 59.0 Z M117.0 72.0 C115.0 72.0 113.0 70.0 113.0 68.0 C113.0 66.0 115.0 64.0 117.0 64.0 C119.0 64.0 121.0 66.0 121.0 68.0 C121.0 70.0 119.0 72.0 117.0 72.0 L117.0 72.0 Z M83.0 59.0 C78.0 59.0 74.0 63.0 74.0 68.0 C74.0 73.0 78.0 77.0 83.0 77.0 C88.0 77.0 92.0 73.0 92.0 68.0 C92.0 63.0 88.0 59.0 83.0 59.0 L83.0 59.0 Z M83.0 72.0 C81.0 72.0 79.0 70.0 79.0 68.0 C79.0 66.0 81.0 64.0 83.0 64.0 C85.0 64.0 87.0 66.0 87.0 68.0 C87.0 70.0 85.0 72.0 83.0 72.0 L83.0 72.0 Z M110.0 82.0 L90.0 82.0 C88.0 82.0 87.0 83.0 87.0 84.0 C87.0 85.0 88.0 86.0 90.0 86.0 L110.0 86.0 C112.0 86.0 113.0 85.0 113.0 84.0 C113.0 83.0 112.0 82.0 110.0 82.0 L110.0 82.0 Z M131.0 99.0 C131.0 99.0 130.0 99.0 129.0 99.0 C128.0 99.0 126.0 99.0 125.0 99.0 L75.0 99.0 C74.0 99.0 72.0 99.0 71.0 99.0 C70.0 99.0 69.0 99.0 68.0 99.0 C58.0 101.0 49.0 110.0 49.0 121.0 C49.0 131.0 56.0 139.0 65.0 140.0 C65.0 146.0 69.0 151.0 75.0 152.0 L75.0 164.0 C70.0 165.0 66.0 172.0 66.0 179.0 C66.0 180.0 68.0 182.0 70.0 182.0 L93.0 182.0 C95.0 182.0 96.0 180.0 96.0 179.0 L96.0 152.0 L103.0 152.0 L103.0 179.0 C103.0 180.0 105.0 182.0 107.0 182.0 L130.0 182.0 C132.0 182.0 133.0 180.0 133.0 179.0 C133.0 172.0 130.0 165.0 125.0 164.0 L125.0 152.0 C130.0 151.0 134.0 146.0 135.0 140.0 C144.0 139.0 151.0 131.0 151.0 121.0 C151.0 110.0 142.0 101.0 131.0 99.0 L131.0 99.0 Z M54.0 121.0 C54.0 114.0 59.0 108.0 65.0 105.0 C65.0 107.0 65.0 109.0 65.0 111.0 L64.0 114.0 C64.0 115.0 64.0 116.0 63.0 116.0 C61.0 118.0 60.0 120.0 61.0 122.0 C61.0 125.0 64.0 127.0 67.0 127.0 L71.0 127.0 C72.0 130.0 73.0 133.0 74.0 135.0 C72.0 135.0 69.0 135.0 67.0 135.0 C60.0 135.0 54.0 129.0 54.0 121.0 L54.0 121.0 Z M89.0 146.0 L89.0 146.0 C89.0 146.0 89.0 146.0 88.0 146.0 C88.0 146.0 88.0 147.0 87.0 147.0 C87.0 147.0 86.0 147.0 85.0 147.0 C85.0 148.0 84.0 148.0 83.0 148.0 C82.0 148.0 81.0 148.0 80.0 148.0 C80.0 148.0 79.0 148.0 79.0 147.0 C78.0 147.0 78.0 147.0 78.0 147.0 C78.0 147.0 77.0 147.0 77.0 147.0 C73.0 147.0 70.0 144.0 70.0 140.0 C75.0 140.0 80.0 140.0 85.0 138.0 C88.0 137.0 91.0 135.0 93.0 132.0 C93.0 132.0 93.0 132.0 93.0 132.0 C93.0 132.0 93.0 132.0 93.0 132.0 C93.0 132.0 93.0 132.0 93.0 132.0 C93.0 132.0 93.0 132.0 93.0 132.0 C93.0 132.0 93.0 132.0 93.0 132.0 C93.0 132.0 93.0 132.0 93.0 132.0 C93.0 132.0 93.0 132.0 93.0 132.0 C93.0 132.0 93.0 132.0 93.0 132.0 C93.0 132.0 93.0 132.0 93.0 132.0 C93.0 132.0 93.0 132.0 93.0 132.0 C93.0 132.0 93.0 132.0 93.0 132.0 C93.0 132.0 93.0 132.0 93.0 132.0 C93.0 132.0 93.0 132.0 93.0 132.0 C93.0 132.0 93.0 132.0 93.0 132.0 C93.0 132.0 93.0 132.0 93.0 132.0 C93.0 132.0 93.0 132.0 93.0 132.0 C93.0 132.0 93.0 132.0 93.0 132.0 C93.0 132.0 93.0 132.0 93.0 132.0 C93.0 132.0 93.0 132.0 93.0 132.0 C93.0 132.0 93.0 132.0 93.0 132.0 C93.0 132.0 93.0 132.0 93.0 132.0 C93.0 132.0 93.0 132.0 93.0 132.0 C93.0 132.0 93.0 132.0 93.0 132.0 C93.0 132.0 93.0 132.0 93.0 132.0 C93.0 132.0 93.0 132.0 93.0 132.0 C93.0 132.0 93.0 132.0 93.0 132.0 C93.0 132.0 93.0 132.0 93.0 132.0 C93.0 132.0 93.0 132.0 93.0 132.0 C93.0 132.0 93.0 132.0 93.0 132.0 C93.0 132.0 93.0 132.0 93.0 132.0 C93.0 132.0 93.0 132.0 93.0 132.0 C93.0 132.0 93.0 132.0 93.0 132.0 C93.0 132.0 93.0 132.0 93.0 132.0 C93.0 132.0 93.0 132.0 93.0 132.0 C93.0 132.0 93.0 132.0 93.0 132.0 C93.0 132.0 93.0 132.0 93.0 132.0 C93.0 132.0 93.0 132.0 93.0 132.0 C93.0 132.0 93.0 132.0 93.0 132.0 C93.0 132.0 93.0 132.0 93.0 132.0 C93.0 132.0 93.0 132.0 93.0 132.0 C93.0 132.0 93.0 132.0 93.0 132.0 C93.0 132.0 93.0 132.0 93.0 132.0 C93.0 132.0 93.0 132.0 93.0 132.0 C93.0 132.0 93.0 132.0 93.0 132.0 C93.0 132.0 93.0 132.0 93.0 132.0 C93.0 132.0 93.0 132.0 93.0 132.0 C93.0 132.0 93.0 132.0 93.0 132.0 C93.0 132.0 93.0 132.0 93.0 132.0 C93.0 132.0 93.0 132.0 93.0 132.0 C93.0 132.0 93.0 132.0 93.0 132.0 C93.0 132.0 93.0 132.0 93.0 132.0 C93.0 132.0 93.0 132.0 93.0 132.0 C93.0 132.0 93.0 132.0 93.0 132.0 C93.0 132.0 93.0 132.0 93.0 132.0 C93.0 132.0 93.0 132.0 93.0 132.0 C93.0 132.0 93.0 132.0 93.0 132.0 C93.0 132.0 93.0 132.0 93.0 132.0 C93.0 132.0 93.0 132.0 93.0 132.0 C93.0 132.0 93.0 132.0 93.0 132.0 C93.0 132.0 93.0 132.0 93.0 132.0 C93.0 132.0 93.0 132.0 93.0 132.0 C93.0 132.0 93.0 132.0 93.0 132.0 C93.0 132.0 93.0 132.0 93.0 132.0 C93.0 132.0 93.0 132.0 93.0 132.0 C93.0 132.0 93.0 132.0 93.0 132.0 C93.0 132.0 93.0 132.0 93.0 132.0 C93.0 132.0 93.0 132.0 93.0 132.0 C93.0 132.0 93.0 132.0 93.0 132.0 C93.0 132.0 93.0 132.0 93.0 132.0 C93.0 132.0 93.0 132.0 93.0 132.0 C93.0 132.0 93.0 132.0 93.0 132.0 C93.0 132.0 93.0 132.0 93.0 132.0 C93.0 132.0 93.0 132.0 93.0 132.0 C93.0 132.0 93.0 132.0 93.0 132.0 C93.0 132.0 93.0 132.0 93.0 132.0 C93.0 132.0 93.0 132.0 93.0 132.0 C93.0 132.0 93.0 132.0 93.0 132.0 C93.0 132.0 93.0 132.0 93.0 132.0 C93.0 132.0 93.0 132.0 93.0 132.0 C93.0 132.0 93.0 132.0 93.0 132.0 C93.0 132.0 93.0 132.0 93.0 132.0 C93.0 132.0 93.0 132.0 93.0 132.0 C93.0 132.0 93.0 132.0 93.0 132.0 C93.0 132.0 93.0 132.0 93.0 132.0 C93.0 132.0 93.0 132.0 93.0 132.0 C93.0 132.0 93.0 132.0 93.0 132.0 C93.0 132.0 93.0 132.0 93.0 132.0 C93.0 132.0 93.0 132.0 93.0 132.0 C93.0 132.0 93.0 132.0 93.0 132.0 C93.0 132.0 93.0 132.0 93.0 132.0 C93.0 132.0 93.0 132.0 93.0 132.0 C93.0 132.0 93.0 132.0 93.0 132.0 C93.0 132.0 93.0 132.0 93.0 132.0 C93.0 132.0 93.0 132.0 93.0 132.0 C93.0 132.0 93.0 132.0 93.0 132.0 C93.0 132.0 93.0 132.0 93.0 132.0 C93.0 132.0 93.0 132.0 93.0 132.0 C93.0 132.0 93.0 132.0 93.0 132.0 C93.0 132.0 93.0 132.0 93.0 132.0 C93.0 132.0 93.0 132.0 93.0 132.0 C93.0 132.0 93.0 132.0 93.0 132.0 C93.0 132.0 93.0 132.0 93.0 132.0 C93.0 132.0 93.0 132.0 93.0 132.0 C93.0 132.0 93.0 132.0 93.0 132.0 C93.0 132.0 93.0 132.0 93.0 132.0 C93.0 132.0 93.0 132.0 93.0 132.0 C93.0 132.0 93.0 132.0 93.0 132.0 C93.0 132.0 93.0 132.0 93.0 132.0 C93.0 132.0 93.0 132.0 93.0 132.0 C93.0 132.0 93.0 132.0 93.0 132.0 C93.0 132.0 93.0 132.0 93.0 132.0 C93.0 132.0 93.0 132.0 93.0 132.0 C93.0 132.0 93.0 132.0 93.0 132.0 C93.0 132.0 93.0 132.0 93.0 132.0 C93.0 132.0 93.0 132.0 93.0 132.0 C93.0 132.0 93.0 132.0 93.0 132.0 C93.0 132.0 93.0 132.0 93.0 132.0 C93.0 132.0 93.0 132.0 93.0 132.0 C93.0 132.0 93.0 132.0 107.0 132.0 C107.0 132.0 107.0 132.0 107.0 132.0 C107.0 132.0 107.0 132.0 107.0 132.0 C107.0 132.0 107.0 132.0 107.0 132.0 C107.0 132.0 107.0 132.0 107.0 132.0 C107.0 132.0 107.0 132.0 107.0 132.0 C107.0 132.0 107.0 132.0 107.0 132.0 C107.0 132.0 107.0 132.0 107.0 132.0 C107.0 132.0 107.0 132.0 107.0 132.0 C107.0 132.0 107.0 132.0 107.0 132.0 C107.0 132.0 107.0 132.0 107.0 132.0 C107.0 132.0 107.0 132.0 107.0 132.0 C107.0 132.0 107.0 132.0 107.0 132.0 C107.0 132.0 107.0 132.0 107.0 132.0 C107.0 132.0 107.0 132.0 107.0 132.0 C107.0 132.0 107.0 132.0 107.0 132.0 C107.0 132.0 107.0 132.0 107.0 132.0 C107.0 132.0 107.0 132.0 107.0 132.0 C107.0 132.0 107.0 132.0 107.0 132.0 C107.0 132.0 107.0 132.0 107.0 132.0 C107.0 132.0 107.0 132.0 107.0 132.0 C107.0 132.0 107.0 132.0 107.0 132.0 C107.0 132.0 107.0 132.0 107.0 132.0 C107.0 132.0 107.0 132.0 107.0 132.0 C107.0 132.0 107.0 132.0 107.0 132.0 C107.0 132.0 107.0 132.0 107.0 132.0 C107.0 132.0 107.0 132.0 107.0 132.0 C107.0 132.0 107.0 132.0 107.0 132.0 C107.0 132.0 107.0 132.0 107.0 132.0 C107.0 132.0 107.0 132.0 107.0 132.0 C107.0 132.0 107.0 132.0 107.0 132.0 C107.0 132.0 107.0 132.0 107.0 132.0 C107.0 132.0 107.0 132.0 107.0 132.0 C107.0 132.0 107.0 132.0 107.0 132.0 C107.0 132.0 107.0 132.0 107.0 132.0 C107.0 132.0 107.0 132.0 107.0 132.0 C107.0 132.0 107.0 132.0 107.0 132.0 C107.0 132.0 107.0 132.0 107.0 132.0 C107.0 132.0 107.0 132.0 107.0 132.0 C107.0 132.0 107.0 132.0 107.0 132.0 C107.0 132.0 107.0 132.0 107.0 132.0 C107.0 132.0 107.0 132.0 107.0 132.0 C107.0 132.0 107.0 132.0 107.0 132.0 C107.0 132.0 107.0 132.0 107.0 132.0 C107.0 132.0 107.0 132.0 107.0 132.0 C107.0 132.0 107.0 132.0 107.0 132.0 C107.0 132.0 107.0 132.0 107.0 132.0 C107.0 132.0 107.0 132.0 107.0 132.0 C107.0 132.0 107.0 132.0 107.0 132.0 C107.0 132.0 107.0 132.0 107.0 132.0 C107.0 132.0 107.0 132.0 107.0 132.0 C107.0 132.0 107.0 132.0 107.0 132.0 C107.0 132.0 107.0 132.0 107.0 132.0 C107.0 132.0 107.0 132.0 107.0 132.0 C107.0 132.0 107.0 132.0 107.0 132.0 C107.0 132.0 107.0 132.0 107.0 132.0 C107.0 132.0 107.0 132.0 107.0 132.0 C107.0 132.0 107.0 132.0 107.0 132.0 C107.0 132.0 107.0 132.0 107.0 132.0 C107.0 132.0 107.0 132.0 107.0 132.0 C107.0 132.0 107.0 132.0 107.0 132.0 C107.0 132.0 107.0 132.0 107.0 132.0 C107.0 132.0 107.0 132.0 107.0 132.0 C107.0 132.0 107.0 132.0 107.0 132.0 C107.0 132.0 107.0 132.0 107.0 132.0 C107.0 132.0 107.0 132.0 107.0 132.0 C107.0 132.0 107.0 132.0 107.0 132.0 C107.0 132.0 107.0 132.0 107.0 132.0 C107.0 132.0 107.0 132.0 107.0 132.0 C107.0 132.0 107.0 132.0 107.0 132.0 C107.0 132.0 107.0 132.0 107.0 132.0 C107.0 132.0 107.0 132.0 107.0 132.0 C107.0 132.0 107.0 132.0 107.0 132.0 C107.0 132.0 107.0 132.0 107.0 132.0 C107.0 132.0 107.0 132.0 107.0 132.0 C107.0 132.0 107.0 132.0 107.0 132.0 C107.0 132.0 107.0 132.0 107.0 132.0 C107.0 132.0 107.0 132.0 107.0 132.0 C107.0 132.0 107.0 132.0 107.0 132.0 C107.0 132.0 107.0 132.0 107.0 132.0 C107.0 132.0 107.0 132.0 107.0 132.0 C107.0 132.0 107.0 132.0 107.0 132.0 C107.0 132.0 107.0 132.0 107.0 132.0 C107.0 132.0 107.0 132.0 107.0 132.0 C107.0 132.0 107.0 132.0 107.0 132.0 C107.0 132.0 107.0 132.0 107.0 132.0 C107.0 132.0 107.0 132.0 107.0 132.0 C107.0 132.0 107.0 132.0 107.0 132.0 C107.0 132.0 107.0 132.0 107.0 132.0 C107.0 132.0 107.0 132.0 107.0 132.0 C107.0 132.0 107.0 132.0 107.0 132.0 C107.0 132.0 107.0 132.0 107.0 132.0 C107.0 132.0 107.0 132.0 107.0 132.0 C107.0 132.0 107.0 132.0 107.0 132.0 C107.0 132.0 107.0 132.0 107.0 132.0 C107.0 132.0 107.0 132.0 107.0 132.0 C107.0 132.0 107.0 132.0 107.0 132.0 C107.0 132.0 107.0 132.0 107.0 132.0 C107.0 132.0 107.0 132.0 107.0 132.0 C107.0 132.0 107.0 132.0 107.0 132.0 C107.0 132.0 107.0 132.0 107.0 132.0 C107.0 132.0 107.0 132.0 107.0 132.0 C107.0 132.0 107.0 132.0 107.0 132.0 C107.0 132.0 107.0 132.0 107.0 132.0 C107.0 132.0 107.0 132.0 107.0 132.0 C107.0 132.0 107.0 132.0 107.0 132.0 C107.0 132.0 107.0 132.0 107.0 132.0 C107.0 132.0 107.0 132.0 107.0 132.0 C107.0 132.0 107.0 132.0 107.0 132.0 C107.0 132.0 107.0 132.0 107.0 132.0 C107.0 132.0 107.0 132.0 107.0 132.0 C107.0 132.0 107.0 132.0 107.0 132.0 C107.0 132.0 107.0 132.0 107.0 132.0 C107.0 132.0 107.0 132.0 107.0 132.0 C107.0 132.0 107.0 132.0 107.0 132.0 C107.0 132.0 107.0 132.0 107.0 132.0 C107.0 132.0 107.0 132.0 107.0 132.0"></path></svg>