<svg xmlns="http://www.w3.org/2000/svg" viewBox="0.0 0.0 200.0 200.0" height="200px" width="200px"><path fill="#ffffff" fill-opacity="1.0"  filling="0" d="M0.0 0.0 L199.0 0.0 L199.0 199.0 L0.0 199.0 L0.0 0.0 L0.0 0.0 Z"></path>
<path fill="#ffffff" fill-opacity="1.0"  filling="0" d="M0.0 0.0 L199.0 0.0 L199.0 199.0 L0.0 199.0 L0.0 0.0 L0.0 0.0 Z"></path>
<path fill="#cccccc" fill-opacity="1.0"  filling="0" d="M75.0 98.0 C67.0 98.0 61.0 92.0 61.0 84.0 L61.0 58.0 C61.0 48.0 68.0 41.0 78.0 41.0 L122.0 41.0 C131.0 41.0 138.0 48.0 138.0 58.0 L138.0 84.0 C138.0 91.0 133.0 98.0 125.0 98.0 L75.0 98.0 L75.0 98.0 Z"></path>
<path fill="#333344" fill-opacity="1.0"  filling="0" d="M122.0 43.0 C130.0 43.0 135.0 49.0 135.0 58.0 L135.0 84.0 C135.0 90.0 131.0 95.0 125.0 95.0 L75.0 95.0 C70.0 95.0 65.0 90.0 65.0 84.0 L65.0 58.0 C65.0 49.0 71.0 43.0 78.0 43.0 L122.0 43.0 M122.0 38.0 L78.0 38.0 C69.0 38.0 60.0 46.0 60.0 58.0 L60.0 84.0 C60.0 93.0 66.0 100.0 75.0 100.0 L125.0 100.0 C134.0 100.0 140.0 93.0 140.0 84.0 L140.0 58.0 C140.0 46.0 132.0 38.0 122.0 38.0 L122.0 38.0 Z"></path>
<path fill="#667777" fill-opacity="1.0"  filling="0" d="M62.0 62.0 L58.0 62.0 C56.0 62.0 54.0 64.0 54.0 66.0 L54.0 73.0 C54.0 75.0 56.0 77.0 58.0 77.0 L62.0 77.0 L62.0 62.0 L62.0 62.0 Z"></path>
<path fill="#333344" fill-opacity="1.0"  filling="0" d="M58.0 63.0 L61.0 63.0 L61.0 75.0 L58.0 75.0 C57.0 75.0 56.0 74.0 56.0 73.0 L56.0 66.0 C56.0 64.0 57.0 63.0 58.0 63.0 M58.0 59.0 C55.0 59.0 52.0 62.0 52.0 66.0 L52.0 73.0 C52.0 77.0 55.0 80.0 58.0 80.0 L65.0 80.0 L65.0 59.0 L58.0 59.0 L58.0 59.0 L58.0 59.0 Z"></path>
<path fill="#667777" fill-opacity="1.0"  filling="0" d="M138.0 77.0 L142.0 77.0 C144.0 77.0 146.0 75.0 146.0 73.0 L146.0 66.0 C146.0 64.0 144.0 62.0 142.0 62.0 L138.0 62.0 L138.0 77.0 L138.0 77.0 Z"></path>
<path fill="#333344" fill-opacity="1.0"  filling="0" d="M142.0 63.0 C143.0 63.0 144.0 64.0 144.0 66.0 L144.0 73.0 C144.0 74.0 143.0 75.0 142.0 75.0 L139.0 75.0 L139.0 63.0 L142.0 63.0 M142.0 59.0 L135.0 59.0 L135.0 80.0 L142.0 80.0 C145.0 80.0 148.0 77.0 148.0 73.0 L148.0 66.0 C148.0 62.0 145.0 59.0 142.0 59.0 L142.0 59.0 Z"></path>
<path fill="#cccccc" fill-opacity="1.0"  filling="0" d="M133.0 142.0 C133.0 146.0 129.0 150.0 124.0 150.0 L76.0 150.0 C71.0 150.0 67.0 146.0 67.0 142.0 L67.0 108.0 C67.0 103.0 71.0 98.0 76.0 98.0 L124.0 98.0 C129.0 98.0 133.0 103.0 133.0 108.0 L133.0 142.0 L133.0 142.0 Z"></path>
<path fill="#333344" fill-opacity="1.0"  filling="0" d="M124.0 100.0 C128.0 100.0 130.0 104.0 130.0 108.0 L130.0 142.0 C130.0 145.0 128.0 147.0 124.0 147.0 L76.0 147.0 C72.0 147.0 70.0 145.0 70.0 142.0 L70.0 108.0 C70.0 104.0 72.0 100.0 76.0 100.0 L124.0 100.0 M124.0 95.0 L76.0 95.0 C69.0 95.0 65.0 101.0 65.0 108.0 L65.0 142.0 C65.0 148.0 70.0 152.0 76.0 152.0 L124.0 152.0 C130.0 152.0 135.0 148.0 135.0 142.0 L135.0 108.0 C135.0 101.0 131.0 95.0 124.0 95.0 L124.0 95.0 Z"></path>
<path fill="#000000" fill-opacity="1.0"  filling="0" d="M69.0 144.0 C68.0 144.0 67.0 144.0 67.0 143.0 C67.0 143.0 68.0 142.0 69.0 142.0 L69.0 142.0 C70.0 142.0 71.0 143.0 71.0 143.0 C71.0 144.0 70.0 144.0 69.0 144.0 L69.0 144.0 L69.0 144.0 Z M131.0 144.0 C130.0 144.0 129.0 144.0 129.0 143.0 C129.0 143.0 130.0 142.0 131.0 142.0 L131.0 142.0 C132.0 142.0 133.0 143.0 133.0 143.0 C133.0 144.0 132.0 144.0 131.0 144.0 L131.0 144.0 L131.0 144.0 Z M124.0 144.0 C123.0 144.0 122.0 144.0 122.0 143.0 C122.0 143.0 123.0 142.0 124.0 142.0 L124.0 142.0 C125.0 142.0 126.0 143.0 126.0 143.0 C126.0 144.0 125.0 144.0 124.0 144.0 L124.0 144.0 L124.0 144.0 Z M117.0 144.0 C116.0 144.0 115.0 144.0 115.0 143.0 C115.0 143.0 116.0 142.0 117.0 142.0 L117.0 142.0 C118.0 142.0 119.0 143.0 119.0 143.0 C119.0 144.0 118.0 144.0 117.0 144.0 L117.0 144.0 L117.0 144.0 Z M109.0 144.0 C108.0 144.0 107.0 144.0 107.0 143.0 C107.0 143.0 108.0 142.0 109.0 142.0 L109.0 142.0 C110.0 142.0 111.0 143.0 111.0 143.0 C111.0 144.0 110.0 144.0 109.0 144.0 L109.0 144.0 L109.0 144.0 Z M100.0 144.0 C99.0 144.0 98.0 144.0 98.0 143.0 C98.0 143.0 99.0 142.0 100.0 142.0 L100.0 142.0 C101.0 142.0 102.0 143.0 102.0 143.0 C102.0 144.0 101.0 144.0 100.0 144.0 L100.0 144.0 L100.0 144.0 Z M91.0 144.0 C90.0 144.0 89.0 144.0 89.0 143.0 C89.0 143.0 90.0 142.0 91.0 142.0 L91.0 142.0 C92.0 142.0 93.0 143.0 93.0 143.0 C93.0 144.0 92.0 144.0 91.0 144.0 L91.0 144.0 L91.0 144.0 Z M83.0 144.0 C82.0 144.0 81.0 144.0 81.0 143.0 C81.0 143.0 82.0 142.0 83.0 142.0 L83.0 142.0 C84.0 142.0 85.0 143.0 85.0 143.0 C85.0 144.0 84.0 144.0 83.0 144.0 L83.0 144.0 L83.0 144.0 Z M76.0 144.0 C75.0 144.0 74.0 144.0 74.0 143.0 C74.0 143.0 75.0 142.0 76.0 142.0 L76.0 142.0 C77.0 142.0 78.0 143.0 78.0 143.0 C78.0 144.0 77.0 144.0 76.0 144.0 L76.0 144.0 L76.0 144.0 Z M69.0 144.0 C68.0 144.0 67.0 144.0 67.0 143.0 C67.0 143.0 68.0 142.0 69.0 142.0 L69.0 142.0 C70.0 142.0 71.0 143.0 71.0 143.0 C71.0 144.0 70.0 144.0 69.0 144.0 L69.0 144.0 L69.0 144.0 Z M131.0 144.0 C130.0 144.0 129.0 144.0 129.0 143.0 C129.0 143.0 130.0 142.0 131.0 142.0 L131.0 142.0 C132.0 142.0 133.0 143.0 133.0 143.0 C133.0 144.0 132.0 144.0 131.0 144.0 L131.0 144.0 L131.0 144.0 Z M124.0 144.0 C123.0 144.0 122.0 144.0 122.0 143.0 C122.0 143.0 123.0 142.0 124.0 142.0 L124.0 142.0 C125.0 142.0 126.0 143.0 126.0 143.0 C126.0 144.0 125.0 144.0 124.0 144.0 L124.0 144.0 L124.0 144.0 Z M117.0 144.0 C116.0 144.0 115.0 144.0 115.0 143.0 C115.0 143.0 116.0 142.0 117.0 142.0 L117.0 142.0 C118.0 142.0 119.0 143.0 119.0 143.0 C119.0 144.0 118.0 144.0 117.0 144.0 L117.0 144.0 L117.0 144.0 Z M109.0 144.0 C108.0 144.0 107.0 144.0 107.0 143.0 C107.0 143.0 108.0 142.0 109.0 142.0 L109.0 142.0 C110.0 142.0 111.0 143.0 111.0 143.0 C111.0 144.0 110.0 144.0 109.0 144.0 L109.0 144.0 L109.0 144.0 Z M100.0 144.0 C99.0 144.0 98.0 144.0 98.0 143.0 C98.0 143.0 99.0 142.0 100.0 142.0 L100.0 142.0 C101.0 142.0 102.0 143.0 102.0 143.0 C102.0 144.0 101.0 144.0 100.0 144.0 L100.0 144.0 L100.0 144.0 Z M91.0 144.0 C90.0 144.0 89.0 144.0 89.0 143.0 C89.0 143.0 90.0 142.0 91.0 142.0 L91.0 142.0 C92.0 142.0 93.0 143.0 93.0 143.0 C93.0 144.0 92.0 144.0 91.0 144.0 L91.0 144.0 L91.0 144.0 Z M83.0 144.0 C82.0 144.0 81.0 144.0 81.0 143.0 C81.0 143.0 82.0 142.0 83.0 142.0 L83.0 142.0 C84.0 142.0 85.0 143.0 85.0 143.0 C85.0 144.0 84.0 144.0 83.0 144.0 L83.0 144.0 L83.0 144.0 Z M76.0 144.0 C75.0 144.0 74.0 144.0 74.0 143.0 C74.0 143.0 75.0 142.0 76.0 142.0 L76.0 142.0 C77.0 142.0 78.0 143.0 78.0 143.0 C78.0 144.0 77.0 144.0 76.0 144.0 L76.0 144.0 L76.0 144.0 Z M69.0 144.0 C68.0 144.0 67.0 144.0 67.0 143.0 C67.0 143.0 68.0 142.0 69.0 142.0 L69.0 142.0 C70.0 142.0 71.0 143.0 71.0 143.0 C71.0 144.0 70.0 144.0 69.0 144.0 L69.0 144.0 L69.0 144.0 Z M131.0 144.0 C130.0 144.0 129.0 144.0 129.0 143.0 C129.0 143.0 130.0 142.0 131.0 142.0 L131.0 142.0 C132.0 142.0 133.0 143.0 133.0 143.0 C133.0 144.0 132.0 144.0 131.0 144.0 L131.0 144.0 L131.0 144.0 Z M124.0 144.0 C123.0 144.0 122.0 144.0 122.0 143.0 C122.0 143.0 123.0 142.0 124.0 142.0 L124.0 142.0 C125.0 142.0 126.0 143.0 126.0 143.0 C126.0 144.0 125.0 144.0 124.0 144.0 L124.0 144.0 L124.0 144.0 Z M117.0 144.0 C116.0 144.0 115.0 144.0 115.0 143.0 C115.0 143.0 116.0 142.0 117.0 142.0 L117.0 142.0 C118.0 142.0 119.0 143.0 119.0 143.0 C119.0 144.0 118.0 144.0 117.0 144.0 L117.0 144.0 L117.0 144.0 Z M109.0 144.0 C108.0 144.0 107.0 144.0 107.0 143.0 C107.0 143.0 108.0 142.0 109.0 142.0 L109.0 142.0 C110.0 142.0 111.0 143.0 111.0 143.0 C111.0 144.0 110.0 144.0 109.0 144.0 L109.0 144.0 L109.0 144.0 Z M100.0 144.0 C99.0 144.0 98.0 144.0 98.0 143.0 C98.0 143.0 99.0 142.0 100.0 142.0 L100.0 142.0 C101.0 142.0 102.0 143.0 102.0 143.0 C102.0 144.0 101.0 144.0 100.0 144.0 L100.0 144.0 L100.0 144.0 Z M91.0 144.0 C90.0 144.0 89.0 144.0 89.0 143.0 C89.0 143.0 90.0 142.0 91.0 142.0 L91.0 142.0 C92.0 142.0 93.0 143.0 93.0 143.0 C93.0 144.0 92.0 144.0 91.0 144.0 L91.0 144.0 L91.0 144.0 Z M83.0 144.0 C82.0 144.0 81.0 144.0 81.0 143.0 C81.0 143.0 82.0 142.0 83.0 142.0 L83.0 142.0 C84.0 142.0 85.0 143.0 85.0 143.0 C85.0 144.0 84.0 144.0 83.0 144.0 L83.0 144.0 L83.0 144.0 Z M76.0 144.0 C75.0 144.0 74.0 144.0 74.0 143.0 C74.0 143.0 75.0 142.0 76.0 142.0 L76.0 142.0 C77.0 142.0 78.0 143.0 78.0 143.0 C78.0 144.0 77.0 144.0 76.0 144.0 L76.0 144.0 L76.0 144.0 Z M69.0 144.0 C68.0 144.0 67.0 144.0 67.0 143.0 C67.0 143.0 68.0 142.0 69.0 142.0 L69.0 142.0 C70.0 142.0 71.0 143.0 71.0 143.0 C71.0 144.0 70.0 144.0 69.0 144.0 L69.0 144.0 L69.0 144.0 Z M131.0 144.0 C130.0 144.0 129.0 144.0 129.0 143.0 C129.0 143.0 130.0 142.0 131.0 142.0 L131.0 142.0 C132.0 142.0 133.0 143.0 133.0 143.0 C133.0 144.0 132.0 144.0 131.0 144.0 L131.0 144.0 L131.0 144.0 Z M124.0 144.0 C123.0 144.0 122.0 144.0 122.0 143.0 C122.0 143.0 123.0 142.0 124.0 142.0 L124.0 142.0 C125.0 142.0 126.0 143.0 126.0 143.0 C126.0 144.0 125.0 144.0 124.0 144.0 L124.0 144.0 L124.0 144.0 Z M117.0 144.0 C116.0 144.0 115.0 144.0 115.0 143.0 C115.0 143.0 116.0 142.0 117.0 142.0 L117.0 142.0 C118.0 142.0 119.0 143.0 119.0 143.0 C119.0 144.0 118.0 144.0 117.0 144.0 L117.0 144.0 L117.0 144.0 Z M109.0 144.0 C108.0 144.0 107.0 144.0 107.0 143.0 C107.0 143.0 108.0 142.0 109.0 142.0 L109.0 142.0 C110.0 142.0 111.0 143.0 111.0 143.0 C111.0 144.0 110.0 144.0 109.0 144.0 L109.0 144.0 L109.0 144.0 Z M100.0 144.0 C99.0 144.0 98.0 144.0 98.0 143.0 C98.0 143.0 99.0 142.0 100.0 142.0 L100.0 142.0 C101.0 142.0 102.0 143.0 102.0 143.0 C102.0 144.0 101.0 144.0 100.0 144.0 L100.0 144.0 L100.0 144.0 Z M91.0 144.0 C90.0 144.0 89.0 144.0 89.0 143.0 C89.0 143.0 90.0 142.0 91.0 142.0 L91.0 142.0 C92.0 142.0 93.0 143.0 93.0 143.0 C93.0 144.0 92.0 144.0 91.0 144.0 L91.0 144.0 L91.0 144.0 Z M83.0 144.0 C82.0 144.0 81.0 144.0 81.0 143.0 C81.0 143.0 82.0 142.0 83.0 142.0 L83.0 142.0 C84.0 142.0 85.0 143.0 85.0 143.0 C85.0 144.0 84.0 144.0 83.0 144.0 L83.0 144.0 L83.0 144.0 Z"></path></svg>