<svg xmlns="http://www.w3.org/2000/svg" viewBox="0.0 0.0 200.0 200.0" height="200px" width="200px"><path fill="#ffffff" fill-opacity="1.0"  filling="0" d="M0.0 0.0 L199.0 0.0 L199.0 199.0 L0.0 199.0 L0.0 0.0 L0.0 0.0 Z"></path>
<path fill="#ffffff" fill-opacity="1.0"  filling="0" d="M0.0 0.0 L199.0 0.0 L199.0 199.0 L0.0 199.0 L0.0 0.0 L0.0 0.0 Z"></path>
<path fill="#667777" fill-opacity="1.0"  filling="0" d="M75.0 107.0 C66.0 107.0 58.0 114.0 58.0 122.0 C58.0 131.0 66.0 138.0 75.0 138.0 L125.0 138.0 C134.0 138.0 142.0 131.0 142.0 122.0 C142.0 114.0 134.0 107.0 125.0 107.0 L75.0 107.0 L75.0 107.0 Z"></path>
<path fill="#333333" fill-opacity="1.0"  filling="0" d="M125.0 140.0 L75.0 140.0 C65.0 140.0 56.0 132.0 56.0 122.0 C56.0 112.0 65.0 103.0 75.0 103.0 L125.0 103.0 C135.0 103.0 144.0 112.0 144.0 122.0 C144.0 132.0 135.0 140.0 125.0 140.0 L125.0 140.0 Z M75.0 109.0 C68.0 109.0 61.0 115.0 61.0 122.0 C61.0 129.0 68.0 135.0 75.0 135.0 L125.0 135.0 C132.0 135.0 139.0 129.0 139.0 122.0 C139.0 115.0 132.0 109.0 125.0 109.0 L75.0 109.0 L75.0 109.0 Z"></path>
<path fill="#667777" fill-opacity="1.0"  filling="0" d="M75.0 62.0 L75.0 62.0 C82.0 62.0 82.0 62.0 82.0 68.0 L82.0 68.0 C82.0 75.0 82.0 75.0 75.0 75.0 L75.0 75.0 C68.0 75.0 68.0 75.0 68.0 68.0 L68.0 68.0 C68.0 62.0 68.0 62.0 75.0 62.0 L75.0 62.0 Z"></path>
<path fill="#333333" fill-opacity="1.0"  filling="0" d="M75.0 77.0 A9.0 9.0 0.0 1 1 85.0 68.0 A9.0 9.0 0.0 0 1 75.0 77.0 L75.0 77.0 Z M75.0 64.0 A4.0 4.0 0.0 1 0 80.0 68.0 A4.0 4.0 0.0 0 0 75.0 64.0 L75.0 64.0 Z"></path>
<path fill="#667777" fill-opacity="1.0"  filling="0" d="M107.0 62.0 L107.0 62.0 C114.0 62.0 114.0 62.0 114.0 68.0 L114.0 68.0 C114.0 75.0 114.0 75.0 107.0 75.0 L107.0 75.0 C100.0 75.0 100.0 75.0 100.0 68.0 L100.0 68.0 C100.0 62.0 100.0 62.0 107.0 62.0 L107.0 62.0 Z"></path>
<path fill="#333333" fill-opacity="1.0"  filling="0" d="M107.0 77.0 A9.0 9.0 0.0 1 1 117.0 68.0 A9.0 9.0 0.0 0 1 107.0 77.0 L107.0 77.0 Z M107.0 64.0 A4.0 4.0 0.0 1 0 112.0 68.0 A4.0 4.0 0.0 0 0 107.0 64.0 L107.0 64.0 Z"></path>
<path fill="#667777" fill-opacity="1.0"  filling="0" d="M138.0 62.0 L142.0 62.0 A5.0 5.0 0.0 0 1 147.0 67.0 L147.0 73.0 A5.0 5.0 0.0 0 1 142.0 78.0 L138.0 78.0 L138.0 62.0 L138.0 62.0 Z"></path>
<path fill="#333333" fill-opacity="1.0"  filling="0" d="M142.0 81.0 L138.0 81.0 A2.0 2.0 0.0 0 1 135.0 78.0 L135.0 62.0 A2.0 2.0 0.0 0 1 138.0 60.0 L142.0 60.0 A8.0 8.0 0.0 0 1 149.0 67.0 L149.0 73.0 A8.0 8.0 0.0 0 1 142.0 81.0 L142.0 81.0 Z M140.0 77.0 L142.0 77.0 A3.0 3.0 0.0 0 0 145.0 73.0 L145.0 67.0 A3.0 3.0 0.0 0 0 142.0 64.0 L140.0 64.0 L140.0 77.0 L140.0 77.0 Z"></path>
<path fill="#667777" fill-opacity="1.0"  filling="0" d="M58.0 62.0 L62.0 62.0 L62.0 78.0 L58.0 78.0 A5.0 5.0 0.0 0 1 53.0 73.0 L53.0 67.0 A5.0 5.0 0.0 0 1 58.0 62.0 L58.0 62.0 Z"></path>
<path fill="#333333" fill-opacity="1.0"  filling="0" d="M62.0 81.0 L58.0 81.0 A8.0 8.0 0.0 0 1 51.0 73.0 L51.0 67.0 A8.0 8.0 0.0 0 1 58.0 60.0 L62.0 60.0 A2.0 2.0 0.0 0 1 65.0 62.0 L65.0 78.0 A2.0 2.0 0.0 0 1 62.0 81.0 L62.0 81.0 Z M58.0 64.0 A3.0 3.0 0.0 0 0 55.0 67.0 L55.0 73.0 A3.0 3.0 0.0 0 0 58.0 77.0 L60.0 77.0 L60.0 64.0 L58.0 64.0 L58.0 64.0 Z"></path>
<path fill="#cccccc" fill-opacity="1.0"  filling="0" d="M79.0 38.0 L121.0 38.0 A19.0 19.0 0.0 0 1 140.0 56.0 L140.0 84.0 A19.0 19.0 0.0 0 1 123.0 102.0 L77.0 102.0 A19.0 19.0 0.0 0 1 60.0 84.0 L60.0 56.0 A19.0 19.0 0.0 0 1 79.0 38.0 L79.0 38.0 Z"></path>
<path fill="#333333" fill-opacity="1.0"  filling="0" d="M123.0 105.0 L77.0 105.0 A21.0 21.0 0.0 0 1 57.0 84.0 L57.0 56.0 A21.0 21.0 0.0 0 1 79.0 37.0 L121.0 37.0 A21.0 21.0 0.0 0 1 143.0 56.0 L143.0 84.0 A21.0 21.0 0.0 0 1 123.0 105.0 L123.0 105.0 Z M79.0 41.0 A16.0 16.0 0.0 0 0 62.0 56.0 L62.0 84.0 A16.0 16.0 0.0 0 0 77.0 100.0 L123.0 100.0 A16.0 16.0 0.0 0 0 138.0 84.0 L138.0 56.0 A16.0 16.0 0.0 0 0 121.0 41.0 L79.0 41.0 L79.0 41.0 Z"></path>
<path fill="#333333" fill-opacity="1.0"  filling="0" d="M90.0 86.0 L110.0 86.0 A2.0 2.0 0.0 0 0 112.0 84.0 A2.0 2.0 0.0 0 0 110.0 82.0 L90.0 82.0 A2.0 2.0 0.0 0 0 88.0 84.0 A2.0 2.0 0.0 0 0 90.0 86.0 L90.0 86.0 Z"></path>
<path fill="#333333" fill-opacity="1.0"  filling="0" d="M77.0 77.0 A9.0 9.0 0.0 1 1 86.0 68.0 A9.0 9.0 0.0 0 1 77.0 77.0 L77.0 77.0 Z M77.0 64.0 A4.0 4.0 0.0 1 0 81.0 68.0 A4.0 4.0 0.0 0 0 77.0 64.0 L77.0 64.0 Z M100.0 77.0 A9.0 9.0 0.0 1 1 109.0 68.0 A9.0 9.0 0.0 0 1 100.0 77.0 L100.0 77.0 Z M100.0 64.0 A4.0 4.0 0.0 1 0 104.0 68.0 A4.0 4.0 0.0 0 0 100.0 64.0 L100.0 64.0 Z"></path>
<path fill="#333333" fill-opacity="1.0"  filling="0" d="M123.0 77.0 A9.0 9.0 0.0 1 1 132.0 68.0 A9.0 9.0 0.0 0 1 123.0 77.0 L123.0 77.0 Z M123.0 64.0 A4.0 4.0 0.0 1 0 127.0 68.0 A4.0 4.0 0.0 0 0 123.0 64.0 L123.0 64.0 Z"></path>
<path fill="#667777" fill-opacity="1.0"  filling="0" d="M75.0 125.0 C75.0 125.0 73.0 119.0 81.0 119.0 C86.0 119.0 91.0 122.0 91.0 129.0 C91.0 135.0 79.0 138.0 79.0 138.0 L75.0 125.0 L75.0 125.0 Z"></path>
<path fill="#333333" fill-opacity="1.0"  filling="0" d="M79.0 140.0 A2.0 2.0 0.0 0 1 78.0 140.0 L74.0 127.0 A2.0 2.0 0.0 0 1 73.0 126.0 C73.0 123.0 73.0 117.0 81.0 116.0 C88.0 116.0 93.0 121.0 93.0 129.0 C93.0 136.0 82.0 139.0 80.0 140.0 A2.0 2.0 0.0 0 1 79.0 140.0 L79.0 140.0 Z M77.0 125.0 L80.0 134.0 C84.0 133.0 89.0 131.0 89.0 129.0 C89.0 125.0 86.0 121.0 81.0 121.0 C78.0 121.0 77.0 123.0 77.0 125.0 L77.0 125.0 Z"></path>
<path fill="#667777" fill-opacity="1.0"  filling="0" d="M125.0 125.0 C125.0 125.0 127.0 119.0 119.0 119.0 C114.0 119.0 109.0 122.0 109.0 129.0 C109.0 135.0 121.0 138.0 121.0 138.0 L125.0 125.0 L125.0 125.0 Z"></path>
<path fill="#333333" fill-opacity="1.0"  filling="0" d="M121.0 140.0 A2.0 2.0 0.0 0 1 120.0 140.0 C118.0 139.0 107.0 136.0 107.0 129.0 C107.0 121.0 112.0 116.0 119.0 116.0 C127.0 117.0 127.0 123.0 127.0 126.0 A2.0 2.0 0.0 0 1 126.0 127.0 L122.0 139.0 A2.0 2.0 0.0 0 1 121.0 140.0 L121.0 140.0 Z M119.0 121.0 C114.0 121.0 111.0 125.0 111.0 129.0 C111.0 131.0 116.0 133.0 120.0 134.0 L123.0 125.0 C123.0 123.0 122.0 121.0 119.0 121.0 L119.0 121.0 Z"></path>
<path fill="#667777" fill-opacity="1.0"  filling="0" d="M123.0 138.0 L77.0 138.0 A12.0 12.0 0.0 0 1 65.0 149.0 L65.0 164.0 A12.0 12.0 0.0 0 1 77.0 177.0 L123.0 177.0 A12.0 12.0 0.0 0 1 135.0 164.0 L135.0 149.0 A12.0 12.0 0.0 0 1 123.0 138.0 L123.0 138.0 Z"></path>
<path fill="#333333" fill-opacity="1.0"  filling="0" d="M123.0 179.0 L77.0 179.0 A14.0 14.0 0.0 0 1 63.0 164.0 L63.0 149.0 A14.0 14.0 0.0 0 1 77.0 135.0 L123.0 135.0 A14.0 14.0 0.0 0 1 137.0 149.0 L137.0 164.0 A14.0 14.0 0.0 0 1 123.0 179.0 L123.0 179.0 Z M77.0 140.0 A10.0 10.0 0.0 0 0 67.0 149.0 L67.0 164.0 A10.0 10.0 0.0 0 0 77.0 174.0 L123.0 174.0 A10.0 10.0 0.0 0 0 133.0 164.0 L133.0 149.0 A10.0 10.0 0.0 0 0 123.0 140.0 L77.0 140.0 L77.0 140.0 Z"></path>
<path fill="#667777" fill-opacity="1.0"  filling="0" d="M78.0 159.0 L91.0 159.0 L91.0 179.0 L78.0 179.0 A7.0 7.0 0.0 0 1 70.0 173.0 L70.0 168.0 A7.0 7.0 0.0 0 1 78.0 159.0 L78.0 159.0 Z"></path>
<path fill="#333333" fill-opacity="1.0"  filling="0" d="M91.0 182.0 L78.0 182.0 A9.0 9.0 0.0 0 1 67.0 173.0 L67.0 168.0 A9.0 9.0 0.0 0 1 78.0 157.0 L91.0 157.0 A2.0 2.0 0.0 0 1 92.0 159.0 L92.0 179.0 A2.0 2.0 0.0 0 1 91.0 182.0 L91.0 182.0 Z M78.0 161.0 A5.0 5.0 0.0 0 0 72.0 168.0 L72.0 173.0 A5.0 5.0 0.0 0 0 78.0 177.0 L89.0 177.0 L89.0 161.0 L78.0 161.0 L78.0 161.0 Z"></path>
<path fill="#667777" fill-opacity="1.0"  filling="0" d="M122.0 159.0 L109.0 159.0 L109.0 179.0 L122.0 179.0 A7.0 7.0 0.0 0 0 130.0 173.0 L130.0 168.0 A7.0 7.0 0.0 0 0 122.0 159.0 L122.0 159.0 Z"></path>
<path fill="#333333" fill-opacity="1.0"  filling="0" d="M122.0 182.0 L109.0 182.0 A2.0 2.0 0.0 0 1 108.0 179.0 L108.0 159.0 A2.0 2.0 0.0 0 1 109.0 157.0 L122.0 157.0 A9.0 9.0 0.0 0 1 133.0 168.0 L133.0 173.0 A9.0 9.0 0.0 0 1 122.0 182.0 L122.0 182.0 Z M111.0 177.0 L122.0 177.0 A5.0 5.0 0.0 0 0 128.0 173.0 L128.0 168.0 A5.0 5.0 0.0 0 0 122.0 161.0 L111.0 161.0 L111.0 177.0 L111.0 177.0 Z"></path>
<path fill="#667777" fill-opacity="1.0"  filling="0" d="M94.0 150.0 L106.0 150.0 L106.0 179.0 L94.0 179.0 L94.0 150.0 L94.0 150.0 Z"></path>
<path fill="#333333" fill-opacity="1.0"  filling="0" d="M106.0 182.0 L94.0 182.0 A2.0 2.0 0.0 0 1 92.0 179.0 L92.0 150.0 A2.0 2.0 0.0 0 1 94.0 148.0 L106.0 148.0 A2.0 2.0 0.0 0 1 108.0 150.0 L108.0 179.0 A2.0 2.0 0.0 0 1 106.0 182.0 L106.0 182.0 Z M96.0 177.0 L104.0 177.0 L104.0 152.0 L96.0 152.0 L96.0 177.0 L96.0 177.0 Z"></path>
<path fill="#000000" fill-opacity="1.0"  filling="0" d="M88.0 107.0 C88.0 107.0 84.0 107.0 84.0 112.0 C84.0 117.0 89.0 119.0 89.0 119.0 L100.0 120.0 L100.0 119.0 L100.0 120.0 L100.0 120.0 L111.0 119.0 C111.0 119.0 116.0 117.0 116.0 112.0 C116.0 107.0 112.0 107.0 112.0 107.0 L112.0 107.0 A10.0 10.0 0.0 0 0 100.0 112.0 A10.0 10.0 0.0 0 0 89.0 107.0"></path></svg>